<?xml version="1.0" encoding="UTF-8" standalone="no"?>
<!DOCTYPE svg PUBLIC "-//W3C//DTD SVG 1.1//EN"
 "http://www.w3.org/Graphics/SVG/1.1/DTD/svg11.dtd">
<!-- Generated by graphviz version 2.36.0 (20140111.2315)
 -->
<!-- Title: fun4all/phool/PHFlag.h Pages: 1 -->
<svg width="1410pt" height="164pt"
 viewBox="0.00 0.00 1410.00 164.00" xmlns="http://www.w3.org/2000/svg" xmlns:xlink="http://www.w3.org/1999/xlink">
<g id="graph0" class="graph" transform="scale(1 1) rotate(0) translate(4 160)">
<title>fun4all/phool/PHFlag.h</title>
<!-- Node1 -->
<g id="node1" class="node"><title>Node1</title>
<polygon fill="#bfbfbf" stroke="black" points="477.5,-136.5 477.5,-155.5 592.5,-155.5 592.5,-136.5 477.5,-136.5"/>
<text text-anchor="middle" x="535" y="-143.5" font-family="FreeSans" font-size="10.00">fun4all/phool/PHFlag.h</text>
</g>
<!-- Node2 -->
<g id="node2" class="node"><title>Node2</title>
<g id="a_node2"><a xlink:href="../../d1/d32/FlagSavev1_8cc.html" target="_top" xlink:title="fun4all/ffaobjects\l/FlagSavev1.cc">
<polygon fill="none" stroke="black" points="367,-69 367,-99 457,-99 457,-69 367,-69"/>
<text text-anchor="start" x="375" y="-87" font-family="FreeSans" font-size="10.00">fun4all/ffaobjects</text>
<text text-anchor="middle" x="412" y="-76" font-family="FreeSans" font-size="10.00">/FlagSavev1.cc</text>
</a>
</g>
</g>
<!-- Node1&#45;&gt;Node2 -->
<g id="edge1" class="edge"><title>Node1&#45;&gt;Node2</title>
<path fill="none" stroke="midnightblue" d="M508.27,-131.961C488.416,-122.276 461.362,-109.079 440.989,-99.1408"/>
<polygon fill="midnightblue" stroke="midnightblue" points="506.855,-135.165 517.377,-136.403 509.924,-128.873 506.855,-135.165"/>
</g>
<!-- Node3 -->
<g id="node3" class="node"><title>Node3</title>
<g id="a_node3"><a xlink:href="../../d6/da7/PHFlag_8cc.html" target="_top" xlink:title="fun4all/phool/PHFlag.cc">
<polygon fill="none" stroke="black" points="475,-74.5 475,-93.5 595,-93.5 595,-74.5 475,-74.5"/>
<text text-anchor="middle" x="535" y="-81.5" font-family="FreeSans" font-size="10.00">fun4all/phool/PHFlag.cc</text>
</a>
</g>
</g>
<!-- Node1&#45;&gt;Node3 -->
<g id="edge2" class="edge"><title>Node1&#45;&gt;Node3</title>
<path fill="none" stroke="midnightblue" d="M535,-126.16C535,-115.248 535,-102.04 535,-93.5806"/>
<polygon fill="midnightblue" stroke="midnightblue" points="531.5,-126.403 535,-136.403 538.5,-126.403 531.5,-126.403"/>
</g>
<!-- Node4 -->
<g id="node4" class="node"><title>Node4</title>
<g id="a_node4"><a xlink:href="../../d2/dcb/recoConsts_8h.html" target="_top" xlink:title="fun4all/phool/recoConsts.h">
<polygon fill="none" stroke="black" points="613.5,-74.5 613.5,-93.5 744.5,-93.5 744.5,-74.5 613.5,-74.5"/>
<text text-anchor="middle" x="679" y="-81.5" font-family="FreeSans" font-size="10.00">fun4all/phool/recoConsts.h</text>
</a>
</g>
</g>
<!-- Node1&#45;&gt;Node4 -->
<g id="edge3" class="edge"><title>Node1&#45;&gt;Node4</title>
<path fill="none" stroke="midnightblue" d="M564.934,-132.527C592.91,-120.871 633.937,-103.776 658.407,-93.5806"/>
<polygon fill="midnightblue" stroke="midnightblue" points="563.516,-129.326 555.632,-136.403 566.209,-135.788 563.516,-129.326"/>
</g>
<!-- Node5 -->
<g id="node5" class="node"><title>Node5</title>
<g id="a_node5"><a xlink:href="../../d3/d53/Fun4AllDstInputManager_8cc.html" target="_top" xlink:title="fun4all/fun4all/Fun4AllDst\lInputManager.cc">
<polygon fill="none" stroke="black" points="0,-1 0,-31 128,-31 128,-1 0,-1"/>
<text text-anchor="start" x="8" y="-19" font-family="FreeSans" font-size="10.00">fun4all/fun4all/Fun4AllDst</text>
<text text-anchor="middle" x="64" y="-8" font-family="FreeSans" font-size="10.00">InputManager.cc</text>
</a>
</g>
</g>
<!-- Node4&#45;&gt;Node5 -->
<g id="edge4" class="edge"><title>Node4&#45;&gt;Node5</title>
<path fill="none" stroke="midnightblue" d="M630.427,-72.53C621.344,-70.8236 611.907,-69.2187 603,-68 397.189,-39.8397 342.699,-60.9622 137,-32 134.053,-31.5851 131.047,-31.1237 128.015,-30.6274"/>
<polygon fill="midnightblue" stroke="midnightblue" points="630,-76.0125 640.485,-74.4845 631.336,-69.1411 630,-76.0125"/>
</g>
<!-- Node6 -->
<g id="node6" class="node"><title>Node6</title>
<g id="a_node6"><a xlink:href="../../dd/dec/Fun4AllDummyInputManager_8cc.html" target="_top" xlink:title="fun4all/fun4all/Fun4AllDummy\lInputManager.cc">
<polygon fill="none" stroke="black" points="146,-1 146,-31 292,-31 292,-1 146,-1"/>
<text text-anchor="start" x="154" y="-19" font-family="FreeSans" font-size="10.00">fun4all/fun4all/Fun4AllDummy</text>
<text text-anchor="middle" x="219" y="-8" font-family="FreeSans" font-size="10.00">InputManager.cc</text>
</a>
</g>
</g>
<!-- Node4&#45;&gt;Node6 -->
<g id="edge5" class="edge"><title>Node4&#45;&gt;Node6</title>
<path fill="none" stroke="midnightblue" d="M628.915,-72.553C620.292,-70.9154 611.402,-69.328 603,-68 469.485,-46.8977 434.659,-52.1713 301,-32 298.138,-31.5681 295.223,-31.1121 292.28,-30.6384"/>
<polygon fill="midnightblue" stroke="midnightblue" points="628.387,-76.0157 638.871,-74.4859 629.721,-69.144 628.387,-76.0157"/>
</g>
<!-- Node7 -->
<g id="node7" class="node"><title>Node7</title>
<g id="a_node7"><a xlink:href="../../df/d24/Fun4AllHistoManager_8cc.html" target="_top" xlink:title="fun4all/fun4all/Fun4AllHisto\lManager.cc">
<polygon fill="none" stroke="black" points="310,-1 310,-31 446,-31 446,-1 310,-1"/>
<text text-anchor="start" x="318" y="-19" font-family="FreeSans" font-size="10.00">fun4all/fun4all/Fun4AllHisto</text>
<text text-anchor="middle" x="378" y="-8" font-family="FreeSans" font-size="10.00">Manager.cc</text>
</a>
</g>
</g>
<!-- Node4&#45;&gt;Node7 -->
<g id="edge6" class="edge"><title>Node4&#45;&gt;Node7</title>
<path fill="none" stroke="midnightblue" d="M630.123,-72.2828C578.905,-61.0522 498.216,-43.3597 441.961,-31.0247"/>
<polygon fill="midnightblue" stroke="midnightblue" points="629.44,-75.7162 639.958,-74.4393 630.94,-68.8786 629.44,-75.7162"/>
</g>
<!-- Node8 -->
<g id="node8" class="node"><title>Node8</title>
<g id="a_node8"><a xlink:href="../../da/d7b/Fun4AllPrdfInputManager_8cc.html" target="_top" xlink:title="fun4all/fun4all/Fun4AllPrdf\lInputManager.cc">
<polygon fill="none" stroke="black" points="464.5,-1 464.5,-31 595.5,-31 595.5,-1 464.5,-1"/>
<text text-anchor="start" x="472.5" y="-19" font-family="FreeSans" font-size="10.00">fun4all/fun4all/Fun4AllPrdf</text>
<text text-anchor="middle" x="530" y="-8" font-family="FreeSans" font-size="10.00">InputManager.cc</text>
</a>
</g>
</g>
<!-- Node4&#45;&gt;Node8 -->
<g id="edge7" class="edge"><title>Node4&#45;&gt;Node8</title>
<path fill="none" stroke="midnightblue" d="M650.077,-70.1883C624.712,-58.953 587.9,-42.6472 561.733,-31.0562"/>
<polygon fill="midnightblue" stroke="midnightblue" points="648.96,-73.5217 659.521,-74.3717 651.795,-67.1215 648.96,-73.5217"/>
</g>
<!-- Node9 -->
<g id="node9" class="node"><title>Node9</title>
<g id="a_node9"><a xlink:href="../../d8/d3b/Fun4AllPrdfOutputManager_8cc.html" target="_top" xlink:title="fun4all/fun4all/Fun4AllPrdf\lOutputManager.cc">
<polygon fill="none" stroke="black" points="613.5,-1 613.5,-31 744.5,-31 744.5,-1 613.5,-1"/>
<text text-anchor="start" x="621.5" y="-19" font-family="FreeSans" font-size="10.00">fun4all/fun4all/Fun4AllPrdf</text>
<text text-anchor="middle" x="679" y="-8" font-family="FreeSans" font-size="10.00">OutputManager.cc</text>
</a>
</g>
</g>
<!-- Node4&#45;&gt;Node9 -->
<g id="edge8" class="edge"><title>Node4&#45;&gt;Node9</title>
<path fill="none" stroke="midnightblue" d="M679,-64.1737C679,-53.6781 679,-40.8209 679,-31.1815"/>
<polygon fill="midnightblue" stroke="midnightblue" points="675.5,-64.3716 679,-74.3717 682.5,-64.3717 675.5,-64.3716"/>
</g>
<!-- Node10 -->
<g id="node10" class="node"><title>Node10</title>
<g id="a_node10"><a xlink:href="../../d8/d7a/Fun4AllServer_8cc.html" target="_top" xlink:title="fun4all/fun4all/Fun4AllServer.cc">
<polygon fill="none" stroke="black" points="763,-6.5 763,-25.5 917,-25.5 917,-6.5 763,-6.5"/>
<text text-anchor="middle" x="840" y="-13.5" font-family="FreeSans" font-size="10.00">fun4all/fun4all/Fun4AllServer.cc</text>
</a>
</g>
</g>
<!-- Node4&#45;&gt;Node10 -->
<g id="edge9" class="edge"><title>Node4&#45;&gt;Node10</title>
<path fill="none" stroke="midnightblue" d="M709.404,-70.5361C741.52,-57.3706 791.292,-36.9673 819.202,-25.5259"/>
<polygon fill="midnightblue" stroke="midnightblue" points="707.973,-67.3401 700.048,-74.3717 710.628,-73.817 707.973,-67.3401"/>
</g>
<!-- Node11 -->
<g id="node11" class="node"><title>Node11</title>
<g id="a_node11"><a xlink:href="../../df/d03/Fun4AllSyncManager_8cc.html" target="_top" xlink:title="fun4all/fun4all/Fun4AllSync\lManager.cc">
<polygon fill="none" stroke="black" points="935,-1 935,-31 1069,-31 1069,-1 935,-1"/>
<text text-anchor="start" x="943" y="-19" font-family="FreeSans" font-size="10.00">fun4all/fun4all/Fun4AllSync</text>
<text text-anchor="middle" x="1002" y="-8" font-family="FreeSans" font-size="10.00">Manager.cc</text>
</a>
</g>
</g>
<!-- Node4&#45;&gt;Node11 -->
<g id="edge10" class="edge"><title>Node4&#45;&gt;Node11</title>
<path fill="none" stroke="midnightblue" d="M730.845,-72.4063C786.238,-61.0877 874.243,-43.1051 934.889,-30.7131"/>
<polygon fill="midnightblue" stroke="midnightblue" points="729.992,-69.0081 720.895,-74.4393 731.394,-75.8664 729.992,-69.0081"/>
</g>
<!-- Node12 -->
<g id="node12" class="node"><title>Node12</title>
<g id="a_node12"><a xlink:href="../../d4/d30/PHRandomSeed_8cc.html" target="_top" xlink:title="fun4all/phool/PHRandomSeed.cc">
<polygon fill="none" stroke="black" points="1087,-6.5 1087,-25.5 1247,-25.5 1247,-6.5 1087,-6.5"/>
<text text-anchor="middle" x="1167" y="-13.5" font-family="FreeSans" font-size="10.00">fun4all/phool/PHRandomSeed.cc</text>
</a>
</g>
</g>
<!-- Node4&#45;&gt;Node12 -->
<g id="edge11" class="edge"><title>Node4&#45;&gt;Node12</title>
<path fill="none" stroke="midnightblue" d="M754.801,-74.2224C835.155,-64.7045 965.711,-48.6322 1078,-32 1091.18,-30.0485 1105.41,-27.7393 1118.56,-25.525"/>
<polygon fill="midnightblue" stroke="midnightblue" points="754.292,-70.7581 744.772,-75.4072 755.114,-77.7098 754.292,-70.7581"/>
</g>
<!-- Node13 -->
<g id="node13" class="node"><title>Node13</title>
<g id="a_node13"><a xlink:href="../../d7/df1/recoConsts_8cc.html" target="_top" xlink:title="fun4all/phool/recoConsts.cc">
<polygon fill="none" stroke="black" points="1265.5,-6.5 1265.5,-25.5 1402.5,-25.5 1402.5,-6.5 1265.5,-6.5"/>
<text text-anchor="middle" x="1334" y="-13.5" font-family="FreeSans" font-size="10.00">fun4all/phool/recoConsts.cc</text>
</a>
</g>
</g>
<!-- Node4&#45;&gt;Node13 -->
<g id="edge12" class="edge"><title>Node4&#45;&gt;Node13</title>
<path fill="none" stroke="midnightblue" d="M754.628,-78.7789C865.145,-72.053 1077.09,-57.0435 1256,-32 1268.29,-30.2795 1281.58,-27.9148 1293.65,-25.5715"/>
<polygon fill="midnightblue" stroke="midnightblue" points="754.349,-75.2892 744.578,-79.3846 754.77,-82.2766 754.349,-75.2892"/>
</g>
</g>
</svg>
