<?xml version="1.0" encoding="UTF-8" standalone="no"?>
<!DOCTYPE svg PUBLIC "-//W3C//DTD SVG 1.1//EN"
 "http://www.w3.org/Graphics/SVG/1.1/DTD/svg11.dtd">
<!-- Generated by graphviz version 2.36.0 (20140111.2315)
 -->
<!-- Title: fun4all/fun4all/Fun4AllOutputManager.cc Pages: 1 -->
<svg width="553pt" height="264pt"
 viewBox="0.00 0.00 553.47 264.00" xmlns="http://www.w3.org/2000/svg" xmlns:xlink="http://www.w3.org/1999/xlink">
<g id="graph0" class="graph" transform="scale(1 1) rotate(0) translate(4 260)">
<title>fun4all/fun4all/Fun4AllOutputManager.cc</title>
<!-- Node1 -->
<g id="node1" class="node"><title>Node1</title>
<polygon fill="#bfbfbf" stroke="black" points="212.466,-225 212.466,-255 354.466,-255 354.466,-225 212.466,-225"/>
<text text-anchor="start" x="220.466" y="-243" font-family="FreeSans" font-size="10.00">fun4all/fun4all/Fun4AllOutput</text>
<text text-anchor="middle" x="283.466" y="-232" font-family="FreeSans" font-size="10.00">Manager.cc</text>
</g>
<!-- Node2 -->
<g id="node2" class="node"><title>Node2</title>
<g id="a_node2"><a xlink:href="../../de/df8/Fun4AllOutputManager_8h.html" target="_top" xlink:title="Fun4AllOutputManager.h">
<polygon fill="none" stroke="black" points="421.466,-168.5 421.466,-187.5 545.466,-187.5 545.466,-168.5 421.466,-168.5"/>
<text text-anchor="middle" x="483.466" y="-175.5" font-family="FreeSans" font-size="10.00">Fun4AllOutputManager.h</text>
</a>
</g>
</g>
<!-- Node1&#45;&gt;Node2 -->
<g id="edge1" class="edge"><title>Node1&#45;&gt;Node2</title>
<path fill="none" stroke="midnightblue" d="M330.357,-224.933C365.409,-214.417 412.725,-200.222 445.437,-190.409"/>
<polygon fill="midnightblue" stroke="midnightblue" points="446.518,-193.739 455.09,-187.513 444.506,-187.034 446.518,-193.739"/>
</g>
<!-- Node4 -->
<g id="node4" class="node"><title>Node4</title>
<polygon fill="none" stroke="#bfbfbf" points="262.966,-0.5 262.966,-19.5 303.966,-19.5 303.966,-0.5 262.966,-0.5"/>
<text text-anchor="middle" x="283.466" y="-7.5" font-family="FreeSans" font-size="10.00">string</text>
</g>
<!-- Node1&#45;&gt;Node4 -->
<g id="edge23" class="edge"><title>Node1&#45;&gt;Node4</title>
<path fill="none" stroke="midnightblue" d="M212.188,-232.296C148.656,-222.118 59.1617,-196.496 15.4657,-132 -3.48007,-104.036 -6.35179,-81.7863 15.4657,-56 45.5691,-20.4205 188.831,-12.9561 252.66,-11.4022"/>
<polygon fill="midnightblue" stroke="midnightblue" points="252.978,-14.8963 262.903,-11.1875 252.832,-7.89788 252.978,-14.8963"/>
</g>
<!-- Node6 -->
<g id="node6" class="node"><title>Node6</title>
<polygon fill="none" stroke="#bfbfbf" points="436.466,-112.5 436.466,-131.5 480.466,-131.5 480.466,-112.5 436.466,-112.5"/>
<text text-anchor="middle" x="458.466" y="-119.5" font-family="FreeSans" font-size="10.00">vector</text>
</g>
<!-- Node1&#45;&gt;Node6 -->
<g id="edge24" class="edge"><title>Node1&#45;&gt;Node6</title>
<path fill="none" stroke="midnightblue" d="M304.924,-224.776C338.461,-202.546 402.945,-159.802 436.681,-137.44"/>
<polygon fill="midnightblue" stroke="midnightblue" points="438.929,-140.149 445.33,-131.707 435.061,-134.315 438.929,-140.149"/>
</g>
<!-- Node7 -->
<g id="node7" class="node"><title>Node7</title>
<g id="a_node7"><a xlink:href="../../dc/da2/Fun4AllServer_8h.html" target="_top" xlink:title="Fun4AllServer.h">
<polygon fill="none" stroke="black" points="240.466,-168.5 240.466,-187.5 326.466,-187.5 326.466,-168.5 240.466,-168.5"/>
<text text-anchor="middle" x="283.466" y="-175.5" font-family="FreeSans" font-size="10.00">Fun4AllServer.h</text>
</a>
</g>
</g>
<!-- Node1&#45;&gt;Node7 -->
<g id="edge7" class="edge"><title>Node1&#45;&gt;Node7</title>
<path fill="none" stroke="midnightblue" d="M283.466,-224.781C283.466,-216.781 283.466,-206.689 283.466,-198.017"/>
<polygon fill="midnightblue" stroke="midnightblue" points="286.966,-197.73 283.466,-187.731 279.966,-197.731 286.966,-197.73"/>
</g>
<!-- Node9 -->
<g id="node9" class="node"><title>Node9</title>
<polygon fill="none" stroke="#bfbfbf" points="178.466,-56.5 178.466,-75.5 232.466,-75.5 232.466,-56.5 178.466,-56.5"/>
<text text-anchor="middle" x="205.466" y="-63.5" font-family="FreeSans" font-size="10.00">iostream</text>
</g>
<!-- Node1&#45;&gt;Node9 -->
<g id="edge22" class="edge"><title>Node1&#45;&gt;Node9</title>
<path fill="none" stroke="midnightblue" d="M266.088,-224.624C255.22,-215.029 241.44,-201.698 231.466,-188 215.086,-165.505 209.859,-159.082 203.466,-132 199.854,-116.703 200.762,-98.82 202.342,-85.6881"/>
<polygon fill="midnightblue" stroke="midnightblue" points="205.84,-85.9532 203.807,-75.5553 198.912,-84.9517 205.84,-85.9532"/>
</g>
<!-- Node3 -->
<g id="node3" class="node"><title>Node3</title>
<g id="a_node3"><a xlink:href="../../d2/de7/Fun4AllBase_8h.html" target="_top" xlink:title="Fun4AllBase.h">
<polygon fill="none" stroke="black" points="367.466,-56.5 367.466,-75.5 447.466,-75.5 447.466,-56.5 367.466,-56.5"/>
<text text-anchor="middle" x="407.466" y="-63.5" font-family="FreeSans" font-size="10.00">Fun4AllBase.h</text>
</a>
</g>
</g>
<!-- Node2&#45;&gt;Node3 -->
<g id="edge2" class="edge"><title>Node2&#45;&gt;Node3</title>
<path fill="none" stroke="midnightblue" d="M487.096,-168.297C491.978,-155.117 498.912,-129.754 488.466,-112 479.548,-96.844 463.477,-86.4264 447.988,-79.464"/>
<polygon fill="midnightblue" stroke="midnightblue" points="449.068,-76.124 438.488,-75.5639 446.41,-82.5996 449.068,-76.124"/>
</g>
<!-- Node2&#45;&gt;Node4 -->
<g id="edge6" class="edge"><title>Node2&#45;&gt;Node4</title>
<path fill="none" stroke="midnightblue" d="M490.166,-168.088C498.776,-155.489 511.789,-131.798 504.466,-112 493.093,-81.2556 484.268,-73.366 456.466,-56 411.906,-28.1675 350.627,-17.467 314.227,-13.4114"/>
<polygon fill="midnightblue" stroke="midnightblue" points="314.518,-9.92294 304.215,-12.3945 313.81,-16.8871 314.518,-9.92294"/>
</g>
<!-- Node2&#45;&gt;Node6 -->
<g id="edge5" class="edge"><title>Node2&#45;&gt;Node6</title>
<path fill="none" stroke="midnightblue" d="M479.337,-168.083C475.952,-160.77 471.05,-150.181 466.847,-141.103"/>
<polygon fill="midnightblue" stroke="midnightblue" points="469.895,-139.355 462.517,-131.751 463.542,-142.296 469.895,-139.355"/>
</g>
<!-- Node3&#45;&gt;Node4 -->
<g id="edge3" class="edge"><title>Node3&#45;&gt;Node4</title>
<path fill="none" stroke="midnightblue" d="M387.818,-56.4435C367.501,-47.5961 335.563,-33.6875 312.368,-23.5865"/>
<polygon fill="midnightblue" stroke="midnightblue" points="313.588,-20.3002 303.022,-19.5164 310.793,-26.7181 313.588,-20.3002"/>
</g>
<!-- Node5 -->
<g id="node5" class="node"><title>Node5</title>
<polygon fill="none" stroke="#bfbfbf" points="384.966,-0.5 384.966,-19.5 429.966,-19.5 429.966,-0.5 384.966,-0.5"/>
<text text-anchor="middle" x="407.466" y="-7.5" font-family="FreeSans" font-size="10.00">climits</text>
</g>
<!-- Node3&#45;&gt;Node5 -->
<g id="edge4" class="edge"><title>Node3&#45;&gt;Node5</title>
<path fill="none" stroke="midnightblue" d="M407.466,-56.083C407.466,-49.0059 407.466,-38.8611 407.466,-29.9865"/>
<polygon fill="midnightblue" stroke="midnightblue" points="410.966,-29.751 407.466,-19.7511 403.966,-29.7511 410.966,-29.751"/>
</g>
<!-- Node7&#45;&gt;Node3 -->
<g id="edge8" class="edge"><title>Node7&#45;&gt;Node3</title>
<path fill="none" stroke="midnightblue" d="M306.926,-168.388C325.034,-160.869 349.883,-148.561 367.466,-132 381.747,-118.549 392.889,-98.9139 399.746,-84.7478"/>
<polygon fill="midnightblue" stroke="midnightblue" points="402.97,-86.1139 403.965,-75.5658 396.609,-83.1911 402.97,-86.1139"/>
</g>
<!-- Node7&#45;&gt;Node4 -->
<g id="edge20" class="edge"><title>Node7&#45;&gt;Node4</title>
<path fill="none" stroke="midnightblue" d="M240.312,-175.727C175.447,-172.803 57.6061,-163.222 31.4657,-132 9.78195,-106.101 9.78195,-81.8989 31.4657,-56 59.3888,-22.6489 191.947,-13.9907 252.798,-11.7625"/>
<polygon fill="midnightblue" stroke="midnightblue" points="253.067,-15.2556 262.945,-11.4267 252.835,-8.25943 253.067,-15.2556"/>
</g>
<!-- Node7&#45;&gt;Node6 -->
<g id="edge21" class="edge"><title>Node7&#45;&gt;Node6</title>
<path fill="none" stroke="midnightblue" d="M311.195,-168.444C342.638,-158.741 393.806,-142.952 426.795,-132.773"/>
<polygon fill="midnightblue" stroke="midnightblue" points="427.884,-136.1 436.407,-129.807 425.82,-129.411 427.884,-136.1"/>
</g>
<!-- Node8 -->
<g id="node8" class="node"><title>Node8</title>
<g id="a_node8"><a xlink:href="../../d0/d59/Fun4AllHistoManager_8h.html" target="_top" xlink:title="Fun4AllHistoManager.h">
<polygon fill="none" stroke="black" points="224.466,-112.5 224.466,-131.5 342.466,-131.5 342.466,-112.5 224.466,-112.5"/>
<text text-anchor="middle" x="283.466" y="-119.5" font-family="FreeSans" font-size="10.00">Fun4AllHistoManager.h</text>
</a>
</g>
</g>
<!-- Node7&#45;&gt;Node8 -->
<g id="edge9" class="edge"><title>Node7&#45;&gt;Node8</title>
<path fill="none" stroke="midnightblue" d="M283.466,-168.083C283.466,-161.006 283.466,-150.861 283.466,-141.986"/>
<polygon fill="midnightblue" stroke="midnightblue" points="286.966,-141.751 283.466,-131.751 279.966,-141.751 286.966,-141.751"/>
</g>
<!-- Node7&#45;&gt;Node9 -->
<g id="edge18" class="edge"><title>Node7&#45;&gt;Node9</title>
<path fill="none" stroke="midnightblue" d="M261.795,-168.403C246.319,-161.093 226.38,-149.05 215.466,-132 206.713,-118.327 204.598,-99.7909 204.448,-86.0114"/>
<polygon fill="midnightblue" stroke="midnightblue" points="207.953,-85.8438 204.681,-75.7667 200.954,-85.6845 207.953,-85.8438"/>
</g>
<!-- Node10 -->
<g id="node10" class="node"><title>Node10</title>
<polygon fill="none" stroke="#bfbfbf" points="312.966,-56.5 312.966,-75.5 347.966,-75.5 347.966,-56.5 312.966,-56.5"/>
<text text-anchor="middle" x="330.466" y="-63.5" font-family="FreeSans" font-size="10.00">map</text>
</g>
<!-- Node7&#45;&gt;Node10 -->
<g id="edge19" class="edge"><title>Node7&#45;&gt;Node10</title>
<path fill="none" stroke="midnightblue" d="M306.92,-168.408C322.627,-161.28 342.084,-149.458 351.466,-132 359.676,-116.722 351.651,-97.6864 343.262,-84.1726"/>
<polygon fill="midnightblue" stroke="midnightblue" points="346.101,-82.1236 337.591,-75.8131 340.309,-86.0535 346.101,-82.1236"/>
</g>
<!-- Node11 -->
<g id="node11" class="node"><title>Node11</title>
<g id="a_node11"><a xlink:href="../../dc/d26/PHTimer_8h.html" target="_top" xlink:title="high precision timer ">
<polygon fill="none" stroke="black" points="40.9657,-112.5 40.9657,-131.5 129.966,-131.5 129.966,-112.5 40.9657,-112.5"/>
<text text-anchor="middle" x="85.4657" y="-119.5" font-family="FreeSans" font-size="10.00">phool/PHTimer.h</text>
</a>
</g>
</g>
<!-- Node7&#45;&gt;Node11 -->
<g id="edge14" class="edge"><title>Node7&#45;&gt;Node11</title>
<path fill="none" stroke="midnightblue" d="M252.092,-168.444C218.203,-159.201 164.063,-144.436 126.742,-134.257"/>
<polygon fill="midnightblue" stroke="midnightblue" points="127.261,-130.771 116.693,-131.516 125.419,-137.524 127.261,-130.771"/>
</g>
<!-- Node8&#45;&gt;Node3 -->
<g id="edge10" class="edge"><title>Node8&#45;&gt;Node3</title>
<path fill="none" stroke="midnightblue" d="M303.114,-112.444C323.43,-103.596 355.369,-89.6875 378.563,-79.5865"/>
<polygon fill="midnightblue" stroke="midnightblue" points="380.139,-82.7181 387.909,-75.5164 377.344,-76.3002 380.139,-82.7181"/>
</g>
<!-- Node8&#45;&gt;Node4 -->
<g id="edge13" class="edge"><title>Node8&#45;&gt;Node4</title>
<path fill="none" stroke="midnightblue" d="M283.466,-112.368C283.466,-94.617 283.466,-53.6664 283.466,-29.5974"/>
<polygon fill="midnightblue" stroke="midnightblue" points="286.966,-29.5914 283.466,-19.5914 279.966,-29.5915 286.966,-29.5914"/>
</g>
<!-- Node8&#45;&gt;Node9 -->
<g id="edge11" class="edge"><title>Node8&#45;&gt;Node9</title>
<path fill="none" stroke="midnightblue" d="M270.934,-112.324C258.88,-103.979 240.439,-91.2122 226.197,-81.3524"/>
<polygon fill="midnightblue" stroke="midnightblue" points="228.181,-78.469 217.967,-75.6545 224.196,-84.2243 228.181,-78.469"/>
</g>
<!-- Node8&#45;&gt;Node10 -->
<g id="edge12" class="edge"><title>Node8&#45;&gt;Node10</title>
<path fill="none" stroke="midnightblue" d="M291.227,-112.083C298.003,-104.298 308.009,-92.8015 316.221,-83.3665"/>
<polygon fill="midnightblue" stroke="midnightblue" points="318.924,-85.592 322.849,-75.7511 313.644,-80.9963 318.924,-85.592"/>
</g>
<!-- Node11&#45;&gt;Node9 -->
<g id="edge15" class="edge"><title>Node11&#45;&gt;Node9</title>
<path fill="none" stroke="midnightblue" d="M104.48,-112.444C124.053,-103.636 154.773,-89.8116 177.195,-79.722"/>
<polygon fill="midnightblue" stroke="midnightblue" points="178.857,-82.8119 186.54,-75.5164 175.985,-76.4284 178.857,-82.8119"/>
</g>
<!-- Node12 -->
<g id="node12" class="node"><title>Node12</title>
<polygon fill="none" stroke="#bfbfbf" points="40.4657,-56.5 40.4657,-75.5 92.4657,-75.5 92.4657,-56.5 40.4657,-56.5"/>
<text text-anchor="middle" x="66.4657" y="-63.5" font-family="FreeSans" font-size="10.00">sstream</text>
</g>
<!-- Node11&#45;&gt;Node12 -->
<g id="edge16" class="edge"><title>Node11&#45;&gt;Node12</title>
<path fill="none" stroke="midnightblue" d="M82.3283,-112.083C79.7828,-104.849 76.1095,-94.4087 72.9387,-85.3968"/>
<polygon fill="midnightblue" stroke="midnightblue" points="76.1655,-84.0225 69.5448,-75.7511 69.5623,-86.3459 76.1655,-84.0225"/>
</g>
<!-- Node13 -->
<g id="node13" class="node"><title>Node13</title>
<polygon fill="none" stroke="#bfbfbf" points="110.466,-56.5 110.466,-75.5 160.466,-75.5 160.466,-56.5 110.466,-56.5"/>
<text text-anchor="middle" x="135.466" y="-63.5" font-family="FreeSans" font-size="10.00">unistd.h</text>
</g>
<!-- Node11&#45;&gt;Node13 -->
<g id="edge17" class="edge"><title>Node11&#45;&gt;Node13</title>
<path fill="none" stroke="midnightblue" d="M93.7222,-112.083C100.93,-104.298 111.575,-92.8015 120.312,-83.3665"/>
<polygon fill="midnightblue" stroke="midnightblue" points="123.137,-85.4666 127.363,-75.7511 118.001,-80.7108 123.137,-85.4666"/>
</g>
</g>
</svg>
