<?xml version="1.0" encoding="UTF-8" standalone="no"?>
<!DOCTYPE svg PUBLIC "-//W3C//DTD SVG 1.1//EN"
 "http://www.w3.org/Graphics/SVG/1.1/DTD/svg11.dtd">
<!-- Generated by graphviz version 2.36.0 (20140111.2315)
 -->
<!-- Title: Fun4AllOutputManager Pages: 1 -->
<svg width="419pt" height="234pt"
 viewBox="0.00 0.00 419.22 234.00" xmlns="http://www.w3.org/2000/svg" xmlns:xlink="http://www.w3.org/1999/xlink">
<g id="graph0" class="graph" transform="scale(1 1) rotate(0) translate(4 230)">
<title>Fun4AllOutputManager</title>
<!-- Node1 -->
<g id="node1" class="node"><title>Node1</title>
<polygon fill="#bfbfbf" stroke="black" points="100.22,-0.5 100.22,-19.5 216.22,-19.5 216.22,-0.5 100.22,-0.5"/>
<text text-anchor="middle" x="158.22" y="-7.5" font-family="FreeSans" font-size="10.00">Fun4AllOutputManager</text>
</g>
<!-- Node2 -->
<g id="node2" class="node"><title>Node2</title>
<g id="a_node2"><a xlink:href="../../d5/dec/classFun4AllBase.html" target="_top" xlink:title="Fun4AllBase">
<polygon fill="none" stroke="black" points="66.2202,-68.5 66.2202,-87.5 138.22,-87.5 138.22,-68.5 66.2202,-68.5"/>
<text text-anchor="middle" x="102.22" y="-75.5" font-family="FreeSans" font-size="10.00">Fun4AllBase</text>
</a>
</g>
</g>
<!-- Node2&#45;&gt;Node1 -->
<g id="edge1" class="edge"><title>Node2&#45;&gt;Node1</title>
<path fill="none" stroke="midnightblue" d="M116.067,-60.68C127.016,-47.7768 141.881,-30.2575 150.719,-19.8411"/>
<polygon fill="midnightblue" stroke="midnightblue" points="113.342,-58.4821 109.541,-68.3717 118.68,-63.011 113.342,-58.4821"/>
</g>
<!-- Node3 -->
<g id="node3" class="node"><title>Node3</title>
<g id="a_node3"><a xlink:title="STL class. ">
<polygon fill="none" stroke="#bfbfbf" points="72.7202,-136.5 72.7202,-155.5 131.72,-155.5 131.72,-136.5 72.7202,-136.5"/>
<text text-anchor="middle" x="102.22" y="-143.5" font-family="FreeSans" font-size="10.00">std::string</text>
</a>
</g>
</g>
<!-- Node3&#45;&gt;Node1 -->
<g id="edge5" class="edge"><title>Node3&#45;&gt;Node1</title>
<path fill="none" stroke="#9a32cd" stroke-dasharray="5,2" d="M64.4155,-132.999C29.3566,-119.783 -14.6247,-96.5706 5.22022,-68 26.4848,-37.3856 66.2737,-23.1828 99.9453,-16.6091"/>
<polygon fill="#9a32cd" stroke="#9a32cd" points="63.4125,-136.358 74.0069,-136.457 65.787,-129.773 63.4125,-136.358"/>
<text text-anchor="middle" x="31.2202" y="-75.5" font-family="FreeSans" font-size="10.00"> outfilename</text>
</g>
<!-- Node3&#45;&gt;Node2 -->
<g id="edge2" class="edge"><title>Node3&#45;&gt;Node2</title>
<path fill="none" stroke="#9a32cd" stroke-dasharray="5,2" d="M102.22,-126.041C102.22,-113.472 102.22,-97.5631 102.22,-87.8411"/>
<polygon fill="#9a32cd" stroke="#9a32cd" points="98.7203,-126.372 102.22,-136.372 105.72,-126.372 98.7203,-126.372"/>
<text text-anchor="middle" x="126.22" y="-109.5" font-family="FreeSans" font-size="10.00"> ThisName</text>
</g>
<!-- Node6 -->
<g id="node6" class="node"><title>Node6</title>
<polygon fill="none" stroke="#bfbfbf" points="156.22,-68.5 156.22,-87.5 276.22,-87.5 276.22,-68.5 156.22,-68.5"/>
<text text-anchor="middle" x="216.22" y="-75.5" font-family="FreeSans" font-size="10.00">std::vector&lt; std::string &gt;</text>
</g>
<!-- Node3&#45;&gt;Node6 -->
<g id="edge7" class="edge"><title>Node3&#45;&gt;Node6</title>
<path fill="none" stroke="#9a32cd" stroke-dasharray="5,2" d="M128.902,-131.682C137.1,-127.447 146.1,-122.652 154.22,-118 171.434,-108.14 190.691,-95.8144 203.11,-87.6899"/>
<polygon fill="#9a32cd" stroke="#9a32cd" points="127.063,-128.691 119.747,-136.354 130.245,-134.926 127.063,-128.691"/>
<text text-anchor="middle" x="195.72" y="-109.5" font-family="FreeSans" font-size="10.00"> elements</text>
</g>
<!-- Node4 -->
<g id="node4" class="node"><title>Node4</title>
<g id="a_node4"><a xlink:title="STL class. ">
<polygon fill="none" stroke="#bfbfbf" points="55.7202,-195 55.7202,-225 148.72,-225 148.72,-195 55.7202,-195"/>
<text text-anchor="start" x="63.7202" y="-213" font-family="FreeSans" font-size="10.00">std::basic_string&lt;</text>
<text text-anchor="middle" x="102.22" y="-202" font-family="FreeSans" font-size="10.00"> char &gt;</text>
</a>
</g>
</g>
<!-- Node4&#45;&gt;Node3 -->
<g id="edge3" class="edge"><title>Node4&#45;&gt;Node3</title>
<path fill="none" stroke="midnightblue" d="M102.22,-184.871C102.22,-174.663 102.22,-163.408 102.22,-155.842"/>
<polygon fill="midnightblue" stroke="midnightblue" points="98.7203,-184.931 102.22,-194.931 105.72,-184.931 98.7203,-184.931"/>
</g>
<!-- Node5 -->
<g id="node5" class="node"><title>Node5</title>
<polygon fill="none" stroke="#bfbfbf" points="294.72,-68.5 294.72,-87.5 411.72,-87.5 411.72,-68.5 294.72,-68.5"/>
<text text-anchor="middle" x="353.22" y="-75.5" font-family="FreeSans" font-size="10.00">std::vector&lt; unsigned &gt;</text>
</g>
<!-- Node5&#45;&gt;Node1 -->
<g id="edge4" class="edge"><title>Node5&#45;&gt;Node1</title>
<path fill="none" stroke="#9a32cd" stroke-dasharray="5,2" d="M327.281,-63.9204C310.235,-55.6904 287.272,-45.2861 266.22,-38 244.577,-30.5093 219.83,-24.1681 199.49,-19.5173"/>
<polygon fill="#9a32cd" stroke="#9a32cd" points="326.054,-67.217 336.574,-68.4748 329.135,-60.9312 326.054,-67.217"/>
<text text-anchor="middle" x="334.22" y="-41.5" font-family="FreeSans" font-size="10.00"> recomoduleindex</text>
</g>
<!-- Node6&#45;&gt;Node1 -->
<g id="edge6" class="edge"><title>Node6&#45;&gt;Node1</title>
<path fill="none" stroke="#9a32cd" stroke-dasharray="5,2" d="M201.878,-60.68C190.539,-47.7768 175.144,-30.2575 165.99,-19.8411"/>
<polygon fill="#9a32cd" stroke="#9a32cd" points="199.407,-63.1704 208.638,-68.3717 204.666,-58.5496 199.407,-63.1704"/>
<text text-anchor="middle" x="227.72" y="-41.5" font-family="FreeSans" font-size="10.00"> EventSelectors</text>
</g>
</g>
</svg>
