<?xml version="1.0" encoding="UTF-8" standalone="no"?>
<!DOCTYPE svg PUBLIC "-//W3C//DTD SVG 1.1//EN"
 "http://www.w3.org/Graphics/SVG/1.1/DTD/svg11.dtd">
<!-- Generated by graphviz version 2.36.0 (20140111.2315)
 -->
<!-- Title: Fun4AllOutputManager Pages: 1 -->
<svg width="450pt" height="140pt"
 viewBox="0.00 0.00 450.00 140.00" xmlns="http://www.w3.org/2000/svg" xmlns:xlink="http://www.w3.org/1999/xlink">
<g id="graph0" class="graph" transform="scale(1 1) rotate(0) translate(4 136)">
<title>Fun4AllOutputManager</title>
<!-- Node1 -->
<g id="node1" class="node"><title>Node1</title>
<polygon fill="#bfbfbf" stroke="black" points="161,-56.5 161,-75.5 277,-75.5 277,-56.5 161,-56.5"/>
<text text-anchor="middle" x="219" y="-63.5" font-family="FreeSans" font-size="10.00">Fun4AllOutputManager</text>
</g>
<!-- Node3 -->
<g id="node3" class="node"><title>Node3</title>
<g id="a_node3"><a xlink:href="../../da/daa/classFun4AllDstOutputManager.html" target="_top" xlink:title="Fun4AllDstOutputManager">
<polygon fill="none" stroke="black" points="-0.5,-0.5 -0.5,-19.5 130.5,-19.5 130.5,-0.5 -0.5,-0.5"/>
<text text-anchor="middle" x="65" y="-7.5" font-family="FreeSans" font-size="10.00">Fun4AllDstOutputManager</text>
</a>
</g>
</g>
<!-- Node1&#45;&gt;Node3 -->
<g id="edge2" class="edge"><title>Node1&#45;&gt;Node3</title>
<path fill="none" stroke="midnightblue" d="M184.889,-53.0392C155.913,-42.8786 115.038,-28.5457 89.2876,-19.5164"/>
<polygon fill="midnightblue" stroke="midnightblue" points="184.003,-56.4373 194.598,-56.4435 186.32,-49.8317 184.003,-56.4373"/>
</g>
<!-- Node4 -->
<g id="node4" class="node"><title>Node4</title>
<g id="a_node4"><a xlink:href="../../d2/d4a/classFun4AllEventOutputManager.html" target="_top" xlink:title="Fun4AllEventOutputManager">
<polygon fill="none" stroke="black" points="148.5,-0.5 148.5,-19.5 289.5,-19.5 289.5,-0.5 148.5,-0.5"/>
<text text-anchor="middle" x="219" y="-7.5" font-family="FreeSans" font-size="10.00">Fun4AllEventOutputManager</text>
</a>
</g>
</g>
<!-- Node1&#45;&gt;Node4 -->
<g id="edge3" class="edge"><title>Node1&#45;&gt;Node4</title>
<path fill="none" stroke="midnightblue" d="M219,-45.8045C219,-36.9102 219,-26.7798 219,-19.7511"/>
<polygon fill="midnightblue" stroke="midnightblue" points="215.5,-46.083 219,-56.083 222.5,-46.083 215.5,-46.083"/>
</g>
<!-- Node5 -->
<g id="node5" class="node"><title>Node5</title>
<g id="a_node5"><a xlink:href="../../d6/dc8/classFun4AllPrdfOutputManager.html" target="_top" xlink:title="Fun4AllPrdfOutputManager">
<polygon fill="none" stroke="black" points="308,-0.5 308,-19.5 442,-19.5 442,-0.5 308,-0.5"/>
<text text-anchor="middle" x="375" y="-7.5" font-family="FreeSans" font-size="10.00">Fun4AllPrdfOutputManager</text>
</a>
</g>
</g>
<!-- Node1&#45;&gt;Node5 -->
<g id="edge4" class="edge"><title>Node1&#45;&gt;Node5</title>
<path fill="none" stroke="midnightblue" d="M253.17,-53.172C282.544,-43.0039 324.198,-28.5852 350.397,-19.5164"/>
<polygon fill="midnightblue" stroke="midnightblue" points="252.024,-49.8649 243.719,-56.4435 254.313,-56.4798 252.024,-49.8649"/>
</g>
<!-- Node2 -->
<g id="node2" class="node"><title>Node2</title>
<g id="a_node2"><a xlink:href="../../d5/dec/classFun4AllBase.html" target="_top" xlink:title="Fun4AllBase">
<polygon fill="none" stroke="black" points="183,-112.5 183,-131.5 255,-131.5 255,-112.5 183,-112.5"/>
<text text-anchor="middle" x="219" y="-119.5" font-family="FreeSans" font-size="10.00">Fun4AllBase</text>
</a>
</g>
</g>
<!-- Node2&#45;&gt;Node1 -->
<g id="edge1" class="edge"><title>Node2&#45;&gt;Node1</title>
<path fill="none" stroke="midnightblue" d="M219,-101.805C219,-92.9102 219,-82.7798 219,-75.7511"/>
<polygon fill="midnightblue" stroke="midnightblue" points="215.5,-102.083 219,-112.083 222.5,-102.083 215.5,-102.083"/>
</g>
</g>
</svg>
