<?xml version="1.0" encoding="UTF-8" standalone="no"?>
<!DOCTYPE svg PUBLIC "-//W3C//DTD SVG 1.1//EN"
 "http://www.w3.org/Graphics/SVG/1.1/DTD/svg11.dtd">
<!-- Generated by graphviz version 2.36.0 (20140111.2315)
 -->
<!-- Title: PHNode Pages: 1 -->
<svg width="129pt" height="198pt"
 viewBox="0.00 0.00 129.00 198.00" xmlns="http://www.w3.org/2000/svg" xmlns:xlink="http://www.w3.org/1999/xlink">
<g id="graph0" class="graph" transform="scale(1 1) rotate(0) translate(4 194)">
<title>PHNode</title>
<!-- Node1 -->
<g id="node1" class="node"><title>Node1</title>
<polygon fill="#bfbfbf" stroke="black" points="19,-0.5 19,-19.5 73,-19.5 73,-0.5 19,-0.5"/>
<text text-anchor="middle" x="46" y="-7.5" font-family="FreeSans" font-size="10.00">PHNode</text>
</g>
<!-- Node1&#45;&gt;Node1 -->
<g id="edge1" class="edge"><title>Node1&#45;&gt;Node1</title>
<path fill="none" stroke="#9a32cd" stroke-dasharray="5,2" d="M83.5105,-18.0806C88.0382,-16.6211 91,-13.9276 91,-10 91,-3.55469 83.0239,-0.432739 73.2408,-0.634155"/>
<polygon fill="#9a32cd" stroke="#9a32cd" points="82.7287,-14.651 73.2408,-19.3658 83.598,-21.5968 82.7287,-14.651"/>
<text text-anchor="middle" x="106" y="-7.5" font-family="FreeSans" font-size="10.00"> parent</text>
</g>
<!-- Node2 -->
<g id="node2" class="node"><title>Node2</title>
<g id="a_node2"><a xlink:title="STL class. ">
<polygon fill="none" stroke="#bfbfbf" points="16.5,-100.5 16.5,-119.5 75.5,-119.5 75.5,-100.5 16.5,-100.5"/>
<text text-anchor="middle" x="46" y="-107.5" font-family="FreeSans" font-size="10.00">std::string</text>
</a>
</g>
</g>
<!-- Node2&#45;&gt;Node1 -->
<g id="edge2" class="edge"><title>Node2&#45;&gt;Node1</title>
<path fill="none" stroke="#9a32cd" stroke-dasharray="5,2" d="M46,-90.2203C46,-68.9514 46,-35.2197 46,-19.5374"/>
<polygon fill="#9a32cd" stroke="#9a32cd" points="42.5001,-90.3031 46,-100.303 49.5001,-90.3032 42.5001,-90.3031"/>
<text text-anchor="middle" x="71" y="-74" font-family="FreeSans" font-size="10.00"> objecttype</text>
<text text-anchor="middle" x="71" y="-63" font-family="FreeSans" font-size="10.00">objectclass</text>
<text text-anchor="middle" x="71" y="-52" font-family="FreeSans" font-size="10.00">type</text>
<text text-anchor="middle" x="71" y="-41" font-family="FreeSans" font-size="10.00">name</text>
</g>
<!-- Node3 -->
<g id="node3" class="node"><title>Node3</title>
<g id="a_node3"><a xlink:title="STL class. ">
<polygon fill="none" stroke="#bfbfbf" points="-0.5,-159 -0.5,-189 92.5,-189 92.5,-159 -0.5,-159"/>
<text text-anchor="start" x="7.5" y="-177" font-family="FreeSans" font-size="10.00">std::basic_string&lt;</text>
<text text-anchor="middle" x="46" y="-166" font-family="FreeSans" font-size="10.00"> char &gt;</text>
</a>
</g>
</g>
<!-- Node3&#45;&gt;Node2 -->
<g id="edge3" class="edge"><title>Node3&#45;&gt;Node2</title>
<path fill="none" stroke="midnightblue" d="M46,-148.871C46,-138.663 46,-127.408 46,-119.842"/>
<polygon fill="midnightblue" stroke="midnightblue" points="42.5001,-148.931 46,-158.931 49.5001,-148.931 42.5001,-148.931"/>
</g>
</g>
</svg>
