<?xml version="1.0" encoding="UTF-8" standalone="no"?>
<!DOCTYPE svg PUBLIC "-//W3C//DTD SVG 1.1//EN"
 "http://www.w3.org/Graphics/SVG/1.1/DTD/svg11.dtd">
<!-- Generated by graphviz version 2.36.0 (20140111.2315)
 -->
<!-- Title: fun4all/fun4all/Fun4AllRolloverFileOutStream.h Pages: 1 -->
<svg width="630pt" height="264pt"
 viewBox="0.00 0.00 629.69 264.00" xmlns="http://www.w3.org/2000/svg" xmlns:xlink="http://www.w3.org/1999/xlink">
<g id="graph0" class="graph" transform="scale(1 1) rotate(0) translate(4 260)">
<title>fun4all/fun4all/Fun4AllRolloverFileOutStream.h</title>
<!-- Node1 -->
<g id="node1" class="node"><title>Node1</title>
<polygon fill="#bfbfbf" stroke="black" points="84.6874,-225 84.6874,-255 232.687,-255 232.687,-225 84.6874,-225"/>
<text text-anchor="start" x="92.6874" y="-243" font-family="FreeSans" font-size="10.00">fun4all/fun4all/Fun4AllRollover</text>
<text text-anchor="middle" x="158.687" y="-232" font-family="FreeSans" font-size="10.00">FileOutStream.h</text>
</g>
<!-- Node2 -->
<g id="node2" class="node"><title>Node2</title>
<g id="a_node2"><a xlink:href="../../df/d18/Fun4AllFileOutStream_8h.html" target="_top" xlink:title="Fun4AllFileOutStream.h">
<polygon fill="none" stroke="black" points="98.6874,-168.5 98.6874,-187.5 218.687,-187.5 218.687,-168.5 98.6874,-168.5"/>
<text text-anchor="middle" x="158.687" y="-175.5" font-family="FreeSans" font-size="10.00">Fun4AllFileOutStream.h</text>
</a>
</g>
</g>
<!-- Node1&#45;&gt;Node2 -->
<g id="edge1" class="edge"><title>Node1&#45;&gt;Node2</title>
<path fill="none" stroke="midnightblue" d="M158.687,-224.781C158.687,-216.781 158.687,-206.689 158.687,-198.017"/>
<polygon fill="midnightblue" stroke="midnightblue" points="162.187,-197.73 158.687,-187.731 155.187,-197.731 162.187,-197.73"/>
</g>
<!-- Node3 -->
<g id="node3" class="node"><title>Node3</title>
<g id="a_node3"><a xlink:href="../../d4/d07/Fun4AllEventOutStream_8h.html" target="_top" xlink:title="Fun4AllEventOutStream.h">
<polygon fill="none" stroke="black" points="155.187,-112.5 155.187,-131.5 284.187,-131.5 284.187,-112.5 155.187,-112.5"/>
<text text-anchor="middle" x="219.687" y="-119.5" font-family="FreeSans" font-size="10.00">Fun4AllEventOutStream.h</text>
</a>
</g>
</g>
<!-- Node2&#45;&gt;Node3 -->
<g id="edge2" class="edge"><title>Node2&#45;&gt;Node3</title>
<path fill="none" stroke="midnightblue" d="M168.488,-168.324C177.505,-160.341 191.093,-148.313 202.005,-138.653"/>
<polygon fill="midnightblue" stroke="midnightblue" points="204.541,-141.083 209.708,-131.834 199.901,-135.842 204.541,-141.083"/>
</g>
<!-- Node5 -->
<g id="node5" class="node"><title>Node5</title>
<polygon fill="none" stroke="#bfbfbf" points="131.187,-0.5 131.187,-19.5 172.187,-19.5 172.187,-0.5 131.187,-0.5"/>
<text text-anchor="middle" x="151.687" y="-7.5" font-family="FreeSans" font-size="10.00">string</text>
</g>
<!-- Node2&#45;&gt;Node5 -->
<g id="edge13" class="edge"><title>Node2&#45;&gt;Node5</title>
<path fill="none" stroke="midnightblue" d="M130.211,-168.49C76.7783,-151.057 -29.8076,-108.47 8.6874,-56 34.3184,-21.0641 87.09,-12.536 120.862,-10.8437"/>
<polygon fill="midnightblue" stroke="midnightblue" points="121.22,-14.3339 131.101,-10.5096 120.992,-7.33764 121.22,-14.3339"/>
</g>
<!-- Node7 -->
<g id="node7" class="node"><title>Node7</title>
<polygon fill="none" stroke="#bfbfbf" points="17.6874,-56.5 17.6874,-75.5 123.687,-75.5 123.687,-56.5 17.6874,-56.5"/>
<text text-anchor="middle" x="70.6874" y="-63.5" font-family="FreeSans" font-size="10.00">Event/phenixTypes.h</text>
</g>
<!-- Node2&#45;&gt;Node7 -->
<g id="edge12" class="edge"><title>Node2&#45;&gt;Node7</title>
<path fill="none" stroke="midnightblue" d="M151.782,-168.368C137.195,-150.135 103.028,-107.426 84.0276,-83.6752"/>
<polygon fill="midnightblue" stroke="midnightblue" points="86.5406,-81.2137 77.5605,-75.5914 81.0745,-85.5866 86.5406,-81.2137"/>
</g>
<!-- Node12 -->
<g id="node12" class="node"><title>Node12</title>
<polygon fill="none" stroke="#bfbfbf" points="302.687,-112.5 302.687,-131.5 356.687,-131.5 356.687,-112.5 302.687,-112.5"/>
<text text-anchor="middle" x="329.687" y="-119.5" font-family="FreeSans" font-size="10.00">iostream</text>
</g>
<!-- Node2&#45;&gt;Node12 -->
<g id="edge14" class="edge"><title>Node2&#45;&gt;Node12</title>
<path fill="none" stroke="midnightblue" d="M185.783,-168.444C214.675,-159.32 260.612,-144.813 292.793,-134.651"/>
<polygon fill="midnightblue" stroke="midnightblue" points="294.237,-137.865 302.719,-131.516 292.129,-131.19 294.237,-137.865"/>
</g>
<!-- Node4 -->
<g id="node4" class="node"><title>Node4</title>
<g id="a_node4"><a xlink:href="../../d2/de7/Fun4AllBase_8h.html" target="_top" xlink:title="Fun4AllBase.h">
<polygon fill="none" stroke="black" points="179.687,-56.5 179.687,-75.5 259.687,-75.5 259.687,-56.5 179.687,-56.5"/>
<text text-anchor="middle" x="219.687" y="-63.5" font-family="FreeSans" font-size="10.00">Fun4AllBase.h</text>
</a>
</g>
</g>
<!-- Node3&#45;&gt;Node4 -->
<g id="edge3" class="edge"><title>Node3&#45;&gt;Node4</title>
<path fill="none" stroke="midnightblue" d="M219.687,-112.083C219.687,-105.006 219.687,-94.8611 219.687,-85.9865"/>
<polygon fill="midnightblue" stroke="midnightblue" points="223.187,-85.751 219.687,-75.7511 216.187,-85.7511 223.187,-85.751"/>
</g>
<!-- Node3&#45;&gt;Node5 -->
<g id="edge11" class="edge"><title>Node3&#45;&gt;Node5</title>
<path fill="none" stroke="midnightblue" d="M207.022,-112.456C195.902,-104.322 180.078,-91.1064 170.687,-76 161.862,-61.8025 156.979,-43.3242 154.381,-29.7002"/>
<polygon fill="midnightblue" stroke="midnightblue" points="157.795,-28.8882 152.701,-19.5983 150.889,-30.0372 157.795,-28.8882"/>
</g>
<!-- Node3&#45;&gt;Node7 -->
<g id="edge6" class="edge"><title>Node3&#45;&gt;Node7</title>
<path fill="none" stroke="midnightblue" d="M196.078,-112.444C171.23,-103.438 131.913,-89.1891 103.934,-79.049"/>
<polygon fill="midnightblue" stroke="midnightblue" points="104.781,-75.6332 94.1864,-75.5164 102.395,-82.2144 104.781,-75.6332"/>
</g>
<!-- Node8 -->
<g id="node8" class="node"><title>Node8</title>
<polygon fill="none" stroke="#bfbfbf" points="278.187,-56.5 278.187,-75.5 371.187,-75.5 371.187,-56.5 278.187,-56.5"/>
<text text-anchor="middle" x="324.687" y="-63.5" font-family="FreeSans" font-size="10.00">boost/version.hpp</text>
</g>
<!-- Node3&#45;&gt;Node8 -->
<g id="edge7" class="edge"><title>Node3&#45;&gt;Node8</title>
<path fill="none" stroke="midnightblue" d="M236.557,-112.324C253.396,-103.664 279.494,-90.2424 298.925,-80.249"/>
<polygon fill="midnightblue" stroke="midnightblue" points="300.567,-83.3405 307.859,-75.6545 297.366,-77.1155 300.567,-83.3405"/>
</g>
<!-- Node9 -->
<g id="node9" class="node"><title>Node9</title>
<polygon fill="none" stroke="#bfbfbf" points="389.187,-56.5 389.187,-75.5 520.187,-75.5 520.187,-56.5 389.187,-56.5"/>
<text text-anchor="middle" x="454.687" y="-63.5" font-family="FreeSans" font-size="10.00">boost/numeric/interval.hpp</text>
</g>
<!-- Node3&#45;&gt;Node9 -->
<g id="edge8" class="edge"><title>Node3&#45;&gt;Node9</title>
<path fill="none" stroke="midnightblue" d="M256.924,-112.444C297.747,-103.063 363.331,-87.9926 407.672,-77.8036"/>
<polygon fill="midnightblue" stroke="midnightblue" points="408.663,-81.1671 417.625,-75.5164 407.095,-74.3449 408.663,-81.1671"/>
</g>
<!-- Node10 -->
<g id="node10" class="node"><title>Node10</title>
<polygon fill="none" stroke="#bfbfbf" points="538.187,-56.5 538.187,-75.5 573.187,-75.5 573.187,-56.5 538.187,-56.5"/>
<text text-anchor="middle" x="555.687" y="-63.5" font-family="FreeSans" font-size="10.00">map</text>
</g>
<!-- Node3&#45;&gt;Node10 -->
<g id="edge9" class="edge"><title>Node3&#45;&gt;Node10</title>
<path fill="none" stroke="midnightblue" d="M284.348,-112.954C356.536,-103.744 469.837,-88.5559 528.2,-75.6574"/>
<polygon fill="midnightblue" stroke="midnightblue" points="529.148,-79.0306 538.098,-73.3607 527.566,-72.2118 529.148,-79.0306"/>
</g>
<!-- Node11 -->
<g id="node11" class="node"><title>Node11</title>
<polygon fill="none" stroke="#bfbfbf" points="591.687,-56.5 591.687,-75.5 621.687,-75.5 621.687,-56.5 591.687,-56.5"/>
<text text-anchor="middle" x="606.687" y="-63.5" font-family="FreeSans" font-size="10.00">set</text>
</g>
<!-- Node3&#45;&gt;Node11 -->
<g id="edge10" class="edge"><title>Node3&#45;&gt;Node11</title>
<path fill="none" stroke="midnightblue" d="M284.449,-113.041C387.612,-100.349 578.098,-76.858 581.687,-76 581.788,-75.9759 581.889,-75.9515 581.991,-75.9268"/>
<polygon fill="midnightblue" stroke="midnightblue" points="582.943,-79.2955 591.514,-73.0681 580.93,-72.591 582.943,-79.2955"/>
</g>
<!-- Node4&#45;&gt;Node5 -->
<g id="edge4" class="edge"><title>Node4&#45;&gt;Node5</title>
<path fill="none" stroke="midnightblue" d="M208.762,-56.324C198.513,-48.1849 182.967,-35.8395 170.686,-26.0874"/>
<polygon fill="midnightblue" stroke="midnightblue" points="172.819,-23.3119 162.812,-19.8339 168.466,-28.7937 172.819,-23.3119"/>
</g>
<!-- Node6 -->
<g id="node6" class="node"><title>Node6</title>
<polygon fill="none" stroke="#bfbfbf" points="197.187,-0.5 197.187,-19.5 242.187,-19.5 242.187,-0.5 197.187,-0.5"/>
<text text-anchor="middle" x="219.687" y="-7.5" font-family="FreeSans" font-size="10.00">climits</text>
</g>
<!-- Node4&#45;&gt;Node6 -->
<g id="edge5" class="edge"><title>Node4&#45;&gt;Node6</title>
<path fill="none" stroke="midnightblue" d="M219.687,-56.083C219.687,-49.0059 219.687,-38.8611 219.687,-29.9865"/>
<polygon fill="midnightblue" stroke="midnightblue" points="223.187,-29.751 219.687,-19.7511 216.187,-29.7511 223.187,-29.751"/>
</g>
</g>
</svg>
