<?xml version="1.0" encoding="UTF-8" standalone="no"?>
<!DOCTYPE svg PUBLIC "-//W3C//DTD SVG 1.1//EN"
 "http://www.w3.org/Graphics/SVG/1.1/DTD/svg11.dtd">
<!-- Generated by graphviz version 2.36.0 (20140111.2315)
 -->
<!-- Title: fun4all/phool/PHPointerList.h Pages: 1 -->
<svg width="1207pt" height="424pt"
 viewBox="0.00 0.00 1207.00 424.00" xmlns="http://www.w3.org/2000/svg" xmlns:xlink="http://www.w3.org/1999/xlink">
<g id="graph0" class="graph" transform="scale(1 1) rotate(0) translate(4 420)">
<title>fun4all/phool/PHPointerList.h</title>
<!-- Node1 -->
<g id="node1" class="node"><title>Node1</title>
<polygon fill="#bfbfbf" stroke="black" points="480.5,-396.5 480.5,-415.5 623.5,-415.5 623.5,-396.5 480.5,-396.5"/>
<text text-anchor="middle" x="552" y="-403.5" font-family="FreeSans" font-size="10.00">fun4all/phool/PHPointerList.h</text>
</g>
<!-- Node2 -->
<g id="node2" class="node"><title>Node2</title>
<g id="a_node2"><a xlink:href="../../d8/d30/PHCompositeNode_8h.html" target="_top" xlink:title="fun4all/phool/PHComposite\lNode.h">
<polygon fill="none" stroke="black" points="385.5,-329 385.5,-359 520.5,-359 520.5,-329 385.5,-329"/>
<text text-anchor="start" x="393.5" y="-347" font-family="FreeSans" font-size="10.00">fun4all/phool/PHComposite</text>
<text text-anchor="middle" x="453" y="-336" font-family="FreeSans" font-size="10.00">Node.h</text>
</a>
</g>
</g>
<!-- Node1&#45;&gt;Node2 -->
<g id="edge1" class="edge"><title>Node1&#45;&gt;Node2</title>
<path fill="none" stroke="midnightblue" d="M529.165,-391.161C513.322,-381.559 492.283,-368.808 476.332,-359.141"/>
<polygon fill="midnightblue" stroke="midnightblue" points="527.45,-394.214 537.816,-396.403 531.078,-388.227 527.45,-394.214"/>
</g>
<!-- Node7 -->
<g id="node7" class="node"><title>Node7</title>
<g id="a_node7"><a xlink:href="../../d8/dfd/PHNodeIterator_8h.html" target="_top" xlink:title="fun4all/phool/PHNodeIterator.h">
<polygon fill="none" stroke="black" points="477,-266.5 477,-285.5 627,-285.5 627,-266.5 477,-266.5"/>
<text text-anchor="middle" x="552" y="-273.5" font-family="FreeSans" font-size="10.00">fun4all/phool/PHNodeIterator.h</text>
</a>
</g>
</g>
<!-- Node1&#45;&gt;Node7 -->
<g id="edge36" class="edge"><title>Node1&#45;&gt;Node7</title>
<path fill="none" stroke="midnightblue" d="M552,-386.029C552,-357.803 552,-305.892 552,-285.522"/>
<polygon fill="midnightblue" stroke="midnightblue" points="548.5,-386.202 552,-396.202 555.5,-386.202 548.5,-386.202"/>
</g>
<!-- Node21 -->
<g id="node21" class="node"><title>Node21</title>
<g id="a_node21"><a xlink:href="../../d4/d4f/PHPointerListIterator_8h.html" target="_top" xlink:title="fun4all/phool/PHPointerList\lIterator.h">
<polygon fill="none" stroke="black" points="1044,-329 1044,-359 1180,-359 1180,-329 1044,-329"/>
<text text-anchor="start" x="1052" y="-347" font-family="FreeSans" font-size="10.00">fun4all/phool/PHPointerList</text>
<text text-anchor="middle" x="1112" y="-336" font-family="FreeSans" font-size="10.00">Iterator.h</text>
</a>
</g>
</g>
<!-- Node1&#45;&gt;Node21 -->
<g id="edge37" class="edge"><title>Node1&#45;&gt;Node21</title>
<path fill="none" stroke="midnightblue" d="M633.901,-396.225C744.691,-384.354 940.313,-363.395 1043.64,-352.324"/>
<polygon fill="midnightblue" stroke="midnightblue" points="633.348,-392.764 623.778,-397.309 634.094,-399.724 633.348,-392.764"/>
</g>
<!-- Node3 -->
<g id="node3" class="node"><title>Node3</title>
<g id="a_node3"><a xlink:href="../../d3/d53/Fun4AllDstInputManager_8cc.html" target="_top" xlink:title="fun4all/fun4all/Fun4AllDst\lInputManager.cc">
<polygon fill="none" stroke="black" points="174,-1 174,-31 302,-31 302,-1 174,-1"/>
<text text-anchor="start" x="182" y="-19" font-family="FreeSans" font-size="10.00">fun4all/fun4all/Fun4AllDst</text>
<text text-anchor="middle" x="238" y="-8" font-family="FreeSans" font-size="10.00">InputManager.cc</text>
</a>
</g>
</g>
<!-- Node2&#45;&gt;Node3 -->
<g id="edge2" class="edge"><title>Node2&#45;&gt;Node3</title>
<path fill="none" stroke="midnightblue" d="M374.983,-332.825C259.356,-315.531 56,-275.641 56,-209 56,-209 56,-209 56,-145 56,-82.8071 127.985,-48.2142 181.412,-31.1045"/>
<polygon fill="midnightblue" stroke="midnightblue" points="374.801,-336.336 385.204,-334.33 375.821,-329.411 374.801,-336.336"/>
</g>
<!-- Node4 -->
<g id="node4" class="node"><title>Node4</title>
<g id="a_node4"><a xlink:href="../../da/d7b/Fun4AllPrdfInputManager_8cc.html" target="_top" xlink:title="fun4all/fun4all/Fun4AllPrdf\lInputManager.cc">
<polygon fill="none" stroke="black" points="-0.5,-1 -0.5,-31 130.5,-31 130.5,-1 -0.5,-1"/>
<text text-anchor="start" x="7.5" y="-19" font-family="FreeSans" font-size="10.00">fun4all/fun4all/Fun4AllPrdf</text>
<text text-anchor="middle" x="65" y="-8" font-family="FreeSans" font-size="10.00">InputManager.cc</text>
</a>
</g>
</g>
<!-- Node2&#45;&gt;Node4 -->
<g id="edge3" class="edge"><title>Node2&#45;&gt;Node4</title>
<path fill="none" stroke="midnightblue" d="M375.436,-337.396C287.001,-330.025 148.644,-315.217 102,-292 55.0148,-268.613 18,-261.484 18,-209 18,-209 18,-209 18,-145 18,-101.442 42.2803,-54.3735 55.9379,-31.3431"/>
<polygon fill="midnightblue" stroke="midnightblue" points="375.177,-340.887 385.43,-338.215 375.749,-333.91 375.177,-340.887"/>
</g>
<!-- Node5 -->
<g id="node5" class="node"><title>Node5</title>
<g id="a_node5"><a xlink:href="../../d8/d3b/Fun4AllPrdfOutputManager_8cc.html" target="_top" xlink:title="fun4all/fun4all/Fun4AllPrdf\lOutputManager.cc">
<polygon fill="none" stroke="black" points="237.5,-193 237.5,-223 368.5,-223 368.5,-193 237.5,-193"/>
<text text-anchor="start" x="245.5" y="-211" font-family="FreeSans" font-size="10.00">fun4all/fun4all/Fun4AllPrdf</text>
<text text-anchor="middle" x="303" y="-200" font-family="FreeSans" font-size="10.00">OutputManager.cc</text>
</a>
</g>
</g>
<!-- Node2&#45;&gt;Node5 -->
<g id="edge4" class="edge"><title>Node2&#45;&gt;Node5</title>
<path fill="none" stroke="midnightblue" d="M429.552,-322.053C398.772,-294.556 345.548,-247.009 319.009,-223.302"/>
<polygon fill="midnightblue" stroke="midnightblue" points="427.441,-324.861 437.231,-328.913 432.105,-319.641 427.441,-324.861"/>
</g>
<!-- Node6 -->
<g id="node6" class="node"><title>Node6</title>
<g id="a_node6"><a xlink:href="../../d8/d7a/Fun4AllServer_8cc.html" target="_top" xlink:title="fun4all/fun4all/Fun4AllServer.cc">
<polygon fill="none" stroke="black" points="1045,-6.5 1045,-25.5 1199,-25.5 1199,-6.5 1045,-6.5"/>
<text text-anchor="middle" x="1122" y="-13.5" font-family="FreeSans" font-size="10.00">fun4all/fun4all/Fun4AllServer.cc</text>
</a>
</g>
</g>
<!-- Node2&#45;&gt;Node6 -->
<g id="edge5" class="edge"><title>Node2&#45;&gt;Node6</title>
<path fill="none" stroke="midnightblue" d="M530.614,-330.891C708.299,-302.994 1130.16,-235.689 1140,-224 1190.41,-164.111 1142.42,-57.0187 1126.64,-25.779"/>
<polygon fill="midnightblue" stroke="midnightblue" points="529.884,-327.463 520.547,-332.47 530.969,-334.378 529.884,-327.463"/>
</g>
<!-- Node2&#45;&gt;Node7 -->
<g id="edge6" class="edge"><title>Node2&#45;&gt;Node7</title>
<path fill="none" stroke="midnightblue" d="M482.992,-323.005C501.721,-310.52 524.884,-295.077 539.043,-285.638"/>
<polygon fill="midnightblue" stroke="midnightblue" points="480.861,-320.22 474.482,-328.679 484.744,-326.044 480.861,-320.22"/>
</g>
<!-- Node17 -->
<g id="node17" class="node"><title>Node17</title>
<g id="a_node17"><a xlink:href="../../d7/d32/PHNodeIOManager_8cc.html" target="_top" xlink:title="fun4all/phool/PHNodeIOManager.cc">
<polygon fill="none" stroke="black" points="122.5,-74.5 122.5,-93.5 295.5,-93.5 295.5,-74.5 122.5,-74.5"/>
<text text-anchor="middle" x="209" y="-81.5" font-family="FreeSans" font-size="10.00">fun4all/phool/PHNodeIOManager.cc</text>
</a>
</g>
</g>
<!-- Node2&#45;&gt;Node17 -->
<g id="edge35" class="edge"><title>Node2&#45;&gt;Node17</title>
<path fill="none" stroke="midnightblue" d="M386.374,-325.859C334.563,-308.885 265.401,-277.504 228,-224 199.114,-182.678 204.519,-117.3 207.647,-93.7862"/>
<polygon fill="midnightblue" stroke="midnightblue" points="385.572,-329.276 396.162,-328.963 387.688,-322.604 385.572,-329.276"/>
</g>
<!-- Node20 -->
<g id="node20" class="node"><title>Node20</title>
<g id="a_node20"><a xlink:href="../../df/d01/PHCompositeNode_8cc.html" target="_top" xlink:title="fun4all/phool/PHComposite\lNode.cc">
<polygon fill="none" stroke="black" points="996.5,-261 996.5,-291 1131.5,-291 1131.5,-261 996.5,-261"/>
<text text-anchor="start" x="1004.5" y="-279" font-family="FreeSans" font-size="10.00">fun4all/phool/PHComposite</text>
<text text-anchor="middle" x="1064" y="-268" font-family="FreeSans" font-size="10.00">Node.cc</text>
</a>
</g>
</g>
<!-- Node2&#45;&gt;Node20 -->
<g id="edge34" class="edge"><title>Node2&#45;&gt;Node20</title>
<path fill="none" stroke="midnightblue" d="M530.898,-337.568C634.282,-329.884 822.37,-314.254 982,-292 986.587,-291.361 991.308,-290.647 996.059,-289.887"/>
<polygon fill="midnightblue" stroke="midnightblue" points="530.571,-334.082 520.855,-338.309 531.086,-341.063 530.571,-334.082"/>
</g>
<!-- Node7&#45;&gt;Node5 -->
<g id="edge8" class="edge"><title>Node7&#45;&gt;Node5</title>
<path fill="none" stroke="midnightblue" d="M509.983,-263.863C467.621,-252.634 402.097,-235.267 356.148,-223.087"/>
<polygon fill="midnightblue" stroke="midnightblue" points="509.14,-267.26 519.703,-266.439 510.933,-260.494 509.14,-267.26"/>
</g>
<!-- Node7&#45;&gt;Node6 -->
<g id="edge9" class="edge"><title>Node7&#45;&gt;Node6</title>
<path fill="none" stroke="midnightblue" d="M637.235,-269.017C731.973,-261.398 878.314,-246.464 929,-224 949.186,-215.054 948.733,-204.403 967,-192 994.967,-173.011 1006.53,-175.696 1034,-156 1063.65,-134.747 1074.24,-130.658 1094,-100 1109.74,-75.5868 1117.58,-41.4002 1120.55,-25.6137"/>
<polygon fill="midnightblue" stroke="midnightblue" points="636.784,-265.542 627.091,-269.821 637.337,-272.52 636.784,-265.542"/>
</g>
<!-- Node8 -->
<g id="node8" class="node"><title>Node8</title>
<g id="a_node8"><a xlink:href="../../d9/d74/Fun4AllDstOutputManager_8cc.html" target="_top" xlink:title="fun4all/fun4all/Fun4AllDst\lOutputManager.cc">
<polygon fill="none" stroke="black" points="636,-193 636,-223 764,-223 764,-193 636,-193"/>
<text text-anchor="start" x="644" y="-211" font-family="FreeSans" font-size="10.00">fun4all/fun4all/Fun4AllDst</text>
<text text-anchor="middle" x="700" y="-200" font-family="FreeSans" font-size="10.00">OutputManager.cc</text>
</a>
</g>
</g>
<!-- Node7&#45;&gt;Node8 -->
<g id="edge7" class="edge"><title>Node7&#45;&gt;Node8</title>
<path fill="none" stroke="midnightblue" d="M580.729,-262.188C605.924,-250.953 642.488,-234.647 668.48,-223.056"/>
<polygon fill="midnightblue" stroke="midnightblue" points="579.056,-259.102 571.348,-266.372 581.907,-265.495 579.056,-259.102"/>
</g>
<!-- Node9 -->
<g id="node9" class="node"><title>Node9</title>
<g id="a_node9"><a xlink:href="../../dd/d12/ReadMySql_8C.html" target="_top" xlink:title="fun4all/modules/ReadMySql.C">
<polygon fill="none" stroke="black" points="476,-6.5 476,-25.5 622,-25.5 622,-6.5 476,-6.5"/>
<text text-anchor="middle" x="549" y="-13.5" font-family="FreeSans" font-size="10.00">fun4all/modules/ReadMySql.C</text>
</a>
</g>
</g>
<!-- Node7&#45;&gt;Node9 -->
<g id="edge10" class="edge"><title>Node7&#45;&gt;Node9</title>
<path fill="none" stroke="midnightblue" d="M519.998,-262.668C495.537,-252.94 461.173,-238.614 432,-224 406.715,-211.333 402.693,-203.819 377,-192 264.116,-140.074 184.967,-201.291 113,-100 104.763,-88.4062 103.467,-78.5545 113,-68 165.852,-9.48359 387.922,-43.0197 466,-32 478.76,-30.1991 492.554,-27.8639 505.165,-25.5745"/>
<polygon fill="midnightblue" stroke="midnightblue" points="518.919,-266.005 529.506,-266.417 521.486,-259.493 518.919,-266.005"/>
</g>
<!-- Node10 -->
<g id="node10" class="node"><title>Node10</title>
<g id="a_node10"><a xlink:href="../../dd/d2f/SimpleReadMySql_8C.html" target="_top" xlink:title="fun4all/modules/SimpleRead\lMySql.C">
<polygon fill="none" stroke="black" points="640,-1 640,-31 780,-31 780,-1 640,-1"/>
<text text-anchor="start" x="648" y="-19" font-family="FreeSans" font-size="10.00">fun4all/modules/SimpleRead</text>
<text text-anchor="middle" x="710" y="-8" font-family="FreeSans" font-size="10.00">MySql.C</text>
</a>
</g>
</g>
<!-- Node7&#45;&gt;Node10 -->
<g id="edge11" class="edge"><title>Node7&#45;&gt;Node10</title>
<path fill="none" stroke="midnightblue" d="M562.794,-257.772C575.689,-238.675 599.064,-208.407 627,-192 784.298,-99.6191 913.382,-242.716 1027,-100 1035.86,-88.8732 1036.22,-78.8259 1027,-68 995.956,-31.5624 863.884,-21.0613 780.315,-18.096"/>
<polygon fill="midnightblue" stroke="midnightblue" points="559.714,-256.087 557.183,-266.375 565.578,-259.911 559.714,-256.087"/>
</g>
<!-- Node11 -->
<g id="node11" class="node"><title>Node11</title>
<g id="a_node11"><a xlink:href="../../dd/dd4/getClass_8h.html" target="_top" xlink:title="fun4all/phool/getClass.h">
<polygon fill="none" stroke="black" points="352,-74.5 352,-93.5 472,-93.5 472,-74.5 352,-74.5"/>
<text text-anchor="middle" x="412" y="-81.5" font-family="FreeSans" font-size="10.00">fun4all/phool/getClass.h</text>
</a>
</g>
</g>
<!-- Node7&#45;&gt;Node11 -->
<g id="edge12" class="edge"><title>Node7&#45;&gt;Node11</title>
<path fill="none" stroke="midnightblue" d="M541.33,-257.592C524.621,-230.725 490.789,-177.88 458,-136 445.798,-120.415 430.079,-103.598 420.534,-93.6995"/>
<polygon fill="midnightblue" stroke="midnightblue" points="538.444,-259.579 546.678,-266.247 544.399,-255.9 538.444,-259.579"/>
</g>
<!-- Node13 -->
<g id="node13" class="node"><title>Node13</title>
<g id="a_node13"><a xlink:href="../../db/d17/PHTypedNodeIterator_8h.html" target="_top" xlink:title="fun4all/phool/PHTypedNode\lIterator.h">
<polygon fill="none" stroke="black" points="782,-193 782,-223 920,-223 920,-193 782,-193"/>
<text text-anchor="start" x="790" y="-211" font-family="FreeSans" font-size="10.00">fun4all/phool/PHTypedNode</text>
<text text-anchor="middle" x="851" y="-200" font-family="FreeSans" font-size="10.00">Iterator.h</text>
</a>
</g>
</g>
<!-- Node7&#45;&gt;Node13 -->
<g id="edge19" class="edge"><title>Node7&#45;&gt;Node13</title>
<path fill="none" stroke="midnightblue" d="M600.552,-264.283C651.43,-253.052 731.583,-235.36 787.464,-223.025"/>
<polygon fill="midnightblue" stroke="midnightblue" points="599.793,-260.866 590.782,-266.439 601.302,-267.701 599.793,-260.866"/>
</g>
<!-- Node16 -->
<g id="node16" class="node"><title>Node16</title>
<g id="a_node16"><a xlink:href="../../d7/d95/PHDataNodeIterator_8h.html" target="_top" xlink:title="fun4all/phool/PHDataNode\lIterator.h">
<polygon fill="none" stroke="black" points="490,-69 490,-99 622,-99 622,-69 490,-69"/>
<text text-anchor="start" x="498" y="-87" font-family="FreeSans" font-size="10.00">fun4all/phool/PHDataNode</text>
<text text-anchor="middle" x="556" y="-76" font-family="FreeSans" font-size="10.00">Iterator.h</text>
</a>
</g>
</g>
<!-- Node7&#45;&gt;Node16 -->
<g id="edge31" class="edge"><title>Node7&#45;&gt;Node16</title>
<path fill="none" stroke="midnightblue" d="M552.397,-256.154C553.198,-218.086 554.994,-132.785 555.703,-99.0845"/>
<polygon fill="midnightblue" stroke="midnightblue" points="548.894,-256.271 552.182,-266.342 555.892,-256.418 548.894,-256.271"/>
</g>
<!-- Node7&#45;&gt;Node17 -->
<g id="edge32" class="edge"><title>Node7&#45;&gt;Node17</title>
<path fill="none" stroke="midnightblue" d="M531.831,-260.155C494.516,-233.122 411.605,-175.057 336,-136 302.014,-118.443 260.544,-102.798 234.447,-93.6037"/>
<polygon fill="midnightblue" stroke="midnightblue" points="530.16,-263.268 540.303,-266.329 534.282,-257.611 530.16,-263.268"/>
</g>
<!-- Node19 -->
<g id="node19" class="node"><title>Node19</title>
<g id="a_node19"><a xlink:href="../../d0/d41/PHNodeIterator_8cc.html" target="_top" xlink:title="fun4all/phool/PHNodeIterator.cc">
<polygon fill="none" stroke="black" points="976.5,-198.5 976.5,-217.5 1131.5,-217.5 1131.5,-198.5 976.5,-198.5"/>
<text text-anchor="middle" x="1054" y="-205.5" font-family="FreeSans" font-size="10.00">fun4all/phool/PHNodeIterator.cc</text>
</a>
</g>
</g>
<!-- Node7&#45;&gt;Node19 -->
<g id="edge33" class="edge"><title>Node7&#45;&gt;Node19</title>
<path fill="none" stroke="midnightblue" d="M637.446,-265.326C720.471,-255.701 850.051,-240.083 962,-224 975.616,-222.044 990.332,-219.733 1003.92,-217.519"/>
<polygon fill="midnightblue" stroke="midnightblue" points="636.836,-261.873 627.305,-266.499 637.641,-268.827 636.836,-261.873"/>
</g>
<!-- Node11&#45;&gt;Node3 -->
<g id="edge13" class="edge"><title>Node11&#45;&gt;Node3</title>
<path fill="none" stroke="midnightblue" d="M379.784,-70.7801C350.129,-59.5317 306.156,-42.8523 275.057,-31.0562"/>
<polygon fill="midnightblue" stroke="midnightblue" points="378.661,-74.0975 389.253,-74.3717 381.144,-67.5526 378.661,-74.0975"/>
</g>
<!-- Node11&#45;&gt;Node4 -->
<g id="edge15" class="edge"><title>Node11&#45;&gt;Node4</title>
<path fill="none" stroke="midnightblue" d="M357.097,-72.5574C295.661,-60.8722 196.176,-41.9499 130.67,-29.4905"/>
<polygon fill="midnightblue" stroke="midnightblue" points="356.514,-76.0091 366.992,-74.4393 357.822,-69.1324 356.514,-76.0091"/>
</g>
<!-- Node11&#45;&gt;Node6 -->
<g id="edge16" class="edge"><title>Node11&#45;&gt;Node6</title>
<path fill="none" stroke="midnightblue" d="M456.866,-72.3317C464.869,-70.6906 473.155,-69.1594 481,-68 683.099,-38.1316 923.812,-24.9046 1044.66,-19.7898"/>
<polygon fill="midnightblue" stroke="midnightblue" points="455.985,-68.9409 446.934,-74.4495 457.444,-75.787 455.985,-68.9409"/>
</g>
<!-- Node11&#45;&gt;Node9 -->
<g id="edge17" class="edge"><title>Node11&#45;&gt;Node9</title>
<path fill="none" stroke="midnightblue" d="M439.271,-69.8621C466.543,-56.7239 507.699,-36.8969 531.085,-25.6305"/>
<polygon fill="midnightblue" stroke="midnightblue" points="437.4,-66.8783 429.91,-74.3717 440.438,-73.1846 437.4,-66.8783"/>
</g>
<!-- Node11&#45;&gt;Node10 -->
<g id="edge18" class="edge"><title>Node11&#45;&gt;Node10</title>
<path fill="none" stroke="midnightblue" d="M460.707,-72.2126C511.43,-60.9785 591.098,-43.334 646.676,-31.0247"/>
<polygon fill="midnightblue" stroke="midnightblue" points="459.659,-68.8597 450.653,-74.4393 461.173,-75.6941 459.659,-68.8597"/>
</g>
<!-- Node12 -->
<g id="node12" class="node"><title>Node12</title>
<g id="a_node12"><a xlink:href="../../d6/dbe/Fun4AllEventOutputManager_8cc.html" target="_top" xlink:title="fun4all/fun4all/Fun4AllEvent\lOutputManager.cc">
<polygon fill="none" stroke="black" points="320.5,-1 320.5,-31 457.5,-31 457.5,-1 320.5,-1"/>
<text text-anchor="start" x="328.5" y="-19" font-family="FreeSans" font-size="10.00">fun4all/fun4all/Fun4AllEvent</text>
<text text-anchor="middle" x="389" y="-8" font-family="FreeSans" font-size="10.00">OutputManager.cc</text>
</a>
</g>
</g>
<!-- Node11&#45;&gt;Node12 -->
<g id="edge14" class="edge"><title>Node11&#45;&gt;Node12</title>
<path fill="none" stroke="midnightblue" d="M405.672,-64.8404C401.973,-54.2266 397.373,-41.026 393.942,-31.1815"/>
<polygon fill="midnightblue" stroke="midnightblue" points="402.397,-66.0804 408.993,-74.3717 409.007,-63.7768 402.397,-66.0804"/>
</g>
<!-- Node13&#45;&gt;Node6 -->
<g id="edge20" class="edge"><title>Node13&#45;&gt;Node6</title>
<path fill="none" stroke="midnightblue" d="M927.913,-190.084C954.255,-182.206 983.091,-171.138 1007,-156 1062.31,-120.983 1103.96,-50.496 1117.39,-25.7944"/>
<polygon fill="midnightblue" stroke="midnightblue" points="926.598,-186.82 917.955,-192.949 928.533,-193.547 926.598,-186.82"/>
</g>
<!-- Node14 -->
<g id="node14" class="node"><title>Node14</title>
<g id="a_node14"><a xlink:href="../../df/d03/Fun4AllSyncManager_8cc.html" target="_top" xlink:title="fun4all/fun4all/Fun4AllSync\lManager.cc">
<polygon fill="none" stroke="black" points="884,-69 884,-99 1018,-99 1018,-69 884,-69"/>
<text text-anchor="start" x="892" y="-87" font-family="FreeSans" font-size="10.00">fun4all/fun4all/Fun4AllSync</text>
<text text-anchor="middle" x="951" y="-76" font-family="FreeSans" font-size="10.00">Manager.cc</text>
</a>
</g>
</g>
<!-- Node13&#45;&gt;Node14 -->
<g id="edge21" class="edge"><title>Node13&#45;&gt;Node14</title>
<path fill="none" stroke="midnightblue" d="M869.301,-184.673C889.759,-159.715 922.266,-120.055 939.46,-99.0787"/>
<polygon fill="midnightblue" stroke="midnightblue" points="866.496,-182.573 862.864,-192.526 871.91,-187.011 866.496,-182.573"/>
</g>
<!-- Node15 -->
<g id="node15" class="node"><title>Node15</title>
<g id="a_node15"><a xlink:href="../../d3/d79/PHIODataNode_8h.html" target="_top" xlink:title="fun4all/phool/PHIODataNode.h">
<polygon fill="none" stroke="black" points="580,-136.5 580,-155.5 730,-155.5 730,-136.5 580,-136.5"/>
<text text-anchor="middle" x="655" y="-143.5" font-family="FreeSans" font-size="10.00">fun4all/phool/PHIODataNode.h</text>
</a>
</g>
</g>
<!-- Node13&#45;&gt;Node15 -->
<g id="edge22" class="edge"><title>Node13&#45;&gt;Node15</title>
<path fill="none" stroke="midnightblue" d="M795.443,-189.993C758.662,-178.733 711.995,-164.448 682.808,-155.513"/>
<polygon fill="midnightblue" stroke="midnightblue" points="794.46,-193.352 805.047,-192.933 796.509,-186.659 794.46,-193.352"/>
</g>
<!-- Node15&#45;&gt;Node3 -->
<g id="edge23" class="edge"><title>Node15&#45;&gt;Node3</title>
<path fill="none" stroke="midnightblue" d="M569.565,-144.952C504.871,-142.059 415.134,-131.797 343,-100 322.484,-90.9562 321.539,-81.9673 304,-68 288.141,-55.371 269.889,-41.3023 256.605,-31.1455"/>
<polygon fill="midnightblue" stroke="midnightblue" points="569.595,-148.456 579.726,-145.356 569.873,-141.462 569.595,-148.456"/>
</g>
<!-- Node15&#45;&gt;Node9 -->
<g id="edge25" class="edge"><title>Node15&#45;&gt;Node9</title>
<path fill="none" stroke="midnightblue" d="M652.908,-126.315C650.226,-109.577 644.224,-85.0995 631,-68 615.514,-47.9745 589.767,-33.8291 571.252,-25.5943"/>
<polygon fill="midnightblue" stroke="midnightblue" points="649.474,-127.04 654.282,-136.482 656.411,-126.103 649.474,-127.04"/>
</g>
<!-- Node15&#45;&gt;Node10 -->
<g id="edge26" class="edge"><title>Node15&#45;&gt;Node10</title>
<path fill="none" stroke="midnightblue" d="M662.793,-126.863C673.857,-101.114 693.886,-54.5016 703.923,-31.1431"/>
<polygon fill="midnightblue" stroke="midnightblue" points="659.513,-125.633 658.78,-136.202 665.944,-128.396 659.513,-125.633"/>
</g>
<!-- Node15&#45;&gt;Node11 -->
<g id="edge27" class="edge"><title>Node15&#45;&gt;Node11</title>
<path fill="none" stroke="midnightblue" d="M610.484,-134.008C563.203,-122.334 489.474,-104.129 446.439,-93.5034"/>
<polygon fill="midnightblue" stroke="midnightblue" points="609.895,-137.468 620.442,-136.467 611.573,-130.672 609.895,-137.468"/>
</g>
<!-- Node15&#45;&gt;Node14 -->
<g id="edge24" class="edge"><title>Node15&#45;&gt;Node14</title>
<path fill="none" stroke="midnightblue" d="M707.202,-134.419C756.402,-124.446 830.369,-109.452 883.923,-98.5966"/>
<polygon fill="midnightblue" stroke="midnightblue" points="706.201,-131.05 697.095,-136.467 707.591,-137.911 706.201,-131.05"/>
</g>
<!-- Node15&#45;&gt;Node16 -->
<g id="edge28" class="edge"><title>Node15&#45;&gt;Node16</title>
<path fill="none" stroke="midnightblue" d="M632.165,-131.161C616.322,-121.559 595.283,-108.808 579.332,-99.1408"/>
<polygon fill="midnightblue" stroke="midnightblue" points="630.45,-134.214 640.816,-136.403 634.078,-128.227 630.45,-134.214"/>
</g>
<!-- Node15&#45;&gt;Node17 -->
<g id="edge29" class="edge"><title>Node15&#45;&gt;Node17</title>
<path fill="none" stroke="midnightblue" d="M576.814,-135.203C506.853,-126.342 401.517,-112.763 310,-100 295.428,-97.9677 279.688,-95.6764 265.069,-93.5078"/>
<polygon fill="midnightblue" stroke="midnightblue" points="576.513,-138.693 586.873,-136.476 577.391,-131.748 576.513,-138.693"/>
</g>
<!-- Node18 -->
<g id="node18" class="node"><title>Node18</title>
<g id="a_node18"><a xlink:href="../../dc/d01/PHNodeReset_8cc.html" target="_top" xlink:title="fun4all/phool/PHNodeReset.cc">
<polygon fill="none" stroke="black" points="716,-74.5 716,-93.5 866,-93.5 866,-74.5 716,-74.5"/>
<text text-anchor="middle" x="791" y="-81.5" font-family="FreeSans" font-size="10.00">fun4all/phool/PHNodeReset.cc</text>
</a>
</g>
</g>
<!-- Node15&#45;&gt;Node18 -->
<g id="edge30" class="edge"><title>Node15&#45;&gt;Node18</title>
<path fill="none" stroke="midnightblue" d="M683.966,-132.221C710.369,-120.573 748.642,-103.687 771.551,-93.5806"/>
<polygon fill="midnightblue" stroke="midnightblue" points="682.222,-129.165 674.485,-136.403 685.047,-135.569 682.222,-129.165"/>
</g>
<!-- Node21&#45;&gt;Node6 -->
<g id="edge38" class="edge"><title>Node21&#45;&gt;Node6</title>
<path fill="none" stroke="midnightblue" d="M1136.49,-321.905C1161.91,-297.527 1198,-254.844 1198,-209 1198,-209 1198,-209 1198,-145 1198,-109.154 1192.69,-98.5853 1174,-68 1163.32,-50.5214 1145.33,-34.7411 1133.56,-25.509"/>
<polygon fill="midnightblue" stroke="midnightblue" points="1133.94,-319.496 1128.99,-328.866 1138.7,-324.625 1133.94,-319.496"/>
</g>
<!-- Node21&#45;&gt;Node19 -->
<g id="edge40" class="edge"><title>Node21&#45;&gt;Node19</title>
<path fill="none" stroke="midnightblue" d="M1129.44,-320.442C1140.52,-303.166 1150.9,-279.13 1140,-260 1127.8,-238.582 1102.67,-225.233 1082.72,-217.591"/>
<polygon fill="midnightblue" stroke="midnightblue" points="1126.47,-318.576 1123.69,-328.798 1132.24,-322.543 1126.47,-318.576"/>
</g>
<!-- Node21&#45;&gt;Node20 -->
<g id="edge39" class="edge"><title>Node21&#45;&gt;Node20</title>
<path fill="none" stroke="midnightblue" d="M1095.5,-320.314C1088.5,-310.689 1080.56,-299.763 1074.39,-291.293"/>
<polygon fill="midnightblue" stroke="midnightblue" points="1092.87,-322.65 1101.58,-328.679 1098.53,-318.533 1092.87,-322.65"/>
</g>
</g>
</svg>
