<?xml version="1.0" encoding="UTF-8" standalone="no"?>
<!DOCTYPE svg PUBLIC "-//W3C//DTD SVG 1.1//EN"
 "http://www.w3.org/Graphics/SVG/1.1/DTD/svg11.dtd">
<!-- Generated by graphviz version 2.36.0 (20140111.2315)
 -->
<!-- Title: fun4all/fun4all/Fun4AllDstInputManager.h Pages: 1 -->
<svg width="279pt" height="176pt"
 viewBox="0.00 0.00 279.00 176.00" xmlns="http://www.w3.org/2000/svg" xmlns:xlink="http://www.w3.org/1999/xlink">
<g id="graph0" class="graph" transform="scale(1 1) rotate(0) translate(4 172)">
<title>fun4all/fun4all/Fun4AllDstInputManager.h</title>
<!-- Node1 -->
<g id="node1" class="node"><title>Node1</title>
<polygon fill="#bfbfbf" stroke="black" points="72,-137 72,-167 200,-167 200,-137 72,-137"/>
<text text-anchor="start" x="80" y="-155" font-family="FreeSans" font-size="10.00">fun4all/fun4all/Fun4AllDst</text>
<text text-anchor="middle" x="136" y="-144" font-family="FreeSans" font-size="10.00">InputManager.h</text>
</g>
<!-- Node2 -->
<g id="node2" class="node"><title>Node2</title>
<g id="a_node2"><a xlink:href="../../d3/d53/Fun4AllDstInputManager_8cc.html" target="_top" xlink:title="fun4all/fun4all/Fun4AllDst\lInputManager.cc">
<polygon fill="none" stroke="black" points="0,-69 0,-99 128,-99 128,-69 0,-69"/>
<text text-anchor="start" x="8" y="-87" font-family="FreeSans" font-size="10.00">fun4all/fun4all/Fun4AllDst</text>
<text text-anchor="middle" x="64" y="-76" font-family="FreeSans" font-size="10.00">InputManager.cc</text>
</a>
</g>
</g>
<!-- Node1&#45;&gt;Node2 -->
<g id="edge1" class="edge"><title>Node1&#45;&gt;Node2</title>
<path fill="none" stroke="midnightblue" d="M112.847,-129.776C101.975,-119.81 89.3043,-108.196 79.5924,-99.2931"/>
<polygon fill="midnightblue" stroke="midnightblue" points="110.64,-132.502 120.377,-136.679 115.371,-127.342 110.64,-132.502"/>
</g>
<!-- Node3 -->
<g id="node3" class="node"><title>Node3</title>
<g id="a_node3"><a xlink:href="../../d2/dab/Fun4AllNoSyncDstInputManager_8h.html" target="_top" xlink:title="fun4all/fun4all/Fun4AllNo\lSyncDstInputManager.h">
<polygon fill="none" stroke="black" points="146.5,-69 146.5,-99 271.5,-99 271.5,-69 146.5,-69"/>
<text text-anchor="start" x="154.5" y="-87" font-family="FreeSans" font-size="10.00">fun4all/fun4all/Fun4AllNo</text>
<text text-anchor="middle" x="209" y="-76" font-family="FreeSans" font-size="10.00">SyncDstInputManager.h</text>
</a>
</g>
</g>
<!-- Node1&#45;&gt;Node3 -->
<g id="edge2" class="edge"><title>Node1&#45;&gt;Node3</title>
<path fill="none" stroke="midnightblue" d="M159.53,-129.727C170.634,-119.687 183.579,-107.983 193.442,-99.0663"/>
<polygon fill="midnightblue" stroke="midnightblue" points="156.91,-127.376 151.84,-136.679 161.605,-132.569 156.91,-127.376"/>
</g>
<!-- Node4 -->
<g id="node4" class="node"><title>Node4</title>
<g id="a_node4"><a xlink:href="../../d9/d35/Fun4AllNoSyncDstInputManager_8cc.html" target="_top" xlink:title="fun4all/fun4all/Fun4AllNo\lSyncDstInputManager.cc">
<polygon fill="none" stroke="black" points="146.5,-1 146.5,-31 271.5,-31 271.5,-1 146.5,-1"/>
<text text-anchor="start" x="154.5" y="-19" font-family="FreeSans" font-size="10.00">fun4all/fun4all/Fun4AllNo</text>
<text text-anchor="middle" x="209" y="-8" font-family="FreeSans" font-size="10.00">SyncDstInputManager.cc</text>
</a>
</g>
</g>
<!-- Node3&#45;&gt;Node4 -->
<g id="edge3" class="edge"><title>Node3&#45;&gt;Node4</title>
<path fill="none" stroke="midnightblue" d="M209,-58.5322C209,-49.3606 209,-39.2449 209,-31.2931"/>
<polygon fill="midnightblue" stroke="midnightblue" points="205.5,-58.6789 209,-68.679 212.5,-58.679 205.5,-58.6789"/>
</g>
</g>
</svg>
