<?xml version="1.0" encoding="UTF-8" standalone="no"?>
<!DOCTYPE svg PUBLIC "-//W3C//DTD SVG 1.1//EN"
 "http://www.w3.org/Graphics/SVG/1.1/DTD/svg11.dtd">
<!-- Generated by graphviz version 2.36.0 (20140111.2315)
 -->
<!-- Title: fun4all/ffaobjects/RunHeader.cc Pages: 1 -->
<svg width="329pt" height="208pt"
 viewBox="0.00 0.00 329.00 208.00" xmlns="http://www.w3.org/2000/svg" xmlns:xlink="http://www.w3.org/1999/xlink">
<g id="graph0" class="graph" transform="scale(1 1) rotate(0) translate(4 204)">
<title>fun4all/ffaobjects/RunHeader.cc</title>
<!-- Node1 -->
<g id="node1" class="node"><title>Node1</title>
<polygon fill="#bfbfbf" stroke="black" points="174,-169 174,-199 264,-199 264,-169 174,-169"/>
<text text-anchor="start" x="182" y="-187" font-family="FreeSans" font-size="10.00">fun4all/ffaobjects</text>
<text text-anchor="middle" x="219" y="-176" font-family="FreeSans" font-size="10.00">/RunHeader.cc</text>
</g>
<!-- Node2 -->
<g id="node2" class="node"><title>Node2</title>
<g id="a_node2"><a xlink:href="../../da/d61/RunHeader_8h.html" target="_top" xlink:title="RunHeader.h">
<polygon fill="none" stroke="black" points="101.5,-112.5 101.5,-131.5 174.5,-131.5 174.5,-112.5 101.5,-112.5"/>
<text text-anchor="middle" x="138" y="-119.5" font-family="FreeSans" font-size="10.00">RunHeader.h</text>
</a>
</g>
</g>
<!-- Node1&#45;&gt;Node2 -->
<g id="edge1" class="edge"><title>Node1&#45;&gt;Node2</title>
<path fill="none" stroke="midnightblue" d="M199.804,-168.781C187.184,-159.433 170.707,-147.227 157.939,-137.77"/>
<polygon fill="midnightblue" stroke="midnightblue" points="159.905,-134.87 149.786,-131.731 155.738,-140.495 159.905,-134.87"/>
</g>
<!-- Node5 -->
<g id="node5" class="node"><title>Node5</title>
<polygon fill="none" stroke="#bfbfbf" points="143,-0.5 143,-19.5 197,-19.5 197,-0.5 143,-0.5"/>
<text text-anchor="middle" x="170" y="-7.5" font-family="FreeSans" font-size="10.00">iostream</text>
</g>
<!-- Node1&#45;&gt;Node5 -->
<g id="edge9" class="edge"><title>Node1&#45;&gt;Node5</title>
<path fill="none" stroke="midnightblue" d="M218.666,-168.795C217.689,-144.788 213.873,-94.9994 199,-56 195.198,-46.0308 188.975,-35.9536 183.266,-27.87"/>
<polygon fill="midnightblue" stroke="midnightblue" points="185.97,-25.6406 177.195,-19.7024 180.351,-29.8163 185.97,-25.6406"/>
</g>
<!-- Node7 -->
<g id="node7" class="node"><title>Node7</title>
<g id="a_node7"><a xlink:href="../../d5/d6f/phool_8h.html" target="_top" xlink:title="phool/phool.h">
<polygon fill="none" stroke="black" points="247,-112.5 247,-131.5 321,-131.5 321,-112.5 247,-112.5"/>
<text text-anchor="middle" x="284" y="-119.5" font-family="FreeSans" font-size="10.00">phool/phool.h</text>
</a>
</g>
</g>
<!-- Node1&#45;&gt;Node7 -->
<g id="edge7" class="edge"><title>Node1&#45;&gt;Node7</title>
<path fill="none" stroke="midnightblue" d="M234.404,-168.781C244.239,-159.703 256.993,-147.929 267.105,-138.595"/>
<polygon fill="midnightblue" stroke="midnightblue" points="269.568,-141.085 274.542,-131.731 264.82,-135.942 269.568,-141.085"/>
</g>
<!-- Node3 -->
<g id="node3" class="node"><title>Node3</title>
<g id="a_node3"><a xlink:href="../../df/d32/PHObject_8h.html" target="_top" xlink:title="phool/PHObject.h">
<polygon fill="none" stroke="black" points="-0.5,-56.5 -0.5,-75.5 92.5,-75.5 92.5,-56.5 -0.5,-56.5"/>
<text text-anchor="middle" x="46" y="-63.5" font-family="FreeSans" font-size="10.00">phool/PHObject.h</text>
</a>
</g>
</g>
<!-- Node2&#45;&gt;Node3 -->
<g id="edge2" class="edge"><title>Node2&#45;&gt;Node3</title>
<path fill="none" stroke="midnightblue" d="M123.219,-112.324C108.733,-103.822 86.4269,-90.7288 69.5068,-80.7975"/>
<polygon fill="midnightblue" stroke="midnightblue" points="71.1406,-77.6981 60.7447,-75.6545 67.5972,-83.735 71.1406,-77.6981"/>
</g>
<!-- Node2&#45;&gt;Node5 -->
<g id="edge6" class="edge"><title>Node2&#45;&gt;Node5</title>
<path fill="none" stroke="midnightblue" d="M136.788,-112.333C135.337,-99.6284 133.813,-75.3573 140,-56 143.317,-45.6226 149.79,-35.4077 155.877,-27.34"/>
<polygon fill="midnightblue" stroke="midnightblue" points="158.624,-29.5087 162.163,-19.5222 153.169,-25.1225 158.624,-29.5087"/>
</g>
<!-- Node6 -->
<g id="node6" class="node"><title>Node6</title>
<polygon fill="none" stroke="#bfbfbf" points="149.5,-56.5 149.5,-75.5 190.5,-75.5 190.5,-56.5 149.5,-56.5"/>
<text text-anchor="middle" x="170" y="-63.5" font-family="FreeSans" font-size="10.00">ctime</text>
</g>
<!-- Node2&#45;&gt;Node6 -->
<g id="edge5" class="edge"><title>Node2&#45;&gt;Node6</title>
<path fill="none" stroke="midnightblue" d="M143.284,-112.083C147.711,-104.613 154.163,-93.7244 159.618,-84.5199"/>
<polygon fill="midnightblue" stroke="midnightblue" points="162.727,-86.1383 164.814,-75.7511 156.705,-82.5697 162.727,-86.1383"/>
</g>
<!-- Node4 -->
<g id="node4" class="node"><title>Node4</title>
<polygon fill="none" stroke="#bfbfbf" points="16.5,-0.5 16.5,-19.5 75.5,-19.5 75.5,-0.5 16.5,-0.5"/>
<text text-anchor="middle" x="46" y="-7.5" font-family="FreeSans" font-size="10.00">TObject.h</text>
</g>
<!-- Node3&#45;&gt;Node4 -->
<g id="edge3" class="edge"><title>Node3&#45;&gt;Node4</title>
<path fill="none" stroke="midnightblue" d="M46,-56.083C46,-49.0059 46,-38.8611 46,-29.9865"/>
<polygon fill="midnightblue" stroke="midnightblue" points="49.5001,-29.751 46,-19.7511 42.5001,-29.7511 49.5001,-29.751"/>
</g>
<!-- Node3&#45;&gt;Node5 -->
<g id="edge4" class="edge"><title>Node3&#45;&gt;Node5</title>
<path fill="none" stroke="midnightblue" d="M65.6482,-56.4435C85.9645,-47.5961 117.903,-33.6875 141.098,-23.5865"/>
<polygon fill="midnightblue" stroke="midnightblue" points="142.673,-26.7181 150.444,-19.5164 139.878,-20.3002 142.673,-26.7181"/>
</g>
<!-- Node7&#45;&gt;Node5 -->
<g id="edge8" class="edge"><title>Node7&#45;&gt;Node5</title>
<path fill="none" stroke="midnightblue" d="M278.41,-112.368C269.686,-99.2819 251.87,-74.039 233,-56 220.803,-44.3408 205.42,-33.2957 192.908,-25.0659"/>
<polygon fill="midnightblue" stroke="midnightblue" points="194.698,-22.0559 184.391,-19.6024 190.918,-27.9478 194.698,-22.0559"/>
</g>
</g>
</svg>
