<?xml version="1.0" encoding="UTF-8" standalone="no"?>
<!DOCTYPE svg PUBLIC "-//W3C//DTD SVG 1.1//EN"
 "http://www.w3.org/Graphics/SVG/1.1/DTD/svg11.dtd">
<!-- Generated by graphviz version 2.36.0 (20140111.2315)
 -->
<!-- Title: fun4all/phool/recoConsts.cc Pages: 1 -->
<svg width="144pt" height="196pt"
 viewBox="0.00 0.00 144.00 196.00" xmlns="http://www.w3.org/2000/svg" xmlns:xlink="http://www.w3.org/1999/xlink">
<g id="graph0" class="graph" transform="scale(1 1) rotate(0) translate(4 192)">
<title>fun4all/phool/recoConsts.cc</title>
<!-- Node1 -->
<g id="node1" class="node"><title>Node1</title>
<polygon fill="#bfbfbf" stroke="black" points="-0.5,-168.5 -0.5,-187.5 136.5,-187.5 136.5,-168.5 -0.5,-168.5"/>
<text text-anchor="middle" x="68" y="-175.5" font-family="FreeSans" font-size="10.00">fun4all/phool/recoConsts.cc</text>
</g>
<!-- Node2 -->
<g id="node2" class="node"><title>Node2</title>
<g id="a_node2"><a xlink:href="../../d2/dcb/recoConsts_8h.html" target="_top" xlink:title="recoConsts.h">
<polygon fill="none" stroke="black" points="31,-112.5 31,-131.5 105,-131.5 105,-112.5 31,-112.5"/>
<text text-anchor="middle" x="68" y="-119.5" font-family="FreeSans" font-size="10.00">recoConsts.h</text>
</a>
</g>
</g>
<!-- Node1&#45;&gt;Node2 -->
<g id="edge1" class="edge"><title>Node1&#45;&gt;Node2</title>
<path fill="none" stroke="midnightblue" d="M68,-168.083C68,-161.006 68,-150.861 68,-141.986"/>
<polygon fill="midnightblue" stroke="midnightblue" points="71.5001,-141.751 68,-131.751 64.5001,-141.751 71.5001,-141.751"/>
</g>
<!-- Node3 -->
<g id="node3" class="node"><title>Node3</title>
<g id="a_node3"><a xlink:href="../../d0/d11/PHFlag_8h.html" target="_top" xlink:title="PHFlag.h">
<polygon fill="none" stroke="black" points="39.5,-56.5 39.5,-75.5 96.5,-75.5 96.5,-56.5 39.5,-56.5"/>
<text text-anchor="middle" x="68" y="-63.5" font-family="FreeSans" font-size="10.00">PHFlag.h</text>
</a>
</g>
</g>
<!-- Node2&#45;&gt;Node3 -->
<g id="edge2" class="edge"><title>Node2&#45;&gt;Node3</title>
<path fill="none" stroke="midnightblue" d="M68,-112.083C68,-105.006 68,-94.8611 68,-85.9865"/>
<polygon fill="midnightblue" stroke="midnightblue" points="71.5001,-85.751 68,-75.7511 64.5001,-85.7511 71.5001,-85.751"/>
</g>
<!-- Node4 -->
<g id="node4" class="node"><title>Node4</title>
<polygon fill="none" stroke="#bfbfbf" points="22.5,-0.5 22.5,-19.5 57.5,-19.5 57.5,-0.5 22.5,-0.5"/>
<text text-anchor="middle" x="40" y="-7.5" font-family="FreeSans" font-size="10.00">map</text>
</g>
<!-- Node3&#45;&gt;Node4 -->
<g id="edge3" class="edge"><title>Node3&#45;&gt;Node4</title>
<path fill="none" stroke="midnightblue" d="M63.3764,-56.083C59.5437,-48.6913 53.9758,-37.9533 49.2354,-28.8111"/>
<polygon fill="midnightblue" stroke="midnightblue" points="52.248,-27.0175 44.5376,-19.7511 46.0337,-30.2398 52.248,-27.0175"/>
</g>
<!-- Node5 -->
<g id="node5" class="node"><title>Node5</title>
<polygon fill="none" stroke="#bfbfbf" points="75.5,-0.5 75.5,-19.5 116.5,-19.5 116.5,-0.5 75.5,-0.5"/>
<text text-anchor="middle" x="96" y="-7.5" font-family="FreeSans" font-size="10.00">string</text>
</g>
<!-- Node3&#45;&gt;Node5 -->
<g id="edge4" class="edge"><title>Node3&#45;&gt;Node5</title>
<path fill="none" stroke="midnightblue" d="M72.6236,-56.083C76.4563,-48.6913 82.0242,-37.9533 86.7646,-28.8111"/>
<polygon fill="midnightblue" stroke="midnightblue" points="89.9663,-30.2398 91.4624,-19.7511 83.752,-27.0175 89.9663,-30.2398"/>
</g>
</g>
</svg>
