<?xml version="1.0" encoding="UTF-8" standalone="no"?>
<!DOCTYPE svg PUBLIC "-//W3C//DTD SVG 1.1//EN"
 "http://www.w3.org/Graphics/SVG/1.1/DTD/svg11.dtd">
<!-- Generated by graphviz version 2.36.0 (20140111.2315)
 -->
<!-- Title: fun4all/fun4all/Fun4AllDstOutputManager.cc Pages: 1 -->
<svg width="1173pt" height="376pt"
 viewBox="0.00 0.00 1173.00 376.00" xmlns="http://www.w3.org/2000/svg" xmlns:xlink="http://www.w3.org/1999/xlink">
<g id="graph0" class="graph" transform="scale(1 1) rotate(0) translate(4 372)">
<title>fun4all/fun4all/Fun4AllDstOutputManager.cc</title>
<!-- Node1 -->
<g id="node1" class="node"><title>Node1</title>
<polygon fill="#bfbfbf" stroke="black" points="576,-337 576,-367 704,-367 704,-337 576,-337"/>
<text text-anchor="start" x="584" y="-355" font-family="FreeSans" font-size="10.00">fun4all/fun4all/Fun4AllDst</text>
<text text-anchor="middle" x="640" y="-344" font-family="FreeSans" font-size="10.00">OutputManager.cc</text>
</g>
<!-- Node2 -->
<g id="node2" class="node"><title>Node2</title>
<g id="a_node2"><a xlink:href="../../db/d22/Fun4AllDstOutputManager_8h.html" target="_top" xlink:title="Fun4AllDstOutputManager.h">
<polygon fill="none" stroke="black" points="179.5,-224.5 179.5,-243.5 318.5,-243.5 318.5,-224.5 179.5,-224.5"/>
<text text-anchor="middle" x="249" y="-231.5" font-family="FreeSans" font-size="10.00">Fun4AllDstOutputManager.h</text>
</a>
</g>
</g>
<!-- Node1&#45;&gt;Node2 -->
<g id="edge1" class="edge"><title>Node1&#45;&gt;Node2</title>
<path fill="none" stroke="midnightblue" d="M592.447,-336.892C514.113,-313.652 359.462,-267.771 287.506,-246.424"/>
<polygon fill="midnightblue" stroke="midnightblue" points="288.501,-243.068 277.918,-243.579 286.51,-249.779 288.501,-243.068"/>
</g>
<!-- Node5 -->
<g id="node5" class="node"><title>Node5</title>
<polygon fill="none" stroke="#bfbfbf" points="349.5,-56.5 349.5,-75.5 390.5,-75.5 390.5,-56.5 349.5,-56.5"/>
<text text-anchor="middle" x="370" y="-63.5" font-family="FreeSans" font-size="10.00">string</text>
</g>
<!-- Node1&#45;&gt;Node5 -->
<g id="edge48" class="edge"><title>Node1&#45;&gt;Node5</title>
<path fill="none" stroke="midnightblue" d="M576,-346.084C413.911,-332.781 0,-293.119 0,-235 0,-235 0,-235 0,-177 0,-136.458 27.8463,-130.346 64,-112 111.839,-87.7247 271.414,-73.9298 339.16,-69.0436"/>
<polygon fill="midnightblue" stroke="midnightblue" points="339.484,-72.5296 349.213,-68.3357 338.992,-65.5469 339.484,-72.5296"/>
</g>
<!-- Node7 -->
<g id="node7" class="node"><title>Node7</title>
<polygon fill="none" stroke="#bfbfbf" points="73,-112.5 73,-131.5 117,-131.5 117,-112.5 73,-112.5"/>
<text text-anchor="middle" x="95" y="-119.5" font-family="FreeSans" font-size="10.00">vector</text>
</g>
<!-- Node1&#45;&gt;Node7 -->
<g id="edge49" class="edge"><title>Node1&#45;&gt;Node7</title>
<path fill="none" stroke="midnightblue" d="M575.982,-344.311C483.189,-332.891 307.399,-304.713 170,-244 129.633,-226.163 108.606,-227.026 88,-188 80.3893,-173.586 83.5203,-154.889 87.7363,-141.25"/>
<polygon fill="midnightblue" stroke="midnightblue" points="91.1237,-142.169 91.1657,-131.575 84.5259,-139.831 91.1237,-142.169"/>
</g>
<!-- Node8 -->
<g id="node8" class="node"><title>Node8</title>
<g id="a_node8"><a xlink:href="../../dc/da2/Fun4AllServer_8h.html" target="_top" xlink:title="Fun4AllServer.h">
<polygon fill="none" stroke="black" points="482,-224.5 482,-243.5 568,-243.5 568,-224.5 482,-224.5"/>
<text text-anchor="middle" x="525" y="-231.5" font-family="FreeSans" font-size="10.00">Fun4AllServer.h</text>
</a>
</g>
</g>
<!-- Node1&#45;&gt;Node8 -->
<g id="edge10" class="edge"><title>Node1&#45;&gt;Node8</title>
<path fill="none" stroke="midnightblue" d="M625.899,-336.776C604.331,-315.021 563.287,-273.62 540.764,-250.901"/>
<polygon fill="midnightblue" stroke="midnightblue" points="543.158,-248.344 533.632,-243.707 538.187,-253.273 543.158,-248.344"/>
</g>
<!-- Node10 -->
<g id="node10" class="node"><title>Node10</title>
<polygon fill="none" stroke="#bfbfbf" points="870,-0.5 870,-19.5 924,-19.5 924,-0.5 870,-0.5"/>
<text text-anchor="middle" x="897" y="-7.5" font-family="FreeSans" font-size="10.00">iostream</text>
</g>
<!-- Node1&#45;&gt;Node10 -->
<g id="edge47" class="edge"><title>Node1&#45;&gt;Node10</title>
<path fill="none" stroke="midnightblue" d="M704.014,-350.896C785.547,-347.003 916,-326.479 916,-235 916,-235 916,-235 916,-121 916,-88.4885 907.841,-51.3503 902.216,-29.6103"/>
<polygon fill="midnightblue" stroke="midnightblue" points="905.541,-28.498 899.562,-19.7514 898.782,-30.3175 905.541,-28.498"/>
</g>
<!-- Node15 -->
<g id="node15" class="node"><title>Node15</title>
<g id="a_node15"><a xlink:href="../../d3/d62/PHNode_8h.html" target="_top" xlink:title="phool/PHNode.h">
<polygon fill="none" stroke="black" points="944,-112.5 944,-131.5 1032,-131.5 1032,-112.5 944,-112.5"/>
<text text-anchor="middle" x="988" y="-119.5" font-family="FreeSans" font-size="10.00">phool/PHNode.h</text>
</a>
</g>
</g>
<!-- Node1&#45;&gt;Node15 -->
<g id="edge25" class="edge"><title>Node1&#45;&gt;Node15</title>
<path fill="none" stroke="midnightblue" d="M704.087,-347.309C779.02,-341.726 897.02,-328.584 930,-300 977.407,-258.912 986.271,-178.448 987.784,-141.885"/>
<polygon fill="midnightblue" stroke="midnightblue" points="991.289,-141.752 988.056,-131.662 984.291,-141.565 991.289,-141.752"/>
</g>
<!-- Node18 -->
<g id="node18" class="node"><title>Node18</title>
<g id="a_node18"><a xlink:href="../../dd/de7/PHNodeIOManager_8h.html" target="_top" xlink:title="phool/PHNodeIOManager.h">
<polygon fill="none" stroke="black" points="572,-168.5 572,-187.5 708,-187.5 708,-168.5 572,-168.5"/>
<text text-anchor="middle" x="640" y="-175.5" font-family="FreeSans" font-size="10.00">phool/PHNodeIOManager.h</text>
</a>
</g>
</g>
<!-- Node1&#45;&gt;Node18 -->
<g id="edge30" class="edge"><title>Node1&#45;&gt;Node18</title>
<path fill="none" stroke="midnightblue" d="M640,-336.925C640,-306.073 640,-232.484 640,-197.755"/>
<polygon fill="midnightblue" stroke="midnightblue" points="643.5,-197.585 640,-187.585 636.5,-197.585 643.5,-197.585"/>
</g>
<!-- Node20 -->
<g id="node20" class="node"><title>Node20</title>
<g id="a_node20"><a xlink:href="../../d8/dfd/PHNodeIterator_8h.html" target="_top" xlink:title="phool/PHNodeIterator.h">
<polygon fill="none" stroke="black" points="982.5,-280.5 982.5,-299.5 1101.5,-299.5 1101.5,-280.5 982.5,-280.5"/>
<text text-anchor="middle" x="1042" y="-287.5" font-family="FreeSans" font-size="10.00">phool/PHNodeIterator.h</text>
</a>
</g>
</g>
<!-- Node1&#45;&gt;Node20 -->
<g id="edge36" class="edge"><title>Node1&#45;&gt;Node20</title>
<path fill="none" stroke="midnightblue" d="M704.143,-341.426C778.136,-330.383 899.253,-312.306 974.598,-301.06"/>
<polygon fill="midnightblue" stroke="midnightblue" points="975.543,-304.458 984.916,-299.52 974.509,-297.535 975.543,-304.458"/>
</g>
<!-- Node23 -->
<g id="node23" class="node"><title>Node23</title>
<polygon fill="none" stroke="#bfbfbf" points="1119.5,-280.5 1119.5,-299.5 1164.5,-299.5 1164.5,-280.5 1119.5,-280.5"/>
<text text-anchor="middle" x="1142" y="-287.5" font-family="FreeSans" font-size="10.00">cstdlib</text>
</g>
<!-- Node1&#45;&gt;Node23 -->
<g id="edge46" class="edge"><title>Node1&#45;&gt;Node23</title>
<path fill="none" stroke="midnightblue" d="M704.361,-347.411C793.413,-341.694 959.246,-328.343 1109.51,-299.766"/>
<polygon fill="midnightblue" stroke="midnightblue" points="1110.23,-303.192 1119.39,-297.862 1108.9,-296.319 1110.23,-303.192"/>
</g>
<!-- Node3 -->
<g id="node3" class="node"><title>Node3</title>
<g id="a_node3"><a xlink:href="../../de/df8/Fun4AllOutputManager_8h.html" target="_top" xlink:title="Fun4AllOutputManager.h">
<polygon fill="none" stroke="black" points="142,-168.5 142,-187.5 266,-187.5 266,-168.5 142,-168.5"/>
<text text-anchor="middle" x="204" y="-175.5" font-family="FreeSans" font-size="10.00">Fun4AllOutputManager.h</text>
</a>
</g>
</g>
<!-- Node2&#45;&gt;Node3 -->
<g id="edge2" class="edge"><title>Node2&#45;&gt;Node3</title>
<path fill="none" stroke="midnightblue" d="M241.569,-224.083C235.147,-216.377 225.694,-205.033 217.878,-195.653"/>
<polygon fill="midnightblue" stroke="midnightblue" points="220.383,-193.193 211.293,-187.751 215.006,-197.674 220.383,-193.193"/>
</g>
<!-- Node2&#45;&gt;Node5 -->
<g id="edge8" class="edge"><title>Node2&#45;&gt;Node5</title>
<path fill="none" stroke="midnightblue" d="M253.84,-224.326C268.86,-197.437 313.912,-116.975 318,-112 327.238,-100.758 339.465,-90.0211 349.742,-81.8561"/>
<polygon fill="midnightblue" stroke="midnightblue" points="352.018,-84.521 357.808,-75.6479 347.749,-78.974 352.018,-84.521"/>
</g>
<!-- Node2&#45;&gt;Node7 -->
<g id="edge9" class="edge"><title>Node2&#45;&gt;Node7</title>
<path fill="none" stroke="midnightblue" d="M179.373,-228.84C150.405,-223.355 119.132,-211.798 100,-188 89.7041,-175.193 89.4784,-156.006 91.2121,-141.794"/>
<polygon fill="midnightblue" stroke="midnightblue" points="94.7061,-142.115 92.8676,-131.681 87.798,-140.984 94.7061,-142.115"/>
</g>
<!-- Node4 -->
<g id="node4" class="node"><title>Node4</title>
<g id="a_node4"><a xlink:href="../../d2/de7/Fun4AllBase_8h.html" target="_top" xlink:title="Fun4AllBase.h">
<polygon fill="none" stroke="black" points="398,-112.5 398,-131.5 478,-131.5 478,-112.5 398,-112.5"/>
<text text-anchor="middle" x="438" y="-119.5" font-family="FreeSans" font-size="10.00">Fun4AllBase.h</text>
</a>
</g>
</g>
<!-- Node3&#45;&gt;Node4 -->
<g id="edge3" class="edge"><title>Node3&#45;&gt;Node4</title>
<path fill="none" stroke="midnightblue" d="M241.078,-168.444C281.728,-159.063 347.032,-143.993 391.184,-133.804"/>
<polygon fill="midnightblue" stroke="midnightblue" points="392.139,-137.175 401.095,-131.516 390.565,-130.355 392.139,-137.175"/>
</g>
<!-- Node3&#45;&gt;Node5 -->
<g id="edge7" class="edge"><title>Node3&#45;&gt;Node5</title>
<path fill="none" stroke="midnightblue" d="M206.924,-168.1C211.934,-154.19 223.449,-127.308 242,-112 270.193,-88.7354 311.238,-77.1406 339.195,-71.6162"/>
<polygon fill="midnightblue" stroke="midnightblue" points="340.007,-75.0258 349.215,-69.7845 338.749,-68.1399 340.007,-75.0258"/>
</g>
<!-- Node3&#45;&gt;Node7 -->
<g id="edge6" class="edge"><title>Node3&#45;&gt;Node7</title>
<path fill="none" stroke="midnightblue" d="M186.487,-168.324C168.928,-159.625 141.669,-146.12 121.469,-136.113"/>
<polygon fill="midnightblue" stroke="midnightblue" points="122.984,-132.958 112.469,-131.655 119.876,-139.23 122.984,-132.958"/>
</g>
<!-- Node4&#45;&gt;Node5 -->
<g id="edge4" class="edge"><title>Node4&#45;&gt;Node5</title>
<path fill="none" stroke="midnightblue" d="M427.075,-112.324C416.825,-104.185 401.279,-91.8395 388.999,-82.0874"/>
<polygon fill="midnightblue" stroke="midnightblue" points="391.132,-79.3119 381.124,-75.8339 386.779,-84.7937 391.132,-79.3119"/>
</g>
<!-- Node6 -->
<g id="node6" class="node"><title>Node6</title>
<polygon fill="none" stroke="#bfbfbf" points="415.5,-56.5 415.5,-75.5 460.5,-75.5 460.5,-56.5 415.5,-56.5"/>
<text text-anchor="middle" x="438" y="-63.5" font-family="FreeSans" font-size="10.00">climits</text>
</g>
<!-- Node4&#45;&gt;Node6 -->
<g id="edge5" class="edge"><title>Node4&#45;&gt;Node6</title>
<path fill="none" stroke="midnightblue" d="M438,-112.083C438,-105.006 438,-94.8611 438,-85.9865"/>
<polygon fill="midnightblue" stroke="midnightblue" points="441.5,-85.751 438,-75.7511 434.5,-85.7511 441.5,-85.751"/>
</g>
<!-- Node8&#45;&gt;Node4 -->
<g id="edge11" class="edge"><title>Node8&#45;&gt;Node4</title>
<path fill="none" stroke="midnightblue" d="M521.053,-224.489C514.838,-211.561 501.931,-186.522 487,-168 478.254,-157.151 466.867,-146.532 457.272,-138.337"/>
<polygon fill="midnightblue" stroke="midnightblue" points="459.343,-135.507 449.413,-131.814 454.872,-140.893 459.343,-135.507"/>
</g>
<!-- Node8&#45;&gt;Node5 -->
<g id="edge23" class="edge"><title>Node8&#45;&gt;Node5</title>
<path fill="none" stroke="midnightblue" d="M481.9,-227.876C435.723,-221.397 366.903,-208.539 351,-188 327.555,-157.72 346.5,-110.16 359.796,-84.6191"/>
<polygon fill="midnightblue" stroke="midnightblue" points="362.945,-86.1554 364.679,-75.7035 356.805,-82.7924 362.945,-86.1554"/>
</g>
<!-- Node8&#45;&gt;Node7 -->
<g id="edge24" class="edge"><title>Node8&#45;&gt;Node7</title>
<path fill="none" stroke="midnightblue" d="M481.771,-230.217C385.925,-223.738 161.759,-206.761 133,-188 116.614,-177.31 106.399,-156.902 100.74,-141.793"/>
<polygon fill="midnightblue" stroke="midnightblue" points="103.927,-140.29 97.4022,-131.942 97.297,-142.537 103.927,-140.29"/>
</g>
<!-- Node9 -->
<g id="node9" class="node"><title>Node9</title>
<g id="a_node9"><a xlink:href="../../d0/d59/Fun4AllHistoManager_8h.html" target="_top" xlink:title="Fun4AllHistoManager.h">
<polygon fill="none" stroke="black" points="360,-168.5 360,-187.5 478,-187.5 478,-168.5 360,-168.5"/>
<text text-anchor="middle" x="419" y="-175.5" font-family="FreeSans" font-size="10.00">Fun4AllHistoManager.h</text>
</a>
</g>
</g>
<!-- Node8&#45;&gt;Node9 -->
<g id="edge12" class="edge"><title>Node8&#45;&gt;Node9</title>
<path fill="none" stroke="midnightblue" d="M507.969,-224.324C490.97,-215.664 464.624,-202.242 445.007,-192.249"/>
<polygon fill="midnightblue" stroke="midnightblue" points="446.488,-189.075 435.988,-187.655 443.31,-195.312 446.488,-189.075"/>
</g>
<!-- Node8&#45;&gt;Node10 -->
<g id="edge21" class="edge"><title>Node8&#45;&gt;Node10</title>
<path fill="none" stroke="midnightblue" d="M568.209,-231.944C642.774,-229.277 791.438,-219.989 831,-188 880.475,-147.995 892.867,-66.9723 895.967,-30.0755"/>
<polygon fill="midnightblue" stroke="midnightblue" points="899.483,-29.9725 896.683,-19.7544 892.5,-29.4885 899.483,-29.9725"/>
</g>
<!-- Node11 -->
<g id="node11" class="node"><title>Node11</title>
<polygon fill="none" stroke="#bfbfbf" points="496.5,-112.5 496.5,-131.5 531.5,-131.5 531.5,-112.5 496.5,-112.5"/>
<text text-anchor="middle" x="514" y="-119.5" font-family="FreeSans" font-size="10.00">map</text>
</g>
<!-- Node8&#45;&gt;Node11 -->
<g id="edge22" class="edge"><title>Node8&#45;&gt;Node11</title>
<path fill="none" stroke="midnightblue" d="M524.476,-224.154C523.7,-211.634 522.105,-188.036 520,-168 519.093,-159.369 517.857,-149.838 516.742,-141.777"/>
<polygon fill="midnightblue" stroke="midnightblue" points="520.169,-141.016 515.293,-131.61 513.238,-142.003 520.169,-141.016"/>
</g>
<!-- Node12 -->
<g id="node12" class="node"><title>Node12</title>
<g id="a_node12"><a xlink:href="../../dc/d26/PHTimer_8h.html" target="_top" xlink:title="high precision timer ">
<polygon fill="none" stroke="black" points="733.5,-168.5 733.5,-187.5 822.5,-187.5 822.5,-168.5 733.5,-168.5"/>
<text text-anchor="middle" x="778" y="-175.5" font-family="FreeSans" font-size="10.00">phool/PHTimer.h</text>
</a>
</g>
</g>
<!-- Node8&#45;&gt;Node12 -->
<g id="edge17" class="edge"><title>Node8&#45;&gt;Node12</title>
<path fill="none" stroke="midnightblue" d="M565.089,-224.444C609.316,-215.004 680.539,-199.802 728.285,-189.611"/>
<polygon fill="midnightblue" stroke="midnightblue" points="729.05,-193.027 738.099,-187.516 727.589,-186.181 729.05,-193.027"/>
</g>
<!-- Node9&#45;&gt;Node4 -->
<g id="edge13" class="edge"><title>Node9&#45;&gt;Node4</title>
<path fill="none" stroke="midnightblue" d="M422.137,-168.083C424.683,-160.849 428.356,-150.409 431.527,-141.397"/>
<polygon fill="midnightblue" stroke="midnightblue" points="434.903,-142.346 434.921,-131.751 428.3,-140.023 434.903,-142.346"/>
</g>
<!-- Node9&#45;&gt;Node5 -->
<g id="edge16" class="edge"><title>Node9&#45;&gt;Node5</title>
<path fill="none" stroke="midnightblue" d="M411.932,-168.177C405.226,-159.436 395.268,-145.446 389,-132 382.015,-117.015 376.971,-98.8792 373.843,-85.5761"/>
<polygon fill="midnightblue" stroke="midnightblue" points="377.239,-84.7237 371.665,-75.7133 370.403,-86.2327 377.239,-84.7237"/>
</g>
<!-- Node9&#45;&gt;Node10 -->
<g id="edge14" class="edge"><title>Node9&#45;&gt;Node10</title>
<path fill="none" stroke="midnightblue" d="M405.804,-168.402C375.377,-147.585 305.469,-93.4337 340,-56 375.199,-17.8422 740.911,-12.034 859.851,-11.1551"/>
<polygon fill="midnightblue" stroke="midnightblue" points="859.953,-14.6546 869.929,-11.0883 859.906,-7.6548 859.953,-14.6546"/>
</g>
<!-- Node9&#45;&gt;Node11 -->
<g id="edge15" class="edge"><title>Node9&#45;&gt;Node11</title>
<path fill="none" stroke="midnightblue" d="M434.263,-168.324C449.221,-159.822 472.255,-146.729 489.727,-136.797"/>
<polygon fill="midnightblue" stroke="midnightblue" points="491.81,-139.639 498.774,-131.655 488.351,-133.553 491.81,-139.639"/>
</g>
<!-- Node12&#45;&gt;Node10 -->
<g id="edge18" class="edge"><title>Node12&#45;&gt;Node10</title>
<path fill="none" stroke="midnightblue" d="M787.605,-168.291C796.827,-159.636 810.821,-145.707 821,-132 844.139,-100.843 842.933,-88.5935 864,-56 870.179,-46.4398 877.638,-36.1755 883.9,-27.8676"/>
<polygon fill="midnightblue" stroke="midnightblue" points="886.816,-29.8165 890.108,-19.7462 881.255,-25.5654 886.816,-29.8165"/>
</g>
<!-- Node13 -->
<g id="node13" class="node"><title>Node13</title>
<polygon fill="none" stroke="#bfbfbf" points="760,-112.5 760,-131.5 812,-131.5 812,-112.5 760,-112.5"/>
<text text-anchor="middle" x="786" y="-119.5" font-family="FreeSans" font-size="10.00">sstream</text>
</g>
<!-- Node12&#45;&gt;Node13 -->
<g id="edge19" class="edge"><title>Node12&#45;&gt;Node13</title>
<path fill="none" stroke="midnightblue" d="M779.321,-168.083C780.381,-160.927 781.906,-150.635 783.231,-141.691"/>
<polygon fill="midnightblue" stroke="midnightblue" points="786.7,-142.156 784.704,-131.751 779.776,-141.13 786.7,-142.156"/>
</g>
<!-- Node14 -->
<g id="node14" class="node"><title>Node14</title>
<polygon fill="none" stroke="#bfbfbf" points="692,-112.5 692,-131.5 742,-131.5 742,-112.5 692,-112.5"/>
<text text-anchor="middle" x="717" y="-119.5" font-family="FreeSans" font-size="10.00">unistd.h</text>
</g>
<!-- Node12&#45;&gt;Node14 -->
<g id="edge20" class="edge"><title>Node12&#45;&gt;Node14</title>
<path fill="none" stroke="midnightblue" d="M768.199,-168.324C759.182,-160.341 745.594,-148.313 734.682,-138.653"/>
<polygon fill="midnightblue" stroke="midnightblue" points="736.787,-135.842 726.979,-131.834 732.147,-141.083 736.787,-135.842"/>
</g>
<!-- Node15&#45;&gt;Node5 -->
<g id="edge29" class="edge"><title>Node15&#45;&gt;Node5</title>
<path fill="none" stroke="midnightblue" d="M943.999,-118.558C826.924,-111.908 509.658,-92.8423 406,-76 404.295,-75.723 402.552,-75.4052 400.798,-75.0584"/>
<polygon fill="midnightblue" stroke="midnightblue" points="401.338,-71.593 390.817,-72.8337 399.816,-78.4253 401.338,-71.593"/>
</g>
<!-- Node16 -->
<g id="node16" class="node"><title>Node16</title>
<g id="a_node16"><a xlink:href="../../d5/d6f/phool_8h.html" target="_top" xlink:title="phool.h">
<polygon fill="none" stroke="black" points="1088.5,-56.5 1088.5,-75.5 1135.5,-75.5 1135.5,-56.5 1088.5,-56.5"/>
<text text-anchor="middle" x="1112" y="-63.5" font-family="FreeSans" font-size="10.00">phool.h</text>
</a>
</g>
</g>
<!-- Node15&#45;&gt;Node16 -->
<g id="edge26" class="edge"><title>Node15&#45;&gt;Node16</title>
<path fill="none" stroke="midnightblue" d="M1007.65,-112.444C1027.96,-103.596 1059.9,-89.6875 1083.1,-79.5865"/>
<polygon fill="midnightblue" stroke="midnightblue" points="1084.67,-82.7181 1092.44,-75.5164 1081.88,-76.3002 1084.67,-82.7181"/>
</g>
<!-- Node17 -->
<g id="node17" class="node"><title>Node17</title>
<polygon fill="none" stroke="#bfbfbf" points="965.5,-56.5 965.5,-75.5 1010.5,-75.5 1010.5,-56.5 965.5,-56.5"/>
<text text-anchor="middle" x="988" y="-63.5" font-family="FreeSans" font-size="10.00">iosfwd</text>
</g>
<!-- Node15&#45;&gt;Node17 -->
<g id="edge28" class="edge"><title>Node15&#45;&gt;Node17</title>
<path fill="none" stroke="midnightblue" d="M988,-112.083C988,-105.006 988,-94.8611 988,-85.9865"/>
<polygon fill="midnightblue" stroke="midnightblue" points="991.5,-85.751 988,-75.7511 984.5,-85.7511 991.5,-85.751"/>
</g>
<!-- Node16&#45;&gt;Node10 -->
<g id="edge27" class="edge"><title>Node16&#45;&gt;Node10</title>
<path fill="none" stroke="midnightblue" d="M1088.17,-59.0147C1050.84,-49.6397 978.295,-31.4184 934.095,-20.3168"/>
<polygon fill="midnightblue" stroke="midnightblue" points="934.863,-16.9012 924.312,-17.8597 933.158,-23.6903 934.863,-16.9012"/>
</g>
<!-- Node18&#45;&gt;Node5 -->
<g id="edge34" class="edge"><title>Node18&#45;&gt;Node5</title>
<path fill="none" stroke="midnightblue" d="M629.271,-168.359C611.646,-154.562 575.015,-127.535 540,-112 533.549,-109.138 447.705,-86.928 400.54,-74.8171"/>
<polygon fill="midnightblue" stroke="midnightblue" points="401.385,-71.4206 390.829,-72.3259 399.645,-78.201 401.385,-71.4206"/>
</g>
<!-- Node18&#45;&gt;Node11 -->
<g id="edge35" class="edge"><title>Node18&#45;&gt;Node11</title>
<path fill="none" stroke="midnightblue" d="M620.035,-168.444C598.784,-159.336 565.018,-144.865 541.312,-134.705"/>
<polygon fill="midnightblue" stroke="midnightblue" points="542.405,-131.366 531.834,-130.643 539.647,-137.8 542.405,-131.366"/>
</g>
<!-- Node19 -->
<g id="node19" class="node"><title>Node19</title>
<g id="a_node19"><a xlink:href="../../d9/d53/PHIOManager_8h.html" target="_top" xlink:title="PHIOManager.h">
<polygon fill="none" stroke="black" points="588,-112.5 588,-131.5 674,-131.5 674,-112.5 588,-112.5"/>
<text text-anchor="middle" x="631" y="-119.5" font-family="FreeSans" font-size="10.00">PHIOManager.h</text>
</a>
</g>
</g>
<!-- Node18&#45;&gt;Node19 -->
<g id="edge31" class="edge"><title>Node18&#45;&gt;Node19</title>
<path fill="none" stroke="midnightblue" d="M638.514,-168.083C637.321,-160.927 635.606,-150.635 634.115,-141.691"/>
<polygon fill="midnightblue" stroke="midnightblue" points="637.555,-141.04 632.459,-131.751 630.65,-142.19 637.555,-141.04"/>
</g>
<!-- Node19&#45;&gt;Node5 -->
<g id="edge33" class="edge"><title>Node19&#45;&gt;Node5</title>
<path fill="none" stroke="midnightblue" d="M587.737,-112.981C542.34,-104.418 468.962,-90.1581 406,-76 404.272,-75.6113 402.499,-75.2023 400.712,-74.7818"/>
<polygon fill="midnightblue" stroke="midnightblue" points="401.064,-71.2657 390.52,-72.3093 399.413,-78.0684 401.064,-71.2657"/>
</g>
<!-- Node19&#45;&gt;Node16 -->
<g id="edge32" class="edge"><title>Node19&#45;&gt;Node16</title>
<path fill="none" stroke="midnightblue" d="M674.096,-113.313C677.106,-112.846 680.096,-112.403 683,-112 759.458,-101.386 990.972,-78.6849 1078.23,-70.2468"/>
<polygon fill="midnightblue" stroke="midnightblue" points="1078.76,-73.7123 1088.38,-69.2673 1078.09,-66.7447 1078.76,-73.7123"/>
</g>
<!-- Node20&#45;&gt;Node16 -->
<g id="edge37" class="edge"><title>Node20&#45;&gt;Node16</title>
<path fill="none" stroke="midnightblue" d="M1065.96,-280.497C1082.9,-273.296 1104.84,-261.348 1118,-244 1153.9,-196.672 1154.86,-169.249 1139,-112 1136.21,-101.921 1130.49,-91.832 1125.03,-83.7694"/>
<polygon fill="midnightblue" stroke="midnightblue" points="1127.85,-81.6881 1119.15,-75.6357 1122.18,-85.7899 1127.85,-81.6881"/>
</g>
<!-- Node21 -->
<g id="node21" class="node"><title>Node21</title>
<g id="a_node21"><a xlink:href="../../d8/d30/PHCompositeNode_8h.html" target="_top" xlink:title="PHCompositeNode.h">
<polygon fill="none" stroke="black" points="985,-224.5 985,-243.5 1093,-243.5 1093,-224.5 985,-224.5"/>
<text text-anchor="middle" x="1039" y="-231.5" font-family="FreeSans" font-size="10.00">PHCompositeNode.h</text>
</a>
</g>
</g>
<!-- Node20&#45;&gt;Node21 -->
<g id="edge38" class="edge"><title>Node20&#45;&gt;Node21</title>
<path fill="none" stroke="midnightblue" d="M1041.5,-280.083C1041.11,-273.006 1040.55,-262.861 1040.05,-253.986"/>
<polygon fill="midnightblue" stroke="midnightblue" points="1043.54,-253.542 1039.49,-243.751 1036.55,-253.93 1043.54,-253.542"/>
</g>
<!-- Node22 -->
<g id="node22" class="node"><title>Node22</title>
<g id="a_node22"><a xlink:href="../../db/dd5/PHPointerList_8h.html" target="_top" xlink:title="PHPointerList.h">
<polygon fill="none" stroke="black" points="1020,-168.5 1020,-187.5 1106,-187.5 1106,-168.5 1020,-168.5"/>
<text text-anchor="middle" x="1063" y="-175.5" font-family="FreeSans" font-size="10.00">PHPointerList.h</text>
</a>
</g>
</g>
<!-- Node20&#45;&gt;Node22 -->
<g id="edge45" class="edge"><title>Node20&#45;&gt;Node22</title>
<path fill="none" stroke="midnightblue" d="M1061.3,-280.48C1075.43,-273.081 1093.56,-260.887 1102,-244 1110.76,-226.485 1096.16,-207.372 1082.4,-194.435"/>
<polygon fill="midnightblue" stroke="midnightblue" points="1084.4,-191.541 1074.57,-187.59 1079.79,-196.809 1084.4,-191.541"/>
</g>
<!-- Node21&#45;&gt;Node15 -->
<g id="edge40" class="edge"><title>Node21&#45;&gt;Node15</title>
<path fill="none" stroke="midnightblue" d="M1032.83,-224.359C1026.72,-215.528 1017.38,-201.267 1011,-188 1003.7,-172.83 997.483,-154.713 993.358,-141.464"/>
<polygon fill="midnightblue" stroke="midnightblue" points="996.639,-140.22 990.408,-131.651 989.935,-142.235 996.639,-140.22"/>
</g>
<!-- Node21&#45;&gt;Node16 -->
<g id="edge39" class="edge"><title>Node21&#45;&gt;Node16</title>
<path fill="none" stroke="midnightblue" d="M1067.02,-224.397C1084.17,-217.515 1104.75,-205.984 1115,-188 1133.4,-155.718 1124.95,-110.3 1117.96,-85.2966"/>
<polygon fill="midnightblue" stroke="midnightblue" points="1121.29,-84.2075 1115.05,-75.6462 1114.59,-86.231 1121.29,-84.2075"/>
</g>
<!-- Node21&#45;&gt;Node22 -->
<g id="edge41" class="edge"><title>Node21&#45;&gt;Node22</title>
<path fill="none" stroke="midnightblue" d="M1042.96,-224.083C1046.21,-216.77 1050.92,-206.181 1054.95,-197.103"/>
<polygon fill="midnightblue" stroke="midnightblue" points="1058.25,-198.311 1059.11,-187.751 1051.85,-195.468 1058.25,-198.311"/>
</g>
<!-- Node22&#45;&gt;Node10 -->
<g id="edge44" class="edge"><title>Node22&#45;&gt;Node10</title>
<path fill="none" stroke="midnightblue" d="M1062.33,-168.354C1060.16,-146.467 1051.49,-88.3142 1019,-56 996.179,-33.3021 960.937,-21.9287 934.187,-16.3063"/>
<polygon fill="midnightblue" stroke="midnightblue" points="934.512,-12.805 924.032,-14.3582 933.194,-19.6796 934.512,-12.805"/>
</g>
<!-- Node22&#45;&gt;Node15 -->
<g id="edge43" class="edge"><title>Node22&#45;&gt;Node15</title>
<path fill="none" stroke="midnightblue" d="M1050.95,-168.324C1039.54,-160.107 1022.17,-147.602 1008.57,-137.807"/>
<polygon fill="midnightblue" stroke="midnightblue" points="1010.43,-134.837 1000.27,-131.834 1006.34,-140.517 1010.43,-134.837"/>
</g>
<!-- Node22&#45;&gt;Node16 -->
<g id="edge42" class="edge"><title>Node22&#45;&gt;Node16</title>
<path fill="none" stroke="midnightblue" d="M1066.84,-168.368C1074.82,-150.456 1093.33,-108.923 1104,-84.9482"/>
<polygon fill="midnightblue" stroke="midnightblue" points="1107.3,-86.1503 1108.17,-75.5914 1100.91,-83.3019 1107.3,-86.1503"/>
</g>
</g>
</svg>
