<?xml version="1.0" encoding="UTF-8" standalone="no"?>
<!DOCTYPE svg PUBLIC "-//W3C//DTD SVG 1.1//EN"
 "http://www.w3.org/Graphics/SVG/1.1/DTD/svg11.dtd">
<!-- Generated by graphviz version 2.36.0 (20140111.2315)
 -->
<!-- Title: fun4all/fun4all/Fun4AllOutputManager.h Pages: 1 -->
<svg width="194pt" height="152pt"
 viewBox="0.00 0.00 194.00 152.00" xmlns="http://www.w3.org/2000/svg" xmlns:xlink="http://www.w3.org/1999/xlink">
<g id="graph0" class="graph" transform="scale(1 1) rotate(0) translate(4 148)">
<title>fun4all/fun4all/Fun4AllOutputManager.h</title>
<!-- Node1 -->
<g id="node1" class="node"><title>Node1</title>
<polygon fill="#bfbfbf" stroke="black" points="13,-113 13,-143 155,-143 155,-113 13,-113"/>
<text text-anchor="start" x="21" y="-131" font-family="FreeSans" font-size="10.00">fun4all/fun4all/Fun4AllOutput</text>
<text text-anchor="middle" x="84" y="-120" font-family="FreeSans" font-size="10.00">Manager.h</text>
</g>
<!-- Node2 -->
<g id="node2" class="node"><title>Node2</title>
<g id="a_node2"><a xlink:href="../../d2/de7/Fun4AllBase_8h.html" target="_top" xlink:title="Fun4AllBase.h">
<polygon fill="none" stroke="black" points="44,-56.5 44,-75.5 124,-75.5 124,-56.5 44,-56.5"/>
<text text-anchor="middle" x="84" y="-63.5" font-family="FreeSans" font-size="10.00">Fun4AllBase.h</text>
</a>
</g>
</g>
<!-- Node1&#45;&gt;Node2 -->
<g id="edge1" class="edge"><title>Node1&#45;&gt;Node2</title>
<path fill="none" stroke="midnightblue" d="M84,-112.781C84,-104.781 84,-94.6887 84,-86.0168"/>
<polygon fill="midnightblue" stroke="midnightblue" points="87.5001,-85.7305 84,-75.7305 80.5001,-85.7306 87.5001,-85.7305"/>
</g>
<!-- Node3 -->
<g id="node3" class="node"><title>Node3</title>
<polygon fill="none" stroke="#bfbfbf" points="-0.5,-0.5 -0.5,-19.5 40.5,-19.5 40.5,-0.5 -0.5,-0.5"/>
<text text-anchor="middle" x="20" y="-7.5" font-family="FreeSans" font-size="10.00">string</text>
</g>
<!-- Node1&#45;&gt;Node3 -->
<g id="edge5" class="edge"><title>Node1&#45;&gt;Node3</title>
<path fill="none" stroke="midnightblue" d="M66.0782,-112.728C55.5014,-103.368 42.7149,-90.2539 35,-76 27.1616,-61.518 23.4031,-43.0713 21.6104,-29.5315"/>
<polygon fill="midnightblue" stroke="midnightblue" points="25.0809,-29.0701 20.5205,-19.507 18.1219,-29.8268 25.0809,-29.0701"/>
</g>
<!-- Node5 -->
<g id="node5" class="node"><title>Node5</title>
<polygon fill="none" stroke="#bfbfbf" points="142,-56.5 142,-75.5 186,-75.5 186,-56.5 142,-56.5"/>
<text text-anchor="middle" x="164" y="-63.5" font-family="FreeSans" font-size="10.00">vector</text>
</g>
<!-- Node1&#45;&gt;Node5 -->
<g id="edge4" class="edge"><title>Node1&#45;&gt;Node5</title>
<path fill="none" stroke="midnightblue" d="M102.959,-112.781C115.423,-103.433 131.697,-91.2273 144.307,-81.77"/>
<polygon fill="midnightblue" stroke="midnightblue" points="146.459,-84.5306 152.359,-75.7305 142.259,-78.9306 146.459,-84.5306"/>
</g>
<!-- Node2&#45;&gt;Node3 -->
<g id="edge2" class="edge"><title>Node2&#45;&gt;Node3</title>
<path fill="none" stroke="midnightblue" d="M73.7173,-56.324C64.1637,-48.2631 49.7203,-36.0765 38.2157,-26.3695"/>
<polygon fill="midnightblue" stroke="midnightblue" points="40.3698,-23.6076 30.4698,-19.8339 35.8557,-28.9577 40.3698,-23.6076"/>
</g>
<!-- Node4 -->
<g id="node4" class="node"><title>Node4</title>
<polygon fill="none" stroke="#bfbfbf" points="61.5,-0.5 61.5,-19.5 106.5,-19.5 106.5,-0.5 61.5,-0.5"/>
<text text-anchor="middle" x="84" y="-7.5" font-family="FreeSans" font-size="10.00">climits</text>
</g>
<!-- Node2&#45;&gt;Node4 -->
<g id="edge3" class="edge"><title>Node2&#45;&gt;Node4</title>
<path fill="none" stroke="midnightblue" d="M84,-56.083C84,-49.0059 84,-38.8611 84,-29.9865"/>
<polygon fill="midnightblue" stroke="midnightblue" points="87.5001,-29.751 84,-19.7511 80.5001,-29.7511 87.5001,-29.751"/>
</g>
</g>
</svg>
