<?xml version="1.0" encoding="UTF-8" standalone="no"?>
<!DOCTYPE svg PUBLIC "-//W3C//DTD SVG 1.1//EN"
 "http://www.w3.org/Graphics/SVG/1.1/DTD/svg11.dtd">
<!-- Generated by graphviz version 2.36.0 (20140111.2315)
 -->
<!-- Title: SyncObjectv1 Pages: 1 -->
<svg width="84pt" height="196pt"
 viewBox="0.00 0.00 84.00 196.00" xmlns="http://www.w3.org/2000/svg" xmlns:xlink="http://www.w3.org/1999/xlink">
<g id="graph0" class="graph" transform="scale(1 1) rotate(0) translate(4 192)">
<title>SyncObjectv1</title>
<!-- Node1 -->
<g id="node1" class="node"><title>Node1</title>
<polygon fill="#bfbfbf" stroke="black" points="-0.5,-0.5 -0.5,-19.5 76.5,-19.5 76.5,-0.5 -0.5,-0.5"/>
<text text-anchor="middle" x="38" y="-7.5" font-family="FreeSans" font-size="10.00">SyncObjectv1</text>
</g>
<!-- Node2 -->
<g id="node2" class="node"><title>Node2</title>
<g id="a_node2"><a xlink:href="../../de/dbb/classSyncObject.html" target="_top" xlink:title="SyncObject">
<polygon fill="none" stroke="black" points="4.5,-56.5 4.5,-75.5 71.5,-75.5 71.5,-56.5 4.5,-56.5"/>
<text text-anchor="middle" x="38" y="-63.5" font-family="FreeSans" font-size="10.00">SyncObject</text>
</a>
</g>
</g>
<!-- Node2&#45;&gt;Node1 -->
<g id="edge1" class="edge"><title>Node2&#45;&gt;Node1</title>
<path fill="none" stroke="midnightblue" d="M38,-45.8045C38,-36.9102 38,-26.7798 38,-19.7511"/>
<polygon fill="midnightblue" stroke="midnightblue" points="34.5001,-46.083 38,-56.083 41.5001,-46.083 34.5001,-46.083"/>
</g>
<!-- Node3 -->
<g id="node3" class="node"><title>Node3</title>
<g id="a_node3"><a xlink:href="../../d9/d24/classPHObject.html" target="_top" xlink:title="PHObject">
<polygon fill="none" stroke="black" points="8.5,-112.5 8.5,-131.5 67.5,-131.5 67.5,-112.5 8.5,-112.5"/>
<text text-anchor="middle" x="38" y="-119.5" font-family="FreeSans" font-size="10.00">PHObject</text>
</a>
</g>
</g>
<!-- Node3&#45;&gt;Node2 -->
<g id="edge2" class="edge"><title>Node3&#45;&gt;Node2</title>
<path fill="none" stroke="midnightblue" d="M31.5276,-102.101C30.8956,-93.1357 31.3427,-82.8579 32.869,-75.7511"/>
<polygon fill="midnightblue" stroke="midnightblue" points="28.0658,-102.622 32.8337,-112.083 35.0067,-101.713 28.0658,-102.622"/>
</g>
<!-- Node3&#45;&gt;Node2 -->
<g id="edge4" class="edge"><title>Node3&#45;&gt;Node2</title>
<path fill="none" stroke="midnightblue" d="M44.4724,-102.101C45.1044,-93.1357 44.6573,-82.8579 43.131,-75.7511"/>
<polygon fill="midnightblue" stroke="midnightblue" points="40.9933,-101.713 43.1663,-112.083 47.9342,-102.622 40.9933,-101.713"/>
</g>
<!-- Node4 -->
<g id="node4" class="node"><title>Node4</title>
<polygon fill="none" stroke="#bfbfbf" points="12.5,-168.5 12.5,-187.5 63.5,-187.5 63.5,-168.5 12.5,-168.5"/>
<text text-anchor="middle" x="38" y="-175.5" font-family="FreeSans" font-size="10.00">TObject</text>
</g>
<!-- Node4&#45;&gt;Node3 -->
<g id="edge3" class="edge"><title>Node4&#45;&gt;Node3</title>
<path fill="none" stroke="midnightblue" d="M38,-157.805C38,-148.91 38,-138.78 38,-131.751"/>
<polygon fill="midnightblue" stroke="midnightblue" points="34.5001,-158.083 38,-168.083 41.5001,-158.083 34.5001,-158.083"/>
</g>
</g>
</svg>
