<?xml version="1.0" encoding="UTF-8" standalone="no"?>
<!DOCTYPE svg PUBLIC "-//W3C//DTD SVG 1.1//EN"
 "http://www.w3.org/Graphics/SVG/1.1/DTD/svg11.dtd">
<!-- Generated by graphviz version 2.36.0 (20140111.2315)
 -->
<!-- Title: PHRandomSeed::InitSeed Pages: 1 -->
<svg width="438pt" height="104pt"
 viewBox="0.00 0.00 438.00 104.00" xmlns="http://www.w3.org/2000/svg" xmlns:xlink="http://www.w3.org/1999/xlink">
<g id="graph0" class="graph" transform="scale(1 1) rotate(0) translate(4 100)">
<title>PHRandomSeed::InitSeed</title>
<!-- Node1 -->
<g id="node1" class="node"><title>Node1</title>
<polygon fill="#bfbfbf" stroke="black" points="0,-38.5 0,-57.5 130,-57.5 130,-38.5 0,-38.5"/>
<text text-anchor="middle" x="65" y="-45.5" font-family="FreeSans" font-size="10.00">PHRandomSeed::InitSeed</text>
</g>
<!-- Node2 -->
<g id="node2" class="node"><title>Node2</title>
<g id="a_node2"><a xlink:href="../../d1/da8/classPHFlag.html#a4b73a422f0076568904d71f40e849da5" target="_top" xlink:title="PHFlag::FlagExist">
<polygon fill="none" stroke="black" points="173,-76.5 173,-95.5 267,-95.5 267,-76.5 173,-76.5"/>
<text text-anchor="middle" x="220" y="-83.5" font-family="FreeSans" font-size="10.00">PHFlag::FlagExist</text>
</a>
</g>
</g>
<!-- Node1&#45;&gt;Node2 -->
<g id="edge1" class="edge"><title>Node1&#45;&gt;Node2</title>
<path fill="none" stroke="midnightblue" d="M104.608,-57.589C124.707,-62.5809 149.475,-68.7324 170.819,-74.0334"/>
<polygon fill="midnightblue" stroke="midnightblue" points="170.12,-77.4662 180.669,-76.4799 171.808,-70.6726 170.12,-77.4662"/>
</g>
<!-- Node3 -->
<g id="node3" class="node"><title>Node3</title>
<g id="a_node3"><a xlink:href="../../d1/da8/classPHFlag.html#a07899067141a5f12333cc37183caddc8" target="_top" xlink:title="PHFlag::get_IntFlag">
<polygon fill="none" stroke="black" points="168.5,-38.5 168.5,-57.5 271.5,-57.5 271.5,-38.5 168.5,-38.5"/>
<text text-anchor="middle" x="220" y="-45.5" font-family="FreeSans" font-size="10.00">PHFlag::get_IntFlag</text>
</a>
</g>
</g>
<!-- Node1&#45;&gt;Node3 -->
<g id="edge2" class="edge"><title>Node1&#45;&gt;Node3</title>
<path fill="none" stroke="midnightblue" d="M130.442,-48C139.58,-48 148.953,-48 158.023,-48"/>
<polygon fill="midnightblue" stroke="midnightblue" points="158.105,-51.5001 168.105,-48 158.105,-44.5001 158.105,-51.5001"/>
</g>
<!-- Node4 -->
<g id="node4" class="node"><title>Node4</title>
<g id="a_node4"><a xlink:href="../../d8/d14/classrecoConsts.html#ae69a5c29a7199ba16d0e537158618802" target="_top" xlink:title="recoConsts::instance">
<polygon fill="none" stroke="black" points="166.5,-0.5 166.5,-19.5 273.5,-19.5 273.5,-0.5 166.5,-0.5"/>
<text text-anchor="middle" x="220" y="-7.5" font-family="FreeSans" font-size="10.00">recoConsts::instance</text>
</a>
</g>
</g>
<!-- Node1&#45;&gt;Node4 -->
<g id="edge3" class="edge"><title>Node1&#45;&gt;Node4</title>
<path fill="none" stroke="midnightblue" d="M104.608,-38.411C124.707,-33.4191 149.475,-27.2676 170.819,-21.9666"/>
<polygon fill="midnightblue" stroke="midnightblue" points="171.808,-25.3274 180.669,-19.5201 170.12,-18.5338 171.808,-25.3274"/>
</g>
<!-- Node5 -->
<g id="node5" class="node"><title>Node5</title>
<g id="a_node5"><a xlink:href="../../d8/d14/classrecoConsts.html#ae882d6adc62f783ec78114fe3dee3c24" target="_top" xlink:title="recoConsts::recoConsts">
<polygon fill="none" stroke="black" points="310,-0.5 310,-19.5 430,-19.5 430,-0.5 310,-0.5"/>
<text text-anchor="middle" x="370" y="-7.5" font-family="FreeSans" font-size="10.00">recoConsts::recoConsts</text>
</a>
</g>
</g>
<!-- Node4&#45;&gt;Node5 -->
<g id="edge4" class="edge"><title>Node4&#45;&gt;Node5</title>
<path fill="none" stroke="midnightblue" d="M273.596,-10C282.016,-10 290.841,-10 299.58,-10"/>
<polygon fill="midnightblue" stroke="midnightblue" points="299.77,-13.5001 309.77,-10 299.77,-6.5001 299.77,-13.5001"/>
</g>
</g>
</svg>
