<?xml version="1.0" encoding="UTF-8" standalone="no"?>
<!DOCTYPE svg PUBLIC "-//W3C//DTD SVG 1.1//EN"
 "http://www.w3.org/Graphics/SVG/1.1/DTD/svg11.dtd">
<!-- Generated by graphviz version 2.36.0 (20140111.2315)
 -->
<!-- Title: PHTFileServer::SafeTFile Pages: 1 -->
<svg width="246pt" height="176pt"
 viewBox="0.00 0.00 246.00 176.00" xmlns="http://www.w3.org/2000/svg" xmlns:xlink="http://www.w3.org/1999/xlink">
<g id="graph0" class="graph" transform="scale(1 1) rotate(0) translate(4 172)">
<title>PHTFileServer::SafeTFile</title>
<!-- Node1 -->
<g id="node1" class="node"><title>Node1</title>
<polygon fill="#bfbfbf" stroke="black" points="36,-0.5 36,-19.5 164,-19.5 164,-0.5 36,-0.5"/>
<text text-anchor="middle" x="100" y="-7.5" font-family="FreeSans" font-size="10.00">PHTFileServer::SafeTFile</text>
</g>
<!-- Node2 -->
<g id="node2" class="node"><title>Node2</title>
<polygon fill="none" stroke="#bfbfbf" points="0,-68.5 0,-87.5 38,-87.5 38,-68.5 0,-68.5"/>
<text text-anchor="middle" x="19" y="-75.5" font-family="FreeSans" font-size="10.00">TFile</text>
</g>
<!-- Node2&#45;&gt;Node1 -->
<g id="edge1" class="edge"><title>Node2&#45;&gt;Node1</title>
<path fill="none" stroke="midnightblue" d="M37.7352,-61.7343C53.7802,-48.6606 76.3088,-30.3039 89.4081,-19.6305"/>
<polygon fill="midnightblue" stroke="midnightblue" points="35.1308,-59.3416 29.5893,-68.3717 39.5526,-64.7682 35.1308,-59.3416"/>
</g>
<!-- Node3 -->
<g id="node3" class="node"><title>Node3</title>
<g id="a_node3"><a xlink:title="STL class. ">
<polygon fill="none" stroke="#bfbfbf" points="56,-68.5 56,-87.5 144,-87.5 144,-68.5 56,-68.5"/>
<text text-anchor="middle" x="100" y="-75.5" font-family="FreeSans" font-size="10.00">std::map&lt; K, T &gt;</text>
</a>
</g>
</g>
<!-- Node3&#45;&gt;Node1 -->
<g id="edge2" class="edge"><title>Node3&#45;&gt;Node1</title>
<path fill="none" stroke="#9a32cd" stroke-dasharray="5,2" d="M100,-58.0413C100,-45.4724 100,-29.5631 100,-19.8411"/>
<polygon fill="#9a32cd" stroke="#9a32cd" points="96.5001,-58.3716 100,-68.3717 103.5,-58.3717 96.5001,-58.3716"/>
<text text-anchor="middle" x="113.5" y="-41.5" font-family="FreeSans" font-size="10.00"> _map</text>
</g>
<!-- Node4 -->
<g id="node4" class="node"><title>Node4</title>
<polygon fill="none" stroke="#bfbfbf" points="45.5,-142.5 45.5,-161.5 74.5,-161.5 74.5,-142.5 45.5,-142.5"/>
<text text-anchor="middle" x="60" y="-149.5" font-family="FreeSans" font-size="10.00">K</text>
</g>
<!-- Node4&#45;&gt;Node3 -->
<g id="edge3" class="edge"><title>Node4&#45;&gt;Node3</title>
<path fill="none" stroke="#9a32cd" stroke-dasharray="5,2" d="M64.7753,-132.622C67.4036,-124.176 71.1324,-114.23 76,-106 79.9591,-99.3064 85.7137,-92.7625 90.5955,-87.7937"/>
<polygon fill="#9a32cd" stroke="#9a32cd" points="61.3985,-131.701 62.0318,-142.277 68.132,-133.614 61.3985,-131.701"/>
<text text-anchor="middle" x="87.5" y="-109.5" font-family="FreeSans" font-size="10.00"> keys</text>
</g>
<!-- Node5 -->
<g id="node5" class="node"><title>Node5</title>
<polygon fill="none" stroke="#bfbfbf" points="92.5,-142.5 92.5,-161.5 121.5,-161.5 121.5,-142.5 92.5,-142.5"/>
<text text-anchor="middle" x="107" y="-149.5" font-family="FreeSans" font-size="10.00">T</text>
</g>
<!-- Node5&#45;&gt;Node3 -->
<g id="edge4" class="edge"><title>Node5&#45;&gt;Node3</title>
<path fill="none" stroke="#9a32cd" stroke-dasharray="5,2" d="M105.168,-132.156C103.764,-117.712 101.892,-98.4594 100.829,-87.531"/>
<polygon fill="#9a32cd" stroke="#9a32cd" points="101.718,-132.844 106.17,-142.458 108.685,-132.166 101.718,-132.844"/>
<text text-anchor="middle" x="125.5" y="-109.5" font-family="FreeSans" font-size="10.00"> elements</text>
</g>
<!-- Node6 -->
<g id="node6" class="node"><title>Node6</title>
<g id="a_node6"><a xlink:title="STL class. ">
<polygon fill="none" stroke="#bfbfbf" points="162.5,-68.5 162.5,-87.5 221.5,-87.5 221.5,-68.5 162.5,-68.5"/>
<text text-anchor="middle" x="192" y="-75.5" font-family="FreeSans" font-size="10.00">std::string</text>
</a>
</g>
</g>
<!-- Node6&#45;&gt;Node1 -->
<g id="edge5" class="edge"><title>Node6&#45;&gt;Node1</title>
<path fill="none" stroke="#9a32cd" stroke-dasharray="5,2" d="M171.725,-62.4551C153.448,-49.3431 127.184,-30.5016 112.03,-19.6305"/>
<polygon fill="#9a32cd" stroke="#9a32cd" points="169.807,-65.3864 179.973,-68.3717 173.887,-59.6986 169.807,-65.3864"/>
<text text-anchor="middle" x="177" y="-41.5" font-family="FreeSans" font-size="10.00"> _filename</text>
</g>
<!-- Node7 -->
<g id="node7" class="node"><title>Node7</title>
<g id="a_node7"><a xlink:title="STL class. ">
<polygon fill="none" stroke="#bfbfbf" points="145.5,-137 145.5,-167 238.5,-167 238.5,-137 145.5,-137"/>
<text text-anchor="start" x="153.5" y="-155" font-family="FreeSans" font-size="10.00">std::basic_string&lt;</text>
<text text-anchor="middle" x="192" y="-144" font-family="FreeSans" font-size="10.00"> char &gt;</text>
</a>
</g>
</g>
<!-- Node7&#45;&gt;Node6 -->
<g id="edge6" class="edge"><title>Node7&#45;&gt;Node6</title>
<path fill="none" stroke="midnightblue" d="M192,-126.688C192,-113.253 192,-97.3805 192,-87.7589"/>
<polygon fill="midnightblue" stroke="midnightblue" points="188.5,-126.775 192,-136.775 195.5,-126.775 188.5,-126.775"/>
</g>
</g>
</svg>
