<?xml version="1.0" encoding="UTF-8" standalone="no"?>
<!DOCTYPE svg PUBLIC "-//W3C//DTD SVG 1.1//EN"
 "http://www.w3.org/Graphics/SVG/1.1/DTD/svg11.dtd">
<!-- Generated by graphviz version 2.36.0 (20140111.2315)
 -->
<!-- Title: fun4all/fun4all/Fun4AllBase.h Pages: 1 -->
<svg width="2632pt" height="300pt"
 viewBox="0.00 0.00 2632.00 300.00" xmlns="http://www.w3.org/2000/svg" xmlns:xlink="http://www.w3.org/1999/xlink">
<g id="graph0" class="graph" transform="scale(1 1) rotate(0) translate(4 296)">
<title>fun4all/fun4all/Fun4AllBase.h</title>
<!-- Node1 -->
<g id="node1" class="node"><title>Node1</title>
<polygon fill="#bfbfbf" stroke="black" points="821.5,-272.5 821.5,-291.5 964.5,-291.5 964.5,-272.5 821.5,-272.5"/>
<text text-anchor="middle" x="893" y="-279.5" font-family="FreeSans" font-size="10.00">fun4all/fun4all/Fun4AllBase.h</text>
</g>
<!-- Node2 -->
<g id="node2" class="node"><title>Node2</title>
<g id="a_node2"><a xlink:href="../../dc/d77/Fun4AllBase_8cc.html" target="_top" xlink:title="fun4all/fun4all/Fun4AllBase.cc">
<polygon fill="none" stroke="black" points="476,-210.5 476,-229.5 624,-229.5 624,-210.5 476,-210.5"/>
<text text-anchor="middle" x="550" y="-217.5" font-family="FreeSans" font-size="10.00">fun4all/fun4all/Fun4AllBase.cc</text>
</a>
</g>
</g>
<!-- Node1&#45;&gt;Node2 -->
<g id="edge1" class="edge"><title>Node1&#45;&gt;Node2</title>
<path fill="none" stroke="midnightblue" d="M834.312,-270.734C767.809,-259.101 660.63,-240.352 598.611,-229.503"/>
<polygon fill="midnightblue" stroke="midnightblue" points="833.767,-274.192 844.221,-272.467 834.973,-267.296 833.767,-274.192"/>
</g>
<!-- Node3 -->
<g id="node3" class="node"><title>Node3</title>
<g id="a_node3"><a xlink:href="../../dc/da2/Fun4AllServer_8h.html" target="_top" xlink:title="fun4all/fun4all/Fun4AllServer.h">
<polygon fill="none" stroke="black" points="770.5,-142.5 770.5,-161.5 919.5,-161.5 919.5,-142.5 770.5,-142.5"/>
<text text-anchor="middle" x="845" y="-149.5" font-family="FreeSans" font-size="10.00">fun4all/fun4all/Fun4AllServer.h</text>
</a>
</g>
</g>
<!-- Node1&#45;&gt;Node3 -->
<g id="edge2" class="edge"><title>Node1&#45;&gt;Node3</title>
<path fill="none" stroke="midnightblue" d="M880.045,-264.005C874.401,-255.896 868.143,-245.832 864,-236 853.095,-210.117 847.911,-176.934 845.963,-161.545"/>
<polygon fill="midnightblue" stroke="midnightblue" points="877.301,-266.183 886.011,-272.215 882.964,-262.068 877.301,-266.183"/>
</g>
<!-- Node14 -->
<g id="node14" class="node"><title>Node14</title>
<g id="a_node14"><a xlink:href="../../d0/d59/Fun4AllHistoManager_8h.html" target="_top" xlink:title="fun4all/fun4all/Fun4AllHisto\lManager.h">
<polygon fill="none" stroke="black" points="873,-205 873,-235 1009,-235 1009,-205 873,-205"/>
<text text-anchor="start" x="881" y="-223" font-family="FreeSans" font-size="10.00">fun4all/fun4all/Fun4AllHisto</text>
<text text-anchor="middle" x="941" y="-212" font-family="FreeSans" font-size="10.00">Manager.h</text>
</a>
</g>
</g>
<!-- Node1&#45;&gt;Node14 -->
<g id="edge13" class="edge"><title>Node1&#45;&gt;Node14</title>
<path fill="none" stroke="midnightblue" d="M906.287,-264.391C913.638,-255.202 922.676,-243.905 929.687,-235.141"/>
<polygon fill="midnightblue" stroke="midnightblue" points="903.391,-262.408 899.877,-272.403 908.857,-266.781 903.391,-262.408"/>
</g>
<!-- Node16 -->
<g id="node16" class="node"><title>Node16</title>
<g id="a_node16"><a xlink:href="../../d1/de7/Fun4AllInputManager_8h.html" target="_top" xlink:title="fun4all/fun4all/Fun4AllInput\lManager.h">
<polygon fill="none" stroke="black" points="680,-205 680,-235 814,-235 814,-205 680,-205"/>
<text text-anchor="start" x="688" y="-223" font-family="FreeSans" font-size="10.00">fun4all/fun4all/Fun4AllInput</text>
<text text-anchor="middle" x="747" y="-212" font-family="FreeSans" font-size="10.00">Manager.h</text>
</a>
</g>
</g>
<!-- Node1&#45;&gt;Node16 -->
<g id="edge16" class="edge"><title>Node1&#45;&gt;Node16</title>
<path fill="none" stroke="midnightblue" d="M862.832,-268.602C839.049,-258.828 805.88,-245.197 781.128,-235.025"/>
<polygon fill="midnightblue" stroke="midnightblue" points="861.502,-271.84 872.082,-272.403 864.163,-265.365 861.502,-271.84"/>
</g>
<!-- Node23 -->
<g id="node23" class="node"><title>Node23</title>
<g id="a_node23"><a xlink:href="../../d9/ddf/Fun4AllSyncManager_8h.html" target="_top" xlink:title="fun4all/fun4all/Fun4AllSync\lManager.h">
<polygon fill="none" stroke="black" points="431,-137 431,-167 565,-167 565,-137 431,-137"/>
<text text-anchor="start" x="439" y="-155" font-family="FreeSans" font-size="10.00">fun4all/fun4all/Fun4AllSync</text>
<text text-anchor="middle" x="498" y="-144" font-family="FreeSans" font-size="10.00">Manager.h</text>
</a>
</g>
</g>
<!-- Node1&#45;&gt;Node23 -->
<g id="edge28" class="edge"><title>Node1&#45;&gt;Node23</title>
<path fill="none" stroke="midnightblue" d="M811.423,-274.307C768.041,-268.36 714.776,-257.143 671,-236 651.118,-226.397 652.044,-215.172 633,-204 606.096,-188.216 573.43,-175.723 546.971,-167.052"/>
<polygon fill="midnightblue" stroke="midnightblue" points="811.003,-277.782 821.371,-275.603 811.907,-270.84 811.003,-277.782"/>
</g>
<!-- Node24 -->
<g id="node24" class="node"><title>Node24</title>
<g id="a_node24"><a xlink:href="../../de/df8/Fun4AllOutputManager_8h.html" target="_top" xlink:title="fun4all/fun4all/Fun4AllOutput\lManager.h">
<polygon fill="none" stroke="black" points="1313,-137 1313,-167 1455,-167 1455,-137 1313,-137"/>
<text text-anchor="start" x="1321" y="-155" font-family="FreeSans" font-size="10.00">fun4all/fun4all/Fun4AllOutput</text>
<text text-anchor="middle" x="1384" y="-144" font-family="FreeSans" font-size="10.00">Manager.h</text>
</a>
</g>
</g>
<!-- Node1&#45;&gt;Node24 -->
<g id="edge34" class="edge"><title>Node1&#45;&gt;Node24</title>
<path fill="none" stroke="midnightblue" d="M935.777,-269.848C1025.15,-246.55 1231.51,-192.752 1329.91,-167.1"/>
<polygon fill="midnightblue" stroke="midnightblue" points="934.772,-266.493 925.978,-272.403 936.538,-273.267 934.772,-266.493"/>
</g>
<!-- Node29 -->
<g id="node29" class="node"><title>Node29</title>
<g id="a_node29"><a xlink:href="../../d4/d07/Fun4AllEventOutStream_8h.html" target="_top" xlink:title="fun4all/fun4all/Fun4AllEvent\lOutStream.h">
<polygon fill="none" stroke="black" points="1621.5,-205 1621.5,-235 1758.5,-235 1758.5,-205 1621.5,-205"/>
<text text-anchor="start" x="1629.5" y="-223" font-family="FreeSans" font-size="10.00">fun4all/fun4all/Fun4AllEvent</text>
<text text-anchor="middle" x="1690" y="-212" font-family="FreeSans" font-size="10.00">OutStream.h</text>
</a>
</g>
</g>
<!-- Node1&#45;&gt;Node29 -->
<g id="edge44" class="edge"><title>Node1&#45;&gt;Node29</title>
<path fill="none" stroke="midnightblue" d="M974.885,-274.836C1132.4,-262.978 1474.92,-237.191 1621.36,-226.167"/>
<polygon fill="midnightblue" stroke="midnightblue" points="974.491,-271.355 964.782,-275.596 975.016,-278.335 974.491,-271.355"/>
</g>
<!-- Node33 -->
<g id="node33" class="node"><title>Node33</title>
<g id="a_node33"><a xlink:href="../../d5/dc2/SubsysReco_8h.html" target="_top" xlink:title="fun4all/fun4all/SubsysReco.h">
<polygon fill="none" stroke="black" points="2156,-142.5 2156,-161.5 2298,-161.5 2298,-142.5 2156,-142.5"/>
<text text-anchor="middle" x="2227" y="-149.5" font-family="FreeSans" font-size="10.00">fun4all/fun4all/SubsysReco.h</text>
</a>
</g>
</g>
<!-- Node1&#45;&gt;Node33 -->
<g id="edge52" class="edge"><title>Node1&#45;&gt;Node33</title>
<path fill="none" stroke="midnightblue" d="M975.017,-280.247C1130.17,-278.054 1477.08,-269.483 1767,-236 1925.01,-217.752 2110.71,-178.793 2189.08,-161.534"/>
<polygon fill="midnightblue" stroke="midnightblue" points="974.58,-276.752 964.629,-280.388 974.676,-283.752 974.58,-276.752"/>
</g>
<!-- Node4 -->
<g id="node4" class="node"><title>Node4</title>
<g id="a_node4"><a xlink:href="../../d3/d53/Fun4AllDstInputManager_8cc.html" target="_top" xlink:title="fun4all/fun4all/Fun4AllDst\lInputManager.cc">
<polygon fill="none" stroke="black" points="308,-69 308,-99 436,-99 436,-69 308,-69"/>
<text text-anchor="start" x="316" y="-87" font-family="FreeSans" font-size="10.00">fun4all/fun4all/Fun4AllDst</text>
<text text-anchor="middle" x="372" y="-76" font-family="FreeSans" font-size="10.00">InputManager.cc</text>
</a>
</g>
</g>
<!-- Node3&#45;&gt;Node4 -->
<g id="edge3" class="edge"><title>Node3&#45;&gt;Node4</title>
<path fill="none" stroke="midnightblue" d="M765.677,-141.215C658.115,-127.895 475.816,-105.123 445,-100 442.064,-99.512 439.067,-98.9906 436.043,-98.4457"/>
<polygon fill="midnightblue" stroke="midnightblue" points="765.491,-144.718 775.846,-142.473 766.351,-137.771 765.491,-144.718"/>
</g>
<!-- Node5 -->
<g id="node5" class="node"><title>Node5</title>
<g id="a_node5"><a xlink:href="../../d9/d74/Fun4AllDstOutputManager_8cc.html" target="_top" xlink:title="fun4all/fun4all/Fun4AllDst\lOutputManager.cc">
<polygon fill="none" stroke="black" points="1098,-1 1098,-31 1226,-31 1226,-1 1098,-1"/>
<text text-anchor="start" x="1106" y="-19" font-family="FreeSans" font-size="10.00">fun4all/fun4all/Fun4AllDst</text>
<text text-anchor="middle" x="1162" y="-8" font-family="FreeSans" font-size="10.00">OutputManager.cc</text>
</a>
</g>
</g>
<!-- Node3&#45;&gt;Node5 -->
<g id="edge4" class="edge"><title>Node3&#45;&gt;Node5</title>
<path fill="none" stroke="midnightblue" d="M823.754,-136.497C801.047,-119.261 770.755,-90.0629 790,-68 829.154,-23.1118 1001.98,-16.3221 1097.68,-16.1117"/>
<polygon fill="midnightblue" stroke="midnightblue" points="821.822,-139.419 831.966,-142.477 825.942,-133.761 821.822,-139.419"/>
</g>
<!-- Node6 -->
<g id="node6" class="node"><title>Node6</title>
<g id="a_node6"><a xlink:href="../../d6/dbe/Fun4AllEventOutputManager_8cc.html" target="_top" xlink:title="fun4all/fun4all/Fun4AllEvent\lOutputManager.cc">
<polygon fill="none" stroke="black" points="1956.5,-1 1956.5,-31 2093.5,-31 2093.5,-1 1956.5,-1"/>
<text text-anchor="start" x="1964.5" y="-19" font-family="FreeSans" font-size="10.00">fun4all/fun4all/Fun4AllEvent</text>
<text text-anchor="middle" x="2025" y="-8" font-family="FreeSans" font-size="10.00">OutputManager.cc</text>
</a>
</g>
</g>
<!-- Node3&#45;&gt;Node6 -->
<g id="edge5" class="edge"><title>Node3&#45;&gt;Node6</title>
<path fill="none" stroke="midnightblue" d="M842.599,-132.25C841.297,-112.938 842.808,-83.5337 861,-68 906.907,-28.8001 1887.01,-38.7207 1947,-32 1950.01,-31.6622 1953.09,-31.2718 1956.19,-30.8401"/>
<polygon fill="midnightblue" stroke="midnightblue" points="839.122,-132.664 843.586,-142.273 846.089,-131.978 839.122,-132.664"/>
</g>
<!-- Node7 -->
<g id="node7" class="node"><title>Node7</title>
<g id="a_node7"><a xlink:href="../../d2/d3e/Fun4AllFileOutStream_8cc.html" target="_top" xlink:title="fun4all/fun4all/Fun4AllFile\lOutStream.cc">
<polygon fill="none" stroke="black" points="1202,-69 1202,-99 1330,-99 1330,-69 1202,-69"/>
<text text-anchor="start" x="1210" y="-87" font-family="FreeSans" font-size="10.00">fun4all/fun4all/Fun4AllFile</text>
<text text-anchor="middle" x="1266" y="-76" font-family="FreeSans" font-size="10.00">OutStream.cc</text>
</a>
</g>
</g>
<!-- Node3&#45;&gt;Node7 -->
<g id="edge6" class="edge"><title>Node3&#45;&gt;Node7</title>
<path fill="none" stroke="midnightblue" d="M921.068,-141.126C991.704,-131.656 1099.71,-116.406 1193,-100 1195.93,-99.4846 1198.92,-98.9407 1201.95,-98.3776"/>
<polygon fill="midnightblue" stroke="midnightblue" points="920.372,-137.688 910.924,-142.481 921.299,-144.626 920.372,-137.688"/>
</g>
<!-- Node8 -->
<g id="node8" class="node"><title>Node8</title>
<g id="a_node8"><a xlink:href="../../d0/d56/Fun4AllInputManager_8cc.html" target="_top" xlink:title="fun4all/fun4all/Fun4AllInput\lManager.cc">
<polygon fill="none" stroke="black" points="1348,-69 1348,-99 1482,-99 1482,-69 1348,-69"/>
<text text-anchor="start" x="1356" y="-87" font-family="FreeSans" font-size="10.00">fun4all/fun4all/Fun4AllInput</text>
<text text-anchor="middle" x="1415" y="-76" font-family="FreeSans" font-size="10.00">Manager.cc</text>
</a>
</g>
</g>
<!-- Node3&#45;&gt;Node8 -->
<g id="edge7" class="edge"><title>Node3&#45;&gt;Node8</title>
<path fill="none" stroke="midnightblue" d="M924.347,-141.297C939.813,-139.478 955.909,-137.636 971,-136 1134.38,-118.286 1176.42,-123.939 1339,-100 1341.93,-99.569 1344.91,-99.1013 1347.92,-98.6064"/>
<polygon fill="midnightblue" stroke="midnightblue" points="923.811,-137.836 914.291,-142.486 924.633,-144.788 923.811,-137.836"/>
</g>
<!-- Node9 -->
<g id="node9" class="node"><title>Node9</title>
<g id="a_node9"><a xlink:href="../../db/dfa/Fun4AllOutputManager_8cc.html" target="_top" xlink:title="fun4all/fun4all/Fun4AllOutput\lManager.cc">
<polygon fill="none" stroke="black" points="1042,-69 1042,-99 1184,-99 1184,-69 1042,-69"/>
<text text-anchor="start" x="1050" y="-87" font-family="FreeSans" font-size="10.00">fun4all/fun4all/Fun4AllOutput</text>
<text text-anchor="middle" x="1113" y="-76" font-family="FreeSans" font-size="10.00">Manager.cc</text>
</a>
</g>
</g>
<!-- Node3&#45;&gt;Node9 -->
<g id="edge8" class="edge"><title>Node3&#45;&gt;Node9</title>
<path fill="none" stroke="midnightblue" d="M889.664,-140.001C935.317,-128.758 1006.38,-111.257 1056.05,-99.0247"/>
<polygon fill="midnightblue" stroke="midnightblue" points="888.635,-136.65 879.762,-142.439 890.308,-143.446 888.635,-136.65"/>
</g>
<!-- Node10 -->
<g id="node10" class="node"><title>Node10</title>
<g id="a_node10"><a xlink:href="../../da/d7b/Fun4AllPrdfInputManager_8cc.html" target="_top" xlink:title="fun4all/fun4all/Fun4AllPrdf\lInputManager.cc">
<polygon fill="none" stroke="black" points="454.5,-69 454.5,-99 585.5,-99 585.5,-69 454.5,-69"/>
<text text-anchor="start" x="462.5" y="-87" font-family="FreeSans" font-size="10.00">fun4all/fun4all/Fun4AllPrdf</text>
<text text-anchor="middle" x="520" y="-76" font-family="FreeSans" font-size="10.00">InputManager.cc</text>
</a>
</g>
</g>
<!-- Node3&#45;&gt;Node10 -->
<g id="edge9" class="edge"><title>Node3&#45;&gt;Node10</title>
<path fill="none" stroke="midnightblue" d="M792.736,-140.386C736.436,-128.953 646.734,-110.737 585.701,-98.3423"/>
<polygon fill="midnightblue" stroke="midnightblue" points="792.349,-143.879 802.845,-142.439 793.742,-137.019 792.349,-143.879"/>
</g>
<!-- Node11 -->
<g id="node11" class="node"><title>Node11</title>
<g id="a_node11"><a xlink:href="../../db/d70/Fun4AllRolloverFileOutStream_8cc.html" target="_top" xlink:title="fun4all/fun4all/Fun4AllRollover\lFileOutStream.cc">
<polygon fill="none" stroke="black" points="1790,-1 1790,-31 1938,-31 1938,-1 1790,-1"/>
<text text-anchor="start" x="1798" y="-19" font-family="FreeSans" font-size="10.00">fun4all/fun4all/Fun4AllRollover</text>
<text text-anchor="middle" x="1864" y="-8" font-family="FreeSans" font-size="10.00">FileOutStream.cc</text>
</a>
</g>
</g>
<!-- Node3&#45;&gt;Node11 -->
<g id="edge10" class="edge"><title>Node3&#45;&gt;Node11</title>
<path fill="none" stroke="midnightblue" d="M833.741,-133.689C823.124,-114.981 811.145,-85.504 828,-68 864.711,-29.8746 1727.38,-37.6657 1780,-32 1783.24,-31.6511 1786.54,-31.2514 1789.88,-30.8122"/>
<polygon fill="midnightblue" stroke="midnightblue" points="830.829,-135.637 839.009,-142.37 836.813,-132.005 830.829,-135.637"/>
</g>
<!-- Node12 -->
<g id="node12" class="node"><title>Node12</title>
<g id="a_node12"><a xlink:href="../../d8/d7a/Fun4AllServer_8cc.html" target="_top" xlink:title="fun4all/fun4all/Fun4AllServer.cc">
<polygon fill="none" stroke="black" points="870,-74.5 870,-93.5 1024,-93.5 1024,-74.5 870,-74.5"/>
<text text-anchor="middle" x="947" y="-81.5" font-family="FreeSans" font-size="10.00">fun4all/fun4all/Fun4AllServer.cc</text>
</a>
</g>
</g>
<!-- Node3&#45;&gt;Node12 -->
<g id="edge11" class="edge"><title>Node3&#45;&gt;Node12</title>
<path fill="none" stroke="midnightblue" d="M866.928,-136.811C887.212,-123.686 916.708,-104.6 933.662,-93.6305"/>
<polygon fill="midnightblue" stroke="midnightblue" points="864.829,-134.001 858.335,-142.372 868.632,-139.878 864.829,-134.001"/>
</g>
<!-- Node13 -->
<g id="node13" class="node"><title>Node13</title>
<g id="a_node13"><a xlink:href="../../df/d03/Fun4AllSyncManager_8cc.html" target="_top" xlink:title="fun4all/fun4all/Fun4AllSync\lManager.cc">
<polygon fill="none" stroke="black" points="604,-69 604,-99 738,-99 738,-69 604,-69"/>
<text text-anchor="start" x="612" y="-87" font-family="FreeSans" font-size="10.00">fun4all/fun4all/Fun4AllSync</text>
<text text-anchor="middle" x="671" y="-76" font-family="FreeSans" font-size="10.00">Manager.cc</text>
</a>
</g>
</g>
<!-- Node3&#45;&gt;Node13 -->
<g id="edge12" class="edge"><title>Node3&#45;&gt;Node13</title>
<path fill="none" stroke="midnightblue" d="M812.784,-138.78C783.129,-127.532 739.156,-110.852 708.057,-99.0562"/>
<polygon fill="midnightblue" stroke="midnightblue" points="811.661,-142.098 822.253,-142.372 814.144,-135.553 811.661,-142.098"/>
</g>
<!-- Node14&#45;&gt;Node3 -->
<g id="edge14" class="edge"><title>Node14&#45;&gt;Node3</title>
<path fill="none" stroke="midnightblue" d="M911.67,-198.835C893.553,-186.38 871.232,-171.035 857.564,-161.638"/>
<polygon fill="midnightblue" stroke="midnightblue" points="909.946,-201.898 920.169,-204.679 913.912,-196.13 909.946,-201.898"/>
</g>
<!-- Node15 -->
<g id="node15" class="node"><title>Node15</title>
<g id="a_node15"><a xlink:href="../../df/d24/Fun4AllHistoManager_8cc.html" target="_top" xlink:title="fun4all/fun4all/Fun4AllHisto\lManager.cc">
<polygon fill="none" stroke="black" points="1013,-137 1013,-167 1149,-167 1149,-137 1013,-137"/>
<text text-anchor="start" x="1021" y="-155" font-family="FreeSans" font-size="10.00">fun4all/fun4all/Fun4AllHisto</text>
<text text-anchor="middle" x="1081" y="-144" font-family="FreeSans" font-size="10.00">Manager.cc</text>
</a>
</g>
</g>
<!-- Node14&#45;&gt;Node15 -->
<g id="edge15" class="edge"><title>Node14&#45;&gt;Node15</title>
<path fill="none" stroke="midnightblue" d="M980.284,-200.48C1002.7,-189.913 1030.36,-176.874 1051.02,-167.135"/>
<polygon fill="midnightblue" stroke="midnightblue" points="978.586,-197.411 971.034,-204.841 981.571,-203.743 978.586,-197.411"/>
</g>
<!-- Node16&#45;&gt;Node8 -->
<g id="edge23" class="edge"><title>Node16&#45;&gt;Node8</title>
<path fill="none" stroke="midnightblue" d="M824.506,-205.029C863.074,-196.708 909.901,-184.509 950,-168 975.797,-157.38 977.528,-144.802 1004,-136 1146.1,-88.7523 1190.96,-122.52 1339,-100 1341.93,-99.555 1344.91,-99.0758 1347.92,-98.5714"/>
<polygon fill="midnightblue" stroke="midnightblue" points="823.437,-201.678 814.375,-207.167 824.882,-208.527 823.437,-201.678"/>
</g>
<!-- Node16&#45;&gt;Node12 -->
<g id="edge26" class="edge"><title>Node16&#45;&gt;Node12</title>
<path fill="none" stroke="midnightblue" d="M823.959,-205.437C866.345,-196.445 913.28,-183.469 928,-168 947.769,-147.225 948.487,-110.272 947.675,-93.5913"/>
<polygon fill="midnightblue" stroke="midnightblue" points="823.239,-202.012 814.155,-207.465 824.657,-208.867 823.239,-202.012"/>
</g>
<!-- Node16&#45;&gt;Node13 -->
<g id="edge27" class="edge"><title>Node16&#45;&gt;Node13</title>
<path fill="none" stroke="midnightblue" d="M743.43,-195.018C740.076,-177.696 733.89,-154.238 723,-136 714.378,-121.56 700.679,-108.359 689.506,-99.0065"/>
<polygon fill="midnightblue" stroke="midnightblue" points="739.99,-195.666 745.169,-204.909 746.884,-194.454 739.99,-195.666"/>
</g>
<!-- Node17 -->
<g id="node17" class="node"><title>Node17</title>
<g id="a_node17"><a xlink:href="../../dd/de7/Fun4AllDstInputManager_8h.html" target="_top" xlink:title="fun4all/fun4all/Fun4AllDst\lInputManager.h">
<polygon fill="none" stroke="black" points="285,-137 285,-167 413,-167 413,-137 285,-137"/>
<text text-anchor="start" x="293" y="-155" font-family="FreeSans" font-size="10.00">fun4all/fun4all/Fun4AllDst</text>
<text text-anchor="middle" x="349" y="-144" font-family="FreeSans" font-size="10.00">InputManager.h</text>
</a>
</g>
</g>
<!-- Node16&#45;&gt;Node17 -->
<g id="edge17" class="edge"><title>Node16&#45;&gt;Node17</title>
<path fill="none" stroke="midnightblue" d="M670.03,-207.963C604.068,-198.256 506.594,-183.32 422,-168 419.072,-167.47 416.081,-166.914 413.061,-166.341"/>
<polygon fill="midnightblue" stroke="midnightblue" points="669.531,-211.427 679.933,-209.416 670.547,-204.501 669.531,-211.427"/>
</g>
<!-- Node20 -->
<g id="node20" class="node"><title>Node20</title>
<g id="a_node20"><a xlink:href="../../d8/d8f/Fun4AllDummyInputManager_8h.html" target="_top" xlink:title="fun4all/fun4all/Fun4AllDummy\lInputManager.h">
<polygon fill="none" stroke="black" points="60,-137 60,-167 206,-167 206,-137 60,-137"/>
<text text-anchor="start" x="68" y="-155" font-family="FreeSans" font-size="10.00">fun4all/fun4all/Fun4AllDummy</text>
<text text-anchor="middle" x="133" y="-144" font-family="FreeSans" font-size="10.00">InputManager.h</text>
</a>
</g>
</g>
<!-- Node16&#45;&gt;Node20 -->
<g id="edge21" class="edge"><title>Node16&#45;&gt;Node20</title>
<path fill="none" stroke="midnightblue" d="M669.629,-208.498C657.382,-206.928 644.851,-205.377 633,-204 474.594,-185.596 434.634,-184.318 276,-168 253.279,-165.663 228.532,-163.08 206.109,-160.726"/>
<polygon fill="midnightblue" stroke="midnightblue" points="669.463,-212.006 679.829,-209.817 670.361,-205.063 669.463,-212.006"/>
</g>
<!-- Node22 -->
<g id="node22" class="node"><title>Node22</title>
<g id="a_node22"><a xlink:href="../../da/d64/Fun4AllPrdfInputManager_8h.html" target="_top" xlink:title="fun4all/fun4all/Fun4AllPrdf\lInputManager.h">
<polygon fill="none" stroke="black" points="583.5,-137 583.5,-167 714.5,-167 714.5,-137 583.5,-137"/>
<text text-anchor="start" x="591.5" y="-155" font-family="FreeSans" font-size="10.00">fun4all/fun4all/Fun4AllPrdf</text>
<text text-anchor="middle" x="649" y="-144" font-family="FreeSans" font-size="10.00">InputManager.h</text>
</a>
</g>
</g>
<!-- Node16&#45;&gt;Node22 -->
<g id="edge24" class="edge"><title>Node16&#45;&gt;Node22</title>
<path fill="none" stroke="midnightblue" d="M717.137,-198.888C701.861,-188.6 683.641,-176.329 669.886,-167.066"/>
<polygon fill="midnightblue" stroke="midnightblue" points="715.486,-201.996 725.735,-204.679 719.396,-196.19 715.486,-201.996"/>
</g>
<!-- Node17&#45;&gt;Node4 -->
<g id="edge18" class="edge"><title>Node17&#45;&gt;Node4</title>
<path fill="none" stroke="midnightblue" d="M357.319,-127.129C360.569,-117.801 364.188,-107.418 367.019,-99.2931"/>
<polygon fill="midnightblue" stroke="midnightblue" points="353.976,-126.084 353.991,-136.679 360.587,-128.388 353.976,-126.084"/>
</g>
<!-- Node18 -->
<g id="node18" class="node"><title>Node18</title>
<g id="a_node18"><a xlink:href="../../d2/dab/Fun4AllNoSyncDstInputManager_8h.html" target="_top" xlink:title="fun4all/fun4all/Fun4AllNo\lSyncDstInputManager.h">
<polygon fill="none" stroke="black" points="164.5,-69 164.5,-99 289.5,-99 289.5,-69 164.5,-69"/>
<text text-anchor="start" x="172.5" y="-87" font-family="FreeSans" font-size="10.00">fun4all/fun4all/Fun4AllNo</text>
<text text-anchor="middle" x="227" y="-76" font-family="FreeSans" font-size="10.00">SyncDstInputManager.h</text>
</a>
</g>
</g>
<!-- Node17&#45;&gt;Node18 -->
<g id="edge19" class="edge"><title>Node17&#45;&gt;Node18</title>
<path fill="none" stroke="midnightblue" d="M313.98,-132.055C294.588,-121.564 270.889,-108.743 253.129,-99.1352"/>
<polygon fill="midnightblue" stroke="midnightblue" points="312.367,-135.162 322.828,-136.841 315.698,-129.005 312.367,-135.162"/>
</g>
<!-- Node19 -->
<g id="node19" class="node"><title>Node19</title>
<g id="a_node19"><a xlink:href="../../d9/d35/Fun4AllNoSyncDstInputManager_8cc.html" target="_top" xlink:title="fun4all/fun4all/Fun4AllNo\lSyncDstInputManager.cc">
<polygon fill="none" stroke="black" points="164.5,-1 164.5,-31 289.5,-31 289.5,-1 164.5,-1"/>
<text text-anchor="start" x="172.5" y="-19" font-family="FreeSans" font-size="10.00">fun4all/fun4all/Fun4AllNo</text>
<text text-anchor="middle" x="227" y="-8" font-family="FreeSans" font-size="10.00">SyncDstInputManager.cc</text>
</a>
</g>
</g>
<!-- Node18&#45;&gt;Node19 -->
<g id="edge20" class="edge"><title>Node18&#45;&gt;Node19</title>
<path fill="none" stroke="midnightblue" d="M227,-58.5322C227,-49.3606 227,-39.2449 227,-31.2931"/>
<polygon fill="midnightblue" stroke="midnightblue" points="223.5,-58.6789 227,-68.679 230.5,-58.679 223.5,-58.6789"/>
</g>
<!-- Node21 -->
<g id="node21" class="node"><title>Node21</title>
<g id="a_node21"><a xlink:href="../../dd/dec/Fun4AllDummyInputManager_8cc.html" target="_top" xlink:title="fun4all/fun4all/Fun4AllDummy\lInputManager.cc">
<polygon fill="none" stroke="black" points="0,-69 0,-99 146,-99 146,-69 0,-69"/>
<text text-anchor="start" x="8" y="-87" font-family="FreeSans" font-size="10.00">fun4all/fun4all/Fun4AllDummy</text>
<text text-anchor="middle" x="73" y="-76" font-family="FreeSans" font-size="10.00">InputManager.cc</text>
</a>
</g>
</g>
<!-- Node20&#45;&gt;Node21 -->
<g id="edge22" class="edge"><title>Node20&#45;&gt;Node21</title>
<path fill="none" stroke="midnightblue" d="M113.176,-129.194C104.237,-119.36 93.9298,-108.023 85.9937,-99.2931"/>
<polygon fill="midnightblue" stroke="midnightblue" points="110.664,-131.634 119.981,-136.679 115.844,-126.925 110.664,-131.634"/>
</g>
<!-- Node22&#45;&gt;Node10 -->
<g id="edge25" class="edge"><title>Node22&#45;&gt;Node10</title>
<path fill="none" stroke="midnightblue" d="M612.248,-132.197C591.693,-121.68 566.492,-108.787 547.628,-99.1352"/>
<polygon fill="midnightblue" stroke="midnightblue" points="610.83,-135.402 621.326,-136.841 614.018,-129.171 610.83,-135.402"/>
</g>
<!-- Node23&#45;&gt;Node4 -->
<g id="edge29" class="edge"><title>Node23&#45;&gt;Node4</title>
<path fill="none" stroke="midnightblue" d="M462.103,-132.197C442.026,-121.68 417.411,-108.787 398.985,-99.1352"/>
<polygon fill="midnightblue" stroke="midnightblue" points="460.487,-135.302 470.97,-136.841 463.736,-129.101 460.487,-135.302"/>
</g>
<!-- Node23&#45;&gt;Node10 -->
<g id="edge31" class="edge"><title>Node23&#45;&gt;Node10</title>
<path fill="none" stroke="midnightblue" d="M505.957,-127.129C509.066,-117.801 512.527,-107.418 515.236,-99.2931"/>
<polygon fill="midnightblue" stroke="midnightblue" points="502.616,-126.085 502.774,-136.679 509.256,-128.299 502.616,-126.085"/>
</g>
<!-- Node23&#45;&gt;Node12 -->
<g id="edge32" class="edge"><title>Node23&#45;&gt;Node12</title>
<path fill="none" stroke="midnightblue" d="M575.079,-135.876C685.525,-117.65 802.269,-102.505 875.304,-93.5285"/>
<polygon fill="midnightblue" stroke="midnightblue" points="574.389,-132.442 565.098,-137.534 575.536,-139.348 574.389,-132.442"/>
</g>
<!-- Node23&#45;&gt;Node13 -->
<g id="edge33" class="edge"><title>Node23&#45;&gt;Node13</title>
<path fill="none" stroke="midnightblue" d="M544.732,-133.171C572.848,-122.445 608.13,-108.985 634.246,-99.0218"/>
<polygon fill="midnightblue" stroke="midnightblue" points="543.208,-130.007 535.113,-136.841 545.704,-136.547 543.208,-130.007"/>
</g>
<!-- Node23&#45;&gt;Node21 -->
<g id="edge30" class="edge"><title>Node23&#45;&gt;Node21</title>
<path fill="none" stroke="midnightblue" d="M420.696,-135.846C302.135,-116.512 270.025,-118.265 155,-100 152.141,-99.5461 149.229,-99.0715 146.288,-98.5823"/>
<polygon fill="midnightblue" stroke="midnightblue" points="420.468,-139.355 430.904,-137.527 421.605,-132.449 420.468,-139.355"/>
</g>
<!-- Node24&#45;&gt;Node9 -->
<g id="edge40" class="edge"><title>Node24&#45;&gt;Node9</title>
<path fill="none" stroke="midnightblue" d="M1316.27,-134.505C1271.46,-123.591 1213.33,-109.434 1170.72,-99.0561"/>
<polygon fill="midnightblue" stroke="midnightblue" points="1315.65,-137.957 1326.2,-136.922 1317.31,-131.155 1315.65,-137.957"/>
</g>
<!-- Node24&#45;&gt;Node12 -->
<g id="edge43" class="edge"><title>Node24&#45;&gt;Node12</title>
<path fill="none" stroke="midnightblue" d="M1302.74,-139.86C1231.54,-129.939 1125.29,-114.751 1033,-100 1020.58,-98.0147 1007.17,-95.7399 994.723,-93.5722"/>
<polygon fill="midnightblue" stroke="midnightblue" points="1302.6,-143.373 1312.99,-141.284 1303.56,-136.44 1302.6,-143.373"/>
</g>
<!-- Node25 -->
<g id="node25" class="node"><title>Node25</title>
<g id="a_node25"><a xlink:href="../../db/d22/Fun4AllDstOutputManager_8h.html" target="_top" xlink:title="fun4all/fun4all/Fun4AllDst\lOutputManager.h">
<polygon fill="none" stroke="black" points="1500,-69 1500,-99 1628,-99 1628,-69 1500,-69"/>
<text text-anchor="start" x="1508" y="-87" font-family="FreeSans" font-size="10.00">fun4all/fun4all/Fun4AllDst</text>
<text text-anchor="middle" x="1564" y="-76" font-family="FreeSans" font-size="10.00">OutputManager.h</text>
</a>
</g>
</g>
<!-- Node24&#45;&gt;Node25 -->
<g id="edge35" class="edge"><title>Node24&#45;&gt;Node25</title>
<path fill="none" stroke="midnightblue" d="M1432.24,-133.312C1461.56,-122.563 1498.47,-109.029 1525.76,-99.0218"/>
<polygon fill="midnightblue" stroke="midnightblue" points="1430.8,-130.113 1422.61,-136.841 1433.21,-136.685 1430.8,-130.113"/>
</g>
<!-- Node26 -->
<g id="node26" class="node"><title>Node26</title>
<g id="a_node26"><a xlink:href="../../da/d34/Fun4AllEventOutputManager_8h.html" target="_top" xlink:title="fun4all/fun4all/Fun4AllEvent\lOutputManager.h">
<polygon fill="none" stroke="black" points="1795.5,-69 1795.5,-99 1932.5,-99 1932.5,-69 1795.5,-69"/>
<text text-anchor="start" x="1803.5" y="-87" font-family="FreeSans" font-size="10.00">fun4all/fun4all/Fun4AllEvent</text>
<text text-anchor="middle" x="1864" y="-76" font-family="FreeSans" font-size="10.00">OutputManager.h</text>
</a>
</g>
</g>
<!-- Node24&#45;&gt;Node26 -->
<g id="edge37" class="edge"><title>Node24&#45;&gt;Node26</title>
<path fill="none" stroke="midnightblue" d="M1465.54,-142.2C1546.91,-133.056 1675.4,-117.631 1786,-100 1789,-99.5224 1792.05,-99.0161 1795.14,-98.4896"/>
<polygon fill="midnightblue" stroke="midnightblue" points="1464.91,-138.749 1455.36,-143.339 1465.69,-145.705 1464.91,-138.749"/>
</g>
<!-- Node27 -->
<g id="node27" class="node"><title>Node27</title>
<g id="a_node27"><a xlink:href="../../d0/d7a/Fun4AllPrdfOutputManager_8h.html" target="_top" xlink:title="fun4all/fun4all/Fun4AllPrdf\lOutputManager.h">
<polygon fill="none" stroke="black" points="1646.5,-69 1646.5,-99 1777.5,-99 1777.5,-69 1646.5,-69"/>
<text text-anchor="start" x="1654.5" y="-87" font-family="FreeSans" font-size="10.00">fun4all/fun4all/Fun4AllPrdf</text>
<text text-anchor="middle" x="1712" y="-76" font-family="FreeSans" font-size="10.00">OutputManager.h</text>
</a>
</g>
</g>
<!-- Node24&#45;&gt;Node27 -->
<g id="edge41" class="edge"><title>Node24&#45;&gt;Node27</title>
<path fill="none" stroke="midnightblue" d="M1463.84,-134.934C1519.83,-123.668 1593.77,-108.791 1646.33,-98.2133"/>
<polygon fill="midnightblue" stroke="midnightblue" points="1463.07,-131.518 1453.96,-136.922 1464.46,-138.381 1463.07,-131.518"/>
</g>
<!-- Node25&#45;&gt;Node5 -->
<g id="edge36" class="edge"><title>Node25&#45;&gt;Node5</title>
<path fill="none" stroke="midnightblue" d="M1489.89,-67.8496C1392.23,-50.4251 1290.36,-35.2179 1226.15,-25.997"/>
<polygon fill="midnightblue" stroke="midnightblue" points="1489.48,-71.3309 1499.94,-69.6526 1490.72,-64.441 1489.48,-71.3309"/>
</g>
<!-- Node26&#45;&gt;Node6 -->
<g id="edge38" class="edge"><title>Node26&#45;&gt;Node6</title>
<path fill="none" stroke="midnightblue" d="M1907.83,-65.0308C1933.94,-54.3276 1966.6,-40.9417 1990.8,-31.0218"/>
<polygon fill="midnightblue" stroke="midnightblue" points="1906.46,-61.8098 1898.54,-68.8413 1909.12,-68.2867 1906.46,-61.8098"/>
</g>
<!-- Node26&#45;&gt;Node11 -->
<g id="edge39" class="edge"><title>Node26&#45;&gt;Node11</title>
<path fill="none" stroke="midnightblue" d="M1864,-58.5322C1864,-49.3606 1864,-39.2449 1864,-31.2931"/>
<polygon fill="midnightblue" stroke="midnightblue" points="1860.5,-58.6789 1864,-68.679 1867.5,-58.679 1860.5,-58.6789"/>
</g>
<!-- Node28 -->
<g id="node28" class="node"><title>Node28</title>
<g id="a_node28"><a xlink:href="../../d8/d3b/Fun4AllPrdfOutputManager_8cc.html" target="_top" xlink:title="fun4all/fun4all/Fun4AllPrdf\lOutputManager.cc">
<polygon fill="none" stroke="black" points="1640.5,-1 1640.5,-31 1771.5,-31 1771.5,-1 1640.5,-1"/>
<text text-anchor="start" x="1648.5" y="-19" font-family="FreeSans" font-size="10.00">fun4all/fun4all/Fun4AllPrdf</text>
<text text-anchor="middle" x="1706" y="-8" font-family="FreeSans" font-size="10.00">OutputManager.cc</text>
</a>
</g>
</g>
<!-- Node27&#45;&gt;Node28 -->
<g id="edge42" class="edge"><title>Node27&#45;&gt;Node28</title>
<path fill="none" stroke="midnightblue" d="M1709.78,-58.5322C1708.94,-49.3606 1708.02,-39.2449 1707.3,-31.2931"/>
<polygon fill="midnightblue" stroke="midnightblue" points="1706.31,-59.037 1710.7,-68.679 1713.28,-58.4031 1706.31,-59.037"/>
</g>
<!-- Node29&#45;&gt;Node6 -->
<g id="edge45" class="edge"><title>Node29&#45;&gt;Node6</title>
<path fill="none" stroke="midnightblue" d="M1764.93,-202.785C1879.45,-177.258 2087.04,-127.756 2108,-100 2116.57,-88.6498 2114.94,-80.413 2108,-68 2098.59,-51.1723 2081.1,-39.2183 2064.6,-31.1343"/>
<polygon fill="midnightblue" stroke="midnightblue" points="1764.16,-199.37 1755.16,-204.955 1765.68,-206.204 1764.16,-199.37"/>
</g>
<!-- Node30 -->
<g id="node30" class="node"><title>Node30</title>
<g id="a_node30"><a xlink:href="../../da/d10/Fun4AllEventOutStream_8cc.html" target="_top" xlink:title="fun4all/fun4all/Fun4AllEvent\lOutStream.cc">
<polygon fill="none" stroke="black" points="1546.5,-137 1546.5,-167 1683.5,-167 1683.5,-137 1546.5,-137"/>
<text text-anchor="start" x="1554.5" y="-155" font-family="FreeSans" font-size="10.00">fun4all/fun4all/Fun4AllEvent</text>
<text text-anchor="middle" x="1615" y="-144" font-family="FreeSans" font-size="10.00">OutStream.cc</text>
</a>
</g>
</g>
<!-- Node29&#45;&gt;Node30 -->
<g id="edge46" class="edge"><title>Node29&#45;&gt;Node30</title>
<path fill="none" stroke="midnightblue" d="M1666.16,-198.018C1654.68,-187.915 1641.22,-176.07 1630.98,-167.066"/>
<polygon fill="midnightblue" stroke="midnightblue" points="1663.91,-200.7 1673.73,-204.679 1668.53,-195.445 1663.91,-200.7"/>
</g>
<!-- Node31 -->
<g id="node31" class="node"><title>Node31</title>
<g id="a_node31"><a xlink:href="../../df/d18/Fun4AllFileOutStream_8h.html" target="_top" xlink:title="fun4all/fun4all/Fun4AllFile\lOutStream.h">
<polygon fill="none" stroke="black" points="1702,-137 1702,-167 1830,-167 1830,-137 1702,-137"/>
<text text-anchor="start" x="1710" y="-155" font-family="FreeSans" font-size="10.00">fun4all/fun4all/Fun4AllFile</text>
<text text-anchor="middle" x="1766" y="-144" font-family="FreeSans" font-size="10.00">OutStream.h</text>
</a>
</g>
</g>
<!-- Node29&#45;&gt;Node31 -->
<g id="edge47" class="edge"><title>Node29&#45;&gt;Node31</title>
<path fill="none" stroke="midnightblue" d="M1714.16,-198.018C1725.8,-187.915 1739.43,-176.07 1749.8,-167.066"/>
<polygon fill="midnightblue" stroke="midnightblue" points="1711.75,-195.479 1706.49,-204.679 1716.34,-200.765 1711.75,-195.479"/>
</g>
<!-- Node31&#45;&gt;Node7 -->
<g id="edge51" class="edge"><title>Node31&#45;&gt;Node7</title>
<path fill="none" stroke="midnightblue" d="M1692.3,-136.046C1692.2,-136.031 1692.1,-136.015 1692,-136 1536.09,-112.307 1494.88,-123.901 1339,-100 1336.06,-99.549 1333.06,-99.0579 1330.03,-98.5377"/>
<polygon fill="midnightblue" stroke="midnightblue" points="1691.46,-139.455 1701.89,-137.604 1692.58,-132.546 1691.46,-139.455"/>
</g>
<!-- Node32 -->
<g id="node32" class="node"><title>Node32</title>
<g id="a_node32"><a xlink:href="../../d8/d07/Fun4AllRolloverFileOutStream_8h.html" target="_top" xlink:title="fun4all/fun4all/Fun4AllRollover\lFileOutStream.h">
<polygon fill="none" stroke="black" points="1951,-69 1951,-99 2099,-99 2099,-69 1951,-69"/>
<text text-anchor="start" x="1959" y="-87" font-family="FreeSans" font-size="10.00">fun4all/fun4all/Fun4AllRollover</text>
<text text-anchor="middle" x="2025" y="-76" font-family="FreeSans" font-size="10.00">FileOutStream.h</text>
</a>
</g>
</g>
<!-- Node31&#45;&gt;Node32 -->
<g id="edge48" class="edge"><title>Node31&#45;&gt;Node32</title>
<path fill="none" stroke="midnightblue" d="M1831,-134.436C1873.79,-123.532 1929.2,-109.412 1969.84,-99.0561"/>
<polygon fill="midnightblue" stroke="midnightblue" points="1830.07,-131.061 1821.24,-136.922 1831.8,-137.844 1830.07,-131.061"/>
</g>
<!-- Node32&#45;&gt;Node6 -->
<g id="edge49" class="edge"><title>Node32&#45;&gt;Node6</title>
<path fill="none" stroke="midnightblue" d="M2025,-58.5322C2025,-49.3606 2025,-39.2449 2025,-31.2931"/>
<polygon fill="midnightblue" stroke="midnightblue" points="2021.5,-58.6789 2025,-68.679 2028.5,-58.679 2021.5,-58.6789"/>
</g>
<!-- Node32&#45;&gt;Node11 -->
<g id="edge50" class="edge"><title>Node32&#45;&gt;Node11</title>
<path fill="none" stroke="midnightblue" d="M1981.17,-65.0308C1955.06,-54.3276 1922.4,-40.9417 1898.2,-31.0218"/>
<polygon fill="midnightblue" stroke="midnightblue" points="1979.88,-68.2867 1990.46,-68.8413 1982.54,-61.8098 1979.88,-68.2867"/>
</g>
<!-- Node33&#45;&gt;Node8 -->
<g id="edge53" class="edge"><title>Node33&#45;&gt;Node8</title>
<path fill="none" stroke="midnightblue" d="M2145.58,-148.701C2009.51,-144.111 1727.51,-131.407 1491,-100 1488.07,-99.6105 1485.08,-99.1772 1482.06,-98.7104"/>
<polygon fill="midnightblue" stroke="midnightblue" points="2145.8,-152.21 2155.91,-149.043 2146.03,-145.214 2145.8,-152.21"/>
</g>
<!-- Node33&#45;&gt;Node12 -->
<g id="edge54" class="edge"><title>Node33&#45;&gt;Node12</title>
<path fill="none" stroke="midnightblue" d="M2145.64,-147.816C1885.58,-137.6 1088.18,-105.966 1033,-100 1018.84,-98.4688 1003.48,-96.0397 989.714,-93.5785"/>
<polygon fill="midnightblue" stroke="midnightblue" points="2145.65,-151.319 2155.78,-148.214 2145.92,-144.324 2145.65,-151.319"/>
</g>
<!-- Node34 -->
<g id="node34" class="node"><title>Node34</title>
<g id="a_node34"><a xlink:href="../../de/d98/SubsysReco_8cc.html" target="_top" xlink:title="fun4all/fun4all/SubsysReco.cc">
<polygon fill="none" stroke="black" points="2477.5,-74.5 2477.5,-93.5 2624.5,-93.5 2624.5,-74.5 2477.5,-74.5"/>
<text text-anchor="middle" x="2551" y="-81.5" font-family="FreeSans" font-size="10.00">fun4all/fun4all/SubsysReco.cc</text>
</a>
</g>
</g>
<!-- Node33&#45;&gt;Node34 -->
<g id="edge55" class="edge"><title>Node33&#45;&gt;Node34</title>
<path fill="none" stroke="midnightblue" d="M2278.89,-140.429C2342.8,-127.412 2450.09,-105.555 2509.05,-93.5455"/>
<polygon fill="midnightblue" stroke="midnightblue" points="2278.13,-137.014 2269.03,-142.439 2279.52,-143.873 2278.13,-137.014"/>
</g>
<!-- Node35 -->
<g id="node35" class="node"><title>Node35</title>
<g id="a_node35"><a xlink:href="../../d9/d40/ReadMySql_8h.html" target="_top" xlink:title="fun4all/modules/ReadMySql.h">
<polygon fill="none" stroke="black" points="2155.5,-74.5 2155.5,-93.5 2300.5,-93.5 2300.5,-74.5 2155.5,-74.5"/>
<text text-anchor="middle" x="2228" y="-81.5" font-family="FreeSans" font-size="10.00">fun4all/modules/ReadMySql.h</text>
</a>
</g>
</g>
<!-- Node33&#45;&gt;Node35 -->
<g id="edge56" class="edge"><title>Node33&#45;&gt;Node35</title>
<path fill="none" stroke="midnightblue" d="M2227.29,-132.041C2227.48,-119.472 2227.72,-103.563 2227.87,-93.8411"/>
<polygon fill="midnightblue" stroke="midnightblue" points="2223.78,-132.32 2227.13,-142.372 2230.78,-132.426 2223.78,-132.32"/>
</g>
<!-- Node37 -->
<g id="node37" class="node"><title>Node37</title>
<g id="a_node37"><a xlink:href="../../d4/dcb/SimpleReadMySql_8h.html" target="_top" xlink:title="fun4all/modules/SimpleRead\lMySql.h">
<polygon fill="none" stroke="black" points="2319,-69 2319,-99 2459,-99 2459,-69 2319,-69"/>
<text text-anchor="start" x="2327" y="-87" font-family="FreeSans" font-size="10.00">fun4all/modules/SimpleRead</text>
<text text-anchor="middle" x="2389" y="-76" font-family="FreeSans" font-size="10.00">MySql.h</text>
</a>
</g>
</g>
<!-- Node33&#45;&gt;Node37 -->
<g id="edge58" class="edge"><title>Node33&#45;&gt;Node37</title>
<path fill="none" stroke="midnightblue" d="M2257.72,-138.485C2285.32,-127.242 2325.8,-110.75 2354.5,-99.0562"/>
<polygon fill="midnightblue" stroke="midnightblue" points="2256.12,-135.357 2248.18,-142.372 2258.76,-141.84 2256.12,-135.357"/>
</g>
<!-- Node36 -->
<g id="node36" class="node"><title>Node36</title>
<g id="a_node36"><a xlink:href="../../dd/d12/ReadMySql_8C.html" target="_top" xlink:title="fun4all/modules/ReadMySql.C">
<polygon fill="none" stroke="black" points="2155,-6.5 2155,-25.5 2301,-25.5 2301,-6.5 2155,-6.5"/>
<text text-anchor="middle" x="2228" y="-13.5" font-family="FreeSans" font-size="10.00">fun4all/modules/ReadMySql.C</text>
</a>
</g>
</g>
<!-- Node35&#45;&gt;Node36 -->
<g id="edge57" class="edge"><title>Node35&#45;&gt;Node36</title>
<path fill="none" stroke="midnightblue" d="M2228,-64.0413C2228,-51.4724 2228,-35.5631 2228,-25.8411"/>
<polygon fill="midnightblue" stroke="midnightblue" points="2224.5,-64.3716 2228,-74.3717 2231.5,-64.3717 2224.5,-64.3716"/>
</g>
<!-- Node38 -->
<g id="node38" class="node"><title>Node38</title>
<g id="a_node38"><a xlink:href="../../dd/d2f/SimpleReadMySql_8C.html" target="_top" xlink:title="fun4all/modules/SimpleRead\lMySql.C">
<polygon fill="none" stroke="black" points="2319,-1 2319,-31 2459,-31 2459,-1 2319,-1"/>
<text text-anchor="start" x="2327" y="-19" font-family="FreeSans" font-size="10.00">fun4all/modules/SimpleRead</text>
<text text-anchor="middle" x="2389" y="-8" font-family="FreeSans" font-size="10.00">MySql.C</text>
</a>
</g>
</g>
<!-- Node37&#45;&gt;Node38 -->
<g id="edge59" class="edge"><title>Node37&#45;&gt;Node38</title>
<path fill="none" stroke="midnightblue" d="M2389,-58.5322C2389,-49.3606 2389,-39.2449 2389,-31.2931"/>
<polygon fill="midnightblue" stroke="midnightblue" points="2385.5,-58.6789 2389,-68.679 2392.5,-58.679 2385.5,-58.6789"/>
</g>
</g>
</svg>
