<?xml version="1.0" encoding="UTF-8" standalone="no"?>
<!DOCTYPE svg PUBLIC "-//W3C//DTD SVG 1.1//EN"
 "http://www.w3.org/Graphics/SVG/1.1/DTD/svg11.dtd">
<!-- Generated by graphviz version 2.36.0 (20140111.2315)
 -->
<!-- Title: recoConsts::instance Pages: 1 -->
<svg width="632pt" height="329pt"
 viewBox="0.00 0.00 632.00 329.00" xmlns="http://www.w3.org/2000/svg" xmlns:xlink="http://www.w3.org/1999/xlink">
<g id="graph0" class="graph" transform="scale(1 1) rotate(0) translate(4 325)">
<title>recoConsts::instance</title>
<!-- Node1 -->
<g id="node1" class="node"><title>Node1</title>
<polygon fill="#bfbfbf" stroke="black" points="0.5,-154.5 0.5,-173.5 107.5,-173.5 107.5,-154.5 0.5,-154.5"/>
<text text-anchor="middle" x="54" y="-161.5" font-family="FreeSans" font-size="10.00">recoConsts::instance</text>
</g>
<!-- Node2 -->
<g id="node2" class="node"><title>Node2</title>
<g id="a_node2"><a xlink:href="../../d3/d96/classFun4AllHistoManager.html#a61c2043c62739de451de3f9287832a08" target="_top" xlink:title="Fun4AllHistoManager\l::dumpHistos">
<polygon fill="none" stroke="black" points="164,-291 164,-321 274,-321 274,-291 164,-291"/>
<text text-anchor="start" x="172" y="-309" font-family="FreeSans" font-size="10.00">Fun4AllHistoManager</text>
<text text-anchor="middle" x="219" y="-298" font-family="FreeSans" font-size="10.00">::dumpHistos</text>
</a>
</g>
</g>
<!-- Node1&#45;&gt;Node2 -->
<g id="edge1" class="edge"><title>Node1&#45;&gt;Node2</title>
<path fill="none" stroke="midnightblue" d="M64.6095,-182.823C78.6708,-208.568 107.225,-254.571 144,-281 150.056,-285.353 156.926,-288.989 163.98,-292.016"/>
<polygon fill="midnightblue" stroke="midnightblue" points="67.5675,-180.931 59.7907,-173.735 61.3831,-184.21 67.5675,-180.931"/>
</g>
<!-- Node3 -->
<g id="node3" class="node"><title>Node3</title>
<g id="a_node3"><a xlink:href="../../da/d29/classFun4AllServer.html#ab7263450319ca1d5029209fde26a7af8" target="_top" xlink:title="Fun4AllServer::End">
<polygon fill="none" stroke="black" points="347.5,-176.5 347.5,-195.5 446.5,-195.5 446.5,-176.5 347.5,-176.5"/>
<text text-anchor="middle" x="397" y="-183.5" font-family="FreeSans" font-size="10.00">Fun4AllServer::End</text>
</a>
</g>
</g>
<!-- Node1&#45;&gt;Node3 -->
<g id="edge2" class="edge"><title>Node1&#45;&gt;Node3</title>
<path fill="none" stroke="midnightblue" d="M117.834,-168.054C184.052,-172.326 286.94,-178.964 347.276,-182.857"/>
<polygon fill="midnightblue" stroke="midnightblue" points="117.739,-164.54 107.534,-167.389 117.288,-171.526 117.739,-164.54"/>
</g>
<!-- Node6 -->
<g id="node6" class="node"><title>Node6</title>
<g id="a_node6"><a xlink:href="../../d6/dc8/classFun4AllPrdfOutputManager.html#a34a327859dafb50190588e6393d8ec2b" target="_top" xlink:title="Fun4AllPrdfOutputManager\l::InitPrdfManager">
<polygon fill="none" stroke="black" points="152,-127 152,-157 286,-157 286,-127 152,-127"/>
<text text-anchor="start" x="160" y="-145" font-family="FreeSans" font-size="10.00">Fun4AllPrdfOutputManager</text>
<text text-anchor="middle" x="219" y="-134" font-family="FreeSans" font-size="10.00">::InitPrdfManager</text>
</a>
</g>
</g>
<!-- Node1&#45;&gt;Node6 -->
<g id="edge5" class="edge"><title>Node1&#45;&gt;Node6</title>
<path fill="none" stroke="midnightblue" d="M117.979,-155.5C129.107,-153.998 140.722,-152.43 151.932,-150.917"/>
<polygon fill="midnightblue" stroke="midnightblue" points="117.363,-152.051 107.921,-156.857 118.3,-158.988 117.363,-152.051"/>
</g>
<!-- Node8 -->
<g id="node8" class="node"><title>Node8</title>
<g id="a_node8"><a xlink:href="../../dd/d1f/classPHRandomSeed.html#a2bde8781fe8b52f6f01d4160139f4f55" target="_top" xlink:title="PHRandomSeed::InitSeed">
<polygon fill="none" stroke="black" points="154,-88.5 154,-107.5 284,-107.5 284,-88.5 154,-88.5"/>
<text text-anchor="middle" x="219" y="-95.5" font-family="FreeSans" font-size="10.00">PHRandomSeed::InitSeed</text>
</a>
</g>
</g>
<!-- Node1&#45;&gt;Node8 -->
<g id="edge7" class="edge"><title>Node1&#45;&gt;Node8</title>
<path fill="none" stroke="midnightblue" d="M79.8925,-149.31C97.3806,-139.448 121.565,-126.715 144,-118 154.296,-114.001 165.695,-110.492 176.398,-107.577"/>
<polygon fill="midnightblue" stroke="midnightblue" points="77.8574,-146.442 70.9195,-154.449 81.3365,-152.516 77.8574,-146.442"/>
</g>
<!-- Node9 -->
<g id="node9" class="node"><title>Node9</title>
<g id="a_node9"><a xlink:href="../../da/d29/classFun4AllServer.html#a11bbc8b2f53bc06e0b05ee202dd6372a" target="_top" xlink:title="run n events (0 means up to end of file) ">
<polygon fill="none" stroke="black" points="349,-214.5 349,-233.5 445,-233.5 445,-214.5 349,-214.5"/>
<text text-anchor="middle" x="397" y="-221.5" font-family="FreeSans" font-size="10.00">Fun4AllServer::run</text>
</a>
</g>
</g>
<!-- Node1&#45;&gt;Node9 -->
<g id="edge8" class="edge"><title>Node1&#45;&gt;Node9</title>
<path fill="none" stroke="midnightblue" d="M96.7974,-176.395C111.612,-180.489 128.461,-184.807 144,-188 214.779,-202.543 297.94,-213.194 348.796,-218.992"/>
<polygon fill="midnightblue" stroke="midnightblue" points="97.4811,-172.952 86.907,-173.613 95.5859,-179.69 97.4811,-172.952"/>
</g>
<!-- Node10 -->
<g id="node10" class="node"><title>Node10</title>
<g id="a_node10"><a xlink:href="../../da/d29/classFun4AllServer.html#af1002b9170308da078c0e14a5ac4b514" target="_top" xlink:title="Fun4AllServer::setRun">
<polygon fill="none" stroke="black" points="162.5,-252.5 162.5,-271.5 275.5,-271.5 275.5,-252.5 162.5,-252.5"/>
<text text-anchor="middle" x="219" y="-259.5" font-family="FreeSans" font-size="10.00">Fun4AllServer::setRun</text>
</a>
</g>
</g>
<!-- Node1&#45;&gt;Node10 -->
<g id="edge11" class="edge"><title>Node1&#45;&gt;Node10</title>
<path fill="none" stroke="midnightblue" d="M71.3297,-180.917C88.1689,-197.505 115.868,-222.499 144,-238 154.883,-243.997 167.501,-248.783 179.201,-252.454"/>
<polygon fill="midnightblue" stroke="midnightblue" points="73.5143,-178.15 63.9813,-173.527 68.5506,-183.086 73.5143,-178.15"/>
</g>
<!-- Node11 -->
<g id="node11" class="node"><title>Node11</title>
<g id="a_node11"><a xlink:href="../../df/d43/classFun4AllDummyInputManager.html#a3863cb07576f56e8e514ae272b322679" target="_top" xlink:title="Fun4AllDummyInputManager\l::setSyncManager">
<polygon fill="none" stroke="black" points="148,-39 148,-69 290,-69 290,-39 148,-39"/>
<text text-anchor="start" x="156" y="-57" font-family="FreeSans" font-size="10.00">Fun4AllDummyInputManager</text>
<text text-anchor="middle" x="219" y="-46" font-family="FreeSans" font-size="10.00">::setSyncManager</text>
</a>
</g>
</g>
<!-- Node1&#45;&gt;Node11 -->
<g id="edge13" class="edge"><title>Node1&#45;&gt;Node11</title>
<path fill="none" stroke="midnightblue" d="M69.1217,-146.551C85.3668,-127.516 113.721,-97.3194 144,-79 150.265,-75.2094 157.18,-71.9055 164.191,-69.0518"/>
<polygon fill="midnightblue" stroke="midnightblue" points="66.2672,-144.509 62.5464,-154.429 71.6413,-148.994 66.2672,-144.509"/>
</g>
<!-- Node12 -->
<g id="node12" class="node"><title>Node12</title>
<g id="a_node12"><a xlink:href="../../da/d29/classFun4AllServer.html#ae508c2fa05d45ca09e101a4db9a9807d" target="_top" xlink:title="Fun4AllServer::~Fun4AllServer">
<polygon fill="none" stroke="black" points="144.5,-0.5 144.5,-19.5 293.5,-19.5 293.5,-0.5 144.5,-0.5"/>
<text text-anchor="middle" x="219" y="-7.5" font-family="FreeSans" font-size="10.00">Fun4AllServer::~Fun4AllServer</text>
</a>
</g>
</g>
<!-- Node1&#45;&gt;Node12 -->
<g id="edge14" class="edge"><title>Node1&#45;&gt;Node12</title>
<path fill="none" stroke="midnightblue" d="M62.5535,-144.61C74.9981,-115.254 102.627,-59.8026 144,-30 150.047,-25.6441 156.99,-22.2369 164.146,-19.5717"/>
<polygon fill="midnightblue" stroke="midnightblue" points="59.1986,-143.567 58.6583,-154.149 65.6791,-146.214 59.1986,-143.567"/>
</g>
<!-- Node4 -->
<g id="node4" class="node"><title>Node4</title>
<g id="a_node4"><a xlink:href="../../d0/d46/Fun4__SimpleReadMySql_8C.html#a70381893748e3445abc30632beb256ce" target="_top" xlink:title="Fun4_SimpleReadMySql">
<polygon fill="none" stroke="black" points="500.5,-214.5 500.5,-233.5 623.5,-233.5 623.5,-214.5 500.5,-214.5"/>
<text text-anchor="middle" x="562" y="-221.5" font-family="FreeSans" font-size="10.00">Fun4_SimpleReadMySql</text>
</a>
</g>
</g>
<!-- Node3&#45;&gt;Node4 -->
<g id="edge3" class="edge"><title>Node3&#45;&gt;Node4</title>
<path fill="none" stroke="midnightblue" d="M449.028,-197.896C471.939,-203.237 498.604,-209.454 520.164,-214.48"/>
<polygon fill="midnightblue" stroke="midnightblue" points="449.665,-194.451 439.132,-195.589 448.076,-201.268 449.665,-194.451"/>
</g>
<!-- Node5 -->
<g id="node5" class="node"><title>Node5</title>
<g id="a_node5"><a xlink:href="../../d9/d8c/Fun4ReadMySql_8C.html#a729b39fa627147c63772f28c9be36b62" target="_top" xlink:title="Fun4ReadMySql">
<polygon fill="none" stroke="black" points="518,-176.5 518,-195.5 606,-195.5 606,-176.5 518,-176.5"/>
<text text-anchor="middle" x="562" y="-183.5" font-family="FreeSans" font-size="10.00">Fun4ReadMySql</text>
</a>
</g>
</g>
<!-- Node3&#45;&gt;Node5 -->
<g id="edge4" class="edge"><title>Node3&#45;&gt;Node5</title>
<path fill="none" stroke="midnightblue" d="M456.929,-186C477.095,-186 499.263,-186 517.939,-186"/>
<polygon fill="midnightblue" stroke="midnightblue" points="456.905,-182.5 446.905,-186 456.905,-189.5 456.905,-182.5"/>
</g>
<!-- Node7 -->
<g id="node7" class="node"><title>Node7</title>
<g id="a_node7"><a xlink:href="../../d6/dc8/classFun4AllPrdfOutputManager.html#a6aaed7e9b0b32a481661fde72ff44fa2" target="_top" xlink:title="event write method (startNode argument is ignored. prdfNode is always used) ">
<polygon fill="none" stroke="black" points="330,-127 330,-157 464,-157 464,-127 330,-127"/>
<text text-anchor="start" x="338" y="-145" font-family="FreeSans" font-size="10.00">Fun4AllPrdfOutputManager</text>
<text text-anchor="middle" x="397" y="-134" font-family="FreeSans" font-size="10.00">::Write</text>
</a>
</g>
</g>
<!-- Node6&#45;&gt;Node7 -->
<g id="edge6" class="edge"><title>Node6&#45;&gt;Node7</title>
<path fill="none" stroke="midnightblue" d="M296.234,-142C307.44,-142 318.906,-142 329.886,-142"/>
<polygon fill="midnightblue" stroke="midnightblue" points="296.037,-138.5 286.037,-142 296.037,-145.5 296.037,-138.5"/>
</g>
<!-- Node9&#45;&gt;Node4 -->
<g id="edge9" class="edge"><title>Node9&#45;&gt;Node4</title>
<path fill="none" stroke="midnightblue" d="M455.485,-224C469.994,-224 485.618,-224 500.281,-224"/>
<polygon fill="midnightblue" stroke="midnightblue" points="455.146,-220.5 445.146,-224 455.146,-227.5 455.146,-220.5"/>
</g>
<!-- Node9&#45;&gt;Node5 -->
<g id="edge10" class="edge"><title>Node9&#45;&gt;Node5</title>
<path fill="none" stroke="midnightblue" d="M449.028,-212.104C471.939,-206.763 498.604,-200.546 520.164,-195.52"/>
<polygon fill="midnightblue" stroke="midnightblue" points="448.076,-208.732 439.132,-214.411 449.665,-215.549 448.076,-208.732"/>
</g>
<!-- Node10&#45;&gt;Node9 -->
<g id="edge12" class="edge"><title>Node10&#45;&gt;Node9</title>
<path fill="none" stroke="midnightblue" d="M274.433,-250.247C299.319,-244.874 328.419,-238.591 351.907,-233.52"/>
<polygon fill="midnightblue" stroke="midnightblue" points="273.448,-246.879 264.412,-252.411 274.926,-253.722 273.448,-246.879"/>
</g>
</g>
</svg>
