<?xml version="1.0" encoding="UTF-8" standalone="no"?>
<!DOCTYPE svg PUBLIC "-//W3C//DTD SVG 1.1//EN"
 "http://www.w3.org/Graphics/SVG/1.1/DTD/svg11.dtd">
<!-- Generated by graphviz version 2.36.0 (20140111.2315)
 -->
<!-- Title: recoConsts::recoConsts Pages: 1 -->
<svg width="788pt" height="327pt"
 viewBox="0.00 0.00 788.00 327.00" xmlns="http://www.w3.org/2000/svg" xmlns:xlink="http://www.w3.org/1999/xlink">
<g id="graph0" class="graph" transform="scale(1 1) rotate(0) translate(4 323)">
<title>recoConsts::recoConsts</title>
<!-- Node1 -->
<g id="node1" class="node"><title>Node1</title>
<polygon fill="#bfbfbf" stroke="black" points="0,-133.5 0,-152.5 120,-152.5 120,-133.5 0,-133.5"/>
<text text-anchor="middle" x="60" y="-140.5" font-family="FreeSans" font-size="10.00">recoConsts::recoConsts</text>
</g>
<!-- Node2 -->
<g id="node2" class="node"><title>Node2</title>
<g id="a_node2"><a xlink:href="../../d8/d14/classrecoConsts.html#ae69a5c29a7199ba16d0e537158618802" target="_top" xlink:title="recoConsts::instance">
<polygon fill="none" stroke="black" points="156.5,-133.5 156.5,-152.5 263.5,-152.5 263.5,-133.5 156.5,-133.5"/>
<text text-anchor="middle" x="210" y="-140.5" font-family="FreeSans" font-size="10.00">recoConsts::instance</text>
</a>
</g>
</g>
<!-- Node1&#45;&gt;Node2 -->
<g id="edge1" class="edge"><title>Node1&#45;&gt;Node2</title>
<path fill="none" stroke="midnightblue" d="M130.483,-143C139.177,-143 147.954,-143 156.332,-143"/>
<polygon fill="midnightblue" stroke="midnightblue" points="130.345,-139.5 120.344,-143 130.344,-146.5 130.345,-139.5"/>
</g>
<!-- Node3 -->
<g id="node3" class="node"><title>Node3</title>
<g id="a_node3"><a xlink:href="../../df/d43/classFun4AllDummyInputManager.html#a3863cb07576f56e8e514ae272b322679" target="_top" xlink:title="Fun4AllDummyInputManager\l::setSyncManager">
<polygon fill="none" stroke="black" points="304,-289 304,-319 446,-319 446,-289 304,-289"/>
<text text-anchor="start" x="312" y="-307" font-family="FreeSans" font-size="10.00">Fun4AllDummyInputManager</text>
<text text-anchor="middle" x="375" y="-296" font-family="FreeSans" font-size="10.00">::setSyncManager</text>
</a>
</g>
</g>
<!-- Node2&#45;&gt;Node3 -->
<g id="edge2" class="edge"><title>Node2&#45;&gt;Node3</title>
<path fill="none" stroke="midnightblue" d="M218.709,-162.363C231.359,-191.739 259.255,-247.471 300,-279 304.933,-282.817 310.483,-286.07 316.268,-288.838"/>
<polygon fill="midnightblue" stroke="midnightblue" points="221.814,-160.716 214.742,-152.827 215.351,-163.405 221.814,-160.716"/>
</g>
<!-- Node4 -->
<g id="node4" class="node"><title>Node4</title>
<g id="a_node4"><a xlink:href="../../d3/d96/classFun4AllHistoManager.html#a61c2043c62739de451de3f9287832a08" target="_top" xlink:title="Fun4AllHistoManager\l::dumpHistos">
<polygon fill="none" stroke="black" points="320,-240 320,-270 430,-270 430,-240 320,-240"/>
<text text-anchor="start" x="328" y="-258" font-family="FreeSans" font-size="10.00">Fun4AllHistoManager</text>
<text text-anchor="middle" x="375" y="-247" font-family="FreeSans" font-size="10.00">::dumpHistos</text>
</a>
</g>
</g>
<!-- Node2&#45;&gt;Node4 -->
<g id="edge3" class="edge"><title>Node2&#45;&gt;Node4</title>
<path fill="none" stroke="midnightblue" d="M224.564,-160.309C240.65,-179.771 269.19,-211.113 300,-230 306.127,-233.756 312.89,-237.028 319.761,-239.856"/>
<polygon fill="midnightblue" stroke="midnightblue" points="227.283,-158.105 218.274,-152.528 221.839,-162.506 227.283,-158.105"/>
</g>
<!-- Node5 -->
<g id="node5" class="node"><title>Node5</title>
<g id="a_node5"><a xlink:href="../../d6/dc8/classFun4AllPrdfOutputManager.html#a34a327859dafb50190588e6393d8ec2b" target="_top" xlink:title="Fun4AllPrdfOutputManager\l::InitPrdfManager">
<polygon fill="none" stroke="black" points="308,-191 308,-221 442,-221 442,-191 308,-191"/>
<text text-anchor="start" x="316" y="-209" font-family="FreeSans" font-size="10.00">Fun4AllPrdfOutputManager</text>
<text text-anchor="middle" x="375" y="-198" font-family="FreeSans" font-size="10.00">::InitPrdfManager</text>
</a>
</g>
</g>
<!-- Node2&#45;&gt;Node5 -->
<g id="edge4" class="edge"><title>Node2&#45;&gt;Node5</title>
<path fill="none" stroke="midnightblue" d="M241.492,-156.714C258.565,-164.217 280.319,-173.487 300,-181 308.868,-184.385 318.419,-187.789 327.617,-190.947"/>
<polygon fill="midnightblue" stroke="midnightblue" points="242.592,-153.373 232.031,-152.527 239.759,-159.775 242.592,-153.373"/>
</g>
<!-- Node7 -->
<g id="node7" class="node"><title>Node7</title>
<g id="a_node7"><a xlink:href="../../da/d29/classFun4AllServer.html#ae508c2fa05d45ca09e101a4db9a9807d" target="_top" xlink:title="Fun4AllServer::~Fun4AllServer">
<polygon fill="none" stroke="black" points="300.5,-152.5 300.5,-171.5 449.5,-171.5 449.5,-152.5 300.5,-152.5"/>
<text text-anchor="middle" x="375" y="-159.5" font-family="FreeSans" font-size="10.00">Fun4AllServer::~Fun4AllServer</text>
</a>
</g>
</g>
<!-- Node2&#45;&gt;Node7 -->
<g id="edge6" class="edge"><title>Node2&#45;&gt;Node7</title>
<path fill="none" stroke="midnightblue" d="M273.911,-150.333C282.558,-151.341 291.499,-152.383 300.317,-153.411"/>
<polygon fill="midnightblue" stroke="midnightblue" points="274.259,-146.85 263.921,-149.169 273.449,-153.803 274.259,-146.85"/>
</g>
<!-- Node8 -->
<g id="node8" class="node"><title>Node8</title>
<g id="a_node8"><a xlink:href="../../da/d29/classFun4AllServer.html#ab7263450319ca1d5029209fde26a7af8" target="_top" xlink:title="Fun4AllServer::End">
<polygon fill="none" stroke="black" points="503.5,-38.5 503.5,-57.5 602.5,-57.5 602.5,-38.5 503.5,-38.5"/>
<text text-anchor="middle" x="553" y="-45.5" font-family="FreeSans" font-size="10.00">Fun4AllServer::End</text>
</a>
</g>
</g>
<!-- Node2&#45;&gt;Node8 -->
<g id="edge7" class="edge"><title>Node2&#45;&gt;Node8</title>
<path fill="none" stroke="midnightblue" d="M229.262,-126.638C246.294,-112.368 273.055,-92.373 300,-82 367.36,-56.0683 451.47,-49.3916 503.457,-47.9523"/>
<polygon fill="midnightblue" stroke="midnightblue" points="226.589,-124.321 221.293,-133.497 231.156,-129.626 226.589,-124.321"/>
</g>
<!-- Node11 -->
<g id="node11" class="node"><title>Node11</title>
<g id="a_node11"><a xlink:href="../../da/d29/classFun4AllServer.html#a11bbc8b2f53bc06e0b05ee202dd6372a" target="_top" xlink:title="run n events (0 means up to end of file) ">
<polygon fill="none" stroke="black" points="505,-76.5 505,-95.5 601,-95.5 601,-76.5 505,-76.5"/>
<text text-anchor="middle" x="553" y="-83.5" font-family="FreeSans" font-size="10.00">Fun4AllServer::run</text>
</a>
</g>
</g>
<!-- Node2&#45;&gt;Node11 -->
<g id="edge10" class="edge"><title>Node2&#45;&gt;Node11</title>
<path fill="none" stroke="midnightblue" d="M237.411,-129.002C254.715,-120.523 278.103,-110.344 300,-105 369.902,-87.9387 453.663,-84.9396 504.838,-84.9875"/>
<polygon fill="midnightblue" stroke="midnightblue" points="235.835,-125.877 228.472,-133.496 238.979,-132.131 235.835,-125.877"/>
</g>
<!-- Node12 -->
<g id="node12" class="node"><title>Node12</title>
<g id="a_node12"><a xlink:href="../../da/d29/classFun4AllServer.html#af1002b9170308da078c0e14a5ac4b514" target="_top" xlink:title="Fun4AllServer::setRun">
<polygon fill="none" stroke="black" points="318.5,-114.5 318.5,-133.5 431.5,-133.5 431.5,-114.5 318.5,-114.5"/>
<text text-anchor="middle" x="375" y="-121.5" font-family="FreeSans" font-size="10.00">Fun4AllServer::setRun</text>
</a>
</g>
</g>
<!-- Node2&#45;&gt;Node12 -->
<g id="edge13" class="edge"><title>Node2&#45;&gt;Node12</title>
<path fill="none" stroke="midnightblue" d="M273.884,-135.67C288.506,-133.966 303.971,-132.163 318.26,-130.497"/>
<polygon fill="midnightblue" stroke="midnightblue" points="273.449,-132.197 263.921,-136.831 274.259,-139.15 273.449,-132.197"/>
</g>
<!-- Node13 -->
<g id="node13" class="node"><title>Node13</title>
<g id="a_node13"><a xlink:href="../../dd/d1f/classPHRandomSeed.html#a2bde8781fe8b52f6f01d4160139f4f55" target="_top" xlink:title="PHRandomSeed::InitSeed">
<polygon fill="none" stroke="black" points="310,-0.5 310,-19.5 440,-19.5 440,-0.5 310,-0.5"/>
<text text-anchor="middle" x="375" y="-7.5" font-family="FreeSans" font-size="10.00">PHRandomSeed::InitSeed</text>
</a>
</g>
</g>
<!-- Node2&#45;&gt;Node13 -->
<g id="edge15" class="edge"><title>Node2&#45;&gt;Node13</title>
<path fill="none" stroke="midnightblue" d="M221.517,-124.377C236.111,-100.162 264.73,-58.1214 300,-34 309.142,-27.7481 320.019,-23.0389 330.583,-19.5255"/>
<polygon fill="midnightblue" stroke="midnightblue" points="218.338,-122.879 216.304,-133.277 224.378,-126.417 218.338,-122.879"/>
</g>
<!-- Node6 -->
<g id="node6" class="node"><title>Node6</title>
<g id="a_node6"><a xlink:href="../../d6/dc8/classFun4AllPrdfOutputManager.html#a6aaed7e9b0b32a481661fde72ff44fa2" target="_top" xlink:title="event write method (startNode argument is ignored. prdfNode is always used) ">
<polygon fill="none" stroke="black" points="486,-191 486,-221 620,-221 620,-191 486,-191"/>
<text text-anchor="start" x="494" y="-209" font-family="FreeSans" font-size="10.00">Fun4AllPrdfOutputManager</text>
<text text-anchor="middle" x="553" y="-198" font-family="FreeSans" font-size="10.00">::Write</text>
</a>
</g>
</g>
<!-- Node5&#45;&gt;Node6 -->
<g id="edge5" class="edge"><title>Node5&#45;&gt;Node6</title>
<path fill="none" stroke="midnightblue" d="M452.234,-206C463.44,-206 474.906,-206 485.886,-206"/>
<polygon fill="midnightblue" stroke="midnightblue" points="452.037,-202.5 442.037,-206 452.037,-209.5 452.037,-202.5"/>
</g>
<!-- Node9 -->
<g id="node9" class="node"><title>Node9</title>
<g id="a_node9"><a xlink:href="../../d0/d46/Fun4__SimpleReadMySql_8C.html#a70381893748e3445abc30632beb256ce" target="_top" xlink:title="Fun4_SimpleReadMySql">
<polygon fill="none" stroke="black" points="656.5,-76.5 656.5,-95.5 779.5,-95.5 779.5,-76.5 656.5,-76.5"/>
<text text-anchor="middle" x="718" y="-83.5" font-family="FreeSans" font-size="10.00">Fun4_SimpleReadMySql</text>
</a>
</g>
</g>
<!-- Node8&#45;&gt;Node9 -->
<g id="edge8" class="edge"><title>Node8&#45;&gt;Node9</title>
<path fill="none" stroke="midnightblue" d="M605.028,-59.8961C627.939,-65.2374 654.604,-71.4537 676.164,-76.4799"/>
<polygon fill="midnightblue" stroke="midnightblue" points="605.665,-56.4509 595.132,-57.589 604.076,-63.2681 605.665,-56.4509"/>
</g>
<!-- Node10 -->
<g id="node10" class="node"><title>Node10</title>
<g id="a_node10"><a xlink:href="../../d9/d8c/Fun4ReadMySql_8C.html#a729b39fa627147c63772f28c9be36b62" target="_top" xlink:title="Fun4ReadMySql">
<polygon fill="none" stroke="black" points="674,-38.5 674,-57.5 762,-57.5 762,-38.5 674,-38.5"/>
<text text-anchor="middle" x="718" y="-45.5" font-family="FreeSans" font-size="10.00">Fun4ReadMySql</text>
</a>
</g>
</g>
<!-- Node8&#45;&gt;Node10 -->
<g id="edge9" class="edge"><title>Node8&#45;&gt;Node10</title>
<path fill="none" stroke="midnightblue" d="M612.929,-48C633.095,-48 655.263,-48 673.939,-48"/>
<polygon fill="midnightblue" stroke="midnightblue" points="612.905,-44.5001 602.905,-48 612.905,-51.5001 612.905,-44.5001"/>
</g>
<!-- Node11&#45;&gt;Node9 -->
<g id="edge11" class="edge"><title>Node11&#45;&gt;Node9</title>
<path fill="none" stroke="midnightblue" d="M611.485,-86C625.994,-86 641.618,-86 656.281,-86"/>
<polygon fill="midnightblue" stroke="midnightblue" points="611.146,-82.5001 601.146,-86 611.146,-89.5001 611.146,-82.5001"/>
</g>
<!-- Node11&#45;&gt;Node10 -->
<g id="edge12" class="edge"><title>Node11&#45;&gt;Node10</title>
<path fill="none" stroke="midnightblue" d="M605.028,-74.1039C627.939,-68.7626 654.604,-62.5463 676.164,-57.5201"/>
<polygon fill="midnightblue" stroke="midnightblue" points="604.076,-70.7319 595.132,-76.411 605.665,-77.5491 604.076,-70.7319"/>
</g>
<!-- Node12&#45;&gt;Node11 -->
<g id="edge14" class="edge"><title>Node12&#45;&gt;Node11</title>
<path fill="none" stroke="midnightblue" d="M430.433,-112.247C455.319,-106.874 484.419,-100.591 507.907,-95.5201"/>
<polygon fill="midnightblue" stroke="midnightblue" points="429.448,-108.879 420.412,-114.411 430.926,-115.722 429.448,-108.879"/>
</g>
</g>
</svg>
