<?xml version="1.0" encoding="UTF-8" standalone="no"?>
<!DOCTYPE svg PUBLIC "-//W3C//DTD SVG 1.1//EN"
 "http://www.w3.org/Graphics/SVG/1.1/DTD/svg11.dtd">
<!-- Generated by graphviz version 2.36.0 (20140111.2315)
 -->
<!-- Title: fun4all/phool/PHTypedNodeIterator.h Pages: 1 -->
<svg width="967pt" height="232pt"
 viewBox="0.00 0.00 967.00 232.00" xmlns="http://www.w3.org/2000/svg" xmlns:xlink="http://www.w3.org/1999/xlink">
<g id="graph0" class="graph" transform="scale(1 1) rotate(0) translate(4 228)">
<title>fun4all/phool/PHTypedNodeIterator.h</title>
<!-- Node1 -->
<g id="node1" class="node"><title>Node1</title>
<polygon fill="#bfbfbf" stroke="black" points="62,-193 62,-223 200,-223 200,-193 62,-193"/>
<text text-anchor="start" x="70" y="-211" font-family="FreeSans" font-size="10.00">fun4all/phool/PHTypedNode</text>
<text text-anchor="middle" x="131" y="-200" font-family="FreeSans" font-size="10.00">Iterator.h</text>
</g>
<!-- Node2 -->
<g id="node2" class="node"><title>Node2</title>
<g id="a_node2"><a xlink:href="../../d8/d7a/Fun4AllServer_8cc.html" target="_top" xlink:title="fun4all/fun4all/Fun4AllServer.cc">
<polygon fill="none" stroke="black" points="0,-6.5 0,-25.5 154,-25.5 154,-6.5 0,-6.5"/>
<text text-anchor="middle" x="77" y="-13.5" font-family="FreeSans" font-size="10.00">fun4all/fun4all/Fun4AllServer.cc</text>
</a>
</g>
</g>
<!-- Node1&#45;&gt;Node2 -->
<g id="edge1" class="edge"><title>Node1&#45;&gt;Node2</title>
<path fill="none" stroke="midnightblue" d="M109.357,-185.344C90.8722,-165.198 65.6371,-133.345 55,-100 46.4826,-73.2998 62.3399,-41.0531 71.365,-25.8059"/>
<polygon fill="midnightblue" stroke="midnightblue" points="106.906,-187.847 116.311,-192.724 112,-183.046 106.906,-187.847"/>
</g>
<!-- Node3 -->
<g id="node3" class="node"><title>Node3</title>
<g id="a_node3"><a xlink:href="../../df/d03/Fun4AllSyncManager_8cc.html" target="_top" xlink:title="fun4all/fun4all/Fun4AllSync\lManager.cc">
<polygon fill="none" stroke="black" points="64,-69 64,-99 198,-99 198,-69 64,-69"/>
<text text-anchor="start" x="72" y="-87" font-family="FreeSans" font-size="10.00">fun4all/fun4all/Fun4AllSync</text>
<text text-anchor="middle" x="131" y="-76" font-family="FreeSans" font-size="10.00">Manager.cc</text>
</a>
</g>
</g>
<!-- Node1&#45;&gt;Node3 -->
<g id="edge2" class="edge"><title>Node1&#45;&gt;Node3</title>
<path fill="none" stroke="midnightblue" d="M131,-182.355C131,-157.318 131,-119.417 131,-99.0787"/>
<polygon fill="midnightblue" stroke="midnightblue" points="127.5,-182.526 131,-192.526 134.5,-182.526 127.5,-182.526"/>
</g>
<!-- Node4 -->
<g id="node4" class="node"><title>Node4</title>
<g id="a_node4"><a xlink:href="../../d3/d79/PHIODataNode_8h.html" target="_top" xlink:title="fun4all/phool/PHIODataNode.h">
<polygon fill="none" stroke="black" points="357,-136.5 357,-155.5 507,-155.5 507,-136.5 357,-136.5"/>
<text text-anchor="middle" x="432" y="-143.5" font-family="FreeSans" font-size="10.00">fun4all/phool/PHIODataNode.h</text>
</a>
</g>
</g>
<!-- Node1&#45;&gt;Node4 -->
<g id="edge3" class="edge"><title>Node1&#45;&gt;Node4</title>
<path fill="none" stroke="midnightblue" d="M210.18,-191.217C267.521,-179.787 342.829,-164.775 389.293,-155.513"/>
<polygon fill="midnightblue" stroke="midnightblue" points="209.178,-187.847 200.055,-193.235 210.547,-194.712 209.178,-187.847"/>
</g>
<!-- Node4&#45;&gt;Node3 -->
<g id="edge5" class="edge"><title>Node4&#45;&gt;Node3</title>
<path fill="none" stroke="midnightblue" d="M379.162,-134.468C328.781,-124.425 252.7,-109.259 198.065,-98.3685"/>
<polygon fill="midnightblue" stroke="midnightblue" points="378.702,-137.945 389.194,-136.467 380.071,-131.08 378.702,-137.945"/>
</g>
<!-- Node5 -->
<g id="node5" class="node"><title>Node5</title>
<g id="a_node5"><a xlink:href="../../d3/d53/Fun4AllDstInputManager_8cc.html" target="_top" xlink:title="fun4all/fun4all/Fun4AllDst\lInputManager.cc">
<polygon fill="none" stroke="black" points="177,-1 177,-31 305,-31 305,-1 177,-1"/>
<text text-anchor="start" x="185" y="-19" font-family="FreeSans" font-size="10.00">fun4all/fun4all/Fun4AllDst</text>
<text text-anchor="middle" x="241" y="-8" font-family="FreeSans" font-size="10.00">InputManager.cc</text>
</a>
</g>
</g>
<!-- Node4&#45;&gt;Node5 -->
<g id="edge4" class="edge"><title>Node4&#45;&gt;Node5</title>
<path fill="none" stroke="midnightblue" d="M422.608,-127.326C412.624,-110.054 395.342,-84.0798 374,-68 351.484,-51.0355 322.647,-39.0665 297.583,-31.0081"/>
<polygon fill="midnightblue" stroke="midnightblue" points="419.704,-129.306 427.619,-136.349 425.824,-125.907 419.704,-129.306"/>
</g>
<!-- Node6 -->
<g id="node6" class="node"><title>Node6</title>
<g id="a_node6"><a xlink:href="../../dd/d12/ReadMySql_8C.html" target="_top" xlink:title="fun4all/modules/ReadMySql.C">
<polygon fill="none" stroke="black" points="323,-6.5 323,-25.5 469,-25.5 469,-6.5 323,-6.5"/>
<text text-anchor="middle" x="396" y="-13.5" font-family="FreeSans" font-size="10.00">fun4all/modules/ReadMySql.C</text>
</a>
</g>
</g>
<!-- Node4&#45;&gt;Node6 -->
<g id="edge6" class="edge"><title>Node4&#45;&gt;Node6</title>
<path fill="none" stroke="midnightblue" d="M426.77,-126.403C418.856,-98.2646 404.151,-45.9829 398.397,-25.5224"/>
<polygon fill="midnightblue" stroke="midnightblue" points="423.449,-127.523 429.526,-136.202 430.187,-125.628 423.449,-127.523"/>
</g>
<!-- Node7 -->
<g id="node7" class="node"><title>Node7</title>
<g id="a_node7"><a xlink:href="../../dd/d2f/SimpleReadMySql_8C.html" target="_top" xlink:title="fun4all/modules/SimpleRead\lMySql.C">
<polygon fill="none" stroke="black" points="792,-1 792,-31 932,-31 932,-1 792,-1"/>
<text text-anchor="start" x="800" y="-19" font-family="FreeSans" font-size="10.00">fun4all/modules/SimpleRead</text>
<text text-anchor="middle" x="862" y="-8" font-family="FreeSans" font-size="10.00">MySql.C</text>
</a>
</g>
</g>
<!-- Node4&#45;&gt;Node7 -->
<g id="edge7" class="edge"><title>Node4&#45;&gt;Node7</title>
<path fill="none" stroke="midnightblue" d="M489.987,-134.182C520.32,-127.086 557.402,-116.085 588,-100 607.846,-89.5672 606.815,-77.7609 627,-68 641.869,-60.8096 728.155,-43.0204 791.881,-30.4837"/>
<polygon fill="midnightblue" stroke="midnightblue" points="488.963,-130.826 479.979,-136.441 490.504,-137.654 488.963,-130.826"/>
</g>
<!-- Node8 -->
<g id="node8" class="node"><title>Node8</title>
<g id="a_node8"><a xlink:href="../../dd/dd4/getClass_8h.html" target="_top" xlink:title="fun4all/phool/getClass.h">
<polygon fill="none" stroke="black" points="460,-74.5 460,-93.5 580,-93.5 580,-74.5 460,-74.5"/>
<text text-anchor="middle" x="520" y="-81.5" font-family="FreeSans" font-size="10.00">fun4all/phool/getClass.h</text>
</a>
</g>
</g>
<!-- Node4&#45;&gt;Node8 -->
<g id="edge8" class="edge"><title>Node4&#45;&gt;Node8</title>
<path fill="none" stroke="midnightblue" d="M453.279,-130.492C470.204,-118.952 493.31,-103.198 507.415,-93.5806"/>
<polygon fill="midnightblue" stroke="midnightblue" points="450.899,-127.878 444.608,-136.403 454.842,-133.662 450.899,-127.878"/>
</g>
<!-- Node11 -->
<g id="node11" class="node"><title>Node11</title>
<g id="a_node11"><a xlink:href="../../d7/d95/PHDataNodeIterator_8h.html" target="_top" xlink:title="fun4all/phool/PHDataNode\lIterator.h">
<polygon fill="none" stroke="black" points="636,-69 636,-99 768,-99 768,-69 636,-69"/>
<text text-anchor="start" x="644" y="-87" font-family="FreeSans" font-size="10.00">fun4all/phool/PHDataNode</text>
<text text-anchor="middle" x="702" y="-76" font-family="FreeSans" font-size="10.00">Iterator.h</text>
</a>
</g>
</g>
<!-- Node4&#45;&gt;Node11 -->
<g id="edge15" class="edge"><title>Node4&#45;&gt;Node11</title>
<path fill="none" stroke="midnightblue" d="M480.327,-134.261C524.571,-124.429 590.334,-109.815 638.746,-99.0565"/>
<polygon fill="midnightblue" stroke="midnightblue" points="479.4,-130.881 470.398,-136.467 480.919,-137.714 479.4,-130.881"/>
</g>
<!-- Node12 -->
<g id="node12" class="node"><title>Node12</title>
<g id="a_node12"><a xlink:href="../../d7/d32/PHNodeIOManager_8cc.html" target="_top" xlink:title="fun4all/phool/PHNodeIOManager.cc">
<polygon fill="none" stroke="black" points="786.5,-74.5 786.5,-93.5 959.5,-93.5 959.5,-74.5 786.5,-74.5"/>
<text text-anchor="middle" x="873" y="-81.5" font-family="FreeSans" font-size="10.00">fun4all/phool/PHNodeIOManager.cc</text>
</a>
</g>
</g>
<!-- Node4&#45;&gt;Node12 -->
<g id="edge16" class="edge"><title>Node4&#45;&gt;Node12</title>
<path fill="none" stroke="midnightblue" d="M511.522,-135.207C581.498,-126.452 686.102,-113.027 777,-100 790.943,-98.0017 806.004,-95.7112 819.97,-93.5316"/>
<polygon fill="midnightblue" stroke="midnightblue" points="510.944,-131.752 501.455,-136.464 511.812,-138.698 510.944,-131.752"/>
</g>
<!-- Node13 -->
<g id="node13" class="node"><title>Node13</title>
<g id="a_node13"><a xlink:href="../../dc/d01/PHNodeReset_8cc.html" target="_top" xlink:title="fun4all/phool/PHNodeReset.cc">
<polygon fill="none" stroke="black" points="216,-74.5 216,-93.5 366,-93.5 366,-74.5 216,-74.5"/>
<text text-anchor="middle" x="291" y="-81.5" font-family="FreeSans" font-size="10.00">fun4all/phool/PHNodeReset.cc</text>
</a>
</g>
</g>
<!-- Node4&#45;&gt;Node13 -->
<g id="edge17" class="edge"><title>Node4&#45;&gt;Node13</title>
<path fill="none" stroke="midnightblue" d="M402.33,-132.374C374.945,-120.721 335.02,-103.732 311.164,-93.5806"/>
<polygon fill="midnightblue" stroke="midnightblue" points="401.226,-135.708 411.798,-136.403 403.967,-129.267 401.226,-135.708"/>
</g>
<!-- Node8&#45;&gt;Node2 -->
<g id="edge12" class="edge"><title>Node8&#45;&gt;Node2</title>
<path fill="none" stroke="midnightblue" d="M449.664,-73.2201C378.566,-63.2378 265.566,-47.1077 168,-32 154.867,-29.9664 140.684,-27.6747 127.512,-25.506"/>
<polygon fill="midnightblue" stroke="midnightblue" points="449.454,-76.7248 459.843,-74.6475 450.426,-69.7926 449.454,-76.7248"/>
</g>
<!-- Node8&#45;&gt;Node5 -->
<g id="edge9" class="edge"><title>Node8&#45;&gt;Node5</title>
<path fill="none" stroke="midnightblue" d="M473.802,-72.0715C426.287,-60.8313 352.104,-43.2826 300.286,-31.0247"/>
<polygon fill="midnightblue" stroke="midnightblue" points="473.274,-75.5432 483.812,-74.4393 474.886,-68.7312 473.274,-75.5432"/>
</g>
<!-- Node8&#45;&gt;Node6 -->
<g id="edge13" class="edge"><title>Node8&#45;&gt;Node6</title>
<path fill="none" stroke="midnightblue" d="M494.664,-69.5149C469.981,-56.3767 433.196,-36.7981 412.215,-25.6305"/>
<polygon fill="midnightblue" stroke="midnightblue" points="493.317,-72.7627 503.789,-74.3717 496.606,-66.5835 493.317,-72.7627"/>
</g>
<!-- Node8&#45;&gt;Node7 -->
<g id="edge14" class="edge"><title>Node8&#45;&gt;Node7</title>
<path fill="none" stroke="midnightblue" d="M571.862,-72.4057C579.289,-70.9124 586.837,-69.4074 594,-68 631.005,-60.7288 725.679,-42.7684 791.954,-30.2315"/>
<polygon fill="midnightblue" stroke="midnightblue" points="570.967,-69.0157 561.857,-74.4248 572.352,-75.8774 570.967,-69.0157"/>
</g>
<!-- Node9 -->
<g id="node9" class="node"><title>Node9</title>
<g id="a_node9"><a xlink:href="../../d6/dbe/Fun4AllEventOutputManager_8cc.html" target="_top" xlink:title="fun4all/fun4all/Fun4AllEvent\lOutputManager.cc">
<polygon fill="none" stroke="black" points="487.5,-1 487.5,-31 624.5,-31 624.5,-1 487.5,-1"/>
<text text-anchor="start" x="495.5" y="-19" font-family="FreeSans" font-size="10.00">fun4all/fun4all/Fun4AllEvent</text>
<text text-anchor="middle" x="556" y="-8" font-family="FreeSans" font-size="10.00">OutputManager.cc</text>
</a>
</g>
</g>
<!-- Node8&#45;&gt;Node9 -->
<g id="edge10" class="edge"><title>Node8&#45;&gt;Node9</title>
<path fill="none" stroke="midnightblue" d="M529.545,-65.5003C535.394,-54.7781 542.783,-41.2311 548.265,-31.1815"/>
<polygon fill="midnightblue" stroke="midnightblue" points="526.422,-63.9167 524.706,-74.3717 532.568,-67.2687 526.422,-63.9167"/>
</g>
<!-- Node10 -->
<g id="node10" class="node"><title>Node10</title>
<g id="a_node10"><a xlink:href="../../da/d7b/Fun4AllPrdfInputManager_8cc.html" target="_top" xlink:title="fun4all/fun4all/Fun4AllPrdf\lInputManager.cc">
<polygon fill="none" stroke="black" points="642.5,-1 642.5,-31 773.5,-31 773.5,-1 642.5,-1"/>
<text text-anchor="start" x="650.5" y="-19" font-family="FreeSans" font-size="10.00">fun4all/fun4all/Fun4AllPrdf</text>
<text text-anchor="middle" x="708" y="-8" font-family="FreeSans" font-size="10.00">InputManager.cc</text>
</a>
</g>
</g>
<!-- Node8&#45;&gt;Node10 -->
<g id="edge11" class="edge"><title>Node8&#45;&gt;Node10</title>
<path fill="none" stroke="midnightblue" d="M554.391,-70.9265C586.436,-59.6768 634.214,-42.9036 667.961,-31.0562"/>
<polygon fill="midnightblue" stroke="midnightblue" points="552.854,-67.7567 544.578,-74.3717 555.173,-74.3616 552.854,-67.7567"/>
</g>
</g>
</svg>
