<?xml version="1.0" encoding="UTF-8" standalone="no"?>
<!DOCTYPE svg PUBLIC "-//W3C//DTD SVG 1.1//EN"
 "http://www.w3.org/Graphics/SVG/1.1/DTD/svg11.dtd">
<!-- Generated by graphviz version 2.36.0 (20140111.2315)
 -->
<!-- Title: SHitMap::insert Pages: 1 -->
<svg width="406pt" height="82pt"
 viewBox="0.00 0.00 406.00 82.00" xmlns="http://www.w3.org/2000/svg" xmlns:xlink="http://www.w3.org/1999/xlink">
<g id="graph0" class="graph" transform="scale(1 1) rotate(0) translate(4 78)">
<title>SHitMap::insert</title>
<!-- Node1 -->
<g id="node1" class="node"><title>Node1</title>
<polygon fill="#bfbfbf" stroke="black" points="0.5,-27.5 0.5,-46.5 83.5,-46.5 83.5,-27.5 0.5,-27.5"/>
<text text-anchor="middle" x="42" y="-34.5" font-family="FreeSans" font-size="10.00">SHitMap::insert</text>
</g>
<!-- Node2 -->
<g id="node2" class="node"><title>Node2</title>
<g id="a_node2"><a xlink:href="../../db/dda/classReadMySql.html#ad8a5a442bb429b679cb6ee50f627d0f2" target="_top" xlink:title="ReadMySql::FillSHitMap">
<polygon fill="none" stroke="black" points="127,-49.5 127,-68.5 249,-68.5 249,-49.5 127,-49.5"/>
<text text-anchor="middle" x="188" y="-56.5" font-family="FreeSans" font-size="10.00">ReadMySql::FillSHitMap</text>
</a>
</g>
</g>
<!-- Node1&#45;&gt;Node2 -->
<g id="edge1" class="edge"><title>Node1&#45;&gt;Node2</title>
<path fill="none" stroke="midnightblue" d="M93.8841,-44.774C104.573,-46.407 115.943,-48.1441 126.931,-49.8229"/>
<polygon fill="midnightblue" stroke="midnightblue" points="94.2934,-41.296 83.8794,-43.2455 93.2361,-48.2157 94.2934,-41.296"/>
</g>
<!-- Node4 -->
<g id="node4" class="node"><title>Node4</title>
<g id="a_node4"><a xlink:href="../../d0/d68/classSimpleReadMySql.html#a80b8383438a4d0c279abec571ba39f84" target="_top" xlink:title="SimpleReadMySql::process\l_event">
<polygon fill="none" stroke="black" points="120.5,-0 120.5,-30 255.5,-30 255.5,-0 120.5,-0"/>
<text text-anchor="start" x="128.5" y="-18" font-family="FreeSans" font-size="10.00">SimpleReadMySql::process</text>
<text text-anchor="middle" x="188" y="-7" font-family="FreeSans" font-size="10.00">_event</text>
</a>
</g>
</g>
<!-- Node1&#45;&gt;Node4 -->
<g id="edge3" class="edge"><title>Node1&#45;&gt;Node4</title>
<path fill="none" stroke="midnightblue" d="M94.0443,-29.2016C102.583,-27.8971 111.552,-26.5269 120.411,-25.1734"/>
<polygon fill="midnightblue" stroke="midnightblue" points="93.2361,-25.7843 83.8794,-30.7545 94.2934,-32.704 93.2361,-25.7843"/>
</g>
<!-- Node3 -->
<g id="node3" class="node"><title>Node3</title>
<g id="a_node3"><a xlink:href="../../db/dda/classReadMySql.html#aef5367b1b70eb7b88d513750e78fc872" target="_top" xlink:title="ReadMySql::process\l_event">
<polygon fill="none" stroke="black" points="292.5,-44 292.5,-74 397.5,-74 397.5,-44 292.5,-44"/>
<text text-anchor="start" x="300.5" y="-62" font-family="FreeSans" font-size="10.00">ReadMySql::process</text>
<text text-anchor="middle" x="345" y="-51" font-family="FreeSans" font-size="10.00">_event</text>
</a>
</g>
</g>
<!-- Node2&#45;&gt;Node3 -->
<g id="edge2" class="edge"><title>Node2&#45;&gt;Node3</title>
<path fill="none" stroke="midnightblue" d="M259.398,-59C270.403,-59 281.601,-59 292.094,-59"/>
<polygon fill="midnightblue" stroke="midnightblue" points="259.371,-55.5001 249.371,-59 259.371,-62.5001 259.371,-55.5001"/>
</g>
</g>
</svg>
