<?xml version="1.0" encoding="UTF-8" standalone="no"?>
<!DOCTYPE svg PUBLIC "-//W3C//DTD SVG 1.1//EN"
 "http://www.w3.org/Graphics/SVG/1.1/DTD/svg11.dtd">
<!-- Generated by graphviz version 2.36.0 (20140111.2315)
 -->
<!-- Title: Doxygen_Assist/array.hpp Pages: 1 -->
<svg width="966pt" height="84pt"
 viewBox="0.00 0.00 966.00 84.00" xmlns="http://www.w3.org/2000/svg" xmlns:xlink="http://www.w3.org/1999/xlink">
<g id="graph0" class="graph" transform="scale(1 1) rotate(0) translate(4 80)">
<title>Doxygen_Assist/array.hpp</title>
<!-- Node1 -->
<g id="node1" class="node"><title>Node1</title>
<polygon fill="#bfbfbf" stroke="black" points="386,-56.5 386,-75.5 514,-75.5 514,-56.5 386,-56.5"/>
<text text-anchor="middle" x="450" y="-63.5" font-family="FreeSans" font-size="10.00">Doxygen_Assist/array.hpp</text>
</g>
<!-- Node2 -->
<g id="node2" class="node"><title>Node2</title>
<polygon fill="none" stroke="#bfbfbf" points="0,-0.5 0,-19.5 138,-19.5 138,-0.5 0,-0.5"/>
<text text-anchor="middle" x="69" y="-7.5" font-family="FreeSans" font-size="10.00">boost/detail/workaround.hpp</text>
</g>
<!-- Node1&#45;&gt;Node2 -->
<g id="edge1" class="edge"><title>Node1&#45;&gt;Node2</title>
<path fill="none" stroke="midnightblue" d="M389.629,-56.4435C321.632,-46.8061 211.264,-31.1635 139.402,-20.9782"/>
<polygon fill="midnightblue" stroke="midnightblue" points="139.48,-17.4544 129.088,-19.5164 138.498,-24.3852 139.48,-17.4544"/>
</g>
<!-- Node3 -->
<g id="node3" class="node"><title>Node3</title>
<polygon fill="none" stroke="#bfbfbf" points="156.5,-0.5 156.5,-19.5 205.5,-19.5 205.5,-0.5 156.5,-0.5"/>
<text text-anchor="middle" x="181" y="-7.5" font-family="FreeSans" font-size="10.00">cstddef</text>
</g>
<!-- Node1&#45;&gt;Node3 -->
<g id="edge2" class="edge"><title>Node1&#45;&gt;Node3</title>
<path fill="none" stroke="midnightblue" d="M399.121,-56.4782C353.41,-48.5569 284.253,-35.9196 215.891,-20.3136"/>
<polygon fill="midnightblue" stroke="midnightblue" points="216.345,-16.8264 205.814,-17.9898 214.772,-23.6474 216.345,-16.8264"/>
</g>
<!-- Node4 -->
<g id="node4" class="node"><title>Node4</title>
<polygon fill="none" stroke="#bfbfbf" points="223.5,-0.5 223.5,-19.5 282.5,-19.5 282.5,-0.5 223.5,-0.5"/>
<text text-anchor="middle" x="253" y="-7.5" font-family="FreeSans" font-size="10.00">stdexcept</text>
</g>
<!-- Node1&#45;&gt;Node4 -->
<g id="edge3" class="edge"><title>Node1&#45;&gt;Node4</title>
<path fill="none" stroke="midnightblue" d="M418.785,-56.4435C384.67,-47.0924 329.93,-32.0874 292.764,-21.8999"/>
<polygon fill="midnightblue" stroke="midnightblue" points="293.349,-18.4311 282.78,-19.1629 291.499,-25.1821 293.349,-18.4311"/>
</g>
<!-- Node5 -->
<g id="node5" class="node"><title>Node5</title>
<polygon fill="none" stroke="#bfbfbf" points="300.5,-0.5 300.5,-19.5 389.5,-19.5 389.5,-0.5 300.5,-0.5"/>
<text text-anchor="middle" x="345" y="-7.5" font-family="FreeSans" font-size="10.00">boost/assert.hpp</text>
</g>
<!-- Node1&#45;&gt;Node5 -->
<g id="edge4" class="edge"><title>Node1&#45;&gt;Node5</title>
<path fill="none" stroke="midnightblue" d="M433.13,-56.324C416.291,-47.6641 390.193,-34.2424 370.762,-24.249"/>
<polygon fill="midnightblue" stroke="midnightblue" points="372.322,-21.1155 361.828,-19.6545 369.12,-27.3405 372.322,-21.1155"/>
</g>
<!-- Node6 -->
<g id="node6" class="node"><title>Node6</title>
<polygon fill="none" stroke="#bfbfbf" points="407.5,-0.5 407.5,-19.5 492.5,-19.5 492.5,-0.5 407.5,-0.5"/>
<text text-anchor="middle" x="450" y="-7.5" font-family="FreeSans" font-size="10.00">boost/swap.hpp</text>
</g>
<!-- Node1&#45;&gt;Node6 -->
<g id="edge5" class="edge"><title>Node1&#45;&gt;Node6</title>
<path fill="none" stroke="midnightblue" d="M450,-56.083C450,-49.0059 450,-38.8611 450,-29.9865"/>
<polygon fill="midnightblue" stroke="midnightblue" points="453.5,-29.751 450,-19.7511 446.5,-29.7511 453.5,-29.751"/>
</g>
<!-- Node7 -->
<g id="node7" class="node"><title>Node7</title>
<polygon fill="none" stroke="#bfbfbf" points="511,-0.5 511,-19.5 629,-19.5 629,-0.5 511,-0.5"/>
<text text-anchor="middle" x="570" y="-7.5" font-family="FreeSans" font-size="10.00">boost/detail/iterator.hpp</text>
</g>
<!-- Node1&#45;&gt;Node7 -->
<g id="edge6" class="edge"><title>Node1&#45;&gt;Node7</title>
<path fill="none" stroke="midnightblue" d="M469.014,-56.4435C488.588,-47.6356 519.308,-33.8116 541.729,-23.722"/>
<polygon fill="midnightblue" stroke="midnightblue" points="543.392,-26.8119 551.075,-19.5164 540.519,-20.4284 543.392,-26.8119"/>
</g>
<!-- Node8 -->
<g id="node8" class="node"><title>Node8</title>
<polygon fill="none" stroke="#bfbfbf" points="647,-0.5 647,-19.5 779,-19.5 779,-0.5 647,-0.5"/>
<text text-anchor="middle" x="713" y="-7.5" font-family="FreeSans" font-size="10.00">boost/throw_exception.hpp</text>
</g>
<!-- Node1&#45;&gt;Node8 -->
<g id="edge7" class="edge"><title>Node1&#45;&gt;Node8</title>
<path fill="none" stroke="midnightblue" d="M491.673,-56.4435C537.745,-46.9839 611.996,-31.7384 661.631,-21.5472"/>
<polygon fill="midnightblue" stroke="midnightblue" points="662.43,-24.9563 671.522,-19.5164 661.022,-18.0993 662.43,-24.9563"/>
</g>
<!-- Node9 -->
<g id="node9" class="node"><title>Node9</title>
<polygon fill="none" stroke="#bfbfbf" points="797,-0.5 797,-19.5 853,-19.5 853,-0.5 797,-0.5"/>
<text text-anchor="middle" x="825" y="-7.5" font-family="FreeSans" font-size="10.00">algorithm</text>
</g>
<!-- Node1&#45;&gt;Node9 -->
<g id="edge8" class="edge"><title>Node1&#45;&gt;Node9</title>
<path fill="none" stroke="midnightblue" d="M514.177,-58.5101C580.207,-51.3697 686.204,-38.6233 786.76,-20.0636"/>
<polygon fill="midnightblue" stroke="midnightblue" points="787.598,-23.4675 796.785,-18.1901 786.312,-16.5866 787.598,-23.4675"/>
</g>
<!-- Node10 -->
<g id="node10" class="node"><title>Node10</title>
<polygon fill="none" stroke="#bfbfbf" points="871.5,-0.5 871.5,-19.5 958.5,-19.5 958.5,-0.5 871.5,-0.5"/>
<text text-anchor="middle" x="915" y="-7.5" font-family="FreeSans" font-size="10.00">boost/config.hpp</text>
</g>
<!-- Node1&#45;&gt;Node10 -->
<g id="edge9" class="edge"><title>Node1&#45;&gt;Node10</title>
<path fill="none" stroke="midnightblue" d="M514.209,-59.0949C595.206,-51.3873 738.696,-36.8739 861,-20 861.106,-19.9854 861.212,-19.9707 861.318,-19.956"/>
<polygon fill="midnightblue" stroke="midnightblue" points="862.024,-23.39 871.413,-18.48 861.012,-16.4637 862.024,-23.39"/>
</g>
</g>
</svg>
