<?xml version="1.0" encoding="UTF-8" standalone="no"?>
<!DOCTYPE svg PUBLIC "-//W3C//DTD SVG 1.1//EN"
 "http://www.w3.org/Graphics/SVG/1.1/DTD/svg11.dtd">
<!-- Generated by graphviz version 2.36.0 (20140111.2315)
 -->
<!-- Title: PHNode::print Pages: 1 -->
<svg width="998pt" height="115pt"
 viewBox="0.00 0.00 998.00 115.00" xmlns="http://www.w3.org/2000/svg" xmlns:xlink="http://www.w3.org/1999/xlink">
<g id="graph0" class="graph" transform="scale(1 1) rotate(0) translate(4 111)">
<title>PHNode::print</title>
<!-- Node1 -->
<g id="node1" class="node"><title>Node1</title>
<polygon fill="#bfbfbf" stroke="black" points="0.5,-22.5 0.5,-41.5 77.5,-41.5 77.5,-22.5 0.5,-22.5"/>
<text text-anchor="middle" x="39" y="-29.5" font-family="FreeSans" font-size="10.00">PHNode::print</text>
</g>
<!-- Node2 -->
<g id="node2" class="node"><title>Node2</title>
<g id="a_node2"><a xlink:href="../../d5/dca/classPHCompositeNode.html#a6a3a273adbb9f7ec652b5227212a6b2d" target="_top" xlink:title="PHCompositeNode::print">
<polygon fill="none" stroke="black" points="114,-22.5 114,-41.5 238,-41.5 238,-22.5 114,-22.5"/>
<text text-anchor="middle" x="176" y="-29.5" font-family="FreeSans" font-size="10.00">PHCompositeNode::print</text>
</a>
</g>
</g>
<!-- Node1&#45;&gt;Node2 -->
<g id="edge1" class="edge"><title>Node1&#45;&gt;Node2</title>
<path fill="none" stroke="midnightblue" d="M87.6544,-32C96.1115,-32 105.025,-32 113.795,-32"/>
<polygon fill="midnightblue" stroke="midnightblue" points="87.6051,-28.5001 77.605,-32 87.605,-35.5001 87.6051,-28.5001"/>
</g>
<!-- Node3 -->
<g id="node3" class="node"><title>Node3</title>
<g id="a_node3"><a xlink:href="../../d5/d07/classPHNodeIterator.html#aec2fbc1e56be7e1a0b064ecde48edee5" target="_top" xlink:title="PHNodeIterator::print">
<polygon fill="none" stroke="black" points="274,-22.5 274,-41.5 382,-41.5 382,-22.5 274,-22.5"/>
<text text-anchor="middle" x="328" y="-29.5" font-family="FreeSans" font-size="10.00">PHNodeIterator::print</text>
</a>
</g>
</g>
<!-- Node2&#45;&gt;Node3 -->
<g id="edge2" class="edge"><title>Node2&#45;&gt;Node3</title>
<path fill="none" stroke="midnightblue" d="M248.089,-32C256.726,-32 265.431,-32 273.746,-32"/>
<polygon fill="midnightblue" stroke="midnightblue" points="248.011,-28.5001 238.011,-32 248.011,-35.5001 248.011,-28.5001"/>
</g>
<!-- Node4 -->
<g id="node4" class="node"><title>Node4</title>
<g id="a_node4"><a xlink:href="../../da/d29/classFun4AllServer.html#a6a65a944dfb40966ace97d35ab1f7942" target="_top" xlink:title="Fun4AllServer::process\l_event">
<polygon fill="none" stroke="black" points="418.5,-39 418.5,-69 535.5,-69 535.5,-39 418.5,-39"/>
<text text-anchor="start" x="426.5" y="-57" font-family="FreeSans" font-size="10.00">Fun4AllServer::process</text>
<text text-anchor="middle" x="477" y="-46" font-family="FreeSans" font-size="10.00">_event</text>
</a>
</g>
</g>
<!-- Node3&#45;&gt;Node4 -->
<g id="edge3" class="edge"><title>Node3&#45;&gt;Node4</title>
<path fill="none" stroke="midnightblue" d="M392.143,-41.45C400.826,-42.7495 409.706,-44.0784 418.284,-45.3622"/>
<polygon fill="midnightblue" stroke="midnightblue" points="392.478,-37.9613 382.07,-39.9425 391.442,-44.8842 392.478,-37.9613"/>
</g>
<!-- Node9 -->
<g id="node9" class="node"><title>Node9</title>
<g id="a_node9"><a xlink:href="../../da/d29/classFun4AllServer.html#ae1b1a243ee1a67367c8da4ec3bdc003d" target="_top" xlink:title="Fun4AllServer::Print">
<polygon fill="none" stroke="black" points="425.5,-0.5 425.5,-19.5 528.5,-19.5 528.5,-0.5 425.5,-0.5"/>
<text text-anchor="middle" x="477" y="-7.5" font-family="FreeSans" font-size="10.00">Fun4AllServer::Print</text>
</a>
</g>
</g>
<!-- Node3&#45;&gt;Node9 -->
<g id="edge8" class="edge"><title>Node3&#45;&gt;Node9</title>
<path fill="none" stroke="midnightblue" d="M392.167,-22.5465C403.292,-20.8815 414.74,-19.1682 425.462,-17.5635"/>
<polygon fill="midnightblue" stroke="midnightblue" points="391.442,-19.1158 382.07,-24.0575 392.478,-26.0387 391.442,-19.1158"/>
</g>
<!-- Node5 -->
<g id="node5" class="node"><title>Node5</title>
<g id="a_node5"><a xlink:href="../../da/d29/classFun4AllServer.html#a94738b092fa009fcea45737d8ea41224" target="_top" xlink:title="Fun4AllServer::process\l_event">
<polygon fill="none" stroke="black" points="576.5,-77 576.5,-107 693.5,-107 693.5,-77 576.5,-77"/>
<text text-anchor="start" x="584.5" y="-95" font-family="FreeSans" font-size="10.00">Fun4AllServer::process</text>
<text text-anchor="middle" x="635" y="-84" font-family="FreeSans" font-size="10.00">_event</text>
</a>
</g>
</g>
<!-- Node4&#45;&gt;Node5 -->
<g id="edge4" class="edge"><title>Node4&#45;&gt;Node5</title>
<path fill="none" stroke="midnightblue" d="M545.419,-70.4225C555.718,-72.9312 566.267,-75.501 576.331,-77.9525"/>
<polygon fill="midnightblue" stroke="midnightblue" points="546.19,-67.008 535.645,-68.0418 544.533,-73.8092 546.19,-67.008"/>
</g>
<!-- Node6 -->
<g id="node6" class="node"><title>Node6</title>
<g id="a_node6"><a xlink:href="../../da/d29/classFun4AllServer.html#a11bbc8b2f53bc06e0b05ee202dd6372a" target="_top" xlink:title="run n events (0 means up to end of file) ">
<polygon fill="none" stroke="black" points="734,-19.5 734,-38.5 830,-38.5 830,-19.5 734,-19.5"/>
<text text-anchor="middle" x="782" y="-26.5" font-family="FreeSans" font-size="10.00">Fun4AllServer::run</text>
</a>
</g>
</g>
<!-- Node4&#45;&gt;Node6 -->
<g id="edge5" class="edge"><title>Node4&#45;&gt;Node6</title>
<path fill="none" stroke="midnightblue" d="M545.754,-48.4097C603.003,-43.6862 683.515,-37.0433 733.946,-32.8824"/>
<polygon fill="midnightblue" stroke="midnightblue" points="545.383,-44.9283 535.705,-49.2388 545.959,-51.9046 545.383,-44.9283"/>
</g>
<!-- Node7 -->
<g id="node7" class="node"><title>Node7</title>
<g id="a_node7"><a xlink:href="../../d0/d46/Fun4__SimpleReadMySql_8C.html#a70381893748e3445abc30632beb256ce" target="_top" xlink:title="Fun4_SimpleReadMySql">
<polygon fill="none" stroke="black" points="866.5,-38.5 866.5,-57.5 989.5,-57.5 989.5,-38.5 866.5,-38.5"/>
<text text-anchor="middle" x="928" y="-45.5" font-family="FreeSans" font-size="10.00">Fun4_SimpleReadMySql</text>
</a>
</g>
</g>
<!-- Node6&#45;&gt;Node7 -->
<g id="edge6" class="edge"><title>Node6&#45;&gt;Node7</title>
<path fill="none" stroke="midnightblue" d="M840.109,-36.5352C848.736,-37.6735 857.66,-38.851 866.358,-39.9986"/>
<polygon fill="midnightblue" stroke="midnightblue" points="840.523,-33.0596 830.151,-35.2213 839.607,-39.9994 840.523,-33.0596"/>
</g>
<!-- Node8 -->
<g id="node8" class="node"><title>Node8</title>
<g id="a_node8"><a xlink:href="../../d9/d8c/Fun4ReadMySql_8C.html#a729b39fa627147c63772f28c9be36b62" target="_top" xlink:title="Fun4ReadMySql">
<polygon fill="none" stroke="black" points="884,-0.5 884,-19.5 972,-19.5 972,-0.5 884,-0.5"/>
<text text-anchor="middle" x="928" y="-7.5" font-family="FreeSans" font-size="10.00">Fun4ReadMySql</text>
</a>
</g>
</g>
<!-- Node6&#45;&gt;Node8 -->
<g id="edge7" class="edge"><title>Node6&#45;&gt;Node8</title>
<path fill="none" stroke="midnightblue" d="M840.457,-21.4189C854.854,-19.5193 870.061,-17.5128 883.643,-15.7208"/>
<polygon fill="midnightblue" stroke="midnightblue" points="839.607,-18.0006 830.151,-22.7787 840.523,-24.9404 839.607,-18.0006"/>
</g>
<!-- Node10 -->
<g id="node10" class="node"><title>Node10</title>
<g id="a_node10"><a xlink:href="../../da/d29/classFun4AllServer.html#afcfc5583204cac58b4e66a2406187a18" target="_top" xlink:title="Fun4AllServer::BeginRun">
<polygon fill="none" stroke="black" points="572.5,-0.5 572.5,-19.5 697.5,-19.5 697.5,-0.5 572.5,-0.5"/>
<text text-anchor="middle" x="635" y="-7.5" font-family="FreeSans" font-size="10.00">Fun4AllServer::BeginRun</text>
</a>
</g>
</g>
<!-- Node9&#45;&gt;Node10 -->
<g id="edge9" class="edge"><title>Node9&#45;&gt;Node10</title>
<path fill="none" stroke="midnightblue" d="M538.663,-10C549.748,-10 561.325,-10 572.437,-10"/>
<polygon fill="midnightblue" stroke="midnightblue" points="538.649,-6.5001 528.649,-10 538.649,-13.5001 538.649,-6.5001"/>
</g>
<!-- Node10&#45;&gt;Node6 -->
<g id="edge10" class="edge"><title>Node10&#45;&gt;Node6</title>
<path fill="none" stroke="midnightblue" d="M708.109,-19.4488C716.823,-20.5906 725.544,-21.7333 733.769,-22.8111"/>
<polygon fill="midnightblue" stroke="midnightblue" points="708.284,-15.9418 697.914,-18.1128 707.374,-22.8825 708.284,-15.9418"/>
</g>
</g>
</svg>
