<?xml version="1.0" encoding="UTF-8" standalone="no"?>
<!DOCTYPE svg PUBLIC "-//W3C//DTD SVG 1.1//EN"
 "http://www.w3.org/Graphics/SVG/1.1/DTD/svg11.dtd">
<!-- Generated by graphviz version 2.36.0 (20140111.2315)
 -->
<!-- Title: PHNode::setParent Pages: 1 -->
<svg width="1510pt" height="297pt"
 viewBox="0.00 0.00 1510.00 297.02" xmlns="http://www.w3.org/2000/svg" xmlns:xlink="http://www.w3.org/1999/xlink">
<g id="graph0" class="graph" transform="scale(1 1) rotate(0) translate(4 293.017)">
<title>PHNode::setParent</title>
<!-- Node1 -->
<g id="node1" class="node"><title>Node1</title>
<polygon fill="#bfbfbf" stroke="black" points="0.5,-126.5 0.5,-145.5 101.5,-145.5 101.5,-126.5 0.5,-126.5"/>
<text text-anchor="middle" x="51" y="-133.5" font-family="FreeSans" font-size="10.00">PHNode::setParent</text>
</g>
<!-- Node2 -->
<g id="node2" class="node"><title>Node2</title>
<g id="a_node2"><a xlink:href="../../d5/dca/classPHCompositeNode.html#ac7dbf017614c324e218a001d729607bf" target="_top" xlink:title="PHCompositeNode::addNode">
<polygon fill="none" stroke="black" points="138,-126.5 138,-145.5 282,-145.5 282,-126.5 138,-126.5"/>
<text text-anchor="middle" x="210" y="-133.5" font-family="FreeSans" font-size="10.00">PHCompositeNode::addNode</text>
</a>
</g>
</g>
<!-- Node1&#45;&gt;Node2 -->
<g id="edge1" class="edge"><title>Node1&#45;&gt;Node2</title>
<path fill="none" stroke="midnightblue" d="M111.859,-136C120.357,-136 129.164,-136 137.85,-136"/>
<polygon fill="midnightblue" stroke="midnightblue" points="111.676,-132.5 101.676,-136 111.676,-139.5 111.676,-132.5"/>
</g>
<!-- Node3 -->
<g id="node3" class="node"><title>Node3</title>
<g id="a_node3"><a xlink:href="../../d5/d07/classPHNodeIterator.html#a2c183a75c6a6784f38ff15b6163eb7ee" target="_top" xlink:title="PHNodeIterator::addNode">
<polygon fill="none" stroke="black" points="331,-214.5 331,-233.5 459,-233.5 459,-214.5 331,-214.5"/>
<text text-anchor="middle" x="395" y="-221.5" font-family="FreeSans" font-size="10.00">PHNodeIterator::addNode</text>
</a>
</g>
</g>
<!-- Node2&#45;&gt;Node3 -->
<g id="edge2" class="edge"><title>Node2&#45;&gt;Node3</title>
<path fill="none" stroke="midnightblue" d="M231.191,-151.534C251.945,-166.832 285.701,-189.896 318,-204 327.503,-208.15 338.061,-211.598 348.212,-214.396"/>
<polygon fill="midnightblue" stroke="midnightblue" points="233.238,-148.694 223.135,-145.502 229.043,-154.298 233.238,-148.694"/>
</g>
<!-- Node12 -->
<g id="node12" class="node"><title>Node12</title>
<g id="a_node12"><a xlink:href="../../da/dd8/classFun4AllPrdfInputManager.html#a36fdaca3254cbb07a00af64b10488385" target="_top" xlink:title="Fun4AllPrdfInputManager\l::Fun4AllPrdfInputManager">
<polygon fill="none" stroke="black" points="329.5,-165 329.5,-195 460.5,-195 460.5,-165 329.5,-165"/>
<text text-anchor="start" x="337.5" y="-183" font-family="FreeSans" font-size="10.00">Fun4AllPrdfInputManager</text>
<text text-anchor="middle" x="395" y="-172" font-family="FreeSans" font-size="10.00">::Fun4AllPrdfInputManager</text>
</a>
</g>
</g>
<!-- Node2&#45;&gt;Node12 -->
<g id="edge14" class="edge"><title>Node2&#45;&gt;Node12</title>
<path fill="none" stroke="midnightblue" d="M260.722,-147.955C282.491,-153.189 308.278,-159.389 331.342,-164.935"/>
<polygon fill="midnightblue" stroke="midnightblue" points="261.249,-144.482 250.708,-145.547 259.613,-151.288 261.249,-144.482"/>
</g>
<!-- Node13 -->
<g id="node13" class="node"><title>Node13</title>
<g id="a_node13"><a xlink:href="../../da/d29/classFun4AllServer.html#ac42fd391b795d9605811abb9394c2011" target="_top" xlink:title="Fun4AllServer::getNode">
<polygon fill="none" stroke="black" points="712.5,-260.5 712.5,-279.5 831.5,-279.5 831.5,-260.5 712.5,-260.5"/>
<text text-anchor="middle" x="772" y="-267.5" font-family="FreeSans" font-size="10.00">Fun4AllServer::getNode</text>
</a>
</g>
</g>
<!-- Node2&#45;&gt;Node13 -->
<g id="edge15" class="edge"><title>Node2&#45;&gt;Node13</title>
<path fill="none" stroke="midnightblue" d="M222.801,-154.309C240.189,-179.472 275.294,-223.802 318,-243 448.962,-301.872 623.047,-290.605 712.481,-279.227"/>
<polygon fill="midnightblue" stroke="midnightblue" points="225.502,-152.053 217.025,-145.696 219.688,-155.951 225.502,-152.053"/>
</g>
<!-- Node14 -->
<g id="node14" class="node"><title>Node14</title>
<g id="a_node14"><a xlink:href="../../da/d29/classFun4AllServer.html#a2ebfcdcf706670c98c189bfa93c3ff89" target="_top" xlink:title="Fun4AllServer::InitNodeTree">
<polygon fill="none" stroke="black" points="325.5,-126.5 325.5,-145.5 464.5,-145.5 464.5,-126.5 325.5,-126.5"/>
<text text-anchor="middle" x="395" y="-133.5" font-family="FreeSans" font-size="10.00">Fun4AllServer::InitNodeTree</text>
</a>
</g>
</g>
<!-- Node2&#45;&gt;Node14 -->
<g id="edge17" class="edge"><title>Node2&#45;&gt;Node14</title>
<path fill="none" stroke="midnightblue" d="M292.142,-136C303.254,-136 314.572,-136 325.429,-136"/>
<polygon fill="midnightblue" stroke="midnightblue" points="292.015,-132.5 282.015,-136 292.014,-139.5 292.015,-132.5"/>
</g>
<!-- Node18 -->
<g id="node18" class="node"><title>Node18</title>
<g id="a_node18"><a xlink:href="../../d6/dc8/classFun4AllPrdfOutputManager.html#a1d891012ff50062628d053f825426c80" target="_top" xlink:title="PRDF node initialization [class specific method]. ">
<polygon fill="none" stroke="black" points="328,-77 328,-107 462,-107 462,-77 328,-77"/>
<text text-anchor="start" x="336" y="-95" font-family="FreeSans" font-size="10.00">Fun4AllPrdfOutputManager</text>
<text text-anchor="middle" x="395" y="-84" font-family="FreeSans" font-size="10.00">::InitPrdfNode</text>
</a>
</g>
</g>
<!-- Node2&#45;&gt;Node18 -->
<g id="edge21" class="edge"><title>Node2&#45;&gt;Node18</title>
<path fill="none" stroke="midnightblue" d="M260.722,-124.045C282.491,-118.811 308.278,-112.611 331.342,-107.065"/>
<polygon fill="midnightblue" stroke="midnightblue" points="259.613,-120.712 250.708,-126.453 261.249,-127.518 259.613,-120.712"/>
</g>
<!-- Node19 -->
<g id="node19" class="node"><title>Node19</title>
<g id="a_node19"><a xlink:href="../../d0/d68/classSimpleReadMySql.html#a650a5f65ee1634450425061b781ec942" target="_top" xlink:title="SimpleReadMySql::MakeNodes">
<polygon fill="none" stroke="black" points="318.5,-38.5 318.5,-57.5 471.5,-57.5 471.5,-38.5 318.5,-38.5"/>
<text text-anchor="middle" x="395" y="-45.5" font-family="FreeSans" font-size="10.00">SimpleReadMySql::MakeNodes</text>
</a>
</g>
</g>
<!-- Node2&#45;&gt;Node19 -->
<g id="edge22" class="edge"><title>Node2&#45;&gt;Node19</title>
<path fill="none" stroke="midnightblue" d="M231.117,-120.136C251.812,-104.535 285.524,-81.0715 318,-67 326.736,-63.215 336.376,-60.0793 345.774,-57.5209"/>
<polygon fill="midnightblue" stroke="midnightblue" points="228.894,-117.43 223.086,-126.291 233.152,-122.986 228.894,-117.43"/>
</g>
<!-- Node21 -->
<g id="node21" class="node"><title>Node21</title>
<g id="a_node21"><a xlink:href="../../db/dda/classReadMySql.html#a893da68c47d48aaa94b6a6befdb4ab85" target="_top" xlink:title="ReadMySql::MakeNodes">
<polygon fill="none" stroke="black" points="333.5,-0.5 333.5,-19.5 456.5,-19.5 456.5,-0.5 333.5,-0.5"/>
<text text-anchor="middle" x="395" y="-7.5" font-family="FreeSans" font-size="10.00">ReadMySql::MakeNodes</text>
</a>
</g>
</g>
<!-- Node2&#45;&gt;Node21 -->
<g id="edge24" class="edge"><title>Node2&#45;&gt;Node21</title>
<path fill="none" stroke="midnightblue" d="M223.887,-118.044C242.094,-94.0307 277.66,-51.84 318,-29 324.864,-25.1134 332.519,-22.0127 340.255,-19.5412"/>
<polygon fill="midnightblue" stroke="midnightblue" points="220.927,-116.161 217.786,-126.279 226.551,-120.328 220.927,-116.161"/>
</g>
<!-- Node4 -->
<g id="node4" class="node"><title>Node4</title>
<g id="a_node4"><a xlink:href="../../d7/ddf/classPHDataNodeIterator.html#ada64e599ccfdcb102d9fb539225bab14" target="_top" xlink:title="PHDataNodeIterator\l::AddIODataNode">
<polygon fill="none" stroke="black" points="533.5,-214 533.5,-244 638.5,-244 638.5,-214 533.5,-214"/>
<text text-anchor="start" x="541.5" y="-232" font-family="FreeSans" font-size="10.00">PHDataNodeIterator</text>
<text text-anchor="middle" x="586" y="-221" font-family="FreeSans" font-size="10.00">::AddIODataNode</text>
</a>
</g>
</g>
<!-- Node3&#45;&gt;Node4 -->
<g id="edge3" class="edge"><title>Node3&#45;&gt;Node4</title>
<path fill="none" stroke="midnightblue" d="M469.254,-225.938C490.705,-226.505 513.696,-227.114 533.489,-227.637"/>
<polygon fill="midnightblue" stroke="midnightblue" points="469.286,-222.438 459.197,-225.672 469.101,-229.435 469.286,-222.438"/>
</g>
<!-- Node5 -->
<g id="node5" class="node"><title>Node5</title>
<g id="a_node5"><a xlink:href="../../d7/d4d/classPHNodeIOManager.html#a3882997324989c7dd04e9f6b728af7db" target="_top" xlink:title="PHNodeIOManager::reconstruct\lNodeTree">
<polygon fill="none" stroke="black" points="508.5,-165 508.5,-195 663.5,-195 663.5,-165 508.5,-165"/>
<text text-anchor="start" x="516.5" y="-183" font-family="FreeSans" font-size="10.00">PHNodeIOManager::reconstruct</text>
<text text-anchor="middle" x="586" y="-172" font-family="FreeSans" font-size="10.00">NodeTree</text>
</a>
</g>
</g>
<!-- Node3&#45;&gt;Node5 -->
<g id="edge4" class="edge"><title>Node3&#45;&gt;Node5</title>
<path fill="none" stroke="midnightblue" d="M447.047,-212.116C469.594,-206.867 496.36,-200.636 520.287,-195.065"/>
<polygon fill="midnightblue" stroke="midnightblue" points="445.956,-208.776 437.01,-214.453 447.543,-215.594 445.956,-208.776"/>
</g>
<!-- Node6 -->
<g id="node6" class="node"><title>Node6</title>
<g id="a_node6"><a xlink:href="../../d7/d4d/classPHNodeIOManager.html#a92da4bff2438e94d469011b7720f286f" target="_top" xlink:title="PHNodeIOManager::read">
<polygon fill="none" stroke="black" points="709.5,-173.5 709.5,-192.5 834.5,-192.5 834.5,-173.5 709.5,-173.5"/>
<text text-anchor="middle" x="772" y="-180.5" font-family="FreeSans" font-size="10.00">PHNodeIOManager::read</text>
</a>
</g>
</g>
<!-- Node5&#45;&gt;Node6 -->
<g id="edge5" class="edge"><title>Node5&#45;&gt;Node6</title>
<path fill="none" stroke="midnightblue" d="M673.73,-181.414C685.725,-181.61 697.84,-181.807 709.256,-181.993"/>
<polygon fill="midnightblue" stroke="midnightblue" points="673.756,-177.914 663.7,-181.251 673.642,-184.913 673.756,-177.914"/>
</g>
<!-- Node7 -->
<g id="node7" class="node"><title>Node7</title>
<g id="a_node7"><a xlink:href="../../d7/d0b/classFun4AllDstInputManager.html#a4d32eadb9f77d41387656b87377ef14f" target="_top" xlink:title="Fun4AllDstInputManager\l::fileopen">
<polygon fill="none" stroke="black" points="880,-250 880,-280 1004,-280 1004,-250 880,-250"/>
<text text-anchor="start" x="888" y="-268" font-family="FreeSans" font-size="10.00">Fun4AllDstInputManager</text>
<text text-anchor="middle" x="942" y="-257" font-family="FreeSans" font-size="10.00">::fileopen</text>
</a>
</g>
</g>
<!-- Node6&#45;&gt;Node7 -->
<g id="edge6" class="edge"><title>Node6&#45;&gt;Node7</title>
<path fill="none" stroke="midnightblue" d="M801.755,-197.035C831.933,-211.765 879.202,-234.837 910.145,-249.94"/>
<polygon fill="midnightblue" stroke="midnightblue" points="803.122,-193.808 792.601,-192.567 800.052,-200.099 803.122,-193.808"/>
</g>
<!-- Node9 -->
<g id="node9" class="node"><title>Node9</title>
<g id="a_node9"><a xlink:href="../../d7/d0b/classFun4AllDstInputManager.html#ade26017b627e0e1f1ec0dec62ac7fd52" target="_top" xlink:title="Fun4AllDstInputManager\l::ReadNextEventSyncObject">
<polygon fill="none" stroke="black" points="1201.5,-212 1201.5,-242 1340.5,-242 1340.5,-212 1201.5,-212"/>
<text text-anchor="start" x="1209.5" y="-230" font-family="FreeSans" font-size="10.00">Fun4AllDstInputManager</text>
<text text-anchor="middle" x="1271" y="-219" font-family="FreeSans" font-size="10.00">::ReadNextEventSyncObject</text>
</a>
</g>
</g>
<!-- Node6&#45;&gt;Node9 -->
<g id="edge13" class="edge"><title>Node6&#45;&gt;Node9</title>
<path fill="none" stroke="midnightblue" d="M844.825,-192.933C856.568,-194.403 868.614,-195.818 880,-197 992.294,-208.657 1123.22,-217.826 1201.21,-222.822"/>
<polygon fill="midnightblue" stroke="midnightblue" points="844.97,-189.423 834.608,-191.632 844.085,-196.367 844.97,-189.423"/>
</g>
<!-- Node10 -->
<g id="node10" class="node"><title>Node10</title>
<g id="a_node10"><a xlink:href="../../d7/d0b/classFun4AllDstInputManager.html#a0244c2edbaa2350038304b09f352c2d0" target="_top" xlink:title="Fun4AllDstInputManager\l::SyncIt">
<polygon fill="none" stroke="black" points="1378,-171 1378,-201 1502,-201 1502,-171 1378,-171"/>
<text text-anchor="start" x="1386" y="-189" font-family="FreeSans" font-size="10.00">Fun4AllDstInputManager</text>
<text text-anchor="middle" x="1440" y="-178" font-family="FreeSans" font-size="10.00">::SyncIt</text>
</a>
</g>
</g>
<!-- Node6&#45;&gt;Node10 -->
<g id="edge12" class="edge"><title>Node6&#45;&gt;Node10</title>
<path fill="none" stroke="midnightblue" d="M844.838,-173.968C953.024,-161.863 1164.06,-144.074 1342,-164 1355.21,-165.48 1369.25,-168.06 1382.43,-170.944"/>
<polygon fill="midnightblue" stroke="midnightblue" points="844.235,-170.514 834.694,-175.12 845.025,-177.469 844.235,-170.514"/>
</g>
<!-- Node11 -->
<g id="node11" class="node"><title>Node11</title>
<g id="a_node11"><a xlink:href="../../d7/d0b/classFun4AllDstInputManager.html#aeafa0248f9050c13fdae1bcb93336d7a" target="_top" xlink:title="Fun4AllDstInputManager::run">
<polygon fill="none" stroke="black" points="1200,-173.5 1200,-192.5 1342,-192.5 1342,-173.5 1200,-173.5"/>
<text text-anchor="middle" x="1271" y="-180.5" font-family="FreeSans" font-size="10.00">Fun4AllDstInputManager::run</text>
</a>
</g>
</g>
<!-- Node6&#45;&gt;Node11 -->
<g id="edge11" class="edge"><title>Node6&#45;&gt;Node11</title>
<path fill="none" stroke="midnightblue" d="M844.776,-183C939.708,-183 1105.95,-183 1199.99,-183"/>
<polygon fill="midnightblue" stroke="midnightblue" points="844.69,-179.5 834.69,-183 844.69,-186.5 844.69,-179.5"/>
</g>
<!-- Node8 -->
<g id="node8" class="node"><title>Node8</title>
<g id="a_node8"><a xlink:href="../../d7/d0b/classFun4AllDstInputManager.html#ae4e92b95ae50ab72856d06c99b043496" target="_top" xlink:title="Fun4AllDstInputManager\l::OpenNextFile">
<polygon fill="none" stroke="black" points="1040,-250 1040,-280 1164,-280 1164,-250 1040,-250"/>
<text text-anchor="start" x="1048" y="-268" font-family="FreeSans" font-size="10.00">Fun4AllDstInputManager</text>
<text text-anchor="middle" x="1102" y="-257" font-family="FreeSans" font-size="10.00">::OpenNextFile</text>
</a>
</g>
</g>
<!-- Node7&#45;&gt;Node8 -->
<g id="edge7" class="edge"><title>Node7&#45;&gt;Node8</title>
<path fill="none" stroke="midnightblue" d="M1014.37,-265C1022.86,-265 1031.48,-265 1039.82,-265"/>
<polygon fill="midnightblue" stroke="midnightblue" points="1014.09,-261.5 1004.09,-265 1014.09,-268.5 1014.09,-261.5"/>
</g>
<!-- Node8&#45;&gt;Node9 -->
<g id="edge8" class="edge"><title>Node8&#45;&gt;Node9</title>
<path fill="none" stroke="midnightblue" d="M1174.06,-248.83C1183.99,-246.571 1194.16,-244.257 1203.99,-242.02"/>
<polygon fill="midnightblue" stroke="midnightblue" points="1173.21,-245.434 1164.24,-251.066 1174.76,-252.26 1173.21,-245.434"/>
</g>
<!-- Node8&#45;&gt;Node11 -->
<g id="edge10" class="edge"><title>Node8&#45;&gt;Node11</title>
<path fill="none" stroke="midnightblue" d="M1130.46,-243.843C1149.2,-230.27 1175.04,-213.161 1200,-202 1208.28,-198.299 1217.43,-195.176 1226.32,-192.6"/>
<polygon fill="midnightblue" stroke="midnightblue" points="1128.36,-241.046 1122.39,-249.796 1132.51,-246.68 1128.36,-241.046"/>
</g>
<!-- Node9&#45;&gt;Node10 -->
<g id="edge9" class="edge"><title>Node9&#45;&gt;Node10</title>
<path fill="none" stroke="midnightblue" d="M1343.23,-209.512C1354.73,-206.69 1366.54,-203.79 1377.77,-201.032"/>
<polygon fill="midnightblue" stroke="midnightblue" points="1342.11,-206.183 1333.24,-211.966 1343.78,-212.981 1342.11,-206.183"/>
</g>
<!-- Node13&#45;&gt;Node7 -->
<g id="edge16" class="edge"><title>Node13&#45;&gt;Node7</title>
<path fill="none" stroke="midnightblue" d="M841.786,-267.953C854.447,-267.576 867.584,-267.185 879.995,-266.816"/>
<polygon fill="midnightblue" stroke="midnightblue" points="841.65,-264.455 831.758,-268.251 841.858,-271.452 841.65,-264.455"/>
</g>
<!-- Node15 -->
<g id="node15" class="node"><title>Node15</title>
<g id="a_node15"><a xlink:href="../../da/d29/classFun4AllServer.html#aa1939c3e2c3113cce0a6415103b4f5a5" target="_top" xlink:title="Fun4AllServer::InitAll">
<polygon fill="none" stroke="black" points="532.5,-88.5 532.5,-107.5 639.5,-107.5 639.5,-88.5 532.5,-88.5"/>
<text text-anchor="middle" x="586" y="-95.5" font-family="FreeSans" font-size="10.00">Fun4AllServer::InitAll</text>
</a>
</g>
</g>
<!-- Node14&#45;&gt;Node15 -->
<g id="edge18" class="edge"><title>Node14&#45;&gt;Node15</title>
<path fill="none" stroke="midnightblue" d="M453.742,-124.39C480.622,-118.986 512.203,-112.636 537.65,-107.52"/>
<polygon fill="midnightblue" stroke="midnightblue" points="452.807,-121.008 443.693,-126.411 454.186,-127.871 452.807,-121.008"/>
</g>
<!-- Node17 -->
<g id="node17" class="node"><title>Node17</title>
<g id="a_node17"><a xlink:href="../../da/d29/classFun4AllServer.html#a3477a81b5b754fccc94dfa8283d041f4" target="_top" xlink:title="Fun4AllServer::topNode">
<polygon fill="none" stroke="black" points="526.5,-126.5 526.5,-145.5 645.5,-145.5 645.5,-126.5 526.5,-126.5"/>
<text text-anchor="middle" x="586" y="-133.5" font-family="FreeSans" font-size="10.00">Fun4AllServer::topNode</text>
</a>
</g>
</g>
<!-- Node14&#45;&gt;Node17 -->
<g id="edge20" class="edge"><title>Node14&#45;&gt;Node17</title>
<path fill="none" stroke="midnightblue" d="M474.605,-136C491.943,-136 510.015,-136 526.397,-136"/>
<polygon fill="midnightblue" stroke="midnightblue" points="474.501,-132.5 464.501,-136 474.501,-139.5 474.501,-132.5"/>
</g>
<!-- Node16 -->
<g id="node16" class="node"><title>Node16</title>
<g id="a_node16"><a xlink:href="../../da/d29/classFun4AllServer.html#a90e27f05f0b2e8b6fe462387b14bfb92" target="_top" xlink:title="Fun4AllServer::Fun4AllServer">
<polygon fill="none" stroke="black" points="700,-88.5 700,-107.5 844,-107.5 844,-88.5 700,-88.5"/>
<text text-anchor="middle" x="772" y="-95.5" font-family="FreeSans" font-size="10.00">Fun4AllServer::Fun4AllServer</text>
</a>
</g>
</g>
<!-- Node15&#45;&gt;Node16 -->
<g id="edge19" class="edge"><title>Node15&#45;&gt;Node16</title>
<path fill="none" stroke="midnightblue" d="M650.037,-98C666.046,-98 683.359,-98 699.746,-98"/>
<polygon fill="midnightblue" stroke="midnightblue" points="649.727,-94.5001 639.727,-98 649.727,-101.5 649.727,-94.5001"/>
</g>
<!-- Node20 -->
<g id="node20" class="node"><title>Node20</title>
<g id="a_node20"><a xlink:href="../../d0/d68/classSimpleReadMySql.html#ace02cda93f92690611b99f9bb06a677c" target="_top" xlink:title="SimpleReadMySql::InitRun">
<polygon fill="none" stroke="black" points="520.5,-38.5 520.5,-57.5 651.5,-57.5 651.5,-38.5 520.5,-38.5"/>
<text text-anchor="middle" x="586" y="-45.5" font-family="FreeSans" font-size="10.00">SimpleReadMySql::InitRun</text>
</a>
</g>
</g>
<!-- Node19&#45;&gt;Node20 -->
<g id="edge23" class="edge"><title>Node19&#45;&gt;Node20</title>
<path fill="none" stroke="midnightblue" d="M481.812,-48C494.737,-48 507.88,-48 520.263,-48"/>
<polygon fill="midnightblue" stroke="midnightblue" points="481.513,-44.5001 471.513,-48 481.513,-51.5001 481.513,-44.5001"/>
</g>
<!-- Node22 -->
<g id="node22" class="node"><title>Node22</title>
<g id="a_node22"><a xlink:href="../../db/dda/classReadMySql.html#ab73b7895d9b3e258b58f31b66b93a827" target="_top" xlink:title="ReadMySql::InitRun">
<polygon fill="none" stroke="black" points="535.5,-0.5 535.5,-19.5 636.5,-19.5 636.5,-0.5 535.5,-0.5"/>
<text text-anchor="middle" x="586" y="-7.5" font-family="FreeSans" font-size="10.00">ReadMySql::InitRun</text>
</a>
</g>
</g>
<!-- Node21&#45;&gt;Node22 -->
<g id="edge25" class="edge"><title>Node21&#45;&gt;Node22</title>
<path fill="none" stroke="midnightblue" d="M466.605,-10C489.525,-10 514.451,-10 535.495,-10"/>
<polygon fill="midnightblue" stroke="midnightblue" points="466.581,-6.5001 456.581,-10 466.581,-13.5001 466.581,-6.5001"/>
</g>
</g>
</svg>
