<?xml version="1.0" encoding="UTF-8" standalone="no"?>
<!DOCTYPE svg PUBLIC "-//W3C//DTD SVG 1.1//EN"
 "http://www.w3.org/Graphics/SVG/1.1/DTD/svg11.dtd">
<!-- Generated by graphviz version 2.36.0 (20140111.2315)
 -->
<!-- Title: PHNode::getName Pages: 1 -->
<svg width="1506pt" height="745pt"
 viewBox="0.00 0.00 1506.00 745.00" xmlns="http://www.w3.org/2000/svg" xmlns:xlink="http://www.w3.org/1999/xlink">
<g id="graph0" class="graph" transform="scale(1 1) rotate(0) translate(4 741)">
<title>PHNode::getName</title>
<!-- Node1 -->
<g id="node1" class="node"><title>Node1</title>
<polygon fill="#bfbfbf" stroke="black" points="0,-151.5 0,-170.5 98,-170.5 98,-151.5 0,-151.5"/>
<text text-anchor="middle" x="49" y="-158.5" font-family="FreeSans" font-size="10.00">PHNode::getName</text>
</g>
<!-- Node2 -->
<g id="node2" class="node"><title>Node2</title>
<g id="a_node2"><a xlink:href="../../d5/dca/classPHCompositeNode.html#ac7dbf017614c324e218a001d729607bf" target="_top" xlink:title="PHCompositeNode::addNode">
<polygon fill="none" stroke="black" points="134,-534.5 134,-553.5 278,-553.5 278,-534.5 134,-534.5"/>
<text text-anchor="middle" x="206" y="-541.5" font-family="FreeSans" font-size="10.00">PHCompositeNode::addNode</text>
</a>
</g>
</g>
<!-- Node1&#45;&gt;Node2 -->
<g id="edge1" class="edge"><title>Node1&#45;&gt;Node2</title>
<path fill="none" stroke="midnightblue" d="M57.9064,-180.537C86.0113,-249.983 180.502,-483.466 201.039,-534.213"/>
<polygon fill="midnightblue" stroke="midnightblue" points="60.9831,-178.809 53.9872,-170.852 54.4944,-181.435 60.9831,-178.809"/>
</g>
<!-- Node23 -->
<g id="node23" class="node"><title>Node23</title>
<g id="a_node23"><a xlink:href="../../d5/d07/classPHNodeIterator.html#a4cfa0490b6522394b13723c7db38a3a6" target="_top" xlink:title="PHNodeIterator::cd">
<polygon fill="none" stroke="black" points="156,-151.5 156,-170.5 256,-170.5 256,-151.5 156,-151.5"/>
<text text-anchor="middle" x="206" y="-158.5" font-family="FreeSans" font-size="10.00">PHNodeIterator::cd</text>
</a>
</g>
</g>
<!-- Node1&#45;&gt;Node23 -->
<g id="edge26" class="edge"><title>Node1&#45;&gt;Node23</title>
<path fill="none" stroke="midnightblue" d="M108.281,-161C123.919,-161 140.672,-161 155.767,-161"/>
<polygon fill="midnightblue" stroke="midnightblue" points="108.193,-157.5 98.1933,-161 108.193,-164.5 108.193,-157.5"/>
</g>
<!-- Node30 -->
<g id="node30" class="node"><title>Node30</title>
<g id="a_node30"><a xlink:href="../../d5/d07/classPHNodeIterator.html#aea98bf8619af59b1212a94fb32106baa" target="_top" xlink:title="PHNodeIterator::findFirst">
<polygon fill="none" stroke="black" points="144,-321.5 144,-340.5 268,-340.5 268,-321.5 144,-321.5"/>
<text text-anchor="middle" x="206" y="-328.5" font-family="FreeSans" font-size="10.00">PHNodeIterator::findFirst</text>
</a>
</g>
</g>
<!-- Node1&#45;&gt;Node30 -->
<g id="edge35" class="edge"><title>Node1&#45;&gt;Node30</title>
<path fill="none" stroke="midnightblue" d="M65.7289,-178.251C98.0876,-213.741 171.184,-293.911 196.319,-321.479"/>
<polygon fill="midnightblue" stroke="midnightblue" points="68.1015,-175.658 58.7776,-170.627 62.9288,-180.375 68.1015,-175.658"/>
</g>
<!-- Node37 -->
<g id="node37" class="node"><title>Node37</title>
<g id="a_node37"><a xlink:href="../../d3/d62/PHNode_8h.html#aa3bad2a458c976e7f0ac256ffa858496" target="_top" xlink:title="operator\&lt;\&lt;">
<polygon fill="none" stroke="black" points="174,-113.5 174,-132.5 238,-132.5 238,-113.5 174,-113.5"/>
<text text-anchor="middle" x="206" y="-120.5" font-family="FreeSans" font-size="10.00">operator&lt;&lt;</text>
</a>
</g>
</g>
<!-- Node1&#45;&gt;Node37 -->
<g id="edge53" class="edge"><title>Node1&#45;&gt;Node37</title>
<path fill="none" stroke="midnightblue" d="M98.9396,-149.002C123.396,-143.006 152.265,-135.929 173.703,-130.673"/>
<polygon fill="midnightblue" stroke="midnightblue" points="97.992,-145.63 89.113,-151.411 99.6588,-152.429 97.992,-145.63"/>
</g>
<!-- Node38 -->
<g id="node38" class="node"><title>Node38</title>
<g id="a_node38"><a xlink:href="../../d1/d1b/classPHNodeReset.html#a3ebec31e2e9e4eb7e961df219e6fa49d" target="_top" xlink:title="PHNodeReset::perform">
<polygon fill="none" stroke="black" points="147.5,-75.5 147.5,-94.5 264.5,-94.5 264.5,-75.5 147.5,-75.5"/>
<text text-anchor="middle" x="206" y="-82.5" font-family="FreeSans" font-size="10.00">PHNodeReset::perform</text>
</a>
</g>
</g>
<!-- Node1&#45;&gt;Node38 -->
<g id="edge54" class="edge"><title>Node1&#45;&gt;Node38</title>
<path fill="none" stroke="midnightblue" d="M69.6846,-144.828C86.023,-132.122 110.334,-114.821 134,-104 142.239,-100.233 151.37,-97.0938 160.263,-94.5243"/>
<polygon fill="midnightblue" stroke="midnightblue" points="67.1355,-142.383 61.4826,-151.343 71.4897,-147.864 67.1355,-142.383"/>
</g>
<!-- Node3 -->
<g id="node3" class="node"><title>Node3</title>
<g id="a_node3"><a xlink:href="../../d5/d07/classPHNodeIterator.html#a2c183a75c6a6784f38ff15b6163eb7ee" target="_top" xlink:title="PHNodeIterator::addNode">
<polygon fill="none" stroke="black" points="327,-667.5 327,-686.5 455,-686.5 455,-667.5 327,-667.5"/>
<text text-anchor="middle" x="391" y="-674.5" font-family="FreeSans" font-size="10.00">PHNodeIterator::addNode</text>
</a>
</g>
</g>
<!-- Node2&#45;&gt;Node3 -->
<g id="edge2" class="edge"><title>Node2&#45;&gt;Node3</title>
<path fill="none" stroke="midnightblue" d="M218.842,-562.052C236.477,-587.455 272.1,-633.392 314,-658 320.567,-661.857 327.898,-664.936 335.344,-667.392"/>
<polygon fill="midnightblue" stroke="midnightblue" points="221.688,-560.013 213.18,-553.699 215.894,-563.94 221.688,-560.013"/>
</g>
<!-- Node12 -->
<g id="node12" class="node"><title>Node12</title>
<g id="a_node12"><a xlink:href="../../da/dd8/classFun4AllPrdfInputManager.html#a36fdaca3254cbb07a00af64b10488385" target="_top" xlink:title="Fun4AllPrdfInputManager\l::Fun4AllPrdfInputManager">
<polygon fill="none" stroke="black" points="325.5,-466 325.5,-496 456.5,-496 456.5,-466 325.5,-466"/>
<text text-anchor="start" x="333.5" y="-484" font-family="FreeSans" font-size="10.00">Fun4AllPrdfInputManager</text>
<text text-anchor="middle" x="391" y="-473" font-family="FreeSans" font-size="10.00">::Fun4AllPrdfInputManager</text>
</a>
</g>
</g>
<!-- Node2&#45;&gt;Node12 -->
<g id="edge14" class="edge"><title>Node2&#45;&gt;Node12</title>
<path fill="none" stroke="midnightblue" d="M242.99,-530.982C263.714,-523.545 290.276,-514.113 314,-506 323.594,-502.719 333.896,-499.276 343.723,-496.031"/>
<polygon fill="midnightblue" stroke="midnightblue" points="241.549,-527.78 233.323,-534.458 243.918,-534.367 241.549,-527.78"/>
</g>
<!-- Node13 -->
<g id="node13" class="node"><title>Node13</title>
<g id="a_node13"><a xlink:href="../../da/d29/classFun4AllServer.html#ac42fd391b795d9605811abb9394c2011" target="_top" xlink:title="Fun4AllServer::getNode">
<polygon fill="none" stroke="black" points="331.5,-553.5 331.5,-572.5 450.5,-572.5 450.5,-553.5 331.5,-553.5"/>
<text text-anchor="middle" x="391" y="-560.5" font-family="FreeSans" font-size="10.00">Fun4AllServer::getNode</text>
</a>
</g>
</g>
<!-- Node2&#45;&gt;Node13 -->
<g id="edge15" class="edge"><title>Node2&#45;&gt;Node13</title>
<path fill="none" stroke="midnightblue" d="M288.056,-552.416C302.67,-553.933 317.644,-555.488 331.461,-556.922"/>
<polygon fill="midnightblue" stroke="midnightblue" points="288.323,-548.925 278.015,-551.373 287.6,-555.887 288.323,-548.925"/>
</g>
<!-- Node14 -->
<g id="node14" class="node"><title>Node14</title>
<g id="a_node14"><a xlink:href="../../da/d29/classFun4AllServer.html#a2ebfcdcf706670c98c189bfa93c3ff89" target="_top" xlink:title="Fun4AllServer::InitNodeTree">
<polygon fill="none" stroke="black" points="321.5,-629.5 321.5,-648.5 460.5,-648.5 460.5,-629.5 321.5,-629.5"/>
<text text-anchor="middle" x="391" y="-636.5" font-family="FreeSans" font-size="10.00">Fun4AllServer::InitNodeTree</text>
</a>
</g>
</g>
<!-- Node2&#45;&gt;Node14 -->
<g id="edge17" class="edge"><title>Node2&#45;&gt;Node14</title>
<path fill="none" stroke="midnightblue" d="M225.512,-560.457C245.845,-577.704 280.131,-604.414 314,-620 322.278,-623.809 331.429,-626.926 340.428,-629.452"/>
<polygon fill="midnightblue" stroke="midnightblue" points="227.55,-557.593 217.694,-553.705 222.974,-562.89 227.55,-557.593"/>
</g>
<!-- Node18 -->
<g id="node18" class="node"><title>Node18</title>
<g id="a_node18"><a xlink:href="../../d6/dc8/classFun4AllPrdfOutputManager.html#a1d891012ff50062628d053f825426c80" target="_top" xlink:title="PRDF node initialization [class specific method]. ">
<polygon fill="none" stroke="black" points="324,-417 324,-447 458,-447 458,-417 324,-417"/>
<text text-anchor="start" x="332" y="-435" font-family="FreeSans" font-size="10.00">Fun4AllPrdfOutputManager</text>
<text text-anchor="middle" x="391" y="-424" font-family="FreeSans" font-size="10.00">::InitPrdfNode</text>
</a>
</g>
</g>
<!-- Node2&#45;&gt;Node18 -->
<g id="edge21" class="edge"><title>Node2&#45;&gt;Node18</title>
<path fill="none" stroke="midnightblue" d="M223.383,-527.046C243.189,-507.43 278.324,-475.354 314,-456 320.203,-452.635 326.95,-449.658 333.78,-447.048"/>
<polygon fill="midnightblue" stroke="midnightblue" points="220.666,-524.815 216.108,-534.379 225.636,-529.745 220.666,-524.815"/>
</g>
<!-- Node19 -->
<g id="node19" class="node"><title>Node19</title>
<g id="a_node19"><a xlink:href="../../d0/d68/classSimpleReadMySql.html#a650a5f65ee1634450425061b781ec942" target="_top" xlink:title="SimpleReadMySql::MakeNodes">
<polygon fill="none" stroke="black" points="314.5,-515.5 314.5,-534.5 467.5,-534.5 467.5,-515.5 314.5,-515.5"/>
<text text-anchor="middle" x="391" y="-522.5" font-family="FreeSans" font-size="10.00">SimpleReadMySql::MakeNodes</text>
</a>
</g>
</g>
<!-- Node2&#45;&gt;Node19 -->
<g id="edge22" class="edge"><title>Node2&#45;&gt;Node19</title>
<path fill="none" stroke="midnightblue" d="M288.199,-535.569C296.942,-534.662 305.811,-533.741 314.483,-532.841"/>
<polygon fill="midnightblue" stroke="midnightblue" points="287.6,-532.113 278.015,-536.627 288.323,-539.075 287.6,-532.113"/>
</g>
<!-- Node21 -->
<g id="node21" class="node"><title>Node21</title>
<g id="a_node21"><a xlink:href="../../db/dda/classReadMySql.html#a893da68c47d48aaa94b6a6befdb4ab85" target="_top" xlink:title="ReadMySql::MakeNodes">
<polygon fill="none" stroke="black" points="329.5,-591.5 329.5,-610.5 452.5,-610.5 452.5,-591.5 329.5,-591.5"/>
<text text-anchor="middle" x="391" y="-598.5" font-family="FreeSans" font-size="10.00">ReadMySql::MakeNodes</text>
</a>
</g>
</g>
<!-- Node2&#45;&gt;Node21 -->
<g id="edge24" class="edge"><title>Node2&#45;&gt;Node21</title>
<path fill="none" stroke="midnightblue" d="M241.245,-557.11C262.108,-564.859 289.399,-574.575 314,-582 325.198,-585.379 337.449,-588.633 348.782,-591.463"/>
<polygon fill="midnightblue" stroke="midnightblue" points="242.446,-553.822 231.853,-553.593 239.991,-560.378 242.446,-553.822"/>
</g>
<!-- Node4 -->
<g id="node4" class="node"><title>Node4</title>
<g id="a_node4"><a xlink:href="../../d7/ddf/classPHDataNodeIterator.html#ada64e599ccfdcb102d9fb539225bab14" target="_top" xlink:title="PHDataNodeIterator\l::AddIODataNode">
<polygon fill="none" stroke="black" points="529.5,-706 529.5,-736 634.5,-736 634.5,-706 529.5,-706"/>
<text text-anchor="start" x="537.5" y="-724" font-family="FreeSans" font-size="10.00">PHDataNodeIterator</text>
<text text-anchor="middle" x="582" y="-713" font-family="FreeSans" font-size="10.00">::AddIODataNode</text>
</a>
</g>
</g>
<!-- Node3&#45;&gt;Node4 -->
<g id="edge3" class="edge"><title>Node3&#45;&gt;Node4</title>
<path fill="none" stroke="midnightblue" d="M442.944,-688.86C469.689,-695.086 502.391,-702.699 529.253,-708.953"/>
<polygon fill="midnightblue" stroke="midnightblue" points="443.543,-685.406 433.01,-686.547 441.956,-692.224 443.543,-685.406"/>
</g>
<!-- Node5 -->
<g id="node5" class="node"><title>Node5</title>
<g id="a_node5"><a xlink:href="../../d7/d4d/classPHNodeIOManager.html#a3882997324989c7dd04e9f6b728af7db" target="_top" xlink:title="PHNodeIOManager::reconstruct\lNodeTree">
<polygon fill="none" stroke="black" points="504.5,-401 504.5,-431 659.5,-431 659.5,-401 504.5,-401"/>
<text text-anchor="start" x="512.5" y="-419" font-family="FreeSans" font-size="10.00">PHNodeIOManager::reconstruct</text>
<text text-anchor="middle" x="582" y="-408" font-family="FreeSans" font-size="10.00">NodeTree</text>
</a>
</g>
</g>
<!-- Node3&#45;&gt;Node5 -->
<g id="edge4" class="edge"><title>Node3&#45;&gt;Node5</title>
<path fill="none" stroke="midnightblue" d="M463.945,-661.646C465.363,-660.511 466.719,-659.297 468,-658 516.785,-608.606 472.55,-567.892 504,-506 519.184,-476.118 546.249,-447.802 563.909,-431.172"/>
<polygon fill="midnightblue" stroke="midnightblue" points="461.688,-658.938 455.211,-667.323 465.503,-664.807 461.688,-658.938"/>
</g>
<!-- Node6 -->
<g id="node6" class="node"><title>Node6</title>
<g id="a_node6"><a xlink:href="../../d7/d4d/classPHNodeIOManager.html#a92da4bff2438e94d469011b7720f286f" target="_top" xlink:title="PHNodeIOManager::read">
<polygon fill="none" stroke="black" points="705.5,-449.5 705.5,-468.5 830.5,-468.5 830.5,-449.5 705.5,-449.5"/>
<text text-anchor="middle" x="768" y="-456.5" font-family="FreeSans" font-size="10.00">PHNodeIOManager::read</text>
</a>
</g>
</g>
<!-- Node5&#45;&gt;Node6 -->
<g id="edge5" class="edge"><title>Node5&#45;&gt;Node6</title>
<path fill="none" stroke="midnightblue" d="M657.322,-433.369C680.855,-438.868 705.99,-444.742 726.254,-449.478"/>
<polygon fill="midnightblue" stroke="midnightblue" points="657.888,-429.907 647.354,-431.039 656.295,-436.723 657.888,-429.907"/>
</g>
<!-- Node7 -->
<g id="node7" class="node"><title>Node7</title>
<g id="a_node7"><a xlink:href="../../d7/d0b/classFun4AllDstInputManager.html#a4d32eadb9f77d41387656b87377ef14f" target="_top" xlink:title="Fun4AllDstInputManager\l::fileopen">
<polygon fill="none" stroke="black" points="876,-526 876,-556 1000,-556 1000,-526 876,-526"/>
<text text-anchor="start" x="884" y="-544" font-family="FreeSans" font-size="10.00">Fun4AllDstInputManager</text>
<text text-anchor="middle" x="938" y="-533" font-family="FreeSans" font-size="10.00">::fileopen</text>
</a>
</g>
</g>
<!-- Node6&#45;&gt;Node7 -->
<g id="edge6" class="edge"><title>Node6&#45;&gt;Node7</title>
<path fill="none" stroke="midnightblue" d="M797.755,-473.035C827.933,-487.765 875.202,-510.837 906.145,-525.94"/>
<polygon fill="midnightblue" stroke="midnightblue" points="799.122,-469.808 788.601,-468.567 796.052,-476.099 799.122,-469.808"/>
</g>
<!-- Node9 -->
<g id="node9" class="node"><title>Node9</title>
<g id="a_node9"><a xlink:href="../../d7/d0b/classFun4AllDstInputManager.html#ade26017b627e0e1f1ec0dec62ac7fd52" target="_top" xlink:title="Fun4AllDstInputManager\l::ReadNextEventSyncObject">
<polygon fill="none" stroke="black" points="1197.5,-488 1197.5,-518 1336.5,-518 1336.5,-488 1197.5,-488"/>
<text text-anchor="start" x="1205.5" y="-506" font-family="FreeSans" font-size="10.00">Fun4AllDstInputManager</text>
<text text-anchor="middle" x="1267" y="-495" font-family="FreeSans" font-size="10.00">::ReadNextEventSyncObject</text>
</a>
</g>
</g>
<!-- Node6&#45;&gt;Node9 -->
<g id="edge13" class="edge"><title>Node6&#45;&gt;Node9</title>
<path fill="none" stroke="midnightblue" d="M840.825,-468.933C852.568,-470.403 864.614,-471.818 876,-473 988.294,-484.657 1119.22,-493.826 1197.21,-498.822"/>
<polygon fill="midnightblue" stroke="midnightblue" points="840.97,-465.423 830.608,-467.632 840.085,-472.367 840.97,-465.423"/>
</g>
<!-- Node10 -->
<g id="node10" class="node"><title>Node10</title>
<g id="a_node10"><a xlink:href="../../d7/d0b/classFun4AllDstInputManager.html#a0244c2edbaa2350038304b09f352c2d0" target="_top" xlink:title="Fun4AllDstInputManager\l::SyncIt">
<polygon fill="none" stroke="black" points="1374,-447 1374,-477 1498,-477 1498,-447 1374,-447"/>
<text text-anchor="start" x="1382" y="-465" font-family="FreeSans" font-size="10.00">Fun4AllDstInputManager</text>
<text text-anchor="middle" x="1436" y="-454" font-family="FreeSans" font-size="10.00">::SyncIt</text>
</a>
</g>
</g>
<!-- Node6&#45;&gt;Node10 -->
<g id="edge12" class="edge"><title>Node6&#45;&gt;Node10</title>
<path fill="none" stroke="midnightblue" d="M840.838,-449.968C949.024,-437.863 1160.06,-420.074 1338,-440 1351.21,-441.48 1365.25,-444.06 1378.43,-446.944"/>
<polygon fill="midnightblue" stroke="midnightblue" points="840.235,-446.514 830.694,-451.12 841.025,-453.469 840.235,-446.514"/>
</g>
<!-- Node11 -->
<g id="node11" class="node"><title>Node11</title>
<g id="a_node11"><a xlink:href="../../d7/d0b/classFun4AllDstInputManager.html#aeafa0248f9050c13fdae1bcb93336d7a" target="_top" xlink:title="Fun4AllDstInputManager::run">
<polygon fill="none" stroke="black" points="1196,-449.5 1196,-468.5 1338,-468.5 1338,-449.5 1196,-449.5"/>
<text text-anchor="middle" x="1267" y="-456.5" font-family="FreeSans" font-size="10.00">Fun4AllDstInputManager::run</text>
</a>
</g>
</g>
<!-- Node6&#45;&gt;Node11 -->
<g id="edge11" class="edge"><title>Node6&#45;&gt;Node11</title>
<path fill="none" stroke="midnightblue" d="M840.776,-459C935.708,-459 1101.95,-459 1195.99,-459"/>
<polygon fill="midnightblue" stroke="midnightblue" points="840.69,-455.5 830.69,-459 840.69,-462.5 840.69,-455.5"/>
</g>
<!-- Node8 -->
<g id="node8" class="node"><title>Node8</title>
<g id="a_node8"><a xlink:href="../../d7/d0b/classFun4AllDstInputManager.html#ae4e92b95ae50ab72856d06c99b043496" target="_top" xlink:title="Fun4AllDstInputManager\l::OpenNextFile">
<polygon fill="none" stroke="black" points="1036,-526 1036,-556 1160,-556 1160,-526 1036,-526"/>
<text text-anchor="start" x="1044" y="-544" font-family="FreeSans" font-size="10.00">Fun4AllDstInputManager</text>
<text text-anchor="middle" x="1098" y="-533" font-family="FreeSans" font-size="10.00">::OpenNextFile</text>
</a>
</g>
</g>
<!-- Node7&#45;&gt;Node8 -->
<g id="edge7" class="edge"><title>Node7&#45;&gt;Node8</title>
<path fill="none" stroke="midnightblue" d="M1010.37,-541C1018.86,-541 1027.48,-541 1035.82,-541"/>
<polygon fill="midnightblue" stroke="midnightblue" points="1010.09,-537.5 1000.09,-541 1010.09,-544.5 1010.09,-537.5"/>
</g>
<!-- Node8&#45;&gt;Node9 -->
<g id="edge8" class="edge"><title>Node8&#45;&gt;Node9</title>
<path fill="none" stroke="midnightblue" d="M1170.06,-524.83C1179.99,-522.571 1190.16,-520.257 1199.99,-518.02"/>
<polygon fill="midnightblue" stroke="midnightblue" points="1169.21,-521.434 1160.24,-527.066 1170.76,-528.26 1169.21,-521.434"/>
</g>
<!-- Node8&#45;&gt;Node11 -->
<g id="edge10" class="edge"><title>Node8&#45;&gt;Node11</title>
<path fill="none" stroke="midnightblue" d="M1126.46,-519.843C1145.2,-506.27 1171.04,-489.161 1196,-478 1204.28,-474.299 1213.43,-471.176 1222.32,-468.6"/>
<polygon fill="midnightblue" stroke="midnightblue" points="1124.36,-517.046 1118.39,-525.796 1128.51,-522.68 1124.36,-517.046"/>
</g>
<!-- Node9&#45;&gt;Node10 -->
<g id="edge9" class="edge"><title>Node9&#45;&gt;Node10</title>
<path fill="none" stroke="midnightblue" d="M1339.23,-485.512C1350.73,-482.69 1362.54,-479.79 1373.77,-477.032"/>
<polygon fill="midnightblue" stroke="midnightblue" points="1338.11,-482.183 1329.24,-487.966 1339.78,-488.981 1338.11,-482.183"/>
</g>
<!-- Node13&#45;&gt;Node7 -->
<g id="edge16" class="edge"><title>Node13&#45;&gt;Node7</title>
<path fill="none" stroke="midnightblue" d="M460.646,-560.229C567.872,-555.901 773.409,-547.604 875.841,-543.469"/>
<polygon fill="midnightblue" stroke="midnightblue" points="460.434,-556.735 450.583,-560.635 460.716,-563.729 460.434,-556.735"/>
</g>
<!-- Node15 -->
<g id="node15" class="node"><title>Node15</title>
<g id="a_node15"><a xlink:href="../../da/d29/classFun4AllServer.html#aa1939c3e2c3113cce0a6415103b4f5a5" target="_top" xlink:title="Fun4AllServer::InitAll">
<polygon fill="none" stroke="black" points="528.5,-629.5 528.5,-648.5 635.5,-648.5 635.5,-629.5 528.5,-629.5"/>
<text text-anchor="middle" x="582" y="-636.5" font-family="FreeSans" font-size="10.00">Fun4AllServer::InitAll</text>
</a>
</g>
</g>
<!-- Node14&#45;&gt;Node15 -->
<g id="edge18" class="edge"><title>Node14&#45;&gt;Node15</title>
<path fill="none" stroke="midnightblue" d="M470.595,-639C490.096,-639 510.527,-639 528.437,-639"/>
<polygon fill="midnightblue" stroke="midnightblue" points="470.501,-635.5 460.501,-639 470.501,-642.5 470.501,-635.5"/>
</g>
<!-- Node17 -->
<g id="node17" class="node"><title>Node17</title>
<g id="a_node17"><a xlink:href="../../da/d29/classFun4AllServer.html#a3477a81b5b754fccc94dfa8283d041f4" target="_top" xlink:title="Fun4AllServer::topNode">
<polygon fill="none" stroke="black" points="522.5,-667.5 522.5,-686.5 641.5,-686.5 641.5,-667.5 522.5,-667.5"/>
<text text-anchor="middle" x="582" y="-674.5" font-family="FreeSans" font-size="10.00">Fun4AllServer::topNode</text>
</a>
</g>
</g>
<!-- Node14&#45;&gt;Node17 -->
<g id="edge20" class="edge"><title>Node14&#45;&gt;Node17</title>
<path fill="none" stroke="midnightblue" d="M449.742,-650.61C476.622,-656.014 508.203,-662.364 533.65,-667.48"/>
<polygon fill="midnightblue" stroke="midnightblue" points="450.186,-647.129 439.693,-648.589 448.807,-653.992 450.186,-647.129"/>
</g>
<!-- Node16 -->
<g id="node16" class="node"><title>Node16</title>
<g id="a_node16"><a xlink:href="../../da/d29/classFun4AllServer.html#a90e27f05f0b2e8b6fe462387b14bfb92" target="_top" xlink:title="Fun4AllServer::Fun4AllServer">
<polygon fill="none" stroke="black" points="696,-629.5 696,-648.5 840,-648.5 840,-629.5 696,-629.5"/>
<text text-anchor="middle" x="768" y="-636.5" font-family="FreeSans" font-size="10.00">Fun4AllServer::Fun4AllServer</text>
</a>
</g>
</g>
<!-- Node15&#45;&gt;Node16 -->
<g id="edge19" class="edge"><title>Node15&#45;&gt;Node16</title>
<path fill="none" stroke="midnightblue" d="M646.037,-639C662.046,-639 679.359,-639 695.746,-639"/>
<polygon fill="midnightblue" stroke="midnightblue" points="645.727,-635.5 635.727,-639 645.727,-642.5 645.727,-635.5"/>
</g>
<!-- Node20 -->
<g id="node20" class="node"><title>Node20</title>
<g id="a_node20"><a xlink:href="../../d0/d68/classSimpleReadMySql.html#ace02cda93f92690611b99f9bb06a677c" target="_top" xlink:title="SimpleReadMySql::InitRun">
<polygon fill="none" stroke="black" points="516.5,-515.5 516.5,-534.5 647.5,-534.5 647.5,-515.5 516.5,-515.5"/>
<text text-anchor="middle" x="582" y="-522.5" font-family="FreeSans" font-size="10.00">SimpleReadMySql::InitRun</text>
</a>
</g>
</g>
<!-- Node19&#45;&gt;Node20 -->
<g id="edge23" class="edge"><title>Node19&#45;&gt;Node20</title>
<path fill="none" stroke="midnightblue" d="M477.812,-525C490.737,-525 503.88,-525 516.263,-525"/>
<polygon fill="midnightblue" stroke="midnightblue" points="477.513,-521.5 467.513,-525 477.513,-528.5 477.513,-521.5"/>
</g>
<!-- Node22 -->
<g id="node22" class="node"><title>Node22</title>
<g id="a_node22"><a xlink:href="../../db/dda/classReadMySql.html#ab73b7895d9b3e258b58f31b66b93a827" target="_top" xlink:title="ReadMySql::InitRun">
<polygon fill="none" stroke="black" points="531.5,-591.5 531.5,-610.5 632.5,-610.5 632.5,-591.5 531.5,-591.5"/>
<text text-anchor="middle" x="582" y="-598.5" font-family="FreeSans" font-size="10.00">ReadMySql::InitRun</text>
</a>
</g>
</g>
<!-- Node21&#45;&gt;Node22 -->
<g id="edge25" class="edge"><title>Node21&#45;&gt;Node22</title>
<path fill="none" stroke="midnightblue" d="M462.605,-601C485.525,-601 510.451,-601 531.495,-601"/>
<polygon fill="midnightblue" stroke="midnightblue" points="462.581,-597.5 452.581,-601 462.581,-604.5 462.581,-597.5"/>
</g>
<!-- Node23&#45;&gt;Node5 -->
<g id="edge34" class="edge"><title>Node23&#45;&gt;Node5</title>
<path fill="none" stroke="midnightblue" d="M265.652,-149.866C270.079,-147.69 274.268,-145.095 278,-142 306.46,-118.397 282.705,-86.6916 314,-67 371.93,-30.5483 415.873,-22.6448 468,-67 544.126,-131.776 469.453,-195.204 504,-289 520.13,-332.794 551.943,-378.147 569.199,-400.962"/>
<polygon fill="midnightblue" stroke="midnightblue" points="264.181,-146.687 256.299,-153.766 266.875,-153.147 264.181,-146.687"/>
</g>
<!-- Node24 -->
<g id="node24" class="node"><title>Node24</title>
<g id="a_node24"><a xlink:href="../../da/d29/classFun4AllServer.html#ab2479a9a3e45d51118e308597acd5228" target="_top" xlink:title="Fun4AllServer::ResetNodeTree">
<polygon fill="none" stroke="black" points="315.5,-0.5 315.5,-19.5 466.5,-19.5 466.5,-0.5 315.5,-0.5"/>
<text text-anchor="middle" x="391" y="-7.5" font-family="FreeSans" font-size="10.00">Fun4AllServer::ResetNodeTree</text>
</a>
</g>
</g>
<!-- Node23&#45;&gt;Node24 -->
<g id="edge27" class="edge"><title>Node23&#45;&gt;Node24</title>
<path fill="none" stroke="midnightblue" d="M265.684,-150.575C270.169,-148.251 274.359,-145.428 278,-142 314.839,-107.317 277.94,-69.492 314,-34 320.41,-27.691 328.464,-23.0386 336.915,-19.6082"/>
<polygon fill="midnightblue" stroke="midnightblue" points="263.947,-147.512 256.143,-154.677 266.712,-153.943 263.947,-147.512"/>
</g>
<!-- Node25 -->
<g id="node25" class="node"><title>Node25</title>
<g id="a_node25"><a xlink:href="../../da/d29/classFun4AllServer.html#a6a65a944dfb40966ace97d35ab1f7942" target="_top" xlink:title="Fun4AllServer::process\l_event">
<polygon fill="none" stroke="black" points="523.5,-250 523.5,-280 640.5,-280 640.5,-250 523.5,-250"/>
<text text-anchor="start" x="531.5" y="-268" font-family="FreeSans" font-size="10.00">Fun4AllServer::process</text>
<text text-anchor="middle" x="582" y="-257" font-family="FreeSans" font-size="10.00">_event</text>
</a>
</g>
</g>
<!-- Node24&#45;&gt;Node25 -->
<g id="edge28" class="edge"><title>Node24&#45;&gt;Node25</title>
<path fill="none" stroke="midnightblue" d="M455.488,-24.1629C460.097,-26.8882 464.357,-30.1342 468,-34 512.95,-81.6953 473.577,-118.95 504,-177 519.266,-206.129 546.046,-233.631 563.654,-249.901"/>
<polygon fill="midnightblue" stroke="midnightblue" points="456.771,-20.891 446.263,-19.5379 453.634,-27.1486 456.771,-20.891"/>
</g>
<!-- Node27 -->
<g id="node27" class="node"><title>Node27</title>
<g id="a_node27"><a xlink:href="../../da/d29/classFun4AllServer.html#a11bbc8b2f53bc06e0b05ee202dd6372a" target="_top" xlink:title="run n events (0 means up to end of file) ">
<polygon fill="none" stroke="black" points="720,-231.5 720,-250.5 816,-250.5 816,-231.5 720,-231.5"/>
<text text-anchor="middle" x="768" y="-238.5" font-family="FreeSans" font-size="10.00">Fun4AllServer::run</text>
</a>
</g>
</g>
<!-- Node24&#45;&gt;Node27 -->
<g id="edge33" class="edge"><title>Node24&#45;&gt;Node27</title>
<path fill="none" stroke="midnightblue" d="M437.016,-22.6231C447.336,-25.9538 458.162,-29.8039 468,-34 557.462,-72.1578 581.466,-81.6242 660,-139 700.41,-168.523 741.341,-212.252 758.553,-231.415"/>
<polygon fill="midnightblue" stroke="midnightblue" points="437.914,-19.2369 427.325,-19.5947 435.826,-25.9182 437.914,-19.2369"/>
</g>
<!-- Node26 -->
<g id="node26" class="node"><title>Node26</title>
<g id="a_node26"><a xlink:href="../../da/d29/classFun4AllServer.html#a94738b092fa009fcea45737d8ea41224" target="_top" xlink:title="Fun4AllServer::process\l_event">
<polygon fill="none" stroke="black" points="709.5,-270 709.5,-300 826.5,-300 826.5,-270 709.5,-270"/>
<text text-anchor="start" x="717.5" y="-288" font-family="FreeSans" font-size="10.00">Fun4AllServer::process</text>
<text text-anchor="middle" x="768" y="-277" font-family="FreeSans" font-size="10.00">_event</text>
</a>
</g>
</g>
<!-- Node25&#45;&gt;Node26 -->
<g id="edge29" class="edge"><title>Node25&#45;&gt;Node26</title>
<path fill="none" stroke="midnightblue" d="M650.656,-272.354C669.976,-274.454 690.839,-276.722 709.491,-278.749"/>
<polygon fill="midnightblue" stroke="midnightblue" points="651.034,-268.874 640.714,-271.273 650.277,-275.833 651.034,-268.874"/>
</g>
<!-- Node25&#45;&gt;Node27 -->
<g id="edge30" class="edge"><title>Node25&#45;&gt;Node27</title>
<path fill="none" stroke="midnightblue" d="M650.761,-256.162C673.761,-253.162 698.938,-249.878 719.961,-247.136"/>
<polygon fill="midnightblue" stroke="midnightblue" points="650.177,-252.708 640.714,-257.472 651.083,-259.649 650.177,-252.708"/>
</g>
<!-- Node28 -->
<g id="node28" class="node"><title>Node28</title>
<g id="a_node28"><a xlink:href="../../d0/d46/Fun4__SimpleReadMySql_8C.html#a70381893748e3445abc30632beb256ce" target="_top" xlink:title="Fun4_SimpleReadMySql">
<polygon fill="none" stroke="black" points="876.5,-244.5 876.5,-263.5 999.5,-263.5 999.5,-244.5 876.5,-244.5"/>
<text text-anchor="middle" x="938" y="-251.5" font-family="FreeSans" font-size="10.00">Fun4_SimpleReadMySql</text>
</a>
</g>
</g>
<!-- Node27&#45;&gt;Node28 -->
<g id="edge31" class="edge"><title>Node27&#45;&gt;Node28</title>
<path fill="none" stroke="midnightblue" d="M826.552,-245.453C842.595,-246.695 860.071,-248.047 876.289,-249.302"/>
<polygon fill="midnightblue" stroke="midnightblue" points="826.485,-241.938 816.244,-244.656 825.945,-248.917 826.485,-241.938"/>
</g>
<!-- Node29 -->
<g id="node29" class="node"><title>Node29</title>
<g id="a_node29"><a xlink:href="../../d9/d8c/Fun4ReadMySql_8C.html#a729b39fa627147c63772f28c9be36b62" target="_top" xlink:title="Fun4ReadMySql">
<polygon fill="none" stroke="black" points="894,-307.5 894,-326.5 982,-326.5 982,-307.5 894,-307.5"/>
<text text-anchor="middle" x="938" y="-314.5" font-family="FreeSans" font-size="10.00">Fun4ReadMySql</text>
</a>
</g>
</g>
<!-- Node27&#45;&gt;Node29 -->
<g id="edge32" class="edge"><title>Node27&#45;&gt;Node29</title>
<path fill="none" stroke="midnightblue" d="M821.796,-253.417C828.016,-255.381 834.207,-257.575 840,-260 871.532,-273.197 905.282,-294.987 923.483,-307.455"/>
<polygon fill="midnightblue" stroke="midnightblue" points="822.632,-250.014 812.049,-250.522 820.639,-256.725 822.632,-250.014"/>
</g>
<!-- Node30&#45;&gt;Node5 -->
<g id="edge51" class="edge"><title>Node30&#45;&gt;Node5</title>
<path fill="none" stroke="midnightblue" d="M244.482,-343.636C264.888,-350.242 290.666,-358.147 314,-364 377.556,-379.941 450.651,-393.878 504.275,-403.3"/>
<polygon fill="midnightblue" stroke="midnightblue" points="245.522,-340.294 234.93,-340.512 243.346,-346.947 245.522,-340.294"/>
</g>
<!-- Node30&#45;&gt;Node12 -->
<g id="edge37" class="edge"><title>Node30&#45;&gt;Node12</title>
<path fill="none" stroke="midnightblue" d="M217.942,-349.225C235.11,-376.32 270.905,-427.126 314,-456 319.77,-459.866 326.185,-463.175 332.773,-465.998"/>
<polygon fill="midnightblue" stroke="midnightblue" points="220.906,-347.363 212.665,-340.704 214.955,-351.049 220.906,-347.363"/>
</g>
<!-- Node30&#45;&gt;Node13 -->
<g id="edge46" class="edge"><title>Node30&#45;&gt;Node13</title>
<path fill="none" stroke="midnightblue" d="M211.097,-350.78C220.926,-393.095 249.946,-492.716 314,-544 319.202,-548.165 325.197,-551.432 331.491,-553.992"/>
<polygon fill="midnightblue" stroke="midnightblue" points="214.485,-349.893 208.91,-340.884 207.65,-351.403 214.485,-349.893"/>
</g>
<!-- Node30&#45;&gt;Node18 -->
<g id="edge41" class="edge"><title>Node30&#45;&gt;Node18</title>
<path fill="none" stroke="midnightblue" d="M227.81,-346.721C248.802,-362.112 282.524,-385.577 314,-402 324.438,-407.446 336.097,-412.515 347.087,-416.877"/>
<polygon fill="midnightblue" stroke="midnightblue" points="229.754,-343.805 219.636,-340.663 225.586,-349.429 229.754,-343.805"/>
</g>
<!-- Node30&#45;&gt;Node19 -->
<g id="edge48" class="edge"><title>Node30&#45;&gt;Node19</title>
<path fill="none" stroke="midnightblue" d="M213.441,-350.509C226.43,-386.737 259.285,-464.399 314,-505 319.917,-509.39 326.719,-512.818 333.769,-515.495"/>
<polygon fill="midnightblue" stroke="midnightblue" points="216.62,-348.991 210.046,-340.683 210.004,-351.278 216.62,-348.991"/>
</g>
<!-- Node30&#45;&gt;Node21 -->
<g id="edge47" class="edge"><title>Node30&#45;&gt;Node21</title>
<path fill="none" stroke="midnightblue" d="M214.021,-350.11C234.681,-405.925 295,-565.787 314,-582 318.552,-585.884 323.785,-588.995 329.329,-591.483"/>
<polygon fill="midnightblue" stroke="midnightblue" points="217.288,-348.852 210.543,-340.682 210.721,-351.275 217.288,-348.852"/>
</g>
<!-- Node30&#45;&gt;Node25 -->
<g id="edge42" class="edge"><title>Node30&#45;&gt;Node25</title>
<path fill="none" stroke="midnightblue" d="M278.405,-322.02C331.022,-314.994 404.222,-304.361 468,-292 486.119,-288.488 505.721,-284.038 523.432,-279.768"/>
<polygon fill="midnightblue" stroke="midnightblue" points="277.618,-318.594 268.164,-323.377 278.538,-325.533 277.618,-318.594"/>
</g>
<!-- Node30&#45;&gt;Node30 -->
<g id="edge52" class="edge"><title>Node30&#45;&gt;Node30</title>
<path fill="none" stroke="midnightblue" d="M176.881,-349.654C178.098,-354.937 187.804,-359 206,-359 233.727,-359 241.741,-349.565 230.044,-340.757"/>
<polygon fill="midnightblue" stroke="midnightblue" points="180.041,-351.177 181.956,-340.757 173.961,-347.709 180.041,-351.177"/>
</g>
<!-- Node31 -->
<g id="node31" class="node"><title>Node31</title>
<g id="a_node31"><a xlink:href="../../da/daa/classFun4AllDstOutputManager.html#aa4b5b519c6db1540d03007c8c21436fc" target="_top" xlink:title="write starting from given node ">
<polygon fill="none" stroke="black" points="325.5,-77 325.5,-107 456.5,-107 456.5,-77 325.5,-77"/>
<text text-anchor="start" x="333.5" y="-95" font-family="FreeSans" font-size="10.00">Fun4AllDstOutputManager</text>
<text text-anchor="middle" x="391" y="-84" font-family="FreeSans" font-size="10.00">::Write</text>
</a>
</g>
</g>
<!-- Node30&#45;&gt;Node31 -->
<g id="edge36" class="edge"><title>Node30&#45;&gt;Node31</title>
<path fill="none" stroke="midnightblue" d="M215.611,-312.371C238.182,-263.817 298.392,-136.16 314,-122 320.724,-115.9 328.836,-110.975 337.221,-107.019"/>
<polygon fill="midnightblue" stroke="midnightblue" points="212.427,-310.918 211.395,-321.462 218.777,-313.862 212.427,-310.918"/>
</g>
<!-- Node32 -->
<g id="node32" class="node"><title>Node32</title>
<g id="a_node32"><a xlink:href="../../da/dd8/classFun4AllPrdfInputManager.html#ac3f313ef5571ce32cd40799791e2ea56" target="_top" xlink:title="Fun4AllPrdfInputManager::run">
<polygon fill="none" stroke="black" points="509.5,-148.5 509.5,-167.5 654.5,-167.5 654.5,-148.5 509.5,-148.5"/>
<text text-anchor="middle" x="582" y="-155.5" font-family="FreeSans" font-size="10.00">Fun4AllPrdfInputManager::run</text>
</a>
</g>
</g>
<!-- Node30&#45;&gt;Node32 -->
<g id="edge38" class="edge"><title>Node30&#45;&gt;Node32</title>
<path fill="none" stroke="midnightblue" d="M212.016,-311.472C223.022,-273.211 253.291,-189.139 314,-155 389.964,-112.282 498.351,-133.924 550.571,-148.435"/>
<polygon fill="midnightblue" stroke="midnightblue" points="208.571,-310.802 209.309,-321.371 215.323,-312.649 208.571,-310.802"/>
</g>
<!-- Node33 -->
<g id="node33" class="node"><title>Node33</title>
<g id="a_node33"><a xlink:href="../../da/dd8/classFun4AllPrdfInputManager.html#a4d3e00664417e9198d9fab5d4c336f97" target="_top" xlink:title="Fun4AllPrdfInputManager\l::ResetEvent">
<polygon fill="none" stroke="black" points="327.5,-165 327.5,-195 454.5,-195 454.5,-165 327.5,-165"/>
<text text-anchor="start" x="335.5" y="-183" font-family="FreeSans" font-size="10.00">Fun4AllPrdfInputManager</text>
<text text-anchor="middle" x="391" y="-172" font-family="FreeSans" font-size="10.00">::ResetEvent</text>
</a>
</g>
</g>
<!-- Node30&#45;&gt;Node33 -->
<g id="edge39" class="edge"><title>Node30&#45;&gt;Node33</title>
<path fill="none" stroke="midnightblue" d="M217.906,-312.626C235.027,-285.31 270.763,-234.093 314,-205 319.647,-201.2 325.916,-197.94 332.363,-195.15"/>
<polygon fill="midnightblue" stroke="midnightblue" points="214.883,-310.861 212.645,-321.216 220.852,-314.517 214.883,-310.861"/>
</g>
<!-- Node34 -->
<g id="node34" class="node"><title>Node34</title>
<g id="a_node34"><a xlink:href="../../da/d29/classFun4AllServer.html#ab7263450319ca1d5029209fde26a7af8" target="_top" xlink:title="Fun4AllServer::End">
<polygon fill="none" stroke="black" points="718.5,-319.5 718.5,-338.5 817.5,-338.5 817.5,-319.5 718.5,-319.5"/>
<text text-anchor="middle" x="768" y="-326.5" font-family="FreeSans" font-size="10.00">Fun4AllServer::End</text>
</a>
</g>
</g>
<!-- Node30&#45;&gt;Node34 -->
<g id="edge43" class="edge"><title>Node30&#45;&gt;Node34</title>
<path fill="none" stroke="midnightblue" d="M278.429,-330.745C394.077,-330.332 619.328,-329.527 718.333,-329.174"/>
<polygon fill="midnightblue" stroke="midnightblue" points="278.251,-327.245 268.264,-330.781 278.276,-334.245 278.251,-327.245"/>
</g>
<!-- Node35 -->
<g id="node35" class="node"><title>Node35</title>
<g id="a_node35"><a xlink:href="../../da/dc3/namespacefindNode.html#af4793f47e215cb6b0d51e0a9303a4382" target="_top" xlink:title="findNode::getClass">
<polygon fill="none" stroke="black" points="342,-214.5 342,-233.5 440,-233.5 440,-214.5 342,-214.5"/>
<text text-anchor="middle" x="391" y="-221.5" font-family="FreeSans" font-size="10.00">findNode::getClass</text>
</a>
</g>
</g>
<!-- Node30&#45;&gt;Node35 -->
<g id="edge49" class="edge"><title>Node30&#45;&gt;Node35</title>
<path fill="none" stroke="midnightblue" d="M222.878,-313.976C242.434,-294.022 277.563,-261.354 314,-243 322.624,-238.656 332.31,-235.26 341.806,-232.62"/>
<polygon fill="midnightblue" stroke="midnightblue" points="220.122,-311.792 215.719,-321.429 225.17,-316.642 220.122,-311.792"/>
</g>
<!-- Node36 -->
<g id="node36" class="node"><title>Node36</title>
<g id="a_node36"><a xlink:href="../../d7/ddf/classPHDataNodeIterator.html#ae27304781fe696bd4aec95829c076cfc" target="_top" xlink:title="PHDataNodeIterator\l::FindIODataNode">
<polygon fill="none" stroke="black" points="338.5,-253 338.5,-283 443.5,-283 443.5,-253 338.5,-253"/>
<text text-anchor="start" x="346.5" y="-271" font-family="FreeSans" font-size="10.00">PHDataNodeIterator</text>
<text text-anchor="middle" x="391" y="-260" font-family="FreeSans" font-size="10.00">::FindIODataNode</text>
</a>
</g>
</g>
<!-- Node30&#45;&gt;Node36 -->
<g id="edge50" class="edge"><title>Node30&#45;&gt;Node36</title>
<path fill="none" stroke="midnightblue" d="M244.326,-318.15C273.857,-307.984 315.154,-293.767 346.24,-283.065"/>
<polygon fill="midnightblue" stroke="midnightblue" points="243.11,-314.867 234.794,-321.432 245.388,-321.486 243.11,-314.867"/>
</g>
<!-- Node33&#45;&gt;Node32 -->
<g id="edge40" class="edge"><title>Node33&#45;&gt;Node32</title>
<path fill="none" stroke="midnightblue" d="M464.679,-171.54C479.333,-169.834 494.727,-168.042 509.345,-166.341"/>
<polygon fill="midnightblue" stroke="midnightblue" points="464.2,-168.072 454.672,-172.705 465.009,-175.025 464.2,-168.072"/>
</g>
<!-- Node34&#45;&gt;Node28 -->
<g id="edge44" class="edge"><title>Node34&#45;&gt;Node28</title>
<path fill="none" stroke="midnightblue" d="M819.033,-316.553C826.165,-314.305 833.337,-311.779 840,-309 870.91,-296.106 904.341,-275.522 922.77,-263.529"/>
<polygon fill="midnightblue" stroke="midnightblue" points="817.956,-313.221 809.381,-319.444 819.965,-319.927 817.956,-313.221"/>
</g>
<!-- Node34&#45;&gt;Node29 -->
<g id="edge45" class="edge"><title>Node34&#45;&gt;Node29</title>
<path fill="none" stroke="midnightblue" d="M827.731,-324.805C849.521,-323.248 873.813,-321.513 893.949,-320.075"/>
<polygon fill="midnightblue" stroke="midnightblue" points="827.318,-321.325 817.593,-325.529 827.817,-328.308 827.318,-321.325"/>
</g>
</g>
</svg>
