<?xml version="1.0" encoding="UTF-8" standalone="no"?>
<!DOCTYPE svg PUBLIC "-//W3C//DTD SVG 1.1//EN"
 "http://www.w3.org/Graphics/SVG/1.1/DTD/svg11.dtd">
<!-- Generated by graphviz version 2.36.0 (20140111.2315)
 -->
<!-- Title: PHNode::setObjectType Pages: 1 -->
<svg width="1142pt" height="125pt"
 viewBox="0.00 0.00 1142.00 125.05" xmlns="http://www.w3.org/2000/svg" xmlns:xlink="http://www.w3.org/1999/xlink">
<g id="graph0" class="graph" transform="scale(1 1) rotate(0) translate(4 121.049)">
<title>PHNode::setObjectType</title>
<!-- Node1 -->
<g id="node1" class="node"><title>Node1</title>
<polygon fill="#bfbfbf" stroke="black" points="0,-54.3025 0,-73.3025 122,-73.3025 122,-54.3025 0,-54.3025"/>
<text text-anchor="middle" x="61" y="-61.3025" font-family="FreeSans" font-size="10.00">PHNode::setObjectType</text>
</g>
<!-- Node2 -->
<g id="node2" class="node"><title>Node2</title>
<g id="a_node2"><a xlink:href="../../d7/d4d/classPHNodeIOManager.html#a3882997324989c7dd04e9f6b728af7db" target="_top" xlink:title="PHNodeIOManager::reconstruct\lNodeTree">
<polygon fill="none" stroke="black" points="158.5,-48.8025 158.5,-78.8025 313.5,-78.8025 313.5,-48.8025 158.5,-48.8025"/>
<text text-anchor="start" x="166.5" y="-66.8025" font-family="FreeSans" font-size="10.00">PHNodeIOManager::reconstruct</text>
<text text-anchor="middle" x="236" y="-55.8025" font-family="FreeSans" font-size="10.00">NodeTree</text>
</a>
</g>
</g>
<!-- Node1&#45;&gt;Node2 -->
<g id="edge1" class="edge"><title>Node1&#45;&gt;Node2</title>
<path fill="none" stroke="midnightblue" d="M132.051,-63.8025C140.702,-63.8025 149.581,-63.8025 158.325,-63.8025"/>
<polygon fill="midnightblue" stroke="midnightblue" points="132.022,-60.3026 122.021,-63.8025 132.021,-67.3026 132.022,-60.3026"/>
</g>
<!-- Node3 -->
<g id="node3" class="node"><title>Node3</title>
<g id="a_node3"><a xlink:href="../../d7/d4d/classPHNodeIOManager.html#a92da4bff2438e94d469011b7720f286f" target="_top" xlink:title="PHNodeIOManager::read">
<polygon fill="none" stroke="black" points="350.5,-54.3025 350.5,-73.3025 475.5,-73.3025 475.5,-54.3025 350.5,-54.3025"/>
<text text-anchor="middle" x="413" y="-61.3025" font-family="FreeSans" font-size="10.00">PHNodeIOManager::read</text>
</a>
</g>
</g>
<!-- Node2&#45;&gt;Node3 -->
<g id="edge2" class="edge"><title>Node2&#45;&gt;Node3</title>
<path fill="none" stroke="midnightblue" d="M323.659,-63.8025C332.676,-63.8025 341.706,-63.8025 350.364,-63.8025"/>
<polygon fill="midnightblue" stroke="midnightblue" points="323.503,-60.3026 313.503,-63.8025 323.503,-67.3026 323.503,-60.3026"/>
</g>
<!-- Node4 -->
<g id="node4" class="node"><title>Node4</title>
<g id="a_node4"><a xlink:href="../../d7/d0b/classFun4AllDstInputManager.html#a4d32eadb9f77d41387656b87377ef14f" target="_top" xlink:title="Fun4AllDstInputManager\l::fileopen">
<polygon fill="none" stroke="black" points="512,-26.8025 512,-56.8025 636,-56.8025 636,-26.8025 512,-26.8025"/>
<text text-anchor="start" x="520" y="-44.8025" font-family="FreeSans" font-size="10.00">Fun4AllDstInputManager</text>
<text text-anchor="middle" x="574" y="-33.8025" font-family="FreeSans" font-size="10.00">::fileopen</text>
</a>
</g>
</g>
<!-- Node3&#45;&gt;Node4 -->
<g id="edge3" class="edge"><title>Node3&#45;&gt;Node4</title>
<path fill="none" stroke="midnightblue" d="M485.965,-53.8451C494.582,-52.6529 503.318,-51.4441 511.763,-50.2756"/>
<polygon fill="midnightblue" stroke="midnightblue" points="485.355,-50.3961 475.929,-55.2338 486.314,-57.33 485.355,-50.3961"/>
</g>
<!-- Node6 -->
<g id="node6" class="node"><title>Node6</title>
<g id="a_node6"><a xlink:href="../../d7/d0b/classFun4AllDstInputManager.html#ade26017b627e0e1f1ec0dec62ac7fd52" target="_top" xlink:title="Fun4AllDstInputManager\l::ReadNextEventSyncObject">
<polygon fill="none" stroke="black" points="833.5,-26.8025 833.5,-56.8025 972.5,-56.8025 972.5,-26.8025 833.5,-26.8025"/>
<text text-anchor="start" x="841.5" y="-44.8025" font-family="FreeSans" font-size="10.00">Fun4AllDstInputManager</text>
<text text-anchor="middle" x="903" y="-33.8025" font-family="FreeSans" font-size="10.00">::ReadNextEventSyncObject</text>
</a>
</g>
</g>
<!-- Node3&#45;&gt;Node6 -->
<g id="edge10" class="edge"><title>Node3&#45;&gt;Node6</title>
<path fill="none" stroke="midnightblue" d="M437.142,-49.0287C456.341,-37.6987 484.803,-22.987 512,-16.8025 635.08,11.1854 670.623,-2.21761 796,-16.8025 813.466,-18.8344 832.231,-22.6893 849.047,-26.7745"/>
<polygon fill="midnightblue" stroke="midnightblue" points="435.242,-46.0878 428.507,-54.2669 438.873,-52.0727 435.242,-46.0878"/>
</g>
<!-- Node7 -->
<g id="node7" class="node"><title>Node7</title>
<g id="a_node7"><a xlink:href="../../d7/d0b/classFun4AllDstInputManager.html#a0244c2edbaa2350038304b09f352c2d0" target="_top" xlink:title="Fun4AllDstInputManager\l::SyncIt">
<polygon fill="none" stroke="black" points="1010,-67.8025 1010,-97.8025 1134,-97.8025 1134,-67.8025 1010,-67.8025"/>
<text text-anchor="start" x="1018" y="-85.8025" font-family="FreeSans" font-size="10.00">Fun4AllDstInputManager</text>
<text text-anchor="middle" x="1072" y="-74.8025" font-family="FreeSans" font-size="10.00">::SyncIt</text>
</a>
</g>
</g>
<!-- Node3&#45;&gt;Node7 -->
<g id="edge9" class="edge"><title>Node3&#45;&gt;Node7</title>
<path fill="none" stroke="midnightblue" d="M459.895,-75.7143C476.237,-79.5272 494.841,-83.3833 512,-85.8025 715.494,-114.493 769.77,-127.672 974,-104.803 987.214,-103.323 1001.25,-100.743 1014.43,-97.8586"/>
<polygon fill="midnightblue" stroke="midnightblue" points="460.584,-72.2807 450.045,-73.359 458.957,-79.0887 460.584,-72.2807"/>
</g>
<!-- Node8 -->
<g id="node8" class="node"><title>Node8</title>
<g id="a_node8"><a xlink:href="../../d7/d0b/classFun4AllDstInputManager.html#aeafa0248f9050c13fdae1bcb93336d7a" target="_top" xlink:title="Fun4AllDstInputManager::run">
<polygon fill="none" stroke="black" points="832,-76.3025 832,-95.3025 974,-95.3025 974,-76.3025 832,-76.3025"/>
<text text-anchor="middle" x="903" y="-83.3025" font-family="FreeSans" font-size="10.00">Fun4AllDstInputManager::run</text>
</a>
</g>
</g>
<!-- Node3&#45;&gt;Node8 -->
<g id="edge8" class="edge"><title>Node3&#45;&gt;Node8</title>
<path fill="none" stroke="midnightblue" d="M485.961,-67.0467C578.866,-71.235 739.511,-78.4772 831.633,-82.6302"/>
<polygon fill="midnightblue" stroke="midnightblue" points="485.953,-63.5428 475.806,-66.5888 485.638,-70.5357 485.953,-63.5428"/>
</g>
<!-- Node5 -->
<g id="node5" class="node"><title>Node5</title>
<g id="a_node5"><a xlink:href="../../d7/d0b/classFun4AllDstInputManager.html#ae4e92b95ae50ab72856d06c99b043496" target="_top" xlink:title="Fun4AllDstInputManager\l::OpenNextFile">
<polygon fill="none" stroke="black" points="672,-26.8025 672,-56.8025 796,-56.8025 796,-26.8025 672,-26.8025"/>
<text text-anchor="start" x="680" y="-44.8025" font-family="FreeSans" font-size="10.00">Fun4AllDstInputManager</text>
<text text-anchor="middle" x="734" y="-33.8025" font-family="FreeSans" font-size="10.00">::OpenNextFile</text>
</a>
</g>
</g>
<!-- Node4&#45;&gt;Node5 -->
<g id="edge4" class="edge"><title>Node4&#45;&gt;Node5</title>
<path fill="none" stroke="midnightblue" d="M646.366,-41.8025C654.863,-41.8025 663.478,-41.8025 671.815,-41.8025"/>
<polygon fill="midnightblue" stroke="midnightblue" points="646.087,-38.3026 636.087,-41.8025 646.087,-45.3026 646.087,-38.3026"/>
</g>
<!-- Node5&#45;&gt;Node6 -->
<g id="edge5" class="edge"><title>Node5&#45;&gt;Node6</title>
<path fill="none" stroke="midnightblue" d="M806.291,-41.8025C815.291,-41.8025 824.483,-41.8025 833.438,-41.8025"/>
<polygon fill="midnightblue" stroke="midnightblue" points="806.236,-38.3026 796.236,-41.8025 806.236,-45.3026 806.236,-38.3026"/>
</g>
<!-- Node5&#45;&gt;Node8 -->
<g id="edge7" class="edge"><title>Node5&#45;&gt;Node8</title>
<path fill="none" stroke="midnightblue" d="M801.874,-59.4219C823.642,-65.1573 846.981,-71.3066 865.646,-76.2242"/>
<polygon fill="midnightblue" stroke="midnightblue" points="802.567,-55.9851 792.005,-56.8218 800.783,-62.7541 802.567,-55.9851"/>
</g>
<!-- Node6&#45;&gt;Node7 -->
<g id="edge6" class="edge"><title>Node6&#45;&gt;Node7</title>
<path fill="none" stroke="midnightblue" d="M975.233,-59.291C986.728,-62.113 998.539,-65.0128 1009.77,-67.7703"/>
<polygon fill="midnightblue" stroke="midnightblue" points="975.782,-55.8219 965.236,-56.8366 974.113,-62.62 975.782,-55.8219"/>
</g>
</g>
</svg>
