<?xml version="1.0" encoding="UTF-8" standalone="no"?>
<!DOCTYPE svg PUBLIC "-//W3C//DTD SVG 1.1//EN"
 "http://www.w3.org/Graphics/SVG/1.1/DTD/svg11.dtd">
<!-- Generated by graphviz version 2.36.0 (20140111.2315)
 -->
<!-- Title: PHNode::write Pages: 1 -->
<svg width="582pt" height="126pt"
 viewBox="0.00 0.00 582.00 126.00" xmlns="http://www.w3.org/2000/svg" xmlns:xlink="http://www.w3.org/1999/xlink">
<g id="graph0" class="graph" transform="scale(1 1) rotate(0) translate(4 122)">
<title>PHNode::write</title>
<!-- Node1 -->
<g id="node1" class="node"><title>Node1</title>
<polygon fill="#bfbfbf" stroke="black" points="0,-44.5 0,-63.5 80,-63.5 80,-44.5 0,-44.5"/>
<text text-anchor="middle" x="40" y="-51.5" font-family="FreeSans" font-size="10.00">PHNode::write</text>
</g>
<!-- Node2 -->
<g id="node2" class="node"><title>Node2</title>
<g id="a_node2"><a xlink:href="../../d5/dca/classPHCompositeNode.html#a774f54eea4fcb26e8b98f537efc1c6d9" target="_top" xlink:title="PHCompositeNode::write">
<polygon fill="none" stroke="black" points="116,-44.5 116,-63.5 242,-63.5 242,-44.5 116,-44.5"/>
<text text-anchor="middle" x="179" y="-51.5" font-family="FreeSans" font-size="10.00">PHCompositeNode::write</text>
</a>
</g>
</g>
<!-- Node1&#45;&gt;Node2 -->
<g id="edge1" class="edge"><title>Node1&#45;&gt;Node2</title>
<path fill="none" stroke="midnightblue" d="M90.4839,-54C98.7582,-54 107.434,-54 115.975,-54"/>
<polygon fill="midnightblue" stroke="midnightblue" points="90.2587,-50.5001 80.2587,-54 90.2587,-57.5001 90.2587,-50.5001"/>
</g>
<!-- Node3 -->
<g id="node3" class="node"><title>Node3</title>
<g id="a_node3"><a xlink:href="../../d7/d4d/classPHNodeIOManager.html#a436c3a21a9c6ea54a33ffcc9f2480949" target="_top" xlink:title="PHNodeIOManager::write">
<polygon fill="none" stroke="black" points="278,-44.5 278,-63.5 406,-63.5 406,-44.5 278,-44.5"/>
<text text-anchor="middle" x="342" y="-51.5" font-family="FreeSans" font-size="10.00">PHNodeIOManager::write</text>
</a>
</g>
</g>
<!-- Node2&#45;&gt;Node3 -->
<g id="edge2" class="edge"><title>Node2&#45;&gt;Node3</title>
<path fill="none" stroke="midnightblue" d="M252.486,-54C260.95,-54 269.533,-54 277.856,-54"/>
<polygon fill="midnightblue" stroke="midnightblue" points="252.247,-50.5001 242.247,-54 252.247,-57.5001 252.247,-50.5001"/>
</g>
<!-- Node4 -->
<g id="node4" class="node"><title>Node4</title>
<g id="a_node4"><a xlink:href="../../da/daa/classFun4AllDstOutputManager.html#aa4b5b519c6db1540d03007c8c21436fc" target="_top" xlink:title="write starting from given node ">
<polygon fill="none" stroke="black" points="442.5,-88 442.5,-118 573.5,-118 573.5,-88 442.5,-88"/>
<text text-anchor="start" x="450.5" y="-106" font-family="FreeSans" font-size="10.00">Fun4AllDstOutputManager</text>
<text text-anchor="middle" x="508" y="-95" font-family="FreeSans" font-size="10.00">::Write</text>
</a>
</g>
</g>
<!-- Node3&#45;&gt;Node4 -->
<g id="edge3" class="edge"><title>Node3&#45;&gt;Node4</title>
<path fill="none" stroke="midnightblue" d="M384.683,-66.4541C406.589,-72.9992 433.606,-81.0713 456.672,-87.963"/>
<polygon fill="midnightblue" stroke="midnightblue" points="385.594,-63.0733 375.01,-63.564 383.59,-69.7804 385.594,-63.0733"/>
</g>
<!-- Node5 -->
<g id="node5" class="node"><title>Node5</title>
<g id="a_node5"><a xlink:href="../../da/daa/classFun4AllDstOutputManager.html#ac839ec7d93dd52ca363c8307fa88cb94" target="_top" xlink:title="write specified node ">
<polygon fill="none" stroke="black" points="442.5,-39 442.5,-69 573.5,-69 573.5,-39 442.5,-39"/>
<text text-anchor="start" x="450.5" y="-57" font-family="FreeSans" font-size="10.00">Fun4AllDstOutputManager</text>
<text text-anchor="middle" x="508" y="-46" font-family="FreeSans" font-size="10.00">::WriteNode</text>
</a>
</g>
</g>
<!-- Node3&#45;&gt;Node5 -->
<g id="edge4" class="edge"><title>Node3&#45;&gt;Node5</title>
<path fill="none" stroke="midnightblue" d="M416.475,-54C425.122,-54 433.896,-54 442.408,-54"/>
<polygon fill="midnightblue" stroke="midnightblue" points="416.407,-50.5001 406.407,-54 416.407,-57.5001 416.407,-50.5001"/>
</g>
<!-- Node6 -->
<g id="node6" class="node"><title>Node6</title>
<g id="a_node6"><a xlink:href="../../d9/dde/classPHIODataNode.html#a85de85728a52af6aac318b64179ffd2f" target="_top" xlink:title="PHIODataNode::write">
<polygon fill="none" stroke="black" points="453,-0.5 453,-19.5 563,-19.5 563,-0.5 453,-0.5"/>
<text text-anchor="middle" x="508" y="-7.5" font-family="FreeSans" font-size="10.00">PHIODataNode::write</text>
</a>
</g>
</g>
<!-- Node3&#45;&gt;Node6 -->
<g id="edge5" class="edge"><title>Node3&#45;&gt;Node6</title>
<path fill="none" stroke="midnightblue" d="M388.304,-41.8453C414.547,-34.8045 447.107,-26.0688 471.484,-19.5287"/>
<polygon fill="midnightblue" stroke="midnightblue" points="387.337,-38.4808 378.586,-44.4527 389.151,-45.2417 387.337,-38.4808"/>
</g>
</g>
</svg>
