<?xml version="1.0" encoding="UTF-8" standalone="no"?>
<!DOCTYPE svg PUBLIC "-//W3C//DTD SVG 1.1//EN"
 "http://www.w3.org/Graphics/SVG/1.1/DTD/svg11.dtd">
<!-- Generated by graphviz version 2.36.0 (20140111.2315)
 -->
<!-- Title: PHNode::getType Pages: 1 -->
<svg width="1480pt" height="641pt"
 viewBox="0.00 0.00 1480.00 641.00" xmlns="http://www.w3.org/2000/svg" xmlns:xlink="http://www.w3.org/1999/xlink">
<g id="graph0" class="graph" transform="scale(1 1) rotate(0) translate(4 637)">
<title>PHNode::getType</title>
<!-- Node1 -->
<g id="node1" class="node"><title>Node1</title>
<polygon fill="#bfbfbf" stroke="black" points="0.5,-76.5 0.5,-95.5 93.5,-95.5 93.5,-76.5 0.5,-76.5"/>
<text text-anchor="middle" x="47" y="-83.5" font-family="FreeSans" font-size="10.00">PHNode::getType</text>
</g>
<!-- Node2 -->
<g id="node2" class="node"><title>Node2</title>
<g id="a_node2"><a xlink:href="../../d5/d07/classPHNodeIterator.html#a4cfa0490b6522394b13723c7db38a3a6" target="_top" xlink:title="PHNodeIterator::cd">
<polygon fill="none" stroke="black" points="141,-132.5 141,-151.5 241,-151.5 241,-132.5 141,-132.5"/>
<text text-anchor="middle" x="191" y="-139.5" font-family="FreeSans" font-size="10.00">PHNodeIterator::cd</text>
</a>
</g>
</g>
<!-- Node1&#45;&gt;Node2 -->
<g id="edge1" class="edge"><title>Node1&#45;&gt;Node2</title>
<path fill="none" stroke="midnightblue" d="M76.7239,-99.9575C92.3016,-107.272 112,-116.116 130,-123 138.777,-126.357 148.428,-129.602 157.375,-132.433"/>
<polygon fill="midnightblue" stroke="midnightblue" points="78.1439,-96.7573 67.609,-95.6316 75.1425,-103.081 78.1439,-96.7573"/>
</g>
<!-- Node16 -->
<g id="node16" class="node"><title>Node16</title>
<g id="a_node16"><a xlink:href="../../d5/d07/classPHNodeIterator.html#aea98bf8619af59b1212a94fb32106baa" target="_top" xlink:title="PHNodeIterator::findFirst">
<polygon fill="none" stroke="black" points="302,-320.5 302,-339.5 426,-339.5 426,-320.5 302,-320.5"/>
<text text-anchor="middle" x="364" y="-327.5" font-family="FreeSans" font-size="10.00">PHNodeIterator::findFirst</text>
</a>
</g>
</g>
<!-- Node1&#45;&gt;Node16 -->
<g id="edge19" class="edge"><title>Node1&#45;&gt;Node16</title>
<path fill="none" stroke="midnightblue" d="M65.4035,-102.99C81.6592,-118.597 106.829,-142.102 130,-161 209.58,-225.905 311.538,-295.508 348.667,-320.442"/>
<polygon fill="midnightblue" stroke="midnightblue" points="67.3958,-100.048 57.7731,-95.6143 62.5308,-105.081 67.3958,-100.048"/>
</g>
<!-- Node30 -->
<g id="node30" class="node"><title>Node30</title>
<g id="a_node30"><a xlink:href="../../d5/d07/classPHNodeIterator.html#afeaefab44bf0ab15a439926205924f19" target="_top" xlink:title="PHNodeIterator::forEach">
<polygon fill="none" stroke="black" points="130,-76.5 130,-95.5 252,-95.5 252,-76.5 130,-76.5"/>
<text text-anchor="middle" x="191" y="-83.5" font-family="FreeSans" font-size="10.00">PHNodeIterator::forEach</text>
</a>
</g>
</g>
<!-- Node1&#45;&gt;Node30 -->
<g id="edge40" class="edge"><title>Node1&#45;&gt;Node30</title>
<path fill="none" stroke="midnightblue" d="M103.916,-86C112.434,-86 121.256,-86 129.86,-86"/>
<polygon fill="midnightblue" stroke="midnightblue" points="103.711,-82.5001 93.7113,-86 103.711,-89.5001 103.711,-82.5001"/>
</g>
<!-- Node32 -->
<g id="node32" class="node"><title>Node32</title>
<g id="a_node32"><a xlink:href="../../d3/d62/PHNode_8h.html#aa3bad2a458c976e7f0ac256ffa858496" target="_top" xlink:title="operator\&lt;\&lt;">
<polygon fill="none" stroke="black" points="159,-38.5 159,-57.5 223,-57.5 223,-38.5 159,-38.5"/>
<text text-anchor="middle" x="191" y="-45.5" font-family="FreeSans" font-size="10.00">operator&lt;&lt;</text>
</a>
</g>
</g>
<!-- Node1&#45;&gt;Node32 -->
<g id="edge44" class="edge"><title>Node1&#45;&gt;Node32</title>
<path fill="none" stroke="midnightblue" d="M93.6018,-73.7967C114.79,-68.1267 139.454,-61.5265 158.53,-56.4216"/>
<polygon fill="midnightblue" stroke="midnightblue" points="92.5879,-70.4448 83.8326,-76.411 94.3975,-77.2069 92.5879,-70.4448"/>
</g>
<!-- Node33 -->
<g id="node33" class="node"><title>Node33</title>
<g id="a_node33"><a xlink:href="../../d1/d1b/classPHNodeReset.html#a3ebec31e2e9e4eb7e961df219e6fa49d" target="_top" xlink:title="PHNodeReset::perform">
<polygon fill="none" stroke="black" points="132.5,-0.5 132.5,-19.5 249.5,-19.5 249.5,-0.5 132.5,-0.5"/>
<text text-anchor="middle" x="191" y="-7.5" font-family="FreeSans" font-size="10.00">PHNodeReset::perform</text>
</a>
</g>
</g>
<!-- Node1&#45;&gt;Node33 -->
<g id="edge45" class="edge"><title>Node1&#45;&gt;Node33</title>
<path fill="none" stroke="midnightblue" d="M67.5609,-69.8682C83.5472,-57.3287 107.159,-40.2331 130,-29 137.452,-25.3353 145.767,-22.1719 153.777,-19.5353"/>
<polygon fill="midnightblue" stroke="midnightblue" points="65.1419,-67.3211 59.5175,-76.2997 69.5135,-72.7882 65.1419,-67.3211"/>
</g>
<!-- Node3 -->
<g id="node3" class="node"><title>Node3</title>
<g id="a_node3"><a xlink:href="../../da/d29/classFun4AllServer.html#ab2479a9a3e45d51118e308597acd5228" target="_top" xlink:title="Fun4AllServer::ResetNodeTree">
<polygon fill="none" stroke="black" points="288.5,-83.5 288.5,-102.5 439.5,-102.5 439.5,-83.5 288.5,-83.5"/>
<text text-anchor="middle" x="364" y="-90.5" font-family="FreeSans" font-size="10.00">Fun4AllServer::ResetNodeTree</text>
</a>
</g>
</g>
<!-- Node2&#45;&gt;Node3 -->
<g id="edge2" class="edge"><title>Node2&#45;&gt;Node3</title>
<path fill="none" stroke="midnightblue" d="M235.343,-129.58C264.653,-121.181 302.778,-110.257 329.708,-102.54"/>
<polygon fill="midnightblue" stroke="midnightblue" points="234.025,-126.317 225.376,-132.436 235.954,-133.046 234.025,-126.317"/>
</g>
<!-- Node9 -->
<g id="node9" class="node"><title>Node9</title>
<g id="a_node9"><a xlink:href="../../d7/d4d/classPHNodeIOManager.html#a3882997324989c7dd04e9f6b728af7db" target="_top" xlink:title="PHNodeIOManager::reconstruct\lNodeTree">
<polygon fill="none" stroke="black" points="476.5,-127 476.5,-157 631.5,-157 631.5,-127 476.5,-127"/>
<text text-anchor="start" x="484.5" y="-145" font-family="FreeSans" font-size="10.00">PHNodeIOManager::reconstruct</text>
<text text-anchor="middle" x="554" y="-134" font-family="FreeSans" font-size="10.00">NodeTree</text>
</a>
</g>
</g>
<!-- Node2&#45;&gt;Node9 -->
<g id="edge9" class="edge"><title>Node2&#45;&gt;Node9</title>
<path fill="none" stroke="midnightblue" d="M251.367,-142C312.83,-142 409.092,-142 476.288,-142"/>
<polygon fill="midnightblue" stroke="midnightblue" points="251.062,-138.5 241.062,-142 251.062,-145.5 251.062,-138.5"/>
</g>
<!-- Node4 -->
<g id="node4" class="node"><title>Node4</title>
<g id="a_node4"><a xlink:href="../../da/d29/classFun4AllServer.html#a6a65a944dfb40966ace97d35ab1f7942" target="_top" xlink:title="Fun4AllServer::process\l_event">
<polygon fill="none" stroke="black" points="495.5,-78 495.5,-108 612.5,-108 612.5,-78 495.5,-78"/>
<text text-anchor="start" x="503.5" y="-96" font-family="FreeSans" font-size="10.00">Fun4AllServer::process</text>
<text text-anchor="middle" x="554" y="-85" font-family="FreeSans" font-size="10.00">_event</text>
</a>
</g>
</g>
<!-- Node3&#45;&gt;Node4 -->
<g id="edge3" class="edge"><title>Node3&#45;&gt;Node4</title>
<path fill="none" stroke="midnightblue" d="M449.66,-93C465.111,-93 480.903,-93 495.342,-93"/>
<polygon fill="midnightblue" stroke="midnightblue" points="449.573,-89.5001 439.573,-93 449.573,-96.5001 449.573,-89.5001"/>
</g>
<!-- Node6 -->
<g id="node6" class="node"><title>Node6</title>
<g id="a_node6"><a xlink:href="../../da/d29/classFun4AllServer.html#a11bbc8b2f53bc06e0b05ee202dd6372a" target="_top" xlink:title="run n events (0 means up to end of file) ">
<polygon fill="none" stroke="black" points="693,-40.5 693,-59.5 789,-59.5 789,-40.5 693,-40.5"/>
<text text-anchor="middle" x="741" y="-47.5" font-family="FreeSans" font-size="10.00">Fun4AllServer::run</text>
</a>
</g>
</g>
<!-- Node3&#45;&gt;Node6 -->
<g id="edge8" class="edge"><title>Node3&#45;&gt;Node6</title>
<path fill="none" stroke="midnightblue" d="M412.651,-81.1529C432.173,-76.7037 455.059,-72.0021 476,-69 551.281,-58.2076 639.562,-53.4285 692.572,-51.3983"/>
<polygon fill="midnightblue" stroke="midnightblue" points="411.726,-77.7745 402.777,-83.4461 413.309,-84.593 411.726,-77.7745"/>
</g>
<!-- Node5 -->
<g id="node5" class="node"><title>Node5</title>
<g id="a_node5"><a xlink:href="../../da/d29/classFun4AllServer.html#a94738b092fa009fcea45737d8ea41224" target="_top" xlink:title="Fun4AllServer::process\l_event">
<polygon fill="none" stroke="black" points="682.5,-79 682.5,-109 799.5,-109 799.5,-79 682.5,-79"/>
<text text-anchor="start" x="690.5" y="-97" font-family="FreeSans" font-size="10.00">Fun4AllServer::process</text>
<text text-anchor="middle" x="741" y="-86" font-family="FreeSans" font-size="10.00">_event</text>
</a>
</g>
</g>
<!-- Node4&#45;&gt;Node5 -->
<g id="edge4" class="edge"><title>Node4&#45;&gt;Node5</title>
<path fill="none" stroke="midnightblue" d="M622.58,-93.3653C642.135,-93.471 663.296,-93.5854 682.196,-93.6875"/>
<polygon fill="midnightblue" stroke="midnightblue" points="622.54,-89.8651 612.521,-93.3109 622.502,-96.865 622.54,-89.8651"/>
</g>
<!-- Node4&#45;&gt;Node6 -->
<g id="edge5" class="edge"><title>Node4&#45;&gt;Node6</title>
<path fill="none" stroke="midnightblue" d="M622.552,-77.2988C648.157,-71.3472 676.519,-64.755 698.957,-59.5398"/>
<polygon fill="midnightblue" stroke="midnightblue" points="621.469,-73.9571 612.521,-79.6302 623.054,-80.7753 621.469,-73.9571"/>
</g>
<!-- Node7 -->
<g id="node7" class="node"><title>Node7</title>
<g id="a_node7"><a xlink:href="../../d0/d46/Fun4__SimpleReadMySql_8C.html#a70381893748e3445abc30632beb256ce" target="_top" xlink:title="Fun4_SimpleReadMySql">
<polygon fill="none" stroke="black" points="850.5,-89.5 850.5,-108.5 973.5,-108.5 973.5,-89.5 850.5,-89.5"/>
<text text-anchor="middle" x="912" y="-96.5" font-family="FreeSans" font-size="10.00">Fun4_SimpleReadMySql</text>
</a>
</g>
</g>
<!-- Node6&#45;&gt;Node7 -->
<g id="edge6" class="edge"><title>Node6&#45;&gt;Node7</title>
<path fill="none" stroke="midnightblue" d="M786.501,-62.2149C795.608,-64.7555 805.12,-67.4396 814,-70 835.955,-76.3307 860.626,-83.7101 879.593,-89.4406"/>
<polygon fill="midnightblue" stroke="midnightblue" points="787.401,-58.8324 776.829,-59.527 785.527,-65.5768 787.401,-58.8324"/>
</g>
<!-- Node8 -->
<g id="node8" class="node"><title>Node8</title>
<g id="a_node8"><a xlink:href="../../d9/d8c/Fun4ReadMySql_8C.html#a729b39fa627147c63772f28c9be36b62" target="_top" xlink:title="Fun4ReadMySql">
<polygon fill="none" stroke="black" points="868,-44.5 868,-63.5 956,-63.5 956,-44.5 868,-44.5"/>
<text text-anchor="middle" x="912" y="-51.5" font-family="FreeSans" font-size="10.00">Fun4ReadMySql</text>
</a>
</g>
</g>
<!-- Node6&#45;&gt;Node8 -->
<g id="edge7" class="edge"><title>Node6&#45;&gt;Node8</title>
<path fill="none" stroke="midnightblue" d="M799.178,-51.3533C821.665,-51.8856 847.046,-52.4863 867.936,-52.9807"/>
<polygon fill="midnightblue" stroke="midnightblue" points="799.156,-47.8519 789.076,-51.1142 798.99,-54.85 799.156,-47.8519"/>
</g>
<!-- Node10 -->
<g id="node10" class="node"><title>Node10</title>
<g id="a_node10"><a xlink:href="../../d7/d4d/classPHNodeIOManager.html#a92da4bff2438e94d469011b7720f286f" target="_top" xlink:title="PHNodeIOManager::read">
<polygon fill="none" stroke="black" points="678.5,-168.5 678.5,-187.5 803.5,-187.5 803.5,-168.5 678.5,-168.5"/>
<text text-anchor="middle" x="741" y="-175.5" font-family="FreeSans" font-size="10.00">PHNodeIOManager::read</text>
</a>
</g>
</g>
<!-- Node9&#45;&gt;Node10 -->
<g id="edge10" class="edge"><title>Node9&#45;&gt;Node10</title>
<path fill="none" stroke="midnightblue" d="M641.531,-158.838C658.51,-162.143 675.759,-165.499 690.976,-168.46"/>
<polygon fill="midnightblue" stroke="midnightblue" points="642.066,-155.377 631.582,-156.902 640.729,-162.248 642.066,-155.377"/>
</g>
<!-- Node11 -->
<g id="node11" class="node"><title>Node11</title>
<g id="a_node11"><a xlink:href="../../d7/d0b/classFun4AllDstInputManager.html#a4d32eadb9f77d41387656b87377ef14f" target="_top" xlink:title="Fun4AllDstInputManager\l::fileopen">
<polygon fill="none" stroke="black" points="850,-245 850,-275 974,-275 974,-245 850,-245"/>
<text text-anchor="start" x="858" y="-263" font-family="FreeSans" font-size="10.00">Fun4AllDstInputManager</text>
<text text-anchor="middle" x="912" y="-252" font-family="FreeSans" font-size="10.00">::fileopen</text>
</a>
</g>
</g>
<!-- Node10&#45;&gt;Node11 -->
<g id="edge11" class="edge"><title>Node10&#45;&gt;Node11</title>
<path fill="none" stroke="midnightblue" d="M782.012,-190.996C792.64,-194.986 803.952,-199.732 814,-205 831.252,-214.045 833.213,-220.118 850,-230 858.848,-235.209 868.728,-240.342 877.915,-244.849"/>
<polygon fill="midnightblue" stroke="midnightblue" points="783.093,-187.665 772.498,-187.551 780.709,-194.247 783.093,-187.665"/>
</g>
<!-- Node13 -->
<g id="node13" class="node"><title>Node13</title>
<g id="a_node13"><a xlink:href="../../d7/d0b/classFun4AllDstInputManager.html#ade26017b627e0e1f1ec0dec62ac7fd52" target="_top" xlink:title="Fun4AllDstInputManager\l::ReadNextEventSyncObject">
<polygon fill="none" stroke="black" points="1171.5,-207 1171.5,-237 1310.5,-237 1310.5,-207 1171.5,-207"/>
<text text-anchor="start" x="1179.5" y="-225" font-family="FreeSans" font-size="10.00">Fun4AllDstInputManager</text>
<text text-anchor="middle" x="1241" y="-214" font-family="FreeSans" font-size="10.00">::ReadNextEventSyncObject</text>
</a>
</g>
</g>
<!-- Node10&#45;&gt;Node13 -->
<g id="edge18" class="edge"><title>Node10&#45;&gt;Node13</title>
<path fill="none" stroke="midnightblue" d="M813.685,-187.825C825.793,-189.332 838.246,-190.787 850,-192 962.301,-203.59 1093.22,-212.779 1171.21,-217.797"/>
<polygon fill="midnightblue" stroke="midnightblue" points="813.977,-184.334 803.617,-186.551 813.099,-191.279 813.977,-184.334"/>
</g>
<!-- Node14 -->
<g id="node14" class="node"><title>Node14</title>
<g id="a_node14"><a xlink:href="../../d7/d0b/classFun4AllDstInputManager.html#a0244c2edbaa2350038304b09f352c2d0" target="_top" xlink:title="Fun4AllDstInputManager\l::SyncIt">
<polygon fill="none" stroke="black" points="1348,-166 1348,-196 1472,-196 1472,-166 1348,-166"/>
<text text-anchor="start" x="1356" y="-184" font-family="FreeSans" font-size="10.00">Fun4AllDstInputManager</text>
<text text-anchor="middle" x="1410" y="-173" font-family="FreeSans" font-size="10.00">::SyncIt</text>
</a>
</g>
</g>
<!-- Node10&#45;&gt;Node14 -->
<g id="edge17" class="edge"><title>Node10&#45;&gt;Node14</title>
<path fill="none" stroke="midnightblue" d="M813.964,-168.959C922.34,-156.843 1133.75,-139.039 1312,-159 1325.21,-160.48 1339.25,-163.06 1352.43,-165.944"/>
<polygon fill="midnightblue" stroke="midnightblue" points="813.344,-165.507 803.802,-170.113 814.133,-172.462 813.344,-165.507"/>
</g>
<!-- Node15 -->
<g id="node15" class="node"><title>Node15</title>
<g id="a_node15"><a xlink:href="../../d7/d0b/classFun4AllDstInputManager.html#aeafa0248f9050c13fdae1bcb93336d7a" target="_top" xlink:title="Fun4AllDstInputManager::run">
<polygon fill="none" stroke="black" points="1170,-168.5 1170,-187.5 1312,-187.5 1312,-168.5 1170,-168.5"/>
<text text-anchor="middle" x="1241" y="-175.5" font-family="FreeSans" font-size="10.00">Fun4AllDstInputManager::run</text>
</a>
</g>
</g>
<!-- Node10&#45;&gt;Node15 -->
<g id="edge16" class="edge"><title>Node10&#45;&gt;Node15</title>
<path fill="none" stroke="midnightblue" d="M813.662,-178C908.714,-178 1075.44,-178 1169.77,-178"/>
<polygon fill="midnightblue" stroke="midnightblue" points="813.564,-174.5 803.564,-178 813.564,-181.5 813.564,-174.5"/>
</g>
<!-- Node12 -->
<g id="node12" class="node"><title>Node12</title>
<g id="a_node12"><a xlink:href="../../d7/d0b/classFun4AllDstInputManager.html#ae4e92b95ae50ab72856d06c99b043496" target="_top" xlink:title="Fun4AllDstInputManager\l::OpenNextFile">
<polygon fill="none" stroke="black" points="1010,-245 1010,-275 1134,-275 1134,-245 1010,-245"/>
<text text-anchor="start" x="1018" y="-263" font-family="FreeSans" font-size="10.00">Fun4AllDstInputManager</text>
<text text-anchor="middle" x="1072" y="-252" font-family="FreeSans" font-size="10.00">::OpenNextFile</text>
</a>
</g>
</g>
<!-- Node11&#45;&gt;Node12 -->
<g id="edge12" class="edge"><title>Node11&#45;&gt;Node12</title>
<path fill="none" stroke="midnightblue" d="M984.366,-260C992.863,-260 1001.48,-260 1009.82,-260"/>
<polygon fill="midnightblue" stroke="midnightblue" points="984.087,-256.5 974.087,-260 984.087,-263.5 984.087,-256.5"/>
</g>
<!-- Node12&#45;&gt;Node13 -->
<g id="edge13" class="edge"><title>Node12&#45;&gt;Node13</title>
<path fill="none" stroke="midnightblue" d="M1144.06,-243.83C1153.99,-241.571 1164.16,-239.257 1173.99,-237.02"/>
<polygon fill="midnightblue" stroke="midnightblue" points="1143.21,-240.434 1134.24,-246.066 1144.76,-247.26 1143.21,-240.434"/>
</g>
<!-- Node12&#45;&gt;Node15 -->
<g id="edge15" class="edge"><title>Node12&#45;&gt;Node15</title>
<path fill="none" stroke="midnightblue" d="M1101.18,-238.875C1119.9,-225.643 1145.46,-209.062 1170,-198 1179.1,-193.897 1189.25,-190.421 1198.94,-187.577"/>
<polygon fill="midnightblue" stroke="midnightblue" points="1098.91,-236.197 1092.83,-244.875 1102.99,-241.881 1098.91,-236.197"/>
</g>
<!-- Node13&#45;&gt;Node14 -->
<g id="edge14" class="edge"><title>Node13&#45;&gt;Node14</title>
<path fill="none" stroke="midnightblue" d="M1313.23,-204.512C1324.73,-201.69 1336.54,-198.79 1347.77,-196.032"/>
<polygon fill="midnightblue" stroke="midnightblue" points="1312.11,-201.183 1303.24,-206.966 1313.78,-207.981 1312.11,-201.183"/>
</g>
<!-- Node16&#45;&gt;Node4 -->
<g id="edge26" class="edge"><title>Node16&#45;&gt;Node4</title>
<path fill="none" stroke="midnightblue" d="M369.785,-310.634C381.028,-269.144 413.059,-171.144 476,-118 481.692,-113.194 488.327,-109.307 495.271,-106.164"/>
<polygon fill="midnightblue" stroke="midnightblue" points="366.393,-309.771 367.261,-320.33 373.167,-311.534 366.393,-309.771"/>
</g>
<!-- Node16&#45;&gt;Node9 -->
<g id="edge38" class="edge"><title>Node16&#45;&gt;Node9</title>
<path fill="none" stroke="midnightblue" d="M373.687,-311.018C389.559,-278.289 426.248,-211.009 476,-172 483.677,-165.98 492.709,-161.042 501.834,-157.035"/>
<polygon fill="midnightblue" stroke="midnightblue" points="370.385,-309.813 369.275,-320.35 376.713,-312.805 370.385,-309.813"/>
</g>
<!-- Node16&#45;&gt;Node16 -->
<g id="edge39" class="edge"><title>Node16&#45;&gt;Node16</title>
<path fill="none" stroke="midnightblue" d="M331.814,-348.275C332.732,-353.741 343.461,-358 364,-358 394.57,-358 403.407,-348.565 390.51,-339.757"/>
<polygon fill="midnightblue" stroke="midnightblue" points="334.857,-350.02 337.49,-339.757 329.032,-346.138 334.857,-350.02"/>
</g>
<!-- Node17 -->
<g id="node17" class="node"><title>Node17</title>
<g id="a_node17"><a xlink:href="../../da/daa/classFun4AllDstOutputManager.html#aa4b5b519c6db1540d03007c8c21436fc" target="_top" xlink:title="write starting from given node ">
<polygon fill="none" stroke="black" points="488.5,-477 488.5,-507 619.5,-507 619.5,-477 488.5,-477"/>
<text text-anchor="start" x="496.5" y="-495" font-family="FreeSans" font-size="10.00">Fun4AllDstOutputManager</text>
<text text-anchor="middle" x="554" y="-484" font-family="FreeSans" font-size="10.00">::Write</text>
</a>
</g>
</g>
<!-- Node16&#45;&gt;Node17 -->
<g id="edge20" class="edge"><title>Node16&#45;&gt;Node17</title>
<path fill="none" stroke="midnightblue" d="M375.085,-348.332C392.108,-377.62 429.301,-434.921 476,-467 481.561,-470.82 487.743,-474.086 494.119,-476.872"/>
<polygon fill="midnightblue" stroke="midnightblue" points="378.081,-346.52 370.1,-339.551 371.993,-349.975 378.081,-346.52"/>
</g>
<!-- Node18 -->
<g id="node18" class="node"><title>Node18</title>
<g id="a_node18"><a xlink:href="../../da/dd8/classFun4AllPrdfInputManager.html#a36fdaca3254cbb07a00af64b10488385" target="_top" xlink:title="Fun4AllPrdfInputManager\l::Fun4AllPrdfInputManager">
<polygon fill="none" stroke="black" points="488.5,-428 488.5,-458 619.5,-458 619.5,-428 488.5,-428"/>
<text text-anchor="start" x="496.5" y="-446" font-family="FreeSans" font-size="10.00">Fun4AllPrdfInputManager</text>
<text text-anchor="middle" x="554" y="-435" font-family="FreeSans" font-size="10.00">::Fun4AllPrdfInputManager</text>
</a>
</g>
</g>
<!-- Node16&#45;&gt;Node18 -->
<g id="edge21" class="edge"><title>Node16&#45;&gt;Node18</title>
<path fill="none" stroke="midnightblue" d="M383.237,-346.096C404.4,-364.17 440.898,-393.513 476,-413 486.035,-418.571 497.317,-423.59 508.088,-427.857"/>
<polygon fill="midnightblue" stroke="midnightblue" points="385.513,-343.437 375.659,-339.544 380.934,-348.732 385.513,-343.437"/>
</g>
<!-- Node19 -->
<g id="node19" class="node"><title>Node19</title>
<g id="a_node19"><a xlink:href="../../da/dd8/classFun4AllPrdfInputManager.html#ac3f313ef5571ce32cd40799791e2ea56" target="_top" xlink:title="Fun4AllPrdfInputManager::run">
<polygon fill="none" stroke="black" points="668.5,-367.5 668.5,-386.5 813.5,-386.5 813.5,-367.5 668.5,-367.5"/>
<text text-anchor="middle" x="741" y="-374.5" font-family="FreeSans" font-size="10.00">Fun4AllPrdfInputManager::run</text>
</a>
</g>
</g>
<!-- Node16&#45;&gt;Node19 -->
<g id="edge22" class="edge"><title>Node16&#45;&gt;Node19</title>
<path fill="none" stroke="midnightblue" d="M389.747,-344.52C411.601,-356.448 444.759,-372.411 476,-379 540.021,-392.502 614.731,-390.324 668.302,-385.755"/>
<polygon fill="midnightblue" stroke="midnightblue" points="391.267,-341.36 380.831,-339.533 387.85,-347.469 391.267,-341.36"/>
</g>
<!-- Node20 -->
<g id="node20" class="node"><title>Node20</title>
<g id="a_node20"><a xlink:href="../../da/dd8/classFun4AllPrdfInputManager.html#a4d3e00664417e9198d9fab5d4c336f97" target="_top" xlink:title="Fun4AllPrdfInputManager\l::ResetEvent">
<polygon fill="none" stroke="black" points="490.5,-340 490.5,-370 617.5,-370 617.5,-340 490.5,-340"/>
<text text-anchor="start" x="498.5" y="-358" font-family="FreeSans" font-size="10.00">Fun4AllPrdfInputManager</text>
<text text-anchor="middle" x="554" y="-347" font-family="FreeSans" font-size="10.00">::ResetEvent</text>
</a>
</g>
</g>
<!-- Node16&#45;&gt;Node20 -->
<g id="edge23" class="edge"><title>Node16&#45;&gt;Node20</title>
<path fill="none" stroke="midnightblue" d="M436.344,-339.487C454.109,-341.85 473.022,-344.365 490.333,-346.667"/>
<polygon fill="midnightblue" stroke="midnightblue" points="436.412,-335.966 426.038,-338.117 435.49,-342.905 436.412,-335.966"/>
</g>
<!-- Node21 -->
<g id="node21" class="node"><title>Node21</title>
<g id="a_node21"><a xlink:href="../../d6/dc8/classFun4AllPrdfOutputManager.html#a1d891012ff50062628d053f825426c80" target="_top" xlink:title="PRDF node initialization [class specific method]. ">
<polygon fill="none" stroke="black" points="487,-291 487,-321 621,-321 621,-291 487,-291"/>
<text text-anchor="start" x="495" y="-309" font-family="FreeSans" font-size="10.00">Fun4AllPrdfOutputManager</text>
<text text-anchor="middle" x="554" y="-298" font-family="FreeSans" font-size="10.00">::InitPrdfNode</text>
</a>
</g>
</g>
<!-- Node16&#45;&gt;Node21 -->
<g id="edge25" class="edge"><title>Node16&#45;&gt;Node21</title>
<path fill="none" stroke="midnightblue" d="M436.215,-320.909C452.8,-318.792 470.392,-316.546 486.752,-314.457"/>
<polygon fill="midnightblue" stroke="midnightblue" points="435.514,-317.47 426.038,-322.208 436.401,-324.413 435.514,-317.47"/>
</g>
<!-- Node22 -->
<g id="node22" class="node"><title>Node22</title>
<g id="a_node22"><a xlink:href="../../da/d29/classFun4AllServer.html#ab7263450319ca1d5029209fde26a7af8" target="_top" xlink:title="Fun4AllServer::End">
<polygon fill="none" stroke="black" points="691.5,-128.5 691.5,-147.5 790.5,-147.5 790.5,-128.5 691.5,-128.5"/>
<text text-anchor="middle" x="741" y="-135.5" font-family="FreeSans" font-size="10.00">Fun4AllServer::End</text>
</a>
</g>
</g>
<!-- Node16&#45;&gt;Node22 -->
<g id="edge27" class="edge"><title>Node16&#45;&gt;Node22</title>
<path fill="none" stroke="midnightblue" d="M375.998,-311.786C393.584,-284.28 430.706,-232.448 476,-205 537.12,-167.961 562.743,-183.635 632,-166 655.839,-159.93 682.605,-152.992 703.527,-147.54"/>
<polygon fill="midnightblue" stroke="midnightblue" points="372.935,-310.084 370.611,-320.421 378.874,-313.789 372.935,-310.084"/>
</g>
<!-- Node23 -->
<g id="node23" class="node"><title>Node23</title>
<g id="a_node23"><a xlink:href="../../da/d29/classFun4AllServer.html#ac42fd391b795d9605811abb9394c2011" target="_top" xlink:title="Fun4AllServer::getNode">
<polygon fill="none" stroke="black" points="681.5,-252.5 681.5,-271.5 800.5,-271.5 800.5,-252.5 681.5,-252.5"/>
<text text-anchor="middle" x="741" y="-259.5" font-family="FreeSans" font-size="10.00">Fun4AllServer::getNode</text>
</a>
</g>
</g>
<!-- Node16&#45;&gt;Node23 -->
<g id="edge30" class="edge"><title>Node16&#45;&gt;Node23</title>
<path fill="none" stroke="midnightblue" d="M391.065,-315.771C413.027,-304.516 445.636,-289.491 476,-282 545.171,-264.935 627.361,-261.203 681.447,-260.914"/>
<polygon fill="midnightblue" stroke="midnightblue" points="389.295,-312.747 382.057,-320.483 392.54,-318.949 389.295,-312.747"/>
</g>
<!-- Node24 -->
<g id="node24" class="node"><title>Node24</title>
<g id="a_node24"><a xlink:href="../../db/dda/classReadMySql.html#a893da68c47d48aaa94b6a6befdb4ab85" target="_top" xlink:title="ReadMySql::MakeNodes">
<polygon fill="none" stroke="black" points="492.5,-214.5 492.5,-233.5 615.5,-233.5 615.5,-214.5 492.5,-214.5"/>
<text text-anchor="middle" x="554" y="-221.5" font-family="FreeSans" font-size="10.00">ReadMySql::MakeNodes</text>
</a>
</g>
</g>
<!-- Node16&#45;&gt;Node24 -->
<g id="edge32" class="edge"><title>Node16&#45;&gt;Node24</title>
<path fill="none" stroke="midnightblue" d="M383.036,-313.67C404.014,-295.423 440.344,-266.076 476,-248 487.74,-242.048 501.24,-237.232 513.625,-233.519"/>
<polygon fill="midnightblue" stroke="midnightblue" points="380.709,-311.055 375.53,-320.297 385.343,-316.302 380.709,-311.055"/>
</g>
<!-- Node26 -->
<g id="node26" class="node"><title>Node26</title>
<g id="a_node26"><a xlink:href="../../d0/d68/classSimpleReadMySql.html#a650a5f65ee1634450425061b781ec942" target="_top" xlink:title="SimpleReadMySql::MakeNodes">
<polygon fill="none" stroke="black" points="477.5,-613.5 477.5,-632.5 630.5,-632.5 630.5,-613.5 477.5,-613.5"/>
<text text-anchor="middle" x="554" y="-620.5" font-family="FreeSans" font-size="10.00">SimpleReadMySql::MakeNodes</text>
</a>
</g>
</g>
<!-- Node16&#45;&gt;Node26 -->
<g id="edge34" class="edge"><title>Node16&#45;&gt;Node26</title>
<path fill="none" stroke="midnightblue" d="M366.948,-349.723C373.024,-400.201 396.286,-534.94 476,-604 480.475,-607.877 485.619,-610.987 491.081,-613.48"/>
<polygon fill="midnightblue" stroke="midnightblue" points="370.4,-349.087 365.823,-339.532 363.442,-349.856 370.4,-349.087"/>
</g>
<!-- Node28 -->
<g id="node28" class="node"><title>Node28</title>
<g id="a_node28"><a xlink:href="../../da/dc3/namespacefindNode.html#af4793f47e215cb6b0d51e0a9303a4382" target="_top" xlink:title="findNode::getClass">
<polygon fill="none" stroke="black" points="505,-575.5 505,-594.5 603,-594.5 603,-575.5 505,-575.5"/>
<text text-anchor="middle" x="554" y="-582.5" font-family="FreeSans" font-size="10.00">findNode::getClass</text>
</a>
</g>
</g>
<!-- Node16&#45;&gt;Node28 -->
<g id="edge36" class="edge"><title>Node16&#45;&gt;Node28</title>
<path fill="none" stroke="midnightblue" d="M368.502,-349.89C377.571,-395.304 406.17,-507.152 476,-565 484.19,-571.784 494.419,-576.297 504.72,-579.291"/>
<polygon fill="midnightblue" stroke="midnightblue" points="371.901,-349.025 366.604,-339.849 365.022,-350.325 371.901,-349.025"/>
</g>
<!-- Node29 -->
<g id="node29" class="node"><title>Node29</title>
<g id="a_node29"><a xlink:href="../../d7/ddf/classPHDataNodeIterator.html#ae27304781fe696bd4aec95829c076cfc" target="_top" xlink:title="PHDataNodeIterator\l::FindIODataNode">
<polygon fill="none" stroke="black" points="501.5,-526 501.5,-556 606.5,-556 606.5,-526 501.5,-526"/>
<text text-anchor="start" x="509.5" y="-544" font-family="FreeSans" font-size="10.00">PHDataNodeIterator</text>
<text text-anchor="middle" x="554" y="-533" font-family="FreeSans" font-size="10.00">::FindIODataNode</text>
</a>
</g>
</g>
<!-- Node16&#45;&gt;Node29 -->
<g id="edge37" class="edge"><title>Node16&#45;&gt;Node29</title>
<path fill="none" stroke="midnightblue" d="M371.371,-349.519C384.679,-387.265 419.01,-470.538 476,-516 483.362,-521.872 492.144,-526.383 501.099,-529.843"/>
<polygon fill="midnightblue" stroke="midnightblue" points="374.582,-348.089 368.043,-339.752 367.956,-350.347 374.582,-348.089"/>
</g>
<!-- Node20&#45;&gt;Node19 -->
<g id="edge24" class="edge"><title>Node20&#45;&gt;Node19</title>
<path fill="none" stroke="midnightblue" d="M627.685,-363.644C641.001,-365.227 654.893,-366.879 668.185,-368.46"/>
<polygon fill="midnightblue" stroke="midnightblue" points="627.976,-360.154 617.633,-362.448 627.149,-367.105 627.976,-360.154"/>
</g>
<!-- Node22&#45;&gt;Node7 -->
<g id="edge28" class="edge"><title>Node22&#45;&gt;Node7</title>
<path fill="none" stroke="midnightblue" d="M793.199,-126.185C817.727,-120.524 846.712,-113.836 869.792,-108.509"/>
<polygon fill="midnightblue" stroke="midnightblue" points="792.299,-122.8 783.342,-128.46 793.873,-129.621 792.299,-122.8"/>
</g>
<!-- Node22&#45;&gt;Node8 -->
<g id="edge29" class="edge"><title>Node22&#45;&gt;Node8</title>
<path fill="none" stroke="midnightblue" d="M799.925,-124.967C804.833,-122.958 809.597,-120.649 814,-118 833.934,-106.005 830.9,-93.2829 850,-80 859.735,-73.2299 871.511,-67.6988 882.11,-63.5055"/>
<polygon fill="midnightblue" stroke="midnightblue" points="798.548,-121.744 790.366,-128.474 800.959,-128.316 798.548,-121.744"/>
</g>
<!-- Node23&#45;&gt;Node11 -->
<g id="edge31" class="edge"><title>Node23&#45;&gt;Node11</title>
<path fill="none" stroke="midnightblue" d="M810.865,-261.185C823.789,-261.032 837.218,-260.873 849.885,-260.723"/>
<polygon fill="midnightblue" stroke="midnightblue" points="810.592,-257.688 800.634,-261.306 810.674,-264.687 810.592,-257.688"/>
</g>
<!-- Node25 -->
<g id="node25" class="node"><title>Node25</title>
<g id="a_node25"><a xlink:href="../../db/dda/classReadMySql.html#ab73b7895d9b3e258b58f31b66b93a827" target="_top" xlink:title="ReadMySql::InitRun">
<polygon fill="none" stroke="black" points="690.5,-214.5 690.5,-233.5 791.5,-233.5 791.5,-214.5 690.5,-214.5"/>
<text text-anchor="middle" x="741" y="-221.5" font-family="FreeSans" font-size="10.00">ReadMySql::InitRun</text>
</a>
</g>
</g>
<!-- Node24&#45;&gt;Node25 -->
<g id="edge33" class="edge"><title>Node24&#45;&gt;Node25</title>
<path fill="none" stroke="midnightblue" d="M625.684,-224C647.267,-224 670.53,-224 690.401,-224"/>
<polygon fill="midnightblue" stroke="midnightblue" points="625.576,-220.5 615.576,-224 625.576,-227.5 625.576,-220.5"/>
</g>
<!-- Node27 -->
<g id="node27" class="node"><title>Node27</title>
<g id="a_node27"><a xlink:href="../../d0/d68/classSimpleReadMySql.html#ace02cda93f92690611b99f9bb06a677c" target="_top" xlink:title="SimpleReadMySql::InitRun">
<polygon fill="none" stroke="black" points="675.5,-613.5 675.5,-632.5 806.5,-632.5 806.5,-613.5 675.5,-613.5"/>
<text text-anchor="middle" x="741" y="-620.5" font-family="FreeSans" font-size="10.00">SimpleReadMySql::InitRun</text>
</a>
</g>
</g>
<!-- Node26&#45;&gt;Node27 -->
<g id="edge35" class="edge"><title>Node26&#45;&gt;Node27</title>
<path fill="none" stroke="midnightblue" d="M640.707,-623C652.37,-623 664.177,-623 675.383,-623"/>
<polygon fill="midnightblue" stroke="midnightblue" points="640.513,-619.5 630.513,-623 640.513,-626.5 640.513,-619.5"/>
</g>
<!-- Node30&#45;&gt;Node3 -->
<g id="edge41" class="edge"><title>Node30&#45;&gt;Node3</title>
<path fill="none" stroke="midnightblue" d="M262.526,-88.887C271.021,-89.2348 279.719,-89.5909 288.272,-89.941"/>
<polygon fill="midnightblue" stroke="midnightblue" points="262.423,-85.38 252.288,-88.4679 262.137,-92.3741 262.423,-85.38"/>
</g>
<!-- Node30&#45;&gt;Node30 -->
<g id="edge42" class="edge"><title>Node30&#45;&gt;Node30</title>
<path fill="none" stroke="midnightblue" d="M164.121,-104.654C165.244,-109.937 174.204,-114 191,-114 216.594,-114 223.992,-104.565 213.195,-95.7571"/>
<polygon fill="midnightblue" stroke="midnightblue" points="167.243,-106.236 168.805,-95.7571 161.049,-102.975 167.243,-106.236"/>
</g>
<!-- Node31 -->
<g id="node31" class="node"><title>Node31</title>
<g id="a_node31"><a xlink:href="../../d5/d07/classPHNodeIterator.html#a07cdbcfd300706ffa96c5b5860b35c43" target="_top" xlink:title="PHNodeIterator::for_each">
<polygon fill="none" stroke="black" points="300.5,-45.5 300.5,-64.5 427.5,-64.5 427.5,-45.5 300.5,-45.5"/>
<text text-anchor="middle" x="364" y="-52.5" font-family="FreeSans" font-size="10.00">PHNodeIterator::for_each</text>
</a>
</g>
</g>
<!-- Node30&#45;&gt;Node31 -->
<g id="edge43" class="edge"><title>Node30&#45;&gt;Node31</title>
<path fill="none" stroke="midnightblue" d="M254.701,-74.6331C273.023,-71.3117 292.851,-67.717 310.473,-64.5224"/>
<polygon fill="midnightblue" stroke="midnightblue" points="253.916,-71.2183 244.701,-76.446 255.165,-78.106 253.916,-71.2183"/>
</g>
</g>
</svg>
