<?xml version="1.0" encoding="UTF-8" standalone="no"?>
<!DOCTYPE svg PUBLIC "-//W3C//DTD SVG 1.1//EN"
 "http://www.w3.org/Graphics/SVG/1.1/DTD/svg11.dtd">
<!-- Generated by graphviz version 2.36.0 (20140111.2315)
 -->
<!-- Title: PHNode::getParent Pages: 1 -->
<svg width="1258pt" height="250pt"
 viewBox="0.00 0.00 1258.00 250.34" xmlns="http://www.w3.org/2000/svg" xmlns:xlink="http://www.w3.org/1999/xlink">
<g id="graph0" class="graph" transform="scale(1 1) rotate(0) translate(4 246.338)">
<title>PHNode::getParent</title>
<!-- Node1 -->
<g id="node1" class="node"><title>Node1</title>
<polygon fill="#bfbfbf" stroke="black" points="0.5,-137.838 0.5,-156.838 101.5,-156.838 101.5,-137.838 0.5,-137.838"/>
<text text-anchor="middle" x="51" y="-144.838" font-family="FreeSans" font-size="10.00">PHNode::getParent</text>
</g>
<!-- Node2 -->
<g id="node2" class="node"><title>Node2</title>
<g id="a_node2"><a xlink:href="../../d5/d07/classPHNodeIterator.html#a4cfa0490b6522394b13723c7db38a3a6" target="_top" xlink:title="PHNodeIterator::cd">
<polygon fill="none" stroke="black" points="138,-137.838 138,-156.838 238,-156.838 238,-137.838 138,-137.838"/>
<text text-anchor="middle" x="188" y="-144.838" font-family="FreeSans" font-size="10.00">PHNodeIterator::cd</text>
</a>
</g>
</g>
<!-- Node1&#45;&gt;Node2 -->
<g id="edge1" class="edge"><title>Node1&#45;&gt;Node2</title>
<path fill="none" stroke="midnightblue" d="M111.689,-147.338C120.467,-147.338 129.424,-147.338 137.955,-147.338"/>
<polygon fill="midnightblue" stroke="midnightblue" points="111.502,-143.838 101.502,-147.338 111.502,-150.838 111.502,-143.838"/>
</g>
<!-- Node3 -->
<g id="node3" class="node"><title>Node3</title>
<g id="a_node3"><a xlink:href="../../da/d29/classFun4AllServer.html#ab2479a9a3e45d51118e308597acd5228" target="_top" xlink:title="Fun4AllServer::ResetNodeTree">
<polygon fill="none" stroke="black" points="276.5,-159.838 276.5,-178.838 427.5,-178.838 427.5,-159.838 276.5,-159.838"/>
<text text-anchor="middle" x="352" y="-166.838" font-family="FreeSans" font-size="10.00">Fun4AllServer::ResetNodeTree</text>
</a>
</g>
</g>
<!-- Node2&#45;&gt;Node3 -->
<g id="edge2" class="edge"><title>Node2&#45;&gt;Node3</title>
<path fill="none" stroke="midnightblue" d="M248.078,-155.361C258.745,-156.81 269.961,-158.333 280.906,-159.819"/>
<polygon fill="midnightblue" stroke="midnightblue" points="248.425,-151.876 238.045,-153.999 247.483,-158.812 248.425,-151.876"/>
</g>
<!-- Node9 -->
<g id="node9" class="node"><title>Node9</title>
<g id="a_node9"><a xlink:href="../../d7/d4d/classPHNodeIOManager.html#a3882997324989c7dd04e9f6b728af7db" target="_top" xlink:title="PHNodeIOManager::reconstruct\lNodeTree">
<polygon fill="none" stroke="black" points="274.5,-91.3381 274.5,-121.338 429.5,-121.338 429.5,-91.3381 274.5,-91.3381"/>
<text text-anchor="start" x="282.5" y="-109.338" font-family="FreeSans" font-size="10.00">PHNodeIOManager::reconstruct</text>
<text text-anchor="middle" x="352" y="-98.3381" font-family="FreeSans" font-size="10.00">NodeTree</text>
</a>
</g>
</g>
<!-- Node2&#45;&gt;Node9 -->
<g id="edge9" class="edge"><title>Node2&#45;&gt;Node9</title>
<path fill="none" stroke="midnightblue" d="M236.395,-135.343C253.612,-130.986 273.29,-126.005 291.425,-121.416"/>
<polygon fill="midnightblue" stroke="midnightblue" points="235.409,-131.982 226.573,-137.829 237.126,-138.768 235.409,-131.982"/>
</g>
<!-- Node4 -->
<g id="node4" class="node"><title>Node4</title>
<g id="a_node4"><a xlink:href="../../da/d29/classFun4AllServer.html#a6a65a944dfb40966ace97d35ab1f7942" target="_top" xlink:title="Fun4AllServer::process\l_event">
<polygon fill="none" stroke="black" points="470.5,-154.338 470.5,-184.338 587.5,-184.338 587.5,-154.338 470.5,-154.338"/>
<text text-anchor="start" x="478.5" y="-172.338" font-family="FreeSans" font-size="10.00">Fun4AllServer::process</text>
<text text-anchor="middle" x="529" y="-161.338" font-family="FreeSans" font-size="10.00">_event</text>
</a>
</g>
</g>
<!-- Node3&#45;&gt;Node4 -->
<g id="edge3" class="edge"><title>Node3&#45;&gt;Node4</title>
<path fill="none" stroke="midnightblue" d="M437.839,-169.338C448.893,-169.338 460.004,-169.338 470.466,-169.338"/>
<polygon fill="midnightblue" stroke="midnightblue" points="437.723,-165.838 427.723,-169.338 437.723,-172.838 437.723,-165.838"/>
</g>
<!-- Node6 -->
<g id="node6" class="node"><title>Node6</title>
<g id="a_node6"><a xlink:href="../../da/d29/classFun4AllServer.html#a11bbc8b2f53bc06e0b05ee202dd6372a" target="_top" xlink:title="run n events (0 means up to end of file) ">
<polygon fill="none" stroke="black" points="642,-203.838 642,-222.838 738,-222.838 738,-203.838 642,-203.838"/>
<text text-anchor="middle" x="690" y="-210.838" font-family="FreeSans" font-size="10.00">Fun4AllServer::run</text>
</a>
</g>
</g>
<!-- Node3&#45;&gt;Node6 -->
<g id="edge8" class="edge"><title>Node3&#45;&gt;Node6</title>
<path fill="none" stroke="midnightblue" d="M402.26,-181.141C421.982,-185.514 444.974,-190.174 466,-193.338 526.347,-202.419 596.548,-207.884 641.819,-210.753"/>
<polygon fill="midnightblue" stroke="midnightblue" points="402.797,-177.674 392.272,-178.889 401.257,-184.503 402.797,-177.674"/>
</g>
<!-- Node5 -->
<g id="node5" class="node"><title>Node5</title>
<g id="a_node5"><a xlink:href="../../da/d29/classFun4AllServer.html#a94738b092fa009fcea45737d8ea41224" target="_top" xlink:title="Fun4AllServer::process\l_event">
<polygon fill="none" stroke="black" points="631.5,-154.338 631.5,-184.338 748.5,-184.338 748.5,-154.338 631.5,-154.338"/>
<text text-anchor="start" x="639.5" y="-172.338" font-family="FreeSans" font-size="10.00">Fun4AllServer::process</text>
<text text-anchor="middle" x="690" y="-161.338" font-family="FreeSans" font-size="10.00">_event</text>
</a>
</g>
</g>
<!-- Node4&#45;&gt;Node5 -->
<g id="edge4" class="edge"><title>Node4&#45;&gt;Node5</title>
<path fill="none" stroke="midnightblue" d="M597.98,-169.338C609.131,-169.338 620.591,-169.338 631.457,-169.338"/>
<polygon fill="midnightblue" stroke="midnightblue" points="597.852,-165.838 587.852,-169.338 597.852,-172.838 597.852,-165.838"/>
</g>
<!-- Node4&#45;&gt;Node6 -->
<g id="edge5" class="edge"><title>Node4&#45;&gt;Node6</title>
<path fill="none" stroke="midnightblue" d="M593.95,-187.035C614.596,-192.748 636.697,-198.864 654.388,-203.76"/>
<polygon fill="midnightblue" stroke="midnightblue" points="594.845,-183.651 584.274,-184.357 592.978,-190.398 594.845,-183.651"/>
</g>
<!-- Node7 -->
<g id="node7" class="node"><title>Node7</title>
<g id="a_node7"><a xlink:href="../../d0/d46/Fun4__SimpleReadMySql_8C.html#a70381893748e3445abc30632beb256ce" target="_top" xlink:title="Fun4_SimpleReadMySql">
<polygon fill="none" stroke="black" points="788.5,-222.838 788.5,-241.838 911.5,-241.838 911.5,-222.838 788.5,-222.838"/>
<text text-anchor="middle" x="850" y="-229.838" font-family="FreeSans" font-size="10.00">Fun4_SimpleReadMySql</text>
</a>
</g>
</g>
<!-- Node6&#45;&gt;Node7 -->
<g id="edge6" class="edge"><title>Node6&#45;&gt;Node7</title>
<path fill="none" stroke="midnightblue" d="M748.594,-220.264C761.557,-221.823 775.353,-223.482 788.434,-225.055"/>
<polygon fill="midnightblue" stroke="midnightblue" points="748.752,-216.758 738.405,-219.039 747.916,-223.708 748.752,-216.758"/>
</g>
<!-- Node8 -->
<g id="node8" class="node"><title>Node8</title>
<g id="a_node8"><a xlink:href="../../d9/d8c/Fun4ReadMySql_8C.html#a729b39fa627147c63772f28c9be36b62" target="_top" xlink:title="Fun4ReadMySql">
<polygon fill="none" stroke="black" points="806,-184.838 806,-203.838 894,-203.838 894,-184.838 806,-184.838"/>
<text text-anchor="middle" x="850" y="-191.838" font-family="FreeSans" font-size="10.00">Fun4ReadMySql</text>
</a>
</g>
</g>
<!-- Node6&#45;&gt;Node8 -->
<g id="edge7" class="edge"><title>Node6&#45;&gt;Node8</title>
<path fill="none" stroke="midnightblue" d="M748.44,-206.431C767.428,-204.147 788.215,-201.648 805.937,-199.517"/>
<polygon fill="midnightblue" stroke="midnightblue" points="747.916,-202.968 738.405,-207.637 748.752,-209.918 747.916,-202.968"/>
</g>
<!-- Node10 -->
<g id="node10" class="node"><title>Node10</title>
<g id="a_node10"><a xlink:href="../../d7/d4d/classPHNodeIOManager.html#a92da4bff2438e94d469011b7720f286f" target="_top" xlink:title="PHNodeIOManager::read">
<polygon fill="none" stroke="black" points="466.5,-77.8381 466.5,-96.8381 591.5,-96.8381 591.5,-77.8381 466.5,-77.8381"/>
<text text-anchor="middle" x="529" y="-84.8381" font-family="FreeSans" font-size="10.00">PHNodeIOManager::read</text>
</a>
</g>
</g>
<!-- Node9&#45;&gt;Node10 -->
<g id="edge10" class="edge"><title>Node9&#45;&gt;Node10</title>
<path fill="none" stroke="midnightblue" d="M439.659,-96.9294C448.676,-95.9504 457.706,-94.97 466.364,-94.03"/>
<polygon fill="midnightblue" stroke="midnightblue" points="439.067,-93.4731 429.503,-98.0321 439.822,-100.432 439.067,-93.4731"/>
</g>
<!-- Node11 -->
<g id="node11" class="node"><title>Node11</title>
<g id="a_node11"><a xlink:href="../../d7/d0b/classFun4AllDstInputManager.html#a4d32eadb9f77d41387656b87377ef14f" target="_top" xlink:title="Fun4AllDstInputManager\l::fileopen">
<polygon fill="none" stroke="black" points="628,-28.3381 628,-58.3381 752,-58.3381 752,-28.3381 628,-28.3381"/>
<text text-anchor="start" x="636" y="-46.3381" font-family="FreeSans" font-size="10.00">Fun4AllDstInputManager</text>
<text text-anchor="middle" x="690" y="-35.3381" font-family="FreeSans" font-size="10.00">::fileopen</text>
</a>
</g>
</g>
<!-- Node10&#45;&gt;Node11 -->
<g id="edge11" class="edge"><title>Node10&#45;&gt;Node11</title>
<path fill="none" stroke="midnightblue" d="M574.232,-75.0979C592.926,-69.9247 614.883,-63.8484 634.559,-58.4035"/>
<polygon fill="midnightblue" stroke="midnightblue" points="573.205,-71.7504 564.501,-77.7908 575.072,-78.4968 573.205,-71.7504"/>
</g>
<!-- Node13 -->
<g id="node13" class="node"><title>Node13</title>
<g id="a_node13"><a xlink:href="../../d7/d0b/classFun4AllDstInputManager.html#ade26017b627e0e1f1ec0dec62ac7fd52" target="_top" xlink:title="Fun4AllDstInputManager\l::ReadNextEventSyncObject">
<polygon fill="none" stroke="black" points="949.5,-28.3381 949.5,-58.3381 1088.5,-58.3381 1088.5,-28.3381 949.5,-28.3381"/>
<text text-anchor="start" x="957.5" y="-46.3381" font-family="FreeSans" font-size="10.00">Fun4AllDstInputManager</text>
<text text-anchor="middle" x="1019" y="-35.3381" font-family="FreeSans" font-size="10.00">::ReadNextEventSyncObject</text>
</a>
</g>
</g>
<!-- Node10&#45;&gt;Node13 -->
<g id="edge18" class="edge"><title>Node10&#45;&gt;Node13</title>
<path fill="none" stroke="midnightblue" d="M546.591,-70.7002C564.765,-53.7618 595.66,-28.5811 628,-18.3381 744.425,18.5367 889.937,-8.80329 966.074,-28.2864"/>
<polygon fill="midnightblue" stroke="midnightblue" points="543.966,-68.3688 539.176,-77.8194 548.814,-73.4181 543.966,-68.3688"/>
</g>
<!-- Node14 -->
<g id="node14" class="node"><title>Node14</title>
<g id="a_node14"><a xlink:href="../../d7/d0b/classFun4AllDstInputManager.html#a0244c2edbaa2350038304b09f352c2d0" target="_top" xlink:title="Fun4AllDstInputManager\l::SyncIt">
<polygon fill="none" stroke="black" points="1126,-69.3381 1126,-99.3381 1250,-99.3381 1250,-69.3381 1126,-69.3381"/>
<text text-anchor="start" x="1134" y="-87.3381" font-family="FreeSans" font-size="10.00">Fun4AllDstInputManager</text>
<text text-anchor="middle" x="1188" y="-76.3381" font-family="FreeSans" font-size="10.00">::SyncIt</text>
</a>
</g>
</g>
<!-- Node10&#45;&gt;Node14 -->
<g id="edge17" class="edge"><title>Node10&#45;&gt;Node14</title>
<path fill="none" stroke="midnightblue" d="M597.885,-98.1677C607.958,-99.4457 618.234,-100.567 628,-101.338 832.709,-117.494 885.93,-129.19 1090,-106.338 1103.21,-104.858 1117.25,-102.279 1130.43,-99.3942"/>
<polygon fill="midnightblue" stroke="midnightblue" points="598.277,-94.6893 587.904,-96.8448 597.357,-101.629 598.277,-94.6893"/>
</g>
<!-- Node15 -->
<g id="node15" class="node"><title>Node15</title>
<g id="a_node15"><a xlink:href="../../d7/d0b/classFun4AllDstInputManager.html#aeafa0248f9050c13fdae1bcb93336d7a" target="_top" xlink:title="Fun4AllDstInputManager::run">
<polygon fill="none" stroke="black" points="948,-77.8381 948,-96.8381 1090,-96.8381 1090,-77.8381 948,-77.8381"/>
<text text-anchor="middle" x="1019" y="-84.8381" font-family="FreeSans" font-size="10.00">Fun4AllDstInputManager::run</text>
</a>
</g>
</g>
<!-- Node10&#45;&gt;Node15 -->
<g id="edge16" class="edge"><title>Node10&#45;&gt;Node15</title>
<path fill="none" stroke="midnightblue" d="M601.961,-87.3381C694.866,-87.3381 855.511,-87.3381 947.633,-87.3381"/>
<polygon fill="midnightblue" stroke="midnightblue" points="601.806,-83.8382 591.806,-87.3381 601.806,-90.8382 601.806,-83.8382"/>
</g>
<!-- Node12 -->
<g id="node12" class="node"><title>Node12</title>
<g id="a_node12"><a xlink:href="../../d7/d0b/classFun4AllDstInputManager.html#ae4e92b95ae50ab72856d06c99b043496" target="_top" xlink:title="Fun4AllDstInputManager\l::OpenNextFile">
<polygon fill="none" stroke="black" points="788,-28.3381 788,-58.3381 912,-58.3381 912,-28.3381 788,-28.3381"/>
<text text-anchor="start" x="796" y="-46.3381" font-family="FreeSans" font-size="10.00">Fun4AllDstInputManager</text>
<text text-anchor="middle" x="850" y="-35.3381" font-family="FreeSans" font-size="10.00">::OpenNextFile</text>
</a>
</g>
</g>
<!-- Node11&#45;&gt;Node12 -->
<g id="edge12" class="edge"><title>Node11&#45;&gt;Node12</title>
<path fill="none" stroke="midnightblue" d="M762.366,-43.3381C770.863,-43.3381 779.478,-43.3381 787.815,-43.3381"/>
<polygon fill="midnightblue" stroke="midnightblue" points="762.087,-39.8382 752.087,-43.3381 762.087,-46.8382 762.087,-39.8382"/>
</g>
<!-- Node12&#45;&gt;Node13 -->
<g id="edge13" class="edge"><title>Node12&#45;&gt;Node13</title>
<path fill="none" stroke="midnightblue" d="M922.291,-43.3381C931.291,-43.3381 940.483,-43.3381 949.438,-43.3381"/>
<polygon fill="midnightblue" stroke="midnightblue" points="922.236,-39.8382 912.236,-43.3381 922.236,-46.8382 922.236,-39.8382"/>
</g>
<!-- Node12&#45;&gt;Node15 -->
<g id="edge15" class="edge"><title>Node12&#45;&gt;Node15</title>
<path fill="none" stroke="midnightblue" d="M917.874,-60.9575C939.642,-66.6928 962.981,-72.8422 981.646,-77.7598"/>
<polygon fill="midnightblue" stroke="midnightblue" points="918.567,-57.5207 908.005,-58.3573 916.783,-64.2897 918.567,-57.5207"/>
</g>
<!-- Node13&#45;&gt;Node14 -->
<g id="edge14" class="edge"><title>Node13&#45;&gt;Node14</title>
<path fill="none" stroke="midnightblue" d="M1091.23,-60.8266C1102.73,-63.6486 1114.54,-66.5484 1125.77,-69.3058"/>
<polygon fill="midnightblue" stroke="midnightblue" points="1091.78,-57.3575 1081.24,-58.3722 1090.11,-64.1556 1091.78,-57.3575"/>
</g>
</g>
</svg>
