<?xml version="1.0" encoding="UTF-8" standalone="no"?>
<!DOCTYPE svg PUBLIC "-//W3C//DTD SVG 1.1//EN"
 "http://www.w3.org/Graphics/SVG/1.1/DTD/svg11.dtd">
<!-- Generated by graphviz version 2.36.0 (20140111.2315)
 -->
<!-- Title: fun4all/fun4all/Fun4AllServer.h Pages: 1 -->
<svg width="1536pt" height="96pt"
 viewBox="0.00 0.00 1536.00 96.00" xmlns="http://www.w3.org/2000/svg" xmlns:xlink="http://www.w3.org/1999/xlink">
<g id="graph0" class="graph" transform="scale(1 1) rotate(0) translate(4 92)">
<title>fun4all/fun4all/Fun4AllServer.h</title>
<!-- Node1 -->
<g id="node1" class="node"><title>Node1</title>
<polygon fill="#bfbfbf" stroke="black" points="664.5,-68.5 664.5,-87.5 813.5,-87.5 813.5,-68.5 664.5,-68.5"/>
<text text-anchor="middle" x="739" y="-75.5" font-family="FreeSans" font-size="10.00">fun4all/fun4all/Fun4AllServer.h</text>
</g>
<!-- Node2 -->
<g id="node2" class="node"><title>Node2</title>
<g id="a_node2"><a xlink:href="../../d3/d53/Fun4AllDstInputManager_8cc.html" target="_top" xlink:title="fun4all/fun4all/Fun4AllDst\lInputManager.cc">
<polygon fill="none" stroke="black" points="0,-1 0,-31 128,-31 128,-1 0,-1"/>
<text text-anchor="start" x="8" y="-19" font-family="FreeSans" font-size="10.00">fun4all/fun4all/Fun4AllDst</text>
<text text-anchor="middle" x="64" y="-8" font-family="FreeSans" font-size="10.00">InputManager.cc</text>
</a>
</g>
</g>
<!-- Node1&#45;&gt;Node2 -->
<g id="edge1" class="edge"><title>Node1&#45;&gt;Node2</title>
<path fill="none" stroke="midnightblue" d="M653.746,-74.0658C536.763,-69.2576 320.129,-57.5521 137,-32 134.053,-31.5888 131.046,-31.1303 128.014,-30.6365"/>
<polygon fill="midnightblue" stroke="midnightblue" points="653.928,-77.576 664.062,-74.4825 654.211,-70.5817 653.928,-77.576"/>
</g>
<!-- Node3 -->
<g id="node3" class="node"><title>Node3</title>
<g id="a_node3"><a xlink:href="../../d9/d74/Fun4AllDstOutputManager_8cc.html" target="_top" xlink:title="fun4all/fun4all/Fun4AllDst\lOutputManager.cc">
<polygon fill="none" stroke="black" points="146,-1 146,-31 274,-31 274,-1 146,-1"/>
<text text-anchor="start" x="154" y="-19" font-family="FreeSans" font-size="10.00">fun4all/fun4all/Fun4AllDst</text>
<text text-anchor="middle" x="210" y="-8" font-family="FreeSans" font-size="10.00">OutputManager.cc</text>
</a>
</g>
</g>
<!-- Node1&#45;&gt;Node3 -->
<g id="edge2" class="edge"><title>Node1&#45;&gt;Node3</title>
<path fill="none" stroke="midnightblue" d="M654.389,-71.3036C562.591,-64.5059 411.877,-51.5454 283,-32 280.058,-31.5538 277.055,-31.0667 274.026,-30.5496"/>
<polygon fill="midnightblue" stroke="midnightblue" points="654.231,-74.8013 664.46,-72.0422 654.743,-67.8201 654.231,-74.8013"/>
</g>
<!-- Node4 -->
<g id="node4" class="node"><title>Node4</title>
<g id="a_node4"><a xlink:href="../../d6/dbe/Fun4AllEventOutputManager_8cc.html" target="_top" xlink:title="fun4all/fun4all/Fun4AllEvent\lOutputManager.cc">
<polygon fill="none" stroke="black" points="292.5,-1 292.5,-31 429.5,-31 429.5,-1 292.5,-1"/>
<text text-anchor="start" x="300.5" y="-19" font-family="FreeSans" font-size="10.00">fun4all/fun4all/Fun4AllEvent</text>
<text text-anchor="middle" x="361" y="-8" font-family="FreeSans" font-size="10.00">OutputManager.cc</text>
</a>
</g>
</g>
<!-- Node1&#45;&gt;Node4 -->
<g id="edge3" class="edge"><title>Node1&#45;&gt;Node4</title>
<path fill="none" stroke="midnightblue" d="M666.849,-67.0258C605.998,-58.4105 516.658,-45.2857 439,-32 436.01,-31.4884 432.957,-30.954 429.876,-30.4044"/>
<polygon fill="midnightblue" stroke="midnightblue" points="666.725,-70.5429 677.116,-68.4749 667.703,-63.6116 666.725,-70.5429"/>
</g>
<!-- Node5 -->
<g id="node5" class="node"><title>Node5</title>
<g id="a_node5"><a xlink:href="../../d2/d3e/Fun4AllFileOutStream_8cc.html" target="_top" xlink:title="fun4all/fun4all/Fun4AllFile\lOutStream.cc">
<polygon fill="none" stroke="black" points="448,-1 448,-31 576,-31 576,-1 448,-1"/>
<text text-anchor="start" x="456" y="-19" font-family="FreeSans" font-size="10.00">fun4all/fun4all/Fun4AllFile</text>
<text text-anchor="middle" x="512" y="-8" font-family="FreeSans" font-size="10.00">OutStream.cc</text>
</a>
</g>
</g>
<!-- Node1&#45;&gt;Node5 -->
<g id="edge4" class="edge"><title>Node1&#45;&gt;Node5</title>
<path fill="none" stroke="midnightblue" d="M696.461,-65.7562C659.264,-55.9243 605.086,-41.6041 565.062,-31.0253"/>
<polygon fill="midnightblue" stroke="midnightblue" points="695.914,-69.2318 706.476,-68.4035 697.703,-62.4642 695.914,-69.2318"/>
</g>
<!-- Node6 -->
<g id="node6" class="node"><title>Node6</title>
<g id="a_node6"><a xlink:href="../../d0/d56/Fun4AllInputManager_8cc.html" target="_top" xlink:title="fun4all/fun4all/Fun4AllInput\lManager.cc">
<polygon fill="none" stroke="black" points="594,-1 594,-31 728,-31 728,-1 594,-1"/>
<text text-anchor="start" x="602" y="-19" font-family="FreeSans" font-size="10.00">fun4all/fun4all/Fun4AllInput</text>
<text text-anchor="middle" x="661" y="-8" font-family="FreeSans" font-size="10.00">Manager.cc</text>
</a>
</g>
</g>
<!-- Node1&#45;&gt;Node6 -->
<g id="edge5" class="edge"><title>Node1&#45;&gt;Node6</title>
<path fill="none" stroke="midnightblue" d="M719.592,-62.0711C707.293,-52.6097 691.481,-40.4466 679.383,-31.1408"/>
<polygon fill="midnightblue" stroke="midnightblue" points="717.764,-65.0805 727.825,-68.4035 722.032,-59.5321 717.764,-65.0805"/>
</g>
<!-- Node7 -->
<g id="node7" class="node"><title>Node7</title>
<g id="a_node7"><a xlink:href="../../db/dfa/Fun4AllOutputManager_8cc.html" target="_top" xlink:title="fun4all/fun4all/Fun4AllOutput\lManager.cc">
<polygon fill="none" stroke="black" points="746,-1 746,-31 888,-31 888,-1 746,-1"/>
<text text-anchor="start" x="754" y="-19" font-family="FreeSans" font-size="10.00">fun4all/fun4all/Fun4AllOutput</text>
<text text-anchor="middle" x="817" y="-8" font-family="FreeSans" font-size="10.00">Manager.cc</text>
</a>
</g>
</g>
<!-- Node1&#45;&gt;Node7 -->
<g id="edge6" class="edge"><title>Node1&#45;&gt;Node7</title>
<path fill="none" stroke="midnightblue" d="M758.408,-62.0711C770.707,-52.6097 786.519,-40.4466 798.617,-31.1408"/>
<polygon fill="midnightblue" stroke="midnightblue" points="755.968,-59.5321 750.175,-68.4035 760.236,-65.0805 755.968,-59.5321"/>
</g>
<!-- Node8 -->
<g id="node8" class="node"><title>Node8</title>
<g id="a_node8"><a xlink:href="../../da/d7b/Fun4AllPrdfInputManager_8cc.html" target="_top" xlink:title="fun4all/fun4all/Fun4AllPrdf\lInputManager.cc">
<polygon fill="none" stroke="black" points="906.5,-1 906.5,-31 1037.5,-31 1037.5,-1 906.5,-1"/>
<text text-anchor="start" x="914.5" y="-19" font-family="FreeSans" font-size="10.00">fun4all/fun4all/Fun4AllPrdf</text>
<text text-anchor="middle" x="972" y="-8" font-family="FreeSans" font-size="10.00">InputManager.cc</text>
</a>
</g>
</g>
<!-- Node1&#45;&gt;Node8 -->
<g id="edge7" class="edge"><title>Node1&#45;&gt;Node8</title>
<path fill="none" stroke="midnightblue" d="M782.175,-65.882C820.368,-56.0467 876.279,-41.6493 917.535,-31.0253"/>
<polygon fill="midnightblue" stroke="midnightblue" points="781.194,-62.5202 772.383,-68.4035 782.94,-69.2991 781.194,-62.5202"/>
</g>
<!-- Node9 -->
<g id="node9" class="node"><title>Node9</title>
<g id="a_node9"><a xlink:href="../../db/d70/Fun4AllRolloverFileOutStream_8cc.html" target="_top" xlink:title="fun4all/fun4all/Fun4AllRollover\lFileOutStream.cc">
<polygon fill="none" stroke="black" points="1056,-1 1056,-31 1204,-31 1204,-1 1056,-1"/>
<text text-anchor="start" x="1064" y="-19" font-family="FreeSans" font-size="10.00">fun4all/fun4all/Fun4AllRollover</text>
<text text-anchor="middle" x="1130" y="-8" font-family="FreeSans" font-size="10.00">FileOutStream.cc</text>
</a>
</g>
</g>
<!-- Node1&#45;&gt;Node9 -->
<g id="edge8" class="edge"><title>Node1&#45;&gt;Node9</title>
<path fill="none" stroke="midnightblue" d="M811.236,-67.0594C873.51,-58.3348 965.791,-45.0367 1046,-32 1049.22,-31.4771 1052.5,-30.9334 1055.82,-30.3762"/>
<polygon fill="midnightblue" stroke="midnightblue" points="810.541,-63.6225 801.121,-68.4732 811.51,-70.5551 810.541,-63.6225"/>
</g>
<!-- Node10 -->
<g id="node10" class="node"><title>Node10</title>
<g id="a_node10"><a xlink:href="../../d8/d7a/Fun4AllServer_8cc.html" target="_top" xlink:title="fun4all/fun4all/Fun4AllServer.cc">
<polygon fill="none" stroke="black" points="1222,-6.5 1222,-25.5 1376,-25.5 1376,-6.5 1222,-6.5"/>
<text text-anchor="middle" x="1299" y="-13.5" font-family="FreeSans" font-size="10.00">fun4all/fun4all/Fun4AllServer.cc</text>
</a>
</g>
</g>
<!-- Node1&#45;&gt;Node10 -->
<g id="edge9" class="edge"><title>Node1&#45;&gt;Node10</title>
<path fill="none" stroke="midnightblue" d="M823.631,-70.9681C918.627,-63.7324 1077.24,-50.2553 1213,-32 1226.37,-30.2024 1240.84,-27.8417 1254.02,-25.5267"/>
<polygon fill="midnightblue" stroke="midnightblue" points="823.212,-67.4897 813.505,-71.7341 823.74,-74.4698 823.212,-67.4897"/>
</g>
<!-- Node11 -->
<g id="node11" class="node"><title>Node11</title>
<g id="a_node11"><a xlink:href="../../df/d03/Fun4AllSyncManager_8cc.html" target="_top" xlink:title="fun4all/fun4all/Fun4AllSync\lManager.cc">
<polygon fill="none" stroke="black" points="1394,-1 1394,-31 1528,-31 1528,-1 1394,-1"/>
<text text-anchor="start" x="1402" y="-19" font-family="FreeSans" font-size="10.00">fun4all/fun4all/Fun4AllSync</text>
<text text-anchor="middle" x="1461" y="-8" font-family="FreeSans" font-size="10.00">Manager.cc</text>
</a>
</g>
</g>
<!-- Node1&#45;&gt;Node11 -->
<g id="edge10" class="edge"><title>Node1&#45;&gt;Node11</title>
<path fill="none" stroke="midnightblue" d="M824.086,-74.4695C947.962,-70.0168 1185.01,-58.595 1385,-32 1387.93,-31.61 1390.92,-31.1762 1393.94,-30.7091"/>
<polygon fill="midnightblue" stroke="midnightblue" points="823.781,-70.978 813.911,-74.8287 824.028,-77.9736 823.781,-70.978"/>
</g>
</g>
</svg>
