<?xml version="1.0" encoding="UTF-8" standalone="no"?>
<!DOCTYPE svg PUBLIC "-//W3C//DTD SVG 1.1//EN"
 "http://www.w3.org/Graphics/SVG/1.1/DTD/svg11.dtd">
<!-- Generated by graphviz version 2.36.0 (20140111.2315)
 -->
<!-- Title: fun4all/ffaobjects/SyncObjectv2.cc Pages: 1 -->
<svg width="253pt" height="320pt"
 viewBox="0.00 0.00 253.00 320.00" xmlns="http://www.w3.org/2000/svg" xmlns:xlink="http://www.w3.org/1999/xlink">
<g id="graph0" class="graph" transform="scale(1 1) rotate(0) translate(4 316)">
<title>fun4all/ffaobjects/SyncObjectv2.cc</title>
<!-- Node1 -->
<g id="node1" class="node"><title>Node1</title>
<polygon fill="#bfbfbf" stroke="black" points="152.5,-281 152.5,-311 245.5,-311 245.5,-281 152.5,-281"/>
<text text-anchor="start" x="160.5" y="-299" font-family="FreeSans" font-size="10.00">fun4all/ffaobjects</text>
<text text-anchor="middle" x="199" y="-288" font-family="FreeSans" font-size="10.00">/SyncObjectv2.cc</text>
</g>
<!-- Node2 -->
<g id="node2" class="node"><title>Node2</title>
<g id="a_node2"><a xlink:href="../../dc/d4b/SyncObjectv2_8h.html" target="_top" xlink:title="SyncObjectv2.h">
<polygon fill="none" stroke="black" points="121.5,-224.5 121.5,-243.5 206.5,-243.5 206.5,-224.5 121.5,-224.5"/>
<text text-anchor="middle" x="164" y="-231.5" font-family="FreeSans" font-size="10.00">SyncObjectv2.h</text>
</a>
</g>
</g>
<!-- Node1&#45;&gt;Node2 -->
<g id="edge1" class="edge"><title>Node1&#45;&gt;Node2</title>
<path fill="none" stroke="midnightblue" d="M190.705,-280.781C185.777,-272.332 179.486,-261.548 174.249,-252.569"/>
<polygon fill="midnightblue" stroke="midnightblue" points="177.155,-250.605 169.093,-243.731 171.108,-254.132 177.155,-250.605"/>
</g>
<!-- Node7 -->
<g id="node7" class="node"><title>Node7</title>
<polygon fill="none" stroke="#bfbfbf" points="132,-0.5 132,-19.5 186,-19.5 186,-0.5 132,-0.5"/>
<text text-anchor="middle" x="159" y="-7.5" font-family="FreeSans" font-size="10.00">iostream</text>
</g>
<!-- Node1&#45;&gt;Node7 -->
<g id="edge10" class="edge"><title>Node1&#45;&gt;Node7</title>
<path fill="none" stroke="midnightblue" d="M206.459,-280.792C217.004,-259.351 235,-217.166 235,-179 235,-179 235,-179 235,-121 235,-81.2757 201.036,-45.5045 178.518,-26.1536"/>
<polygon fill="midnightblue" stroke="midnightblue" points="180.482,-23.2364 170.543,-19.5672 176.024,-28.6337 180.482,-23.2364"/>
</g>
<!-- Node3 -->
<g id="node3" class="node"><title>Node3</title>
<g id="a_node3"><a xlink:href="../../d6/df7/SyncObjectv1_8h.html" target="_top" xlink:title="SyncObjectv1.h">
<polygon fill="none" stroke="black" points="83.5,-168.5 83.5,-187.5 168.5,-187.5 168.5,-168.5 83.5,-168.5"/>
<text text-anchor="middle" x="126" y="-175.5" font-family="FreeSans" font-size="10.00">SyncObjectv1.h</text>
</a>
</g>
</g>
<!-- Node2&#45;&gt;Node3 -->
<g id="edge2" class="edge"><title>Node2&#45;&gt;Node3</title>
<path fill="none" stroke="midnightblue" d="M157.725,-224.083C152.358,-216.455 144.482,-205.264 137.921,-195.941"/>
<polygon fill="midnightblue" stroke="midnightblue" points="140.775,-193.915 132.158,-187.751 135.051,-197.943 140.775,-193.915"/>
</g>
<!-- Node2&#45;&gt;Node7 -->
<g id="edge9" class="edge"><title>Node2&#45;&gt;Node7</title>
<path fill="none" stroke="midnightblue" d="M167.344,-224.197C170.554,-215.24 175.176,-200.883 177,-188 185.171,-130.276 171.508,-61.4542 163.766,-29.2777"/>
<polygon fill="midnightblue" stroke="midnightblue" points="167.143,-28.354 161.32,-19.5029 160.352,-30.0535 167.143,-28.354"/>
</g>
<!-- Node4 -->
<g id="node4" class="node"><title>Node4</title>
<g id="a_node4"><a xlink:href="../../da/de1/ffaobjects_2SyncObject_8h.html" target="_top" xlink:title="SyncObject.h">
<polygon fill="none" stroke="black" points="57,-112.5 57,-131.5 131,-131.5 131,-112.5 57,-112.5"/>
<text text-anchor="middle" x="94" y="-119.5" font-family="FreeSans" font-size="10.00">SyncObject.h</text>
</a>
</g>
</g>
<!-- Node3&#45;&gt;Node4 -->
<g id="edge3" class="edge"><title>Node3&#45;&gt;Node4</title>
<path fill="none" stroke="midnightblue" d="M120.716,-168.083C116.289,-160.613 109.837,-149.724 104.382,-140.52"/>
<polygon fill="midnightblue" stroke="midnightblue" points="107.295,-138.57 99.1858,-131.751 101.273,-142.138 107.295,-138.57"/>
</g>
<!-- Node3&#45;&gt;Node7 -->
<g id="edge8" class="edge"><title>Node3&#45;&gt;Node7</title>
<path fill="none" stroke="midnightblue" d="M129.061,-168.476C132.187,-159.501 136.995,-144.91 140,-132 148.327,-96.2254 154.067,-53.6394 156.92,-29.7214"/>
<polygon fill="midnightblue" stroke="midnightblue" points="160.42,-29.926 158.088,-19.591 153.466,-29.1245 160.42,-29.926"/>
</g>
<!-- Node5 -->
<g id="node5" class="node"><title>Node5</title>
<g id="a_node5"><a xlink:href="../../df/d32/PHObject_8h.html" target="_top" xlink:title="phool/PHObject.h">
<polygon fill="none" stroke="black" points="-0.5,-56.5 -0.5,-75.5 92.5,-75.5 92.5,-56.5 -0.5,-56.5"/>
<text text-anchor="middle" x="46" y="-63.5" font-family="FreeSans" font-size="10.00">phool/PHObject.h</text>
</a>
</g>
</g>
<!-- Node4&#45;&gt;Node5 -->
<g id="edge4" class="edge"><title>Node4&#45;&gt;Node5</title>
<path fill="none" stroke="midnightblue" d="M86.0738,-112.083C79.1539,-104.298 68.9346,-92.8015 60.548,-83.3665"/>
<polygon fill="midnightblue" stroke="midnightblue" points="63.0383,-80.8999 53.7787,-75.7511 57.8065,-85.5505 63.0383,-80.8999"/>
</g>
<!-- Node4&#45;&gt;Node7 -->
<g id="edge7" class="edge"><title>Node4&#45;&gt;Node7</title>
<path fill="none" stroke="midnightblue" d="M99.1004,-112.368C109.78,-94.2957 134.668,-52.1764 148.773,-28.3074"/>
<polygon fill="midnightblue" stroke="midnightblue" points="151.849,-29.9813 153.923,-19.5914 145.823,-26.4201 151.849,-29.9813"/>
</g>
<!-- Node6 -->
<g id="node6" class="node"><title>Node6</title>
<polygon fill="none" stroke="#bfbfbf" points="16.5,-0.5 16.5,-19.5 75.5,-19.5 75.5,-0.5 16.5,-0.5"/>
<text text-anchor="middle" x="46" y="-7.5" font-family="FreeSans" font-size="10.00">TObject.h</text>
</g>
<!-- Node5&#45;&gt;Node6 -->
<g id="edge5" class="edge"><title>Node5&#45;&gt;Node6</title>
<path fill="none" stroke="midnightblue" d="M46,-56.083C46,-49.0059 46,-38.8611 46,-29.9865"/>
<polygon fill="midnightblue" stroke="midnightblue" points="49.5001,-29.751 46,-19.7511 42.5001,-29.7511 49.5001,-29.751"/>
</g>
<!-- Node5&#45;&gt;Node7 -->
<g id="edge6" class="edge"><title>Node5&#45;&gt;Node7</title>
<path fill="none" stroke="midnightblue" d="M63.9052,-56.4435C82.254,-47.6751 111.005,-33.9355 132.094,-23.8579"/>
<polygon fill="midnightblue" stroke="midnightblue" points="133.665,-26.9862 141.179,-19.5164 130.647,-20.6703 133.665,-26.9862"/>
</g>
</g>
</svg>
