<?xml version="1.0" encoding="UTF-8" standalone="no"?>
<!DOCTYPE svg PUBLIC "-//W3C//DTD SVG 1.1//EN"
 "http://www.w3.org/Graphics/SVG/1.1/DTD/svg11.dtd">
<!-- Generated by graphviz version 2.36.0 (20140111.2315)
 -->
<!-- Title: findNode::getClass Pages: 1 -->
<svg width="400pt" height="85pt"
 viewBox="0.00 0.00 400.00 85.00" xmlns="http://www.w3.org/2000/svg" xmlns:xlink="http://www.w3.org/1999/xlink">
<g id="graph0" class="graph" transform="scale(1 1) rotate(0) translate(4 81)">
<title>findNode::getClass</title>
<!-- Node1 -->
<g id="node1" class="node"><title>Node1</title>
<polygon fill="#bfbfbf" stroke="black" points="0,-19.5 0,-38.5 98,-38.5 98,-19.5 0,-19.5"/>
<text text-anchor="middle" x="49" y="-26.5" font-family="FreeSans" font-size="10.00">findNode::getClass</text>
</g>
<!-- Node2 -->
<g id="node2" class="node"><title>Node2</title>
<g id="a_node2"><a xlink:href="../../d5/d07/classPHNodeIterator.html#aea98bf8619af59b1212a94fb32106baa" target="_top" xlink:title="PHNodeIterator::findFirst">
<polygon fill="none" stroke="black" points="134,-38.5 134,-57.5 258,-57.5 258,-38.5 134,-38.5"/>
<text text-anchor="middle" x="196" y="-45.5" font-family="FreeSans" font-size="10.00">PHNodeIterator::findFirst</text>
</a>
</g>
</g>
<!-- Node1&#45;&gt;Node2 -->
<g id="edge1" class="edge"><title>Node1&#45;&gt;Node2</title>
<path fill="none" stroke="midnightblue" d="M98.2829,-35.3267C106.454,-36.3975 115.09,-37.529 123.702,-38.6575"/>
<polygon fill="midnightblue" stroke="midnightblue" points="123.403,-42.1482 133.773,-39.9771 124.312,-35.2075 123.403,-42.1482"/>
</g>
<!-- Node5 -->
<g id="node5" class="node"><title>Node5</title>
<g id="a_node5"><a xlink:href="../../d1/d3e/classPHDataNode.html#a1f3b856fd3ce165047be8aa97f4ab9f3" target="_top" xlink:title="PHDataNode::getData">
<polygon fill="none" stroke="black" points="139.5,-0.5 139.5,-19.5 252.5,-19.5 252.5,-0.5 139.5,-0.5"/>
<text text-anchor="middle" x="196" y="-7.5" font-family="FreeSans" font-size="10.00">PHDataNode::getData</text>
</a>
</g>
</g>
<!-- Node1&#45;&gt;Node5 -->
<g id="edge5" class="edge"><title>Node1&#45;&gt;Node5</title>
<path fill="none" stroke="midnightblue" d="M98.2829,-22.6733C108.272,-21.3644 118.954,-19.9647 129.44,-18.5906"/>
<polygon fill="midnightblue" stroke="midnightblue" points="129.945,-22.0544 139.406,-17.2848 129.036,-15.1138 129.945,-22.0544"/>
</g>
<!-- Node2&#45;&gt;Node2 -->
<g id="edge2" class="edge"><title>Node2&#45;&gt;Node2</title>
<path fill="none" stroke="midnightblue" d="M173.497,-57.7571C162.55,-66.5653 170.051,-76 196,-76 213.029,-76 222.113,-71.9368 223.253,-66.6539"/>
<polygon fill="midnightblue" stroke="midnightblue" points="226.3,-64.9303 218.503,-57.7571 220.125,-68.227 226.3,-64.9303"/>
</g>
<!-- Node3 -->
<g id="node3" class="node"><title>Node3</title>
<g id="a_node3"><a xlink:href="../../dc/d82/classPHNode.html#aca3576f926a4401eddc3d88bf0ce0de3" target="_top" xlink:title="PHNode::getName">
<polygon fill="none" stroke="black" points="294,-57.5 294,-76.5 392,-76.5 392,-57.5 294,-57.5"/>
<text text-anchor="middle" x="343" y="-64.5" font-family="FreeSans" font-size="10.00">PHNode::getName</text>
</a>
</g>
</g>
<!-- Node2&#45;&gt;Node3 -->
<g id="edge3" class="edge"><title>Node2&#45;&gt;Node3</title>
<path fill="none" stroke="midnightblue" d="M258.073,-56.0026C266.547,-57.113 275.234,-58.2514 283.656,-59.355"/>
<polygon fill="midnightblue" stroke="midnightblue" points="283.396,-62.8507 293.766,-60.6797 284.305,-55.91 283.396,-62.8507"/>
</g>
<!-- Node4 -->
<g id="node4" class="node"><title>Node4</title>
<g id="a_node4"><a xlink:href="../../dc/d82/classPHNode.html#a4ab1f90aed955a652813bfe377087bda" target="_top" xlink:title="PHNode::getType">
<polygon fill="none" stroke="black" points="296.5,-19.5 296.5,-38.5 389.5,-38.5 389.5,-19.5 296.5,-19.5"/>
<text text-anchor="middle" x="343" y="-26.5" font-family="FreeSans" font-size="10.00">PHNode::getType</text>
</a>
</g>
</g>
<!-- Node2&#45;&gt;Node4 -->
<g id="edge4" class="edge"><title>Node2&#45;&gt;Node4</title>
<path fill="none" stroke="midnightblue" d="M258.073,-39.9974C267.408,-38.7742 277.002,-37.517 286.215,-36.3098"/>
<polygon fill="midnightblue" stroke="midnightblue" points="286.961,-39.7421 296.421,-34.9724 286.051,-32.8014 286.961,-39.7421"/>
</g>
</g>
</svg>
