<?xml version="1.0" encoding="UTF-8" standalone="no"?>
<!DOCTYPE svg PUBLIC "-//W3C//DTD SVG 1.1//EN"
 "http://www.w3.org/Graphics/SVG/1.1/DTD/svg11.dtd">
<!-- Generated by graphviz version 2.36.0 (20140111.2315)
 -->
<!-- Title: fun4all/fun4all/SyncObject.cc Pages: 1 -->
<svg width="243pt" height="196pt"
 viewBox="0.00 0.00 243.00 196.00" xmlns="http://www.w3.org/2000/svg" xmlns:xlink="http://www.w3.org/1999/xlink">
<g id="graph0" class="graph" transform="scale(1 1) rotate(0) translate(4 192)">
<title>fun4all/fun4all/SyncObject.cc</title>
<!-- Node1 -->
<g id="node1" class="node"><title>Node1</title>
<polygon fill="#bfbfbf" stroke="black" points="61.5,-168.5 61.5,-187.5 204.5,-187.5 204.5,-168.5 61.5,-168.5"/>
<text text-anchor="middle" x="133" y="-175.5" font-family="FreeSans" font-size="10.00">fun4all/fun4all/SyncObject.cc</text>
</g>
<!-- Node2 -->
<g id="node2" class="node"><title>Node2</title>
<g id="a_node2"><a xlink:href="../../d0/dd4/fun4all_2SyncObject_8h.html" target="_top" xlink:title="SyncObject.h">
<polygon fill="none" stroke="black" points="31,-112.5 31,-131.5 105,-131.5 105,-112.5 31,-112.5"/>
<text text-anchor="middle" x="68" y="-119.5" font-family="FreeSans" font-size="10.00">SyncObject.h</text>
</a>
</g>
</g>
<!-- Node1&#45;&gt;Node2 -->
<g id="edge1" class="edge"><title>Node1&#45;&gt;Node2</title>
<path fill="none" stroke="midnightblue" d="M122.557,-168.324C112.854,-160.263 98.1847,-148.077 86.5003,-138.369"/>
<polygon fill="midnightblue" stroke="midnightblue" points="88.5619,-135.532 78.6334,-131.834 84.0887,-140.916 88.5619,-135.532"/>
</g>
<!-- Node5 -->
<g id="node5" class="node"><title>Node5</title>
<polygon fill="none" stroke="#bfbfbf" points="93,-0.5 93,-19.5 147,-19.5 147,-0.5 93,-0.5"/>
<text text-anchor="middle" x="120" y="-7.5" font-family="FreeSans" font-size="10.00">iostream</text>
</g>
<!-- Node1&#45;&gt;Node5 -->
<g id="edge8" class="edge"><title>Node1&#45;&gt;Node5</title>
<path fill="none" stroke="midnightblue" d="M132.301,-168.075C130.255,-141.945 124.245,-65.2106 121.455,-29.577"/>
<polygon fill="midnightblue" stroke="midnightblue" points="124.941,-29.2643 120.671,-19.5681 117.963,-29.8109 124.941,-29.2643"/>
</g>
<!-- Node6 -->
<g id="node6" class="node"><title>Node6</title>
<g id="a_node6"><a xlink:href="../../d5/d6f/phool_8h.html" target="_top" xlink:title="phool/phool.h">
<polygon fill="none" stroke="black" points="161,-56.5 161,-75.5 235,-75.5 235,-56.5 161,-56.5"/>
<text text-anchor="middle" x="198" y="-63.5" font-family="FreeSans" font-size="10.00">phool/phool.h</text>
</a>
</g>
</g>
<!-- Node1&#45;&gt;Node6 -->
<g id="edge6" class="edge"><title>Node1&#45;&gt;Node6</title>
<path fill="none" stroke="midnightblue" d="M138.1,-168.368C148.78,-150.296 173.668,-108.176 187.773,-84.3074"/>
<polygon fill="midnightblue" stroke="midnightblue" points="190.849,-85.9813 192.923,-75.5914 184.823,-82.4201 190.849,-85.9813"/>
</g>
<!-- Node3 -->
<g id="node3" class="node"><title>Node3</title>
<g id="a_node3"><a xlink:href="../../df/d32/PHObject_8h.html" target="_top" xlink:title="PHObject.h">
<polygon fill="none" stroke="black" points="-0.5,-56.5 -0.5,-75.5 66.5,-75.5 66.5,-56.5 -0.5,-56.5"/>
<text text-anchor="middle" x="33" y="-63.5" font-family="FreeSans" font-size="10.00">PHObject.h</text>
</a>
</g>
</g>
<!-- Node2&#45;&gt;Node3 -->
<g id="edge2" class="edge"><title>Node2&#45;&gt;Node3</title>
<path fill="none" stroke="midnightblue" d="M62.2205,-112.083C57.3276,-104.534 50.1726,-93.4948 44.1674,-84.2298"/>
<polygon fill="midnightblue" stroke="midnightblue" points="47.048,-82.239 38.672,-75.7511 41.174,-86.0463 47.048,-82.239"/>
</g>
<!-- Node2&#45;&gt;Node5 -->
<g id="edge5" class="edge"><title>Node2&#45;&gt;Node5</title>
<path fill="none" stroke="midnightblue" d="M72.0804,-112.368C80.5479,-94.4563 100.182,-52.9233 111.515,-28.9482"/>
<polygon fill="midnightblue" stroke="midnightblue" points="114.829,-30.128 115.939,-19.5914 108.5,-27.1363 114.829,-30.128"/>
</g>
<!-- Node4 -->
<g id="node4" class="node"><title>Node4</title>
<polygon fill="none" stroke="#bfbfbf" points="3.5,-0.5 3.5,-19.5 62.5,-19.5 62.5,-0.5 3.5,-0.5"/>
<text text-anchor="middle" x="33" y="-7.5" font-family="FreeSans" font-size="10.00">TObject.h</text>
</g>
<!-- Node3&#45;&gt;Node4 -->
<g id="edge3" class="edge"><title>Node3&#45;&gt;Node4</title>
<path fill="none" stroke="midnightblue" d="M33,-56.083C33,-49.0059 33,-38.8611 33,-29.9865"/>
<polygon fill="midnightblue" stroke="midnightblue" points="36.5001,-29.751 33,-19.7511 29.5001,-29.7511 36.5001,-29.751"/>
</g>
<!-- Node3&#45;&gt;Node5 -->
<g id="edge4" class="edge"><title>Node3&#45;&gt;Node5</title>
<path fill="none" stroke="midnightblue" d="M46.9781,-56.324C60.5496,-47.9002 81.3802,-34.9709 97.325,-25.0741"/>
<polygon fill="midnightblue" stroke="midnightblue" points="99.406,-27.9019 106.057,-19.6545 95.7144,-21.9544 99.406,-27.9019"/>
</g>
<!-- Node6&#45;&gt;Node5 -->
<g id="edge7" class="edge"><title>Node6&#45;&gt;Node5</title>
<path fill="none" stroke="midnightblue" d="M185.468,-56.324C173.414,-47.979 154.973,-35.2122 140.731,-25.3524"/>
<polygon fill="midnightblue" stroke="midnightblue" points="142.715,-22.469 132.501,-19.6545 138.731,-28.2243 142.715,-22.469"/>
</g>
</g>
</svg>
