<?xml version="1.0" encoding="UTF-8" standalone="no"?>
<!DOCTYPE svg PUBLIC "-//W3C//DTD SVG 1.1//EN"
 "http://www.w3.org/Graphics/SVG/1.1/DTD/svg11.dtd">
<!-- Generated by graphviz version 2.36.0 (20140111.2315)
 -->
<!-- Title: fun4all/phool/PHTimeServer.h Pages: 1 -->
<svg width="367pt" height="140pt"
 viewBox="0.00 0.00 367.00 140.00" xmlns="http://www.w3.org/2000/svg" xmlns:xlink="http://www.w3.org/1999/xlink">
<g id="graph0" class="graph" transform="scale(1 1) rotate(0) translate(4 136)">
<title>fun4all/phool/PHTimeServer.h</title>
<!-- Node1 -->
<g id="node1" class="node"><title>Node1</title>
<polygon fill="#bfbfbf" stroke="black" points="92,-112.5 92,-131.5 238,-131.5 238,-112.5 92,-112.5"/>
<text text-anchor="middle" x="165" y="-119.5" font-family="FreeSans" font-size="10.00">fun4all/phool/PHTimeServer.h</text>
</g>
<!-- Node2 -->
<g id="node2" class="node"><title>Node2</title>
<g id="a_node2"><a xlink:href="../../dc/d26/PHTimer_8h.html" target="_top" xlink:title="high precision timer ">
<polygon fill="none" stroke="black" points="63.5,-56.5 63.5,-75.5 126.5,-75.5 126.5,-56.5 63.5,-56.5"/>
<text text-anchor="middle" x="95" y="-63.5" font-family="FreeSans" font-size="10.00">PHTimer.h</text>
</a>
</g>
</g>
<!-- Node1&#45;&gt;Node2 -->
<g id="edge1" class="edge"><title>Node1&#45;&gt;Node2</title>
<path fill="none" stroke="midnightblue" d="M153.753,-112.324C143.203,-104.185 127.199,-91.8395 114.558,-82.0874"/>
<polygon fill="midnightblue" stroke="midnightblue" points="116.507,-79.1707 106.451,-75.8339 112.231,-84.7132 116.507,-79.1707"/>
</g>
<!-- Node3 -->
<g id="node3" class="node"><title>Node3</title>
<polygon fill="none" stroke="#bfbfbf" points="0,-0.5 0,-19.5 54,-19.5 54,-0.5 0,-0.5"/>
<text text-anchor="middle" x="27" y="-7.5" font-family="FreeSans" font-size="10.00">iostream</text>
</g>
<!-- Node1&#45;&gt;Node3 -->
<g id="edge5" class="edge"><title>Node1&#45;&gt;Node3</title>
<path fill="none" stroke="midnightblue" d="M123.406,-112.478C100.434,-105.902 72.8272,-94.667 54,-76 41.2768,-63.385 34.2709,-43.8976 30.6068,-29.5484"/>
<polygon fill="midnightblue" stroke="midnightblue" points="34.019,-28.7687 28.417,-19.776 27.1884,-30.2993 34.019,-28.7687"/>
</g>
<!-- Node6 -->
<g id="node6" class="node"><title>Node6</title>
<polygon fill="none" stroke="#bfbfbf" points="144.5,-56.5 144.5,-75.5 185.5,-75.5 185.5,-56.5 144.5,-56.5"/>
<text text-anchor="middle" x="165" y="-63.5" font-family="FreeSans" font-size="10.00">string</text>
</g>
<!-- Node1&#45;&gt;Node6 -->
<g id="edge6" class="edge"><title>Node1&#45;&gt;Node6</title>
<path fill="none" stroke="midnightblue" d="M165,-112.083C165,-105.006 165,-94.8611 165,-85.9865"/>
<polygon fill="midnightblue" stroke="midnightblue" points="168.5,-85.751 165,-75.7511 161.5,-85.7511 168.5,-85.751"/>
</g>
<!-- Node7 -->
<g id="node7" class="node"><title>Node7</title>
<polygon fill="none" stroke="#bfbfbf" points="203.5,-56.5 203.5,-75.5 238.5,-75.5 238.5,-56.5 203.5,-56.5"/>
<text text-anchor="middle" x="221" y="-63.5" font-family="FreeSans" font-size="10.00">map</text>
</g>
<!-- Node1&#45;&gt;Node7 -->
<g id="edge7" class="edge"><title>Node1&#45;&gt;Node7</title>
<path fill="none" stroke="midnightblue" d="M173.997,-112.324C182.194,-104.42 194.506,-92.5482 204.472,-82.9377"/>
<polygon fill="midnightblue" stroke="midnightblue" points="207.07,-85.2947 211.839,-75.8339 202.211,-80.2558 207.07,-85.2947"/>
</g>
<!-- Node8 -->
<g id="node8" class="node"><title>Node8</title>
<polygon fill="none" stroke="#bfbfbf" points="256.5,-56.5 256.5,-75.5 359.5,-75.5 359.5,-56.5 256.5,-56.5"/>
<text text-anchor="middle" x="308" y="-63.5" font-family="FreeSans" font-size="10.00">boost/smart_ptr.hpp</text>
</g>
<!-- Node1&#45;&gt;Node8 -->
<g id="edge8" class="edge"><title>Node1&#45;&gt;Node8</title>
<path fill="none" stroke="midnightblue" d="M187.659,-112.444C211.402,-103.478 248.909,-89.314 275.738,-79.1827"/>
<polygon fill="midnightblue" stroke="midnightblue" points="277.329,-82.3235 285.447,-75.5164 274.856,-75.7749 277.329,-82.3235"/>
</g>
<!-- Node2&#45;&gt;Node3 -->
<g id="edge2" class="edge"><title>Node2&#45;&gt;Node3</title>
<path fill="none" stroke="midnightblue" d="M84.0746,-56.324C73.8254,-48.1849 58.2794,-35.8395 45.999,-26.0874"/>
<polygon fill="midnightblue" stroke="midnightblue" points="48.1319,-23.3119 38.1242,-19.8339 43.7787,-28.7937 48.1319,-23.3119"/>
</g>
<!-- Node4 -->
<g id="node4" class="node"><title>Node4</title>
<polygon fill="none" stroke="#bfbfbf" points="72,-0.5 72,-19.5 124,-19.5 124,-0.5 72,-0.5"/>
<text text-anchor="middle" x="98" y="-7.5" font-family="FreeSans" font-size="10.00">sstream</text>
</g>
<!-- Node2&#45;&gt;Node4 -->
<g id="edge3" class="edge"><title>Node2&#45;&gt;Node4</title>
<path fill="none" stroke="midnightblue" d="M95.4954,-56.083C95.8886,-49.0059 96.4522,-38.8611 96.9452,-29.9865"/>
<polygon fill="midnightblue" stroke="midnightblue" points="100.454,-29.9299 97.5138,-19.7511 93.4644,-29.5415 100.454,-29.9299"/>
</g>
<!-- Node5 -->
<g id="node5" class="node"><title>Node5</title>
<polygon fill="none" stroke="#bfbfbf" points="142,-0.5 142,-19.5 192,-19.5 192,-0.5 142,-0.5"/>
<text text-anchor="middle" x="167" y="-7.5" font-family="FreeSans" font-size="10.00">unistd.h</text>
</g>
<!-- Node2&#45;&gt;Node5 -->
<g id="edge4" class="edge"><title>Node2&#45;&gt;Node5</title>
<path fill="none" stroke="midnightblue" d="M106.568,-56.324C117.42,-48.1849 133.881,-35.8395 146.883,-26.0874"/>
<polygon fill="midnightblue" stroke="midnightblue" points="149.321,-28.6339 155.221,-19.8339 145.121,-23.0339 149.321,-28.6339"/>
</g>
</g>
</svg>
