<?xml version="1.0" encoding="UTF-8" standalone="no"?>
<!DOCTYPE svg PUBLIC "-//W3C//DTD SVG 1.1//EN"
 "http://www.w3.org/Graphics/SVG/1.1/DTD/svg11.dtd">
<!-- Generated by graphviz version 2.36.0 (20140111.2315)
 -->
<!-- Title: fun4all/phool/getClass.h Pages: 1 -->
<svg width="618pt" height="476pt"
 viewBox="0.00 0.00 618.00 476.00" xmlns="http://www.w3.org/2000/svg" xmlns:xlink="http://www.w3.org/1999/xlink">
<g id="graph0" class="graph" transform="scale(1 1) rotate(0) translate(4 472)">
<title>fun4all/phool/getClass.h</title>
<!-- Node1 -->
<g id="node1" class="node"><title>Node1</title>
<polygon fill="#bfbfbf" stroke="black" points="412,-448.5 412,-467.5 532,-467.5 532,-448.5 412,-448.5"/>
<text text-anchor="middle" x="472" y="-455.5" font-family="FreeSans" font-size="10.00">fun4all/phool/getClass.h</text>
</g>
<!-- Node2 -->
<g id="node2" class="node"><title>Node2</title>
<g id="a_node2"><a xlink:href="../../d8/dfd/PHNodeIterator_8h.html" target="_top" xlink:title="PHNodeIterator.h">
<polygon fill="none" stroke="black" points="489,-280.5 489,-299.5 581,-299.5 581,-280.5 489,-280.5"/>
<text text-anchor="middle" x="535" y="-287.5" font-family="FreeSans" font-size="10.00">PHNodeIterator.h</text>
</a>
</g>
</g>
<!-- Node1&#45;&gt;Node2 -->
<g id="edge1" class="edge"><title>Node1&#45;&gt;Node2</title>
<path fill="none" stroke="midnightblue" d="M481.672,-448.332C490.44,-439.918 503.026,-426.346 510,-412 526.355,-378.358 532.029,-334.404 533.984,-309.796"/>
<polygon fill="midnightblue" stroke="midnightblue" points="537.486,-309.89 534.661,-299.678 530.501,-309.422 537.486,-309.89"/>
</g>
<!-- Node6 -->
<g id="node6" class="node"><title>Node6</title>
<g id="a_node6"><a xlink:href="../../d3/d62/PHNode_8h.html" target="_top" xlink:title="PHNode.h">
<polygon fill="none" stroke="black" points="421,-112.5 421,-131.5 483,-131.5 483,-112.5 421,-112.5"/>
<text text-anchor="middle" x="452" y="-119.5" font-family="FreeSans" font-size="10.00">PHNode.h</text>
</a>
</g>
</g>
<!-- Node1&#45;&gt;Node6 -->
<g id="edge34" class="edge"><title>Node1&#45;&gt;Node6</title>
<path fill="none" stroke="midnightblue" d="M500.594,-448.487C541.015,-434.482 610,-402.455 610,-347 610,-347 610,-347 610,-289 610,-214.339 525.104,-159.939 479.773,-136.214"/>
<polygon fill="midnightblue" stroke="midnightblue" points="481.245,-133.036 470.745,-131.62 478.071,-139.275 481.245,-133.036"/>
</g>
<!-- Node8 -->
<g id="node8" class="node"><title>Node8</title>
<polygon fill="none" stroke="#bfbfbf" points="74.5,-56.5 74.5,-75.5 115.5,-75.5 115.5,-56.5 74.5,-56.5"/>
<text text-anchor="middle" x="95" y="-63.5" font-family="FreeSans" font-size="10.00">string</text>
</g>
<!-- Node1&#45;&gt;Node8 -->
<g id="edge36" class="edge"><title>Node1&#45;&gt;Node8</title>
<path fill="none" stroke="midnightblue" d="M411.741,-455.502C284.496,-450.7 0,-430.614 0,-347 0,-347 0,-347 0,-177 0,-133.739 42.6084,-99.0862 70.7548,-80.9149"/>
<polygon fill="midnightblue" stroke="midnightblue" points="72.6613,-83.851 79.3127,-75.6042 68.9703,-77.9032 72.6613,-83.851"/>
</g>
<!-- Node10 -->
<g id="node10" class="node"><title>Node10</title>
<g id="a_node10"><a xlink:href="../../d3/d79/PHIODataNode_8h.html" target="_top" xlink:title="PHIODataNode.h">
<polygon fill="none" stroke="black" points="178,-392.5 178,-411.5 270,-411.5 270,-392.5 178,-392.5"/>
<text text-anchor="middle" x="224" y="-399.5" font-family="FreeSans" font-size="10.00">PHIODataNode.h</text>
</a>
</g>
</g>
<!-- Node1&#45;&gt;Node10 -->
<g id="edge15" class="edge"><title>Node1&#45;&gt;Node10</title>
<path fill="none" stroke="midnightblue" d="M432.704,-448.444C389.441,-439.023 319.827,-423.866 273.027,-413.675"/>
<polygon fill="midnightblue" stroke="midnightblue" points="273.628,-410.224 263.112,-411.516 272.139,-417.064 273.628,-410.224"/>
</g>
<!-- Node11 -->
<g id="node11" class="node"><title>Node11</title>
<g id="a_node11"><a xlink:href="../../dd/d9b/PHDataNode_8h.html" target="_top" xlink:title="PHDataNode.h">
<polygon fill="none" stroke="black" points="277,-224.5 277,-243.5 359,-243.5 359,-224.5 277,-224.5"/>
<text text-anchor="middle" x="318" y="-231.5" font-family="FreeSans" font-size="10.00">PHDataNode.h</text>
</a>
</g>
</g>
<!-- Node1&#45;&gt;Node11 -->
<g id="edge33" class="edge"><title>Node1&#45;&gt;Node11</title>
<path fill="none" stroke="midnightblue" d="M475.079,-448.401C481.97,-427.58 496.494,-373.423 476,-336 450.665,-289.735 394.11,-261.576 356.002,-247.136"/>
<polygon fill="midnightblue" stroke="midnightblue" points="356.857,-243.722 346.263,-243.59 354.463,-250.3 356.857,-243.722"/>
</g>
<!-- Node18 -->
<g id="node18" class="node"><title>Node18</title>
<polygon fill="none" stroke="#bfbfbf" points="408.5,-336.5 408.5,-355.5 467.5,-355.5 467.5,-336.5 408.5,-336.5"/>
<text text-anchor="middle" x="438" y="-343.5" font-family="FreeSans" font-size="10.00">TObject.h</text>
</g>
<!-- Node1&#45;&gt;Node18 -->
<g id="edge35" class="edge"><title>Node1&#45;&gt;Node18</title>
<path fill="none" stroke="midnightblue" d="M469.332,-448.368C463.82,-430.537 451.073,-389.295 443.648,-365.272"/>
<polygon fill="midnightblue" stroke="midnightblue" points="446.953,-364.112 440.656,-355.591 440.265,-366.179 446.953,-364.112"/>
</g>
<!-- Node3 -->
<g id="node3" class="node"><title>Node3</title>
<g id="a_node3"><a xlink:href="../../d5/d6f/phool_8h.html" target="_top" xlink:title="phool.h">
<polygon fill="none" stroke="black" points="379.5,-56.5 379.5,-75.5 426.5,-75.5 426.5,-56.5 379.5,-56.5"/>
<text text-anchor="middle" x="403" y="-63.5" font-family="FreeSans" font-size="10.00">phool.h</text>
</a>
</g>
</g>
<!-- Node2&#45;&gt;Node3 -->
<g id="edge2" class="edge"><title>Node2&#45;&gt;Node3</title>
<path fill="none" stroke="midnightblue" d="M539.621,-280.339C544.059,-271.493 550.454,-257.22 553,-244 563.301,-190.51 511.273,-113.314 510,-112 499.321,-100.979 463.479,-87.1449 436.193,-77.7451"/>
<polygon fill="midnightblue" stroke="midnightblue" points="437.184,-74.3855 426.59,-74.4961 434.94,-81.0163 437.184,-74.3855"/>
</g>
<!-- Node5 -->
<g id="node5" class="node"><title>Node5</title>
<g id="a_node5"><a xlink:href="../../d8/d30/PHCompositeNode_8h.html" target="_top" xlink:title="PHCompositeNode.h">
<polygon fill="none" stroke="black" points="436,-224.5 436,-243.5 544,-243.5 544,-224.5 436,-224.5"/>
<text text-anchor="middle" x="490" y="-231.5" font-family="FreeSans" font-size="10.00">PHCompositeNode.h</text>
</a>
</g>
</g>
<!-- Node2&#45;&gt;Node5 -->
<g id="edge4" class="edge"><title>Node2&#45;&gt;Node5</title>
<path fill="none" stroke="midnightblue" d="M527.569,-280.083C521.147,-272.377 511.694,-261.033 503.878,-251.653"/>
<polygon fill="midnightblue" stroke="midnightblue" points="506.383,-249.193 497.293,-243.751 501.006,-253.674 506.383,-249.193"/>
</g>
<!-- Node9 -->
<g id="node9" class="node"><title>Node9</title>
<g id="a_node9"><a xlink:href="../../db/dd5/PHPointerList_8h.html" target="_top" xlink:title="PHPointerList.h">
<polygon fill="none" stroke="black" points="338,-168.5 338,-187.5 424,-187.5 424,-168.5 338,-168.5"/>
<text text-anchor="middle" x="381" y="-175.5" font-family="FreeSans" font-size="10.00">PHPointerList.h</text>
</a>
</g>
</g>
<!-- Node2&#45;&gt;Node9 -->
<g id="edge14" class="edge"><title>Node2&#45;&gt;Node9</title>
<path fill="none" stroke="midnightblue" d="M501.758,-280.447C478.991,-273.391 449.045,-261.64 427,-244 410.863,-231.087 397.885,-211.088 389.881,-196.684"/>
<polygon fill="midnightblue" stroke="midnightblue" points="392.929,-194.961 385.156,-187.761 386.743,-198.237 392.929,-194.961"/>
</g>
<!-- Node4 -->
<g id="node4" class="node"><title>Node4</title>
<polygon fill="none" stroke="#bfbfbf" points="324,-0.5 324,-19.5 378,-19.5 378,-0.5 324,-0.5"/>
<text text-anchor="middle" x="351" y="-7.5" font-family="FreeSans" font-size="10.00">iostream</text>
</g>
<!-- Node3&#45;&gt;Node4 -->
<g id="edge3" class="edge"><title>Node3&#45;&gt;Node4</title>
<path fill="none" stroke="midnightblue" d="M394.413,-56.083C386.841,-48.2195 375.622,-36.5688 366.486,-27.0813"/>
<polygon fill="midnightblue" stroke="midnightblue" points="368.885,-24.5266 359.427,-19.7511 363.842,-29.3821 368.885,-24.5266"/>
</g>
<!-- Node5&#45;&gt;Node3 -->
<g id="edge5" class="edge"><title>Node5&#45;&gt;Node3</title>
<path fill="none" stroke="midnightblue" d="M492.973,-224.266C499.586,-203.147 513.256,-148.378 491,-112 484.603,-101.545 457.942,-88.7447 435.624,-79.473"/>
<polygon fill="midnightblue" stroke="midnightblue" points="436.664,-76.1181 426.082,-75.6077 434.036,-82.606 436.664,-76.1181"/>
</g>
<!-- Node5&#45;&gt;Node6 -->
<g id="edge6" class="edge"><title>Node5&#45;&gt;Node6</title>
<path fill="none" stroke="midnightblue" d="M487.018,-224.368C480.858,-206.537 466.611,-165.295 458.312,-141.272"/>
<polygon fill="midnightblue" stroke="midnightblue" points="461.541,-139.9 454.968,-131.591 454.925,-142.186 461.541,-139.9"/>
</g>
<!-- Node5&#45;&gt;Node9 -->
<g id="edge10" class="edge"><title>Node5&#45;&gt;Node9</title>
<path fill="none" stroke="midnightblue" d="M472.487,-224.324C454.928,-215.625 427.669,-202.12 407.469,-192.113"/>
<polygon fill="midnightblue" stroke="midnightblue" points="408.984,-188.958 398.469,-187.655 405.876,-195.23 408.984,-188.958"/>
</g>
<!-- Node6&#45;&gt;Node3 -->
<g id="edge7" class="edge"><title>Node6&#45;&gt;Node3</title>
<path fill="none" stroke="midnightblue" d="M443.909,-112.083C436.845,-104.298 426.412,-92.8015 417.851,-83.3665"/>
<polygon fill="midnightblue" stroke="midnightblue" points="420.253,-80.8047 410.941,-75.7511 415.069,-85.5087 420.253,-80.8047"/>
</g>
<!-- Node7 -->
<g id="node7" class="node"><title>Node7</title>
<polygon fill="none" stroke="#bfbfbf" points="444.5,-56.5 444.5,-75.5 489.5,-75.5 489.5,-56.5 444.5,-56.5"/>
<text text-anchor="middle" x="467" y="-63.5" font-family="FreeSans" font-size="10.00">iosfwd</text>
</g>
<!-- Node6&#45;&gt;Node7 -->
<g id="edge8" class="edge"><title>Node6&#45;&gt;Node7</title>
<path fill="none" stroke="midnightblue" d="M454.477,-112.083C456.486,-104.849 459.386,-94.4087 461.89,-85.3968"/>
<polygon fill="midnightblue" stroke="midnightblue" points="465.265,-86.323 464.569,-75.7511 458.52,-84.4495 465.265,-86.323"/>
</g>
<!-- Node6&#45;&gt;Node8 -->
<g id="edge9" class="edge"><title>Node6&#45;&gt;Node8</title>
<path fill="none" stroke="midnightblue" d="M420.943,-116.302C353.312,-106.072 193.383,-81.8814 125.897,-71.6735"/>
<polygon fill="midnightblue" stroke="midnightblue" points="126.299,-68.1946 115.888,-70.1596 125.252,-75.1159 126.299,-68.1946"/>
</g>
<!-- Node9&#45;&gt;Node3 -->
<g id="edge11" class="edge"><title>Node9&#45;&gt;Node3</title>
<path fill="none" stroke="midnightblue" d="M382.726,-168.368C386.277,-150.617 394.467,-109.666 399.281,-85.5974"/>
<polygon fill="midnightblue" stroke="midnightblue" points="402.753,-86.0837 401.282,-75.5914 395.888,-84.7108 402.753,-86.0837"/>
</g>
<!-- Node9&#45;&gt;Node4 -->
<g id="edge13" class="edge"><title>Node9&#45;&gt;Node4</title>
<path fill="none" stroke="midnightblue" d="M379.387,-168.075C374.665,-141.945 360.797,-65.2106 354.357,-29.577"/>
<polygon fill="midnightblue" stroke="midnightblue" points="357.771,-28.7862 352.548,-19.5681 350.883,-30.0312 357.771,-28.7862"/>
</g>
<!-- Node9&#45;&gt;Node6 -->
<g id="edge12" class="edge"><title>Node9&#45;&gt;Node6</title>
<path fill="none" stroke="midnightblue" d="M392.407,-168.324C403.109,-160.185 419.341,-147.839 432.163,-138.087"/>
<polygon fill="midnightblue" stroke="midnightblue" points="434.544,-140.673 440.385,-131.834 430.307,-135.102 434.544,-140.673"/>
</g>
<!-- Node10&#45;&gt;Node8 -->
<g id="edge32" class="edge"><title>Node10&#45;&gt;Node8</title>
<path fill="none" stroke="midnightblue" d="M177.544,-394.181C122.452,-383.161 38,-355.715 38,-291 38,-291 38,-291 38,-177 38,-140.3 63.321,-103.657 80.2099,-83.2973"/>
<polygon fill="midnightblue" stroke="midnightblue" points="82.9535,-85.475 86.8333,-75.6161 77.6522,-80.9037 82.9535,-85.475"/>
</g>
<!-- Node10&#45;&gt;Node11 -->
<g id="edge16" class="edge"><title>Node10&#45;&gt;Node11</title>
<path fill="none" stroke="midnightblue" d="M229.054,-392.075C243.978,-365.719 288.057,-287.878 307.999,-252.661"/>
<polygon fill="midnightblue" stroke="midnightblue" points="311.266,-253.994 313.148,-243.568 305.175,-250.545 311.266,-253.994"/>
</g>
<!-- Node12 -->
<g id="node12" class="node"><title>Node12</title>
<g id="a_node12"><a xlink:href="../../d9/d53/PHIOManager_8h.html" target="_top" xlink:title="PHIOManager.h">
<polygon fill="none" stroke="black" points="196,-112.5 196,-131.5 282,-131.5 282,-112.5 196,-112.5"/>
<text text-anchor="middle" x="239" y="-119.5" font-family="FreeSans" font-size="10.00">PHIOManager.h</text>
</a>
</g>
</g>
<!-- Node10&#45;&gt;Node12 -->
<g id="edge19" class="edge"><title>Node10&#45;&gt;Node12</title>
<path fill="none" stroke="midnightblue" d="M224.465,-392.375C226.548,-353.782 235.037,-196.454 237.985,-141.807"/>
<polygon fill="midnightblue" stroke="midnightblue" points="241.496,-141.698 238.54,-131.524 234.506,-141.321 241.496,-141.698"/>
</g>
<!-- Node13 -->
<g id="node13" class="node"><title>Node13</title>
<g id="a_node13"><a xlink:href="../../dd/de7/PHNodeIOManager_8h.html" target="_top" xlink:title="PHNodeIOManager.h">
<polygon fill="none" stroke="black" points="104,-168.5 104,-187.5 214,-187.5 214,-168.5 104,-168.5"/>
<text text-anchor="middle" x="159" y="-175.5" font-family="FreeSans" font-size="10.00">PHNodeIOManager.h</text>
</a>
</g>
</g>
<!-- Node10&#45;&gt;Node13 -->
<g id="edge22" class="edge"><title>Node10&#45;&gt;Node13</title>
<path fill="none" stroke="midnightblue" d="M215.851,-392.448C208.197,-383.909 197.043,-370.064 191,-356 167.733,-301.846 161.38,-231.33 159.648,-198.017"/>
<polygon fill="midnightblue" stroke="midnightblue" points="163.138,-197.712 159.208,-187.873 156.144,-198.015 163.138,-197.712"/>
</g>
<!-- Node15 -->
<g id="node15" class="node"><title>Node15</title>
<g id="a_node15"><a xlink:href="../../db/d17/PHTypedNodeIterator_8h.html" target="_top" xlink:title="PHTypedNodeIterator.h">
<polygon fill="none" stroke="black" points="271.5,-336.5 271.5,-355.5 390.5,-355.5 390.5,-336.5 271.5,-336.5"/>
<text text-anchor="middle" x="331" y="-343.5" font-family="FreeSans" font-size="10.00">PHTypedNodeIterator.h</text>
</a>
</g>
</g>
<!-- Node10&#45;&gt;Node15 -->
<g id="edge26" class="edge"><title>Node10&#45;&gt;Node15</title>
<path fill="none" stroke="midnightblue" d="M241.191,-392.324C258.351,-383.664 284.946,-370.242 304.747,-360.249"/>
<polygon fill="midnightblue" stroke="midnightblue" points="306.501,-363.285 313.851,-355.655 303.347,-357.035 306.501,-363.285"/>
</g>
<!-- Node17 -->
<g id="node17" class="node"><title>Node17</title>
<g id="a_node17"><a xlink:href="../../de/da7/phooldefs_8h.html" target="_top" xlink:title="phooldefs.h">
<polygon fill="none" stroke="black" points="70,-280.5 70,-299.5 136,-299.5 136,-280.5 70,-280.5"/>
<text text-anchor="middle" x="103" y="-287.5" font-family="FreeSans" font-size="10.00">phooldefs.h</text>
</a>
</g>
</g>
<!-- Node10&#45;&gt;Node17 -->
<g id="edge29" class="edge"><title>Node10&#45;&gt;Node17</title>
<path fill="none" stroke="midnightblue" d="M206.488,-392.407C191.099,-384.334 168.629,-371.236 152,-356 136.592,-341.882 122.635,-322.386 113.594,-308.436"/>
<polygon fill="midnightblue" stroke="midnightblue" points="116.448,-306.401 108.162,-299.798 110.522,-310.127 116.448,-306.401"/>
</g>
<!-- Node10&#45;&gt;Node18 -->
<g id="edge31" class="edge"><title>Node10&#45;&gt;Node18</title>
<path fill="none" stroke="midnightblue" d="M257.909,-392.444C296.153,-382.793 358.26,-367.121 398.62,-356.937"/>
<polygon fill="midnightblue" stroke="midnightblue" points="399.545,-360.313 408.385,-354.473 397.832,-353.526 399.545,-360.313"/>
</g>
<!-- Node11&#45;&gt;Node4 -->
<g id="edge18" class="edge"><title>Node11&#45;&gt;Node4</title>
<path fill="none" stroke="midnightblue" d="M319.294,-224.297C324.149,-191.633 341.358,-75.8661 348.182,-29.9573"/>
<polygon fill="midnightblue" stroke="midnightblue" points="351.671,-30.2897 349.679,-19.8837 344.747,-29.2604 351.671,-30.2897"/>
</g>
<!-- Node11&#45;&gt;Node6 -->
<g id="edge17" class="edge"><title>Node11&#45;&gt;Node6</title>
<path fill="none" stroke="midnightblue" d="M359.079,-226.318C383.69,-220.275 413.822,-208.957 433,-188 444.524,-175.407 449.088,-156.191 450.879,-141.915"/>
<polygon fill="midnightblue" stroke="midnightblue" points="454.384,-142.021 451.802,-131.745 447.413,-141.388 454.384,-142.021"/>
</g>
<!-- Node12&#45;&gt;Node3 -->
<g id="edge20" class="edge"><title>Node12&#45;&gt;Node3</title>
<path fill="none" stroke="midnightblue" d="M264.986,-112.444C293.225,-103.145 338.441,-88.2572 369.369,-78.0735"/>
<polygon fill="midnightblue" stroke="midnightblue" points="370.862,-81.2671 379.265,-74.8151 368.672,-74.6182 370.862,-81.2671"/>
</g>
<!-- Node12&#45;&gt;Node8 -->
<g id="edge21" class="edge"><title>Node12&#45;&gt;Node8</title>
<path fill="none" stroke="midnightblue" d="M216.183,-112.444C191.603,-103.226 152.375,-88.5157 125.241,-78.3402"/>
<polygon fill="midnightblue" stroke="midnightblue" points="126.433,-75.0492 115.84,-74.8151 123.975,-81.6036 126.433,-75.0492"/>
</g>
<!-- Node13&#45;&gt;Node8 -->
<g id="edge24" class="edge"><title>Node13&#45;&gt;Node8</title>
<path fill="none" stroke="midnightblue" d="M153.978,-168.368C143.463,-150.296 118.957,-108.176 105.07,-84.3074"/>
<polygon fill="midnightblue" stroke="midnightblue" points="108.053,-82.4748 99.9986,-75.5914 102.002,-85.9951 108.053,-82.4748"/>
</g>
<!-- Node13&#45;&gt;Node12 -->
<g id="edge23" class="edge"><title>Node13&#45;&gt;Node12</title>
<path fill="none" stroke="midnightblue" d="M171.853,-168.324C184.216,-159.979 203.13,-147.212 217.737,-137.352"/>
<polygon fill="midnightblue" stroke="midnightblue" points="219.848,-140.15 226.179,-131.655 215.932,-134.348 219.848,-140.15"/>
</g>
<!-- Node14 -->
<g id="node14" class="node"><title>Node14</title>
<polygon fill="none" stroke="#bfbfbf" points="142.5,-112.5 142.5,-131.5 177.5,-131.5 177.5,-112.5 142.5,-112.5"/>
<text text-anchor="middle" x="160" y="-119.5" font-family="FreeSans" font-size="10.00">map</text>
</g>
<!-- Node13&#45;&gt;Node14 -->
<g id="edge25" class="edge"><title>Node13&#45;&gt;Node14</title>
<path fill="none" stroke="midnightblue" d="M159.165,-168.083C159.296,-161.006 159.484,-150.861 159.648,-141.986"/>
<polygon fill="midnightblue" stroke="midnightblue" points="163.152,-141.814 159.838,-131.751 156.153,-141.685 163.152,-141.814"/>
</g>
<!-- Node15&#45;&gt;Node2 -->
<g id="edge27" class="edge"><title>Node15&#45;&gt;Node2</title>
<path fill="none" stroke="midnightblue" d="M363.324,-336.444C398.389,-327.162 454.498,-312.309 492.965,-302.127"/>
<polygon fill="midnightblue" stroke="midnightblue" points="494.055,-305.459 502.827,-299.516 492.264,-298.692 494.055,-305.459"/>
</g>
<!-- Node16 -->
<g id="node16" class="node"><title>Node16</title>
<polygon fill="none" stroke="#bfbfbf" points="306.5,-280.5 306.5,-299.5 355.5,-299.5 355.5,-280.5 306.5,-280.5"/>
<text text-anchor="middle" x="331" y="-287.5" font-family="FreeSans" font-size="10.00">cstddef</text>
</g>
<!-- Node15&#45;&gt;Node16 -->
<g id="edge28" class="edge"><title>Node15&#45;&gt;Node16</title>
<path fill="none" stroke="midnightblue" d="M331,-336.083C331,-329.006 331,-318.861 331,-309.986"/>
<polygon fill="midnightblue" stroke="midnightblue" points="334.5,-309.751 331,-299.751 327.5,-309.751 334.5,-309.751"/>
</g>
<!-- Node17&#45;&gt;Node8 -->
<g id="edge30" class="edge"><title>Node17&#45;&gt;Node8</title>
<path fill="none" stroke="midnightblue" d="M102.085,-280.367C100.288,-262.935 96.3552,-222.273 95,-188 93.5663,-151.742 94.0674,-109.325 94.545,-85.568"/>
<polygon fill="midnightblue" stroke="midnightblue" points="98.0453,-85.5886 94.769,-75.5131 91.047,-85.4326 98.0453,-85.5886"/>
</g>
</g>
</svg>
