<?xml version="1.0" encoding="UTF-8" standalone="no"?>
<!DOCTYPE svg PUBLIC "-//W3C//DTD SVG 1.1//EN"
 "http://www.w3.org/Graphics/SVG/1.1/DTD/svg11.dtd">
<!-- Generated by graphviz version 2.36.0 (20140111.2315)
 -->
<!-- Title: PHTimeStamp Pages: 1 -->
<svg width="88pt" height="140pt"
 viewBox="0.00 0.00 88.00 140.00" xmlns="http://www.w3.org/2000/svg" xmlns:xlink="http://www.w3.org/1999/xlink">
<g id="graph0" class="graph" transform="scale(1 1) rotate(0) translate(4 136)">
<title>PHTimeStamp</title>
<!-- Node1 -->
<g id="node1" class="node"><title>Node1</title>
<polygon fill="#bfbfbf" stroke="black" points="-0.5,-0.5 -0.5,-19.5 80.5,-19.5 80.5,-0.5 -0.5,-0.5"/>
<text text-anchor="middle" x="40" y="-7.5" font-family="FreeSans" font-size="10.00">PHTimeStamp</text>
</g>
<!-- Node2 -->
<g id="node2" class="node"><title>Node2</title>
<g id="a_node2"><a xlink:href="../../d9/d24/classPHObject.html" target="_top" xlink:title="PHObject">
<polygon fill="none" stroke="black" points="10.5,-56.5 10.5,-75.5 69.5,-75.5 69.5,-56.5 10.5,-56.5"/>
<text text-anchor="middle" x="40" y="-63.5" font-family="FreeSans" font-size="10.00">PHObject</text>
</a>
</g>
</g>
<!-- Node2&#45;&gt;Node1 -->
<g id="edge1" class="edge"><title>Node2&#45;&gt;Node1</title>
<path fill="none" stroke="midnightblue" d="M40,-45.8045C40,-36.9102 40,-26.7798 40,-19.7511"/>
<polygon fill="midnightblue" stroke="midnightblue" points="36.5001,-46.083 40,-56.083 43.5001,-46.083 36.5001,-46.083"/>
</g>
<!-- Node3 -->
<g id="node3" class="node"><title>Node3</title>
<polygon fill="none" stroke="#bfbfbf" points="14.5,-112.5 14.5,-131.5 65.5,-131.5 65.5,-112.5 14.5,-112.5"/>
<text text-anchor="middle" x="40" y="-119.5" font-family="FreeSans" font-size="10.00">TObject</text>
</g>
<!-- Node3&#45;&gt;Node2 -->
<g id="edge2" class="edge"><title>Node3&#45;&gt;Node2</title>
<path fill="none" stroke="midnightblue" d="M40,-101.805C40,-92.9102 40,-82.7798 40,-75.7511"/>
<polygon fill="midnightblue" stroke="midnightblue" points="36.5001,-102.083 40,-112.083 43.5001,-102.083 36.5001,-102.083"/>
</g>
</g>
</svg>
