<?xml version="1.0" encoding="UTF-8" standalone="no"?>
<!DOCTYPE svg PUBLIC "-//W3C//DTD SVG 1.1//EN"
 "http://www.w3.org/Graphics/SVG/1.1/DTD/svg11.dtd">
<!-- Generated by graphviz version 2.36.0 (20140111.2315)
 -->
<!-- Title: Fun4AllSyncManager Pages: 1 -->
<svg width="1254pt" height="289pt"
 viewBox="0.00 0.00 1254.00 289.00" xmlns="http://www.w3.org/2000/svg" xmlns:xlink="http://www.w3.org/1999/xlink">
<g id="graph0" class="graph" transform="scale(1 1) rotate(0) translate(4 285)">
<title>Fun4AllSyncManager</title>
<!-- Node1 -->
<g id="node1" class="node"><title>Node1</title>
<polygon fill="#bfbfbf" stroke="black" points="693.5,-38.5 693.5,-57.5 802.5,-57.5 802.5,-38.5 693.5,-38.5"/>
<text text-anchor="middle" x="748" y="-45.5" font-family="FreeSans" font-size="10.00">Fun4AllSyncManager</text>
</g>
<!-- Node6 -->
<g id="node6" class="node"><title>Node6</title>
<g id="a_node6"><a xlink:href="../../d4/da9/classFun4AllInputManager.html" target="_top" xlink:title="Fun4AllInputManager">
<polygon fill="none" stroke="black" points="930.5,-98.5 930.5,-117.5 1039.5,-117.5 1039.5,-98.5 930.5,-98.5"/>
<text text-anchor="middle" x="985" y="-105.5" font-family="FreeSans" font-size="10.00">Fun4AllInputManager</text>
</a>
</g>
</g>
<!-- Node1&#45;&gt;Node6 -->
<g id="edge10" class="edge"><title>Node1&#45;&gt;Node6</title>
<path fill="none" stroke="#9a32cd" stroke-dasharray="5,2" d="M812.985,-45.8407C843.663,-46.6171 880.5,-50.2473 912,-61 936.016,-69.1981 959.886,-87.2341 973.214,-98.4269"/>
<polygon fill="#9a32cd" stroke="#9a32cd" points="812.888,-42.3388 802.834,-45.6806 812.778,-49.338 812.888,-42.3388"/>
<text text-anchor="middle" x="874" y="-64" font-family="FreeSans" font-size="10.00"> mySyncManager</text>
</g>
<!-- Node2 -->
<g id="node2" class="node"><title>Node2</title>
<g id="a_node2"><a xlink:href="../../d5/dec/classFun4AllBase.html" target="_top" xlink:title="Fun4AllBase">
<polygon fill="none" stroke="black" points="276,-130.5 276,-149.5 348,-149.5 348,-130.5 276,-130.5"/>
<text text-anchor="middle" x="312" y="-137.5" font-family="FreeSans" font-size="10.00">Fun4AllBase</text>
</a>
</g>
</g>
<!-- Node2&#45;&gt;Node1 -->
<g id="edge1" class="edge"><title>Node2&#45;&gt;Node1</title>
<path fill="none" stroke="midnightblue" d="M358.071,-130.446C441.392,-112.783 618.602,-75.2181 701.926,-57.5549"/>
<polygon fill="midnightblue" stroke="midnightblue" points="357.205,-127.051 348.148,-132.549 358.657,-133.899 357.205,-127.051"/>
</g>
<!-- Node2&#45;&gt;Node6 -->
<g id="edge6" class="edge"><title>Node2&#45;&gt;Node6</title>
<path fill="none" stroke="midnightblue" d="M330.579,-123.616C340.249,-115.732 352.918,-107.114 366,-103 410.941,-88.865 424.889,-102.77 472,-103 639.117,-103.816 836.906,-106.13 930.19,-107.302"/>
<polygon fill="midnightblue" stroke="midnightblue" points="328.205,-121.042 322.918,-130.224 332.777,-126.342 328.205,-121.042"/>
</g>
<!-- Node8 -->
<g id="node8" class="node"><title>Node8</title>
<g id="a_node8"><a xlink:href="../../d0/d32/classSubsysReco.html" target="_top" xlink:title="SubsysReco">
<polygon fill="none" stroke="black" points="499.5,-152.5 499.5,-171.5 570.5,-171.5 570.5,-152.5 499.5,-152.5"/>
<text text-anchor="middle" x="535" y="-159.5" font-family="FreeSans" font-size="10.00">SubsysReco</text>
</a>
</g>
</g>
<!-- Node2&#45;&gt;Node8 -->
<g id="edge9" class="edge"><title>Node2&#45;&gt;Node8</title>
<path fill="none" stroke="midnightblue" d="M358.186,-144.498C399.927,-148.653 461.063,-154.739 499.146,-158.53"/>
<polygon fill="midnightblue" stroke="midnightblue" points="358.316,-140.994 348.018,-143.486 357.622,-147.959 358.316,-140.994"/>
</g>
<!-- Node3 -->
<g id="node3" class="node"><title>Node3</title>
<g id="a_node3"><a xlink:title="STL class. ">
<polygon fill="none" stroke="#bfbfbf" points="132.5,-190.5 132.5,-209.5 191.5,-209.5 191.5,-190.5 132.5,-190.5"/>
<text text-anchor="middle" x="162" y="-197.5" font-family="FreeSans" font-size="10.00">std::string</text>
</a>
</g>
</g>
<!-- Node3&#45;&gt;Node2 -->
<g id="edge2" class="edge"><title>Node3&#45;&gt;Node2</title>
<path fill="none" stroke="#9a32cd" stroke-dasharray="5,2" d="M182.357,-184.098C190.496,-178.044 200.313,-171.521 210,-167 230.888,-157.251 255.908,-150.53 275.82,-146.232"/>
<polygon fill="#9a32cd" stroke="#9a32cd" points="180.029,-181.475 174.27,-190.368 184.317,-187.007 180.029,-181.475"/>
<text text-anchor="middle" x="234" y="-170" font-family="FreeSans" font-size="10.00"> ThisName</text>
</g>
<!-- Node3&#45;&gt;Node6 -->
<g id="edge11" class="edge"><title>Node3&#45;&gt;Node6</title>
<path fill="none" stroke="#9a32cd" stroke-dasharray="5,2" d="M189.698,-214.268C218.705,-228.417 266.831,-248 311,-248 311,-248 311,-248 749,-248 851.103,-248 947.459,-149.253 975.704,-117.623"/>
<polygon fill="#9a32cd" stroke="#9a32cd" points="191.134,-211.072 180.627,-209.714 187.993,-217.328 191.134,-211.072"/>
<text text-anchor="middle" x="535" y="-273" font-family="FreeSans" font-size="10.00"> topNodeName</text>
<text text-anchor="middle" x="535" y="-262" font-family="FreeSans" font-size="10.00">InputNode</text>
<text text-anchor="middle" x="535" y="-251" font-family="FreeSans" font-size="10.00">filename</text>
</g>
<!-- Node9 -->
<g id="node9" class="node"><title>Node9</title>
<polygon fill="none" stroke="#bfbfbf" points="366,-190.5 366,-209.5 472,-209.5 472,-190.5 366,-190.5"/>
<text text-anchor="middle" x="419" y="-197.5" font-family="FreeSans" font-size="10.00">std::list&lt; std::string &gt;</text>
</g>
<!-- Node3&#45;&gt;Node9 -->
<g id="edge13" class="edge"><title>Node3&#45;&gt;Node9</title>
<path fill="none" stroke="#9a32cd" stroke-dasharray="5,2" d="M202.019,-200C245.897,-200 317.355,-200 365.96,-200"/>
<polygon fill="#9a32cd" stroke="#9a32cd" points="201.756,-196.5 191.756,-200 201.756,-203.5 201.756,-196.5"/>
<text text-anchor="middle" x="234" y="-203" font-family="FreeSans" font-size="10.00"> elements</text>
</g>
<!-- Node4 -->
<g id="node4" class="node"><title>Node4</title>
<g id="a_node4"><a xlink:title="STL class. ">
<polygon fill="none" stroke="#bfbfbf" points="0.5,-185 0.5,-215 93.5,-215 93.5,-185 0.5,-185"/>
<text text-anchor="start" x="8.5" y="-203" font-family="FreeSans" font-size="10.00">std::basic_string&lt;</text>
<text text-anchor="middle" x="47" y="-192" font-family="FreeSans" font-size="10.00"> char &gt;</text>
</a>
</g>
</g>
<!-- Node4&#45;&gt;Node3 -->
<g id="edge3" class="edge"><title>Node4&#45;&gt;Node3</title>
<path fill="none" stroke="midnightblue" d="M103.885,-200C113.778,-200 123.695,-200 132.425,-200"/>
<polygon fill="midnightblue" stroke="midnightblue" points="103.636,-196.5 93.6357,-200 103.636,-203.5 103.636,-196.5"/>
</g>
<!-- Node5 -->
<g id="node5" class="node"><title>Node5</title>
<polygon fill="none" stroke="#bfbfbf" points="1120.5,-40 1120.5,-70 1245.5,-70 1245.5,-40 1120.5,-40"/>
<text text-anchor="start" x="1128.5" y="-58" font-family="FreeSans" font-size="10.00">std::vector&lt; Fun4AllInput</text>
<text text-anchor="middle" x="1183" y="-47" font-family="FreeSans" font-size="10.00">Manager * &gt;</text>
</g>
<!-- Node5&#45;&gt;Node1 -->
<g id="edge4" class="edge"><title>Node5&#45;&gt;Node1</title>
<path fill="none" stroke="#9a32cd" stroke-dasharray="5,2" d="M1110.42,-50.4378C1040.45,-46.519 930.921,-41.8191 836,-44 825.268,-44.2466 813.796,-44.6641 802.821,-45.1387"/>
<polygon fill="#9a32cd" stroke="#9a32cd" points="1110.26,-53.9346 1120.45,-51.0094 1110.66,-46.9459 1110.26,-53.9346"/>
<text text-anchor="middle" x="985" y="-50" font-family="FreeSans" font-size="10.00"> InManager</text>
</g>
<!-- Node6&#45;&gt;Node5 -->
<g id="edge5" class="edge"><title>Node6&#45;&gt;Node5</title>
<path fill="none" stroke="#9a32cd" stroke-dasharray="5,2" d="M1031.52,-95.6921C1059.81,-88.0413 1096.38,-78.1517 1126.39,-70.0379"/>
<polygon fill="#9a32cd" stroke="#9a32cd" points="1030.23,-92.413 1021.49,-98.4021 1032.06,-99.1704 1030.23,-92.413"/>
<text text-anchor="middle" x="1080" y="-90" font-family="FreeSans" font-size="10.00"> elements</text>
</g>
<!-- Node7 -->
<g id="node7" class="node"><title>Node7</title>
<polygon fill="none" stroke="#bfbfbf" points="678.5,-132.5 678.5,-151.5 817.5,-151.5 817.5,-132.5 678.5,-132.5"/>
<text text-anchor="middle" x="748" y="-139.5" font-family="FreeSans" font-size="10.00">std::vector&lt; SubsysReco * &gt;</text>
</g>
<!-- Node7&#45;&gt;Node6 -->
<g id="edge7" class="edge"><title>Node7&#45;&gt;Node6</title>
<path fill="none" stroke="#9a32cd" stroke-dasharray="5,2" d="M824.768,-131.038C859.104,-126.07 898.905,-120.312 930.125,-115.795"/>
<polygon fill="#9a32cd" stroke="#9a32cd" points="824.169,-127.588 814.773,-132.484 825.171,-134.516 824.169,-127.588"/>
<text text-anchor="middle" x="874" y="-132" font-family="FreeSans" font-size="10.00"> Subsystems</text>
</g>
<!-- Node8&#45;&gt;Node7 -->
<g id="edge8" class="edge"><title>Node8&#45;&gt;Node7</title>
<path fill="none" stroke="#9a32cd" stroke-dasharray="5,2" d="M580.858,-157.748C609.198,-155.062 646.379,-151.538 678.38,-148.504"/>
<polygon fill="#9a32cd" stroke="#9a32cd" points="580.467,-154.269 570.842,-158.697 581.128,-161.238 580.467,-154.269"/>
<text text-anchor="middle" x="629" y="-159" font-family="FreeSans" font-size="10.00"> elements</text>
</g>
<!-- Node9&#45;&gt;Node6 -->
<g id="edge12" class="edge"><title>Node9&#45;&gt;Node6</title>
<path fill="none" stroke="#9a32cd" stroke-dasharray="5,2" d="M482.171,-201.053C577.268,-200.878 763.451,-193.439 912,-144 932.288,-137.248 954.044,-125.708 968.266,-117.514"/>
<polygon fill="#9a32cd" stroke="#9a32cd" points="482.147,-197.553 472.145,-201.045 482.142,-204.553 482.147,-197.553"/>
<text text-anchor="middle" x="629" y="-222" font-family="FreeSans" font-size="10.00"> filelist</text>
<text text-anchor="middle" x="629" y="-211" font-family="FreeSans" font-size="10.00">filelist_copy</text>
<text text-anchor="middle" x="629" y="-200" font-family="FreeSans" font-size="10.00">filelist_opened</text>
</g>
<!-- Node10 -->
<g id="node10" class="node"><title>Node10</title>
<g id="a_node10"><a xlink:href="../../de/dbb/classSyncObject.html" target="_top" xlink:title="SyncObject">
<polygon fill="none" stroke="black" points="501.5,-38.5 501.5,-57.5 568.5,-57.5 568.5,-38.5 501.5,-38.5"/>
<text text-anchor="middle" x="535" y="-45.5" font-family="FreeSans" font-size="10.00">SyncObject</text>
</a>
</g>
</g>
<!-- Node10&#45;&gt;Node1 -->
<g id="edge14" class="edge"><title>Node10&#45;&gt;Node1</title>
<path fill="none" stroke="#9a32cd" stroke-dasharray="5,2" d="M578.737,-48C611.732,-48 657.594,-48 693.106,-48"/>
<polygon fill="#9a32cd" stroke="#9a32cd" points="578.506,-44.5001 568.506,-48 578.506,-51.5001 578.506,-44.5001"/>
<text text-anchor="middle" x="629" y="-51" font-family="FreeSans" font-size="10.00"> MasterSync</text>
</g>
<!-- Node11 -->
<g id="node11" class="node"><title>Node11</title>
<g id="a_node11"><a xlink:href="../../d9/d24/classPHObject.html" target="_top" xlink:title="PHObject">
<polygon fill="none" stroke="black" points="282.5,-38.5 282.5,-57.5 341.5,-57.5 341.5,-38.5 282.5,-38.5"/>
<text text-anchor="middle" x="312" y="-45.5" font-family="FreeSans" font-size="10.00">PHObject</text>
</a>
</g>
</g>
<!-- Node11&#45;&gt;Node10 -->
<g id="edge15" class="edge"><title>Node11&#45;&gt;Node10</title>
<path fill="none" stroke="midnightblue" d="M352.108,-42.7034C394.491,-40.6621 461.375,-40.7711 501.142,-43.0304"/>
<polygon fill="midnightblue" stroke="midnightblue" points="351.683,-39.2215 341.892,-43.2687 352.07,-46.2108 351.683,-39.2215"/>
</g>
<!-- Node11&#45;&gt;Node10 -->
<g id="edge17" class="edge"><title>Node11&#45;&gt;Node10</title>
<path fill="none" stroke="midnightblue" d="M352.108,-53.2966C394.491,-55.3379 461.375,-55.2289 501.142,-52.9696"/>
<polygon fill="midnightblue" stroke="midnightblue" points="352.07,-49.7892 341.892,-52.7313 351.683,-56.7785 352.07,-49.7892"/>
</g>
<!-- Node12 -->
<g id="node12" class="node"><title>Node12</title>
<polygon fill="none" stroke="#bfbfbf" points="136.5,-38.5 136.5,-57.5 187.5,-57.5 187.5,-38.5 136.5,-38.5"/>
<text text-anchor="middle" x="162" y="-45.5" font-family="FreeSans" font-size="10.00">TObject</text>
</g>
<!-- Node12&#45;&gt;Node11 -->
<g id="edge16" class="edge"><title>Node12&#45;&gt;Node11</title>
<path fill="none" stroke="midnightblue" d="M197.855,-48C223.594,-48 258.205,-48 282.343,-48"/>
<polygon fill="midnightblue" stroke="midnightblue" points="197.772,-44.5001 187.772,-48 197.772,-51.5001 197.772,-44.5001"/>
</g>
<!-- Node13 -->
<g id="node13" class="node"><title>Node13</title>
<polygon fill="none" stroke="#bfbfbf" points="490.5,-0.5 490.5,-19.5 579.5,-19.5 579.5,-0.5 490.5,-0.5"/>
<text text-anchor="middle" x="535" y="-7.5" font-family="FreeSans" font-size="10.00">std::vector&lt; int &gt;</text>
</g>
<!-- Node13&#45;&gt;Node1 -->
<g id="edge18" class="edge"><title>Node13&#45;&gt;Node1</title>
<path fill="none" stroke="#9a32cd" stroke-dasharray="5,2" d="M589.783,-19.6861C621.758,-25.4446 662.155,-32.7198 693.992,-38.4535"/>
<polygon fill="#9a32cd" stroke="#9a32cd" points="590.181,-16.2016 579.719,-17.8736 588.941,-23.0907 590.181,-16.2016"/>
<text text-anchor="middle" x="629" y="-35" font-family="FreeSans" font-size="10.00"> iretInManager</text>
</g>
</g>
</svg>
