<?xml version="1.0" encoding="UTF-8" standalone="no"?>
<!DOCTYPE svg PUBLIC "-//W3C//DTD SVG 1.1//EN"
 "http://www.w3.org/Graphics/SVG/1.1/DTD/svg11.dtd">
<!-- Generated by graphviz version 2.36.0 (20140111.2315)
 -->
<!-- Title: fun4all/interfaces/SHit.h Pages: 1 -->
<svg width="263pt" height="152pt"
 viewBox="0.00 0.00 263.00 152.00" xmlns="http://www.w3.org/2000/svg" xmlns:xlink="http://www.w3.org/1999/xlink">
<g id="graph0" class="graph" transform="scale(1 1) rotate(0) translate(4 148)">
<title>fun4all/interfaces/SHit.h</title>
<!-- Node1 -->
<g id="node1" class="node"><title>Node1</title>
<polygon fill="#bfbfbf" stroke="black" points="101.5,-113 101.5,-143 192.5,-143 192.5,-113 101.5,-113"/>
<text text-anchor="start" x="109.5" y="-131" font-family="FreeSans" font-size="10.00">fun4all/interfaces</text>
<text text-anchor="middle" x="147" y="-120" font-family="FreeSans" font-size="10.00">/SHit.h</text>
</g>
<!-- Node2 -->
<g id="node2" class="node"><title>Node2</title>
<g id="a_node2"><a xlink:href="../../df/d32/PHObject_8h.html" target="_top" xlink:title="phool/PHObject.h">
<polygon fill="none" stroke="black" points="-0.5,-56.5 -0.5,-75.5 92.5,-75.5 92.5,-56.5 -0.5,-56.5"/>
<text text-anchor="middle" x="46" y="-63.5" font-family="FreeSans" font-size="10.00">phool/PHObject.h</text>
</a>
</g>
</g>
<!-- Node1&#45;&gt;Node2 -->
<g id="edge1" class="edge"><title>Node1&#45;&gt;Node2</title>
<path fill="none" stroke="midnightblue" d="M123.32,-112.933C107.041,-103.262 85.5235,-90.4793 69.3219,-80.8546"/>
<polygon fill="midnightblue" stroke="midnightblue" points="70.8617,-77.6983 60.4767,-75.6 67.2865,-83.7165 70.8617,-77.6983"/>
</g>
<!-- Node4 -->
<g id="node4" class="node"><title>Node4</title>
<polygon fill="none" stroke="#bfbfbf" points="94,-0.5 94,-19.5 148,-19.5 148,-0.5 94,-0.5"/>
<text text-anchor="middle" x="121" y="-7.5" font-family="FreeSans" font-size="10.00">iostream</text>
</g>
<!-- Node1&#45;&gt;Node4 -->
<g id="edge4" class="edge"><title>Node1&#45;&gt;Node4</title>
<path fill="none" stroke="midnightblue" d="M143.812,-112.776C139.127,-91.8757 130.379,-52.8436 125.183,-29.6638"/>
<polygon fill="midnightblue" stroke="midnightblue" points="128.554,-28.6994 122.952,-19.707 121.723,-30.2304 128.554,-28.6994"/>
</g>
<!-- Node5 -->
<g id="node5" class="node"><title>Node5</title>
<polygon fill="none" stroke="#bfbfbf" points="149.5,-56.5 149.5,-75.5 196.5,-75.5 196.5,-56.5 149.5,-56.5"/>
<text text-anchor="middle" x="173" y="-63.5" font-family="FreeSans" font-size="10.00">limits.h</text>
</g>
<!-- Node1&#45;&gt;Node5 -->
<g id="edge5" class="edge"><title>Node1&#45;&gt;Node5</title>
<path fill="none" stroke="midnightblue" d="M153.162,-112.781C156.745,-104.512 161.297,-94.006 165.137,-85.1448"/>
<polygon fill="midnightblue" stroke="midnightblue" points="168.452,-86.2977 169.217,-75.7305 162.029,-83.5144 168.452,-86.2977"/>
</g>
<!-- Node6 -->
<g id="node6" class="node"><title>Node6</title>
<polygon fill="none" stroke="#bfbfbf" points="214.5,-56.5 214.5,-75.5 255.5,-75.5 255.5,-56.5 214.5,-56.5"/>
<text text-anchor="middle" x="235" y="-63.5" font-family="FreeSans" font-size="10.00">string</text>
</g>
<!-- Node1&#45;&gt;Node6 -->
<g id="edge6" class="edge"><title>Node1&#45;&gt;Node6</title>
<path fill="none" stroke="midnightblue" d="M167.855,-112.781C181.78,-103.286 200.03,-90.8434 213.988,-81.3267"/>
<polygon fill="midnightblue" stroke="midnightblue" points="216.161,-84.0809 222.452,-75.5557 212.218,-78.2973 216.161,-84.0809"/>
</g>
<!-- Node3 -->
<g id="node3" class="node"><title>Node3</title>
<polygon fill="none" stroke="#bfbfbf" points="16.5,-0.5 16.5,-19.5 75.5,-19.5 75.5,-0.5 16.5,-0.5"/>
<text text-anchor="middle" x="46" y="-7.5" font-family="FreeSans" font-size="10.00">TObject.h</text>
</g>
<!-- Node2&#45;&gt;Node3 -->
<g id="edge2" class="edge"><title>Node2&#45;&gt;Node3</title>
<path fill="none" stroke="midnightblue" d="M46,-56.083C46,-49.0059 46,-38.8611 46,-29.9865"/>
<polygon fill="midnightblue" stroke="midnightblue" points="49.5001,-29.751 46,-19.7511 42.5001,-29.7511 49.5001,-29.751"/>
</g>
<!-- Node2&#45;&gt;Node4 -->
<g id="edge3" class="edge"><title>Node2&#45;&gt;Node4</title>
<path fill="none" stroke="midnightblue" d="M58.05,-56.324C69.4631,-48.1066 86.831,-35.6017 100.435,-25.8069"/>
<polygon fill="midnightblue" stroke="midnightblue" points="102.66,-28.5174 108.731,-19.8339 98.5703,-22.8366 102.66,-28.5174"/>
</g>
</g>
</svg>
