<?xml version="1.0" encoding="UTF-8" standalone="no"?>
<!DOCTYPE svg PUBLIC "-//W3C//DTD SVG 1.1//EN"
 "http://www.w3.org/Graphics/SVG/1.1/DTD/svg11.dtd">
<!-- Generated by graphviz version 2.36.0 (20140111.2315)
 -->
<!-- Title: SEvent Pages: 1 -->
<svg width="72pt" height="196pt"
 viewBox="0.00 0.00 72.00 196.00" xmlns="http://www.w3.org/2000/svg" xmlns:xlink="http://www.w3.org/1999/xlink">
<g id="graph0" class="graph" transform="scale(1 1) rotate(0) translate(4 192)">
<title>SEvent</title>
<!-- Node1 -->
<g id="node1" class="node"><title>Node1</title>
<polygon fill="#bfbfbf" stroke="black" points="8,-56.5 8,-75.5 56,-75.5 56,-56.5 8,-56.5"/>
<text text-anchor="middle" x="32" y="-63.5" font-family="FreeSans" font-size="10.00">SEvent</text>
</g>
<!-- Node4 -->
<g id="node4" class="node"><title>Node4</title>
<g id="a_node4"><a xlink:href="../../d3/da3/classSEvent__v1.html" target="_top" xlink:title="SEvent_v1">
<polygon fill="none" stroke="black" points="0,-0.5 0,-19.5 64,-19.5 64,-0.5 0,-0.5"/>
<text text-anchor="middle" x="32" y="-7.5" font-family="FreeSans" font-size="10.00">SEvent_v1</text>
</a>
</g>
</g>
<!-- Node1&#45;&gt;Node4 -->
<g id="edge3" class="edge"><title>Node1&#45;&gt;Node4</title>
<path fill="none" stroke="midnightblue" d="M32,-45.8045C32,-36.9102 32,-26.7798 32,-19.7511"/>
<polygon fill="midnightblue" stroke="midnightblue" points="28.5001,-46.083 32,-56.083 35.5001,-46.083 28.5001,-46.083"/>
</g>
<!-- Node2 -->
<g id="node2" class="node"><title>Node2</title>
<g id="a_node2"><a xlink:href="../../d9/d24/classPHObject.html" target="_top" xlink:title="PHObject">
<polygon fill="none" stroke="black" points="2.5,-112.5 2.5,-131.5 61.5,-131.5 61.5,-112.5 2.5,-112.5"/>
<text text-anchor="middle" x="32" y="-119.5" font-family="FreeSans" font-size="10.00">PHObject</text>
</a>
</g>
</g>
<!-- Node2&#45;&gt;Node1 -->
<g id="edge1" class="edge"><title>Node2&#45;&gt;Node1</title>
<path fill="none" stroke="midnightblue" d="M32,-101.805C32,-92.9102 32,-82.7798 32,-75.7511"/>
<polygon fill="midnightblue" stroke="midnightblue" points="28.5001,-102.083 32,-112.083 35.5001,-102.083 28.5001,-102.083"/>
</g>
<!-- Node3 -->
<g id="node3" class="node"><title>Node3</title>
<polygon fill="none" stroke="#bfbfbf" points="6.5,-168.5 6.5,-187.5 57.5,-187.5 57.5,-168.5 6.5,-168.5"/>
<text text-anchor="middle" x="32" y="-175.5" font-family="FreeSans" font-size="10.00">TObject</text>
</g>
<!-- Node3&#45;&gt;Node2 -->
<g id="edge2" class="edge"><title>Node3&#45;&gt;Node2</title>
<path fill="none" stroke="midnightblue" d="M32,-157.805C32,-148.91 32,-138.78 32,-131.751"/>
<polygon fill="midnightblue" stroke="midnightblue" points="28.5001,-158.083 32,-168.083 35.5001,-158.083 28.5001,-158.083"/>
</g>
</g>
</svg>
