<?xml version="1.0" encoding="UTF-8" standalone="no"?>
<!DOCTYPE svg PUBLIC "-//W3C//DTD SVG 1.1//EN"
 "http://www.w3.org/Graphics/SVG/1.1/DTD/svg11.dtd">
<!-- Generated by graphviz version 2.36.0 (20140111.2315)
 -->
<!-- Title: fun4all/fun4all/Fun4AllDummyInputManager.h Pages: 1 -->
<svg width="372pt" height="208pt"
 viewBox="0.00 0.00 372.00 208.00" xmlns="http://www.w3.org/2000/svg" xmlns:xlink="http://www.w3.org/1999/xlink">
<g id="graph0" class="graph" transform="scale(1 1) rotate(0) translate(4 204)">
<title>fun4all/fun4all/Fun4AllDummyInputManager.h</title>
<!-- Node1 -->
<g id="node1" class="node"><title>Node1</title>
<polygon fill="#bfbfbf" stroke="black" points="159,-169 159,-199 305,-199 305,-169 159,-169"/>
<text text-anchor="start" x="167" y="-187" font-family="FreeSans" font-size="10.00">fun4all/fun4all/Fun4AllDummy</text>
<text text-anchor="middle" x="232" y="-176" font-family="FreeSans" font-size="10.00">InputManager.h</text>
</g>
<!-- Node2 -->
<g id="node2" class="node"><title>Node2</title>
<g id="a_node2"><a xlink:href="../../d1/de7/Fun4AllInputManager_8h.html" target="_top" xlink:title="Fun4AllInputManager.h">
<polygon fill="none" stroke="black" points="115,-112.5 115,-131.5 231,-131.5 231,-112.5 115,-112.5"/>
<text text-anchor="middle" x="173" y="-119.5" font-family="FreeSans" font-size="10.00">Fun4AllInputManager.h</text>
</a>
</g>
</g>
<!-- Node1&#45;&gt;Node2 -->
<g id="edge1" class="edge"><title>Node1&#45;&gt;Node2</title>
<path fill="none" stroke="midnightblue" d="M218.018,-168.781C209.179,-159.792 197.743,-148.162 188.609,-138.873"/>
<polygon fill="midnightblue" stroke="midnightblue" points="191.092,-136.407 181.585,-131.731 186.101,-141.315 191.092,-136.407"/>
</g>
<!-- Node6 -->
<g id="node6" class="node"><title>Node6</title>
<g id="a_node6"><a xlink:href="../../da/dc1/Fun4AllReturnCodes_8h.html" target="_top" xlink:title="Fun4AllReturnCodes.h">
<polygon fill="none" stroke="black" points="251.5,-56.5 251.5,-75.5 364.5,-75.5 364.5,-56.5 251.5,-56.5"/>
<text text-anchor="middle" x="308" y="-63.5" font-family="FreeSans" font-size="10.00">Fun4AllReturnCodes.h</text>
</a>
</g>
</g>
<!-- Node1&#45;&gt;Node6 -->
<g id="edge9" class="edge"><title>Node1&#45;&gt;Node6</title>
<path fill="none" stroke="midnightblue" d="M241.319,-168.776C255.324,-147.401 281.754,-107.06 296.791,-84.1083"/>
<polygon fill="midnightblue" stroke="midnightblue" points="299.743,-85.9897 302.295,-75.707 293.887,-82.1535 299.743,-85.9897"/>
</g>
<!-- Node3 -->
<g id="node3" class="node"><title>Node3</title>
<g id="a_node3"><a xlink:href="../../d2/de7/Fun4AllBase_8h.html" target="_top" xlink:title="Fun4AllBase.h">
<polygon fill="none" stroke="black" points="44,-56.5 44,-75.5 124,-75.5 124,-56.5 44,-56.5"/>
<text text-anchor="middle" x="84" y="-63.5" font-family="FreeSans" font-size="10.00">Fun4AllBase.h</text>
</a>
</g>
</g>
<!-- Node2&#45;&gt;Node3 -->
<g id="edge2" class="edge"><title>Node2&#45;&gt;Node3</title>
<path fill="none" stroke="midnightblue" d="M158.701,-112.324C144.817,-103.9 123.508,-90.9709 107.196,-81.0741"/>
<polygon fill="midnightblue" stroke="midnightblue" points="108.629,-77.8495 98.2639,-75.6545 104.998,-83.8341 108.629,-77.8495"/>
</g>
<!-- Node4 -->
<g id="node4" class="node"><title>Node4</title>
<polygon fill="none" stroke="#bfbfbf" points="-0.5,-0.5 -0.5,-19.5 40.5,-19.5 40.5,-0.5 -0.5,-0.5"/>
<text text-anchor="middle" x="20" y="-7.5" font-family="FreeSans" font-size="10.00">string</text>
</g>
<!-- Node2&#45;&gt;Node4 -->
<g id="edge7" class="edge"><title>Node2&#45;&gt;Node4</title>
<path fill="none" stroke="midnightblue" d="M114.826,-115.28C87.0153,-109.589 55.417,-98.3069 35,-76 23.6473,-63.5964 20.3471,-44.355 19.6171,-30.0212"/>
<polygon fill="midnightblue" stroke="midnightblue" points="23.1138,-29.7538 19.4779,-19.8024 16.1145,-29.8491 23.1138,-29.7538"/>
</g>
<!-- Node2&#45;&gt;Node6 -->
<g id="edge5" class="edge"><title>Node2&#45;&gt;Node6</title>
<path fill="none" stroke="midnightblue" d="M194.391,-112.444C216.707,-103.517 251.903,-89.4387 277.208,-79.3168"/>
<polygon fill="midnightblue" stroke="midnightblue" points="278.724,-82.4801 286.709,-75.5164 276.124,-75.9807 278.724,-82.4801"/>
</g>
<!-- Node7 -->
<g id="node7" class="node"><title>Node7</title>
<polygon fill="none" stroke="#bfbfbf" points="142.5,-56.5 142.5,-75.5 171.5,-75.5 171.5,-56.5 142.5,-56.5"/>
<text text-anchor="middle" x="157" y="-63.5" font-family="FreeSans" font-size="10.00">list</text>
</g>
<!-- Node2&#45;&gt;Node7 -->
<g id="edge6" class="edge"><title>Node2&#45;&gt;Node7</title>
<path fill="none" stroke="midnightblue" d="M170.358,-112.083C168.214,-104.849 165.121,-94.4087 162.451,-85.3968"/>
<polygon fill="midnightblue" stroke="midnightblue" points="165.79,-84.3447 159.593,-75.7511 159.078,-86.3334 165.79,-84.3447"/>
</g>
<!-- Node8 -->
<g id="node8" class="node"><title>Node8</title>
<polygon fill="none" stroke="#bfbfbf" points="189,-56.5 189,-75.5 233,-75.5 233,-56.5 189,-56.5"/>
<text text-anchor="middle" x="211" y="-63.5" font-family="FreeSans" font-size="10.00">vector</text>
</g>
<!-- Node2&#45;&gt;Node8 -->
<g id="edge8" class="edge"><title>Node2&#45;&gt;Node8</title>
<path fill="none" stroke="midnightblue" d="M179.275,-112.083C184.642,-104.455 192.518,-93.2645 199.079,-83.9408"/>
<polygon fill="midnightblue" stroke="midnightblue" points="201.949,-85.9434 204.842,-75.7511 196.225,-81.9149 201.949,-85.9434"/>
</g>
<!-- Node3&#45;&gt;Node4 -->
<g id="edge3" class="edge"><title>Node3&#45;&gt;Node4</title>
<path fill="none" stroke="midnightblue" d="M73.7173,-56.324C64.1637,-48.2631 49.7203,-36.0765 38.2157,-26.3695"/>
<polygon fill="midnightblue" stroke="midnightblue" points="40.3698,-23.6076 30.4698,-19.8339 35.8557,-28.9577 40.3698,-23.6076"/>
</g>
<!-- Node5 -->
<g id="node5" class="node"><title>Node5</title>
<polygon fill="none" stroke="#bfbfbf" points="61.5,-0.5 61.5,-19.5 106.5,-19.5 106.5,-0.5 61.5,-0.5"/>
<text text-anchor="middle" x="84" y="-7.5" font-family="FreeSans" font-size="10.00">climits</text>
</g>
<!-- Node3&#45;&gt;Node5 -->
<g id="edge4" class="edge"><title>Node3&#45;&gt;Node5</title>
<path fill="none" stroke="midnightblue" d="M84,-56.083C84,-49.0059 84,-38.8611 84,-29.9865"/>
<polygon fill="midnightblue" stroke="midnightblue" points="87.5001,-29.751 84,-19.7511 80.5001,-29.7511 87.5001,-29.751"/>
</g>
</g>
</svg>
