<?xml version="1.0" encoding="UTF-8" standalone="no"?>
<!DOCTYPE svg PUBLIC "-//W3C//DTD SVG 1.1//EN"
 "http://www.w3.org/Graphics/SVG/1.1/DTD/svg11.dtd">
<!-- Generated by graphviz version 2.36.0 (20140111.2315)
 -->
<!-- Title: PHTimeStamp::getBinaryTime Pages: 1 -->
<svg width="326pt" height="294pt"
 viewBox="0.00 0.00 326.00 294.00" xmlns="http://www.w3.org/2000/svg" xmlns:xlink="http://www.w3.org/1999/xlink">
<g id="graph0" class="graph" transform="scale(1 1) rotate(0) translate(4 290)">
<title>PHTimeStamp::getBinaryTime</title>
<!-- Node1 -->
<g id="node1" class="node"><title>Node1</title>
<polygon fill="#bfbfbf" stroke="black" points="0,-133.5 0,-152.5 148,-152.5 148,-133.5 0,-133.5"/>
<text text-anchor="middle" x="74" y="-140.5" font-family="FreeSans" font-size="10.00">PHTimeStamp::getBinaryTime</text>
</g>
<!-- Node2 -->
<g id="node2" class="node"><title>Node2</title>
<g id="a_node2"><a xlink:href="../../da/dc2/classPHTimeStamp.html#ab0c76ccf8b17e48aade0285166dadea9" target="_top" xlink:title="PHTimeStamp::isInRange">
<polygon fill="none" stroke="black" points="186.5,-266.5 186.5,-285.5 315.5,-285.5 315.5,-266.5 186.5,-266.5"/>
<text text-anchor="middle" x="251" y="-273.5" font-family="FreeSans" font-size="10.00">PHTimeStamp::isInRange</text>
</a>
</g>
</g>
<!-- Node1&#45;&gt;Node2 -->
<g id="edge1" class="edge"><title>Node1&#45;&gt;Node2</title>
<path fill="none" stroke="midnightblue" d="M87.2643,-160.844C105.474,-185.995 142.058,-231.627 184,-257 190.325,-260.827 197.458,-263.914 204.636,-266.396"/>
<polygon fill="midnightblue" stroke="midnightblue" points="90.047,-158.717 81.4107,-152.58 84.3348,-162.763 90.047,-158.717"/>
</g>
<!-- Node3 -->
<g id="node3" class="node"><title>Node3</title>
<g id="a_node3"><a xlink:href="../../da/dc2/classPHTimeStamp.html#ab435851125a5a1c0dbd06e894db8a127" target="_top" xlink:title="PHTimeStamp::operator!=">
<polygon fill="none" stroke="black" points="186,-228.5 186,-247.5 316,-247.5 316,-228.5 186,-228.5"/>
<text text-anchor="middle" x="251" y="-235.5" font-family="FreeSans" font-size="10.00">PHTimeStamp::operator!=</text>
</a>
</g>
</g>
<!-- Node1&#45;&gt;Node3 -->
<g id="edge2" class="edge"><title>Node1&#45;&gt;Node3</title>
<path fill="none" stroke="midnightblue" d="M93.745,-158.976C114.565,-175.999 149.77,-202.693 184,-219 191.858,-222.744 200.601,-225.897 209.086,-228.493"/>
<polygon fill="midnightblue" stroke="midnightblue" points="95.9283,-156.24 85.9991,-152.544 91.4561,-161.625 95.9283,-156.24"/>
</g>
<!-- Node4 -->
<g id="node4" class="node"><title>Node4</title>
<g id="a_node4"><a xlink:href="../../da/dc2/classPHTimeStamp.html#ab27748494c0534d6a2f8ede07947bfa8" target="_top" xlink:title="PHTimeStamp::operator\&lt;">
<polygon fill="none" stroke="black" points="187.5,-190.5 187.5,-209.5 314.5,-209.5 314.5,-190.5 187.5,-190.5"/>
<text text-anchor="middle" x="251" y="-197.5" font-family="FreeSans" font-size="10.00">PHTimeStamp::operator&lt;</text>
</a>
</g>
</g>
<!-- Node1&#45;&gt;Node4 -->
<g id="edge3" class="edge"><title>Node1&#45;&gt;Node4</title>
<path fill="none" stroke="midnightblue" d="M110.854,-156.059C132.036,-163.633 159.434,-173.188 184,-181 194.227,-184.252 205.42,-187.566 215.637,-190.496"/>
<polygon fill="midnightblue" stroke="midnightblue" points="111.889,-152.711 101.294,-152.624 109.522,-159.299 111.889,-152.711"/>
</g>
<!-- Node5 -->
<g id="node5" class="node"><title>Node5</title>
<g id="a_node5"><a xlink:href="../../da/dc2/classPHTimeStamp.html#a5358b9066aa087923362fcbb74fe6b39" target="_top" xlink:title="PHTimeStamp::operator\&lt;=">
<polygon fill="none" stroke="black" points="184.5,-152.5 184.5,-171.5 317.5,-171.5 317.5,-152.5 184.5,-152.5"/>
<text text-anchor="middle" x="251" y="-159.5" font-family="FreeSans" font-size="10.00">PHTimeStamp::operator&lt;=</text>
</a>
</g>
</g>
<!-- Node1&#45;&gt;Node5 -->
<g id="edge4" class="edge"><title>Node1&#45;&gt;Node5</title>
<path fill="none" stroke="midnightblue" d="M158.384,-152.053C167.096,-152.999 175.863,-153.951 184.339,-154.871"/>
<polygon fill="midnightblue" stroke="midnightblue" points="158.521,-148.548 148.202,-150.948 157.766,-155.507 158.521,-148.548"/>
</g>
<!-- Node6 -->
<g id="node6" class="node"><title>Node6</title>
<g id="a_node6"><a xlink:href="../../da/dc2/classPHTimeStamp.html#a12e552179f9c234f56994265525e5869" target="_top" xlink:title="PHTimeStamp::operator=">
<polygon fill="none" stroke="black" points="187.5,-114.5 187.5,-133.5 314.5,-133.5 314.5,-114.5 187.5,-114.5"/>
<text text-anchor="middle" x="251" y="-121.5" font-family="FreeSans" font-size="10.00">PHTimeStamp::operator=</text>
</a>
</g>
</g>
<!-- Node1&#45;&gt;Node6 -->
<g id="edge5" class="edge"><title>Node1&#45;&gt;Node6</title>
<path fill="none" stroke="midnightblue" d="M158.337,-133.952C168.107,-132.891 177.946,-131.823 187.365,-130.8"/>
<polygon fill="midnightblue" stroke="midnightblue" points="157.766,-130.493 148.202,-135.052 158.521,-137.452 157.766,-130.493"/>
</g>
<!-- Node7 -->
<g id="node7" class="node"><title>Node7</title>
<g id="a_node7"><a xlink:href="../../da/dc2/classPHTimeStamp.html#ad2b5f298b0c7da03908e78a88cdf796a" target="_top" xlink:title="PHTimeStamp::operator==">
<polygon fill="none" stroke="black" points="184.5,-76.5 184.5,-95.5 317.5,-95.5 317.5,-76.5 184.5,-76.5"/>
<text text-anchor="middle" x="251" y="-83.5" font-family="FreeSans" font-size="10.00">PHTimeStamp::operator==</text>
</a>
</g>
</g>
<!-- Node1&#45;&gt;Node7 -->
<g id="edge6" class="edge"><title>Node1&#45;&gt;Node7</title>
<path fill="none" stroke="midnightblue" d="M110.854,-129.941C132.036,-122.367 159.434,-112.812 184,-105 194.227,-101.748 205.42,-98.4343 215.637,-95.5041"/>
<polygon fill="midnightblue" stroke="midnightblue" points="109.522,-126.701 101.294,-133.376 111.889,-133.289 109.522,-126.701"/>
</g>
<!-- Node8 -->
<g id="node8" class="node"><title>Node8</title>
<g id="a_node8"><a xlink:href="../../da/dc2/classPHTimeStamp.html#ad470fe3745b014535488aa3637b1fcbe" target="_top" xlink:title="PHTimeStamp::operator\&gt;">
<polygon fill="none" stroke="black" points="187.5,-38.5 187.5,-57.5 314.5,-57.5 314.5,-38.5 187.5,-38.5"/>
<text text-anchor="middle" x="251" y="-45.5" font-family="FreeSans" font-size="10.00">PHTimeStamp::operator&gt;</text>
</a>
</g>
</g>
<!-- Node1&#45;&gt;Node8 -->
<g id="edge7" class="edge"><title>Node1&#45;&gt;Node8</title>
<path fill="none" stroke="midnightblue" d="M93.745,-127.024C114.565,-110.001 149.77,-83.3071 184,-67 191.858,-63.2564 200.601,-60.1029 209.086,-57.5073"/>
<polygon fill="midnightblue" stroke="midnightblue" points="91.4561,-124.375 85.9991,-133.456 95.9283,-129.76 91.4561,-124.375"/>
</g>
<!-- Node9 -->
<g id="node9" class="node"><title>Node9</title>
<g id="a_node9"><a xlink:href="../../da/dc2/classPHTimeStamp.html#a18da9bcb1a28e064d5a75b3108c1483e" target="_top" xlink:title="PHTimeStamp::operator\&gt;=">
<polygon fill="none" stroke="black" points="184.5,-0.5 184.5,-19.5 317.5,-19.5 317.5,-0.5 184.5,-0.5"/>
<text text-anchor="middle" x="251" y="-7.5" font-family="FreeSans" font-size="10.00">PHTimeStamp::operator&gt;=</text>
</a>
</g>
</g>
<!-- Node1&#45;&gt;Node9 -->
<g id="edge8" class="edge"><title>Node1&#45;&gt;Node9</title>
<path fill="none" stroke="midnightblue" d="M87.2643,-125.156C105.474,-100.005 142.058,-54.373 184,-29 190.325,-25.1735 197.458,-22.086 204.636,-19.604"/>
<polygon fill="midnightblue" stroke="midnightblue" points="84.3348,-123.237 81.4107,-133.42 90.047,-127.283 84.3348,-123.237"/>
</g>
</g>
</svg>
