<?xml version="1.0" encoding="UTF-8" standalone="no"?>
<!DOCTYPE svg PUBLIC "-//W3C//DTD SVG 1.1//EN"
 "http://www.w3.org/Graphics/SVG/1.1/DTD/svg11.dtd">
<!-- Generated by graphviz version 2.36.0 (20140111.2315)
 -->
<!-- Title: PHTimeStamp::print Pages: 1 -->
<svg width="586pt" height="116pt"
 viewBox="0.00 0.00 586.00 116.00" xmlns="http://www.w3.org/2000/svg" xmlns:xlink="http://www.w3.org/1999/xlink">
<g id="graph0" class="graph" transform="scale(1 1) rotate(0) translate(4 112)">
<title>PHTimeStamp::print</title>
<!-- Node1 -->
<g id="node1" class="node"><title>Node1</title>
<polygon fill="#bfbfbf" stroke="black" points="0,-44.5 0,-63.5 104,-63.5 104,-44.5 0,-44.5"/>
<text text-anchor="middle" x="52" y="-51.5" font-family="FreeSans" font-size="10.00">PHTimeStamp::print</text>
</g>
<!-- Node2 -->
<g id="node2" class="node"><title>Node2</title>
<g id="a_node2"><a xlink:href="../../da/d29/classFun4AllServer.html#afcfc5583204cac58b4e66a2406187a18" target="_top" xlink:title="Fun4AllServer::BeginRun">
<polygon fill="none" stroke="black" points="150.5,-88.5 150.5,-107.5 275.5,-107.5 275.5,-88.5 150.5,-88.5"/>
<text text-anchor="middle" x="213" y="-95.5" font-family="FreeSans" font-size="10.00">Fun4AllServer::BeginRun</text>
</a>
</g>
</g>
<!-- Node1&#45;&gt;Node2 -->
<g id="edge1" class="edge"><title>Node1&#45;&gt;Node2</title>
<path fill="none" stroke="midnightblue" d="M97.2593,-66.2478C122.644,-73.2724 154.037,-81.96 177.567,-88.4713"/>
<polygon fill="midnightblue" stroke="midnightblue" points="98.0719,-62.8413 87.5006,-63.5473 96.2049,-69.5877 98.0719,-62.8413"/>
</g>
<!-- Node6 -->
<g id="node6" class="node"><title>Node6</title>
<g id="a_node6"><a xlink:href="../../da/d29/classFun4AllServer.html#affd2d0e2577fbc521e02f627946bcdae" target="_top" xlink:title="Fun4AllServer::BeginRunTime\lStamp">
<polygon fill="none" stroke="black" points="140,-39 140,-69 286,-69 286,-39 140,-39"/>
<text text-anchor="start" x="148" y="-57" font-family="FreeSans" font-size="10.00">Fun4AllServer::BeginRunTime</text>
<text text-anchor="middle" x="213" y="-46" font-family="FreeSans" font-size="10.00">Stamp</text>
</a>
</g>
</g>
<!-- Node1&#45;&gt;Node6 -->
<g id="edge5" class="edge"><title>Node1&#45;&gt;Node6</title>
<path fill="none" stroke="midnightblue" d="M114.22,-54C122.585,-54 131.237,-54 139.775,-54"/>
<polygon fill="midnightblue" stroke="midnightblue" points="114.184,-50.5001 104.184,-54 114.184,-57.5001 114.184,-50.5001"/>
</g>
<!-- Node7 -->
<g id="node7" class="node"><title>Node7</title>
<g id="a_node7"><a xlink:href="../../da/d29/classFun4AllServer.html#af1002b9170308da078c0e14a5ac4b514" target="_top" xlink:title="Fun4AllServer::setRun">
<polygon fill="none" stroke="black" points="156.5,-0.5 156.5,-19.5 269.5,-19.5 269.5,-0.5 156.5,-0.5"/>
<text text-anchor="middle" x="213" y="-7.5" font-family="FreeSans" font-size="10.00">Fun4AllServer::setRun</text>
</a>
</g>
</g>
<!-- Node1&#45;&gt;Node7 -->
<g id="edge6" class="edge"><title>Node1&#45;&gt;Node7</title>
<path fill="none" stroke="midnightblue" d="M97.2593,-41.7522C122.644,-34.7276 154.037,-26.04 177.567,-19.5287"/>
<polygon fill="midnightblue" stroke="midnightblue" points="96.2049,-38.4123 87.5006,-44.4527 98.0719,-45.1587 96.2049,-38.4123"/>
</g>
<!-- Node3 -->
<g id="node3" class="node"><title>Node3</title>
<g id="a_node3"><a xlink:href="../../da/d29/classFun4AllServer.html#a11bbc8b2f53bc06e0b05ee202dd6372a" target="_top" xlink:title="run n events (0 means up to end of file) ">
<polygon fill="none" stroke="black" points="322,-44.5 322,-63.5 418,-63.5 418,-44.5 322,-44.5"/>
<text text-anchor="middle" x="370" y="-51.5" font-family="FreeSans" font-size="10.00">Fun4AllServer::run</text>
</a>
</g>
</g>
<!-- Node2&#45;&gt;Node3 -->
<g id="edge2" class="edge"><title>Node2&#45;&gt;Node3</title>
<path fill="none" stroke="midnightblue" d="M258.484,-85.7224C267.591,-83.1865 277.109,-80.5203 286,-78 302.596,-73.2957 321.031,-67.9747 336.303,-63.5405"/>
<polygon fill="midnightblue" stroke="midnightblue" points="257.509,-82.3604 248.811,-88.4098 259.383,-89.1049 257.509,-82.3604"/>
</g>
<!-- Node4 -->
<g id="node4" class="node"><title>Node4</title>
<g id="a_node4"><a xlink:href="../../d0/d46/Fun4__SimpleReadMySql_8C.html#a70381893748e3445abc30632beb256ce" target="_top" xlink:title="Fun4_SimpleReadMySql">
<polygon fill="none" stroke="black" points="454.5,-63.5 454.5,-82.5 577.5,-82.5 577.5,-63.5 454.5,-63.5"/>
<text text-anchor="middle" x="516" y="-70.5" font-family="FreeSans" font-size="10.00">Fun4_SimpleReadMySql</text>
</a>
</g>
</g>
<!-- Node3&#45;&gt;Node4 -->
<g id="edge3" class="edge"><title>Node3&#45;&gt;Node4</title>
<path fill="none" stroke="midnightblue" d="M428.109,-61.5352C436.736,-62.6735 445.66,-63.851 454.358,-64.9986"/>
<polygon fill="midnightblue" stroke="midnightblue" points="428.523,-58.0596 418.151,-60.2213 427.607,-64.9994 428.523,-58.0596"/>
</g>
<!-- Node5 -->
<g id="node5" class="node"><title>Node5</title>
<g id="a_node5"><a xlink:href="../../d9/d8c/Fun4ReadMySql_8C.html#a729b39fa627147c63772f28c9be36b62" target="_top" xlink:title="Fun4ReadMySql">
<polygon fill="none" stroke="black" points="472,-25.5 472,-44.5 560,-44.5 560,-25.5 472,-25.5"/>
<text text-anchor="middle" x="516" y="-32.5" font-family="FreeSans" font-size="10.00">Fun4ReadMySql</text>
</a>
</g>
</g>
<!-- Node3&#45;&gt;Node5 -->
<g id="edge4" class="edge"><title>Node3&#45;&gt;Node5</title>
<path fill="none" stroke="midnightblue" d="M428.457,-46.4189C442.854,-44.5193 458.061,-42.5128 471.643,-40.7208"/>
<polygon fill="midnightblue" stroke="midnightblue" points="427.607,-43.0006 418.151,-47.7787 428.523,-49.9404 427.607,-43.0006"/>
</g>
<!-- Node7&#45;&gt;Node3 -->
<g id="edge7" class="edge"><title>Node7&#45;&gt;Node3</title>
<path fill="none" stroke="midnightblue" d="M258.484,-22.2776C267.591,-24.8135 277.109,-27.4797 286,-30 302.596,-34.7043 321.031,-40.0253 336.303,-44.4595"/>
<polygon fill="midnightblue" stroke="midnightblue" points="259.383,-18.8951 248.811,-19.5902 257.509,-25.6396 259.383,-18.8951"/>
</g>
</g>
</svg>
