<?xml version="1.0" encoding="UTF-8" standalone="no"?>
<!DOCTYPE svg PUBLIC "-//W3C//DTD SVG 1.1//EN"
 "http://www.w3.org/Graphics/SVG/1.1/DTD/svg11.dtd">
<!-- Generated by graphviz version 2.36.0 (20140111.2315)
 -->
<!-- Title: PHTimeStamp::getTics Pages: 1 -->
<svg width="226pt" height="66pt"
 viewBox="0.00 0.00 226.00 66.00" xmlns="http://www.w3.org/2000/svg" xmlns:xlink="http://www.w3.org/1999/xlink">
<g id="graph0" class="graph" transform="scale(1 1) rotate(0) translate(4 62)">
<title>PHTimeStamp::getTics</title>
<!-- Node1 -->
<g id="node1" class="node"><title>Node1</title>
<polygon fill="#bfbfbf" stroke="black" points="0,-19.5 0,-38.5 118,-38.5 118,-19.5 0,-19.5"/>
<text text-anchor="middle" x="59" y="-26.5" font-family="FreeSans" font-size="10.00">PHTimeStamp::getTics</text>
</g>
<!-- Node2 -->
<g id="node2" class="node"><title>Node2</title>
<g id="a_node2"><a xlink:href="../../da/d32/PHTimeStamp_8h.html#ae3aa970c12a3e098b96149e85cf98a2b" target="_top" xlink:title="operator&#45;">
<polygon fill="none" stroke="black" points="158.5,-38.5 158.5,-57.5 213.5,-57.5 213.5,-38.5 158.5,-38.5"/>
<text text-anchor="middle" x="186" y="-45.5" font-family="FreeSans" font-size="10.00">operator&#45;</text>
</a>
</g>
</g>
<!-- Node1&#45;&gt;Node2 -->
<g id="edge1" class="edge"><title>Node1&#45;&gt;Node2</title>
<path fill="none" stroke="midnightblue" d="M128.311,-39.3833C138.923,-40.9963 149.309,-42.575 158.232,-43.9313"/>
<polygon fill="midnightblue" stroke="midnightblue" points="128.521,-35.8751 118.109,-37.8325 127.469,-42.7956 128.521,-35.8751"/>
</g>
<!-- Node3 -->
<g id="node3" class="node"><title>Node3</title>
<g id="a_node3"><a xlink:href="../../da/d32/PHTimeStamp_8h.html#a561126ed0d3ae2d1559eea1711a4e067" target="_top" xlink:title="operator\&lt;\&lt;">
<polygon fill="none" stroke="black" points="154,-0.5 154,-19.5 218,-19.5 218,-0.5 154,-0.5"/>
<text text-anchor="middle" x="186" y="-7.5" font-family="FreeSans" font-size="10.00">operator&lt;&lt;</text>
</a>
</g>
</g>
<!-- Node1&#45;&gt;Node3 -->
<g id="edge2" class="edge"><title>Node1&#45;&gt;Node3</title>
<path fill="none" stroke="midnightblue" d="M128.267,-18.6235C137.239,-17.2597 146.051,-15.9202 153.956,-14.7188"/>
<polygon fill="midnightblue" stroke="midnightblue" points="127.469,-15.2044 118.109,-20.1675 128.521,-22.1249 127.469,-15.2044"/>
</g>
</g>
</svg>
