<?xml version="1.0" encoding="UTF-8" standalone="no"?>
<!DOCTYPE svg PUBLIC "-//W3C//DTD SVG 1.1//EN"
 "http://www.w3.org/Graphics/SVG/1.1/DTD/svg11.dtd">
<!-- Generated by graphviz version 2.36.0 (20140111.2315)
 -->
<!-- Title: ReadMySql Pages: 1 -->
<svg width="374pt" height="346pt"
 viewBox="0.00 0.00 374.00 346.00" xmlns="http://www.w3.org/2000/svg" xmlns:xlink="http://www.w3.org/1999/xlink">
<g id="graph0" class="graph" transform="scale(1 1) rotate(0) translate(4 342)">
<title>ReadMySql</title>
<!-- Node1 -->
<g id="node1" class="node"><title>Node1</title>
<polygon fill="#bfbfbf" stroke="black" points="132,-0.5 132,-19.5 198,-19.5 198,-0.5 132,-0.5"/>
<text text-anchor="middle" x="165" y="-7.5" font-family="FreeSans" font-size="10.00">ReadMySql</text>
</g>
<!-- Node2 -->
<g id="node2" class="node"><title>Node2</title>
<g id="a_node2"><a xlink:href="../../d0/d32/classSubsysReco.html" target="_top" xlink:title="SubsysReco">
<polygon fill="none" stroke="black" points="48.5,-68.5 48.5,-87.5 119.5,-87.5 119.5,-68.5 48.5,-68.5"/>
<text text-anchor="middle" x="84" y="-75.5" font-family="FreeSans" font-size="10.00">SubsysReco</text>
</a>
</g>
</g>
<!-- Node2&#45;&gt;Node1 -->
<g id="edge1" class="edge"><title>Node2&#45;&gt;Node1</title>
<path fill="none" stroke="midnightblue" d="M102.735,-61.7343C118.78,-48.6606 141.309,-30.3039 154.408,-19.6305"/>
<polygon fill="midnightblue" stroke="midnightblue" points="100.131,-59.3416 94.5893,-68.3717 104.553,-64.7682 100.131,-59.3416"/>
</g>
<!-- Node3 -->
<g id="node3" class="node"><title>Node3</title>
<g id="a_node3"><a xlink:href="../../d5/dec/classFun4AllBase.html" target="_top" xlink:title="Fun4AllBase">
<polygon fill="none" stroke="black" points="56,-180.5 56,-199.5 128,-199.5 128,-180.5 56,-180.5"/>
<text text-anchor="middle" x="92" y="-187.5" font-family="FreeSans" font-size="10.00">Fun4AllBase</text>
</a>
</g>
</g>
<!-- Node3&#45;&gt;Node2 -->
<g id="edge2" class="edge"><title>Node3&#45;&gt;Node2</title>
<path fill="none" stroke="midnightblue" d="M91.1341,-170.108C90.2975,-153.272 88.8811,-127.97 87,-106 86.4689,-99.7971 85.6879,-92.8125 85.0559,-87.5014"/>
<polygon fill="midnightblue" stroke="midnightblue" points="87.646,-170.445 91.6191,-180.266 94.6381,-170.111 87.646,-170.445"/>
</g>
<!-- Node4 -->
<g id="node4" class="node"><title>Node4</title>
<g id="a_node4"><a xlink:title="STL class. ">
<polygon fill="none" stroke="#bfbfbf" points="16.5,-248.5 16.5,-267.5 75.5,-267.5 75.5,-248.5 16.5,-248.5"/>
<text text-anchor="middle" x="46" y="-255.5" font-family="FreeSans" font-size="10.00">std::string</text>
</a>
</g>
</g>
<!-- Node4&#45;&gt;Node1 -->
<g id="edge10" class="edge"><title>Node4&#45;&gt;Node1</title>
<path fill="none" stroke="#9a32cd" stroke-dasharray="5,2" d="M37.1549,-239.293C24.1456,-210.876 2.75522,-153.462 16,-106 30.1835,-55.1747 92.5689,-29.7614 131.982,-18.5561"/>
<polygon fill="#9a32cd" stroke="#9a32cd" points="34.0244,-240.86 41.489,-248.379 40.3424,-237.846 34.0244,-240.86"/>
<text text-anchor="middle" x="49.5" y="-153.5" font-family="FreeSans" font-size="10.00"> _server_name</text>
<text text-anchor="middle" x="49.5" y="-142.5" font-family="FreeSans" font-size="10.00">_password</text>
<text text-anchor="middle" x="49.5" y="-131.5" font-family="FreeSans" font-size="10.00">_table_name</text>
<text text-anchor="middle" x="49.5" y="-120.5" font-family="FreeSans" font-size="10.00">_input_shcema</text>
<text text-anchor="middle" x="49.5" y="-109.5" font-family="FreeSans" font-size="10.00">_user_name</text>
</g>
<!-- Node4&#45;&gt;Node3 -->
<g id="edge3" class="edge"><title>Node4&#45;&gt;Node3</title>
<path fill="none" stroke="#9a32cd" stroke-dasharray="5,2" d="M57.8919,-239.938C66.8311,-227.112 78.7164,-210.059 85.838,-199.841"/>
<polygon fill="#9a32cd" stroke="#9a32cd" points="54.8603,-238.166 52.0137,-248.372 60.6031,-242.169 54.8603,-238.166"/>
<text text-anchor="middle" x="98" y="-221.5" font-family="FreeSans" font-size="10.00"> ThisName</text>
</g>
<!-- Node5 -->
<g id="node5" class="node"><title>Node5</title>
<g id="a_node5"><a xlink:title="STL class. ">
<polygon fill="none" stroke="#bfbfbf" points="-0.5,-307 -0.5,-337 92.5,-337 92.5,-307 -0.5,-307"/>
<text text-anchor="start" x="7.5" y="-325" font-family="FreeSans" font-size="10.00">std::basic_string&lt;</text>
<text text-anchor="middle" x="46" y="-314" font-family="FreeSans" font-size="10.00"> char &gt;</text>
</a>
</g>
</g>
<!-- Node5&#45;&gt;Node4 -->
<g id="edge4" class="edge"><title>Node5&#45;&gt;Node4</title>
<path fill="none" stroke="midnightblue" d="M46,-296.871C46,-286.663 46,-275.408 46,-267.842"/>
<polygon fill="midnightblue" stroke="midnightblue" points="42.5001,-296.931 46,-306.931 49.5001,-296.931 42.5001,-296.931"/>
</g>
<!-- Node6 -->
<g id="node6" class="node"><title>Node6</title>
<g id="a_node6"><a xlink:href="../../d9/d05/classSHitMap.html" target="_top" xlink:title="SHitMap">
<polygon fill="none" stroke="black" points="137.5,-68.5 137.5,-87.5 192.5,-87.5 192.5,-68.5 137.5,-68.5"/>
<text text-anchor="middle" x="165" y="-75.5" font-family="FreeSans" font-size="10.00">SHitMap</text>
</a>
</g>
</g>
<!-- Node6&#45;&gt;Node1 -->
<g id="edge5" class="edge"><title>Node6&#45;&gt;Node1</title>
<path fill="none" stroke="#9a32cd" stroke-dasharray="5,2" d="M165,-58.0413C165,-45.4724 165,-29.5631 165,-19.8411"/>
<polygon fill="#9a32cd" stroke="#9a32cd" points="161.5,-58.3716 165,-68.3717 168.5,-58.3717 161.5,-58.3716"/>
<text text-anchor="middle" x="186.5" y="-41.5" font-family="FreeSans" font-size="10.00"> _hit_map</text>
</g>
<!-- Node7 -->
<g id="node7" class="node"><title>Node7</title>
<g id="a_node7"><a xlink:href="../../d9/d24/classPHObject.html" target="_top" xlink:title="PHObject">
<polygon fill="none" stroke="black" points="164.5,-180.5 164.5,-199.5 223.5,-199.5 223.5,-180.5 164.5,-180.5"/>
<text text-anchor="middle" x="194" y="-187.5" font-family="FreeSans" font-size="10.00">PHObject</text>
</a>
</g>
</g>
<!-- Node7&#45;&gt;Node6 -->
<g id="edge6" class="edge"><title>Node7&#45;&gt;Node6</title>
<path fill="none" stroke="midnightblue" d="M189.169,-170.674C182.828,-146.625 171.957,-105.388 167.265,-87.5914"/>
<polygon fill="midnightblue" stroke="midnightblue" points="185.791,-171.591 191.724,-180.368 192.559,-169.807 185.791,-171.591"/>
</g>
<!-- Node9 -->
<g id="node9" class="node"><title>Node9</title>
<g id="a_node9"><a xlink:href="../../d8/dfc/classSEvent.html" target="_top" xlink:title="SEvent">
<polygon fill="none" stroke="black" points="211,-68.5 211,-87.5 259,-87.5 259,-68.5 211,-68.5"/>
<text text-anchor="middle" x="235" y="-75.5" font-family="FreeSans" font-size="10.00">SEvent</text>
</a>
</g>
</g>
<!-- Node7&#45;&gt;Node9 -->
<g id="edge9" class="edge"><title>Node7&#45;&gt;Node9</title>
<path fill="none" stroke="midnightblue" d="M200.71,-170.998C209.656,-146.997 225.135,-105.468 231.798,-87.5914"/>
<polygon fill="midnightblue" stroke="midnightblue" points="197.43,-169.776 197.217,-180.368 203.989,-172.221 197.43,-169.776"/>
</g>
<!-- Node8 -->
<g id="node8" class="node"><title>Node8</title>
<polygon fill="none" stroke="#bfbfbf" points="168.5,-248.5 168.5,-267.5 219.5,-267.5 219.5,-248.5 168.5,-248.5"/>
<text text-anchor="middle" x="194" y="-255.5" font-family="FreeSans" font-size="10.00">TObject</text>
</g>
<!-- Node8&#45;&gt;Node7 -->
<g id="edge7" class="edge"><title>Node8&#45;&gt;Node7</title>
<path fill="none" stroke="midnightblue" d="M194,-238.041C194,-225.472 194,-209.563 194,-199.841"/>
<polygon fill="midnightblue" stroke="midnightblue" points="190.5,-238.372 194,-248.372 197.5,-238.372 190.5,-238.372"/>
</g>
<!-- Node9&#45;&gt;Node1 -->
<g id="edge8" class="edge"><title>Node9&#45;&gt;Node1</title>
<path fill="none" stroke="#9a32cd" stroke-dasharray="5,2" d="M225.567,-59.4727C221.155,-52.2832 215.447,-44.2094 209,-38 201.383,-30.6638 191.439,-24.3542 182.932,-19.6834"/>
<polygon fill="#9a32cd" stroke="#9a32cd" points="222.717,-61.5387 230.73,-68.4704 228.789,-58.0549 222.717,-61.5387"/>
<text text-anchor="middle" x="253.5" y="-41.5" font-family="FreeSans" font-size="10.00"> _event_header</text>
</g>
<!-- Node10 -->
<g id="node10" class="node"><title>Node10</title>
<polygon fill="none" stroke="#bfbfbf" points="277.5,-68.5 277.5,-87.5 366.5,-87.5 366.5,-68.5 277.5,-68.5"/>
<text text-anchor="middle" x="322" y="-75.5" font-family="FreeSans" font-size="10.00">std::vector&lt; int &gt;</text>
</g>
<!-- Node10&#45;&gt;Node1 -->
<g id="edge11" class="edge"><title>Node10&#45;&gt;Node1</title>
<path fill="none" stroke="#9a32cd" stroke-dasharray="5,2" d="M312.232,-59.8841C306.922,-52.0672 299.664,-43.3736 291,-38 262.767,-20.49 224.891,-14.2091 198.059,-12.0217"/>
<polygon fill="#9a32cd" stroke="#9a32cd" points="309.281,-61.7668 317.537,-68.4063 315.223,-58.0673 309.281,-61.7668"/>
<text text-anchor="middle" x="330" y="-41.5" font-family="FreeSans" font-size="10.00"> _event_ids</text>
</g>
</g>
</svg>
