<?xml version="1.0" encoding="UTF-8" standalone="no"?>
<!DOCTYPE svg PUBLIC "-//W3C//DTD SVG 1.1//EN"
 "http://www.w3.org/Graphics/SVG/1.1/DTD/svg11.dtd">
<!-- Generated by graphviz version 2.36.0 (20140111.2315)
 -->
<!-- Title: fun4all/phool/PHTimer.h Pages: 1 -->
<svg width="1706pt" height="152pt"
 viewBox="0.00 0.00 1706.00 152.00" xmlns="http://www.w3.org/2000/svg" xmlns:xlink="http://www.w3.org/1999/xlink">
<g id="graph0" class="graph" transform="scale(1 1) rotate(0) translate(4 148)">
<title>fun4all/phool/PHTimer.h</title>
<!-- Node1 -->
<g id="node1" class="node"><title>Node1</title>
<polygon fill="#bfbfbf" stroke="black" points="1036.5,-124.5 1036.5,-143.5 1157.5,-143.5 1157.5,-124.5 1036.5,-124.5"/>
<text text-anchor="middle" x="1097" y="-131.5" font-family="FreeSans" font-size="10.00">fun4all/phool/PHTimer.h</text>
</g>
<!-- Node2 -->
<g id="node2" class="node"><title>Node2</title>
<g id="a_node2"><a xlink:href="../../dc/da2/Fun4AllServer_8h.html" target="_top" xlink:title="fun4all/fun4all/Fun4AllServer.h">
<polygon fill="none" stroke="black" points="742.5,-68.5 742.5,-87.5 891.5,-87.5 891.5,-68.5 742.5,-68.5"/>
<text text-anchor="middle" x="817" y="-75.5" font-family="FreeSans" font-size="10.00">fun4all/fun4all/Fun4AllServer.h</text>
</a>
</g>
</g>
<!-- Node1&#45;&gt;Node2 -->
<g id="edge1" class="edge"><title>Node1&#45;&gt;Node2</title>
<path fill="none" stroke="midnightblue" d="M1042.75,-122.537C989.83,-112.332 910.329,-96.9992 861.159,-87.5164"/>
<polygon fill="midnightblue" stroke="midnightblue" points="1042.15,-125.986 1052.63,-124.444 1043.48,-119.113 1042.15,-125.986"/>
</g>
<!-- Node13 -->
<g id="node13" class="node"><title>Node13</title>
<g id="a_node13"><a xlink:href="../../d2/d65/PHTimer_8cc.html" target="_top" xlink:title="fun4all/phool/PHTimer.cc">
<polygon fill="none" stroke="black" points="1034,-68.5 1034,-87.5 1160,-87.5 1160,-68.5 1034,-68.5"/>
<text text-anchor="middle" x="1097" y="-75.5" font-family="FreeSans" font-size="10.00">fun4all/phool/PHTimer.cc</text>
</a>
</g>
</g>
<!-- Node1&#45;&gt;Node13 -->
<g id="edge12" class="edge"><title>Node1&#45;&gt;Node13</title>
<path fill="none" stroke="midnightblue" d="M1097,-113.805C1097,-104.91 1097,-94.7798 1097,-87.7511"/>
<polygon fill="midnightblue" stroke="midnightblue" points="1093.5,-114.083 1097,-124.083 1100.5,-114.083 1093.5,-114.083"/>
</g>
<!-- Node14 -->
<g id="node14" class="node"><title>Node14</title>
<g id="a_node14"><a xlink:href="../../d9/d36/PHTimeServer_8h.html" target="_top" xlink:title="PHTimer server for accessing external information. ">
<polygon fill="none" stroke="black" points="1425,-68.5 1425,-87.5 1571,-87.5 1571,-68.5 1425,-68.5"/>
<text text-anchor="middle" x="1498" y="-75.5" font-family="FreeSans" font-size="10.00">fun4all/phool/PHTimeServer.h</text>
</a>
</g>
</g>
<!-- Node1&#45;&gt;Node14 -->
<g id="edge13" class="edge"><title>Node1&#45;&gt;Node14</title>
<path fill="none" stroke="midnightblue" d="M1167.83,-123.462C1243.49,-113.274 1362.3,-97.2744 1434.87,-87.5018"/>
<polygon fill="midnightblue" stroke="midnightblue" points="1167.35,-119.995 1157.9,-124.799 1168.28,-126.933 1167.35,-119.995"/>
</g>
<!-- Node3 -->
<g id="node3" class="node"><title>Node3</title>
<g id="a_node3"><a xlink:href="../../d3/d53/Fun4AllDstInputManager_8cc.html" target="_top" xlink:title="fun4all/fun4all/Fun4AllDst\lInputManager.cc">
<polygon fill="none" stroke="black" points="0,-1 0,-31 128,-31 128,-1 0,-1"/>
<text text-anchor="start" x="8" y="-19" font-family="FreeSans" font-size="10.00">fun4all/fun4all/Fun4AllDst</text>
<text text-anchor="middle" x="64" y="-8" font-family="FreeSans" font-size="10.00">InputManager.cc</text>
</a>
</g>
</g>
<!-- Node2&#45;&gt;Node3 -->
<g id="edge2" class="edge"><title>Node2&#45;&gt;Node3</title>
<path fill="none" stroke="midnightblue" d="M732.254,-75.1066C603.236,-71.3872 350.043,-60.8 137,-32 134.051,-31.6013 131.043,-31.1532 128.009,-30.6678"/>
<polygon fill="midnightblue" stroke="midnightblue" points="732.364,-78.611 742.459,-75.3939 732.562,-71.6138 732.364,-78.611"/>
</g>
<!-- Node4 -->
<g id="node4" class="node"><title>Node4</title>
<g id="a_node4"><a xlink:href="../../d9/d74/Fun4AllDstOutputManager_8cc.html" target="_top" xlink:title="fun4all/fun4all/Fun4AllDst\lOutputManager.cc">
<polygon fill="none" stroke="black" points="146,-1 146,-31 274,-31 274,-1 146,-1"/>
<text text-anchor="start" x="154" y="-19" font-family="FreeSans" font-size="10.00">fun4all/fun4all/Fun4AllDst</text>
<text text-anchor="middle" x="210" y="-8" font-family="FreeSans" font-size="10.00">OutputManager.cc</text>
</a>
</g>
</g>
<!-- Node2&#45;&gt;Node4 -->
<g id="edge3" class="edge"><title>Node2&#45;&gt;Node4</title>
<path fill="none" stroke="midnightblue" d="M732.108,-72.9589C626.467,-67.2156 440.733,-54.7696 283,-32 280.055,-31.5748 277.049,-31.105 274.019,-30.6019"/>
<polygon fill="midnightblue" stroke="midnightblue" points="732.217,-76.4697 742.391,-73.5105 732.592,-69.4798 732.217,-76.4697"/>
</g>
<!-- Node5 -->
<g id="node5" class="node"><title>Node5</title>
<g id="a_node5"><a xlink:href="../../d6/dbe/Fun4AllEventOutputManager_8cc.html" target="_top" xlink:title="fun4all/fun4all/Fun4AllEvent\lOutputManager.cc">
<polygon fill="none" stroke="black" points="292.5,-1 292.5,-31 429.5,-31 429.5,-1 292.5,-1"/>
<text text-anchor="start" x="300.5" y="-19" font-family="FreeSans" font-size="10.00">fun4all/fun4all/Fun4AllEvent</text>
<text text-anchor="middle" x="361" y="-8" font-family="FreeSans" font-size="10.00">OutputManager.cc</text>
</a>
</g>
</g>
<!-- Node2&#45;&gt;Node5 -->
<g id="edge4" class="edge"><title>Node2&#45;&gt;Node5</title>
<path fill="none" stroke="midnightblue" d="M732.096,-68.6462C655.331,-60.6767 539.309,-47.5954 439,-32 436.002,-31.5339 432.944,-31.0372 429.857,-30.5185"/>
<polygon fill="midnightblue" stroke="midnightblue" points="731.887,-72.1431 742.194,-69.6885 732.606,-65.1801 731.887,-72.1431"/>
</g>
<!-- Node6 -->
<g id="node6" class="node"><title>Node6</title>
<g id="a_node6"><a xlink:href="../../d2/d3e/Fun4AllFileOutStream_8cc.html" target="_top" xlink:title="fun4all/fun4all/Fun4AllFile\lOutStream.cc">
<polygon fill="none" stroke="black" points="448,-1 448,-31 576,-31 576,-1 448,-1"/>
<text text-anchor="start" x="456" y="-19" font-family="FreeSans" font-size="10.00">fun4all/fun4all/Fun4AllFile</text>
<text text-anchor="middle" x="512" y="-8" font-family="FreeSans" font-size="10.00">OutStream.cc</text>
</a>
</g>
</g>
<!-- Node2&#45;&gt;Node6 -->
<g id="edge5" class="edge"><title>Node2&#45;&gt;Node6</title>
<path fill="none" stroke="midnightblue" d="M762.085,-66.5258C715.054,-57.513 645.536,-44.09 585,-32 582.082,-31.4172 579.099,-30.818 576.086,-30.2101"/>
<polygon fill="midnightblue" stroke="midnightblue" points="761.582,-69.9931 772.062,-68.4363 762.899,-63.118 761.582,-69.9931"/>
</g>
<!-- Node7 -->
<g id="node7" class="node"><title>Node7</title>
<g id="a_node7"><a xlink:href="../../d0/d56/Fun4AllInputManager_8cc.html" target="_top" xlink:title="fun4all/fun4all/Fun4AllInput\lManager.cc">
<polygon fill="none" stroke="black" points="594,-1 594,-31 728,-31 728,-1 594,-1"/>
<text text-anchor="start" x="602" y="-19" font-family="FreeSans" font-size="10.00">fun4all/fun4all/Fun4AllInput</text>
<text text-anchor="middle" x="661" y="-8" font-family="FreeSans" font-size="10.00">Manager.cc</text>
</a>
</g>
</g>
<!-- Node2&#45;&gt;Node7 -->
<g id="edge6" class="edge"><title>Node2&#45;&gt;Node7</title>
<path fill="none" stroke="midnightblue" d="M785.104,-64.7324C759.669,-54.9495 724.03,-41.2424 697.466,-31.0253"/>
<polygon fill="midnightblue" stroke="midnightblue" points="784.059,-68.0803 794.649,-68.4035 786.572,-61.5469 784.059,-68.0803"/>
</g>
<!-- Node8 -->
<g id="node8" class="node"><title>Node8</title>
<g id="a_node8"><a xlink:href="../../db/dfa/Fun4AllOutputManager_8cc.html" target="_top" xlink:title="fun4all/fun4all/Fun4AllOutput\lManager.cc">
<polygon fill="none" stroke="black" points="746,-1 746,-31 888,-31 888,-1 746,-1"/>
<text text-anchor="start" x="754" y="-19" font-family="FreeSans" font-size="10.00">fun4all/fun4all/Fun4AllOutput</text>
<text text-anchor="middle" x="817" y="-8" font-family="FreeSans" font-size="10.00">Manager.cc</text>
</a>
</g>
</g>
<!-- Node2&#45;&gt;Node8 -->
<g id="edge7" class="edge"><title>Node2&#45;&gt;Node8</title>
<path fill="none" stroke="midnightblue" d="M817,-58.3707C817,-49.5849 817,-39.2721 817,-31.1408"/>
<polygon fill="midnightblue" stroke="midnightblue" points="813.5,-58.4034 817,-68.4035 820.5,-58.4035 813.5,-58.4034"/>
</g>
<!-- Node9 -->
<g id="node9" class="node"><title>Node9</title>
<g id="a_node9"><a xlink:href="../../da/d7b/Fun4AllPrdfInputManager_8cc.html" target="_top" xlink:title="fun4all/fun4all/Fun4AllPrdf\lInputManager.cc">
<polygon fill="none" stroke="black" points="906.5,-1 906.5,-31 1037.5,-31 1037.5,-1 906.5,-1"/>
<text text-anchor="start" x="914.5" y="-19" font-family="FreeSans" font-size="10.00">fun4all/fun4all/Fun4AllPrdf</text>
<text text-anchor="middle" x="972" y="-8" font-family="FreeSans" font-size="10.00">InputManager.cc</text>
</a>
</g>
</g>
<!-- Node2&#45;&gt;Node9 -->
<g id="edge8" class="edge"><title>Node2&#45;&gt;Node9</title>
<path fill="none" stroke="midnightblue" d="M848.691,-64.7324C873.964,-54.9495 909.374,-41.2424 935.768,-31.0253"/>
<polygon fill="midnightblue" stroke="midnightblue" points="847.27,-61.5295 839.208,-68.4035 849.797,-68.0574 847.27,-61.5295"/>
</g>
<!-- Node10 -->
<g id="node10" class="node"><title>Node10</title>
<g id="a_node10"><a xlink:href="../../db/d70/Fun4AllRolloverFileOutStream_8cc.html" target="_top" xlink:title="fun4all/fun4all/Fun4AllRollover\lFileOutStream.cc">
<polygon fill="none" stroke="black" points="1056,-1 1056,-31 1204,-31 1204,-1 1056,-1"/>
<text text-anchor="start" x="1064" y="-19" font-family="FreeSans" font-size="10.00">fun4all/fun4all/Fun4AllRollover</text>
<text text-anchor="middle" x="1130" y="-8" font-family="FreeSans" font-size="10.00">FileOutStream.cc</text>
</a>
</g>
</g>
<!-- Node2&#45;&gt;Node10 -->
<g id="edge9" class="edge"><title>Node2&#45;&gt;Node10</title>
<path fill="none" stroke="midnightblue" d="M871.412,-66.5696C922.706,-56.7368 999.959,-41.928 1056.67,-31.0565"/>
<polygon fill="midnightblue" stroke="midnightblue" points="870.675,-63.147 861.513,-68.4672 871.993,-70.0219 870.675,-63.147"/>
</g>
<!-- Node11 -->
<g id="node11" class="node"><title>Node11</title>
<g id="a_node11"><a xlink:href="../../d8/d7a/Fun4AllServer_8cc.html" target="_top" xlink:title="fun4all/fun4all/Fun4AllServer.cc">
<polygon fill="none" stroke="black" points="1222,-6.5 1222,-25.5 1376,-25.5 1376,-6.5 1222,-6.5"/>
<text text-anchor="middle" x="1299" y="-13.5" font-family="FreeSans" font-size="10.00">fun4all/fun4all/Fun4AllServer.cc</text>
</a>
</g>
</g>
<!-- Node2&#45;&gt;Node11 -->
<g id="edge10" class="edge"><title>Node2&#45;&gt;Node11</title>
<path fill="none" stroke="midnightblue" d="M901.675,-68.8515C981.983,-60.7749 1105.94,-47.4049 1213,-32 1226.05,-30.122 1240.16,-27.788 1253.11,-25.5249"/>
<polygon fill="midnightblue" stroke="midnightblue" points="901.217,-65.3798 891.615,-69.8585 901.914,-72.345 901.217,-65.3798"/>
</g>
<!-- Node12 -->
<g id="node12" class="node"><title>Node12</title>
<g id="a_node12"><a xlink:href="../../df/d03/Fun4AllSyncManager_8cc.html" target="_top" xlink:title="fun4all/fun4all/Fun4AllSync\lManager.cc">
<polygon fill="none" stroke="black" points="1394,-1 1394,-31 1528,-31 1528,-1 1394,-1"/>
<text text-anchor="start" x="1402" y="-19" font-family="FreeSans" font-size="10.00">fun4all/fun4all/Fun4AllSync</text>
<text text-anchor="middle" x="1461" y="-8" font-family="FreeSans" font-size="10.00">Manager.cc</text>
</a>
</g>
</g>
<!-- Node2&#45;&gt;Node12 -->
<g id="edge11" class="edge"><title>Node2&#45;&gt;Node12</title>
<path fill="none" stroke="midnightblue" d="M901.888,-73.3464C1013.21,-67.8532 1214.43,-55.5093 1385,-32 1387.93,-31.596 1390.92,-31.1507 1393.93,-30.6741"/>
<polygon fill="midnightblue" stroke="midnightblue" points="901.546,-69.8588 891.728,-73.841 901.886,-76.8506 901.546,-69.8588"/>
</g>
<!-- Node15 -->
<g id="node15" class="node"><title>Node15</title>
<g id="a_node15"><a xlink:href="../../dd/de2/PHTimeServer_8cc.html" target="_top" xlink:title="fun4all/phool/PHTimeServer.cc">
<polygon fill="none" stroke="black" points="1546,-6.5 1546,-25.5 1698,-25.5 1698,-6.5 1546,-6.5"/>
<text text-anchor="middle" x="1622" y="-13.5" font-family="FreeSans" font-size="10.00">fun4all/phool/PHTimeServer.cc</text>
</a>
</g>
</g>
<!-- Node14&#45;&gt;Node15 -->
<g id="edge14" class="edge"><title>Node14&#45;&gt;Node15</title>
<path fill="none" stroke="midnightblue" d="M1525.05,-63.9116C1549.1,-52.2756 1583.56,-35.5983 1604.27,-25.5806"/>
<polygon fill="midnightblue" stroke="midnightblue" points="1523.24,-60.8972 1515.77,-68.4035 1526.29,-67.1984 1523.24,-60.8972"/>
</g>
</g>
</svg>
