<?xml version="1.0" encoding="UTF-8" standalone="no"?>
<!DOCTYPE svg PUBLIC "-//W3C//DTD SVG 1.1//EN"
 "http://www.w3.org/Graphics/SVG/1.1/DTD/svg11.dtd">
<!-- Generated by graphviz version 2.36.0 (20140111.2315)
 -->
<!-- Title: fun4all/fun4all/Fun4AllEventOutStream.h Pages: 1 -->
<svg width="617pt" height="152pt"
 viewBox="0.00 0.00 617.00 152.00" xmlns="http://www.w3.org/2000/svg" xmlns:xlink="http://www.w3.org/1999/xlink">
<g id="graph0" class="graph" transform="scale(1 1) rotate(0) translate(4 148)">
<title>fun4all/fun4all/Fun4AllEventOutStream.h</title>
<!-- Node1 -->
<g id="node1" class="node"><title>Node1</title>
<polygon fill="#bfbfbf" stroke="black" points="243.5,-113 243.5,-143 380.5,-143 380.5,-113 243.5,-113"/>
<text text-anchor="start" x="251.5" y="-131" font-family="FreeSans" font-size="10.00">fun4all/fun4all/Fun4AllEvent</text>
<text text-anchor="middle" x="312" y="-120" font-family="FreeSans" font-size="10.00">OutStream.h</text>
</g>
<!-- Node2 -->
<g id="node2" class="node"><title>Node2</title>
<g id="a_node2"><a xlink:href="../../d2/de7/Fun4AllBase_8h.html" target="_top" xlink:title="Fun4AllBase.h">
<polygon fill="none" stroke="black" points="44,-56.5 44,-75.5 124,-75.5 124,-56.5 44,-56.5"/>
<text text-anchor="middle" x="84" y="-63.5" font-family="FreeSans" font-size="10.00">Fun4AllBase.h</text>
</a>
</g>
</g>
<!-- Node1&#45;&gt;Node2 -->
<g id="edge1" class="edge"><title>Node1&#45;&gt;Node2</title>
<path fill="none" stroke="midnightblue" d="M258.544,-112.933C218.24,-102.326 163.713,-87.9772 126.392,-78.1559"/>
<polygon fill="midnightblue" stroke="midnightblue" points="126.91,-74.6729 116.348,-75.5127 125.128,-81.4425 126.91,-74.6729"/>
</g>
<!-- Node3 -->
<g id="node3" class="node"><title>Node3</title>
<polygon fill="none" stroke="#bfbfbf" points="-0.5,-0.5 -0.5,-19.5 40.5,-19.5 40.5,-0.5 -0.5,-0.5"/>
<text text-anchor="middle" x="20" y="-7.5" font-family="FreeSans" font-size="10.00">string</text>
</g>
<!-- Node1&#45;&gt;Node3 -->
<g id="edge9" class="edge"><title>Node1&#45;&gt;Node3</title>
<path fill="none" stroke="midnightblue" d="M243.26,-122.844C171.123,-117.048 64.2005,-103.923 35,-76 22.7153,-64.2528 19.5862,-44.611 19.1525,-29.9877"/>
<polygon fill="midnightblue" stroke="midnightblue" points="22.6563,-29.618 19.2591,-19.5827 15.6567,-29.5462 22.6563,-29.618"/>
</g>
<!-- Node5 -->
<g id="node5" class="node"><title>Node5</title>
<polygon fill="none" stroke="#bfbfbf" points="142,-56.5 142,-75.5 248,-75.5 248,-56.5 142,-56.5"/>
<text text-anchor="middle" x="195" y="-63.5" font-family="FreeSans" font-size="10.00">Event/phenixTypes.h</text>
</g>
<!-- Node1&#45;&gt;Node5 -->
<g id="edge4" class="edge"><title>Node1&#45;&gt;Node5</title>
<path fill="none" stroke="midnightblue" d="M284.569,-112.933C265.27,-103.036 239.617,-89.8803 220.711,-80.1852"/>
<polygon fill="midnightblue" stroke="midnightblue" points="222.265,-77.0489 211.77,-75.6 219.071,-83.2776 222.265,-77.0489"/>
</g>
<!-- Node6 -->
<g id="node6" class="node"><title>Node6</title>
<polygon fill="none" stroke="#bfbfbf" points="265.5,-56.5 265.5,-75.5 358.5,-75.5 358.5,-56.5 265.5,-56.5"/>
<text text-anchor="middle" x="312" y="-63.5" font-family="FreeSans" font-size="10.00">boost/version.hpp</text>
</g>
<!-- Node1&#45;&gt;Node6 -->
<g id="edge5" class="edge"><title>Node1&#45;&gt;Node6</title>
<path fill="none" stroke="midnightblue" d="M312,-112.781C312,-104.781 312,-94.6887 312,-86.0168"/>
<polygon fill="midnightblue" stroke="midnightblue" points="315.5,-85.7305 312,-75.7305 308.5,-85.7306 315.5,-85.7305"/>
</g>
<!-- Node7 -->
<g id="node7" class="node"><title>Node7</title>
<polygon fill="none" stroke="#bfbfbf" points="376.5,-56.5 376.5,-75.5 507.5,-75.5 507.5,-56.5 376.5,-56.5"/>
<text text-anchor="middle" x="442" y="-63.5" font-family="FreeSans" font-size="10.00">boost/numeric/interval.hpp</text>
</g>
<!-- Node1&#45;&gt;Node7 -->
<g id="edge6" class="edge"><title>Node1&#45;&gt;Node7</title>
<path fill="none" stroke="midnightblue" d="M342.479,-112.933C364.118,-102.946 392.947,-89.6397 414.006,-79.9205"/>
<polygon fill="midnightblue" stroke="midnightblue" points="415.754,-82.9685 423.367,-75.6 412.82,-76.6128 415.754,-82.9685"/>
</g>
<!-- Node8 -->
<g id="node8" class="node"><title>Node8</title>
<polygon fill="none" stroke="#bfbfbf" points="525.5,-56.5 525.5,-75.5 560.5,-75.5 560.5,-56.5 525.5,-56.5"/>
<text text-anchor="middle" x="543" y="-63.5" font-family="FreeSans" font-size="10.00">map</text>
</g>
<!-- Node1&#45;&gt;Node8 -->
<g id="edge7" class="edge"><title>Node1&#45;&gt;Node8</title>
<path fill="none" stroke="midnightblue" d="M373.477,-112.931C411.834,-103.853 462.391,-91.3446 515.71,-75.9129"/>
<polygon fill="midnightblue" stroke="midnightblue" points="516.723,-79.2634 525.342,-73.1018 514.762,-72.5437 516.723,-79.2634"/>
</g>
<!-- Node9 -->
<g id="node9" class="node"><title>Node9</title>
<polygon fill="none" stroke="#bfbfbf" points="579,-56.5 579,-75.5 609,-75.5 609,-56.5 579,-56.5"/>
<text text-anchor="middle" x="594" y="-63.5" font-family="FreeSans" font-size="10.00">set</text>
</g>
<!-- Node1&#45;&gt;Node9 -->
<g id="edge8" class="edge"><title>Node1&#45;&gt;Node9</title>
<path fill="none" stroke="midnightblue" d="M380.561,-116.269C432.711,-107.416 505.993,-93.4872 569,-76 569.1,-75.9722 569.2,-75.9443 569.301,-75.9161"/>
<polygon fill="midnightblue" stroke="midnightblue" points="570.319,-79.265 578.78,-72.8881 568.189,-72.5969 570.319,-79.265"/>
</g>
<!-- Node2&#45;&gt;Node3 -->
<g id="edge2" class="edge"><title>Node2&#45;&gt;Node3</title>
<path fill="none" stroke="midnightblue" d="M73.7173,-56.324C64.1637,-48.2631 49.7203,-36.0765 38.2157,-26.3695"/>
<polygon fill="midnightblue" stroke="midnightblue" points="40.3698,-23.6076 30.4698,-19.8339 35.8557,-28.9577 40.3698,-23.6076"/>
</g>
<!-- Node4 -->
<g id="node4" class="node"><title>Node4</title>
<polygon fill="none" stroke="#bfbfbf" points="61.5,-0.5 61.5,-19.5 106.5,-19.5 106.5,-0.5 61.5,-0.5"/>
<text text-anchor="middle" x="84" y="-7.5" font-family="FreeSans" font-size="10.00">climits</text>
</g>
<!-- Node2&#45;&gt;Node4 -->
<g id="edge3" class="edge"><title>Node2&#45;&gt;Node4</title>
<path fill="none" stroke="midnightblue" d="M84,-56.083C84,-49.0059 84,-38.8611 84,-29.9865"/>
<polygon fill="midnightblue" stroke="midnightblue" points="87.5001,-29.751 84,-19.7511 80.5001,-29.7511 87.5001,-29.751"/>
</g>
</g>
</svg>
