<?xml version="1.0" encoding="UTF-8" standalone="no"?>
<!DOCTYPE svg PUBLIC "-//W3C//DTD SVG 1.1//EN"
 "http://www.w3.org/Graphics/SVG/1.1/DTD/svg11.dtd">
<!-- Generated by graphviz version 2.36.0 (20140111.2315)
 -->
<!-- Title: fun4all/interfaces/SEvent_v1.h Pages: 1 -->
<svg width="397pt" height="320pt"
 viewBox="0.00 0.00 397.00 320.00" xmlns="http://www.w3.org/2000/svg" xmlns:xlink="http://www.w3.org/1999/xlink">
<g id="graph0" class="graph" transform="scale(1 1) rotate(0) translate(4 316)">
<title>fun4all/interfaces/SEvent_v1.h</title>
<!-- Node1 -->
<g id="node1" class="node"><title>Node1</title>
<polygon fill="#bfbfbf" stroke="black" points="97.5,-281 97.5,-311 188.5,-311 188.5,-281 97.5,-281"/>
<text text-anchor="start" x="105.5" y="-299" font-family="FreeSans" font-size="10.00">fun4all/interfaces</text>
<text text-anchor="middle" x="143" y="-288" font-family="FreeSans" font-size="10.00">/SEvent_v1.h</text>
</g>
<!-- Node2 -->
<g id="node2" class="node"><title>Node2</title>
<g id="a_node2"><a xlink:href="../../db/d3d/SEvent_8h.html" target="_top" xlink:title="SEvent.h">
<polygon fill="none" stroke="black" points="115,-224.5 115,-243.5 171,-243.5 171,-224.5 115,-224.5"/>
<text text-anchor="middle" x="143" y="-231.5" font-family="FreeSans" font-size="10.00">SEvent.h</text>
</a>
</g>
</g>
<!-- Node1&#45;&gt;Node2 -->
<g id="edge1" class="edge"><title>Node1&#45;&gt;Node2</title>
<path fill="none" stroke="midnightblue" d="M143,-280.781C143,-272.781 143,-262.689 143,-254.017"/>
<polygon fill="midnightblue" stroke="midnightblue" points="146.5,-253.73 143,-243.731 139.5,-253.731 146.5,-253.73"/>
</g>
<!-- Node5 -->
<g id="node5" class="node"><title>Node5</title>
<g id="a_node5"><a xlink:href="../../df/d32/PHObject_8h.html" target="_top" xlink:title="phool/PHObject.h">
<polygon fill="none" stroke="black" points="281.5,-56.5 281.5,-75.5 374.5,-75.5 374.5,-56.5 281.5,-56.5"/>
<text text-anchor="middle" x="328" y="-63.5" font-family="FreeSans" font-size="10.00">phool/PHObject.h</text>
</a>
</g>
</g>
<!-- Node1&#45;&gt;Node5 -->
<g id="edge16" class="edge"><title>Node1&#45;&gt;Node5</title>
<path fill="none" stroke="midnightblue" d="M158.586,-280.877C187.709,-253.944 251.294,-192.512 294,-132 304.533,-117.075 313.937,-98.4693 320.17,-84.9927"/>
<polygon fill="midnightblue" stroke="midnightblue" points="323.379,-86.3889 324.284,-75.8328 316.994,-83.5205 323.379,-86.3889"/>
</g>
<!-- Node7 -->
<g id="node7" class="node"><title>Node7</title>
<polygon fill="none" stroke="#bfbfbf" points="64,-0.5 64,-19.5 118,-19.5 118,-0.5 64,-0.5"/>
<text text-anchor="middle" x="91" y="-7.5" font-family="FreeSans" font-size="10.00">iostream</text>
</g>
<!-- Node1&#45;&gt;Node7 -->
<g id="edge18" class="edge"><title>Node1&#45;&gt;Node7</title>
<path fill="none" stroke="midnightblue" d="M100.482,-280.982C58.33,-264.088 0,-231.267 0,-179 0,-179 0,-179 0,-121 0,-78.4684 40.8888,-43.5303 67.8493,-25.1161"/>
<polygon fill="midnightblue" stroke="midnightblue" points="69.9395,-27.9308 76.3793,-19.5177 66.0986,-22.0787 69.9395,-27.9308"/>
</g>
<!-- Node10 -->
<g id="node10" class="node"><title>Node10</title>
<polygon fill="none" stroke="#bfbfbf" points="81.5,-112.5 81.5,-131.5 116.5,-131.5 116.5,-112.5 81.5,-112.5"/>
<text text-anchor="middle" x="99" y="-119.5" font-family="FreeSans" font-size="10.00">map</text>
</g>
<!-- Node1&#45;&gt;Node10 -->
<g id="edge17" class="edge"><title>Node1&#45;&gt;Node10</title>
<path fill="none" stroke="midnightblue" d="M129.156,-280.698C120.832,-271.132 110.926,-257.806 106,-244 93.6695,-209.44 94.8896,-165.818 96.9209,-141.516"/>
<polygon fill="midnightblue" stroke="midnightblue" points="100.407,-141.83 97.8964,-131.536 93.44,-141.148 100.407,-141.83"/>
</g>
<!-- Node11 -->
<g id="node11" class="node"><title>Node11</title>
<polygon fill="none" stroke="#bfbfbf" points="349,-224.5 349,-243.5 389,-243.5 389,-224.5 349,-224.5"/>
<text text-anchor="middle" x="369" y="-231.5" font-family="FreeSans" font-size="10.00">limits</text>
</g>
<!-- Node1&#45;&gt;Node11 -->
<g id="edge19" class="edge"><title>Node1&#45;&gt;Node11</title>
<path fill="none" stroke="midnightblue" d="M188.734,-282.858C233.417,-270.995 300.162,-253.276 338.657,-243.056"/>
<polygon fill="midnightblue" stroke="midnightblue" points="339.956,-246.332 348.723,-240.383 338.16,-239.566 339.956,-246.332"/>
</g>
<!-- Node3 -->
<g id="node3" class="node"><title>Node3</title>
<g id="a_node3"><a xlink:href="../../d1/de9/SHitMap_8h.html" target="_top" xlink:title="SHitMap.h">
<polygon fill="none" stroke="black" points="142,-168.5 142,-187.5 204,-187.5 204,-168.5 142,-168.5"/>
<text text-anchor="middle" x="173" y="-175.5" font-family="FreeSans" font-size="10.00">SHitMap.h</text>
</a>
</g>
</g>
<!-- Node2&#45;&gt;Node3 -->
<g id="edge2" class="edge"><title>Node2&#45;&gt;Node3</title>
<path fill="none" stroke="midnightblue" d="M147.954,-224.083C152.104,-216.613 158.153,-205.724 163.267,-196.52"/>
<polygon fill="midnightblue" stroke="midnightblue" points="166.341,-198.192 168.138,-187.751 160.222,-194.793 166.341,-198.192"/>
</g>
<!-- Node2&#45;&gt;Node5 -->
<g id="edge13" class="edge"><title>Node2&#45;&gt;Node5</title>
<path fill="none" stroke="midnightblue" d="M158.221,-224.445C172.679,-216.009 194.714,-202.331 212,-188 252.504,-154.42 293.655,-107.92 314.336,-83.4973"/>
<polygon fill="midnightblue" stroke="midnightblue" points="317.246,-85.4744 320.991,-75.5633 311.883,-80.9761 317.246,-85.4744"/>
</g>
<!-- Node2&#45;&gt;Node7 -->
<g id="edge15" class="edge"><title>Node2&#45;&gt;Node7</title>
<path fill="none" stroke="midnightblue" d="M133.981,-224.322C117.792,-208.043 84.3466,-171.032 72,-132 60.7713,-96.5019 73.7901,-52.9598 83.141,-28.9824"/>
<polygon fill="midnightblue" stroke="midnightblue" points="86.3869,-30.2918 86.9609,-19.7125 79.9148,-27.6248 86.3869,-30.2918"/>
</g>
<!-- Node2&#45;&gt;Node10 -->
<g id="edge14" class="edge"><title>Node2&#45;&gt;Node10</title>
<path fill="none" stroke="midnightblue" d="M139.547,-224.368C132.383,-206.456 115.769,-164.923 106.179,-140.948"/>
<polygon fill="midnightblue" stroke="midnightblue" points="109.4,-139.576 102.437,-131.591 102.901,-142.176 109.4,-139.576"/>
</g>
<!-- Node4 -->
<g id="node4" class="node"><title>Node4</title>
<g id="a_node4"><a xlink:href="../../d2/d2c/SHit_8h.html" target="_top" xlink:title="SHit.h">
<polygon fill="none" stroke="black" points="173,-112.5 173,-131.5 217,-131.5 217,-112.5 173,-112.5"/>
<text text-anchor="middle" x="195" y="-119.5" font-family="FreeSans" font-size="10.00">SHit.h</text>
</a>
</g>
</g>
<!-- Node3&#45;&gt;Node4 -->
<g id="edge3" class="edge"><title>Node3&#45;&gt;Node4</title>
<path fill="none" stroke="midnightblue" d="M176.633,-168.083C179.612,-160.77 183.926,-150.181 187.625,-141.103"/>
<polygon fill="midnightblue" stroke="midnightblue" points="190.903,-142.333 191.435,-131.751 184.42,-139.691 190.903,-142.333"/>
</g>
<!-- Node3&#45;&gt;Node5 -->
<g id="edge10" class="edge"><title>Node3&#45;&gt;Node5</title>
<path fill="none" stroke="midnightblue" d="M185.163,-168.368C211.647,-149.573 274.781,-104.768 307.521,-81.5334"/>
<polygon fill="midnightblue" stroke="midnightblue" points="309.764,-84.2332 315.894,-75.5914 305.713,-78.5246 309.764,-84.2332"/>
</g>
<!-- Node3&#45;&gt;Node7 -->
<g id="edge12" class="edge"><title>Node3&#45;&gt;Node7</title>
<path fill="none" stroke="midnightblue" d="M168.591,-168.075C155.572,-141.719 117.12,-63.878 99.724,-28.6608"/>
<polygon fill="midnightblue" stroke="midnightblue" points="102.799,-26.9838 95.2324,-19.5681 96.5233,-30.084 102.799,-26.9838"/>
</g>
<!-- Node3&#45;&gt;Node10 -->
<g id="edge11" class="edge"><title>Node3&#45;&gt;Node10</title>
<path fill="none" stroke="midnightblue" d="M161.111,-168.324C149.85,-160.107 132.713,-147.602 119.291,-137.807"/>
<polygon fill="midnightblue" stroke="midnightblue" points="121.247,-134.901 111.106,-131.834 117.12,-140.556 121.247,-134.901"/>
</g>
<!-- Node4&#45;&gt;Node5 -->
<g id="edge4" class="edge"><title>Node4&#45;&gt;Node5</title>
<path fill="none" stroke="midnightblue" d="M216.074,-112.444C238.06,-103.517 272.734,-89.4387 297.664,-79.3168"/>
<polygon fill="midnightblue" stroke="midnightblue" points="299.076,-82.5213 307.024,-75.5164 296.442,-76.0355 299.076,-82.5213"/>
</g>
<!-- Node4&#45;&gt;Node7 -->
<g id="edge7" class="edge"><title>Node4&#45;&gt;Node7</title>
<path fill="none" stroke="midnightblue" d="M185.402,-112.27C175.733,-103.371 160.498,-89.0573 148,-76 132.676,-59.9902 116.066,-40.8247 104.752,-27.4699"/>
<polygon fill="midnightblue" stroke="midnightblue" points="107.266,-25.0213 98.1489,-19.6245 101.911,-29.529 107.266,-25.0213"/>
</g>
<!-- Node8 -->
<g id="node8" class="node"><title>Node8</title>
<polygon fill="none" stroke="#bfbfbf" points="216.5,-56.5 216.5,-75.5 263.5,-75.5 263.5,-56.5 216.5,-56.5"/>
<text text-anchor="middle" x="240" y="-63.5" font-family="FreeSans" font-size="10.00">limits.h</text>
</g>
<!-- Node4&#45;&gt;Node8 -->
<g id="edge8" class="edge"><title>Node4&#45;&gt;Node8</title>
<path fill="none" stroke="midnightblue" d="M202.431,-112.083C208.853,-104.377 218.306,-93.0333 226.122,-83.6531"/>
<polygon fill="midnightblue" stroke="midnightblue" points="228.994,-85.674 232.707,-75.7511 223.617,-81.1927 228.994,-85.674"/>
</g>
<!-- Node9 -->
<g id="node9" class="node"><title>Node9</title>
<polygon fill="none" stroke="#bfbfbf" points="157.5,-56.5 157.5,-75.5 198.5,-75.5 198.5,-56.5 157.5,-56.5"/>
<text text-anchor="middle" x="178" y="-63.5" font-family="FreeSans" font-size="10.00">string</text>
</g>
<!-- Node4&#45;&gt;Node9 -->
<g id="edge9" class="edge"><title>Node4&#45;&gt;Node9</title>
<path fill="none" stroke="midnightblue" d="M192.193,-112.083C189.915,-104.849 186.629,-94.4087 183.792,-85.3968"/>
<polygon fill="midnightblue" stroke="midnightblue" points="187.096,-84.2385 180.755,-75.7511 180.419,-86.3406 187.096,-84.2385"/>
</g>
<!-- Node6 -->
<g id="node6" class="node"><title>Node6</title>
<polygon fill="none" stroke="#bfbfbf" points="298.5,-0.5 298.5,-19.5 357.5,-19.5 357.5,-0.5 298.5,-0.5"/>
<text text-anchor="middle" x="328" y="-7.5" font-family="FreeSans" font-size="10.00">TObject.h</text>
</g>
<!-- Node5&#45;&gt;Node6 -->
<g id="edge5" class="edge"><title>Node5&#45;&gt;Node6</title>
<path fill="none" stroke="midnightblue" d="M328,-56.083C328,-49.0059 328,-38.8611 328,-29.9865"/>
<polygon fill="midnightblue" stroke="midnightblue" points="331.5,-29.751 328,-19.7511 324.5,-29.7511 331.5,-29.751"/>
</g>
<!-- Node5&#45;&gt;Node7 -->
<g id="edge6" class="edge"><title>Node5&#45;&gt;Node7</title>
<path fill="none" stroke="midnightblue" d="M290.447,-56.4435C245.885,-46.2903 172.071,-29.4719 127.829,-19.3915"/>
<polygon fill="midnightblue" stroke="midnightblue" points="128.585,-15.974 118.057,-17.1649 127.03,-22.7991 128.585,-15.974"/>
</g>
</g>
</svg>
