<?xml version="1.0" encoding="UTF-8" standalone="no"?>
<!DOCTYPE svg PUBLIC "-//W3C//DTD SVG 1.1//EN"
 "http://www.w3.org/Graphics/SVG/1.1/DTD/svg11.dtd">
<!-- Generated by graphviz version 2.36.0 (20140111.2315)
 -->
<!-- Title: PHPointerListIterator::pos Pages: 1 -->
<svg width="318pt" height="66pt"
 viewBox="0.00 0.00 318.00 66.00" xmlns="http://www.w3.org/2000/svg" xmlns:xlink="http://www.w3.org/1999/xlink">
<g id="graph0" class="graph" transform="scale(1 1) rotate(0) translate(4 62)">
<title>PHPointerListIterator::pos</title>
<!-- Node1 -->
<g id="node1" class="node"><title>Node1</title>
<polygon fill="#bfbfbf" stroke="black" points="0.5,-19.5 0.5,-38.5 129.5,-38.5 129.5,-19.5 0.5,-19.5"/>
<text text-anchor="middle" x="65" y="-26.5" font-family="FreeSans" font-size="10.00">PHPointerListIterator::pos</text>
</g>
<!-- Node2 -->
<g id="node2" class="node"><title>Node2</title>
<g id="a_node2"><a xlink:href="../../d5/dca/classPHCompositeNode.html#a012e50d9437dbf9d84a9f4bb00a7f495" target="_top" xlink:title="PHCompositeNode::forgetMe">
<polygon fill="none" stroke="black" points="166.5,-38.5 166.5,-57.5 309.5,-57.5 309.5,-38.5 166.5,-38.5"/>
<text text-anchor="middle" x="238" y="-45.5" font-family="FreeSans" font-size="10.00">PHCompositeNode::forgetMe</text>
</a>
</g>
</g>
<!-- Node1&#45;&gt;Node2 -->
<g id="edge1" class="edge"><title>Node1&#45;&gt;Node2</title>
<path fill="none" stroke="midnightblue" d="M139.891,-37.2102C148.68,-38.1866 157.635,-39.1816 166.376,-40.1528"/>
<polygon fill="midnightblue" stroke="midnightblue" points="139.999,-33.7007 129.674,-36.0749 139.226,-40.6579 139.999,-33.7007"/>
</g>
<!-- Node3 -->
<g id="node3" class="node"><title>Node3</title>
<g id="a_node3"><a xlink:href="../../d5/dca/classPHCompositeNode.html#a54f3041607c9d4c9eabecc489553925f" target="_top" xlink:title="PHCompositeNode::prune">
<polygon fill="none" stroke="black" points="173.5,-0.5 173.5,-19.5 302.5,-19.5 302.5,-0.5 173.5,-0.5"/>
<text text-anchor="middle" x="238" y="-7.5" font-family="FreeSans" font-size="10.00">PHCompositeNode::prune</text>
</a>
</g>
</g>
<!-- Node1&#45;&gt;Node3 -->
<g id="edge2" class="edge"><title>Node1&#45;&gt;Node3</title>
<path fill="none" stroke="midnightblue" d="M139.809,-20.7989C150.953,-19.5608 162.366,-18.2927 173.273,-17.0808"/>
<polygon fill="midnightblue" stroke="midnightblue" points="139.226,-17.3421 129.674,-21.9251 139.999,-24.2993 139.226,-17.3421"/>
</g>
</g>
</svg>
