<?xml version="1.0" encoding="UTF-8" standalone="no"?>
<!DOCTYPE svg PUBLIC "-//W3C//DTD SVG 1.1//EN"
 "http://www.w3.org/Graphics/SVG/1.1/DTD/svg11.dtd">
<!-- Generated by graphviz version 2.36.0 (20140111.2315)
 -->
<!-- Title: fun4all/fun4all/Fun4AllFileOutStream.h Pages: 1 -->
<svg width="630pt" height="208pt"
 viewBox="0.00 0.00 630.00 208.00" xmlns="http://www.w3.org/2000/svg" xmlns:xlink="http://www.w3.org/1999/xlink">
<g id="graph0" class="graph" transform="scale(1 1) rotate(0) translate(4 204)">
<title>fun4all/fun4all/Fun4AllFileOutStream.h</title>
<!-- Node1 -->
<g id="node1" class="node"><title>Node1</title>
<polygon fill="#bfbfbf" stroke="black" points="94.9973,-169 94.9973,-199 222.997,-199 222.997,-169 94.9973,-169"/>
<text text-anchor="start" x="102.997" y="-187" font-family="FreeSans" font-size="10.00">fun4all/fun4all/Fun4AllFile</text>
<text text-anchor="middle" x="158.997" y="-176" font-family="FreeSans" font-size="10.00">OutStream.h</text>
</g>
<!-- Node2 -->
<g id="node2" class="node"><title>Node2</title>
<g id="a_node2"><a xlink:href="../../d4/d07/Fun4AllEventOutStream_8h.html" target="_top" xlink:title="Fun4AllEventOutStream.h">
<polygon fill="none" stroke="black" points="155.497,-112.5 155.497,-131.5 284.497,-131.5 284.497,-112.5 155.497,-112.5"/>
<text text-anchor="middle" x="219.997" y="-119.5" font-family="FreeSans" font-size="10.00">Fun4AllEventOutStream.h</text>
</a>
</g>
</g>
<!-- Node1&#45;&gt;Node2 -->
<g id="edge1" class="edge"><title>Node1&#45;&gt;Node2</title>
<path fill="none" stroke="midnightblue" d="M173.453,-168.781C182.592,-159.792 194.416,-148.162 203.86,-138.873"/>
<polygon fill="midnightblue" stroke="midnightblue" points="206.446,-141.238 211.121,-131.731 201.538,-136.248 206.446,-141.238"/>
</g>
<!-- Node4 -->
<g id="node4" class="node"><title>Node4</title>
<polygon fill="none" stroke="#bfbfbf" points="131.497,-0.5 131.497,-19.5 172.497,-19.5 172.497,-0.5 131.497,-0.5"/>
<text text-anchor="middle" x="151.997" y="-7.5" font-family="FreeSans" font-size="10.00">string</text>
</g>
<!-- Node1&#45;&gt;Node4 -->
<g id="edge12" class="edge"><title>Node1&#45;&gt;Node4</title>
<path fill="none" stroke="midnightblue" d="M117.113,-168.985C61.09,-147.953 -27.2335,-105.384 8.99734,-56 34.6284,-21.0641 87.3999,-12.536 121.172,-10.8437"/>
<polygon fill="midnightblue" stroke="midnightblue" points="121.53,-14.3339 131.411,-10.5096 121.302,-7.33764 121.53,-14.3339"/>
</g>
<!-- Node6 -->
<g id="node6" class="node"><title>Node6</title>
<polygon fill="none" stroke="#bfbfbf" points="17.9973,-56.5 17.9973,-75.5 123.997,-75.5 123.997,-56.5 17.9973,-56.5"/>
<text text-anchor="middle" x="70.9973" y="-63.5" font-family="FreeSans" font-size="10.00">Event/phenixTypes.h</text>
</g>
<!-- Node1&#45;&gt;Node6 -->
<g id="edge11" class="edge"><title>Node1&#45;&gt;Node6</title>
<path fill="none" stroke="midnightblue" d="M148.207,-168.776C131.919,-147.306 101.115,-106.701 83.7447,-83.8034"/>
<polygon fill="midnightblue" stroke="midnightblue" points="86.435,-81.5585 77.6026,-75.707 80.8581,-85.7893 86.435,-81.5585"/>
</g>
<!-- Node11 -->
<g id="node11" class="node"><title>Node11</title>
<polygon fill="none" stroke="#bfbfbf" points="302.997,-112.5 302.997,-131.5 356.997,-131.5 356.997,-112.5 302.997,-112.5"/>
<text text-anchor="middle" x="329.997" y="-119.5" font-family="FreeSans" font-size="10.00">iostream</text>
</g>
<!-- Node1&#45;&gt;Node11 -->
<g id="edge13" class="edge"><title>Node1&#45;&gt;Node11</title>
<path fill="none" stroke="midnightblue" d="M199.089,-168.933C228.542,-158.598 268.122,-144.711 296.025,-134.92"/>
<polygon fill="midnightblue" stroke="midnightblue" points="297.459,-138.126 305.736,-131.513 295.141,-131.521 297.459,-138.126"/>
</g>
<!-- Node3 -->
<g id="node3" class="node"><title>Node3</title>
<g id="a_node3"><a xlink:href="../../d2/de7/Fun4AllBase_8h.html" target="_top" xlink:title="Fun4AllBase.h">
<polygon fill="none" stroke="black" points="179.997,-56.5 179.997,-75.5 259.997,-75.5 259.997,-56.5 179.997,-56.5"/>
<text text-anchor="middle" x="219.997" y="-63.5" font-family="FreeSans" font-size="10.00">Fun4AllBase.h</text>
</a>
</g>
</g>
<!-- Node2&#45;&gt;Node3 -->
<g id="edge2" class="edge"><title>Node2&#45;&gt;Node3</title>
<path fill="none" stroke="midnightblue" d="M219.997,-112.083C219.997,-105.006 219.997,-94.8611 219.997,-85.9865"/>
<polygon fill="midnightblue" stroke="midnightblue" points="223.497,-85.751 219.997,-75.7511 216.497,-85.7511 223.497,-85.751"/>
</g>
<!-- Node2&#45;&gt;Node4 -->
<g id="edge10" class="edge"><title>Node2&#45;&gt;Node4</title>
<path fill="none" stroke="midnightblue" d="M207.332,-112.456C196.212,-104.322 180.388,-91.1064 170.997,-76 162.172,-61.8025 157.289,-43.3242 154.691,-29.7002"/>
<polygon fill="midnightblue" stroke="midnightblue" points="158.104,-28.8882 153.011,-19.5983 151.199,-30.0372 158.104,-28.8882"/>
</g>
<!-- Node2&#45;&gt;Node6 -->
<g id="edge5" class="edge"><title>Node2&#45;&gt;Node6</title>
<path fill="none" stroke="midnightblue" d="M196.388,-112.444C171.54,-103.438 132.223,-89.1891 104.244,-79.049"/>
<polygon fill="midnightblue" stroke="midnightblue" points="105.091,-75.6332 94.4964,-75.5164 102.705,-82.2144 105.091,-75.6332"/>
</g>
<!-- Node7 -->
<g id="node7" class="node"><title>Node7</title>
<polygon fill="none" stroke="#bfbfbf" points="278.497,-56.5 278.497,-75.5 371.497,-75.5 371.497,-56.5 278.497,-56.5"/>
<text text-anchor="middle" x="324.997" y="-63.5" font-family="FreeSans" font-size="10.00">boost/version.hpp</text>
</g>
<!-- Node2&#45;&gt;Node7 -->
<g id="edge6" class="edge"><title>Node2&#45;&gt;Node7</title>
<path fill="none" stroke="midnightblue" d="M236.867,-112.324C253.706,-103.664 279.804,-90.2424 299.235,-80.249"/>
<polygon fill="midnightblue" stroke="midnightblue" points="300.877,-83.3405 308.169,-75.6545 297.676,-77.1155 300.877,-83.3405"/>
</g>
<!-- Node8 -->
<g id="node8" class="node"><title>Node8</title>
<polygon fill="none" stroke="#bfbfbf" points="389.497,-56.5 389.497,-75.5 520.497,-75.5 520.497,-56.5 389.497,-56.5"/>
<text text-anchor="middle" x="454.997" y="-63.5" font-family="FreeSans" font-size="10.00">boost/numeric/interval.hpp</text>
</g>
<!-- Node2&#45;&gt;Node8 -->
<g id="edge7" class="edge"><title>Node2&#45;&gt;Node8</title>
<path fill="none" stroke="midnightblue" d="M257.234,-112.444C298.057,-103.063 363.641,-87.9926 407.982,-77.8036"/>
<polygon fill="midnightblue" stroke="midnightblue" points="408.973,-81.1671 417.935,-75.5164 407.405,-74.3449 408.973,-81.1671"/>
</g>
<!-- Node9 -->
<g id="node9" class="node"><title>Node9</title>
<polygon fill="none" stroke="#bfbfbf" points="538.497,-56.5 538.497,-75.5 573.497,-75.5 573.497,-56.5 538.497,-56.5"/>
<text text-anchor="middle" x="555.997" y="-63.5" font-family="FreeSans" font-size="10.00">map</text>
</g>
<!-- Node2&#45;&gt;Node9 -->
<g id="edge8" class="edge"><title>Node2&#45;&gt;Node9</title>
<path fill="none" stroke="midnightblue" d="M284.658,-112.954C356.846,-103.744 470.147,-88.5559 528.51,-75.6574"/>
<polygon fill="midnightblue" stroke="midnightblue" points="529.458,-79.0306 538.408,-73.3607 527.876,-72.2118 529.458,-79.0306"/>
</g>
<!-- Node10 -->
<g id="node10" class="node"><title>Node10</title>
<polygon fill="none" stroke="#bfbfbf" points="591.997,-56.5 591.997,-75.5 621.997,-75.5 621.997,-56.5 591.997,-56.5"/>
<text text-anchor="middle" x="606.997" y="-63.5" font-family="FreeSans" font-size="10.00">set</text>
</g>
<!-- Node2&#45;&gt;Node10 -->
<g id="edge9" class="edge"><title>Node2&#45;&gt;Node10</title>
<path fill="none" stroke="midnightblue" d="M284.759,-113.041C387.922,-100.349 578.407,-76.858 581.997,-76 582.098,-75.9759 582.199,-75.9515 582.301,-75.9268"/>
<polygon fill="midnightblue" stroke="midnightblue" points="583.252,-79.2955 591.824,-73.0681 581.24,-72.591 583.252,-79.2955"/>
</g>
<!-- Node3&#45;&gt;Node4 -->
<g id="edge3" class="edge"><title>Node3&#45;&gt;Node4</title>
<path fill="none" stroke="midnightblue" d="M209.072,-56.324C198.823,-48.1849 183.277,-35.8395 170.996,-26.0874"/>
<polygon fill="midnightblue" stroke="midnightblue" points="173.129,-23.3119 163.122,-19.8339 168.776,-28.7937 173.129,-23.3119"/>
</g>
<!-- Node5 -->
<g id="node5" class="node"><title>Node5</title>
<polygon fill="none" stroke="#bfbfbf" points="197.497,-0.5 197.497,-19.5 242.497,-19.5 242.497,-0.5 197.497,-0.5"/>
<text text-anchor="middle" x="219.997" y="-7.5" font-family="FreeSans" font-size="10.00">climits</text>
</g>
<!-- Node3&#45;&gt;Node5 -->
<g id="edge4" class="edge"><title>Node3&#45;&gt;Node5</title>
<path fill="none" stroke="midnightblue" d="M219.997,-56.083C219.997,-49.0059 219.997,-38.8611 219.997,-29.9865"/>
<polygon fill="midnightblue" stroke="midnightblue" points="223.497,-29.751 219.997,-19.7511 216.497,-29.7511 223.497,-29.751"/>
</g>
</g>
</svg>
