<?xml version="1.0" encoding="UTF-8" standalone="no"?>
<!DOCTYPE svg PUBLIC "-//W3C//DTD SVG 1.1//EN"
 "http://www.w3.org/Graphics/SVG/1.1/DTD/svg11.dtd">
<!-- Generated by graphviz version 2.36.0 (20140111.2315)
 -->
<!-- Title: operator&lt;&lt; Pages: 1 -->
<svg width="206pt" height="104pt"
 viewBox="0.00 0.00 206.00 104.00" xmlns="http://www.w3.org/2000/svg" xmlns:xlink="http://www.w3.org/1999/xlink">
<g id="graph0" class="graph" transform="scale(1 1) rotate(0) translate(4 100)">
<title>operator&lt;&lt;</title>
<!-- Node1 -->
<g id="node1" class="node"><title>Node1</title>
<polygon fill="#bfbfbf" stroke="black" points="0,-38.5 0,-57.5 64,-57.5 64,-38.5 0,-38.5"/>
<text text-anchor="middle" x="32" y="-45.5" font-family="FreeSans" font-size="10.00">operator&lt;&lt;</text>
</g>
<!-- Node2 -->
<g id="node2" class="node"><title>Node2</title>
<g id="a_node2"><a xlink:href="../../dc/d82/classPHNode.html#abee3c3d64c127118bcab3537a0f1d92e" target="_top" xlink:title="PHNode::getClass">
<polygon fill="none" stroke="black" points="100.5,-76.5 100.5,-95.5 197.5,-95.5 197.5,-76.5 100.5,-76.5"/>
<text text-anchor="middle" x="149" y="-83.5" font-family="FreeSans" font-size="10.00">PHNode::getClass</text>
</a>
</g>
</g>
<!-- Node1&#45;&gt;Node2 -->
<g id="edge1" class="edge"><title>Node1&#45;&gt;Node2</title>
<path fill="none" stroke="midnightblue" d="M62.0194,-57.589C76.32,-62.3144 93.765,-68.0789 109.195,-73.1774"/>
<polygon fill="midnightblue" stroke="midnightblue" points="108.397,-76.5998 118.99,-76.4141 110.593,-69.9532 108.397,-76.5998"/>
</g>
<!-- Node3 -->
<g id="node3" class="node"><title>Node3</title>
<g id="a_node3"><a xlink:href="../../dc/d82/classPHNode.html#aca3576f926a4401eddc3d88bf0ce0de3" target="_top" xlink:title="PHNode::getName">
<polygon fill="none" stroke="black" points="100,-38.5 100,-57.5 198,-57.5 198,-38.5 100,-38.5"/>
<text text-anchor="middle" x="149" y="-45.5" font-family="FreeSans" font-size="10.00">PHNode::getName</text>
</a>
</g>
</g>
<!-- Node1&#45;&gt;Node3 -->
<g id="edge2" class="edge"><title>Node1&#45;&gt;Node3</title>
<path fill="none" stroke="midnightblue" d="M64.1207,-48C72.1435,-48 81.041,-48 89.956,-48"/>
<polygon fill="midnightblue" stroke="midnightblue" points="89.9831,-51.5001 99.9831,-48 89.9831,-44.5001 89.9831,-51.5001"/>
</g>
<!-- Node4 -->
<g id="node4" class="node"><title>Node4</title>
<g id="a_node4"><a xlink:href="../../dc/d82/classPHNode.html#a4ab1f90aed955a652813bfe377087bda" target="_top" xlink:title="PHNode::getType">
<polygon fill="none" stroke="black" points="102.5,-0.5 102.5,-19.5 195.5,-19.5 195.5,-0.5 102.5,-0.5"/>
<text text-anchor="middle" x="149" y="-7.5" font-family="FreeSans" font-size="10.00">PHNode::getType</text>
</a>
</g>
</g>
<!-- Node1&#45;&gt;Node4 -->
<g id="edge3" class="edge"><title>Node1&#45;&gt;Node4</title>
<path fill="none" stroke="midnightblue" d="M62.0194,-38.411C76.32,-33.6856 93.765,-27.9211 109.195,-22.8226"/>
<polygon fill="midnightblue" stroke="midnightblue" points="110.593,-26.0468 118.99,-19.5859 108.397,-19.4002 110.593,-26.0468"/>
</g>
</g>
</svg>
