<?xml version="1.0" encoding="UTF-8" standalone="no"?>
<!DOCTYPE svg PUBLIC "-//W3C//DTD SVG 1.1//EN"
 "http://www.w3.org/Graphics/SVG/1.1/DTD/svg11.dtd">
<!-- Generated by graphviz version 2.36.0 (20140111.2315)
 -->
<!-- Title: fun4all/fun4all/SubsysReco.h Pages: 1 -->
<svg width="153pt" height="140pt"
 viewBox="0.00 0.00 153.00 140.00" xmlns="http://www.w3.org/2000/svg" xmlns:xlink="http://www.w3.org/1999/xlink">
<g id="graph0" class="graph" transform="scale(1 1) rotate(0) translate(4 136)">
<title>fun4all/fun4all/SubsysReco.h</title>
<!-- Node1 -->
<g id="node1" class="node"><title>Node1</title>
<polygon fill="#bfbfbf" stroke="black" points="0,-112.5 0,-131.5 142,-131.5 142,-112.5 0,-112.5"/>
<text text-anchor="middle" x="71" y="-119.5" font-family="FreeSans" font-size="10.00">fun4all/fun4all/SubsysReco.h</text>
</g>
<!-- Node2 -->
<g id="node2" class="node"><title>Node2</title>
<g id="a_node2"><a xlink:href="../../d2/de7/Fun4AllBase_8h.html" target="_top" xlink:title="Fun4AllBase.h">
<polygon fill="none" stroke="black" points="65,-56.5 65,-75.5 145,-75.5 145,-56.5 65,-56.5"/>
<text text-anchor="middle" x="105" y="-63.5" font-family="FreeSans" font-size="10.00">Fun4AllBase.h</text>
</a>
</g>
</g>
<!-- Node1&#45;&gt;Node2 -->
<g id="edge1" class="edge"><title>Node1&#45;&gt;Node2</title>
<path fill="none" stroke="midnightblue" d="M76.6144,-112.083C81.3674,-104.534 88.3181,-93.4948 94.1516,-84.2298"/>
<polygon fill="midnightblue" stroke="midnightblue" points="97.1237,-86.0783 99.4901,-75.7511 91.2001,-82.3486 97.1237,-86.0783"/>
</g>
<!-- Node3 -->
<g id="node3" class="node"><title>Node3</title>
<polygon fill="none" stroke="#bfbfbf" points="20.5,-0.5 20.5,-19.5 61.5,-19.5 61.5,-0.5 20.5,-0.5"/>
<text text-anchor="middle" x="41" y="-7.5" font-family="FreeSans" font-size="10.00">string</text>
</g>
<!-- Node1&#45;&gt;Node3 -->
<g id="edge4" class="edge"><title>Node1&#45;&gt;Node3</title>
<path fill="none" stroke="midnightblue" d="M67.8795,-112.448C64.6603,-103.451 59.6134,-88.8422 56,-76 51.6815,-60.6518 47.6697,-43.013 44.8837,-29.9861"/>
<polygon fill="midnightblue" stroke="midnightblue" points="48.2471,-28.9706 42.774,-19.8989 41.3954,-30.4037 48.2471,-28.9706"/>
</g>
<!-- Node2&#45;&gt;Node3 -->
<g id="edge2" class="edge"><title>Node2&#45;&gt;Node3</title>
<path fill="none" stroke="midnightblue" d="M94.7173,-56.324C85.1637,-48.2631 70.7203,-36.0765 59.2157,-26.3695"/>
<polygon fill="midnightblue" stroke="midnightblue" points="61.3698,-23.6076 51.4698,-19.8339 56.8557,-28.9577 61.3698,-23.6076"/>
</g>
<!-- Node4 -->
<g id="node4" class="node"><title>Node4</title>
<polygon fill="none" stroke="#bfbfbf" points="82.5,-0.5 82.5,-19.5 127.5,-19.5 127.5,-0.5 82.5,-0.5"/>
<text text-anchor="middle" x="105" y="-7.5" font-family="FreeSans" font-size="10.00">climits</text>
</g>
<!-- Node2&#45;&gt;Node4 -->
<g id="edge3" class="edge"><title>Node2&#45;&gt;Node4</title>
<path fill="none" stroke="midnightblue" d="M105,-56.083C105,-49.0059 105,-38.8611 105,-29.9865"/>
<polygon fill="midnightblue" stroke="midnightblue" points="108.5,-29.751 105,-19.7511 101.5,-29.7511 108.5,-29.751"/>
</g>
</g>
</svg>
