<?xml version="1.0" encoding="UTF-8" standalone="no"?>
<!DOCTYPE svg PUBLIC "-//W3C//DTD SVG 1.1//EN"
 "http://www.w3.org/Graphics/SVG/1.1/DTD/svg11.dtd">
<!-- Generated by graphviz version 2.36.0 (20140111.2315)
 -->
<!-- Title: fun4all/phool/PHTimeStamp.h Pages: 1 -->
<svg width="183pt" height="140pt"
 viewBox="0.00 0.00 183.00 140.00" xmlns="http://www.w3.org/2000/svg" xmlns:xlink="http://www.w3.org/1999/xlink">
<g id="graph0" class="graph" transform="scale(1 1) rotate(0) translate(4 136)">
<title>fun4all/phool/PHTimeStamp.h</title>
<!-- Node1 -->
<g id="node1" class="node"><title>Node1</title>
<polygon fill="#bfbfbf" stroke="black" points="29,-112.5 29,-131.5 175,-131.5 175,-112.5 29,-112.5"/>
<text text-anchor="middle" x="102" y="-119.5" font-family="FreeSans" font-size="10.00">fun4all/phool/PHTimeStamp.h</text>
</g>
<!-- Node2 -->
<g id="node2" class="node"><title>Node2</title>
<g id="a_node2"><a xlink:href="../../df/d32/PHObject_8h.html" target="_top" xlink:title="PHObject.h">
<polygon fill="none" stroke="black" points="32.5,-56.5 32.5,-75.5 99.5,-75.5 99.5,-56.5 32.5,-56.5"/>
<text text-anchor="middle" x="66" y="-63.5" font-family="FreeSans" font-size="10.00">PHObject.h</text>
</a>
</g>
</g>
<!-- Node1&#45;&gt;Node2 -->
<g id="edge1" class="edge"><title>Node1&#45;&gt;Node2</title>
<path fill="none" stroke="midnightblue" d="M96.0553,-112.083C91.0227,-104.534 83.6632,-93.4948 77.4865,-84.2298"/>
<polygon fill="midnightblue" stroke="midnightblue" points="80.2933,-82.1301 71.8341,-75.7511 74.4689,-86.0131 80.2933,-82.1301"/>
</g>
<!-- Node5 -->
<g id="node5" class="node"><title>Node5</title>
<polygon fill="none" stroke="#bfbfbf" points="117.5,-56.5 117.5,-75.5 158.5,-75.5 158.5,-56.5 117.5,-56.5"/>
<text text-anchor="middle" x="138" y="-63.5" font-family="FreeSans" font-size="10.00">ctime</text>
</g>
<!-- Node1&#45;&gt;Node5 -->
<g id="edge4" class="edge"><title>Node1&#45;&gt;Node5</title>
<path fill="none" stroke="midnightblue" d="M107.945,-112.083C112.977,-104.534 120.337,-93.4948 126.513,-84.2298"/>
<polygon fill="midnightblue" stroke="midnightblue" points="129.531,-86.0131 132.166,-75.7511 123.707,-82.1301 129.531,-86.0131"/>
</g>
<!-- Node3 -->
<g id="node3" class="node"><title>Node3</title>
<polygon fill="none" stroke="#bfbfbf" points="-0.5,-0.5 -0.5,-19.5 58.5,-19.5 58.5,-0.5 -0.5,-0.5"/>
<text text-anchor="middle" x="29" y="-7.5" font-family="FreeSans" font-size="10.00">TObject.h</text>
</g>
<!-- Node2&#45;&gt;Node3 -->
<g id="edge2" class="edge"><title>Node2&#45;&gt;Node3</title>
<path fill="none" stroke="midnightblue" d="M59.8902,-56.083C54.7178,-48.5341 47.1539,-37.4948 40.8056,-28.2298"/>
<polygon fill="midnightblue" stroke="midnightblue" points="43.5357,-26.0221 34.9961,-19.7511 37.7612,-29.9787 43.5357,-26.0221"/>
</g>
<!-- Node4 -->
<g id="node4" class="node"><title>Node4</title>
<polygon fill="none" stroke="#bfbfbf" points="77,-0.5 77,-19.5 131,-19.5 131,-0.5 77,-0.5"/>
<text text-anchor="middle" x="104" y="-7.5" font-family="FreeSans" font-size="10.00">iostream</text>
</g>
<!-- Node2&#45;&gt;Node4 -->
<g id="edge3" class="edge"><title>Node2&#45;&gt;Node4</title>
<path fill="none" stroke="midnightblue" d="M72.2749,-56.083C77.6425,-48.4554 85.5176,-37.2645 92.0787,-27.9408"/>
<polygon fill="midnightblue" stroke="midnightblue" points="94.9492,-29.9434 97.8418,-19.7511 89.2245,-25.9149 94.9492,-29.9434"/>
</g>
</g>
</svg>
