<?xml version="1.0" encoding="UTF-8" standalone="no"?>
<!DOCTYPE svg PUBLIC "-//W3C//DTD SVG 1.1//EN"
 "http://www.w3.org/Graphics/SVG/1.1/DTD/svg11.dtd">
<!-- Generated by graphviz version 2.36.0 (20140111.2315)
 -->
<!-- Title: fun4all/phool/PHNodeOperation.h Pages: 1 -->
<svg width="413pt" height="140pt"
 viewBox="0.00 0.00 413.00 140.00" xmlns="http://www.w3.org/2000/svg" xmlns:xlink="http://www.w3.org/1999/xlink">
<g id="graph0" class="graph" transform="scale(1 1) rotate(0) translate(4 136)">
<title>fun4all/phool/PHNodeOperation.h</title>
<!-- Node1 -->
<g id="node1" class="node"><title>Node1</title>
<polygon fill="#bfbfbf" stroke="black" points="80.5,-112.5 80.5,-131.5 241.5,-131.5 241.5,-112.5 80.5,-112.5"/>
<text text-anchor="middle" x="161" y="-119.5" font-family="FreeSans" font-size="10.00">fun4all/phool/PHNodeOperation.h</text>
</g>
<!-- Node2 -->
<g id="node2" class="node"><title>Node2</title>
<g id="a_node2"><a xlink:href="../../d0/d41/PHNodeIterator_8cc.html" target="_top" xlink:title="fun4all/phool/PHNodeIterator.cc">
<polygon fill="none" stroke="black" points="-0.5,-56.5 -0.5,-75.5 154.5,-75.5 154.5,-56.5 -0.5,-56.5"/>
<text text-anchor="middle" x="77" y="-63.5" font-family="FreeSans" font-size="10.00">fun4all/phool/PHNodeIterator.cc</text>
</a>
</g>
</g>
<!-- Node1&#45;&gt;Node2 -->
<g id="edge1" class="edge"><title>Node1&#45;&gt;Node2</title>
<path fill="none" stroke="midnightblue" d="M139.068,-106.901C123.665,-96.9986 103.554,-84.0705 90.4626,-75.6545"/>
<polygon fill="midnightblue" stroke="midnightblue" points="137.199,-109.86 147.504,-112.324 140.985,-103.972 137.199,-109.86"/>
</g>
<!-- Node3 -->
<g id="node3" class="node"><title>Node3</title>
<g id="a_node3"><a xlink:href="../../df/dcd/PHNodeReset_8h.html" target="_top" xlink:title="fun4all/phool/PHNodeReset.h">
<polygon fill="none" stroke="black" points="172.5,-56.5 172.5,-75.5 317.5,-75.5 317.5,-56.5 172.5,-56.5"/>
<text text-anchor="middle" x="245" y="-63.5" font-family="FreeSans" font-size="10.00">fun4all/phool/PHNodeReset.h</text>
</a>
</g>
</g>
<!-- Node1&#45;&gt;Node3 -->
<g id="edge2" class="edge"><title>Node1&#45;&gt;Node3</title>
<path fill="none" stroke="midnightblue" d="M182.932,-106.901C198.335,-96.9986 218.446,-84.0705 231.537,-75.6545"/>
<polygon fill="midnightblue" stroke="midnightblue" points="181.015,-103.972 174.496,-112.324 184.801,-109.86 181.015,-103.972"/>
</g>
<!-- Node4 -->
<g id="node4" class="node"><title>Node4</title>
<g id="a_node4"><a xlink:href="../../d8/d7a/Fun4AllServer_8cc.html" target="_top" xlink:title="fun4all/fun4all/Fun4AllServer.cc">
<polygon fill="none" stroke="black" points="83,-0.5 83,-19.5 237,-19.5 237,-0.5 83,-0.5"/>
<text text-anchor="middle" x="160" y="-7.5" font-family="FreeSans" font-size="10.00">fun4all/fun4all/Fun4AllServer.cc</text>
</a>
</g>
</g>
<!-- Node3&#45;&gt;Node4 -->
<g id="edge3" class="edge"><title>Node3&#45;&gt;Node4</title>
<path fill="none" stroke="midnightblue" d="M222.806,-50.9005C207.22,-40.9986 186.87,-28.0705 173.623,-19.6545"/>
<polygon fill="midnightblue" stroke="midnightblue" points="221.026,-53.9158 231.343,-56.324 224.779,-48.0073 221.026,-53.9158"/>
</g>
<!-- Node5 -->
<g id="node5" class="node"><title>Node5</title>
<g id="a_node5"><a xlink:href="../../dc/d01/PHNodeReset_8cc.html" target="_top" xlink:title="fun4all/phool/PHNodeReset.cc">
<polygon fill="none" stroke="black" points="255,-0.5 255,-19.5 405,-19.5 405,-0.5 255,-0.5"/>
<text text-anchor="middle" x="330" y="-7.5" font-family="FreeSans" font-size="10.00">fun4all/phool/PHNodeReset.cc</text>
</a>
</g>
</g>
<!-- Node3&#45;&gt;Node5 -->
<g id="edge4" class="edge"><title>Node3&#45;&gt;Node5</title>
<path fill="none" stroke="midnightblue" d="M267.194,-50.9005C282.78,-40.9986 303.13,-28.0705 316.377,-19.6545"/>
<polygon fill="midnightblue" stroke="midnightblue" points="265.221,-48.0073 258.657,-56.324 268.974,-53.9158 265.221,-48.0073"/>
</g>
</g>
</svg>
