<?xml version="1.0" encoding="UTF-8" standalone="no"?>
<!DOCTYPE svg PUBLIC "-//W3C//DTD SVG 1.1//EN"
 "http://www.w3.org/Graphics/SVG/1.1/DTD/svg11.dtd">
<!-- Generated by graphviz version 2.36.0 (20140111.2315)
 -->
<!-- Title: Fun4AllEventOutStream Pages: 1 -->
<svg width="870pt" height="229pt"
 viewBox="0.00 0.00 870.00 229.00" xmlns="http://www.w3.org/2000/svg" xmlns:xlink="http://www.w3.org/1999/xlink">
<g id="graph0" class="graph" transform="scale(1 1) rotate(0) translate(4 225)">
<title>Fun4AllEventOutStream</title>
<!-- Node1 -->
<g id="node1" class="node"><title>Node1</title>
<polygon fill="#bfbfbf" stroke="black" points="508,-54.5 508,-73.5 630,-73.5 630,-54.5 508,-54.5"/>
<text text-anchor="middle" x="569" y="-61.5" font-family="FreeSans" font-size="10.00">Fun4AllEventOutStream</text>
</g>
<!-- Node5 -->
<g id="node5" class="node"><title>Node5</title>
<g id="a_node5"><a xlink:href="../../d2/d4a/classFun4AllEventOutputManager.html" target="_top" xlink:title="Fun4AllEventOutputManager">
<polygon fill="none" stroke="black" points="720.5,-101.5 720.5,-120.5 861.5,-120.5 861.5,-101.5 720.5,-101.5"/>
<text text-anchor="middle" x="791" y="-108.5" font-family="FreeSans" font-size="10.00">Fun4AllEventOutputManager</text>
</a>
</g>
</g>
<!-- Node1&#45;&gt;Node5 -->
<g id="edge11" class="edge"><title>Node1&#45;&gt;Node5</title>
<path fill="none" stroke="#9a32cd" stroke-dasharray="5,2" d="M640.274,-59.1564C660.447,-59.3489 682.308,-61.099 702,-66 730.141,-73.0037 759.478,-90.3716 776.168,-101.367"/>
<polygon fill="#9a32cd" stroke="#9a32cd" points="640.202,-55.6565 630.212,-59.1846 640.222,-62.6565 640.202,-55.6565"/>
<text text-anchor="middle" x="675" y="-69" font-family="FreeSans" font-size="10.00"> outstream</text>
</g>
<!-- Node2 -->
<g id="node2" class="node"><title>Node2</title>
<g id="a_node2"><a xlink:href="../../d5/dec/classFun4AllBase.html" target="_top" xlink:title="Fun4AllBase">
<polygon fill="none" stroke="black" points="300,-60.5 300,-79.5 372,-79.5 372,-60.5 300,-60.5"/>
<text text-anchor="middle" x="336" y="-67.5" font-family="FreeSans" font-size="10.00">Fun4AllBase</text>
</a>
</g>
</g>
<!-- Node2&#45;&gt;Node1 -->
<g id="edge1" class="edge"><title>Node2&#45;&gt;Node1</title>
<path fill="none" stroke="midnightblue" d="M382.255,-68.8246C418.122,-67.8929 468.561,-66.5828 507.828,-65.5629"/>
<polygon fill="midnightblue" stroke="midnightblue" points="381.99,-65.3302 372.084,-69.0887 382.171,-72.3278 381.99,-65.3302"/>
</g>
<!-- Node6 -->
<g id="node6" class="node"><title>Node6</title>
<g id="a_node6"><a xlink:href="../../d8/d77/classFun4AllOutputManager.html" target="_top" xlink:title="Fun4AllOutputManager">
<polygon fill="none" stroke="black" points="511,-114.5 511,-133.5 627,-133.5 627,-114.5 511,-114.5"/>
<text text-anchor="middle" x="569" y="-121.5" font-family="FreeSans" font-size="10.00">Fun4AllOutputManager</text>
</a>
</g>
</g>
<!-- Node2&#45;&gt;Node6 -->
<g id="edge6" class="edge"><title>Node2&#45;&gt;Node6</title>
<path fill="none" stroke="midnightblue" d="M382.06,-80.5336C424.152,-90.3733 486.437,-104.933 527.122,-114.444"/>
<polygon fill="midnightblue" stroke="midnightblue" points="382.618,-77.0697 372.084,-78.2014 381.025,-83.8859 382.618,-77.0697"/>
</g>
<!-- Node3 -->
<g id="node3" class="node"><title>Node3</title>
<g id="a_node3"><a xlink:title="STL class. ">
<polygon fill="none" stroke="#bfbfbf" points="132.5,-162.5 132.5,-181.5 191.5,-181.5 191.5,-162.5 132.5,-162.5"/>
<text text-anchor="middle" x="162" y="-169.5" font-family="FreeSans" font-size="10.00">std::string</text>
</a>
</g>
</g>
<!-- Node3&#45;&gt;Node2 -->
<g id="edge2" class="edge"><title>Node3&#45;&gt;Node2</title>
<path fill="none" stroke="#9a32cd" stroke-dasharray="5,2" d="M179.829,-155.107C188.49,-146.809 199.428,-136.919 210,-129 237.452,-108.436 244.797,-103.243 276,-89 283.832,-85.4253 292.53,-82.2293 300.789,-79.5244"/>
<polygon fill="#9a32cd" stroke="#9a32cd" points="177.299,-152.686 172.591,-162.177 182.19,-157.693 177.299,-152.686"/>
<text text-anchor="middle" x="234" y="-132" font-family="FreeSans" font-size="10.00"> ThisName</text>
</g>
<!-- Node3&#45;&gt;Node5 -->
<g id="edge12" class="edge"><title>Node3&#45;&gt;Node5</title>
<path fill="none" stroke="#9a32cd" stroke-dasharray="5,2" d="M186.4,-186.727C193.739,-190.853 202.014,-195.02 210,-198 238.094,-208.483 246.178,-208.872 276,-212 468.198,-232.16 695.479,-149.259 767.169,-120.504"/>
<polygon fill="#9a32cd" stroke="#9a32cd" points="188.091,-183.662 177.695,-181.615 184.546,-189.698 188.091,-183.662"/>
<text text-anchor="middle" x="452" y="-213" font-family="FreeSans" font-size="10.00"> outfilerule</text>
</g>
<!-- Node3&#45;&gt;Node6 -->
<g id="edge8" class="edge"><title>Node3&#45;&gt;Node6</title>
<path fill="none" stroke="#9a32cd" stroke-dasharray="5,2" d="M201.772,-167.405C273.504,-158.903 427.22,-140.685 510.889,-130.769"/>
<polygon fill="#9a32cd" stroke="#9a32cd" points="201.32,-163.934 191.802,-168.586 202.144,-170.885 201.32,-163.934"/>
<text text-anchor="middle" x="336" y="-161" font-family="FreeSans" font-size="10.00"> outfilename</text>
</g>
<!-- Node8 -->
<g id="node8" class="node"><title>Node8</title>
<polygon fill="none" stroke="#bfbfbf" points="276,-183.5 276,-202.5 396,-202.5 396,-183.5 276,-183.5"/>
<text text-anchor="middle" x="336" y="-190.5" font-family="FreeSans" font-size="10.00">std::vector&lt; std::string &gt;</text>
</g>
<!-- Node3&#45;&gt;Node8 -->
<g id="edge10" class="edge"><title>Node3&#45;&gt;Node8</title>
<path fill="none" stroke="#9a32cd" stroke-dasharray="5,2" d="M201.977,-176.759C223.763,-179.419 251.362,-182.788 275.767,-185.768"/>
<polygon fill="#9a32cd" stroke="#9a32cd" points="202.139,-173.253 191.789,-175.515 201.291,-180.201 202.139,-173.253"/>
<text text-anchor="middle" x="234" y="-186" font-family="FreeSans" font-size="10.00"> elements</text>
</g>
<!-- Node4 -->
<g id="node4" class="node"><title>Node4</title>
<g id="a_node4"><a xlink:title="STL class. ">
<polygon fill="none" stroke="#bfbfbf" points="0.5,-157 0.5,-187 93.5,-187 93.5,-157 0.5,-157"/>
<text text-anchor="start" x="8.5" y="-175" font-family="FreeSans" font-size="10.00">std::basic_string&lt;</text>
<text text-anchor="middle" x="47" y="-164" font-family="FreeSans" font-size="10.00"> char &gt;</text>
</a>
</g>
</g>
<!-- Node4&#45;&gt;Node3 -->
<g id="edge3" class="edge"><title>Node4&#45;&gt;Node3</title>
<path fill="none" stroke="midnightblue" d="M103.885,-172C113.778,-172 123.695,-172 132.425,-172"/>
<polygon fill="midnightblue" stroke="midnightblue" points="103.636,-168.5 93.6357,-172 103.636,-175.5 103.636,-168.5"/>
</g>
<!-- Node5&#45;&gt;Node1 -->
<g id="edge4" class="edge"><title>Node5&#45;&gt;Node1</title>
<path fill="none" stroke="#9a32cd" stroke-dasharray="5,2" d="M734.997,-99.2493C697.795,-91.3017 649.294,-80.9402 614.52,-73.5112"/>
<polygon fill="#9a32cd" stroke="#9a32cd" points="734.658,-102.756 745.169,-101.422 736.121,-95.9104 734.658,-102.756"/>
<text text-anchor="middle" x="675" y="-94" font-family="FreeSans" font-size="10.00"> mymanager</text>
</g>
<!-- Node6&#45;&gt;Node5 -->
<g id="edge5" class="edge"><title>Node6&#45;&gt;Node5</title>
<path fill="none" stroke="midnightblue" d="M637.445,-120.015C663.651,-118.466 693.666,-116.692 720.101,-115.13"/>
<polygon fill="midnightblue" stroke="midnightblue" points="637.004,-116.534 627.228,-120.618 637.417,-123.522 637.004,-116.534"/>
</g>
<!-- Node7 -->
<g id="node7" class="node"><title>Node7</title>
<polygon fill="none" stroke="#bfbfbf" points="277.5,-98.5 277.5,-117.5 394.5,-117.5 394.5,-98.5 277.5,-98.5"/>
<text text-anchor="middle" x="336" y="-105.5" font-family="FreeSans" font-size="10.00">std::vector&lt; unsigned &gt;</text>
</g>
<!-- Node7&#45;&gt;Node6 -->
<g id="edge7" class="edge"><title>Node7&#45;&gt;Node6</title>
<path fill="none" stroke="#9a32cd" stroke-dasharray="5,2" d="M404.896,-112.703C438.493,-115.03 478.603,-117.808 510.64,-120.027"/>
<polygon fill="#9a32cd" stroke="#9a32cd" points="404.913,-109.196 394.695,-111.996 404.429,-116.179 404.913,-109.196"/>
<text text-anchor="middle" x="452" y="-121" font-family="FreeSans" font-size="10.00"> recomoduleindex</text>
</g>
<!-- Node8&#45;&gt;Node6 -->
<g id="edge9" class="edge"><title>Node8&#45;&gt;Node6</title>
<path fill="none" stroke="#9a32cd" stroke-dasharray="5,2" d="M406.348,-186.904C433.02,-183.213 463.43,-177.333 490,-168 514.204,-159.498 539.61,-143.677 554.614,-133.504"/>
<polygon fill="#9a32cd" stroke="#9a32cd" points="405.787,-183.447 396.324,-188.214 406.694,-190.388 405.787,-183.447"/>
<text text-anchor="middle" x="452" y="-188" font-family="FreeSans" font-size="10.00"> EventSelectors</text>
</g>
<!-- Node9 -->
<g id="node9" class="node"><title>Node9</title>
<polygon fill="none" stroke="#bfbfbf" points="285.5,-0.5 285.5,-41.5 386.5,-41.5 386.5,-0.5 285.5,-0.5"/>
<text text-anchor="start" x="293.5" y="-29.5" font-family="FreeSans" font-size="10.00">std::map&lt; int, boost</text>
<text text-anchor="start" x="293.5" y="-18.5" font-family="FreeSans" font-size="10.00">::numeric::interval&lt;</text>
<text text-anchor="middle" x="336" y="-7.5" font-family="FreeSans" font-size="10.00"> int &gt; &gt;</text>
</g>
<!-- Node9&#45;&gt;Node1 -->
<g id="edge13" class="edge"><title>Node9&#45;&gt;Node1</title>
<path fill="none" stroke="#9a32cd" stroke-dasharray="5,2" d="M396.782,-26.6159C425.199,-29.8445 459.538,-34.5594 490,-41 506.575,-44.5046 524.75,-49.7773 539.382,-54.3905"/>
<polygon fill="#9a32cd" stroke="#9a32cd" points="396.923,-23.1102 386.599,-25.4932 396.155,-30.068 396.923,-23.1102"/>
<text text-anchor="middle" x="452" y="-55" font-family="FreeSans" font-size="10.00"> addpktrange</text>
<text text-anchor="middle" x="452" y="-44" font-family="FreeSans" font-size="10.00">droppktrange</text>
</g>
</g>
</svg>
