<?xml version="1.0" encoding="UTF-8" standalone="no"?>
<!DOCTYPE svg PUBLIC "-//W3C//DTD SVG 1.1//EN"
 "http://www.w3.org/Graphics/SVG/1.1/DTD/svg11.dtd">
<!-- Generated by graphviz version 2.36.0 (20140111.2315)
 -->
<!-- Title: PHIOManager::setEventNumber Pages: 1 -->
<svg width="534pt" height="87pt"
 viewBox="0.00 0.00 534.00 87.00" xmlns="http://www.w3.org/2000/svg" xmlns:xlink="http://www.w3.org/1999/xlink">
<g id="graph0" class="graph" transform="scale(1 1) rotate(0) translate(4 83)">
<title>PHIOManager::setEventNumber</title>
<!-- Node1 -->
<g id="node1" class="node"><title>Node1</title>
<polygon fill="#bfbfbf" stroke="black" points="0,-29.5 0,-48.5 156,-48.5 156,-29.5 0,-29.5"/>
<text text-anchor="middle" x="78" y="-36.5" font-family="FreeSans" font-size="10.00">PHIOManager::setEventNumber</text>
</g>
<!-- Node2 -->
<g id="node2" class="node"><title>Node2</title>
<g id="a_node2"><a xlink:href="../../d7/d0b/classFun4AllDstInputManager.html#a8245204030490e70ef8658cf1b6794d5" target="_top" xlink:title="Fun4AllDstInputManager\l::PushBackEvents">
<polygon fill="none" stroke="black" points="200,-49 200,-79 324,-79 324,-49 200,-49"/>
<text text-anchor="start" x="208" y="-67" font-family="FreeSans" font-size="10.00">Fun4AllDstInputManager</text>
<text text-anchor="middle" x="262" y="-56" font-family="FreeSans" font-size="10.00">::PushBackEvents</text>
</a>
</g>
</g>
<!-- Node1&#45;&gt;Node2 -->
<g id="edge1" class="edge"><title>Node1&#45;&gt;Node2</title>
<path fill="none" stroke="midnightblue" d="M158.376,-49.9033C172.295,-51.8152 186.582,-53.7778 199.907,-55.6081"/>
<polygon fill="midnightblue" stroke="midnightblue" points="158.709,-46.4162 148.326,-48.5227 157.756,-53.3511 158.709,-46.4162"/>
</g>
<!-- Node5 -->
<g id="node5" class="node"><title>Node5</title>
<g id="a_node5"><a xlink:href="../../d7/d0b/classFun4AllDstInputManager.html#ade26017b627e0e1f1ec0dec62ac7fd52" target="_top" xlink:title="Fun4AllDstInputManager\l::ReadNextEventSyncObject">
<polygon fill="none" stroke="black" points="192.5,-0 192.5,-30 331.5,-30 331.5,-0 192.5,-0"/>
<text text-anchor="start" x="200.5" y="-18" font-family="FreeSans" font-size="10.00">Fun4AllDstInputManager</text>
<text text-anchor="middle" x="262" y="-7" font-family="FreeSans" font-size="10.00">::ReadNextEventSyncObject</text>
</a>
</g>
</g>
<!-- Node1&#45;&gt;Node5 -->
<g id="edge4" class="edge"><title>Node1&#45;&gt;Node5</title>
<path fill="none" stroke="midnightblue" d="M161.156,-28.1662C171.618,-26.7867 182.236,-25.3864 192.452,-24.0392"/>
<polygon fill="midnightblue" stroke="midnightblue" points="160.649,-24.7027 151.193,-29.4801 161.564,-31.6426 160.649,-24.7027"/>
</g>
<!-- Node3 -->
<g id="node3" class="node"><title>Node3</title>
<g id="a_node3"><a xlink:href="../../dd/df1/classFun4AllNoSyncDstInputManager.html#a1bbc8ee6a94e265a5790e2ff5c365650" target="_top" xlink:title="Fun4AllNoSyncDstInputManager\l::NoSyncPushBackEvents">
<polygon fill="none" stroke="black" points="368,-49 368,-79 526,-79 526,-49 368,-49"/>
<text text-anchor="start" x="376" y="-67" font-family="FreeSans" font-size="10.00">Fun4AllNoSyncDstInputManager</text>
<text text-anchor="middle" x="447" y="-56" font-family="FreeSans" font-size="10.00">::NoSyncPushBackEvents</text>
</a>
</g>
</g>
<!-- Node2&#45;&gt;Node3 -->
<g id="edge2" class="edge"><title>Node2&#45;&gt;Node3</title>
<path fill="none" stroke="midnightblue" d="M334.21,-64C345.27,-64 356.745,-64 367.946,-64"/>
<polygon fill="midnightblue" stroke="midnightblue" points="334.191,-60.5001 324.191,-64 334.191,-67.5001 334.191,-60.5001"/>
</g>
<!-- Node4 -->
<g id="node4" class="node"><title>Node4</title>
<g id="a_node4"><a xlink:href="../../d7/d0b/classFun4AllDstInputManager.html#a0244c2edbaa2350038304b09f352c2d0" target="_top" xlink:title="Fun4AllDstInputManager\l::SyncIt">
<polygon fill="none" stroke="black" points="385,-0 385,-30 509,-30 509,-0 385,-0"/>
<text text-anchor="start" x="393" y="-18" font-family="FreeSans" font-size="10.00">Fun4AllDstInputManager</text>
<text text-anchor="middle" x="447" y="-7" font-family="FreeSans" font-size="10.00">::SyncIt</text>
</a>
</g>
</g>
<!-- Node2&#45;&gt;Node4 -->
<g id="edge3" class="edge"><title>Node2&#45;&gt;Node4</title>
<path fill="none" stroke="midnightblue" d="M329.285,-46.2515C349.119,-40.9409 370.667,-35.1712 389.787,-30.0516"/>
<polygon fill="midnightblue" stroke="midnightblue" points="328.154,-42.9311 319.399,-48.8986 329.964,-49.6929 328.154,-42.9311"/>
</g>
<!-- Node5&#45;&gt;Node4 -->
<g id="edge5" class="edge"><title>Node5&#45;&gt;Node4</title>
<path fill="none" stroke="midnightblue" d="M341.999,-15C356.323,-15 371.064,-15 384.781,-15"/>
<polygon fill="midnightblue" stroke="midnightblue" points="341.663,-11.5001 331.663,-15 341.663,-18.5001 341.663,-11.5001"/>
</g>
</g>
</svg>
