<?xml version="1.0" encoding="UTF-8" standalone="no"?>
<!DOCTYPE svg PUBLIC "-//W3C//DTD SVG 1.1//EN"
 "http://www.w3.org/Graphics/SVG/1.1/DTD/svg11.dtd">
<!-- Generated by graphviz version 2.36.0 (20140111.2315)
 -->
<!-- Title: fun4all/fun4all/Fun4AllHistoManager.h Pages: 1 -->
<svg width="257pt" height="152pt"
 viewBox="0.00 0.00 257.00 152.00" xmlns="http://www.w3.org/2000/svg" xmlns:xlink="http://www.w3.org/1999/xlink">
<g id="graph0" class="graph" transform="scale(1 1) rotate(0) translate(4 148)">
<title>fun4all/fun4all/Fun4AllHistoManager.h</title>
<!-- Node1 -->
<g id="node1" class="node"><title>Node1</title>
<polygon fill="#bfbfbf" stroke="black" points="58,-113 58,-143 194,-143 194,-113 58,-113"/>
<text text-anchor="start" x="66" y="-131" font-family="FreeSans" font-size="10.00">fun4all/fun4all/Fun4AllHisto</text>
<text text-anchor="middle" x="126" y="-120" font-family="FreeSans" font-size="10.00">Manager.h</text>
</g>
<!-- Node2 -->
<g id="node2" class="node"><title>Node2</title>
<g id="a_node2"><a xlink:href="../../d2/de7/Fun4AllBase_8h.html" target="_top" xlink:title="Fun4AllBase.h">
<polygon fill="none" stroke="black" points="44,-56.5 44,-75.5 124,-75.5 124,-56.5 44,-56.5"/>
<text text-anchor="middle" x="84" y="-63.5" font-family="FreeSans" font-size="10.00">Fun4AllBase.h</text>
</a>
</g>
</g>
<!-- Node1&#45;&gt;Node2 -->
<g id="edge1" class="edge"><title>Node1&#45;&gt;Node2</title>
<path fill="none" stroke="midnightblue" d="M116.047,-112.781C110.006,-104.152 102.262,-93.0882 95.8991,-83.9987"/>
<polygon fill="midnightblue" stroke="midnightblue" points="98.7134,-81.9157 90.1114,-75.7305 92.9787,-85.93 98.7134,-81.9157"/>
</g>
<!-- Node3 -->
<g id="node3" class="node"><title>Node3</title>
<polygon fill="none" stroke="#bfbfbf" points="-0.5,-0.5 -0.5,-19.5 40.5,-19.5 40.5,-0.5 -0.5,-0.5"/>
<text text-anchor="middle" x="20" y="-7.5" font-family="FreeSans" font-size="10.00">string</text>
</g>
<!-- Node1&#45;&gt;Node3 -->
<g id="edge6" class="edge"><title>Node1&#45;&gt;Node3</title>
<path fill="none" stroke="midnightblue" d="M84.9631,-112.793C67.1269,-104.647 47.4944,-92.6632 35,-76 25.1212,-62.8251 21.5888,-44.2335 20.4005,-30.3066"/>
<polygon fill="midnightblue" stroke="midnightblue" points="23.8757,-29.7331 19.8658,-19.9264 16.8849,-30.0933 23.8757,-29.7331"/>
</g>
<!-- Node5 -->
<g id="node5" class="node"><title>Node5</title>
<polygon fill="none" stroke="#bfbfbf" points="142,-56.5 142,-75.5 196,-75.5 196,-56.5 142,-56.5"/>
<text text-anchor="middle" x="169" y="-63.5" font-family="FreeSans" font-size="10.00">iostream</text>
</g>
<!-- Node1&#45;&gt;Node5 -->
<g id="edge4" class="edge"><title>Node1&#45;&gt;Node5</title>
<path fill="none" stroke="midnightblue" d="M136.19,-112.781C142.374,-104.152 150.303,-93.0882 156.818,-83.9987"/>
<polygon fill="midnightblue" stroke="midnightblue" points="159.763,-85.8976 162.743,-75.7305 154.073,-81.8199 159.763,-85.8976"/>
</g>
<!-- Node6 -->
<g id="node6" class="node"><title>Node6</title>
<polygon fill="none" stroke="#bfbfbf" points="214.5,-56.5 214.5,-75.5 249.5,-75.5 249.5,-56.5 214.5,-56.5"/>
<text text-anchor="middle" x="232" y="-63.5" font-family="FreeSans" font-size="10.00">map</text>
</g>
<!-- Node1&#45;&gt;Node6 -->
<g id="edge5" class="edge"><title>Node1&#45;&gt;Node6</title>
<path fill="none" stroke="midnightblue" d="M150.852,-112.933C168.097,-103.171 190.942,-90.2401 207.999,-80.5856"/>
<polygon fill="midnightblue" stroke="midnightblue" points="209.828,-83.572 216.807,-75.6 206.38,-77.4802 209.828,-83.572"/>
</g>
<!-- Node2&#45;&gt;Node3 -->
<g id="edge2" class="edge"><title>Node2&#45;&gt;Node3</title>
<path fill="none" stroke="midnightblue" d="M73.7173,-56.324C64.1637,-48.2631 49.7203,-36.0765 38.2157,-26.3695"/>
<polygon fill="midnightblue" stroke="midnightblue" points="40.3698,-23.6076 30.4698,-19.8339 35.8557,-28.9577 40.3698,-23.6076"/>
</g>
<!-- Node4 -->
<g id="node4" class="node"><title>Node4</title>
<polygon fill="none" stroke="#bfbfbf" points="61.5,-0.5 61.5,-19.5 106.5,-19.5 106.5,-0.5 61.5,-0.5"/>
<text text-anchor="middle" x="84" y="-7.5" font-family="FreeSans" font-size="10.00">climits</text>
</g>
<!-- Node2&#45;&gt;Node4 -->
<g id="edge3" class="edge"><title>Node2&#45;&gt;Node4</title>
<path fill="none" stroke="midnightblue" d="M84,-56.083C84,-49.0059 84,-38.8611 84,-29.9865"/>
<polygon fill="midnightblue" stroke="midnightblue" points="87.5001,-29.751 84,-19.7511 80.5001,-29.7511 87.5001,-29.751"/>
</g>
</g>
</svg>
