<?xml version="1.0" encoding="UTF-8" standalone="no"?>
<!DOCTYPE svg PUBLIC "-//W3C//DTD SVG 1.1//EN"
 "http://www.w3.org/Graphics/SVG/1.1/DTD/svg11.dtd">
<!-- Generated by graphviz version 2.36.0 (20140111.2315)
 -->
<!-- Title: fun4all/ffaobjects/EventHeader.h Pages: 1 -->
<svg width="212pt" height="176pt"
 viewBox="0.00 0.00 212.00 176.00" xmlns="http://www.w3.org/2000/svg" xmlns:xlink="http://www.w3.org/1999/xlink">
<g id="graph0" class="graph" transform="scale(1 1) rotate(0) translate(4 172)">
<title>fun4all/ffaobjects/EventHeader.h</title>
<!-- Node1 -->
<g id="node1" class="node"><title>Node1</title>
<polygon fill="#bfbfbf" stroke="black" points="55,-137 55,-167 145,-167 145,-137 55,-137"/>
<text text-anchor="start" x="63" y="-155" font-family="FreeSans" font-size="10.00">fun4all/ffaobjects</text>
<text text-anchor="middle" x="100" y="-144" font-family="FreeSans" font-size="10.00">/EventHeader.h</text>
</g>
<!-- Node2 -->
<g id="node2" class="node"><title>Node2</title>
<g id="a_node2"><a xlink:href="../../d9/d79/EventHeader_8cc.html" target="_top" xlink:title="fun4all/ffaobjects\l/EventHeader.cc">
<polygon fill="none" stroke="black" points="0,-69 0,-99 90,-99 90,-69 0,-69"/>
<text text-anchor="start" x="8" y="-87" font-family="FreeSans" font-size="10.00">fun4all/ffaobjects</text>
<text text-anchor="middle" x="45" y="-76" font-family="FreeSans" font-size="10.00">/EventHeader.cc</text>
</a>
</g>
</g>
<!-- Node1&#45;&gt;Node2 -->
<g id="edge1" class="edge"><title>Node1&#45;&gt;Node2</title>
<path fill="none" stroke="midnightblue" d="M81.5844,-128.901C73.4468,-119.136 64.1136,-107.936 56.9109,-99.2931"/>
<polygon fill="midnightblue" stroke="midnightblue" points="78.9752,-131.237 88.0658,-136.679 84.3527,-126.756 78.9752,-131.237"/>
</g>
<!-- Node3 -->
<g id="node3" class="node"><title>Node3</title>
<g id="a_node3"><a xlink:href="../../d0/db4/EventHeaderv1_8h.html" target="_top" xlink:title="fun4all/ffaobjects\l/EventHeaderv1.h">
<polygon fill="none" stroke="black" points="108,-69 108,-99 202,-99 202,-69 108,-69"/>
<text text-anchor="start" x="116" y="-87" font-family="FreeSans" font-size="10.00">fun4all/ffaobjects</text>
<text text-anchor="middle" x="155" y="-76" font-family="FreeSans" font-size="10.00">/EventHeaderv1.h</text>
</a>
</g>
</g>
<!-- Node1&#45;&gt;Node3 -->
<g id="edge2" class="edge"><title>Node1&#45;&gt;Node3</title>
<path fill="none" stroke="midnightblue" d="M118.416,-128.901C126.553,-119.136 135.886,-107.936 143.089,-99.2931"/>
<polygon fill="midnightblue" stroke="midnightblue" points="115.647,-126.756 111.934,-136.679 121.025,-131.237 115.647,-126.756"/>
</g>
<!-- Node4 -->
<g id="node4" class="node"><title>Node4</title>
<g id="a_node4"><a xlink:href="../../da/d01/EventHeaderv1_8cc.html" target="_top" xlink:title="fun4all/ffaobjects\l/EventHeaderv1.cc">
<polygon fill="none" stroke="black" points="105.5,-1 105.5,-31 204.5,-31 204.5,-1 105.5,-1"/>
<text text-anchor="start" x="113.5" y="-19" font-family="FreeSans" font-size="10.00">fun4all/ffaobjects</text>
<text text-anchor="middle" x="155" y="-8" font-family="FreeSans" font-size="10.00">/EventHeaderv1.cc</text>
</a>
</g>
</g>
<!-- Node3&#45;&gt;Node4 -->
<g id="edge3" class="edge"><title>Node3&#45;&gt;Node4</title>
<path fill="none" stroke="midnightblue" d="M155,-58.5322C155,-49.3606 155,-39.2449 155,-31.2931"/>
<polygon fill="midnightblue" stroke="midnightblue" points="151.5,-58.6789 155,-68.679 158.5,-58.679 151.5,-58.6789"/>
</g>
</g>
</svg>
