<?xml version="1.0" encoding="UTF-8" standalone="no"?>
<!DOCTYPE svg PUBLIC "-//W3C//DTD SVG 1.1//EN"
 "http://www.w3.org/Graphics/SVG/1.1/DTD/svg11.dtd">
<!-- Generated by graphviz version 2.36.0 (20140111.2315)
 -->
<!-- Title: fun4all/fun4all/Fun4AllUtils.h Pages: 1 -->
<svg width="303pt" height="96pt"
 viewBox="0.00 0.00 303.00 96.00" xmlns="http://www.w3.org/2000/svg" xmlns:xlink="http://www.w3.org/1999/xlink">
<g id="graph0" class="graph" transform="scale(1 1) rotate(0) translate(4 92)">
<title>fun4all/fun4all/Fun4AllUtils.h</title>
<!-- Node1 -->
<g id="node1" class="node"><title>Node1</title>
<polygon fill="#bfbfbf" stroke="black" points="73,-68.5 73,-87.5 213,-87.5 213,-68.5 73,-68.5"/>
<text text-anchor="middle" x="143" y="-75.5" font-family="FreeSans" font-size="10.00">fun4all/fun4all/Fun4AllUtils.h</text>
</g>
<!-- Node2 -->
<g id="node2" class="node"><title>Node2</title>
<g id="a_node2"><a xlink:href="../../da/d7b/Fun4AllPrdfInputManager_8cc.html" target="_top" xlink:title="fun4all/fun4all/Fun4AllPrdf\lInputManager.cc">
<polygon fill="none" stroke="black" points="-0.5,-1 -0.5,-31 130.5,-31 130.5,-1 -0.5,-1"/>
<text text-anchor="start" x="7.5" y="-19" font-family="FreeSans" font-size="10.00">fun4all/fun4all/Fun4AllPrdf</text>
<text text-anchor="middle" x="65" y="-8" font-family="FreeSans" font-size="10.00">InputManager.cc</text>
</a>
</g>
</g>
<!-- Node1&#45;&gt;Node2 -->
<g id="edge1" class="edge"><title>Node1&#45;&gt;Node2</title>
<path fill="none" stroke="midnightblue" d="M123.592,-62.0711C111.293,-52.6097 95.4806,-40.4466 83.3831,-31.1408"/>
<polygon fill="midnightblue" stroke="midnightblue" points="121.764,-65.0805 131.825,-68.4035 126.032,-59.5321 121.764,-65.0805"/>
</g>
<!-- Node3 -->
<g id="node3" class="node"><title>Node3</title>
<g id="a_node3"><a xlink:href="../../d9/df9/Fun4AllUtils_8cc.html" target="_top" xlink:title="fun4all/fun4all/Fun4AllUtils.cc">
<polygon fill="none" stroke="black" points="149,-6.5 149,-25.5 295,-25.5 295,-6.5 149,-6.5"/>
<text text-anchor="middle" x="222" y="-13.5" font-family="FreeSans" font-size="10.00">fun4all/fun4all/Fun4AllUtils.cc</text>
</a>
</g>
</g>
<!-- Node1&#45;&gt;Node3 -->
<g id="edge2" class="edge"><title>Node1&#45;&gt;Node3</title>
<path fill="none" stroke="midnightblue" d="M162.526,-62.1702C177.68,-50.6608 198.157,-35.1086 210.702,-25.5806"/>
<polygon fill="midnightblue" stroke="midnightblue" points="160.165,-59.5679 154.319,-68.4035 164.399,-65.1424 160.165,-59.5679"/>
</g>
</g>
</svg>
