<?xml version="1.0" encoding="UTF-8" standalone="no"?>
<!DOCTYPE svg PUBLIC "-//W3C//DTD SVG 1.1//EN"
 "http://www.w3.org/Graphics/SVG/1.1/DTD/svg11.dtd">
<!-- Generated by graphviz version 2.36.0 (20140111.2315)
 -->
<!-- Title: fun4all/fun4all/PHTFileServer.h Pages: 1 -->
<svg width="310pt" height="84pt"
 viewBox="0.00 0.00 310.00 84.00" xmlns="http://www.w3.org/2000/svg" xmlns:xlink="http://www.w3.org/1999/xlink">
<g id="graph0" class="graph" transform="scale(1 1) rotate(0) translate(4 80)">
<title>fun4all/fun4all/PHTFileServer.h</title>
<!-- Node1 -->
<g id="node1" class="node"><title>Node1</title>
<polygon fill="#bfbfbf" stroke="black" points="76,-56.5 76,-75.5 228,-75.5 228,-56.5 76,-56.5"/>
<text text-anchor="middle" x="152" y="-63.5" font-family="FreeSans" font-size="10.00">fun4all/fun4all/PHTFileServer.h</text>
</g>
<!-- Node2 -->
<g id="node2" class="node"><title>Node2</title>
<polygon fill="none" stroke="#bfbfbf" points="0,-0.5 0,-19.5 54,-19.5 54,-0.5 0,-0.5"/>
<text text-anchor="middle" x="27" y="-7.5" font-family="FreeSans" font-size="10.00">iostream</text>
</g>
<!-- Node1&#45;&gt;Node2 -->
<g id="edge1" class="edge"><title>Node1&#45;&gt;Node2</title>
<path fill="none" stroke="midnightblue" d="M132.193,-56.4435C111.713,-47.5961 79.5173,-33.6875 56.1353,-23.5865"/>
<polygon fill="midnightblue" stroke="midnightblue" points="57.282,-20.2692 46.714,-19.5164 54.5059,-26.6953 57.282,-20.2692"/>
</g>
<!-- Node3 -->
<g id="node3" class="node"><title>Node3</title>
<polygon fill="none" stroke="#bfbfbf" points="72.5,-0.5 72.5,-19.5 107.5,-19.5 107.5,-0.5 72.5,-0.5"/>
<text text-anchor="middle" x="90" y="-7.5" font-family="FreeSans" font-size="10.00">map</text>
</g>
<!-- Node1&#45;&gt;Node3 -->
<g id="edge2" class="edge"><title>Node1&#45;&gt;Node3</title>
<path fill="none" stroke="midnightblue" d="M142.039,-56.324C132.873,-48.3414 119.063,-36.3128 107.972,-26.6529"/>
<polygon fill="midnightblue" stroke="midnightblue" points="109.982,-23.7624 100.143,-19.8339 105.385,-29.041 109.982,-23.7624"/>
</g>
<!-- Node4 -->
<g id="node4" class="node"><title>Node4</title>
<polygon fill="none" stroke="#bfbfbf" points="126,-0.5 126,-19.5 178,-19.5 178,-0.5 126,-0.5"/>
<text text-anchor="middle" x="152" y="-7.5" font-family="FreeSans" font-size="10.00">sstream</text>
</g>
<!-- Node1&#45;&gt;Node4 -->
<g id="edge3" class="edge"><title>Node1&#45;&gt;Node4</title>
<path fill="none" stroke="midnightblue" d="M152,-56.083C152,-49.0059 152,-38.8611 152,-29.9865"/>
<polygon fill="midnightblue" stroke="midnightblue" points="155.5,-29.751 152,-19.7511 148.5,-29.7511 155.5,-29.751"/>
</g>
<!-- Node5 -->
<g id="node5" class="node"><title>Node5</title>
<polygon fill="none" stroke="#bfbfbf" points="196.5,-0.5 196.5,-19.5 237.5,-19.5 237.5,-0.5 196.5,-0.5"/>
<text text-anchor="middle" x="217" y="-7.5" font-family="FreeSans" font-size="10.00">string</text>
</g>
<!-- Node1&#45;&gt;Node5 -->
<g id="edge4" class="edge"><title>Node1&#45;&gt;Node5</title>
<path fill="none" stroke="midnightblue" d="M162.443,-56.324C172.146,-48.2631 186.815,-36.0765 198.5,-26.3695"/>
<polygon fill="midnightblue" stroke="midnightblue" points="200.911,-28.9163 206.367,-19.8339 196.438,-23.532 200.911,-28.9163"/>
</g>
<!-- Node6 -->
<g id="node6" class="node"><title>Node6</title>
<polygon fill="none" stroke="#bfbfbf" points="256,-0.5 256,-19.5 302,-19.5 302,-0.5 256,-0.5"/>
<text text-anchor="middle" x="279" y="-7.5" font-family="FreeSans" font-size="10.00">TFile.h</text>
</g>
<!-- Node1&#45;&gt;Node6 -->
<g id="edge5" class="edge"><title>Node1&#45;&gt;Node6</title>
<path fill="none" stroke="midnightblue" d="M172.124,-56.4435C193.024,-47.5566 225.935,-33.5632 249.716,-23.4514"/>
<polygon fill="midnightblue" stroke="midnightblue" points="251.138,-26.6504 258.971,-19.5164 248.398,-20.2085 251.138,-26.6504"/>
</g>
</g>
</svg>
