<?xml version="1.0" encoding="UTF-8" standalone="no"?>
<!DOCTYPE svg PUBLIC "-//W3C//DTD SVG 1.1//EN"
 "http://www.w3.org/Graphics/SVG/1.1/DTD/svg11.dtd">
<!-- Generated by graphviz version 2.36.0 (20140111.2315)
 -->
<!-- Title: fun4all/phool/PHIODataNode.h Pages: 1 -->
<svg width="616pt" height="420pt"
 viewBox="0.00 0.00 616.00 420.00" xmlns="http://www.w3.org/2000/svg" xmlns:xlink="http://www.w3.org/1999/xlink">
<g id="graph0" class="graph" transform="scale(1 1) rotate(0) translate(4 416)">
<title>fun4all/phool/PHIODataNode.h</title>
<!-- Node1 -->
<g id="node1" class="node"><title>Node1</title>
<polygon fill="#bfbfbf" stroke="black" points="334,-392.5 334,-411.5 484,-411.5 484,-392.5 334,-392.5"/>
<text text-anchor="middle" x="409" y="-399.5" font-family="FreeSans" font-size="10.00">fun4all/phool/PHIODataNode.h</text>
</g>
<!-- Node2 -->
<g id="node2" class="node"><title>Node2</title>
<g id="a_node2"><a xlink:href="../../dd/d9b/PHDataNode_8h.html" target="_top" xlink:title="PHDataNode.h">
<polygon fill="none" stroke="black" points="0,-168.5 0,-187.5 82,-187.5 82,-168.5 0,-168.5"/>
<text text-anchor="middle" x="41" y="-175.5" font-family="FreeSans" font-size="10.00">PHDataNode.h</text>
</a>
</g>
</g>
<!-- Node1&#45;&gt;Node2 -->
<g id="edge1" class="edge"><title>Node1&#45;&gt;Node2</title>
<path fill="none" stroke="midnightblue" d="M333.951,-397.663C289.743,-392.846 234.202,-381.643 191,-356 122.929,-315.596 70.9726,-232.917 50.5048,-196.68"/>
<polygon fill="midnightblue" stroke="midnightblue" points="53.4788,-194.825 45.5796,-187.765 47.3516,-198.21 53.4788,-194.825"/>
</g>
<!-- Node7 -->
<g id="node7" class="node"><title>Node7</title>
<polygon fill="none" stroke="#bfbfbf" points="411.5,-56.5 411.5,-75.5 452.5,-75.5 452.5,-56.5 411.5,-56.5"/>
<text text-anchor="middle" x="432" y="-63.5" font-family="FreeSans" font-size="10.00">string</text>
</g>
<!-- Node1&#45;&gt;Node7 -->
<g id="edge30" class="edge"><title>Node1&#45;&gt;Node7</title>
<path fill="none" stroke="midnightblue" d="M417.74,-392.493C434.607,-375.117 470,-333.582 470,-291 470,-291 470,-291 470,-177 470,-142.813 453.4,-105.764 442.143,-84.5707"/>
<polygon fill="midnightblue" stroke="midnightblue" points="445.181,-82.832 437.284,-75.769 439.053,-86.2151 445.181,-82.832"/>
</g>
<!-- Node8 -->
<g id="node8" class="node"><title>Node8</title>
<g id="a_node8"><a xlink:href="../../d9/d53/PHIOManager_8h.html" target="_top" xlink:title="PHIOManager.h">
<polygon fill="none" stroke="black" points="318,-112.5 318,-131.5 404,-131.5 404,-112.5 318,-112.5"/>
<text text-anchor="middle" x="361" y="-119.5" font-family="FreeSans" font-size="10.00">PHIOManager.h</text>
</a>
</g>
</g>
<!-- Node1&#45;&gt;Node8 -->
<g id="edge8" class="edge"><title>Node1&#45;&gt;Node8</title>
<path fill="none" stroke="midnightblue" d="M400.26,-392.493C383.393,-375.117 348,-333.582 348,-291 348,-291 348,-291 348,-233 348,-200.576 353.639,-163.146 357.49,-141.369"/>
<polygon fill="midnightblue" stroke="midnightblue" points="360.935,-141.985 359.3,-131.517 354.05,-140.72 360.935,-141.985"/>
</g>
<!-- Node9 -->
<g id="node9" class="node"><title>Node9</title>
<g id="a_node9"><a xlink:href="../../dd/de7/PHNodeIOManager_8h.html" target="_top" xlink:title="PHNodeIOManager.h">
<polygon fill="none" stroke="black" points="498,-168.5 498,-187.5 608,-187.5 608,-168.5 498,-168.5"/>
<text text-anchor="middle" x="553" y="-175.5" font-family="FreeSans" font-size="10.00">PHNodeIOManager.h</text>
</a>
</g>
</g>
<!-- Node1&#45;&gt;Node9 -->
<g id="edge11" class="edge"><title>Node1&#45;&gt;Node9</title>
<path fill="none" stroke="midnightblue" d="M431.063,-392.446C447.623,-385.028 469.798,-372.825 484,-356 524.711,-307.769 543.114,-232.739 549.811,-197.927"/>
<polygon fill="midnightblue" stroke="midnightblue" points="553.314,-198.223 551.649,-187.76 546.426,-196.978 553.314,-198.223"/>
</g>
<!-- Node11 -->
<g id="node11" class="node"><title>Node11</title>
<g id="a_node11"><a xlink:href="../../db/d17/PHTypedNodeIterator_8h.html" target="_top" xlink:title="PHTypedNodeIterator.h">
<polygon fill="none" stroke="black" points="200.5,-336.5 200.5,-355.5 319.5,-355.5 319.5,-336.5 200.5,-336.5"/>
<text text-anchor="middle" x="260" y="-343.5" font-family="FreeSans" font-size="10.00">PHTypedNodeIterator.h</text>
</a>
</g>
</g>
<!-- Node1&#45;&gt;Node11 -->
<g id="edge15" class="edge"><title>Node1&#45;&gt;Node11</title>
<path fill="none" stroke="midnightblue" d="M385.391,-392.444C360.542,-383.438 321.226,-369.189 293.246,-359.049"/>
<polygon fill="midnightblue" stroke="midnightblue" points="294.093,-355.633 283.499,-355.516 291.708,-362.214 294.093,-355.633"/>
</g>
<!-- Node16 -->
<g id="node16" class="node"><title>Node16</title>
<g id="a_node16"><a xlink:href="../../de/da7/phooldefs_8h.html" target="_top" xlink:title="phooldefs.h">
<polygon fill="none" stroke="black" points="376,-224.5 376,-243.5 442,-243.5 442,-224.5 376,-224.5"/>
<text text-anchor="middle" x="409" y="-231.5" font-family="FreeSans" font-size="10.00">phooldefs.h</text>
</a>
</g>
</g>
<!-- Node1&#45;&gt;Node16 -->
<g id="edge27" class="edge"><title>Node1&#45;&gt;Node16</title>
<path fill="none" stroke="midnightblue" d="M409,-392.075C409,-365.945 409,-289.211 409,-253.577"/>
<polygon fill="midnightblue" stroke="midnightblue" points="412.5,-253.568 409,-243.568 405.5,-253.568 412.5,-253.568"/>
</g>
<!-- Node17 -->
<g id="node17" class="node"><title>Node17</title>
<polygon fill="none" stroke="#bfbfbf" points="536.5,-336.5 536.5,-355.5 595.5,-355.5 595.5,-336.5 536.5,-336.5"/>
<text text-anchor="middle" x="566" y="-343.5" font-family="FreeSans" font-size="10.00">TObject.h</text>
</g>
<!-- Node1&#45;&gt;Node17 -->
<g id="edge29" class="edge"><title>Node1&#45;&gt;Node17</title>
<path fill="none" stroke="midnightblue" d="M433.877,-392.444C460.289,-383.359 502.215,-368.939 531.742,-358.783"/>
<polygon fill="midnightblue" stroke="midnightblue" points="532.921,-362.079 541.239,-355.516 530.645,-355.459 532.921,-362.079"/>
</g>
<!-- Node3 -->
<g id="node3" class="node"><title>Node3</title>
<g id="a_node3"><a xlink:href="../../d3/d62/PHNode_8h.html" target="_top" xlink:title="PHNode.h">
<polygon fill="none" stroke="black" points="124,-112.5 124,-131.5 186,-131.5 186,-112.5 124,-112.5"/>
<text text-anchor="middle" x="155" y="-119.5" font-family="FreeSans" font-size="10.00">PHNode.h</text>
</a>
</g>
</g>
<!-- Node2&#45;&gt;Node3 -->
<g id="edge2" class="edge"><title>Node2&#45;&gt;Node3</title>
<path fill="none" stroke="midnightblue" d="M59.0636,-168.444C77.5748,-159.675 106.581,-145.935 127.855,-135.858"/>
<polygon fill="midnightblue" stroke="midnightblue" points="129.482,-138.96 137.021,-131.516 126.485,-132.634 129.482,-138.96"/>
</g>
<!-- Node5 -->
<g id="node5" class="node"><title>Node5</title>
<polygon fill="none" stroke="#bfbfbf" points="69,-0.5 69,-19.5 123,-19.5 123,-0.5 69,-0.5"/>
<text text-anchor="middle" x="96" y="-7.5" font-family="FreeSans" font-size="10.00">iostream</text>
</g>
<!-- Node2&#45;&gt;Node5 -->
<g id="edge7" class="edge"><title>Node2&#45;&gt;Node5</title>
<path fill="none" stroke="midnightblue" d="M43.957,-168.075C52.652,-141.832 78.2591,-64.5453 89.9975,-29.1165"/>
<polygon fill="midnightblue" stroke="midnightblue" points="93.3384,-30.1615 93.1612,-19.5681 86.6936,-27.9598 93.3384,-30.1615"/>
</g>
<!-- Node4 -->
<g id="node4" class="node"><title>Node4</title>
<g id="a_node4"><a xlink:href="../../d5/d6f/phool_8h.html" target="_top" xlink:title="phool.h">
<polygon fill="none" stroke="black" points="212.5,-56.5 212.5,-75.5 259.5,-75.5 259.5,-56.5 212.5,-56.5"/>
<text text-anchor="middle" x="236" y="-63.5" font-family="FreeSans" font-size="10.00">phool.h</text>
</a>
</g>
</g>
<!-- Node3&#45;&gt;Node4 -->
<g id="edge3" class="edge"><title>Node3&#45;&gt;Node4</title>
<path fill="none" stroke="midnightblue" d="M168.014,-112.324C180.532,-103.979 199.682,-91.2122 214.471,-81.3524"/>
<polygon fill="midnightblue" stroke="midnightblue" points="216.639,-84.1137 223.018,-75.6545 212.756,-78.2894 216.639,-84.1137"/>
</g>
<!-- Node6 -->
<g id="node6" class="node"><title>Node6</title>
<polygon fill="none" stroke="#bfbfbf" points="132.5,-56.5 132.5,-75.5 177.5,-75.5 177.5,-56.5 132.5,-56.5"/>
<text text-anchor="middle" x="155" y="-63.5" font-family="FreeSans" font-size="10.00">iosfwd</text>
</g>
<!-- Node3&#45;&gt;Node6 -->
<g id="edge5" class="edge"><title>Node3&#45;&gt;Node6</title>
<path fill="none" stroke="midnightblue" d="M155,-112.083C155,-105.006 155,-94.8611 155,-85.9865"/>
<polygon fill="midnightblue" stroke="midnightblue" points="158.5,-85.751 155,-75.7511 151.5,-85.7511 158.5,-85.751"/>
</g>
<!-- Node3&#45;&gt;Node7 -->
<g id="edge6" class="edge"><title>Node3&#45;&gt;Node7</title>
<path fill="none" stroke="midnightblue" d="M186.237,-114.91C239.826,-104.464 348.618,-83.255 401.615,-72.9234"/>
<polygon fill="midnightblue" stroke="midnightblue" points="402.293,-76.3573 411.438,-71.0085 400.953,-69.4867 402.293,-76.3573"/>
</g>
<!-- Node4&#45;&gt;Node5 -->
<g id="edge4" class="edge"><title>Node4&#45;&gt;Node5</title>
<path fill="none" stroke="midnightblue" d="M213.817,-56.4435C190.572,-47.4776 153.851,-33.314 127.585,-23.1827"/>
<polygon fill="midnightblue" stroke="midnightblue" points="128.669,-19.8497 118.08,-19.5164 126.15,-26.3807 128.669,-19.8497"/>
</g>
<!-- Node8&#45;&gt;Node4 -->
<g id="edge9" class="edge"><title>Node8&#45;&gt;Node4</title>
<path fill="none" stroke="midnightblue" d="M341.193,-112.444C320.713,-103.596 288.517,-89.6875 265.135,-79.5865"/>
<polygon fill="midnightblue" stroke="midnightblue" points="266.282,-76.2692 255.714,-75.5164 263.506,-82.6953 266.282,-76.2692"/>
</g>
<!-- Node8&#45;&gt;Node7 -->
<g id="edge10" class="edge"><title>Node8&#45;&gt;Node7</title>
<path fill="none" stroke="midnightblue" d="M372.407,-112.324C383.109,-104.185 399.341,-91.8395 412.163,-82.0874"/>
<polygon fill="midnightblue" stroke="midnightblue" points="414.544,-84.6734 420.385,-75.8339 410.307,-79.1018 414.544,-84.6734"/>
</g>
<!-- Node9&#45;&gt;Node7 -->
<g id="edge13" class="edge"><title>Node9&#45;&gt;Node7</title>
<path fill="none" stroke="midnightblue" d="M554.002,-168.369C555.086,-154.827 555.161,-128.44 542,-112 522.593,-87.7576 487.987,-76.4663 462.76,-71.2769"/>
<polygon fill="midnightblue" stroke="midnightblue" points="463.062,-67.7739 452.594,-69.4065 461.795,-74.6584 463.062,-67.7739"/>
</g>
<!-- Node9&#45;&gt;Node8 -->
<g id="edge12" class="edge"><title>Node9&#45;&gt;Node8</title>
<path fill="none" stroke="midnightblue" d="M522.577,-168.444C489.715,-159.201 437.215,-144.436 401.026,-134.257"/>
<polygon fill="midnightblue" stroke="midnightblue" points="401.855,-130.855 391.281,-131.516 399.96,-137.593 401.855,-130.855"/>
</g>
<!-- Node10 -->
<g id="node10" class="node"><title>Node10</title>
<polygon fill="none" stroke="#bfbfbf" points="498.5,-112.5 498.5,-131.5 533.5,-131.5 533.5,-112.5 498.5,-112.5"/>
<text text-anchor="middle" x="516" y="-119.5" font-family="FreeSans" font-size="10.00">map</text>
</g>
<!-- Node9&#45;&gt;Node10 -->
<g id="edge14" class="edge"><title>Node9&#45;&gt;Node10</title>
<path fill="none" stroke="midnightblue" d="M546.89,-168.083C541.718,-160.534 534.154,-149.495 527.806,-140.23"/>
<polygon fill="midnightblue" stroke="midnightblue" points="530.536,-138.022 521.996,-131.751 524.761,-141.979 530.536,-138.022"/>
</g>
<!-- Node12 -->
<g id="node12" class="node"><title>Node12</title>
<g id="a_node12"><a xlink:href="../../d8/dfd/PHNodeIterator_8h.html" target="_top" xlink:title="PHNodeIterator.h">
<polygon fill="none" stroke="black" points="160,-280.5 160,-299.5 252,-299.5 252,-280.5 160,-280.5"/>
<text text-anchor="middle" x="206" y="-287.5" font-family="FreeSans" font-size="10.00">PHNodeIterator.h</text>
</a>
</g>
</g>
<!-- Node11&#45;&gt;Node12 -->
<g id="edge16" class="edge"><title>Node11&#45;&gt;Node12</title>
<path fill="none" stroke="midnightblue" d="M251.083,-336.083C243.22,-328.22 231.569,-316.569 222.081,-307.081"/>
<polygon fill="midnightblue" stroke="midnightblue" points="224.297,-304.347 214.751,-299.751 219.347,-309.297 224.297,-304.347"/>
</g>
<!-- Node15 -->
<g id="node15" class="node"><title>Node15</title>
<polygon fill="none" stroke="#bfbfbf" points="270.5,-280.5 270.5,-299.5 319.5,-299.5 319.5,-280.5 270.5,-280.5"/>
<text text-anchor="middle" x="295" y="-287.5" font-family="FreeSans" font-size="10.00">cstddef</text>
</g>
<!-- Node11&#45;&gt;Node15 -->
<g id="edge26" class="edge"><title>Node11&#45;&gt;Node15</title>
<path fill="none" stroke="midnightblue" d="M265.78,-336.083C270.672,-328.534 277.827,-317.495 283.833,-308.23"/>
<polygon fill="midnightblue" stroke="midnightblue" points="286.826,-310.046 289.328,-299.751 280.952,-306.239 286.826,-310.046"/>
</g>
<!-- Node12&#45;&gt;Node4 -->
<g id="edge17" class="edge"><title>Node12&#45;&gt;Node4</title>
<path fill="none" stroke="midnightblue" d="M227.808,-280.447C242.945,-273.221 261.955,-261.264 271,-244 298.931,-190.692 265.225,-117.706 246.666,-84.6029"/>
<polygon fill="midnightblue" stroke="midnightblue" points="249.529,-82.563 241.478,-75.6759 243.477,-86.0805 249.529,-82.563"/>
</g>
<!-- Node13 -->
<g id="node13" class="node"><title>Node13</title>
<g id="a_node13"><a xlink:href="../../d8/d30/PHCompositeNode_8h.html" target="_top" xlink:title="PHCompositeNode.h">
<polygon fill="none" stroke="black" points="154,-224.5 154,-243.5 262,-243.5 262,-224.5 154,-224.5"/>
<text text-anchor="middle" x="208" y="-231.5" font-family="FreeSans" font-size="10.00">PHCompositeNode.h</text>
</a>
</g>
</g>
<!-- Node12&#45;&gt;Node13 -->
<g id="edge18" class="edge"><title>Node12&#45;&gt;Node13</title>
<path fill="none" stroke="midnightblue" d="M206.33,-280.083C206.592,-273.006 206.968,-262.861 207.297,-253.986"/>
<polygon fill="midnightblue" stroke="midnightblue" points="210.803,-253.874 207.676,-243.751 203.808,-253.615 210.803,-253.874"/>
</g>
<!-- Node14 -->
<g id="node14" class="node"><title>Node14</title>
<g id="a_node14"><a xlink:href="../../db/dd5/PHPointerList_8h.html" target="_top" xlink:title="PHPointerList.h">
<polygon fill="none" stroke="black" points="100,-168.5 100,-187.5 186,-187.5 186,-168.5 100,-168.5"/>
<text text-anchor="middle" x="143" y="-175.5" font-family="FreeSans" font-size="10.00">PHPointerList.h</text>
</a>
</g>
</g>
<!-- Node12&#45;&gt;Node14 -->
<g id="edge25" class="edge"><title>Node12&#45;&gt;Node14</title>
<path fill="none" stroke="midnightblue" d="M186.539,-280.488C172.255,-273.092 153.862,-260.899 145,-244 137.545,-229.783 137.754,-211.307 139.414,-197.689"/>
<polygon fill="midnightblue" stroke="midnightblue" points="142.905,-198.017 141.013,-187.592 135.991,-196.922 142.905,-198.017"/>
</g>
<!-- Node13&#45;&gt;Node3 -->
<g id="edge20" class="edge"><title>Node13&#45;&gt;Node3</title>
<path fill="none" stroke="midnightblue" d="M207.684,-224.118C206.91,-211.145 204.234,-186.543 195,-168 189.549,-157.052 180.725,-146.712 172.75,-138.711"/>
<polygon fill="midnightblue" stroke="midnightblue" points="174.876,-135.902 165.215,-131.553 170.055,-140.978 174.876,-135.902"/>
</g>
<!-- Node13&#45;&gt;Node4 -->
<g id="edge19" class="edge"><title>Node13&#45;&gt;Node4</title>
<path fill="none" stroke="midnightblue" d="M209.505,-224.075C213.913,-197.945 226.856,-121.211 232.867,-85.577"/>
<polygon fill="midnightblue" stroke="midnightblue" points="236.343,-86.011 234.555,-75.5681 229.44,-84.8467 236.343,-86.011"/>
</g>
<!-- Node13&#45;&gt;Node14 -->
<g id="edge21" class="edge"><title>Node13&#45;&gt;Node14</title>
<path fill="none" stroke="midnightblue" d="M197.557,-224.324C187.854,-216.263 173.185,-204.077 161.5,-194.369"/>
<polygon fill="midnightblue" stroke="midnightblue" points="163.562,-191.532 153.633,-187.834 159.089,-196.916 163.562,-191.532"/>
</g>
<!-- Node14&#45;&gt;Node3 -->
<g id="edge23" class="edge"><title>Node14&#45;&gt;Node3</title>
<path fill="none" stroke="midnightblue" d="M144.982,-168.083C146.572,-160.927 148.859,-150.635 150.846,-141.691"/>
<polygon fill="midnightblue" stroke="midnightblue" points="154.303,-142.272 153.055,-131.751 147.469,-140.754 154.303,-142.272"/>
</g>
<!-- Node14&#45;&gt;Node4 -->
<g id="edge22" class="edge"><title>Node14&#45;&gt;Node4</title>
<path fill="none" stroke="midnightblue" d="M154.348,-168.482C165.254,-159.967 181.828,-146.14 194,-132 206.837,-117.087 218.732,-97.9642 226.562,-84.3286"/>
<polygon fill="midnightblue" stroke="midnightblue" points="229.669,-85.9437 231.5,-75.5082 223.561,-82.5242 229.669,-85.9437"/>
</g>
<!-- Node14&#45;&gt;Node5 -->
<g id="edge24" class="edge"><title>Node14&#45;&gt;Node5</title>
<path fill="none" stroke="midnightblue" d="M136.06,-168.256C129.547,-159.574 120.069,-145.626 115,-132 102.128,-97.4032 97.9768,-54.0884 96.6376,-29.7872"/>
<polygon fill="midnightblue" stroke="midnightblue" points="100.121,-29.341 96.1803,-19.5064 93.1282,-29.6521 100.121,-29.341"/>
</g>
<!-- Node16&#45;&gt;Node7 -->
<g id="edge28" class="edge"><title>Node16&#45;&gt;Node7</title>
<path fill="none" stroke="midnightblue" d="M410.237,-224.075C413.857,-197.945 424.489,-121.211 429.426,-85.577"/>
<polygon fill="midnightblue" stroke="midnightblue" points="432.907,-85.9539 430.813,-75.5681 425.973,-84.9931 432.907,-85.9539"/>
</g>
</g>
</svg>
