<?xml version="1.0" encoding="UTF-8" standalone="no"?>
<!DOCTYPE svg PUBLIC "-//W3C//DTD SVG 1.1//EN"
 "http://www.w3.org/Graphics/SVG/1.1/DTD/svg11.dtd">
<!-- Generated by graphviz version 2.36.0 (20140111.2315)
 -->
<!-- Title: fun4all/phool/PHDataNode.h Pages: 1 -->
<svg width="245pt" height="196pt"
 viewBox="0.00 0.00 245.00 196.00" xmlns="http://www.w3.org/2000/svg" xmlns:xlink="http://www.w3.org/1999/xlink">
<g id="graph0" class="graph" transform="scale(1 1) rotate(0) translate(4 192)">
<title>fun4all/phool/PHDataNode.h</title>
<!-- Node1 -->
<g id="node1" class="node"><title>Node1</title>
<polygon fill="#bfbfbf" stroke="black" points="97,-168.5 97,-187.5 237,-187.5 237,-168.5 97,-168.5"/>
<text text-anchor="middle" x="167" y="-175.5" font-family="FreeSans" font-size="10.00">fun4all/phool/PHDataNode.h</text>
</g>
<!-- Node2 -->
<g id="node2" class="node"><title>Node2</title>
<g id="a_node2"><a xlink:href="../../d3/d62/PHNode_8h.html" target="_top" xlink:title="PHNode.h">
<polygon fill="none" stroke="black" points="81,-112.5 81,-131.5 143,-131.5 143,-112.5 81,-112.5"/>
<text text-anchor="middle" x="112" y="-119.5" font-family="FreeSans" font-size="10.00">PHNode.h</text>
</a>
</g>
</g>
<!-- Node1&#45;&gt;Node2 -->
<g id="edge1" class="edge"><title>Node1&#45;&gt;Node2</title>
<path fill="none" stroke="midnightblue" d="M157.918,-168.083C149.829,-160.141 137.805,-148.335 128.09,-138.797"/>
<polygon fill="midnightblue" stroke="midnightblue" points="130.501,-136.26 120.913,-131.751 125.597,-141.254 130.501,-136.26"/>
</g>
<!-- Node4 -->
<g id="node4" class="node"><title>Node4</title>
<polygon fill="none" stroke="#bfbfbf" points="83,-0.5 83,-19.5 137,-19.5 137,-0.5 83,-0.5"/>
<text text-anchor="middle" x="110" y="-7.5" font-family="FreeSans" font-size="10.00">iostream</text>
</g>
<!-- Node1&#45;&gt;Node4 -->
<g id="edge6" class="edge"><title>Node1&#45;&gt;Node4</title>
<path fill="none" stroke="midnightblue" d="M170.696,-168.444C179.045,-147.72 197.126,-93.761 177,-56 169.45,-41.8339 155.239,-31.3348 141.842,-24.0576"/>
<polygon fill="midnightblue" stroke="midnightblue" points="143.298,-20.8724 132.788,-19.5289 140.166,-27.1329 143.298,-20.8724"/>
</g>
<!-- Node3 -->
<g id="node3" class="node"><title>Node3</title>
<g id="a_node3"><a xlink:href="../../d5/d6f/phool_8h.html" target="_top" xlink:title="phool.h">
<polygon fill="none" stroke="black" points="-0.5,-56.5 -0.5,-75.5 46.5,-75.5 46.5,-56.5 -0.5,-56.5"/>
<text text-anchor="middle" x="23" y="-63.5" font-family="FreeSans" font-size="10.00">phool.h</text>
</a>
</g>
</g>
<!-- Node2&#45;&gt;Node3 -->
<g id="edge2" class="edge"><title>Node2&#45;&gt;Node3</title>
<path fill="none" stroke="midnightblue" d="M97.7006,-112.324C83.8171,-103.9 62.5076,-90.9709 46.1963,-81.0741"/>
<polygon fill="midnightblue" stroke="midnightblue" points="47.6289,-77.8495 37.2639,-75.6545 43.9978,-83.8341 47.6289,-77.8495"/>
</g>
<!-- Node5 -->
<g id="node5" class="node"><title>Node5</title>
<polygon fill="none" stroke="#bfbfbf" points="64.5,-56.5 64.5,-75.5 109.5,-75.5 109.5,-56.5 64.5,-56.5"/>
<text text-anchor="middle" x="87" y="-63.5" font-family="FreeSans" font-size="10.00">iosfwd</text>
</g>
<!-- Node2&#45;&gt;Node5 -->
<g id="edge4" class="edge"><title>Node2&#45;&gt;Node5</title>
<path fill="none" stroke="midnightblue" d="M107.872,-112.083C104.486,-104.77 99.584,-94.1814 95.3812,-85.1034"/>
<polygon fill="midnightblue" stroke="midnightblue" points="98.4289,-83.3553 91.0514,-75.7511 92.0766,-86.2962 98.4289,-83.3553"/>
</g>
<!-- Node6 -->
<g id="node6" class="node"><title>Node6</title>
<polygon fill="none" stroke="#bfbfbf" points="127.5,-56.5 127.5,-75.5 168.5,-75.5 168.5,-56.5 127.5,-56.5"/>
<text text-anchor="middle" x="148" y="-63.5" font-family="FreeSans" font-size="10.00">string</text>
</g>
<!-- Node2&#45;&gt;Node6 -->
<g id="edge5" class="edge"><title>Node2&#45;&gt;Node6</title>
<path fill="none" stroke="midnightblue" d="M117.945,-112.083C122.977,-104.534 130.337,-93.4948 136.513,-84.2298"/>
<polygon fill="midnightblue" stroke="midnightblue" points="139.531,-86.0131 142.166,-75.7511 133.707,-82.1301 139.531,-86.0131"/>
</g>
<!-- Node3&#45;&gt;Node4 -->
<g id="edge3" class="edge"><title>Node3&#45;&gt;Node4</title>
<path fill="none" stroke="midnightblue" d="M36.9781,-56.324C50.5496,-47.9002 71.3802,-34.9709 87.325,-25.0741"/>
<polygon fill="midnightblue" stroke="midnightblue" points="89.406,-27.9019 96.0566,-19.6545 85.7144,-21.9544 89.406,-27.9019"/>
</g>
</g>
</svg>
