<?xml version="1.0" encoding="UTF-8" standalone="no"?>
<!DOCTYPE svg PUBLIC "-//W3C//DTD SVG 1.1//EN"
 "http://www.w3.org/Graphics/SVG/1.1/DTD/svg11.dtd">
<!-- Generated by graphviz version 2.36.0 (20140111.2315)
 -->
<!-- Title: fun4all/fun4all/Fun4AllRolloverFileOutStream.cc Pages: 1 -->
<svg width="1216pt" height="320pt"
 viewBox="0.00 0.00 1216.23 320.00" xmlns="http://www.w3.org/2000/svg" xmlns:xlink="http://www.w3.org/1999/xlink">
<g id="graph0" class="graph" transform="scale(1 1) rotate(0) translate(4 316)">
<title>fun4all/fun4all/Fun4AllRolloverFileOutStream.cc</title>
<!-- Node1 -->
<g id="node1" class="node"><title>Node1</title>
<polygon fill="#bfbfbf" stroke="black" points="701.23,-281 701.23,-311 849.23,-311 849.23,-281 701.23,-281"/>
<text text-anchor="start" x="709.23" y="-299" font-family="FreeSans" font-size="10.00">fun4all/fun4all/Fun4AllRollover</text>
<text text-anchor="middle" x="775.23" y="-288" font-family="FreeSans" font-size="10.00">FileOutStream.cc</text>
</g>
<!-- Node2 -->
<g id="node2" class="node"><title>Node2</title>
<g id="a_node2"><a xlink:href="../../d8/d07/Fun4AllRolloverFileOutStream_8h.html" target="_top" xlink:title="Fun4AllRolloverFileOutStream.h">
<polygon fill="none" stroke="black" points="626.73,-224.5 626.73,-243.5 781.73,-243.5 781.73,-224.5 626.73,-224.5"/>
<text text-anchor="middle" x="704.23" y="-231.5" font-family="FreeSans" font-size="10.00">Fun4AllRolloverFileOutStream.h</text>
</a>
</g>
</g>
<!-- Node1&#45;&gt;Node2 -->
<g id="edge1" class="edge"><title>Node1&#45;&gt;Node2</title>
<path fill="none" stroke="midnightblue" d="M758.404,-280.781C747.555,-271.613 733.453,-259.696 722.357,-250.319"/>
<polygon fill="midnightblue" stroke="midnightblue" points="724.458,-247.512 714.561,-243.731 719.94,-252.858 724.458,-247.512"/>
</g>
<!-- Node13 -->
<g id="node13" class="node"><title>Node13</title>
<polygon fill="none" stroke="#bfbfbf" points="518.23,-56.5 518.23,-75.5 572.23,-75.5 572.23,-56.5 518.23,-56.5"/>
<text text-anchor="middle" x="545.23" y="-63.5" font-family="FreeSans" font-size="10.00">iostream</text>
</g>
<!-- Node1&#45;&gt;Node13 -->
<g id="edge41" class="edge"><title>Node1&#45;&gt;Node13</title>
<path fill="none" stroke="midnightblue" d="M700.915,-285.374C669.539,-278.213 634.314,-265.734 608.23,-244 559.615,-203.492 548.502,-122.729 545.971,-85.987"/>
<polygon fill="midnightblue" stroke="midnightblue" points="549.45,-85.5074 545.414,-75.7115 542.46,-85.8863 549.45,-85.5074"/>
</g>
<!-- Node14 -->
<g id="node14" class="node"><title>Node14</title>
<g id="a_node14"><a xlink:href="../../da/d34/Fun4AllEventOutputManager_8h.html" target="_top" xlink:title="Fun4AllEventOutputManager.h">
<polygon fill="none" stroke="black" points="-0.270393,-168.5 -0.270393,-187.5 148.73,-187.5 148.73,-168.5 -0.270393,-168.5"/>
<text text-anchor="middle" x="74.2296" y="-175.5" font-family="FreeSans" font-size="10.00">Fun4AllEventOutputManager.h</text>
</a>
</g>
</g>
<!-- Node1&#45;&gt;Node14 -->
<g id="edge16" class="edge"><title>Node1&#45;&gt;Node14</title>
<path fill="none" stroke="midnightblue" d="M701.205,-282.751C562.255,-259.757 264.79,-210.534 135.897,-189.205"/>
<polygon fill="midnightblue" stroke="midnightblue" points="136.239,-185.714 125.802,-187.534 135.097,-192.62 136.239,-185.714"/>
</g>
<!-- Node17 -->
<g id="node17" class="node"><title>Node17</title>
<g id="a_node17"><a xlink:href="../../dc/da2/Fun4AllServer_8h.html" target="_top" xlink:title="Fun4AllServer.h">
<polygon fill="none" stroke="black" points="349.23,-168.5 349.23,-187.5 435.23,-187.5 435.23,-168.5 349.23,-168.5"/>
<text text-anchor="middle" x="392.23" y="-175.5" font-family="FreeSans" font-size="10.00">Fun4AllServer.h</text>
</a>
</g>
</g>
<!-- Node1&#45;&gt;Node17 -->
<g id="edge22" class="edge"><title>Node1&#45;&gt;Node17</title>
<path fill="none" stroke="midnightblue" d="M701.108,-282.012C655.83,-273.214 597.056,-260.24 546.23,-244 500.333,-229.335 449.193,-206.352 418.916,-192.008"/>
<polygon fill="midnightblue" stroke="midnightblue" points="420.384,-188.83 409.852,-187.676 417.365,-195.146 420.384,-188.83"/>
</g>
<!-- Node22 -->
<g id="node22" class="node"><title>Node22</title>
<polygon fill="none" stroke="#bfbfbf" points="800.23,-224.5 800.23,-243.5 892.23,-243.5 892.23,-224.5 800.23,-224.5"/>
<text text-anchor="middle" x="846.23" y="-231.5" font-family="FreeSans" font-size="10.00">Event/ogzBuffer.h</text>
</g>
<!-- Node1&#45;&gt;Node22 -->
<g id="edge37" class="edge"><title>Node1&#45;&gt;Node22</title>
<path fill="none" stroke="midnightblue" d="M792.056,-280.781C802.905,-271.613 817.006,-259.696 828.103,-250.319"/>
<polygon fill="midnightblue" stroke="midnightblue" points="830.52,-252.858 835.898,-243.731 826.001,-247.512 830.52,-252.858"/>
</g>
<!-- Node23 -->
<g id="node23" class="node"><title>Node23</title>
<polygon fill="none" stroke="#bfbfbf" points="910.73,-224.5 910.73,-243.5 987.73,-243.5 987.73,-224.5 910.73,-224.5"/>
<text text-anchor="middle" x="949.23" y="-231.5" font-family="FreeSans" font-size="10.00">Event/Event.h</text>
</g>
<!-- Node1&#45;&gt;Node23 -->
<g id="edge38" class="edge"><title>Node1&#45;&gt;Node23</title>
<path fill="none" stroke="midnightblue" d="M816.025,-280.933C846.126,-270.553 886.622,-256.589 915.034,-246.792"/>
<polygon fill="midnightblue" stroke="midnightblue" points="916.23,-250.081 924.543,-243.513 913.948,-243.464 916.23,-250.081"/>
</g>
<!-- Node24 -->
<g id="node24" class="node"><title>Node24</title>
<g id="a_node24"><a xlink:href="../../d5/d6f/phool_8h.html" target="_top" xlink:title="phool/phool.h">
<polygon fill="none" stroke="black" points="588.23,-168.5 588.23,-187.5 662.23,-187.5 662.23,-168.5 588.23,-168.5"/>
<text text-anchor="middle" x="625.23" y="-175.5" font-family="FreeSans" font-size="10.00">phool/phool.h</text>
</a>
</g>
</g>
<!-- Node1&#45;&gt;Node24 -->
<g id="edge39" class="edge"><title>Node1&#45;&gt;Node24</title>
<path fill="none" stroke="midnightblue" d="M701.172,-289.854C670.017,-283.584 636.57,-270.565 617.23,-244 607.418,-230.522 611.47,-211.16 616.723,-197.076"/>
<polygon fill="midnightblue" stroke="midnightblue" points="620.093,-198.093 620.765,-187.519 613.646,-195.366 620.093,-198.093"/>
</g>
<!-- Node25 -->
<g id="node25" class="node"><title>Node25</title>
<polygon fill="none" stroke="#bfbfbf" points="1005.73,-224.5 1005.73,-243.5 1070.73,-243.5 1070.73,-224.5 1005.73,-224.5"/>
<text text-anchor="middle" x="1038.23" y="-231.5" font-family="FreeSans" font-size="10.00">sys/types.h</text>
</g>
<!-- Node1&#45;&gt;Node25 -->
<g id="edge42" class="edge"><title>Node1&#45;&gt;Node25</title>
<path fill="none" stroke="midnightblue" d="M836.891,-280.933C885.665,-269.806 952.496,-254.559 995.523,-244.743"/>
<polygon fill="midnightblue" stroke="midnightblue" points="996.42,-248.128 1005.39,-242.492 994.863,-241.304 996.42,-248.128"/>
</g>
<!-- Node26 -->
<g id="node26" class="node"><title>Node26</title>
<polygon fill="none" stroke="#bfbfbf" points="1088.73,-224.5 1088.73,-243.5 1147.73,-243.5 1147.73,-224.5 1088.73,-224.5"/>
<text text-anchor="middle" x="1118.23" y="-231.5" font-family="FreeSans" font-size="10.00">sys/stat.h</text>
</g>
<!-- Node1&#45;&gt;Node26 -->
<g id="edge43" class="edge"><title>Node1&#45;&gt;Node26</title>
<path fill="none" stroke="midnightblue" d="M849.484,-283.83C908.826,-274.607 994.345,-260.655 1078.47,-244.05"/>
<polygon fill="midnightblue" stroke="midnightblue" points="1079.33,-247.448 1088.46,-242.066 1077.97,-240.582 1079.33,-247.448"/>
</g>
<!-- Node27 -->
<g id="node27" class="node"><title>Node27</title>
<polygon fill="none" stroke="#bfbfbf" points="1165.73,-224.5 1165.73,-243.5 1208.73,-243.5 1208.73,-224.5 1165.73,-224.5"/>
<text text-anchor="middle" x="1187.23" y="-231.5" font-family="FreeSans" font-size="10.00">fcntl.h</text>
</g>
<!-- Node1&#45;&gt;Node27 -->
<g id="edge44" class="edge"><title>Node1&#45;&gt;Node27</title>
<path fill="none" stroke="midnightblue" d="M849.54,-288.372C924.477,-280.938 1043.54,-267.079 1155.53,-243.841"/>
<polygon fill="midnightblue" stroke="midnightblue" points="1156.59,-247.195 1165.65,-241.711 1155.15,-240.345 1156.59,-247.195"/>
</g>
<!-- Node3 -->
<g id="node3" class="node"><title>Node3</title>
<g id="a_node3"><a xlink:href="../../df/d18/Fun4AllFileOutStream_8h.html" target="_top" xlink:title="Fun4AllFileOutStream.h">
<polygon fill="none" stroke="black" points="680.23,-168.5 680.23,-187.5 800.23,-187.5 800.23,-168.5 680.23,-168.5"/>
<text text-anchor="middle" x="740.23" y="-175.5" font-family="FreeSans" font-size="10.00">Fun4AllFileOutStream.h</text>
</a>
</g>
</g>
<!-- Node2&#45;&gt;Node3 -->
<g id="edge2" class="edge"><title>Node2&#45;&gt;Node3</title>
<path fill="none" stroke="midnightblue" d="M710.174,-224.083C715.207,-216.534 722.566,-205.495 728.743,-196.23"/>
<polygon fill="midnightblue" stroke="midnightblue" points="731.761,-198.013 734.396,-187.751 725.936,-194.13 731.761,-198.013"/>
</g>
<!-- Node4 -->
<g id="node4" class="node"><title>Node4</title>
<g id="a_node4"><a xlink:href="../../d4/d07/Fun4AllEventOutStream_8h.html" target="_top" xlink:title="Fun4AllEventOutStream.h">
<polygon fill="none" stroke="black" points="778.73,-112.5 778.73,-131.5 907.73,-131.5 907.73,-112.5 778.73,-112.5"/>
<text text-anchor="middle" x="843.23" y="-119.5" font-family="FreeSans" font-size="10.00">Fun4AllEventOutStream.h</text>
</a>
</g>
</g>
<!-- Node3&#45;&gt;Node4 -->
<g id="edge3" class="edge"><title>Node3&#45;&gt;Node4</title>
<path fill="none" stroke="midnightblue" d="M756.778,-168.324C773.221,-159.703 798.664,-146.364 817.698,-136.386"/>
<polygon fill="midnightblue" stroke="midnightblue" points="819.49,-139.398 826.722,-131.655 816.24,-133.198 819.49,-139.398"/>
</g>
<!-- Node6 -->
<g id="node6" class="node"><title>Node6</title>
<polygon fill="none" stroke="#bfbfbf" points="356.73,-0.5 356.73,-19.5 397.73,-19.5 397.73,-0.5 356.73,-0.5"/>
<text text-anchor="middle" x="377.23" y="-7.5" font-family="FreeSans" font-size="10.00">string</text>
</g>
<!-- Node3&#45;&gt;Node6 -->
<g id="edge14" class="edge"><title>Node3&#45;&gt;Node6</title>
<path fill="none" stroke="midnightblue" d="M737.471,-168.46C729.658,-145.779 705.054,-83.863 661.23,-56 567.377,3.67059 520.6,-42.2753 408.043,-20.0184"/>
<polygon fill="midnightblue" stroke="midnightblue" points="408.539,-16.5459 398.03,-17.8942 407.086,-23.3935 408.539,-16.5459"/>
</g>
<!-- Node8 -->
<g id="node8" class="node"><title>Node8</title>
<polygon fill="none" stroke="#bfbfbf" points="709.23,-56.5 709.23,-75.5 815.23,-75.5 815.23,-56.5 709.23,-56.5"/>
<text text-anchor="middle" x="762.23" y="-63.5" font-family="FreeSans" font-size="10.00">Event/phenixTypes.h</text>
</g>
<!-- Node3&#45;&gt;Node8 -->
<g id="edge13" class="edge"><title>Node3&#45;&gt;Node8</title>
<path fill="none" stroke="midnightblue" d="M741.956,-168.368C745.506,-150.617 753.696,-109.666 758.51,-85.5974"/>
<polygon fill="midnightblue" stroke="midnightblue" points="761.982,-86.0837 760.511,-75.5914 755.118,-84.7108 761.982,-86.0837"/>
</g>
<!-- Node3&#45;&gt;Node13 -->
<g id="edge15" class="edge"><title>Node3&#45;&gt;Node13</title>
<path fill="none" stroke="midnightblue" d="M724.928,-168.368C691.11,-149.292 609.796,-103.422 569.171,-80.5054"/>
<polygon fill="midnightblue" stroke="midnightblue" points="570.889,-77.4563 560.46,-75.5914 567.45,-83.5531 570.889,-77.4563"/>
</g>
<!-- Node5 -->
<g id="node5" class="node"><title>Node5</title>
<g id="a_node5"><a xlink:href="../../d2/de7/Fun4AllBase_8h.html" target="_top" xlink:title="Fun4AllBase.h">
<polygon fill="none" stroke="black" points="368.23,-56.5 368.23,-75.5 448.23,-75.5 448.23,-56.5 368.23,-56.5"/>
<text text-anchor="middle" x="408.23" y="-63.5" font-family="FreeSans" font-size="10.00">Fun4AllBase.h</text>
</a>
</g>
</g>
<!-- Node4&#45;&gt;Node5 -->
<g id="edge4" class="edge"><title>Node4&#45;&gt;Node5</title>
<path fill="none" stroke="midnightblue" d="M778.575,-112.974C691.371,-102.149 537.882,-83.0948 458.673,-73.2619"/>
<polygon fill="midnightblue" stroke="midnightblue" points="458.82,-69.7535 448.465,-71.9948 457.958,-76.7001 458.82,-69.7535"/>
</g>
<!-- Node4&#45;&gt;Node6 -->
<g id="edge12" class="edge"><title>Node4&#45;&gt;Node6</title>
<path fill="none" stroke="midnightblue" d="M843.394,-112.172C843.132,-97.8573 840.317,-69.7952 823.23,-56 753.192,0.544627 513.646,-35.3914 408.09,-19.77"/>
<polygon fill="midnightblue" stroke="midnightblue" points="408.45,-16.2807 398.001,-18.0326 407.262,-23.1791 408.45,-16.2807"/>
</g>
<!-- Node4&#45;&gt;Node8 -->
<g id="edge7" class="edge"><title>Node4&#45;&gt;Node8</title>
<path fill="none" stroke="midnightblue" d="M830.216,-112.324C817.698,-103.979 798.548,-91.2122 783.758,-81.3524"/>
<polygon fill="midnightblue" stroke="midnightblue" points="785.473,-78.2894 775.211,-75.6545 781.59,-84.1137 785.473,-78.2894"/>
</g>
<!-- Node9 -->
<g id="node9" class="node"><title>Node9</title>
<polygon fill="none" stroke="#bfbfbf" points="871.73,-56.5 871.73,-75.5 964.73,-75.5 964.73,-56.5 871.73,-56.5"/>
<text text-anchor="middle" x="918.23" y="-63.5" font-family="FreeSans" font-size="10.00">boost/version.hpp</text>
</g>
<!-- Node4&#45;&gt;Node9 -->
<g id="edge8" class="edge"><title>Node4&#45;&gt;Node9</title>
<path fill="none" stroke="midnightblue" d="M855.28,-112.324C866.693,-104.107 884.061,-91.6017 897.665,-81.8069"/>
<polygon fill="midnightblue" stroke="midnightblue" points="899.89,-84.5174 905.96,-75.8339 895.8,-78.8366 899.89,-84.5174"/>
</g>
<!-- Node10 -->
<g id="node10" class="node"><title>Node10</title>
<polygon fill="none" stroke="#bfbfbf" points="982.73,-56.5 982.73,-75.5 1113.73,-75.5 1113.73,-56.5 982.73,-56.5"/>
<text text-anchor="middle" x="1048.23" y="-63.5" font-family="FreeSans" font-size="10.00">boost/numeric/interval.hpp</text>
</g>
<!-- Node4&#45;&gt;Node10 -->
<g id="edge9" class="edge"><title>Node4&#45;&gt;Node10</title>
<path fill="none" stroke="midnightblue" d="M875.712,-112.444C910.949,-103.162 967.333,-88.3093 1005.99,-78.127"/>
<polygon fill="midnightblue" stroke="midnightblue" points="1007.12,-81.4483 1015.9,-75.5164 1005.34,-74.6792 1007.12,-81.4483"/>
</g>
<!-- Node11 -->
<g id="node11" class="node"><title>Node11</title>
<polygon fill="none" stroke="#bfbfbf" points="617.73,-56.5 617.73,-75.5 652.73,-75.5 652.73,-56.5 617.73,-56.5"/>
<text text-anchor="middle" x="635.23" y="-63.5" font-family="FreeSans" font-size="10.00">map</text>
</g>
<!-- Node4&#45;&gt;Node11 -->
<g id="edge10" class="edge"><title>Node4&#45;&gt;Node11</title>
<path fill="none" stroke="midnightblue" d="M810.271,-112.444C769.54,-101.869 700.961,-84.0649 662.858,-74.1727"/>
<polygon fill="midnightblue" stroke="midnightblue" points="663.526,-70.7301 652.967,-71.6049 661.767,-77.5055 663.526,-70.7301"/>
</g>
<!-- Node12 -->
<g id="node12" class="node"><title>Node12</title>
<polygon fill="none" stroke="#bfbfbf" points="1132.23,-56.5 1132.23,-75.5 1162.23,-75.5 1162.23,-56.5 1132.23,-56.5"/>
<text text-anchor="middle" x="1147.23" y="-63.5" font-family="FreeSans" font-size="10.00">set</text>
</g>
<!-- Node4&#45;&gt;Node12 -->
<g id="edge11" class="edge"><title>Node4&#45;&gt;Node12</title>
<path fill="none" stroke="midnightblue" d="M907.923,-114.021C964.924,-107.056 1049.9,-94.6787 1122.23,-76 1122.33,-75.974 1122.43,-75.9479 1122.53,-75.9214"/>
<polygon fill="midnightblue" stroke="midnightblue" points="1123.52,-79.2802 1132.03,-72.9776 1121.45,-72.5937 1123.52,-79.2802"/>
</g>
<!-- Node5&#45;&gt;Node6 -->
<g id="edge5" class="edge"><title>Node5&#45;&gt;Node6</title>
<path fill="none" stroke="midnightblue" d="M403.111,-56.083C398.822,-48.6127 392.571,-37.7244 387.287,-28.5199"/>
<polygon fill="midnightblue" stroke="midnightblue" points="390.267,-26.6811 382.253,-19.7511 384.197,-30.1662 390.267,-26.6811"/>
</g>
<!-- Node7 -->
<g id="node7" class="node"><title>Node7</title>
<polygon fill="none" stroke="#bfbfbf" points="415.73,-0.5 415.73,-19.5 460.73,-19.5 460.73,-0.5 415.73,-0.5"/>
<text text-anchor="middle" x="438.23" y="-7.5" font-family="FreeSans" font-size="10.00">climits</text>
</g>
<!-- Node5&#45;&gt;Node7 -->
<g id="edge6" class="edge"><title>Node5&#45;&gt;Node7</title>
<path fill="none" stroke="midnightblue" d="M413.183,-56.083C417.334,-48.6127 423.383,-37.7244 428.496,-28.5199"/>
<polygon fill="midnightblue" stroke="midnightblue" points="431.571,-30.1924 433.368,-19.7511 425.452,-26.7929 431.571,-30.1924"/>
</g>
<!-- Node14&#45;&gt;Node6 -->
<g id="edge21" class="edge"><title>Node14&#45;&gt;Node6</title>
<path fill="none" stroke="midnightblue" d="M50.9251,-168.342C25.3111,-157.373 -10.5051,-136.869 3.22961,-112 25.8231,-71.0899 48.4765,-72.4245 92.2296,-56 180.417,-22.8955 292.824,-14.1445 346.287,-11.8312"/>
<polygon fill="midnightblue" stroke="midnightblue" points="346.612,-15.3213 356.47,-11.4389 346.343,-8.32653 346.612,-15.3213"/>
</g>
<!-- Node15 -->
<g id="node15" class="node"><title>Node15</title>
<g id="a_node15"><a xlink:href="../../de/df8/Fun4AllOutputManager_8h.html" target="_top" xlink:title="Fun4AllOutputManager.h">
<polygon fill="none" stroke="black" points="12.2296,-112.5 12.2296,-131.5 136.23,-131.5 136.23,-112.5 12.2296,-112.5"/>
<text text-anchor="middle" x="74.2296" y="-119.5" font-family="FreeSans" font-size="10.00">Fun4AllOutputManager.h</text>
</a>
</g>
</g>
<!-- Node14&#45;&gt;Node15 -->
<g id="edge17" class="edge"><title>Node14&#45;&gt;Node15</title>
<path fill="none" stroke="midnightblue" d="M74.2296,-168.083C74.2296,-161.006 74.2296,-150.861 74.2296,-141.986"/>
<polygon fill="midnightblue" stroke="midnightblue" points="77.7297,-141.751 74.2296,-131.751 70.7297,-141.751 77.7297,-141.751"/>
</g>
<!-- Node15&#45;&gt;Node5 -->
<g id="edge18" class="edge"><title>Node15&#45;&gt;Node5</title>
<path fill="none" stroke="midnightblue" d="M130.806,-112.494C186.17,-104.074 273.164,-90.5874 358.061,-76.1663"/>
<polygon fill="midnightblue" stroke="midnightblue" points="358.863,-79.58 368.133,-74.4492 357.687,-72.6796 358.863,-79.58"/>
</g>
<!-- Node15&#45;&gt;Node6 -->
<g id="edge20" class="edge"><title>Node15&#45;&gt;Node6</title>
<path fill="none" stroke="midnightblue" d="M76.986,-112.173C81.9468,-97.8598 93.8098,-69.7998 114.23,-56 151.704,-30.6749 285.036,-17.802 346.181,-13.1199"/>
<polygon fill="midnightblue" stroke="midnightblue" points="346.664,-16.5938 356.378,-12.3642 346.147,-9.61297 346.664,-16.5938"/>
</g>
<!-- Node16 -->
<g id="node16" class="node"><title>Node16</title>
<polygon fill="none" stroke="#bfbfbf" points="123.23,-56.5 123.23,-75.5 167.23,-75.5 167.23,-56.5 123.23,-56.5"/>
<text text-anchor="middle" x="145.23" y="-63.5" font-family="FreeSans" font-size="10.00">vector</text>
</g>
<!-- Node15&#45;&gt;Node16 -->
<g id="edge19" class="edge"><title>Node15&#45;&gt;Node16</title>
<path fill="none" stroke="midnightblue" d="M85.637,-112.324C96.3384,-104.185 112.57,-91.8395 125.392,-82.0874"/>
<polygon fill="midnightblue" stroke="midnightblue" points="127.774,-84.6734 133.615,-75.8339 123.536,-79.1018 127.774,-84.6734"/>
</g>
<!-- Node17&#45;&gt;Node5 -->
<g id="edge23" class="edge"><title>Node17&#45;&gt;Node5</title>
<path fill="none" stroke="midnightblue" d="M384.517,-168.164C374.58,-155.654 359.458,-132.069 367.23,-112 371.684,-100.498 380.597,-90.1311 388.979,-82.2546"/>
<polygon fill="midnightblue" stroke="midnightblue" points="391.467,-84.7286 396.689,-75.5103 386.858,-79.4599 391.467,-84.7286"/>
</g>
<!-- Node17&#45;&gt;Node6 -->
<g id="edge35" class="edge"><title>Node17&#45;&gt;Node6</title>
<path fill="none" stroke="midnightblue" d="M349.043,-171.648C303.663,-165.032 236.739,-152.119 221.23,-132 200.607,-105.248 200.923,-82.9922 221.23,-56 236.273,-36.0039 305.485,-22.0992 346.494,-15.4547"/>
<polygon fill="midnightblue" stroke="midnightblue" points="347.17,-18.8915 356.508,-13.8853 346.086,-11.9759 347.17,-18.8915"/>
</g>
<!-- Node17&#45;&gt;Node11 -->
<g id="edge34" class="edge"><title>Node17&#45;&gt;Node11</title>
<path fill="none" stroke="midnightblue" d="M423.826,-168.467C451.451,-160.522 492.337,-147.579 526.23,-132 558.317,-117.251 592.952,-95.4907 614.367,-81.2802"/>
<polygon fill="midnightblue" stroke="midnightblue" points="616.603,-83.9947 622.955,-75.5147 612.701,-78.1831 616.603,-83.9947"/>
</g>
<!-- Node17&#45;&gt;Node13 -->
<g id="edge33" class="edge"><title>Node17&#45;&gt;Node13</title>
<path fill="none" stroke="midnightblue" d="M428.169,-168.489C451.474,-161.6 481.439,-150.026 503.23,-132 518.557,-119.32 530.204,-99.5641 537.301,-85.159"/>
<polygon fill="midnightblue" stroke="midnightblue" points="540.613,-86.337 541.652,-75.7932 534.265,-83.3879 540.613,-86.337"/>
</g>
<!-- Node17&#45;&gt;Node16 -->
<g id="edge36" class="edge"><title>Node17&#45;&gt;Node16</title>
<path fill="none" stroke="midnightblue" d="M349.097,-176.686C305.066,-174.388 236.515,-165.156 188.23,-132 171.373,-120.425 159.433,-99.8642 152.48,-84.9606"/>
<polygon fill="midnightblue" stroke="midnightblue" points="155.661,-83.5005 148.463,-75.7265 149.242,-86.2927 155.661,-83.5005"/>
</g>
<!-- Node18 -->
<g id="node18" class="node"><title>Node18</title>
<g id="a_node18"><a xlink:href="../../d0/d59/Fun4AllHistoManager_8h.html" target="_top" xlink:title="Fun4AllHistoManager.h">
<polygon fill="none" stroke="black" points="376.23,-112.5 376.23,-131.5 494.23,-131.5 494.23,-112.5 376.23,-112.5"/>
<text text-anchor="middle" x="435.23" y="-119.5" font-family="FreeSans" font-size="10.00">Fun4AllHistoManager.h</text>
</a>
</g>
</g>
<!-- Node17&#45;&gt;Node18 -->
<g id="edge24" class="edge"><title>Node17&#45;&gt;Node18</title>
<path fill="none" stroke="midnightblue" d="M399.33,-168.083C405.467,-160.377 414.499,-149.033 421.969,-139.653"/>
<polygon fill="midnightblue" stroke="midnightblue" points="424.77,-141.754 428.261,-131.751 419.294,-137.394 424.77,-141.754"/>
</g>
<!-- Node19 -->
<g id="node19" class="node"><title>Node19</title>
<g id="a_node19"><a xlink:href="../../dc/d26/PHTimer_8h.html" target="_top" xlink:title="high precision timer ">
<polygon fill="none" stroke="black" points="230.73,-112.5 230.73,-131.5 319.73,-131.5 319.73,-112.5 230.73,-112.5"/>
<text text-anchor="middle" x="275.23" y="-119.5" font-family="FreeSans" font-size="10.00">phool/PHTimer.h</text>
</a>
</g>
</g>
<!-- Node17&#45;&gt;Node19 -->
<g id="edge29" class="edge"><title>Node17&#45;&gt;Node19</title>
<path fill="none" stroke="midnightblue" d="M373.691,-168.444C354.607,-159.636 324.655,-145.812 302.794,-135.722"/>
<polygon fill="midnightblue" stroke="midnightblue" points="304.228,-132.529 293.682,-131.516 301.295,-138.885 304.228,-132.529"/>
</g>
<!-- Node18&#45;&gt;Node5 -->
<g id="edge25" class="edge"><title>Node18&#45;&gt;Node5</title>
<path fill="none" stroke="midnightblue" d="M430.771,-112.083C427.075,-104.691 421.706,-93.9533 417.135,-84.8111"/>
<polygon fill="midnightblue" stroke="midnightblue" points="420.208,-83.1301 412.605,-75.7511 413.947,-86.2606 420.208,-83.1301"/>
</g>
<!-- Node18&#45;&gt;Node6 -->
<g id="edge28" class="edge"><title>Node18&#45;&gt;Node6</title>
<path fill="none" stroke="midnightblue" d="M442.758,-112.11C452.781,-99.1259 468.056,-74.511 457.23,-56 451.465,-46.1438 427.086,-33.2212 406.738,-23.7537"/>
<polygon fill="midnightblue" stroke="midnightblue" points="408.017,-20.4903 397.465,-19.5415 405.122,-26.8637 408.017,-20.4903"/>
</g>
<!-- Node18&#45;&gt;Node11 -->
<g id="edge27" class="edge"><title>Node18&#45;&gt;Node11</title>
<path fill="none" stroke="midnightblue" d="M466.92,-112.444C505.717,-101.968 570.79,-84.3987 607.624,-74.4535"/>
<polygon fill="midnightblue" stroke="midnightblue" points="608.912,-77.7311 617.654,-71.7454 607.088,-70.9731 608.912,-77.7311"/>
</g>
<!-- Node18&#45;&gt;Node13 -->
<g id="edge26" class="edge"><title>Node18&#45;&gt;Node13</title>
<path fill="none" stroke="midnightblue" d="M452.903,-112.324C470.624,-103.625 498.133,-90.1202 518.518,-80.113"/>
<polygon fill="midnightblue" stroke="midnightblue" points="520.166,-83.2031 527.6,-75.6545 517.081,-76.9195 520.166,-83.2031"/>
</g>
<!-- Node19&#45;&gt;Node13 -->
<g id="edge30" class="edge"><title>Node19&#45;&gt;Node13</title>
<path fill="none" stroke="midnightblue" d="M318.012,-112.444C370.348,-101.976 458.104,-84.4252 507.85,-74.476"/>
<polygon fill="midnightblue" stroke="midnightblue" points="508.742,-77.8669 517.862,-72.4736 507.369,-71.0028 508.742,-77.8669"/>
</g>
<!-- Node20 -->
<g id="node20" class="node"><title>Node20</title>
<polygon fill="none" stroke="#bfbfbf" points="298.23,-56.5 298.23,-75.5 350.23,-75.5 350.23,-56.5 298.23,-56.5"/>
<text text-anchor="middle" x="324.23" y="-63.5" font-family="FreeSans" font-size="10.00">sstream</text>
</g>
<!-- Node19&#45;&gt;Node20 -->
<g id="edge31" class="edge"><title>Node19&#45;&gt;Node20</title>
<path fill="none" stroke="midnightblue" d="M283.321,-112.083C290.385,-104.298 300.817,-92.8015 309.379,-83.3665"/>
<polygon fill="midnightblue" stroke="midnightblue" points="312.161,-85.5087 316.289,-75.7511 306.977,-80.8047 312.161,-85.5087"/>
</g>
<!-- Node21 -->
<g id="node21" class="node"><title>Node21</title>
<polygon fill="none" stroke="#bfbfbf" points="230.23,-56.5 230.23,-75.5 280.23,-75.5 280.23,-56.5 230.23,-56.5"/>
<text text-anchor="middle" x="255.23" y="-63.5" font-family="FreeSans" font-size="10.00">unistd.h</text>
</g>
<!-- Node19&#45;&gt;Node21 -->
<g id="edge32" class="edge"><title>Node19&#45;&gt;Node21</title>
<path fill="none" stroke="midnightblue" d="M271.927,-112.083C269.248,-104.849 265.381,-94.4087 262.043,-85.3968"/>
<polygon fill="midnightblue" stroke="midnightblue" points="265.226,-83.9129 258.471,-75.7511 258.662,-86.3442 265.226,-83.9129"/>
</g>
<!-- Node24&#45;&gt;Node13 -->
<g id="edge40" class="edge"><title>Node24&#45;&gt;Node13</title>
<path fill="none" stroke="midnightblue" d="M618.952,-168.368C605.75,-150.215 574.903,-107.802 557.586,-83.9902"/>
<polygon fill="midnightblue" stroke="midnightblue" points="560.19,-81.6202 551.478,-75.5914 554.529,-85.7374 560.19,-81.6202"/>
</g>
</g>
</svg>
