<?xml version="1.0" encoding="UTF-8" standalone="no"?>
<!DOCTYPE svg PUBLIC "-//W3C//DTD SVG 1.1//EN"
 "http://www.w3.org/Graphics/SVG/1.1/DTD/svg11.dtd">
<!-- Generated by graphviz version 2.36.0 (20140111.2315)
 -->
<!-- Title: fun4all/fun4all/TDirectoryHelper.cc Pages: 1 -->
<svg width="736pt" height="152pt"
 viewBox="0.00 0.00 736.00 152.00" xmlns="http://www.w3.org/2000/svg" xmlns:xlink="http://www.w3.org/1999/xlink">
<g id="graph0" class="graph" transform="scale(1 1) rotate(0) translate(4 148)">
<title>fun4all/fun4all/TDirectoryHelper.cc</title>
<!-- Node1 -->
<g id="node1" class="node"><title>Node1</title>
<polygon fill="#bfbfbf" stroke="black" points="304,-113 304,-143 428,-143 428,-113 304,-113"/>
<text text-anchor="start" x="312" y="-131" font-family="FreeSans" font-size="10.00">fun4all/fun4all/TDirectory</text>
<text text-anchor="middle" x="366" y="-120" font-family="FreeSans" font-size="10.00">Helper.cc</text>
</g>
<!-- Node2 -->
<g id="node2" class="node"><title>Node2</title>
<g id="a_node2"><a xlink:href="../../d7/d5f/TDirectoryHelper_8h.html" target="_top" xlink:title="TDirectoryHelper.h">
<polygon fill="none" stroke="black" points="40.5,-56.5 40.5,-75.5 137.5,-75.5 137.5,-56.5 40.5,-56.5"/>
<text text-anchor="middle" x="89" y="-63.5" font-family="FreeSans" font-size="10.00">TDirectoryHelper.h</text>
</a>
</g>
</g>
<!-- Node1&#45;&gt;Node2 -->
<g id="edge1" class="edge"><title>Node1&#45;&gt;Node2</title>
<path fill="none" stroke="midnightblue" d="M303.836,-113.535C253.756,-102.687 184.311,-87.645 138.082,-77.6316"/>
<polygon fill="midnightblue" stroke="midnightblue" points="138.812,-74.2086 128.298,-75.5122 137.33,-81.0499 138.812,-74.2086"/>
</g>
<!-- Node3 -->
<g id="node3" class="node"><title>Node3</title>
<polygon fill="none" stroke="#bfbfbf" points="-0.5,-0.5 -0.5,-19.5 40.5,-19.5 40.5,-0.5 -0.5,-0.5"/>
<text text-anchor="middle" x="20" y="-7.5" font-family="FreeSans" font-size="10.00">string</text>
</g>
<!-- Node1&#45;&gt;Node3 -->
<g id="edge12" class="edge"><title>Node1&#45;&gt;Node3</title>
<path fill="none" stroke="midnightblue" d="M303.859,-125.966C217.781,-123.173 68.5906,-112.973 31,-76 19.0244,-64.2211 17.1646,-44.584 17.7579,-29.9704"/>
<polygon fill="midnightblue" stroke="midnightblue" points="21.2815,-29.827 18.6133,-19.5737 14.305,-29.253 21.2815,-29.827"/>
</g>
<!-- Node4 -->
<g id="node4" class="node"><title>Node4</title>
<polygon fill="none" stroke="#bfbfbf" points="105,-0.5 105,-19.5 149,-19.5 149,-0.5 105,-0.5"/>
<text text-anchor="middle" x="127" y="-7.5" font-family="FreeSans" font-size="10.00">vector</text>
</g>
<!-- Node1&#45;&gt;Node4 -->
<g id="edge13" class="edge"><title>Node1&#45;&gt;Node4</title>
<path fill="none" stroke="midnightblue" d="M303.779,-118.441C267.106,-111.289 220.994,-98.4884 185,-76 165.43,-63.7727 148.584,-43.0308 138.168,-28.2674"/>
<polygon fill="midnightblue" stroke="midnightblue" points="140.791,-25.8982 132.287,-19.5786 134.994,-29.8219 140.791,-25.8982"/>
</g>
<!-- Node5 -->
<g id="node5" class="node"><title>Node5</title>
<polygon fill="none" stroke="#bfbfbf" points="194,-56.5 194,-75.5 262,-75.5 262,-56.5 194,-56.5"/>
<text text-anchor="middle" x="228" y="-63.5" font-family="FreeSans" font-size="10.00">TDirectory.h</text>
</g>
<!-- Node1&#45;&gt;Node5 -->
<g id="edge4" class="edge"><title>Node1&#45;&gt;Node5</title>
<path fill="none" stroke="midnightblue" d="M333.645,-112.933C310.467,-102.855 279.517,-89.3986 257.112,-79.6575"/>
<polygon fill="midnightblue" stroke="midnightblue" points="258.346,-76.3776 247.78,-75.6 255.555,-82.7971 258.346,-76.3776"/>
</g>
<!-- Node6 -->
<g id="node6" class="node"><title>Node6</title>
<polygon fill="none" stroke="#bfbfbf" points="280,-56.5 280,-75.5 326,-75.5 326,-56.5 280,-56.5"/>
<text text-anchor="middle" x="303" y="-63.5" font-family="FreeSans" font-size="10.00">TFile.h</text>
</g>
<!-- Node1&#45;&gt;Node6 -->
<g id="edge5" class="edge"><title>Node1&#45;&gt;Node6</title>
<path fill="none" stroke="midnightblue" d="M351.07,-112.781C341.632,-103.792 329.42,-92.162 319.667,-82.8731"/>
<polygon fill="midnightblue" stroke="midnightblue" points="321.822,-80.0926 312.167,-75.7305 316.995,-85.1616 321.822,-80.0926"/>
</g>
<!-- Node7 -->
<g id="node7" class="node"><title>Node7</title>
<polygon fill="none" stroke="#bfbfbf" points="344.5,-56.5 344.5,-75.5 387.5,-75.5 387.5,-56.5 344.5,-56.5"/>
<text text-anchor="middle" x="366" y="-63.5" font-family="FreeSans" font-size="10.00">TH1.h</text>
</g>
<!-- Node1&#45;&gt;Node7 -->
<g id="edge6" class="edge"><title>Node1&#45;&gt;Node7</title>
<path fill="none" stroke="midnightblue" d="M366,-112.781C366,-104.781 366,-94.6887 366,-86.0168"/>
<polygon fill="midnightblue" stroke="midnightblue" points="369.5,-85.7305 366,-75.7305 362.5,-85.7306 369.5,-85.7305"/>
</g>
<!-- Node8 -->
<g id="node8" class="node"><title>Node8</title>
<polygon fill="none" stroke="#bfbfbf" points="405.5,-56.5 405.5,-75.5 464.5,-75.5 464.5,-56.5 405.5,-56.5"/>
<text text-anchor="middle" x="435" y="-63.5" font-family="FreeSans" font-size="10.00">TObject.h</text>
</g>
<!-- Node1&#45;&gt;Node8 -->
<g id="edge7" class="edge"><title>Node1&#45;&gt;Node8</title>
<path fill="none" stroke="midnightblue" d="M382.352,-112.781C392.895,-103.613 406.6,-91.6957 417.384,-82.3186"/>
<polygon fill="midnightblue" stroke="midnightblue" points="419.71,-84.9335 424.96,-75.7305 415.117,-79.6512 419.71,-84.9335"/>
</g>
<!-- Node9 -->
<g id="node9" class="node"><title>Node9</title>
<polygon fill="none" stroke="#bfbfbf" points="483,-56.5 483,-75.5 541,-75.5 541,-56.5 483,-56.5"/>
<text text-anchor="middle" x="512" y="-63.5" font-family="FreeSans" font-size="10.00">TROOT.h</text>
</g>
<!-- Node1&#45;&gt;Node9 -->
<g id="edge8" class="edge"><title>Node1&#45;&gt;Node9</title>
<path fill="none" stroke="midnightblue" d="M400.231,-112.933C424.862,-102.81 457.79,-89.2779 481.518,-79.5267"/>
<polygon fill="midnightblue" stroke="midnightblue" points="483.154,-82.6385 491.073,-75.6 480.493,-76.1639 483.154,-82.6385"/>
</g>
<!-- Node10 -->
<g id="node10" class="node"><title>Node10</title>
<polygon fill="none" stroke="#bfbfbf" points="559.5,-56.5 559.5,-75.5 608.5,-75.5 608.5,-56.5 559.5,-56.5"/>
<text text-anchor="middle" x="584" y="-63.5" font-family="FreeSans" font-size="10.00">cassert</text>
</g>
<!-- Node1&#45;&gt;Node10 -->
<g id="edge9" class="edge"><title>Node1&#45;&gt;Node10</title>
<path fill="none" stroke="midnightblue" d="M417.111,-112.933C457.888,-101.71 513.892,-86.2959 549.519,-76.4902"/>
<polygon fill="midnightblue" stroke="midnightblue" points="550.727,-79.788 559.439,-73.7598 548.869,-73.0389 550.727,-79.788"/>
</g>
<!-- Node11 -->
<g id="node11" class="node"><title>Node11</title>
<polygon fill="none" stroke="#bfbfbf" points="627,-56.5 627,-75.5 681,-75.5 681,-56.5 627,-56.5"/>
<text text-anchor="middle" x="654" y="-63.5" font-family="FreeSans" font-size="10.00">iostream</text>
</g>
<!-- Node1&#45;&gt;Node11 -->
<g id="edge10" class="edge"><title>Node1&#45;&gt;Node11</title>
<path fill="none" stroke="midnightblue" d="M428.03,-115.08C478.913,-105.138 552.769,-90.3319 617,-76 617.101,-75.9775 617.202,-75.9549 617.303,-75.9323"/>
<polygon fill="midnightblue" stroke="midnightblue" points="617.993,-79.3651 626.95,-73.7058 616.419,-72.5444 617.993,-79.3651"/>
</g>
<!-- Node12 -->
<g id="node12" class="node"><title>Node12</title>
<polygon fill="none" stroke="#bfbfbf" points="699.5,-56.5 699.5,-75.5 728.5,-75.5 728.5,-56.5 699.5,-56.5"/>
<text text-anchor="middle" x="714" y="-63.5" font-family="FreeSans" font-size="10.00">list</text>
</g>
<!-- Node1&#45;&gt;Node12 -->
<g id="edge11" class="edge"><title>Node1&#45;&gt;Node12</title>
<path fill="none" stroke="midnightblue" d="M428.28,-120.988C491.903,-113.999 593.495,-100.495 689.554,-75.6053"/>
<polygon fill="midnightblue" stroke="midnightblue" points="690.653,-78.9352 699.429,-73.0004 688.867,-72.1667 690.653,-78.9352"/>
</g>
<!-- Node2&#45;&gt;Node3 -->
<g id="edge2" class="edge"><title>Node2&#45;&gt;Node3</title>
<path fill="none" stroke="midnightblue" d="M77.914,-56.324C67.514,-48.1849 51.7394,-35.8395 39.2784,-26.0874"/>
<polygon fill="midnightblue" stroke="midnightblue" points="41.3199,-23.2407 31.2878,-19.8339 37.0057,-28.7533 41.3199,-23.2407"/>
</g>
<!-- Node2&#45;&gt;Node4 -->
<g id="edge3" class="edge"><title>Node2&#45;&gt;Node4</title>
<path fill="none" stroke="midnightblue" d="M95.2749,-56.083C100.642,-48.4554 108.518,-37.2645 115.079,-27.9408"/>
<polygon fill="midnightblue" stroke="midnightblue" points="117.949,-29.9434 120.842,-19.7511 112.225,-25.9149 117.949,-29.9434"/>
</g>
</g>
</svg>
