<?xml version="1.0" encoding="UTF-8" standalone="no"?>
<!DOCTYPE svg PUBLIC "-//W3C//DTD SVG 1.1//EN"
 "http://www.w3.org/Graphics/SVG/1.1/DTD/svg11.dtd">
<!-- Generated by graphviz version 2.36.0 (20140111.2315)
 -->
<!-- Title: fun4all/phool/PHFlag.cc Pages: 1 -->
<svg width="400pt" height="140pt"
 viewBox="0.00 0.00 400.00 140.00" xmlns="http://www.w3.org/2000/svg" xmlns:xlink="http://www.w3.org/1999/xlink">
<g id="graph0" class="graph" transform="scale(1 1) rotate(0) translate(4 136)">
<title>fun4all/phool/PHFlag.cc</title>
<!-- Node1 -->
<g id="node1" class="node"><title>Node1</title>
<polygon fill="#bfbfbf" stroke="black" points="145,-112.5 145,-131.5 265,-131.5 265,-112.5 145,-112.5"/>
<text text-anchor="middle" x="205" y="-119.5" font-family="FreeSans" font-size="10.00">fun4all/phool/PHFlag.cc</text>
</g>
<!-- Node2 -->
<g id="node2" class="node"><title>Node2</title>
<g id="a_node2"><a xlink:href="../../d0/d11/PHFlag_8h.html" target="_top" xlink:title="PHFlag.h">
<polygon fill="none" stroke="black" points="29.5,-56.5 29.5,-75.5 86.5,-75.5 86.5,-56.5 29.5,-56.5"/>
<text text-anchor="middle" x="58" y="-63.5" font-family="FreeSans" font-size="10.00">PHFlag.h</text>
</a>
</g>
</g>
<!-- Node1&#45;&gt;Node2 -->
<g id="edge1" class="edge"><title>Node1&#45;&gt;Node2</title>
<path fill="none" stroke="midnightblue" d="M181.707,-112.444C157.193,-103.438 118.404,-89.1891 90.8001,-79.049"/>
<polygon fill="midnightblue" stroke="midnightblue" points="91.7772,-75.6793 81.1836,-75.5164 89.3634,-82.25 91.7772,-75.6793"/>
</g>
<!-- Node5 -->
<g id="node5" class="node"><title>Node5</title>
<g id="a_node5"><a xlink:href="../../d5/d6f/phool_8h.html" target="_top" xlink:title="phool.h">
<polygon fill="none" stroke="black" points="104.5,-56.5 104.5,-75.5 151.5,-75.5 151.5,-56.5 104.5,-56.5"/>
<text text-anchor="middle" x="128" y="-63.5" font-family="FreeSans" font-size="10.00">phool.h</text>
</a>
</g>
</g>
<!-- Node1&#45;&gt;Node5 -->
<g id="edge4" class="edge"><title>Node1&#45;&gt;Node5</title>
<path fill="none" stroke="midnightblue" d="M192.629,-112.324C180.842,-104.058 162.868,-91.4527 148.864,-81.6322"/>
<polygon fill="midnightblue" stroke="midnightblue" points="150.538,-78.5307 140.341,-75.6545 146.518,-84.2619 150.538,-78.5307"/>
</g>
<!-- Node6 -->
<g id="node6" class="node"><title>Node6</title>
<polygon fill="none" stroke="#bfbfbf" points="127,-0.5 127,-19.5 181,-19.5 181,-0.5 127,-0.5"/>
<text text-anchor="middle" x="154" y="-7.5" font-family="FreeSans" font-size="10.00">iostream</text>
</g>
<!-- Node1&#45;&gt;Node6 -->
<g id="edge8" class="edge"><title>Node1&#45;&gt;Node6</title>
<path fill="none" stroke="midnightblue" d="M200.998,-112.368C192.693,-94.4563 173.437,-52.9233 162.321,-28.9482"/>
<polygon fill="midnightblue" stroke="midnightblue" points="165.365,-27.1916 157.983,-19.5914 159.014,-30.136 165.365,-27.1916"/>
</g>
<!-- Node7 -->
<g id="node7" class="node"><title>Node7</title>
<polygon fill="none" stroke="#bfbfbf" points="208,-56.5 208,-75.5 254,-75.5 254,-56.5 208,-56.5"/>
<text text-anchor="middle" x="231" y="-63.5" font-family="FreeSans" font-size="10.00">cstring</text>
</g>
<!-- Node1&#45;&gt;Node7 -->
<g id="edge6" class="edge"><title>Node1&#45;&gt;Node7</title>
<path fill="none" stroke="midnightblue" d="M209.293,-112.083C212.852,-104.691 218.022,-93.9533 222.424,-84.8111"/>
<polygon fill="midnightblue" stroke="midnightblue" points="225.602,-86.2795 226.787,-75.7511 219.295,-83.2427 225.602,-86.2795"/>
</g>
<!-- Node8 -->
<g id="node8" class="node"><title>Node8</title>
<polygon fill="none" stroke="#bfbfbf" points="272,-56.5 272,-75.5 322,-75.5 322,-56.5 272,-56.5"/>
<text text-anchor="middle" x="297" y="-63.5" font-family="FreeSans" font-size="10.00">fstream</text>
</g>
<!-- Node1&#45;&gt;Node8 -->
<g id="edge7" class="edge"><title>Node1&#45;&gt;Node8</title>
<path fill="none" stroke="midnightblue" d="M219.781,-112.324C234.267,-103.822 256.573,-90.7288 273.493,-80.7975"/>
<polygon fill="midnightblue" stroke="midnightblue" points="275.403,-83.735 282.255,-75.6545 271.859,-77.6981 275.403,-83.735"/>
</g>
<!-- Node9 -->
<g id="node9" class="node"><title>Node9</title>
<polygon fill="none" stroke="#bfbfbf" points="340,-56.5 340,-75.5 392,-75.5 392,-56.5 340,-56.5"/>
<text text-anchor="middle" x="366" y="-63.5" font-family="FreeSans" font-size="10.00">sstream</text>
</g>
<!-- Node1&#45;&gt;Node9 -->
<g id="edge9" class="edge"><title>Node1&#45;&gt;Node9</title>
<path fill="none" stroke="midnightblue" d="M230.511,-112.444C257.596,-103.359 300.59,-88.9388 330.869,-78.7831"/>
<polygon fill="midnightblue" stroke="midnightblue" points="332.24,-82.0148 340.608,-75.5164 330.014,-75.3781 332.24,-82.0148"/>
</g>
<!-- Node3 -->
<g id="node3" class="node"><title>Node3</title>
<polygon fill="none" stroke="#bfbfbf" points="-0.5,-0.5 -0.5,-19.5 34.5,-19.5 34.5,-0.5 -0.5,-0.5"/>
<text text-anchor="middle" x="17" y="-7.5" font-family="FreeSans" font-size="10.00">map</text>
</g>
<!-- Node2&#45;&gt;Node3 -->
<g id="edge2" class="edge"><title>Node2&#45;&gt;Node3</title>
<path fill="none" stroke="midnightblue" d="M51.2297,-56.083C45.4384,-48.4554 36.9415,-37.2645 29.8625,-27.9408"/>
<polygon fill="midnightblue" stroke="midnightblue" points="32.479,-25.5991 23.6443,-19.7511 26.9039,-29.8321 32.479,-25.5991"/>
</g>
<!-- Node4 -->
<g id="node4" class="node"><title>Node4</title>
<polygon fill="none" stroke="#bfbfbf" points="52.5,-0.5 52.5,-19.5 93.5,-19.5 93.5,-0.5 52.5,-0.5"/>
<text text-anchor="middle" x="73" y="-7.5" font-family="FreeSans" font-size="10.00">string</text>
</g>
<!-- Node2&#45;&gt;Node4 -->
<g id="edge3" class="edge"><title>Node2&#45;&gt;Node4</title>
<path fill="none" stroke="midnightblue" d="M60.4769,-56.083C62.4865,-48.8486 65.3865,-38.4087 67.8898,-29.3968"/>
<polygon fill="midnightblue" stroke="midnightblue" points="71.2649,-30.323 70.5691,-19.7511 64.5203,-28.4495 71.2649,-30.323"/>
</g>
<!-- Node5&#45;&gt;Node6 -->
<g id="edge5" class="edge"><title>Node5&#45;&gt;Node6</title>
<path fill="none" stroke="midnightblue" d="M132.293,-56.083C135.852,-48.6913 141.022,-37.9533 145.424,-28.8111"/>
<polygon fill="midnightblue" stroke="midnightblue" points="148.602,-30.2795 149.787,-19.7511 142.295,-27.2427 148.602,-30.2795"/>
</g>
</g>
</svg>
