<?xml version="1.0" encoding="UTF-8" standalone="no"?>
<!DOCTYPE svg PUBLIC "-//W3C//DTD SVG 1.1//EN"
 "http://www.w3.org/Graphics/SVG/1.1/DTD/svg11.dtd">
<!-- Generated by graphviz version 2.36.0 (20140111.2315)
 -->
<!-- Title: fun4all/fun4all/SubsysReco.cc Pages: 1 -->
<svg width="155pt" height="196pt"
 viewBox="0.00 0.00 155.00 196.00" xmlns="http://www.w3.org/2000/svg" xmlns:xlink="http://www.w3.org/1999/xlink">
<g id="graph0" class="graph" transform="scale(1 1) rotate(0) translate(4 192)">
<title>fun4all/fun4all/SubsysReco.cc</title>
<!-- Node1 -->
<g id="node1" class="node"><title>Node1</title>
<polygon fill="#bfbfbf" stroke="black" points="-0.5,-168.5 -0.5,-187.5 146.5,-187.5 146.5,-168.5 -0.5,-168.5"/>
<text text-anchor="middle" x="73" y="-175.5" font-family="FreeSans" font-size="10.00">fun4all/fun4all/SubsysReco.cc</text>
</g>
<!-- Node2 -->
<g id="node2" class="node"><title>Node2</title>
<g id="a_node2"><a xlink:href="../../d5/dc2/SubsysReco_8h.html" target="_top" xlink:title="SubsysReco.h">
<polygon fill="none" stroke="black" points="33.5,-112.5 33.5,-131.5 112.5,-131.5 112.5,-112.5 33.5,-112.5"/>
<text text-anchor="middle" x="73" y="-119.5" font-family="FreeSans" font-size="10.00">SubsysReco.h</text>
</a>
</g>
</g>
<!-- Node1&#45;&gt;Node2 -->
<g id="edge1" class="edge"><title>Node1&#45;&gt;Node2</title>
<path fill="none" stroke="midnightblue" d="M73,-168.083C73,-161.006 73,-150.861 73,-141.986"/>
<polygon fill="midnightblue" stroke="midnightblue" points="76.5001,-141.751 73,-131.751 69.5001,-141.751 76.5001,-141.751"/>
</g>
<!-- Node3 -->
<g id="node3" class="node"><title>Node3</title>
<g id="a_node3"><a xlink:href="../../d2/de7/Fun4AllBase_8h.html" target="_top" xlink:title="Fun4AllBase.h">
<polygon fill="none" stroke="black" points="67,-56.5 67,-75.5 147,-75.5 147,-56.5 67,-56.5"/>
<text text-anchor="middle" x="107" y="-63.5" font-family="FreeSans" font-size="10.00">Fun4AllBase.h</text>
</a>
</g>
</g>
<!-- Node2&#45;&gt;Node3 -->
<g id="edge2" class="edge"><title>Node2&#45;&gt;Node3</title>
<path fill="none" stroke="midnightblue" d="M78.6144,-112.083C83.3674,-104.534 90.3181,-93.4948 96.1516,-84.2298"/>
<polygon fill="midnightblue" stroke="midnightblue" points="99.1237,-86.0783 101.49,-75.7511 93.2001,-82.3486 99.1237,-86.0783"/>
</g>
<!-- Node4 -->
<g id="node4" class="node"><title>Node4</title>
<polygon fill="none" stroke="#bfbfbf" points="22.5,-0.5 22.5,-19.5 63.5,-19.5 63.5,-0.5 22.5,-0.5"/>
<text text-anchor="middle" x="43" y="-7.5" font-family="FreeSans" font-size="10.00">string</text>
</g>
<!-- Node2&#45;&gt;Node4 -->
<g id="edge5" class="edge"><title>Node2&#45;&gt;Node4</title>
<path fill="none" stroke="midnightblue" d="M69.8795,-112.448C66.6603,-103.451 61.6134,-88.8422 58,-76 53.6815,-60.6518 49.6697,-43.013 46.8837,-29.9861"/>
<polygon fill="midnightblue" stroke="midnightblue" points="50.2471,-28.9706 44.774,-19.8989 43.3954,-30.4037 50.2471,-28.9706"/>
</g>
<!-- Node3&#45;&gt;Node4 -->
<g id="edge3" class="edge"><title>Node3&#45;&gt;Node4</title>
<path fill="none" stroke="midnightblue" d="M96.7173,-56.324C87.1637,-48.2631 72.7203,-36.0765 61.2157,-26.3695"/>
<polygon fill="midnightblue" stroke="midnightblue" points="63.3698,-23.6076 53.4698,-19.8339 58.8557,-28.9577 63.3698,-23.6076"/>
</g>
<!-- Node5 -->
<g id="node5" class="node"><title>Node5</title>
<polygon fill="none" stroke="#bfbfbf" points="84.5,-0.5 84.5,-19.5 129.5,-19.5 129.5,-0.5 84.5,-0.5"/>
<text text-anchor="middle" x="107" y="-7.5" font-family="FreeSans" font-size="10.00">climits</text>
</g>
<!-- Node3&#45;&gt;Node5 -->
<g id="edge4" class="edge"><title>Node3&#45;&gt;Node5</title>
<path fill="none" stroke="midnightblue" d="M107,-56.083C107,-49.0059 107,-38.8611 107,-29.9865"/>
<polygon fill="midnightblue" stroke="midnightblue" points="110.5,-29.751 107,-19.7511 103.5,-29.7511 110.5,-29.751"/>
</g>
</g>
</svg>
