<?xml version="1.0" encoding="UTF-8" standalone="no"?>
<!DOCTYPE svg PUBLIC "-//W3C//DTD SVG 1.1//EN"
 "http://www.w3.org/Graphics/SVG/1.1/DTD/svg11.dtd">
<!-- Generated by graphviz version 2.36.0 (20140111.2315)
 -->
<!-- Title: SHit_v1::identify Pages: 1 -->
<svg width="258pt" height="344pt"
 viewBox="0.00 0.00 258.00 344.00" xmlns="http://www.w3.org/2000/svg" xmlns:xlink="http://www.w3.org/1999/xlink">
<g id="graph0" class="graph" transform="scale(1 1) rotate(0) translate(4 340)">
<title>SHit_v1::identify</title>
<!-- Node1 -->
<g id="node1" class="node"><title>Node1</title>
<polygon fill="#bfbfbf" stroke="black" points="0.5,-152.5 0.5,-171.5 87.5,-171.5 87.5,-152.5 0.5,-152.5"/>
<text text-anchor="middle" x="44" y="-159.5" font-family="FreeSans" font-size="10.00">SHit_v1::identify</text>
</g>
<!-- Node2 -->
<g id="node2" class="node"><title>Node2</title>
<g id="a_node2"><a xlink:href="../../d2/de1/classSHit__v1.html#ab8cf0b419dca342bafa3d28c6bdc88fb" target="_top" xlink:title="SHit_v1::get_detector_id">
<polygon fill="none" stroke="black" points="125.5,-316.5 125.5,-335.5 248.5,-335.5 248.5,-316.5 125.5,-316.5"/>
<text text-anchor="middle" x="187" y="-323.5" font-family="FreeSans" font-size="10.00">SHit_v1::get_detector_id</text>
</a>
</g>
</g>
<!-- Node1&#45;&gt;Node2 -->
<g id="edge1" class="edge"><title>Node1&#45;&gt;Node2</title>
<path fill="none" stroke="midnightblue" d="M47.5736,-171.675C54.9285,-197.457 78.4963,-268.403 124,-306 126.697,-308.229 129.648,-310.211 132.752,-311.973"/>
<polygon fill="midnightblue" stroke="midnightblue" points="131.297,-315.157 141.821,-316.382 134.357,-308.862 131.297,-315.157"/>
</g>
<!-- Node3 -->
<g id="node3" class="node"><title>Node3</title>
<g id="a_node3"><a xlink:href="../../d2/de1/classSHit__v1.html#a5428b1c1c14e3fa3e175e7e915a172bf" target="_top" xlink:title="SHit_v1::get_drift\l_distance">
<polygon fill="none" stroke="black" points="141,-267 141,-297 233,-297 233,-267 141,-267"/>
<text text-anchor="start" x="149" y="-285" font-family="FreeSans" font-size="10.00">SHit_v1::get_drift</text>
<text text-anchor="middle" x="187" y="-274" font-family="FreeSans" font-size="10.00">_distance</text>
</a>
</g>
</g>
<!-- Node1&#45;&gt;Node3 -->
<g id="edge2" class="edge"><title>Node1&#45;&gt;Node3</title>
<path fill="none" stroke="midnightblue" d="M50.7407,-171.702C62.3468,-190.565 90.3792,-232.477 124,-257 126.498,-258.822 129.148,-260.536 131.89,-262.144"/>
<polygon fill="midnightblue" stroke="midnightblue" points="130.42,-265.326 140.893,-266.923 133.702,-259.143 130.42,-265.326"/>
</g>
<!-- Node4 -->
<g id="node4" class="node"><title>Node4</title>
<g id="a_node4"><a xlink:href="../../d2/de1/classSHit__v1.html#a9931eea4a8825d2ddb484b0abb012643" target="_top" xlink:title="SHit_v1::get_element_id">
<polygon fill="none" stroke="black" points="126,-228.5 126,-247.5 248,-247.5 248,-228.5 126,-228.5"/>
<text text-anchor="middle" x="187" y="-235.5" font-family="FreeSans" font-size="10.00">SHit_v1::get_element_id</text>
</a>
</g>
</g>
<!-- Node1&#45;&gt;Node4 -->
<g id="edge3" class="edge"><title>Node1&#45;&gt;Node4</title>
<path fill="none" stroke="midnightblue" d="M55.7615,-171.552C70.3107,-184.029 97.4952,-205.829 124,-219 128.546,-221.259 133.415,-223.312 138.351,-225.161"/>
<polygon fill="midnightblue" stroke="midnightblue" points="137.264,-228.489 147.859,-228.466 139.563,-221.877 137.264,-228.489"/>
</g>
<!-- Node5 -->
<g id="node5" class="node"><title>Node5</title>
<g id="a_node5"><a xlink:href="../../d2/de1/classSHit__v1.html#a6e72e74ab5c7ae034f812139d690301f" target="_top" xlink:title="SHit_v1::get_hit_id">
<polygon fill="none" stroke="black" points="138,-190.5 138,-209.5 236,-209.5 236,-190.5 138,-190.5"/>
<text text-anchor="middle" x="187" y="-197.5" font-family="FreeSans" font-size="10.00">SHit_v1::get_hit_id</text>
</a>
</g>
</g>
<!-- Node1&#45;&gt;Node5 -->
<g id="edge4" class="edge"><title>Node1&#45;&gt;Node5</title>
<path fill="none" stroke="midnightblue" d="M80.5803,-171.589C98.782,-176.494 121.138,-182.52 140.572,-187.757"/>
<polygon fill="midnightblue" stroke="midnightblue" points="139.865,-191.191 150.431,-190.414 141.686,-184.432 139.865,-191.191"/>
</g>
<!-- Node6 -->
<g id="node6" class="node"><title>Node6</title>
<g id="a_node6"><a xlink:href="../../d2/de1/classSHit__v1.html#a52d25f4f21e6e654ba1b9fb08a65db85" target="_top" xlink:title="SHit_v1::get_pos">
<polygon fill="none" stroke="black" points="141.5,-152.5 141.5,-171.5 232.5,-171.5 232.5,-152.5 141.5,-152.5"/>
<text text-anchor="middle" x="187" y="-159.5" font-family="FreeSans" font-size="10.00">SHit_v1::get_pos</text>
</a>
</g>
</g>
<!-- Node1&#45;&gt;Node6 -->
<g id="edge5" class="edge"><title>Node1&#45;&gt;Node6</title>
<path fill="none" stroke="midnightblue" d="M87.6873,-162C101.254,-162 116.457,-162 130.776,-162"/>
<polygon fill="midnightblue" stroke="midnightblue" points="131.011,-165.5 141.011,-162 131.011,-158.5 131.011,-165.5"/>
</g>
<!-- Node7 -->
<g id="node7" class="node"><title>Node7</title>
<g id="a_node7"><a xlink:href="../../d2/de1/classSHit__v1.html#ac7f43463b903aa0d4af033b6a8669bf5" target="_top" xlink:title="SHit_v1::get_tdc_time">
<polygon fill="none" stroke="black" points="130.5,-114.5 130.5,-133.5 243.5,-133.5 243.5,-114.5 130.5,-114.5"/>
<text text-anchor="middle" x="187" y="-121.5" font-family="FreeSans" font-size="10.00">SHit_v1::get_tdc_time</text>
</a>
</g>
</g>
<!-- Node1&#45;&gt;Node7 -->
<g id="edge6" class="edge"><title>Node1&#45;&gt;Node7</title>
<path fill="none" stroke="midnightblue" d="M80.5803,-152.411C98.782,-147.506 121.138,-141.48 140.572,-136.243"/>
<polygon fill="midnightblue" stroke="midnightblue" points="141.686,-139.568 150.431,-133.586 139.865,-132.809 141.686,-139.568"/>
</g>
<!-- Node8 -->
<g id="node8" class="node"><title>Node8</title>
<g id="a_node8"><a xlink:href="../../d2/de1/classSHit__v1.html#af76fea2e6b1e1cc6437e971077403e22" target="_top" xlink:title="SHit_v1::is_hodo_mask">
<polygon fill="none" stroke="black" points="127.5,-76.5 127.5,-95.5 246.5,-95.5 246.5,-76.5 127.5,-76.5"/>
<text text-anchor="middle" x="187" y="-83.5" font-family="FreeSans" font-size="10.00">SHit_v1::is_hodo_mask</text>
</a>
</g>
</g>
<!-- Node1&#45;&gt;Node8 -->
<g id="edge7" class="edge"><title>Node1&#45;&gt;Node8</title>
<path fill="none" stroke="midnightblue" d="M55.7615,-152.448C70.3107,-139.971 97.4952,-118.171 124,-105 128.546,-102.741 133.415,-100.688 138.351,-98.8389"/>
<polygon fill="midnightblue" stroke="midnightblue" points="139.563,-102.123 147.859,-95.5335 137.264,-95.5112 139.563,-102.123"/>
</g>
<!-- Node9 -->
<g id="node9" class="node"><title>Node9</title>
<g id="a_node9"><a xlink:href="../../d2/de1/classSHit__v1.html#aad4a3c283ef698149ac6a5e180a8e746" target="_top" xlink:title="SHit_v1::is_in_time">
<polygon fill="none" stroke="black" points="136.5,-38.5 136.5,-57.5 237.5,-57.5 237.5,-38.5 136.5,-38.5"/>
<text text-anchor="middle" x="187" y="-45.5" font-family="FreeSans" font-size="10.00">SHit_v1::is_in_time</text>
</a>
</g>
</g>
<!-- Node1&#45;&gt;Node9 -->
<g id="edge8" class="edge"><title>Node1&#45;&gt;Node9</title>
<path fill="none" stroke="midnightblue" d="M50.3875,-152.336C61.5683,-133.165 89.1785,-90.1755 124,-67 127.087,-64.9455 130.406,-63.1052 133.846,-61.4579"/>
<polygon fill="midnightblue" stroke="midnightblue" points="135.303,-64.6421 143.159,-57.5338 132.585,-58.1913 135.303,-64.6421"/>
</g>
<!-- Node10 -->
<g id="node10" class="node"><title>Node10</title>
<g id="a_node10"><a xlink:href="../../d2/de1/classSHit__v1.html#a9b7cfe034c76e1bc211cbf20896b8368" target="_top" xlink:title="SHit_v1::is_trigger_mask">
<polygon fill="none" stroke="black" points="124.5,-0.5 124.5,-19.5 249.5,-19.5 249.5,-0.5 124.5,-0.5"/>
<text text-anchor="middle" x="187" y="-7.5" font-family="FreeSans" font-size="10.00">SHit_v1::is_trigger_mask</text>
</a>
</g>
</g>
<!-- Node1&#45;&gt;Node10 -->
<g id="edge9" class="edge"><title>Node1&#45;&gt;Node10</title>
<path fill="none" stroke="midnightblue" d="M48.0029,-152.318C56.0939,-127.841 80.7127,-63.0198 124,-29 126.324,-27.1739 128.822,-25.5226 131.436,-24.0293"/>
<polygon fill="midnightblue" stroke="midnightblue" points="133.215,-27.0565 140.679,-19.5371 130.155,-20.7607 133.215,-27.0565"/>
</g>
</g>
</svg>
