<?xml version="1.0" encoding="UTF-8" standalone="no"?>
<!DOCTYPE svg PUBLIC "-//W3C//DTD SVG 1.1//EN"
 "http://www.w3.org/Graphics/SVG/1.1/DTD/svg11.dtd">
<!-- Generated by graphviz version 2.36.0 (20140111.2315)
 -->
<!-- Title: SHit_v1::SHit_v1 Pages: 1 -->
<svg width="218pt" height="66pt"
 viewBox="0.00 0.00 218.00 66.00" xmlns="http://www.w3.org/2000/svg" xmlns:xlink="http://www.w3.org/1999/xlink">
<g id="graph0" class="graph" transform="scale(1 1) rotate(0) translate(4 62)">
<title>SHit_v1::SHit_v1</title>
<!-- Node1 -->
<g id="node1" class="node"><title>Node1</title>
<polygon fill="#bfbfbf" stroke="black" points="0,-19.5 0,-38.5 92,-38.5 92,-19.5 0,-19.5"/>
<text text-anchor="middle" x="46" y="-26.5" font-family="FreeSans" font-size="10.00">SHit_v1::SHit_v1</text>
</g>
<!-- Node2 -->
<g id="node2" class="node"><title>Node2</title>
<g id="a_node2"><a xlink:href="../../d2/de1/classSHit__v1.html#a98a604a82239c5c42657dae277a8e3bc" target="_top" xlink:title="SHit_v1::Clone">
<polygon fill="none" stroke="black" points="128.5,-38.5 128.5,-57.5 209.5,-57.5 209.5,-38.5 128.5,-38.5"/>
<text text-anchor="middle" x="169" y="-45.5" font-family="FreeSans" font-size="10.00">SHit_v1::Clone</text>
</a>
</g>
</g>
<!-- Node1&#45;&gt;Node2 -->
<g id="edge1" class="edge"><title>Node1&#45;&gt;Node2</title>
<path fill="none" stroke="midnightblue" d="M102.019,-37.6393C110.94,-39.0402 120.022,-40.4663 128.48,-41.7943"/>
<polygon fill="midnightblue" stroke="midnightblue" points="102.478,-34.1686 92.0559,-36.0749 101.392,-41.0839 102.478,-34.1686"/>
</g>
<!-- Node3 -->
<g id="node3" class="node"><title>Node3</title>
<g id="a_node3"><a xlink:href="../../d2/de1/classSHit__v1.html#a226252b52d67bc7d88aa2513c21863f6" target="_top" xlink:title="Clear Event. ">
<polygon fill="none" stroke="black" points="128,-0.5 128,-19.5 210,-19.5 210,-0.5 128,-0.5"/>
<text text-anchor="middle" x="169" y="-7.5" font-family="FreeSans" font-size="10.00">SHit_v1::Reset</text>
</a>
</g>
</g>
<!-- Node1&#45;&gt;Node3 -->
<g id="edge2" class="edge"><title>Node1&#45;&gt;Node3</title>
<path fill="none" stroke="midnightblue" d="M102.074,-20.3521C110.702,-18.9973 119.478,-17.6192 127.693,-16.3292"/>
<polygon fill="midnightblue" stroke="midnightblue" points="101.392,-16.9161 92.0559,-21.9251 102.478,-23.8314 101.392,-16.9161"/>
</g>
</g>
</svg>
