<?xml version="1.0" encoding="UTF-8" standalone="no"?>
<!DOCTYPE svg PUBLIC "-//W3C//DTD SVG 1.1//EN"
 "http://www.w3.org/Graphics/SVG/1.1/DTD/svg11.dtd">
<!-- Generated by graphviz version 2.36.0 (20140111.2315)
 -->
<!-- Title: SHitMap Pages: 1 -->
<svg width="78pt" height="196pt"
 viewBox="0.00 0.00 78.00 196.00" xmlns="http://www.w3.org/2000/svg" xmlns:xlink="http://www.w3.org/1999/xlink">
<g id="graph0" class="graph" transform="scale(1 1) rotate(0) translate(4 192)">
<title>SHitMap</title>
<!-- Node1 -->
<g id="node1" class="node"><title>Node1</title>
<polygon fill="#bfbfbf" stroke="black" points="7.5,-56.5 7.5,-75.5 62.5,-75.5 62.5,-56.5 7.5,-56.5"/>
<text text-anchor="middle" x="35" y="-63.5" font-family="FreeSans" font-size="10.00">SHitMap</text>
</g>
<!-- Node4 -->
<g id="node4" class="node"><title>Node4</title>
<g id="a_node4"><a xlink:href="../../de/d92/classSHitMap__v1.html" target="_top" xlink:title="SHitMap_v1">
<polygon fill="none" stroke="black" points="-0.5,-0.5 -0.5,-19.5 70.5,-19.5 70.5,-0.5 -0.5,-0.5"/>
<text text-anchor="middle" x="35" y="-7.5" font-family="FreeSans" font-size="10.00">SHitMap_v1</text>
</a>
</g>
</g>
<!-- Node1&#45;&gt;Node4 -->
<g id="edge3" class="edge"><title>Node1&#45;&gt;Node4</title>
<path fill="none" stroke="midnightblue" d="M35,-45.8045C35,-36.9102 35,-26.7798 35,-19.7511"/>
<polygon fill="midnightblue" stroke="midnightblue" points="31.5001,-46.083 35,-56.083 38.5001,-46.083 31.5001,-46.083"/>
</g>
<!-- Node2 -->
<g id="node2" class="node"><title>Node2</title>
<g id="a_node2"><a xlink:href="../../d9/d24/classPHObject.html" target="_top" xlink:title="PHObject">
<polygon fill="none" stroke="black" points="5.5,-112.5 5.5,-131.5 64.5,-131.5 64.5,-112.5 5.5,-112.5"/>
<text text-anchor="middle" x="35" y="-119.5" font-family="FreeSans" font-size="10.00">PHObject</text>
</a>
</g>
</g>
<!-- Node2&#45;&gt;Node1 -->
<g id="edge1" class="edge"><title>Node2&#45;&gt;Node1</title>
<path fill="none" stroke="midnightblue" d="M35,-101.805C35,-92.9102 35,-82.7798 35,-75.7511"/>
<polygon fill="midnightblue" stroke="midnightblue" points="31.5001,-102.083 35,-112.083 38.5001,-102.083 31.5001,-102.083"/>
</g>
<!-- Node3 -->
<g id="node3" class="node"><title>Node3</title>
<polygon fill="none" stroke="#bfbfbf" points="9.5,-168.5 9.5,-187.5 60.5,-187.5 60.5,-168.5 9.5,-168.5"/>
<text text-anchor="middle" x="35" y="-175.5" font-family="FreeSans" font-size="10.00">TObject</text>
</g>
<!-- Node3&#45;&gt;Node2 -->
<g id="edge2" class="edge"><title>Node3&#45;&gt;Node2</title>
<path fill="none" stroke="midnightblue" d="M35,-157.805C35,-148.91 35,-138.78 35,-131.751"/>
<polygon fill="midnightblue" stroke="midnightblue" points="31.5001,-158.083 35,-168.083 38.5001,-158.083 31.5001,-158.083"/>
</g>
</g>
</svg>
