<?xml version="1.0" encoding="UTF-8" standalone="no"?>
<!DOCTYPE svg PUBLIC "-//W3C//DTD SVG 1.1//EN"
 "http://www.w3.org/Graphics/SVG/1.1/DTD/svg11.dtd">
<!-- Generated by graphviz version 2.36.0 (20140111.2315)
 -->
<!-- Title: Fun4AllServer::registerSubsystem Pages: 1 -->
<svg width="328pt" height="142pt"
 viewBox="0.00 0.00 328.00 142.00" xmlns="http://www.w3.org/2000/svg" xmlns:xlink="http://www.w3.org/1999/xlink">
<g id="graph0" class="graph" transform="scale(1 1) rotate(0) translate(4 138)">
<title>Fun4AllServer::registerSubsystem</title>
<!-- Node1 -->
<g id="node1" class="node"><title>Node1</title>
<polygon fill="#bfbfbf" stroke="black" points="0,-57.5 0,-76.5 164,-76.5 164,-57.5 0,-57.5"/>
<text text-anchor="middle" x="82" y="-64.5" font-family="FreeSans" font-size="10.00">Fun4AllServer::registerSubsystem</text>
</g>
<!-- Node2 -->
<g id="node2" class="node"><title>Node2</title>
<g id="a_node2"><a xlink:href="../../d0/d32/classSubsysReco.html#a6670c0a093dd2c2bdd44f8fc6f9ba8e8" target="_top" xlink:title="SubsysReco::Init">
<polygon fill="none" stroke="black" points="215.5,-114.5 215.5,-133.5 304.5,-133.5 304.5,-114.5 215.5,-114.5"/>
<text text-anchor="middle" x="260" y="-121.5" font-family="FreeSans" font-size="10.00">SubsysReco::Init</text>
</a>
</g>
</g>
<!-- Node1&#45;&gt;Node2 -->
<g id="edge1" class="edge"><title>Node1&#45;&gt;Node2</title>
<path fill="none" stroke="midnightblue" d="M112.324,-76.5464C135.985,-84.2437 170.129,-95.3393 200,-105 206.249,-107.021 212.872,-109.158 219.335,-111.241"/>
<polygon fill="midnightblue" stroke="midnightblue" points="218.692,-114.711 229.283,-114.446 220.838,-108.048 218.692,-114.711"/>
</g>
<!-- Node3 -->
<g id="node3" class="node"><title>Node3</title>
<g id="a_node3"><a xlink:href="../../da/d29/classFun4AllServer.html#a3e55156f91b2c94bb6c4ef33ffce587a" target="_top" xlink:title="Fun4AllServer::instance">
<polygon fill="none" stroke="black" points="200.5,-76.5 200.5,-95.5 319.5,-95.5 319.5,-76.5 200.5,-76.5"/>
<text text-anchor="middle" x="260" y="-83.5" font-family="FreeSans" font-size="10.00">Fun4AllServer::instance</text>
</a>
</g>
</g>
<!-- Node1&#45;&gt;Node3 -->
<g id="edge2" class="edge"><title>Node1&#45;&gt;Node3</title>
<path fill="none" stroke="midnightblue" d="M164.046,-75.7492C172.864,-76.7013 181.777,-77.6634 190.426,-78.5971"/>
<polygon fill="midnightblue" stroke="midnightblue" points="190.119,-82.0842 200.437,-79.6778 190.87,-75.1246 190.119,-82.0842"/>
</g>
<!-- Node4 -->
<g id="node4" class="node"><title>Node4</title>
<g id="a_node4"><a xlink:href="../../d5/dec/classFun4AllBase.html#a41f9ac377743d046f590617fd6f4f0ed" target="_top" xlink:title="Returns the name of this module. ">
<polygon fill="none" stroke="black" points="208.5,-38.5 208.5,-57.5 311.5,-57.5 311.5,-38.5 208.5,-38.5"/>
<text text-anchor="middle" x="260" y="-45.5" font-family="FreeSans" font-size="10.00">Fun4AllBase::Name</text>
</a>
</g>
</g>
<!-- Node1&#45;&gt;Node4 -->
<g id="edge3" class="edge"><title>Node1&#45;&gt;Node4</title>
<path fill="none" stroke="midnightblue" d="M164.046,-58.2508C175.395,-57.0256 186.899,-55.7836 197.797,-54.6071"/>
<polygon fill="midnightblue" stroke="midnightblue" points="198.469,-58.055 208.035,-53.5019 197.717,-51.0955 198.469,-58.055"/>
</g>
<!-- Node5 -->
<g id="node5" class="node"><title>Node5</title>
<g id="a_node5"><a xlink:href="../../da/d29/classFun4AllServer.html#abcaf6825367e5db292ff795237bdcf62" target="_top" xlink:title="Fun4AllServer::topNode">
<polygon fill="none" stroke="black" points="200.5,-0.5 200.5,-19.5 319.5,-19.5 319.5,-0.5 200.5,-0.5"/>
<text text-anchor="middle" x="260" y="-7.5" font-family="FreeSans" font-size="10.00">Fun4AllServer::topNode</text>
</a>
</g>
</g>
<!-- Node1&#45;&gt;Node5 -->
<g id="edge4" class="edge"><title>Node1&#45;&gt;Node5</title>
<path fill="none" stroke="midnightblue" d="M112.324,-57.4536C135.985,-49.7563 170.129,-38.6607 200,-29 206.249,-26.979 212.872,-24.8418 219.335,-22.7586"/>
<polygon fill="midnightblue" stroke="midnightblue" points="220.838,-25.9515 229.283,-19.5539 218.692,-19.2887 220.838,-25.9515"/>
</g>
</g>
</svg>
