<?xml version="1.0" encoding="UTF-8" standalone="no"?>
<!DOCTYPE svg PUBLIC "-//W3C//DTD SVG 1.1//EN"
 "http://www.w3.org/Graphics/SVG/1.1/DTD/svg11.dtd">
<!-- Generated by graphviz version 2.36.0 (20140111.2315)
 -->
<!-- Title: Fun4AllServer::~Fun4AllServer Pages: 1 -->
<svg width="458pt" height="66pt"
 viewBox="0.00 0.00 458.00 66.00" xmlns="http://www.w3.org/2000/svg" xmlns:xlink="http://www.w3.org/1999/xlink">
<g id="graph0" class="graph" transform="scale(1 1) rotate(0) translate(4 62)">
<title>Fun4AllServer::~Fun4AllServer</title>
<!-- Node1 -->
<g id="node1" class="node"><title>Node1</title>
<polygon fill="#bfbfbf" stroke="black" points="0.5,-19.5 0.5,-38.5 149.5,-38.5 149.5,-19.5 0.5,-19.5"/>
<text text-anchor="middle" x="75" y="-26.5" font-family="FreeSans" font-size="10.00">Fun4AllServer::~Fun4AllServer</text>
</g>
<!-- Node2 -->
<g id="node2" class="node"><title>Node2</title>
<g id="a_node2"><a xlink:href="../../d8/d14/classrecoConsts.html#ae69a5c29a7199ba16d0e537158618802" target="_top" xlink:title="recoConsts::instance">
<polygon fill="none" stroke="black" points="186.5,-38.5 186.5,-57.5 293.5,-57.5 293.5,-38.5 186.5,-38.5"/>
<text text-anchor="middle" x="240" y="-45.5" font-family="FreeSans" font-size="10.00">recoConsts::instance</text>
</a>
</g>
</g>
<!-- Node1&#45;&gt;Node2 -->
<g id="edge1" class="edge"><title>Node1&#45;&gt;Node2</title>
<path fill="none" stroke="midnightblue" d="M149.869,-37.6105C158.709,-38.6409 167.669,-39.6853 176.329,-40.6948"/>
<polygon fill="midnightblue" stroke="midnightblue" points="175.994,-44.1793 186.332,-41.8608 176.804,-37.2264 175.994,-44.1793"/>
</g>
<!-- Node4 -->
<g id="node4" class="node"><title>Node4</title>
<g id="a_node4"><a xlink:href="../../da/d29/classFun4AllServer.html#a2eb708f9b40dea8edfe0296cab59a7ce" target="_top" xlink:title="Fun4AllServer::Reset">
<polygon fill="none" stroke="black" points="186,-0.5 186,-19.5 294,-19.5 294,-0.5 186,-0.5"/>
<text text-anchor="middle" x="240" y="-7.5" font-family="FreeSans" font-size="10.00">Fun4AllServer::Reset</text>
</a>
</g>
</g>
<!-- Node1&#45;&gt;Node4 -->
<g id="edge3" class="edge"><title>Node1&#45;&gt;Node4</title>
<path fill="none" stroke="midnightblue" d="M149.869,-20.3895C158.493,-19.3843 167.231,-18.3657 175.694,-17.3793"/>
<polygon fill="midnightblue" stroke="midnightblue" points="176.326,-20.8294 185.853,-16.195 175.515,-13.8764 176.326,-20.8294"/>
</g>
<!-- Node3 -->
<g id="node3" class="node"><title>Node3</title>
<g id="a_node3"><a xlink:href="../../d8/d14/classrecoConsts.html#ae882d6adc62f783ec78114fe3dee3c24" target="_top" xlink:title="recoConsts::recoConsts">
<polygon fill="none" stroke="black" points="330,-38.5 330,-57.5 450,-57.5 450,-38.5 330,-38.5"/>
<text text-anchor="middle" x="390" y="-45.5" font-family="FreeSans" font-size="10.00">recoConsts::recoConsts</text>
</a>
</g>
</g>
<!-- Node2&#45;&gt;Node3 -->
<g id="edge2" class="edge"><title>Node2&#45;&gt;Node3</title>
<path fill="none" stroke="midnightblue" d="M293.596,-48C302.016,-48 310.841,-48 319.58,-48"/>
<polygon fill="midnightblue" stroke="midnightblue" points="319.77,-51.5001 329.77,-48 319.77,-44.5001 319.77,-51.5001"/>
</g>
</g>
</svg>
