<?xml version="1.0" encoding="UTF-8" standalone="no"?>
<!DOCTYPE svg PUBLIC "-//W3C//DTD SVG 1.1//EN"
 "http://www.w3.org/Graphics/SVG/1.1/DTD/svg11.dtd">
<!-- Generated by graphviz version 2.36.0 (20140111.2315)
 -->
<!-- Title: Fun4AllServer::unregisterSubsystemsNow Pages: 1 -->
<svg width="610pt" height="96pt"
 viewBox="0.00 0.00 610.00 96.00" xmlns="http://www.w3.org/2000/svg" xmlns:xlink="http://www.w3.org/1999/xlink">
<g id="graph0" class="graph" transform="scale(1 1) rotate(0) translate(4 92)">
<title>Fun4AllServer::unregisterSubsystemsNow</title>
<!-- Node1 -->
<g id="node1" class="node"><title>Node1</title>
<polygon fill="#bfbfbf" stroke="black" points="0.5,-22 0.5,-52 125.5,-52 125.5,-22 0.5,-22"/>
<text text-anchor="start" x="8.5" y="-40" font-family="FreeSans" font-size="10.00">Fun4AllServer::unregister</text>
<text text-anchor="middle" x="63" y="-29" font-family="FreeSans" font-size="10.00">SubsystemsNow</text>
</g>
<!-- Node2 -->
<g id="node2" class="node"><title>Node2</title>
<g id="a_node2"><a xlink:href="../../da/d29/classFun4AllServer.html#afcfc5583204cac58b4e66a2406187a18" target="_top" xlink:title="Fun4AllServer::BeginRun">
<polygon fill="none" stroke="black" points="162.5,-49.5 162.5,-68.5 287.5,-68.5 287.5,-49.5 162.5,-49.5"/>
<text text-anchor="middle" x="225" y="-56.5" font-family="FreeSans" font-size="10.00">Fun4AllServer::BeginRun</text>
</a>
</g>
</g>
<!-- Node1&#45;&gt;Node2 -->
<g id="edge1" class="edge"><title>Node1&#45;&gt;Node2</title>
<path fill="none" stroke="midnightblue" d="M135.775,-46.8691C144.629,-48.0865 153.619,-49.3226 162.304,-50.5168"/>
<polygon fill="midnightblue" stroke="midnightblue" points="136.244,-43.4007 125.86,-45.5058 135.29,-50.3354 136.244,-43.4007"/>
</g>
<!-- Node6 -->
<g id="node6" class="node"><title>Node6</title>
<g id="a_node6"><a xlink:href="../../da/d29/classFun4AllServer.html#a6a65a944dfb40966ace97d35ab1f7942" target="_top" xlink:title="Fun4AllServer::process\l_event">
<polygon fill="none" stroke="black" points="166.5,-0 166.5,-30 283.5,-30 283.5,-0 166.5,-0"/>
<text text-anchor="start" x="174.5" y="-18" font-family="FreeSans" font-size="10.00">Fun4AllServer::process</text>
<text text-anchor="middle" x="225" y="-7" font-family="FreeSans" font-size="10.00">_event</text>
</a>
</g>
</g>
<!-- Node1&#45;&gt;Node6 -->
<g id="edge5" class="edge"><title>Node1&#45;&gt;Node6</title>
<path fill="none" stroke="midnightblue" d="M135.994,-27.1009C146.211,-25.696 156.604,-24.2669 166.498,-22.9066"/>
<polygon fill="midnightblue" stroke="midnightblue" points="135.29,-23.6646 125.86,-28.4942 136.244,-30.5993 135.29,-23.6646"/>
</g>
<!-- Node3 -->
<g id="node3" class="node"><title>Node3</title>
<g id="a_node3"><a xlink:href="../../da/d29/classFun4AllServer.html#a11bbc8b2f53bc06e0b05ee202dd6372a" target="_top" xlink:title="run n events (0 means up to end of file) ">
<polygon fill="none" stroke="black" points="335,-49.5 335,-68.5 431,-68.5 431,-49.5 335,-49.5"/>
<text text-anchor="middle" x="383" y="-56.5" font-family="FreeSans" font-size="10.00">Fun4AllServer::run</text>
</a>
</g>
</g>
<!-- Node2&#45;&gt;Node3 -->
<g id="edge2" class="edge"><title>Node2&#45;&gt;Node3</title>
<path fill="none" stroke="midnightblue" d="M297.67,-59C310.247,-59 323.045,-59 334.745,-59"/>
<polygon fill="midnightblue" stroke="midnightblue" points="297.655,-55.5001 287.655,-59 297.655,-62.5001 297.655,-55.5001"/>
</g>
<!-- Node4 -->
<g id="node4" class="node"><title>Node4</title>
<g id="a_node4"><a xlink:href="../../d0/d46/Fun4__SimpleReadMySql_8C.html#a70381893748e3445abc30632beb256ce" target="_top" xlink:title="Fun4_SimpleReadMySql">
<polygon fill="none" stroke="black" points="478.5,-68.5 478.5,-87.5 601.5,-87.5 601.5,-68.5 478.5,-68.5"/>
<text text-anchor="middle" x="540" y="-75.5" font-family="FreeSans" font-size="10.00">Fun4_SimpleReadMySql</text>
</a>
</g>
</g>
<!-- Node3&#45;&gt;Node4 -->
<g id="edge3" class="edge"><title>Node3&#45;&gt;Node4</title>
<path fill="none" stroke="midnightblue" d="M441.328,-66.0273C453.441,-67.5121 466.26,-69.0835 478.487,-70.5823"/>
<polygon fill="midnightblue" stroke="midnightblue" points="441.699,-62.5467 431.347,-64.8039 440.847,-69.4947 441.699,-62.5467"/>
</g>
<!-- Node5 -->
<g id="node5" class="node"><title>Node5</title>
<g id="a_node5"><a xlink:href="../../d9/d8c/Fun4ReadMySql_8C.html#a729b39fa627147c63772f28c9be36b62" target="_top" xlink:title="Fun4ReadMySql">
<polygon fill="none" stroke="black" points="496,-30.5 496,-49.5 584,-49.5 584,-30.5 496,-30.5"/>
<text text-anchor="middle" x="540" y="-37.5" font-family="FreeSans" font-size="10.00">Fun4ReadMySql</text>
</a>
</g>
</g>
<!-- Node3&#45;&gt;Node5 -->
<g id="edge4" class="edge"><title>Node3&#45;&gt;Node5</title>
<path fill="none" stroke="midnightblue" d="M441.457,-51.9569C459.476,-49.7481 479.048,-47.349 495.898,-45.2835"/>
<polygon fill="midnightblue" stroke="midnightblue" points="440.847,-48.5054 431.347,-53.1961 441.699,-55.4533 440.847,-48.5054"/>
</g>
<!-- Node6&#45;&gt;Node3 -->
<g id="edge7" class="edge"><title>Node6&#45;&gt;Node3</title>
<path fill="none" stroke="midnightblue" d="M289.019,-32.7745C309.196,-38.4654 330.762,-44.5484 348.041,-49.4217"/>
<polygon fill="midnightblue" stroke="midnightblue" points="289.825,-29.3653 279.25,-30.0192 287.924,-36.1025 289.825,-29.3653"/>
</g>
<!-- Node7 -->
<g id="node7" class="node"><title>Node7</title>
<g id="a_node7"><a xlink:href="../../da/d29/classFun4AllServer.html#a94738b092fa009fcea45737d8ea41224" target="_top" xlink:title="Fun4AllServer::process\l_event">
<polygon fill="none" stroke="black" points="324.5,-0 324.5,-30 441.5,-30 441.5,-0 324.5,-0"/>
<text text-anchor="start" x="332.5" y="-18" font-family="FreeSans" font-size="10.00">Fun4AllServer::process</text>
<text text-anchor="middle" x="383" y="-7" font-family="FreeSans" font-size="10.00">_event</text>
</a>
</g>
</g>
<!-- Node6&#45;&gt;Node7 -->
<g id="edge6" class="edge"><title>Node6&#45;&gt;Node7</title>
<path fill="none" stroke="midnightblue" d="M293.737,-15C303.935,-15 314.371,-15 324.331,-15"/>
<polygon fill="midnightblue" stroke="midnightblue" points="293.645,-11.5001 283.645,-15 293.645,-18.5001 293.645,-11.5001"/>
</g>
</g>
</svg>
