<?xml version="1.0" encoding="UTF-8" standalone="no"?>
<!DOCTYPE svg PUBLIC "-//W3C//DTD SVG 1.1//EN"
 "http://www.w3.org/Graphics/SVG/1.1/DTD/svg11.dtd">
<!-- Generated by graphviz version 2.36.0 (20140111.2315)
 -->
<!-- Title: Fun4AllServer::ResetNodeTree Pages: 1 -->
<svg width="476pt" height="155pt"
 viewBox="0.00 0.00 476.00 155.00" xmlns="http://www.w3.org/2000/svg" xmlns:xlink="http://www.w3.org/1999/xlink">
<g id="graph0" class="graph" transform="scale(1 1) rotate(0) translate(4 151)">
<title>Fun4AllServer::ResetNodeTree</title>
<!-- Node1 -->
<g id="node1" class="node"><title>Node1</title>
<polygon fill="#bfbfbf" stroke="black" points="0.5,-38.5 0.5,-57.5 151.5,-57.5 151.5,-38.5 0.5,-38.5"/>
<text text-anchor="middle" x="76" y="-45.5" font-family="FreeSans" font-size="10.00">Fun4AllServer::ResetNodeTree</text>
</g>
<!-- Node2 -->
<g id="node2" class="node"><title>Node2</title>
<g id="a_node2"><a xlink:href="../../d5/d07/classPHNodeIterator.html#a4cfa0490b6522394b13723c7db38a3a6" target="_top" xlink:title="PHNodeIterator::cd">
<polygon fill="none" stroke="black" points="209,-94.5 209,-113.5 309,-113.5 309,-94.5 209,-94.5"/>
<text text-anchor="middle" x="259" y="-101.5" font-family="FreeSans" font-size="10.00">PHNodeIterator::cd</text>
</a>
</g>
</g>
<!-- Node1&#45;&gt;Node2 -->
<g id="edge1" class="edge"><title>Node1&#45;&gt;Node2</title>
<path fill="none" stroke="midnightblue" d="M104.232,-57.557C126.618,-65.2975 159.221,-76.3054 188,-85 195.543,-87.279 203.582,-89.5791 211.422,-91.7539"/>
<polygon fill="midnightblue" stroke="midnightblue" points="210.626,-95.1647 221.195,-94.4305 212.475,-88.4133 210.626,-95.1647"/>
</g>
<!-- Node6 -->
<g id="node6" class="node"><title>Node6</title>
<g id="a_node6"><a xlink:href="../../d5/d07/classPHNodeIterator.html#afeaefab44bf0ab15a439926205924f19" target="_top" xlink:title="PHNodeIterator::forEach">
<polygon fill="none" stroke="black" points="198,-38.5 198,-57.5 320,-57.5 320,-38.5 198,-38.5"/>
<text text-anchor="middle" x="259" y="-45.5" font-family="FreeSans" font-size="10.00">PHNodeIterator::forEach</text>
</a>
</g>
</g>
<!-- Node1&#45;&gt;Node6 -->
<g id="edge5" class="edge"><title>Node1&#45;&gt;Node6</title>
<path fill="none" stroke="midnightblue" d="M151.665,-48C163.565,-48 175.842,-48 187.638,-48"/>
<polygon fill="midnightblue" stroke="midnightblue" points="187.859,-51.5001 197.859,-48 187.859,-44.5001 187.859,-51.5001"/>
</g>
<!-- Node7 -->
<g id="node7" class="node"><title>Node7</title>
<g id="a_node7"><a xlink:href="../../db/d8e/classPHNodeOperation.html#a641fdf1094ec15063171e199a4066a0d" target="_top" xlink:title="PHNodeOperation::Verbosity">
<polygon fill="none" stroke="black" points="188.5,-0.5 188.5,-19.5 329.5,-19.5 329.5,-0.5 188.5,-0.5"/>
<text text-anchor="middle" x="259" y="-7.5" font-family="FreeSans" font-size="10.00">PHNodeOperation::Verbosity</text>
</a>
</g>
</g>
<!-- Node1&#45;&gt;Node7 -->
<g id="edge8" class="edge"><title>Node1&#45;&gt;Node7</title>
<path fill="none" stroke="midnightblue" d="M122.674,-38.411C146.989,-33.3061 177.08,-26.9887 202.708,-21.6082"/>
<polygon fill="midnightblue" stroke="midnightblue" points="203.587,-25.0001 212.654,-19.5201 202.149,-18.1495 203.587,-25.0001"/>
</g>
<!-- Node3 -->
<g id="node3" class="node"><title>Node3</title>
<g id="a_node3"><a xlink:href="../../dc/d82/classPHNode.html#a5c15cb20d02290b69eb4d7f6051c9722" target="_top" xlink:title="PHNode::getParent">
<polygon fill="none" stroke="black" points="366.5,-127.5 366.5,-146.5 467.5,-146.5 467.5,-127.5 366.5,-127.5"/>
<text text-anchor="middle" x="417" y="-134.5" font-family="FreeSans" font-size="10.00">PHNode::getParent</text>
</a>
</g>
</g>
<!-- Node2&#45;&gt;Node3 -->
<g id="edge2" class="edge"><title>Node2&#45;&gt;Node3</title>
<path fill="none" stroke="midnightblue" d="M305.122,-113.545C322.585,-117.239 342.739,-121.502 361.035,-125.373"/>
<polygon fill="midnightblue" stroke="midnightblue" points="360.472,-128.831 370.98,-127.476 361.921,-121.983 360.472,-128.831"/>
</g>
<!-- Node4 -->
<g id="node4" class="node"><title>Node4</title>
<g id="a_node4"><a xlink:href="../../dc/d82/classPHNode.html#a4ab1f90aed955a652813bfe377087bda" target="_top" xlink:title="PHNode::getType">
<polygon fill="none" stroke="black" points="370.5,-47.5 370.5,-66.5 463.5,-66.5 463.5,-47.5 370.5,-47.5"/>
<text text-anchor="middle" x="417" y="-54.5" font-family="FreeSans" font-size="10.00">PHNode::getType</text>
</a>
</g>
</g>
<!-- Node2&#45;&gt;Node4 -->
<g id="edge3" class="edge"><title>Node2&#45;&gt;Node4</title>
<path fill="none" stroke="midnightblue" d="M296.429,-94.4804C307.264,-91.5498 319.14,-88.2397 330,-85 345.771,-80.2955 363.044,-74.7497 377.945,-69.8401"/>
<polygon fill="midnightblue" stroke="midnightblue" points="379.445,-73.0303 387.835,-66.5609 377.242,-66.386 379.445,-73.0303"/>
</g>
<!-- Node5 -->
<g id="node5" class="node"><title>Node5</title>
<g id="a_node5"><a xlink:href="../../dc/d82/classPHNode.html#aca3576f926a4401eddc3d88bf0ce0de3" target="_top" xlink:title="PHNode::getName">
<polygon fill="none" stroke="black" points="368,-89.5 368,-108.5 466,-108.5 466,-89.5 368,-89.5"/>
<text text-anchor="middle" x="417" y="-96.5" font-family="FreeSans" font-size="10.00">PHNode::getName</text>
</a>
</g>
</g>
<!-- Node2&#45;&gt;Node5 -->
<g id="edge4" class="edge"><title>Node2&#45;&gt;Node5</title>
<path fill="none" stroke="midnightblue" d="M309.359,-102.418C324.663,-101.927 341.675,-101.382 357.536,-100.874"/>
<polygon fill="midnightblue" stroke="midnightblue" points="357.88,-104.365 367.762,-100.546 357.655,-97.3683 357.88,-104.365"/>
</g>
<!-- Node6&#45;&gt;Node4 -->
<g id="edge6" class="edge"><title>Node6&#45;&gt;Node4</title>
<path fill="none" stroke="midnightblue" d="M320.314,-51.4796C333.438,-52.2368 347.268,-53.0347 360.209,-53.7813"/>
<polygon fill="midnightblue" stroke="midnightblue" points="360.18,-57.2854 370.365,-54.3672 360.584,-50.297 360.18,-57.2854"/>
</g>
<!-- Node6&#45;&gt;Node6 -->
<g id="edge7" class="edge"><title>Node6&#45;&gt;Node6</title>
<path fill="none" stroke="midnightblue" d="M234.648,-57.7571C222.801,-66.5653 230.918,-76 259,-76 277.429,-76 287.26,-71.9368 288.492,-66.6539"/>
<polygon fill="midnightblue" stroke="midnightblue" points="291.386,-64.665 283.352,-57.7571 285.324,-68.1668 291.386,-64.665"/>
</g>
</g>
</svg>
