<?xml version="1.0" encoding="UTF-8" standalone="no"?>
<!DOCTYPE svg PUBLIC "-//W3C//DTD SVG 1.1//EN"
 "http://www.w3.org/Graphics/SVG/1.1/DTD/svg11.dtd">
<!-- Generated by graphviz version 2.36.0 (20140111.2315)
 -->
<!-- Title: Fun4AllServer::instance Pages: 1 -->
<svg width="848pt" height="497pt"
 viewBox="0.00 0.00 848.00 497.00" xmlns="http://www.w3.org/2000/svg" xmlns:xlink="http://www.w3.org/1999/xlink">
<g id="graph0" class="graph" transform="scale(1 1) rotate(0) translate(4 493)">
<title>Fun4AllServer::instance</title>
<!-- Node1 -->
<g id="node1" class="node"><title>Node1</title>
<polygon fill="#bfbfbf" stroke="black" points="0.5,-229.5 0.5,-248.5 119.5,-248.5 119.5,-229.5 0.5,-229.5"/>
<text text-anchor="middle" x="60" y="-236.5" font-family="FreeSans" font-size="10.00">Fun4AllServer::instance</text>
</g>
<!-- Node2 -->
<g id="node2" class="node"><title>Node2</title>
<g id="a_node2"><a xlink:href="../../dd/ded/classFun4AllSyncManager.html#a8b09000694a12e572075bc5f9824b13f" target="_top" xlink:title="Fun4AllSyncManager\l::CurrentEvent">
<polygon fill="none" stroke="black" points="183.5,-410 183.5,-440 292.5,-440 292.5,-410 183.5,-410"/>
<text text-anchor="start" x="191.5" y="-428" font-family="FreeSans" font-size="10.00">Fun4AllSyncManager</text>
<text text-anchor="middle" x="238" y="-417" font-family="FreeSans" font-size="10.00">::CurrentEvent</text>
</a>
</g>
</g>
<!-- Node1&#45;&gt;Node2 -->
<g id="edge1" class="edge"><title>Node1&#45;&gt;Node2</title>
<path fill="none" stroke="midnightblue" d="M67.1325,-258.235C78.8739,-291.981 107.74,-361.88 156,-400 163.969,-406.294 173.526,-411.012 183.237,-414.545"/>
<polygon fill="midnightblue" stroke="midnightblue" points="70.4123,-257.007 63.9192,-248.635 63.7743,-259.229 70.4123,-257.007"/>
</g>
<!-- Node4 -->
<g id="node4" class="node"><title>Node4</title>
<g id="a_node4"><a xlink:href="../../d7/d0b/classFun4AllDstInputManager.html#a4d32eadb9f77d41387656b87377ef14f" target="_top" xlink:title="Fun4AllDstInputManager\l::fileopen">
<polygon fill="none" stroke="black" points="176,-459 176,-489 300,-489 300,-459 176,-459"/>
<text text-anchor="start" x="184" y="-477" font-family="FreeSans" font-size="10.00">Fun4AllDstInputManager</text>
<text text-anchor="middle" x="238" y="-466" font-family="FreeSans" font-size="10.00">::fileopen</text>
</a>
</g>
</g>
<!-- Node1&#45;&gt;Node4 -->
<g id="edge3" class="edge"><title>Node1&#45;&gt;Node4</title>
<path fill="none" stroke="midnightblue" d="M64.2854,-258.472C72.2774,-299.77 96.6157,-396.635 156,-449 161.74,-454.062 168.49,-458.098 175.603,-461.318"/>
<polygon fill="midnightblue" stroke="midnightblue" points="67.721,-257.802 62.485,-248.592 60.8344,-259.057 67.721,-257.802"/>
</g>
<!-- Node9 -->
<g id="node9" class="node"><title>Node9</title>
<g id="a_node9"><a xlink:href="../../d0/d46/Fun4__SimpleReadMySql_8C.html#a70381893748e3445abc30632beb256ce" target="_top" xlink:title="Fun4_SimpleReadMySql">
<polygon fill="none" stroke="black" points="367.5,-238.5 367.5,-257.5 490.5,-257.5 490.5,-238.5 367.5,-238.5"/>
<text text-anchor="middle" x="429" y="-245.5" font-family="FreeSans" font-size="10.00">Fun4_SimpleReadMySql</text>
</a>
</g>
</g>
<!-- Node1&#45;&gt;Node9 -->
<g id="edge8" class="edge"><title>Node1&#45;&gt;Node9</title>
<path fill="none" stroke="midnightblue" d="M101.036,-251.454C117.834,-256.065 137.687,-260.722 156,-263 228.332,-271.995 247.285,-268.026 320,-263 336.335,-261.871 353.962,-259.792 370.142,-257.535"/>
<polygon fill="midnightblue" stroke="midnightblue" points="101.589,-247.973 91.013,-248.611 99.6782,-254.707 101.589,-247.973"/>
</g>
<!-- Node10 -->
<g id="node10" class="node"><title>Node10</title>
<g id="a_node10"><a xlink:href="../../da/dd8/classFun4AllPrdfInputManager.html#a36fdaca3254cbb07a00af64b10488385" target="_top" xlink:title="Fun4AllPrdfInputManager\l::Fun4AllPrdfInputManager">
<polygon fill="none" stroke="black" points="172.5,-312 172.5,-342 303.5,-342 303.5,-312 172.5,-312"/>
<text text-anchor="start" x="180.5" y="-330" font-family="FreeSans" font-size="10.00">Fun4AllPrdfInputManager</text>
<text text-anchor="middle" x="238" y="-319" font-family="FreeSans" font-size="10.00">::Fun4AllPrdfInputManager</text>
</a>
</g>
</g>
<!-- Node1&#45;&gt;Node10 -->
<g id="edge9" class="edge"><title>Node1&#45;&gt;Node10</title>
<path fill="none" stroke="midnightblue" d="M83.1359,-254.211C101.961,-266.727 129.999,-284.395 156,-297 167.2,-302.43 179.652,-307.492 191.367,-311.855"/>
<polygon fill="midnightblue" stroke="midnightblue" points="84.9351,-251.203 74.6842,-248.525 81.028,-257.011 84.9351,-251.203"/>
</g>
<!-- Node11 -->
<g id="node11" class="node"><title>Node11</title>
<g id="a_node11"><a xlink:href="../../d9/d8c/Fun4ReadMySql_8C.html#a729b39fa627147c63772f28c9be36b62" target="_top" xlink:title="Fun4ReadMySql">
<polygon fill="none" stroke="black" points="385,-166.5 385,-185.5 473,-185.5 473,-166.5 385,-166.5"/>
<text text-anchor="middle" x="429" y="-173.5" font-family="FreeSans" font-size="10.00">Fun4ReadMySql</text>
</a>
</g>
</g>
<!-- Node1&#45;&gt;Node11 -->
<g id="edge10" class="edge"><title>Node1&#45;&gt;Node11</title>
<path fill="none" stroke="midnightblue" d="M78.9023,-222.376C96.8453,-206.942 126.039,-185.032 156,-176 233.992,-152.49 330.378,-160.663 384.957,-168.496"/>
<polygon fill="midnightblue" stroke="midnightblue" points="76.2017,-220.093 71.0435,-229.347 80.847,-225.329 76.2017,-220.093"/>
</g>
<!-- Node12 -->
<g id="node12" class="node"><title>Node12</title>
<g id="a_node12"><a xlink:href="../../d4/da9/classFun4AllInputManager.html#ac1910d048e912d51287df1e4f8579888" target="_top" xlink:title="Fun4AllInputManager\l::registerSubsystem">
<polygon fill="none" stroke="black" points="183.5,-224 183.5,-254 292.5,-254 292.5,-224 183.5,-224"/>
<text text-anchor="start" x="191.5" y="-242" font-family="FreeSans" font-size="10.00">Fun4AllInputManager</text>
<text text-anchor="middle" x="238" y="-231" font-family="FreeSans" font-size="10.00">::registerSubsystem</text>
</a>
</g>
</g>
<!-- Node1&#45;&gt;Node12 -->
<g id="edge11" class="edge"><title>Node1&#45;&gt;Node12</title>
<path fill="none" stroke="midnightblue" d="M129.917,-239C147.684,-239 166.541,-239 183.399,-239"/>
<polygon fill="midnightblue" stroke="midnightblue" points="129.605,-235.5 119.605,-239 129.605,-242.5 129.605,-235.5"/>
</g>
<!-- Node13 -->
<g id="node13" class="node"><title>Node13</title>
<g id="a_node13"><a xlink:href="../../da/d29/classFun4AllServer.html#a0a9947db0ede1e55622001eb7515f8c0" target="_top" xlink:title="Fun4AllServer::registerSubsystem">
<polygon fill="none" stroke="black" points="156,-185.5 156,-204.5 320,-204.5 320,-185.5 156,-185.5"/>
<text text-anchor="middle" x="238" y="-192.5" font-family="FreeSans" font-size="10.00">Fun4AllServer::registerSubsystem</text>
</a>
</g>
</g>
<!-- Node1&#45;&gt;Node13 -->
<g id="edge12" class="edge"><title>Node1&#45;&gt;Node13</title>
<path fill="none" stroke="midnightblue" d="M108.18,-227.028C123.436,-223.171 140.431,-218.889 156,-215 169.772,-211.56 184.87,-207.823 198.261,-204.52"/>
<polygon fill="midnightblue" stroke="midnightblue" points="107.274,-223.646 98.4383,-229.492 108.991,-230.432 107.274,-223.646"/>
</g>
<!-- Node14 -->
<g id="node14" class="node"><title>Node14</title>
<g id="a_node14"><a xlink:href="../../d4/da9/classFun4AllInputManager.html#a08fc36a2da8759e20f8e035afe5ef6e5" target="_top" xlink:title="Fun4AllInputManager\l::RejectEvent">
<polygon fill="none" stroke="black" points="183.5,-361 183.5,-391 292.5,-391 292.5,-361 183.5,-361"/>
<text text-anchor="start" x="191.5" y="-379" font-family="FreeSans" font-size="10.00">Fun4AllInputManager</text>
<text text-anchor="middle" x="238" y="-368" font-family="FreeSans" font-size="10.00">::RejectEvent</text>
</a>
</g>
</g>
<!-- Node1&#45;&gt;Node14 -->
<g id="edge15" class="edge"><title>Node1&#45;&gt;Node14</title>
<path fill="none" stroke="midnightblue" d="M71.9116,-257.497C87.4919,-282.334 118.427,-326.203 156,-351 164.23,-356.431 173.7,-360.732 183.198,-364.122"/>
<polygon fill="midnightblue" stroke="midnightblue" points="74.7386,-255.411 66.539,-248.701 68.7648,-259.06 74.7386,-255.411"/>
</g>
<!-- Node15 -->
<g id="node15" class="node"><title>Node15</title>
<g id="a_node15"><a xlink:href="../../da/daa/classFun4AllDstOutputManager.html#aa4b5b519c6db1540d03007c8c21436fc" target="_top" xlink:title="write starting from given node ">
<polygon fill="none" stroke="black" points="172.5,-98 172.5,-128 303.5,-128 303.5,-98 172.5,-98"/>
<text text-anchor="start" x="180.5" y="-116" font-family="FreeSans" font-size="10.00">Fun4AllDstOutputManager</text>
<text text-anchor="middle" x="238" y="-105" font-family="FreeSans" font-size="10.00">::Write</text>
</a>
</g>
</g>
<!-- Node1&#45;&gt;Node15 -->
<g id="edge18" class="edge"><title>Node1&#45;&gt;Node15</title>
<path fill="none" stroke="midnightblue" d="M74.431,-221.324C91.3709,-200.106 122.375,-164.679 156,-143 165.075,-137.149 175.452,-132.217 185.681,-128.148"/>
<polygon fill="midnightblue" stroke="midnightblue" points="71.4674,-219.432 68.0655,-229.466 76.9821,-223.743 71.4674,-219.432"/>
</g>
<!-- Node16 -->
<g id="node16" class="node"><title>Node16</title>
<g id="a_node16"><a xlink:href="../../d2/d4a/classFun4AllEventOutputManager.html#a07d37e34714c5e9cc5dab9c2898ad8a4" target="_top" xlink:title="write starting from given node ">
<polygon fill="none" stroke="black" points="167.5,-49 167.5,-79 308.5,-79 308.5,-49 167.5,-49"/>
<text text-anchor="start" x="175.5" y="-67" font-family="FreeSans" font-size="10.00">Fun4AllEventOutputManager</text>
<text text-anchor="middle" x="238" y="-56" font-family="FreeSans" font-size="10.00">::Write</text>
</a>
</g>
</g>
<!-- Node1&#45;&gt;Node16 -->
<g id="edge19" class="edge"><title>Node1&#45;&gt;Node16</title>
<path fill="none" stroke="midnightblue" d="M68.0297,-219.75C80.6648,-187.826 110.24,-123.99 156,-89 161.027,-85.1561 166.651,-81.8982 172.529,-79.1378"/>
<polygon fill="midnightblue" stroke="midnightblue" points="64.694,-218.674 64.3952,-229.265 71.2332,-221.172 64.694,-218.674"/>
</g>
<!-- Node17 -->
<g id="node17" class="node"><title>Node17</title>
<g id="a_node17"><a xlink:href="../../de/d50/classFun4AllFileOutStream.html#ae507d564a712c0e99c2fa80b9c239385" target="_top" xlink:title="Fun4AllFileOutStream\l::WriteEventOut">
<polygon fill="none" stroke="black" points="181.5,-0 181.5,-30 294.5,-30 294.5,-0 181.5,-0"/>
<text text-anchor="start" x="189.5" y="-18" font-family="FreeSans" font-size="10.00">Fun4AllFileOutStream</text>
<text text-anchor="middle" x="238" y="-7" font-family="FreeSans" font-size="10.00">::WriteEventOut</text>
</a>
</g>
</g>
<!-- Node1&#45;&gt;Node17 -->
<g id="edge20" class="edge"><title>Node1&#45;&gt;Node17</title>
<path fill="none" stroke="midnightblue" d="M64.8371,-219.475C73.6667,-179.736 99.1826,-89.0722 156,-40 163.24,-33.7472 172.025,-29.058 181.104,-25.5414"/>
<polygon fill="midnightblue" stroke="midnightblue" points="61.3699,-218.956 62.7363,-229.462 68.22,-220.397 61.3699,-218.956"/>
</g>
<!-- Node3 -->
<g id="node3" class="node"><title>Node3</title>
<g id="a_node3"><a xlink:href="../../da/dd8/classFun4AllPrdfInputManager.html#ac3f313ef5571ce32cd40799791e2ea56" target="_top" xlink:title="Fun4AllPrdfInputManager::run">
<polygon fill="none" stroke="black" points="356.5,-412.5 356.5,-431.5 501.5,-431.5 501.5,-412.5 356.5,-412.5"/>
<text text-anchor="middle" x="429" y="-419.5" font-family="FreeSans" font-size="10.00">Fun4AllPrdfInputManager::run</text>
</a>
</g>
</g>
<!-- Node2&#45;&gt;Node3 -->
<g id="edge2" class="edge"><title>Node2&#45;&gt;Node3</title>
<path fill="none" stroke="midnightblue" d="M303.078,-423.983C320.164,-423.712 338.735,-423.417 356.206,-423.14"/>
<polygon fill="midnightblue" stroke="midnightblue" points="302.597,-420.49 292.654,-424.148 302.709,-427.489 302.597,-420.49"/>
</g>
<!-- Node5 -->
<g id="node5" class="node"><title>Node5</title>
<g id="a_node5"><a xlink:href="../../d7/d0b/classFun4AllDstInputManager.html#ae4e92b95ae50ab72856d06c99b043496" target="_top" xlink:title="Fun4AllDstInputManager\l::OpenNextFile">
<polygon fill="none" stroke="black" points="367,-456 367,-486 491,-486 491,-456 367,-456"/>
<text text-anchor="start" x="375" y="-474" font-family="FreeSans" font-size="10.00">Fun4AllDstInputManager</text>
<text text-anchor="middle" x="429" y="-463" font-family="FreeSans" font-size="10.00">::OpenNextFile</text>
</a>
</g>
</g>
<!-- Node4&#45;&gt;Node5 -->
<g id="edge4" class="edge"><title>Node4&#45;&gt;Node5</title>
<path fill="none" stroke="midnightblue" d="M310.283,-472.869C328.882,-472.573 348.76,-472.258 366.785,-471.972"/>
<polygon fill="midnightblue" stroke="midnightblue" points="310.045,-469.372 300.102,-473.03 310.156,-476.371 310.045,-469.372"/>
</g>
<!-- Node6 -->
<g id="node6" class="node"><title>Node6</title>
<g id="a_node6"><a xlink:href="../../d7/d0b/classFun4AllDstInputManager.html#ade26017b627e0e1f1ec0dec62ac7fd52" target="_top" xlink:title="Fun4AllDstInputManager\l::ReadNextEventSyncObject">
<polygon fill="none" stroke="black" points="539.5,-456 539.5,-486 678.5,-486 678.5,-456 539.5,-456"/>
<text text-anchor="start" x="547.5" y="-474" font-family="FreeSans" font-size="10.00">Fun4AllDstInputManager</text>
<text text-anchor="middle" x="609" y="-463" font-family="FreeSans" font-size="10.00">::ReadNextEventSyncObject</text>
</a>
</g>
</g>
<!-- Node5&#45;&gt;Node6 -->
<g id="edge5" class="edge"><title>Node5&#45;&gt;Node6</title>
<path fill="none" stroke="midnightblue" d="M501.577,-471C514.021,-471 526.939,-471 539.304,-471"/>
<polygon fill="midnightblue" stroke="midnightblue" points="501.258,-467.5 491.258,-471 501.257,-474.5 501.258,-467.5"/>
</g>
<!-- Node8 -->
<g id="node8" class="node"><title>Node8</title>
<g id="a_node8"><a xlink:href="../../d7/d0b/classFun4AllDstInputManager.html#aeafa0248f9050c13fdae1bcb93336d7a" target="_top" xlink:title="Fun4AllDstInputManager::run">
<polygon fill="none" stroke="black" points="538,-393.5 538,-412.5 680,-412.5 680,-393.5 538,-393.5"/>
<text text-anchor="middle" x="609" y="-400.5" font-family="FreeSans" font-size="10.00">Fun4AllDstInputManager::run</text>
</a>
</g>
</g>
<!-- Node5&#45;&gt;Node8 -->
<g id="edge7" class="edge"><title>Node5&#45;&gt;Node8</title>
<path fill="none" stroke="midnightblue" d="M479.165,-452.218C512.816,-439.362 556.041,-422.85 582.88,-412.596"/>
<polygon fill="midnightblue" stroke="midnightblue" points="477.596,-449.07 469.504,-455.909 480.095,-455.609 477.596,-449.07"/>
</g>
<!-- Node7 -->
<g id="node7" class="node"><title>Node7</title>
<g id="a_node7"><a xlink:href="../../d7/d0b/classFun4AllDstInputManager.html#a0244c2edbaa2350038304b09f352c2d0" target="_top" xlink:title="Fun4AllDstInputManager\l::SyncIt">
<polygon fill="none" stroke="black" points="716,-456 716,-486 840,-486 840,-456 716,-456"/>
<text text-anchor="start" x="724" y="-474" font-family="FreeSans" font-size="10.00">Fun4AllDstInputManager</text>
<text text-anchor="middle" x="778" y="-463" font-family="FreeSans" font-size="10.00">::SyncIt</text>
</a>
</g>
</g>
<!-- Node6&#45;&gt;Node7 -->
<g id="edge6" class="edge"><title>Node6&#45;&gt;Node7</title>
<path fill="none" stroke="midnightblue" d="M688.987,-471C697.977,-471 707.037,-471 715.749,-471"/>
<polygon fill="midnightblue" stroke="midnightblue" points="688.889,-467.5 678.889,-471 688.889,-474.5 688.889,-467.5"/>
</g>
<!-- Node13&#45;&gt;Node9 -->
<g id="edge13" class="edge"><title>Node13&#45;&gt;Node9</title>
<path fill="none" stroke="midnightblue" d="M289.449,-207.005C299.591,-209.546 310.156,-212.283 320,-215 346.648,-222.355 376.704,-231.619 398.331,-238.458"/>
<polygon fill="midnightblue" stroke="midnightblue" points="290.038,-203.545 279.489,-204.539 288.355,-210.34 290.038,-203.545"/>
</g>
<!-- Node13&#45;&gt;Node11 -->
<g id="edge14" class="edge"><title>Node13&#45;&gt;Node11</title>
<path fill="none" stroke="midnightblue" d="M330.453,-185.806C349.438,-183.898 368.588,-181.973 384.832,-180.34"/>
<polygon fill="midnightblue" stroke="midnightblue" points="329.85,-182.349 320.25,-186.832 330.55,-189.314 329.85,-182.349"/>
</g>
<!-- Node14&#45;&gt;Node3 -->
<g id="edge17" class="edge"><title>Node14&#45;&gt;Node3</title>
<path fill="none" stroke="midnightblue" d="M302.575,-391.473C331.178,-398.435 364.03,-406.431 388.936,-412.492"/>
<polygon fill="midnightblue" stroke="midnightblue" points="303.198,-388.023 292.654,-389.059 301.543,-394.824 303.198,-388.023"/>
</g>
<!-- Node14&#45;&gt;Node8 -->
<g id="edge16" class="edge"><title>Node14&#45;&gt;Node8</title>
<path fill="none" stroke="midnightblue" d="M302.854,-380.672C368.4,-385.468 470.12,-392.911 537.868,-397.868"/>
<polygon fill="midnightblue" stroke="midnightblue" points="302.885,-377.165 292.656,-379.926 302.374,-384.147 302.885,-377.165"/>
</g>
</g>
</svg>
