<?xml version="1.0" encoding="UTF-8" standalone="no"?>
<!DOCTYPE svg PUBLIC "-//W3C//DTD SVG 1.1//EN"
 "http://www.w3.org/Graphics/SVG/1.1/DTD/svg11.dtd">
<!-- Generated by graphviz version 2.36.0 (20140111.2315)
 -->
<!-- Title: Fun4AllServer::registerOutputManager Pages: 1 -->
<svg width="480pt" height="101pt"
 viewBox="0.00 0.00 480.00 101.00" xmlns="http://www.w3.org/2000/svg" xmlns:xlink="http://www.w3.org/1999/xlink">
<g id="graph0" class="graph" transform="scale(1 1) rotate(0) translate(4 97)">
<title>Fun4AllServer::registerOutputManager</title>
<!-- Node1 -->
<g id="node1" class="node"><title>Node1</title>
<polygon fill="#bfbfbf" stroke="black" points="0,-46 0,-76 144,-76 144,-46 0,-46"/>
<text text-anchor="start" x="8" y="-64" font-family="FreeSans" font-size="10.00">Fun4AllServer::registerOutput</text>
<text text-anchor="middle" x="72" y="-53" font-family="FreeSans" font-size="10.00">Manager</text>
</g>
<!-- Node2 -->
<g id="node2" class="node"><title>Node2</title>
<g id="a_node2"><a xlink:href="../../d5/dec/classFun4AllBase.html#a41f9ac377743d046f590617fd6f4f0ed" target="_top" xlink:title="Returns the name of this module. ">
<polygon fill="none" stroke="black" points="198.5,-73.5 198.5,-92.5 301.5,-92.5 301.5,-73.5 198.5,-73.5"/>
<text text-anchor="middle" x="250" y="-80.5" font-family="FreeSans" font-size="10.00">Fun4AllBase::Name</text>
</a>
</g>
</g>
<!-- Node1&#45;&gt;Node2 -->
<g id="edge1" class="edge"><title>Node1&#45;&gt;Node2</title>
<path fill="none" stroke="midnightblue" d="M144.079,-69.8848C158.742,-71.7177 174.056,-73.632 188.309,-75.4137"/>
<polygon fill="midnightblue" stroke="midnightblue" points="188.119,-78.9171 198.476,-76.6845 188.988,-71.9711 188.119,-78.9171"/>
</g>
<!-- Node3 -->
<g id="node3" class="node"><title>Node3</title>
<g id="a_node3"><a xlink:href="../../da/d29/classFun4AllServer.html#a596005b9bc46ff6f5167378423248271" target="_top" xlink:title="Fun4AllServer::UpdateEvent\lSelector">
<polygon fill="none" stroke="black" points="180.5,-24 180.5,-54 319.5,-54 319.5,-24 180.5,-24"/>
<text text-anchor="start" x="188.5" y="-42" font-family="FreeSans" font-size="10.00">Fun4AllServer::UpdateEvent</text>
<text text-anchor="middle" x="250" y="-31" font-family="FreeSans" font-size="10.00">Selector</text>
</a>
</g>
</g>
<!-- Node1&#45;&gt;Node3 -->
<g id="edge2" class="edge"><title>Node1&#45;&gt;Node3</title>
<path fill="none" stroke="midnightblue" d="M144.079,-52.1152C152.65,-51.0437 161.444,-49.9445 170.118,-48.8602"/>
<polygon fill="midnightblue" stroke="midnightblue" points="170.738,-52.3101 180.226,-47.5967 169.869,-45.3642 170.738,-52.3101"/>
</g>
<!-- Node4 -->
<g id="node4" class="node"><title>Node4</title>
<g id="a_node4"><a xlink:href="../../d8/d77/classFun4AllOutputManager.html#a330fe561bb5a02a9f6dc08395686321c" target="_top" xlink:title="retrieves pointer to vector of event selector module ids ">
<polygon fill="none" stroke="black" points="356,-49 356,-79 472,-79 472,-49 356,-49"/>
<text text-anchor="start" x="364" y="-67" font-family="FreeSans" font-size="10.00">Fun4AllOutputManager</text>
<text text-anchor="middle" x="414" y="-56" font-family="FreeSans" font-size="10.00">::RecoModuleIndex</text>
</a>
</g>
</g>
<!-- Node3&#45;&gt;Node4 -->
<g id="edge3" class="edge"><title>Node3&#45;&gt;Node4</title>
<path fill="none" stroke="midnightblue" d="M319.703,-49.6023C328.38,-50.9414 337.25,-52.3103 345.903,-53.6455"/>
<polygon fill="midnightblue" stroke="midnightblue" points="345.518,-57.1274 355.935,-55.1936 346.586,-50.2093 345.518,-57.1274"/>
</g>
<!-- Node5 -->
<g id="node5" class="node"><title>Node5</title>
<g id="a_node5"><a xlink:href="../../d8/d77/classFun4AllOutputManager.html#a2a601e70ddadeb2f8400956ba1a514e6" target="_top" xlink:title="retrieves pointer to vector of event selector module names ">
<polygon fill="none" stroke="black" points="356,-0 356,-30 472,-30 472,-0 356,-0"/>
<text text-anchor="start" x="364" y="-18" font-family="FreeSans" font-size="10.00">Fun4AllOutputManager</text>
<text text-anchor="middle" x="414" y="-7" font-family="FreeSans" font-size="10.00">::EventSelector</text>
</a>
</g>
</g>
<!-- Node3&#45;&gt;Node5 -->
<g id="edge4" class="edge"><title>Node3&#45;&gt;Node5</title>
<path fill="none" stroke="midnightblue" d="M319.703,-28.8218C328.38,-27.5363 337.25,-26.2222 345.903,-24.9403"/>
<polygon fill="midnightblue" stroke="midnightblue" points="346.556,-28.3819 355.935,-23.4541 345.53,-21.4575 346.556,-28.3819"/>
</g>
</g>
</svg>
