<?xml version="1.0" encoding="UTF-8" standalone="no"?>
<!DOCTYPE svg PUBLIC "-//W3C//DTD SVG 1.1//EN"
 "http://www.w3.org/Graphics/SVG/1.1/DTD/svg11.dtd">
<!-- Generated by graphviz version 2.36.0 (20140111.2315)
 -->
<!-- Title: Fun4AllServer::MakeNodesTransient Pages: 1 -->
<svg width="626pt" height="109pt"
 viewBox="0.00 0.00 626.00 109.00" xmlns="http://www.w3.org/2000/svg" xmlns:xlink="http://www.w3.org/1999/xlink">
<g id="graph0" class="graph" transform="scale(1 1) rotate(0) translate(4 105)">
<title>Fun4AllServer::MakeNodesTransient</title>
<!-- Node1 -->
<g id="node1" class="node"><title>Node1</title>
<polygon fill="#bfbfbf" stroke="black" points="0.5,-24 0.5,-54 135.5,-54 135.5,-24 0.5,-24"/>
<text text-anchor="start" x="8.5" y="-42" font-family="FreeSans" font-size="10.00">Fun4AllServer::MakeNodes</text>
<text text-anchor="middle" x="68" y="-31" font-family="FreeSans" font-size="10.00">Transient</text>
</g>
<!-- Node2 -->
<g id="node2" class="node"><title>Node2</title>
<g id="a_node2"><a xlink:href="../../da/d29/classFun4AllServer.html#a6a65a944dfb40966ace97d35ab1f7942" target="_top" xlink:title="Fun4AllServer::process\l_event">
<polygon fill="none" stroke="black" points="179.5,-49 179.5,-79 296.5,-79 296.5,-49 179.5,-49"/>
<text text-anchor="start" x="187.5" y="-67" font-family="FreeSans" font-size="10.00">Fun4AllServer::process</text>
<text text-anchor="middle" x="238" y="-56" font-family="FreeSans" font-size="10.00">_event</text>
</a>
</g>
</g>
<!-- Node1&#45;&gt;Node2 -->
<g id="edge1" class="edge"><title>Node1&#45;&gt;Node2</title>
<path fill="none" stroke="midnightblue" d="M146.074,-50.4693C157.249,-52.1322 168.588,-53.8196 179.293,-55.4127"/>
<polygon fill="midnightblue" stroke="midnightblue" points="146.287,-46.9626 135.881,-48.9525 145.257,-53.8863 146.287,-46.9626"/>
</g>
<!-- Node7 -->
<g id="node7" class="node"><title>Node7</title>
<g id="a_node7"><a xlink:href="../../da/daa/classFun4AllDstOutputManager.html#aa4b5b519c6db1540d03007c8c21436fc" target="_top" xlink:title="write starting from given node ">
<polygon fill="none" stroke="black" points="172.5,-0 172.5,-30 303.5,-30 303.5,-0 172.5,-0"/>
<text text-anchor="start" x="180.5" y="-18" font-family="FreeSans" font-size="10.00">Fun4AllDstOutputManager</text>
<text text-anchor="middle" x="238" y="-7" font-family="FreeSans" font-size="10.00">::Write</text>
</a>
</g>
</g>
<!-- Node1&#45;&gt;Node7 -->
<g id="edge6" class="edge"><title>Node1&#45;&gt;Node7</title>
<path fill="none" stroke="midnightblue" d="M145.802,-28.0283C154.648,-26.7646 163.601,-25.4855 172.266,-24.2478"/>
<polygon fill="midnightblue" stroke="midnightblue" points="145.285,-24.5665 135.881,-29.4456 146.275,-31.4961 145.285,-24.5665"/>
</g>
<!-- Node3 -->
<g id="node3" class="node"><title>Node3</title>
<g id="a_node3"><a xlink:href="../../da/d29/classFun4AllServer.html#a94738b092fa009fcea45737d8ea41224" target="_top" xlink:title="Fun4AllServer::process\l_event">
<polygon fill="none" stroke="black" points="340.5,-71 340.5,-101 457.5,-101 457.5,-71 340.5,-71"/>
<text text-anchor="start" x="348.5" y="-89" font-family="FreeSans" font-size="10.00">Fun4AllServer::process</text>
<text text-anchor="middle" x="399" y="-78" font-family="FreeSans" font-size="10.00">_event</text>
</a>
</g>
</g>
<!-- Node2&#45;&gt;Node3 -->
<g id="edge2" class="edge"><title>Node2&#45;&gt;Node3</title>
<path fill="none" stroke="midnightblue" d="M306.98,-73.4061C318.131,-74.949 329.591,-76.5346 340.457,-78.0381"/>
<polygon fill="midnightblue" stroke="midnightblue" points="307.238,-69.9084 296.852,-72.0047 306.278,-76.8424 307.238,-69.9084"/>
</g>
<!-- Node4 -->
<g id="node4" class="node"><title>Node4</title>
<g id="a_node4"><a xlink:href="../../da/d29/classFun4AllServer.html#a11bbc8b2f53bc06e0b05ee202dd6372a" target="_top" xlink:title="run n events (0 means up to end of file) ">
<polygon fill="none" stroke="black" points="351,-32.5 351,-51.5 447,-51.5 447,-32.5 351,-32.5"/>
<text text-anchor="middle" x="399" y="-39.5" font-family="FreeSans" font-size="10.00">Fun4AllServer::run</text>
</a>
</g>
</g>
<!-- Node2&#45;&gt;Node4 -->
<g id="edge3" class="edge"><title>Node2&#45;&gt;Node4</title>
<path fill="none" stroke="midnightblue" d="M306.98,-54.5939C321.772,-52.5472 337.108,-50.4253 350.88,-48.5198"/>
<polygon fill="midnightblue" stroke="midnightblue" points="306.278,-51.1576 296.852,-55.9953 307.238,-58.0916 306.278,-51.1576"/>
</g>
<!-- Node5 -->
<g id="node5" class="node"><title>Node5</title>
<g id="a_node5"><a xlink:href="../../d0/d46/Fun4__SimpleReadMySql_8C.html#a70381893748e3445abc30632beb256ce" target="_top" xlink:title="Fun4_SimpleReadMySql">
<polygon fill="none" stroke="black" points="494.5,-51.5 494.5,-70.5 617.5,-70.5 617.5,-51.5 494.5,-51.5"/>
<text text-anchor="middle" x="556" y="-58.5" font-family="FreeSans" font-size="10.00">Fun4_SimpleReadMySql</text>
</a>
</g>
</g>
<!-- Node4&#45;&gt;Node5 -->
<g id="edge4" class="edge"><title>Node4&#45;&gt;Node5</title>
<path fill="none" stroke="midnightblue" d="M457.328,-49.0273C469.441,-50.5121 482.26,-52.0835 494.487,-53.5823"/>
<polygon fill="midnightblue" stroke="midnightblue" points="457.699,-45.5467 447.347,-47.8039 456.847,-52.4947 457.699,-45.5467"/>
</g>
<!-- Node6 -->
<g id="node6" class="node"><title>Node6</title>
<g id="a_node6"><a xlink:href="../../d9/d8c/Fun4ReadMySql_8C.html#a729b39fa627147c63772f28c9be36b62" target="_top" xlink:title="Fun4ReadMySql">
<polygon fill="none" stroke="black" points="512,-13.5 512,-32.5 600,-32.5 600,-13.5 512,-13.5"/>
<text text-anchor="middle" x="556" y="-20.5" font-family="FreeSans" font-size="10.00">Fun4ReadMySql</text>
</a>
</g>
</g>
<!-- Node4&#45;&gt;Node6 -->
<g id="edge5" class="edge"><title>Node4&#45;&gt;Node6</title>
<path fill="none" stroke="midnightblue" d="M457.457,-34.9569C475.476,-32.7481 495.048,-30.349 511.898,-28.2835"/>
<polygon fill="midnightblue" stroke="midnightblue" points="456.847,-31.5054 447.347,-36.1961 457.699,-38.4533 456.847,-31.5054"/>
</g>
</g>
</svg>
