<?xml version="1.0" encoding="UTF-8" standalone="no"?>
<!DOCTYPE svg PUBLIC "-//W3C//DTD SVG 1.1//EN"
 "http://www.w3.org/Graphics/SVG/1.1/DTD/svg11.dtd">
<!-- Generated by graphviz version 2.36.0 (20140111.2315)
 -->
<!-- Title: Fun4AllServer::topNode Pages: 1 -->
<svg width="1008pt" height="263pt"
 viewBox="0.00 0.00 1008.00 263.00" xmlns="http://www.w3.org/2000/svg" xmlns:xlink="http://www.w3.org/1999/xlink">
<g id="graph0" class="graph" transform="scale(1 1) rotate(0) translate(4 259)">
<title>Fun4AllServer::topNode</title>
<!-- Node1 -->
<g id="node1" class="node"><title>Node1</title>
<polygon fill="#bfbfbf" stroke="black" points="0.5,-120.5 0.5,-139.5 119.5,-139.5 119.5,-120.5 0.5,-120.5"/>
<text text-anchor="middle" x="60" y="-127.5" font-family="FreeSans" font-size="10.00">Fun4AllServer::topNode</text>
</g>
<!-- Node2 -->
<g id="node2" class="node"><title>Node2</title>
<g id="a_node2"><a xlink:href="../../da/dd8/classFun4AllPrdfInputManager.html#a36fdaca3254cbb07a00af64b10488385" target="_top" xlink:title="Fun4AllPrdfInputManager\l::Fun4AllPrdfInputManager">
<polygon fill="none" stroke="black" points="172.5,-225 172.5,-255 303.5,-255 303.5,-225 172.5,-225"/>
<text text-anchor="start" x="180.5" y="-243" font-family="FreeSans" font-size="10.00">Fun4AllPrdfInputManager</text>
<text text-anchor="middle" x="238" y="-232" font-family="FreeSans" font-size="10.00">::Fun4AllPrdfInputManager</text>
</a>
</g>
</g>
<!-- Node1&#45;&gt;Node2 -->
<g id="edge1" class="edge"><title>Node1&#45;&gt;Node2</title>
<path fill="none" stroke="midnightblue" d="M75.9922,-147.295C93.4308,-166.407 123.948,-196.876 156,-215 162.662,-218.767 169.959,-222.035 177.359,-224.851"/>
<polygon fill="midnightblue" stroke="midnightblue" points="78.4196,-144.758 69.147,-139.633 73.1994,-149.422 78.4196,-144.758"/>
</g>
<!-- Node3 -->
<g id="node3" class="node"><title>Node3</title>
<g id="a_node3"><a xlink:href="../../da/d29/classFun4AllServer.html#ac42fd391b795d9605811abb9394c2011" target="_top" xlink:title="Fun4AllServer::getNode">
<polygon fill="none" stroke="black" points="178.5,-186.5 178.5,-205.5 297.5,-205.5 297.5,-186.5 178.5,-186.5"/>
<text text-anchor="middle" x="238" y="-193.5" font-family="FreeSans" font-size="10.00">Fun4AllServer::getNode</text>
</a>
</g>
</g>
<!-- Node1&#45;&gt;Node3 -->
<g id="edge2" class="edge"><title>Node1&#45;&gt;Node3</title>
<path fill="none" stroke="midnightblue" d="M86.8575,-144.345C105.609,-154.292 131.819,-167.269 156,-176 167.172,-180.034 179.497,-183.535 191.091,-186.432"/>
<polygon fill="midnightblue" stroke="midnightblue" points="88.5018,-141.256 78.0374,-139.598 85.1844,-147.42 88.5018,-141.256"/>
</g>
<!-- Node9 -->
<g id="node9" class="node"><title>Node9</title>
<g id="a_node9"><a xlink:href="../../d4/da9/classFun4AllInputManager.html#ac1910d048e912d51287df1e4f8579888" target="_top" xlink:title="Fun4AllInputManager\l::registerSubsystem">
<polygon fill="none" stroke="black" points="183.5,-137 183.5,-167 292.5,-167 292.5,-137 183.5,-137"/>
<text text-anchor="start" x="191.5" y="-155" font-family="FreeSans" font-size="10.00">Fun4AllInputManager</text>
<text text-anchor="middle" x="238" y="-144" font-family="FreeSans" font-size="10.00">::registerSubsystem</text>
</a>
</g>
</g>
<!-- Node1&#45;&gt;Node9 -->
<g id="edge8" class="edge"><title>Node1&#45;&gt;Node9</title>
<path fill="none" stroke="midnightblue" d="M129.917,-138.615C147.684,-140.835 166.541,-143.193 183.399,-145.3"/>
<polygon fill="midnightblue" stroke="midnightblue" points="129.962,-135.093 119.605,-137.326 129.094,-142.039 129.962,-135.093"/>
</g>
<!-- Node10 -->
<g id="node10" class="node"><title>Node10</title>
<g id="a_node10"><a xlink:href="../../da/d29/classFun4AllServer.html#a0a9947db0ede1e55622001eb7515f8c0" target="_top" xlink:title="Fun4AllServer::registerSubsystem">
<polygon fill="none" stroke="black" points="156,-98.5 156,-117.5 320,-117.5 320,-98.5 156,-98.5"/>
<text text-anchor="middle" x="238" y="-105.5" font-family="FreeSans" font-size="10.00">Fun4AllServer::registerSubsystem</text>
</a>
</g>
</g>
<!-- Node1&#45;&gt;Node10 -->
<g id="edge9" class="edge"><title>Node1&#45;&gt;Node10</title>
<path fill="none" stroke="midnightblue" d="M129.67,-121.416C139.879,-120.14 150.452,-118.818 160.803,-117.525"/>
<polygon fill="midnightblue" stroke="midnightblue" points="129.094,-117.961 119.605,-122.674 129.962,-124.907 129.094,-117.961"/>
</g>
<!-- Node13 -->
<g id="node13" class="node"><title>Node13</title>
<g id="a_node13"><a xlink:href="../../d4/da9/classFun4AllInputManager.html#a08fc36a2da8759e20f8e035afe5ef6e5" target="_top" xlink:title="Fun4AllInputManager\l::RejectEvent">
<polygon fill="none" stroke="black" points="183.5,-49 183.5,-79 292.5,-79 292.5,-49 183.5,-49"/>
<text text-anchor="start" x="191.5" y="-67" font-family="FreeSans" font-size="10.00">Fun4AllInputManager</text>
<text text-anchor="middle" x="238" y="-56" font-family="FreeSans" font-size="10.00">::RejectEvent</text>
</a>
</g>
</g>
<!-- Node1&#45;&gt;Node13 -->
<g id="edge12" class="edge"><title>Node1&#45;&gt;Node13</title>
<path fill="none" stroke="midnightblue" d="M90.6191,-116.235C109.194,-107.849 133.755,-97.2059 156,-89 165.389,-85.5365 175.505,-82.1491 185.3,-79.0417"/>
<polygon fill="midnightblue" stroke="midnightblue" points="89.1456,-113.06 81.4952,-120.39 92.0466,-119.431 89.1456,-113.06"/>
</g>
<!-- Node15 -->
<g id="node15" class="node"><title>Node15</title>
<g id="a_node15"><a xlink:href="../../d2/d4a/classFun4AllEventOutputManager.html#a07d37e34714c5e9cc5dab9c2898ad8a4" target="_top" xlink:title="write starting from given node ">
<polygon fill="none" stroke="black" points="167.5,-0 167.5,-30 308.5,-30 308.5,-0 167.5,-0"/>
<text text-anchor="start" x="175.5" y="-18" font-family="FreeSans" font-size="10.00">Fun4AllEventOutputManager</text>
<text text-anchor="middle" x="238" y="-7" font-family="FreeSans" font-size="10.00">::Write</text>
</a>
</g>
</g>
<!-- Node1&#45;&gt;Node15 -->
<g id="edge15" class="edge"><title>Node1&#45;&gt;Node15</title>
<path fill="none" stroke="midnightblue" d="M75.0105,-112.549C92.1125,-92.3412 122.875,-59.3585 156,-40 162.48,-36.2129 169.593,-32.9426 176.83,-30.1333"/>
<polygon fill="midnightblue" stroke="midnightblue" points="72.2325,-110.416 68.5503,-120.351 77.624,-114.881 72.2325,-110.416"/>
</g>
<!-- Node4 -->
<g id="node4" class="node"><title>Node4</title>
<g id="a_node4"><a xlink:href="../../d7/d0b/classFun4AllDstInputManager.html#a4d32eadb9f77d41387656b87377ef14f" target="_top" xlink:title="Fun4AllDstInputManager\l::fileopen">
<polygon fill="none" stroke="black" points="367,-178 367,-208 491,-208 491,-178 367,-178"/>
<text text-anchor="start" x="375" y="-196" font-family="FreeSans" font-size="10.00">Fun4AllDstInputManager</text>
<text text-anchor="middle" x="429" y="-185" font-family="FreeSans" font-size="10.00">::fileopen</text>
</a>
</g>
</g>
<!-- Node3&#45;&gt;Node4 -->
<g id="edge3" class="edge"><title>Node3&#45;&gt;Node4</title>
<path fill="none" stroke="midnightblue" d="M307.757,-194.909C327.087,-194.602 347.973,-194.27 366.828,-193.971"/>
<polygon fill="midnightblue" stroke="midnightblue" points="307.45,-191.413 297.506,-195.071 307.561,-198.412 307.45,-191.413"/>
</g>
<!-- Node5 -->
<g id="node5" class="node"><title>Node5</title>
<g id="a_node5"><a xlink:href="../../d7/d0b/classFun4AllDstInputManager.html#ae4e92b95ae50ab72856d06c99b043496" target="_top" xlink:title="Fun4AllDstInputManager\l::OpenNextFile">
<polygon fill="none" stroke="black" points="538,-158 538,-188 662,-188 662,-158 538,-158"/>
<text text-anchor="start" x="546" y="-176" font-family="FreeSans" font-size="10.00">Fun4AllDstInputManager</text>
<text text-anchor="middle" x="600" y="-165" font-family="FreeSans" font-size="10.00">::OpenNextFile</text>
</a>
</g>
</g>
<!-- Node4&#45;&gt;Node5 -->
<g id="edge4" class="edge"><title>Node4&#45;&gt;Node5</title>
<path fill="none" stroke="midnightblue" d="M501.138,-184.581C513.325,-183.139 525.893,-181.652 537.793,-180.243"/>
<polygon fill="midnightblue" stroke="midnightblue" points="500.532,-181.128 491.013,-185.78 501.355,-188.08 500.532,-181.128"/>
</g>
<!-- Node6 -->
<g id="node6" class="node"><title>Node6</title>
<g id="a_node6"><a xlink:href="../../d7/d0b/classFun4AllDstInputManager.html#ade26017b627e0e1f1ec0dec62ac7fd52" target="_top" xlink:title="Fun4AllDstInputManager\l::ReadNextEventSyncObject">
<polygon fill="none" stroke="black" points="699.5,-158 699.5,-188 838.5,-188 838.5,-158 699.5,-158"/>
<text text-anchor="start" x="707.5" y="-176" font-family="FreeSans" font-size="10.00">Fun4AllDstInputManager</text>
<text text-anchor="middle" x="769" y="-165" font-family="FreeSans" font-size="10.00">::ReadNextEventSyncObject</text>
</a>
</g>
</g>
<!-- Node5&#45;&gt;Node6 -->
<g id="edge5" class="edge"><title>Node5&#45;&gt;Node6</title>
<path fill="none" stroke="midnightblue" d="M672.291,-173C681.291,-173 690.483,-173 699.438,-173"/>
<polygon fill="midnightblue" stroke="midnightblue" points="672.236,-169.5 662.236,-173 672.236,-176.5 672.236,-169.5"/>
</g>
<!-- Node8 -->
<g id="node8" class="node"><title>Node8</title>
<g id="a_node8"><a xlink:href="../../d7/d0b/classFun4AllDstInputManager.html#aeafa0248f9050c13fdae1bcb93336d7a" target="_top" xlink:title="Fun4AllDstInputManager::run">
<polygon fill="none" stroke="black" points="698,-80.5 698,-99.5 840,-99.5 840,-80.5 698,-80.5"/>
<text text-anchor="middle" x="769" y="-87.5" font-family="FreeSans" font-size="10.00">Fun4AllDstInputManager::run</text>
</a>
</g>
</g>
<!-- Node5&#45;&gt;Node8 -->
<g id="edge7" class="edge"><title>Node5&#45;&gt;Node8</title>
<path fill="none" stroke="midnightblue" d="M640.434,-153.401C674.409,-136.515 722.026,-112.85 748.425,-99.7288"/>
<polygon fill="midnightblue" stroke="midnightblue" points="638.64,-150.384 631.242,-157.969 641.755,-156.653 638.64,-150.384"/>
</g>
<!-- Node7 -->
<g id="node7" class="node"><title>Node7</title>
<g id="a_node7"><a xlink:href="../../d7/d0b/classFun4AllDstInputManager.html#a0244c2edbaa2350038304b09f352c2d0" target="_top" xlink:title="Fun4AllDstInputManager\l::SyncIt">
<polygon fill="none" stroke="black" points="876,-158 876,-188 1000,-188 1000,-158 876,-158"/>
<text text-anchor="start" x="884" y="-176" font-family="FreeSans" font-size="10.00">Fun4AllDstInputManager</text>
<text text-anchor="middle" x="938" y="-165" font-family="FreeSans" font-size="10.00">::SyncIt</text>
</a>
</g>
</g>
<!-- Node6&#45;&gt;Node7 -->
<g id="edge6" class="edge"><title>Node6&#45;&gt;Node7</title>
<path fill="none" stroke="midnightblue" d="M848.987,-173C857.977,-173 867.037,-173 875.749,-173"/>
<polygon fill="midnightblue" stroke="midnightblue" points="848.889,-169.5 838.889,-173 848.889,-176.5 848.889,-169.5"/>
</g>
<!-- Node11 -->
<g id="node11" class="node"><title>Node11</title>
<g id="a_node11"><a xlink:href="../../d0/d46/Fun4__SimpleReadMySql_8C.html#a70381893748e3445abc30632beb256ce" target="_top" xlink:title="Fun4_SimpleReadMySql">
<polygon fill="none" stroke="black" points="367.5,-136.5 367.5,-155.5 490.5,-155.5 490.5,-136.5 367.5,-136.5"/>
<text text-anchor="middle" x="429" y="-143.5" font-family="FreeSans" font-size="10.00">Fun4_SimpleReadMySql</text>
</a>
</g>
</g>
<!-- Node10&#45;&gt;Node11 -->
<g id="edge10" class="edge"><title>Node10&#45;&gt;Node11</title>
<path fill="none" stroke="midnightblue" d="M296.742,-119.61C323.622,-125.014 355.203,-131.364 380.65,-136.48"/>
<polygon fill="midnightblue" stroke="midnightblue" points="297.186,-116.129 286.693,-117.589 295.807,-122.992 297.186,-116.129"/>
</g>
<!-- Node12 -->
<g id="node12" class="node"><title>Node12</title>
<g id="a_node12"><a xlink:href="../../d9/d8c/Fun4ReadMySql_8C.html#a729b39fa627147c63772f28c9be36b62" target="_top" xlink:title="Fun4ReadMySql">
<polygon fill="none" stroke="black" points="385,-98.5 385,-117.5 473,-117.5 473,-98.5 385,-98.5"/>
<text text-anchor="middle" x="429" y="-105.5" font-family="FreeSans" font-size="10.00">Fun4ReadMySql</text>
</a>
</g>
</g>
<!-- Node10&#45;&gt;Node12 -->
<g id="edge11" class="edge"><title>Node10&#45;&gt;Node12</title>
<path fill="none" stroke="midnightblue" d="M330.453,-108C349.438,-108 368.588,-108 384.832,-108"/>
<polygon fill="midnightblue" stroke="midnightblue" points="330.25,-104.5 320.25,-108 330.25,-111.5 330.25,-104.5"/>
</g>
<!-- Node13&#45;&gt;Node8 -->
<g id="edge13" class="edge"><title>Node13&#45;&gt;Node8</title>
<path fill="none" stroke="midnightblue" d="M302.868,-67.1391C402.602,-72.0409 594.585,-81.4768 697.974,-86.5583"/>
<polygon fill="midnightblue" stroke="midnightblue" points="302.794,-63.6313 292.635,-66.6361 302.451,-70.6229 302.794,-63.6313"/>
</g>
<!-- Node14 -->
<g id="node14" class="node"><title>Node14</title>
<g id="a_node14"><a xlink:href="../../da/dd8/classFun4AllPrdfInputManager.html#ac3f313ef5571ce32cd40799791e2ea56" target="_top" xlink:title="Fun4AllPrdfInputManager::run">
<polygon fill="none" stroke="black" points="356.5,-22.5 356.5,-41.5 501.5,-41.5 501.5,-22.5 356.5,-22.5"/>
<text text-anchor="middle" x="429" y="-29.5" font-family="FreeSans" font-size="10.00">Fun4AllPrdfInputManager::run</text>
</a>
</g>
</g>
<!-- Node13&#45;&gt;Node14 -->
<g id="edge14" class="edge"><title>Node13&#45;&gt;Node14</title>
<path fill="none" stroke="midnightblue" d="M302.704,-53.2141C325.016,-49.4365 349.899,-45.2234 371.574,-41.5536"/>
<polygon fill="midnightblue" stroke="midnightblue" points="301.93,-49.7953 292.654,-54.9157 303.098,-56.6971 301.93,-49.7953"/>
</g>
</g>
</svg>
