<?xml version="1.0" encoding="UTF-8" standalone="no"?>
<!DOCTYPE svg PUBLIC "-//W3C//DTD SVG 1.1//EN"
 "http://www.w3.org/Graphics/SVG/1.1/DTD/svg11.dtd">
<!-- Generated by graphviz version 2.36.0 (20140111.2315)
 -->
<!-- Title: Fun4AllServer::process_event Pages: 1 -->
<svg width="804pt" height="489pt"
 viewBox="0.00 0.00 804.00 489.00" xmlns="http://www.w3.org/2000/svg" xmlns:xlink="http://www.w3.org/1999/xlink">
<g id="graph0" class="graph" transform="scale(1 1) rotate(0) translate(4 485)">
<title>Fun4AllServer::process_event</title>
<!-- Node1 -->
<g id="node1" class="node"><title>Node1</title>
<polygon fill="#bfbfbf" stroke="black" points="0.5,-238 0.5,-268 117.5,-268 117.5,-238 0.5,-238"/>
<text text-anchor="start" x="8.5" y="-256" font-family="FreeSans" font-size="10.00">Fun4AllServer::process</text>
<text text-anchor="middle" x="59" y="-245" font-family="FreeSans" font-size="10.00">_event</text>
</g>
<!-- Node2 -->
<g id="node2" class="node"><title>Node2</title>
<g id="a_node2"><a xlink:href="../../da/d29/classFun4AllServer.html#a6f3f13c3a8b5c29457e694ba910296aa" target="_top" xlink:title="Fun4AllServer::CountOutNodes">
<polygon fill="none" stroke="black" points="154,-446.5 154,-465.5 306,-465.5 306,-446.5 154,-446.5"/>
<text text-anchor="middle" x="230" y="-453.5" font-family="FreeSans" font-size="10.00">Fun4AllServer::CountOutNodes</text>
</a>
</g>
</g>
<!-- Node1&#45;&gt;Node2 -->
<g id="edge1" class="edge"><title>Node1&#45;&gt;Node2</title>
<path fill="none" stroke="midnightblue" d="M64.3448,-268.188C74.5623,-301.335 103.166,-380.801 154,-426 161.863,-432.991 171.558,-438.461 181.337,-442.701"/>
<polygon fill="midnightblue" stroke="midnightblue" points="180.095,-445.973 190.681,-446.399 182.67,-439.465 180.095,-445.973"/>
</g>
<!-- Node7 -->
<g id="node7" class="node"><title>Node7</title>
<g id="a_node7"><a xlink:href="../../d5/d07/classPHNodeIterator.html#aea98bf8619af59b1212a94fb32106baa" target="_top" xlink:title="PHNodeIterator::findFirst">
<polygon fill="none" stroke="black" points="356,-356.5 356,-375.5 480,-375.5 480,-356.5 356,-356.5"/>
<text text-anchor="middle" x="418" y="-363.5" font-family="FreeSans" font-size="10.00">PHNodeIterator::findFirst</text>
</a>
</g>
</g>
<!-- Node1&#45;&gt;Node7 -->
<g id="edge6" class="edge"><title>Node1&#45;&gt;Node7</title>
<path fill="none" stroke="midnightblue" d="M94.9631,-268.052C112.529,-275.379 134.23,-284.077 154,-291 236.284,-319.814 257.947,-323.846 342,-347 350.468,-349.333 359.503,-351.713 368.264,-353.965"/>
<polygon fill="midnightblue" stroke="midnightblue" points="367.438,-357.367 377.993,-356.444 369.166,-350.583 367.438,-357.367"/>
</g>
<!-- Node10 -->
<g id="node10" class="node"><title>Node10</title>
<g id="a_node10"><a xlink:href="../../da/d29/classFun4AllServer.html#a92c6fe0e0c19c48d2b1f9d0f63c12bbe" target="_top" xlink:title="Fun4AllServer::MakeNodes\lTransient">
<polygon fill="none" stroke="black" points="162.5,-387 162.5,-417 297.5,-417 297.5,-387 162.5,-387"/>
<text text-anchor="start" x="170.5" y="-405" font-family="FreeSans" font-size="10.00">Fun4AllServer::MakeNodes</text>
<text text-anchor="middle" x="230" y="-394" font-family="FreeSans" font-size="10.00">Transient</text>
</a>
</g>
</g>
<!-- Node1&#45;&gt;Node10 -->
<g id="edge10" class="edge"><title>Node1&#45;&gt;Node10</title>
<path fill="none" stroke="midnightblue" d="M72.452,-268.092C89.6242,-288.419 122.086,-325.138 154,-352 166.549,-362.562 181.394,-372.857 194.552,-381.333"/>
<polygon fill="midnightblue" stroke="midnightblue" points="193.02,-384.505 203.343,-386.891 196.761,-378.588 193.02,-384.505"/>
</g>
<!-- Node11 -->
<g id="node11" class="node"><title>Node11</title>
<g id="a_node11"><a xlink:href="../../d5/dec/classFun4AllBase.html#a41f9ac377743d046f590617fd6f4f0ed" target="_top" xlink:title="Returns the name of this module. ">
<polygon fill="none" stroke="black" points="366.5,-186.5 366.5,-205.5 469.5,-205.5 469.5,-186.5 366.5,-186.5"/>
<text text-anchor="middle" x="418" y="-193.5" font-family="FreeSans" font-size="10.00">Fun4AllBase::Name</text>
</a>
</g>
</g>
<!-- Node1&#45;&gt;Node11 -->
<g id="edge12" class="edge"><title>Node1&#45;&gt;Node11</title>
<path fill="none" stroke="midnightblue" d="M117.667,-243.917C167.526,-236.049 241.529,-224.338 306,-214 322.362,-211.376 340.077,-208.514 356.449,-205.859"/>
<polygon fill="midnightblue" stroke="midnightblue" points="357.135,-209.293 366.446,-204.237 356.014,-202.384 357.135,-209.293"/>
</g>
<!-- Node12 -->
<g id="node12" class="node"><title>Node12</title>
<g id="a_node12"><a xlink:href="../../d5/d07/classPHNodeIterator.html#aec2fbc1e56be7e1a0b064ecde48edee5" target="_top" xlink:title="PHNodeIterator::print">
<polygon fill="none" stroke="black" points="176,-117.5 176,-136.5 284,-136.5 284,-117.5 176,-117.5"/>
<text text-anchor="middle" x="230" y="-124.5" font-family="FreeSans" font-size="10.00">PHNodeIterator::print</text>
</a>
</g>
</g>
<!-- Node1&#45;&gt;Node12 -->
<g id="edge13" class="edge"><title>Node1&#45;&gt;Node12</title>
<path fill="none" stroke="midnightblue" d="M73.5457,-237.916C90.895,-219.194 122.5,-187.049 154,-165 167.311,-155.683 183.226,-147.284 196.964,-140.766"/>
<polygon fill="midnightblue" stroke="midnightblue" points="198.454,-143.933 206.069,-136.566 195.522,-137.577 198.454,-143.933"/>
</g>
<!-- Node15 -->
<g id="node15" class="node"><title>Node15</title>
<g id="a_node15"><a xlink:href="../../dd/ded/classFun4AllSyncManager.html#ad15c8f6f6b17662d06c4c927bc3e3ba6" target="_top" xlink:title="Fun4AllSyncManager\l::ResetEvent">
<polygon fill="none" stroke="black" points="175.5,-175 175.5,-205 284.5,-205 284.5,-175 175.5,-175"/>
<text text-anchor="start" x="183.5" y="-193" font-family="FreeSans" font-size="10.00">Fun4AllSyncManager</text>
<text text-anchor="middle" x="230" y="-182" font-family="FreeSans" font-size="10.00">::ResetEvent</text>
</a>
</g>
</g>
<!-- Node1&#45;&gt;Node15 -->
<g id="edge16" class="edge"><title>Node1&#45;&gt;Node15</title>
<path fill="none" stroke="midnightblue" d="M100.48,-237.91C124.014,-229.137 153.87,-218.007 178.88,-208.684"/>
<polygon fill="midnightblue" stroke="midnightblue" points="180.411,-211.849 188.558,-205.076 177.965,-205.29 180.411,-211.849"/>
</g>
<!-- Node17 -->
<g id="node17" class="node"><title>Node17</title>
<g id="a_node17"><a xlink:href="../../da/d29/classFun4AllServer.html#ab2479a9a3e45d51118e308597acd5228" target="_top" xlink:title="Fun4AllServer::ResetNodeTree">
<polygon fill="none" stroke="black" points="154.5,-262.5 154.5,-281.5 305.5,-281.5 305.5,-262.5 154.5,-262.5"/>
<text text-anchor="middle" x="230" y="-269.5" font-family="FreeSans" font-size="10.00">Fun4AllServer::ResetNodeTree</text>
</a>
</g>
</g>
<!-- Node1&#45;&gt;Node17 -->
<g id="edge19" class="edge"><title>Node1&#45;&gt;Node17</title>
<path fill="none" stroke="midnightblue" d="M117.688,-259.486C126.233,-260.446 135.186,-261.453 144.145,-262.46"/>
<polygon fill="midnightblue" stroke="midnightblue" points="143.912,-265.956 154.241,-263.595 144.695,-259 143.912,-265.956"/>
</g>
<!-- Node22 -->
<g id="node22" class="node"><title>Node22</title>
<g id="a_node22"><a xlink:href="../../da/d29/classFun4AllServer.html#a3a4e3f448388cb2e68b085e9038feaf8" target="_top" xlink:title="Fun4AllServer::unregister\lSubsystemsNow">
<polygon fill="none" stroke="black" points="167.5,-68 167.5,-98 292.5,-98 292.5,-68 167.5,-68"/>
<text text-anchor="start" x="175.5" y="-86" font-family="FreeSans" font-size="10.00">Fun4AllServer::unregister</text>
<text text-anchor="middle" x="230" y="-75" font-family="FreeSans" font-size="10.00">SubsystemsNow</text>
</a>
</g>
</g>
<!-- Node1&#45;&gt;Node22 -->
<g id="edge28" class="edge"><title>Node1&#45;&gt;Node22</title>
<path fill="none" stroke="midnightblue" d="M65.7713,-237.873C77.7243,-208.526 107.975,-143.624 154,-108 156.418,-106.128 158.984,-104.393 161.653,-102.784"/>
<polygon fill="midnightblue" stroke="midnightblue" points="163.306,-105.869 170.473,-98.0672 160.005,-99.6966 163.306,-105.869"/>
</g>
<!-- Node3 -->
<g id="node3" class="node"><title>Node3</title>
<g id="a_node3"><a xlink:href="../../da/d29/classFun4AllServer.html#a3654ebdcb099bcc5c820df6d4952663c" target="_top" xlink:title="Fun4AllServer::CountOutNodes\lRecursive">
<polygon fill="none" stroke="black" points="342,-451 342,-481 494,-481 494,-451 342,-451"/>
<text text-anchor="start" x="350" y="-469" font-family="FreeSans" font-size="10.00">Fun4AllServer::CountOutNodes</text>
<text text-anchor="middle" x="418" y="-458" font-family="FreeSans" font-size="10.00">Recursive</text>
</a>
</g>
</g>
<!-- Node2&#45;&gt;Node3 -->
<g id="edge2" class="edge"><title>Node2&#45;&gt;Node3</title>
<path fill="none" stroke="midnightblue" d="M306.117,-460.039C314.596,-460.494 323.281,-460.961 331.875,-461.423"/>
<polygon fill="midnightblue" stroke="midnightblue" points="331.731,-464.921 341.905,-461.963 332.107,-457.931 331.731,-464.921"/>
</g>
<!-- Node4 -->
<g id="node4" class="node"><title>Node4</title>
<g id="a_node4"><a xlink:href="../../d5/d07/classPHNodeIterator.html#a110a5b87a02a22deecae334f32387ffa" target="_top" xlink:title="PHNodeIterator::ls">
<polygon fill="none" stroke="black" points="539.5,-434.5 539.5,-453.5 636.5,-453.5 636.5,-434.5 539.5,-434.5"/>
<text text-anchor="middle" x="588" y="-441.5" font-family="FreeSans" font-size="10.00">PHNodeIterator::ls</text>
</a>
</g>
</g>
<!-- Node3&#45;&gt;Node4 -->
<g id="edge3" class="edge"><title>Node3&#45;&gt;Node4</title>
<path fill="none" stroke="midnightblue" d="M494.155,-456.158C505.928,-454.617 517.934,-453.044 529.237,-451.564"/>
<polygon fill="midnightblue" stroke="midnightblue" points="529.931,-455.003 539.391,-450.234 529.022,-448.063 529.931,-455.003"/>
</g>
<!-- Node5 -->
<g id="node5" class="node"><title>Node5</title>
<g id="a_node5"><a xlink:href="../../d6/d86/classPHPointerList.html#a560c9339d74f28f604d07dcb10a2e0be" target="_top" xlink:title="PHPointerList::clear">
<polygon fill="none" stroke="black" points="687,-453.5 687,-472.5 791,-472.5 791,-453.5 687,-453.5"/>
<text text-anchor="middle" x="739" y="-460.5" font-family="FreeSans" font-size="10.00">PHPointerList::clear</text>
</a>
</g>
</g>
<!-- Node4&#45;&gt;Node5 -->
<g id="edge4" class="edge"><title>Node4&#45;&gt;Node5</title>
<path fill="none" stroke="midnightblue" d="M636.554,-450.064C649.313,-451.691 663.291,-453.473 676.682,-455.181"/>
<polygon fill="midnightblue" stroke="midnightblue" points="676.416,-458.675 686.778,-456.468 677.301,-451.731 676.416,-458.675"/>
</g>
<!-- Node6 -->
<g id="node6" class="node"><title>Node6</title>
<g id="a_node6"><a xlink:href="../../d6/d86/classPHPointerList.html#af5fc4e6958b5b90c57bfb497566f503c" target="_top" xlink:title="PHPointerList::append">
<polygon fill="none" stroke="black" points="682,-415.5 682,-434.5 796,-434.5 796,-415.5 682,-415.5"/>
<text text-anchor="middle" x="739" y="-422.5" font-family="FreeSans" font-size="10.00">PHPointerList::append</text>
</a>
</g>
</g>
<!-- Node4&#45;&gt;Node6 -->
<g id="edge5" class="edge"><title>Node4&#45;&gt;Node6</title>
<path fill="none" stroke="midnightblue" d="M636.554,-437.936C647.687,-436.516 659.747,-434.979 671.535,-433.475"/>
<polygon fill="midnightblue" stroke="midnightblue" points="672.318,-436.904 681.795,-432.167 671.432,-429.96 672.318,-436.904"/>
</g>
<!-- Node7&#45;&gt;Node7 -->
<g id="edge9" class="edge"><title>Node7&#45;&gt;Node7</title>
<path fill="none" stroke="midnightblue" d="M391.798,-375.757C379.051,-384.565 387.785,-394 418,-394 438.301,-394 448.904,-389.741 449.811,-384.275"/>
<polygon fill="midnightblue" stroke="midnightblue" points="452.625,-382.184 444.202,-375.757 446.779,-386.034 452.625,-382.184"/>
</g>
<!-- Node8 -->
<g id="node8" class="node"><title>Node8</title>
<g id="a_node8"><a xlink:href="../../dc/d82/classPHNode.html#a4ab1f90aed955a652813bfe377087bda" target="_top" xlink:title="PHNode::getType">
<polygon fill="none" stroke="black" points="541.5,-319.5 541.5,-338.5 634.5,-338.5 634.5,-319.5 541.5,-319.5"/>
<text text-anchor="middle" x="588" y="-326.5" font-family="FreeSans" font-size="10.00">PHNode::getType</text>
</a>
</g>
</g>
<!-- Node7&#45;&gt;Node8 -->
<g id="edge7" class="edge"><title>Node7&#45;&gt;Node8</title>
<path fill="none" stroke="midnightblue" d="M462.264,-356.472C484.029,-351.678 510.608,-345.824 533.631,-340.754"/>
<polygon fill="midnightblue" stroke="midnightblue" points="534.578,-344.129 543.591,-338.56 533.072,-337.293 534.578,-344.129"/>
</g>
<!-- Node9 -->
<g id="node9" class="node"><title>Node9</title>
<g id="a_node9"><a xlink:href="../../dc/d82/classPHNode.html#aca3576f926a4401eddc3d88bf0ce0de3" target="_top" xlink:title="PHNode::getName">
<polygon fill="none" stroke="black" points="539,-281.5 539,-300.5 637,-300.5 637,-281.5 539,-281.5"/>
<text text-anchor="middle" x="588" y="-288.5" font-family="FreeSans" font-size="10.00">PHNode::getName</text>
</a>
</g>
</g>
<!-- Node7&#45;&gt;Node9 -->
<g id="edge8" class="edge"><title>Node7&#45;&gt;Node9</title>
<path fill="none" stroke="midnightblue" d="M472.087,-356.475C479.714,-354.001 487.253,-350.895 494,-347 513.87,-335.528 510.566,-322.196 530,-310 533.192,-307.997 536.618,-306.181 540.148,-304.539"/>
<polygon fill="midnightblue" stroke="midnightblue" points="541.758,-307.66 549.649,-300.59 539.072,-301.196 541.758,-307.66"/>
</g>
<!-- Node10&#45;&gt;Node4 -->
<g id="edge11" class="edge"><title>Node10&#45;&gt;Node4</title>
<path fill="none" stroke="midnightblue" d="M297.543,-409.851C364.171,-417.711 465.66,-429.685 529.068,-437.165"/>
<polygon fill="midnightblue" stroke="midnightblue" points="528.95,-440.676 539.291,-438.371 529.77,-433.724 528.95,-440.676"/>
</g>
<!-- Node13 -->
<g id="node13" class="node"><title>Node13</title>
<g id="a_node13"><a xlink:href="../../d5/dca/classPHCompositeNode.html#a6a3a273adbb9f7ec652b5227212a6b2d" target="_top" xlink:title="PHCompositeNode::print">
<polygon fill="none" stroke="black" points="356,-98.5 356,-117.5 480,-117.5 480,-98.5 356,-98.5"/>
<text text-anchor="middle" x="418" y="-105.5" font-family="FreeSans" font-size="10.00">PHCompositeNode::print</text>
</a>
</g>
</g>
<!-- Node12&#45;&gt;Node13 -->
<g id="edge14" class="edge"><title>Node12&#45;&gt;Node13</title>
<path fill="none" stroke="midnightblue" d="M284.3,-121.555C303.402,-119.604 325.254,-117.372 345.637,-115.29"/>
<polygon fill="midnightblue" stroke="midnightblue" points="346.23,-118.747 355.823,-114.249 345.519,-111.784 346.23,-118.747"/>
</g>
<!-- Node14 -->
<g id="node14" class="node"><title>Node14</title>
<g id="a_node14"><a xlink:href="../../dc/d82/classPHNode.html#a3c79c7edb338e7d3bb86460f931793fa" target="_top" xlink:title="PHNode::print">
<polygon fill="none" stroke="black" points="549.5,-98.5 549.5,-117.5 626.5,-117.5 626.5,-98.5 549.5,-98.5"/>
<text text-anchor="middle" x="588" y="-105.5" font-family="FreeSans" font-size="10.00">PHNode::print</text>
</a>
</g>
</g>
<!-- Node13&#45;&gt;Node14 -->
<g id="edge15" class="edge"><title>Node13&#45;&gt;Node14</title>
<path fill="none" stroke="midnightblue" d="M480.127,-108C499.51,-108 520.652,-108 538.978,-108"/>
<polygon fill="midnightblue" stroke="midnightblue" points="539.122,-111.5 549.122,-108 539.122,-104.5 539.122,-111.5"/>
</g>
<!-- Node15&#45;&gt;Node11 -->
<g id="edge17" class="edge"><title>Node15&#45;&gt;Node11</title>
<path fill="none" stroke="midnightblue" d="M284.799,-191.735C307.136,-192.456 333.166,-193.296 356.192,-194.038"/>
<polygon fill="midnightblue" stroke="midnightblue" points="356.088,-197.537 366.196,-194.361 356.314,-190.54 356.088,-197.537"/>
</g>
<!-- Node16 -->
<g id="node16" class="node"><title>Node16</title>
<g id="a_node16"><a xlink:href="../../d4/da9/classFun4AllInputManager.html#a01c946e063c464f497e7befbbe757f71" target="_top" xlink:title="Fun4AllInputManager\l::ResetEvent">
<polygon fill="none" stroke="black" points="363.5,-137 363.5,-167 472.5,-167 472.5,-137 363.5,-137"/>
<text text-anchor="start" x="371.5" y="-155" font-family="FreeSans" font-size="10.00">Fun4AllInputManager</text>
<text text-anchor="middle" x="418" y="-144" font-family="FreeSans" font-size="10.00">::ResetEvent</text>
</a>
</g>
</g>
<!-- Node15&#45;&gt;Node16 -->
<g id="edge18" class="edge"><title>Node15&#45;&gt;Node16</title>
<path fill="none" stroke="midnightblue" d="M284.799,-179.009C306.198,-174.637 330.987,-169.572 353.278,-165.019"/>
<polygon fill="midnightblue" stroke="midnightblue" points="354.225,-168.397 363.322,-162.966 352.824,-161.539 354.225,-168.397"/>
</g>
<!-- Node18 -->
<g id="node18" class="node"><title>Node18</title>
<g id="a_node18"><a xlink:href="../../db/d8e/classPHNodeOperation.html#a641fdf1094ec15063171e199a4066a0d" target="_top" xlink:title="PHNodeOperation::Verbosity">
<polygon fill="none" stroke="black" points="347.5,-224.5 347.5,-243.5 488.5,-243.5 488.5,-224.5 347.5,-224.5"/>
<text text-anchor="middle" x="418" y="-231.5" font-family="FreeSans" font-size="10.00">PHNodeOperation::Verbosity</text>
</a>
</g>
</g>
<!-- Node17&#45;&gt;Node18 -->
<g id="edge20" class="edge"><title>Node17&#45;&gt;Node18</title>
<path fill="none" stroke="midnightblue" d="M277.936,-262.411C303.033,-257.284 334.119,-250.933 360.53,-245.537"/>
<polygon fill="midnightblue" stroke="midnightblue" points="361.305,-248.951 370.402,-243.52 359.904,-242.093 361.305,-248.951"/>
</g>
<!-- Node19 -->
<g id="node19" class="node"><title>Node19</title>
<g id="a_node19"><a xlink:href="../../d5/d07/classPHNodeIterator.html#a4cfa0490b6522394b13723c7db38a3a6" target="_top" xlink:title="PHNodeIterator::cd">
<polygon fill="none" stroke="black" points="368,-262.5 368,-281.5 468,-281.5 468,-262.5 368,-262.5"/>
<text text-anchor="middle" x="418" y="-269.5" font-family="FreeSans" font-size="10.00">PHNodeIterator::cd</text>
</a>
</g>
</g>
<!-- Node17&#45;&gt;Node19 -->
<g id="edge21" class="edge"><title>Node17&#45;&gt;Node19</title>
<path fill="none" stroke="midnightblue" d="M305.582,-272C322.907,-272 341.12,-272 357.685,-272"/>
<polygon fill="midnightblue" stroke="midnightblue" points="357.764,-275.5 367.764,-272 357.764,-268.5 357.764,-275.5"/>
</g>
<!-- Node21 -->
<g id="node21" class="node"><title>Node21</title>
<g id="a_node21"><a xlink:href="../../d5/d07/classPHNodeIterator.html#afeaefab44bf0ab15a439926205924f19" target="_top" xlink:title="PHNodeIterator::forEach">
<polygon fill="none" stroke="black" points="357,-300.5 357,-319.5 479,-319.5 479,-300.5 357,-300.5"/>
<text text-anchor="middle" x="418" y="-307.5" font-family="FreeSans" font-size="10.00">PHNodeIterator::forEach</text>
</a>
</g>
</g>
<!-- Node17&#45;&gt;Node21 -->
<g id="edge25" class="edge"><title>Node17&#45;&gt;Node21</title>
<path fill="none" stroke="midnightblue" d="M277.936,-281.589C303.033,-286.716 334.119,-293.067 360.53,-298.463"/>
<polygon fill="midnightblue" stroke="midnightblue" points="359.904,-301.907 370.402,-300.48 361.305,-295.049 359.904,-301.907"/>
</g>
<!-- Node19&#45;&gt;Node8 -->
<g id="edge23" class="edge"><title>Node19&#45;&gt;Node8</title>
<path fill="none" stroke="midnightblue" d="M463.961,-281.54C473.99,-284.176 484.471,-287.338 494,-291 510.888,-297.489 513.363,-302.893 530,-310 535.036,-312.151 540.404,-314.219 545.756,-316.147"/>
<polygon fill="midnightblue" stroke="midnightblue" points="544.701,-319.486 555.296,-319.456 546.994,-312.873 544.701,-319.486"/>
</g>
<!-- Node19&#45;&gt;Node9 -->
<g id="edge24" class="edge"><title>Node19&#45;&gt;Node9</title>
<path fill="none" stroke="midnightblue" d="M468.044,-277.547C487.013,-279.692 508.877,-282.165 528.645,-284.4"/>
<polygon fill="midnightblue" stroke="midnightblue" points="528.435,-287.899 538.765,-285.545 529.221,-280.943 528.435,-287.899"/>
</g>
<!-- Node20 -->
<g id="node20" class="node"><title>Node20</title>
<g id="a_node20"><a xlink:href="../../dc/d82/classPHNode.html#a5c15cb20d02290b69eb4d7f6051c9722" target="_top" xlink:title="PHNode::getParent">
<polygon fill="none" stroke="black" points="537.5,-243.5 537.5,-262.5 638.5,-262.5 638.5,-243.5 537.5,-243.5"/>
<text text-anchor="middle" x="588" y="-250.5" font-family="FreeSans" font-size="10.00">PHNode::getParent</text>
</a>
</g>
</g>
<!-- Node19&#45;&gt;Node20 -->
<g id="edge22" class="edge"><title>Node19&#45;&gt;Node20</title>
<path fill="none" stroke="midnightblue" d="M468.044,-266.453C486.601,-264.355 507.928,-261.943 527.353,-259.746"/>
<polygon fill="midnightblue" stroke="midnightblue" points="527.769,-263.221 537.313,-258.619 526.983,-256.265 527.769,-263.221"/>
</g>
<!-- Node21&#45;&gt;Node8 -->
<g id="edge26" class="edge"><title>Node21&#45;&gt;Node8</title>
<path fill="none" stroke="midnightblue" d="M479.177,-316.806C496.175,-318.728 514.591,-320.811 531.312,-322.702"/>
<polygon fill="midnightblue" stroke="midnightblue" points="531.146,-326.205 541.476,-323.851 531.933,-319.25 531.146,-326.205"/>
</g>
<!-- Node21&#45;&gt;Node21 -->
<g id="edge27" class="edge"><title>Node21&#45;&gt;Node21</title>
<path fill="none" stroke="midnightblue" d="M391.798,-319.757C379.051,-328.565 387.785,-338 418,-338 438.301,-338 448.904,-333.741 449.811,-328.275"/>
<polygon fill="midnightblue" stroke="midnightblue" points="452.625,-326.184 444.202,-319.757 446.779,-330.034 452.625,-326.184"/>
</g>
<!-- Node23 -->
<g id="node23" class="node"><title>Node23</title>
<g id="a_node23"><a xlink:href="../../da/d29/classFun4AllServer.html#a596005b9bc46ff6f5167378423248271" target="_top" xlink:title="Fun4AllServer::UpdateEvent\lSelector">
<polygon fill="none" stroke="black" points="348.5,-49 348.5,-79 487.5,-79 487.5,-49 348.5,-49"/>
<text text-anchor="start" x="356.5" y="-67" font-family="FreeSans" font-size="10.00">Fun4AllServer::UpdateEvent</text>
<text text-anchor="middle" x="418" y="-56" font-family="FreeSans" font-size="10.00">Selector</text>
</a>
</g>
</g>
<!-- Node22&#45;&gt;Node23 -->
<g id="edge29" class="edge"><title>Node22&#45;&gt;Node23</title>
<path fill="none" stroke="midnightblue" d="M292.677,-76.6997C307.337,-75.2021 323.173,-73.5845 338.473,-72.0216"/>
<polygon fill="midnightblue" stroke="midnightblue" points="338.84,-75.5024 348.432,-71.0042 338.128,-68.5386 338.84,-75.5024"/>
</g>
<!-- Node24 -->
<g id="node24" class="node"><title>Node24</title>
<g id="a_node24"><a xlink:href="../../d8/d77/classFun4AllOutputManager.html#a330fe561bb5a02a9f6dc08395686321c" target="_top" xlink:title="retrieves pointer to vector of event selector module ids ">
<polygon fill="none" stroke="black" points="530,-0 530,-30 646,-30 646,-0 530,-0"/>
<text text-anchor="start" x="538" y="-18" font-family="FreeSans" font-size="10.00">Fun4AllOutputManager</text>
<text text-anchor="middle" x="588" y="-7" font-family="FreeSans" font-size="10.00">::RecoModuleIndex</text>
</a>
</g>
</g>
<!-- Node23&#45;&gt;Node24 -->
<g id="edge30" class="edge"><title>Node23&#45;&gt;Node24</title>
<path fill="none" stroke="midnightblue" d="M470.776,-48.8986C488.103,-43.8449 507.586,-38.1624 525.577,-32.9152"/>
<polygon fill="midnightblue" stroke="midnightblue" points="526.775,-36.2116 535.395,-30.0516 524.815,-29.4916 526.775,-36.2116"/>
</g>
<!-- Node25 -->
<g id="node25" class="node"><title>Node25</title>
<g id="a_node25"><a xlink:href="../../d8/d77/classFun4AllOutputManager.html#a2a601e70ddadeb2f8400956ba1a514e6" target="_top" xlink:title="retrieves pointer to vector of event selector module names ">
<polygon fill="none" stroke="black" points="530,-49 530,-79 646,-79 646,-49 530,-49"/>
<text text-anchor="start" x="538" y="-67" font-family="FreeSans" font-size="10.00">Fun4AllOutputManager</text>
<text text-anchor="middle" x="588" y="-56" font-family="FreeSans" font-size="10.00">::EventSelector</text>
</a>
</g>
</g>
<!-- Node23&#45;&gt;Node25 -->
<g id="edge31" class="edge"><title>Node23&#45;&gt;Node25</title>
<path fill="none" stroke="midnightblue" d="M487.817,-64C498.283,-64 509.074,-64 519.512,-64"/>
<polygon fill="midnightblue" stroke="midnightblue" points="519.806,-67.5001 529.806,-64 519.806,-60.5001 519.806,-67.5001"/>
</g>
</g>
</svg>
