<?xml version="1.0" encoding="UTF-8" standalone="no"?>
<!DOCTYPE svg PUBLIC "-//W3C//DTD SVG 1.1//EN"
 "http://www.w3.org/Graphics/SVG/1.1/DTD/svg11.dtd">
<!-- Generated by graphviz version 2.36.0 (20140111.2315)
 -->
<!-- Title: Fun4AllServer::End Pages: 1 -->
<svg width="432pt" height="198pt"
 viewBox="0.00 0.00 432.00 198.00" xmlns="http://www.w3.org/2000/svg" xmlns:xlink="http://www.w3.org/1999/xlink">
<g id="graph0" class="graph" transform="scale(1 1) rotate(0) translate(4 194)">
<title>Fun4AllServer::End</title>
<!-- Node1 -->
<g id="node1" class="node"><title>Node1</title>
<polygon fill="#bfbfbf" stroke="black" points="0.5,-76.5 0.5,-95.5 99.5,-95.5 99.5,-76.5 0.5,-76.5"/>
<text text-anchor="middle" x="50" y="-83.5" font-family="FreeSans" font-size="10.00">Fun4AllServer::End</text>
</g>
<!-- Node2 -->
<g id="node2" class="node"><title>Node2</title>
<g id="a_node2"><a xlink:href="../../da/d29/classFun4AllServer.html#a53b1b6b338aa36891f2690a188920980" target="_top" xlink:title="Fun4AllServer::EndRun">
<polygon fill="none" stroke="black" points="144,-170.5 144,-189.5 260,-189.5 260,-170.5 144,-170.5"/>
<text text-anchor="middle" x="202" y="-177.5" font-family="FreeSans" font-size="10.00">Fun4AllServer::EndRun</text>
</a>
</g>
</g>
<!-- Node1&#45;&gt;Node2 -->
<g id="edge1" class="edge"><title>Node1&#45;&gt;Node2</title>
<path fill="none" stroke="midnightblue" d="M59.1717,-95.5373C73.2705,-111.406 103.768,-143.237 136,-161 139.988,-163.198 144.258,-165.166 148.632,-166.923"/>
<polygon fill="midnightblue" stroke="midnightblue" points="147.713,-170.313 158.307,-170.44 150.105,-163.734 147.713,-170.313"/>
</g>
<!-- Node3 -->
<g id="node3" class="node"><title>Node3</title>
<g id="a_node3"><a xlink:href="../../d5/d07/classPHNodeIterator.html#aea98bf8619af59b1212a94fb32106baa" target="_top" xlink:title="PHNodeIterator::findFirst">
<polygon fill="none" stroke="black" points="140,-114.5 140,-133.5 264,-133.5 264,-114.5 140,-114.5"/>
<text text-anchor="middle" x="202" y="-121.5" font-family="FreeSans" font-size="10.00">PHNodeIterator::findFirst</text>
</a>
</g>
</g>
<!-- Node1&#45;&gt;Node3 -->
<g id="edge2" class="edge"><title>Node1&#45;&gt;Node3</title>
<path fill="none" stroke="midnightblue" d="M88.8513,-95.589C108.467,-100.558 132.619,-106.677 153.479,-111.961"/>
<polygon fill="midnightblue" stroke="midnightblue" points="152.868,-115.417 163.421,-114.48 154.587,-108.631 152.868,-115.417"/>
</g>
<!-- Node6 -->
<g id="node6" class="node"><title>Node6</title>
<g id="a_node6"><a xlink:href="../../d1/da8/classPHFlag.html#a07899067141a5f12333cc37183caddc8" target="_top" xlink:title="PHFlag::get_IntFlag">
<polygon fill="none" stroke="black" points="150.5,-76.5 150.5,-95.5 253.5,-95.5 253.5,-76.5 150.5,-76.5"/>
<text text-anchor="middle" x="202" y="-83.5" font-family="FreeSans" font-size="10.00">PHFlag::get_IntFlag</text>
</a>
</g>
</g>
<!-- Node1&#45;&gt;Node6 -->
<g id="edge6" class="edge"><title>Node1&#45;&gt;Node6</title>
<path fill="none" stroke="midnightblue" d="M99.7007,-86C112.653,-86 126.803,-86 140.31,-86"/>
<polygon fill="midnightblue" stroke="midnightblue" points="140.483,-89.5001 150.483,-86 140.483,-82.5001 140.483,-89.5001"/>
</g>
<!-- Node7 -->
<g id="node7" class="node"><title>Node7</title>
<g id="a_node7"><a xlink:href="../../d8/d14/classrecoConsts.html#ae69a5c29a7199ba16d0e537158618802" target="_top" xlink:title="recoConsts::instance">
<polygon fill="none" stroke="black" points="148.5,-38.5 148.5,-57.5 255.5,-57.5 255.5,-38.5 148.5,-38.5"/>
<text text-anchor="middle" x="202" y="-45.5" font-family="FreeSans" font-size="10.00">recoConsts::instance</text>
</a>
</g>
</g>
<!-- Node1&#45;&gt;Node7 -->
<g id="edge7" class="edge"><title>Node1&#45;&gt;Node7</title>
<path fill="none" stroke="midnightblue" d="M88.8513,-76.411C108.467,-71.4417 132.619,-65.3233 153.479,-60.0387"/>
<polygon fill="midnightblue" stroke="midnightblue" points="154.587,-63.3687 163.421,-57.5201 152.868,-56.5831 154.587,-63.3687"/>
</g>
<!-- Node9 -->
<g id="node9" class="node"><title>Node9</title>
<g id="a_node9"><a xlink:href="../../da/d29/classFun4AllServer.html#a6f2074f451d0c0c1b4a802edde5ffb94" target="_top" xlink:title="Fun4AllServer::outfileclose">
<polygon fill="none" stroke="black" points="136.5,-0.5 136.5,-19.5 267.5,-19.5 267.5,-0.5 136.5,-0.5"/>
<text text-anchor="middle" x="202" y="-7.5" font-family="FreeSans" font-size="10.00">Fun4AllServer::outfileclose</text>
</a>
</g>
</g>
<!-- Node1&#45;&gt;Node9 -->
<g id="edge9" class="edge"><title>Node1&#45;&gt;Node9</title>
<path fill="none" stroke="midnightblue" d="M62.6849,-76.4488C78.4567,-63.9734 107.836,-42.175 136,-29 140.925,-26.696 146.193,-24.6043 151.517,-22.7235"/>
<polygon fill="midnightblue" stroke="midnightblue" points="152.7,-26.0189 161.103,-19.5654 150.51,-19.3704 152.7,-26.0189"/>
</g>
<!-- Node3&#45;&gt;Node3 -->
<g id="edge5" class="edge"><title>Node3&#45;&gt;Node3</title>
<path fill="none" stroke="midnightblue" d="M178.572,-133.757C167.175,-142.565 174.984,-152 202,-152 219.729,-152 229.186,-147.937 230.372,-142.654"/>
<polygon fill="midnightblue" stroke="midnightblue" points="233.345,-140.797 225.428,-133.757 227.226,-144.198 233.345,-140.797"/>
</g>
<!-- Node4 -->
<g id="node4" class="node"><title>Node4</title>
<g id="a_node4"><a xlink:href="../../dc/d82/classPHNode.html#a4ab1f90aed955a652813bfe377087bda" target="_top" xlink:title="PHNode::getType">
<polygon fill="none" stroke="black" points="317.5,-133.5 317.5,-152.5 410.5,-152.5 410.5,-133.5 317.5,-133.5"/>
<text text-anchor="middle" x="364" y="-140.5" font-family="FreeSans" font-size="10.00">PHNode::getType</text>
</a>
</g>
</g>
<!-- Node3&#45;&gt;Node4 -->
<g id="edge3" class="edge"><title>Node3&#45;&gt;Node4</title>
<path fill="none" stroke="midnightblue" d="M264.403,-131.292C278.448,-132.959 293.303,-134.723 307.102,-136.362"/>
<polygon fill="midnightblue" stroke="midnightblue" points="307.075,-139.883 317.418,-137.587 307.901,-132.932 307.075,-139.883"/>
</g>
<!-- Node5 -->
<g id="node5" class="node"><title>Node5</title>
<g id="a_node5"><a xlink:href="../../dc/d82/classPHNode.html#aca3576f926a4401eddc3d88bf0ce0de3" target="_top" xlink:title="PHNode::getName">
<polygon fill="none" stroke="black" points="315,-95.5 315,-114.5 413,-114.5 413,-95.5 315,-95.5"/>
<text text-anchor="middle" x="364" y="-102.5" font-family="FreeSans" font-size="10.00">PHNode::getName</text>
</a>
</g>
</g>
<!-- Node3&#45;&gt;Node5 -->
<g id="edge4" class="edge"><title>Node3&#45;&gt;Node5</title>
<path fill="none" stroke="midnightblue" d="M264.403,-116.708C277.615,-115.14 291.543,-113.485 304.636,-111.931"/>
<polygon fill="midnightblue" stroke="midnightblue" points="305.409,-115.364 314.927,-110.709 304.584,-108.412 305.409,-115.364"/>
</g>
<!-- Node8 -->
<g id="node8" class="node"><title>Node8</title>
<g id="a_node8"><a xlink:href="../../d8/d14/classrecoConsts.html#ae882d6adc62f783ec78114fe3dee3c24" target="_top" xlink:title="recoConsts::recoConsts">
<polygon fill="none" stroke="black" points="304,-38.5 304,-57.5 424,-57.5 424,-38.5 304,-38.5"/>
<text text-anchor="middle" x="364" y="-45.5" font-family="FreeSans" font-size="10.00">recoConsts::recoConsts</text>
</a>
</g>
</g>
<!-- Node7&#45;&gt;Node8 -->
<g id="edge8" class="edge"><title>Node7&#45;&gt;Node8</title>
<path fill="none" stroke="midnightblue" d="M255.833,-48C267.972,-48 281.057,-48 293.772,-48"/>
<polygon fill="midnightblue" stroke="midnightblue" points="293.865,-51.5001 303.865,-48 293.865,-44.5001 293.865,-51.5001"/>
</g>
<!-- Node10 -->
<g id="node10" class="node"><title>Node10</title>
<g id="a_node10"><a xlink:href="../../d5/dec/classFun4AllBase.html#a41f9ac377743d046f590617fd6f4f0ed" target="_top" xlink:title="Returns the name of this module. ">
<polygon fill="none" stroke="black" points="312.5,-0.5 312.5,-19.5 415.5,-19.5 415.5,-0.5 312.5,-0.5"/>
<text text-anchor="middle" x="364" y="-7.5" font-family="FreeSans" font-size="10.00">Fun4AllBase::Name</text>
</a>
</g>
</g>
<!-- Node9&#45;&gt;Node10 -->
<g id="edge10" class="edge"><title>Node9&#45;&gt;Node10</title>
<path fill="none" stroke="midnightblue" d="M267.617,-10C279.038,-10 290.894,-10 302.206,-10"/>
<polygon fill="midnightblue" stroke="midnightblue" points="302.413,-13.5001 312.413,-10 302.413,-6.5001 302.413,-13.5001"/>
</g>
</g>
</svg>
