<?xml version="1.0" encoding="UTF-8" standalone="no"?>
<!DOCTYPE svg PUBLIC "-//W3C//DTD SVG 1.1//EN"
 "http://www.w3.org/Graphics/SVG/1.1/DTD/svg11.dtd">
<!-- Generated by graphviz version 2.36.0 (20140111.2315)
 -->
<!-- Title: Fun4AllServer::registerHistoManager Pages: 1 -->
<svg width="470pt" height="38pt"
 viewBox="0.00 0.00 470.00 38.00" xmlns="http://www.w3.org/2000/svg" xmlns:xlink="http://www.w3.org/1999/xlink">
<g id="graph0" class="graph" transform="scale(1 1) rotate(0) translate(4 34)">
<title>Fun4AllServer::registerHistoManager</title>
<!-- Node1 -->
<g id="node1" class="node"><title>Node1</title>
<polygon fill="#bfbfbf" stroke="black" points="0,-0 0,-30 138,-30 138,-0 0,-0"/>
<text text-anchor="start" x="8" y="-18" font-family="FreeSans" font-size="10.00">Fun4AllServer::registerHisto</text>
<text text-anchor="middle" x="69" y="-7" font-family="FreeSans" font-size="10.00">Manager</text>
</g>
<!-- Node2 -->
<g id="node2" class="node"><title>Node2</title>
<g id="a_node2"><a xlink:href="../../da/d29/classFun4AllServer.html#aa1939c3e2c3113cce0a6415103b4f5a5" target="_top" xlink:title="Fun4AllServer::InitAll">
<polygon fill="none" stroke="black" points="174.5,-5.5 174.5,-24.5 281.5,-24.5 281.5,-5.5 174.5,-5.5"/>
<text text-anchor="middle" x="228" y="-12.5" font-family="FreeSans" font-size="10.00">Fun4AllServer::InitAll</text>
</a>
</g>
</g>
<!-- Node1&#45;&gt;Node2 -->
<g id="edge1" class="edge"><title>Node1&#45;&gt;Node2</title>
<path fill="none" stroke="midnightblue" d="M148.636,-15C157.372,-15 166.105,-15 174.404,-15"/>
<polygon fill="midnightblue" stroke="midnightblue" points="148.406,-11.5001 138.406,-15 148.406,-18.5001 148.406,-11.5001"/>
</g>
<!-- Node3 -->
<g id="node3" class="node"><title>Node3</title>
<g id="a_node3"><a xlink:href="../../da/d29/classFun4AllServer.html#a90e27f05f0b2e8b6fe462387b14bfb92" target="_top" xlink:title="Fun4AllServer::Fun4AllServer">
<polygon fill="none" stroke="black" points="318,-5.5 318,-24.5 462,-24.5 462,-5.5 318,-5.5"/>
<text text-anchor="middle" x="390" y="-12.5" font-family="FreeSans" font-size="10.00">Fun4AllServer::Fun4AllServer</text>
</a>
</g>
</g>
<!-- Node2&#45;&gt;Node3 -->
<g id="edge2" class="edge"><title>Node2&#45;&gt;Node3</title>
<path fill="none" stroke="midnightblue" d="M292.046,-15C300.55,-15 309.322,-15 317.953,-15"/>
<polygon fill="midnightblue" stroke="midnightblue" points="291.833,-11.5001 281.833,-15 291.833,-18.5001 291.833,-11.5001"/>
</g>
</g>
</svg>
