<?xml version="1.0" encoding="UTF-8" standalone="no"?>
<!DOCTYPE svg PUBLIC "-//W3C//DTD SVG 1.1//EN"
 "http://www.w3.org/Graphics/SVG/1.1/DTD/svg11.dtd">
<!-- Generated by graphviz version 2.36.0 (20140111.2315)
 -->
<!-- Title: Fun4AllServer::outfileclose Pages: 1 -->
<svg width="436pt" height="66pt"
 viewBox="0.00 0.00 436.00 66.00" xmlns="http://www.w3.org/2000/svg" xmlns:xlink="http://www.w3.org/1999/xlink">
<g id="graph0" class="graph" transform="scale(1 1) rotate(0) translate(4 62)">
<title>Fun4AllServer::outfileclose</title>
<!-- Node1 -->
<g id="node1" class="node"><title>Node1</title>
<polygon fill="#bfbfbf" stroke="black" points="0.5,-19.5 0.5,-38.5 131.5,-38.5 131.5,-19.5 0.5,-19.5"/>
<text text-anchor="middle" x="66" y="-26.5" font-family="FreeSans" font-size="10.00">Fun4AllServer::outfileclose</text>
</g>
<!-- Node2 -->
<g id="node2" class="node"><title>Node2</title>
<g id="a_node2"><a xlink:href="../../da/d29/classFun4AllServer.html#ab7263450319ca1d5029209fde26a7af8" target="_top" xlink:title="Fun4AllServer::End">
<polygon fill="none" stroke="black" points="168.5,-19.5 168.5,-38.5 267.5,-38.5 267.5,-19.5 168.5,-19.5"/>
<text text-anchor="middle" x="218" y="-26.5" font-family="FreeSans" font-size="10.00">Fun4AllServer::End</text>
</a>
</g>
</g>
<!-- Node1&#45;&gt;Node2 -->
<g id="edge1" class="edge"><title>Node1&#45;&gt;Node2</title>
<path fill="none" stroke="midnightblue" d="M141.976,-29C150.908,-29 159.84,-29 168.265,-29"/>
<polygon fill="midnightblue" stroke="midnightblue" points="141.92,-25.5001 131.92,-29 141.92,-32.5001 141.92,-25.5001"/>
</g>
<!-- Node3 -->
<g id="node3" class="node"><title>Node3</title>
<g id="a_node3"><a xlink:href="../../d0/d46/Fun4__SimpleReadMySql_8C.html#a70381893748e3445abc30632beb256ce" target="_top" xlink:title="Fun4_SimpleReadMySql">
<polygon fill="none" stroke="black" points="304.5,-38.5 304.5,-57.5 427.5,-57.5 427.5,-38.5 304.5,-38.5"/>
<text text-anchor="middle" x="366" y="-45.5" font-family="FreeSans" font-size="10.00">Fun4_SimpleReadMySql</text>
</a>
</g>
</g>
<!-- Node2&#45;&gt;Node3 -->
<g id="edge2" class="edge"><title>Node2&#45;&gt;Node3</title>
<path fill="none" stroke="midnightblue" d="M277.75,-36.6455C286.521,-37.787 295.578,-38.9657 304.388,-40.1121"/>
<polygon fill="midnightblue" stroke="midnightblue" points="277.984,-33.1466 267.616,-35.3267 277.081,-40.088 277.984,-33.1466"/>
</g>
<!-- Node4 -->
<g id="node4" class="node"><title>Node4</title>
<g id="a_node4"><a xlink:href="../../d9/d8c/Fun4ReadMySql_8C.html#a729b39fa627147c63772f28c9be36b62" target="_top" xlink:title="Fun4ReadMySql">
<polygon fill="none" stroke="black" points="322,-0.5 322,-19.5 410,-19.5 410,-0.5 322,-0.5"/>
<text text-anchor="middle" x="366" y="-7.5" font-family="FreeSans" font-size="10.00">Fun4ReadMySql</text>
</a>
</g>
</g>
<!-- Node2&#45;&gt;Node4 -->
<g id="edge3" class="edge"><title>Node2&#45;&gt;Node4</title>
<path fill="none" stroke="midnightblue" d="M277.701,-21.3608C292.503,-19.4345 308.121,-17.402 321.991,-15.5971"/>
<polygon fill="midnightblue" stroke="midnightblue" points="277.081,-17.912 267.616,-22.6733 277.984,-24.8534 277.081,-17.912"/>
</g>
</g>
</svg>
