<?xml version="1.0" encoding="UTF-8" standalone="no"?>
<!DOCTYPE svg PUBLIC "-//W3C//DTD SVG 1.1//EN"
 "http://www.w3.org/Graphics/SVG/1.1/DTD/svg11.dtd">
<!-- Generated by graphviz version 2.36.0 (20140111.2315)
 -->
<!-- Title: Fun4AllServer::registerInputManager Pages: 1 -->
<svg width="442pt" height="77pt"
 viewBox="0.00 0.00 442.00 77.00" xmlns="http://www.w3.org/2000/svg" xmlns:xlink="http://www.w3.org/1999/xlink">
<g id="graph0" class="graph" transform="scale(1 1) rotate(0) translate(4 73)">
<title>Fun4AllServer::registerInputManager</title>
<!-- Node1 -->
<g id="node1" class="node"><title>Node1</title>
<polygon fill="#bfbfbf" stroke="black" points="0.5,-22 0.5,-52 137.5,-52 137.5,-22 0.5,-22"/>
<text text-anchor="start" x="8.5" y="-40" font-family="FreeSans" font-size="10.00">Fun4AllServer::registerInput</text>
<text text-anchor="middle" x="69" y="-29" font-family="FreeSans" font-size="10.00">Manager</text>
</g>
<!-- Node2 -->
<g id="node2" class="node"><title>Node2</title>
<g id="a_node2"><a xlink:href="../../dd/ded/classFun4AllSyncManager.html#a2a284bc4ed777ec7f39d6e5c7090067c" target="_top" xlink:title="Fun4AllSyncManager\l::registerInputManager">
<polygon fill="none" stroke="black" points="174.5,-22 174.5,-52 287.5,-52 287.5,-22 174.5,-22"/>
<text text-anchor="start" x="182.5" y="-40" font-family="FreeSans" font-size="10.00">Fun4AllSyncManager</text>
<text text-anchor="middle" x="231" y="-29" font-family="FreeSans" font-size="10.00">::registerInputManager</text>
</a>
</g>
</g>
<!-- Node1&#45;&gt;Node2 -->
<g id="edge1" class="edge"><title>Node1&#45;&gt;Node2</title>
<path fill="none" stroke="midnightblue" d="M137.854,-37C146.547,-37 155.436,-37 164.097,-37"/>
<polygon fill="midnightblue" stroke="midnightblue" points="164.135,-40.5001 174.135,-37 164.135,-33.5001 164.135,-40.5001"/>
</g>
<!-- Node3 -->
<g id="node3" class="node"><title>Node3</title>
<g id="a_node3"><a xlink:href="../../d5/dec/classFun4AllBase.html#a41f9ac377743d046f590617fd6f4f0ed" target="_top" xlink:title="Returns the name of this module. ">
<polygon fill="none" stroke="black" points="327.5,-49.5 327.5,-68.5 430.5,-68.5 430.5,-49.5 327.5,-49.5"/>
<text text-anchor="middle" x="379" y="-56.5" font-family="FreeSans" font-size="10.00">Fun4AllBase::Name</text>
</a>
</g>
</g>
<!-- Node2&#45;&gt;Node3 -->
<g id="edge2" class="edge"><title>Node2&#45;&gt;Node3</title>
<path fill="none" stroke="midnightblue" d="M287.613,-45.38C297.302,-46.84 307.425,-48.3654 317.244,-49.8449"/>
<polygon fill="midnightblue" stroke="midnightblue" points="316.925,-53.3363 327.335,-51.3655 317.968,-46.4145 316.925,-53.3363"/>
</g>
<!-- Node4 -->
<g id="node4" class="node"><title>Node4</title>
<g id="a_node4"><a xlink:href="../../d4/da9/classFun4AllInputManager.html#a5b0cdb689482c4143b7b22ca8a780c51" target="_top" xlink:title="Fun4AllInputManager\l::setSyncManager">
<polygon fill="none" stroke="black" points="324.5,-0 324.5,-30 433.5,-30 433.5,-0 324.5,-0"/>
<text text-anchor="start" x="332.5" y="-18" font-family="FreeSans" font-size="10.00">Fun4AllInputManager</text>
<text text-anchor="middle" x="379" y="-7" font-family="FreeSans" font-size="10.00">::setSyncManager</text>
</a>
</g>
</g>
<!-- Node2&#45;&gt;Node4 -->
<g id="edge3" class="edge"><title>Node2&#45;&gt;Node4</title>
<path fill="none" stroke="midnightblue" d="M287.613,-28.62C296.395,-27.2966 305.534,-25.9195 314.48,-24.5715"/>
<polygon fill="midnightblue" stroke="midnightblue" points="315.102,-28.0174 324.469,-23.0663 314.059,-21.0955 315.102,-28.0174"/>
</g>
</g>
</svg>
