<?xml version="1.0" encoding="UTF-8" standalone="no"?>
<!DOCTYPE svg PUBLIC "-//W3C//DTD SVG 1.1//EN"
 "http://www.w3.org/Graphics/SVG/1.1/DTD/svg11.dtd">
<!-- Generated by graphviz version 2.36.0 (20140111.2315)
 -->
<!-- Title: Fun4AllServer::makeHisto Pages: 1 -->
<svg width="430pt" height="38pt"
 viewBox="0.00 0.00 430.00 38.00" xmlns="http://www.w3.org/2000/svg" xmlns:xlink="http://www.w3.org/1999/xlink">
<g id="graph0" class="graph" transform="scale(1 1) rotate(0) translate(4 34)">
<title>Fun4AllServer::makeHisto</title>
<!-- Node1 -->
<g id="node1" class="node"><title>Node1</title>
<polygon fill="#bfbfbf" stroke="black" points="0,-5.5 0,-24.5 130,-24.5 130,-5.5 0,-5.5"/>
<text text-anchor="middle" x="65" y="-12.5" font-family="FreeSans" font-size="10.00">Fun4AllServer::makeHisto</text>
</g>
<!-- Node2 -->
<g id="node2" class="node"><title>Node2</title>
<g id="a_node2"><a xlink:href="../../d3/d96/classFun4AllHistoManager.html#ad13a9bc82841ea99d349f7b9b5f93177" target="_top" xlink:title="Fun4AllHistoManager\l::makeHisto">
<polygon fill="none" stroke="black" points="166,-0 166,-30 276,-30 276,-0 166,-0"/>
<text text-anchor="start" x="174" y="-18" font-family="FreeSans" font-size="10.00">Fun4AllHistoManager</text>
<text text-anchor="middle" x="221" y="-7" font-family="FreeSans" font-size="10.00">::makeHisto</text>
</a>
</g>
</g>
<!-- Node1&#45;&gt;Node2 -->
<g id="edge1" class="edge"><title>Node1&#45;&gt;Node2</title>
<path fill="none" stroke="midnightblue" d="M130.418,-15C138.738,-15 147.261,-15 155.581,-15"/>
<polygon fill="midnightblue" stroke="midnightblue" points="155.604,-18.5001 165.604,-15 155.604,-11.5001 155.604,-18.5001"/>
</g>
<!-- Node3 -->
<g id="node3" class="node"><title>Node3</title>
<g id="a_node3"><a xlink:href="../../d3/d96/classFun4AllHistoManager.html#a7e1354855437fa28bb0d29dc0581d0a6" target="_top" xlink:title="Fun4AllHistoManager\l::registerHisto">
<polygon fill="none" stroke="black" points="312,-0 312,-30 422,-30 422,-0 312,-0"/>
<text text-anchor="start" x="320" y="-18" font-family="FreeSans" font-size="10.00">Fun4AllHistoManager</text>
<text text-anchor="middle" x="367" y="-7" font-family="FreeSans" font-size="10.00">::registerHisto</text>
</a>
</g>
</g>
<!-- Node2&#45;&gt;Node3 -->
<g id="edge2" class="edge"><title>Node2&#45;&gt;Node3</title>
<path fill="none" stroke="midnightblue" d="M276.03,-15C284.314,-15 292.936,-15 301.42,-15"/>
<polygon fill="midnightblue" stroke="midnightblue" points="301.667,-18.5001 311.667,-15 301.667,-11.5001 301.667,-18.5001"/>
</g>
</g>
</svg>
