<?xml version="1.0" encoding="UTF-8" standalone="no"?>
<!DOCTYPE svg PUBLIC "-//W3C//DTD SVG 1.1//EN"
 "http://www.w3.org/Graphics/SVG/1.1/DTD/svg11.dtd">
<!-- Generated by graphviz version 2.36.0 (20140111.2315)
 -->
<!-- Title: Fun4AllServer::run Pages: 1 -->
<svg width="952pt" height="704pt"
 viewBox="0.00 0.00 952.00 704.00" xmlns="http://www.w3.org/2000/svg" xmlns:xlink="http://www.w3.org/1999/xlink">
<g id="graph0" class="graph" transform="scale(1 1) rotate(0) translate(4 700)">
<title>Fun4AllServer::run</title>
<!-- Node1 -->
<g id="node1" class="node"><title>Node1</title>
<polygon fill="#bfbfbf" stroke="black" points="0,-282.5 0,-301.5 96,-301.5 96,-282.5 0,-282.5"/>
<text text-anchor="middle" x="48" y="-289.5" font-family="FreeSans" font-size="10.00">Fun4AllServer::run</text>
</g>
<!-- Node2 -->
<g id="node2" class="node"><title>Node2</title>
<g id="a_node2"><a xlink:href="../../da/d29/classFun4AllServer.html#afcfc5583204cac58b4e66a2406187a18" target="_top" xlink:title="Fun4AllServer::BeginRun">
<polygon fill="none" stroke="black" points="132.5,-507.5 132.5,-526.5 257.5,-526.5 257.5,-507.5 132.5,-507.5"/>
<text text-anchor="middle" x="195" y="-514.5" font-family="FreeSans" font-size="10.00">Fun4AllServer::BeginRun</text>
</a>
</g>
</g>
<!-- Node1&#45;&gt;Node2 -->
<g id="edge1" class="edge"><title>Node1&#45;&gt;Node2</title>
<path fill="none" stroke="midnightblue" d="M55.2305,-301.668C77.447,-336.142 153.016,-453.403 182.285,-498.822"/>
<polygon fill="midnightblue" stroke="midnightblue" points="179.434,-500.858 187.793,-507.368 185.318,-497.066 179.434,-500.858"/>
</g>
<!-- Node18 -->
<g id="node18" class="node"><title>Node18</title>
<g id="a_node18"><a xlink:href="../../da/d29/classFun4AllServer.html#a53b1b6b338aa36891f2690a188920980" target="_top" xlink:title="Fun4AllServer::EndRun">
<polygon fill="none" stroke="black" points="137,-222.5 137,-241.5 253,-241.5 253,-222.5 137,-222.5"/>
<text text-anchor="middle" x="195" y="-229.5" font-family="FreeSans" font-size="10.00">Fun4AllServer::EndRun</text>
</a>
</g>
</g>
<!-- Node1&#45;&gt;Node18 -->
<g id="edge19" class="edge"><title>Node1&#45;&gt;Node18</title>
<path fill="none" stroke="midnightblue" d="M70.3969,-282.44C87.1,-275.045 110.929,-264.644 132,-256 140.783,-252.397 150.322,-248.632 159.225,-245.18"/>
<polygon fill="midnightblue" stroke="midnightblue" points="160.497,-248.441 168.57,-241.581 157.981,-241.909 160.497,-248.441"/>
</g>
<!-- Node19 -->
<g id="node19" class="node"><title>Node19</title>
<g id="a_node19"><a xlink:href="../../d1/da8/classPHFlag.html#a4b73a422f0076568904d71f40e849da5" target="_top" xlink:title="PHFlag::FlagExist">
<polygon fill="none" stroke="black" points="148,-184.5 148,-203.5 242,-203.5 242,-184.5 148,-184.5"/>
<text text-anchor="middle" x="195" y="-191.5" font-family="FreeSans" font-size="10.00">PHFlag::FlagExist</text>
</a>
</g>
</g>
<!-- Node1&#45;&gt;Node19 -->
<g id="edge20" class="edge"><title>Node1&#45;&gt;Node19</title>
<path fill="none" stroke="midnightblue" d="M56.4099,-282.498C69.77,-265.993 99.5414,-231.976 132,-213 135.663,-210.859 139.591,-208.936 143.627,-207.214"/>
<polygon fill="midnightblue" stroke="midnightblue" points="145.084,-210.404 153.165,-203.552 142.575,-203.869 145.084,-210.404"/>
</g>
<!-- Node20 -->
<g id="node20" class="node"><title>Node20</title>
<g id="a_node20"><a xlink:href="../../d1/da8/classPHFlag.html#a07899067141a5f12333cc37183caddc8" target="_top" xlink:title="PHFlag::get_IntFlag">
<polygon fill="none" stroke="black" points="143.5,-146.5 143.5,-165.5 246.5,-165.5 246.5,-146.5 143.5,-146.5"/>
<text text-anchor="middle" x="195" y="-153.5" font-family="FreeSans" font-size="10.00">PHFlag::get_IntFlag</text>
</a>
</g>
</g>
<!-- Node1&#45;&gt;Node20 -->
<g id="edge21" class="edge"><title>Node1&#45;&gt;Node20</title>
<path fill="none" stroke="midnightblue" d="M53.2281,-282.178C63.3969,-259.722 91.4216,-204.312 132,-175 134.692,-173.055 137.587,-171.306 140.603,-169.734"/>
<polygon fill="midnightblue" stroke="midnightblue" points="142.251,-172.83 149.927,-165.528 139.372,-166.45 142.251,-172.83"/>
</g>
<!-- Node21 -->
<g id="node21" class="node"><title>Node21</title>
<g id="a_node21"><a xlink:href="../../d8/d14/classrecoConsts.html#ae69a5c29a7199ba16d0e537158618802" target="_top" xlink:title="recoConsts::instance">
<polygon fill="none" stroke="black" points="316.5,-659.5 316.5,-678.5 423.5,-678.5 423.5,-659.5 316.5,-659.5"/>
<text text-anchor="middle" x="370" y="-666.5" font-family="FreeSans" font-size="10.00">recoConsts::instance</text>
</a>
</g>
</g>
<!-- Node1&#45;&gt;Node21 -->
<g id="edge22" class="edge"><title>Node1&#45;&gt;Node21</title>
<path fill="none" stroke="midnightblue" d="M50.0542,-301.605C55.6555,-350.879 83.5115,-574.752 132,-621 178.091,-664.961 252.795,-673.674 306.007,-673.478"/>
<polygon fill="midnightblue" stroke="midnightblue" points="306.065,-676.978 316.015,-673.336 305.966,-669.978 306.065,-676.978"/>
</g>
<!-- Node23 -->
<g id="node23" class="node"><title>Node23</title>
<g id="a_node23"><a xlink:href="../../da/d29/classFun4AllServer.html#a6a65a944dfb40966ace97d35ab1f7942" target="_top" xlink:title="Fun4AllServer::process\l_event">
<polygon fill="none" stroke="black" points="136.5,-299 136.5,-329 253.5,-329 253.5,-299 136.5,-299"/>
<text text-anchor="start" x="144.5" y="-317" font-family="FreeSans" font-size="10.00">Fun4AllServer::process</text>
<text text-anchor="middle" x="195" y="-306" font-family="FreeSans" font-size="10.00">_event</text>
</a>
</g>
</g>
<!-- Node1&#45;&gt;Node23 -->
<g id="edge24" class="edge"><title>Node1&#45;&gt;Node23</title>
<path fill="none" stroke="midnightblue" d="M96.0773,-299.143C105.69,-300.601 115.986,-302.163 126.159,-303.707"/>
<polygon fill="midnightblue" stroke="midnightblue" points="125.85,-307.2 136.262,-305.24 126.9,-300.279 125.85,-307.2"/>
</g>
<!-- Node35 -->
<g id="node35" class="node"><title>Node35</title>
<g id="a_node35"><a xlink:href="../../da/d29/classFun4AllServer.html#ab2479a9a3e45d51118e308597acd5228" target="_top" xlink:title="Fun4AllServer::ResetNodeTree">
<polygon fill="none" stroke="black" points="294.5,-76.5 294.5,-95.5 445.5,-95.5 445.5,-76.5 294.5,-76.5"/>
<text text-anchor="middle" x="370" y="-83.5" font-family="FreeSans" font-size="10.00">Fun4AllServer::ResetNodeTree</text>
</a>
</g>
</g>
<!-- Node1&#45;&gt;Node35 -->
<g id="edge51" class="edge"><title>Node1&#45;&gt;Node35</title>
<path fill="none" stroke="midnightblue" d="M96.0128,-288.357C150.159,-283.228 234.667,-272.058 258,-251 298.705,-214.264 260.662,-176.532 294,-133 304.806,-118.889 321.158,-107.935 335.838,-100.166"/>
<polygon fill="midnightblue" stroke="midnightblue" points="337.778,-103.11 345.168,-95.5185 334.657,-96.8438 337.778,-103.11"/>
</g>
<!-- Node40 -->
<g id="node40" class="node"><title>Node40</title>
<g id="a_node40"><a xlink:href="../../da/d29/classFun4AllServer.html#af1002b9170308da078c0e14a5ac4b514" target="_top" xlink:title="Fun4AllServer::setRun">
<polygon fill="none" stroke="black" points="138.5,-592.5 138.5,-611.5 251.5,-611.5 251.5,-592.5 138.5,-592.5"/>
<text text-anchor="middle" x="195" y="-599.5" font-family="FreeSans" font-size="10.00">Fun4AllServer::setRun</text>
</a>
</g>
</g>
<!-- Node1&#45;&gt;Node40 -->
<g id="edge52" class="edge"><title>Node1&#45;&gt;Node40</title>
<path fill="none" stroke="midnightblue" d="M50.8002,-301.942C57.3563,-336.404 82.2246,-453.154 132,-536 143.398,-554.972 161.01,-573.037 174.555,-585.455"/>
<polygon fill="midnightblue" stroke="midnightblue" points="172.575,-588.379 182.37,-592.415 177.23,-583.151 172.575,-588.379"/>
</g>
<!-- Node3 -->
<g id="node3" class="node"><title>Node3</title>
<g id="a_node3"><a xlink:href="../../da/d29/classFun4AllServer.html#a1266c6d922adaaa9e895b854be49d3e8" target="_top" xlink:title="Fun4AllServer::DisconnectDB">
<polygon fill="none" stroke="black" points="297.5,-507.5 297.5,-526.5 442.5,-526.5 442.5,-507.5 297.5,-507.5"/>
<text text-anchor="middle" x="370" y="-514.5" font-family="FreeSans" font-size="10.00">Fun4AllServer::DisconnectDB</text>
</a>
</g>
</g>
<!-- Node2&#45;&gt;Node3 -->
<g id="edge2" class="edge"><title>Node2&#45;&gt;Node3</title>
<path fill="none" stroke="midnightblue" d="M257.968,-517C267.467,-517 277.396,-517 287.242,-517"/>
<polygon fill="midnightblue" stroke="midnightblue" points="287.452,-520.5 297.452,-517 287.452,-513.5 287.452,-520.5"/>
</g>
<!-- Node4 -->
<g id="node4" class="node"><title>Node4</title>
<g id="a_node4"><a xlink:href="../../da/dc2/classPHTimeStamp.html#a4ef1bd9d8bfb3a8263aa9ceafb80bb34" target="_top" xlink:title="PHTimeStamp::print">
<polygon fill="none" stroke="black" points="318,-583.5 318,-602.5 422,-602.5 422,-583.5 318,-583.5"/>
<text text-anchor="middle" x="370" y="-590.5" font-family="FreeSans" font-size="10.00">PHTimeStamp::print</text>
</a>
</g>
</g>
<!-- Node2&#45;&gt;Node4 -->
<g id="edge3" class="edge"><title>Node2&#45;&gt;Node4</title>
<path fill="none" stroke="midnightblue" d="M209.647,-526.599C228.024,-539.128 262.109,-560.986 294,-574 299.958,-576.431 306.312,-578.618 312.706,-580.567"/>
<polygon fill="midnightblue" stroke="midnightblue" points="312.158,-584.05 322.735,-583.433 314.082,-577.32 312.158,-584.05"/>
</g>
<!-- Node5 -->
<g id="node5" class="node"><title>Node5</title>
<g id="a_node5"><a xlink:href="../../da/d29/classFun4AllServer.html#ae1b1a243ee1a67367c8da4ec3bdc003d" target="_top" xlink:title="Fun4AllServer::Print">
<polygon fill="none" stroke="black" points="318.5,-545.5 318.5,-564.5 421.5,-564.5 421.5,-545.5 318.5,-545.5"/>
<text text-anchor="middle" x="370" y="-552.5" font-family="FreeSans" font-size="10.00">Fun4AllServer::Print</text>
</a>
</g>
</g>
<!-- Node2&#45;&gt;Node5 -->
<g id="edge4" class="edge"><title>Node2&#45;&gt;Node5</title>
<path fill="none" stroke="midnightblue" d="M239.655,-526.589C262.793,-531.671 291.402,-537.955 315.827,-543.32"/>
<polygon fill="midnightblue" stroke="midnightblue" points="315.141,-546.753 325.659,-545.48 316.642,-539.916 315.141,-546.753"/>
</g>
<!-- Node14 -->
<g id="node14" class="node"><title>Node14</title>
<g id="a_node14"><a xlink:href="../../da/d29/classFun4AllServer.html#a3a4e3f448388cb2e68b085e9038feaf8" target="_top" xlink:title="Fun4AllServer::unregister\lSubsystemsNow">
<polygon fill="none" stroke="black" points="307.5,-370 307.5,-400 432.5,-400 432.5,-370 307.5,-370"/>
<text text-anchor="start" x="315.5" y="-388" font-family="FreeSans" font-size="10.00">Fun4AllServer::unregister</text>
<text text-anchor="middle" x="370" y="-377" font-family="FreeSans" font-size="10.00">SubsystemsNow</text>
</a>
</g>
</g>
<!-- Node2&#45;&gt;Node14 -->
<g id="edge15" class="edge"><title>Node2&#45;&gt;Node14</title>
<path fill="none" stroke="midnightblue" d="M208.721,-507.294C236.506,-486.094 303.164,-435.233 341.188,-406.221"/>
<polygon fill="midnightblue" stroke="midnightblue" points="343.468,-408.884 349.295,-400.035 339.222,-403.319 343.468,-408.884"/>
</g>
<!-- Node6 -->
<g id="node6" class="node"><title>Node6</title>
<g id="a_node6"><a xlink:href="../../d5/dec/classFun4AllBase.html#a41f9ac377743d046f590617fd6f4f0ed" target="_top" xlink:title="Returns the name of this module. ">
<polygon fill="none" stroke="black" points="680.5,-545.5 680.5,-564.5 783.5,-564.5 783.5,-545.5 680.5,-545.5"/>
<text text-anchor="middle" x="732" y="-552.5" font-family="FreeSans" font-size="10.00">Fun4AllBase::Name</text>
</a>
</g>
</g>
<!-- Node5&#45;&gt;Node6 -->
<g id="edge5" class="edge"><title>Node5&#45;&gt;Node6</title>
<path fill="none" stroke="midnightblue" d="M421.653,-562.405C430.27,-565.14 438.761,-568.882 446,-574 469.552,-590.653 456.569,-614.39 482,-628 541.562,-659.877 569.929,-649.416 634,-628 666.936,-616.991 697.657,-589.914 715.371,-572.012"/>
<polygon fill="midnightblue" stroke="midnightblue" points="718.158,-574.162 722.556,-564.523 713.107,-569.316 718.158,-574.162"/>
</g>
<!-- Node7 -->
<g id="node7" class="node"><title>Node7</title>
<g id="a_node7"><a xlink:href="../../d3/d96/classFun4AllHistoManager.html#ac920f5943d99ae803f4bf8a7a88c31da" target="_top" xlink:title="Fun4AllHistoManager\l::Print">
<polygon fill="none" stroke="black" points="503,-589 503,-619 613,-619 613,-589 503,-589"/>
<text text-anchor="start" x="511" y="-607" font-family="FreeSans" font-size="10.00">Fun4AllHistoManager</text>
<text text-anchor="middle" x="558" y="-596" font-family="FreeSans" font-size="10.00">::Print</text>
</a>
</g>
</g>
<!-- Node5&#45;&gt;Node7 -->
<g id="edge6" class="edge"><title>Node5&#45;&gt;Node7</title>
<path fill="none" stroke="midnightblue" d="M409.184,-564.549C420.997,-567.536 434.045,-570.87 446,-574 461.208,-577.981 477.563,-582.352 492.921,-586.496"/>
<polygon fill="midnightblue" stroke="midnightblue" points="492.28,-589.948 502.847,-589.18 494.107,-583.191 492.28,-589.948"/>
</g>
<!-- Node8 -->
<g id="node8" class="node"><title>Node8</title>
<g id="a_node8"><a xlink:href="../../d8/d77/classFun4AllOutputManager.html#ae13cdf197e3ae6f5310199ca034b8754" target="_top" xlink:title="print method (dump event selector) ">
<polygon fill="none" stroke="black" points="500,-452 500,-482 616,-482 616,-452 500,-452"/>
<text text-anchor="start" x="508" y="-470" font-family="FreeSans" font-size="10.00">Fun4AllOutputManager</text>
<text text-anchor="middle" x="558" y="-459" font-family="FreeSans" font-size="10.00">::Print</text>
</a>
</g>
</g>
<!-- Node5&#45;&gt;Node8 -->
<g id="edge8" class="edge"><title>Node5&#45;&gt;Node8</title>
<path fill="none" stroke="midnightblue" d="M418.144,-545.422C427.547,-542.856 437.224,-539.733 446,-536 475.73,-523.355 506.726,-503.432 528.383,-488.237"/>
<polygon fill="midnightblue" stroke="midnightblue" points="530.662,-490.911 536.775,-482.258 526.6,-485.21 530.662,-490.911"/>
</g>
<!-- Node10 -->
<g id="node10" class="node"><title>Node10</title>
<g id="a_node10"><a xlink:href="../../d5/d07/classPHNodeIterator.html#aec2fbc1e56be7e1a0b064ecde48edee5" target="_top" xlink:title="PHNodeIterator::print">
<polygon fill="none" stroke="black" points="504,-276.5 504,-295.5 612,-295.5 612,-276.5 504,-276.5"/>
<text text-anchor="middle" x="558" y="-283.5" font-family="FreeSans" font-size="10.00">PHNodeIterator::print</text>
</a>
</g>
</g>
<!-- Node5&#45;&gt;Node10 -->
<g id="edge10" class="edge"><title>Node5&#45;&gt;Node10</title>
<path fill="none" stroke="midnightblue" d="M421.833,-550.621C430.951,-547.653 439.579,-543.051 446,-536 515.958,-459.174 412.042,-381.826 482,-305 485.582,-301.066 489.851,-297.895 494.509,-295.344"/>
<polygon fill="midnightblue" stroke="midnightblue" points="496.162,-298.439 503.867,-291.167 493.309,-292.047 496.162,-298.439"/>
</g>
<!-- Node13 -->
<g id="node13" class="node"><title>Node13</title>
<g id="a_node13"><a xlink:href="../../dd/ded/classFun4AllSyncManager.html#a39eae3a8e090454f3595b25cb4059eb4" target="_top" xlink:title="Fun4AllSyncManager\l::Print">
<polygon fill="none" stroke="black" points="503.5,-540 503.5,-570 612.5,-570 612.5,-540 503.5,-540"/>
<text text-anchor="start" x="511.5" y="-558" font-family="FreeSans" font-size="10.00">Fun4AllSyncManager</text>
<text text-anchor="middle" x="558" y="-547" font-family="FreeSans" font-size="10.00">::Print</text>
</a>
</g>
</g>
<!-- Node5&#45;&gt;Node13 -->
<g id="edge13" class="edge"><title>Node5&#45;&gt;Node13</title>
<path fill="none" stroke="midnightblue" d="M421.825,-555C443.844,-555 469.864,-555 493.166,-555"/>
<polygon fill="midnightblue" stroke="midnightblue" points="493.31,-558.5 503.31,-555 493.31,-551.5 493.31,-558.5"/>
</g>
<!-- Node7&#45;&gt;Node6 -->
<g id="edge7" class="edge"><title>Node7&#45;&gt;Node6</title>
<path fill="none" stroke="midnightblue" d="M612.009,-588.899C636.342,-581.966 664.829,-573.851 687.828,-567.299"/>
<polygon fill="midnightblue" stroke="midnightblue" points="688.988,-570.608 697.646,-564.502 687.07,-563.876 688.988,-570.608"/>
</g>
<!-- Node9 -->
<g id="node9" class="node"><title>Node9</title>
<g id="a_node9"><a xlink:href="../../d8/d77/classFun4AllOutputManager.html#af86abee7682ee661cf4477e1e0443f71" target="_top" xlink:title="get number of Events ">
<polygon fill="none" stroke="black" points="674,-452 674,-482 790,-482 790,-452 674,-452"/>
<text text-anchor="start" x="682" y="-470" font-family="FreeSans" font-size="10.00">Fun4AllOutputManager</text>
<text text-anchor="middle" x="732" y="-459" font-family="FreeSans" font-size="10.00">::EventsWritten</text>
</a>
</g>
</g>
<!-- Node8&#45;&gt;Node9 -->
<g id="edge9" class="edge"><title>Node8&#45;&gt;Node9</title>
<path fill="none" stroke="midnightblue" d="M616.274,-467C631.505,-467 648.094,-467 663.804,-467"/>
<polygon fill="midnightblue" stroke="midnightblue" points="663.977,-470.5 673.977,-467 663.977,-463.5 663.977,-470.5"/>
</g>
<!-- Node11 -->
<g id="node11" class="node"><title>Node11</title>
<g id="a_node11"><a xlink:href="../../d5/dca/classPHCompositeNode.html#a6a3a273adbb9f7ec652b5227212a6b2d" target="_top" xlink:title="PHCompositeNode::print">
<polygon fill="none" stroke="black" points="670,-276.5 670,-295.5 794,-295.5 794,-276.5 670,-276.5"/>
<text text-anchor="middle" x="732" y="-283.5" font-family="FreeSans" font-size="10.00">PHCompositeNode::print</text>
</a>
</g>
</g>
<!-- Node10&#45;&gt;Node11 -->
<g id="edge11" class="edge"><title>Node10&#45;&gt;Node11</title>
<path fill="none" stroke="midnightblue" d="M612.009,-286C626.989,-286 643.542,-286 659.42,-286"/>
<polygon fill="midnightblue" stroke="midnightblue" points="659.734,-289.5 669.734,-286 659.734,-282.5 659.734,-289.5"/>
</g>
<!-- Node12 -->
<g id="node12" class="node"><title>Node12</title>
<g id="a_node12"><a xlink:href="../../dc/d82/classPHNode.html#a3c79c7edb338e7d3bb86460f931793fa" target="_top" xlink:title="PHNode::print">
<polygon fill="none" stroke="black" points="848.5,-276.5 848.5,-295.5 925.5,-295.5 925.5,-276.5 848.5,-276.5"/>
<text text-anchor="middle" x="887" y="-283.5" font-family="FreeSans" font-size="10.00">PHNode::print</text>
</a>
</g>
</g>
<!-- Node11&#45;&gt;Node12 -->
<g id="edge12" class="edge"><title>Node11&#45;&gt;Node12</title>
<path fill="none" stroke="midnightblue" d="M794.349,-286C808.924,-286 824.263,-286 838.135,-286"/>
<polygon fill="midnightblue" stroke="midnightblue" points="838.419,-289.5 848.419,-286 838.419,-282.5 838.419,-289.5"/>
</g>
<!-- Node13&#45;&gt;Node6 -->
<g id="edge14" class="edge"><title>Node13&#45;&gt;Node6</title>
<path fill="none" stroke="midnightblue" d="M612.95,-555C631.155,-555 651.595,-555 670.286,-555"/>
<polygon fill="midnightblue" stroke="midnightblue" points="670.465,-558.5 680.465,-555 670.465,-551.5 670.465,-558.5"/>
</g>
<!-- Node15 -->
<g id="node15" class="node"><title>Node15</title>
<g id="a_node15"><a xlink:href="../../da/d29/classFun4AllServer.html#a596005b9bc46ff6f5167378423248271" target="_top" xlink:title="Fun4AllServer::UpdateEvent\lSelector">
<polygon fill="none" stroke="black" points="488.5,-364 488.5,-394 627.5,-394 627.5,-364 488.5,-364"/>
<text text-anchor="start" x="496.5" y="-382" font-family="FreeSans" font-size="10.00">Fun4AllServer::UpdateEvent</text>
<text text-anchor="middle" x="558" y="-371" font-family="FreeSans" font-size="10.00">Selector</text>
</a>
</g>
</g>
<!-- Node14&#45;&gt;Node15 -->
<g id="edge16" class="edge"><title>Node14&#45;&gt;Node15</title>
<path fill="none" stroke="midnightblue" d="M432.677,-383.01C447.197,-382.542 462.871,-382.036 478.036,-381.547"/>
<polygon fill="midnightblue" stroke="midnightblue" points="478.55,-385.033 488.432,-381.212 478.325,-378.036 478.55,-385.033"/>
</g>
<!-- Node16 -->
<g id="node16" class="node"><title>Node16</title>
<g id="a_node16"><a xlink:href="../../d8/d77/classFun4AllOutputManager.html#a330fe561bb5a02a9f6dc08395686321c" target="_top" xlink:title="retrieves pointer to vector of event selector module ids ">
<polygon fill="none" stroke="black" points="674,-383 674,-413 790,-413 790,-383 674,-383"/>
<text text-anchor="start" x="682" y="-401" font-family="FreeSans" font-size="10.00">Fun4AllOutputManager</text>
<text text-anchor="middle" x="732" y="-390" font-family="FreeSans" font-size="10.00">::RecoModuleIndex</text>
</a>
</g>
</g>
<!-- Node15&#45;&gt;Node16 -->
<g id="edge17" class="edge"><title>Node15&#45;&gt;Node16</title>
<path fill="none" stroke="midnightblue" d="M627.968,-386.619C639.751,-387.92 651.977,-389.271 663.715,-390.567"/>
<polygon fill="midnightblue" stroke="midnightblue" points="663.558,-394.071 673.881,-391.69 664.326,-387.113 663.558,-394.071"/>
</g>
<!-- Node17 -->
<g id="node17" class="node"><title>Node17</title>
<g id="a_node17"><a xlink:href="../../d8/d77/classFun4AllOutputManager.html#a2a601e70ddadeb2f8400956ba1a514e6" target="_top" xlink:title="retrieves pointer to vector of event selector module names ">
<polygon fill="none" stroke="black" points="674,-334 674,-364 790,-364 790,-334 674,-334"/>
<text text-anchor="start" x="682" y="-352" font-family="FreeSans" font-size="10.00">Fun4AllOutputManager</text>
<text text-anchor="middle" x="732" y="-341" font-family="FreeSans" font-size="10.00">::EventSelector</text>
</a>
</g>
</g>
<!-- Node15&#45;&gt;Node17 -->
<g id="edge18" class="edge"><title>Node15&#45;&gt;Node17</title>
<path fill="none" stroke="midnightblue" d="M627.968,-366.971C639.751,-364.916 651.977,-362.783 663.715,-360.736"/>
<polygon fill="midnightblue" stroke="midnightblue" points="664.632,-364.129 673.881,-358.963 663.429,-357.233 664.632,-364.129"/>
</g>
<!-- Node22 -->
<g id="node22" class="node"><title>Node22</title>
<g id="a_node22"><a xlink:href="../../d8/d14/classrecoConsts.html#ae882d6adc62f783ec78114fe3dee3c24" target="_top" xlink:title="recoConsts::recoConsts">
<polygon fill="none" stroke="black" points="498,-676.5 498,-695.5 618,-695.5 618,-676.5 498,-676.5"/>
<text text-anchor="middle" x="558" y="-683.5" font-family="FreeSans" font-size="10.00">recoConsts::recoConsts</text>
</a>
</g>
</g>
<!-- Node21&#45;&gt;Node22 -->
<g id="edge23" class="edge"><title>Node21&#45;&gt;Node22</title>
<path fill="none" stroke="midnightblue" d="M423.803,-673.826C443.647,-675.64 466.515,-677.73 487.639,-679.661"/>
<polygon fill="midnightblue" stroke="midnightblue" points="487.572,-683.169 497.849,-680.594 488.209,-676.198 487.572,-683.169"/>
</g>
<!-- Node23&#45;&gt;Node6 -->
<g id="edge36" class="edge"><title>Node23&#45;&gt;Node6</title>
<path fill="none" stroke="midnightblue" d="M208.581,-329.23C226.029,-349.583 259.359,-385.777 294,-409 369.717,-459.76 395.804,-461.337 482,-491 500.943,-497.519 615.781,-526.371 682.695,-543.026"/>
<polygon fill="midnightblue" stroke="midnightblue" points="682.052,-546.473 692.601,-545.49 683.742,-539.68 682.052,-546.473"/>
</g>
<!-- Node23&#45;&gt;Node10 -->
<g id="edge37" class="edge"><title>Node23&#45;&gt;Node10</title>
<path fill="none" stroke="midnightblue" d="M253.601,-309.532C319.113,-304.451 425.761,-296.179 493.594,-290.918"/>
<polygon fill="midnightblue" stroke="midnightblue" points="494.023,-294.395 503.723,-290.132 493.482,-287.416 494.023,-294.395"/>
</g>
<!-- Node23&#45;&gt;Node14 -->
<g id="edge50" class="edge"><title>Node23&#45;&gt;Node14</title>
<path fill="none" stroke="midnightblue" d="M225.624,-329.014C244.86,-338.486 270.614,-350.651 294,-360 299.552,-362.219 305.386,-364.407 311.245,-366.51"/>
<polygon fill="midnightblue" stroke="midnightblue" points="310.491,-369.955 321.085,-369.96 312.806,-363.349 310.491,-369.955"/>
</g>
<!-- Node24 -->
<g id="node24" class="node"><title>Node24</title>
<g id="a_node24"><a xlink:href="../../da/d29/classFun4AllServer.html#a6f3f13c3a8b5c29457e694ba910296aa" target="_top" xlink:title="Fun4AllServer::CountOutNodes">
<polygon fill="none" stroke="black" points="294,-194.5 294,-213.5 446,-213.5 446,-194.5 294,-194.5"/>
<text text-anchor="middle" x="370" y="-201.5" font-family="FreeSans" font-size="10.00">Fun4AllServer::CountOutNodes</text>
</a>
</g>
</g>
<!-- Node23&#45;&gt;Node24 -->
<g id="edge25" class="edge"><title>Node23&#45;&gt;Node24</title>
<path fill="none" stroke="midnightblue" d="M235.906,-298.991C243.777,-294.893 251.578,-289.913 258,-284 281.159,-262.677 268.804,-241.872 294,-223 296.5,-221.128 299.164,-219.439 301.942,-217.916"/>
<polygon fill="midnightblue" stroke="midnightblue" points="303.58,-221.013 311.141,-213.592 300.602,-214.678 303.58,-221.013"/>
</g>
<!-- Node29 -->
<g id="node29" class="node"><title>Node29</title>
<g id="a_node29"><a xlink:href="../../d5/d07/classPHNodeIterator.html#aea98bf8619af59b1212a94fb32106baa" target="_top" xlink:title="PHNodeIterator::findFirst">
<polygon fill="none" stroke="black" points="496,-132.5 496,-151.5 620,-151.5 620,-132.5 496,-132.5"/>
<text text-anchor="middle" x="558" y="-139.5" font-family="FreeSans" font-size="10.00">PHNodeIterator::findFirst</text>
</a>
</g>
</g>
<!-- Node23&#45;&gt;Node29 -->
<g id="edge30" class="edge"><title>Node23&#45;&gt;Node29</title>
<path fill="none" stroke="midnightblue" d="M238.384,-298.99C245.622,-294.981 252.551,-290.035 258,-284 289.377,-249.251 257.952,-214.876 294,-185 347.179,-140.926 427.772,-133.633 485.722,-135.211"/>
<polygon fill="midnightblue" stroke="midnightblue" points="485.783,-138.716 495.905,-135.585 486.04,-131.72 485.783,-138.716"/>
</g>
<!-- Node32 -->
<g id="node32" class="node"><title>Node32</title>
<g id="a_node32"><a xlink:href="../../da/d29/classFun4AllServer.html#a92c6fe0e0c19c48d2b1f9d0f63c12bbe" target="_top" xlink:title="Fun4AllServer::MakeNodes\lTransient">
<polygon fill="none" stroke="black" points="302.5,-233 302.5,-263 437.5,-263 437.5,-233 302.5,-233"/>
<text text-anchor="start" x="310.5" y="-251" font-family="FreeSans" font-size="10.00">Fun4AllServer::MakeNodes</text>
<text text-anchor="middle" x="370" y="-240" font-family="FreeSans" font-size="10.00">Transient</text>
</a>
</g>
</g>
<!-- Node23&#45;&gt;Node32 -->
<g id="edge34" class="edge"><title>Node23&#45;&gt;Node32</title>
<path fill="none" stroke="midnightblue" d="M235.69,-298.858C260.744,-289.3 293.297,-276.881 319.962,-266.708"/>
<polygon fill="midnightblue" stroke="midnightblue" points="321.399,-269.906 329.495,-263.071 318.904,-263.366 321.399,-269.906"/>
</g>
<!-- Node33 -->
<g id="node33" class="node"><title>Node33</title>
<g id="a_node33"><a xlink:href="../../dd/ded/classFun4AllSyncManager.html#ad15c8f6f6b17662d06c4c927bc3e3ba6" target="_top" xlink:title="Fun4AllSyncManager\l::ResetEvent">
<polygon fill="none" stroke="black" points="315.5,-321 315.5,-351 424.5,-351 424.5,-321 315.5,-321"/>
<text text-anchor="start" x="323.5" y="-339" font-family="FreeSans" font-size="10.00">Fun4AllSyncManager</text>
<text text-anchor="middle" x="370" y="-328" font-family="FreeSans" font-size="10.00">::ResetEvent</text>
</a>
</g>
</g>
<!-- Node23&#45;&gt;Node33 -->
<g id="edge38" class="edge"><title>Node23&#45;&gt;Node33</title>
<path fill="none" stroke="midnightblue" d="M253.606,-321.326C270.13,-323.427 288.244,-325.73 305.121,-327.877"/>
<polygon fill="midnightblue" stroke="midnightblue" points="305.083,-331.4 315.445,-329.189 305.966,-324.456 305.083,-331.4"/>
</g>
<!-- Node23&#45;&gt;Node35 -->
<g id="edge41" class="edge"><title>Node23&#45;&gt;Node35</title>
<path fill="none" stroke="midnightblue" d="M239.851,-298.892C246.687,-294.934 253.097,-290.031 258,-284 299.612,-232.81 256.976,-194.6 294,-140 305.442,-123.127 324.002,-109.7 339.796,-100.456"/>
<polygon fill="midnightblue" stroke="midnightblue" points="341.663,-103.422 348.7,-95.5014 338.26,-97.3048 341.663,-103.422"/>
</g>
<!-- Node25 -->
<g id="node25" class="node"><title>Node25</title>
<g id="a_node25"><a xlink:href="../../da/d29/classFun4AllServer.html#a3654ebdcb099bcc5c820df6d4952663c" target="_top" xlink:title="Fun4AllServer::CountOutNodes\lRecursive">
<polygon fill="none" stroke="black" points="482,-189 482,-219 634,-219 634,-189 482,-189"/>
<text text-anchor="start" x="490" y="-207" font-family="FreeSans" font-size="10.00">Fun4AllServer::CountOutNodes</text>
<text text-anchor="middle" x="558" y="-196" font-family="FreeSans" font-size="10.00">Recursive</text>
</a>
</g>
</g>
<!-- Node24&#45;&gt;Node25 -->
<g id="edge26" class="edge"><title>Node24&#45;&gt;Node25</title>
<path fill="none" stroke="midnightblue" d="M446.117,-204C454.596,-204 463.281,-204 471.875,-204"/>
<polygon fill="midnightblue" stroke="midnightblue" points="471.905,-207.5 481.905,-204 471.905,-200.5 471.905,-207.5"/>
</g>
<!-- Node26 -->
<g id="node26" class="node"><title>Node26</title>
<g id="a_node26"><a xlink:href="../../d5/d07/classPHNodeIterator.html#a110a5b87a02a22deecae334f32387ffa" target="_top" xlink:title="PHNodeIterator::ls">
<polygon fill="none" stroke="black" points="683.5,-207.5 683.5,-226.5 780.5,-226.5 780.5,-207.5 683.5,-207.5"/>
<text text-anchor="middle" x="732" y="-214.5" font-family="FreeSans" font-size="10.00">PHNodeIterator::ls</text>
</a>
</g>
</g>
<!-- Node25&#45;&gt;Node26 -->
<g id="edge27" class="edge"><title>Node25&#45;&gt;Node26</title>
<path fill="none" stroke="midnightblue" d="M634.191,-209.683C647.186,-210.665 660.515,-211.673 672.966,-212.614"/>
<polygon fill="midnightblue" stroke="midnightblue" points="672.957,-216.123 683.192,-213.387 673.484,-209.143 672.957,-216.123"/>
</g>
<!-- Node27 -->
<g id="node27" class="node"><title>Node27</title>
<g id="a_node27"><a xlink:href="../../d6/d86/classPHPointerList.html#a560c9339d74f28f604d07dcb10a2e0be" target="_top" xlink:title="PHPointerList::clear">
<polygon fill="none" stroke="black" points="835,-188.5 835,-207.5 939,-207.5 939,-188.5 835,-188.5"/>
<text text-anchor="middle" x="887" y="-195.5" font-family="FreeSans" font-size="10.00">PHPointerList::clear</text>
</a>
</g>
</g>
<!-- Node26&#45;&gt;Node27 -->
<g id="edge28" class="edge"><title>Node26&#45;&gt;Node27</title>
<path fill="none" stroke="midnightblue" d="M780.571,-211.092C794.541,-209.358 810.02,-207.435 824.718,-205.61"/>
<polygon fill="midnightblue" stroke="midnightblue" points="825.248,-209.071 834.741,-204.366 824.386,-202.125 825.248,-209.071"/>
</g>
<!-- Node28 -->
<g id="node28" class="node"><title>Node28</title>
<g id="a_node28"><a xlink:href="../../d6/d86/classPHPointerList.html#af5fc4e6958b5b90c57bfb497566f503c" target="_top" xlink:title="PHPointerList::append">
<polygon fill="none" stroke="black" points="830,-226.5 830,-245.5 944,-245.5 944,-226.5 830,-226.5"/>
<text text-anchor="middle" x="887" y="-233.5" font-family="FreeSans" font-size="10.00">PHPointerList::append</text>
</a>
</g>
</g>
<!-- Node26&#45;&gt;Node28 -->
<g id="edge29" class="edge"><title>Node26&#45;&gt;Node28</title>
<path fill="none" stroke="midnightblue" d="M780.571,-222.908C793.014,-224.453 806.654,-226.147 819.874,-227.788"/>
<polygon fill="midnightblue" stroke="midnightblue" points="819.518,-231.271 829.874,-229.03 820.381,-224.324 819.518,-231.271"/>
</g>
<!-- Node29&#45;&gt;Node29 -->
<g id="edge33" class="edge"><title>Node29&#45;&gt;Node29</title>
<path fill="none" stroke="midnightblue" d="M531.182,-151.757C518.135,-160.565 527.074,-170 558,-170 578.778,-170 589.632,-165.741 590.56,-160.275"/>
<polygon fill="midnightblue" stroke="midnightblue" points="593.31,-158.093 584.818,-151.757 587.506,-162.005 593.31,-158.093"/>
</g>
<!-- Node30 -->
<g id="node30" class="node"><title>Node30</title>
<g id="a_node30"><a xlink:href="../../dc/d82/classPHNode.html#a4ab1f90aed955a652813bfe377087bda" target="_top" xlink:title="PHNode::getType">
<polygon fill="none" stroke="black" points="685.5,-76.5 685.5,-95.5 778.5,-95.5 778.5,-76.5 685.5,-76.5"/>
<text text-anchor="middle" x="732" y="-83.5" font-family="FreeSans" font-size="10.00">PHNode::getType</text>
</a>
</g>
</g>
<!-- Node29&#45;&gt;Node30 -->
<g id="edge31" class="edge"><title>Node29&#45;&gt;Node30</title>
<path fill="none" stroke="midnightblue" d="M600.505,-132.401C611.469,-129.617 623.242,-126.402 634,-123 655.851,-116.091 679.924,-106.917 698.623,-99.4334"/>
<polygon fill="midnightblue" stroke="midnightblue" points="700.181,-102.579 708.139,-95.585 697.557,-96.0893 700.181,-102.579"/>
</g>
<!-- Node31 -->
<g id="node31" class="node"><title>Node31</title>
<g id="a_node31"><a xlink:href="../../dc/d82/classPHNode.html#aca3576f926a4401eddc3d88bf0ce0de3" target="_top" xlink:title="PHNode::getName">
<polygon fill="none" stroke="black" points="683,-38.5 683,-57.5 781,-57.5 781,-38.5 683,-38.5"/>
<text text-anchor="middle" x="732" y="-45.5" font-family="FreeSans" font-size="10.00">PHNode::getName</text>
</a>
</g>
</g>
<!-- Node29&#45;&gt;Node31 -->
<g id="edge32" class="edge"><title>Node29&#45;&gt;Node31</title>
<path fill="none" stroke="midnightblue" d="M616.33,-132.363C622.613,-129.913 628.658,-126.844 634,-123 658.016,-105.717 646.458,-84.9229 670,-67 672.479,-65.1124 675.149,-63.4102 677.938,-61.8756"/>
<polygon fill="midnightblue" stroke="midnightblue" points="679.612,-64.956 687.161,-57.5224 676.624,-58.6257 679.612,-64.956"/>
</g>
<!-- Node32&#45;&gt;Node26 -->
<g id="edge35" class="edge"><title>Node32&#45;&gt;Node26</title>
<path fill="none" stroke="midnightblue" d="M437.533,-243.624C490.737,-239.96 567.214,-234.324 634,-228 646.648,-226.802 660.206,-225.363 673.056,-223.926"/>
<polygon fill="midnightblue" stroke="midnightblue" points="673.637,-227.383 683.179,-222.779 672.849,-220.427 673.637,-227.383"/>
</g>
<!-- Node33&#45;&gt;Node6 -->
<g id="edge39" class="edge"><title>Node33&#45;&gt;Node6</title>
<path fill="none" stroke="midnightblue" d="M424.777,-349.081C432.227,-352.052 439.532,-355.653 446,-360 466.687,-373.903 460.956,-389.643 482,-403 540.979,-440.434 576.044,-404.001 634,-443 656.124,-457.887 652.771,-470.646 670,-491 684.126,-507.688 701.417,-525.618 713.978,-538.243"/>
<polygon fill="midnightblue" stroke="midnightblue" points="711.563,-540.778 721.117,-545.359 716.505,-535.82 711.563,-540.778"/>
</g>
<!-- Node34 -->
<g id="node34" class="node"><title>Node34</title>
<g id="a_node34"><a xlink:href="../../d4/da9/classFun4AllInputManager.html#a01c946e063c464f497e7befbbe757f71" target="_top" xlink:title="Fun4AllInputManager\l::ResetEvent">
<polygon fill="none" stroke="black" points="503.5,-315 503.5,-345 612.5,-345 612.5,-315 503.5,-315"/>
<text text-anchor="start" x="511.5" y="-333" font-family="FreeSans" font-size="10.00">Fun4AllInputManager</text>
<text text-anchor="middle" x="558" y="-322" font-family="FreeSans" font-size="10.00">::ResetEvent</text>
</a>
</g>
</g>
<!-- Node33&#45;&gt;Node34 -->
<g id="edge40" class="edge"><title>Node33&#45;&gt;Node34</title>
<path fill="none" stroke="midnightblue" d="M424.799,-334.265C446.198,-333.574 470.987,-332.775 493.278,-332.056"/>
<polygon fill="midnightblue" stroke="midnightblue" points="493.44,-335.552 503.322,-331.732 493.214,-328.556 493.44,-335.552"/>
</g>
<!-- Node36 -->
<g id="node36" class="node"><title>Node36</title>
<g id="a_node36"><a xlink:href="../../d5/d07/classPHNodeIterator.html#a4cfa0490b6522394b13723c7db38a3a6" target="_top" xlink:title="PHNodeIterator::cd">
<polygon fill="none" stroke="black" points="508,-0.5 508,-19.5 608,-19.5 608,-0.5 508,-0.5"/>
<text text-anchor="middle" x="558" y="-7.5" font-family="FreeSans" font-size="10.00">PHNodeIterator::cd</text>
</a>
</g>
</g>
<!-- Node35&#45;&gt;Node36 -->
<g id="edge42" class="edge"><title>Node35&#45;&gt;Node36</title>
<path fill="none" stroke="midnightblue" d="M387.017,-76.3027C408.132,-63.8676 446.739,-42.3229 482,-29 488.501,-26.5439 495.437,-24.3045 502.367,-22.2946"/>
<polygon fill="midnightblue" stroke="midnightblue" points="503.752,-25.5436 512.465,-19.5155 501.894,-18.7945 503.752,-25.5436"/>
</g>
<!-- Node38 -->
<g id="node38" class="node"><title>Node38</title>
<g id="a_node38"><a xlink:href="../../d5/d07/classPHNodeIterator.html#afeaefab44bf0ab15a439926205924f19" target="_top" xlink:title="PHNodeIterator::forEach">
<polygon fill="none" stroke="black" points="497,-76.5 497,-95.5 619,-95.5 619,-76.5 497,-76.5"/>
<text text-anchor="middle" x="558" y="-83.5" font-family="FreeSans" font-size="10.00">PHNodeIterator::forEach</text>
</a>
</g>
</g>
<!-- Node35&#45;&gt;Node38 -->
<g id="edge46" class="edge"><title>Node35&#45;&gt;Node38</title>
<path fill="none" stroke="midnightblue" d="M445.582,-86C459.193,-86 473.352,-86 486.829,-86"/>
<polygon fill="midnightblue" stroke="midnightblue" points="486.982,-89.5001 496.982,-86 486.982,-82.5001 486.982,-89.5001"/>
</g>
<!-- Node39 -->
<g id="node39" class="node"><title>Node39</title>
<g id="a_node39"><a xlink:href="../../db/d8e/classPHNodeOperation.html#a641fdf1094ec15063171e199a4066a0d" target="_top" xlink:title="PHNodeOperation::Verbosity">
<polygon fill="none" stroke="black" points="487.5,-38.5 487.5,-57.5 628.5,-57.5 628.5,-38.5 487.5,-38.5"/>
<text text-anchor="middle" x="558" y="-45.5" font-family="FreeSans" font-size="10.00">PHNodeOperation::Verbosity</text>
</a>
</g>
</g>
<!-- Node35&#45;&gt;Node39 -->
<g id="edge49" class="edge"><title>Node35&#45;&gt;Node39</title>
<path fill="none" stroke="midnightblue" d="M417.936,-76.411C443.033,-71.2835 474.119,-64.9328 500.53,-59.5368"/>
<polygon fill="midnightblue" stroke="midnightblue" points="501.305,-62.951 510.402,-57.5201 499.904,-56.0926 501.305,-62.951"/>
</g>
<!-- Node36&#45;&gt;Node30 -->
<g id="edge44" class="edge"><title>Node36&#45;&gt;Node30</title>
<path fill="none" stroke="midnightblue" d="M608.188,-18.2164C617.135,-20.8744 626.12,-24.3804 634,-29 654.07,-40.7663 650.254,-54.6978 670,-67 673.347,-69.085 676.94,-70.9573 680.647,-72.6358"/>
<polygon fill="midnightblue" stroke="midnightblue" points="679.437,-75.9217 690.02,-76.4195 682.057,-69.4306 679.437,-75.9217"/>
</g>
<!-- Node36&#45;&gt;Node31 -->
<g id="edge45" class="edge"><title>Node36&#45;&gt;Node31</title>
<path fill="none" stroke="midnightblue" d="M602.403,-19.589C625.407,-24.6713 653.851,-30.9554 678.134,-36.3203"/>
<polygon fill="midnightblue" stroke="midnightblue" points="677.39,-39.7402 687.909,-38.4799 678.9,-32.905 677.39,-39.7402"/>
</g>
<!-- Node37 -->
<g id="node37" class="node"><title>Node37</title>
<g id="a_node37"><a xlink:href="../../dc/d82/classPHNode.html#a5c15cb20d02290b69eb4d7f6051c9722" target="_top" xlink:title="PHNode::getParent">
<polygon fill="none" stroke="black" points="681.5,-0.5 681.5,-19.5 782.5,-19.5 782.5,-0.5 681.5,-0.5"/>
<text text-anchor="middle" x="732" y="-7.5" font-family="FreeSans" font-size="10.00">PHNode::getParent</text>
</a>
</g>
</g>
<!-- Node36&#45;&gt;Node37 -->
<g id="edge43" class="edge"><title>Node36&#45;&gt;Node37</title>
<path fill="none" stroke="midnightblue" d="M608.288,-10C627.905,-10 650.659,-10 671.207,-10"/>
<polygon fill="midnightblue" stroke="midnightblue" points="671.406,-13.5001 681.406,-10 671.406,-6.5001 671.406,-13.5001"/>
</g>
<!-- Node38&#45;&gt;Node30 -->
<g id="edge47" class="edge"><title>Node38&#45;&gt;Node30</title>
<path fill="none" stroke="midnightblue" d="M619.157,-86C637.382,-86 657.313,-86 675.237,-86"/>
<polygon fill="midnightblue" stroke="midnightblue" points="675.246,-89.5001 685.246,-86 675.246,-82.5001 675.246,-89.5001"/>
</g>
<!-- Node38&#45;&gt;Node38 -->
<g id="edge48" class="edge"><title>Node38&#45;&gt;Node38</title>
<path fill="none" stroke="midnightblue" d="M531.182,-95.7571C518.135,-104.565 527.074,-114 558,-114 578.778,-114 589.632,-109.741 590.56,-104.275"/>
<polygon fill="midnightblue" stroke="midnightblue" points="593.31,-102.093 584.818,-95.7571 587.506,-106.005 593.31,-102.093"/>
</g>
<!-- Node40&#45;&gt;Node4 -->
<g id="edge55" class="edge"><title>Node40&#45;&gt;Node4</title>
<path fill="none" stroke="midnightblue" d="M251.691,-599.103C269.526,-598.175 289.372,-597.142 307.592,-596.195"/>
<polygon fill="midnightblue" stroke="midnightblue" points="308.008,-599.678 317.813,-595.663 307.645,-592.687 308.008,-599.678"/>
</g>
<!-- Node40&#45;&gt;Node21 -->
<g id="edge53" class="edge"><title>Node40&#45;&gt;Node21</title>
<path fill="none" stroke="midnightblue" d="M212.874,-611.608C232.036,-622.198 264.477,-639.164 294,-650 300.762,-652.482 307.982,-654.758 315.171,-656.805"/>
<polygon fill="midnightblue" stroke="midnightblue" points="314.342,-660.207 324.91,-659.453 316.179,-653.452 314.342,-660.207"/>
</g>
<!-- Node41 -->
<g id="node41" class="node"><title>Node41</title>
<g id="a_node41"><a xlink:href="../../d1/da8/classPHFlag.html#a3ef5c3f1eff2daaaf18e5129858a9ef8" target="_top" xlink:title="PHFlag::set_IntFlag">
<polygon fill="none" stroke="black" points="318.5,-621.5 318.5,-640.5 421.5,-640.5 421.5,-621.5 318.5,-621.5"/>
<text text-anchor="middle" x="370" y="-628.5" font-family="FreeSans" font-size="10.00">PHFlag::set_IntFlag</text>
</a>
</g>
</g>
<!-- Node40&#45;&gt;Node41 -->
<g id="edge54" class="edge"><title>Node40&#45;&gt;Node41</title>
<path fill="none" stroke="midnightblue" d="M251.691,-611.335C269.776,-614.367 289.928,-617.745 308.356,-620.834"/>
<polygon fill="midnightblue" stroke="midnightblue" points="307.951,-624.315 318.392,-622.517 309.109,-617.412 307.951,-624.315"/>
</g>
</g>
</svg>
