<?xml version="1.0" encoding="UTF-8" standalone="no"?>
<!DOCTYPE svg PUBLIC "-//W3C//DTD SVG 1.1//EN"
 "http://www.w3.org/Graphics/SVG/1.1/DTD/svg11.dtd">
<!-- Generated by graphviz version 2.36.0 (20140111.2315)
 -->
<!-- Title: Fun4AllServer::getNode Pages: 1 -->
<svg width="458pt" height="160pt"
 viewBox="0.00 0.00 458.00 160.00" xmlns="http://www.w3.org/2000/svg" xmlns:xlink="http://www.w3.org/1999/xlink">
<g id="graph0" class="graph" transform="scale(1 1) rotate(0) translate(4 156)">
<title>Fun4AllServer::getNode</title>
<!-- Node1 -->
<g id="node1" class="node"><title>Node1</title>
<polygon fill="#bfbfbf" stroke="black" points="0.5,-38.5 0.5,-57.5 119.5,-57.5 119.5,-38.5 0.5,-38.5"/>
<text text-anchor="middle" x="60" y="-45.5" font-family="FreeSans" font-size="10.00">Fun4AllServer::getNode</text>
</g>
<!-- Node2 -->
<g id="node2" class="node"><title>Node2</title>
<g id="a_node2"><a xlink:href="../../d5/dca/classPHCompositeNode.html#ac7dbf017614c324e218a001d729607bf" target="_top" xlink:title="PHCompositeNode::addNode">
<polygon fill="none" stroke="black" points="156,-94.5 156,-113.5 300,-113.5 300,-94.5 156,-94.5"/>
<text text-anchor="middle" x="228" y="-101.5" font-family="FreeSans" font-size="10.00">PHCompositeNode::addNode</text>
</a>
</g>
</g>
<!-- Node1&#45;&gt;Node2 -->
<g id="edge1" class="edge"><title>Node1&#45;&gt;Node2</title>
<path fill="none" stroke="midnightblue" d="M83.3968,-57.528C102.489,-65.4552 130.768,-76.7381 156,-85 163.167,-87.3468 170.809,-89.6227 178.325,-91.7353"/>
<polygon fill="midnightblue" stroke="midnightblue" points="177.512,-95.1415 188.081,-94.4108 179.363,-88.3907 177.512,-95.1415"/>
</g>
<!-- Node6 -->
<g id="node6" class="node"><title>Node6</title>
<g id="a_node6"><a xlink:href="../../d5/d07/classPHNodeIterator.html#aea98bf8619af59b1212a94fb32106baa" target="_top" xlink:title="PHNodeIterator::findFirst">
<polygon fill="none" stroke="black" points="166,-38.5 166,-57.5 290,-57.5 290,-38.5 166,-38.5"/>
<text text-anchor="middle" x="228" y="-45.5" font-family="FreeSans" font-size="10.00">PHNodeIterator::findFirst</text>
</a>
</g>
</g>
<!-- Node1&#45;&gt;Node6 -->
<g id="edge5" class="edge"><title>Node1&#45;&gt;Node6</title>
<path fill="none" stroke="midnightblue" d="M119.525,-48C131.266,-48 143.725,-48 155.84,-48"/>
<polygon fill="midnightblue" stroke="midnightblue" points="155.912,-51.5001 165.912,-48 155.912,-44.5001 155.912,-51.5001"/>
</g>
<!-- Node8 -->
<g id="node8" class="node"><title>Node8</title>
<g id="a_node8"><a xlink:href="../../da/d29/classFun4AllServer.html#abcaf6825367e5db292ff795237bdcf62" target="_top" xlink:title="Fun4AllServer::topNode">
<polygon fill="none" stroke="black" points="168.5,-0.5 168.5,-19.5 287.5,-19.5 287.5,-0.5 168.5,-0.5"/>
<text text-anchor="middle" x="228" y="-7.5" font-family="FreeSans" font-size="10.00">Fun4AllServer::topNode</text>
</a>
</g>
</g>
<!-- Node1&#45;&gt;Node8 -->
<g id="edge9" class="edge"><title>Node1&#45;&gt;Node8</title>
<path fill="none" stroke="midnightblue" d="M102.889,-38.411C124.893,-33.3739 152.055,-27.1562 175.352,-21.8229"/>
<polygon fill="midnightblue" stroke="midnightblue" points="176.446,-25.1633 185.412,-19.5201 174.884,-18.3398 176.446,-25.1633"/>
</g>
<!-- Node3 -->
<g id="node3" class="node"><title>Node3</title>
<g id="a_node3"><a xlink:href="../../dc/d82/classPHNode.html#aca3576f926a4401eddc3d88bf0ce0de3" target="_top" xlink:title="PHNode::getName">
<polygon fill="none" stroke="black" points="344,-56.5 344,-75.5 442,-75.5 442,-56.5 344,-56.5"/>
<text text-anchor="middle" x="393" y="-63.5" font-family="FreeSans" font-size="10.00">PHNode::getName</text>
</a>
</g>
</g>
<!-- Node2&#45;&gt;Node3 -->
<g id="edge2" class="edge"><title>Node2&#45;&gt;Node3</title>
<path fill="none" stroke="midnightblue" d="M270.132,-94.411C291.738,-89.3739 318.409,-83.1562 341.286,-77.8229"/>
<polygon fill="midnightblue" stroke="midnightblue" points="342.22,-81.1991 351.164,-75.5201 340.63,-74.3819 342.22,-81.1991"/>
</g>
<!-- Node4 -->
<g id="node4" class="node"><title>Node4</title>
<g id="a_node4"><a xlink:href="../../dc/d82/classPHNode.html#adda2bd6cef2d5067bbe3016a990b7198" target="_top" xlink:title="PHNode::setParent">
<polygon fill="none" stroke="black" points="342.5,-132.5 342.5,-151.5 443.5,-151.5 443.5,-132.5 342.5,-132.5"/>
<text text-anchor="middle" x="393" y="-139.5" font-family="FreeSans" font-size="10.00">PHNode::setParent</text>
</a>
</g>
</g>
<!-- Node2&#45;&gt;Node4 -->
<g id="edge3" class="edge"><title>Node2&#45;&gt;Node4</title>
<path fill="none" stroke="midnightblue" d="M270.132,-113.589C291.738,-118.626 318.409,-124.844 341.286,-130.177"/>
<polygon fill="midnightblue" stroke="midnightblue" points="340.63,-133.618 351.164,-132.48 342.22,-126.801 340.63,-133.618"/>
</g>
<!-- Node5 -->
<g id="node5" class="node"><title>Node5</title>
<g id="a_node5"><a xlink:href="../../d6/d86/classPHPointerList.html#af5fc4e6958b5b90c57bfb497566f503c" target="_top" xlink:title="PHPointerList::append">
<polygon fill="none" stroke="black" points="336,-94.5 336,-113.5 450,-113.5 450,-94.5 336,-94.5"/>
<text text-anchor="middle" x="393" y="-101.5" font-family="FreeSans" font-size="10.00">PHPointerList::append</text>
</a>
</g>
</g>
<!-- Node2&#45;&gt;Node5 -->
<g id="edge4" class="edge"><title>Node2&#45;&gt;Node5</title>
<path fill="none" stroke="midnightblue" d="M300.02,-104C308.559,-104 317.254,-104 325.722,-104"/>
<polygon fill="midnightblue" stroke="midnightblue" points="325.912,-107.5 335.912,-104 325.912,-100.5 325.912,-107.5"/>
</g>
<!-- Node6&#45;&gt;Node3 -->
<g id="edge7" class="edge"><title>Node6&#45;&gt;Node3</title>
<path fill="none" stroke="midnightblue" d="M290.159,-54.7537C304.479,-56.3351 319.695,-58.0154 333.878,-59.5816"/>
<polygon fill="midnightblue" stroke="midnightblue" points="333.672,-63.0801 343.996,-60.6989 334.441,-56.1224 333.672,-63.0801"/>
</g>
<!-- Node6&#45;&gt;Node6 -->
<g id="edge8" class="edge"><title>Node6&#45;&gt;Node6</title>
<path fill="none" stroke="midnightblue" d="M202.723,-57.7571C190.426,-66.5653 198.852,-76 228,-76 247.584,-76 257.814,-71.741 258.689,-66.2746"/>
<polygon fill="midnightblue" stroke="midnightblue" points="261.594,-64.3207 253.277,-57.7571 255.686,-68.0745 261.594,-64.3207"/>
</g>
<!-- Node7 -->
<g id="node7" class="node"><title>Node7</title>
<g id="a_node7"><a xlink:href="../../dc/d82/classPHNode.html#a4ab1f90aed955a652813bfe377087bda" target="_top" xlink:title="PHNode::getType">
<polygon fill="none" stroke="black" points="346.5,-18.5 346.5,-37.5 439.5,-37.5 439.5,-18.5 346.5,-18.5"/>
<text text-anchor="middle" x="393" y="-25.5" font-family="FreeSans" font-size="10.00">PHNode::getType</text>
</a>
</g>
</g>
<!-- Node6&#45;&gt;Node7 -->
<g id="edge6" class="edge"><title>Node6&#45;&gt;Node7</title>
<path fill="none" stroke="midnightblue" d="M290.159,-40.4958C305.279,-38.6406 321.397,-36.663 336.244,-34.8412"/>
<polygon fill="midnightblue" stroke="midnightblue" points="336.793,-38.3002 346.292,-33.6083 335.94,-31.3523 336.793,-38.3002"/>
</g>
</g>
</svg>
