<?xml version="1.0" encoding="UTF-8" standalone="no"?>
<!DOCTYPE svg PUBLIC "-//W3C//DTD SVG 1.1//EN"
 "http://www.w3.org/Graphics/SVG/1.1/DTD/svg11.dtd">
<!-- Generated by graphviz version 2.36.0 (20140111.2315)
 -->
<!-- Title: Fun4AllServer::Print Pages: 1 -->
<svg width="566pt" height="66pt"
 viewBox="0.00 0.00 566.00 66.00" xmlns="http://www.w3.org/2000/svg" xmlns:xlink="http://www.w3.org/1999/xlink">
<g id="graph0" class="graph" transform="scale(1 1) rotate(0) translate(4 62)">
<title>Fun4AllServer::Print</title>
<!-- Node1 -->
<g id="node1" class="node"><title>Node1</title>
<polygon fill="#bfbfbf" stroke="black" points="0.5,-19.5 0.5,-38.5 103.5,-38.5 103.5,-19.5 0.5,-19.5"/>
<text text-anchor="middle" x="52" y="-26.5" font-family="FreeSans" font-size="10.00">Fun4AllServer::Print</text>
</g>
<!-- Node2 -->
<g id="node2" class="node"><title>Node2</title>
<g id="a_node2"><a xlink:href="../../da/d29/classFun4AllServer.html#afcfc5583204cac58b4e66a2406187a18" target="_top" xlink:title="Fun4AllServer::BeginRun">
<polygon fill="none" stroke="black" points="140.5,-19.5 140.5,-38.5 265.5,-38.5 265.5,-19.5 140.5,-19.5"/>
<text text-anchor="middle" x="203" y="-26.5" font-family="FreeSans" font-size="10.00">Fun4AllServer::BeginRun</text>
</a>
</g>
</g>
<!-- Node1&#45;&gt;Node2 -->
<g id="edge1" class="edge"><title>Node1&#45;&gt;Node2</title>
<path fill="none" stroke="midnightblue" d="M113.925,-29C122.623,-29 131.578,-29 140.291,-29"/>
<polygon fill="midnightblue" stroke="midnightblue" points="113.861,-25.5001 103.861,-29 113.861,-32.5001 113.861,-25.5001"/>
</g>
<!-- Node3 -->
<g id="node3" class="node"><title>Node3</title>
<g id="a_node3"><a xlink:href="../../da/d29/classFun4AllServer.html#a11bbc8b2f53bc06e0b05ee202dd6372a" target="_top" xlink:title="run n events (0 means up to end of file) ">
<polygon fill="none" stroke="black" points="302,-19.5 302,-38.5 398,-38.5 398,-19.5 302,-19.5"/>
<text text-anchor="middle" x="350" y="-26.5" font-family="FreeSans" font-size="10.00">Fun4AllServer::run</text>
</a>
</g>
</g>
<!-- Node2&#45;&gt;Node3 -->
<g id="edge2" class="edge"><title>Node2&#45;&gt;Node3</title>
<path fill="none" stroke="midnightblue" d="M276.109,-29C284.823,-29 293.544,-29 301.769,-29"/>
<polygon fill="midnightblue" stroke="midnightblue" points="275.914,-25.5001 265.914,-29 275.914,-32.5001 275.914,-25.5001"/>
</g>
<!-- Node4 -->
<g id="node4" class="node"><title>Node4</title>
<g id="a_node4"><a xlink:href="../../d0/d46/Fun4__SimpleReadMySql_8C.html#a70381893748e3445abc30632beb256ce" target="_top" xlink:title="Fun4_SimpleReadMySql">
<polygon fill="none" stroke="black" points="434.5,-38.5 434.5,-57.5 557.5,-57.5 557.5,-38.5 434.5,-38.5"/>
<text text-anchor="middle" x="496" y="-45.5" font-family="FreeSans" font-size="10.00">Fun4_SimpleReadMySql</text>
</a>
</g>
</g>
<!-- Node3&#45;&gt;Node4 -->
<g id="edge3" class="edge"><title>Node3&#45;&gt;Node4</title>
<path fill="none" stroke="midnightblue" d="M408.109,-36.5352C416.736,-37.6735 425.66,-38.851 434.358,-39.9986"/>
<polygon fill="midnightblue" stroke="midnightblue" points="408.523,-33.0596 398.151,-35.2213 407.607,-39.9994 408.523,-33.0596"/>
</g>
<!-- Node5 -->
<g id="node5" class="node"><title>Node5</title>
<g id="a_node5"><a xlink:href="../../d9/d8c/Fun4ReadMySql_8C.html#a729b39fa627147c63772f28c9be36b62" target="_top" xlink:title="Fun4ReadMySql">
<polygon fill="none" stroke="black" points="452,-0.5 452,-19.5 540,-19.5 540,-0.5 452,-0.5"/>
<text text-anchor="middle" x="496" y="-7.5" font-family="FreeSans" font-size="10.00">Fun4ReadMySql</text>
</a>
</g>
</g>
<!-- Node3&#45;&gt;Node5 -->
<g id="edge4" class="edge"><title>Node3&#45;&gt;Node5</title>
<path fill="none" stroke="midnightblue" d="M408.457,-21.4189C422.854,-19.5193 438.061,-17.5128 451.643,-15.7208"/>
<polygon fill="midnightblue" stroke="midnightblue" points="407.607,-18.0006 398.151,-22.7787 408.523,-24.9404 407.607,-18.0006"/>
</g>
</g>
</svg>
