<?xml version="1.0" encoding="UTF-8" standalone="no"?>
<!DOCTYPE svg PUBLIC "-//W3C//DTD SVG 1.1//EN"
 "http://www.w3.org/Graphics/SVG/1.1/DTD/svg11.dtd">
<!-- Generated by graphviz version 2.36.0 (20140111.2315)
 -->
<!-- Title: Fun4AllServer::Print Pages: 1 -->
<svg width="538pt" height="195pt"
 viewBox="0.00 0.00 538.00 194.70" xmlns="http://www.w3.org/2000/svg" xmlns:xlink="http://www.w3.org/1999/xlink">
<g id="graph0" class="graph" transform="scale(1 1) rotate(0) translate(4 190.698)">
<title>Fun4AllServer::Print</title>
<!-- Node1 -->
<g id="node1" class="node"><title>Node1</title>
<polygon fill="#bfbfbf" stroke="black" points="0.5,-93.5 0.5,-112.5 103.5,-112.5 103.5,-93.5 0.5,-93.5"/>
<text text-anchor="middle" x="52" y="-100.5" font-family="FreeSans" font-size="10.00">Fun4AllServer::Print</text>
</g>
<!-- Node2 -->
<g id="node2" class="node"><title>Node2</title>
<g id="a_node2"><a xlink:href="../../d5/dec/classFun4AllBase.html#a41f9ac377743d046f590617fd6f4f0ed" target="_top" xlink:title="Returns the name of this module. ">
<polygon fill="none" stroke="black" points="302.5,-142.5 302.5,-161.5 405.5,-161.5 405.5,-142.5 302.5,-142.5"/>
<text text-anchor="middle" x="354" y="-149.5" font-family="FreeSans" font-size="10.00">Fun4AllBase::Name</text>
</a>
</g>
</g>
<!-- Node1&#45;&gt;Node2 -->
<g id="edge1" class="edge"><title>Node1&#45;&gt;Node2</title>
<path fill="none" stroke="midnightblue" d="M60.5626,-112.764C74.2503,-129.539 104.982,-163.255 140,-176 200.377,-197.975 276.201,-179.391 319.171,-164.962"/>
<polygon fill="midnightblue" stroke="midnightblue" points="320.553,-168.187 328.848,-161.595 318.253,-161.576 320.553,-168.187"/>
</g>
<!-- Node3 -->
<g id="node3" class="node"><title>Node3</title>
<g id="a_node3"><a xlink:href="../../d3/d96/classFun4AllHistoManager.html#ac920f5943d99ae803f4bf8a7a88c31da" target="_top" xlink:title="Fun4AllHistoManager\l::Print">
<polygon fill="none" stroke="black" points="143,-137 143,-167 253,-167 253,-137 143,-137"/>
<text text-anchor="start" x="151" y="-155" font-family="FreeSans" font-size="10.00">Fun4AllHistoManager</text>
<text text-anchor="middle" x="198" y="-144" font-family="FreeSans" font-size="10.00">::Print</text>
</a>
</g>
</g>
<!-- Node1&#45;&gt;Node3 -->
<g id="edge2" class="edge"><title>Node1&#45;&gt;Node3</title>
<path fill="none" stroke="midnightblue" d="M81.1065,-112.564C98.7801,-118.578 122.16,-126.533 143.289,-133.723"/>
<polygon fill="midnightblue" stroke="midnightblue" points="142.215,-137.055 152.81,-136.963 144.47,-130.428 142.215,-137.055"/>
</g>
<!-- Node4 -->
<g id="node4" class="node"><title>Node4</title>
<g id="a_node4"><a xlink:href="../../d8/d77/classFun4AllOutputManager.html#ae13cdf197e3ae6f5310199ca034b8754" target="_top" xlink:title="print method (dump event selector) ">
<polygon fill="none" stroke="black" points="140,-39 140,-69 256,-69 256,-39 140,-39"/>
<text text-anchor="start" x="148" y="-57" font-family="FreeSans" font-size="10.00">Fun4AllOutputManager</text>
<text text-anchor="middle" x="198" y="-46" font-family="FreeSans" font-size="10.00">::Print</text>
</a>
</g>
</g>
<!-- Node1&#45;&gt;Node4 -->
<g id="edge4" class="edge"><title>Node1&#45;&gt;Node4</title>
<path fill="none" stroke="midnightblue" d="M81.1065,-93.436C98.7801,-87.4221 122.16,-79.4665 143.289,-72.2768"/>
<polygon fill="midnightblue" stroke="midnightblue" points="144.47,-75.5718 152.81,-69.037 142.215,-68.945 144.47,-75.5718"/>
</g>
<!-- Node6 -->
<g id="node6" class="node"><title>Node6</title>
<g id="a_node6"><a xlink:href="../../d5/d07/classPHNodeIterator.html#aec2fbc1e56be7e1a0b064ecde48edee5" target="_top" xlink:title="PHNodeIterator::print">
<polygon fill="none" stroke="black" points="144,-0.5 144,-19.5 252,-19.5 252,-0.5 144,-0.5"/>
<text text-anchor="middle" x="198" y="-7.5" font-family="FreeSans" font-size="10.00">PHNodeIterator::print</text>
</a>
</g>
</g>
<!-- Node1&#45;&gt;Node6 -->
<g id="edge6" class="edge"><title>Node1&#45;&gt;Node6</title>
<path fill="none" stroke="midnightblue" d="M61.7505,-93.4896C76.5027,-77.9683 107.871,-47.1106 140,-29 143.731,-26.8967 147.732,-24.9793 151.82,-23.2423"/>
<polygon fill="midnightblue" stroke="midnightblue" points="153.373,-26.3939 161.43,-19.514 150.842,-19.8678 153.373,-26.3939"/>
</g>
<!-- Node9 -->
<g id="node9" class="node"><title>Node9</title>
<g id="a_node9"><a xlink:href="../../dd/ded/classFun4AllSyncManager.html#a39eae3a8e090454f3595b25cb4059eb4" target="_top" xlink:title="Fun4AllSyncManager\l::Print">
<polygon fill="none" stroke="black" points="143.5,-88 143.5,-118 252.5,-118 252.5,-88 143.5,-88"/>
<text text-anchor="start" x="151.5" y="-106" font-family="FreeSans" font-size="10.00">Fun4AllSyncManager</text>
<text text-anchor="middle" x="198" y="-95" font-family="FreeSans" font-size="10.00">::Print</text>
</a>
</g>
</g>
<!-- Node1&#45;&gt;Node9 -->
<g id="edge9" class="edge"><title>Node1&#45;&gt;Node9</title>
<path fill="none" stroke="midnightblue" d="M103.769,-103C113.264,-103 123.301,-103 133.132,-103"/>
<polygon fill="midnightblue" stroke="midnightblue" points="133.273,-106.5 143.273,-103 133.273,-99.5001 133.273,-106.5"/>
</g>
<!-- Node3&#45;&gt;Node2 -->
<g id="edge3" class="edge"><title>Node3&#45;&gt;Node2</title>
<path fill="none" stroke="midnightblue" d="M253.295,-152C265.867,-152 279.327,-152 292.16,-152"/>
<polygon fill="midnightblue" stroke="midnightblue" points="292.288,-155.5 302.288,-152 292.288,-148.5 292.288,-155.5"/>
</g>
<!-- Node5 -->
<g id="node5" class="node"><title>Node5</title>
<g id="a_node5"><a xlink:href="../../d8/d77/classFun4AllOutputManager.html#af86abee7682ee661cf4477e1e0443f71" target="_top" xlink:title="get number of Events ">
<polygon fill="none" stroke="black" points="296,-39 296,-69 412,-69 412,-39 296,-39"/>
<text text-anchor="start" x="304" y="-57" font-family="FreeSans" font-size="10.00">Fun4AllOutputManager</text>
<text text-anchor="middle" x="354" y="-46" font-family="FreeSans" font-size="10.00">::EventsWritten</text>
</a>
</g>
</g>
<!-- Node4&#45;&gt;Node5 -->
<g id="edge5" class="edge"><title>Node4&#45;&gt;Node5</title>
<path fill="none" stroke="midnightblue" d="M256.344,-54C265.928,-54 275.947,-54 285.752,-54"/>
<polygon fill="midnightblue" stroke="midnightblue" points="285.865,-57.5001 295.865,-54 285.865,-50.5001 285.865,-57.5001"/>
</g>
<!-- Node7 -->
<g id="node7" class="node"><title>Node7</title>
<g id="a_node7"><a xlink:href="../../d5/dca/classPHCompositeNode.html#a6a3a273adbb9f7ec652b5227212a6b2d" target="_top" xlink:title="PHCompositeNode::print">
<polygon fill="none" stroke="black" points="292,-0.5 292,-19.5 416,-19.5 416,-0.5 292,-0.5"/>
<text text-anchor="middle" x="354" y="-7.5" font-family="FreeSans" font-size="10.00">PHCompositeNode::print</text>
</a>
</g>
</g>
<!-- Node6&#45;&gt;Node7 -->
<g id="edge7" class="edge"><title>Node6&#45;&gt;Node7</title>
<path fill="none" stroke="midnightblue" d="M252.43,-10C261.843,-10 271.777,-10 281.589,-10"/>
<polygon fill="midnightblue" stroke="midnightblue" points="281.743,-13.5001 291.743,-10 281.743,-6.5001 281.743,-13.5001"/>
</g>
<!-- Node8 -->
<g id="node8" class="node"><title>Node8</title>
<g id="a_node8"><a xlink:href="../../dc/d82/classPHNode.html#a3c79c7edb338e7d3bb86460f931793fa" target="_top" xlink:title="PHNode::print">
<polygon fill="none" stroke="black" points="452.5,-0.5 452.5,-19.5 529.5,-19.5 529.5,-0.5 452.5,-0.5"/>
<text text-anchor="middle" x="491" y="-7.5" font-family="FreeSans" font-size="10.00">PHNode::print</text>
</a>
</g>
</g>
<!-- Node7&#45;&gt;Node8 -->
<g id="edge8" class="edge"><title>Node7&#45;&gt;Node8</title>
<path fill="none" stroke="midnightblue" d="M416.18,-10C424.909,-10 433.781,-10 442.204,-10"/>
<polygon fill="midnightblue" stroke="midnightblue" points="442.215,-13.5001 452.215,-10 442.215,-6.5001 442.215,-13.5001"/>
</g>
<!-- Node9&#45;&gt;Node2 -->
<g id="edge10" class="edge"><title>Node9&#45;&gt;Node2</title>
<path fill="none" stroke="midnightblue" d="M246.462,-118.101C267.879,-124.916 292.89,-132.874 313.295,-139.367"/>
<polygon fill="midnightblue" stroke="midnightblue" points="312.315,-142.728 322.906,-142.425 314.438,-136.057 312.315,-142.728"/>
</g>
</g>
</svg>
