<?xml version="1.0" encoding="UTF-8" standalone="no"?>
<!DOCTYPE svg PUBLIC "-//W3C//DTD SVG 1.1//EN"
 "http://www.w3.org/Graphics/SVG/1.1/DTD/svg11.dtd">
<!-- Generated by graphviz version 2.36.0 (20140111.2315)
 -->
<!-- Title: Fun4AllServer::BeginRun Pages: 1 -->
<svg width="766pt" height="312pt"
 viewBox="0.00 0.00 766.00 312.00" xmlns="http://www.w3.org/2000/svg" xmlns:xlink="http://www.w3.org/1999/xlink">
<g id="graph0" class="graph" transform="scale(1 1) rotate(0) translate(4 308)">
<title>Fun4AllServer::BeginRun</title>
<!-- Node1 -->
<g id="node1" class="node"><title>Node1</title>
<polygon fill="#bfbfbf" stroke="black" points="0.5,-185.5 0.5,-204.5 125.5,-204.5 125.5,-185.5 0.5,-185.5"/>
<text text-anchor="middle" x="63" y="-192.5" font-family="FreeSans" font-size="10.00">Fun4AllServer::BeginRun</text>
</g>
<!-- Node2 -->
<g id="node2" class="node"><title>Node2</title>
<g id="a_node2"><a xlink:href="../../da/d29/classFun4AllServer.html#a1266c6d922adaaa9e895b854be49d3e8" target="_top" xlink:title="Fun4AllServer::DisconnectDB">
<polygon fill="none" stroke="black" points="162.5,-242.5 162.5,-261.5 307.5,-261.5 307.5,-242.5 162.5,-242.5"/>
<text text-anchor="middle" x="235" y="-249.5" font-family="FreeSans" font-size="10.00">Fun4AllServer::DisconnectDB</text>
</a>
</g>
</g>
<!-- Node1&#45;&gt;Node2 -->
<g id="edge1" class="edge"><title>Node1&#45;&gt;Node2</title>
<path fill="none" stroke="midnightblue" d="M86.7084,-204.639C106.406,-212.799 135.792,-224.49 162,-233 169.267,-235.36 177.016,-237.642 184.638,-239.758"/>
<polygon fill="midnightblue" stroke="midnightblue" points="183.965,-243.202 194.532,-242.435 185.793,-236.445 183.965,-243.202"/>
</g>
<!-- Node3 -->
<g id="node3" class="node"><title>Node3</title>
<g id="a_node3"><a xlink:href="../../da/dc2/classPHTimeStamp.html#a4ef1bd9d8bfb3a8263aa9ceafb80bb34" target="_top" xlink:title="PHTimeStamp::print">
<polygon fill="none" stroke="black" points="183,-204.5 183,-223.5 287,-223.5 287,-204.5 183,-204.5"/>
<text text-anchor="middle" x="235" y="-211.5" font-family="FreeSans" font-size="10.00">PHTimeStamp::print</text>
</a>
</g>
</g>
<!-- Node1&#45;&gt;Node3 -->
<g id="edge2" class="edge"><title>Node1&#45;&gt;Node3</title>
<path fill="none" stroke="midnightblue" d="M125.855,-201.913C141.05,-203.612 157.314,-205.429 172.494,-207.126"/>
<polygon fill="midnightblue" stroke="midnightblue" points="172.476,-210.645 182.803,-208.278 173.253,-203.689 172.476,-210.645"/>
</g>
<!-- Node4 -->
<g id="node4" class="node"><title>Node4</title>
<g id="a_node4"><a xlink:href="../../da/d29/classFun4AllServer.html#ae1b1a243ee1a67367c8da4ec3bdc003d" target="_top" xlink:title="Fun4AllServer::Print">
<polygon fill="none" stroke="black" points="183.5,-166.5 183.5,-185.5 286.5,-185.5 286.5,-166.5 183.5,-166.5"/>
<text text-anchor="middle" x="235" y="-173.5" font-family="FreeSans" font-size="10.00">Fun4AllServer::Print</text>
</a>
</g>
</g>
<!-- Node1&#45;&gt;Node4 -->
<g id="edge3" class="edge"><title>Node1&#45;&gt;Node4</title>
<path fill="none" stroke="midnightblue" d="M125.855,-188.087C141.352,-186.355 157.961,-184.498 173.397,-182.773"/>
<polygon fill="midnightblue" stroke="midnightblue" points="173.798,-186.25 183.348,-181.661 173.021,-179.294 173.798,-186.25"/>
</g>
<!-- Node13 -->
<g id="node13" class="node"><title>Node13</title>
<g id="a_node13"><a xlink:href="../../da/d29/classFun4AllServer.html#a3a4e3f448388cb2e68b085e9038feaf8" target="_top" xlink:title="Fun4AllServer::unregister\lSubsystemsNow">
<polygon fill="none" stroke="black" points="172.5,-71 172.5,-101 297.5,-101 297.5,-71 172.5,-71"/>
<text text-anchor="start" x="180.5" y="-89" font-family="FreeSans" font-size="10.00">Fun4AllServer::unregister</text>
<text text-anchor="middle" x="235" y="-78" font-family="FreeSans" font-size="10.00">SubsystemsNow</text>
</a>
</g>
</g>
<!-- Node1&#45;&gt;Node13 -->
<g id="edge14" class="edge"><title>Node1&#45;&gt;Node13</title>
<path fill="none" stroke="midnightblue" d="M79.0864,-185.327C106.429,-167.795 164.741,-130.407 201.507,-106.834"/>
<polygon fill="midnightblue" stroke="midnightblue" points="203.829,-109.503 210.358,-101.159 200.051,-103.61 203.829,-109.503"/>
</g>
<!-- Node5 -->
<g id="node5" class="node"><title>Node5</title>
<g id="a_node5"><a xlink:href="../../d3/d96/classFun4AllHistoManager.html#ac920f5943d99ae803f4bf8a7a88c31da" target="_top" xlink:title="Fun4AllHistoManager\l::Print">
<polygon fill="none" stroke="black" points="359,-274 359,-304 469,-304 469,-274 359,-274"/>
<text text-anchor="start" x="367" y="-292" font-family="FreeSans" font-size="10.00">Fun4AllHistoManager</text>
<text text-anchor="middle" x="414" y="-281" font-family="FreeSans" font-size="10.00">::Print</text>
</a>
</g>
</g>
<!-- Node4&#45;&gt;Node5 -->
<g id="edge4" class="edge"><title>Node4&#45;&gt;Node5</title>
<path fill="none" stroke="midnightblue" d="M286.825,-183.881C294.408,-186.572 301.761,-190.176 308,-195 333.818,-214.963 319.774,-237.133 344,-259 348.121,-262.72 352.775,-266.031 357.673,-268.968"/>
<polygon fill="midnightblue" stroke="midnightblue" points="356.228,-272.165 366.687,-273.855 359.564,-266.012 356.228,-272.165"/>
</g>
<!-- Node6 -->
<g id="node6" class="node"><title>Node6</title>
<g id="a_node6"><a xlink:href="../../d5/dec/classFun4AllBase.html#a41f9ac377743d046f590617fd6f4f0ed" target="_top" xlink:title="Returns the name of this module. ">
<polygon fill="none" stroke="black" points="530.5,-235.5 530.5,-254.5 633.5,-254.5 633.5,-235.5 530.5,-235.5"/>
<text text-anchor="middle" x="582" y="-242.5" font-family="FreeSans" font-size="10.00">Fun4AllBase::Name</text>
</a>
</g>
</g>
<!-- Node4&#45;&gt;Node6 -->
<g id="edge6" class="edge"><title>Node4&#45;&gt;Node6</title>
<path fill="none" stroke="midnightblue" d="M283.961,-185.512C292.215,-188.025 300.532,-191.147 308,-195 326.509,-204.551 324.732,-217.092 344,-225 400.526,-248.2 470.89,-251.262 520.208,-249.715"/>
<polygon fill="midnightblue" stroke="midnightblue" points="520.543,-253.205 530.401,-249.32 520.273,-246.21 520.543,-253.205"/>
</g>
<!-- Node7 -->
<g id="node7" class="node"><title>Node7</title>
<g id="a_node7"><a xlink:href="../../dd/ded/classFun4AllSyncManager.html#a39eae3a8e090454f3595b25cb4059eb4" target="_top" xlink:title="Fun4AllSyncManager\l::Print">
<polygon fill="none" stroke="black" points="359.5,-186 359.5,-216 468.5,-216 468.5,-186 359.5,-186"/>
<text text-anchor="start" x="367.5" y="-204" font-family="FreeSans" font-size="10.00">Fun4AllSyncManager</text>
<text text-anchor="middle" x="414" y="-193" font-family="FreeSans" font-size="10.00">::Print</text>
</a>
</g>
</g>
<!-- Node4&#45;&gt;Node7 -->
<g id="edge7" class="edge"><title>Node4&#45;&gt;Node7</title>
<path fill="none" stroke="midnightblue" d="M286.721,-183.164C306.298,-185.929 328.911,-189.123 349.545,-192.037"/>
<polygon fill="midnightblue" stroke="midnightblue" points="349.102,-195.51 359.494,-193.443 350.081,-188.578 349.102,-195.51"/>
</g>
<!-- Node8 -->
<g id="node8" class="node"><title>Node8</title>
<g id="a_node8"><a xlink:href="../../d8/d77/classFun4AllOutputManager.html#ae13cdf197e3ae6f5310199ca034b8754" target="_top" xlink:title="print method (dump event selector) ">
<polygon fill="none" stroke="black" points="356,-137 356,-167 472,-167 472,-137 356,-137"/>
<text text-anchor="start" x="364" y="-155" font-family="FreeSans" font-size="10.00">Fun4AllOutputManager</text>
<text text-anchor="middle" x="414" y="-144" font-family="FreeSans" font-size="10.00">::Print</text>
</a>
</g>
</g>
<!-- Node4&#45;&gt;Node8 -->
<g id="edge9" class="edge"><title>Node4&#45;&gt;Node8</title>
<path fill="none" stroke="midnightblue" d="M286.721,-169.123C305.076,-166.634 326.1,-163.783 345.66,-161.131"/>
<polygon fill="midnightblue" stroke="midnightblue" points="346.294,-164.577 355.733,-159.765 345.353,-157.641 346.294,-164.577"/>
</g>
<!-- Node10 -->
<g id="node10" class="node"><title>Node10</title>
<g id="a_node10"><a xlink:href="../../d5/d07/classPHNodeIterator.html#aec2fbc1e56be7e1a0b064ecde48edee5" target="_top" xlink:title="PHNodeIterator::print">
<polygon fill="none" stroke="black" points="360,-98.5 360,-117.5 468,-117.5 468,-98.5 360,-98.5"/>
<text text-anchor="middle" x="414" y="-105.5" font-family="FreeSans" font-size="10.00">PHNodeIterator::print</text>
</a>
</g>
</g>
<!-- Node4&#45;&gt;Node10 -->
<g id="edge11" class="edge"><title>Node4&#45;&gt;Node10</title>
<path fill="none" stroke="midnightblue" d="M254.743,-166.403C275.992,-155.783 311.862,-138.634 344,-127 350.437,-124.67 357.299,-122.463 364.105,-120.434"/>
<polygon fill="midnightblue" stroke="midnightblue" points="365.337,-123.721 373.98,-117.594 363.403,-116.994 365.337,-123.721"/>
</g>
<!-- Node5&#45;&gt;Node6 -->
<g id="edge5" class="edge"><title>Node5&#45;&gt;Node6</title>
<path fill="none" stroke="midnightblue" d="M469.355,-274.593C490.726,-268.928 514.985,-262.498 535.418,-257.082"/>
<polygon fill="midnightblue" stroke="midnightblue" points="536.342,-260.458 545.111,-254.513 534.548,-253.692 536.342,-260.458"/>
</g>
<!-- Node7&#45;&gt;Node6 -->
<g id="edge8" class="edge"><title>Node7&#45;&gt;Node6</title>
<path fill="none" stroke="midnightblue" d="M468.895,-215.286C490.292,-220.957 514.644,-227.412 535.172,-232.853"/>
<polygon fill="midnightblue" stroke="midnightblue" points="534.35,-236.256 544.913,-235.435 536.143,-229.489 534.35,-236.256"/>
</g>
<!-- Node9 -->
<g id="node9" class="node"><title>Node9</title>
<g id="a_node9"><a xlink:href="../../d8/d77/classFun4AllOutputManager.html#af86abee7682ee661cf4477e1e0443f71" target="_top" xlink:title="get number of Events ">
<polygon fill="none" stroke="black" points="524,-137 524,-167 640,-167 640,-137 524,-137"/>
<text text-anchor="start" x="532" y="-155" font-family="FreeSans" font-size="10.00">Fun4AllOutputManager</text>
<text text-anchor="middle" x="582" y="-144" font-family="FreeSans" font-size="10.00">::EventsWritten</text>
</a>
</g>
</g>
<!-- Node8&#45;&gt;Node9 -->
<g id="edge10" class="edge"><title>Node8&#45;&gt;Node9</title>
<path fill="none" stroke="midnightblue" d="M472.128,-152C485.431,-152 499.719,-152 513.425,-152"/>
<polygon fill="midnightblue" stroke="midnightblue" points="513.767,-155.5 523.767,-152 513.767,-148.5 513.767,-155.5"/>
</g>
<!-- Node11 -->
<g id="node11" class="node"><title>Node11</title>
<g id="a_node11"><a xlink:href="../../d5/dca/classPHCompositeNode.html#a6a3a273adbb9f7ec652b5227212a6b2d" target="_top" xlink:title="PHCompositeNode::print">
<polygon fill="none" stroke="black" points="520,-98.5 520,-117.5 644,-117.5 644,-98.5 520,-98.5"/>
<text text-anchor="middle" x="582" y="-105.5" font-family="FreeSans" font-size="10.00">PHCompositeNode::print</text>
</a>
</g>
</g>
<!-- Node10&#45;&gt;Node11 -->
<g id="edge12" class="edge"><title>Node10&#45;&gt;Node11</title>
<path fill="none" stroke="midnightblue" d="M468.437,-108C481.632,-108 495.972,-108 509.861,-108"/>
<polygon fill="midnightblue" stroke="midnightblue" points="509.871,-111.5 519.871,-108 509.871,-104.5 509.871,-111.5"/>
</g>
<!-- Node12 -->
<g id="node12" class="node"><title>Node12</title>
<g id="a_node12"><a xlink:href="../../dc/d82/classPHNode.html#a3c79c7edb338e7d3bb86460f931793fa" target="_top" xlink:title="PHNode::print">
<polygon fill="none" stroke="black" points="680.5,-98.5 680.5,-117.5 757.5,-117.5 757.5,-98.5 680.5,-98.5"/>
<text text-anchor="middle" x="719" y="-105.5" font-family="FreeSans" font-size="10.00">PHNode::print</text>
</a>
</g>
</g>
<!-- Node11&#45;&gt;Node12 -->
<g id="edge13" class="edge"><title>Node11&#45;&gt;Node12</title>
<path fill="none" stroke="midnightblue" d="M644.18,-108C652.909,-108 661.781,-108 670.204,-108"/>
<polygon fill="midnightblue" stroke="midnightblue" points="670.215,-111.5 680.215,-108 670.215,-104.5 670.215,-111.5"/>
</g>
<!-- Node14 -->
<g id="node14" class="node"><title>Node14</title>
<g id="a_node14"><a xlink:href="../../da/d29/classFun4AllServer.html#a596005b9bc46ff6f5167378423248271" target="_top" xlink:title="Fun4AllServer::UpdateEvent\lSelector">
<polygon fill="none" stroke="black" points="344.5,-49 344.5,-79 483.5,-79 483.5,-49 344.5,-49"/>
<text text-anchor="start" x="352.5" y="-67" font-family="FreeSans" font-size="10.00">Fun4AllServer::UpdateEvent</text>
<text text-anchor="middle" x="414" y="-56" font-family="FreeSans" font-size="10.00">Selector</text>
</a>
</g>
</g>
<!-- Node13&#45;&gt;Node14 -->
<g id="edge15" class="edge"><title>Node13&#45;&gt;Node14</title>
<path fill="none" stroke="midnightblue" d="M297.906,-78.3055C309.666,-76.8437 322.118,-75.2961 334.317,-73.7798"/>
<polygon fill="midnightblue" stroke="midnightblue" points="334.992,-77.2229 344.484,-72.5161 334.129,-70.2764 334.992,-77.2229"/>
</g>
<!-- Node15 -->
<g id="node15" class="node"><title>Node15</title>
<g id="a_node15"><a xlink:href="../../d8/d77/classFun4AllOutputManager.html#a330fe561bb5a02a9f6dc08395686321c" target="_top" xlink:title="retrieves pointer to vector of event selector module ids ">
<polygon fill="none" stroke="black" points="524,-49 524,-79 640,-79 640,-49 524,-49"/>
<text text-anchor="start" x="532" y="-67" font-family="FreeSans" font-size="10.00">Fun4AllOutputManager</text>
<text text-anchor="middle" x="582" y="-56" font-family="FreeSans" font-size="10.00">::RecoModuleIndex</text>
</a>
</g>
</g>
<!-- Node14&#45;&gt;Node15 -->
<g id="edge16" class="edge"><title>Node14&#45;&gt;Node15</title>
<path fill="none" stroke="midnightblue" d="M483.957,-64C493.808,-64 503.93,-64 513.748,-64"/>
<polygon fill="midnightblue" stroke="midnightblue" points="513.844,-67.5001 523.844,-64 513.844,-60.5001 513.844,-67.5001"/>
</g>
<!-- Node16 -->
<g id="node16" class="node"><title>Node16</title>
<g id="a_node16"><a xlink:href="../../d8/d77/classFun4AllOutputManager.html#a2a601e70ddadeb2f8400956ba1a514e6" target="_top" xlink:title="retrieves pointer to vector of event selector module names ">
<polygon fill="none" stroke="black" points="524,-0 524,-30 640,-30 640,-0 524,-0"/>
<text text-anchor="start" x="532" y="-18" font-family="FreeSans" font-size="10.00">Fun4AllOutputManager</text>
<text text-anchor="middle" x="582" y="-7" font-family="FreeSans" font-size="10.00">::EventSelector</text>
</a>
</g>
</g>
<!-- Node14&#45;&gt;Node16 -->
<g id="edge17" class="edge"><title>Node14&#45;&gt;Node16</title>
<path fill="none" stroke="midnightblue" d="M466.16,-48.8986C483.281,-43.8449 502.532,-38.1624 520.308,-32.9152"/>
<polygon fill="midnightblue" stroke="midnightblue" points="521.409,-36.2395 530.009,-30.0516 519.427,-29.5259 521.409,-36.2395"/>
</g>
</g>
</svg>
