<?xml version="1.0" encoding="UTF-8" standalone="no"?>
<!DOCTYPE svg PUBLIC "-//W3C//DTD SVG 1.1//EN"
 "http://www.w3.org/Graphics/SVG/1.1/DTD/svg11.dtd">
<!-- Generated by graphviz version 2.36.0 (20140111.2315)
 -->
<!-- Title: Fun4AllServer::UpdateEventSelector Pages: 1 -->
<svg width="300pt" height="87pt"
 viewBox="0.00 0.00 300.00 87.00" xmlns="http://www.w3.org/2000/svg" xmlns:xlink="http://www.w3.org/1999/xlink">
<g id="graph0" class="graph" transform="scale(1 1) rotate(0) translate(4 83)">
<title>Fun4AllServer::UpdateEventSelector</title>
<!-- Node1 -->
<g id="node1" class="node"><title>Node1</title>
<polygon fill="#bfbfbf" stroke="black" points="0.5,-24 0.5,-54 139.5,-54 139.5,-24 0.5,-24"/>
<text text-anchor="start" x="8.5" y="-42" font-family="FreeSans" font-size="10.00">Fun4AllServer::UpdateEvent</text>
<text text-anchor="middle" x="70" y="-31" font-family="FreeSans" font-size="10.00">Selector</text>
</g>
<!-- Node2 -->
<g id="node2" class="node"><title>Node2</title>
<g id="a_node2"><a xlink:href="../../d8/d77/classFun4AllOutputManager.html#a2a601e70ddadeb2f8400956ba1a514e6" target="_top" xlink:title="retrieves pointer to vector of event selector module names ">
<polygon fill="none" stroke="black" points="176,-49 176,-79 292,-79 292,-49 176,-49"/>
<text text-anchor="start" x="184" y="-67" font-family="FreeSans" font-size="10.00">Fun4AllOutputManager</text>
<text text-anchor="middle" x="234" y="-56" font-family="FreeSans" font-size="10.00">::EventSelector</text>
</a>
</g>
</g>
<!-- Node1&#45;&gt;Node2 -->
<g id="edge1" class="edge"><title>Node1&#45;&gt;Node2</title>
<path fill="none" stroke="midnightblue" d="M139.703,-49.6023C148.38,-50.9414 157.25,-52.3103 165.903,-53.6455"/>
<polygon fill="midnightblue" stroke="midnightblue" points="165.518,-57.1274 175.935,-55.1936 166.586,-50.2093 165.518,-57.1274"/>
</g>
<!-- Node3 -->
<g id="node3" class="node"><title>Node3</title>
<g id="a_node3"><a xlink:href="../../d8/d77/classFun4AllOutputManager.html#a330fe561bb5a02a9f6dc08395686321c" target="_top" xlink:title="retrieves pointer to vector of event selector module ids ">
<polygon fill="none" stroke="black" points="176,-0 176,-30 292,-30 292,-0 176,-0"/>
<text text-anchor="start" x="184" y="-18" font-family="FreeSans" font-size="10.00">Fun4AllOutputManager</text>
<text text-anchor="middle" x="234" y="-7" font-family="FreeSans" font-size="10.00">::RecoModuleIndex</text>
</a>
</g>
</g>
<!-- Node1&#45;&gt;Node3 -->
<g id="edge2" class="edge"><title>Node1&#45;&gt;Node3</title>
<path fill="none" stroke="midnightblue" d="M139.703,-28.8218C148.38,-27.5363 157.25,-26.2222 165.903,-24.9403"/>
<polygon fill="midnightblue" stroke="midnightblue" points="166.556,-28.3819 175.935,-23.4541 165.53,-21.4575 166.556,-28.3819"/>
</g>
</g>
</svg>
