<?xml version="1.0" encoding="UTF-8" standalone="no"?>
<!DOCTYPE svg PUBLIC "-//W3C//DTD SVG 1.1//EN"
 "http://www.w3.org/Graphics/SVG/1.1/DTD/svg11.dtd">
<!-- Generated by graphviz version 2.36.0 (20140111.2315)
 -->
<!-- Title: Fun4AllServer::EndRun Pages: 1 -->
<svg width="420pt" height="66pt"
 viewBox="0.00 0.00 420.00 66.00" xmlns="http://www.w3.org/2000/svg" xmlns:xlink="http://www.w3.org/1999/xlink">
<g id="graph0" class="graph" transform="scale(1 1) rotate(0) translate(4 62)">
<title>Fun4AllServer::EndRun</title>
<!-- Node1 -->
<g id="node1" class="node"><title>Node1</title>
<polygon fill="#bfbfbf" stroke="black" points="0,-19.5 0,-38.5 116,-38.5 116,-19.5 0,-19.5"/>
<text text-anchor="middle" x="58" y="-26.5" font-family="FreeSans" font-size="10.00">Fun4AllServer::EndRun</text>
</g>
<!-- Node2 -->
<g id="node2" class="node"><title>Node2</title>
<g id="a_node2"><a xlink:href="../../da/d29/classFun4AllServer.html#ab7263450319ca1d5029209fde26a7af8" target="_top" xlink:title="Fun4AllServer::End">
<polygon fill="none" stroke="black" points="152.5,-38.5 152.5,-57.5 251.5,-57.5 251.5,-38.5 152.5,-38.5"/>
<text text-anchor="middle" x="202" y="-45.5" font-family="FreeSans" font-size="10.00">Fun4AllServer::End</text>
</a>
</g>
</g>
<!-- Node1&#45;&gt;Node2 -->
<g id="edge1" class="edge"><title>Node1&#45;&gt;Node2</title>
<path fill="none" stroke="midnightblue" d="M126.444,-38.0241C135.098,-39.1821 143.823,-40.3495 152.102,-41.4573"/>
<polygon fill="midnightblue" stroke="midnightblue" points="126.723,-34.5305 116.348,-36.6733 125.795,-41.4686 126.723,-34.5305"/>
</g>
<!-- Node5 -->
<g id="node5" class="node"><title>Node5</title>
<g id="a_node5"><a xlink:href="../../da/d29/classFun4AllServer.html#a11bbc8b2f53bc06e0b05ee202dd6372a" target="_top" xlink:title="run n events (0 means up to end of file) ">
<polygon fill="none" stroke="black" points="154,-0.5 154,-19.5 250,-19.5 250,-0.5 154,-0.5"/>
<text text-anchor="middle" x="202" y="-7.5" font-family="FreeSans" font-size="10.00">Fun4AllServer::run</text>
</a>
</g>
</g>
<!-- Node1&#45;&gt;Node5 -->
<g id="edge4" class="edge"><title>Node1&#45;&gt;Node5</title>
<path fill="none" stroke="midnightblue" d="M126.378,-19.9847C135.679,-18.7401 145.063,-17.4845 153.89,-16.3034"/>
<polygon fill="midnightblue" stroke="midnightblue" points="125.795,-16.5314 116.348,-21.3267 126.723,-23.4695 125.795,-16.5314"/>
</g>
<!-- Node3 -->
<g id="node3" class="node"><title>Node3</title>
<g id="a_node3"><a xlink:href="../../d0/d46/Fun4__SimpleReadMySql_8C.html#a70381893748e3445abc30632beb256ce" target="_top" xlink:title="Fun4_SimpleReadMySql">
<polygon fill="none" stroke="black" points="288.5,-38.5 288.5,-57.5 411.5,-57.5 411.5,-38.5 288.5,-38.5"/>
<text text-anchor="middle" x="350" y="-45.5" font-family="FreeSans" font-size="10.00">Fun4_SimpleReadMySql</text>
</a>
</g>
</g>
<!-- Node2&#45;&gt;Node3 -->
<g id="edge2" class="edge"><title>Node2&#45;&gt;Node3</title>
<path fill="none" stroke="midnightblue" d="M261.75,-48C270.521,-48 279.578,-48 288.388,-48"/>
<polygon fill="midnightblue" stroke="midnightblue" points="261.616,-44.5001 251.616,-48 261.616,-51.5001 261.616,-44.5001"/>
</g>
<!-- Node4 -->
<g id="node4" class="node"><title>Node4</title>
<g id="a_node4"><a xlink:href="../../d9/d8c/Fun4ReadMySql_8C.html#a729b39fa627147c63772f28c9be36b62" target="_top" xlink:title="Fun4ReadMySql">
<polygon fill="none" stroke="black" points="306,-0.5 306,-19.5 394,-19.5 394,-0.5 306,-0.5"/>
<text text-anchor="middle" x="350" y="-7.5" font-family="FreeSans" font-size="10.00">Fun4ReadMySql</text>
</a>
</g>
</g>
<!-- Node2&#45;&gt;Node4 -->
<g id="edge3" class="edge"><title>Node2&#45;&gt;Node4</title>
<path fill="none" stroke="midnightblue" d="M249.536,-35.8879C269.87,-30.5956 293.371,-24.4787 312.423,-19.5201"/>
<polygon fill="midnightblue" stroke="midnightblue" points="248.638,-32.5049 239.842,-38.411 250.401,-39.2793 248.638,-32.5049"/>
</g>
<!-- Node5&#45;&gt;Node3 -->
<g id="edge5" class="edge"><title>Node5&#45;&gt;Node3</title>
<path fill="none" stroke="midnightblue" d="M249.536,-22.1121C269.87,-27.4044 293.371,-33.5213 312.423,-38.4799"/>
<polygon fill="midnightblue" stroke="midnightblue" points="250.401,-18.7207 239.842,-19.589 248.638,-25.4951 250.401,-18.7207"/>
</g>
<!-- Node5&#45;&gt;Node4 -->
<g id="edge6" class="edge"><title>Node5&#45;&gt;Node4</title>
<path fill="none" stroke="midnightblue" d="M260.637,-10C275.68,-10 291.634,-10 305.786,-10"/>
<polygon fill="midnightblue" stroke="midnightblue" points="260.402,-6.5001 250.402,-10 260.402,-13.5001 260.402,-6.5001"/>
</g>
</g>
</svg>
