<?xml version="1.0" encoding="UTF-8" standalone="no"?>
<!DOCTYPE svg PUBLIC "-//W3C//DTD SVG 1.1//EN"
 "http://www.w3.org/Graphics/SVG/1.1/DTD/svg11.dtd">
<!-- Generated by graphviz version 2.36.0 (20140111.2315)
 -->
<!-- Title: Fun4AllServer::getNode Pages: 1 -->
<svg width="786pt" height="77pt"
 viewBox="0.00 0.00 786.00 77.00" xmlns="http://www.w3.org/2000/svg" xmlns:xlink="http://www.w3.org/1999/xlink">
<g id="graph0" class="graph" transform="scale(1 1) rotate(0) translate(4 73)">
<title>Fun4AllServer::getNode</title>
<!-- Node1 -->
<g id="node1" class="node"><title>Node1</title>
<polygon fill="#bfbfbf" stroke="black" points="0.5,-22.5 0.5,-41.5 119.5,-41.5 119.5,-22.5 0.5,-22.5"/>
<text text-anchor="middle" x="60" y="-29.5" font-family="FreeSans" font-size="10.00">Fun4AllServer::getNode</text>
</g>
<!-- Node2 -->
<g id="node2" class="node"><title>Node2</title>
<g id="a_node2"><a xlink:href="../../d7/d0b/classFun4AllDstInputManager.html#a4d32eadb9f77d41387656b87377ef14f" target="_top" xlink:title="Fun4AllDstInputManager\l::fileopen">
<polygon fill="none" stroke="black" points="156,-17 156,-47 280,-47 280,-17 156,-17"/>
<text text-anchor="start" x="164" y="-35" font-family="FreeSans" font-size="10.00">Fun4AllDstInputManager</text>
<text text-anchor="middle" x="218" y="-24" font-family="FreeSans" font-size="10.00">::fileopen</text>
</a>
</g>
</g>
<!-- Node1&#45;&gt;Node2 -->
<g id="edge1" class="edge"><title>Node1&#45;&gt;Node2</title>
<path fill="none" stroke="midnightblue" d="M129.652,-32C138.356,-32 147.218,-32 155.795,-32"/>
<polygon fill="midnightblue" stroke="midnightblue" points="129.533,-28.5001 119.532,-32 129.532,-35.5001 129.533,-28.5001"/>
</g>
<!-- Node3 -->
<g id="node3" class="node"><title>Node3</title>
<g id="a_node3"><a xlink:href="../../d7/d0b/classFun4AllDstInputManager.html#ae4e92b95ae50ab72856d06c99b043496" target="_top" xlink:title="Fun4AllDstInputManager\l::OpenNextFile">
<polygon fill="none" stroke="black" points="316,-17 316,-47 440,-47 440,-17 316,-17"/>
<text text-anchor="start" x="324" y="-35" font-family="FreeSans" font-size="10.00">Fun4AllDstInputManager</text>
<text text-anchor="middle" x="378" y="-24" font-family="FreeSans" font-size="10.00">::OpenNextFile</text>
</a>
</g>
</g>
<!-- Node2&#45;&gt;Node3 -->
<g id="edge2" class="edge"><title>Node2&#45;&gt;Node3</title>
<path fill="none" stroke="midnightblue" d="M290.366,-32C298.863,-32 307.478,-32 315.815,-32"/>
<polygon fill="midnightblue" stroke="midnightblue" points="290.087,-28.5001 280.087,-32 290.087,-35.5001 290.087,-28.5001"/>
</g>
<!-- Node4 -->
<g id="node4" class="node"><title>Node4</title>
<g id="a_node4"><a xlink:href="../../d7/d0b/classFun4AllDstInputManager.html#ade26017b627e0e1f1ec0dec62ac7fd52" target="_top" xlink:title="Fun4AllDstInputManager\l::ReadNextEventSyncObject">
<polygon fill="none" stroke="black" points="477.5,-39 477.5,-69 616.5,-69 616.5,-39 477.5,-39"/>
<text text-anchor="start" x="485.5" y="-57" font-family="FreeSans" font-size="10.00">Fun4AllDstInputManager</text>
<text text-anchor="middle" x="547" y="-46" font-family="FreeSans" font-size="10.00">::ReadNextEventSyncObject</text>
</a>
</g>
</g>
<!-- Node3&#45;&gt;Node4 -->
<g id="edge3" class="edge"><title>Node3&#45;&gt;Node4</title>
<path fill="none" stroke="midnightblue" d="M450.291,-41.3917C459.291,-42.5772 468.483,-43.7882 477.438,-44.9679"/>
<polygon fill="midnightblue" stroke="midnightblue" points="450.608,-37.9032 440.236,-40.0671 449.694,-44.8433 450.608,-37.9032"/>
</g>
<!-- Node6 -->
<g id="node6" class="node"><title>Node6</title>
<g id="a_node6"><a xlink:href="../../d7/d0b/classFun4AllDstInputManager.html#aeafa0248f9050c13fdae1bcb93336d7a" target="_top" xlink:title="Fun4AllDstInputManager::run">
<polygon fill="none" stroke="black" points="476,-0.5 476,-19.5 618,-19.5 618,-0.5 476,-0.5"/>
<text text-anchor="middle" x="547" y="-7.5" font-family="FreeSans" font-size="10.00">Fun4AllDstInputManager::run</text>
</a>
</g>
</g>
<!-- Node3&#45;&gt;Node6 -->
<g id="edge5" class="edge"><title>Node3&#45;&gt;Node6</title>
<path fill="none" stroke="midnightblue" d="M450.376,-22.5971C458.777,-21.4905 467.344,-20.3619 475.729,-19.2573"/>
<polygon fill="midnightblue" stroke="midnightblue" points="449.694,-19.1567 440.236,-23.9329 450.608,-26.0968 449.694,-19.1567"/>
</g>
<!-- Node5 -->
<g id="node5" class="node"><title>Node5</title>
<g id="a_node5"><a xlink:href="../../d7/d0b/classFun4AllDstInputManager.html#a0244c2edbaa2350038304b09f352c2d0" target="_top" xlink:title="Fun4AllDstInputManager\l::SyncIt">
<polygon fill="none" stroke="black" points="654,-39 654,-69 778,-69 778,-39 654,-39"/>
<text text-anchor="start" x="662" y="-57" font-family="FreeSans" font-size="10.00">Fun4AllDstInputManager</text>
<text text-anchor="middle" x="716" y="-46" font-family="FreeSans" font-size="10.00">::SyncIt</text>
</a>
</g>
</g>
<!-- Node4&#45;&gt;Node5 -->
<g id="edge4" class="edge"><title>Node4&#45;&gt;Node5</title>
<path fill="none" stroke="midnightblue" d="M626.987,-54C635.977,-54 645.037,-54 653.749,-54"/>
<polygon fill="midnightblue" stroke="midnightblue" points="626.889,-50.5001 616.889,-54 626.889,-57.5001 626.889,-50.5001"/>
</g>
</g>
</svg>
