<?xml version="1.0" encoding="UTF-8" standalone="no"?>
<!DOCTYPE svg PUBLIC "-//W3C//DTD SVG 1.1//EN"
 "http://www.w3.org/Graphics/SVG/1.1/DTD/svg11.dtd">
<!-- Generated by graphviz version 2.36.0 (20140111.2315)
 -->
<!-- Title: Fun4AllServer::getHisto Pages: 1 -->
<svg width="560pt" height="38pt"
 viewBox="0.00 0.00 560.00 38.00" xmlns="http://www.w3.org/2000/svg" xmlns:xlink="http://www.w3.org/1999/xlink">
<g id="graph0" class="graph" transform="scale(1 1) rotate(0) translate(4 34)">
<title>Fun4AllServer::getHisto</title>
<!-- Node1 -->
<g id="node1" class="node"><title>Node1</title>
<polygon fill="#bfbfbf" stroke="black" points="0.5,-5.5 0.5,-24.5 119.5,-24.5 119.5,-5.5 0.5,-5.5"/>
<text text-anchor="middle" x="60" y="-12.5" font-family="FreeSans" font-size="10.00">Fun4AllServer::getHisto</text>
</g>
<!-- Node2 -->
<g id="node2" class="node"><title>Node2</title>
<g id="a_node2"><a xlink:href="../../d3/d96/classFun4AllHistoManager.html#ae5401f032b650d41224dfa0e2f12d364" target="_top" xlink:title="Fun4AllHistoManager\l::getHisto">
<polygon fill="none" stroke="black" points="156,-0 156,-30 266,-30 266,-0 156,-0"/>
<text text-anchor="start" x="164" y="-18" font-family="FreeSans" font-size="10.00">Fun4AllHistoManager</text>
<text text-anchor="middle" x="211" y="-7" font-family="FreeSans" font-size="10.00">::getHisto</text>
</a>
</g>
</g>
<!-- Node1&#45;&gt;Node2 -->
<g id="edge1" class="edge"><title>Node1&#45;&gt;Node2</title>
<path fill="none" stroke="midnightblue" d="M119.889,-15C128.425,-15 137.247,-15 145.88,-15"/>
<polygon fill="midnightblue" stroke="midnightblue" points="145.898,-18.5001 155.898,-15 145.898,-11.5001 145.898,-18.5001"/>
</g>
<!-- Node3 -->
<g id="node3" class="node"><title>Node3</title>
<g id="a_node3"><a xlink:href="../../d3/d96/classFun4AllHistoManager.html#ac920f5943d99ae803f4bf8a7a88c31da" target="_top" xlink:title="Fun4AllHistoManager\l::Print">
<polygon fill="none" stroke="black" points="302,-0 302,-30 412,-30 412,-0 302,-0"/>
<text text-anchor="start" x="310" y="-18" font-family="FreeSans" font-size="10.00">Fun4AllHistoManager</text>
<text text-anchor="middle" x="357" y="-7" font-family="FreeSans" font-size="10.00">::Print</text>
</a>
</g>
</g>
<!-- Node2&#45;&gt;Node3 -->
<g id="edge2" class="edge"><title>Node2&#45;&gt;Node3</title>
<path fill="none" stroke="midnightblue" d="M266.03,-15C274.314,-15 282.936,-15 291.42,-15"/>
<polygon fill="midnightblue" stroke="midnightblue" points="291.667,-18.5001 301.667,-15 291.667,-11.5001 291.667,-18.5001"/>
</g>
<!-- Node4 -->
<g id="node4" class="node"><title>Node4</title>
<g id="a_node4"><a xlink:href="../../d5/dec/classFun4AllBase.html#a41f9ac377743d046f590617fd6f4f0ed" target="_top" xlink:title="Returns the name of this module. ">
<polygon fill="none" stroke="black" points="448.5,-5.5 448.5,-24.5 551.5,-24.5 551.5,-5.5 448.5,-5.5"/>
<text text-anchor="middle" x="500" y="-12.5" font-family="FreeSans" font-size="10.00">Fun4AllBase::Name</text>
</a>
</g>
</g>
<!-- Node3&#45;&gt;Node4 -->
<g id="edge3" class="edge"><title>Node3&#45;&gt;Node4</title>
<path fill="none" stroke="midnightblue" d="M412.111,-15C420.596,-15 429.415,-15 438.041,-15"/>
<polygon fill="midnightblue" stroke="midnightblue" points="438.046,-18.5001 448.046,-15 438.046,-11.5001 438.046,-18.5001"/>
</g>
</g>
</svg>
