<?xml version="1.0" encoding="UTF-8" standalone="no"?>
<!DOCTYPE svg PUBLIC "-//W3C//DTD SVG 1.1//EN"
 "http://www.w3.org/Graphics/SVG/1.1/DTD/svg11.dtd">
<!-- Generated by graphviz version 2.36.0 (20140111.2315)
 -->
<!-- Title: Fun4AllServer::setRun Pages: 1 -->
<svg width="422pt" height="104pt"
 viewBox="0.00 0.00 422.00 104.00" xmlns="http://www.w3.org/2000/svg" xmlns:xlink="http://www.w3.org/1999/xlink">
<g id="graph0" class="graph" transform="scale(1 1) rotate(0) translate(4 100)">
<title>Fun4AllServer::setRun</title>
<!-- Node1 -->
<g id="node1" class="node"><title>Node1</title>
<polygon fill="#bfbfbf" stroke="black" points="0.5,-38.5 0.5,-57.5 113.5,-57.5 113.5,-38.5 0.5,-38.5"/>
<text text-anchor="middle" x="57" y="-45.5" font-family="FreeSans" font-size="10.00">Fun4AllServer::setRun</text>
</g>
<!-- Node2 -->
<g id="node2" class="node"><title>Node2</title>
<g id="a_node2"><a xlink:href="../../d8/d14/classrecoConsts.html#ae69a5c29a7199ba16d0e537158618802" target="_top" xlink:title="recoConsts::instance">
<polygon fill="none" stroke="black" points="150.5,-76.5 150.5,-95.5 257.5,-95.5 257.5,-76.5 150.5,-76.5"/>
<text text-anchor="middle" x="204" y="-83.5" font-family="FreeSans" font-size="10.00">recoConsts::instance</text>
</a>
</g>
</g>
<!-- Node1&#45;&gt;Node2 -->
<g id="edge1" class="edge"><title>Node1&#45;&gt;Node2</title>
<path fill="none" stroke="midnightblue" d="M94.5896,-57.589C113.465,-62.5358 136.686,-68.6211 156.788,-73.8892"/>
<polygon fill="midnightblue" stroke="midnightblue" points="156.113,-77.3305 166.673,-76.4799 157.887,-70.5591 156.113,-77.3305"/>
</g>
<!-- Node4 -->
<g id="node4" class="node"><title>Node4</title>
<g id="a_node4"><a xlink:href="../../da/dc2/classPHTimeStamp.html#a4ef1bd9d8bfb3a8263aa9ceafb80bb34" target="_top" xlink:title="PHTimeStamp::print">
<polygon fill="none" stroke="black" points="152,-38.5 152,-57.5 256,-57.5 256,-38.5 152,-38.5"/>
<text text-anchor="middle" x="204" y="-45.5" font-family="FreeSans" font-size="10.00">PHTimeStamp::print</text>
</a>
</g>
</g>
<!-- Node1&#45;&gt;Node4 -->
<g id="edge3" class="edge"><title>Node1&#45;&gt;Node4</title>
<path fill="none" stroke="midnightblue" d="M113.646,-48C122.698,-48 132.122,-48 141.308,-48"/>
<polygon fill="midnightblue" stroke="midnightblue" points="141.547,-51.5001 151.547,-48 141.547,-44.5001 141.547,-51.5001"/>
</g>
<!-- Node5 -->
<g id="node5" class="node"><title>Node5</title>
<g id="a_node5"><a xlink:href="../../d1/da8/classPHFlag.html#a3ef5c3f1eff2daaaf18e5129858a9ef8" target="_top" xlink:title="PHFlag::set_IntFlag">
<polygon fill="none" stroke="black" points="152.5,-0.5 152.5,-19.5 255.5,-19.5 255.5,-0.5 152.5,-0.5"/>
<text text-anchor="middle" x="204" y="-7.5" font-family="FreeSans" font-size="10.00">PHFlag::set_IntFlag</text>
</a>
</g>
</g>
<!-- Node1&#45;&gt;Node5 -->
<g id="edge4" class="edge"><title>Node1&#45;&gt;Node5</title>
<path fill="none" stroke="midnightblue" d="M94.5896,-38.411C113.465,-33.4642 136.686,-27.3789 156.788,-22.1108"/>
<polygon fill="midnightblue" stroke="midnightblue" points="157.887,-25.4409 166.673,-19.5201 156.113,-18.6695 157.887,-25.4409"/>
</g>
<!-- Node3 -->
<g id="node3" class="node"><title>Node3</title>
<g id="a_node3"><a xlink:href="../../d8/d14/classrecoConsts.html#ae882d6adc62f783ec78114fe3dee3c24" target="_top" xlink:title="recoConsts::recoConsts">
<polygon fill="none" stroke="black" points="294,-76.5 294,-95.5 414,-95.5 414,-76.5 294,-76.5"/>
<text text-anchor="middle" x="354" y="-83.5" font-family="FreeSans" font-size="10.00">recoConsts::recoConsts</text>
</a>
</g>
</g>
<!-- Node2&#45;&gt;Node3 -->
<g id="edge2" class="edge"><title>Node2&#45;&gt;Node3</title>
<path fill="none" stroke="midnightblue" d="M257.596,-86C266.016,-86 274.841,-86 283.58,-86"/>
<polygon fill="midnightblue" stroke="midnightblue" points="283.77,-89.5001 293.77,-86 283.77,-82.5001 283.77,-89.5001"/>
</g>
</g>
</svg>
