<?xml version="1.0" encoding="UTF-8" standalone="no"?>
<!DOCTYPE svg PUBLIC "-//W3C//DTD SVG 1.1//EN"
 "http://www.w3.org/Graphics/SVG/1.1/DTD/svg11.dtd">
<!-- Generated by graphviz version 2.36.0 (20140111.2315)
 -->
<!-- Title: Fun4AllServer::InitNodeTree Pages: 1 -->
<svg width="484pt" height="66pt"
 viewBox="0.00 0.00 484.00 66.00" xmlns="http://www.w3.org/2000/svg" xmlns:xlink="http://www.w3.org/1999/xlink">
<g id="graph0" class="graph" transform="scale(1 1) rotate(0) translate(4 62)">
<title>Fun4AllServer::InitNodeTree</title>
<!-- Node1 -->
<g id="node1" class="node"><title>Node1</title>
<polygon fill="#bfbfbf" stroke="black" points="0.5,-19.5 0.5,-38.5 139.5,-38.5 139.5,-19.5 0.5,-19.5"/>
<text text-anchor="middle" x="70" y="-26.5" font-family="FreeSans" font-size="10.00">Fun4AllServer::InitNodeTree</text>
</g>
<!-- Node2 -->
<g id="node2" class="node"><title>Node2</title>
<g id="a_node2"><a xlink:href="../../da/d29/classFun4AllServer.html#aa1939c3e2c3113cce0a6415103b4f5a5" target="_top" xlink:title="Fun4AllServer::InitAll">
<polygon fill="none" stroke="black" points="182.5,-38.5 182.5,-57.5 289.5,-57.5 289.5,-38.5 182.5,-38.5"/>
<text text-anchor="middle" x="236" y="-45.5" font-family="FreeSans" font-size="10.00">Fun4AllServer::InitAll</text>
</a>
</g>
</g>
<!-- Node1&#45;&gt;Node2 -->
<g id="edge1" class="edge"><title>Node1&#45;&gt;Node2</title>
<path fill="none" stroke="midnightblue" d="M149.729,-38.1211C160.808,-39.4046 171.966,-40.6973 182.394,-41.9054"/>
<polygon fill="midnightblue" stroke="midnightblue" points="149.937,-34.6218 139.601,-36.9476 149.131,-41.5753 149.937,-34.6218"/>
</g>
<!-- Node4 -->
<g id="node4" class="node"><title>Node4</title>
<g id="a_node4"><a xlink:href="../../da/d29/classFun4AllServer.html#a3477a81b5b754fccc94dfa8283d041f4" target="_top" xlink:title="Fun4AllServer::topNode">
<polygon fill="none" stroke="black" points="176.5,-0.5 176.5,-19.5 295.5,-19.5 295.5,-0.5 176.5,-0.5"/>
<text text-anchor="middle" x="236" y="-7.5" font-family="FreeSans" font-size="10.00">Fun4AllServer::topNode</text>
</a>
</g>
</g>
<!-- Node1&#45;&gt;Node4 -->
<g id="edge3" class="edge"><title>Node1&#45;&gt;Node4</title>
<path fill="none" stroke="midnightblue" d="M149.677,-19.885C158.642,-18.8463 167.661,-17.8015 176.302,-16.8003"/>
<polygon fill="midnightblue" stroke="midnightblue" points="149.131,-16.4247 139.601,-21.0524 149.937,-23.3782 149.131,-16.4247"/>
</g>
<!-- Node3 -->
<g id="node3" class="node"><title>Node3</title>
<g id="a_node3"><a xlink:href="../../da/d29/classFun4AllServer.html#a90e27f05f0b2e8b6fe462387b14bfb92" target="_top" xlink:title="Fun4AllServer::Fun4AllServer">
<polygon fill="none" stroke="black" points="332,-38.5 332,-57.5 476,-57.5 476,-38.5 332,-38.5"/>
<text text-anchor="middle" x="404" y="-45.5" font-family="FreeSans" font-size="10.00">Fun4AllServer::Fun4AllServer</text>
</a>
</g>
</g>
<!-- Node2&#45;&gt;Node3 -->
<g id="edge2" class="edge"><title>Node2&#45;&gt;Node3</title>
<path fill="none" stroke="midnightblue" d="M299.846,-48C310.349,-48 321.31,-48 331.999,-48"/>
<polygon fill="midnightblue" stroke="midnightblue" points="299.523,-44.5001 289.523,-48 299.523,-51.5001 299.523,-44.5001"/>
</g>
</g>
</svg>
