<?xml version="1.0" encoding="UTF-8" standalone="no"?>
<!DOCTYPE svg PUBLIC "-//W3C//DTD SVG 1.1//EN"
 "http://www.w3.org/Graphics/SVG/1.1/DTD/svg11.dtd">
<!-- Generated by graphviz version 2.36.0 (20140111.2315)
 -->
<!-- Title: Fun4AllServer::CountOutNodes Pages: 1 -->
<svg width="632pt" height="66pt"
 viewBox="0.00 0.00 632.00 66.00" xmlns="http://www.w3.org/2000/svg" xmlns:xlink="http://www.w3.org/1999/xlink">
<g id="graph0" class="graph" transform="scale(1 1) rotate(0) translate(4 62)">
<title>Fun4AllServer::CountOutNodes</title>
<!-- Node1 -->
<g id="node1" class="node"><title>Node1</title>
<polygon fill="#bfbfbf" stroke="black" points="0,-19.5 0,-38.5 152,-38.5 152,-19.5 0,-19.5"/>
<text text-anchor="middle" x="76" y="-26.5" font-family="FreeSans" font-size="10.00">Fun4AllServer::CountOutNodes</text>
</g>
<!-- Node2 -->
<g id="node2" class="node"><title>Node2</title>
<g id="a_node2"><a xlink:href="../../da/d29/classFun4AllServer.html#a3654ebdcb099bcc5c820df6d4952663c" target="_top" xlink:title="Fun4AllServer::CountOutNodes\lRecursive">
<polygon fill="none" stroke="black" points="188,-14 188,-44 340,-44 340,-14 188,-14"/>
<text text-anchor="start" x="196" y="-32" font-family="FreeSans" font-size="10.00">Fun4AllServer::CountOutNodes</text>
<text text-anchor="middle" x="264" y="-21" font-family="FreeSans" font-size="10.00">Recursive</text>
</a>
</g>
</g>
<!-- Node1&#45;&gt;Node2 -->
<g id="edge1" class="edge"><title>Node1&#45;&gt;Node2</title>
<path fill="none" stroke="midnightblue" d="M152.117,-29C160.596,-29 169.281,-29 177.875,-29"/>
<polygon fill="midnightblue" stroke="midnightblue" points="177.905,-32.5001 187.905,-29 177.905,-25.5001 177.905,-32.5001"/>
</g>
<!-- Node3 -->
<g id="node3" class="node"><title>Node3</title>
<g id="a_node3"><a xlink:href="../../d5/d07/classPHNodeIterator.html#a110a5b87a02a22deecae334f32387ffa" target="_top" xlink:title="PHNodeIterator::ls">
<polygon fill="none" stroke="black" points="376.5,-19.5 376.5,-38.5 473.5,-38.5 473.5,-19.5 376.5,-19.5"/>
<text text-anchor="middle" x="425" y="-26.5" font-family="FreeSans" font-size="10.00">PHNodeIterator::ls</text>
</a>
</g>
</g>
<!-- Node2&#45;&gt;Node3 -->
<g id="edge2" class="edge"><title>Node2&#45;&gt;Node3</title>
<path fill="none" stroke="midnightblue" d="M340.309,-29C348.983,-29 357.724,-29 366.116,-29"/>
<polygon fill="midnightblue" stroke="midnightblue" points="366.153,-32.5001 376.153,-29 366.153,-25.5001 366.153,-32.5001"/>
</g>
<!-- Node4 -->
<g id="node4" class="node"><title>Node4</title>
<g id="a_node4"><a xlink:href="../../d6/d86/classPHPointerList.html#a560c9339d74f28f604d07dcb10a2e0be" target="_top" xlink:title="PHPointerList::clear">
<polygon fill="none" stroke="black" points="515,-38.5 515,-57.5 619,-57.5 619,-38.5 515,-38.5"/>
<text text-anchor="middle" x="567" y="-45.5" font-family="FreeSans" font-size="10.00">PHPointerList::clear</text>
</a>
</g>
</g>
<!-- Node3&#45;&gt;Node4 -->
<g id="edge3" class="edge"><title>Node3&#45;&gt;Node4</title>
<path fill="none" stroke="midnightblue" d="M473.788,-35.4856C483.65,-36.824 494.169,-38.2515 504.441,-39.6455"/>
<polygon fill="midnightblue" stroke="midnightblue" points="504.218,-43.1472 514.597,-41.0239 505.159,-36.2108 504.218,-43.1472"/>
</g>
<!-- Node5 -->
<g id="node5" class="node"><title>Node5</title>
<g id="a_node5"><a xlink:href="../../d6/d86/classPHPointerList.html#af5fc4e6958b5b90c57bfb497566f503c" target="_top" xlink:title="PHPointerList::append">
<polygon fill="none" stroke="black" points="510,-0.5 510,-19.5 624,-19.5 624,-0.5 510,-0.5"/>
<text text-anchor="middle" x="567" y="-7.5" font-family="FreeSans" font-size="10.00">PHPointerList::append</text>
</a>
</g>
</g>
<!-- Node3&#45;&gt;Node5 -->
<g id="edge4" class="edge"><title>Node3&#45;&gt;Node5</title>
<path fill="none" stroke="midnightblue" d="M473.788,-22.5144C482.101,-21.3863 490.879,-20.1949 499.584,-19.0136"/>
<polygon fill="midnightblue" stroke="midnightblue" points="500.297,-22.449 509.736,-17.6359 499.356,-15.5125 500.297,-22.449"/>
</g>
</g>
</svg>
