<?xml version="1.0" encoding="UTF-8" standalone="no"?>
<!DOCTYPE svg PUBLIC "-//W3C//DTD SVG 1.1//EN"
 "http://www.w3.org/Graphics/SVG/1.1/DTD/svg11.dtd">
<!-- Generated by graphviz version 2.36.0 (20140111.2315)
 -->
<!-- Title: Fun4AllServer::DisconnectDB Pages: 1 -->
<svg width="608pt" height="66pt"
 viewBox="0.00 0.00 608.00 66.00" xmlns="http://www.w3.org/2000/svg" xmlns:xlink="http://www.w3.org/1999/xlink">
<g id="graph0" class="graph" transform="scale(1 1) rotate(0) translate(4 62)">
<title>Fun4AllServer::DisconnectDB</title>
<!-- Node1 -->
<g id="node1" class="node"><title>Node1</title>
<polygon fill="#bfbfbf" stroke="black" points="0.5,-19.5 0.5,-38.5 145.5,-38.5 145.5,-19.5 0.5,-19.5"/>
<text text-anchor="middle" x="73" y="-26.5" font-family="FreeSans" font-size="10.00">Fun4AllServer::DisconnectDB</text>
</g>
<!-- Node2 -->
<g id="node2" class="node"><title>Node2</title>
<g id="a_node2"><a xlink:href="../../da/d29/classFun4AllServer.html#afcfc5583204cac58b4e66a2406187a18" target="_top" xlink:title="Fun4AllServer::BeginRun">
<polygon fill="none" stroke="black" points="182.5,-19.5 182.5,-38.5 307.5,-38.5 307.5,-19.5 182.5,-19.5"/>
<text text-anchor="middle" x="245" y="-26.5" font-family="FreeSans" font-size="10.00">Fun4AllServer::BeginRun</text>
</a>
</g>
</g>
<!-- Node1&#45;&gt;Node2 -->
<g id="edge1" class="edge"><title>Node1&#45;&gt;Node2</title>
<path fill="none" stroke="midnightblue" d="M155.715,-29C164.71,-29 173.754,-29 182.443,-29"/>
<polygon fill="midnightblue" stroke="midnightblue" points="155.603,-25.5001 145.603,-29 155.603,-32.5001 155.603,-25.5001"/>
</g>
<!-- Node3 -->
<g id="node3" class="node"><title>Node3</title>
<g id="a_node3"><a xlink:href="../../da/d29/classFun4AllServer.html#a11bbc8b2f53bc06e0b05ee202dd6372a" target="_top" xlink:title="run n events (0 means up to end of file) ">
<polygon fill="none" stroke="black" points="344,-19.5 344,-38.5 440,-38.5 440,-19.5 344,-19.5"/>
<text text-anchor="middle" x="392" y="-26.5" font-family="FreeSans" font-size="10.00">Fun4AllServer::run</text>
</a>
</g>
</g>
<!-- Node2&#45;&gt;Node3 -->
<g id="edge2" class="edge"><title>Node2&#45;&gt;Node3</title>
<path fill="none" stroke="midnightblue" d="M318.109,-29C326.823,-29 335.544,-29 343.769,-29"/>
<polygon fill="midnightblue" stroke="midnightblue" points="317.914,-25.5001 307.914,-29 317.914,-32.5001 317.914,-25.5001"/>
</g>
<!-- Node4 -->
<g id="node4" class="node"><title>Node4</title>
<g id="a_node4"><a xlink:href="../../d0/d46/Fun4__SimpleReadMySql_8C.html#a70381893748e3445abc30632beb256ce" target="_top" xlink:title="Fun4_SimpleReadMySql">
<polygon fill="none" stroke="black" points="476.5,-38.5 476.5,-57.5 599.5,-57.5 599.5,-38.5 476.5,-38.5"/>
<text text-anchor="middle" x="538" y="-45.5" font-family="FreeSans" font-size="10.00">Fun4_SimpleReadMySql</text>
</a>
</g>
</g>
<!-- Node3&#45;&gt;Node4 -->
<g id="edge3" class="edge"><title>Node3&#45;&gt;Node4</title>
<path fill="none" stroke="midnightblue" d="M450.109,-36.5352C458.736,-37.6735 467.66,-38.851 476.358,-39.9986"/>
<polygon fill="midnightblue" stroke="midnightblue" points="450.523,-33.0596 440.151,-35.2213 449.607,-39.9994 450.523,-33.0596"/>
</g>
<!-- Node5 -->
<g id="node5" class="node"><title>Node5</title>
<g id="a_node5"><a xlink:href="../../d9/d8c/Fun4ReadMySql_8C.html#a729b39fa627147c63772f28c9be36b62" target="_top" xlink:title="Fun4ReadMySql">
<polygon fill="none" stroke="black" points="494,-0.5 494,-19.5 582,-19.5 582,-0.5 494,-0.5"/>
<text text-anchor="middle" x="538" y="-7.5" font-family="FreeSans" font-size="10.00">Fun4ReadMySql</text>
</a>
</g>
</g>
<!-- Node3&#45;&gt;Node5 -->
<g id="edge4" class="edge"><title>Node3&#45;&gt;Node5</title>
<path fill="none" stroke="midnightblue" d="M450.457,-21.4189C464.854,-19.5193 480.061,-17.5128 493.643,-15.7208"/>
<polygon fill="midnightblue" stroke="midnightblue" points="449.607,-18.0006 440.151,-22.7787 450.523,-24.9404 449.607,-18.0006"/>
</g>
</g>
</svg>
