<?xml version="1.0" encoding="UTF-8" standalone="no"?>
<!DOCTYPE svg PUBLIC "-//W3C//DTD SVG 1.1//EN"
 "http://www.w3.org/Graphics/SVG/1.1/DTD/svg11.dtd">
<!-- Generated by graphviz version 2.36.0 (20140111.2315)
 -->
<!-- Title: Fun4AllServer::CountOutNodesRecursive Pages: 1 -->
<svg width="816pt" height="96pt"
 viewBox="0.00 0.00 816.00 96.00" xmlns="http://www.w3.org/2000/svg" xmlns:xlink="http://www.w3.org/1999/xlink">
<g id="graph0" class="graph" transform="scale(1 1) rotate(0) translate(4 92)">
<title>Fun4AllServer::CountOutNodesRecursive</title>
<!-- Node1 -->
<g id="node1" class="node"><title>Node1</title>
<polygon fill="#bfbfbf" stroke="black" points="0,-36 0,-66 152,-66 152,-36 0,-36"/>
<text text-anchor="start" x="8" y="-54" font-family="FreeSans" font-size="10.00">Fun4AllServer::CountOutNodes</text>
<text text-anchor="middle" x="76" y="-43" font-family="FreeSans" font-size="10.00">Recursive</text>
</g>
<!-- Node2 -->
<g id="node2" class="node"><title>Node2</title>
<g id="a_node2"><a xlink:href="../../da/d29/classFun4AllServer.html#a6f3f13c3a8b5c29457e694ba910296aa" target="_top" xlink:title="Fun4AllServer::CountOutNodes">
<polygon fill="none" stroke="black" points="188,-41.5 188,-60.5 340,-60.5 340,-41.5 188,-41.5"/>
<text text-anchor="middle" x="264" y="-48.5" font-family="FreeSans" font-size="10.00">Fun4AllServer::CountOutNodes</text>
</a>
</g>
</g>
<!-- Node1&#45;&gt;Node2 -->
<g id="edge1" class="edge"><title>Node1&#45;&gt;Node2</title>
<path fill="none" stroke="midnightblue" d="M162.147,-51C170.742,-51 179.426,-51 187.905,-51"/>
<polygon fill="midnightblue" stroke="midnightblue" points="162.117,-47.5001 152.117,-51 162.117,-54.5001 162.117,-47.5001"/>
</g>
<!-- Node3 -->
<g id="node3" class="node"><title>Node3</title>
<g id="a_node3"><a xlink:href="../../da/d29/classFun4AllServer.html#a6a65a944dfb40966ace97d35ab1f7942" target="_top" xlink:title="Fun4AllServer::process\l_event">
<polygon fill="none" stroke="black" points="376.5,-36 376.5,-66 493.5,-66 493.5,-36 376.5,-36"/>
<text text-anchor="start" x="384.5" y="-54" font-family="FreeSans" font-size="10.00">Fun4AllServer::process</text>
<text text-anchor="middle" x="435" y="-43" font-family="FreeSans" font-size="10.00">_event</text>
</a>
</g>
</g>
<!-- Node2&#45;&gt;Node3 -->
<g id="edge2" class="edge"><title>Node2&#45;&gt;Node3</title>
<path fill="none" stroke="midnightblue" d="M350.128,-51C359.015,-51 367.894,-51 376.37,-51"/>
<polygon fill="midnightblue" stroke="midnightblue" points="350.11,-47.5001 340.11,-51 350.11,-54.5001 350.11,-47.5001"/>
</g>
<!-- Node4 -->
<g id="node4" class="node"><title>Node4</title>
<g id="a_node4"><a xlink:href="../../da/d29/classFun4AllServer.html#a94738b092fa009fcea45737d8ea41224" target="_top" xlink:title="Fun4AllServer::process\l_event">
<polygon fill="none" stroke="black" points="530.5,-58 530.5,-88 647.5,-88 647.5,-58 530.5,-58"/>
<text text-anchor="start" x="538.5" y="-76" font-family="FreeSans" font-size="10.00">Fun4AllServer::process</text>
<text text-anchor="middle" x="589" y="-65" font-family="FreeSans" font-size="10.00">_event</text>
</a>
</g>
</g>
<!-- Node3&#45;&gt;Node4 -->
<g id="edge3" class="edge"><title>Node3&#45;&gt;Node4</title>
<path fill="none" stroke="midnightblue" d="M504.072,-60.8525C512.817,-62.1183 521.704,-63.4045 530.263,-64.6433"/>
<polygon fill="midnightblue" stroke="midnightblue" points="504.297,-57.3486 493.898,-59.38 503.294,-64.2764 504.297,-57.3486"/>
</g>
<!-- Node5 -->
<g id="node5" class="node"><title>Node5</title>
<g id="a_node5"><a xlink:href="../../da/d29/classFun4AllServer.html#a11bbc8b2f53bc06e0b05ee202dd6372a" target="_top" xlink:title="run n events (0 means up to end of file) ">
<polygon fill="none" stroke="black" points="541,-19.5 541,-38.5 637,-38.5 637,-19.5 541,-19.5"/>
<text text-anchor="middle" x="589" y="-26.5" font-family="FreeSans" font-size="10.00">Fun4AllServer::run</text>
</a>
</g>
</g>
<!-- Node3&#45;&gt;Node5 -->
<g id="edge4" class="edge"><title>Node3&#45;&gt;Node5</title>
<path fill="none" stroke="midnightblue" d="M504.152,-41.1359C516.471,-39.3529 529.067,-37.5297 540.629,-35.8563"/>
<polygon fill="midnightblue" stroke="midnightblue" points="503.294,-37.7236 493.898,-42.62 504.297,-44.6514 503.294,-37.7236"/>
</g>
<!-- Node6 -->
<g id="node6" class="node"><title>Node6</title>
<g id="a_node6"><a xlink:href="../../d0/d46/Fun4__SimpleReadMySql_8C.html#a70381893748e3445abc30632beb256ce" target="_top" xlink:title="Fun4_SimpleReadMySql">
<polygon fill="none" stroke="black" points="684.5,-38.5 684.5,-57.5 807.5,-57.5 807.5,-38.5 684.5,-38.5"/>
<text text-anchor="middle" x="746" y="-45.5" font-family="FreeSans" font-size="10.00">Fun4_SimpleReadMySql</text>
</a>
</g>
</g>
<!-- Node5&#45;&gt;Node6 -->
<g id="edge5" class="edge"><title>Node5&#45;&gt;Node6</title>
<path fill="none" stroke="midnightblue" d="M647.328,-36.0273C659.441,-37.5121 672.26,-39.0835 684.487,-40.5823"/>
<polygon fill="midnightblue" stroke="midnightblue" points="647.699,-32.5467 637.347,-34.8039 646.847,-39.4947 647.699,-32.5467"/>
</g>
<!-- Node7 -->
<g id="node7" class="node"><title>Node7</title>
<g id="a_node7"><a xlink:href="../../d9/d8c/Fun4ReadMySql_8C.html#a729b39fa627147c63772f28c9be36b62" target="_top" xlink:title="Fun4ReadMySql">
<polygon fill="none" stroke="black" points="702,-0.5 702,-19.5 790,-19.5 790,-0.5 702,-0.5"/>
<text text-anchor="middle" x="746" y="-7.5" font-family="FreeSans" font-size="10.00">Fun4ReadMySql</text>
</a>
</g>
</g>
<!-- Node5&#45;&gt;Node7 -->
<g id="edge6" class="edge"><title>Node5&#45;&gt;Node7</title>
<path fill="none" stroke="midnightblue" d="M647.457,-21.9569C665.476,-19.7481 685.048,-17.349 701.898,-15.2835"/>
<polygon fill="midnightblue" stroke="midnightblue" points="646.847,-18.5054 637.347,-23.1961 647.699,-25.4533 646.847,-18.5054"/>
</g>
</g>
</svg>
