<?xml version="1.0" encoding="UTF-8" standalone="no"?>
<!DOCTYPE svg PUBLIC "-//W3C//DTD SVG 1.1//EN"
 "http://www.w3.org/Graphics/SVG/1.1/DTD/svg11.dtd">
<!-- Generated by graphviz version 2.36.0 (20140111.2315)
 -->
<!-- Title: Fun4AllServer::ResetNodeTree Pages: 1 -->
<svg width="628pt" height="96pt"
 viewBox="0.00 0.00 628.00 96.00" xmlns="http://www.w3.org/2000/svg" xmlns:xlink="http://www.w3.org/1999/xlink">
<g id="graph0" class="graph" transform="scale(1 1) rotate(0) translate(4 92)">
<title>Fun4AllServer::ResetNodeTree</title>
<!-- Node1 -->
<g id="node1" class="node"><title>Node1</title>
<polygon fill="#bfbfbf" stroke="black" points="0.5,-41.5 0.5,-60.5 151.5,-60.5 151.5,-41.5 0.5,-41.5"/>
<text text-anchor="middle" x="76" y="-48.5" font-family="FreeSans" font-size="10.00">Fun4AllServer::ResetNodeTree</text>
</g>
<!-- Node2 -->
<g id="node2" class="node"><title>Node2</title>
<g id="a_node2"><a xlink:href="../../da/d29/classFun4AllServer.html#a6a65a944dfb40966ace97d35ab1f7942" target="_top" xlink:title="Fun4AllServer::process\l_event">
<polygon fill="none" stroke="black" points="188.5,-58 188.5,-88 305.5,-88 305.5,-58 188.5,-58"/>
<text text-anchor="start" x="196.5" y="-76" font-family="FreeSans" font-size="10.00">Fun4AllServer::process</text>
<text text-anchor="middle" x="247" y="-65" font-family="FreeSans" font-size="10.00">_event</text>
</a>
</g>
</g>
<!-- Node1&#45;&gt;Node2 -->
<g id="edge1" class="edge"><title>Node1&#45;&gt;Node2</title>
<path fill="none" stroke="midnightblue" d="M160.361,-61.8517C169.804,-63.081 179.267,-64.3128 188.276,-65.4857"/>
<polygon fill="midnightblue" stroke="midnightblue" points="160.511,-58.3418 150.143,-60.5216 159.607,-65.2833 160.511,-58.3418"/>
</g>
<!-- Node4 -->
<g id="node4" class="node"><title>Node4</title>
<g id="a_node4"><a xlink:href="../../da/d29/classFun4AllServer.html#a11bbc8b2f53bc06e0b05ee202dd6372a" target="_top" xlink:title="run n events (0 means up to end of file) ">
<polygon fill="none" stroke="black" points="353,-19.5 353,-38.5 449,-38.5 449,-19.5 353,-19.5"/>
<text text-anchor="middle" x="401" y="-26.5" font-family="FreeSans" font-size="10.00">Fun4AllServer::run</text>
</a>
</g>
</g>
<!-- Node1&#45;&gt;Node4 -->
<g id="edge6" class="edge"><title>Node1&#45;&gt;Node4</title>
<path fill="none" stroke="midnightblue" d="M161.518,-45.2433C222.574,-41.0848 302.79,-35.6211 352.869,-32.2102"/>
<polygon fill="midnightblue" stroke="midnightblue" points="161.247,-41.7536 151.508,-45.9251 161.723,-48.7374 161.247,-41.7536"/>
</g>
<!-- Node3 -->
<g id="node3" class="node"><title>Node3</title>
<g id="a_node3"><a xlink:href="../../da/d29/classFun4AllServer.html#a94738b092fa009fcea45737d8ea41224" target="_top" xlink:title="Fun4AllServer::process\l_event">
<polygon fill="none" stroke="black" points="342.5,-58 342.5,-88 459.5,-88 459.5,-58 342.5,-58"/>
<text text-anchor="start" x="350.5" y="-76" font-family="FreeSans" font-size="10.00">Fun4AllServer::process</text>
<text text-anchor="middle" x="401" y="-65" font-family="FreeSans" font-size="10.00">_event</text>
</a>
</g>
</g>
<!-- Node2&#45;&gt;Node3 -->
<g id="edge2" class="edge"><title>Node2&#45;&gt;Node3</title>
<path fill="none" stroke="midnightblue" d="M316.072,-73C324.817,-73 333.704,-73 342.263,-73"/>
<polygon fill="midnightblue" stroke="midnightblue" points="315.898,-69.5001 305.898,-73 315.898,-76.5001 315.898,-69.5001"/>
</g>
<!-- Node2&#45;&gt;Node4 -->
<g id="edge3" class="edge"><title>Node2&#45;&gt;Node4</title>
<path fill="none" stroke="midnightblue" d="M309.671,-55.1479C329.253,-49.4793 350.153,-43.4295 366.911,-38.5783"/>
<polygon fill="midnightblue" stroke="midnightblue" points="308.517,-51.8381 299.885,-57.9808 310.464,-58.5621 308.517,-51.8381"/>
</g>
<!-- Node5 -->
<g id="node5" class="node"><title>Node5</title>
<g id="a_node5"><a xlink:href="../../d0/d46/Fun4__SimpleReadMySql_8C.html#a70381893748e3445abc30632beb256ce" target="_top" xlink:title="Fun4_SimpleReadMySql">
<polygon fill="none" stroke="black" points="496.5,-38.5 496.5,-57.5 619.5,-57.5 619.5,-38.5 496.5,-38.5"/>
<text text-anchor="middle" x="558" y="-45.5" font-family="FreeSans" font-size="10.00">Fun4_SimpleReadMySql</text>
</a>
</g>
</g>
<!-- Node4&#45;&gt;Node5 -->
<g id="edge4" class="edge"><title>Node4&#45;&gt;Node5</title>
<path fill="none" stroke="midnightblue" d="M459.328,-36.0273C471.441,-37.5121 484.26,-39.0835 496.487,-40.5823"/>
<polygon fill="midnightblue" stroke="midnightblue" points="459.699,-32.5467 449.347,-34.8039 458.847,-39.4947 459.699,-32.5467"/>
</g>
<!-- Node6 -->
<g id="node6" class="node"><title>Node6</title>
<g id="a_node6"><a xlink:href="../../d9/d8c/Fun4ReadMySql_8C.html#a729b39fa627147c63772f28c9be36b62" target="_top" xlink:title="Fun4ReadMySql">
<polygon fill="none" stroke="black" points="514,-0.5 514,-19.5 602,-19.5 602,-0.5 514,-0.5"/>
<text text-anchor="middle" x="558" y="-7.5" font-family="FreeSans" font-size="10.00">Fun4ReadMySql</text>
</a>
</g>
</g>
<!-- Node4&#45;&gt;Node6 -->
<g id="edge5" class="edge"><title>Node4&#45;&gt;Node6</title>
<path fill="none" stroke="midnightblue" d="M459.457,-21.9569C477.476,-19.7481 497.048,-17.349 513.898,-15.2835"/>
<polygon fill="midnightblue" stroke="midnightblue" points="458.847,-18.5054 449.347,-23.1961 459.699,-25.4533 458.847,-18.5054"/>
</g>
</g>
</svg>
