<?xml version="1.0" encoding="UTF-8" standalone="no"?>
<!DOCTYPE svg PUBLIC "-//W3C//DTD SVG 1.1//EN"
 "http://www.w3.org/Graphics/SVG/1.1/DTD/svg11.dtd">
<!-- Generated by graphviz version 2.36.0 (20140111.2315)
 -->
<!-- Title: Fun4AllServer::EventNumber Pages: 1 -->
<svg width="478pt" height="38pt"
 viewBox="0.00 0.00 478.00 38.00" xmlns="http://www.w3.org/2000/svg" xmlns:xlink="http://www.w3.org/1999/xlink">
<g id="graph0" class="graph" transform="scale(1 1) rotate(0) translate(4 34)">
<title>Fun4AllServer::EventNumber</title>
<!-- Node1 -->
<g id="node1" class="node"><title>Node1</title>
<polygon fill="#bfbfbf" stroke="black" points="0,-5.5 0,-24.5 142,-24.5 142,-5.5 0,-5.5"/>
<text text-anchor="middle" x="71" y="-12.5" font-family="FreeSans" font-size="10.00">Fun4AllServer::EventNumber</text>
</g>
<!-- Node2 -->
<g id="node2" class="node"><title>Node2</title>
<g id="a_node2"><a xlink:href="../../dd/ded/classFun4AllSyncManager.html#a8b09000694a12e572075bc5f9824b13f" target="_top" xlink:title="Fun4AllSyncManager\l::CurrentEvent">
<polygon fill="none" stroke="black" points="178.5,-0 178.5,-30 287.5,-30 287.5,-0 178.5,-0"/>
<text text-anchor="start" x="186.5" y="-18" font-family="FreeSans" font-size="10.00">Fun4AllSyncManager</text>
<text text-anchor="middle" x="233" y="-7" font-family="FreeSans" font-size="10.00">::CurrentEvent</text>
</a>
</g>
</g>
<!-- Node1&#45;&gt;Node2 -->
<g id="edge1" class="edge"><title>Node1&#45;&gt;Node2</title>
<path fill="none" stroke="midnightblue" d="M152.427,-15C161.176,-15 169.919,-15 178.235,-15"/>
<polygon fill="midnightblue" stroke="midnightblue" points="152.178,-11.5001 142.178,-15 152.178,-18.5001 152.178,-11.5001"/>
</g>
<!-- Node3 -->
<g id="node3" class="node"><title>Node3</title>
<g id="a_node3"><a xlink:href="../../da/dd8/classFun4AllPrdfInputManager.html#ac3f313ef5571ce32cd40799791e2ea56" target="_top" xlink:title="Fun4AllPrdfInputManager::run">
<polygon fill="none" stroke="black" points="324.5,-5.5 324.5,-24.5 469.5,-24.5 469.5,-5.5 324.5,-5.5"/>
<text text-anchor="middle" x="397" y="-12.5" font-family="FreeSans" font-size="10.00">Fun4AllPrdfInputManager::run</text>
</a>
</g>
</g>
<!-- Node2&#45;&gt;Node3 -->
<g id="edge2" class="edge"><title>Node2&#45;&gt;Node3</title>
<path fill="none" stroke="midnightblue" d="M297.983,-15C306.663,-15 315.617,-15 324.419,-15"/>
<polygon fill="midnightblue" stroke="midnightblue" points="297.944,-11.5001 287.944,-15 297.944,-18.5001 297.944,-11.5001"/>
</g>
</g>
</svg>
