<?xml version="1.0" encoding="UTF-8" standalone="no"?>
<!DOCTYPE svg PUBLIC "-//W3C//DTD SVG 1.1//EN"
 "http://www.w3.org/Graphics/SVG/1.1/DTD/svg11.dtd">
<!-- Generated by graphviz version 2.36.0 (20140111.2315)
 -->
<!-- Title: Fun4AllServer::MakeNodesPersistent Pages: 1 -->
<svg width="428pt" height="66pt"
 viewBox="0.00 0.00 428.00 66.00" xmlns="http://www.w3.org/2000/svg" xmlns:xlink="http://www.w3.org/1999/xlink">
<g id="graph0" class="graph" transform="scale(1 1) rotate(0) translate(4 62)">
<title>Fun4AllServer::MakeNodesPersistent</title>
<!-- Node1 -->
<g id="node1" class="node"><title>Node1</title>
<polygon fill="#bfbfbf" stroke="black" points="0.5,-14 0.5,-44 135.5,-44 135.5,-14 0.5,-14"/>
<text text-anchor="start" x="8.5" y="-32" font-family="FreeSans" font-size="10.00">Fun4AllServer::MakeNodes</text>
<text text-anchor="middle" x="68" y="-21" font-family="FreeSans" font-size="10.00">Persistent</text>
</g>
<!-- Node2 -->
<g id="node2" class="node"><title>Node2</title>
<g id="a_node2"><a xlink:href="../../d5/d07/classPHNodeIterator.html#a110a5b87a02a22deecae334f32387ffa" target="_top" xlink:title="PHNodeIterator::ls">
<polygon fill="none" stroke="black" points="172.5,-19.5 172.5,-38.5 269.5,-38.5 269.5,-19.5 172.5,-19.5"/>
<text text-anchor="middle" x="221" y="-26.5" font-family="FreeSans" font-size="10.00">PHNodeIterator::ls</text>
</a>
</g>
</g>
<!-- Node1&#45;&gt;Node2 -->
<g id="edge1" class="edge"><title>Node1&#45;&gt;Node2</title>
<path fill="none" stroke="midnightblue" d="M135.67,-29C144.529,-29 153.552,-29 162.242,-29"/>
<polygon fill="midnightblue" stroke="midnightblue" points="162.262,-32.5001 172.262,-29 162.261,-25.5001 162.262,-32.5001"/>
</g>
<!-- Node3 -->
<g id="node3" class="node"><title>Node3</title>
<g id="a_node3"><a xlink:href="../../d6/d86/classPHPointerList.html#a560c9339d74f28f604d07dcb10a2e0be" target="_top" xlink:title="PHPointerList::clear">
<polygon fill="none" stroke="black" points="311,-38.5 311,-57.5 415,-57.5 415,-38.5 311,-38.5"/>
<text text-anchor="middle" x="363" y="-45.5" font-family="FreeSans" font-size="10.00">PHPointerList::clear</text>
</a>
</g>
</g>
<!-- Node2&#45;&gt;Node3 -->
<g id="edge2" class="edge"><title>Node2&#45;&gt;Node3</title>
<path fill="none" stroke="midnightblue" d="M269.788,-35.4856C279.65,-36.824 290.169,-38.2515 300.441,-39.6455"/>
<polygon fill="midnightblue" stroke="midnightblue" points="300.218,-43.1472 310.597,-41.0239 301.159,-36.2108 300.218,-43.1472"/>
</g>
<!-- Node4 -->
<g id="node4" class="node"><title>Node4</title>
<g id="a_node4"><a xlink:href="../../d6/d86/classPHPointerList.html#af5fc4e6958b5b90c57bfb497566f503c" target="_top" xlink:title="PHPointerList::append">
<polygon fill="none" stroke="black" points="306,-0.5 306,-19.5 420,-19.5 420,-0.5 306,-0.5"/>
<text text-anchor="middle" x="363" y="-7.5" font-family="FreeSans" font-size="10.00">PHPointerList::append</text>
</a>
</g>
</g>
<!-- Node2&#45;&gt;Node4 -->
<g id="edge3" class="edge"><title>Node2&#45;&gt;Node4</title>
<path fill="none" stroke="midnightblue" d="M269.788,-22.5144C278.101,-21.3863 286.879,-20.1949 295.584,-19.0136"/>
<polygon fill="midnightblue" stroke="midnightblue" points="296.297,-22.449 305.736,-17.6359 295.356,-15.5125 296.297,-22.449"/>
</g>
</g>
</svg>
