<?xml version="1.0" encoding="UTF-8" standalone="no"?>
<!DOCTYPE svg PUBLIC "-//W3C//DTD SVG 1.1//EN"
 "http://www.w3.org/Graphics/SVG/1.1/DTD/svg11.dtd">
<!-- Generated by graphviz version 2.36.0 (20140111.2315)
 -->
<!-- Title: Fun4AllServer::Fun4AllServer Pages: 1 -->
<svg width="802pt" height="177pt"
 viewBox="0.00 0.00 802.00 176.93" xmlns="http://www.w3.org/2000/svg" xmlns:xlink="http://www.w3.org/1999/xlink">
<g id="graph0" class="graph" transform="scale(1 1) rotate(0) translate(4 172.931)">
<title>Fun4AllServer::Fun4AllServer</title>
<!-- Node1 -->
<g id="node1" class="node"><title>Node1</title>
<polygon fill="#bfbfbf" stroke="black" points="0,-102.5 0,-121.5 144,-121.5 144,-102.5 0,-102.5"/>
<text text-anchor="middle" x="72" y="-109.5" font-family="FreeSans" font-size="10.00">Fun4AllServer::Fun4AllServer</text>
</g>
<!-- Node2 -->
<g id="node2" class="node"><title>Node2</title>
<g id="a_node2"><a xlink:href="../../da/d29/classFun4AllServer.html#aa1939c3e2c3113cce0a6415103b4f5a5" target="_top" xlink:title="Fun4AllServer::InitAll">
<polygon fill="none" stroke="black" points="180.5,-102.5 180.5,-121.5 287.5,-121.5 287.5,-102.5 180.5,-102.5"/>
<text text-anchor="middle" x="234" y="-109.5" font-family="FreeSans" font-size="10.00">Fun4AllServer::InitAll</text>
</a>
</g>
</g>
<!-- Node1&#45;&gt;Node2 -->
<g id="edge1" class="edge"><title>Node1&#45;&gt;Node2</title>
<path fill="none" stroke="midnightblue" d="M144.11,-112C152.773,-112 161.577,-112 170.108,-112"/>
<polygon fill="midnightblue" stroke="midnightblue" points="170.352,-115.5 180.352,-112 170.352,-108.5 170.352,-115.5"/>
</g>
<!-- Node3 -->
<g id="node3" class="node"><title>Node3</title>
<g id="a_node3"><a xlink:href="../../d5/dec/classFun4AllBase.html#a41f9ac377743d046f590617fd6f4f0ed" target="_top" xlink:title="Returns the name of this module. ">
<polygon fill="none" stroke="black" points="520.5,-145.5 520.5,-164.5 623.5,-164.5 623.5,-145.5 520.5,-145.5"/>
<text text-anchor="middle" x="572" y="-152.5" font-family="FreeSans" font-size="10.00">Fun4AllBase::Name</text>
</a>
</g>
</g>
<!-- Node2&#45;&gt;Node3 -->
<g id="edge2" class="edge"><title>Node2&#45;&gt;Node3</title>
<path fill="none" stroke="midnightblue" d="M248.361,-121.522C265.098,-132.809 295.1,-150.973 324,-158 385.986,-173.072 459.332,-169.615 509.908,-164.074"/>
<polygon fill="midnightblue" stroke="midnightblue" points="510.494,-167.53 520.026,-162.905 509.69,-160.576 510.494,-167.53"/>
</g>
<!-- Node4 -->
<g id="node4" class="node"><title>Node4</title>
<g id="a_node4"><a xlink:href="../../da/d29/classFun4AllServer.html#a377f113767f24ce6413e678752ed7f53" target="_top" xlink:title="Fun4AllServer::registerHisto\lManager">
<polygon fill="none" stroke="black" points="325,-119 325,-149 463,-149 463,-119 325,-119"/>
<text text-anchor="start" x="333" y="-137" font-family="FreeSans" font-size="10.00">Fun4AllServer::registerHisto</text>
<text text-anchor="middle" x="394" y="-126" font-family="FreeSans" font-size="10.00">Manager</text>
</a>
</g>
</g>
<!-- Node2&#45;&gt;Node4 -->
<g id="edge3" class="edge"><title>Node2&#45;&gt;Node4</title>
<path fill="none" stroke="midnightblue" d="M287.612,-119.326C296.38,-120.547 305.638,-121.836 314.88,-123.122"/>
<polygon fill="midnightblue" stroke="midnightblue" points="314.491,-126.602 324.878,-124.515 315.456,-119.669 314.491,-126.602"/>
</g>
<!-- Node5 -->
<g id="node5" class="node"><title>Node5</title>
<g id="a_node5"><a xlink:href="../../da/d29/classFun4AllServer.html#a531952321df1183d357e6fec6db28103" target="_top" xlink:title="Fun4AllServer::registerHisto">
<polygon fill="none" stroke="black" points="325,-80.5 325,-99.5 463,-99.5 463,-80.5 325,-80.5"/>
<text text-anchor="middle" x="394" y="-87.5" font-family="FreeSans" font-size="10.00">Fun4AllServer::registerHisto</text>
</a>
</g>
</g>
<!-- Node2&#45;&gt;Node5 -->
<g id="edge5" class="edge"><title>Node2&#45;&gt;Node5</title>
<path fill="none" stroke="midnightblue" d="M287.612,-104.674C296.38,-103.453 305.638,-102.164 314.88,-100.878"/>
<polygon fill="midnightblue" stroke="midnightblue" points="315.456,-104.331 324.878,-99.4854 314.491,-97.398 315.456,-104.331"/>
</g>
<!-- Node7 -->
<g id="node7" class="node"><title>Node7</title>
<g id="a_node7"><a xlink:href="../../da/d29/classFun4AllServer.html#a2ebfcdcf706670c98c189bfa93c3ff89" target="_top" xlink:title="Fun4AllServer::InitNodeTree">
<polygon fill="none" stroke="black" points="324.5,-41.5 324.5,-60.5 463.5,-60.5 463.5,-41.5 324.5,-41.5"/>
<text text-anchor="middle" x="394" y="-48.5" font-family="FreeSans" font-size="10.00">Fun4AllServer::InitNodeTree</text>
</a>
</g>
</g>
<!-- Node2&#45;&gt;Node7 -->
<g id="edge7" class="edge"><title>Node2&#45;&gt;Node7</title>
<path fill="none" stroke="midnightblue" d="M253.748,-102.364C271.524,-93.4687 299.134,-80.2722 324,-71 331.151,-68.3337 338.825,-65.7994 346.364,-63.4864"/>
<polygon fill="midnightblue" stroke="midnightblue" points="347.553,-66.7844 356.141,-60.5806 345.559,-60.0745 347.553,-66.7844"/>
</g>
<!-- Node4&#45;&gt;Node3 -->
<g id="edge4" class="edge"><title>Node4&#45;&gt;Node3</title>
<path fill="none" stroke="midnightblue" d="M463.046,-142.119C478.529,-143.967 494.882,-145.918 510.048,-147.727"/>
<polygon fill="midnightblue" stroke="midnightblue" points="509.988,-151.245 520.332,-148.954 510.818,-144.294 509.988,-151.245"/>
</g>
<!-- Node6 -->
<g id="node6" class="node"><title>Node6</title>
<g id="a_node6"><a xlink:href="../../d3/d96/classFun4AllHistoManager.html#a7e1354855437fa28bb0d29dc0581d0a6" target="_top" xlink:title="Fun4AllHistoManager\l::registerHisto">
<polygon fill="none" stroke="black" points="517,-77 517,-107 627,-107 627,-77 517,-77"/>
<text text-anchor="start" x="525" y="-95" font-family="FreeSans" font-size="10.00">Fun4AllHistoManager</text>
<text text-anchor="middle" x="572" y="-84" font-family="FreeSans" font-size="10.00">::registerHisto</text>
</a>
</g>
</g>
<!-- Node5&#45;&gt;Node6 -->
<g id="edge6" class="edge"><title>Node5&#45;&gt;Node6</title>
<path fill="none" stroke="midnightblue" d="M463.046,-90.7733C477.368,-90.936 492.435,-91.1072 506.618,-91.2684"/>
<polygon fill="midnightblue" stroke="midnightblue" points="506.726,-94.7697 516.766,-91.3837 506.806,-87.7702 506.726,-94.7697"/>
</g>
<!-- Node8 -->
<g id="node8" class="node"><title>Node8</title>
<g id="a_node8"><a xlink:href="../../d5/dca/classPHCompositeNode.html#ac7dbf017614c324e218a001d729607bf" target="_top" xlink:title="PHCompositeNode::addNode">
<polygon fill="none" stroke="black" points="500,-38.5 500,-57.5 644,-57.5 644,-38.5 500,-38.5"/>
<text text-anchor="middle" x="572" y="-45.5" font-family="FreeSans" font-size="10.00">PHCompositeNode::addNode</text>
</a>
</g>
</g>
<!-- Node7&#45;&gt;Node8 -->
<g id="edge8" class="edge"><title>Node7&#45;&gt;Node8</title>
<path fill="none" stroke="midnightblue" d="M463.55,-49.8315C472.083,-49.6861 480.873,-49.5363 489.576,-49.3879"/>
<polygon fill="midnightblue" stroke="midnightblue" points="489.794,-52.8848 499.733,-49.2148 489.675,-45.8858 489.794,-52.8848"/>
</g>
<!-- Node9 -->
<g id="node9" class="node"><title>Node9</title>
<g id="a_node9"><a xlink:href="../../dc/d82/classPHNode.html#aca3576f926a4401eddc3d88bf0ce0de3" target="_top" xlink:title="PHNode::getName">
<polygon fill="none" stroke="black" points="688,-76.5 688,-95.5 786,-95.5 786,-76.5 688,-76.5"/>
<text text-anchor="middle" x="737" y="-83.5" font-family="FreeSans" font-size="10.00">PHNode::getName</text>
</a>
</g>
</g>
<!-- Node8&#45;&gt;Node9 -->
<g id="edge9" class="edge"><title>Node8&#45;&gt;Node9</title>
<path fill="none" stroke="midnightblue" d="M614.132,-57.589C635.738,-62.6261 662.409,-68.8438 685.286,-74.1771"/>
<polygon fill="midnightblue" stroke="midnightblue" points="684.63,-77.6181 695.164,-76.4799 686.22,-70.8009 684.63,-77.6181"/>
</g>
<!-- Node10 -->
<g id="node10" class="node"><title>Node10</title>
<g id="a_node10"><a xlink:href="../../dc/d82/classPHNode.html#adda2bd6cef2d5067bbe3016a990b7198" target="_top" xlink:title="PHNode::setParent">
<polygon fill="none" stroke="black" points="686.5,-38.5 686.5,-57.5 787.5,-57.5 787.5,-38.5 686.5,-38.5"/>
<text text-anchor="middle" x="737" y="-45.5" font-family="FreeSans" font-size="10.00">PHNode::setParent</text>
</a>
</g>
</g>
<!-- Node8&#45;&gt;Node10 -->
<g id="edge10" class="edge"><title>Node8&#45;&gt;Node10</title>
<path fill="none" stroke="midnightblue" d="M644.02,-48C654.701,-48 665.626,-48 676.045,-48"/>
<polygon fill="midnightblue" stroke="midnightblue" points="676.268,-51.5001 686.268,-48 676.268,-44.5001 676.268,-51.5001"/>
</g>
<!-- Node11 -->
<g id="node11" class="node"><title>Node11</title>
<g id="a_node11"><a xlink:href="../../d6/d86/classPHPointerList.html#af5fc4e6958b5b90c57bfb497566f503c" target="_top" xlink:title="PHPointerList::append">
<polygon fill="none" stroke="black" points="680,-0.5 680,-19.5 794,-19.5 794,-0.5 680,-0.5"/>
<text text-anchor="middle" x="737" y="-7.5" font-family="FreeSans" font-size="10.00">PHPointerList::append</text>
</a>
</g>
</g>
<!-- Node8&#45;&gt;Node11 -->
<g id="edge11" class="edge"><title>Node8&#45;&gt;Node11</title>
<path fill="none" stroke="midnightblue" d="M614.132,-38.411C635.738,-33.3739 662.409,-27.1562 685.286,-21.8229"/>
<polygon fill="midnightblue" stroke="midnightblue" points="686.22,-25.1991 695.164,-19.5201 684.63,-18.3819 686.22,-25.1991"/>
</g>
</g>
</svg>
