<?xml version="1.0" encoding="UTF-8" standalone="no"?>
<!DOCTYPE svg PUBLIC "-//W3C//DTD SVG 1.1//EN"
 "http://www.w3.org/Graphics/SVG/1.1/DTD/svg11.dtd">
<!-- Generated by graphviz version 2.36.0 (20140111.2315)
 -->
<!-- Title: Fun4AllServer::process_event Pages: 1 -->
<svg width="440pt" height="96pt"
 viewBox="0.00 0.00 440.00 96.00" xmlns="http://www.w3.org/2000/svg" xmlns:xlink="http://www.w3.org/1999/xlink">
<g id="graph0" class="graph" transform="scale(1 1) rotate(0) translate(4 92)">
<title>Fun4AllServer::process_event</title>
<!-- Node1 -->
<g id="node1" class="node"><title>Node1</title>
<polygon fill="#bfbfbf" stroke="black" points="0.5,-36 0.5,-66 117.5,-66 117.5,-36 0.5,-36"/>
<text text-anchor="start" x="8.5" y="-54" font-family="FreeSans" font-size="10.00">Fun4AllServer::process</text>
<text text-anchor="middle" x="59" y="-43" font-family="FreeSans" font-size="10.00">_event</text>
</g>
<!-- Node2 -->
<g id="node2" class="node"><title>Node2</title>
<g id="a_node2"><a xlink:href="../../da/d29/classFun4AllServer.html#a94738b092fa009fcea45737d8ea41224" target="_top" xlink:title="Fun4AllServer::process\l_event">
<polygon fill="none" stroke="black" points="154.5,-58 154.5,-88 271.5,-88 271.5,-58 154.5,-58"/>
<text text-anchor="start" x="162.5" y="-76" font-family="FreeSans" font-size="10.00">Fun4AllServer::process</text>
<text text-anchor="middle" x="213" y="-65" font-family="FreeSans" font-size="10.00">_event</text>
</a>
</g>
</g>
<!-- Node1&#45;&gt;Node2 -->
<g id="edge1" class="edge"><title>Node1&#45;&gt;Node2</title>
<path fill="none" stroke="midnightblue" d="M128.072,-60.8525C136.817,-62.1183 145.704,-63.4045 154.263,-64.6433"/>
<polygon fill="midnightblue" stroke="midnightblue" points="128.297,-57.3486 117.898,-59.38 127.294,-64.2764 128.297,-57.3486"/>
</g>
<!-- Node3 -->
<g id="node3" class="node"><title>Node3</title>
<g id="a_node3"><a xlink:href="../../da/d29/classFun4AllServer.html#a11bbc8b2f53bc06e0b05ee202dd6372a" target="_top" xlink:title="run n events (0 means up to end of file) ">
<polygon fill="none" stroke="black" points="165,-19.5 165,-38.5 261,-38.5 261,-19.5 165,-19.5"/>
<text text-anchor="middle" x="213" y="-26.5" font-family="FreeSans" font-size="10.00">Fun4AllServer::run</text>
</a>
</g>
</g>
<!-- Node1&#45;&gt;Node3 -->
<g id="edge2" class="edge"><title>Node1&#45;&gt;Node3</title>
<path fill="none" stroke="midnightblue" d="M128.152,-41.1359C140.471,-39.3529 153.067,-37.5297 164.629,-35.8563"/>
<polygon fill="midnightblue" stroke="midnightblue" points="127.294,-37.7236 117.898,-42.62 128.297,-44.6514 127.294,-37.7236"/>
</g>
<!-- Node4 -->
<g id="node4" class="node"><title>Node4</title>
<g id="a_node4"><a xlink:href="../../d0/d46/Fun4__SimpleReadMySql_8C.html#a70381893748e3445abc30632beb256ce" target="_top" xlink:title="Fun4_SimpleReadMySql">
<polygon fill="none" stroke="black" points="308.5,-38.5 308.5,-57.5 431.5,-57.5 431.5,-38.5 308.5,-38.5"/>
<text text-anchor="middle" x="370" y="-45.5" font-family="FreeSans" font-size="10.00">Fun4_SimpleReadMySql</text>
</a>
</g>
</g>
<!-- Node3&#45;&gt;Node4 -->
<g id="edge3" class="edge"><title>Node3&#45;&gt;Node4</title>
<path fill="none" stroke="midnightblue" d="M271.328,-36.0273C283.441,-37.5121 296.26,-39.0835 308.487,-40.5823"/>
<polygon fill="midnightblue" stroke="midnightblue" points="271.699,-32.5467 261.347,-34.8039 270.847,-39.4947 271.699,-32.5467"/>
</g>
<!-- Node5 -->
<g id="node5" class="node"><title>Node5</title>
<g id="a_node5"><a xlink:href="../../d9/d8c/Fun4ReadMySql_8C.html#a729b39fa627147c63772f28c9be36b62" target="_top" xlink:title="Fun4ReadMySql">
<polygon fill="none" stroke="black" points="326,-0.5 326,-19.5 414,-19.5 414,-0.5 326,-0.5"/>
<text text-anchor="middle" x="370" y="-7.5" font-family="FreeSans" font-size="10.00">Fun4ReadMySql</text>
</a>
</g>
</g>
<!-- Node3&#45;&gt;Node5 -->
<g id="edge4" class="edge"><title>Node3&#45;&gt;Node5</title>
<path fill="none" stroke="midnightblue" d="M271.457,-21.9569C289.476,-19.7481 309.048,-17.349 325.898,-15.2835"/>
<polygon fill="midnightblue" stroke="midnightblue" points="270.847,-18.5054 261.347,-23.1961 271.699,-25.4533 270.847,-18.5054"/>
</g>
</g>
</svg>
