<?xml version="1.0" encoding="UTF-8" standalone="no"?>
<!DOCTYPE svg PUBLIC "-//W3C//DTD SVG 1.1//EN"
 "http://www.w3.org/Graphics/SVG/1.1/DTD/svg11.dtd">
<!-- Generated by graphviz version 2.36.0 (20140111.2315)
 -->
<!-- Title: Fun4AllServer::UpdateEventSelector Pages: 1 -->
<svg width="812pt" height="126pt"
 viewBox="0.00 0.00 812.00 126.00" xmlns="http://www.w3.org/2000/svg" xmlns:xlink="http://www.w3.org/1999/xlink">
<g id="graph0" class="graph" transform="scale(1 1) rotate(0) translate(4 122)">
<title>Fun4AllServer::UpdateEventSelector</title>
<!-- Node1 -->
<g id="node1" class="node"><title>Node1</title>
<polygon fill="#bfbfbf" stroke="black" points="0.5,-66 0.5,-96 139.5,-96 139.5,-66 0.5,-66"/>
<text text-anchor="start" x="8.5" y="-84" font-family="FreeSans" font-size="10.00">Fun4AllServer::UpdateEvent</text>
<text text-anchor="middle" x="70" y="-73" font-family="FreeSans" font-size="10.00">Selector</text>
</g>
<!-- Node2 -->
<g id="node2" class="node"><title>Node2</title>
<g id="a_node2"><a xlink:href="../../da/d29/classFun4AllServer.html#a9e7cd54536d1edb6e5c5cc153c0a036a" target="_top" xlink:title="Fun4AllServer::registerOutput\lManager">
<polygon fill="none" stroke="black" points="500,-88 500,-118 644,-118 644,-88 500,-88"/>
<text text-anchor="start" x="508" y="-106" font-family="FreeSans" font-size="10.00">Fun4AllServer::registerOutput</text>
<text text-anchor="middle" x="572" y="-95" font-family="FreeSans" font-size="10.00">Manager</text>
</a>
</g>
</g>
<!-- Node1&#45;&gt;Node2 -->
<g id="edge1" class="edge"><title>Node1&#45;&gt;Node2</title>
<path fill="none" stroke="midnightblue" d="M149.987,-84.4754C246.19,-88.7083 407.274,-95.796 499.804,-99.8674"/>
<polygon fill="midnightblue" stroke="midnightblue" points="149.88,-80.9674 139.736,-84.0244 149.572,-87.9607 149.88,-80.9674"/>
</g>
<!-- Node5 -->
<g id="node5" class="node"><title>Node5</title>
<g id="a_node5"><a xlink:href="../../da/d29/classFun4AllServer.html#a3a4e3f448388cb2e68b085e9038feaf8" target="_top" xlink:title="Fun4AllServer::unregister\lSubsystemsNow">
<polygon fill="none" stroke="black" points="176.5,-44 176.5,-74 301.5,-74 301.5,-44 176.5,-44"/>
<text text-anchor="start" x="184.5" y="-62" font-family="FreeSans" font-size="10.00">Fun4AllServer::unregister</text>
<text text-anchor="middle" x="239" y="-51" font-family="FreeSans" font-size="10.00">SubsystemsNow</text>
</a>
</g>
</g>
<!-- Node1&#45;&gt;Node5 -->
<g id="edge4" class="edge"><title>Node1&#45;&gt;Node5</title>
<path fill="none" stroke="midnightblue" d="M149.913,-70.6043C158.836,-69.4287 167.83,-68.244 176.484,-67.1039"/>
<polygon fill="midnightblue" stroke="midnightblue" points="149.347,-67.1486 139.889,-71.9247 150.261,-74.0886 149.347,-67.1486"/>
</g>
<!-- Node3 -->
<g id="node3" class="node"><title>Node3</title>
<g id="a_node3"><a xlink:href="../../d0/d46/Fun4__SimpleReadMySql_8C.html#a70381893748e3445abc30632beb256ce" target="_top" xlink:title="Fun4_SimpleReadMySql">
<polygon fill="none" stroke="black" points="680.5,-91.5 680.5,-110.5 803.5,-110.5 803.5,-91.5 680.5,-91.5"/>
<text text-anchor="middle" x="742" y="-98.5" font-family="FreeSans" font-size="10.00">Fun4_SimpleReadMySql</text>
</a>
</g>
</g>
<!-- Node2&#45;&gt;Node3 -->
<g id="edge2" class="edge"><title>Node2&#45;&gt;Node3</title>
<path fill="none" stroke="midnightblue" d="M654.42,-102.031C663.119,-101.927 671.856,-101.823 680.255,-101.723"/>
<polygon fill="midnightblue" stroke="midnightblue" points="654.205,-98.5329 644.247,-102.152 654.288,-105.532 654.205,-98.5329"/>
</g>
<!-- Node4 -->
<g id="node4" class="node"><title>Node4</title>
<g id="a_node4"><a xlink:href="../../d9/d8c/Fun4ReadMySql_8C.html#a729b39fa627147c63772f28c9be36b62" target="_top" xlink:title="Fun4ReadMySql">
<polygon fill="none" stroke="black" points="698,-52.5 698,-71.5 786,-71.5 786,-52.5 698,-52.5"/>
<text text-anchor="middle" x="742" y="-59.5" font-family="FreeSans" font-size="10.00">Fun4ReadMySql</text>
</a>
</g>
</g>
<!-- Node2&#45;&gt;Node4 -->
<g id="edge3" class="edge"><title>Node2&#45;&gt;Node4</title>
<path fill="none" stroke="midnightblue" d="M644.471,-85.5576C664.142,-80.757 684.75,-75.7276 701.85,-71.5545"/>
<polygon fill="midnightblue" stroke="midnightblue" points="643.488,-82.1947 634.603,-87.9659 645.148,-88.9952 643.488,-82.1947"/>
</g>
<!-- Node6 -->
<g id="node6" class="node"><title>Node6</title>
<g id="a_node6"><a xlink:href="../../da/d29/classFun4AllServer.html#afcfc5583204cac58b4e66a2406187a18" target="_top" xlink:title="Fun4AllServer::BeginRun">
<polygon fill="none" stroke="black" points="338.5,-49.5 338.5,-68.5 463.5,-68.5 463.5,-49.5 338.5,-49.5"/>
<text text-anchor="middle" x="401" y="-56.5" font-family="FreeSans" font-size="10.00">Fun4AllServer::BeginRun</text>
</a>
</g>
</g>
<!-- Node5&#45;&gt;Node6 -->
<g id="edge5" class="edge"><title>Node5&#45;&gt;Node6</title>
<path fill="none" stroke="midnightblue" d="M312.061,-59C320.822,-59 329.712,-59 338.304,-59"/>
<polygon fill="midnightblue" stroke="midnightblue" points="311.86,-55.5001 301.86,-59 311.86,-62.5001 311.86,-55.5001"/>
</g>
<!-- Node8 -->
<g id="node8" class="node"><title>Node8</title>
<g id="a_node8"><a xlink:href="../../da/d29/classFun4AllServer.html#a6a65a944dfb40966ace97d35ab1f7942" target="_top" xlink:title="Fun4AllServer::process\l_event">
<polygon fill="none" stroke="black" points="342.5,-0 342.5,-30 459.5,-30 459.5,-0 342.5,-0"/>
<text text-anchor="start" x="350.5" y="-18" font-family="FreeSans" font-size="10.00">Fun4AllServer::process</text>
<text text-anchor="middle" x="401" y="-7" font-family="FreeSans" font-size="10.00">_event</text>
</a>
</g>
</g>
<!-- Node5&#45;&gt;Node8 -->
<g id="edge9" class="edge"><title>Node5&#45;&gt;Node8</title>
<path fill="none" stroke="midnightblue" d="M304.374,-41.2971C317.961,-37.5608 332.173,-33.6525 345.359,-30.0262"/>
<polygon fill="midnightblue" stroke="midnightblue" points="303.329,-37.9544 294.615,-43.9808 305.186,-44.7038 303.329,-37.9544"/>
</g>
<!-- Node7 -->
<g id="node7" class="node"><title>Node7</title>
<g id="a_node7"><a xlink:href="../../da/d29/classFun4AllServer.html#a11bbc8b2f53bc06e0b05ee202dd6372a" target="_top" xlink:title="run n events (0 means up to end of file) ">
<polygon fill="none" stroke="black" points="524,-49.5 524,-68.5 620,-68.5 620,-49.5 524,-49.5"/>
<text text-anchor="middle" x="572" y="-56.5" font-family="FreeSans" font-size="10.00">Fun4AllServer::run</text>
</a>
</g>
</g>
<!-- Node6&#45;&gt;Node7 -->
<g id="edge6" class="edge"><title>Node6&#45;&gt;Node7</title>
<path fill="none" stroke="midnightblue" d="M474.303,-59C491.075,-59 508.501,-59 523.864,-59"/>
<polygon fill="midnightblue" stroke="midnightblue" points="473.97,-55.5001 463.97,-59 473.97,-62.5001 473.97,-55.5001"/>
</g>
<!-- Node7&#45;&gt;Node3 -->
<g id="edge7" class="edge"><title>Node7&#45;&gt;Node3</title>
<path fill="none" stroke="midnightblue" d="M621.11,-71.0276C647.013,-77.5033 678.524,-85.3809 702.739,-91.4347"/>
<polygon fill="midnightblue" stroke="midnightblue" points="621.672,-67.5604 611.122,-68.5305 619.974,-74.3514 621.672,-67.5604"/>
</g>
<!-- Node7&#45;&gt;Node4 -->
<g id="edge8" class="edge"><title>Node7&#45;&gt;Node4</title>
<path fill="none" stroke="midnightblue" d="M630.496,-60.0267C652.562,-60.4208 677.347,-60.8633 697.844,-61.2294"/>
<polygon fill="midnightblue" stroke="midnightblue" points="630.305,-56.5228 620.244,-59.8437 630.18,-63.5217 630.305,-56.5228"/>
</g>
<!-- Node8&#45;&gt;Node7 -->
<g id="edge11" class="edge"><title>Node8&#45;&gt;Node7</title>
<path fill="none" stroke="midnightblue" d="M469.415,-32.5518C491.616,-38.332 515.46,-44.5398 534.464,-49.4876"/>
<polygon fill="midnightblue" stroke="midnightblue" points="470.247,-29.1518 459.688,-30.0192 468.483,-35.926 470.247,-29.1518"/>
</g>
<!-- Node9 -->
<g id="node9" class="node"><title>Node9</title>
<g id="a_node9"><a xlink:href="../../da/d29/classFun4AllServer.html#a94738b092fa009fcea45737d8ea41224" target="_top" xlink:title="Fun4AllServer::process\l_event">
<polygon fill="none" stroke="black" points="513.5,-0 513.5,-30 630.5,-30 630.5,-0 513.5,-0"/>
<text text-anchor="start" x="521.5" y="-18" font-family="FreeSans" font-size="10.00">Fun4AllServer::process</text>
<text text-anchor="middle" x="572" y="-7" font-family="FreeSans" font-size="10.00">_event</text>
</a>
</g>
</g>
<!-- Node8&#45;&gt;Node9 -->
<g id="edge10" class="edge"><title>Node8&#45;&gt;Node9</title>
<path fill="none" stroke="midnightblue" d="M469.995,-15C484.346,-15 499.357,-15 513.286,-15"/>
<polygon fill="midnightblue" stroke="midnightblue" points="469.688,-11.5001 459.688,-15 469.688,-18.5001 469.688,-11.5001"/>
</g>
</g>
</svg>
