<?xml version="1.0" encoding="UTF-8" standalone="no"?>
<!DOCTYPE svg PUBLIC "-//W3C//DTD SVG 1.1//EN"
 "http://www.w3.org/Graphics/SVG/1.1/DTD/svg11.dtd">
<!-- Generated by graphviz version 2.36.0 (20140111.2315)
 -->
<!-- Title: Fun4AllServer::registerOutputManager Pages: 1 -->
<svg width="312pt" height="66pt"
 viewBox="0.00 0.00 312.00 66.00" xmlns="http://www.w3.org/2000/svg" xmlns:xlink="http://www.w3.org/1999/xlink">
<g id="graph0" class="graph" transform="scale(1 1) rotate(0) translate(4 62)">
<title>Fun4AllServer::registerOutputManager</title>
<!-- Node1 -->
<g id="node1" class="node"><title>Node1</title>
<polygon fill="#bfbfbf" stroke="black" points="0,-14 0,-44 144,-44 144,-14 0,-14"/>
<text text-anchor="start" x="8" y="-32" font-family="FreeSans" font-size="10.00">Fun4AllServer::registerOutput</text>
<text text-anchor="middle" x="72" y="-21" font-family="FreeSans" font-size="10.00">Manager</text>
</g>
<!-- Node2 -->
<g id="node2" class="node"><title>Node2</title>
<g id="a_node2"><a xlink:href="../../d0/d46/Fun4__SimpleReadMySql_8C.html#a70381893748e3445abc30632beb256ce" target="_top" xlink:title="Fun4_SimpleReadMySql">
<polygon fill="none" stroke="black" points="180.5,-38.5 180.5,-57.5 303.5,-57.5 303.5,-38.5 180.5,-38.5"/>
<text text-anchor="middle" x="242" y="-45.5" font-family="FreeSans" font-size="10.00">Fun4_SimpleReadMySql</text>
</a>
</g>
</g>
<!-- Node1&#45;&gt;Node2 -->
<g id="edge1" class="edge"><title>Node1&#45;&gt;Node2</title>
<path fill="none" stroke="midnightblue" d="M154.42,-38.2082C163.119,-39.1921 171.856,-40.1801 180.255,-41.1301"/>
<polygon fill="midnightblue" stroke="midnightblue" points="154.577,-34.7038 144.247,-37.0577 153.79,-41.6594 154.577,-34.7038"/>
</g>
<!-- Node3 -->
<g id="node3" class="node"><title>Node3</title>
<g id="a_node3"><a xlink:href="../../d9/d8c/Fun4ReadMySql_8C.html#a729b39fa627147c63772f28c9be36b62" target="_top" xlink:title="Fun4ReadMySql">
<polygon fill="none" stroke="black" points="198,-0.5 198,-19.5 286,-19.5 286,-0.5 198,-0.5"/>
<text text-anchor="middle" x="242" y="-7.5" font-family="FreeSans" font-size="10.00">Fun4ReadMySql</text>
</a>
</g>
</g>
<!-- Node1&#45;&gt;Node3 -->
<g id="edge2" class="edge"><title>Node1&#45;&gt;Node3</title>
<path fill="none" stroke="midnightblue" d="M154.573,-19.7745C169.545,-18.0813 184.62,-16.3764 197.893,-14.8752"/>
<polygon fill="midnightblue" stroke="midnightblue" points="153.79,-16.3406 144.247,-20.9423 154.577,-23.2962 153.79,-16.3406"/>
</g>
</g>
</svg>
