<?xml version="1.0" encoding="UTF-8" standalone="no"?>
<!DOCTYPE svg PUBLIC "-//W3C//DTD SVG 1.1//EN"
 "http://www.w3.org/Graphics/SVG/1.1/DTD/svg11.dtd">
<!-- Generated by graphviz version 2.36.0 (20140111.2315)
 -->
<!-- Title: Fun4AllServer::InitAll Pages: 1 -->
<svg width="622pt" height="197pt"
 viewBox="0.00 0.00 622.00 197.00" xmlns="http://www.w3.org/2000/svg" xmlns:xlink="http://www.w3.org/1999/xlink">
<g id="graph0" class="graph" transform="scale(1 1) rotate(0) translate(4 193)">
<title>Fun4AllServer::InitAll</title>
<!-- Node1 -->
<g id="node1" class="node"><title>Node1</title>
<polygon fill="#bfbfbf" stroke="black" points="0.5,-71.5 0.5,-90.5 107.5,-90.5 107.5,-71.5 0.5,-71.5"/>
<text text-anchor="middle" x="54" y="-78.5" font-family="FreeSans" font-size="10.00">Fun4AllServer::InitAll</text>
</g>
<!-- Node2 -->
<g id="node2" class="node"><title>Node2</title>
<g id="a_node2"><a xlink:href="../../da/d29/classFun4AllServer.html#a2ebfcdcf706670c98c189bfa93c3ff89" target="_top" xlink:title="Fun4AllServer::InitNodeTree">
<polygon fill="none" stroke="black" points="144.5,-131.5 144.5,-150.5 283.5,-150.5 283.5,-131.5 144.5,-131.5"/>
<text text-anchor="middle" x="214" y="-138.5" font-family="FreeSans" font-size="10.00">Fun4AllServer::InitNodeTree</text>
</a>
</g>
</g>
<!-- Node1&#45;&gt;Node2 -->
<g id="edge1" class="edge"><title>Node1&#45;&gt;Node2</title>
<path fill="none" stroke="midnightblue" d="M77.9276,-90.639C95.8294,-98.0763 121.377,-108.496 144,-117 153.884,-120.715 164.636,-124.552 174.647,-128.039"/>
<polygon fill="midnightblue" stroke="midnightblue" points="173.756,-131.434 184.351,-131.391 176.041,-124.818 173.756,-131.434"/>
</g>
<!-- Node7 -->
<g id="node7" class="node"><title>Node7</title>
<g id="a_node7"><a xlink:href="../../d5/dec/classFun4AllBase.html#a41f9ac377743d046f590617fd6f4f0ed" target="_top" xlink:title="Returns the name of this module. ">
<polygon fill="none" stroke="black" points="340.5,-71.5 340.5,-90.5 443.5,-90.5 443.5,-71.5 340.5,-71.5"/>
<text text-anchor="middle" x="392" y="-78.5" font-family="FreeSans" font-size="10.00">Fun4AllBase::Name</text>
</a>
</g>
</g>
<!-- Node1&#45;&gt;Node7 -->
<g id="edge6" class="edge"><title>Node1&#45;&gt;Node7</title>
<path fill="none" stroke="midnightblue" d="M107.705,-82.3801C119.639,-82.6382 132.255,-82.868 144,-83 206.218,-83.699 221.78,-83.5814 284,-83 298.944,-82.8603 315.061,-82.611 330.138,-82.3347"/>
<polygon fill="midnightblue" stroke="midnightblue" points="330.451,-85.8295 340.383,-82.1401 330.318,-78.8307 330.451,-85.8295"/>
</g>
<!-- Node8 -->
<g id="node8" class="node"><title>Node8</title>
<g id="a_node8"><a xlink:href="../../da/d29/classFun4AllServer.html#a531952321df1183d357e6fec6db28103" target="_top" xlink:title="Fun4AllServer::registerHisto">
<polygon fill="none" stroke="black" points="145,-5.5 145,-24.5 283,-24.5 283,-5.5 145,-5.5"/>
<text text-anchor="middle" x="214" y="-12.5" font-family="FreeSans" font-size="10.00">Fun4AllServer::registerHisto</text>
</a>
</g>
</g>
<!-- Node1&#45;&gt;Node8 -->
<g id="edge7" class="edge"><title>Node1&#45;&gt;Node8</title>
<path fill="none" stroke="midnightblue" d="M70.5819,-71.432C87.9718,-61.0759 117.196,-44.6214 144,-34 149.989,-31.6269 156.381,-29.4358 162.769,-27.4502"/>
<polygon fill="midnightblue" stroke="midnightblue" points="164.146,-30.6931 172.744,-24.5027 162.162,-23.98 164.146,-30.6931"/>
</g>
<!-- Node10 -->
<g id="node10" class="node"><title>Node10</title>
<g id="a_node10"><a xlink:href="../../da/d29/classFun4AllServer.html#a377f113767f24ce6413e678752ed7f53" target="_top" xlink:title="Fun4AllServer::registerHisto\lManager">
<polygon fill="none" stroke="black" points="145,-44 145,-74 283,-74 283,-44 145,-44"/>
<text text-anchor="start" x="153" y="-62" font-family="FreeSans" font-size="10.00">Fun4AllServer::registerHisto</text>
<text text-anchor="middle" x="214" y="-51" font-family="FreeSans" font-size="10.00">Manager</text>
</a>
</g>
</g>
<!-- Node1&#45;&gt;Node10 -->
<g id="edge9" class="edge"><title>Node1&#45;&gt;Node10</title>
<path fill="none" stroke="midnightblue" d="M107.612,-73.6743C116.38,-72.4535 125.638,-71.1644 134.88,-69.8775"/>
<polygon fill="midnightblue" stroke="midnightblue" points="135.456,-73.3311 144.878,-68.4854 134.491,-66.398 135.456,-73.3311"/>
</g>
<!-- Node3 -->
<g id="node3" class="node"><title>Node3</title>
<g id="a_node3"><a xlink:href="../../d5/dca/classPHCompositeNode.html#ac7dbf017614c324e218a001d729607bf" target="_top" xlink:title="PHCompositeNode::addNode">
<polygon fill="none" stroke="black" points="320,-131.5 320,-150.5 464,-150.5 464,-131.5 320,-131.5"/>
<text text-anchor="middle" x="392" y="-138.5" font-family="FreeSans" font-size="10.00">PHCompositeNode::addNode</text>
</a>
</g>
</g>
<!-- Node2&#45;&gt;Node3 -->
<g id="edge2" class="edge"><title>Node2&#45;&gt;Node3</title>
<path fill="none" stroke="midnightblue" d="M283.55,-141C292.083,-141 300.873,-141 309.576,-141"/>
<polygon fill="midnightblue" stroke="midnightblue" points="309.733,-144.5 319.733,-141 309.733,-137.5 309.733,-144.5"/>
</g>
<!-- Node4 -->
<g id="node4" class="node"><title>Node4</title>
<g id="a_node4"><a xlink:href="../../dc/d82/classPHNode.html#aca3576f926a4401eddc3d88bf0ce0de3" target="_top" xlink:title="PHNode::getName">
<polygon fill="none" stroke="black" points="508,-169.5 508,-188.5 606,-188.5 606,-169.5 508,-169.5"/>
<text text-anchor="middle" x="557" y="-176.5" font-family="FreeSans" font-size="10.00">PHNode::getName</text>
</a>
</g>
</g>
<!-- Node3&#45;&gt;Node4 -->
<g id="edge3" class="edge"><title>Node3&#45;&gt;Node4</title>
<path fill="none" stroke="midnightblue" d="M434.132,-150.589C455.738,-155.626 482.409,-161.844 505.286,-167.177"/>
<polygon fill="midnightblue" stroke="midnightblue" points="504.63,-170.618 515.164,-169.48 506.22,-163.801 504.63,-170.618"/>
</g>
<!-- Node5 -->
<g id="node5" class="node"><title>Node5</title>
<g id="a_node5"><a xlink:href="../../dc/d82/classPHNode.html#adda2bd6cef2d5067bbe3016a990b7198" target="_top" xlink:title="PHNode::setParent">
<polygon fill="none" stroke="black" points="506.5,-131.5 506.5,-150.5 607.5,-150.5 607.5,-131.5 506.5,-131.5"/>
<text text-anchor="middle" x="557" y="-138.5" font-family="FreeSans" font-size="10.00">PHNode::setParent</text>
</a>
</g>
</g>
<!-- Node3&#45;&gt;Node5 -->
<g id="edge4" class="edge"><title>Node3&#45;&gt;Node5</title>
<path fill="none" stroke="midnightblue" d="M464.02,-141C474.701,-141 485.626,-141 496.045,-141"/>
<polygon fill="midnightblue" stroke="midnightblue" points="496.268,-144.5 506.268,-141 496.268,-137.5 496.268,-144.5"/>
</g>
<!-- Node6 -->
<g id="node6" class="node"><title>Node6</title>
<g id="a_node6"><a xlink:href="../../d6/d86/classPHPointerList.html#af5fc4e6958b5b90c57bfb497566f503c" target="_top" xlink:title="PHPointerList::append">
<polygon fill="none" stroke="black" points="500,-93.5 500,-112.5 614,-112.5 614,-93.5 500,-93.5"/>
<text text-anchor="middle" x="557" y="-100.5" font-family="FreeSans" font-size="10.00">PHPointerList::append</text>
</a>
</g>
</g>
<!-- Node3&#45;&gt;Node6 -->
<g id="edge5" class="edge"><title>Node3&#45;&gt;Node6</title>
<path fill="none" stroke="midnightblue" d="M434.132,-131.411C455.738,-126.374 482.409,-120.156 505.286,-114.823"/>
<polygon fill="midnightblue" stroke="midnightblue" points="506.22,-118.199 515.164,-112.52 504.63,-111.382 506.22,-118.199"/>
</g>
<!-- Node9 -->
<g id="node9" class="node"><title>Node9</title>
<g id="a_node9"><a xlink:href="../../d3/d96/classFun4AllHistoManager.html#a7e1354855437fa28bb0d29dc0581d0a6" target="_top" xlink:title="Fun4AllHistoManager\l::registerHisto">
<polygon fill="none" stroke="black" points="337,-0 337,-30 447,-30 447,-0 337,-0"/>
<text text-anchor="start" x="345" y="-18" font-family="FreeSans" font-size="10.00">Fun4AllHistoManager</text>
<text text-anchor="middle" x="392" y="-7" font-family="FreeSans" font-size="10.00">::registerHisto</text>
</a>
</g>
</g>
<!-- Node8&#45;&gt;Node9 -->
<g id="edge8" class="edge"><title>Node8&#45;&gt;Node9</title>
<path fill="none" stroke="midnightblue" d="M283.046,-15C297.368,-15 312.435,-15 326.618,-15"/>
<polygon fill="midnightblue" stroke="midnightblue" points="326.766,-18.5001 336.766,-15 326.766,-11.5001 326.766,-18.5001"/>
</g>
<!-- Node10&#45;&gt;Node7 -->
<g id="edge10" class="edge"><title>Node10&#45;&gt;Node7</title>
<path fill="none" stroke="midnightblue" d="M283.046,-67.5058C298.529,-69.4412 314.882,-71.4853 330.048,-73.381"/>
<polygon fill="midnightblue" stroke="midnightblue" points="329.975,-76.8991 340.332,-74.6665 330.844,-69.9531 329.975,-76.8991"/>
</g>
</g>
</svg>
