<?xml version="1.0" encoding="UTF-8" standalone="no"?>
<!DOCTYPE svg PUBLIC "-//W3C//DTD SVG 1.1//EN"
 "http://www.w3.org/Graphics/SVG/1.1/DTD/svg11.dtd">
<!-- Generated by graphviz version 2.36.0 (20140111.2315)
 -->
<!-- Title: Fun4AllServer::process_event Pages: 1 -->
<svg width="958pt" height="464pt"
 viewBox="0.00 0.00 958.00 464.00" xmlns="http://www.w3.org/2000/svg" xmlns:xlink="http://www.w3.org/1999/xlink">
<g id="graph0" class="graph" transform="scale(1 1) rotate(0) translate(4 460)">
<title>Fun4AllServer::process_event</title>
<!-- Node1 -->
<g id="node1" class="node"><title>Node1</title>
<polygon fill="#bfbfbf" stroke="black" points="0.5,-148 0.5,-178 117.5,-178 117.5,-148 0.5,-148"/>
<text text-anchor="start" x="8.5" y="-166" font-family="FreeSans" font-size="10.00">Fun4AllServer::process</text>
<text text-anchor="middle" x="59" y="-155" font-family="FreeSans" font-size="10.00">_event</text>
</g>
<!-- Node2 -->
<g id="node2" class="node"><title>Node2</title>
<g id="a_node2"><a xlink:href="../../da/d29/classFun4AllServer.html#a6a65a944dfb40966ace97d35ab1f7942" target="_top" xlink:title="Fun4AllServer::process\l_event">
<polygon fill="none" stroke="black" points="154.5,-148 154.5,-178 271.5,-178 271.5,-148 154.5,-148"/>
<text text-anchor="start" x="162.5" y="-166" font-family="FreeSans" font-size="10.00">Fun4AllServer::process</text>
<text text-anchor="middle" x="213" y="-155" font-family="FreeSans" font-size="10.00">_event</text>
</a>
</g>
</g>
<!-- Node1&#45;&gt;Node2 -->
<g id="edge1" class="edge"><title>Node1&#45;&gt;Node2</title>
<path fill="none" stroke="midnightblue" d="M117.898,-163C126.461,-163 135.349,-163 144.093,-163"/>
<polygon fill="midnightblue" stroke="midnightblue" points="144.263,-166.5 154.263,-163 144.263,-159.5 144.263,-166.5"/>
</g>
<!-- Node3 -->
<g id="node3" class="node"><title>Node3</title>
<g id="a_node3"><a xlink:href="../../da/d29/classFun4AllServer.html#a3a4e3f448388cb2e68b085e9038feaf8" target="_top" xlink:title="Fun4AllServer::unregister\lSubsystemsNow">
<polygon fill="none" stroke="black" points="321.5,-374 321.5,-404 446.5,-404 446.5,-374 321.5,-374"/>
<text text-anchor="start" x="329.5" y="-392" font-family="FreeSans" font-size="10.00">Fun4AllServer::unregister</text>
<text text-anchor="middle" x="384" y="-381" font-family="FreeSans" font-size="10.00">SubsystemsNow</text>
</a>
</g>
</g>
<!-- Node2&#45;&gt;Node3 -->
<g id="edge2" class="edge"><title>Node2&#45;&gt;Node3</title>
<path fill="none" stroke="midnightblue" d="M220.023,-178.182C232.853,-209.262 265.235,-281.379 308,-331 320.102,-345.043 336.072,-357.955 350.164,-368.014"/>
<polygon fill="midnightblue" stroke="midnightblue" points="348.432,-371.072 358.645,-373.893 352.42,-365.319 348.432,-371.072"/>
</g>
<!-- Node7 -->
<g id="node7" class="node"><title>Node7</title>
<g id="a_node7"><a xlink:href="../../d5/d07/classPHNodeIterator.html#aea98bf8619af59b1212a94fb32106baa" target="_top" xlink:title="PHNodeIterator::findFirst">
<polygon fill="none" stroke="black" points="510,-345.5 510,-364.5 634,-364.5 634,-345.5 510,-345.5"/>
<text text-anchor="middle" x="572" y="-352.5" font-family="FreeSans" font-size="10.00">PHNodeIterator::findFirst</text>
</a>
</g>
</g>
<!-- Node2&#45;&gt;Node7 -->
<g id="edge6" class="edge"><title>Node2&#45;&gt;Node7</title>
<path fill="none" stroke="midnightblue" d="M225.169,-178.219C241.348,-199.332 273.198,-237.551 308,-261 371.73,-303.94 457.35,-329.74 513.331,-343.165"/>
<polygon fill="midnightblue" stroke="midnightblue" points="512.548,-346.576 523.082,-345.45 514.145,-339.761 512.548,-346.576"/>
</g>
<!-- Node10 -->
<g id="node10" class="node"><title>Node10</title>
<g id="a_node10"><a xlink:href="../../da/d29/classFun4AllServer.html#a6f3f13c3a8b5c29457e694ba910296aa" target="_top" xlink:title="Fun4AllServer::CountOutNodes">
<polygon fill="none" stroke="black" points="308,-175.5 308,-194.5 460,-194.5 460,-175.5 308,-175.5"/>
<text text-anchor="middle" x="384" y="-182.5" font-family="FreeSans" font-size="10.00">Fun4AllServer::CountOutNodes</text>
</a>
</g>
</g>
<!-- Node2&#45;&gt;Node10 -->
<g id="edge10" class="edge"><title>Node2&#45;&gt;Node10</title>
<path fill="none" stroke="midnightblue" d="M271.688,-170.51C280.676,-171.68 290.116,-172.909 299.539,-174.135"/>
<polygon fill="midnightblue" stroke="midnightblue" points="299.366,-177.642 309.734,-175.462 300.27,-170.701 299.366,-177.642"/>
</g>
<!-- Node15 -->
<g id="node15" class="node"><title>Node15</title>
<g id="a_node15"><a xlink:href="../../da/d29/classFun4AllServer.html#a92c6fe0e0c19c48d2b1f9d0f63c12bbe" target="_top" xlink:title="Fun4AllServer::MakeNodes\lTransient">
<polygon fill="none" stroke="black" points="316.5,-126 316.5,-156 451.5,-156 451.5,-126 316.5,-126"/>
<text text-anchor="start" x="324.5" y="-144" font-family="FreeSans" font-size="10.00">Fun4AllServer::MakeNodes</text>
<text text-anchor="middle" x="384" y="-133" font-family="FreeSans" font-size="10.00">Transient</text>
</a>
</g>
</g>
<!-- Node2&#45;&gt;Node15 -->
<g id="edge15" class="edge"><title>Node2&#45;&gt;Node15</title>
<path fill="none" stroke="midnightblue" d="M271.688,-155.49C282.781,-154.046 294.562,-152.513 306.15,-151.004"/>
<polygon fill="midnightblue" stroke="midnightblue" points="306.797,-154.45 316.262,-149.688 305.894,-147.508 306.797,-154.45"/>
</g>
<!-- Node16 -->
<g id="node16" class="node"><title>Node16</title>
<g id="a_node16"><a xlink:href="../../d5/d07/classPHNodeIterator.html#aec2fbc1e56be7e1a0b064ecde48edee5" target="_top" xlink:title="PHNodeIterator::print">
<polygon fill="none" stroke="black" points="330,-87.5 330,-106.5 438,-106.5 438,-87.5 330,-87.5"/>
<text text-anchor="middle" x="384" y="-94.5" font-family="FreeSans" font-size="10.00">PHNodeIterator::print</text>
</a>
</g>
</g>
<!-- Node2&#45;&gt;Node16 -->
<g id="edge17" class="edge"><title>Node2&#45;&gt;Node16</title>
<path fill="none" stroke="midnightblue" d="M240.46,-147.84C258.927,-137.745 284.399,-124.773 308,-116 314.514,-113.579 321.458,-111.36 328.392,-109.361"/>
<polygon fill="midnightblue" stroke="midnightblue" points="329.775,-112.611 338.493,-106.592 327.924,-105.861 329.775,-112.611"/>
</g>
<!-- Node19 -->
<g id="node19" class="node"><title>Node19</title>
<g id="a_node19"><a xlink:href="../../d5/dec/classFun4AllBase.html#a41f9ac377743d046f590617fd6f4f0ed" target="_top" xlink:title="Returns the name of this module. ">
<polygon fill="none" stroke="black" points="520.5,-49.5 520.5,-68.5 623.5,-68.5 623.5,-49.5 520.5,-49.5"/>
<text text-anchor="middle" x="572" y="-56.5" font-family="FreeSans" font-size="10.00">Fun4AllBase::Name</text>
</a>
</g>
</g>
<!-- Node2&#45;&gt;Node19 -->
<g id="edge20" class="edge"><title>Node2&#45;&gt;Node19</title>
<path fill="none" stroke="midnightblue" d="M225.369,-147.742C241.313,-127.682 272.388,-93.2094 308,-78 372.863,-50.2975 454.913,-49.0578 509.968,-52.4624"/>
<polygon fill="midnightblue" stroke="midnightblue" points="510.048,-55.9762 520.265,-53.1727 510.529,-48.9927 510.048,-55.9762"/>
</g>
<!-- Node20 -->
<g id="node20" class="node"><title>Node20</title>
<g id="a_node20"><a xlink:href="../../dd/ded/classFun4AllSyncManager.html#ad15c8f6f6b17662d06c4c927bc3e3ba6" target="_top" xlink:title="Fun4AllSyncManager\l::ResetEvent">
<polygon fill="none" stroke="black" points="329.5,-0 329.5,-30 438.5,-30 438.5,-0 329.5,-0"/>
<text text-anchor="start" x="337.5" y="-18" font-family="FreeSans" font-size="10.00">Fun4AllSyncManager</text>
<text text-anchor="middle" x="384" y="-7" font-family="FreeSans" font-size="10.00">::ResetEvent</text>
</a>
</g>
</g>
<!-- Node2&#45;&gt;Node20 -->
<g id="edge21" class="edge"><title>Node2&#45;&gt;Node20</title>
<path fill="none" stroke="midnightblue" d="M222.472,-147.877C236.998,-123.187 268.905,-74.0666 308,-45 313.369,-41.0085 319.341,-37.4629 325.505,-34.3356"/>
<polygon fill="midnightblue" stroke="midnightblue" points="327.063,-37.4704 334.626,-30.0498 324.086,-31.135 327.063,-37.4704"/>
</g>
<!-- Node22 -->
<g id="node22" class="node"><title>Node22</title>
<g id="a_node22"><a xlink:href="../../da/d29/classFun4AllServer.html#ab2479a9a3e45d51118e308597acd5228" target="_top" xlink:title="Fun4AllServer::ResetNodeTree">
<polygon fill="none" stroke="black" points="308.5,-232.5 308.5,-251.5 459.5,-251.5 459.5,-232.5 308.5,-232.5"/>
<text text-anchor="middle" x="384" y="-239.5" font-family="FreeSans" font-size="10.00">Fun4AllServer::ResetNodeTree</text>
</a>
</g>
</g>
<!-- Node2&#45;&gt;Node22 -->
<g id="edge24" class="edge"><title>Node2&#45;&gt;Node22</title>
<path fill="none" stroke="midnightblue" d="M246.185,-178.045C277.123,-192.507 323.484,-214.179 353.491,-228.206"/>
<polygon fill="midnightblue" stroke="midnightblue" points="352.077,-231.409 362.619,-232.473 355.042,-225.067 352.077,-231.409"/>
</g>
<!-- Node4 -->
<g id="node4" class="node"><title>Node4</title>
<g id="a_node4"><a xlink:href="../../da/d29/classFun4AllServer.html#a596005b9bc46ff6f5167378423248271" target="_top" xlink:title="Fun4AllServer::UpdateEvent\lSelector">
<polygon fill="none" stroke="black" points="502.5,-402 502.5,-432 641.5,-432 641.5,-402 502.5,-402"/>
<text text-anchor="start" x="510.5" y="-420" font-family="FreeSans" font-size="10.00">Fun4AllServer::UpdateEvent</text>
<text text-anchor="middle" x="572" y="-409" font-family="FreeSans" font-size="10.00">Selector</text>
</a>
</g>
</g>
<!-- Node3&#45;&gt;Node4 -->
<g id="edge3" class="edge"><title>Node3&#45;&gt;Node4</title>
<path fill="none" stroke="midnightblue" d="M446.677,-398.285C461.337,-400.492 477.173,-402.875 492.473,-405.179"/>
<polygon fill="midnightblue" stroke="midnightblue" points="492.023,-408.65 502.432,-406.678 493.065,-401.728 492.023,-408.65"/>
</g>
<!-- Node5 -->
<g id="node5" class="node"><title>Node5</title>
<g id="a_node5"><a xlink:href="../../d8/d77/classFun4AllOutputManager.html#a330fe561bb5a02a9f6dc08395686321c" target="_top" xlink:title="retrieves pointer to vector of event selector module ids ">
<polygon fill="none" stroke="black" points="684,-377 684,-407 800,-407 800,-377 684,-377"/>
<text text-anchor="start" x="692" y="-395" font-family="FreeSans" font-size="10.00">Fun4AllOutputManager</text>
<text text-anchor="middle" x="742" y="-384" font-family="FreeSans" font-size="10.00">::RecoModuleIndex</text>
</a>
</g>
</g>
<!-- Node4&#45;&gt;Node5 -->
<g id="edge4" class="edge"><title>Node4&#45;&gt;Node5</title>
<path fill="none" stroke="midnightblue" d="M641.817,-406.759C652.392,-405.186 663.299,-403.563 673.838,-401.994"/>
<polygon fill="midnightblue" stroke="midnightblue" points="674.43,-405.445 683.806,-400.511 673.4,-398.521 674.43,-405.445"/>
</g>
<!-- Node6 -->
<g id="node6" class="node"><title>Node6</title>
<g id="a_node6"><a xlink:href="../../d8/d77/classFun4AllOutputManager.html#a2a601e70ddadeb2f8400956ba1a514e6" target="_top" xlink:title="retrieves pointer to vector of event selector module names ">
<polygon fill="none" stroke="black" points="684,-426 684,-456 800,-456 800,-426 684,-426"/>
<text text-anchor="start" x="692" y="-444" font-family="FreeSans" font-size="10.00">Fun4AllOutputManager</text>
<text text-anchor="middle" x="742" y="-433" font-family="FreeSans" font-size="10.00">::EventSelector</text>
</a>
</g>
</g>
<!-- Node4&#45;&gt;Node6 -->
<g id="edge5" class="edge"><title>Node4&#45;&gt;Node6</title>
<path fill="none" stroke="midnightblue" d="M641.817,-426.831C652.392,-428.342 663.299,-429.9 673.838,-431.405"/>
<polygon fill="midnightblue" stroke="midnightblue" points="673.411,-434.88 683.806,-432.829 674.401,-427.95 673.411,-434.88"/>
</g>
<!-- Node7&#45;&gt;Node7 -->
<g id="edge9" class="edge"><title>Node7&#45;&gt;Node7</title>
<path fill="none" stroke="midnightblue" d="M545.798,-364.757C533.051,-373.565 541.785,-383 572,-383 592.301,-383 602.904,-378.741 603.811,-373.275"/>
<polygon fill="midnightblue" stroke="midnightblue" points="606.625,-371.184 598.202,-364.757 600.779,-375.034 606.625,-371.184"/>
</g>
<!-- Node8 -->
<g id="node8" class="node"><title>Node8</title>
<g id="a_node8"><a xlink:href="../../dc/d82/classPHNode.html#a4ab1f90aed955a652813bfe377087bda" target="_top" xlink:title="PHNode::getType">
<polygon fill="none" stroke="black" points="695.5,-308.5 695.5,-327.5 788.5,-327.5 788.5,-308.5 695.5,-308.5"/>
<text text-anchor="middle" x="742" y="-315.5" font-family="FreeSans" font-size="10.00">PHNode::getType</text>
</a>
</g>
</g>
<!-- Node7&#45;&gt;Node8 -->
<g id="edge7" class="edge"><title>Node7&#45;&gt;Node8</title>
<path fill="none" stroke="midnightblue" d="M616.264,-345.472C638.029,-340.678 664.608,-334.824 687.631,-329.754"/>
<polygon fill="midnightblue" stroke="midnightblue" points="688.578,-333.129 697.591,-327.56 687.072,-326.293 688.578,-333.129"/>
</g>
<!-- Node9 -->
<g id="node9" class="node"><title>Node9</title>
<g id="a_node9"><a xlink:href="../../dc/d82/classPHNode.html#aca3576f926a4401eddc3d88bf0ce0de3" target="_top" xlink:title="PHNode::getName">
<polygon fill="none" stroke="black" points="693,-270.5 693,-289.5 791,-289.5 791,-270.5 693,-270.5"/>
<text text-anchor="middle" x="742" y="-277.5" font-family="FreeSans" font-size="10.00">PHNode::getName</text>
</a>
</g>
</g>
<!-- Node7&#45;&gt;Node9 -->
<g id="edge8" class="edge"><title>Node7&#45;&gt;Node9</title>
<path fill="none" stroke="midnightblue" d="M626.087,-345.475C633.714,-343.001 641.253,-339.895 648,-336 667.87,-324.528 664.566,-311.196 684,-299 687.192,-296.997 690.618,-295.181 694.148,-293.539"/>
<polygon fill="midnightblue" stroke="midnightblue" points="695.758,-296.66 703.649,-289.59 693.072,-290.196 695.758,-296.66"/>
</g>
<!-- Node11 -->
<g id="node11" class="node"><title>Node11</title>
<g id="a_node11"><a xlink:href="../../da/d29/classFun4AllServer.html#a3654ebdcb099bcc5c820df6d4952663c" target="_top" xlink:title="Fun4AllServer::CountOutNodes\lRecursive">
<polygon fill="none" stroke="black" points="496,-164 496,-194 648,-194 648,-164 496,-164"/>
<text text-anchor="start" x="504" y="-182" font-family="FreeSans" font-size="10.00">Fun4AllServer::CountOutNodes</text>
<text text-anchor="middle" x="572" y="-171" font-family="FreeSans" font-size="10.00">Recursive</text>
</a>
</g>
</g>
<!-- Node10&#45;&gt;Node11 -->
<g id="edge11" class="edge"><title>Node10&#45;&gt;Node11</title>
<path fill="none" stroke="midnightblue" d="M460.117,-182.577C468.596,-182.303 477.281,-182.023 485.875,-181.746"/>
<polygon fill="midnightblue" stroke="midnightblue" points="486.023,-185.243 495.905,-181.422 485.797,-178.247 486.023,-185.243"/>
</g>
<!-- Node12 -->
<g id="node12" class="node"><title>Node12</title>
<g id="a_node12"><a xlink:href="../../d5/d07/classPHNodeIterator.html#a110a5b87a02a22deecae334f32387ffa" target="_top" xlink:title="PHNodeIterator::ls">
<polygon fill="none" stroke="black" points="693.5,-147.5 693.5,-166.5 790.5,-166.5 790.5,-147.5 693.5,-147.5"/>
<text text-anchor="middle" x="742" y="-154.5" font-family="FreeSans" font-size="10.00">PHNodeIterator::ls</text>
</a>
</g>
</g>
<!-- Node11&#45;&gt;Node12 -->
<g id="edge12" class="edge"><title>Node11&#45;&gt;Node12</title>
<path fill="none" stroke="midnightblue" d="M648.155,-169.158C659.928,-167.617 671.934,-166.044 683.237,-164.564"/>
<polygon fill="midnightblue" stroke="midnightblue" points="683.931,-168.003 693.391,-163.234 683.022,-161.063 683.931,-168.003"/>
</g>
<!-- Node13 -->
<g id="node13" class="node"><title>Node13</title>
<g id="a_node13"><a xlink:href="../../d6/d86/classPHPointerList.html#a560c9339d74f28f604d07dcb10a2e0be" target="_top" xlink:title="PHPointerList::clear">
<polygon fill="none" stroke="black" points="841,-166.5 841,-185.5 945,-185.5 945,-166.5 841,-166.5"/>
<text text-anchor="middle" x="893" y="-173.5" font-family="FreeSans" font-size="10.00">PHPointerList::clear</text>
</a>
</g>
</g>
<!-- Node12&#45;&gt;Node13 -->
<g id="edge13" class="edge"><title>Node12&#45;&gt;Node13</title>
<path fill="none" stroke="midnightblue" d="M790.554,-163.064C803.313,-164.691 817.291,-166.473 830.682,-168.181"/>
<polygon fill="midnightblue" stroke="midnightblue" points="830.416,-171.675 840.778,-169.468 831.301,-164.731 830.416,-171.675"/>
</g>
<!-- Node14 -->
<g id="node14" class="node"><title>Node14</title>
<g id="a_node14"><a xlink:href="../../d6/d86/classPHPointerList.html#af5fc4e6958b5b90c57bfb497566f503c" target="_top" xlink:title="PHPointerList::append">
<polygon fill="none" stroke="black" points="836,-128.5 836,-147.5 950,-147.5 950,-128.5 836,-128.5"/>
<text text-anchor="middle" x="893" y="-135.5" font-family="FreeSans" font-size="10.00">PHPointerList::append</text>
</a>
</g>
</g>
<!-- Node12&#45;&gt;Node14 -->
<g id="edge14" class="edge"><title>Node12&#45;&gt;Node14</title>
<path fill="none" stroke="midnightblue" d="M790.554,-150.936C801.687,-149.516 813.747,-147.979 825.535,-146.475"/>
<polygon fill="midnightblue" stroke="midnightblue" points="826.318,-149.904 835.795,-145.167 825.432,-142.96 826.318,-149.904"/>
</g>
<!-- Node15&#45;&gt;Node12 -->
<g id="edge16" class="edge"><title>Node15&#45;&gt;Node12</title>
<path fill="none" stroke="midnightblue" d="M451.543,-143.991C518.171,-146.985 619.66,-151.546 683.068,-154.396"/>
<polygon fill="midnightblue" stroke="midnightblue" points="683.144,-157.903 693.291,-154.856 683.458,-150.91 683.144,-157.903"/>
</g>
<!-- Node17 -->
<g id="node17" class="node"><title>Node17</title>
<g id="a_node17"><a xlink:href="../../d5/dca/classPHCompositeNode.html#a6a3a273adbb9f7ec652b5227212a6b2d" target="_top" xlink:title="PHCompositeNode::print">
<polygon fill="none" stroke="black" points="510,-87.5 510,-106.5 634,-106.5 634,-87.5 510,-87.5"/>
<text text-anchor="middle" x="572" y="-94.5" font-family="FreeSans" font-size="10.00">PHCompositeNode::print</text>
</a>
</g>
</g>
<!-- Node16&#45;&gt;Node17 -->
<g id="edge18" class="edge"><title>Node16&#45;&gt;Node17</title>
<path fill="none" stroke="midnightblue" d="M438.3,-97C457.402,-97 479.254,-97 499.637,-97"/>
<polygon fill="midnightblue" stroke="midnightblue" points="499.823,-100.5 509.823,-97 499.823,-93.5001 499.823,-100.5"/>
</g>
<!-- Node18 -->
<g id="node18" class="node"><title>Node18</title>
<g id="a_node18"><a xlink:href="../../dc/d82/classPHNode.html#a3c79c7edb338e7d3bb86460f931793fa" target="_top" xlink:title="PHNode::print">
<polygon fill="none" stroke="black" points="703.5,-87.5 703.5,-106.5 780.5,-106.5 780.5,-87.5 703.5,-87.5"/>
<text text-anchor="middle" x="742" y="-94.5" font-family="FreeSans" font-size="10.00">PHNode::print</text>
</a>
</g>
</g>
<!-- Node17&#45;&gt;Node18 -->
<g id="edge19" class="edge"><title>Node17&#45;&gt;Node18</title>
<path fill="none" stroke="midnightblue" d="M634.127,-97C653.51,-97 674.652,-97 692.978,-97"/>
<polygon fill="midnightblue" stroke="midnightblue" points="693.122,-100.5 703.122,-97 693.122,-93.5001 693.122,-100.5"/>
</g>
<!-- Node20&#45;&gt;Node19 -->
<g id="edge22" class="edge"><title>Node20&#45;&gt;Node19</title>
<path fill="none" stroke="midnightblue" d="M438.799,-27.7266C464.657,-33.8435 495.464,-41.1312 520.831,-47.132"/>
<polygon fill="midnightblue" stroke="midnightblue" points="520.084,-50.5519 530.621,-49.448 521.695,-43.7399 520.084,-50.5519"/>
</g>
<!-- Node21 -->
<g id="node21" class="node"><title>Node21</title>
<g id="a_node21"><a xlink:href="../../d4/da9/classFun4AllInputManager.html#a01c946e063c464f497e7befbbe757f71" target="_top" xlink:title="Fun4AllInputManager\l::ResetEvent">
<polygon fill="none" stroke="black" points="517.5,-0 517.5,-30 626.5,-30 626.5,-0 517.5,-0"/>
<text text-anchor="start" x="525.5" y="-18" font-family="FreeSans" font-size="10.00">Fun4AllInputManager</text>
<text text-anchor="middle" x="572" y="-7" font-family="FreeSans" font-size="10.00">::ResetEvent</text>
</a>
</g>
</g>
<!-- Node20&#45;&gt;Node21 -->
<g id="edge23" class="edge"><title>Node20&#45;&gt;Node21</title>
<path fill="none" stroke="midnightblue" d="M438.799,-15C460.198,-15 484.987,-15 507.278,-15"/>
<polygon fill="midnightblue" stroke="midnightblue" points="507.322,-18.5001 517.322,-15 507.322,-11.5001 507.322,-18.5001"/>
</g>
<!-- Node23 -->
<g id="node23" class="node"><title>Node23</title>
<g id="a_node23"><a xlink:href="../../db/d8e/classPHNodeOperation.html#a641fdf1094ec15063171e199a4066a0d" target="_top" xlink:title="PHNodeOperation::Verbosity">
<polygon fill="none" stroke="black" points="501.5,-213.5 501.5,-232.5 642.5,-232.5 642.5,-213.5 501.5,-213.5"/>
<text text-anchor="middle" x="572" y="-220.5" font-family="FreeSans" font-size="10.00">PHNodeOperation::Verbosity</text>
</a>
</g>
</g>
<!-- Node22&#45;&gt;Node23 -->
<g id="edge25" class="edge"><title>Node22&#45;&gt;Node23</title>
<path fill="none" stroke="midnightblue" d="M459.582,-234.381C469.998,-233.317 480.735,-232.221 491.242,-231.147"/>
<polygon fill="midnightblue" stroke="midnightblue" points="491.635,-234.625 501.228,-230.127 490.924,-227.662 491.635,-234.625"/>
</g>
<!-- Node24 -->
<g id="node24" class="node"><title>Node24</title>
<g id="a_node24"><a xlink:href="../../d5/d07/classPHNodeIterator.html#a4cfa0490b6522394b13723c7db38a3a6" target="_top" xlink:title="PHNodeIterator::cd">
<polygon fill="none" stroke="black" points="522,-251.5 522,-270.5 622,-270.5 622,-251.5 522,-251.5"/>
<text text-anchor="middle" x="572" y="-258.5" font-family="FreeSans" font-size="10.00">PHNodeIterator::cd</text>
</a>
</g>
</g>
<!-- Node22&#45;&gt;Node24 -->
<g id="edge26" class="edge"><title>Node22&#45;&gt;Node24</title>
<path fill="none" stroke="midnightblue" d="M459.582,-249.619C476.907,-251.388 495.12,-253.249 511.685,-254.941"/>
<polygon fill="midnightblue" stroke="midnightblue" points="511.46,-258.436 521.764,-255.97 512.171,-251.472 511.46,-258.436"/>
</g>
<!-- Node26 -->
<g id="node26" class="node"><title>Node26</title>
<g id="a_node26"><a xlink:href="../../d5/d07/classPHNodeIterator.html#afeaefab44bf0ab15a439926205924f19" target="_top" xlink:title="PHNodeIterator::forEach">
<polygon fill="none" stroke="black" points="511,-289.5 511,-308.5 633,-308.5 633,-289.5 511,-289.5"/>
<text text-anchor="middle" x="572" y="-296.5" font-family="FreeSans" font-size="10.00">PHNodeIterator::forEach</text>
</a>
</g>
</g>
<!-- Node22&#45;&gt;Node26 -->
<g id="edge30" class="edge"><title>Node22&#45;&gt;Node26</title>
<path fill="none" stroke="midnightblue" d="M410.823,-251.511C433.197,-259.589 466.518,-271.235 496,-280 504.051,-282.394 512.644,-284.751 521.033,-286.948"/>
<polygon fill="midnightblue" stroke="midnightblue" points="520.187,-290.344 530.744,-289.446 521.931,-283.565 520.187,-290.344"/>
</g>
<!-- Node24&#45;&gt;Node8 -->
<g id="edge28" class="edge"><title>Node24&#45;&gt;Node8</title>
<path fill="none" stroke="midnightblue" d="M617.961,-270.54C627.99,-273.176 638.471,-276.338 648,-280 664.888,-286.489 667.363,-291.893 684,-299 689.036,-301.151 694.404,-303.219 699.756,-305.147"/>
<polygon fill="midnightblue" stroke="midnightblue" points="698.701,-308.486 709.296,-308.456 700.994,-301.873 698.701,-308.486"/>
</g>
<!-- Node24&#45;&gt;Node9 -->
<g id="edge29" class="edge"><title>Node24&#45;&gt;Node9</title>
<path fill="none" stroke="midnightblue" d="M622.044,-266.547C641.013,-268.692 662.877,-271.165 682.645,-273.4"/>
<polygon fill="midnightblue" stroke="midnightblue" points="682.435,-276.899 692.765,-274.545 683.221,-269.943 682.435,-276.899"/>
</g>
<!-- Node25 -->
<g id="node25" class="node"><title>Node25</title>
<g id="a_node25"><a xlink:href="../../dc/d82/classPHNode.html#a5c15cb20d02290b69eb4d7f6051c9722" target="_top" xlink:title="PHNode::getParent">
<polygon fill="none" stroke="black" points="691.5,-232.5 691.5,-251.5 792.5,-251.5 792.5,-232.5 691.5,-232.5"/>
<text text-anchor="middle" x="742" y="-239.5" font-family="FreeSans" font-size="10.00">PHNode::getParent</text>
</a>
</g>
</g>
<!-- Node24&#45;&gt;Node25 -->
<g id="edge27" class="edge"><title>Node24&#45;&gt;Node25</title>
<path fill="none" stroke="midnightblue" d="M622.044,-255.453C640.601,-253.355 661.928,-250.943 681.353,-248.746"/>
<polygon fill="midnightblue" stroke="midnightblue" points="681.769,-252.221 691.313,-247.619 680.983,-245.265 681.769,-252.221"/>
</g>
<!-- Node26&#45;&gt;Node8 -->
<g id="edge31" class="edge"><title>Node26&#45;&gt;Node8</title>
<path fill="none" stroke="midnightblue" d="M633.177,-305.806C650.175,-307.728 668.591,-309.811 685.312,-311.702"/>
<polygon fill="midnightblue" stroke="midnightblue" points="685.146,-315.205 695.476,-312.851 685.933,-308.25 685.146,-315.205"/>
</g>
<!-- Node26&#45;&gt;Node26 -->
<g id="edge32" class="edge"><title>Node26&#45;&gt;Node26</title>
<path fill="none" stroke="midnightblue" d="M545.798,-308.757C533.051,-317.565 541.785,-327 572,-327 592.301,-327 602.904,-322.741 603.811,-317.275"/>
<polygon fill="midnightblue" stroke="midnightblue" points="606.625,-315.184 598.202,-308.757 600.779,-319.034 606.625,-315.184"/>
</g>
</g>
</svg>
