<?xml version="1.0" encoding="UTF-8" standalone="no"?>
<!DOCTYPE svg PUBLIC "-//W3C//DTD SVG 1.1//EN"
 "http://www.w3.org/Graphics/SVG/1.1/DTD/svg11.dtd">
<!-- Generated by graphviz version 2.36.0 (20140111.2315)
 -->
<!-- Title: Fun4AllServer::topNode Pages: 1 -->
<svg width="634pt" height="104pt"
 viewBox="0.00 0.00 634.00 104.00" xmlns="http://www.w3.org/2000/svg" xmlns:xlink="http://www.w3.org/1999/xlink">
<g id="graph0" class="graph" transform="scale(1 1) rotate(0) translate(4 100)">
<title>Fun4AllServer::topNode</title>
<!-- Node1 -->
<g id="node1" class="node"><title>Node1</title>
<polygon fill="#bfbfbf" stroke="black" points="0.5,-57.5 0.5,-76.5 119.5,-76.5 119.5,-57.5 0.5,-57.5"/>
<text text-anchor="middle" x="60" y="-64.5" font-family="FreeSans" font-size="10.00">Fun4AllServer::topNode</text>
</g>
<!-- Node2 -->
<g id="node2" class="node"><title>Node2</title>
<g id="a_node2"><a xlink:href="../../da/d29/classFun4AllServer.html#a76e4880f2838ed1522160c0826b0202a" target="_top" xlink:title="Fun4AllServer::AddTopNode">
<polygon fill="none" stroke="black" points="156,-76.5 156,-95.5 296,-95.5 296,-76.5 156,-76.5"/>
<text text-anchor="middle" x="226" y="-83.5" font-family="FreeSans" font-size="10.00">Fun4AllServer::AddTopNode</text>
</a>
</g>
</g>
<!-- Node1&#45;&gt;Node2 -->
<g id="edge1" class="edge"><title>Node1&#45;&gt;Node2</title>
<path fill="none" stroke="midnightblue" d="M119.745,-73.8058C128.134,-74.7777 136.878,-75.7907 145.583,-76.7992"/>
<polygon fill="midnightblue" stroke="midnightblue" points="145.424,-80.3041 155.76,-77.9783 146.23,-73.3507 145.424,-80.3041"/>
</g>
<!-- Node3 -->
<g id="node3" class="node"><title>Node3</title>
<g id="a_node3"><a xlink:href="../../da/d29/classFun4AllServer.html#a2ebfcdcf706670c98c189bfa93c3ff89" target="_top" xlink:title="Fun4AllServer::InitNodeTree">
<polygon fill="none" stroke="black" points="156.5,-38.5 156.5,-57.5 295.5,-57.5 295.5,-38.5 156.5,-38.5"/>
<text text-anchor="middle" x="226" y="-45.5" font-family="FreeSans" font-size="10.00">Fun4AllServer::InitNodeTree</text>
</a>
</g>
</g>
<!-- Node1&#45;&gt;Node3 -->
<g id="edge2" class="edge"><title>Node1&#45;&gt;Node3</title>
<path fill="none" stroke="midnightblue" d="M119.745,-60.1942C128.359,-59.1962 137.347,-58.155 146.282,-57.1197"/>
<polygon fill="midnightblue" stroke="midnightblue" points="146.795,-60.5838 156.326,-55.9561 145.99,-53.6303 146.795,-60.5838"/>
</g>
<!-- Node4 -->
<g id="node4" class="node"><title>Node4</title>
<g id="a_node4"><a xlink:href="../../d5/dca/classPHCompositeNode.html#ac7dbf017614c324e218a001d729607bf" target="_top" xlink:title="PHCompositeNode::addNode">
<polygon fill="none" stroke="black" points="332,-38.5 332,-57.5 476,-57.5 476,-38.5 332,-38.5"/>
<text text-anchor="middle" x="404" y="-45.5" font-family="FreeSans" font-size="10.00">PHCompositeNode::addNode</text>
</a>
</g>
</g>
<!-- Node3&#45;&gt;Node4 -->
<g id="edge3" class="edge"><title>Node3&#45;&gt;Node4</title>
<path fill="none" stroke="midnightblue" d="M295.55,-48C304.083,-48 312.873,-48 321.576,-48"/>
<polygon fill="midnightblue" stroke="midnightblue" points="321.733,-51.5001 331.733,-48 321.733,-44.5001 321.733,-51.5001"/>
</g>
<!-- Node5 -->
<g id="node5" class="node"><title>Node5</title>
<g id="a_node5"><a xlink:href="../../dc/d82/classPHNode.html#aca3576f926a4401eddc3d88bf0ce0de3" target="_top" xlink:title="PHNode::getName">
<polygon fill="none" stroke="black" points="520,-76.5 520,-95.5 618,-95.5 618,-76.5 520,-76.5"/>
<text text-anchor="middle" x="569" y="-83.5" font-family="FreeSans" font-size="10.00">PHNode::getName</text>
</a>
</g>
</g>
<!-- Node4&#45;&gt;Node5 -->
<g id="edge4" class="edge"><title>Node4&#45;&gt;Node5</title>
<path fill="none" stroke="midnightblue" d="M446.132,-57.589C467.738,-62.6261 494.409,-68.8438 517.286,-74.1771"/>
<polygon fill="midnightblue" stroke="midnightblue" points="516.63,-77.6181 527.164,-76.4799 518.22,-70.8009 516.63,-77.6181"/>
</g>
<!-- Node6 -->
<g id="node6" class="node"><title>Node6</title>
<g id="a_node6"><a xlink:href="../../dc/d82/classPHNode.html#adda2bd6cef2d5067bbe3016a990b7198" target="_top" xlink:title="PHNode::setParent">
<polygon fill="none" stroke="black" points="518.5,-38.5 518.5,-57.5 619.5,-57.5 619.5,-38.5 518.5,-38.5"/>
<text text-anchor="middle" x="569" y="-45.5" font-family="FreeSans" font-size="10.00">PHNode::setParent</text>
</a>
</g>
</g>
<!-- Node4&#45;&gt;Node6 -->
<g id="edge5" class="edge"><title>Node4&#45;&gt;Node6</title>
<path fill="none" stroke="midnightblue" d="M476.02,-48C486.701,-48 497.626,-48 508.045,-48"/>
<polygon fill="midnightblue" stroke="midnightblue" points="508.268,-51.5001 518.268,-48 508.268,-44.5001 508.268,-51.5001"/>
</g>
<!-- Node7 -->
<g id="node7" class="node"><title>Node7</title>
<g id="a_node7"><a xlink:href="../../d6/d86/classPHPointerList.html#af5fc4e6958b5b90c57bfb497566f503c" target="_top" xlink:title="PHPointerList::append">
<polygon fill="none" stroke="black" points="512,-0.5 512,-19.5 626,-19.5 626,-0.5 512,-0.5"/>
<text text-anchor="middle" x="569" y="-7.5" font-family="FreeSans" font-size="10.00">PHPointerList::append</text>
</a>
</g>
</g>
<!-- Node4&#45;&gt;Node7 -->
<g id="edge6" class="edge"><title>Node4&#45;&gt;Node7</title>
<path fill="none" stroke="midnightblue" d="M446.132,-38.411C467.738,-33.3739 494.409,-27.1562 517.286,-21.8229"/>
<polygon fill="midnightblue" stroke="midnightblue" points="518.22,-25.1991 527.164,-19.5201 516.63,-18.3819 518.22,-25.1991"/>
</g>
</g>
</svg>
