<?xml version="1.0" encoding="UTF-8" standalone="no"?>
<!DOCTYPE svg PUBLIC "-//W3C//DTD SVG 1.1//EN"
 "http://www.w3.org/Graphics/SVG/1.1/DTD/svg11.dtd">
<!-- Generated by graphviz version 2.36.0 (20140111.2315)
 -->
<!-- Title: Fun4AllServer::InitNodeTree Pages: 1 -->
<svg width="478pt" height="104pt"
 viewBox="0.00 0.00 478.00 104.00" xmlns="http://www.w3.org/2000/svg" xmlns:xlink="http://www.w3.org/1999/xlink">
<g id="graph0" class="graph" transform="scale(1 1) rotate(0) translate(4 100)">
<title>Fun4AllServer::InitNodeTree</title>
<!-- Node1 -->
<g id="node1" class="node"><title>Node1</title>
<polygon fill="#bfbfbf" stroke="black" points="0.5,-38.5 0.5,-57.5 139.5,-57.5 139.5,-38.5 0.5,-38.5"/>
<text text-anchor="middle" x="70" y="-45.5" font-family="FreeSans" font-size="10.00">Fun4AllServer::InitNodeTree</text>
</g>
<!-- Node2 -->
<g id="node2" class="node"><title>Node2</title>
<g id="a_node2"><a xlink:href="../../d5/dca/classPHCompositeNode.html#ac7dbf017614c324e218a001d729607bf" target="_top" xlink:title="PHCompositeNode::addNode">
<polygon fill="none" stroke="black" points="176,-38.5 176,-57.5 320,-57.5 320,-38.5 176,-38.5"/>
<text text-anchor="middle" x="248" y="-45.5" font-family="FreeSans" font-size="10.00">PHCompositeNode::addNode</text>
</a>
</g>
</g>
<!-- Node1&#45;&gt;Node2 -->
<g id="edge1" class="edge"><title>Node1&#45;&gt;Node2</title>
<path fill="none" stroke="midnightblue" d="M139.55,-48C148.083,-48 156.873,-48 165.576,-48"/>
<polygon fill="midnightblue" stroke="midnightblue" points="165.733,-51.5001 175.733,-48 165.733,-44.5001 165.733,-51.5001"/>
</g>
<!-- Node3 -->
<g id="node3" class="node"><title>Node3</title>
<g id="a_node3"><a xlink:href="../../dc/d82/classPHNode.html#aca3576f926a4401eddc3d88bf0ce0de3" target="_top" xlink:title="PHNode::getName">
<polygon fill="none" stroke="black" points="364,-76.5 364,-95.5 462,-95.5 462,-76.5 364,-76.5"/>
<text text-anchor="middle" x="413" y="-83.5" font-family="FreeSans" font-size="10.00">PHNode::getName</text>
</a>
</g>
</g>
<!-- Node2&#45;&gt;Node3 -->
<g id="edge2" class="edge"><title>Node2&#45;&gt;Node3</title>
<path fill="none" stroke="midnightblue" d="M290.132,-57.589C311.738,-62.6261 338.409,-68.8438 361.286,-74.1771"/>
<polygon fill="midnightblue" stroke="midnightblue" points="360.63,-77.6181 371.164,-76.4799 362.22,-70.8009 360.63,-77.6181"/>
</g>
<!-- Node4 -->
<g id="node4" class="node"><title>Node4</title>
<g id="a_node4"><a xlink:href="../../dc/d82/classPHNode.html#adda2bd6cef2d5067bbe3016a990b7198" target="_top" xlink:title="PHNode::setParent">
<polygon fill="none" stroke="black" points="362.5,-38.5 362.5,-57.5 463.5,-57.5 463.5,-38.5 362.5,-38.5"/>
<text text-anchor="middle" x="413" y="-45.5" font-family="FreeSans" font-size="10.00">PHNode::setParent</text>
</a>
</g>
</g>
<!-- Node2&#45;&gt;Node4 -->
<g id="edge3" class="edge"><title>Node2&#45;&gt;Node4</title>
<path fill="none" stroke="midnightblue" d="M320.02,-48C330.701,-48 341.626,-48 352.045,-48"/>
<polygon fill="midnightblue" stroke="midnightblue" points="352.268,-51.5001 362.268,-48 352.268,-44.5001 352.268,-51.5001"/>
</g>
<!-- Node5 -->
<g id="node5" class="node"><title>Node5</title>
<g id="a_node5"><a xlink:href="../../d6/d86/classPHPointerList.html#af5fc4e6958b5b90c57bfb497566f503c" target="_top" xlink:title="PHPointerList::append">
<polygon fill="none" stroke="black" points="356,-0.5 356,-19.5 470,-19.5 470,-0.5 356,-0.5"/>
<text text-anchor="middle" x="413" y="-7.5" font-family="FreeSans" font-size="10.00">PHPointerList::append</text>
</a>
</g>
</g>
<!-- Node2&#45;&gt;Node5 -->
<g id="edge4" class="edge"><title>Node2&#45;&gt;Node5</title>
<path fill="none" stroke="midnightblue" d="M290.132,-38.411C311.738,-33.3739 338.409,-27.1562 361.286,-21.8229"/>
<polygon fill="midnightblue" stroke="midnightblue" points="362.22,-25.1991 371.164,-19.5201 360.63,-18.3819 362.22,-25.1991"/>
</g>
</g>
</svg>
