<?xml version="1.0" encoding="UTF-8" standalone="no"?>
<!DOCTYPE svg PUBLIC "-//W3C//DTD SVG 1.1//EN"
 "http://www.w3.org/Graphics/SVG/1.1/DTD/svg11.dtd">
<!-- Generated by graphviz version 2.36.0 (20140111.2315)
 -->
<!-- Title: fun4all/fun4all/Fun4AllOutputManager.h Pages: 1 -->
<svg width="778pt" height="176pt"
 viewBox="0.00 0.00 778.00 176.00" xmlns="http://www.w3.org/2000/svg" xmlns:xlink="http://www.w3.org/1999/xlink">
<g id="graph0" class="graph" transform="scale(1 1) rotate(0) translate(4 172)">
<title>fun4all/fun4all/Fun4AllOutputManager.h</title>
<!-- Node1 -->
<g id="node1" class="node"><title>Node1</title>
<polygon fill="#bfbfbf" stroke="black" points="306,-137 306,-167 448,-167 448,-137 306,-137"/>
<text text-anchor="start" x="314" y="-155" font-family="FreeSans" font-size="10.00">fun4all/fun4all/Fun4AllOutput</text>
<text text-anchor="middle" x="377" y="-144" font-family="FreeSans" font-size="10.00">Manager.h</text>
</g>
<!-- Node2 -->
<g id="node2" class="node"><title>Node2</title>
<g id="a_node2"><a xlink:href="../../db/d22/Fun4AllDstOutputManager_8h.html" target="_top" xlink:title="fun4all/fun4all/Fun4AllDst\lOutputManager.h">
<polygon fill="none" stroke="black" points="1,-69 1,-99 129,-99 129,-69 1,-69"/>
<text text-anchor="start" x="9" y="-87" font-family="FreeSans" font-size="10.00">fun4all/fun4all/Fun4AllDst</text>
<text text-anchor="middle" x="65" y="-76" font-family="FreeSans" font-size="10.00">OutputManager.h</text>
</a>
</g>
</g>
<!-- Node1&#45;&gt;Node2 -->
<g id="edge1" class="edge"><title>Node1&#45;&gt;Node2</title>
<path fill="none" stroke="midnightblue" d="M300.49,-134.815C247.863,-123.683 178.766,-109.066 129.047,-98.5483"/>
<polygon fill="midnightblue" stroke="midnightblue" points="299.943,-138.277 310.451,-136.922 301.392,-131.428 299.943,-138.277"/>
</g>
<!-- Node4 -->
<g id="node4" class="node"><title>Node4</title>
<g id="a_node4"><a xlink:href="../../da/d34/Fun4AllEventOutputManager_8h.html" target="_top" xlink:title="fun4all/fun4all/Fun4AllEvent\lOutputManager.h">
<polygon fill="none" stroke="black" points="150.5,-69 150.5,-99 287.5,-99 287.5,-69 150.5,-69"/>
<text text-anchor="start" x="158.5" y="-87" font-family="FreeSans" font-size="10.00">fun4all/fun4all/Fun4AllEvent</text>
<text text-anchor="middle" x="219" y="-76" font-family="FreeSans" font-size="10.00">OutputManager.h</text>
</a>
</g>
</g>
<!-- Node1&#45;&gt;Node4 -->
<g id="edge3" class="edge"><title>Node1&#45;&gt;Node4</title>
<path fill="none" stroke="midnightblue" d="M333.645,-132.89C308.079,-122.21 276.211,-108.898 252.567,-99.0218"/>
<polygon fill="midnightblue" stroke="midnightblue" points="332.529,-136.216 343.105,-136.841 335.227,-129.757 332.529,-136.216"/>
</g>
<!-- Node7 -->
<g id="node7" class="node"><title>Node7</title>
<g id="a_node7"><a xlink:href="../../db/dfa/Fun4AllOutputManager_8cc.html" target="_top" xlink:title="fun4all/fun4all/Fun4AllOutput\lManager.cc">
<polygon fill="none" stroke="black" points="306,-69 306,-99 448,-99 448,-69 306,-69"/>
<text text-anchor="start" x="314" y="-87" font-family="FreeSans" font-size="10.00">fun4all/fun4all/Fun4AllOutput</text>
<text text-anchor="middle" x="377" y="-76" font-family="FreeSans" font-size="10.00">Manager.cc</text>
</a>
</g>
</g>
<!-- Node1&#45;&gt;Node7 -->
<g id="edge6" class="edge"><title>Node1&#45;&gt;Node7</title>
<path fill="none" stroke="midnightblue" d="M377,-126.532C377,-117.361 377,-107.245 377,-99.2931"/>
<polygon fill="midnightblue" stroke="midnightblue" points="373.5,-126.679 377,-136.679 380.5,-126.679 373.5,-126.679"/>
</g>
<!-- Node8 -->
<g id="node8" class="node"><title>Node8</title>
<g id="a_node8"><a xlink:href="../../d0/d7a/Fun4AllPrdfOutputManager_8h.html" target="_top" xlink:title="fun4all/fun4all/Fun4AllPrdf\lOutputManager.h">
<polygon fill="none" stroke="black" points="466.5,-69 466.5,-99 597.5,-99 597.5,-69 466.5,-69"/>
<text text-anchor="start" x="474.5" y="-87" font-family="FreeSans" font-size="10.00">fun4all/fun4all/Fun4AllPrdf</text>
<text text-anchor="middle" x="532" y="-76" font-family="FreeSans" font-size="10.00">OutputManager.h</text>
</a>
</g>
</g>
<!-- Node1&#45;&gt;Node8 -->
<g id="edge7" class="edge"><title>Node1&#45;&gt;Node8</title>
<path fill="none" stroke="midnightblue" d="M419.531,-132.89C444.612,-122.21 475.875,-108.898 499.07,-99.0218"/>
<polygon fill="midnightblue" stroke="midnightblue" points="418.081,-129.703 410.251,-136.841 420.823,-136.144 418.081,-129.703"/>
</g>
<!-- Node10 -->
<g id="node10" class="node"><title>Node10</title>
<g id="a_node10"><a xlink:href="../../d8/d7a/Fun4AllServer_8cc.html" target="_top" xlink:title="fun4all/fun4all/Fun4AllServer.cc">
<polygon fill="none" stroke="black" points="616,-74.5 616,-93.5 770,-93.5 770,-74.5 616,-74.5"/>
<text text-anchor="middle" x="693" y="-81.5" font-family="FreeSans" font-size="10.00">fun4all/fun4all/Fun4AllServer.cc</text>
</a>
</g>
</g>
<!-- Node1&#45;&gt;Node10 -->
<g id="edge9" class="edge"><title>Node1&#45;&gt;Node10</title>
<path fill="none" stroke="midnightblue" d="M454.228,-134.87C516.741,-121.814 602.328,-103.938 652.237,-93.5138"/>
<polygon fill="midnightblue" stroke="midnightblue" points="453.476,-131.452 444.402,-136.922 454.907,-138.304 453.476,-131.452"/>
</g>
<!-- Node3 -->
<g id="node3" class="node"><title>Node3</title>
<g id="a_node3"><a xlink:href="../../d9/d74/Fun4AllDstOutputManager_8cc.html" target="_top" xlink:title="fun4all/fun4all/Fun4AllDst\lOutputManager.cc">
<polygon fill="none" stroke="black" points="0,-1 0,-31 128,-31 128,-1 0,-1"/>
<text text-anchor="start" x="8" y="-19" font-family="FreeSans" font-size="10.00">fun4all/fun4all/Fun4AllDst</text>
<text text-anchor="middle" x="64" y="-8" font-family="FreeSans" font-size="10.00">OutputManager.cc</text>
</a>
</g>
</g>
<!-- Node2&#45;&gt;Node3 -->
<g id="edge2" class="edge"><title>Node2&#45;&gt;Node3</title>
<path fill="none" stroke="midnightblue" d="M64.6293,-58.5322C64.4903,-49.3606 64.337,-39.2449 64.2166,-31.2931"/>
<polygon fill="midnightblue" stroke="midnightblue" points="61.1318,-58.7332 64.783,-68.679 68.131,-58.6271 61.1318,-58.7332"/>
</g>
<!-- Node5 -->
<g id="node5" class="node"><title>Node5</title>
<g id="a_node5"><a xlink:href="../../d6/dbe/Fun4AllEventOutputManager_8cc.html" target="_top" xlink:title="fun4all/fun4all/Fun4AllEvent\lOutputManager.cc">
<polygon fill="none" stroke="black" points="146.5,-1 146.5,-31 283.5,-31 283.5,-1 146.5,-1"/>
<text text-anchor="start" x="154.5" y="-19" font-family="FreeSans" font-size="10.00">fun4all/fun4all/Fun4AllEvent</text>
<text text-anchor="middle" x="215" y="-8" font-family="FreeSans" font-size="10.00">OutputManager.cc</text>
</a>
</g>
</g>
<!-- Node4&#45;&gt;Node5 -->
<g id="edge4" class="edge"><title>Node4&#45;&gt;Node5</title>
<path fill="none" stroke="midnightblue" d="M217.517,-58.5322C216.961,-49.3606 216.348,-39.2449 215.866,-31.2931"/>
<polygon fill="midnightblue" stroke="midnightblue" points="214.033,-58.9091 218.132,-68.679 221.021,-58.4855 214.033,-58.9091"/>
</g>
<!-- Node6 -->
<g id="node6" class="node"><title>Node6</title>
<g id="a_node6"><a xlink:href="../../db/d70/Fun4AllRolloverFileOutStream_8cc.html" target="_top" xlink:title="fun4all/fun4all/Fun4AllRollover\lFileOutStream.cc">
<polygon fill="none" stroke="black" points="302,-1 302,-31 450,-31 450,-1 302,-1"/>
<text text-anchor="start" x="310" y="-19" font-family="FreeSans" font-size="10.00">fun4all/fun4all/Fun4AllRollover</text>
<text text-anchor="middle" x="376" y="-8" font-family="FreeSans" font-size="10.00">FileOutStream.cc</text>
</a>
</g>
</g>
<!-- Node4&#45;&gt;Node6 -->
<g id="edge5" class="edge"><title>Node4&#45;&gt;Node6</title>
<path fill="none" stroke="midnightblue" d="M262.08,-64.8898C287.485,-54.2103 319.151,-40.8982 342.645,-31.0218"/>
<polygon fill="midnightblue" stroke="midnightblue" points="260.543,-61.7395 252.68,-68.8413 263.255,-68.1925 260.543,-61.7395"/>
</g>
<!-- Node9 -->
<g id="node9" class="node"><title>Node9</title>
<g id="a_node9"><a xlink:href="../../d8/d3b/Fun4AllPrdfOutputManager_8cc.html" target="_top" xlink:title="fun4all/fun4all/Fun4AllPrdf\lOutputManager.cc">
<polygon fill="none" stroke="black" points="468.5,-1 468.5,-31 599.5,-31 599.5,-1 468.5,-1"/>
<text text-anchor="start" x="476.5" y="-19" font-family="FreeSans" font-size="10.00">fun4all/fun4all/Fun4AllPrdf</text>
<text text-anchor="middle" x="534" y="-8" font-family="FreeSans" font-size="10.00">OutputManager.cc</text>
</a>
</g>
</g>
<!-- Node8&#45;&gt;Node9 -->
<g id="edge8" class="edge"><title>Node8&#45;&gt;Node9</title>
<path fill="none" stroke="midnightblue" d="M532.741,-58.5322C533.019,-49.3606 533.326,-39.2449 533.567,-31.2931"/>
<polygon fill="midnightblue" stroke="midnightblue" points="529.239,-58.5775 532.434,-68.679 536.235,-58.7896 529.239,-58.5775"/>
</g>
</g>
</svg>
