<?xml version="1.0" encoding="UTF-8" standalone="no"?>
<!DOCTYPE svg PUBLIC "-//W3C//DTD SVG 1.1//EN"
 "http://www.w3.org/Graphics/SVG/1.1/DTD/svg11.dtd">
<!-- Generated by graphviz version 2.36.0 (20140111.2315)
 -->
<!-- Title: Fun4AllHistoManager::dumpHistos Pages: 1 -->
<svg width="428pt" height="180pt"
 viewBox="0.00 0.00 428.00 180.00" xmlns="http://www.w3.org/2000/svg" xmlns:xlink="http://www.w3.org/1999/xlink">
<g id="graph0" class="graph" transform="scale(1 1) rotate(0) translate(4 176)">
<title>Fun4AllHistoManager::dumpHistos</title>
<!-- Node1 -->
<g id="node1" class="node"><title>Node1</title>
<polygon fill="#bfbfbf" stroke="black" points="0,-71 0,-101 110,-101 110,-71 0,-71"/>
<text text-anchor="start" x="8" y="-89" font-family="FreeSans" font-size="10.00">Fun4AllHistoManager</text>
<text text-anchor="middle" x="55" y="-78" font-family="FreeSans" font-size="10.00">::dumpHistos</text>
</g>
<!-- Node2 -->
<g id="node2" class="node"><title>Node2</title>
<g id="a_node2"><a xlink:href="../../d1/da8/classPHFlag.html#a4b73a422f0076568904d71f40e849da5" target="_top" xlink:title="PHFlag::FlagExist">
<polygon fill="none" stroke="black" points="158,-152.5 158,-171.5 252,-171.5 252,-152.5 158,-152.5"/>
<text text-anchor="middle" x="205" y="-159.5" font-family="FreeSans" font-size="10.00">PHFlag::FlagExist</text>
</a>
</g>
</g>
<!-- Node1&#45;&gt;Node2 -->
<g id="edge1" class="edge"><title>Node1&#45;&gt;Node2</title>
<path fill="none" stroke="midnightblue" d="M76.606,-101.14C94.3204,-113.633 120.907,-131.169 146,-143 150.614,-145.175 155.543,-147.204 160.507,-149.065"/>
<polygon fill="midnightblue" stroke="midnightblue" points="159.425,-152.395 170.02,-152.431 161.76,-145.796 159.425,-152.395"/>
</g>
<!-- Node3 -->
<g id="node3" class="node"><title>Node3</title>
<g id="a_node3"><a xlink:href="../../d1/da8/classPHFlag.html#a07899067141a5f12333cc37183caddc8" target="_top" xlink:title="PHFlag::get_IntFlag">
<polygon fill="none" stroke="black" points="153.5,-114.5 153.5,-133.5 256.5,-133.5 256.5,-114.5 153.5,-114.5"/>
<text text-anchor="middle" x="205" y="-121.5" font-family="FreeSans" font-size="10.00">PHFlag::get_IntFlag</text>
</a>
</g>
</g>
<!-- Node1&#45;&gt;Node3 -->
<g id="edge2" class="edge"><title>Node1&#45;&gt;Node3</title>
<path fill="none" stroke="midnightblue" d="M110.269,-99.934C125.552,-103.858 142.046,-108.093 156.874,-111.9"/>
<polygon fill="midnightblue" stroke="midnightblue" points="156.282,-115.362 166.838,-114.459 158.023,-108.581 156.282,-115.362"/>
</g>
<!-- Node4 -->
<g id="node4" class="node"><title>Node4</title>
<g id="a_node4"><a xlink:href="../../d8/d14/classrecoConsts.html#ae69a5c29a7199ba16d0e537158618802" target="_top" xlink:title="recoConsts::instance">
<polygon fill="none" stroke="black" points="151.5,-76.5 151.5,-95.5 258.5,-95.5 258.5,-76.5 151.5,-76.5"/>
<text text-anchor="middle" x="205" y="-83.5" font-family="FreeSans" font-size="10.00">recoConsts::instance</text>
</a>
</g>
</g>
<!-- Node1&#45;&gt;Node4 -->
<g id="edge3" class="edge"><title>Node1&#45;&gt;Node4</title>
<path fill="none" stroke="midnightblue" d="M110.269,-86C120.293,-86 130.837,-86 141.091,-86"/>
<polygon fill="midnightblue" stroke="midnightblue" points="141.218,-89.5001 151.218,-86 141.218,-82.5001 141.218,-89.5001"/>
</g>
<!-- Node6 -->
<g id="node6" class="node"><title>Node6</title>
<g id="a_node6"><a xlink:href="../../de/d7e/classTDirectoryHelper.html#aefc78be51a5c3501caf4e2e73bc7ce80" target="_top" xlink:title="TDirectoryHelper::mkdir">
<polygon fill="none" stroke="black" points="146,-38.5 146,-57.5 264,-57.5 264,-38.5 146,-38.5"/>
<text text-anchor="middle" x="205" y="-45.5" font-family="FreeSans" font-size="10.00">TDirectoryHelper::mkdir</text>
</a>
</g>
</g>
<!-- Node1&#45;&gt;Node6 -->
<g id="edge5" class="edge"><title>Node1&#45;&gt;Node6</title>
<path fill="none" stroke="midnightblue" d="M110.269,-72.066C125.552,-68.142 142.046,-63.9071 156.874,-60.0998"/>
<polygon fill="midnightblue" stroke="midnightblue" points="158.023,-63.4185 166.838,-57.5415 156.282,-56.6384 158.023,-63.4185"/>
</g>
<!-- Node7 -->
<g id="node7" class="node"><title>Node7</title>
<g id="a_node7"><a xlink:href="../../d5/dec/classFun4AllBase.html#a41f9ac377743d046f590617fd6f4f0ed" target="_top" xlink:title="Returns the name of this module. ">
<polygon fill="none" stroke="black" points="153.5,-0.5 153.5,-19.5 256.5,-19.5 256.5,-0.5 153.5,-0.5"/>
<text text-anchor="middle" x="205" y="-7.5" font-family="FreeSans" font-size="10.00">Fun4AllBase::Name</text>
</a>
</g>
</g>
<!-- Node1&#45;&gt;Node7 -->
<g id="edge6" class="edge"><title>Node1&#45;&gt;Node7</title>
<path fill="none" stroke="midnightblue" d="M76.606,-70.8605C94.3204,-58.3669 120.907,-40.831 146,-29 150.614,-26.8247 155.543,-24.7956 160.507,-22.9347"/>
<polygon fill="midnightblue" stroke="midnightblue" points="161.76,-26.2042 170.02,-19.5691 159.425,-19.605 161.76,-26.2042"/>
</g>
<!-- Node5 -->
<g id="node5" class="node"><title>Node5</title>
<g id="a_node5"><a xlink:href="../../d8/d14/classrecoConsts.html#ae882d6adc62f783ec78114fe3dee3c24" target="_top" xlink:title="recoConsts::recoConsts">
<polygon fill="none" stroke="black" points="300,-76.5 300,-95.5 420,-95.5 420,-76.5 300,-76.5"/>
<text text-anchor="middle" x="360" y="-83.5" font-family="FreeSans" font-size="10.00">recoConsts::recoConsts</text>
</a>
</g>
</g>
<!-- Node4&#45;&gt;Node5 -->
<g id="edge4" class="edge"><title>Node4&#45;&gt;Node5</title>
<path fill="none" stroke="midnightblue" d="M258.654,-86C268.638,-86 279.224,-86 289.632,-86"/>
<polygon fill="midnightblue" stroke="midnightblue" points="289.952,-89.5001 299.952,-86 289.952,-82.5001 289.952,-89.5001"/>
</g>
</g>
</svg>
