<?xml version="1.0" encoding="UTF-8" standalone="no"?>
<!DOCTYPE svg PUBLIC "-//W3C//DTD SVG 1.1//EN"
 "http://www.w3.org/Graphics/SVG/1.1/DTD/svg11.dtd">
<!-- Generated by graphviz version 2.36.0 (20140111.2315)
 -->
<!-- Title: Fun4AllHistoManager::registerHisto Pages: 1 -->
<svg width="458pt" height="126pt"
 viewBox="0.00 0.00 458.00 126.00" xmlns="http://www.w3.org/2000/svg" xmlns:xlink="http://www.w3.org/1999/xlink">
<g id="graph0" class="graph" transform="scale(1 1) rotate(0) translate(4 122)">
<title>Fun4AllHistoManager::registerHisto</title>
<!-- Node1 -->
<g id="node1" class="node"><title>Node1</title>
<polygon fill="#bfbfbf" stroke="black" points="0,-39 0,-69 110,-69 110,-39 0,-39"/>
<text text-anchor="start" x="8" y="-57" font-family="FreeSans" font-size="10.00">Fun4AllHistoManager</text>
<text text-anchor="middle" x="55" y="-46" font-family="FreeSans" font-size="10.00">::registerHisto</text>
</g>
<!-- Node2 -->
<g id="node2" class="node"><title>Node2</title>
<g id="a_node2"><a xlink:href="../../d3/d96/classFun4AllHistoManager.html#ad13a9bc82841ea99d349f7b9b5f93177" target="_top" xlink:title="Fun4AllHistoManager\l::makeHisto">
<polygon fill="none" stroke="black" points="160,-88 160,-118 270,-118 270,-88 160,-88"/>
<text text-anchor="start" x="168" y="-106" font-family="FreeSans" font-size="10.00">Fun4AllHistoManager</text>
<text text-anchor="middle" x="215" y="-95" font-family="FreeSans" font-size="10.00">::makeHisto</text>
</a>
</g>
</g>
<!-- Node1&#45;&gt;Node2 -->
<g id="edge1" class="edge"><title>Node1&#45;&gt;Node2</title>
<path fill="none" stroke="midnightblue" d="M114.405,-72.1129C131.202,-77.3222 149.335,-82.9457 165.466,-87.9484"/>
<polygon fill="midnightblue" stroke="midnightblue" points="115.282,-68.7207 104.694,-69.1014 113.209,-75.4065 115.282,-68.7207"/>
</g>
<!-- Node4 -->
<g id="node4" class="node"><title>Node4</title>
<g id="a_node4"><a xlink:href="../../d3/d96/classFun4AllHistoManager.html#a9af9dcb3bbd224b1581988bca1244a63" target="_top" xlink:title="Fun4AllHistoManager\l::registerHisto">
<polygon fill="none" stroke="black" points="160,-39 160,-69 270,-69 270,-39 160,-39"/>
<text text-anchor="start" x="168" y="-57" font-family="FreeSans" font-size="10.00">Fun4AllHistoManager</text>
<text text-anchor="middle" x="215" y="-46" font-family="FreeSans" font-size="10.00">::registerHisto</text>
</a>
</g>
</g>
<!-- Node1&#45;&gt;Node4 -->
<g id="edge3" class="edge"><title>Node1&#45;&gt;Node4</title>
<path fill="none" stroke="midnightblue" d="M120.657,-54C133.657,-54 147.193,-54 159.793,-54"/>
<polygon fill="midnightblue" stroke="midnightblue" points="120.375,-50.5001 110.375,-54 120.375,-57.5001 120.375,-50.5001"/>
</g>
<!-- Node5 -->
<g id="node5" class="node"><title>Node5</title>
<g id="a_node5"><a xlink:href="../../da/d29/classFun4AllServer.html#aefb265a71e11287ea38dea3a0f0b9b4f" target="_top" xlink:title="Fun4AllServer::registerHisto">
<polygon fill="none" stroke="black" points="146,-0.5 146,-19.5 284,-19.5 284,-0.5 146,-0.5"/>
<text text-anchor="middle" x="215" y="-7.5" font-family="FreeSans" font-size="10.00">Fun4AllServer::registerHisto</text>
</a>
</g>
</g>
<!-- Node1&#45;&gt;Node5 -->
<g id="edge4" class="edge"><title>Node1&#45;&gt;Node5</title>
<path fill="none" stroke="midnightblue" d="M119.827,-36.2255C140.262,-30.5346 162.106,-24.4516 179.605,-19.5783"/>
<polygon fill="midnightblue" stroke="midnightblue" points="118.627,-32.9263 109.933,-38.9808 120.505,-39.6697 118.627,-32.9263"/>
</g>
<!-- Node3 -->
<g id="node3" class="node"><title>Node3</title>
<g id="a_node3"><a xlink:href="../../da/d29/classFun4AllServer.html#a248740a0e8d771bcabbe44cc08a5a1b6" target="_top" xlink:title="Fun4AllServer::makeHisto">
<polygon fill="none" stroke="black" points="320,-93.5 320,-112.5 450,-112.5 450,-93.5 320,-93.5"/>
<text text-anchor="middle" x="385" y="-100.5" font-family="FreeSans" font-size="10.00">Fun4AllServer::makeHisto</text>
</a>
</g>
</g>
<!-- Node2&#45;&gt;Node3 -->
<g id="edge2" class="edge"><title>Node2&#45;&gt;Node3</title>
<path fill="none" stroke="midnightblue" d="M280.289,-103C293.225,-103 306.823,-103 319.758,-103"/>
<polygon fill="midnightblue" stroke="midnightblue" points="280.081,-99.5001 270.081,-103 280.081,-106.5 280.081,-99.5001"/>
</g>
</g>
</svg>
