<?xml version="1.0" encoding="UTF-8" standalone="no"?>
<!DOCTYPE svg PUBLIC "-//W3C//DTD SVG 1.1//EN"
 "http://www.w3.org/Graphics/SVG/1.1/DTD/svg11.dtd">
<!-- Generated by graphviz version 2.36.0 (20140111.2315)
 -->
<!-- Title: Fun4AllHistoManager::Print Pages: 1 -->
<svg width="718pt" height="96pt"
 viewBox="0.00 0.00 718.00 96.00" xmlns="http://www.w3.org/2000/svg" xmlns:xlink="http://www.w3.org/1999/xlink">
<g id="graph0" class="graph" transform="scale(1 1) rotate(0) translate(4 92)">
<title>Fun4AllHistoManager::Print</title>
<!-- Node1 -->
<g id="node1" class="node"><title>Node1</title>
<polygon fill="#bfbfbf" stroke="black" points="0,-36 0,-66 110,-66 110,-36 0,-36"/>
<text text-anchor="start" x="8" y="-54" font-family="FreeSans" font-size="10.00">Fun4AllHistoManager</text>
<text text-anchor="middle" x="55" y="-43" font-family="FreeSans" font-size="10.00">::Print</text>
</g>
<!-- Node2 -->
<g id="node2" class="node"><title>Node2</title>
<g id="a_node2"><a xlink:href="../../d3/d96/classFun4AllHistoManager.html#ae5401f032b650d41224dfa0e2f12d364" target="_top" xlink:title="Fun4AllHistoManager\l::getHisto">
<polygon fill="none" stroke="black" points="146,-58 146,-88 256,-88 256,-58 146,-58"/>
<text text-anchor="start" x="154" y="-76" font-family="FreeSans" font-size="10.00">Fun4AllHistoManager</text>
<text text-anchor="middle" x="201" y="-65" font-family="FreeSans" font-size="10.00">::getHisto</text>
</a>
</g>
</g>
<!-- Node1&#45;&gt;Node2 -->
<g id="edge1" class="edge"><title>Node1&#45;&gt;Node2</title>
<path fill="none" stroke="midnightblue" d="M119.991,-60.7763C128.561,-62.0857 137.284,-63.4184 145.667,-64.6992"/>
<polygon fill="midnightblue" stroke="midnightblue" points="120.444,-57.3051 110.03,-59.2546 119.387,-64.2248 120.444,-57.3051"/>
</g>
<!-- Node4 -->
<g id="node4" class="node"><title>Node4</title>
<g id="a_node4"><a xlink:href="../../da/d29/classFun4AllServer.html#ae1b1a243ee1a67367c8da4ec3bdc003d" target="_top" xlink:title="Fun4AllServer::Print">
<polygon fill="none" stroke="black" points="149.5,-19.5 149.5,-38.5 252.5,-38.5 252.5,-19.5 149.5,-19.5"/>
<text text-anchor="middle" x="201" y="-26.5" font-family="FreeSans" font-size="10.00">Fun4AllServer::Print</text>
</a>
</g>
</g>
<!-- Node1&#45;&gt;Node4 -->
<g id="edge3" class="edge"><title>Node1&#45;&gt;Node4</title>
<path fill="none" stroke="midnightblue" d="M120.163,-41.1973C129.985,-39.6968 140.003,-38.1661 149.476,-36.7189"/>
<polygon fill="midnightblue" stroke="midnightblue" points="119.387,-37.7752 110.03,-42.7454 120.444,-44.6949 119.387,-37.7752"/>
</g>
<!-- Node3 -->
<g id="node3" class="node"><title>Node3</title>
<g id="a_node3"><a xlink:href="../../da/d29/classFun4AllServer.html#a186f6b632bfe6120864a29651f3fff10" target="_top" xlink:title="Fun4AllServer::getHisto">
<polygon fill="none" stroke="black" points="295.5,-63.5 295.5,-82.5 414.5,-82.5 414.5,-63.5 295.5,-63.5"/>
<text text-anchor="middle" x="355" y="-70.5" font-family="FreeSans" font-size="10.00">Fun4AllServer::getHisto</text>
</a>
</g>
</g>
<!-- Node2&#45;&gt;Node3 -->
<g id="edge2" class="edge"><title>Node2&#45;&gt;Node3</title>
<path fill="none" stroke="midnightblue" d="M266.309,-73C275.914,-73 285.773,-73 295.255,-73"/>
<polygon fill="midnightblue" stroke="midnightblue" points="266.018,-69.5001 256.017,-73 266.017,-76.5001 266.018,-69.5001"/>
</g>
<!-- Node5 -->
<g id="node5" class="node"><title>Node5</title>
<g id="a_node5"><a xlink:href="../../da/d29/classFun4AllServer.html#afcfc5583204cac58b4e66a2406187a18" target="_top" xlink:title="Fun4AllServer::BeginRun">
<polygon fill="none" stroke="black" points="292.5,-19.5 292.5,-38.5 417.5,-38.5 417.5,-19.5 292.5,-19.5"/>
<text text-anchor="middle" x="355" y="-26.5" font-family="FreeSans" font-size="10.00">Fun4AllServer::BeginRun</text>
</a>
</g>
</g>
<!-- Node4&#45;&gt;Node5 -->
<g id="edge4" class="edge"><title>Node4&#45;&gt;Node5</title>
<path fill="none" stroke="midnightblue" d="M262.617,-29C272.366,-29 282.467,-29 292.243,-29"/>
<polygon fill="midnightblue" stroke="midnightblue" points="262.614,-25.5001 252.614,-29 262.614,-32.5001 262.614,-25.5001"/>
</g>
<!-- Node6 -->
<g id="node6" class="node"><title>Node6</title>
<g id="a_node6"><a xlink:href="../../da/d29/classFun4AllServer.html#a11bbc8b2f53bc06e0b05ee202dd6372a" target="_top" xlink:title="run n events (0 means up to end of file) ">
<polygon fill="none" stroke="black" points="454,-19.5 454,-38.5 550,-38.5 550,-19.5 454,-19.5"/>
<text text-anchor="middle" x="502" y="-26.5" font-family="FreeSans" font-size="10.00">Fun4AllServer::run</text>
</a>
</g>
</g>
<!-- Node5&#45;&gt;Node6 -->
<g id="edge5" class="edge"><title>Node5&#45;&gt;Node6</title>
<path fill="none" stroke="midnightblue" d="M428.109,-29C436.823,-29 445.544,-29 453.769,-29"/>
<polygon fill="midnightblue" stroke="midnightblue" points="427.914,-25.5001 417.914,-29 427.914,-32.5001 427.914,-25.5001"/>
</g>
<!-- Node7 -->
<g id="node7" class="node"><title>Node7</title>
<g id="a_node7"><a xlink:href="../../d0/d46/Fun4__SimpleReadMySql_8C.html#a70381893748e3445abc30632beb256ce" target="_top" xlink:title="Fun4_SimpleReadMySql">
<polygon fill="none" stroke="black" points="586.5,-38.5 586.5,-57.5 709.5,-57.5 709.5,-38.5 586.5,-38.5"/>
<text text-anchor="middle" x="648" y="-45.5" font-family="FreeSans" font-size="10.00">Fun4_SimpleReadMySql</text>
</a>
</g>
</g>
<!-- Node6&#45;&gt;Node7 -->
<g id="edge6" class="edge"><title>Node6&#45;&gt;Node7</title>
<path fill="none" stroke="midnightblue" d="M560.109,-36.5352C568.736,-37.6735 577.66,-38.851 586.358,-39.9986"/>
<polygon fill="midnightblue" stroke="midnightblue" points="560.523,-33.0596 550.151,-35.2213 559.607,-39.9994 560.523,-33.0596"/>
</g>
<!-- Node8 -->
<g id="node8" class="node"><title>Node8</title>
<g id="a_node8"><a xlink:href="../../d9/d8c/Fun4ReadMySql_8C.html#a729b39fa627147c63772f28c9be36b62" target="_top" xlink:title="Fun4ReadMySql">
<polygon fill="none" stroke="black" points="604,-0.5 604,-19.5 692,-19.5 692,-0.5 604,-0.5"/>
<text text-anchor="middle" x="648" y="-7.5" font-family="FreeSans" font-size="10.00">Fun4ReadMySql</text>
</a>
</g>
</g>
<!-- Node6&#45;&gt;Node8 -->
<g id="edge7" class="edge"><title>Node6&#45;&gt;Node8</title>
<path fill="none" stroke="midnightblue" d="M560.457,-21.4189C574.854,-19.5193 590.061,-17.5128 603.643,-15.7208"/>
<polygon fill="midnightblue" stroke="midnightblue" points="559.607,-18.0006 550.151,-22.7787 560.523,-24.9404 559.607,-18.0006"/>
</g>
</g>
</svg>
