<?xml version="1.0" encoding="UTF-8" standalone="no"?>
<!DOCTYPE svg PUBLIC "-//W3C//DTD SVG 1.1//EN"
 "http://www.w3.org/Graphics/SVG/1.1/DTD/svg11.dtd">
<!-- Generated by graphviz version 2.36.0 (20140111.2315)
 -->
<!-- Title: fun4all/ffaobjects/RunHeader.h Pages: 1 -->
<svg width="654pt" height="176pt"
 viewBox="0.00 0.00 654.00 176.00" xmlns="http://www.w3.org/2000/svg" xmlns:xlink="http://www.w3.org/1999/xlink">
<g id="graph0" class="graph" transform="scale(1 1) rotate(0) translate(4 172)">
<title>fun4all/ffaobjects/RunHeader.h</title>
<!-- Node1 -->
<g id="node1" class="node"><title>Node1</title>
<polygon fill="#bfbfbf" stroke="black" points="235,-137 235,-167 325,-167 325,-137 235,-137"/>
<text text-anchor="start" x="243" y="-155" font-family="FreeSans" font-size="10.00">fun4all/ffaobjects</text>
<text text-anchor="middle" x="280" y="-144" font-family="FreeSans" font-size="10.00">/RunHeader.h</text>
</g>
<!-- Node2 -->
<g id="node2" class="node"><title>Node2</title>
<g id="a_node2"><a xlink:href="../../d8/d8a/RunHeader_8cc.html" target="_top" xlink:title="fun4all/ffaobjects\l/RunHeader.cc">
<polygon fill="none" stroke="black" points="0,-69 0,-99 90,-99 90,-69 0,-69"/>
<text text-anchor="start" x="8" y="-87" font-family="FreeSans" font-size="10.00">fun4all/ffaobjects</text>
<text text-anchor="middle" x="45" y="-76" font-family="FreeSans" font-size="10.00">/RunHeader.cc</text>
</a>
</g>
</g>
<!-- Node1&#45;&gt;Node2 -->
<g id="edge1" class="edge"><title>Node1&#45;&gt;Node2</title>
<path fill="none" stroke="midnightblue" d="M225.137,-135.592C184.14,-124.078 128.767,-108.526 90.2799,-97.7169"/>
<polygon fill="midnightblue" stroke="midnightblue" points="224.394,-139.018 234.968,-138.353 226.287,-132.279 224.394,-139.018"/>
</g>
<!-- Node3 -->
<g id="node3" class="node"><title>Node3</title>
<g id="a_node3"><a xlink:href="../../db/dca/RunHeaderv1_8h.html" target="_top" xlink:title="fun4all/ffaobjects\l/RunHeaderv1.h">
<polygon fill="none" stroke="black" points="108,-69 108,-99 198,-99 198,-69 108,-69"/>
<text text-anchor="start" x="116" y="-87" font-family="FreeSans" font-size="10.00">fun4all/ffaobjects</text>
<text text-anchor="middle" x="153" y="-76" font-family="FreeSans" font-size="10.00">/RunHeaderv1.h</text>
</a>
</g>
</g>
<!-- Node1&#45;&gt;Node3 -->
<g id="edge2" class="edge"><title>Node1&#45;&gt;Node3</title>
<path fill="none" stroke="midnightblue" d="M243.818,-132.197C223.582,-121.68 198.772,-108.787 180.2,-99.1352"/>
<polygon fill="midnightblue" stroke="midnightblue" points="242.268,-135.336 252.755,-136.841 245.496,-129.124 242.268,-135.336"/>
</g>
<!-- Node5 -->
<g id="node5" class="node"><title>Node5</title>
<g id="a_node5"><a xlink:href="../../d3/d53/Fun4AllDstInputManager_8cc.html" target="_top" xlink:title="fun4all/fun4all/Fun4AllDst\lInputManager.cc">
<polygon fill="none" stroke="black" points="216,-69 216,-99 344,-99 344,-69 216,-69"/>
<text text-anchor="start" x="224" y="-87" font-family="FreeSans" font-size="10.00">fun4all/fun4all/Fun4AllDst</text>
<text text-anchor="middle" x="280" y="-76" font-family="FreeSans" font-size="10.00">InputManager.cc</text>
</a>
</g>
</g>
<!-- Node1&#45;&gt;Node5 -->
<g id="edge4" class="edge"><title>Node1&#45;&gt;Node5</title>
<path fill="none" stroke="midnightblue" d="M280,-126.532C280,-117.361 280,-107.245 280,-99.2931"/>
<polygon fill="midnightblue" stroke="midnightblue" points="276.5,-126.679 280,-136.679 283.5,-126.679 276.5,-126.679"/>
</g>
<!-- Node6 -->
<g id="node6" class="node"><title>Node6</title>
<g id="a_node6"><a xlink:href="../../da/d7b/Fun4AllPrdfInputManager_8cc.html" target="_top" xlink:title="fun4all/fun4all/Fun4AllPrdf\lInputManager.cc">
<polygon fill="none" stroke="black" points="362.5,-69 362.5,-99 493.5,-99 493.5,-69 362.5,-69"/>
<text text-anchor="start" x="370.5" y="-87" font-family="FreeSans" font-size="10.00">fun4all/fun4all/Fun4AllPrdf</text>
<text text-anchor="middle" x="428" y="-76" font-family="FreeSans" font-size="10.00">InputManager.cc</text>
</a>
</g>
</g>
<!-- Node1&#45;&gt;Node6 -->
<g id="edge5" class="edge"><title>Node1&#45;&gt;Node6</title>
<path fill="none" stroke="midnightblue" d="M320.928,-132.749C344.822,-122.093 374.508,-108.855 396.557,-99.0218"/>
<polygon fill="midnightblue" stroke="midnightblue" points="319.457,-129.572 311.75,-136.841 322.308,-135.965 319.457,-129.572"/>
</g>
<!-- Node7 -->
<g id="node7" class="node"><title>Node7</title>
<g id="a_node7"><a xlink:href="../../df/d03/Fun4AllSyncManager_8cc.html" target="_top" xlink:title="fun4all/fun4all/Fun4AllSync\lManager.cc">
<polygon fill="none" stroke="black" points="512,-69 512,-99 646,-99 646,-69 512,-69"/>
<text text-anchor="start" x="520" y="-87" font-family="FreeSans" font-size="10.00">fun4all/fun4all/Fun4AllSync</text>
<text text-anchor="middle" x="579" y="-76" font-family="FreeSans" font-size="10.00">Manager.cc</text>
</a>
</g>
</g>
<!-- Node1&#45;&gt;Node7 -->
<g id="edge6" class="edge"><title>Node1&#45;&gt;Node7</title>
<path fill="none" stroke="midnightblue" d="M334.945,-138.872C385.968,-127.609 461.914,-110.845 515.51,-99.0145"/>
<polygon fill="midnightblue" stroke="midnightblue" points="334.098,-135.474 325.087,-141.048 335.606,-142.31 334.098,-135.474"/>
</g>
<!-- Node4 -->
<g id="node4" class="node"><title>Node4</title>
<g id="a_node4"><a xlink:href="../../d2/d6e/RunHeaderv1_8cc.html" target="_top" xlink:title="fun4all/ffaobjects\l/RunHeaderv1.cc">
<polygon fill="none" stroke="black" points="107,-1 107,-31 199,-31 199,-1 107,-1"/>
<text text-anchor="start" x="115" y="-19" font-family="FreeSans" font-size="10.00">fun4all/ffaobjects</text>
<text text-anchor="middle" x="153" y="-8" font-family="FreeSans" font-size="10.00">/RunHeaderv1.cc</text>
</a>
</g>
</g>
<!-- Node3&#45;&gt;Node4 -->
<g id="edge3" class="edge"><title>Node3&#45;&gt;Node4</title>
<path fill="none" stroke="midnightblue" d="M153,-58.5322C153,-49.3606 153,-39.2449 153,-31.2931"/>
<polygon fill="midnightblue" stroke="midnightblue" points="149.5,-58.6789 153,-68.679 156.5,-58.679 149.5,-58.6789"/>
</g>
</g>
</svg>
