<?xml version="1.0" encoding="UTF-8" standalone="no"?>
<!DOCTYPE svg PUBLIC "-//W3C//DTD SVG 1.1//EN"
 "http://www.w3.org/Graphics/SVG/1.1/DTD/svg11.dtd">
<!-- Generated by graphviz version 2.36.0 (20140111.2315)
 -->
<!-- Title: fun4all/interfaces/SEvent_v1.h Pages: 1 -->
<svg width="263pt" height="108pt"
 viewBox="0.00 0.00 263.00 108.00" xmlns="http://www.w3.org/2000/svg" xmlns:xlink="http://www.w3.org/1999/xlink">
<g id="graph0" class="graph" transform="scale(1 1) rotate(0) translate(4 104)">
<title>fun4all/interfaces/SEvent_v1.h</title>
<!-- Node1 -->
<g id="node1" class="node"><title>Node1</title>
<polygon fill="#bfbfbf" stroke="black" points="67.5,-69 67.5,-99 158.5,-99 158.5,-69 67.5,-69"/>
<text text-anchor="start" x="75.5" y="-87" font-family="FreeSans" font-size="10.00">fun4all/interfaces</text>
<text text-anchor="middle" x="113" y="-76" font-family="FreeSans" font-size="10.00">/SEvent_v1.h</text>
</g>
<!-- Node2 -->
<g id="node2" class="node"><title>Node2</title>
<g id="a_node2"><a xlink:href="../../d3/d47/SEvent__v1_8C.html" target="_top" xlink:title="fun4all/interfaces\l/SEvent_v1.C">
<polygon fill="none" stroke="black" points="-0.5,-1 -0.5,-31 90.5,-31 90.5,-1 -0.5,-1"/>
<text text-anchor="start" x="7.5" y="-19" font-family="FreeSans" font-size="10.00">fun4all/interfaces</text>
<text text-anchor="middle" x="45" y="-8" font-family="FreeSans" font-size="10.00">/SEvent_v1.C</text>
</a>
</g>
</g>
<!-- Node1&#45;&gt;Node2 -->
<g id="edge1" class="edge"><title>Node1&#45;&gt;Node2</title>
<path fill="none" stroke="midnightblue" d="M90.8335,-61.4855C80.6333,-51.5852 68.8095,-40.1092 59.7262,-31.2931"/>
<polygon fill="midnightblue" stroke="midnightblue" points="88.6315,-64.2257 98.245,-68.679 93.5069,-59.2027 88.6315,-64.2257"/>
</g>
<!-- Node3 -->
<g id="node3" class="node"><title>Node3</title>
<g id="a_node3"><a xlink:href="../../dd/d12/ReadMySql_8C.html" target="_top" xlink:title="fun4all/modules/ReadMySql.C">
<polygon fill="none" stroke="black" points="109,-6.5 109,-25.5 255,-25.5 255,-6.5 109,-6.5"/>
<text text-anchor="middle" x="182" y="-13.5" font-family="FreeSans" font-size="10.00">fun4all/modules/ReadMySql.C</text>
</a>
</g>
</g>
<!-- Node1&#45;&gt;Node3 -->
<g id="edge2" class="edge"><title>Node1&#45;&gt;Node3</title>
<path fill="none" stroke="midnightblue" d="M135.467,-61.5094C148.136,-49.3918 163.279,-34.9072 172.77,-25.8283"/>
<polygon fill="midnightblue" stroke="midnightblue" points="132.779,-59.2375 127.972,-68.679 137.618,-64.296 132.779,-59.2375"/>
</g>
</g>
</svg>
