<?xml version="1.0" encoding="UTF-8" standalone="no"?>
<!DOCTYPE svg PUBLIC "-//W3C//DTD SVG 1.1//EN"
 "http://www.w3.org/Graphics/SVG/1.1/DTD/svg11.dtd">
<!-- Generated by graphviz version 2.36.0 (20140111.2315)
 -->
<!-- Title: fun4all/ffaobjects/RunHeaderv1.cc Pages: 1 -->
<svg width="235pt" height="264pt"
 viewBox="0.00 0.00 235.00 264.00" xmlns="http://www.w3.org/2000/svg" xmlns:xlink="http://www.w3.org/1999/xlink">
<g id="graph0" class="graph" transform="scale(1 1) rotate(0) translate(4 260)">
<title>fun4all/ffaobjects/RunHeaderv1.cc</title>
<!-- Node1 -->
<g id="node1" class="node"><title>Node1</title>
<polygon fill="#bfbfbf" stroke="black" points="135,-225 135,-255 227,-255 227,-225 135,-225"/>
<text text-anchor="start" x="143" y="-243" font-family="FreeSans" font-size="10.00">fun4all/ffaobjects</text>
<text text-anchor="middle" x="181" y="-232" font-family="FreeSans" font-size="10.00">/RunHeaderv1.cc</text>
</g>
<!-- Node2 -->
<g id="node2" class="node"><title>Node2</title>
<g id="a_node2"><a xlink:href="../../db/dca/RunHeaderv1_8h.html" target="_top" xlink:title="RunHeaderv1.h">
<polygon fill="none" stroke="black" points="139.5,-168.5 139.5,-187.5 222.5,-187.5 222.5,-168.5 139.5,-168.5"/>
<text text-anchor="middle" x="181" y="-175.5" font-family="FreeSans" font-size="10.00">RunHeaderv1.h</text>
</a>
</g>
</g>
<!-- Node1&#45;&gt;Node2 -->
<g id="edge1" class="edge"><title>Node1&#45;&gt;Node2</title>
<path fill="none" stroke="midnightblue" d="M181,-224.781C181,-216.781 181,-206.689 181,-198.017"/>
<polygon fill="midnightblue" stroke="midnightblue" points="184.5,-197.73 181,-187.731 177.5,-197.731 184.5,-197.73"/>
</g>
<!-- Node3 -->
<g id="node3" class="node"><title>Node3</title>
<g id="a_node3"><a xlink:href="../../da/d61/RunHeader_8h.html" target="_top" xlink:title="RunHeader.h">
<polygon fill="none" stroke="black" points="79.5,-112.5 79.5,-131.5 152.5,-131.5 152.5,-112.5 79.5,-112.5"/>
<text text-anchor="middle" x="116" y="-119.5" font-family="FreeSans" font-size="10.00">RunHeader.h</text>
</a>
</g>
</g>
<!-- Node2&#45;&gt;Node3 -->
<g id="edge2" class="edge"><title>Node2&#45;&gt;Node3</title>
<path fill="none" stroke="midnightblue" d="M170.557,-168.324C160.854,-160.263 146.185,-148.077 134.5,-138.369"/>
<polygon fill="midnightblue" stroke="midnightblue" points="136.562,-135.532 126.633,-131.834 132.089,-140.916 136.562,-135.532"/>
</g>
<!-- Node6 -->
<g id="node6" class="node"><title>Node6</title>
<polygon fill="none" stroke="#bfbfbf" points="94,-0.5 94,-19.5 148,-19.5 148,-0.5 94,-0.5"/>
<text text-anchor="middle" x="121" y="-7.5" font-family="FreeSans" font-size="10.00">iostream</text>
</g>
<!-- Node2&#45;&gt;Node6 -->
<g id="edge8" class="edge"><title>Node2&#45;&gt;Node6</title>
<path fill="none" stroke="midnightblue" d="M185.768,-168.389C196.61,-147.543 220.563,-93.3338 199,-56 190,-40.4166 173.323,-29.7491 157.693,-22.7273"/>
<polygon fill="midnightblue" stroke="midnightblue" points="158.754,-19.3794 148.175,-18.815 156.093,-25.8538 158.754,-19.3794"/>
</g>
<!-- Node7 -->
<g id="node7" class="node"><title>Node7</title>
<polygon fill="none" stroke="#bfbfbf" points="149.5,-56.5 149.5,-75.5 190.5,-75.5 190.5,-56.5 149.5,-56.5"/>
<text text-anchor="middle" x="170" y="-63.5" font-family="FreeSans" font-size="10.00">ctime</text>
</g>
<!-- Node2&#45;&gt;Node7 -->
<g id="edge9" class="edge"><title>Node2&#45;&gt;Node7</title>
<path fill="none" stroke="midnightblue" d="M180.137,-168.368C178.362,-150.617 174.267,-109.666 171.86,-85.5974"/>
<polygon fill="midnightblue" stroke="midnightblue" points="175.337,-85.1935 170.859,-75.5914 168.372,-85.8901 175.337,-85.1935"/>
</g>
<!-- Node4 -->
<g id="node4" class="node"><title>Node4</title>
<g id="a_node4"><a xlink:href="../../df/d32/PHObject_8h.html" target="_top" xlink:title="phool/PHObject.h">
<polygon fill="none" stroke="black" points="-0.5,-56.5 -0.5,-75.5 92.5,-75.5 92.5,-56.5 -0.5,-56.5"/>
<text text-anchor="middle" x="46" y="-63.5" font-family="FreeSans" font-size="10.00">phool/PHObject.h</text>
</a>
</g>
</g>
<!-- Node3&#45;&gt;Node4 -->
<g id="edge3" class="edge"><title>Node3&#45;&gt;Node4</title>
<path fill="none" stroke="midnightblue" d="M104.753,-112.324C94.2026,-104.185 78.1993,-91.8395 65.5578,-82.0874"/>
<polygon fill="midnightblue" stroke="midnightblue" points="67.507,-79.1707 57.4513,-75.8339 63.2314,-84.7132 67.507,-79.1707"/>
</g>
<!-- Node3&#45;&gt;Node6 -->
<g id="edge7" class="edge"><title>Node3&#45;&gt;Node6</title>
<path fill="none" stroke="midnightblue" d="M116.392,-112.368C117.199,-94.617 119.061,-53.6664 120.155,-29.5974"/>
<polygon fill="midnightblue" stroke="midnightblue" points="123.652,-29.7401 120.609,-19.5914 116.659,-29.4221 123.652,-29.7401"/>
</g>
<!-- Node3&#45;&gt;Node7 -->
<g id="edge6" class="edge"><title>Node3&#45;&gt;Node7</title>
<path fill="none" stroke="midnightblue" d="M124.917,-112.083C132.78,-104.22 144.431,-92.5688 153.919,-83.0813"/>
<polygon fill="midnightblue" stroke="midnightblue" points="156.653,-85.2971 161.249,-75.7511 151.703,-80.3473 156.653,-85.2971"/>
</g>
<!-- Node5 -->
<g id="node5" class="node"><title>Node5</title>
<polygon fill="none" stroke="#bfbfbf" points="16.5,-0.5 16.5,-19.5 75.5,-19.5 75.5,-0.5 16.5,-0.5"/>
<text text-anchor="middle" x="46" y="-7.5" font-family="FreeSans" font-size="10.00">TObject.h</text>
</g>
<!-- Node4&#45;&gt;Node5 -->
<g id="edge4" class="edge"><title>Node4&#45;&gt;Node5</title>
<path fill="none" stroke="midnightblue" d="M46,-56.083C46,-49.0059 46,-38.8611 46,-29.9865"/>
<polygon fill="midnightblue" stroke="midnightblue" points="49.5001,-29.751 46,-19.7511 42.5001,-29.7511 49.5001,-29.751"/>
</g>
<!-- Node4&#45;&gt;Node6 -->
<g id="edge5" class="edge"><title>Node4&#45;&gt;Node6</title>
<path fill="none" stroke="midnightblue" d="M58.05,-56.324C69.4631,-48.1066 86.831,-35.6017 100.435,-25.8069"/>
<polygon fill="midnightblue" stroke="midnightblue" points="102.66,-28.5174 108.731,-19.8339 98.5703,-22.8366 102.66,-28.5174"/>
</g>
</g>
</svg>
