<?xml version="1.0" encoding="UTF-8" standalone="no"?>
<!DOCTYPE svg PUBLIC "-//W3C//DTD SVG 1.1//EN"
 "http://www.w3.org/Graphics/SVG/1.1/DTD/svg11.dtd">
<!-- Generated by graphviz version 2.36.0 (20140111.2315)
 -->
<!-- Title: PHTimeServer::iterator Pages: 1 -->
<svg width="343pt" height="482pt"
 viewBox="0.00 0.00 343.00 482.00" xmlns="http://www.w3.org/2000/svg" xmlns:xlink="http://www.w3.org/1999/xlink">
<g id="graph0" class="graph" transform="scale(1 1) rotate(0) translate(4 478)">
<title>PHTimeServer::iterator</title>
<!-- Node1 -->
<g id="node1" class="node"><title>Node1</title>
<polygon fill="#bfbfbf" stroke="black" points="205,-0.5 205,-19.5 321,-19.5 321,-0.5 205,-0.5"/>
<text text-anchor="middle" x="263" y="-7.5" font-family="FreeSans" font-size="10.00">PHTimeServer::iterator</text>
</g>
<!-- Node2 -->
<g id="node2" class="node"><title>Node2</title>
<polygon fill="none" stroke="#bfbfbf" points="209.5,-79 209.5,-109 316.5,-109 316.5,-79 209.5,-79"/>
<text text-anchor="start" x="217.5" y="-97" font-family="FreeSans" font-size="10.00">std::map&lt; std::string,</text>
<text text-anchor="middle" x="263" y="-86" font-family="FreeSans" font-size="10.00"> timer &gt;</text>
</g>
<!-- Node2&#45;&gt;Node1 -->
<g id="edge1" class="edge"><title>Node2&#45;&gt;Node1</title>
<path fill="none" stroke="#9a32cd" stroke-dasharray="5,2" d="M263,-68.5997C263,-52.0312 263,-31.1113 263,-19.5915"/>
<polygon fill="#9a32cd" stroke="#9a32cd" points="259.5,-68.7167 263,-78.7167 266.5,-68.7167 259.5,-68.7167"/>
<text text-anchor="middle" x="275.5" y="-52" font-family="FreeSans" font-size="10.00"> _iter</text>
<text text-anchor="middle" x="275.5" y="-41" font-family="FreeSans" font-size="10.00">_map</text>
</g>
<!-- Node3 -->
<g id="node3" class="node"><title>Node3</title>
<g id="a_node3"><a xlink:title="STL class. ">
<polygon fill="none" stroke="#bfbfbf" points="259.5,-384.5 259.5,-403.5 318.5,-403.5 318.5,-384.5 259.5,-384.5"/>
<text text-anchor="middle" x="289" y="-391.5" font-family="FreeSans" font-size="10.00">std::string</text>
</a>
</g>
</g>
<!-- Node3&#45;&gt;Node2 -->
<g id="edge2" class="edge"><title>Node3&#45;&gt;Node2</title>
<path fill="none" stroke="#9a32cd" stroke-dasharray="5,2" d="M292.916,-373.921C295.72,-358.605 299,-336.513 299,-317 299,-317 299,-317 299,-167 299,-145.059 285.46,-122.949 274.987,-109.131"/>
<polygon fill="#9a32cd" stroke="#9a32cd" points="289.399,-373.673 290.928,-384.157 296.271,-375.008 289.399,-373.673"/>
<text text-anchor="middle" x="310.5" y="-239.5" font-family="FreeSans" font-size="10.00"> keys</text>
</g>
<!-- Node7 -->
<g id="node7" class="node"><title>Node7</title>
<g id="a_node7"><a xlink:href="../../d0/d5e/classPHTimer.html" target="_top" xlink:title="high precision timer ">
<polygon fill="none" stroke="black" points="155,-306.5 155,-325.5 211,-325.5 211,-306.5 155,-306.5"/>
<text text-anchor="middle" x="183" y="-313.5" font-family="FreeSans" font-size="10.00">PHTimer</text>
</a>
</g>
</g>
<!-- Node3&#45;&gt;Node7 -->
<g id="edge9" class="edge"><title>Node3&#45;&gt;Node7</title>
<path fill="none" stroke="#9a32cd" stroke-dasharray="5,2" d="M268.486,-378.278C263.335,-374.403 257.886,-370.143 253,-366 242.211,-356.851 241.327,-352.474 230,-344 220.657,-337.01 209.338,-330.457 200.149,-325.557"/>
<polygon fill="#9a32cd" stroke="#9a32cd" points="266.595,-381.232 276.72,-384.351 270.749,-375.599 266.595,-381.232"/>
<text text-anchor="middle" x="269" y="-352.5" font-family="FreeSans" font-size="10.00"> _name</text>
</g>
<!-- Node4 -->
<g id="node4" class="node"><title>Node4</title>
<g id="a_node4"><a xlink:title="STL class. ">
<polygon fill="none" stroke="#bfbfbf" points="242.5,-443 242.5,-473 335.5,-473 335.5,-443 242.5,-443"/>
<text text-anchor="start" x="250.5" y="-461" font-family="FreeSans" font-size="10.00">std::basic_string&lt;</text>
<text text-anchor="middle" x="289" y="-450" font-family="FreeSans" font-size="10.00"> char &gt;</text>
</a>
</g>
</g>
<!-- Node4&#45;&gt;Node3 -->
<g id="edge3" class="edge"><title>Node4&#45;&gt;Node3</title>
<path fill="none" stroke="midnightblue" d="M289,-432.871C289,-422.663 289,-411.408 289,-403.842"/>
<polygon fill="midnightblue" stroke="midnightblue" points="285.5,-432.931 289,-442.931 292.5,-432.931 285.5,-432.931"/>
</g>
<!-- Node5 -->
<g id="node5" class="node"><title>Node5</title>
<g id="a_node5"><a xlink:href="../../d7/d41/classPHTimeServer_1_1timer.html" target="_top" xlink:title="wrapper around PHTimer, for storage in a map ">
<polygon fill="none" stroke="black" points="160.5,-158.5 160.5,-177.5 267.5,-177.5 267.5,-158.5 160.5,-158.5"/>
<text text-anchor="middle" x="214" y="-165.5" font-family="FreeSans" font-size="10.00">PHTimeServer::timer</text>
</a>
</g>
</g>
<!-- Node5&#45;&gt;Node2 -->
<g id="edge4" class="edge"><title>Node5&#45;&gt;Node2</title>
<path fill="none" stroke="#9a32cd" stroke-dasharray="5,2" d="M225.611,-149.938C234.055,-137.531 245.355,-120.927 253.315,-109.232"/>
<polygon fill="#9a32cd" stroke="#9a32cd" points="222.546,-148.222 219.813,-158.458 228.333,-152.16 222.546,-148.222"/>
<text text-anchor="middle" x="261.5" y="-131.5" font-family="FreeSans" font-size="10.00"> elements</text>
</g>
<!-- Node6 -->
<g id="node6" class="node"><title>Node6</title>
<g id="a_node6"><a xlink:href="../../da/d18/classboost_1_1shared__ptr.html" target="_top" xlink:title="boost::shared_ptr\&lt;\l PHTimer \&gt;">
<polygon fill="none" stroke="black" points="156.5,-227 156.5,-257 253.5,-257 253.5,-227 156.5,-227"/>
<text text-anchor="start" x="164.5" y="-245" font-family="FreeSans" font-size="10.00">boost::shared_ptr&lt;</text>
<text text-anchor="middle" x="205" y="-234" font-family="FreeSans" font-size="10.00"> PHTimer &gt;</text>
</a>
</g>
</g>
<!-- Node6&#45;&gt;Node5 -->
<g id="edge5" class="edge"><title>Node6&#45;&gt;Node5</title>
<path fill="none" stroke="#9a32cd" stroke-dasharray="5,2" d="M208.039,-216.688C209.718,-203.253 211.702,-187.38 212.905,-177.759"/>
<polygon fill="#9a32cd" stroke="#9a32cd" points="204.546,-216.418 206.778,-226.775 211.492,-217.286 204.546,-216.418"/>
<text text-anchor="middle" x="226" y="-199.5" font-family="FreeSans" font-size="10.00"> _timer</text>
</g>
<!-- Node7&#45;&gt;Node6 -->
<g id="edge6" class="edge"><title>Node7&#45;&gt;Node6</title>
<path fill="none" stroke="#9a32cd" stroke-dasharray="5,2" d="M188.551,-296.833C192.302,-284.558 197.183,-268.583 200.651,-257.232"/>
<polygon fill="#9a32cd" stroke="#9a32cd" points="185.185,-295.872 185.61,-306.458 191.88,-297.917 185.185,-295.872"/>
<text text-anchor="middle" x="201.5" y="-279.5" font-family="FreeSans" font-size="10.00"> px</text>
</g>
<!-- Node8 -->
<g id="node8" class="node"><title>Node8</title>
<g id="a_node8"><a xlink:href="../../dc/d23/structPHTimer_1_1time__struct.html" target="_top" xlink:title="used to store high precision time using two integers ">
<polygon fill="none" stroke="black" points="-0.5,-384.5 -0.5,-403.5 108.5,-403.5 108.5,-384.5 -0.5,-384.5"/>
<text text-anchor="middle" x="54" y="-391.5" font-family="FreeSans" font-size="10.00">PHTimer::time_struct</text>
</a>
</g>
</g>
<!-- Node8&#45;&gt;Node7 -->
<g id="edge7" class="edge"><title>Node8&#45;&gt;Node7</title>
<path fill="none" stroke="#9a32cd" stroke-dasharray="5,2" d="M73.4773,-378.231C87.427,-367.987 106.874,-354.376 125,-344 137.049,-337.103 151.16,-330.504 162.446,-325.556"/>
<polygon fill="#9a32cd" stroke="#9a32cd" points="71.1078,-375.631 65.1733,-384.408 75.2858,-381.248 71.1078,-375.631"/>
<text text-anchor="middle" x="150.5" y="-358" font-family="FreeSans" font-size="10.00"> _stop_time</text>
<text text-anchor="middle" x="150.5" y="-347" font-family="FreeSans" font-size="10.00">_start_time</text>
</g>
<!-- Node9 -->
<g id="node9" class="node"><title>Node9</title>
<g id="a_node9"><a xlink:href="../../d2/db1/classPHTimer_1_1Frequency.html" target="_top" xlink:title="internal frequency read from cpu information file ">
<polygon fill="none" stroke="black" points="126.5,-384.5 126.5,-403.5 231.5,-403.5 231.5,-384.5 126.5,-384.5"/>
<text text-anchor="middle" x="179" y="-391.5" font-family="FreeSans" font-size="10.00">PHTimer::Frequency</text>
</a>
</g>
</g>
<!-- Node9&#45;&gt;Node7 -->
<g id="edge8" class="edge"><title>Node9&#45;&gt;Node7</title>
<path fill="none" stroke="#9a32cd" stroke-dasharray="5,2" d="M178.988,-374.07C179.084,-364.969 179.35,-353.91 180,-344 180.395,-337.976 181.145,-331.226 181.796,-325.982"/>
<polygon fill="#9a32cd" stroke="#9a32cd" points="175.487,-374.299 178.941,-384.316 182.487,-374.332 175.487,-374.299"/>
<text text-anchor="middle" x="205" y="-352.5" font-family="FreeSans" font-size="10.00"> _frequency</text>
</g>
</g>
</svg>
