<?xml version="1.0" encoding="UTF-8" standalone="no"?>
<!DOCTYPE svg PUBLIC "-//W3C//DTD SVG 1.1//EN"
 "http://www.w3.org/Graphics/SVG/1.1/DTD/svg11.dtd">
<!-- Generated by graphviz version 2.36.0 (20140111.2315)
 -->
<!-- Title: Fun4AllDummyInputManager Pages: 1 -->
<svg width="1442pt" height="240pt"
 viewBox="0.00 0.00 1442.00 240.00" xmlns="http://www.w3.org/2000/svg" xmlns:xlink="http://www.w3.org/1999/xlink">
<g id="graph0" class="graph" transform="scale(1 1) rotate(0) translate(4 236)">
<title>Fun4AllDummyInputManager</title>
<!-- Node1 -->
<g id="node1" class="node"><title>Node1</title>
<polygon fill="#bfbfbf" stroke="black" points="1084,-129.5 1084,-148.5 1226,-148.5 1226,-129.5 1084,-129.5"/>
<text text-anchor="middle" x="1155" y="-136.5" font-family="FreeSans" font-size="10.00">Fun4AllDummyInputManager</text>
</g>
<!-- Node2 -->
<g id="node2" class="node"><title>Node2</title>
<g id="a_node2"><a xlink:href="../../d4/da9/classFun4AllInputManager.html" target="_top" xlink:title="Fun4AllInputManager">
<polygon fill="none" stroke="black" points="894.5,-129.5 894.5,-148.5 1003.5,-148.5 1003.5,-129.5 894.5,-129.5"/>
<text text-anchor="middle" x="949" y="-136.5" font-family="FreeSans" font-size="10.00">Fun4AllInputManager</text>
</a>
</g>
</g>
<!-- Node2&#45;&gt;Node1 -->
<g id="edge1" class="edge"><title>Node2&#45;&gt;Node1</title>
<path fill="none" stroke="midnightblue" d="M1013.62,-139C1035.91,-139 1061.07,-139 1083.87,-139"/>
<polygon fill="midnightblue" stroke="midnightblue" points="1013.6,-135.5 1003.6,-139 1013.6,-142.5 1013.6,-135.5"/>
</g>
<!-- Node9 -->
<g id="node9" class="node"><title>Node9</title>
<polygon fill="none" stroke="#bfbfbf" points="1092.5,-80 1092.5,-110 1217.5,-110 1217.5,-80 1092.5,-80"/>
<text text-anchor="start" x="1100.5" y="-98" font-family="FreeSans" font-size="10.00">std::vector&lt; Fun4AllInput</text>
<text text-anchor="middle" x="1155" y="-87" font-family="FreeSans" font-size="10.00">Manager * &gt;</text>
</g>
<!-- Node2&#45;&gt;Node9 -->
<g id="edge11" class="edge"><title>Node2&#45;&gt;Node9</title>
<path fill="none" stroke="#9a32cd" stroke-dasharray="5,2" d="M1004.35,-127.277C1031.46,-121.43 1064.37,-114.333 1092.41,-108.284"/>
<polygon fill="#9a32cd" stroke="#9a32cd" points="1003.3,-123.923 994.265,-129.453 1004.78,-130.766 1003.3,-123.923"/>
<text text-anchor="middle" x="1044" y="-126" font-family="FreeSans" font-size="10.00"> elements</text>
</g>
<!-- Node3 -->
<g id="node3" class="node"><title>Node3</title>
<g id="a_node3"><a xlink:href="../../d5/dec/classFun4AllBase.html" target="_top" xlink:title="Fun4AllBase">
<polygon fill="none" stroke="black" points="276,-171.5 276,-190.5 348,-190.5 348,-171.5 276,-171.5"/>
<text text-anchor="middle" x="312" y="-178.5" font-family="FreeSans" font-size="10.00">Fun4AllBase</text>
</a>
</g>
</g>
<!-- Node3&#45;&gt;Node2 -->
<g id="edge2" class="edge"><title>Node3&#45;&gt;Node2</title>
<path fill="none" stroke="midnightblue" d="M358.417,-181.644C444.626,-182.517 637.865,-182.8 800,-171 833.924,-168.531 842.759,-169.208 876,-162 891.646,-158.607 908.731,-153.225 922.331,-148.519"/>
<polygon fill="midnightblue" stroke="midnightblue" points="358.236,-178.142 348.199,-181.533 358.16,-185.142 358.236,-178.142"/>
</g>
<!-- Node7 -->
<g id="node7" class="node"><title>Node7</title>
<g id="a_node7"><a xlink:href="../../d0/d32/classSubsysReco.html" target="_top" xlink:title="SubsysReco">
<polygon fill="none" stroke="black" points="490.5,-146.5 490.5,-165.5 561.5,-165.5 561.5,-146.5 490.5,-146.5"/>
<text text-anchor="middle" x="526" y="-153.5" font-family="FreeSans" font-size="10.00">SubsysReco</text>
</a>
</g>
</g>
<!-- Node3&#45;&gt;Node7 -->
<g id="edge7" class="edge"><title>Node3&#45;&gt;Node7</title>
<path fill="none" stroke="midnightblue" d="M358.165,-175.674C397.678,-171.014 454.24,-164.344 490.293,-160.093"/>
<polygon fill="midnightblue" stroke="midnightblue" points="357.529,-172.225 348.007,-176.872 358.349,-179.176 357.529,-172.225"/>
</g>
<!-- Node8 -->
<g id="node8" class="node"><title>Node8</title>
<g id="a_node8"><a xlink:href="../../dd/ded/classFun4AllSyncManager.html" target="_top" xlink:title="Fun4AllSyncManager">
<polygon fill="none" stroke="black" points="1324.5,-85.5 1324.5,-104.5 1433.5,-104.5 1433.5,-85.5 1324.5,-85.5"/>
<text text-anchor="middle" x="1379" y="-92.5" font-family="FreeSans" font-size="10.00">Fun4AllSyncManager</text>
</a>
</g>
</g>
<!-- Node3&#45;&gt;Node8 -->
<g id="edge9" class="edge"><title>Node3&#45;&gt;Node8</title>
<path fill="none" stroke="midnightblue" d="M346.252,-194.158C387.501,-209.269 460.302,-232 525,-232 525,-232 525,-232 1156,-232 1252.92,-232 1342.93,-136.266 1369.86,-104.853"/>
<polygon fill="midnightblue" stroke="midnightblue" points="347.307,-190.816 336.715,-190.593 344.856,-197.373 347.307,-190.816"/>
</g>
<!-- Node4 -->
<g id="node4" class="node"><title>Node4</title>
<g id="a_node4"><a xlink:title="STL class. ">
<polygon fill="none" stroke="#bfbfbf" points="132.5,-85.5 132.5,-104.5 191.5,-104.5 191.5,-85.5 132.5,-85.5"/>
<text text-anchor="middle" x="162" y="-92.5" font-family="FreeSans" font-size="10.00">std::string</text>
</a>
</g>
</g>
<!-- Node4&#45;&gt;Node2 -->
<g id="edge17" class="edge"><title>Node4&#45;&gt;Node2</title>
<path fill="none" stroke="#9a32cd" stroke-dasharray="5,2" d="M201.877,-95.0018C273.274,-95.1998 430.071,-96.5395 562,-104 680.911,-110.724 819.915,-124.882 894.382,-132.979"/>
<polygon fill="#9a32cd" stroke="#9a32cd" points="201.579,-91.5012 191.571,-94.9797 201.564,-98.5012 201.579,-91.5012"/>
<text text-anchor="middle" x="526" y="-129" font-family="FreeSans" font-size="10.00"> topNodeName</text>
<text text-anchor="middle" x="526" y="-118" font-family="FreeSans" font-size="10.00">InputNode</text>
<text text-anchor="middle" x="526" y="-107" font-family="FreeSans" font-size="10.00">filename</text>
</g>
<!-- Node4&#45;&gt;Node3 -->
<g id="edge3" class="edge"><title>Node4&#45;&gt;Node3</title>
<path fill="none" stroke="#9a32cd" stroke-dasharray="5,2" d="M188.14,-109.608C218.499,-127.249 268.695,-156.417 294.522,-171.425"/>
<polygon fill="#9a32cd" stroke="#9a32cd" points="189.809,-106.53 179.404,-104.532 186.292,-112.583 189.809,-106.53"/>
<text text-anchor="middle" x="234" y="-152" font-family="FreeSans" font-size="10.00"> ThisName</text>
</g>
<!-- Node14 -->
<g id="node14" class="node"><title>Node14</title>
<polygon fill="none" stroke="#bfbfbf" points="366,-41.5 366,-60.5 472,-60.5 472,-41.5 366,-41.5"/>
<text text-anchor="middle" x="419" y="-48.5" font-family="FreeSans" font-size="10.00">std::list&lt; std::string &gt;</text>
</g>
<!-- Node4&#45;&gt;Node14 -->
<g id="edge19" class="edge"><title>Node4&#45;&gt;Node14</title>
<path fill="none" stroke="#9a32cd" stroke-dasharray="5,2" d="M186.264,-80.2812C193.598,-76.2933 201.905,-72.4155 210,-70 261.426,-54.6552 322.911,-50.7025 365.635,-50.0984"/>
<polygon fill="#9a32cd" stroke="#9a32cd" points="184.495,-77.2608 177.582,-85.2896 187.993,-83.3242 184.495,-77.2608"/>
<text text-anchor="middle" x="234" y="-73" font-family="FreeSans" font-size="10.00"> elements</text>
</g>
<!-- Node5 -->
<g id="node5" class="node"><title>Node5</title>
<g id="a_node5"><a xlink:title="STL class. ">
<polygon fill="none" stroke="#bfbfbf" points="0.5,-80 0.5,-110 93.5,-110 93.5,-80 0.5,-80"/>
<text text-anchor="start" x="8.5" y="-98" font-family="FreeSans" font-size="10.00">std::basic_string&lt;</text>
<text text-anchor="middle" x="47" y="-87" font-family="FreeSans" font-size="10.00"> char &gt;</text>
</a>
</g>
</g>
<!-- Node5&#45;&gt;Node4 -->
<g id="edge4" class="edge"><title>Node5&#45;&gt;Node4</title>
<path fill="none" stroke="midnightblue" d="M103.885,-95C113.778,-95 123.695,-95 132.425,-95"/>
<polygon fill="midnightblue" stroke="midnightblue" points="103.636,-91.5001 93.6357,-95 103.636,-98.5001 103.636,-91.5001"/>
</g>
<!-- Node6 -->
<g id="node6" class="node"><title>Node6</title>
<polygon fill="none" stroke="#bfbfbf" points="660.5,-142.5 660.5,-161.5 799.5,-161.5 799.5,-142.5 660.5,-142.5"/>
<text text-anchor="middle" x="730" y="-149.5" font-family="FreeSans" font-size="10.00">std::vector&lt; SubsysReco * &gt;</text>
</g>
<!-- Node6&#45;&gt;Node2 -->
<g id="edge5" class="edge"><title>Node6&#45;&gt;Node2</title>
<path fill="none" stroke="#9a32cd" stroke-dasharray="5,2" d="M809.843,-147.277C837.875,-145.597 868.769,-143.747 894.22,-142.222"/>
<polygon fill="#9a32cd" stroke="#9a32cd" points="809.433,-143.795 799.66,-147.887 809.852,-150.782 809.433,-143.795"/>
<text text-anchor="middle" x="847" y="-150" font-family="FreeSans" font-size="10.00"> Subsystems</text>
</g>
<!-- Node7&#45;&gt;Node6 -->
<g id="edge6" class="edge"><title>Node7&#45;&gt;Node6</title>
<path fill="none" stroke="#9a32cd" stroke-dasharray="5,2" d="M572.031,-155.108C598.032,-154.593 631.266,-153.935 660.453,-153.357"/>
<polygon fill="#9a32cd" stroke="#9a32cd" points="571.654,-151.615 561.725,-155.312 571.792,-158.614 571.654,-151.615"/>
<text text-anchor="middle" x="611" y="-158" font-family="FreeSans" font-size="10.00"> elements</text>
</g>
<!-- Node8&#45;&gt;Node2 -->
<g id="edge8" class="edge"><title>Node8&#45;&gt;Node2</title>
<path fill="none" stroke="#9a32cd" stroke-dasharray="5,2" d="M1352.11,-109.444C1322.63,-124.993 1272.52,-148.742 1226,-158 1143.8,-174.36 1045.42,-159.589 991.115,-148.525"/>
<polygon fill="#9a32cd" stroke="#9a32cd" points="1353.77,-112.525 1360.93,-104.712 1350.46,-106.358 1353.77,-112.525"/>
<text text-anchor="middle" x="1155" y="-169" font-family="FreeSans" font-size="10.00"> mySyncManager</text>
</g>
<!-- Node9&#45;&gt;Node8 -->
<g id="edge10" class="edge"><title>Node9&#45;&gt;Node8</title>
<path fill="none" stroke="#9a32cd" stroke-dasharray="5,2" d="M1227.56,-95C1258.97,-95 1295.22,-95 1324.27,-95"/>
<polygon fill="#9a32cd" stroke="#9a32cd" points="1227.54,-91.5001 1217.54,-95 1227.54,-98.5001 1227.54,-91.5001"/>
<text text-anchor="middle" x="1275" y="-98" font-family="FreeSans" font-size="10.00"> InManager</text>
</g>
<!-- Node10 -->
<g id="node10" class="node"><title>Node10</title>
<g id="a_node10"><a xlink:href="../../de/dbb/classSyncObject.html" target="_top" xlink:title="SyncObject">
<polygon fill="none" stroke="black" points="1121.5,-41.5 1121.5,-60.5 1188.5,-60.5 1188.5,-41.5 1121.5,-41.5"/>
<text text-anchor="middle" x="1155" y="-48.5" font-family="FreeSans" font-size="10.00">SyncObject</text>
</a>
</g>
</g>
<!-- Node10&#45;&gt;Node8 -->
<g id="edge12" class="edge"><title>Node10&#45;&gt;Node8</title>
<path fill="none" stroke="#9a32cd" stroke-dasharray="5,2" d="M1198.64,-59.0744C1228.68,-64.8038 1269.83,-72.7358 1306,-80 1314.64,-81.7347 1323.85,-83.6239 1332.7,-85.4584"/>
<polygon fill="#9a32cd" stroke="#9a32cd" points="1198.98,-55.5769 1188.51,-57.1444 1197.67,-62.4534 1198.98,-55.5769"/>
<text text-anchor="middle" x="1275" y="-83" font-family="FreeSans" font-size="10.00"> MasterSync</text>
</g>
<!-- Node11 -->
<g id="node11" class="node"><title>Node11</title>
<g id="a_node11"><a xlink:href="../../d9/d24/classPHObject.html" target="_top" xlink:title="PHObject">
<polygon fill="none" stroke="black" points="919.5,-41.5 919.5,-60.5 978.5,-60.5 978.5,-41.5 919.5,-41.5"/>
<text text-anchor="middle" x="949" y="-48.5" font-family="FreeSans" font-size="10.00">PHObject</text>
</a>
</g>
</g>
<!-- Node11&#45;&gt;Node10 -->
<g id="edge13" class="edge"><title>Node11&#45;&gt;Node10</title>
<path fill="none" stroke="midnightblue" d="M989.065,-45.5548C1027.43,-43.7098 1085.3,-43.8214 1121.3,-45.8897"/>
<polygon fill="midnightblue" stroke="midnightblue" points="988.585,-42.0761 978.796,-46.1271 988.975,-49.0652 988.585,-42.0761"/>
</g>
<!-- Node11&#45;&gt;Node10 -->
<g id="edge15" class="edge"><title>Node11&#45;&gt;Node10</title>
<path fill="none" stroke="midnightblue" d="M989.065,-56.4452C1027.43,-58.2902 1085.3,-58.1786 1121.3,-56.1103"/>
<polygon fill="midnightblue" stroke="midnightblue" points="988.975,-52.9348 978.796,-55.8729 988.585,-59.9239 988.975,-52.9348"/>
</g>
<!-- Node12 -->
<g id="node12" class="node"><title>Node12</title>
<polygon fill="none" stroke="#bfbfbf" points="704.5,-0.5 704.5,-19.5 755.5,-19.5 755.5,-0.5 704.5,-0.5"/>
<text text-anchor="middle" x="730" y="-7.5" font-family="FreeSans" font-size="10.00">TObject</text>
</g>
<!-- Node12&#45;&gt;Node11 -->
<g id="edge14" class="edge"><title>Node12&#45;&gt;Node11</title>
<path fill="none" stroke="midnightblue" d="M765.912,-15.0988C795.358,-19.5618 838.567,-26.4919 876,-34 890.356,-36.8794 906.204,-40.5655 919.368,-43.7688"/>
<polygon fill="midnightblue" stroke="midnightblue" points="766.131,-11.5926 755.723,-13.5697 765.092,-18.5151 766.131,-11.5926"/>
</g>
<!-- Node13 -->
<g id="node13" class="node"><title>Node13</title>
<polygon fill="none" stroke="#bfbfbf" points="1110.5,-3.5 1110.5,-22.5 1199.5,-22.5 1199.5,-3.5 1110.5,-3.5"/>
<text text-anchor="middle" x="1155" y="-10.5" font-family="FreeSans" font-size="10.00">std::vector&lt; int &gt;</text>
</g>
<!-- Node13&#45;&gt;Node8 -->
<g id="edge16" class="edge"><title>Node13&#45;&gt;Node8</title>
<path fill="none" stroke="#9a32cd" stroke-dasharray="5,2" d="M1209.67,-23.6411C1238.79,-30.3205 1275.06,-40.1249 1306,-53 1327.38,-61.8957 1350.16,-76.0781 1364.24,-85.4638"/>
<polygon fill="#9a32cd" stroke="#9a32cd" points="1210.2,-20.1755 1199.68,-21.409 1208.68,-27.0068 1210.2,-20.1755"/>
<text text-anchor="middle" x="1275" y="-56" font-family="FreeSans" font-size="10.00"> iretInManager</text>
</g>
<!-- Node14&#45;&gt;Node2 -->
<g id="edge18" class="edge"><title>Node14&#45;&gt;Node2</title>
<path fill="none" stroke="#9a32cd" stroke-dasharray="5,2" d="M482.267,-42.6705C572.957,-33.2545 744.85,-25.7961 876,-82 902.084,-93.1783 926.704,-116.369 939.285,-129.463"/>
<polygon fill="#9a32cd" stroke="#9a32cd" points="481.716,-39.2096 472.15,-43.7644 482.469,-46.169 481.716,-39.2096"/>
<text text-anchor="middle" x="611" y="-62" font-family="FreeSans" font-size="10.00"> filelist</text>
<text text-anchor="middle" x="611" y="-51" font-family="FreeSans" font-size="10.00">filelist_copy</text>
<text text-anchor="middle" x="611" y="-40" font-family="FreeSans" font-size="10.00">filelist_opened</text>
</g>
</g>
</svg>
