<?xml version="1.0" encoding="UTF-8" standalone="no"?>
<!DOCTYPE svg PUBLIC "-//W3C//DTD SVG 1.1//EN"
 "http://www.w3.org/Graphics/SVG/1.1/DTD/svg11.dtd">
<!-- Generated by graphviz version 2.36.0 (20140111.2315)
 -->
<!-- Title: PHObject Pages: 1 -->
<svg width="665pt" height="252pt"
 viewBox="0.00 0.00 665.00 252.00" xmlns="http://www.w3.org/2000/svg" xmlns:xlink="http://www.w3.org/1999/xlink">
<g id="graph0" class="graph" transform="scale(1 1) rotate(0) translate(4 248)">
<title>PHObject</title>
<!-- Node1 -->
<g id="node1" class="node"><title>Node1</title>
<polygon fill="#bfbfbf" stroke="black" points="356.5,-168.5 356.5,-187.5 415.5,-187.5 415.5,-168.5 356.5,-168.5"/>
<text text-anchor="middle" x="386" y="-175.5" font-family="FreeSans" font-size="10.00">PHObject</text>
</g>
<!-- Node3 -->
<g id="node3" class="node"><title>Node3</title>
<g id="a_node3"><a xlink:href="../../d8/db2/classEventHeader.html" target="_top" xlink:title="base class for EventHeaders ">
<polygon fill="none" stroke="black" points="6.5,-112.5 6.5,-131.5 79.5,-131.5 79.5,-112.5 6.5,-112.5"/>
<text text-anchor="middle" x="43" y="-119.5" font-family="FreeSans" font-size="10.00">EventHeader</text>
</a>
</g>
</g>
<!-- Node1&#45;&gt;Node3 -->
<g id="edge2" class="edge"><title>Node1&#45;&gt;Node3</title>
<path fill="none" stroke="midnightblue" d="M346.213,-171.149C289.974,-162.814 184.042,-146.881 94,-132 89.3873,-131.238 84.5442,-130.414 79.7547,-129.585"/>
<polygon fill="midnightblue" stroke="midnightblue" points="345.716,-174.613 356.121,-172.615 346.74,-167.689 345.716,-174.613"/>
</g>
<!-- Node5 -->
<g id="node5" class="node"><title>Node5</title>
<g id="a_node5"><a xlink:href="../../d3/da3/classFlagSave.html" target="_top" xlink:title="FlagSave">
<polygon fill="none" stroke="black" points="103,-112.5 103,-131.5 161,-131.5 161,-112.5 103,-112.5"/>
<text text-anchor="middle" x="132" y="-119.5" font-family="FreeSans" font-size="10.00">FlagSave</text>
</a>
</g>
</g>
<!-- Node1&#45;&gt;Node5 -->
<g id="edge4" class="edge"><title>Node1&#45;&gt;Node5</title>
<path fill="none" stroke="midnightblue" d="M346.378,-169.081C303.005,-160.335 231.442,-145.674 170,-132 167.088,-131.352 164.055,-130.661 161.027,-129.961"/>
<polygon fill="midnightblue" stroke="midnightblue" points="345.753,-172.526 356.247,-171.067 347.134,-165.663 345.753,-172.526"/>
</g>
<!-- Node7 -->
<g id="node7" class="node"><title>Node7</title>
<g id="a_node7"><a xlink:href="../../da/dc2/classPHTimeStamp.html" target="_top" xlink:title="PHTimeStamp">
<polygon fill="none" stroke="black" points="179.5,-112.5 179.5,-131.5 260.5,-131.5 260.5,-112.5 179.5,-112.5"/>
<text text-anchor="middle" x="220" y="-119.5" font-family="FreeSans" font-size="10.00">PHTimeStamp</text>
</a>
</g>
</g>
<!-- Node1&#45;&gt;Node7 -->
<g id="edge6" class="edge"><title>Node1&#45;&gt;Node7</title>
<path fill="none" stroke="midnightblue" d="M350.047,-165.304C318.768,-155.129 274.179,-140.625 246.18,-131.516"/>
<polygon fill="midnightblue" stroke="midnightblue" points="349.105,-168.678 359.697,-168.444 351.27,-162.022 349.105,-168.678"/>
</g>
<!-- Node8 -->
<g id="node8" class="node"><title>Node8</title>
<g id="a_node8"><a xlink:href="../../df/d35/classRunHeader.html" target="_top" xlink:title="RunHeader">
<polygon fill="none" stroke="black" points="278.5,-112.5 278.5,-131.5 343.5,-131.5 343.5,-112.5 278.5,-112.5"/>
<text text-anchor="middle" x="311" y="-119.5" font-family="FreeSans" font-size="10.00">RunHeader</text>
</a>
</g>
</g>
<!-- Node1&#45;&gt;Node8 -->
<g id="edge7" class="edge"><title>Node1&#45;&gt;Node8</title>
<path fill="none" stroke="midnightblue" d="M365.695,-162.38C352.139,-152.62 334.758,-140.106 323.269,-131.834"/>
<polygon fill="midnightblue" stroke="midnightblue" points="363.79,-165.321 373.95,-168.324 367.88,-159.641 363.79,-165.321"/>
</g>
<!-- Node10 -->
<g id="node10" class="node"><title>Node10</title>
<g id="a_node10"><a xlink:href="../../d8/dfc/classSEvent.html" target="_top" xlink:title="SEvent">
<polygon fill="none" stroke="black" points="362,-112.5 362,-131.5 410,-131.5 410,-112.5 362,-112.5"/>
<text text-anchor="middle" x="386" y="-119.5" font-family="FreeSans" font-size="10.00">SEvent</text>
</a>
</g>
</g>
<!-- Node1&#45;&gt;Node10 -->
<g id="edge9" class="edge"><title>Node1&#45;&gt;Node10</title>
<path fill="none" stroke="midnightblue" d="M386,-157.805C386,-148.91 386,-138.78 386,-131.751"/>
<polygon fill="midnightblue" stroke="midnightblue" points="382.5,-158.083 386,-168.083 389.5,-158.083 382.5,-158.083"/>
</g>
<!-- Node12 -->
<g id="node12" class="node"><title>Node12</title>
<g id="a_node12"><a xlink:href="../../d0/da1/classSHit.html" target="_top" xlink:title="SHit">
<polygon fill="none" stroke="black" points="428,-112.5 428,-131.5 464,-131.5 464,-112.5 428,-112.5"/>
<text text-anchor="middle" x="446" y="-119.5" font-family="FreeSans" font-size="10.00">SHit</text>
</a>
</g>
</g>
<!-- Node1&#45;&gt;Node12 -->
<g id="edge11" class="edge"><title>Node1&#45;&gt;Node12</title>
<path fill="none" stroke="midnightblue" d="M403.181,-161.537C413.879,-151.909 427.256,-139.869 436.185,-131.834"/>
<polygon fill="midnightblue" stroke="midnightblue" points="400.732,-159.033 395.64,-168.324 405.414,-164.236 400.732,-159.033"/>
</g>
<!-- Node14 -->
<g id="node14" class="node"><title>Node14</title>
<g id="a_node14"><a xlink:href="../../d9/d05/classSHitMap.html" target="_top" xlink:title="SHitMap">
<polygon fill="none" stroke="black" points="482.5,-112.5 482.5,-131.5 537.5,-131.5 537.5,-112.5 482.5,-112.5"/>
<text text-anchor="middle" x="510" y="-119.5" font-family="FreeSans" font-size="10.00">SHitMap</text>
</a>
</g>
</g>
<!-- Node1&#45;&gt;Node14 -->
<g id="edge13" class="edge"><title>Node1&#45;&gt;Node14</title>
<path fill="none" stroke="midnightblue" d="M415.007,-164.368C438.229,-154.255 470.163,-140.349 490.444,-131.516"/>
<polygon fill="midnightblue" stroke="midnightblue" points="413.419,-161.242 405.648,-168.444 416.214,-167.66 413.419,-161.242"/>
</g>
<!-- Node16 -->
<g id="node16" class="node"><title>Node16</title>
<g id="a_node16"><a xlink:href="../../de/dbb/classSyncObject.html" target="_top" xlink:title="SyncObject">
<polygon fill="none" stroke="black" points="555.5,-112.5 555.5,-131.5 622.5,-131.5 622.5,-112.5 555.5,-112.5"/>
<text text-anchor="middle" x="589" y="-119.5" font-family="FreeSans" font-size="10.00">SyncObject</text>
</a>
</g>
</g>
<!-- Node1&#45;&gt;Node16 -->
<g id="edge15" class="edge"><title>Node1&#45;&gt;Node16</title>
<path fill="none" stroke="midnightblue" d="M423.178,-165.614C460.998,-155.097 518.888,-139.764 555.389,-130.643"/>
<polygon fill="midnightblue" stroke="midnightblue" points="421.762,-162.376 413.077,-168.444 423.651,-169.116 421.762,-162.376"/>
</g>
<!-- Node1&#45;&gt;Node16 -->
<g id="edge18" class="edge"><title>Node1&#45;&gt;Node16</title>
<path fill="none" stroke="midnightblue" d="M425.256,-167.94C465.503,-157.794 526.811,-141.476 561.962,-131.545"/>
<polygon fill="midnightblue" stroke="midnightblue" points="424.358,-164.557 415.506,-170.379 426.056,-171.347 424.358,-164.557"/>
</g>
<!-- Node2 -->
<g id="node2" class="node"><title>Node2</title>
<polygon fill="none" stroke="#bfbfbf" points="360.5,-224.5 360.5,-243.5 411.5,-243.5 411.5,-224.5 360.5,-224.5"/>
<text text-anchor="middle" x="386" y="-231.5" font-family="FreeSans" font-size="10.00">TObject</text>
</g>
<!-- Node2&#45;&gt;Node1 -->
<g id="edge1" class="edge"><title>Node2&#45;&gt;Node1</title>
<path fill="none" stroke="midnightblue" d="M386,-213.805C386,-204.91 386,-194.78 386,-187.751"/>
<polygon fill="midnightblue" stroke="midnightblue" points="382.5,-214.083 386,-224.083 389.5,-214.083 382.5,-214.083"/>
</g>
<!-- Node4 -->
<g id="node4" class="node"><title>Node4</title>
<g id="a_node4"><a xlink:href="../../d0/d76/classEventHeaderv1.html" target="_top" xlink:title="simple event header with ID and time ">
<polygon fill="none" stroke="black" points="-0.5,-56.5 -0.5,-75.5 82.5,-75.5 82.5,-56.5 -0.5,-56.5"/>
<text text-anchor="middle" x="41" y="-63.5" font-family="FreeSans" font-size="10.00">EventHeaderv1</text>
</a>
</g>
</g>
<!-- Node3&#45;&gt;Node4 -->
<g id="edge3" class="edge"><title>Node3&#45;&gt;Node4</title>
<path fill="none" stroke="midnightblue" d="M42.2891,-101.805C41.9596,-92.9102 41.5844,-82.7798 41.3241,-75.7511"/>
<polygon fill="midnightblue" stroke="midnightblue" points="38.8019,-102.219 42.6697,-112.083 45.7971,-101.96 38.8019,-102.219"/>
</g>
<!-- Node6 -->
<g id="node6" class="node"><title>Node6</title>
<g id="a_node6"><a xlink:href="../../da/db3/classFlagSavev1.html" target="_top" xlink:title="FlagSavev1">
<polygon fill="none" stroke="black" points="101,-56.5 101,-75.5 169,-75.5 169,-56.5 101,-56.5"/>
<text text-anchor="middle" x="135" y="-63.5" font-family="FreeSans" font-size="10.00">FlagSavev1</text>
</a>
</g>
</g>
<!-- Node5&#45;&gt;Node6 -->
<g id="edge5" class="edge"><title>Node5&#45;&gt;Node6</title>
<path fill="none" stroke="midnightblue" d="M133.066,-101.805C133.561,-92.9102 134.123,-82.7798 134.514,-75.7511"/>
<polygon fill="midnightblue" stroke="midnightblue" points="129.556,-101.904 132.495,-112.083 136.545,-102.293 129.556,-101.904"/>
</g>
<!-- Node9 -->
<g id="node9" class="node"><title>Node9</title>
<g id="a_node9"><a xlink:href="../../d4/d0f/classRunHeaderv1.html" target="_top" xlink:title="RunHeaderv1">
<polygon fill="none" stroke="black" points="244,-56.5 244,-75.5 320,-75.5 320,-56.5 244,-56.5"/>
<text text-anchor="middle" x="282" y="-63.5" font-family="FreeSans" font-size="10.00">RunHeaderv1</text>
</a>
</g>
</g>
<!-- Node8&#45;&gt;Node9 -->
<g id="edge8" class="edge"><title>Node8&#45;&gt;Node9</title>
<path fill="none" stroke="midnightblue" d="M301.324,-102.983C296.402,-93.8168 290.642,-83.0922 286.7,-75.7511"/>
<polygon fill="midnightblue" stroke="midnightblue" points="298.396,-104.929 306.211,-112.083 304.563,-101.617 298.396,-104.929"/>
</g>
<!-- Node11 -->
<g id="node11" class="node"><title>Node11</title>
<g id="a_node11"><a xlink:href="../../d3/da3/classSEvent__v1.html" target="_top" xlink:title="SEvent_v1">
<polygon fill="none" stroke="black" points="338,-56.5 338,-75.5 402,-75.5 402,-56.5 338,-56.5"/>
<text text-anchor="middle" x="370" y="-63.5" font-family="FreeSans" font-size="10.00">SEvent_v1</text>
</a>
</g>
</g>
<!-- Node10&#45;&gt;Node11 -->
<g id="edge10" class="edge"><title>Node10&#45;&gt;Node11</title>
<path fill="none" stroke="midnightblue" d="M380.488,-102.396C377.811,-93.362 374.722,-82.936 372.593,-75.7511"/>
<polygon fill="midnightblue" stroke="midnightblue" points="377.161,-103.489 383.358,-112.083 383.873,-101.501 377.161,-103.489"/>
</g>
<!-- Node13 -->
<g id="node13" class="node"><title>Node13</title>
<g id="a_node13"><a xlink:href="../../d2/de1/classSHit__v1.html" target="_top" xlink:title="SHit_v1">
<polygon fill="none" stroke="black" points="420,-56.5 420,-75.5 472,-75.5 472,-56.5 420,-56.5"/>
<text text-anchor="middle" x="446" y="-63.5" font-family="FreeSans" font-size="10.00">SHit_v1</text>
</a>
</g>
</g>
<!-- Node12&#45;&gt;Node13 -->
<g id="edge12" class="edge"><title>Node12&#45;&gt;Node13</title>
<path fill="none" stroke="midnightblue" d="M446,-101.805C446,-92.9102 446,-82.7798 446,-75.7511"/>
<polygon fill="midnightblue" stroke="midnightblue" points="442.5,-102.083 446,-112.083 449.5,-102.083 442.5,-102.083"/>
</g>
<!-- Node15 -->
<g id="node15" class="node"><title>Node15</title>
<g id="a_node15"><a xlink:href="../../de/d92/classSHitMap__v1.html" target="_top" xlink:title="SHitMap_v1">
<polygon fill="none" stroke="black" points="490.5,-56.5 490.5,-75.5 561.5,-75.5 561.5,-56.5 490.5,-56.5"/>
<text text-anchor="middle" x="526" y="-63.5" font-family="FreeSans" font-size="10.00">SHitMap_v1</text>
</a>
</g>
</g>
<!-- Node14&#45;&gt;Node15 -->
<g id="edge14" class="edge"><title>Node14&#45;&gt;Node15</title>
<path fill="none" stroke="midnightblue" d="M515.512,-102.396C518.189,-93.362 521.278,-82.936 523.407,-75.7511"/>
<polygon fill="midnightblue" stroke="midnightblue" points="512.127,-101.501 512.642,-112.083 518.839,-103.489 512.127,-101.501"/>
</g>
<!-- Node17 -->
<g id="node17" class="node"><title>Node17</title>
<g id="a_node17"><a xlink:href="../../d9/d30/classSyncObjectv1.html" target="_top" xlink:title="SyncObjectv1">
<polygon fill="none" stroke="black" points="579.5,-56.5 579.5,-75.5 656.5,-75.5 656.5,-56.5 579.5,-56.5"/>
<text text-anchor="middle" x="618" y="-63.5" font-family="FreeSans" font-size="10.00">SyncObjectv1</text>
</a>
</g>
</g>
<!-- Node16&#45;&gt;Node17 -->
<g id="edge16" class="edge"><title>Node16&#45;&gt;Node17</title>
<path fill="none" stroke="midnightblue" d="M598.676,-102.983C603.598,-93.8168 609.358,-83.0922 613.3,-75.7511"/>
<polygon fill="midnightblue" stroke="midnightblue" points="595.437,-101.617 593.789,-112.083 601.604,-104.929 595.437,-101.617"/>
</g>
<!-- Node18 -->
<g id="node18" class="node"><title>Node18</title>
<g id="a_node18"><a xlink:href="../../df/da3/classSyncObjectv2.html" target="_top" xlink:title="SyncObjectv2">
<polygon fill="none" stroke="black" points="579.5,-0.5 579.5,-19.5 656.5,-19.5 656.5,-0.5 579.5,-0.5"/>
<text text-anchor="middle" x="618" y="-7.5" font-family="FreeSans" font-size="10.00">SyncObjectv2</text>
</a>
</g>
</g>
<!-- Node17&#45;&gt;Node18 -->
<g id="edge17" class="edge"><title>Node17&#45;&gt;Node18</title>
<path fill="none" stroke="midnightblue" d="M618,-45.8045C618,-36.9102 618,-26.7798 618,-19.7511"/>
<polygon fill="midnightblue" stroke="midnightblue" points="614.5,-46.083 618,-56.083 621.5,-46.083 614.5,-46.083"/>
</g>
</g>
</svg>
