<?xml version="1.0" encoding="UTF-8" standalone="no"?>
<!DOCTYPE svg PUBLIC "-//W3C//DTD SVG 1.1//EN"
 "http://www.w3.org/Graphics/SVG/1.1/DTD/svg11.dtd">
<!-- Generated by graphviz version 2.36.0 (20140111.2315)
 -->
<!-- Title: Fun4AllNoSyncDstInputManager Pages: 1 -->
<svg width="1618pt" height="596pt"
 viewBox="0.00 0.00 1618.00 596.09" xmlns="http://www.w3.org/2000/svg" xmlns:xlink="http://www.w3.org/1999/xlink">
<g id="graph0" class="graph" transform="scale(1 1) rotate(0) translate(4 592.094)">
<title>Fun4AllNoSyncDstInputManager</title>
<!-- Node1 -->
<g id="node1" class="node"><title>Node1</title>
<polygon fill="#bfbfbf" stroke="black" points="1452,-246.594 1452,-265.594 1610,-265.594 1610,-246.594 1452,-246.594"/>
<text text-anchor="middle" x="1531" y="-253.594" font-family="FreeSans" font-size="10.00">Fun4AllNoSyncDstInputManager</text>
</g>
<!-- Node2 -->
<g id="node2" class="node"><title>Node2</title>
<g id="a_node2"><a xlink:href="../../d7/d0b/classFun4AllDstInputManager.html" target="_top" xlink:title="Fun4AllDstInputManager">
<polygon fill="none" stroke="black" points="1229,-246.594 1229,-265.594 1353,-265.594 1353,-246.594 1229,-246.594"/>
<text text-anchor="middle" x="1291" y="-253.594" font-family="FreeSans" font-size="10.00">Fun4AllDstInputManager</text>
</a>
</g>
</g>
<!-- Node2&#45;&gt;Node1 -->
<g id="edge1" class="edge"><title>Node2&#45;&gt;Node1</title>
<path fill="none" stroke="midnightblue" d="M1363.36,-256.094C1391.25,-256.094 1423.31,-256.094 1451.82,-256.094"/>
<polygon fill="midnightblue" stroke="midnightblue" points="1363.29,-252.595 1353.29,-256.094 1363.29,-259.595 1363.29,-252.595"/>
</g>
<!-- Node3 -->
<g id="node3" class="node"><title>Node3</title>
<g id="a_node3"><a xlink:href="../../d4/da9/classFun4AllInputManager.html" target="_top" xlink:title="Fun4AllInputManager">
<polygon fill="none" stroke="black" points="1032.5,-433.594 1032.5,-452.594 1141.5,-452.594 1141.5,-433.594 1032.5,-433.594"/>
<text text-anchor="middle" x="1087" y="-440.594" font-family="FreeSans" font-size="10.00">Fun4AllInputManager</text>
</a>
</g>
</g>
<!-- Node3&#45;&gt;Node2 -->
<g id="edge2" class="edge"><title>Node3&#45;&gt;Node2</title>
<path fill="none" stroke="midnightblue" d="M1105.64,-426.761C1146.53,-388.91 1246.77,-296.118 1279.48,-265.83"/>
<polygon fill="midnightblue" stroke="midnightblue" points="1103.26,-424.202 1098.29,-433.564 1108.01,-429.339 1103.26,-424.202"/>
</g>
<!-- Node10 -->
<g id="node10" class="node"><title>Node10</title>
<polygon fill="none" stroke="#bfbfbf" points="1228.5,-473.094 1228.5,-503.094 1353.5,-503.094 1353.5,-473.094 1228.5,-473.094"/>
<text text-anchor="start" x="1236.5" y="-491.094" font-family="FreeSans" font-size="10.00">std::vector&lt; Fun4AllInput</text>
<text text-anchor="middle" x="1291" y="-480.094" font-family="FreeSans" font-size="10.00">Manager * &gt;</text>
</g>
<!-- Node3&#45;&gt;Node10 -->
<g id="edge12" class="edge"><title>Node3&#45;&gt;Node10</title>
<path fill="none" stroke="#9a32cd" stroke-dasharray="5,2" d="M1140.82,-454.861C1167.67,-460.842 1200.45,-468.146 1228.44,-474.381"/>
<polygon fill="#9a32cd" stroke="#9a32cd" points="1141.36,-451.396 1130.84,-452.638 1139.84,-458.229 1141.36,-451.396"/>
<text text-anchor="middle" x="1185" y="-473.094" font-family="FreeSans" font-size="10.00"> elements</text>
</g>
<!-- Node4 -->
<g id="node4" class="node"><title>Node4</title>
<g id="a_node4"><a xlink:href="../../d5/dec/classFun4AllBase.html" target="_top" xlink:title="Fun4AllBase">
<polygon fill="none" stroke="black" points="296,-470.594 296,-489.594 368,-489.594 368,-470.594 296,-470.594"/>
<text text-anchor="middle" x="332" y="-477.594" font-family="FreeSans" font-size="10.00">Fun4AllBase</text>
</a>
</g>
</g>
<!-- Node4&#45;&gt;Node3 -->
<g id="edge3" class="edge"><title>Node4&#45;&gt;Node3</title>
<path fill="none" stroke="midnightblue" d="M378.171,-477.875C509.541,-471.42 891.082,-452.672 1032.47,-445.725"/>
<polygon fill="midnightblue" stroke="midnightblue" points="377.874,-474.385 368.058,-478.372 378.218,-481.377 377.874,-474.385"/>
</g>
<!-- Node8 -->
<g id="node8" class="node"><title>Node8</title>
<g id="a_node8"><a xlink:href="../../d0/d32/classSubsysReco.html" target="_top" xlink:title="SubsysReco">
<polygon fill="none" stroke="black" points="558.5,-492.594 558.5,-511.594 629.5,-511.594 629.5,-492.594 558.5,-492.594"/>
<text text-anchor="middle" x="594" y="-499.594" font-family="FreeSans" font-size="10.00">SubsysReco</text>
</a>
</g>
</g>
<!-- Node4&#45;&gt;Node8 -->
<g id="edge8" class="edge"><title>Node4&#45;&gt;Node8</title>
<path fill="none" stroke="midnightblue" d="M378.203,-483.919C429.515,-488.261 512.094,-495.249 558.491,-499.174"/>
<polygon fill="midnightblue" stroke="midnightblue" points="378.324,-480.417 368.065,-483.061 377.734,-487.392 378.324,-480.417"/>
</g>
<!-- Node9 -->
<g id="node9" class="node"><title>Node9</title>
<g id="a_node9"><a xlink:href="../../dd/ded/classFun4AllSyncManager.html" target="_top" xlink:title="Fun4AllSyncManager">
<polygon fill="none" stroke="black" points="1476.5,-478.594 1476.5,-497.594 1585.5,-497.594 1585.5,-478.594 1476.5,-478.594"/>
<text text-anchor="middle" x="1531" y="-485.594" font-family="FreeSans" font-size="10.00">Fun4AllSyncManager</text>
</a>
</g>
</g>
<!-- Node4&#45;&gt;Node9 -->
<g id="edge10" class="edge"><title>Node4&#45;&gt;Node9</title>
<path fill="none" stroke="midnightblue" d="M366.781,-493.067C415.836,-510.708 510.005,-540.094 593,-540.094 593,-540.094 593,-540.094 1292,-540.094 1370.67,-540.094 1460.66,-512.644 1503.99,-497.632"/>
<polygon fill="midnightblue" stroke="midnightblue" points="367.897,-489.749 357.303,-489.602 365.493,-496.323 367.897,-489.749"/>
</g>
<!-- Node5 -->
<g id="node5" class="node"><title>Node5</title>
<g id="a_node5"><a xlink:title="STL class. ">
<polygon fill="none" stroke="#bfbfbf" points="132.5,-201.594 132.5,-220.594 191.5,-220.594 191.5,-201.594 132.5,-201.594"/>
<text text-anchor="middle" x="162" y="-208.594" font-family="FreeSans" font-size="10.00">std::string</text>
</a>
</g>
</g>
<!-- Node5&#45;&gt;Node2 -->
<g id="edge24" class="edge"><title>Node5&#45;&gt;Node2</title>
<path fill="none" stroke="#9a32cd" stroke-dasharray="5,2" d="M172.133,-229.965C180.082,-244.237 192.997,-263.039 210,-273.094 236.293,-288.645 247.534,-280.866 278,-283.094 325.872,-286.596 338,-283.235 386,-283.094 538.002,-282.65 575.997,-281.094 728,-281.094 728,-281.094 728,-281.094 1088,-281.094 1140.48,-281.094 1200.04,-272.682 1240.82,-265.617"/>
<polygon fill="#9a32cd" stroke="#9a32cd" points="175.167,-228.213 167.434,-220.971 168.963,-231.455 175.167,-228.213"/>
<text text-anchor="middle" x="729" y="-296.094" font-family="FreeSans" font-size="10.00"> syncbranchname</text>
<text text-anchor="middle" x="729" y="-285.094" font-family="FreeSans" font-size="10.00">RunNode</text>
</g>
<!-- Node5&#45;&gt;Node3 -->
<g id="edge18" class="edge"><title>Node5&#45;&gt;Node3</title>
<path fill="none" stroke="#9a32cd" stroke-dasharray="5,2" d="M163.258,-230.885C164.82,-262.527 172.787,-324.182 210,-356.094 272.576,-409.756 851.871,-434.762 1032.49,-441.298"/>
<polygon fill="#9a32cd" stroke="#9a32cd" points="166.75,-230.579 162.931,-220.697 159.754,-230.804 166.75,-230.579"/>
<text text-anchor="middle" x="594" y="-447.094" font-family="FreeSans" font-size="10.00"> topNodeName</text>
<text text-anchor="middle" x="594" y="-436.094" font-family="FreeSans" font-size="10.00">InputNode</text>
<text text-anchor="middle" x="594" y="-425.094" font-family="FreeSans" font-size="10.00">filename</text>
</g>
<!-- Node5&#45;&gt;Node4 -->
<g id="edge4" class="edge"><title>Node5&#45;&gt;Node4</title>
<path fill="none" stroke="#9a32cd" stroke-dasharray="5,2" d="M162.286,-231.104C161.906,-270.797 166.333,-360.543 210,-417.094 231.35,-444.744 268.267,-461.446 295.724,-470.637"/>
<polygon fill="#9a32cd" stroke="#9a32cd" points="165.79,-230.965 162.506,-220.892 158.791,-230.814 165.79,-230.965"/>
<text text-anchor="middle" x="235" y="-459.094" font-family="FreeSans" font-size="10.00"> ThisName</text>
</g>
<!-- Node15 -->
<g id="node15" class="node"><title>Node15</title>
<polygon fill="none" stroke="#bfbfbf" points="404,-339.594 404,-358.594 510,-358.594 510,-339.594 404,-339.594"/>
<text text-anchor="middle" x="457" y="-346.594" font-family="FreeSans" font-size="10.00">std::list&lt; std::string &gt;</text>
</g>
<!-- Node5&#45;&gt;Node15 -->
<g id="edge20" class="edge"><title>Node5&#45;&gt;Node15</title>
<path fill="none" stroke="#9a32cd" stroke-dasharray="5,2" d="M165.924,-230.709C170.646,-254.936 182.389,-295.466 210,-316.094 266.096,-358.004 350.097,-360.004 403.973,-355.875"/>
<polygon fill="#9a32cd" stroke="#9a32cd" points="169.373,-230.111 164.217,-220.855 162.475,-231.306 169.373,-230.111"/>
<text text-anchor="middle" x="235" y="-344.094" font-family="FreeSans" font-size="10.00"> elements</text>
</g>
<!-- Node16 -->
<g id="node16" class="node"><title>Node16</title>
<polygon fill="none" stroke="#bfbfbf" points="678.5,-20.0944 678.5,-50.0944 779.5,-50.0944 779.5,-20.0944 678.5,-20.0944"/>
<text text-anchor="start" x="686.5" y="-38.0944" font-family="FreeSans" font-size="10.00">std::map&lt; const std</text>
<text text-anchor="middle" x="729" y="-27.0944" font-family="FreeSans" font-size="10.00">::string, int &gt;</text>
</g>
<!-- Node5&#45;&gt;Node16 -->
<g id="edge22" class="edge"><title>Node5&#45;&gt;Node16</title>
<path fill="none" stroke="#9a32cd" stroke-dasharray="5,2" d="M164.593,-191.555C168.023,-160.605 178.551,-99.7565 210,-60.0944 231.785,-32.6201 244.169,-29.307 278,-20.0944 419.039,18.3117 594.142,-7.39489 678.287,-24.0425"/>
<polygon fill="#9a32cd" stroke="#9a32cd" points="161.11,-191.219 163.626,-201.51 168.077,-191.896 161.11,-191.219"/>
<text text-anchor="middle" x="332" y="-23.0944" font-family="FreeSans" font-size="10.00"> keys</text>
</g>
<!-- Node18 -->
<g id="node18" class="node"><title>Node18</title>
<g id="a_node18"><a xlink:href="../../dc/d82/classPHNode.html" target="_top" xlink:title="PHNode">
<polygon fill="none" stroke="black" points="305,-225.594 305,-244.594 359,-244.594 359,-225.594 305,-225.594"/>
<text text-anchor="middle" x="332" y="-232.594" font-family="FreeSans" font-size="10.00">PHNode</text>
</a>
</g>
</g>
<!-- Node5&#45;&gt;Node18 -->
<g id="edge28" class="edge"><title>Node5&#45;&gt;Node18</title>
<path fill="none" stroke="#9a32cd" stroke-dasharray="5,2" d="M202.114,-216.682C233.771,-221.205 277.47,-227.447 304.977,-231.377"/>
<polygon fill="#9a32cd" stroke="#9a32cd" points="202.275,-213.17 191.88,-215.22 201.285,-220.099 202.275,-213.17"/>
<text text-anchor="middle" x="235" y="-261.094" font-family="FreeSans" font-size="10.00"> objecttype</text>
<text text-anchor="middle" x="235" y="-250.094" font-family="FreeSans" font-size="10.00">objectclass</text>
<text text-anchor="middle" x="235" y="-239.094" font-family="FreeSans" font-size="10.00">type</text>
<text text-anchor="middle" x="235" y="-228.094" font-family="FreeSans" font-size="10.00">name</text>
</g>
<!-- Node20 -->
<g id="node20" class="node"><title>Node20</title>
<g id="a_node20"><a xlink:href="../../d7/d4d/classPHNodeIOManager.html" target="_top" xlink:title="PHNodeIOManager">
<polygon fill="none" stroke="black" points="543,-136.594 543,-155.594 645,-155.594 645,-136.594 543,-136.594"/>
<text text-anchor="middle" x="594" y="-143.594" font-family="FreeSans" font-size="10.00">PHNodeIOManager</text>
</a>
</g>
</g>
<!-- Node5&#45;&gt;Node20 -->
<g id="edge38" class="edge"><title>Node5&#45;&gt;Node20</title>
<path fill="none" stroke="#9a32cd" stroke-dasharray="5,2" d="M186.261,-196.071C208.726,-182.48 244.217,-163.368 278,-155.094 369.267,-132.742 479.855,-136.331 542.76,-141.114"/>
<polygon fill="#9a32cd" stroke="#9a32cd" points="184.135,-193.27 177.475,-201.51 187.82,-199.223 184.135,-193.27"/>
<text text-anchor="middle" x="332" y="-158.094" font-family="FreeSans" font-size="10.00"> TreeName</text>
</g>
<!-- Node21 -->
<g id="node21" class="node"><title>Node21</title>
<g id="a_node21"><a xlink:href="../../d0/d36/classPHIOManager.html" target="_top" xlink:title="PHIOManager">
<polygon fill="none" stroke="black" points="292.5,-90.5944 292.5,-109.594 371.5,-109.594 371.5,-90.5944 292.5,-90.5944"/>
<text text-anchor="middle" x="332" y="-97.5944" font-family="FreeSans" font-size="10.00">PHIOManager</text>
</a>
</g>
</g>
<!-- Node5&#45;&gt;Node21 -->
<g id="edge33" class="edge"><title>Node5&#45;&gt;Node21</title>
<path fill="none" stroke="#9a32cd" stroke-dasharray="5,2" d="M167.668,-191.641C173.744,-170.756 186.481,-138.267 210,-121.094 233.677,-103.807 266.826,-99.0315 292.442,-98.315"/>
<polygon fill="#9a32cd" stroke="#9a32cd" points="164.27,-190.799 165.075,-201.363 171.034,-192.603 164.27,-190.799"/>
<text text-anchor="middle" x="235" y="-124.094" font-family="FreeSans" font-size="10.00"> filename</text>
</g>
<!-- Node22 -->
<g id="node22" class="node"><title>Node22</title>
<polygon fill="none" stroke="#bfbfbf" points="278.5,-41.0944 278.5,-71.0944 385.5,-71.0944 385.5,-41.0944 278.5,-41.0944"/>
<text text-anchor="start" x="286.5" y="-59.0944" font-family="FreeSans" font-size="10.00">std::map&lt; std::string,</text>
<text text-anchor="middle" x="332" y="-48.0944" font-family="FreeSans" font-size="10.00"> TBranch * &gt;</text>
</g>
<!-- Node5&#45;&gt;Node22 -->
<g id="edge35" class="edge"><title>Node5&#45;&gt;Node22</title>
<path fill="none" stroke="#9a32cd" stroke-dasharray="5,2" d="M164.897,-191.376C168.613,-163.922 179.382,-114.476 210,-87.0944 228.589,-70.4704 254.895,-62.5263 278.233,-58.8185"/>
<polygon fill="#9a32cd" stroke="#9a32cd" points="161.415,-191.018 163.73,-201.356 168.368,-191.831 161.415,-191.018"/>
<text text-anchor="middle" x="235" y="-90.0944" font-family="FreeSans" font-size="10.00"> keys</text>
</g>
<!-- Node23 -->
<g id="node23" class="node"><title>Node23</title>
<polygon fill="none" stroke="#bfbfbf" points="278.5,-176.094 278.5,-206.094 385.5,-206.094 385.5,-176.094 278.5,-176.094"/>
<text text-anchor="start" x="286.5" y="-194.094" font-family="FreeSans" font-size="10.00">std::map&lt; std::string,</text>
<text text-anchor="middle" x="332" y="-183.094" font-family="FreeSans" font-size="10.00"> PHBoolean &gt;</text>
</g>
<!-- Node5&#45;&gt;Node23 -->
<g id="edge37" class="edge"><title>Node5&#45;&gt;Node23</title>
<path fill="none" stroke="#9a32cd" stroke-dasharray="5,2" d="M200.82,-198.983C203.905,-198.254 206.992,-197.609 210,-197.094 232.182,-193.298 256.96,-191.626 278.289,-190.967"/>
<polygon fill="#9a32cd" stroke="#9a32cd" points="199.858,-195.617 191.073,-201.539 201.633,-202.388 199.858,-195.617"/>
<text text-anchor="middle" x="235" y="-200.094" font-family="FreeSans" font-size="10.00"> keys</text>
</g>
<!-- Node6 -->
<g id="node6" class="node"><title>Node6</title>
<g id="a_node6"><a xlink:title="STL class. ">
<polygon fill="none" stroke="#bfbfbf" points="0.5,-196.094 0.5,-226.094 93.5,-226.094 93.5,-196.094 0.5,-196.094"/>
<text text-anchor="start" x="8.5" y="-214.094" font-family="FreeSans" font-size="10.00">std::basic_string&lt;</text>
<text text-anchor="middle" x="47" y="-203.094" font-family="FreeSans" font-size="10.00"> char &gt;</text>
</a>
</g>
</g>
<!-- Node6&#45;&gt;Node5 -->
<g id="edge5" class="edge"><title>Node6&#45;&gt;Node5</title>
<path fill="none" stroke="midnightblue" d="M103.885,-211.094C113.778,-211.094 123.695,-211.094 132.425,-211.094"/>
<polygon fill="midnightblue" stroke="midnightblue" points="103.636,-207.595 93.6357,-211.094 103.636,-214.595 103.636,-207.595"/>
</g>
<!-- Node7 -->
<g id="node7" class="node"><title>Node7</title>
<polygon fill="none" stroke="#bfbfbf" points="798.5,-492.594 798.5,-511.594 937.5,-511.594 937.5,-492.594 798.5,-492.594"/>
<text text-anchor="middle" x="868" y="-499.594" font-family="FreeSans" font-size="10.00">std::vector&lt; SubsysReco * &gt;</text>
</g>
<!-- Node7&#45;&gt;Node3 -->
<g id="edge6" class="edge"><title>Node7&#45;&gt;Node3</title>
<path fill="none" stroke="#9a32cd" stroke-dasharray="5,2" d="M947.994,-493.249C969.688,-489.682 993.011,-484.777 1014,-478.094 1034,-471.727 1055.45,-460.694 1069.69,-452.715"/>
<polygon fill="#9a32cd" stroke="#9a32cd" points="947.161,-489.836 937.824,-494.844 948.246,-496.752 947.161,-489.836"/>
<text text-anchor="middle" x="985" y="-495.094" font-family="FreeSans" font-size="10.00"> Subsystems</text>
</g>
<!-- Node8&#45;&gt;Node7 -->
<g id="edge7" class="edge"><title>Node8&#45;&gt;Node7</title>
<path fill="none" stroke="#9a32cd" stroke-dasharray="5,2" d="M639.9,-502.094C682.983,-502.094 748.647,-502.094 798.304,-502.094"/>
<polygon fill="#9a32cd" stroke="#9a32cd" points="639.725,-498.595 629.725,-502.094 639.725,-505.595 639.725,-498.595"/>
<text text-anchor="middle" x="729" y="-505.094" font-family="FreeSans" font-size="10.00"> elements</text>
</g>
<!-- Node9&#45;&gt;Node3 -->
<g id="edge9" class="edge"><title>Node9&#45;&gt;Node3</title>
<path fill="none" stroke="#9a32cd" stroke-dasharray="5,2" d="M1482.53,-476.129C1447.31,-467.804 1397.98,-457.299 1354,-452.094 1280.81,-443.433 1195.56,-442.071 1141.7,-442.275"/>
<polygon fill="#9a32cd" stroke="#9a32cd" points="1481.99,-479.599 1492.53,-478.524 1483.62,-472.791 1481.99,-479.599"/>
<text text-anchor="middle" x="1291" y="-455.094" font-family="FreeSans" font-size="10.00"> mySyncManager</text>
</g>
<!-- Node10&#45;&gt;Node9 -->
<g id="edge11" class="edge"><title>Node10&#45;&gt;Node9</title>
<path fill="none" stroke="#9a32cd" stroke-dasharray="5,2" d="M1363.61,-488.094C1399.83,-488.094 1443.04,-488.094 1476.34,-488.094"/>
<polygon fill="#9a32cd" stroke="#9a32cd" points="1363.6,-484.595 1353.6,-488.094 1363.6,-491.595 1363.6,-484.595"/>
<text text-anchor="middle" x="1403" y="-491.094" font-family="FreeSans" font-size="10.00"> InManager</text>
</g>
<!-- Node11 -->
<g id="node11" class="node"><title>Node11</title>
<g id="a_node11"><a xlink:href="../../de/dbb/classSyncObject.html" target="_top" xlink:title="SyncObject">
<polygon fill="none" stroke="black" points="1053.5,-309.594 1053.5,-328.594 1120.5,-328.594 1120.5,-309.594 1053.5,-309.594"/>
<text text-anchor="middle" x="1087" y="-316.594" font-family="FreeSans" font-size="10.00">SyncObject</text>
</a>
</g>
</g>
<!-- Node11&#45;&gt;Node2 -->
<g id="edge23" class="edge"><title>Node11&#45;&gt;Node2</title>
<path fill="none" stroke="#9a32cd" stroke-dasharray="5,2" d="M1130.8,-313.459C1154.53,-309.648 1184.33,-303.713 1210,-295.094 1233,-287.373 1257.88,-274.454 1273.68,-265.617"/>
<polygon fill="#9a32cd" stroke="#9a32cd" points="1130.05,-310.033 1120.7,-315.014 1131.12,-316.952 1130.05,-310.033"/>
<text text-anchor="middle" x="1185" y="-311.094" font-family="FreeSans" font-size="10.00"> syncobject</text>
</g>
<!-- Node11&#45;&gt;Node9 -->
<g id="edge13" class="edge"><title>Node11&#45;&gt;Node9</title>
<path fill="none" stroke="#9a32cd" stroke-dasharray="5,2" d="M1122.55,-332.229C1184.82,-355.916 1320.04,-407.394 1434,-451.094 1458.18,-460.367 1485.77,-471.006 1505.15,-478.488"/>
<polygon fill="#9a32cd" stroke="#9a32cd" points="1123.78,-328.955 1113.19,-328.671 1121.29,-335.498 1123.78,-328.955"/>
<text text-anchor="middle" x="1291" y="-422.094" font-family="FreeSans" font-size="10.00"> MasterSync</text>
</g>
<!-- Node12 -->
<g id="node12" class="node"><title>Node12</title>
<g id="a_node12"><a xlink:href="../../d9/d24/classPHObject.html" target="_top" xlink:title="PHObject">
<polygon fill="none" stroke="black" points="838.5,-309.594 838.5,-328.594 897.5,-328.594 897.5,-309.594 838.5,-309.594"/>
<text text-anchor="middle" x="868" y="-316.594" font-family="FreeSans" font-size="10.00">PHObject</text>
</a>
</g>
</g>
<!-- Node12&#45;&gt;Node11 -->
<g id="edge14" class="edge"><title>Node12&#45;&gt;Node11</title>
<path fill="none" stroke="midnightblue" d="M907.813,-313.778C949.244,-311.767 1014.18,-311.872 1053.16,-314.092"/>
<polygon fill="midnightblue" stroke="midnightblue" points="907.606,-310.284 897.816,-314.334 907.995,-317.273 907.606,-310.284"/>
</g>
<!-- Node12&#45;&gt;Node11 -->
<g id="edge16" class="edge"><title>Node12&#45;&gt;Node11</title>
<path fill="none" stroke="midnightblue" d="M907.813,-324.411C949.244,-326.422 1014.18,-326.317 1053.16,-324.097"/>
<polygon fill="midnightblue" stroke="midnightblue" points="907.995,-320.916 897.816,-323.854 907.606,-327.905 907.995,-320.916"/>
</g>
<!-- Node13 -->
<g id="node13" class="node"><title>Node13</title>
<polygon fill="none" stroke="#bfbfbf" points="568.5,-309.594 568.5,-328.594 619.5,-328.594 619.5,-309.594 568.5,-309.594"/>
<text text-anchor="middle" x="594" y="-316.594" font-family="FreeSans" font-size="10.00">TObject</text>
</g>
<!-- Node13&#45;&gt;Node12 -->
<g id="edge15" class="edge"><title>Node13&#45;&gt;Node12</title>
<path fill="none" stroke="midnightblue" d="M629.779,-319.094C684.041,-319.094 787.83,-319.094 838.182,-319.094"/>
<polygon fill="midnightblue" stroke="midnightblue" points="629.618,-315.595 619.618,-319.094 629.618,-322.595 629.618,-315.595"/>
</g>
<!-- Node14 -->
<g id="node14" class="node"><title>Node14</title>
<polygon fill="none" stroke="#bfbfbf" points="1246.5,-568.594 1246.5,-587.594 1335.5,-587.594 1335.5,-568.594 1246.5,-568.594"/>
<text text-anchor="middle" x="1291" y="-575.594" font-family="FreeSans" font-size="10.00">std::vector&lt; int &gt;</text>
</g>
<!-- Node14&#45;&gt;Node9 -->
<g id="edge17" class="edge"><title>Node14&#45;&gt;Node9</title>
<path fill="none" stroke="#9a32cd" stroke-dasharray="5,2" d="M1345.7,-574.555C1372.93,-571.395 1406.05,-565.414 1434,-554.094 1468.31,-540.199 1502.62,-512.443 1519.4,-497.744"/>
<polygon fill="#9a32cd" stroke="#9a32cd" points="1345.15,-571.093 1335.58,-575.633 1345.89,-578.054 1345.15,-571.093"/>
<text text-anchor="middle" x="1403" y="-574.094" font-family="FreeSans" font-size="10.00"> iretInManager</text>
</g>
<!-- Node15&#45;&gt;Node3 -->
<g id="edge19" class="edge"><title>Node15&#45;&gt;Node3</title>
<path fill="none" stroke="#9a32cd" stroke-dasharray="5,2" d="M520.358,-349.092C646.168,-349.851 925.894,-355.618 1014,-391.094 1038.89,-401.116 1063.21,-421.537 1076.23,-433.591"/>
<polygon fill="#9a32cd" stroke="#9a32cd" points="520.138,-345.591 510.12,-349.04 520.102,-352.591 520.138,-345.591"/>
<text text-anchor="middle" x="729" y="-382.094" font-family="FreeSans" font-size="10.00"> filelist</text>
<text text-anchor="middle" x="729" y="-371.094" font-family="FreeSans" font-size="10.00">filelist_copy</text>
<text text-anchor="middle" x="729" y="-360.094" font-family="FreeSans" font-size="10.00">filelist_opened</text>
</g>
<!-- Node16&#45;&gt;Node2 -->
<g id="edge21" class="edge"><title>Node16&#45;&gt;Node2</title>
<path fill="none" stroke="#9a32cd" stroke-dasharray="5,2" d="M789.705,-36.4677C885.839,-41.3181 1077.54,-62.1225 1210,-149.094 1248.58,-174.428 1275.52,-225.032 1285.61,-246.311"/>
<polygon fill="#9a32cd" stroke="#9a32cd" points="789.736,-32.9655 779.585,-35.9986 789.412,-39.958 789.736,-32.9655"/>
<text text-anchor="middle" x="985" y="-72.0944" font-family="FreeSans" font-size="10.00"> branchread</text>
</g>
<!-- Node17 -->
<g id="node17" class="node"><title>Node17</title>
<g id="a_node17"><a xlink:href="../../d5/dca/classPHCompositeNode.html" target="_top" xlink:title="PHCompositeNode">
<polygon fill="none" stroke="black" points="817.5,-221.594 817.5,-240.594 918.5,-240.594 918.5,-221.594 817.5,-221.594"/>
<text text-anchor="middle" x="868" y="-228.594" font-family="FreeSans" font-size="10.00">PHCompositeNode</text>
</a>
</g>
</g>
<!-- Node17&#45;&gt;Node2 -->
<g id="edge25" class="edge"><title>Node17&#45;&gt;Node2</title>
<path fill="none" stroke="#9a32cd" stroke-dasharray="5,2" d="M929.162,-233.783C984.493,-236.349 1068.8,-240.498 1142,-245.094 1170.54,-246.887 1202.16,-249.193 1228.82,-251.23"/>
<polygon fill="#9a32cd" stroke="#9a32cd" points="928.986,-230.271 918.836,-233.306 928.664,-237.263 928.986,-230.271"/>
<text text-anchor="middle" x="1087" y="-259.094" font-family="FreeSans" font-size="10.00"> dstNode</text>
<text text-anchor="middle" x="1087" y="-248.094" font-family="FreeSans" font-size="10.00">runNode</text>
</g>
<!-- Node18&#45;&gt;Node17 -->
<g id="edge26" class="edge"><title>Node18&#45;&gt;Node17</title>
<path fill="none" stroke="midnightblue" d="M369.267,-232.436C408.404,-229.71 472.579,-225.656 528,-224.094 630.829,-221.196 751.235,-225.517 817.306,-228.551"/>
<polygon fill="midnightblue" stroke="midnightblue" points="368.888,-228.954 359.159,-233.149 369.381,-235.937 368.888,-228.954"/>
</g>
<!-- Node18&#45;&gt;Node18 -->
<g id="edge27" class="edge"><title>Node18&#45;&gt;Node18</title>
<path fill="none" stroke="#9a32cd" stroke-dasharray="5,2" d="M314.223,-254.494C315.41,-259.409 321.336,-263.094 332,-263.094 349.062,-263.094 353.995,-253.66 346.796,-244.852"/>
<polygon fill="#9a32cd" stroke="#9a32cd" points="317.594,-255.439 317.204,-244.852 310.907,-253.372 317.594,-255.439"/>
<text text-anchor="middle" x="332" y="-266.094" font-family="FreeSans" font-size="10.00"> parent</text>
</g>
<!-- Node19 -->
<g id="node19" class="node"><title>Node19</title>
<g id="a_node19"><a xlink:href="../../d6/d86/classPHPointerList.html" target="_top" xlink:title="PHPointerList\&lt; PHNode \&gt;">
<polygon fill="none" stroke="black" points="528,-233.594 528,-252.594 660,-252.594 660,-233.594 528,-233.594"/>
<text text-anchor="middle" x="594" y="-240.594" font-family="FreeSans" font-size="10.00">PHPointerList&lt; PHNode &gt;</text>
</a>
</g>
</g>
<!-- Node18&#45;&gt;Node19 -->
<g id="edge30" class="edge"><title>Node18&#45;&gt;Node19</title>
<path fill="none" stroke="#9a32cd" stroke-dasharray="5,2" d="M369.431,-236.215C410.396,-237.476 477.729,-239.548 527.814,-241.089"/>
<polygon fill="#9a32cd" stroke="#9a32cd" points="369.464,-232.715 359.361,-235.906 369.249,-239.712 369.464,-232.715"/>
<text text-anchor="middle" x="457" y="-244.094" font-family="FreeSans" font-size="10.00"> items</text>
</g>
<!-- Node19&#45;&gt;Node17 -->
<g id="edge29" class="edge"><title>Node19&#45;&gt;Node17</title>
<path fill="none" stroke="#9a32cd" stroke-dasharray="5,2" d="M670.265,-239.774C717.158,-237.705 776.173,-235.102 817.278,-233.288"/>
<polygon fill="#9a32cd" stroke="#9a32cd" points="669.987,-236.283 660.151,-240.22 670.295,-243.276 669.987,-236.283"/>
<text text-anchor="middle" x="729" y="-243.094" font-family="FreeSans" font-size="10.00"> subNodes</text>
</g>
<!-- Node20&#45;&gt;Node2 -->
<g id="edge31" class="edge"><title>Node20&#45;&gt;Node2</title>
<path fill="none" stroke="#9a32cd" stroke-dasharray="5,2" d="M655.159,-155.488C765.273,-172.702 1006.62,-210.531 1210,-243.094 1216.95,-244.207 1224.23,-245.38 1231.46,-246.549"/>
<polygon fill="#9a32cd" stroke="#9a32cd" points="655.656,-152.023 645.235,-153.937 654.575,-158.939 655.656,-152.023"/>
<text text-anchor="middle" x="985" y="-214.094" font-family="FreeSans" font-size="10.00"> IManager</text>
</g>
<!-- Node21&#45;&gt;Node20 -->
<g id="edge32" class="edge"><title>Node21&#45;&gt;Node20</title>
<path fill="none" stroke="midnightblue" d="M381.681,-108.707C427.727,-116.854 496.517,-129.024 542.993,-137.247"/>
<polygon fill="midnightblue" stroke="midnightblue" points="382.101,-105.227 371.644,-106.931 380.881,-112.12 382.101,-105.227"/>
</g>
<!-- Node22&#45;&gt;Node20 -->
<g id="edge34" class="edge"><title>Node22&#45;&gt;Node20</title>
<path fill="none" stroke="#9a32cd" stroke-dasharray="5,2" d="M395.615,-66.9003C430.082,-73.9329 473.201,-84.5336 510,-99.0944 535.561,-109.208 562.871,-125.968 578.915,-136.502"/>
<polygon fill="#9a32cd" stroke="#9a32cd" points="396.167,-63.4415 385.676,-64.9216 394.8,-70.3068 396.167,-63.4415"/>
<text text-anchor="middle" x="457" y="-102.094" font-family="FreeSans" font-size="10.00"> fBranches</text>
</g>
<!-- Node23&#45;&gt;Node20 -->
<g id="edge36" class="edge"><title>Node23&#45;&gt;Node20</title>
<path fill="none" stroke="#9a32cd" stroke-dasharray="5,2" d="M395.572,-180.265C440.65,-172.463 500.685,-162.072 542.672,-154.805"/>
<polygon fill="#9a32cd" stroke="#9a32cd" points="394.871,-176.834 385.615,-181.988 396.065,-183.731 394.871,-176.834"/>
<text text-anchor="middle" x="457" y="-181.094" font-family="FreeSans" font-size="10.00"> objectToRead</text>
</g>
</g>
</svg>
