<?xml version="1.0" encoding="UTF-8" standalone="no"?>
<!DOCTYPE svg PUBLIC "-//W3C//DTD SVG 1.1//EN"
 "http://www.w3.org/Graphics/SVG/1.1/DTD/svg11.dtd">
<!-- Generated by graphviz version 2.36.0 (20140111.2315)
 -->
<!-- Title: Fun4AllDstOutputManager Pages: 1 -->
<svg width="832pt" height="334pt"
 viewBox="0.00 0.00 832.00 334.00" xmlns="http://www.w3.org/2000/svg" xmlns:xlink="http://www.w3.org/1999/xlink">
<g id="graph0" class="graph" transform="scale(1 1) rotate(0) translate(4 330)">
<title>Fun4AllDstOutputManager</title>
<!-- Node1 -->
<g id="node1" class="node"><title>Node1</title>
<polygon fill="#bfbfbf" stroke="black" points="692.5,-176.5 692.5,-195.5 823.5,-195.5 823.5,-176.5 692.5,-176.5"/>
<text text-anchor="middle" x="758" y="-183.5" font-family="FreeSans" font-size="10.00">Fun4AllDstOutputManager</text>
</g>
<!-- Node2 -->
<g id="node2" class="node"><title>Node2</title>
<g id="a_node2"><a xlink:href="../../d8/d77/classFun4AllOutputManager.html" target="_top" xlink:title="Fun4AllOutputManager">
<polygon fill="none" stroke="black" points="508,-235.5 508,-254.5 624,-254.5 624,-235.5 508,-235.5"/>
<text text-anchor="middle" x="566" y="-242.5" font-family="FreeSans" font-size="10.00">Fun4AllOutputManager</text>
</a>
</g>
</g>
<!-- Node2&#45;&gt;Node1 -->
<g id="edge1" class="edge"><title>Node2&#45;&gt;Node1</title>
<path fill="none" stroke="midnightblue" d="M607.55,-232.408C643.137,-221.357 694.113,-205.528 726.378,-195.509"/>
<polygon fill="midnightblue" stroke="midnightblue" points="606.462,-229.081 597.95,-235.389 608.538,-235.766 606.462,-229.081"/>
</g>
<!-- Node3 -->
<g id="node3" class="node"><title>Node3</title>
<g id="a_node3"><a xlink:href="../../d5/dec/classFun4AllBase.html" target="_top" xlink:title="Fun4AllBase">
<polygon fill="none" stroke="black" points="300,-221.5 300,-240.5 372,-240.5 372,-221.5 300,-221.5"/>
<text text-anchor="middle" x="336" y="-228.5" font-family="FreeSans" font-size="10.00">Fun4AllBase</text>
</a>
</g>
</g>
<!-- Node3&#45;&gt;Node2 -->
<g id="edge2" class="edge"><title>Node3&#45;&gt;Node2</title>
<path fill="none" stroke="midnightblue" d="M382.331,-233.784C418.317,-235.993 468.853,-239.096 507.651,-241.479"/>
<polygon fill="midnightblue" stroke="midnightblue" points="382.321,-230.276 372.125,-233.157 381.892,-237.263 382.321,-230.276"/>
</g>
<!-- Node4 -->
<g id="node4" class="node"><title>Node4</title>
<g id="a_node4"><a xlink:title="STL class. ">
<polygon fill="none" stroke="#bfbfbf" points="132.5,-144.5 132.5,-163.5 191.5,-163.5 191.5,-144.5 132.5,-144.5"/>
<text text-anchor="middle" x="162" y="-151.5" font-family="FreeSans" font-size="10.00">std::string</text>
</a>
</g>
</g>
<!-- Node4&#45;&gt;Node2 -->
<g id="edge6" class="edge"><title>Node4&#45;&gt;Node2</title>
<path fill="none" stroke="#9a32cd" stroke-dasharray="5,2" d="M170.406,-173.042C177.942,-190.034 191.194,-214.419 210,-229 234.327,-247.862 245.617,-245.057 276,-250 355.619,-262.953 449.199,-257.667 507.814,-251.941"/>
<polygon fill="#9a32cd" stroke="#9a32cd" points="173.535,-171.452 166.453,-163.571 167.075,-174.148 173.535,-171.452"/>
<text text-anchor="middle" x="336" y="-262" font-family="FreeSans" font-size="10.00"> outfilename</text>
</g>
<!-- Node4&#45;&gt;Node3 -->
<g id="edge3" class="edge"><title>Node4&#45;&gt;Node3</title>
<path fill="none" stroke="#9a32cd" stroke-dasharray="5,2" d="M179.185,-170.741C187.71,-178.745 198.719,-187.889 210,-194 238.357,-209.361 273.876,-219.085 299.797,-224.689"/>
<polygon fill="#9a32cd" stroke="#9a32cd" points="181.439,-168.049 171.845,-163.552 176.541,-173.05 181.439,-168.049"/>
<text text-anchor="middle" x="234" y="-217" font-family="FreeSans" font-size="10.00"> ThisName</text>
</g>
<!-- Node7 -->
<g id="node7" class="node"><title>Node7</title>
<polygon fill="none" stroke="#bfbfbf" points="276,-183.5 276,-202.5 396,-202.5 396,-183.5 276,-183.5"/>
<text text-anchor="middle" x="336" y="-190.5" font-family="FreeSans" font-size="10.00">std::vector&lt; std::string &gt;</text>
</g>
<!-- Node4&#45;&gt;Node7 -->
<g id="edge8" class="edge"><title>Node4&#45;&gt;Node7</title>
<path fill="none" stroke="#9a32cd" stroke-dasharray="5,2" d="M201.459,-165.768C204.341,-166.554 207.211,-167.307 210,-168 233.412,-173.815 259.548,-179.21 281.845,-183.489"/>
<polygon fill="#9a32cd" stroke="#9a32cd" points="202.293,-162.367 191.718,-163.011 200.386,-169.102 202.293,-162.367"/>
<text text-anchor="middle" x="234" y="-182" font-family="FreeSans" font-size="10.00"> elements</text>
</g>
<!-- Node8 -->
<g id="node8" class="node"><title>Node8</title>
<g id="a_node8"><a xlink:href="../../d7/d4d/classPHNodeIOManager.html" target="_top" xlink:title="PHNodeIOManager">
<polygon fill="none" stroke="black" points="515,-98.5 515,-117.5 617,-117.5 617,-98.5 515,-98.5"/>
<text text-anchor="middle" x="566" y="-105.5" font-family="FreeSans" font-size="10.00">PHNodeIOManager</text>
</a>
</g>
</g>
<!-- Node4&#45;&gt;Node8 -->
<g id="edge16" class="edge"><title>Node4&#45;&gt;Node8</title>
<path fill="none" stroke="#9a32cd" stroke-dasharray="5,2" d="M201.526,-151.321C262.803,-146.816 386.162,-136.744 490,-122 498.918,-120.734 508.39,-119.152 517.492,-117.513"/>
<polygon fill="#9a32cd" stroke="#9a32cd" points="201.251,-147.832 191.53,-152.047 201.758,-154.814 201.251,-147.832"/>
<text text-anchor="middle" x="336" y="-149" font-family="FreeSans" font-size="10.00"> TreeName</text>
</g>
<!-- Node9 -->
<g id="node9" class="node"><title>Node9</title>
<g id="a_node9"><a xlink:href="../../d0/d36/classPHIOManager.html" target="_top" xlink:title="PHIOManager">
<polygon fill="none" stroke="black" points="296.5,-98.5 296.5,-117.5 375.5,-117.5 375.5,-98.5 296.5,-98.5"/>
<text text-anchor="middle" x="336" y="-105.5" font-family="FreeSans" font-size="10.00">PHIOManager</text>
</a>
</g>
</g>
<!-- Node4&#45;&gt;Node9 -->
<g id="edge11" class="edge"><title>Node4&#45;&gt;Node9</title>
<path fill="none" stroke="#9a32cd" stroke-dasharray="5,2" d="M187.208,-139.213C194.339,-135.389 202.299,-131.617 210,-129 238.127,-119.44 271.35,-114.123 296.473,-111.232"/>
<polygon fill="#9a32cd" stroke="#9a32cd" points="185.087,-136.391 178.099,-144.355 188.528,-142.487 185.087,-136.391"/>
<text text-anchor="middle" x="234" y="-132" font-family="FreeSans" font-size="10.00"> filename</text>
</g>
<!-- Node10 -->
<g id="node10" class="node"><title>Node10</title>
<polygon fill="none" stroke="#bfbfbf" points="282.5,-49 282.5,-79 389.5,-79 389.5,-49 282.5,-49"/>
<text text-anchor="start" x="290.5" y="-67" font-family="FreeSans" font-size="10.00">std::map&lt; std::string,</text>
<text text-anchor="middle" x="336" y="-56" font-family="FreeSans" font-size="10.00"> TBranch * &gt;</text>
</g>
<!-- Node4&#45;&gt;Node10 -->
<g id="edge13" class="edge"><title>Node4&#45;&gt;Node10</title>
<path fill="none" stroke="#9a32cd" stroke-dasharray="5,2" d="M175.533,-136.206C184.103,-125.227 196.353,-111.638 210,-103 231.898,-89.1394 259.081,-79.8896 282.499,-73.8926"/>
<polygon fill="#9a32cd" stroke="#9a32cd" points="172.665,-134.198 169.493,-144.307 178.276,-138.382 172.665,-134.198"/>
<text text-anchor="middle" x="234" y="-106" font-family="FreeSans" font-size="10.00"> keys</text>
</g>
<!-- Node11 -->
<g id="node11" class="node"><title>Node11</title>
<polygon fill="none" stroke="#bfbfbf" points="282.5,-0 282.5,-30 389.5,-30 389.5,-0 282.5,-0"/>
<text text-anchor="start" x="290.5" y="-18" font-family="FreeSans" font-size="10.00">std::map&lt; std::string,</text>
<text text-anchor="middle" x="336" y="-7" font-family="FreeSans" font-size="10.00"> PHBoolean &gt;</text>
</g>
<!-- Node4&#45;&gt;Node11 -->
<g id="edge15" class="edge"><title>Node4&#45;&gt;Node11</title>
<path fill="none" stroke="#9a32cd" stroke-dasharray="5,2" d="M169.148,-134.692C176.213,-115.275 189.539,-85.6214 210,-67 230.338,-48.4905 258.196,-36.0382 282.451,-27.9726"/>
<polygon fill="#9a32cd" stroke="#9a32cd" points="165.789,-133.696 165.861,-144.29 172.412,-135.963 165.789,-133.696"/>
<text text-anchor="middle" x="234" y="-70" font-family="FreeSans" font-size="10.00"> keys</text>
</g>
<!-- Node5 -->
<g id="node5" class="node"><title>Node5</title>
<g id="a_node5"><a xlink:title="STL class. ">
<polygon fill="none" stroke="#bfbfbf" points="0.5,-139 0.5,-169 93.5,-169 93.5,-139 0.5,-139"/>
<text text-anchor="start" x="8.5" y="-157" font-family="FreeSans" font-size="10.00">std::basic_string&lt;</text>
<text text-anchor="middle" x="47" y="-146" font-family="FreeSans" font-size="10.00"> char &gt;</text>
</a>
</g>
</g>
<!-- Node5&#45;&gt;Node4 -->
<g id="edge4" class="edge"><title>Node5&#45;&gt;Node4</title>
<path fill="none" stroke="midnightblue" d="M103.885,-154C113.778,-154 123.695,-154 132.425,-154"/>
<polygon fill="midnightblue" stroke="midnightblue" points="103.636,-150.5 93.6357,-154 103.636,-157.5 103.636,-150.5"/>
</g>
<!-- Node6 -->
<g id="node6" class="node"><title>Node6</title>
<polygon fill="none" stroke="#bfbfbf" points="277.5,-306.5 277.5,-325.5 394.5,-325.5 394.5,-306.5 277.5,-306.5"/>
<text text-anchor="middle" x="336" y="-313.5" font-family="FreeSans" font-size="10.00">std::vector&lt; unsigned &gt;</text>
</g>
<!-- Node6&#45;&gt;Node2 -->
<g id="edge5" class="edge"><title>Node6&#45;&gt;Node2</title>
<path fill="none" stroke="#9a32cd" stroke-dasharray="5,2" d="M404.84,-310.639C431.938,-307.037 463.046,-301.025 490,-291 513.909,-282.108 538.541,-265.242 552.778,-254.589"/>
<polygon fill="#9a32cd" stroke="#9a32cd" points="404.159,-307.196 394.667,-311.905 405.023,-314.143 404.159,-307.196"/>
<text text-anchor="middle" x="452" y="-313" font-family="FreeSans" font-size="10.00"> recomoduleindex</text>
</g>
<!-- Node7&#45;&gt;Node1 -->
<g id="edge17" class="edge"><title>Node7&#45;&gt;Node1</title>
<path fill="none" stroke="#9a32cd" stroke-dasharray="5,2" d="M406.672,-191.839C486.074,-190.515 614.824,-188.37 692.156,-187.081"/>
<polygon fill="#9a32cd" stroke="#9a32cd" points="406.225,-188.346 396.285,-192.012 406.342,-195.345 406.225,-188.346"/>
<text text-anchor="middle" x="566" y="-205" font-family="FreeSans" font-size="10.00"> savenodes</text>
<text text-anchor="middle" x="566" y="-194" font-family="FreeSans" font-size="10.00">stripnodes</text>
</g>
<!-- Node7&#45;&gt;Node2 -->
<g id="edge7" class="edge"><title>Node7&#45;&gt;Node2</title>
<path fill="none" stroke="#9a32cd" stroke-dasharray="5,2" d="M406.145,-203.711C432.547,-208.307 462.824,-214.195 490,-221 506.179,-225.051 523.971,-230.692 538.164,-235.487"/>
<polygon fill="#9a32cd" stroke="#9a32cd" points="406.678,-200.251 396.231,-202.013 405.496,-207.15 406.678,-200.251"/>
<text text-anchor="middle" x="452" y="-224" font-family="FreeSans" font-size="10.00"> EventSelectors</text>
</g>
<!-- Node8&#45;&gt;Node1 -->
<g id="edge9" class="edge"><title>Node8&#45;&gt;Node1</title>
<path fill="none" stroke="#9a32cd" stroke-dasharray="5,2" d="M599.943,-121.524C638.192,-137.226 700.304,-162.725 733.809,-176.48"/>
<polygon fill="#9a32cd" stroke="#9a32cd" points="600.878,-118.124 590.298,-117.564 598.219,-124.6 600.878,-118.124"/>
<text text-anchor="middle" x="658" y="-155" font-family="FreeSans" font-size="10.00"> dstOut</text>
</g>
<!-- Node9&#45;&gt;Node8 -->
<g id="edge10" class="edge"><title>Node9&#45;&gt;Node8</title>
<path fill="none" stroke="midnightblue" d="M386.002,-108C424.056,-108 476.623,-108 514.942,-108"/>
<polygon fill="midnightblue" stroke="midnightblue" points="385.677,-104.5 375.677,-108 385.677,-111.5 385.677,-104.5"/>
</g>
<!-- Node10&#45;&gt;Node8 -->
<g id="edge12" class="edge"><title>Node10&#45;&gt;Node8</title>
<path fill="none" stroke="#9a32cd" stroke-dasharray="5,2" d="M399.725,-75.7416C427.412,-80.9623 460.339,-87.223 490,-93 498.993,-94.7516 508.587,-96.6487 517.805,-98.4856"/>
<polygon fill="#9a32cd" stroke="#9a32cd" points="400.253,-72.2795 389.778,-73.868 398.957,-79.1586 400.253,-72.2795"/>
<text text-anchor="middle" x="452" y="-96" font-family="FreeSans" font-size="10.00"> fBranches</text>
</g>
<!-- Node11&#45;&gt;Node8 -->
<g id="edge14" class="edge"><title>Node11&#45;&gt;Node8</title>
<path fill="none" stroke="#9a32cd" stroke-dasharray="5,2" d="M399.499,-31.6164C427.687,-39.9689 461.071,-51.0724 490,-64 512.19,-73.9161 536.133,-88.7626 550.848,-98.416"/>
<polygon fill="#9a32cd" stroke="#9a32cd" points="400.341,-28.2162 389.761,-28.7782 398.382,-34.9366 400.341,-28.2162"/>
<text text-anchor="middle" x="452" y="-67" font-family="FreeSans" font-size="10.00"> objectToRead</text>
</g>
</g>
</svg>
