<?xml version="1.0" encoding="UTF-8" standalone="no"?>
<!DOCTYPE svg PUBLIC "-//W3C//DTD SVG 1.1//EN"
 "http://www.w3.org/Graphics/SVG/1.1/DTD/svg11.dtd">
<!-- Generated by graphviz version 2.36.0 (20140111.2315)
 -->
<!-- Title: fun4all/phool/PHNodeIOManager.cc Pages: 1 -->
<svg width="1787pt" height="476pt"
 viewBox="0.00 0.00 1787.00 476.00" xmlns="http://www.w3.org/2000/svg" xmlns:xlink="http://www.w3.org/1999/xlink">
<g id="graph0" class="graph" transform="scale(1 1) rotate(0) translate(4 472)">
<title>fun4all/phool/PHNodeIOManager.cc</title>
<!-- Node1 -->
<g id="node1" class="node"><title>Node1</title>
<polygon fill="#bfbfbf" stroke="black" points="702.5,-448.5 702.5,-467.5 875.5,-467.5 875.5,-448.5 702.5,-448.5"/>
<text text-anchor="middle" x="789" y="-455.5" font-family="FreeSans" font-size="10.00">fun4all/phool/PHNodeIOManager.cc</text>
</g>
<!-- Node2 -->
<g id="node2" class="node"><title>Node2</title>
<g id="a_node2"><a xlink:href="../../dd/de7/PHNodeIOManager_8h.html" target="_top" xlink:title="PHNodeIOManager.h">
<polygon fill="none" stroke="black" points="509,-336.5 509,-355.5 619,-355.5 619,-336.5 509,-336.5"/>
<text text-anchor="middle" x="564" y="-343.5" font-family="FreeSans" font-size="10.00">PHNodeIOManager.h</text>
</a>
</g>
</g>
<!-- Node1&#45;&gt;Node2 -->
<g id="edge1" class="edge"><title>Node1&#45;&gt;Node2</title>
<path fill="none" stroke="midnightblue" d="M702.187,-449.646C669.356,-443.476 633.157,-432.27 605,-412 588.793,-400.333 577.523,-380.09 570.956,-365.287"/>
<polygon fill="midnightblue" stroke="midnightblue" points="574.042,-363.588 567.002,-355.67 567.568,-366.25 574.042,-363.588"/>
</g>
<!-- Node4 -->
<g id="node4" class="node"><title>Node4</title>
<g id="a_node4"><a xlink:href="../../d5/d6f/phool_8h.html" target="_top" xlink:title="phool.h">
<polygon fill="none" stroke="black" points="119.5,-56.5 119.5,-75.5 166.5,-75.5 166.5,-56.5 119.5,-56.5"/>
<text text-anchor="middle" x="143" y="-63.5" font-family="FreeSans" font-size="10.00">phool.h</text>
</a>
</g>
</g>
<!-- Node1&#45;&gt;Node4 -->
<g id="edge38" class="edge"><title>Node1&#45;&gt;Node4</title>
<path fill="none" stroke="midnightblue" d="M702.218,-455.781C524.954,-452.673 133.525,-442.418 81,-412 51.0253,-394.642 38,-381.638 38,-347 38,-347 38,-347 38,-177 38,-132.02 84.5073,-98.1886 115.618,-80.5896"/>
<polygon fill="midnightblue" stroke="midnightblue" points="117.591,-83.5011 124.71,-75.6546 114.252,-77.3489 117.591,-83.5011"/>
</g>
<!-- Node6 -->
<g id="node6" class="node"><title>Node6</title>
<polygon fill="none" stroke="#bfbfbf" points="549.5,-56.5 549.5,-75.5 590.5,-75.5 590.5,-56.5 549.5,-56.5"/>
<text text-anchor="middle" x="570" y="-63.5" font-family="FreeSans" font-size="10.00">string</text>
</g>
<!-- Node1&#45;&gt;Node6 -->
<g id="edge54" class="edge"><title>Node1&#45;&gt;Node6</title>
<path fill="none" stroke="midnightblue" d="M704.655,-448.464C682.381,-441.917 660.749,-430.78 647,-412 617.417,-371.592 696.536,-375.331 712,-356 730.801,-332.497 731,-321.098 731,-291 731,-291 731,-291 731,-177 731,-114.528 647.336,-84.9623 600.629,-73.3246"/>
<polygon fill="midnightblue" stroke="midnightblue" points="601.255,-69.8762 590.718,-70.9852 599.647,-76.689 601.255,-69.8762"/>
</g>
<!-- Node8 -->
<g id="node8" class="node"><title>Node8</title>
<g id="a_node8"><a xlink:href="../../d8/d30/PHCompositeNode_8h.html" target="_top" xlink:title="PHCompositeNode.h">
<polygon fill="none" stroke="black" points="142,-224.5 142,-243.5 250,-243.5 250,-224.5 142,-224.5"/>
<text text-anchor="middle" x="196" y="-231.5" font-family="FreeSans" font-size="10.00">PHCompositeNode.h</text>
</a>
</g>
</g>
<!-- Node1&#45;&gt;Node8 -->
<g id="edge8" class="edge"><title>Node1&#45;&gt;Node8</title>
<path fill="none" stroke="midnightblue" d="M702.482,-457.21C546.998,-455.418 230.894,-441.137 171,-356 159.458,-339.594 178.125,-282.575 189.021,-253.043"/>
<polygon fill="midnightblue" stroke="midnightblue" points="192.354,-254.124 192.613,-243.532 185.805,-251.65 192.354,-254.124"/>
</g>
<!-- Node12 -->
<g id="node12" class="node"><title>Node12</title>
<g id="a_node12"><a xlink:href="../../d8/dfd/PHNodeIterator_8h.html" target="_top" xlink:title="PHNodeIterator.h">
<polygon fill="none" stroke="black" points="66,-280.5 66,-299.5 158,-299.5 158,-280.5 66,-280.5"/>
<text text-anchor="middle" x="112" y="-287.5" font-family="FreeSans" font-size="10.00">PHNodeIterator.h</text>
</a>
</g>
</g>
<!-- Node1&#45;&gt;Node12 -->
<g id="edge18" class="edge"><title>Node1&#45;&gt;Node12</title>
<path fill="none" stroke="midnightblue" d="M702.221,-457.843C525.209,-458.651 135.69,-455.414 95,-412 68.6302,-383.865 88.2804,-334.678 101.892,-308.521"/>
<polygon fill="midnightblue" stroke="midnightblue" points="104.979,-310.169 106.704,-299.716 98.8368,-306.812 104.979,-310.169"/>
</g>
<!-- Node13 -->
<g id="node13" class="node"><title>Node13</title>
<g id="a_node13"><a xlink:href="../../d3/d79/PHIODataNode_8h.html" target="_top" xlink:title="PHIODataNode.h">
<polygon fill="none" stroke="black" points="409,-392.5 409,-411.5 501,-411.5 501,-392.5 409,-392.5"/>
<text text-anchor="middle" x="455" y="-399.5" font-family="FreeSans" font-size="10.00">PHIODataNode.h</text>
</a>
</g>
</g>
<!-- Node1&#45;&gt;Node13 -->
<g id="edge22" class="edge"><title>Node1&#45;&gt;Node13</title>
<path fill="none" stroke="midnightblue" d="M736.077,-448.444C674.743,-438.527 574.086,-422.253 511.336,-412.108"/>
<polygon fill="midnightblue" stroke="midnightblue" points="511.652,-408.614 501.222,-410.473 510.535,-415.524 511.652,-408.614"/>
</g>
<!-- Node17 -->
<g id="node17" class="node"><title>Node17</title>
<g id="a_node17"><a xlink:href="../../de/da7/phooldefs_8h.html" target="_top" xlink:title="phooldefs.h">
<polygon fill="none" stroke="black" points="637,-336.5 637,-355.5 703,-355.5 703,-336.5 637,-336.5"/>
<text text-anchor="middle" x="670" y="-343.5" font-family="FreeSans" font-size="10.00">phooldefs.h</text>
</a>
</g>
</g>
<!-- Node1&#45;&gt;Node17 -->
<g id="edge39" class="edge"><title>Node1&#45;&gt;Node17</title>
<path fill="none" stroke="midnightblue" d="M722.988,-448.497C679.264,-441.354 627.552,-429.478 614,-412 599.784,-393.666 623.595,-373.581 644.423,-360.662"/>
<polygon fill="midnightblue" stroke="midnightblue" points="646.202,-363.677 653.047,-355.59 642.653,-357.643 646.202,-363.677"/>
</g>
<!-- Node18 -->
<g id="node18" class="node"><title>Node18</title>
<polygon fill="none" stroke="#bfbfbf" points="180.5,-336.5 180.5,-355.5 239.5,-355.5 239.5,-336.5 180.5,-336.5"/>
<text text-anchor="middle" x="210" y="-343.5" font-family="FreeSans" font-size="10.00">TObject.h</text>
</g>
<!-- Node1&#45;&gt;Node18 -->
<g id="edge43" class="edge"><title>Node1&#45;&gt;Node18</title>
<path fill="none" stroke="midnightblue" d="M702.354,-452.313C622.926,-446.762 502.45,-435.168 400,-412 342.032,-398.891 277.014,-374.418 240.041,-359.528"/>
<polygon fill="midnightblue" stroke="midnightblue" points="240.967,-356.126 230.385,-355.6 238.329,-362.61 240.967,-356.126"/>
</g>
<!-- Node19 -->
<g id="node19" class="node"><title>Node19</title>
<g id="a_node19"><a xlink:href="../../df/d32/PHObject_8h.html" target="_top" xlink:title="PHObject.h">
<polygon fill="none" stroke="black" points="104.5,-392.5 104.5,-411.5 171.5,-411.5 171.5,-392.5 104.5,-392.5"/>
<text text-anchor="middle" x="138" y="-399.5" font-family="FreeSans" font-size="10.00">PHObject.h</text>
</a>
</g>
</g>
<!-- Node1&#45;&gt;Node19 -->
<g id="edge35" class="edge"><title>Node1&#45;&gt;Node19</title>
<path fill="none" stroke="midnightblue" d="M702.317,-453.553C584.901,-448.195 368.945,-435.903 186,-412 184.7,-411.83 183.381,-411.648 182.051,-411.455"/>
<polygon fill="midnightblue" stroke="midnightblue" points="182.18,-407.932 171.754,-409.815 181.079,-414.845 182.18,-407.932"/>
</g>
<!-- Node20 -->
<g id="node20" class="node"><title>Node20</title>
<polygon fill="none" stroke="#bfbfbf" points="656,-392.5 656,-411.5 702,-411.5 702,-392.5 656,-392.5"/>
<text text-anchor="middle" x="679" y="-399.5" font-family="FreeSans" font-size="10.00">TFile.h</text>
</g>
<!-- Node1&#45;&gt;Node20 -->
<g id="edge40" class="edge"><title>Node1&#45;&gt;Node20</title>
<path fill="none" stroke="midnightblue" d="M771.327,-448.324C753.606,-439.625 726.097,-426.12 705.712,-416.113"/>
<polygon fill="midnightblue" stroke="midnightblue" points="707.149,-412.919 696.63,-411.655 704.064,-419.203 707.149,-412.919"/>
</g>
<!-- Node21 -->
<g id="node21" class="node"><title>Node21</title>
<polygon fill="none" stroke="#bfbfbf" points="720,-392.5 720,-411.5 770,-411.5 770,-392.5 720,-392.5"/>
<text text-anchor="middle" x="745" y="-399.5" font-family="FreeSans" font-size="10.00">TTree.h</text>
</g>
<!-- Node1&#45;&gt;Node21 -->
<g id="edge41" class="edge"><title>Node1&#45;&gt;Node21</title>
<path fill="none" stroke="midnightblue" d="M781.734,-448.083C775.455,-440.377 766.212,-429.033 758.569,-419.653"/>
<polygon fill="midnightblue" stroke="midnightblue" points="761.161,-417.293 752.131,-411.751 755.734,-421.714 761.161,-417.293"/>
</g>
<!-- Node22 -->
<g id="node22" class="node"><title>Node22</title>
<polygon fill="none" stroke="#bfbfbf" points="788.5,-392.5 788.5,-411.5 877.5,-411.5 877.5,-392.5 788.5,-392.5"/>
<text text-anchor="middle" x="833" y="-399.5" font-family="FreeSans" font-size="10.00">TBranchObject.h</text>
</g>
<!-- Node1&#45;&gt;Node22 -->
<g id="edge42" class="edge"><title>Node1&#45;&gt;Node22</title>
<path fill="none" stroke="midnightblue" d="M796.266,-448.083C802.545,-440.377 811.788,-429.033 819.431,-419.653"/>
<polygon fill="midnightblue" stroke="midnightblue" points="822.266,-421.714 825.869,-411.751 816.839,-417.293 822.266,-421.714"/>
</g>
<!-- Node23 -->
<g id="node23" class="node"><title>Node23</title>
<polygon fill="none" stroke="#bfbfbf" points="896,-392.5 896,-411.5 974,-411.5 974,-392.5 896,-392.5"/>
<text text-anchor="middle" x="935" y="-399.5" font-family="FreeSans" font-size="10.00">TLeafObject.h</text>
</g>
<!-- Node1&#45;&gt;Node23 -->
<g id="edge44" class="edge"><title>Node1&#45;&gt;Node23</title>
<path fill="none" stroke="midnightblue" d="M812.134,-448.444C836.482,-439.438 875.007,-425.189 902.423,-415.049"/>
<polygon fill="midnightblue" stroke="midnightblue" points="903.809,-418.268 911.974,-411.516 901.381,-411.703 903.809,-418.268"/>
</g>
<!-- Node24 -->
<g id="node24" class="node"><title>Node24</title>
<polygon fill="none" stroke="#bfbfbf" points="992.5,-392.5 992.5,-411.5 1047.5,-411.5 1047.5,-392.5 992.5,-392.5"/>
<text text-anchor="middle" x="1020" y="-399.5" font-family="FreeSans" font-size="10.00">TClass.h</text>
</g>
<!-- Node1&#45;&gt;Node24 -->
<g id="edge45" class="edge"><title>Node1&#45;&gt;Node24</title>
<path fill="none" stroke="midnightblue" d="M826.219,-448.491C863.233,-440.001 921.906,-426.47 982.069,-412.202"/>
<polygon fill="midnightblue" stroke="midnightblue" points="983.207,-415.53 992.127,-409.814 981.589,-408.719 983.207,-415.53"/>
</g>
<!-- Node25 -->
<g id="node25" class="node"><title>Node25</title>
<polygon fill="none" stroke="#bfbfbf" points="1066,-392.5 1066,-411.5 1124,-411.5 1124,-392.5 1066,-392.5"/>
<text text-anchor="middle" x="1095" y="-399.5" font-family="FreeSans" font-size="10.00">TROOT.h</text>
</g>
<!-- Node1&#45;&gt;Node25 -->
<g id="edge46" class="edge"><title>Node1&#45;&gt;Node25</title>
<path fill="none" stroke="midnightblue" d="M845.435,-448.493C897.377,-440.436 976.781,-427.548 1055.55,-411.982"/>
<polygon fill="midnightblue" stroke="midnightblue" points="1056.53,-415.356 1065.65,-409.97 1055.16,-408.491 1056.53,-415.356"/>
</g>
<!-- Node26 -->
<g id="node26" class="node"><title>Node26</title>
<polygon fill="none" stroke="#bfbfbf" points="1142,-392.5 1142,-411.5 1206,-411.5 1206,-392.5 1142,-392.5"/>
<text text-anchor="middle" x="1174" y="-399.5" font-family="FreeSans" font-size="10.00">RVersion.h</text>
</g>
<!-- Node1&#45;&gt;Node26 -->
<g id="edge47" class="edge"><title>Node1&#45;&gt;Node26</title>
<path fill="none" stroke="midnightblue" d="M867.946,-448.474C937.643,-440.512 1041.89,-427.54 1132,-412 1132.1,-411.983 1132.2,-411.965 1132.3,-411.948"/>
<polygon fill="midnightblue" stroke="midnightblue" points="1132.76,-415.423 1141.95,-410.147 1131.48,-408.542 1132.76,-415.423"/>
</g>
<!-- Node27 -->
<g id="node27" class="node"><title>Node27</title>
<polygon fill="none" stroke="#bfbfbf" points="1224,-392.5 1224,-411.5 1320,-411.5 1320,-392.5 1224,-392.5"/>
<text text-anchor="middle" x="1272" y="-399.5" font-family="FreeSans" font-size="10.00">TBranchElement.h</text>
</g>
<!-- Node1&#45;&gt;Node27 -->
<g id="edge48" class="edge"><title>Node1&#45;&gt;Node27</title>
<path fill="none" stroke="midnightblue" d="M875.639,-449.163C959.552,-441.271 1090.63,-428.152 1213.83,-412.096"/>
<polygon fill="midnightblue" stroke="midnightblue" points="1214.36,-415.556 1223.82,-410.785 1213.45,-408.616 1214.36,-415.556"/>
</g>
<!-- Node28 -->
<g id="node28" class="node"><title>Node28</title>
<polygon fill="none" stroke="#bfbfbf" points="1338,-392.5 1338,-411.5 1466,-411.5 1466,-392.5 1338,-392.5"/>
<text text-anchor="middle" x="1402" y="-399.5" font-family="FreeSans" font-size="10.00">boost/algorithm/string.hpp</text>
</g>
<!-- Node1&#45;&gt;Node28 -->
<g id="edge49" class="edge"><title>Node1&#45;&gt;Node28</title>
<path fill="none" stroke="midnightblue" d="M875.609,-450.842C980.158,-443.17 1161.59,-429.093 1327.52,-412.116"/>
<polygon fill="midnightblue" stroke="midnightblue" points="1328.33,-415.551 1337.92,-411.045 1327.62,-408.587 1328.33,-415.551"/>
</g>
<!-- Node29 -->
<g id="node29" class="node"><title>Node29</title>
<polygon fill="none" stroke="#bfbfbf" points="1484,-392.5 1484,-411.5 1578,-411.5 1578,-392.5 1484,-392.5"/>
<text text-anchor="middle" x="1531" y="-399.5" font-family="FreeSans" font-size="10.00">boost/foreach.hpp</text>
</g>
<!-- Node1&#45;&gt;Node29 -->
<g id="edge50" class="edge"><title>Node1&#45;&gt;Node29</title>
<path fill="none" stroke="midnightblue" d="M875.595,-453.927C1003.97,-448.792 1252.52,-436.629 1473.81,-412.026"/>
<polygon fill="midnightblue" stroke="midnightblue" points="1474.44,-415.477 1483.99,-410.883 1473.66,-408.521 1474.44,-415.477"/>
</g>
<!-- Node30 -->
<g id="node30" class="node"><title>Node30</title>
<polygon fill="none" stroke="#bfbfbf" points="1596.5,-392.5 1596.5,-411.5 1645.5,-411.5 1645.5,-392.5 1596.5,-392.5"/>
<text text-anchor="middle" x="1621" y="-399.5" font-family="FreeSans" font-size="10.00">cassert</text>
</g>
<!-- Node1&#45;&gt;Node30 -->
<g id="edge51" class="edge"><title>Node1&#45;&gt;Node30</title>
<path fill="none" stroke="midnightblue" d="M875.519,-457.828C1020.77,-457.963 1322.77,-452.872 1586.1,-411.777"/>
<polygon fill="midnightblue" stroke="midnightblue" points="1586.91,-415.193 1596.24,-410.174 1585.82,-408.278 1586.91,-415.193"/>
</g>
<!-- Node31 -->
<g id="node31" class="node"><title>Node31</title>
<polygon fill="none" stroke="#bfbfbf" points="1663.5,-392.5 1663.5,-411.5 1708.5,-411.5 1708.5,-392.5 1663.5,-392.5"/>
<text text-anchor="middle" x="1686" y="-399.5" font-family="FreeSans" font-size="10.00">cstdlib</text>
</g>
<!-- Node1&#45;&gt;Node31 -->
<g id="edge52" class="edge"><title>Node1&#45;&gt;Node31</title>
<path fill="none" stroke="midnightblue" d="M875.529,-454.941C1060.04,-450.161 1488.05,-436.897 1653.38,-411.626"/>
<polygon fill="midnightblue" stroke="midnightblue" points="1654.09,-415.056 1663.41,-410.023 1652.99,-408.144 1654.09,-415.056"/>
</g>
<!-- Node32 -->
<g id="node32" class="node"><title>Node32</title>
<polygon fill="none" stroke="#bfbfbf" points="1727,-392.5 1727,-411.5 1779,-411.5 1779,-392.5 1727,-392.5"/>
<text text-anchor="middle" x="1753" y="-399.5" font-family="FreeSans" font-size="10.00">sstream</text>
</g>
<!-- Node1&#45;&gt;Node32 -->
<g id="edge53" class="edge"><title>Node1&#45;&gt;Node32</title>
<path fill="none" stroke="midnightblue" d="M875.78,-454.971C1070.44,-450.072 1538.08,-436.281 1716.7,-411.637"/>
<polygon fill="midnightblue" stroke="midnightblue" points="1717.37,-415.076 1726.77,-410.189 1716.38,-408.148 1717.37,-415.076"/>
</g>
<!-- Node3 -->
<g id="node3" class="node"><title>Node3</title>
<g id="a_node3"><a xlink:href="../../d9/d53/PHIOManager_8h.html" target="_top" xlink:title="PHIOManager.h">
<polygon fill="none" stroke="black" points="416,-224.5 416,-243.5 502,-243.5 502,-224.5 416,-224.5"/>
<text text-anchor="middle" x="459" y="-231.5" font-family="FreeSans" font-size="10.00">PHIOManager.h</text>
</a>
</g>
</g>
<!-- Node2&#45;&gt;Node3 -->
<g id="edge2" class="edge"><title>Node2&#45;&gt;Node3</title>
<path fill="none" stroke="midnightblue" d="M555.761,-336.368C538.203,-317.974 496.868,-274.671 474.322,-251.052"/>
<polygon fill="midnightblue" stroke="midnightblue" points="476.637,-248.408 467.201,-243.591 471.574,-253.242 476.637,-248.408"/>
</g>
<!-- Node2&#45;&gt;Node6 -->
<g id="edge6" class="edge"><title>Node2&#45;&gt;Node6</title>
<path fill="none" stroke="midnightblue" d="M570.535,-336.413C583.449,-318.56 611,-275.704 611,-235 611,-235 611,-235 611,-177 611,-142.515 593.089,-105.562 580.943,-84.468"/>
<polygon fill="midnightblue" stroke="midnightblue" points="583.841,-82.4938 575.701,-75.7121 577.835,-86.0898 583.841,-82.4938"/>
</g>
<!-- Node7 -->
<g id="node7" class="node"><title>Node7</title>
<polygon fill="none" stroke="#bfbfbf" points="547.5,-280.5 547.5,-299.5 582.5,-299.5 582.5,-280.5 547.5,-280.5"/>
<text text-anchor="middle" x="565" y="-287.5" font-family="FreeSans" font-size="10.00">map</text>
</g>
<!-- Node2&#45;&gt;Node7 -->
<g id="edge7" class="edge"><title>Node2&#45;&gt;Node7</title>
<path fill="none" stroke="midnightblue" d="M564.165,-336.083C564.296,-329.006 564.484,-318.861 564.648,-309.986"/>
<polygon fill="midnightblue" stroke="midnightblue" points="568.152,-309.814 564.838,-299.751 561.153,-309.685 568.152,-309.814"/>
</g>
<!-- Node3&#45;&gt;Node4 -->
<g id="edge3" class="edge"><title>Node3&#45;&gt;Node4</title>
<path fill="none" stroke="midnightblue" d="M448.977,-224.328C434.172,-211.617 405.458,-187.338 380,-168 345.439,-141.748 339.176,-130.68 300,-112 259.585,-92.7291 209.292,-80.1103 176.685,-73.2694"/>
<polygon fill="midnightblue" stroke="midnightblue" points="177.252,-69.813 166.755,-71.2502 175.857,-76.6726 177.252,-69.813"/>
</g>
<!-- Node3&#45;&gt;Node6 -->
<g id="edge5" class="edge"><title>Node3&#45;&gt;Node6</title>
<path fill="none" stroke="midnightblue" d="M461.61,-224.384C468.22,-203.526 487.167,-149.293 516,-112 525.07,-100.268 537.697,-89.5349 548.46,-81.4954"/>
<polygon fill="midnightblue" stroke="midnightblue" points="550.507,-84.3339 556.588,-75.6578 546.424,-78.6482 550.507,-84.3339"/>
</g>
<!-- Node5 -->
<g id="node5" class="node"><title>Node5</title>
<polygon fill="none" stroke="#bfbfbf" points="142,-0.5 142,-19.5 196,-19.5 196,-0.5 142,-0.5"/>
<text text-anchor="middle" x="169" y="-7.5" font-family="FreeSans" font-size="10.00">iostream</text>
</g>
<!-- Node4&#45;&gt;Node5 -->
<g id="edge4" class="edge"><title>Node4&#45;&gt;Node5</title>
<path fill="none" stroke="midnightblue" d="M147.293,-56.083C150.852,-48.6913 156.022,-37.9533 160.424,-28.8111"/>
<polygon fill="midnightblue" stroke="midnightblue" points="163.602,-30.2795 164.787,-19.7511 157.295,-27.2427 163.602,-30.2795"/>
</g>
<!-- Node8&#45;&gt;Node4 -->
<g id="edge9" class="edge"><title>Node8&#45;&gt;Node4</title>
<path fill="none" stroke="midnightblue" d="M177.611,-224.471C163.899,-216.997 146.185,-204.71 138,-188 121.799,-154.925 130.111,-110.46 136.974,-85.6784"/>
<polygon fill="midnightblue" stroke="midnightblue" points="140.42,-86.3727 139.933,-75.7891 133.713,-84.3665 140.42,-86.3727"/>
</g>
<!-- Node9 -->
<g id="node9" class="node"><title>Node9</title>
<g id="a_node9"><a xlink:href="../../d3/d62/PHNode_8h.html" target="_top" xlink:title="PHNode.h">
<polygon fill="none" stroke="black" points="230,-112.5 230,-131.5 292,-131.5 292,-112.5 230,-112.5"/>
<text text-anchor="middle" x="261" y="-119.5" font-family="FreeSans" font-size="10.00">PHNode.h</text>
</a>
</g>
</g>
<!-- Node8&#45;&gt;Node9 -->
<g id="edge10" class="edge"><title>Node8&#45;&gt;Node9</title>
<path fill="none" stroke="midnightblue" d="M207.873,-224.288C218.3,-216.041 233.149,-202.753 242,-188 250.6,-173.665 255.508,-155.202 258.173,-141.619"/>
<polygon fill="midnightblue" stroke="midnightblue" points="261.658,-142.005 259.915,-131.554 254.76,-140.811 261.658,-142.005"/>
</g>
<!-- Node11 -->
<g id="node11" class="node"><title>Node11</title>
<g id="a_node11"><a xlink:href="../../db/dd5/PHPointerList_8h.html" target="_top" xlink:title="PHPointerList.h">
<polygon fill="none" stroke="black" points="147,-168.5 147,-187.5 233,-187.5 233,-168.5 147,-168.5"/>
<text text-anchor="middle" x="190" y="-175.5" font-family="FreeSans" font-size="10.00">PHPointerList.h</text>
</a>
</g>
</g>
<!-- Node8&#45;&gt;Node11 -->
<g id="edge14" class="edge"><title>Node8&#45;&gt;Node11</title>
<path fill="none" stroke="midnightblue" d="M195.009,-224.083C194.214,-216.927 193.071,-206.635 192.077,-197.691"/>
<polygon fill="midnightblue" stroke="midnightblue" points="195.555,-197.303 190.972,-187.751 188.598,-198.076 195.555,-197.303"/>
</g>
<!-- Node9&#45;&gt;Node4 -->
<g id="edge11" class="edge"><title>Node9&#45;&gt;Node4</title>
<path fill="none" stroke="midnightblue" d="M242.303,-112.444C223.056,-103.636 192.848,-89.8116 170.8,-79.722"/>
<polygon fill="midnightblue" stroke="midnightblue" points="172.16,-76.4951 161.61,-75.5164 169.247,-82.8603 172.16,-76.4951"/>
</g>
<!-- Node9&#45;&gt;Node6 -->
<g id="edge13" class="edge"><title>Node9&#45;&gt;Node6</title>
<path fill="none" stroke="midnightblue" d="M292.043,-115.575C351.381,-105.205 480.245,-82.6854 539.308,-72.3637"/>
<polygon fill="midnightblue" stroke="midnightblue" points="539.913,-75.811 549.161,-70.6417 538.708,-68.9155 539.913,-75.811"/>
</g>
<!-- Node10 -->
<g id="node10" class="node"><title>Node10</title>
<polygon fill="none" stroke="#bfbfbf" points="238.5,-56.5 238.5,-75.5 283.5,-75.5 283.5,-56.5 238.5,-56.5"/>
<text text-anchor="middle" x="261" y="-63.5" font-family="FreeSans" font-size="10.00">iosfwd</text>
</g>
<!-- Node9&#45;&gt;Node10 -->
<g id="edge12" class="edge"><title>Node9&#45;&gt;Node10</title>
<path fill="none" stroke="midnightblue" d="M261,-112.083C261,-105.006 261,-94.8611 261,-85.9865"/>
<polygon fill="midnightblue" stroke="midnightblue" points="264.5,-85.751 261,-75.7511 257.5,-85.7511 264.5,-85.751"/>
</g>
<!-- Node11&#45;&gt;Node4 -->
<g id="edge15" class="edge"><title>Node11&#45;&gt;Node4</title>
<path fill="none" stroke="midnightblue" d="M186.312,-168.368C178.659,-150.456 160.913,-108.923 150.669,-84.9482"/>
<polygon fill="midnightblue" stroke="midnightblue" points="153.819,-83.412 146.671,-75.5914 147.382,-86.1624 153.819,-83.412"/>
</g>
<!-- Node11&#45;&gt;Node5 -->
<g id="edge17" class="edge"><title>Node11&#45;&gt;Node5</title>
<path fill="none" stroke="midnightblue" d="M188.972,-168.488C186.58,-148.725 180.429,-98.1994 175,-56 173.893,-47.3925 172.628,-37.8645 171.546,-29.8002"/>
<polygon fill="midnightblue" stroke="midnightblue" points="174.979,-29.0663 170.174,-19.6237 168.042,-30.0018 174.979,-29.0663"/>
</g>
<!-- Node11&#45;&gt;Node9 -->
<g id="edge16" class="edge"><title>Node11&#45;&gt;Node9</title>
<path fill="none" stroke="midnightblue" d="M201.407,-168.324C212.109,-160.185 228.341,-147.839 241.163,-138.087"/>
<polygon fill="midnightblue" stroke="midnightblue" points="243.544,-140.673 249.385,-131.834 239.307,-135.102 243.544,-140.673"/>
</g>
<!-- Node12&#45;&gt;Node4 -->
<g id="edge19" class="edge"><title>Node12&#45;&gt;Node4</title>
<path fill="none" stroke="midnightblue" d="M111.708,-280.387C111.027,-254.513 110.374,-175.347 125,-112 127.13,-102.777 130.864,-92.9693 134.381,-84.8726"/>
<polygon fill="midnightblue" stroke="midnightblue" points="137.598,-86.2532 138.582,-75.7042 131.234,-83.3368 137.598,-86.2532"/>
</g>
<!-- Node12&#45;&gt;Node8 -->
<g id="edge20" class="edge"><title>Node12&#45;&gt;Node8</title>
<path fill="none" stroke="midnightblue" d="M125.496,-280.324C138.6,-271.9 158.712,-258.971 174.107,-249.074"/>
<polygon fill="midnightblue" stroke="midnightblue" points="176.018,-252.006 182.537,-243.655 172.233,-246.118 176.018,-252.006"/>
</g>
<!-- Node12&#45;&gt;Node11 -->
<g id="edge21" class="edge"><title>Node12&#45;&gt;Node11</title>
<path fill="none" stroke="midnightblue" d="M113.161,-280.289C115.263,-267.098 120.68,-241.722 133,-224 141.575,-211.666 154.515,-201.065 165.9,-193.256"/>
<polygon fill="midnightblue" stroke="midnightblue" points="168.106,-195.996 174.584,-187.612 164.292,-190.127 168.106,-195.996"/>
</g>
<!-- Node13&#45;&gt;Node2 -->
<g id="edge27" class="edge"><title>Node13&#45;&gt;Node2</title>
<path fill="none" stroke="midnightblue" d="M472.513,-392.324C490.072,-383.625 517.331,-370.12 537.531,-360.113"/>
<polygon fill="midnightblue" stroke="midnightblue" points="539.124,-363.23 546.531,-355.655 536.016,-356.958 539.124,-363.23"/>
</g>
<!-- Node13&#45;&gt;Node3 -->
<g id="edge26" class="edge"><title>Node13&#45;&gt;Node3</title>
<path fill="none" stroke="midnightblue" d="M455.215,-392.075C455.845,-365.945 457.694,-289.211 458.552,-253.577"/>
<polygon fill="midnightblue" stroke="midnightblue" points="462.052,-253.65 458.794,-243.568 455.054,-253.481 462.052,-253.65"/>
</g>
<!-- Node13&#45;&gt;Node6 -->
<g id="edge34" class="edge"><title>Node13&#45;&gt;Node6</title>
<path fill="none" stroke="midnightblue" d="M458.222,-392.17C466.908,-368.329 491.465,-300.629 511,-244 530.843,-186.479 553.333,-118.069 563.901,-85.7225"/>
<polygon fill="midnightblue" stroke="midnightblue" points="567.344,-86.4548 567.118,-75.8623 560.689,-84.2836 567.344,-86.4548"/>
</g>
<!-- Node14 -->
<g id="node14" class="node"><title>Node14</title>
<g id="a_node14"><a xlink:href="../../dd/d9b/PHDataNode_8h.html" target="_top" xlink:title="PHDataNode.h">
<polygon fill="none" stroke="black" points="289,-168.5 289,-187.5 371,-187.5 371,-168.5 289,-168.5"/>
<text text-anchor="middle" x="330" y="-175.5" font-family="FreeSans" font-size="10.00">PHDataNode.h</text>
</a>
</g>
</g>
<!-- Node13&#45;&gt;Node14 -->
<g id="edge23" class="edge"><title>Node13&#45;&gt;Node14</title>
<path fill="none" stroke="midnightblue" d="M450.1,-392.297C431.552,-359.356 365.416,-241.898 340.025,-196.805"/>
<polygon fill="midnightblue" stroke="midnightblue" points="342.958,-194.88 335.002,-187.884 336.859,-198.315 342.958,-194.88"/>
</g>
<!-- Node15 -->
<g id="node15" class="node"><title>Node15</title>
<g id="a_node15"><a xlink:href="../../db/d17/PHTypedNodeIterator_8h.html" target="_top" xlink:title="PHTypedNodeIterator.h">
<polygon fill="none" stroke="black" points="257.5,-336.5 257.5,-355.5 376.5,-355.5 376.5,-336.5 257.5,-336.5"/>
<text text-anchor="middle" x="317" y="-343.5" font-family="FreeSans" font-size="10.00">PHTypedNodeIterator.h</text>
</a>
</g>
</g>
<!-- Node13&#45;&gt;Node15 -->
<g id="edge28" class="edge"><title>Node13&#45;&gt;Node15</title>
<path fill="none" stroke="midnightblue" d="M433.133,-392.444C410.221,-383.478 374.025,-369.314 348.134,-359.183"/>
<polygon fill="midnightblue" stroke="midnightblue" points="349.352,-355.901 338.764,-355.516 346.801,-362.42 349.352,-355.901"/>
</g>
<!-- Node13&#45;&gt;Node17 -->
<g id="edge31" class="edge"><title>Node13&#45;&gt;Node17</title>
<path fill="none" stroke="midnightblue" d="M489.067,-392.444C526.399,-383.067 586.362,-368.007 626.928,-357.818"/>
<polygon fill="midnightblue" stroke="midnightblue" points="627.952,-361.17 636.798,-355.339 626.247,-354.38 627.952,-361.17"/>
</g>
<!-- Node13&#45;&gt;Node18 -->
<g id="edge33" class="edge"><title>Node13&#45;&gt;Node18</title>
<path fill="none" stroke="midnightblue" d="M414.493,-392.426C374.849,-383.982 312.479,-370.563 249.9,-356.405"/>
<polygon fill="midnightblue" stroke="midnightblue" points="250.385,-352.926 239.859,-354.127 248.837,-359.752 250.385,-352.926"/>
</g>
<!-- Node14&#45;&gt;Node5 -->
<g id="edge25" class="edge"><title>Node14&#45;&gt;Node5</title>
<path fill="none" stroke="midnightblue" d="M329.787,-168.394C328.786,-146.6 323.168,-88.6497 292,-56 269.376,-32.3006 233.253,-21.0236 205.994,-15.6931"/>
<polygon fill="midnightblue" stroke="midnightblue" points="206.485,-12.2256 196.027,-13.9278 205.264,-19.1183 206.485,-12.2256"/>
</g>
<!-- Node14&#45;&gt;Node9 -->
<g id="edge24" class="edge"><title>Node14&#45;&gt;Node9</title>
<path fill="none" stroke="midnightblue" d="M318.914,-168.324C308.514,-160.185 292.739,-147.839 280.278,-138.087"/>
<polygon fill="midnightblue" stroke="midnightblue" points="282.32,-135.241 272.288,-131.834 278.006,-140.753 282.32,-135.241"/>
</g>
<!-- Node15&#45;&gt;Node12 -->
<g id="edge29" class="edge"><title>Node15&#45;&gt;Node12</title>
<path fill="none" stroke="midnightblue" d="M284.517,-336.444C249.28,-327.162 192.896,-312.309 154.241,-302.127"/>
<polygon fill="midnightblue" stroke="midnightblue" points="154.893,-298.679 144.331,-299.516 153.109,-305.448 154.893,-298.679"/>
</g>
<!-- Node16 -->
<g id="node16" class="node"><title>Node16</title>
<polygon fill="none" stroke="#bfbfbf" points="292.5,-280.5 292.5,-299.5 341.5,-299.5 341.5,-280.5 292.5,-280.5"/>
<text text-anchor="middle" x="317" y="-287.5" font-family="FreeSans" font-size="10.00">cstddef</text>
</g>
<!-- Node15&#45;&gt;Node16 -->
<g id="edge30" class="edge"><title>Node15&#45;&gt;Node16</title>
<path fill="none" stroke="midnightblue" d="M317,-336.083C317,-329.006 317,-318.861 317,-309.986"/>
<polygon fill="midnightblue" stroke="midnightblue" points="320.5,-309.751 317,-299.751 313.5,-309.751 320.5,-309.751"/>
</g>
<!-- Node17&#45;&gt;Node6 -->
<g id="edge32" class="edge"><title>Node17&#45;&gt;Node6</title>
<path fill="none" stroke="midnightblue" d="M668.693,-336.466C665.982,-318.007 660,-272.968 660,-235 660,-235 660,-235 660,-177 660,-134.658 619.561,-99.6551 592.896,-81.1778"/>
<polygon fill="midnightblue" stroke="midnightblue" points="594.723,-78.1893 584.46,-75.5584 590.842,-84.0152 594.723,-78.1893"/>
</g>
<!-- Node19&#45;&gt;Node5 -->
<g id="edge37" class="edge"><title>Node19&#45;&gt;Node5</title>
<path fill="none" stroke="midnightblue" d="M122.704,-392.384C86.7743,-370.882 0,-311.079 0,-235 0,-235 0,-235 0,-121 0,-58.4445 82.3388,-29.6239 132.071,-17.9216"/>
<polygon fill="midnightblue" stroke="midnightblue" points="132.849,-21.3341 141.847,-15.7413 131.325,-14.502 132.849,-21.3341"/>
</g>
<!-- Node19&#45;&gt;Node18 -->
<g id="edge36" class="edge"><title>Node19&#45;&gt;Node18</title>
<path fill="none" stroke="midnightblue" d="M149.568,-392.324C160.42,-384.185 176.881,-371.839 189.883,-362.087"/>
<polygon fill="midnightblue" stroke="midnightblue" points="192.321,-364.634 198.221,-355.834 188.121,-359.034 192.321,-364.634"/>
</g>
</g>
</svg>
