<?xml version="1.0" encoding="UTF-8" standalone="no"?>
<!DOCTYPE svg PUBLIC "-//W3C//DTD SVG 1.1//EN"
 "http://www.w3.org/Graphics/SVG/1.1/DTD/svg11.dtd">
<!-- Generated by graphviz version 2.36.0 (20140111.2315)
 -->
<!-- Title: fun4all/fun4all/Fun4AllUtils.cc Pages: 1 -->
<svg width="700pt" height="140pt"
 viewBox="0.00 0.00 700.00 140.00" xmlns="http://www.w3.org/2000/svg" xmlns:xlink="http://www.w3.org/1999/xlink">
<g id="graph0" class="graph" transform="scale(1 1) rotate(0) translate(4 136)">
<title>fun4all/fun4all/Fun4AllUtils.cc</title>
<!-- Node1 -->
<g id="node1" class="node"><title>Node1</title>
<polygon fill="#bfbfbf" stroke="black" points="307,-112.5 307,-131.5 453,-131.5 453,-112.5 307,-112.5"/>
<text text-anchor="middle" x="380" y="-119.5" font-family="FreeSans" font-size="10.00">fun4all/fun4all/Fun4AllUtils.cc</text>
</g>
<!-- Node2 -->
<g id="node2" class="node"><title>Node2</title>
<g id="a_node2"><a xlink:href="../../d5/d66/Fun4AllUtils_8h.html" target="_top" xlink:title="Fun4AllUtils.h">
<polygon fill="none" stroke="black" points="6.5,-56.5 6.5,-75.5 83.5,-75.5 83.5,-56.5 6.5,-56.5"/>
<text text-anchor="middle" x="45" y="-63.5" font-family="FreeSans" font-size="10.00">Fun4AllUtils.h</text>
</a>
</g>
</g>
<!-- Node1&#45;&gt;Node2 -->
<g id="edge1" class="edge"><title>Node1&#45;&gt;Node2</title>
<path fill="none" stroke="midnightblue" d="M322.47,-112.495C266.619,-104.122 179.189,-90.7073 93.636,-76.067"/>
<polygon fill="midnightblue" stroke="midnightblue" points="94.2031,-72.6133 83.7547,-74.3691 93.0175,-79.5121 94.2031,-72.6133"/>
</g>
<!-- Node5 -->
<g id="node5" class="node"><title>Node5</title>
<polygon fill="none" stroke="#bfbfbf" points="101.5,-56.5 101.5,-75.5 202.5,-75.5 202.5,-56.5 101.5,-56.5"/>
<text text-anchor="middle" x="152" y="-63.5" font-family="FreeSans" font-size="10.00">boost/tokenizer.hpp</text>
</g>
<!-- Node1&#45;&gt;Node5 -->
<g id="edge4" class="edge"><title>Node1&#45;&gt;Node5</title>
<path fill="none" stroke="midnightblue" d="M343.873,-112.444C304.349,-103.083 240.903,-88.0561 197.887,-77.868"/>
<polygon fill="midnightblue" stroke="midnightblue" points="198.496,-74.4154 187.958,-75.5164 196.882,-81.2269 198.496,-74.4154"/>
</g>
<!-- Node6 -->
<g id="node6" class="node"><title>Node6</title>
<polygon fill="none" stroke="#bfbfbf" points="221,-56.5 221,-75.5 315,-75.5 315,-56.5 221,-56.5"/>
<text text-anchor="middle" x="268" y="-63.5" font-family="FreeSans" font-size="10.00">boost/foreach.hpp</text>
</g>
<!-- Node1&#45;&gt;Node6 -->
<g id="edge5" class="edge"><title>Node1&#45;&gt;Node6</title>
<path fill="none" stroke="midnightblue" d="M362.005,-112.324C343.962,-103.625 315.953,-90.1202 295.197,-80.113"/>
<polygon fill="midnightblue" stroke="midnightblue" points="296.478,-76.8449 285.95,-75.6545 293.438,-83.1502 296.478,-76.8449"/>
</g>
<!-- Node7 -->
<g id="node7" class="node"><title>Node7</title>
<polygon fill="none" stroke="#bfbfbf" points="333.5,-56.5 333.5,-75.5 426.5,-75.5 426.5,-56.5 333.5,-56.5"/>
<text text-anchor="middle" x="380" y="-63.5" font-family="FreeSans" font-size="10.00">boost/version.hpp</text>
</g>
<!-- Node1&#45;&gt;Node7 -->
<g id="edge6" class="edge"><title>Node1&#45;&gt;Node7</title>
<path fill="none" stroke="midnightblue" d="M380,-112.083C380,-105.006 380,-94.8611 380,-85.9865"/>
<polygon fill="midnightblue" stroke="midnightblue" points="383.5,-85.751 380,-75.7511 376.5,-85.7511 383.5,-85.751"/>
</g>
<!-- Node8 -->
<g id="node8" class="node"><title>Node8</title>
<polygon fill="none" stroke="#bfbfbf" points="444.5,-56.5 444.5,-75.5 557.5,-75.5 557.5,-56.5 444.5,-56.5"/>
<text text-anchor="middle" x="501" y="-63.5" font-family="FreeSans" font-size="10.00">boost/lexical_cast.hpp</text>
</g>
<!-- Node1&#45;&gt;Node8 -->
<g id="edge7" class="edge"><title>Node1&#45;&gt;Node8</title>
<path fill="none" stroke="midnightblue" d="M399.173,-112.444C418.909,-103.636 449.885,-89.8116 472.493,-79.722"/>
<polygon fill="midnightblue" stroke="midnightblue" points="474.211,-82.788 481.917,-75.5164 471.359,-76.3957 474.211,-82.788"/>
</g>
<!-- Node9 -->
<g id="node9" class="node"><title>Node9</title>
<polygon fill="none" stroke="#bfbfbf" points="576,-56.5 576,-75.5 630,-75.5 630,-56.5 576,-56.5"/>
<text text-anchor="middle" x="603" y="-63.5" font-family="FreeSans" font-size="10.00">iostream</text>
</g>
<!-- Node1&#45;&gt;Node9 -->
<g id="edge8" class="edge"><title>Node1&#45;&gt;Node9</title>
<path fill="none" stroke="midnightblue" d="M415.315,-112.47C452.731,-103.429 513.534,-88.7277 566,-76 566.1,-75.9756 566.201,-75.9513 566.302,-75.9268"/>
<polygon fill="midnightblue" stroke="midnightblue" points="567.031,-79.3514 575.923,-73.5904 565.38,-72.5491 567.031,-79.3514"/>
</g>
<!-- Node10 -->
<g id="node10" class="node"><title>Node10</title>
<polygon fill="none" stroke="#bfbfbf" points="648,-56.5 648,-75.5 692,-75.5 692,-56.5 648,-56.5"/>
<text text-anchor="middle" x="670" y="-63.5" font-family="FreeSans" font-size="10.00">vector</text>
</g>
<!-- Node1&#45;&gt;Node10 -->
<g id="edge9" class="edge"><title>Node1&#45;&gt;Node10</title>
<path fill="none" stroke="midnightblue" d="M440.041,-112.494C490.512,-104.906 564.703,-92.7343 637.878,-76.0591"/>
<polygon fill="midnightblue" stroke="midnightblue" points="638.77,-79.4455 647.726,-73.7859 637.195,-72.6248 638.77,-79.4455"/>
</g>
<!-- Node3 -->
<g id="node3" class="node"><title>Node3</title>
<polygon fill="none" stroke="#bfbfbf" points="-0.5,-0.5 -0.5,-19.5 34.5,-19.5 34.5,-0.5 -0.5,-0.5"/>
<text text-anchor="middle" x="17" y="-7.5" font-family="FreeSans" font-size="10.00">map</text>
</g>
<!-- Node2&#45;&gt;Node3 -->
<g id="edge2" class="edge"><title>Node2&#45;&gt;Node3</title>
<path fill="none" stroke="midnightblue" d="M40.3764,-56.083C36.5437,-48.6913 30.9758,-37.9533 26.2354,-28.8111"/>
<polygon fill="midnightblue" stroke="midnightblue" points="29.248,-27.0175 21.5376,-19.7511 23.0337,-30.2398 29.248,-27.0175"/>
</g>
<!-- Node4 -->
<g id="node4" class="node"><title>Node4</title>
<polygon fill="none" stroke="#bfbfbf" points="52.5,-0.5 52.5,-19.5 93.5,-19.5 93.5,-0.5 52.5,-0.5"/>
<text text-anchor="middle" x="73" y="-7.5" font-family="FreeSans" font-size="10.00">string</text>
</g>
<!-- Node2&#45;&gt;Node4 -->
<g id="edge3" class="edge"><title>Node2&#45;&gt;Node4</title>
<path fill="none" stroke="midnightblue" d="M49.6236,-56.083C53.4563,-48.6913 59.0242,-37.9533 63.7646,-28.8111"/>
<polygon fill="midnightblue" stroke="midnightblue" points="66.9663,-30.2398 68.4624,-19.7511 60.752,-27.0175 66.9663,-30.2398"/>
</g>
</g>
</svg>
