<?xml version="1.0" encoding="UTF-8" standalone="no"?>
<!DOCTYPE svg PUBLIC "-//W3C//DTD SVG 1.1//EN"
 "http://www.w3.org/Graphics/SVG/1.1/DTD/svg11.dtd">
<!-- Generated by graphviz version 2.36.0 (20140111.2315)
 -->
<!-- Title: fun4all/ffaobjects/FlagSavev1.cc Pages: 1 -->
<svg width="362pt" height="264pt"
 viewBox="0.00 0.00 362.00 264.00" xmlns="http://www.w3.org/2000/svg" xmlns:xlink="http://www.w3.org/1999/xlink">
<g id="graph0" class="graph" transform="scale(1 1) rotate(0) translate(4 260)">
<title>fun4all/ffaobjects/FlagSavev1.cc</title>
<!-- Node1 -->
<g id="node1" class="node"><title>Node1</title>
<polygon fill="#bfbfbf" stroke="black" points="219,-225 219,-255 309,-255 309,-225 219,-225"/>
<text text-anchor="start" x="227" y="-243" font-family="FreeSans" font-size="10.00">fun4all/ffaobjects</text>
<text text-anchor="middle" x="264" y="-232" font-family="FreeSans" font-size="10.00">/FlagSavev1.cc</text>
</g>
<!-- Node2 -->
<g id="node2" class="node"><title>Node2</title>
<g id="a_node2"><a xlink:href="../../dd/d5e/FlagSavev1_8h.html" target="_top" xlink:title="FlagSavev1.h">
<polygon fill="none" stroke="black" points="177,-168.5 177,-187.5 253,-187.5 253,-168.5 177,-168.5"/>
<text text-anchor="middle" x="215" y="-175.5" font-family="FreeSans" font-size="10.00">FlagSavev1.h</text>
</a>
</g>
</g>
<!-- Node1&#45;&gt;Node2 -->
<g id="edge1" class="edge"><title>Node1&#45;&gt;Node2</title>
<path fill="none" stroke="midnightblue" d="M252.388,-224.781C245.267,-216.062 236.117,-204.857 228.651,-195.715"/>
<polygon fill="midnightblue" stroke="midnightblue" points="231.166,-193.262 222.13,-187.731 225.744,-197.69 231.166,-193.262"/>
</g>
<!-- Node10 -->
<g id="node10" class="node"><title>Node10</title>
<g id="a_node10"><a xlink:href="../../d0/d11/PHFlag_8h.html" target="_top" xlink:title="phool/PHFlag.h">
<polygon fill="none" stroke="black" points="271.5,-168.5 271.5,-187.5 354.5,-187.5 354.5,-168.5 271.5,-168.5"/>
<text text-anchor="middle" x="313" y="-175.5" font-family="FreeSans" font-size="10.00">phool/PHFlag.h</text>
</a>
</g>
</g>
<!-- Node1&#45;&gt;Node10 -->
<g id="edge11" class="edge"><title>Node1&#45;&gt;Node10</title>
<path fill="none" stroke="midnightblue" d="M275.612,-224.781C282.733,-216.062 291.883,-204.857 299.349,-195.715"/>
<polygon fill="midnightblue" stroke="midnightblue" points="302.256,-197.69 305.87,-187.731 296.834,-193.262 302.256,-197.69"/>
</g>
<!-- Node3 -->
<g id="node3" class="node"><title>Node3</title>
<g id="a_node3"><a xlink:href="../../da/dd0/FlagSave_8h.html" target="_top" xlink:title="FlagSave.h">
<polygon fill="none" stroke="black" points="115.5,-112.5 115.5,-131.5 180.5,-131.5 180.5,-112.5 115.5,-112.5"/>
<text text-anchor="middle" x="148" y="-119.5" font-family="FreeSans" font-size="10.00">FlagSave.h</text>
</a>
</g>
</g>
<!-- Node2&#45;&gt;Node3 -->
<g id="edge2" class="edge"><title>Node2&#45;&gt;Node3</title>
<path fill="none" stroke="midnightblue" d="M204.235,-168.324C194.234,-160.263 179.113,-148.077 167.07,-138.369"/>
<polygon fill="midnightblue" stroke="midnightblue" points="168.943,-135.384 158.961,-131.834 164.55,-140.834 168.943,-135.384"/>
</g>
<!-- Node6 -->
<g id="node6" class="node"><title>Node6</title>
<polygon fill="none" stroke="#bfbfbf" points="121,-0.5 121,-19.5 175,-19.5 175,-0.5 121,-0.5"/>
<text text-anchor="middle" x="148" y="-7.5" font-family="FreeSans" font-size="10.00">iostream</text>
</g>
<!-- Node2&#45;&gt;Node6 -->
<g id="edge8" class="edge"><title>Node2&#45;&gt;Node6</title>
<path fill="none" stroke="midnightblue" d="M215.267,-168.208C215.532,-147.419 214.045,-94.1193 194,-56 187.949,-44.4926 177.893,-34.1482 168.725,-26.2874"/>
<polygon fill="midnightblue" stroke="midnightblue" points="170.673,-23.3625 160.694,-19.8044 166.276,-28.8092 170.673,-23.3625"/>
</g>
<!-- Node8 -->
<g id="node8" class="node"><title>Node8</title>
<polygon fill="none" stroke="#bfbfbf" points="241.5,-112.5 241.5,-131.5 276.5,-131.5 276.5,-112.5 241.5,-112.5"/>
<text text-anchor="middle" x="259" y="-119.5" font-family="FreeSans" font-size="10.00">map</text>
</g>
<!-- Node2&#45;&gt;Node8 -->
<g id="edge9" class="edge"><title>Node2&#45;&gt;Node8</title>
<path fill="none" stroke="midnightblue" d="M222.266,-168.083C228.545,-160.377 237.788,-149.033 245.431,-139.653"/>
<polygon fill="midnightblue" stroke="midnightblue" points="248.266,-141.714 251.869,-131.751 242.839,-137.293 248.266,-141.714"/>
</g>
<!-- Node9 -->
<g id="node9" class="node"><title>Node9</title>
<polygon fill="none" stroke="#bfbfbf" points="294.5,-112.5 294.5,-131.5 335.5,-131.5 335.5,-112.5 294.5,-112.5"/>
<text text-anchor="middle" x="315" y="-119.5" font-family="FreeSans" font-size="10.00">string</text>
</g>
<!-- Node2&#45;&gt;Node9 -->
<g id="edge10" class="edge"><title>Node2&#45;&gt;Node9</title>
<path fill="none" stroke="midnightblue" d="M231.067,-168.324C246.958,-159.743 271.507,-146.486 289.958,-136.522"/>
<polygon fill="midnightblue" stroke="midnightblue" points="291.837,-139.486 298.973,-131.655 288.511,-133.326 291.837,-139.486"/>
</g>
<!-- Node4 -->
<g id="node4" class="node"><title>Node4</title>
<g id="a_node4"><a xlink:href="../../df/d32/PHObject_8h.html" target="_top" xlink:title="phool/PHObject.h">
<polygon fill="none" stroke="black" points="-0.5,-56.5 -0.5,-75.5 92.5,-75.5 92.5,-56.5 -0.5,-56.5"/>
<text text-anchor="middle" x="46" y="-63.5" font-family="FreeSans" font-size="10.00">phool/PHObject.h</text>
</a>
</g>
</g>
<!-- Node3&#45;&gt;Node4 -->
<g id="edge3" class="edge"><title>Node3&#45;&gt;Node4</title>
<path fill="none" stroke="midnightblue" d="M131.612,-112.324C115.329,-103.703 90.1325,-90.3643 71.2837,-80.3855"/>
<polygon fill="midnightblue" stroke="midnightblue" points="72.8229,-77.2402 62.3474,-75.6545 69.5477,-83.4267 72.8229,-77.2402"/>
</g>
<!-- Node7 -->
<g id="node7" class="node"><title>Node7</title>
<g id="a_node7"><a xlink:href="../../d5/d6f/phool_8h.html" target="_top" xlink:title="phool/phool.h">
<polygon fill="none" stroke="black" points="111,-56.5 111,-75.5 185,-75.5 185,-56.5 111,-56.5"/>
<text text-anchor="middle" x="148" y="-63.5" font-family="FreeSans" font-size="10.00">phool/phool.h</text>
</a>
</g>
</g>
<!-- Node3&#45;&gt;Node7 -->
<g id="edge6" class="edge"><title>Node3&#45;&gt;Node7</title>
<path fill="none" stroke="midnightblue" d="M148,-112.083C148,-105.006 148,-94.8611 148,-85.9865"/>
<polygon fill="midnightblue" stroke="midnightblue" points="151.5,-85.751 148,-75.7511 144.5,-85.7511 151.5,-85.751"/>
</g>
<!-- Node5 -->
<g id="node5" class="node"><title>Node5</title>
<polygon fill="none" stroke="#bfbfbf" points="16.5,-0.5 16.5,-19.5 75.5,-19.5 75.5,-0.5 16.5,-0.5"/>
<text text-anchor="middle" x="46" y="-7.5" font-family="FreeSans" font-size="10.00">TObject.h</text>
</g>
<!-- Node4&#45;&gt;Node5 -->
<g id="edge4" class="edge"><title>Node4&#45;&gt;Node5</title>
<path fill="none" stroke="midnightblue" d="M46,-56.083C46,-49.0059 46,-38.8611 46,-29.9865"/>
<polygon fill="midnightblue" stroke="midnightblue" points="49.5001,-29.751 46,-19.7511 42.5001,-29.7511 49.5001,-29.751"/>
</g>
<!-- Node4&#45;&gt;Node6 -->
<g id="edge5" class="edge"><title>Node4&#45;&gt;Node6</title>
<path fill="none" stroke="midnightblue" d="M62.3881,-56.324C78.6713,-47.7034 103.867,-34.3643 122.716,-24.3855"/>
<polygon fill="midnightblue" stroke="midnightblue" points="124.452,-27.4267 131.653,-19.6545 121.177,-21.2402 124.452,-27.4267"/>
</g>
<!-- Node7&#45;&gt;Node6 -->
<g id="edge7" class="edge"><title>Node7&#45;&gt;Node6</title>
<path fill="none" stroke="midnightblue" d="M148,-56.083C148,-49.0059 148,-38.8611 148,-29.9865"/>
<polygon fill="midnightblue" stroke="midnightblue" points="151.5,-29.751 148,-19.7511 144.5,-29.7511 151.5,-29.751"/>
</g>
<!-- Node10&#45;&gt;Node8 -->
<g id="edge12" class="edge"><title>Node10&#45;&gt;Node8</title>
<path fill="none" stroke="midnightblue" d="M304.083,-168.083C296.22,-160.22 284.569,-148.569 275.081,-139.081"/>
<polygon fill="midnightblue" stroke="midnightblue" points="277.297,-136.347 267.751,-131.751 272.347,-141.297 277.297,-136.347"/>
</g>
<!-- Node10&#45;&gt;Node9 -->
<g id="edge13" class="edge"><title>Node10&#45;&gt;Node9</title>
<path fill="none" stroke="midnightblue" d="M313.33,-168.083C313.592,-161.006 313.968,-150.861 314.297,-141.986"/>
<polygon fill="midnightblue" stroke="midnightblue" points="317.803,-141.874 314.676,-131.751 310.808,-141.615 317.803,-141.874"/>
</g>
</g>
</svg>
