<?xml version="1.0" encoding="UTF-8" standalone="no"?>
<!DOCTYPE svg PUBLIC "-//W3C//DTD SVG 1.1//EN"
 "http://www.w3.org/Graphics/SVG/1.1/DTD/svg11.dtd">
<!-- Generated by graphviz version 2.36.0 (20140111.2315)
 -->
<!-- Title: fun4all/ffaobjects/SyncObjectv2.h Pages: 1 -->
<svg width="214pt" height="264pt"
 viewBox="0.00 0.00 214.00 264.00" xmlns="http://www.w3.org/2000/svg" xmlns:xlink="http://www.w3.org/1999/xlink">
<g id="graph0" class="graph" transform="scale(1 1) rotate(0) translate(4 260)">
<title>fun4all/ffaobjects/SyncObjectv2.h</title>
<!-- Node1 -->
<g id="node1" class="node"><title>Node1</title>
<polygon fill="#bfbfbf" stroke="black" points="116,-225 116,-255 206,-255 206,-225 116,-225"/>
<text text-anchor="start" x="124" y="-243" font-family="FreeSans" font-size="10.00">fun4all/ffaobjects</text>
<text text-anchor="middle" x="161" y="-232" font-family="FreeSans" font-size="10.00">/SyncObjectv2.h</text>
</g>
<!-- Node2 -->
<g id="node2" class="node"><title>Node2</title>
<g id="a_node2"><a xlink:href="../../d6/df7/SyncObjectv1_8h.html" target="_top" xlink:title="SyncObjectv1.h">
<polygon fill="none" stroke="black" points="83.5,-168.5 83.5,-187.5 168.5,-187.5 168.5,-168.5 83.5,-168.5"/>
<text text-anchor="middle" x="126" y="-175.5" font-family="FreeSans" font-size="10.00">SyncObjectv1.h</text>
</a>
</g>
</g>
<!-- Node1&#45;&gt;Node2 -->
<g id="edge1" class="edge"><title>Node1&#45;&gt;Node2</title>
<path fill="none" stroke="midnightblue" d="M152.705,-224.781C147.777,-216.332 141.486,-205.548 136.249,-196.569"/>
<polygon fill="midnightblue" stroke="midnightblue" points="139.155,-194.605 131.093,-187.731 133.108,-198.132 139.155,-194.605"/>
</g>
<!-- Node6 -->
<g id="node6" class="node"><title>Node6</title>
<polygon fill="none" stroke="#bfbfbf" points="113,-0.5 113,-19.5 167,-19.5 167,-0.5 113,-0.5"/>
<text text-anchor="middle" x="140" y="-7.5" font-family="FreeSans" font-size="10.00">iostream</text>
</g>
<!-- Node1&#45;&gt;Node6 -->
<g id="edge8" class="edge"><title>Node1&#45;&gt;Node6</title>
<path fill="none" stroke="midnightblue" d="M166.667,-224.986C170.432,-214.891 175.033,-200.842 177,-188 185.968,-129.452 161.62,-61.0631 148.193,-29.14"/>
<polygon fill="midnightblue" stroke="midnightblue" points="151.319,-27.5532 144.122,-19.7788 144.9,-30.345 151.319,-27.5532"/>
</g>
<!-- Node3 -->
<g id="node3" class="node"><title>Node3</title>
<g id="a_node3"><a xlink:href="../../da/de1/ffaobjects_2SyncObject_8h.html" target="_top" xlink:title="SyncObject.h">
<polygon fill="none" stroke="black" points="57,-112.5 57,-131.5 131,-131.5 131,-112.5 57,-112.5"/>
<text text-anchor="middle" x="94" y="-119.5" font-family="FreeSans" font-size="10.00">SyncObject.h</text>
</a>
</g>
</g>
<!-- Node2&#45;&gt;Node3 -->
<g id="edge2" class="edge"><title>Node2&#45;&gt;Node3</title>
<path fill="none" stroke="midnightblue" d="M120.716,-168.083C116.289,-160.613 109.837,-149.724 104.382,-140.52"/>
<polygon fill="midnightblue" stroke="midnightblue" points="107.295,-138.57 99.1858,-131.751 101.273,-142.138 107.295,-138.57"/>
</g>
<!-- Node2&#45;&gt;Node6 -->
<g id="edge7" class="edge"><title>Node2&#45;&gt;Node6</title>
<path fill="none" stroke="midnightblue" d="M129.6,-168.222C133.056,-159.285 138.033,-144.942 140,-132 145.452,-96.1256 143.546,-53.5745 141.73,-29.6897"/>
<polygon fill="midnightblue" stroke="midnightblue" points="145.205,-29.2459 140.878,-19.5749 138.23,-29.8334 145.205,-29.2459"/>
</g>
<!-- Node4 -->
<g id="node4" class="node"><title>Node4</title>
<g id="a_node4"><a xlink:href="../../df/d32/PHObject_8h.html" target="_top" xlink:title="phool/PHObject.h">
<polygon fill="none" stroke="black" points="-0.5,-56.5 -0.5,-75.5 92.5,-75.5 92.5,-56.5 -0.5,-56.5"/>
<text text-anchor="middle" x="46" y="-63.5" font-family="FreeSans" font-size="10.00">phool/PHObject.h</text>
</a>
</g>
</g>
<!-- Node3&#45;&gt;Node4 -->
<g id="edge3" class="edge"><title>Node3&#45;&gt;Node4</title>
<path fill="none" stroke="midnightblue" d="M86.0738,-112.083C79.1539,-104.298 68.9346,-92.8015 60.548,-83.3665"/>
<polygon fill="midnightblue" stroke="midnightblue" points="63.0383,-80.8999 53.7787,-75.7511 57.8065,-85.5505 63.0383,-80.8999"/>
</g>
<!-- Node3&#45;&gt;Node6 -->
<g id="edge6" class="edge"><title>Node3&#45;&gt;Node6</title>
<path fill="none" stroke="midnightblue" d="M97.6095,-112.368C105.1,-94.4563 122.468,-52.9233 132.494,-28.9482"/>
<polygon fill="midnightblue" stroke="midnightblue" points="135.778,-30.1676 136.407,-19.5914 129.32,-27.4669 135.778,-30.1676"/>
</g>
<!-- Node5 -->
<g id="node5" class="node"><title>Node5</title>
<polygon fill="none" stroke="#bfbfbf" points="16.5,-0.5 16.5,-19.5 75.5,-19.5 75.5,-0.5 16.5,-0.5"/>
<text text-anchor="middle" x="46" y="-7.5" font-family="FreeSans" font-size="10.00">TObject.h</text>
</g>
<!-- Node4&#45;&gt;Node5 -->
<g id="edge4" class="edge"><title>Node4&#45;&gt;Node5</title>
<path fill="none" stroke="midnightblue" d="M46,-56.083C46,-49.0059 46,-38.8611 46,-29.9865"/>
<polygon fill="midnightblue" stroke="midnightblue" points="49.5001,-29.751 46,-19.7511 42.5001,-29.7511 49.5001,-29.751"/>
</g>
<!-- Node4&#45;&gt;Node6 -->
<g id="edge5" class="edge"><title>Node4&#45;&gt;Node6</title>
<path fill="none" stroke="midnightblue" d="M61.1027,-56.324C75.9033,-47.8215 98.6942,-34.7288 115.982,-24.7975"/>
<polygon fill="midnightblue" stroke="midnightblue" points="118.007,-27.6707 124.935,-19.6545 114.52,-21.6009 118.007,-27.6707"/>
</g>
</g>
</svg>
