<?xml version="1.0" encoding="UTF-8" standalone="no"?>
<!DOCTYPE svg PUBLIC "-//W3C//DTD SVG 1.1//EN"
 "http://www.w3.org/Graphics/SVG/1.1/DTD/svg11.dtd">
<!-- Generated by graphviz version 2.36.0 (20140111.2315)
 -->
<!-- Title: Fun4AllInputManager Pages: 1 -->
<svg width="1426pt" height="261pt"
 viewBox="0.00 0.00 1426.00 261.00" xmlns="http://www.w3.org/2000/svg" xmlns:xlink="http://www.w3.org/1999/xlink">
<g id="graph0" class="graph" transform="scale(1 1) rotate(0) translate(4 257)">
<title>Fun4AllInputManager</title>
<!-- Node1 -->
<g id="node1" class="node"><title>Node1</title>
<polygon fill="#bfbfbf" stroke="black" points="894.5,-112.5 894.5,-131.5 1003.5,-131.5 1003.5,-112.5 894.5,-112.5"/>
<text text-anchor="middle" x="949" y="-119.5" font-family="FreeSans" font-size="10.00">Fun4AllInputManager</text>
</g>
<!-- Node8 -->
<g id="node8" class="node"><title>Node8</title>
<polygon fill="none" stroke="#bfbfbf" points="1084.5,-77 1084.5,-107 1209.5,-107 1209.5,-77 1084.5,-77"/>
<text text-anchor="start" x="1092.5" y="-95" font-family="FreeSans" font-size="10.00">std::vector&lt; Fun4AllInput</text>
<text text-anchor="middle" x="1147" y="-84" font-family="FreeSans" font-size="10.00">Manager * &gt;</text>
</g>
<!-- Node1&#45;&gt;Node8 -->
<g id="edge10" class="edge"><title>Node1&#45;&gt;Node8</title>
<path fill="none" stroke="#9a32cd" stroke-dasharray="5,2" d="M1013.73,-112.245C1036.34,-108.784 1061.74,-104.897 1084.19,-101.461"/>
<polygon fill="#9a32cd" stroke="#9a32cd" points="1012.91,-108.83 1003.56,-113.802 1013.97,-115.749 1012.91,-108.83"/>
<text text-anchor="middle" x="1044" y="-114" font-family="FreeSans" font-size="10.00"> elements</text>
</g>
<!-- Node2 -->
<g id="node2" class="node"><title>Node2</title>
<g id="a_node2"><a xlink:href="../../d5/dec/classFun4AllBase.html" target="_top" xlink:title="Fun4AllBase">
<polygon fill="none" stroke="black" points="276,-192.5 276,-211.5 348,-211.5 348,-192.5 276,-192.5"/>
<text text-anchor="middle" x="312" y="-199.5" font-family="FreeSans" font-size="10.00">Fun4AllBase</text>
</a>
</g>
</g>
<!-- Node2&#45;&gt;Node1 -->
<g id="edge1" class="edge"><title>Node2&#45;&gt;Node1</title>
<path fill="none" stroke="midnightblue" d="M358.181,-205.213C444.688,-210.413 639.393,-217.52 800,-190 834.913,-184.018 843.762,-180.677 876,-166 897.466,-156.228 920.409,-141.344 934.482,-131.643"/>
<polygon fill="midnightblue" stroke="midnightblue" points="358.375,-201.718 348.177,-204.591 357.94,-208.705 358.375,-201.718"/>
</g>
<!-- Node6 -->
<g id="node6" class="node"><title>Node6</title>
<g id="a_node6"><a xlink:href="../../d0/d32/classSubsysReco.html" target="_top" xlink:title="SubsysReco">
<polygon fill="none" stroke="black" points="490.5,-167.5 490.5,-186.5 561.5,-186.5 561.5,-167.5 490.5,-167.5"/>
<text text-anchor="middle" x="526" y="-174.5" font-family="FreeSans" font-size="10.00">SubsysReco</text>
</a>
</g>
</g>
<!-- Node2&#45;&gt;Node6 -->
<g id="edge6" class="edge"><title>Node2&#45;&gt;Node6</title>
<path fill="none" stroke="midnightblue" d="M358.165,-196.674C397.678,-192.014 454.24,-185.344 490.293,-181.093"/>
<polygon fill="midnightblue" stroke="midnightblue" points="357.529,-193.225 348.007,-197.872 358.349,-200.176 357.529,-193.225"/>
</g>
<!-- Node7 -->
<g id="node7" class="node"><title>Node7</title>
<g id="a_node7"><a xlink:href="../../dd/ded/classFun4AllSyncManager.html" target="_top" xlink:title="Fun4AllSyncManager">
<polygon fill="none" stroke="black" points="1308.5,-82.5 1308.5,-101.5 1417.5,-101.5 1417.5,-82.5 1308.5,-82.5"/>
<text text-anchor="middle" x="1363" y="-89.5" font-family="FreeSans" font-size="10.00">Fun4AllSyncManager</text>
</a>
</g>
</g>
<!-- Node2&#45;&gt;Node7 -->
<g id="edge8" class="edge"><title>Node2&#45;&gt;Node7</title>
<path fill="none" stroke="midnightblue" d="M346.252,-215.158C387.501,-230.269 460.302,-253 525,-253 525,-253 525,-253 1148,-253 1249.35,-253 1333.27,-136.249 1355.95,-101.589"/>
<polygon fill="midnightblue" stroke="midnightblue" points="347.307,-211.816 336.715,-211.593 344.856,-218.373 347.307,-211.816"/>
</g>
<!-- Node3 -->
<g id="node3" class="node"><title>Node3</title>
<g id="a_node3"><a xlink:title="STL class. ">
<polygon fill="none" stroke="#bfbfbf" points="132.5,-106.5 132.5,-125.5 191.5,-125.5 191.5,-106.5 132.5,-106.5"/>
<text text-anchor="middle" x="162" y="-113.5" font-family="FreeSans" font-size="10.00">std::string</text>
</a>
</g>
</g>
<!-- Node3&#45;&gt;Node1 -->
<g id="edge16" class="edge"><title>Node3&#45;&gt;Node1</title>
<path fill="none" stroke="#9a32cd" stroke-dasharray="5,2" d="M202.088,-116.299C331.404,-117.287 745.576,-120.453 894.241,-121.589"/>
<polygon fill="#9a32cd" stroke="#9a32cd" points="201.896,-112.797 191.87,-116.221 201.842,-119.797 201.896,-112.797"/>
<text text-anchor="middle" x="526" y="-144" font-family="FreeSans" font-size="10.00"> topNodeName</text>
<text text-anchor="middle" x="526" y="-133" font-family="FreeSans" font-size="10.00">InputNode</text>
<text text-anchor="middle" x="526" y="-122" font-family="FreeSans" font-size="10.00">filename</text>
</g>
<!-- Node3&#45;&gt;Node2 -->
<g id="edge2" class="edge"><title>Node3&#45;&gt;Node2</title>
<path fill="none" stroke="#9a32cd" stroke-dasharray="5,2" d="M188.14,-130.608C218.499,-148.249 268.695,-177.417 294.522,-192.425"/>
<polygon fill="#9a32cd" stroke="#9a32cd" points="189.809,-127.53 179.404,-125.532 186.292,-133.583 189.809,-127.53"/>
<text text-anchor="middle" x="234" y="-173" font-family="FreeSans" font-size="10.00"> ThisName</text>
</g>
<!-- Node13 -->
<g id="node13" class="node"><title>Node13</title>
<polygon fill="none" stroke="#bfbfbf" points="366,-63.5 366,-82.5 472,-82.5 472,-63.5 366,-63.5"/>
<text text-anchor="middle" x="419" y="-70.5" font-family="FreeSans" font-size="10.00">std::list&lt; std::string &gt;</text>
</g>
<!-- Node3&#45;&gt;Node13 -->
<g id="edge18" class="edge"><title>Node3&#45;&gt;Node13</title>
<path fill="none" stroke="#9a32cd" stroke-dasharray="5,2" d="M186.257,-101.257C193.591,-97.2684 201.899,-93.3962 210,-91 261.441,-75.7844 322.923,-72.1457 365.643,-71.7836"/>
<polygon fill="#9a32cd" stroke="#9a32cd" points="184.486,-98.2381 177.576,-106.27 187.986,-104.3 184.486,-98.2381"/>
<text text-anchor="middle" x="234" y="-94" font-family="FreeSans" font-size="10.00"> elements</text>
</g>
<!-- Node4 -->
<g id="node4" class="node"><title>Node4</title>
<g id="a_node4"><a xlink:title="STL class. ">
<polygon fill="none" stroke="#bfbfbf" points="0.5,-101 0.5,-131 93.5,-131 93.5,-101 0.5,-101"/>
<text text-anchor="start" x="8.5" y="-119" font-family="FreeSans" font-size="10.00">std::basic_string&lt;</text>
<text text-anchor="middle" x="47" y="-108" font-family="FreeSans" font-size="10.00"> char &gt;</text>
</a>
</g>
</g>
<!-- Node4&#45;&gt;Node3 -->
<g id="edge3" class="edge"><title>Node4&#45;&gt;Node3</title>
<path fill="none" stroke="midnightblue" d="M103.885,-116C113.778,-116 123.695,-116 132.425,-116"/>
<polygon fill="midnightblue" stroke="midnightblue" points="103.636,-112.5 93.6357,-116 103.636,-119.5 103.636,-112.5"/>
</g>
<!-- Node5 -->
<g id="node5" class="node"><title>Node5</title>
<polygon fill="none" stroke="#bfbfbf" points="660.5,-161.5 660.5,-180.5 799.5,-180.5 799.5,-161.5 660.5,-161.5"/>
<text text-anchor="middle" x="730" y="-168.5" font-family="FreeSans" font-size="10.00">std::vector&lt; SubsysReco * &gt;</text>
</g>
<!-- Node5&#45;&gt;Node1 -->
<g id="edge4" class="edge"><title>Node5&#45;&gt;Node1</title>
<path fill="none" stroke="#9a32cd" stroke-dasharray="5,2" d="M783.32,-159.186C820.809,-150.721 870.654,-139.465 905.65,-131.563"/>
<polygon fill="#9a32cd" stroke="#9a32cd" points="782.081,-155.877 773.097,-161.494 783.622,-162.706 782.081,-155.877"/>
<text text-anchor="middle" x="847" y="-154" font-family="FreeSans" font-size="10.00"> Subsystems</text>
</g>
<!-- Node6&#45;&gt;Node5 -->
<g id="edge5" class="edge"><title>Node6&#45;&gt;Node5</title>
<path fill="none" stroke="#9a32cd" stroke-dasharray="5,2" d="M572.031,-175.662C598.032,-174.89 631.266,-173.903 660.453,-173.036"/>
<polygon fill="#9a32cd" stroke="#9a32cd" points="571.617,-172.173 561.725,-175.969 571.825,-179.17 571.617,-172.173"/>
<text text-anchor="middle" x="611" y="-179" font-family="FreeSans" font-size="10.00"> elements</text>
</g>
<!-- Node7&#45;&gt;Node1 -->
<g id="edge7" class="edge"><title>Node7&#45;&gt;Node1</title>
<path fill="none" stroke="#9a32cd" stroke-dasharray="5,2" d="M1309.36,-103.556C1302.86,-104.81 1296.29,-105.994 1290,-107 1172.09,-125.872 1141.36,-129.313 1022,-126 1016.12,-125.837 1009.97,-125.599 1003.85,-125.319"/>
<polygon fill="#9a32cd" stroke="#9a32cd" points="1310.36,-106.928 1319.48,-101.544 1308.99,-100.062 1310.36,-106.928"/>
<text text-anchor="middle" x="1147" y="-131" font-family="FreeSans" font-size="10.00"> mySyncManager</text>
</g>
<!-- Node8&#45;&gt;Node7 -->
<g id="edge9" class="edge"><title>Node8&#45;&gt;Node7</title>
<path fill="none" stroke="#9a32cd" stroke-dasharray="5,2" d="M1219.69,-92C1248.69,-92 1281.59,-92 1308.45,-92"/>
<polygon fill="#9a32cd" stroke="#9a32cd" points="1219.61,-88.5001 1209.61,-92 1219.61,-95.5001 1219.61,-88.5001"/>
<text text-anchor="middle" x="1259" y="-95" font-family="FreeSans" font-size="10.00"> InManager</text>
</g>
<!-- Node9 -->
<g id="node9" class="node"><title>Node9</title>
<g id="a_node9"><a xlink:href="../../de/dbb/classSyncObject.html" target="_top" xlink:title="SyncObject">
<polygon fill="none" stroke="black" points="1113.5,-38.5 1113.5,-57.5 1180.5,-57.5 1180.5,-38.5 1113.5,-38.5"/>
<text text-anchor="middle" x="1147" y="-45.5" font-family="FreeSans" font-size="10.00">SyncObject</text>
</a>
</g>
</g>
<!-- Node9&#45;&gt;Node7 -->
<g id="edge11" class="edge"><title>Node9&#45;&gt;Node7</title>
<path fill="none" stroke="#9a32cd" stroke-dasharray="5,2" d="M1190.65,-56.6647C1218.85,-62.4055 1256.64,-70.1185 1290,-77 1298.5,-78.7541 1307.57,-80.6347 1316.3,-82.4508"/>
<polygon fill="#9a32cd" stroke="#9a32cd" points="1191.22,-53.2083 1180.72,-54.6441 1189.82,-60.0677 1191.22,-53.2083"/>
<text text-anchor="middle" x="1259" y="-80" font-family="FreeSans" font-size="10.00"> MasterSync</text>
</g>
<!-- Node10 -->
<g id="node10" class="node"><title>Node10</title>
<g id="a_node10"><a xlink:href="../../d9/d24/classPHObject.html" target="_top" xlink:title="PHObject">
<polygon fill="none" stroke="black" points="919.5,-38.5 919.5,-57.5 978.5,-57.5 978.5,-38.5 919.5,-38.5"/>
<text text-anchor="middle" x="949" y="-45.5" font-family="FreeSans" font-size="10.00">PHObject</text>
</a>
</g>
</g>
<!-- Node10&#45;&gt;Node9 -->
<g id="edge12" class="edge"><title>Node10&#45;&gt;Node9</title>
<path fill="none" stroke="midnightblue" d="M988.725,-42.4962C1025.09,-40.7361 1078.91,-40.8404 1113.21,-42.8093"/>
<polygon fill="midnightblue" stroke="midnightblue" points="988.287,-39.0152 978.5,-43.0719 988.681,-46.0041 988.287,-39.0152"/>
</g>
<!-- Node10&#45;&gt;Node9 -->
<g id="edge14" class="edge"><title>Node10&#45;&gt;Node9</title>
<path fill="none" stroke="midnightblue" d="M988.725,-53.5038C1025.09,-55.2639 1078.91,-55.1596 1113.21,-53.1907"/>
<polygon fill="midnightblue" stroke="midnightblue" points="988.681,-49.9959 978.5,-52.9281 988.287,-56.9848 988.681,-49.9959"/>
</g>
<!-- Node11 -->
<g id="node11" class="node"><title>Node11</title>
<polygon fill="none" stroke="#bfbfbf" points="704.5,-21.5 704.5,-40.5 755.5,-40.5 755.5,-21.5 704.5,-21.5"/>
<text text-anchor="middle" x="730" y="-28.5" font-family="FreeSans" font-size="10.00">TObject</text>
</g>
<!-- Node11&#45;&gt;Node10 -->
<g id="edge13" class="edge"><title>Node11&#45;&gt;Node10</title>
<path fill="none" stroke="midnightblue" d="M766.077,-33.7479C808.689,-37.0862 879.766,-42.6545 919.282,-45.7502"/>
<polygon fill="midnightblue" stroke="midnightblue" points="766.136,-30.2419 755.893,-32.9501 765.589,-37.2205 766.136,-30.2419"/>
</g>
<!-- Node12 -->
<g id="node12" class="node"><title>Node12</title>
<polygon fill="none" stroke="#bfbfbf" points="1102.5,-0.5 1102.5,-19.5 1191.5,-19.5 1191.5,-0.5 1102.5,-0.5"/>
<text text-anchor="middle" x="1147" y="-7.5" font-family="FreeSans" font-size="10.00">std::vector&lt; int &gt;</text>
</g>
<!-- Node12&#45;&gt;Node7 -->
<g id="edge15" class="edge"><title>Node12&#45;&gt;Node7</title>
<path fill="none" stroke="#9a32cd" stroke-dasharray="5,2" d="M1201.59,-21.6819C1228.66,-28.4305 1261.67,-37.9788 1290,-50 1311.18,-58.9883 1333.83,-73.0133 1347.95,-82.3511"/>
<polygon fill="#9a32cd" stroke="#9a32cd" points="1202.08,-18.1978 1191.53,-19.2331 1200.42,-24.9992 1202.08,-18.1978"/>
<text text-anchor="middle" x="1259" y="-53" font-family="FreeSans" font-size="10.00"> iretInManager</text>
</g>
<!-- Node13&#45;&gt;Node1 -->
<g id="edge17" class="edge"><title>Node13&#45;&gt;Node1</title>
<path fill="none" stroke="#9a32cd" stroke-dasharray="5,2" d="M482.424,-71.5582C511.999,-70.9446 547.817,-70.3017 580,-70 607.554,-69.7417 614.512,-68.0713 642,-70 746.772,-77.3514 773.045,-82.2313 876,-103 888.926,-105.608 902.982,-109.153 915.215,-112.476"/>
<polygon fill="#9a32cd" stroke="#9a32cd" points="482.164,-68.0628 472.24,-71.7734 482.312,-75.0613 482.164,-68.0628"/>
<text text-anchor="middle" x="611" y="-95" font-family="FreeSans" font-size="10.00"> filelist</text>
<text text-anchor="middle" x="611" y="-84" font-family="FreeSans" font-size="10.00">filelist_copy</text>
<text text-anchor="middle" x="611" y="-73" font-family="FreeSans" font-size="10.00">filelist_opened</text>
</g>
</g>
</svg>
