<?xml version="1.0" encoding="UTF-8" standalone="no"?>
<!DOCTYPE svg PUBLIC "-//W3C//DTD SVG 1.1//EN"
 "http://www.w3.org/Graphics/SVG/1.1/DTD/svg11.dtd">
<!-- Generated by graphviz version 2.36.0 (20140111.2315)
 -->
<!-- Title: PHNodeOperation::Verbosity Pages: 1 -->
<svg width="806pt" height="96pt"
 viewBox="0.00 0.00 806.00 96.00" xmlns="http://www.w3.org/2000/svg" xmlns:xlink="http://www.w3.org/1999/xlink">
<g id="graph0" class="graph" transform="scale(1 1) rotate(0) translate(4 92)">
<title>PHNodeOperation::Verbosity</title>
<!-- Node1 -->
<g id="node1" class="node"><title>Node1</title>
<polygon fill="#bfbfbf" stroke="black" points="0.5,-41.5 0.5,-60.5 141.5,-60.5 141.5,-41.5 0.5,-41.5"/>
<text text-anchor="middle" x="71" y="-48.5" font-family="FreeSans" font-size="10.00">PHNodeOperation::Verbosity</text>
</g>
<!-- Node2 -->
<g id="node2" class="node"><title>Node2</title>
<g id="a_node2"><a xlink:href="../../da/d29/classFun4AllServer.html#ab2479a9a3e45d51118e308597acd5228" target="_top" xlink:title="Fun4AllServer::ResetNodeTree">
<polygon fill="none" stroke="black" points="178.5,-41.5 178.5,-60.5 329.5,-60.5 329.5,-41.5 178.5,-41.5"/>
<text text-anchor="middle" x="254" y="-48.5" font-family="FreeSans" font-size="10.00">Fun4AllServer::ResetNodeTree</text>
</a>
</g>
</g>
<!-- Node1&#45;&gt;Node2 -->
<g id="edge1" class="edge"><title>Node1&#45;&gt;Node2</title>
<path fill="none" stroke="midnightblue" d="M151.905,-51C160.65,-51 169.529,-51 178.209,-51"/>
<polygon fill="midnightblue" stroke="midnightblue" points="151.72,-47.5001 141.72,-51 151.72,-54.5001 151.72,-47.5001"/>
</g>
<!-- Node3 -->
<g id="node3" class="node"><title>Node3</title>
<g id="a_node3"><a xlink:href="../../da/d29/classFun4AllServer.html#a6a65a944dfb40966ace97d35ab1f7942" target="_top" xlink:title="Fun4AllServer::process\l_event">
<polygon fill="none" stroke="black" points="366.5,-58 366.5,-88 483.5,-88 483.5,-58 366.5,-58"/>
<text text-anchor="start" x="374.5" y="-76" font-family="FreeSans" font-size="10.00">Fun4AllServer::process</text>
<text text-anchor="middle" x="425" y="-65" font-family="FreeSans" font-size="10.00">_event</text>
</a>
</g>
</g>
<!-- Node2&#45;&gt;Node3 -->
<g id="edge2" class="edge"><title>Node2&#45;&gt;Node3</title>
<path fill="none" stroke="midnightblue" d="M338.361,-61.8517C347.804,-63.081 357.267,-64.3128 366.276,-65.4857"/>
<polygon fill="midnightblue" stroke="midnightblue" points="338.511,-58.3418 328.143,-60.5216 337.607,-65.2833 338.511,-58.3418"/>
</g>
<!-- Node5 -->
<g id="node5" class="node"><title>Node5</title>
<g id="a_node5"><a xlink:href="../../da/d29/classFun4AllServer.html#a11bbc8b2f53bc06e0b05ee202dd6372a" target="_top" xlink:title="run n events (0 means up to end of file) ">
<polygon fill="none" stroke="black" points="531,-19.5 531,-38.5 627,-38.5 627,-19.5 531,-19.5"/>
<text text-anchor="middle" x="579" y="-26.5" font-family="FreeSans" font-size="10.00">Fun4AllServer::run</text>
</a>
</g>
</g>
<!-- Node2&#45;&gt;Node5 -->
<g id="edge7" class="edge"><title>Node2&#45;&gt;Node5</title>
<path fill="none" stroke="midnightblue" d="M339.518,-45.2433C400.574,-41.0848 480.79,-35.6211 530.869,-32.2102"/>
<polygon fill="midnightblue" stroke="midnightblue" points="339.247,-41.7536 329.508,-45.9251 339.723,-48.7374 339.247,-41.7536"/>
</g>
<!-- Node4 -->
<g id="node4" class="node"><title>Node4</title>
<g id="a_node4"><a xlink:href="../../da/d29/classFun4AllServer.html#a94738b092fa009fcea45737d8ea41224" target="_top" xlink:title="Fun4AllServer::process\l_event">
<polygon fill="none" stroke="black" points="520.5,-58 520.5,-88 637.5,-88 637.5,-58 520.5,-58"/>
<text text-anchor="start" x="528.5" y="-76" font-family="FreeSans" font-size="10.00">Fun4AllServer::process</text>
<text text-anchor="middle" x="579" y="-65" font-family="FreeSans" font-size="10.00">_event</text>
</a>
</g>
</g>
<!-- Node3&#45;&gt;Node4 -->
<g id="edge3" class="edge"><title>Node3&#45;&gt;Node4</title>
<path fill="none" stroke="midnightblue" d="M494.072,-73C502.817,-73 511.704,-73 520.263,-73"/>
<polygon fill="midnightblue" stroke="midnightblue" points="493.898,-69.5001 483.898,-73 493.898,-76.5001 493.898,-69.5001"/>
</g>
<!-- Node3&#45;&gt;Node5 -->
<g id="edge4" class="edge"><title>Node3&#45;&gt;Node5</title>
<path fill="none" stroke="midnightblue" d="M487.671,-55.1479C507.253,-49.4793 528.153,-43.4295 544.911,-38.5783"/>
<polygon fill="midnightblue" stroke="midnightblue" points="486.517,-51.8381 477.885,-57.9808 488.464,-58.5621 486.517,-51.8381"/>
</g>
<!-- Node6 -->
<g id="node6" class="node"><title>Node6</title>
<g id="a_node6"><a xlink:href="../../d0/d46/Fun4__SimpleReadMySql_8C.html#a70381893748e3445abc30632beb256ce" target="_top" xlink:title="Fun4_SimpleReadMySql">
<polygon fill="none" stroke="black" points="674.5,-38.5 674.5,-57.5 797.5,-57.5 797.5,-38.5 674.5,-38.5"/>
<text text-anchor="middle" x="736" y="-45.5" font-family="FreeSans" font-size="10.00">Fun4_SimpleReadMySql</text>
</a>
</g>
</g>
<!-- Node5&#45;&gt;Node6 -->
<g id="edge5" class="edge"><title>Node5&#45;&gt;Node6</title>
<path fill="none" stroke="midnightblue" d="M637.328,-36.0273C649.441,-37.5121 662.26,-39.0835 674.487,-40.5823"/>
<polygon fill="midnightblue" stroke="midnightblue" points="637.699,-32.5467 627.347,-34.8039 636.847,-39.4947 637.699,-32.5467"/>
</g>
<!-- Node7 -->
<g id="node7" class="node"><title>Node7</title>
<g id="a_node7"><a xlink:href="../../d9/d8c/Fun4ReadMySql_8C.html#a729b39fa627147c63772f28c9be36b62" target="_top" xlink:title="Fun4ReadMySql">
<polygon fill="none" stroke="black" points="692,-0.5 692,-19.5 780,-19.5 780,-0.5 692,-0.5"/>
<text text-anchor="middle" x="736" y="-7.5" font-family="FreeSans" font-size="10.00">Fun4ReadMySql</text>
</a>
</g>
</g>
<!-- Node5&#45;&gt;Node7 -->
<g id="edge6" class="edge"><title>Node5&#45;&gt;Node7</title>
<path fill="none" stroke="midnightblue" d="M637.457,-21.9569C655.476,-19.7481 675.048,-17.349 691.898,-15.2835"/>
<polygon fill="midnightblue" stroke="midnightblue" points="636.847,-18.5054 627.347,-23.1961 637.699,-25.4533 636.847,-18.5054"/>
</g>
</g>
</svg>
