<?xml version="1.0" encoding="UTF-8" standalone="no"?>
<!DOCTYPE svg PUBLIC "-//W3C//DTD SVG 1.1//EN"
 "http://www.w3.org/Graphics/SVG/1.1/DTD/svg11.dtd">
<!-- Generated by graphviz version 2.36.0 (20140111.2315)
 -->
<!-- Title: fun4all/interfaces/SHitMap_v1.h Pages: 1 -->
<svg width="421pt" height="108pt"
 viewBox="0.00 0.00 421.00 108.00" xmlns="http://www.w3.org/2000/svg" xmlns:xlink="http://www.w3.org/1999/xlink">
<g id="graph0" class="graph" transform="scale(1 1) rotate(0) translate(4 104)">
<title>fun4all/interfaces/SHitMap_v1.h</title>
<!-- Node1 -->
<g id="node1" class="node"><title>Node1</title>
<polygon fill="#bfbfbf" stroke="black" points="136.5,-69 136.5,-99 227.5,-99 227.5,-69 136.5,-69"/>
<text text-anchor="start" x="144.5" y="-87" font-family="FreeSans" font-size="10.00">fun4all/interfaces</text>
<text text-anchor="middle" x="182" y="-76" font-family="FreeSans" font-size="10.00">/SHitMap_v1.h</text>
</g>
<!-- Node2 -->
<g id="node2" class="node"><title>Node2</title>
<g id="a_node2"><a xlink:href="../../db/d6c/SHitMap__v1_8C.html" target="_top" xlink:title="fun4all/interfaces\l/SHitMap_v1.C">
<polygon fill="none" stroke="black" points="-0.5,-1 -0.5,-31 90.5,-31 90.5,-1 -0.5,-1"/>
<text text-anchor="start" x="7.5" y="-19" font-family="FreeSans" font-size="10.00">fun4all/interfaces</text>
<text text-anchor="middle" x="45" y="-8" font-family="FreeSans" font-size="10.00">/SHitMap_v1.C</text>
</a>
</g>
</g>
<!-- Node1&#45;&gt;Node2 -->
<g id="edge1" class="edge"><title>Node1&#45;&gt;Node2</title>
<path fill="none" stroke="midnightblue" d="M143.558,-64.4805C121.622,-53.9128 94.5562,-40.8738 74.3413,-31.1352"/>
<polygon fill="midnightblue" stroke="midnightblue" points="142.082,-67.6543 152.61,-68.8413 145.12,-61.348 142.082,-67.6543"/>
</g>
<!-- Node3 -->
<g id="node3" class="node"><title>Node3</title>
<g id="a_node3"><a xlink:href="../../dd/d12/ReadMySql_8C.html" target="_top" xlink:title="fun4all/modules/ReadMySql.C">
<polygon fill="none" stroke="black" points="109,-6.5 109,-25.5 255,-25.5 255,-6.5 109,-6.5"/>
<text text-anchor="middle" x="182" y="-13.5" font-family="FreeSans" font-size="10.00">fun4all/modules/ReadMySql.C</text>
</a>
</g>
</g>
<!-- Node1&#45;&gt;Node3 -->
<g id="edge2" class="edge"><title>Node1&#45;&gt;Node3</title>
<path fill="none" stroke="midnightblue" d="M182,-58.3764C182,-46.9711 182,-34.1364 182,-25.8283"/>
<polygon fill="midnightblue" stroke="midnightblue" points="178.5,-58.6789 182,-68.679 185.5,-58.679 178.5,-58.6789"/>
</g>
<!-- Node4 -->
<g id="node4" class="node"><title>Node4</title>
<g id="a_node4"><a xlink:href="../../dd/d2f/SimpleReadMySql_8C.html" target="_top" xlink:title="fun4all/modules/SimpleRead\lMySql.C">
<polygon fill="none" stroke="black" points="273,-1 273,-31 413,-31 413,-1 273,-1"/>
<text text-anchor="start" x="281" y="-19" font-family="FreeSans" font-size="10.00">fun4all/modules/SimpleRead</text>
<text text-anchor="middle" x="343" y="-8" font-family="FreeSans" font-size="10.00">MySql.C</text>
</a>
</g>
</g>
<!-- Node1&#45;&gt;Node4 -->
<g id="edge3" class="edge"><title>Node1&#45;&gt;Node4</title>
<path fill="none" stroke="midnightblue" d="M225.834,-65.0308C251.943,-54.3276 284.597,-40.9417 308.795,-31.0218"/>
<polygon fill="midnightblue" stroke="midnightblue" points="224.464,-61.8098 216.539,-68.8413 227.119,-68.2867 224.464,-61.8098"/>
</g>
</g>
</svg>
