<?xml version="1.0" encoding="UTF-8" standalone="no"?>
<!DOCTYPE svg PUBLIC "-//W3C//DTD SVG 1.1//EN"
 "http://www.w3.org/Graphics/SVG/1.1/DTD/svg11.dtd">
<!-- Generated by graphviz version 2.36.0 (20140111.2315)
 -->
<!-- Title: SimpleReadMySql Pages: 1 -->
<svg width="321pt" height="346pt"
 viewBox="0.00 0.00 321.00 346.00" xmlns="http://www.w3.org/2000/svg" xmlns:xlink="http://www.w3.org/1999/xlink">
<g id="graph0" class="graph" transform="scale(1 1) rotate(0) translate(4 342)">
<title>SimpleReadMySql</title>
<!-- Node1 -->
<g id="node1" class="node"><title>Node1</title>
<polygon fill="#bfbfbf" stroke="black" points="90,-0.5 90,-19.5 186,-19.5 186,-0.5 90,-0.5"/>
<text text-anchor="middle" x="138" y="-7.5" font-family="FreeSans" font-size="10.00">SimpleReadMySql</text>
</g>
<!-- Node2 -->
<g id="node2" class="node"><title>Node2</title>
<g id="a_node2"><a xlink:href="../../d0/d32/classSubsysReco.html" target="_top" xlink:title="SubsysReco">
<polygon fill="none" stroke="black" points="62.5,-68.5 62.5,-87.5 133.5,-87.5 133.5,-68.5 62.5,-68.5"/>
<text text-anchor="middle" x="98" y="-75.5" font-family="FreeSans" font-size="10.00">SubsysReco</text>
</a>
</g>
</g>
<!-- Node2&#45;&gt;Node1 -->
<g id="edge1" class="edge"><title>Node2&#45;&gt;Node1</title>
<path fill="none" stroke="midnightblue" d="M108.568,-59.563C116.314,-46.7815 126.509,-29.9599 132.642,-19.8411"/>
<polygon fill="midnightblue" stroke="midnightblue" points="105.419,-58.0056 103.229,-68.3717 111.406,-61.6337 105.419,-58.0056"/>
</g>
<!-- Node3 -->
<g id="node3" class="node"><title>Node3</title>
<g id="a_node3"><a xlink:href="../../d5/dec/classFun4AllBase.html" target="_top" xlink:title="Fun4AllBase">
<polygon fill="none" stroke="black" points="55,-180.5 55,-199.5 127,-199.5 127,-180.5 55,-180.5"/>
<text text-anchor="middle" x="91" y="-187.5" font-family="FreeSans" font-size="10.00">Fun4AllBase</text>
</a>
</g>
</g>
<!-- Node3&#45;&gt;Node2 -->
<g id="edge2" class="edge"><title>Node3&#45;&gt;Node2</title>
<path fill="none" stroke="midnightblue" d="M92.1869,-170.348C93.7202,-146.254 96.3259,-105.308 97.4533,-87.5914"/>
<polygon fill="midnightblue" stroke="midnightblue" points="88.6915,-170.166 91.5493,-180.368 95.6774,-170.611 88.6915,-170.166"/>
</g>
<!-- Node4 -->
<g id="node4" class="node"><title>Node4</title>
<g id="a_node4"><a xlink:title="STL class. ">
<polygon fill="none" stroke="#bfbfbf" points="16.5,-248.5 16.5,-267.5 75.5,-267.5 75.5,-248.5 16.5,-248.5"/>
<text text-anchor="middle" x="46" y="-255.5" font-family="FreeSans" font-size="10.00">std::string</text>
</a>
</g>
</g>
<!-- Node4&#45;&gt;Node1 -->
<g id="edge8" class="edge"><title>Node4&#45;&gt;Node1</title>
<path fill="none" stroke="#9a32cd" stroke-dasharray="5,2" d="M37.5559,-238.973C25.2574,-210.114 5.58112,-152.1 22,-106 37.6331,-62.1059 88.1175,-33.1488 117.073,-19.7004"/>
<polygon fill="#9a32cd" stroke="#9a32cd" points="34.405,-240.501 41.6726,-248.211 40.7988,-237.652 34.405,-240.501"/>
<text text-anchor="middle" x="55.5" y="-153.5" font-family="FreeSans" font-size="10.00"> _server_name</text>
<text text-anchor="middle" x="55.5" y="-142.5" font-family="FreeSans" font-size="10.00">_password</text>
<text text-anchor="middle" x="55.5" y="-131.5" font-family="FreeSans" font-size="10.00">_table_name</text>
<text text-anchor="middle" x="55.5" y="-120.5" font-family="FreeSans" font-size="10.00">_input_shcema</text>
<text text-anchor="middle" x="55.5" y="-109.5" font-family="FreeSans" font-size="10.00">_user_name</text>
</g>
<!-- Node4&#45;&gt;Node3 -->
<g id="edge3" class="edge"><title>Node4&#45;&gt;Node3</title>
<path fill="none" stroke="#9a32cd" stroke-dasharray="5,2" d="M57.6334,-239.938C66.3782,-227.112 78.0051,-210.059 84.972,-199.841"/>
<polygon fill="#9a32cd" stroke="#9a32cd" points="54.6246,-238.138 51.883,-248.372 60.4082,-242.081 54.6246,-238.138"/>
<text text-anchor="middle" x="97" y="-221.5" font-family="FreeSans" font-size="10.00"> ThisName</text>
</g>
<!-- Node5 -->
<g id="node5" class="node"><title>Node5</title>
<g id="a_node5"><a xlink:title="STL class. ">
<polygon fill="none" stroke="#bfbfbf" points="-0.5,-307 -0.5,-337 92.5,-337 92.5,-307 -0.5,-307"/>
<text text-anchor="start" x="7.5" y="-325" font-family="FreeSans" font-size="10.00">std::basic_string&lt;</text>
<text text-anchor="middle" x="46" y="-314" font-family="FreeSans" font-size="10.00"> char &gt;</text>
</a>
</g>
</g>
<!-- Node5&#45;&gt;Node4 -->
<g id="edge4" class="edge"><title>Node5&#45;&gt;Node4</title>
<path fill="none" stroke="midnightblue" d="M46,-296.871C46,-286.663 46,-275.408 46,-267.842"/>
<polygon fill="midnightblue" stroke="midnightblue" points="42.5001,-296.931 46,-306.931 49.5001,-296.931 42.5001,-296.931"/>
</g>
<!-- Node6 -->
<g id="node6" class="node"><title>Node6</title>
<g id="a_node6"><a xlink:href="../../d9/d05/classSHitMap.html" target="_top" xlink:title="SHitMap">
<polygon fill="none" stroke="black" points="151.5,-68.5 151.5,-87.5 206.5,-87.5 206.5,-68.5 151.5,-68.5"/>
<text text-anchor="middle" x="179" y="-75.5" font-family="FreeSans" font-size="10.00">SHitMap</text>
</a>
</g>
</g>
<!-- Node6&#45;&gt;Node1 -->
<g id="edge5" class="edge"><title>Node6&#45;&gt;Node1</title>
<path fill="none" stroke="#9a32cd" stroke-dasharray="5,2" d="M168.168,-59.563C160.228,-46.7815 149.778,-29.9599 143.492,-19.8411"/>
<polygon fill="#9a32cd" stroke="#9a32cd" points="165.39,-61.7241 173.64,-68.3717 171.336,-58.0303 165.39,-61.7241"/>
<text text-anchor="middle" x="184.5" y="-41.5" font-family="FreeSans" font-size="10.00"> _hit_map</text>
</g>
<!-- Node7 -->
<g id="node7" class="node"><title>Node7</title>
<g id="a_node7"><a xlink:href="../../d9/d24/classPHObject.html" target="_top" xlink:title="PHObject">
<polygon fill="none" stroke="black" points="149.5,-180.5 149.5,-199.5 208.5,-199.5 208.5,-180.5 149.5,-180.5"/>
<text text-anchor="middle" x="179" y="-187.5" font-family="FreeSans" font-size="10.00">PHObject</text>
</a>
</g>
</g>
<!-- Node7&#45;&gt;Node6 -->
<g id="edge6" class="edge"><title>Node7&#45;&gt;Node6</title>
<path fill="none" stroke="midnightblue" d="M179,-170.348C179,-146.254 179,-105.308 179,-87.5914"/>
<polygon fill="midnightblue" stroke="midnightblue" points="175.5,-170.368 179,-180.368 182.5,-170.369 175.5,-170.368"/>
</g>
<!-- Node8 -->
<g id="node8" class="node"><title>Node8</title>
<polygon fill="none" stroke="#bfbfbf" points="153.5,-248.5 153.5,-267.5 204.5,-267.5 204.5,-248.5 153.5,-248.5"/>
<text text-anchor="middle" x="179" y="-255.5" font-family="FreeSans" font-size="10.00">TObject</text>
</g>
<!-- Node8&#45;&gt;Node7 -->
<g id="edge7" class="edge"><title>Node8&#45;&gt;Node7</title>
<path fill="none" stroke="midnightblue" d="M179,-238.041C179,-225.472 179,-209.563 179,-199.841"/>
<polygon fill="midnightblue" stroke="midnightblue" points="175.5,-238.372 179,-248.372 182.5,-238.372 175.5,-238.372"/>
</g>
<!-- Node9 -->
<g id="node9" class="node"><title>Node9</title>
<polygon fill="none" stroke="#bfbfbf" points="224.5,-68.5 224.5,-87.5 313.5,-87.5 313.5,-68.5 224.5,-68.5"/>
<text text-anchor="middle" x="269" y="-75.5" font-family="FreeSans" font-size="10.00">std::vector&lt; int &gt;</text>
</g>
<!-- Node9&#45;&gt;Node1 -->
<g id="edge9" class="edge"><title>Node9&#45;&gt;Node1</title>
<path fill="none" stroke="#9a32cd" stroke-dasharray="5,2" d="M249.538,-62.5257C238.349,-54.6217 223.811,-45.0402 210,-38 195.727,-30.7244 179.015,-24.3371 165.286,-19.6039"/>
<polygon fill="#9a32cd" stroke="#9a32cd" points="247.558,-65.4128 257.716,-68.4242 251.653,-59.7356 247.558,-65.4128"/>
<text text-anchor="middle" x="252" y="-41.5" font-family="FreeSans" font-size="10.00"> eventIDs</text>
</g>
</g>
</svg>
