<?xml version="1.0" encoding="UTF-8" standalone="no"?>
<!DOCTYPE svg PUBLIC "-//W3C//DTD SVG 1.1//EN"
 "http://www.w3.org/Graphics/SVG/1.1/DTD/svg11.dtd">
<!-- Generated by graphviz version 2.36.0 (20140111.2315)
 -->
<!-- Title: fun4all/phool/PHObject.h Pages: 1 -->
<svg width="139pt" height="84pt"
 viewBox="0.00 0.00 139.00 84.00" xmlns="http://www.w3.org/2000/svg" xmlns:xlink="http://www.w3.org/1999/xlink">
<g id="graph0" class="graph" transform="scale(1 1) rotate(0) translate(4 80)">
<title>fun4all/phool/PHObject.h</title>
<!-- Node1 -->
<g id="node1" class="node"><title>Node1</title>
<polygon fill="#bfbfbf" stroke="black" points="3.5,-56.5 3.5,-75.5 128.5,-75.5 128.5,-56.5 3.5,-56.5"/>
<text text-anchor="middle" x="66" y="-63.5" font-family="FreeSans" font-size="10.00">fun4all/phool/PHObject.h</text>
</g>
<!-- Node2 -->
<g id="node2" class="node"><title>Node2</title>
<polygon fill="none" stroke="#bfbfbf" points="-0.5,-0.5 -0.5,-19.5 58.5,-19.5 58.5,-0.5 -0.5,-0.5"/>
<text text-anchor="middle" x="29" y="-7.5" font-family="FreeSans" font-size="10.00">TObject.h</text>
</g>
<!-- Node1&#45;&gt;Node2 -->
<g id="edge1" class="edge"><title>Node1&#45;&gt;Node2</title>
<path fill="none" stroke="midnightblue" d="M59.8902,-56.083C54.7178,-48.5341 47.1539,-37.4948 40.8056,-28.2298"/>
<polygon fill="midnightblue" stroke="midnightblue" points="43.5357,-26.0221 34.9961,-19.7511 37.7612,-29.9787 43.5357,-26.0221"/>
</g>
<!-- Node3 -->
<g id="node3" class="node"><title>Node3</title>
<polygon fill="none" stroke="#bfbfbf" points="77,-0.5 77,-19.5 131,-19.5 131,-0.5 77,-0.5"/>
<text text-anchor="middle" x="104" y="-7.5" font-family="FreeSans" font-size="10.00">iostream</text>
</g>
<!-- Node1&#45;&gt;Node3 -->
<g id="edge2" class="edge"><title>Node1&#45;&gt;Node3</title>
<path fill="none" stroke="midnightblue" d="M72.2749,-56.083C77.6425,-48.4554 85.5176,-37.2645 92.0787,-27.9408"/>
<polygon fill="midnightblue" stroke="midnightblue" points="94.9492,-29.9434 97.8418,-19.7511 89.2245,-25.9149 94.9492,-29.9434"/>
</g>
</g>
</svg>
