<?xml version="1.0" encoding="UTF-8" standalone="no"?>
<!DOCTYPE svg PUBLIC "-//W3C//DTD SVG 1.1//EN"
 "http://www.w3.org/Graphics/SVG/1.1/DTD/svg11.dtd">
<!-- Generated by graphviz version 2.36.0 (20140111.2315)
 -->
<!-- Title: fun4all/phool/PHNodeIterator.h Pages: 1 -->
<svg width="1525pt" height="288pt"
 viewBox="0.00 0.00 1525.00 288.00" xmlns="http://www.w3.org/2000/svg" xmlns:xlink="http://www.w3.org/1999/xlink">
<g id="graph0" class="graph" transform="scale(1 1) rotate(0) translate(4 284)">
<title>fun4all/phool/PHNodeIterator.h</title>
<!-- Node1 -->
<g id="node1" class="node"><title>Node1</title>
<polygon fill="#bfbfbf" stroke="black" points="486,-260.5 486,-279.5 636,-279.5 636,-260.5 486,-260.5"/>
<text text-anchor="middle" x="561" y="-267.5" font-family="FreeSans" font-size="10.00">fun4all/phool/PHNodeIterator.h</text>
</g>
<!-- Node2 -->
<g id="node2" class="node"><title>Node2</title>
<g id="a_node2"><a xlink:href="../../d9/d74/Fun4AllDstOutputManager_8cc.html" target="_top" xlink:title="fun4all/fun4all/Fun4AllDst\lOutputManager.cc">
<polygon fill="none" stroke="black" points="0,-193 0,-223 128,-223 128,-193 0,-193"/>
<text text-anchor="start" x="8" y="-211" font-family="FreeSans" font-size="10.00">fun4all/fun4all/Fun4AllDst</text>
<text text-anchor="middle" x="64" y="-200" font-family="FreeSans" font-size="10.00">OutputManager.cc</text>
</a>
</g>
</g>
<!-- Node1&#45;&gt;Node2 -->
<g id="edge1" class="edge"><title>Node1&#45;&gt;Node2</title>
<path fill="none" stroke="midnightblue" d="M475.437,-262.37C389.575,-255.142 253.68,-242.136 137,-224 134.059,-223.543 131.058,-223.047 128.03,-222.523"/>
<polygon fill="midnightblue" stroke="midnightblue" points="475.398,-265.879 485.655,-263.223 475.981,-258.903 475.398,-265.879"/>
</g>
<!-- Node3 -->
<g id="node3" class="node"><title>Node3</title>
<g id="a_node3"><a xlink:href="../../d8/d3b/Fun4AllPrdfOutputManager_8cc.html" target="_top" xlink:title="fun4all/fun4all/Fun4AllPrdf\lOutputManager.cc">
<polygon fill="none" stroke="black" points="146.5,-193 146.5,-223 277.5,-223 277.5,-193 146.5,-193"/>
<text text-anchor="start" x="154.5" y="-211" font-family="FreeSans" font-size="10.00">fun4all/fun4all/Fun4AllPrdf</text>
<text text-anchor="middle" x="212" y="-200" font-family="FreeSans" font-size="10.00">OutputManager.cc</text>
</a>
</g>
</g>
<!-- Node1&#45;&gt;Node3 -->
<g id="edge2" class="edge"><title>Node1&#45;&gt;Node3</title>
<path fill="none" stroke="midnightblue" d="M497.91,-258.804C443.358,-249.903 362.408,-236.489 292,-224 287.408,-223.186 282.671,-222.332 277.902,-221.463"/>
<polygon fill="midnightblue" stroke="midnightblue" points="497.686,-262.314 508.119,-260.468 498.812,-255.405 497.686,-262.314"/>
</g>
<!-- Node4 -->
<g id="node4" class="node"><title>Node4</title>
<g id="a_node4"><a xlink:href="../../d8/d7a/Fun4AllServer_8cc.html" target="_top" xlink:title="fun4all/fun4all/Fun4AllServer.cc">
<polygon fill="none" stroke="black" points="229,-6.5 229,-25.5 383,-25.5 383,-6.5 229,-6.5"/>
<text text-anchor="middle" x="306" y="-13.5" font-family="FreeSans" font-size="10.00">fun4all/fun4all/Fun4AllServer.cc</text>
</a>
</g>
</g>
<!-- Node1&#45;&gt;Node4 -->
<g id="edge3" class="edge"><title>Node1&#45;&gt;Node4</title>
<path fill="none" stroke="midnightblue" d="M475.851,-262.025C446.139,-255.842 414.406,-244.528 391,-224 327.327,-168.158 310.458,-57.314 306.854,-25.6377"/>
<polygon fill="midnightblue" stroke="midnightblue" points="475.356,-265.494 485.835,-263.931 476.669,-258.618 475.356,-265.494"/>
</g>
<!-- Node5 -->
<g id="node5" class="node"><title>Node5</title>
<g id="a_node5"><a xlink:href="../../dd/d12/ReadMySql_8C.html" target="_top" xlink:title="fun4all/modules/ReadMySql.C">
<polygon fill="none" stroke="black" points="401,-6.5 401,-25.5 547,-25.5 547,-6.5 401,-6.5"/>
<text text-anchor="middle" x="474" y="-13.5" font-family="FreeSans" font-size="10.00">fun4all/modules/ReadMySql.C</text>
</a>
</g>
</g>
<!-- Node1&#45;&gt;Node5 -->
<g id="edge4" class="edge"><title>Node1&#45;&gt;Node5</title>
<path fill="none" stroke="midnightblue" d="M476.148,-258.904C454.278,-252.283 432.771,-241.498 418,-224 373.012,-170.706 368.763,-129.846 401,-68 411.647,-47.5728 434.63,-33.6473 451.982,-25.5751"/>
<polygon fill="midnightblue" stroke="midnightblue" points="475.29,-262.298 485.861,-261.578 477.148,-255.549 475.29,-262.298"/>
</g>
<!-- Node6 -->
<g id="node6" class="node"><title>Node6</title>
<g id="a_node6"><a xlink:href="../../dd/d2f/SimpleReadMySql_8C.html" target="_top" xlink:title="fun4all/modules/SimpleRead\lMySql.C">
<polygon fill="none" stroke="black" points="1016,-1 1016,-31 1156,-31 1156,-1 1016,-1"/>
<text text-anchor="start" x="1024" y="-19" font-family="FreeSans" font-size="10.00">fun4all/modules/SimpleRead</text>
<text text-anchor="middle" x="1086" y="-8" font-family="FreeSans" font-size="10.00">MySql.C</text>
</a>
</g>
</g>
<!-- Node1&#45;&gt;Node6 -->
<g id="edge5" class="edge"><title>Node1&#45;&gt;Node6</title>
<path fill="none" stroke="midnightblue" d="M646.413,-263.008C825.814,-248.444 1232.04,-204.421 1314,-100 1359.06,-42.5911 1238.71,-24.8719 1156.19,-19.4152"/>
<polygon fill="midnightblue" stroke="midnightblue" points="645.915,-259.536 636.226,-263.823 646.473,-266.514 645.915,-259.536"/>
</g>
<!-- Node7 -->
<g id="node7" class="node"><title>Node7</title>
<g id="a_node7"><a xlink:href="../../dd/dd4/getClass_8h.html" target="_top" xlink:title="fun4all/phool/getClass.h">
<polygon fill="none" stroke="black" points="600,-74.5 600,-93.5 720,-93.5 720,-74.5 600,-74.5"/>
<text text-anchor="middle" x="660" y="-81.5" font-family="FreeSans" font-size="10.00">fun4all/phool/getClass.h</text>
</a>
</g>
</g>
<!-- Node1&#45;&gt;Node7 -->
<g id="edge6" class="edge"><title>Node1&#45;&gt;Node7</title>
<path fill="none" stroke="midnightblue" d="M570.65,-251.065C591.468,-212.372 639.954,-122.257 655.273,-93.7857"/>
<polygon fill="midnightblue" stroke="midnightblue" points="567.431,-249.661 565.775,-260.125 573.595,-252.977 567.431,-249.661"/>
</g>
<!-- Node11 -->
<g id="node11" class="node"><title>Node11</title>
<g id="a_node11"><a xlink:href="../../db/d17/PHTypedNodeIterator_8h.html" target="_top" xlink:title="fun4all/phool/PHTypedNode\lIterator.h">
<polygon fill="none" stroke="black" points="427,-193 427,-223 565,-223 565,-193 427,-193"/>
<text text-anchor="start" x="435" y="-211" font-family="FreeSans" font-size="10.00">fun4all/phool/PHTypedNode</text>
<text text-anchor="middle" x="496" y="-200" font-family="FreeSans" font-size="10.00">Iterator.h</text>
</a>
</g>
</g>
<!-- Node1&#45;&gt;Node11 -->
<g id="edge13" class="edge"><title>Node1&#45;&gt;Node11</title>
<path fill="none" stroke="midnightblue" d="M544.227,-253.517C534.067,-244.138 521.205,-232.266 511.319,-223.141"/>
<polygon fill="midnightblue" stroke="midnightblue" points="541.965,-256.192 551.687,-260.403 546.713,-251.049 541.965,-256.192"/>
</g>
<!-- Node14 -->
<g id="node14" class="node"><title>Node14</title>
<g id="a_node14"><a xlink:href="../../d7/d95/PHDataNodeIterator_8h.html" target="_top" xlink:title="fun4all/phool/PHDataNode\lIterator.h">
<polygon fill="none" stroke="black" points="982,-69 982,-99 1114,-99 1114,-69 982,-69"/>
<text text-anchor="start" x="990" y="-87" font-family="FreeSans" font-size="10.00">fun4all/phool/PHDataNode</text>
<text text-anchor="middle" x="1048" y="-76" font-family="FreeSans" font-size="10.00">Iterator.h</text>
</a>
</g>
</g>
<!-- Node1&#45;&gt;Node14 -->
<g id="edge25" class="edge"><title>Node1&#45;&gt;Node14</title>
<path fill="none" stroke="midnightblue" d="M593.081,-256.879C679.82,-224.107 918.654,-133.87 1010.93,-99.0041"/>
<polygon fill="midnightblue" stroke="midnightblue" points="591.63,-253.686 583.512,-260.494 594.104,-260.234 591.63,-253.686"/>
</g>
<!-- Node15 -->
<g id="node15" class="node"><title>Node15</title>
<g id="a_node15"><a xlink:href="../../d7/d32/PHNodeIOManager_8cc.html" target="_top" xlink:title="fun4all/phool/PHNodeIOManager.cc">
<polygon fill="none" stroke="black" points="1132.5,-74.5 1132.5,-93.5 1305.5,-93.5 1305.5,-74.5 1132.5,-74.5"/>
<text text-anchor="middle" x="1219" y="-81.5" font-family="FreeSans" font-size="10.00">fun4all/phool/PHNodeIOManager.cc</text>
</a>
</g>
</g>
<!-- Node1&#45;&gt;Node15 -->
<g id="edge26" class="edge"><title>Node1&#45;&gt;Node15</title>
<path fill="none" stroke="midnightblue" d="M605.89,-257.923C641.515,-249.035 692.543,-236.091 737,-224 909.909,-176.975 1116.23,-115.752 1190.56,-93.5287"/>
<polygon fill="midnightblue" stroke="midnightblue" points="604.671,-254.619 595.812,-260.431 606.361,-261.412 604.671,-254.619"/>
</g>
<!-- Node17 -->
<g id="node17" class="node"><title>Node17</title>
<g id="a_node17"><a xlink:href="../../d0/d41/PHNodeIterator_8cc.html" target="_top" xlink:title="fun4all/phool/PHNodeIterator.cc">
<polygon fill="none" stroke="black" points="1362.5,-198.5 1362.5,-217.5 1517.5,-217.5 1517.5,-198.5 1362.5,-198.5"/>
<text text-anchor="middle" x="1440" y="-205.5" font-family="FreeSans" font-size="10.00">fun4all/phool/PHNodeIterator.cc</text>
</a>
</g>
</g>
<!-- Node1&#45;&gt;Node17 -->
<g id="edge27" class="edge"><title>Node1&#45;&gt;Node17</title>
<path fill="none" stroke="midnightblue" d="M646.231,-267.044C790.899,-263.071 1093.59,-251.936 1348,-224 1362.96,-222.357 1379.19,-219.928 1393.8,-217.502"/>
<polygon fill="midnightblue" stroke="midnightblue" points="645.992,-263.549 636.09,-267.317 646.181,-270.546 645.992,-263.549"/>
</g>
<!-- Node7&#45;&gt;Node4 -->
<g id="edge10" class="edge"><title>Node7&#45;&gt;Node4</title>
<path fill="none" stroke="midnightblue" d="M604.16,-72.5891C534.446,-59.5916 416.516,-37.6047 351.835,-25.5455"/>
<polygon fill="midnightblue" stroke="midnightblue" points="603.611,-76.0471 614.084,-74.4393 604.895,-69.1657 603.611,-76.0471"/>
</g>
<!-- Node7&#45;&gt;Node5 -->
<g id="edge11" class="edge"><title>Node7&#45;&gt;Node5</title>
<path fill="none" stroke="midnightblue" d="M625.829,-70.875C588.765,-57.723 530.55,-37.066 498.027,-25.5259"/>
<polygon fill="midnightblue" stroke="midnightblue" points="625.089,-74.326 635.684,-74.3717 627.43,-67.729 625.089,-74.326"/>
</g>
<!-- Node7&#45;&gt;Node6 -->
<g id="edge12" class="edge"><title>Node7&#45;&gt;Node6</title>
<path fill="none" stroke="midnightblue" d="M730.355,-73.5364C800.553,-63.8877 911.425,-48.0899 1007,-32 1009.89,-31.5133 1012.84,-31.0055 1015.82,-30.4834"/>
<polygon fill="midnightblue" stroke="midnightblue" points="729.731,-70.0891 720.299,-74.9147 730.682,-77.0242 729.731,-70.0891"/>
</g>
<!-- Node8 -->
<g id="node8" class="node"><title>Node8</title>
<g id="a_node8"><a xlink:href="../../d3/d53/Fun4AllDstInputManager_8cc.html" target="_top" xlink:title="fun4all/fun4all/Fun4AllDst\lInputManager.cc">
<polygon fill="none" stroke="black" points="870,-1 870,-31 998,-31 998,-1 870,-1"/>
<text text-anchor="start" x="878" y="-19" font-family="FreeSans" font-size="10.00">fun4all/fun4all/Fun4AllDst</text>
<text text-anchor="middle" x="934" y="-8" font-family="FreeSans" font-size="10.00">InputManager.cc</text>
</a>
</g>
</g>
<!-- Node7&#45;&gt;Node8 -->
<g id="edge7" class="edge"><title>Node7&#45;&gt;Node8</title>
<path fill="none" stroke="midnightblue" d="M705.37,-72.0715C752.034,-60.8313 824.887,-43.2826 875.776,-31.0247"/>
<polygon fill="midnightblue" stroke="midnightblue" points="704.442,-68.6948 695.54,-74.4393 706.081,-75.5001 704.442,-68.6948"/>
</g>
<!-- Node9 -->
<g id="node9" class="node"><title>Node9</title>
<g id="a_node9"><a xlink:href="../../d6/dbe/Fun4AllEventOutputManager_8cc.html" target="_top" xlink:title="fun4all/fun4all/Fun4AllEvent\lOutputManager.cc">
<polygon fill="none" stroke="black" points="565.5,-1 565.5,-31 702.5,-31 702.5,-1 565.5,-1"/>
<text text-anchor="start" x="573.5" y="-19" font-family="FreeSans" font-size="10.00">fun4all/fun4all/Fun4AllEvent</text>
<text text-anchor="middle" x="634" y="-8" font-family="FreeSans" font-size="10.00">OutputManager.cc</text>
</a>
</g>
</g>
<!-- Node7&#45;&gt;Node9 -->
<g id="edge8" class="edge"><title>Node7&#45;&gt;Node9</title>
<path fill="none" stroke="midnightblue" d="M652.846,-64.8404C648.665,-54.2266 643.465,-41.026 639.587,-31.1815"/>
<polygon fill="midnightblue" stroke="midnightblue" points="649.679,-66.3504 656.601,-74.3717 656.192,-63.7847 649.679,-66.3504"/>
</g>
<!-- Node10 -->
<g id="node10" class="node"><title>Node10</title>
<g id="a_node10"><a xlink:href="../../da/d7b/Fun4AllPrdfInputManager_8cc.html" target="_top" xlink:title="fun4all/fun4all/Fun4AllPrdf\lInputManager.cc">
<polygon fill="none" stroke="black" points="720.5,-1 720.5,-31 851.5,-31 851.5,-1 720.5,-1"/>
<text text-anchor="start" x="728.5" y="-19" font-family="FreeSans" font-size="10.00">fun4all/fun4all/Fun4AllPrdf</text>
<text text-anchor="middle" x="786" y="-8" font-family="FreeSans" font-size="10.00">InputManager.cc</text>
</a>
</g>
</g>
<!-- Node7&#45;&gt;Node10 -->
<g id="edge9" class="edge"><title>Node7&#45;&gt;Node10</title>
<path fill="none" stroke="midnightblue" d="M685.575,-69.6034C706.899,-58.4338 737.196,-42.5642 758.926,-31.1815"/>
<polygon fill="midnightblue" stroke="midnightblue" points="683.707,-66.6311 676.472,-74.3717 686.955,-72.8319 683.707,-66.6311"/>
</g>
<!-- Node11&#45;&gt;Node4 -->
<g id="edge14" class="edge"><title>Node11&#45;&gt;Node4</title>
<path fill="none" stroke="midnightblue" d="M474.552,-185.552C433.018,-144.018 343.203,-54.2035 314.799,-25.7988"/>
<polygon fill="midnightblue" stroke="midnightblue" points="472.173,-188.123 481.719,-192.719 477.123,-183.173 472.173,-188.123"/>
</g>
<!-- Node12 -->
<g id="node12" class="node"><title>Node12</title>
<g id="a_node12"><a xlink:href="../../df/d03/Fun4AllSyncManager_8cc.html" target="_top" xlink:title="fun4all/fun4all/Fun4AllSync\lManager.cc">
<polygon fill="none" stroke="black" points="410,-69 410,-99 544,-99 544,-69 410,-69"/>
<text text-anchor="start" x="418" y="-87" font-family="FreeSans" font-size="10.00">fun4all/fun4all/Fun4AllSync</text>
<text text-anchor="middle" x="477" y="-76" font-family="FreeSans" font-size="10.00">Manager.cc</text>
</a>
</g>
</g>
<!-- Node11&#45;&gt;Node12 -->
<g id="edge15" class="edge"><title>Node11&#45;&gt;Node12</title>
<path fill="none" stroke="midnightblue" d="M492.162,-182.355C488.263,-157.318 482.36,-119.417 479.193,-99.0787"/>
<polygon fill="midnightblue" stroke="midnightblue" points="488.749,-183.184 493.746,-192.526 495.665,-182.106 488.749,-183.184"/>
</g>
<!-- Node13 -->
<g id="node13" class="node"><title>Node13</title>
<g id="a_node13"><a xlink:href="../../d3/d79/PHIODataNode_8h.html" target="_top" xlink:title="fun4all/phool/PHIODataNode.h">
<polygon fill="none" stroke="black" points="673,-136.5 673,-155.5 823,-155.5 823,-136.5 673,-136.5"/>
<text text-anchor="middle" x="748" y="-143.5" font-family="FreeSans" font-size="10.00">fun4all/phool/PHIODataNode.h</text>
</a>
</g>
</g>
<!-- Node11&#45;&gt;Node13 -->
<g id="edge16" class="edge"><title>Node11&#45;&gt;Node13</title>
<path fill="none" stroke="midnightblue" d="M565.027,-190.565C612.671,-179.221 674.081,-164.6 712.247,-155.513"/>
<polygon fill="midnightblue" stroke="midnightblue" points="564,-187.212 555.083,-192.933 565.622,-194.021 564,-187.212"/>
</g>
<!-- Node13&#45;&gt;Node5 -->
<g id="edge19" class="edge"><title>Node13&#45;&gt;Node5</title>
<path fill="none" stroke="midnightblue" d="M688.883,-134.243C658.458,-127.201 621.464,-116.23 591,-100 571.513,-89.6182 570.755,-81.125 553,-68 531.208,-51.8909 504.46,-35.2293 488.347,-25.5051"/>
<polygon fill="midnightblue" stroke="midnightblue" points="688.408,-137.723 698.93,-136.483 689.931,-130.891 688.408,-137.723"/>
</g>
<!-- Node13&#45;&gt;Node6 -->
<g id="edge20" class="edge"><title>Node13&#45;&gt;Node6</title>
<path fill="none" stroke="midnightblue" d="M756.277,-126.972C765.512,-109.011 782.206,-82.1315 805,-68 882.506,-19.9497 917.314,-48.5058 1007,-32 1009.88,-31.4694 1012.83,-30.9249 1015.8,-30.3723"/>
<polygon fill="midnightblue" stroke="midnightblue" points="753.052,-125.601 751.817,-136.124 759.344,-128.667 753.052,-125.601"/>
</g>
<!-- Node13&#45;&gt;Node7 -->
<g id="edge21" class="edge"><title>Node13&#45;&gt;Node7</title>
<path fill="none" stroke="midnightblue" d="M726.721,-130.492C709.796,-118.952 686.69,-103.198 672.585,-93.5806"/>
<polygon fill="midnightblue" stroke="midnightblue" points="725.158,-133.662 735.392,-136.403 729.101,-127.878 725.158,-133.662"/>
</g>
<!-- Node13&#45;&gt;Node8 -->
<g id="edge17" class="edge"><title>Node13&#45;&gt;Node8</title>
<path fill="none" stroke="midnightblue" d="M749.039,-126.238C750.99,-108.897 756.509,-83.5352 772,-68 786.158,-53.8021 830.993,-40.2959 869.916,-30.7535"/>
<polygon fill="midnightblue" stroke="midnightblue" points="745.544,-126.036 748.204,-136.291 752.52,-126.616 745.544,-126.036"/>
</g>
<!-- Node13&#45;&gt;Node12 -->
<g id="edge18" class="edge"><title>Node13&#45;&gt;Node12</title>
<path fill="none" stroke="midnightblue" d="M699.494,-134.261C655.086,-124.429 589.08,-109.815 540.489,-99.0565"/>
<polygon fill="midnightblue" stroke="midnightblue" points="698.94,-137.723 709.46,-136.467 700.453,-130.888 698.94,-137.723"/>
</g>
<!-- Node13&#45;&gt;Node14 -->
<g id="edge22" class="edge"><title>Node13&#45;&gt;Node14</title>
<path fill="none" stroke="midnightblue" d="M800.696,-134.461C851.085,-124.383 927.245,-109.151 981.726,-98.2549"/>
<polygon fill="midnightblue" stroke="midnightblue" points="799.783,-131.074 790.664,-136.467 801.156,-137.938 799.783,-131.074"/>
</g>
<!-- Node13&#45;&gt;Node15 -->
<g id="edge23" class="edge"><title>Node13&#45;&gt;Node15</title>
<path fill="none" stroke="midnightblue" d="M833.174,-135.653C909.253,-127.096 1023.69,-113.712 1123,-100 1137.2,-98.0387 1152.56,-95.7262 1166.73,-93.5119"/>
<polygon fill="midnightblue" stroke="midnightblue" points="832.711,-132.183 823.163,-136.776 833.491,-139.139 832.711,-132.183"/>
</g>
<!-- Node16 -->
<g id="node16" class="node"><title>Node16</title>
<g id="a_node16"><a xlink:href="../../dc/d01/PHNodeReset_8cc.html" target="_top" xlink:title="fun4all/phool/PHNodeReset.cc">
<polygon fill="none" stroke="black" points="814,-74.5 814,-93.5 964,-93.5 964,-74.5 814,-74.5"/>
<text text-anchor="middle" x="889" y="-81.5" font-family="FreeSans" font-size="10.00">fun4all/phool/PHNodeReset.cc</text>
</a>
</g>
</g>
<!-- Node13&#45;&gt;Node16 -->
<g id="edge24" class="edge"><title>Node13&#45;&gt;Node16</title>
<path fill="none" stroke="midnightblue" d="M777.67,-132.374C805.055,-120.721 844.98,-103.732 868.836,-93.5806"/>
<polygon fill="midnightblue" stroke="midnightblue" points="776.033,-129.267 768.202,-136.403 778.774,-135.708 776.033,-129.267"/>
</g>
</g>
</svg>
