<?xml version="1.0" encoding="UTF-8" standalone="no"?>
<!DOCTYPE svg PUBLIC "-//W3C//DTD SVG 1.1//EN"
 "http://www.w3.org/Graphics/SVG/1.1/DTD/svg11.dtd">
<!-- Generated by graphviz version 2.36.0 (20140111.2315)
 -->
<!-- Title: fun4all/fun4all/TDirectoryHelper.h Pages: 1 -->
<svg width="286pt" height="108pt"
 viewBox="0.00 0.00 286.00 108.00" xmlns="http://www.w3.org/2000/svg" xmlns:xlink="http://www.w3.org/1999/xlink">
<g id="graph0" class="graph" transform="scale(1 1) rotate(0) translate(4 104)">
<title>fun4all/fun4all/TDirectoryHelper.h</title>
<!-- Node1 -->
<g id="node1" class="node"><title>Node1</title>
<polygon fill="#bfbfbf" stroke="black" points="80,-69 80,-99 204,-99 204,-69 80,-69"/>
<text text-anchor="start" x="88" y="-87" font-family="FreeSans" font-size="10.00">fun4all/fun4all/TDirectory</text>
<text text-anchor="middle" x="142" y="-76" font-family="FreeSans" font-size="10.00">Helper.h</text>
</g>
<!-- Node2 -->
<g id="node2" class="node"><title>Node2</title>
<g id="a_node2"><a xlink:href="../../df/d24/Fun4AllHistoManager_8cc.html" target="_top" xlink:title="fun4all/fun4all/Fun4AllHisto\lManager.cc">
<polygon fill="none" stroke="black" points="0,-1 0,-31 136,-31 136,-1 0,-1"/>
<text text-anchor="start" x="8" y="-19" font-family="FreeSans" font-size="10.00">fun4all/fun4all/Fun4AllHisto</text>
<text text-anchor="middle" x="68" y="-8" font-family="FreeSans" font-size="10.00">Manager.cc</text>
</a>
</g>
</g>
<!-- Node1&#45;&gt;Node2 -->
<g id="edge1" class="edge"><title>Node1&#45;&gt;Node2</title>
<path fill="none" stroke="midnightblue" d="M118.475,-62.0184C107.147,-51.9145 93.8659,-40.0696 83.7713,-31.0663"/>
<polygon fill="midnightblue" stroke="midnightblue" points="116.15,-64.6348 125.943,-68.679 120.81,-59.4108 116.15,-64.6348"/>
</g>
<!-- Node3 -->
<g id="node3" class="node"><title>Node3</title>
<g id="a_node3"><a xlink:href="../../d5/d6f/TDirectoryHelper_8cc.html" target="_top" xlink:title="fun4all/fun4all/TDirectory\lHelper.cc">
<polygon fill="none" stroke="black" points="154,-1 154,-31 278,-31 278,-1 154,-1"/>
<text text-anchor="start" x="162" y="-19" font-family="FreeSans" font-size="10.00">fun4all/fun4all/TDirectory</text>
<text text-anchor="middle" x="216" y="-8" font-family="FreeSans" font-size="10.00">Helper.cc</text>
</a>
</g>
</g>
<!-- Node1&#45;&gt;Node3 -->
<g id="edge2" class="edge"><title>Node1&#45;&gt;Node3</title>
<path fill="none" stroke="midnightblue" d="M165.525,-62.0184C176.853,-51.9145 190.134,-40.0696 200.229,-31.0663"/>
<polygon fill="midnightblue" stroke="midnightblue" points="163.19,-59.4108 158.057,-68.679 167.85,-64.6348 163.19,-59.4108"/>
</g>
</g>
</svg>
