<?xml version="1.0" encoding="UTF-8" standalone="no"?>
<!DOCTYPE svg PUBLIC "-//W3C//DTD SVG 1.1//EN"
 "http://www.w3.org/Graphics/SVG/1.1/DTD/svg11.dtd">
<!-- Generated by graphviz version 2.36.0 (20140111.2315)
 -->
<!-- Title: PHNodeIOManager::print Pages: 1 -->
<svg width="792pt" height="110pt"
 viewBox="0.00 0.00 792.00 110.00" xmlns="http://www.w3.org/2000/svg" xmlns:xlink="http://www.w3.org/1999/xlink">
<g id="graph0" class="graph" transform="scale(1 1) rotate(0) translate(4 106)">
<title>PHNodeIOManager::print</title>
<!-- Node1 -->
<g id="node1" class="node"><title>Node1</title>
<polygon fill="#bfbfbf" stroke="black" points="0.5,-30.5 0.5,-49.5 125.5,-49.5 125.5,-30.5 0.5,-30.5"/>
<text text-anchor="middle" x="63" y="-37.5" font-family="FreeSans" font-size="10.00">PHNodeIOManager::print</text>
</g>
<!-- Node2 -->
<g id="node2" class="node"><title>Node2</title>
<g id="a_node2"><a xlink:href="../../d7/d0b/classFun4AllDstInputManager.html#a4d32eadb9f77d41387656b87377ef14f" target="_top" xlink:title="Fun4AllDstInputManager\l::fileopen">
<polygon fill="none" stroke="black" points="162,-50 162,-80 286,-80 286,-50 162,-50"/>
<text text-anchor="start" x="170" y="-68" font-family="FreeSans" font-size="10.00">Fun4AllDstInputManager</text>
<text text-anchor="middle" x="224" y="-57" font-family="FreeSans" font-size="10.00">::fileopen</text>
</a>
</g>
</g>
<!-- Node1&#45;&gt;Node2 -->
<g id="edge1" class="edge"><title>Node1&#45;&gt;Node2</title>
<path fill="none" stroke="midnightblue" d="M134.688,-51.1144C143.734,-52.5368 152.935,-53.9835 161.813,-55.3795"/>
<polygon fill="midnightblue" stroke="midnightblue" points="134.987,-47.6185 124.565,-49.5227 133.9,-54.5336 134.987,-47.6185"/>
</g>
<!-- Node7 -->
<g id="node7" class="node"><title>Node7</title>
<g id="a_node7"><a xlink:href="../../d7/d0b/classFun4AllDstInputManager.html#ac24c4362dbe7ec37d4d7127227e540fa" target="_top" xlink:title="Fun4AllDstInputManager\l::Print">
<polygon fill="none" stroke="black" points="162,-1 162,-31 286,-31 286,-1 162,-1"/>
<text text-anchor="start" x="170" y="-19" font-family="FreeSans" font-size="10.00">Fun4AllDstInputManager</text>
<text text-anchor="middle" x="224" y="-8" font-family="FreeSans" font-size="10.00">::Print</text>
</a>
</g>
</g>
<!-- Node1&#45;&gt;Node7 -->
<g id="edge6" class="edge"><title>Node1&#45;&gt;Node7</title>
<path fill="none" stroke="midnightblue" d="M135.965,-29.1374C144.582,-27.8367 153.318,-26.5181 161.763,-25.2434"/>
<polygon fill="midnightblue" stroke="midnightblue" points="135.294,-25.6988 125.929,-30.6523 136.339,-32.6204 135.294,-25.6988"/>
</g>
<!-- Node3 -->
<g id="node3" class="node"><title>Node3</title>
<g id="a_node3"><a xlink:href="../../d7/d0b/classFun4AllDstInputManager.html#ae4e92b95ae50ab72856d06c99b043496" target="_top" xlink:title="Fun4AllDstInputManager\l::OpenNextFile">
<polygon fill="none" stroke="black" points="322,-50 322,-80 446,-80 446,-50 322,-50"/>
<text text-anchor="start" x="330" y="-68" font-family="FreeSans" font-size="10.00">Fun4AllDstInputManager</text>
<text text-anchor="middle" x="384" y="-57" font-family="FreeSans" font-size="10.00">::OpenNextFile</text>
</a>
</g>
</g>
<!-- Node2&#45;&gt;Node3 -->
<g id="edge2" class="edge"><title>Node2&#45;&gt;Node3</title>
<path fill="none" stroke="midnightblue" d="M296.366,-65C304.863,-65 313.478,-65 321.815,-65"/>
<polygon fill="midnightblue" stroke="midnightblue" points="296.087,-61.5001 286.087,-65 296.087,-68.5001 296.087,-61.5001"/>
</g>
<!-- Node4 -->
<g id="node4" class="node"><title>Node4</title>
<g id="a_node4"><a xlink:href="../../d7/d0b/classFun4AllDstInputManager.html#ade26017b627e0e1f1ec0dec62ac7fd52" target="_top" xlink:title="Fun4AllDstInputManager\l::ReadNextEventSyncObject">
<polygon fill="none" stroke="black" points="483.5,-72 483.5,-102 622.5,-102 622.5,-72 483.5,-72"/>
<text text-anchor="start" x="491.5" y="-90" font-family="FreeSans" font-size="10.00">Fun4AllDstInputManager</text>
<text text-anchor="middle" x="553" y="-79" font-family="FreeSans" font-size="10.00">::ReadNextEventSyncObject</text>
</a>
</g>
</g>
<!-- Node3&#45;&gt;Node4 -->
<g id="edge3" class="edge"><title>Node3&#45;&gt;Node4</title>
<path fill="none" stroke="midnightblue" d="M456.291,-74.3917C465.291,-75.5772 474.483,-76.7882 483.438,-77.9679"/>
<polygon fill="midnightblue" stroke="midnightblue" points="456.608,-70.9032 446.236,-73.0671 455.694,-77.8433 456.608,-70.9032"/>
</g>
<!-- Node6 -->
<g id="node6" class="node"><title>Node6</title>
<g id="a_node6"><a xlink:href="../../d7/d0b/classFun4AllDstInputManager.html#aeafa0248f9050c13fdae1bcb93336d7a" target="_top" xlink:title="Fun4AllDstInputManager::run">
<polygon fill="none" stroke="black" points="482,-33.5 482,-52.5 624,-52.5 624,-33.5 482,-33.5"/>
<text text-anchor="middle" x="553" y="-40.5" font-family="FreeSans" font-size="10.00">Fun4AllDstInputManager::run</text>
</a>
</g>
</g>
<!-- Node3&#45;&gt;Node6 -->
<g id="edge5" class="edge"><title>Node3&#45;&gt;Node6</title>
<path fill="none" stroke="midnightblue" d="M456.376,-55.5971C464.777,-54.4905 473.344,-53.3619 481.729,-52.2573"/>
<polygon fill="midnightblue" stroke="midnightblue" points="455.694,-52.1567 446.236,-56.9329 456.608,-59.0968 455.694,-52.1567"/>
</g>
<!-- Node5 -->
<g id="node5" class="node"><title>Node5</title>
<g id="a_node5"><a xlink:href="../../d7/d0b/classFun4AllDstInputManager.html#a0244c2edbaa2350038304b09f352c2d0" target="_top" xlink:title="Fun4AllDstInputManager\l::SyncIt">
<polygon fill="none" stroke="black" points="660,-72 660,-102 784,-102 784,-72 660,-72"/>
<text text-anchor="start" x="668" y="-90" font-family="FreeSans" font-size="10.00">Fun4AllDstInputManager</text>
<text text-anchor="middle" x="722" y="-79" font-family="FreeSans" font-size="10.00">::SyncIt</text>
</a>
</g>
</g>
<!-- Node4&#45;&gt;Node5 -->
<g id="edge4" class="edge"><title>Node4&#45;&gt;Node5</title>
<path fill="none" stroke="midnightblue" d="M632.987,-87C641.977,-87 651.037,-87 659.749,-87"/>
<polygon fill="midnightblue" stroke="midnightblue" points="632.889,-83.5001 622.889,-87 632.889,-90.5001 632.889,-83.5001"/>
</g>
</g>
</svg>
