<?xml version="1.0" encoding="UTF-8" standalone="no"?>
<!DOCTYPE svg PUBLIC "-//W3C//DTD SVG 1.1//EN"
 "http://www.w3.org/Graphics/SVG/1.1/DTD/svg11.dtd">
<!-- Generated by graphviz version 2.36.0 (20140111.2315)
 -->
<!-- Title: PHNodeIOManager::reconstructNodeTree Pages: 1 -->
<svg width="984pt" height="125pt"
 viewBox="0.00 0.00 984.00 125.05" xmlns="http://www.w3.org/2000/svg" xmlns:xlink="http://www.w3.org/1999/xlink">
<g id="graph0" class="graph" transform="scale(1 1) rotate(0) translate(4 121.049)">
<title>PHNodeIOManager::reconstructNodeTree</title>
<!-- Node1 -->
<g id="node1" class="node"><title>Node1</title>
<polygon fill="#bfbfbf" stroke="black" points="0.5,-48.8025 0.5,-78.8025 155.5,-78.8025 155.5,-48.8025 0.5,-48.8025"/>
<text text-anchor="start" x="8.5" y="-66.8025" font-family="FreeSans" font-size="10.00">PHNodeIOManager::reconstruct</text>
<text text-anchor="middle" x="78" y="-55.8025" font-family="FreeSans" font-size="10.00">NodeTree</text>
</g>
<!-- Node2 -->
<g id="node2" class="node"><title>Node2</title>
<g id="a_node2"><a xlink:href="../../d7/d4d/classPHNodeIOManager.html#a92da4bff2438e94d469011b7720f286f" target="_top" xlink:title="PHNodeIOManager::read">
<polygon fill="none" stroke="black" points="192.5,-54.3025 192.5,-73.3025 317.5,-73.3025 317.5,-54.3025 192.5,-54.3025"/>
<text text-anchor="middle" x="255" y="-61.3025" font-family="FreeSans" font-size="10.00">PHNodeIOManager::read</text>
</a>
</g>
</g>
<!-- Node1&#45;&gt;Node2 -->
<g id="edge1" class="edge"><title>Node1&#45;&gt;Node2</title>
<path fill="none" stroke="midnightblue" d="M165.659,-63.8025C174.676,-63.8025 183.706,-63.8025 192.364,-63.8025"/>
<polygon fill="midnightblue" stroke="midnightblue" points="165.503,-60.3026 155.503,-63.8025 165.503,-67.3026 165.503,-60.3026"/>
</g>
<!-- Node3 -->
<g id="node3" class="node"><title>Node3</title>
<g id="a_node3"><a xlink:href="../../d7/d0b/classFun4AllDstInputManager.html#a4d32eadb9f77d41387656b87377ef14f" target="_top" xlink:title="Fun4AllDstInputManager\l::fileopen">
<polygon fill="none" stroke="black" points="354,-26.8025 354,-56.8025 478,-56.8025 478,-26.8025 354,-26.8025"/>
<text text-anchor="start" x="362" y="-44.8025" font-family="FreeSans" font-size="10.00">Fun4AllDstInputManager</text>
<text text-anchor="middle" x="416" y="-33.8025" font-family="FreeSans" font-size="10.00">::fileopen</text>
</a>
</g>
</g>
<!-- Node2&#45;&gt;Node3 -->
<g id="edge2" class="edge"><title>Node2&#45;&gt;Node3</title>
<path fill="none" stroke="midnightblue" d="M327.965,-53.8451C336.582,-52.6529 345.318,-51.4441 353.763,-50.2756"/>
<polygon fill="midnightblue" stroke="midnightblue" points="327.355,-50.3961 317.929,-55.2338 328.314,-57.33 327.355,-50.3961"/>
</g>
<!-- Node5 -->
<g id="node5" class="node"><title>Node5</title>
<g id="a_node5"><a xlink:href="../../d7/d0b/classFun4AllDstInputManager.html#ade26017b627e0e1f1ec0dec62ac7fd52" target="_top" xlink:title="Fun4AllDstInputManager\l::ReadNextEventSyncObject">
<polygon fill="none" stroke="black" points="675.5,-26.8025 675.5,-56.8025 814.5,-56.8025 814.5,-26.8025 675.5,-26.8025"/>
<text text-anchor="start" x="683.5" y="-44.8025" font-family="FreeSans" font-size="10.00">Fun4AllDstInputManager</text>
<text text-anchor="middle" x="745" y="-33.8025" font-family="FreeSans" font-size="10.00">::ReadNextEventSyncObject</text>
</a>
</g>
</g>
<!-- Node2&#45;&gt;Node5 -->
<g id="edge7" class="edge"><title>Node2&#45;&gt;Node5</title>
<path fill="none" stroke="midnightblue" d="M279.142,-49.0287C298.341,-37.6987 326.803,-22.987 354,-16.8025 477.08,11.1854 512.623,-2.21761 638,-16.8025 655.466,-18.8344 674.231,-22.6893 691.047,-26.7745"/>
<polygon fill="midnightblue" stroke="midnightblue" points="277.242,-46.0878 270.507,-54.2669 280.873,-52.0727 277.242,-46.0878"/>
</g>
<!-- Node6 -->
<g id="node6" class="node"><title>Node6</title>
<g id="a_node6"><a xlink:href="../../d7/d0b/classFun4AllDstInputManager.html#a0244c2edbaa2350038304b09f352c2d0" target="_top" xlink:title="Fun4AllDstInputManager\l::SyncIt">
<polygon fill="none" stroke="black" points="852,-67.8025 852,-97.8025 976,-97.8025 976,-67.8025 852,-67.8025"/>
<text text-anchor="start" x="860" y="-85.8025" font-family="FreeSans" font-size="10.00">Fun4AllDstInputManager</text>
<text text-anchor="middle" x="914" y="-74.8025" font-family="FreeSans" font-size="10.00">::SyncIt</text>
</a>
</g>
</g>
<!-- Node2&#45;&gt;Node6 -->
<g id="edge9" class="edge"><title>Node2&#45;&gt;Node6</title>
<path fill="none" stroke="midnightblue" d="M301.895,-75.7143C318.237,-79.5272 336.841,-83.3833 354,-85.8025 557.494,-114.493 611.77,-127.672 816,-104.803 829.214,-103.323 843.254,-100.743 856.428,-97.8586"/>
<polygon fill="midnightblue" stroke="midnightblue" points="302.584,-72.2807 292.045,-73.359 300.957,-79.0887 302.584,-72.2807"/>
</g>
<!-- Node7 -->
<g id="node7" class="node"><title>Node7</title>
<g id="a_node7"><a xlink:href="../../d7/d0b/classFun4AllDstInputManager.html#aeafa0248f9050c13fdae1bcb93336d7a" target="_top" xlink:title="Fun4AllDstInputManager::run">
<polygon fill="none" stroke="black" points="674,-76.3025 674,-95.3025 816,-95.3025 816,-76.3025 674,-76.3025"/>
<text text-anchor="middle" x="745" y="-83.3025" font-family="FreeSans" font-size="10.00">Fun4AllDstInputManager::run</text>
</a>
</g>
</g>
<!-- Node2&#45;&gt;Node7 -->
<g id="edge8" class="edge"><title>Node2&#45;&gt;Node7</title>
<path fill="none" stroke="midnightblue" d="M327.961,-67.0467C420.866,-71.235 581.511,-78.4772 673.633,-82.6302"/>
<polygon fill="midnightblue" stroke="midnightblue" points="327.953,-63.5428 317.806,-66.5888 327.638,-70.5357 327.953,-63.5428"/>
</g>
<!-- Node4 -->
<g id="node4" class="node"><title>Node4</title>
<g id="a_node4"><a xlink:href="../../d7/d0b/classFun4AllDstInputManager.html#ae4e92b95ae50ab72856d06c99b043496" target="_top" xlink:title="Fun4AllDstInputManager\l::OpenNextFile">
<polygon fill="none" stroke="black" points="514,-26.8025 514,-56.8025 638,-56.8025 638,-26.8025 514,-26.8025"/>
<text text-anchor="start" x="522" y="-44.8025" font-family="FreeSans" font-size="10.00">Fun4AllDstInputManager</text>
<text text-anchor="middle" x="576" y="-33.8025" font-family="FreeSans" font-size="10.00">::OpenNextFile</text>
</a>
</g>
</g>
<!-- Node3&#45;&gt;Node4 -->
<g id="edge3" class="edge"><title>Node3&#45;&gt;Node4</title>
<path fill="none" stroke="midnightblue" d="M488.366,-41.8025C496.863,-41.8025 505.478,-41.8025 513.815,-41.8025"/>
<polygon fill="midnightblue" stroke="midnightblue" points="488.087,-38.3026 478.087,-41.8025 488.087,-45.3026 488.087,-38.3026"/>
</g>
<!-- Node4&#45;&gt;Node5 -->
<g id="edge4" class="edge"><title>Node4&#45;&gt;Node5</title>
<path fill="none" stroke="midnightblue" d="M648.291,-41.8025C657.291,-41.8025 666.483,-41.8025 675.438,-41.8025"/>
<polygon fill="midnightblue" stroke="midnightblue" points="648.236,-38.3026 638.236,-41.8025 648.236,-45.3026 648.236,-38.3026"/>
</g>
<!-- Node4&#45;&gt;Node7 -->
<g id="edge6" class="edge"><title>Node4&#45;&gt;Node7</title>
<path fill="none" stroke="midnightblue" d="M643.874,-59.4219C665.642,-65.1573 688.981,-71.3066 707.646,-76.2242"/>
<polygon fill="midnightblue" stroke="midnightblue" points="644.567,-55.9851 634.005,-56.8218 642.783,-62.7541 644.567,-55.9851"/>
</g>
<!-- Node5&#45;&gt;Node6 -->
<g id="edge5" class="edge"><title>Node5&#45;&gt;Node6</title>
<path fill="none" stroke="midnightblue" d="M817.233,-59.291C828.728,-62.113 840.539,-65.0128 851.771,-67.7703"/>
<polygon fill="midnightblue" stroke="midnightblue" points="817.782,-55.8219 807.236,-56.8366 816.113,-62.62 817.782,-55.8219"/>
</g>
</g>
</svg>
