<?xml version="1.0" encoding="UTF-8" standalone="no"?>
<!DOCTYPE svg PUBLIC "-//W3C//DTD SVG 1.1//EN"
 "http://www.w3.org/Graphics/SVG/1.1/DTD/svg11.dtd">
<!-- Generated by graphviz version 2.36.0 (20140111.2315)
 -->
<!-- Title: PHNodeIOManager::write Pages: 1 -->
<svg width="414pt" height="28pt"
 viewBox="0.00 0.00 414.00 28.00" xmlns="http://www.w3.org/2000/svg" xmlns:xlink="http://www.w3.org/1999/xlink">
<g id="graph0" class="graph" transform="scale(1 1) rotate(0) translate(4 24)">
<title>PHNodeIOManager::write</title>
<!-- Node1 -->
<g id="node1" class="node"><title>Node1</title>
<polygon fill="#bfbfbf" stroke="black" points="0,-0.5 0,-19.5 128,-19.5 128,-0.5 0,-0.5"/>
<text text-anchor="middle" x="64" y="-7.5" font-family="FreeSans" font-size="10.00">PHNodeIOManager::write</text>
</g>
<!-- Node2 -->
<g id="node2" class="node"><title>Node2</title>
<g id="a_node2"><a xlink:href="../../d5/dca/classPHCompositeNode.html#a774f54eea4fcb26e8b98f537efc1c6d9" target="_top" xlink:title="PHCompositeNode::write">
<polygon fill="none" stroke="black" points="164,-0.5 164,-19.5 290,-19.5 290,-0.5 164,-0.5"/>
<text text-anchor="middle" x="227" y="-7.5" font-family="FreeSans" font-size="10.00">PHCompositeNode::write</text>
</a>
</g>
</g>
<!-- Node1&#45;&gt;Node2 -->
<g id="edge1" class="edge"><title>Node1&#45;&gt;Node2</title>
<path fill="none" stroke="midnightblue" d="M128.169,-10C136.499,-10 145.089,-10 153.559,-10"/>
<polygon fill="midnightblue" stroke="midnightblue" points="153.805,-13.5001 163.804,-10 153.804,-6.5001 153.805,-13.5001"/>
</g>
<!-- Node3 -->
<g id="node3" class="node"><title>Node3</title>
<g id="a_node3"><a xlink:href="../../dc/d82/classPHNode.html#a82ef8bef92f7d2cc470bccb042ab57cc" target="_top" xlink:title="PHNode::write">
<polygon fill="none" stroke="black" points="326,-0.5 326,-19.5 406,-19.5 406,-0.5 326,-0.5"/>
<text text-anchor="middle" x="366" y="-7.5" font-family="FreeSans" font-size="10.00">PHNode::write</text>
</a>
</g>
</g>
<!-- Node2&#45;&gt;Node3 -->
<g id="edge2" class="edge"><title>Node2&#45;&gt;Node3</title>
<path fill="none" stroke="midnightblue" d="M290.086,-10C298.649,-10 307.346,-10 315.636,-10"/>
<polygon fill="midnightblue" stroke="midnightblue" points="315.879,-13.5001 325.879,-10 315.879,-6.5001 315.879,-13.5001"/>
</g>
</g>
</svg>
