<?xml version="1.0" encoding="UTF-8" standalone="no"?>
<!DOCTYPE svg PUBLIC "-//W3C//DTD SVG 1.1//EN"
 "http://www.w3.org/Graphics/SVG/1.1/DTD/svg11.dtd">
<!-- Generated by graphviz version 2.36.0 (20140111.2315)
 -->
<!-- Title: PHNodeIOManager::getBranchClassName Pages: 1 -->
<svg width="1172pt" height="125pt"
 viewBox="0.00 0.00 1172.00 125.05" xmlns="http://www.w3.org/2000/svg" xmlns:xlink="http://www.w3.org/1999/xlink">
<g id="graph0" class="graph" transform="scale(1 1) rotate(0) translate(4 121.049)">
<title>PHNodeIOManager::getBranchClassName</title>
<!-- Node1 -->
<g id="node1" class="node"><title>Node1</title>
<polygon fill="#bfbfbf" stroke="black" points="0.5,-48.8025 0.5,-78.8025 151.5,-78.8025 151.5,-48.8025 0.5,-48.8025"/>
<text text-anchor="start" x="8.5" y="-66.8025" font-family="FreeSans" font-size="10.00">PHNodeIOManager::getBranch</text>
<text text-anchor="middle" x="76" y="-55.8025" font-family="FreeSans" font-size="10.00">ClassName</text>
</g>
<!-- Node2 -->
<g id="node2" class="node"><title>Node2</title>
<g id="a_node2"><a xlink:href="../../d7/d4d/classPHNodeIOManager.html#a3882997324989c7dd04e9f6b728af7db" target="_top" xlink:title="PHNodeIOManager::reconstruct\lNodeTree">
<polygon fill="none" stroke="black" points="188.5,-48.8025 188.5,-78.8025 343.5,-78.8025 343.5,-48.8025 188.5,-48.8025"/>
<text text-anchor="start" x="196.5" y="-66.8025" font-family="FreeSans" font-size="10.00">PHNodeIOManager::reconstruct</text>
<text text-anchor="middle" x="266" y="-55.8025" font-family="FreeSans" font-size="10.00">NodeTree</text>
</a>
</g>
</g>
<!-- Node1&#45;&gt;Node2 -->
<g id="edge1" class="edge"><title>Node1&#45;&gt;Node2</title>
<path fill="none" stroke="midnightblue" d="M161.579,-63.8025C170.501,-63.8025 179.536,-63.8025 188.361,-63.8025"/>
<polygon fill="midnightblue" stroke="midnightblue" points="161.573,-60.3026 151.573,-63.8025 161.573,-67.3026 161.573,-60.3026"/>
</g>
<!-- Node3 -->
<g id="node3" class="node"><title>Node3</title>
<g id="a_node3"><a xlink:href="../../d7/d4d/classPHNodeIOManager.html#a92da4bff2438e94d469011b7720f286f" target="_top" xlink:title="PHNodeIOManager::read">
<polygon fill="none" stroke="black" points="380.5,-54.3025 380.5,-73.3025 505.5,-73.3025 505.5,-54.3025 380.5,-54.3025"/>
<text text-anchor="middle" x="443" y="-61.3025" font-family="FreeSans" font-size="10.00">PHNodeIOManager::read</text>
</a>
</g>
</g>
<!-- Node2&#45;&gt;Node3 -->
<g id="edge2" class="edge"><title>Node2&#45;&gt;Node3</title>
<path fill="none" stroke="midnightblue" d="M353.659,-63.8025C362.676,-63.8025 371.706,-63.8025 380.364,-63.8025"/>
<polygon fill="midnightblue" stroke="midnightblue" points="353.503,-60.3026 343.503,-63.8025 353.503,-67.3026 353.503,-60.3026"/>
</g>
<!-- Node4 -->
<g id="node4" class="node"><title>Node4</title>
<g id="a_node4"><a xlink:href="../../d7/d0b/classFun4AllDstInputManager.html#a4d32eadb9f77d41387656b87377ef14f" target="_top" xlink:title="Fun4AllDstInputManager\l::fileopen">
<polygon fill="none" stroke="black" points="542,-26.8025 542,-56.8025 666,-56.8025 666,-26.8025 542,-26.8025"/>
<text text-anchor="start" x="550" y="-44.8025" font-family="FreeSans" font-size="10.00">Fun4AllDstInputManager</text>
<text text-anchor="middle" x="604" y="-33.8025" font-family="FreeSans" font-size="10.00">::fileopen</text>
</a>
</g>
</g>
<!-- Node3&#45;&gt;Node4 -->
<g id="edge3" class="edge"><title>Node3&#45;&gt;Node4</title>
<path fill="none" stroke="midnightblue" d="M515.965,-53.8451C524.582,-52.6529 533.318,-51.4441 541.763,-50.2756"/>
<polygon fill="midnightblue" stroke="midnightblue" points="515.355,-50.3961 505.929,-55.2338 516.314,-57.33 515.355,-50.3961"/>
</g>
<!-- Node6 -->
<g id="node6" class="node"><title>Node6</title>
<g id="a_node6"><a xlink:href="../../d7/d0b/classFun4AllDstInputManager.html#ade26017b627e0e1f1ec0dec62ac7fd52" target="_top" xlink:title="Fun4AllDstInputManager\l::ReadNextEventSyncObject">
<polygon fill="none" stroke="black" points="863.5,-26.8025 863.5,-56.8025 1002.5,-56.8025 1002.5,-26.8025 863.5,-26.8025"/>
<text text-anchor="start" x="871.5" y="-44.8025" font-family="FreeSans" font-size="10.00">Fun4AllDstInputManager</text>
<text text-anchor="middle" x="933" y="-33.8025" font-family="FreeSans" font-size="10.00">::ReadNextEventSyncObject</text>
</a>
</g>
</g>
<!-- Node3&#45;&gt;Node6 -->
<g id="edge10" class="edge"><title>Node3&#45;&gt;Node6</title>
<path fill="none" stroke="midnightblue" d="M467.142,-49.0287C486.341,-37.6987 514.803,-22.987 542,-16.8025 665.08,11.1854 700.623,-2.21761 826,-16.8025 843.466,-18.8344 862.231,-22.6893 879.047,-26.7745"/>
<polygon fill="midnightblue" stroke="midnightblue" points="465.242,-46.0878 458.507,-54.2669 468.873,-52.0727 465.242,-46.0878"/>
</g>
<!-- Node7 -->
<g id="node7" class="node"><title>Node7</title>
<g id="a_node7"><a xlink:href="../../d7/d0b/classFun4AllDstInputManager.html#a0244c2edbaa2350038304b09f352c2d0" target="_top" xlink:title="Fun4AllDstInputManager\l::SyncIt">
<polygon fill="none" stroke="black" points="1040,-67.8025 1040,-97.8025 1164,-97.8025 1164,-67.8025 1040,-67.8025"/>
<text text-anchor="start" x="1048" y="-85.8025" font-family="FreeSans" font-size="10.00">Fun4AllDstInputManager</text>
<text text-anchor="middle" x="1102" y="-74.8025" font-family="FreeSans" font-size="10.00">::SyncIt</text>
</a>
</g>
</g>
<!-- Node3&#45;&gt;Node7 -->
<g id="edge9" class="edge"><title>Node3&#45;&gt;Node7</title>
<path fill="none" stroke="midnightblue" d="M489.895,-75.7143C506.237,-79.5272 524.841,-83.3833 542,-85.8025 745.494,-114.493 799.77,-127.672 1004,-104.803 1017.21,-103.323 1031.25,-100.743 1044.43,-97.8586"/>
<polygon fill="midnightblue" stroke="midnightblue" points="490.584,-72.2807 480.045,-73.359 488.957,-79.0887 490.584,-72.2807"/>
</g>
<!-- Node8 -->
<g id="node8" class="node"><title>Node8</title>
<g id="a_node8"><a xlink:href="../../d7/d0b/classFun4AllDstInputManager.html#aeafa0248f9050c13fdae1bcb93336d7a" target="_top" xlink:title="Fun4AllDstInputManager::run">
<polygon fill="none" stroke="black" points="862,-76.3025 862,-95.3025 1004,-95.3025 1004,-76.3025 862,-76.3025"/>
<text text-anchor="middle" x="933" y="-83.3025" font-family="FreeSans" font-size="10.00">Fun4AllDstInputManager::run</text>
</a>
</g>
</g>
<!-- Node3&#45;&gt;Node8 -->
<g id="edge8" class="edge"><title>Node3&#45;&gt;Node8</title>
<path fill="none" stroke="midnightblue" d="M515.961,-67.0467C608.866,-71.235 769.511,-78.4772 861.633,-82.6302"/>
<polygon fill="midnightblue" stroke="midnightblue" points="515.953,-63.5428 505.806,-66.5888 515.638,-70.5357 515.953,-63.5428"/>
</g>
<!-- Node5 -->
<g id="node5" class="node"><title>Node5</title>
<g id="a_node5"><a xlink:href="../../d7/d0b/classFun4AllDstInputManager.html#ae4e92b95ae50ab72856d06c99b043496" target="_top" xlink:title="Fun4AllDstInputManager\l::OpenNextFile">
<polygon fill="none" stroke="black" points="702,-26.8025 702,-56.8025 826,-56.8025 826,-26.8025 702,-26.8025"/>
<text text-anchor="start" x="710" y="-44.8025" font-family="FreeSans" font-size="10.00">Fun4AllDstInputManager</text>
<text text-anchor="middle" x="764" y="-33.8025" font-family="FreeSans" font-size="10.00">::OpenNextFile</text>
</a>
</g>
</g>
<!-- Node4&#45;&gt;Node5 -->
<g id="edge4" class="edge"><title>Node4&#45;&gt;Node5</title>
<path fill="none" stroke="midnightblue" d="M676.366,-41.8025C684.863,-41.8025 693.478,-41.8025 701.815,-41.8025"/>
<polygon fill="midnightblue" stroke="midnightblue" points="676.087,-38.3026 666.087,-41.8025 676.087,-45.3026 676.087,-38.3026"/>
</g>
<!-- Node5&#45;&gt;Node6 -->
<g id="edge5" class="edge"><title>Node5&#45;&gt;Node6</title>
<path fill="none" stroke="midnightblue" d="M836.291,-41.8025C845.291,-41.8025 854.483,-41.8025 863.438,-41.8025"/>
<polygon fill="midnightblue" stroke="midnightblue" points="836.236,-38.3026 826.236,-41.8025 836.236,-45.3026 836.236,-38.3026"/>
</g>
<!-- Node5&#45;&gt;Node8 -->
<g id="edge7" class="edge"><title>Node5&#45;&gt;Node8</title>
<path fill="none" stroke="midnightblue" d="M831.874,-59.4219C853.642,-65.1573 876.981,-71.3066 895.646,-76.2242"/>
<polygon fill="midnightblue" stroke="midnightblue" points="832.567,-55.9851 822.005,-56.8218 830.783,-62.7541 832.567,-55.9851"/>
</g>
<!-- Node6&#45;&gt;Node7 -->
<g id="edge6" class="edge"><title>Node6&#45;&gt;Node7</title>
<path fill="none" stroke="midnightblue" d="M1005.23,-59.291C1016.73,-62.113 1028.54,-65.0128 1039.77,-67.7703"/>
<polygon fill="midnightblue" stroke="midnightblue" points="1005.78,-55.8219 995.236,-56.8366 1004.11,-62.62 1005.78,-55.8219"/>
</g>
</g>
</svg>
