<?xml version="1.0" encoding="UTF-8" standalone="no"?>
<!DOCTYPE svg PUBLIC "-//W3C//DTD SVG 1.1//EN"
 "http://www.w3.org/Graphics/SVG/1.1/DTD/svg11.dtd">
<!-- Generated by graphviz version 2.36.0 (20140111.2315)
 -->
<!-- Title: PHNodeIOManager::write Pages: 1 -->
<svg width="304pt" height="126pt"
 viewBox="0.00 0.00 304.00 126.00" xmlns="http://www.w3.org/2000/svg" xmlns:xlink="http://www.w3.org/1999/xlink">
<g id="graph0" class="graph" transform="scale(1 1) rotate(0) translate(4 122)">
<title>PHNodeIOManager::write</title>
<!-- Node1 -->
<g id="node1" class="node"><title>Node1</title>
<polygon fill="#bfbfbf" stroke="black" points="0,-49.5 0,-68.5 128,-68.5 128,-49.5 0,-49.5"/>
<text text-anchor="middle" x="64" y="-56.5" font-family="FreeSans" font-size="10.00">PHNodeIOManager::write</text>
</g>
<!-- Node2 -->
<g id="node2" class="node"><title>Node2</title>
<g id="a_node2"><a xlink:href="../../da/daa/classFun4AllDstOutputManager.html#aa4b5b519c6db1540d03007c8c21436fc" target="_top" xlink:title="write starting from given node ">
<polygon fill="none" stroke="black" points="164.5,-88 164.5,-118 295.5,-118 295.5,-88 164.5,-88"/>
<text text-anchor="start" x="172.5" y="-106" font-family="FreeSans" font-size="10.00">Fun4AllDstOutputManager</text>
<text text-anchor="middle" x="230" y="-95" font-family="FreeSans" font-size="10.00">::Write</text>
</a>
</g>
</g>
<!-- Node1&#45;&gt;Node2 -->
<g id="edge1" class="edge"><title>Node1&#45;&gt;Node2</title>
<path fill="none" stroke="midnightblue" d="M110.356,-71.1687C129.696,-76.3574 152.459,-82.4646 172.847,-87.9346"/>
<polygon fill="midnightblue" stroke="midnightblue" points="111.151,-67.7583 100.586,-68.5473 109.337,-74.5192 111.151,-67.7583"/>
</g>
<!-- Node3 -->
<g id="node3" class="node"><title>Node3</title>
<g id="a_node3"><a xlink:href="../../d9/dde/classPHIODataNode.html#a85de85728a52af6aac318b64179ffd2f" target="_top" xlink:title="PHIODataNode::write">
<polygon fill="none" stroke="black" points="175,-49.5 175,-68.5 285,-68.5 285,-49.5 175,-49.5"/>
<text text-anchor="middle" x="230" y="-56.5" font-family="FreeSans" font-size="10.00">PHIODataNode::write</text>
</a>
</g>
</g>
<!-- Node1&#45;&gt;Node3 -->
<g id="edge2" class="edge"><title>Node1&#45;&gt;Node3</title>
<path fill="none" stroke="midnightblue" d="M138.57,-59C150.768,-59 163.217,-59 174.823,-59"/>
<polygon fill="midnightblue" stroke="midnightblue" points="138.407,-55.5001 128.407,-59 138.407,-62.5001 138.407,-55.5001"/>
</g>
<!-- Node4 -->
<g id="node4" class="node"><title>Node4</title>
<g id="a_node4"><a xlink:href="../../da/daa/classFun4AllDstOutputManager.html#ac839ec7d93dd52ca363c8307fa88cb94" target="_top" xlink:title="write specified node ">
<polygon fill="none" stroke="black" points="164.5,-0 164.5,-30 295.5,-30 295.5,-0 164.5,-0"/>
<text text-anchor="start" x="172.5" y="-18" font-family="FreeSans" font-size="10.00">Fun4AllDstOutputManager</text>
<text text-anchor="middle" x="230" y="-7" font-family="FreeSans" font-size="10.00">::WriteNode</text>
</a>
</g>
</g>
<!-- Node1&#45;&gt;Node4 -->
<g id="edge3" class="edge"><title>Node1&#45;&gt;Node4</title>
<path fill="none" stroke="midnightblue" d="M110.356,-46.8313C129.696,-41.6426 152.459,-35.5354 172.847,-30.0654"/>
<polygon fill="midnightblue" stroke="midnightblue" points="109.337,-43.4808 100.586,-49.4527 111.151,-50.2417 109.337,-43.4808"/>
</g>
</g>
</svg>
