<?xml version="1.0" encoding="UTF-8" standalone="no"?>
<!DOCTYPE svg PUBLIC "-//W3C//DTD SVG 1.1//EN"
 "http://www.w3.org/Graphics/SVG/1.1/DTD/svg11.dtd">
<!-- Generated by graphviz version 2.36.0 (20140111.2315)
 -->
<!-- Title: PHNodeIOManager::write Pages: 1 -->
<svg width="280pt" height="66pt"
 viewBox="0.00 0.00 280.00 66.00" xmlns="http://www.w3.org/2000/svg" xmlns:xlink="http://www.w3.org/1999/xlink">
<g id="graph0" class="graph" transform="scale(1 1) rotate(0) translate(4 62)">
<title>PHNodeIOManager::write</title>
<!-- Node1 -->
<g id="node1" class="node"><title>Node1</title>
<polygon fill="#bfbfbf" stroke="black" points="0,-19.5 0,-38.5 128,-38.5 128,-19.5 0,-19.5"/>
<text text-anchor="middle" x="64" y="-26.5" font-family="FreeSans" font-size="10.00">PHNodeIOManager::write</text>
</g>
<!-- Node2 -->
<g id="node2" class="node"><title>Node2</title>
<g id="a_node2"><a xlink:href="../../d9/d24/classPHObject.html#abc18c528854b808adc0dce3ed0431065" target="_top" xlink:title="PHObject::BufferSize">
<polygon fill="none" stroke="black" points="164,-38.5 164,-57.5 272,-57.5 272,-38.5 164,-38.5"/>
<text text-anchor="middle" x="218" y="-45.5" font-family="FreeSans" font-size="10.00">PHObject::BufferSize</text>
</a>
</g>
</g>
<!-- Node1&#45;&gt;Node2 -->
<g id="edge1" class="edge"><title>Node1&#45;&gt;Node2</title>
<path fill="none" stroke="midnightblue" d="M128.141,-36.8926C136.607,-37.9509 145.293,-39.0366 153.761,-40.0951"/>
<polygon fill="midnightblue" stroke="midnightblue" points="153.596,-43.6016 163.953,-41.3691 154.464,-36.6557 153.596,-43.6016"/>
</g>
<!-- Node3 -->
<g id="node3" class="node"><title>Node3</title>
<g id="a_node3"><a xlink:href="../../d9/d24/classPHObject.html#ab31eb105fb44d43de8f1a77709ed3ed4" target="_top" xlink:title="PHObject::SplitLevel">
<polygon fill="none" stroke="black" points="164.5,-0.5 164.5,-19.5 271.5,-19.5 271.5,-0.5 164.5,-0.5"/>
<text text-anchor="middle" x="218" y="-7.5" font-family="FreeSans" font-size="10.00">PHObject::SplitLevel</text>
</a>
</g>
</g>
<!-- Node1&#45;&gt;Node3 -->
<g id="edge2" class="edge"><title>Node1&#45;&gt;Node3</title>
<path fill="none" stroke="midnightblue" d="M128.141,-21.1074C136.818,-20.0228 145.725,-18.9094 154.392,-17.826"/>
<polygon fill="midnightblue" stroke="midnightblue" points="154.939,-21.285 164.427,-16.5716 154.071,-14.339 154.939,-21.285"/>
</g>
</g>
</svg>
