<?xml version="1.0" encoding="UTF-8" standalone="no"?>
<!DOCTYPE svg PUBLIC "-//W3C//DTD SVG 1.1//EN"
 "http://www.w3.org/Graphics/SVG/1.1/DTD/svg11.dtd">
<!-- Generated by graphviz version 2.36.0 (20140111.2315)
 -->
<!-- Title: PHNodeIOManager::read Pages: 1 -->
<svg width="792pt" height="125pt"
 viewBox="0.00 0.00 792.00 125.05" xmlns="http://www.w3.org/2000/svg" xmlns:xlink="http://www.w3.org/1999/xlink">
<g id="graph0" class="graph" transform="scale(1 1) rotate(0) translate(4 121.049)">
<title>PHNodeIOManager::read</title>
<!-- Node1 -->
<g id="node1" class="node"><title>Node1</title>
<polygon fill="#bfbfbf" stroke="black" points="0.5,-54.3025 0.5,-73.3025 125.5,-73.3025 125.5,-54.3025 0.5,-54.3025"/>
<text text-anchor="middle" x="63" y="-61.3025" font-family="FreeSans" font-size="10.00">PHNodeIOManager::read</text>
</g>
<!-- Node2 -->
<g id="node2" class="node"><title>Node2</title>
<g id="a_node2"><a xlink:href="../../d7/d0b/classFun4AllDstInputManager.html#a4d32eadb9f77d41387656b87377ef14f" target="_top" xlink:title="Fun4AllDstInputManager\l::fileopen">
<polygon fill="none" stroke="black" points="162,-26.8025 162,-56.8025 286,-56.8025 286,-26.8025 162,-26.8025"/>
<text text-anchor="start" x="170" y="-44.8025" font-family="FreeSans" font-size="10.00">Fun4AllDstInputManager</text>
<text text-anchor="middle" x="224" y="-33.8025" font-family="FreeSans" font-size="10.00">::fileopen</text>
</a>
</g>
</g>
<!-- Node1&#45;&gt;Node2 -->
<g id="edge1" class="edge"><title>Node1&#45;&gt;Node2</title>
<path fill="none" stroke="midnightblue" d="M135.965,-53.8451C144.582,-52.6529 153.318,-51.4441 161.763,-50.2756"/>
<polygon fill="midnightblue" stroke="midnightblue" points="135.355,-50.3961 125.929,-55.2338 136.314,-57.33 135.355,-50.3961"/>
</g>
<!-- Node4 -->
<g id="node4" class="node"><title>Node4</title>
<g id="a_node4"><a xlink:href="../../d7/d0b/classFun4AllDstInputManager.html#ade26017b627e0e1f1ec0dec62ac7fd52" target="_top" xlink:title="Fun4AllDstInputManager\l::ReadNextEventSyncObject">
<polygon fill="none" stroke="black" points="483.5,-26.8025 483.5,-56.8025 622.5,-56.8025 622.5,-26.8025 483.5,-26.8025"/>
<text text-anchor="start" x="491.5" y="-44.8025" font-family="FreeSans" font-size="10.00">Fun4AllDstInputManager</text>
<text text-anchor="middle" x="553" y="-33.8025" font-family="FreeSans" font-size="10.00">::ReadNextEventSyncObject</text>
</a>
</g>
</g>
<!-- Node1&#45;&gt;Node4 -->
<g id="edge6" class="edge"><title>Node1&#45;&gt;Node4</title>
<path fill="none" stroke="midnightblue" d="M87.1422,-49.0287C106.341,-37.6987 134.803,-22.987 162,-16.8025 285.08,11.1854 320.623,-2.21761 446,-16.8025 463.466,-18.8344 482.231,-22.6893 499.047,-26.7745"/>
<polygon fill="midnightblue" stroke="midnightblue" points="85.242,-46.0878 78.5075,-54.2669 88.8726,-52.0727 85.242,-46.0878"/>
</g>
<!-- Node5 -->
<g id="node5" class="node"><title>Node5</title>
<g id="a_node5"><a xlink:href="../../d7/d0b/classFun4AllDstInputManager.html#a0244c2edbaa2350038304b09f352c2d0" target="_top" xlink:title="Fun4AllDstInputManager\l::SyncIt">
<polygon fill="none" stroke="black" points="660,-67.8025 660,-97.8025 784,-97.8025 784,-67.8025 660,-67.8025"/>
<text text-anchor="start" x="668" y="-85.8025" font-family="FreeSans" font-size="10.00">Fun4AllDstInputManager</text>
<text text-anchor="middle" x="722" y="-74.8025" font-family="FreeSans" font-size="10.00">::SyncIt</text>
</a>
</g>
</g>
<!-- Node1&#45;&gt;Node5 -->
<g id="edge8" class="edge"><title>Node1&#45;&gt;Node5</title>
<path fill="none" stroke="midnightblue" d="M109.895,-75.7143C126.237,-79.5272 144.841,-83.3833 162,-85.8025 365.494,-114.493 419.77,-127.672 624,-104.803 637.214,-103.323 651.254,-100.743 664.428,-97.8586"/>
<polygon fill="midnightblue" stroke="midnightblue" points="110.584,-72.2807 100.045,-73.359 108.957,-79.0887 110.584,-72.2807"/>
</g>
<!-- Node6 -->
<g id="node6" class="node"><title>Node6</title>
<g id="a_node6"><a xlink:href="../../d7/d0b/classFun4AllDstInputManager.html#aeafa0248f9050c13fdae1bcb93336d7a" target="_top" xlink:title="Fun4AllDstInputManager::run">
<polygon fill="none" stroke="black" points="482,-76.3025 482,-95.3025 624,-95.3025 624,-76.3025 482,-76.3025"/>
<text text-anchor="middle" x="553" y="-83.3025" font-family="FreeSans" font-size="10.00">Fun4AllDstInputManager::run</text>
</a>
</g>
</g>
<!-- Node1&#45;&gt;Node6 -->
<g id="edge7" class="edge"><title>Node1&#45;&gt;Node6</title>
<path fill="none" stroke="midnightblue" d="M135.961,-67.0467C228.866,-71.235 389.511,-78.4772 481.633,-82.6302"/>
<polygon fill="midnightblue" stroke="midnightblue" points="135.953,-63.5428 125.806,-66.5888 135.638,-70.5357 135.953,-63.5428"/>
</g>
<!-- Node3 -->
<g id="node3" class="node"><title>Node3</title>
<g id="a_node3"><a xlink:href="../../d7/d0b/classFun4AllDstInputManager.html#ae4e92b95ae50ab72856d06c99b043496" target="_top" xlink:title="Fun4AllDstInputManager\l::OpenNextFile">
<polygon fill="none" stroke="black" points="322,-26.8025 322,-56.8025 446,-56.8025 446,-26.8025 322,-26.8025"/>
<text text-anchor="start" x="330" y="-44.8025" font-family="FreeSans" font-size="10.00">Fun4AllDstInputManager</text>
<text text-anchor="middle" x="384" y="-33.8025" font-family="FreeSans" font-size="10.00">::OpenNextFile</text>
</a>
</g>
</g>
<!-- Node2&#45;&gt;Node3 -->
<g id="edge2" class="edge"><title>Node2&#45;&gt;Node3</title>
<path fill="none" stroke="midnightblue" d="M296.366,-41.8025C304.863,-41.8025 313.478,-41.8025 321.815,-41.8025"/>
<polygon fill="midnightblue" stroke="midnightblue" points="296.087,-38.3026 286.087,-41.8025 296.087,-45.3026 296.087,-38.3026"/>
</g>
<!-- Node3&#45;&gt;Node4 -->
<g id="edge3" class="edge"><title>Node3&#45;&gt;Node4</title>
<path fill="none" stroke="midnightblue" d="M456.291,-41.8025C465.291,-41.8025 474.483,-41.8025 483.438,-41.8025"/>
<polygon fill="midnightblue" stroke="midnightblue" points="456.236,-38.3026 446.236,-41.8025 456.236,-45.3026 456.236,-38.3026"/>
</g>
<!-- Node3&#45;&gt;Node6 -->
<g id="edge5" class="edge"><title>Node3&#45;&gt;Node6</title>
<path fill="none" stroke="midnightblue" d="M451.874,-59.4219C473.642,-65.1573 496.981,-71.3066 515.646,-76.2242"/>
<polygon fill="midnightblue" stroke="midnightblue" points="452.567,-55.9851 442.005,-56.8218 450.783,-62.7541 452.567,-55.9851"/>
</g>
<!-- Node4&#45;&gt;Node5 -->
<g id="edge4" class="edge"><title>Node4&#45;&gt;Node5</title>
<path fill="none" stroke="midnightblue" d="M625.233,-59.291C636.728,-62.113 648.539,-65.0128 659.771,-67.7703"/>
<polygon fill="midnightblue" stroke="midnightblue" points="625.782,-55.8219 615.236,-56.8366 624.113,-62.62 625.782,-55.8219"/>
</g>
</g>
</svg>
