<?xml version="1.0" encoding="UTF-8" standalone="no"?>
<!DOCTYPE svg PUBLIC "-//W3C//DTD SVG 1.1//EN"
 "http://www.w3.org/Graphics/SVG/1.1/DTD/svg11.dtd">
<!-- Generated by graphviz version 2.36.0 (20140111.2315)
 -->
<!-- Title: PHNodeIOManager::isFunctional Pages: 1 -->
<svg width="838pt" height="159pt"
 viewBox="0.00 0.00 838.00 159.00" xmlns="http://www.w3.org/2000/svg" xmlns:xlink="http://www.w3.org/1999/xlink">
<g id="graph0" class="graph" transform="scale(1 1) rotate(0) translate(4 155)">
<title>PHNodeIOManager::isFunctional</title>
<!-- Node1 -->
<g id="node1" class="node"><title>Node1</title>
<polygon fill="#bfbfbf" stroke="black" points="0.5,-55.5 0.5,-74.5 159.5,-74.5 159.5,-55.5 0.5,-55.5"/>
<text text-anchor="middle" x="80" y="-62.5" font-family="FreeSans" font-size="10.00">PHNodeIOManager::isFunctional</text>
</g>
<!-- Node2 -->
<g id="node2" class="node"><title>Node2</title>
<g id="a_node2"><a xlink:href="../../d7/d0b/classFun4AllDstInputManager.html#a4d32eadb9f77d41387656b87377ef14f" target="_top" xlink:title="Fun4AllDstInputManager\l::fileopen">
<polygon fill="none" stroke="black" points="202,-99 202,-129 326,-129 326,-99 202,-99"/>
<text text-anchor="start" x="210" y="-117" font-family="FreeSans" font-size="10.00">Fun4AllDstInputManager</text>
<text text-anchor="middle" x="264" y="-106" font-family="FreeSans" font-size="10.00">::fileopen</text>
</a>
</g>
</g>
<!-- Node1&#45;&gt;Node2 -->
<g id="edge1" class="edge"><title>Node1&#45;&gt;Node2</title>
<path fill="none" stroke="midnightblue" d="M126.276,-77.1896C150.757,-83.7808 181.205,-91.9782 207.148,-98.963"/>
<polygon fill="midnightblue" stroke="midnightblue" points="127.09,-73.7842 116.523,-74.564 125.27,-80.5435 127.09,-73.7842"/>
</g>
<!-- Node7 -->
<g id="node7" class="node"><title>Node7</title>
<g id="a_node7"><a xlink:href="../../da/daa/classFun4AllDstOutputManager.html#ab35afe1cb4af035c5a145fa4aef50809" target="_top" xlink:title="Fun4AllDstOutputManager\l::Fun4AllDstOutputManager">
<polygon fill="none" stroke="black" points="196,-50 196,-80 332,-80 332,-50 196,-50"/>
<text text-anchor="start" x="204" y="-68" font-family="FreeSans" font-size="10.00">Fun4AllDstOutputManager</text>
<text text-anchor="middle" x="264" y="-57" font-family="FreeSans" font-size="10.00">::Fun4AllDstOutputManager</text>
</a>
</g>
</g>
<!-- Node1&#45;&gt;Node7 -->
<g id="edge6" class="edge"><title>Node1&#45;&gt;Node7</title>
<path fill="none" stroke="midnightblue" d="M169.785,-65C178.569,-65 187.381,-65 195.893,-65"/>
<polygon fill="midnightblue" stroke="midnightblue" points="169.505,-61.5001 159.505,-65 169.505,-68.5001 169.505,-61.5001"/>
</g>
<!-- Node8 -->
<g id="node8" class="node"><title>Node8</title>
<g id="a_node8"><a xlink:href="../../da/daa/classFun4AllDstOutputManager.html#af198050f44463c4c11e305e1a156eb96" target="_top" xlink:title="opens output file ">
<polygon fill="none" stroke="black" points="198.5,-1 198.5,-31 329.5,-31 329.5,-1 198.5,-1"/>
<text text-anchor="start" x="206.5" y="-19" font-family="FreeSans" font-size="10.00">Fun4AllDstOutputManager</text>
<text text-anchor="middle" x="264" y="-8" font-family="FreeSans" font-size="10.00">::outfileopen</text>
</a>
</g>
</g>
<!-- Node1&#45;&gt;Node8 -->
<g id="edge7" class="edge"><title>Node1&#45;&gt;Node8</title>
<path fill="none" stroke="midnightblue" d="M126.276,-52.8104C150.757,-46.2192 181.205,-38.0218 207.148,-31.037"/>
<polygon fill="midnightblue" stroke="midnightblue" points="125.27,-49.4565 116.523,-55.436 127.09,-56.2158 125.27,-49.4565"/>
</g>
<!-- Node3 -->
<g id="node3" class="node"><title>Node3</title>
<g id="a_node3"><a xlink:href="../../d7/d0b/classFun4AllDstInputManager.html#ae4e92b95ae50ab72856d06c99b043496" target="_top" xlink:title="Fun4AllDstInputManager\l::OpenNextFile">
<polygon fill="none" stroke="black" points="368,-99 368,-129 492,-129 492,-99 368,-99"/>
<text text-anchor="start" x="376" y="-117" font-family="FreeSans" font-size="10.00">Fun4AllDstInputManager</text>
<text text-anchor="middle" x="430" y="-106" font-family="FreeSans" font-size="10.00">::OpenNextFile</text>
</a>
</g>
</g>
<!-- Node2&#45;&gt;Node3 -->
<g id="edge2" class="edge"><title>Node2&#45;&gt;Node3</title>
<path fill="none" stroke="midnightblue" d="M336.115,-114C346.698,-114 357.528,-114 367.881,-114"/>
<polygon fill="midnightblue" stroke="midnightblue" points="336.068,-110.5 326.068,-114 336.068,-117.5 336.068,-110.5"/>
</g>
<!-- Node4 -->
<g id="node4" class="node"><title>Node4</title>
<g id="a_node4"><a xlink:href="../../d7/d0b/classFun4AllDstInputManager.html#ade26017b627e0e1f1ec0dec62ac7fd52" target="_top" xlink:title="Fun4AllDstInputManager\l::ReadNextEventSyncObject">
<polygon fill="none" stroke="black" points="529.5,-121 529.5,-151 668.5,-151 668.5,-121 529.5,-121"/>
<text text-anchor="start" x="537.5" y="-139" font-family="FreeSans" font-size="10.00">Fun4AllDstInputManager</text>
<text text-anchor="middle" x="599" y="-128" font-family="FreeSans" font-size="10.00">::ReadNextEventSyncObject</text>
</a>
</g>
</g>
<!-- Node3&#45;&gt;Node4 -->
<g id="edge3" class="edge"><title>Node3&#45;&gt;Node4</title>
<path fill="none" stroke="midnightblue" d="M502.291,-123.392C511.291,-124.577 520.483,-125.788 529.438,-126.968"/>
<polygon fill="midnightblue" stroke="midnightblue" points="502.608,-119.903 492.236,-122.067 501.694,-126.843 502.608,-119.903"/>
</g>
<!-- Node6 -->
<g id="node6" class="node"><title>Node6</title>
<g id="a_node6"><a xlink:href="../../d7/d0b/classFun4AllDstInputManager.html#aeafa0248f9050c13fdae1bcb93336d7a" target="_top" xlink:title="Fun4AllDstInputManager::run">
<polygon fill="none" stroke="black" points="528,-82.5 528,-101.5 670,-101.5 670,-82.5 528,-82.5"/>
<text text-anchor="middle" x="599" y="-89.5" font-family="FreeSans" font-size="10.00">Fun4AllDstInputManager::run</text>
</a>
</g>
</g>
<!-- Node3&#45;&gt;Node6 -->
<g id="edge5" class="edge"><title>Node3&#45;&gt;Node6</title>
<path fill="none" stroke="midnightblue" d="M502.376,-104.597C510.777,-103.491 519.344,-102.362 527.729,-101.257"/>
<polygon fill="midnightblue" stroke="midnightblue" points="501.694,-101.157 492.236,-105.933 502.608,-108.097 501.694,-101.157"/>
</g>
<!-- Node5 -->
<g id="node5" class="node"><title>Node5</title>
<g id="a_node5"><a xlink:href="../../d7/d0b/classFun4AllDstInputManager.html#a0244c2edbaa2350038304b09f352c2d0" target="_top" xlink:title="Fun4AllDstInputManager\l::SyncIt">
<polygon fill="none" stroke="black" points="706,-121 706,-151 830,-151 830,-121 706,-121"/>
<text text-anchor="start" x="714" y="-139" font-family="FreeSans" font-size="10.00">Fun4AllDstInputManager</text>
<text text-anchor="middle" x="768" y="-128" font-family="FreeSans" font-size="10.00">::SyncIt</text>
</a>
</g>
</g>
<!-- Node4&#45;&gt;Node5 -->
<g id="edge4" class="edge"><title>Node4&#45;&gt;Node5</title>
<path fill="none" stroke="midnightblue" d="M678.987,-136C687.977,-136 697.037,-136 705.749,-136"/>
<polygon fill="midnightblue" stroke="midnightblue" points="678.889,-132.5 668.889,-136 678.889,-139.5 678.889,-132.5"/>
</g>
</g>
</svg>
