<?xml version="1.0" encoding="UTF-8" standalone="no"?>
<!DOCTYPE svg PUBLIC "-//W3C//DTD SVG 1.1//EN"
 "http://www.w3.org/Graphics/SVG/1.1/DTD/svg11.dtd">
<!-- Generated by graphviz version 2.36.0 (20140111.2315)
 -->
<!-- Title: PHNodeIOManager::SetCompressionLevel Pages: 1 -->
<svg width="360pt" height="87pt"
 viewBox="0.00 0.00 360.00 87.00" xmlns="http://www.w3.org/2000/svg" xmlns:xlink="http://www.w3.org/1999/xlink">
<g id="graph0" class="graph" transform="scale(1 1) rotate(0) translate(4 83)">
<title>PHNodeIOManager::SetCompressionLevel</title>
<!-- Node1 -->
<g id="node1" class="node"><title>Node1</title>
<polygon fill="#bfbfbf" stroke="black" points="0.5,-24 0.5,-54 179.5,-54 179.5,-24 0.5,-24"/>
<text text-anchor="start" x="8.5" y="-42" font-family="FreeSans" font-size="10.00">PHNodeIOManager::SetCompression</text>
<text text-anchor="middle" x="90" y="-31" font-family="FreeSans" font-size="10.00">Level</text>
</g>
<!-- Node2 -->
<g id="node2" class="node"><title>Node2</title>
<g id="a_node2"><a xlink:href="../../da/daa/classFun4AllDstOutputManager.html#ab35afe1cb4af035c5a145fa4aef50809" target="_top" xlink:title="Fun4AllDstOutputManager\l::Fun4AllDstOutputManager">
<polygon fill="none" stroke="black" points="216,-49 216,-79 352,-79 352,-49 216,-49"/>
<text text-anchor="start" x="224" y="-67" font-family="FreeSans" font-size="10.00">Fun4AllDstOutputManager</text>
<text text-anchor="middle" x="284" y="-56" font-family="FreeSans" font-size="10.00">::Fun4AllDstOutputManager</text>
</a>
</g>
</g>
<!-- Node1&#45;&gt;Node2 -->
<g id="edge1" class="edge"><title>Node1&#45;&gt;Node2</title>
<path fill="none" stroke="midnightblue" d="M189.708,-51.8525C198.58,-53.0078 207.421,-54.159 215.928,-55.2666"/>
<polygon fill="midnightblue" stroke="midnightblue" points="190.062,-48.3692 179.694,-50.5487 189.158,-55.3106 190.062,-48.3692"/>
</g>
<!-- Node3 -->
<g id="node3" class="node"><title>Node3</title>
<g id="a_node3"><a xlink:href="../../da/daa/classFun4AllDstOutputManager.html#af198050f44463c4c11e305e1a156eb96" target="_top" xlink:title="opens output file ">
<polygon fill="none" stroke="black" points="218.5,-0 218.5,-30 349.5,-30 349.5,-0 218.5,-0"/>
<text text-anchor="start" x="226.5" y="-18" font-family="FreeSans" font-size="10.00">Fun4AllDstOutputManager</text>
<text text-anchor="middle" x="284" y="-7" font-family="FreeSans" font-size="10.00">::outfileopen</text>
</a>
</g>
</g>
<!-- Node1&#45;&gt;Node3 -->
<g id="edge2" class="edge"><title>Node1&#45;&gt;Node3</title>
<path fill="none" stroke="midnightblue" d="M189.821,-26.6474C199.541,-25.4324 209.223,-24.2222 218.467,-23.0666"/>
<polygon fill="midnightblue" stroke="midnightblue" points="189.182,-23.1999 179.694,-27.9133 190.051,-30.1458 189.182,-23.1999"/>
</g>
</g>
</svg>
