<?xml version="1.0" encoding="UTF-8" standalone="no"?>
<!DOCTYPE svg PUBLIC "-//W3C//DTD SVG 1.1//EN"
 "http://www.w3.org/Graphics/SVG/1.1/DTD/svg11.dtd">
<!-- Generated by graphviz version 2.36.0 (20140111.2315)
 -->
<!-- Title: PHNodeIOManager::FillBranchMap Pages: 1 -->
<svg width="722pt" height="38pt"
 viewBox="0.00 0.00 722.00 38.00" xmlns="http://www.w3.org/2000/svg" xmlns:xlink="http://www.w3.org/1999/xlink">
<g id="graph0" class="graph" transform="scale(1 1) rotate(0) translate(4 34)">
<title>PHNodeIOManager::FillBranchMap</title>
<!-- Node1 -->
<g id="node1" class="node"><title>Node1</title>
<polygon fill="#bfbfbf" stroke="black" points="0.5,-5.5 0.5,-24.5 169.5,-24.5 169.5,-5.5 0.5,-5.5"/>
<text text-anchor="middle" x="85" y="-12.5" font-family="FreeSans" font-size="10.00">PHNodeIOManager::FillBranchMap</text>
</g>
<!-- Node2 -->
<g id="node2" class="node"><title>Node2</title>
<g id="a_node2"><a xlink:href="../../d7/d4d/classPHNodeIOManager.html#aecc6cb5d504ebfcf073084cc4dc79634" target="_top" xlink:title="PHNodeIOManager::GetBranchMap">
<polygon fill="none" stroke="black" points="206,-5.5 206,-24.5 378,-24.5 378,-5.5 206,-5.5"/>
<text text-anchor="middle" x="292" y="-12.5" font-family="FreeSans" font-size="10.00">PHNodeIOManager::GetBranchMap</text>
</a>
</g>
</g>
<!-- Node1&#45;&gt;Node2 -->
<g id="edge1" class="edge"><title>Node1&#45;&gt;Node2</title>
<path fill="none" stroke="midnightblue" d="M179.835,-15C188.533,-15 197.315,-15 205.928,-15"/>
<polygon fill="midnightblue" stroke="midnightblue" points="179.677,-11.5001 169.677,-15 179.677,-18.5001 179.677,-11.5001"/>
</g>
<!-- Node3 -->
<g id="node3" class="node"><title>Node3</title>
<g id="a_node3"><a xlink:href="../../d7/d0b/classFun4AllDstInputManager.html#ade26017b627e0e1f1ec0dec62ac7fd52" target="_top" xlink:title="Fun4AllDstInputManager\l::ReadNextEventSyncObject">
<polygon fill="none" stroke="black" points="414.5,-0 414.5,-30 553.5,-30 553.5,-0 414.5,-0"/>
<text text-anchor="start" x="422.5" y="-18" font-family="FreeSans" font-size="10.00">Fun4AllDstInputManager</text>
<text text-anchor="middle" x="484" y="-7" font-family="FreeSans" font-size="10.00">::ReadNextEventSyncObject</text>
</a>
</g>
</g>
<!-- Node2&#45;&gt;Node3 -->
<g id="edge2" class="edge"><title>Node2&#45;&gt;Node3</title>
<path fill="none" stroke="midnightblue" d="M388.461,-15C397.153,-15 405.839,-15 414.228,-15"/>
<polygon fill="midnightblue" stroke="midnightblue" points="388.274,-11.5001 378.274,-15 388.274,-18.5001 388.274,-11.5001"/>
</g>
<!-- Node4 -->
<g id="node4" class="node"><title>Node4</title>
<g id="a_node4"><a xlink:href="../../d7/d0b/classFun4AllDstInputManager.html#a0244c2edbaa2350038304b09f352c2d0" target="_top" xlink:title="Fun4AllDstInputManager\l::SyncIt">
<polygon fill="none" stroke="black" points="590,-0 590,-30 714,-30 714,-0 590,-0"/>
<text text-anchor="start" x="598" y="-18" font-family="FreeSans" font-size="10.00">Fun4AllDstInputManager</text>
<text text-anchor="middle" x="652" y="-7" font-family="FreeSans" font-size="10.00">::SyncIt</text>
</a>
</g>
</g>
<!-- Node3&#45;&gt;Node4 -->
<g id="edge3" class="edge"><title>Node3&#45;&gt;Node4</title>
<path fill="none" stroke="midnightblue" d="M564.1,-15C572.783,-15 581.522,-15 589.937,-15"/>
<polygon fill="midnightblue" stroke="midnightblue" points="563.957,-11.5001 553.957,-15 563.957,-18.5001 563.957,-11.5001"/>
</g>
</g>
</svg>
