<?xml version="1.0" encoding="UTF-8" standalone="no"?>
<!DOCTYPE svg PUBLIC "-//W3C//DTD SVG 1.1//EN"
 "http://www.w3.org/Graphics/SVG/1.1/DTD/svg11.dtd">
<!-- Generated by graphviz version 2.36.0 (20140111.2315)
 -->
<!-- Title: PHNodeIOManager::closeFile Pages: 1 -->
<svg width="568pt" height="77pt"
 viewBox="0.00 0.00 568.00 77.00" xmlns="http://www.w3.org/2000/svg" xmlns:xlink="http://www.w3.org/1999/xlink">
<g id="graph0" class="graph" transform="scale(1 1) rotate(0) translate(4 73)">
<title>PHNodeIOManager::closeFile</title>
<!-- Node1 -->
<g id="node1" class="node"><title>Node1</title>
<polygon fill="#bfbfbf" stroke="black" points="0,-27.5 0,-46.5 146,-46.5 146,-27.5 0,-27.5"/>
<text text-anchor="middle" x="73" y="-34.5" font-family="FreeSans" font-size="10.00">PHNodeIOManager::closeFile</text>
</g>
<!-- Node2 -->
<g id="node2" class="node"><title>Node2</title>
<g id="a_node2"><a xlink:href="../../d7/d4d/classPHNodeIOManager.html#a5d6181baf8cf3741d062e1b50eb8c131" target="_top" xlink:title="PHNodeIOManager::setFile">
<polygon fill="none" stroke="black" points="189,-49.5 189,-68.5 325,-68.5 325,-49.5 189,-49.5"/>
<text text-anchor="middle" x="257" y="-56.5" font-family="FreeSans" font-size="10.00">PHNodeIOManager::setFile</text>
</a>
</g>
</g>
<!-- Node1&#45;&gt;Node2 -->
<g id="edge1" class="edge"><title>Node1&#45;&gt;Node2</title>
<path fill="none" stroke="midnightblue" d="M156.187,-46.9347C167.142,-48.2589 178.269,-49.604 188.926,-50.8921"/>
<polygon fill="midnightblue" stroke="midnightblue" points="156.54,-43.452 146.193,-45.7266 155.7,-50.4014 156.54,-43.452"/>
</g>
<!-- Node4 -->
<g id="node4" class="node"><title>Node4</title>
<g id="a_node4"><a xlink:href="../../d7/d4d/classPHNodeIOManager.html#a7c68ffe5937e4fd98583d2789f8d3b40" target="_top" xlink:title="PHNodeIOManager::~PHNode\lIOManager">
<polygon fill="none" stroke="black" points="182.5,-0 182.5,-30 331.5,-30 331.5,-0 182.5,-0"/>
<text text-anchor="start" x="190.5" y="-18" font-family="FreeSans" font-size="10.00">PHNodeIOManager::~PHNode</text>
<text text-anchor="middle" x="257" y="-7" font-family="FreeSans" font-size="10.00">IOManager</text>
</a>
</g>
</g>
<!-- Node1&#45;&gt;Node4 -->
<g id="edge3" class="edge"><title>Node1&#45;&gt;Node4</title>
<path fill="none" stroke="midnightblue" d="M156.329,-27.0482C165.021,-25.9975 173.82,-24.9339 182.404,-23.8962"/>
<polygon fill="midnightblue" stroke="midnightblue" points="155.7,-23.5986 146.193,-28.2734 156.54,-30.548 155.7,-23.5986"/>
</g>
<!-- Node3 -->
<g id="node3" class="node"><title>Node3</title>
<g id="a_node3"><a xlink:href="../../d7/d4d/classPHNodeIOManager.html#a97ea7a7609bed69ee8a9ac47296172a7" target="_top" xlink:title="PHNodeIOManager::PHNodeIOManager">
<polygon fill="none" stroke="black" points="368,-49.5 368,-68.5 560,-68.5 560,-49.5 368,-49.5"/>
<text text-anchor="middle" x="464" y="-56.5" font-family="FreeSans" font-size="10.00">PHNodeIOManager::PHNodeIOManager</text>
</a>
</g>
</g>
<!-- Node2&#45;&gt;Node3 -->
<g id="edge2" class="edge"><title>Node2&#45;&gt;Node3</title>
<path fill="none" stroke="midnightblue" d="M335.203,-59C345.856,-59 356.898,-59 367.828,-59"/>
<polygon fill="midnightblue" stroke="midnightblue" points="335.125,-55.5001 325.125,-59 335.125,-62.5001 335.125,-55.5001"/>
</g>
</g>
</svg>
