<?xml version="1.0" encoding="UTF-8" standalone="no"?>
<!DOCTYPE svg PUBLIC "-//W3C//DTD SVG 1.1//EN"
 "http://www.w3.org/Graphics/SVG/1.1/DTD/svg11.dtd">
<!-- Generated by graphviz version 2.36.0 (20140111.2315)
 -->
<!-- Title: PHNodeIOManager::setFile Pages: 1 -->
<svg width="342pt" height="77pt"
 viewBox="0.00 0.00 342.00 77.00" xmlns="http://www.w3.org/2000/svg" xmlns:xlink="http://www.w3.org/1999/xlink">
<g id="graph0" class="graph" transform="scale(1 1) rotate(0) translate(4 73)">
<title>PHNodeIOManager::setFile</title>
<!-- Node1 -->
<g id="node1" class="node"><title>Node1</title>
<polygon fill="#bfbfbf" stroke="black" points="0,-27.5 0,-46.5 136,-46.5 136,-27.5 0,-27.5"/>
<text text-anchor="middle" x="68" y="-34.5" font-family="FreeSans" font-size="10.00">PHNodeIOManager::setFile</text>
</g>
<!-- Node2 -->
<g id="node2" class="node"><title>Node2</title>
<g id="a_node2"><a xlink:href="../../d7/d4d/classPHNodeIOManager.html#a684551827a6ed397d1cab2d4dfee988d" target="_top" xlink:title="PHNodeIOManager::closeFile">
<polygon fill="none" stroke="black" points="180,-49.5 180,-68.5 326,-68.5 326,-49.5 180,-49.5"/>
<text text-anchor="middle" x="253" y="-56.5" font-family="FreeSans" font-size="10.00">PHNodeIOManager::closeFile</text>
</a>
</g>
</g>
<!-- Node1&#45;&gt;Node2 -->
<g id="edge1" class="edge"><title>Node1&#45;&gt;Node2</title>
<path fill="none" stroke="midnightblue" d="M136.103,-45.0671C147.037,-46.3815 158.473,-47.7563 169.72,-49.1085"/>
<polygon fill="midnightblue" stroke="midnightblue" points="169.631,-52.6228 179.977,-50.3415 170.467,-45.6729 169.631,-52.6228"/>
</g>
<!-- Node3 -->
<g id="node3" class="node"><title>Node3</title>
<g id="a_node3"><a xlink:href="../../d7/d4d/classPHNodeIOManager.html#a7f701a7b25803133c586853f87454a3a" target="_top" xlink:title="PHNodeIOManager::selectObject\lToRead">
<polygon fill="none" stroke="black" points="172.5,-0 172.5,-30 333.5,-30 333.5,-0 172.5,-0"/>
<text text-anchor="start" x="180.5" y="-18" font-family="FreeSans" font-size="10.00">PHNodeIOManager::selectObject</text>
<text text-anchor="middle" x="253" y="-7" font-family="FreeSans" font-size="10.00">ToRead</text>
</a>
</g>
</g>
<!-- Node1&#45;&gt;Node3 -->
<g id="edge2" class="edge"><title>Node1&#45;&gt;Node3</title>
<path fill="none" stroke="midnightblue" d="M136.103,-28.9329C144.701,-27.8994 153.608,-26.8285 162.49,-25.7607"/>
<polygon fill="midnightblue" stroke="midnightblue" points="162.98,-29.2272 172.49,-24.5585 162.144,-22.2772 162.98,-29.2272"/>
</g>
</g>
</svg>
