<?xml version="1.0" encoding="UTF-8" standalone="no"?>
<!DOCTYPE svg PUBLIC "-//W3C//DTD SVG 1.1//EN"
 "http://www.w3.org/Graphics/SVG/1.1/DTD/svg11.dtd">
<!-- Generated by graphviz version 2.36.0 (20140111.2315)
 -->
<!-- Title: PHNodeIOManager::PHNodeIOManager Pages: 1 -->
<svg width="570pt" height="77pt"
 viewBox="0.00 0.00 570.00 77.00" xmlns="http://www.w3.org/2000/svg" xmlns:xlink="http://www.w3.org/1999/xlink">
<g id="graph0" class="graph" transform="scale(1 1) rotate(0) translate(4 73)">
<title>PHNodeIOManager::PHNodeIOManager</title>
<!-- Node1 -->
<g id="node1" class="node"><title>Node1</title>
<polygon fill="#bfbfbf" stroke="black" points="0,-27.5 0,-46.5 192,-46.5 192,-27.5 0,-27.5"/>
<text text-anchor="middle" x="96" y="-34.5" font-family="FreeSans" font-size="10.00">PHNodeIOManager::PHNodeIOManager</text>
</g>
<!-- Node2 -->
<g id="node2" class="node"><title>Node2</title>
<g id="a_node2"><a xlink:href="../../d7/d4d/classPHNodeIOManager.html#a5d6181baf8cf3741d062e1b50eb8c131" target="_top" xlink:title="PHNodeIOManager::setFile">
<polygon fill="none" stroke="black" points="228,-27.5 228,-46.5 364,-46.5 364,-27.5 228,-27.5"/>
<text text-anchor="middle" x="296" y="-34.5" font-family="FreeSans" font-size="10.00">PHNodeIOManager::setFile</text>
</a>
</g>
</g>
<!-- Node1&#45;&gt;Node2 -->
<g id="edge1" class="edge"><title>Node1&#45;&gt;Node2</title>
<path fill="none" stroke="midnightblue" d="M192.23,-37C200.823,-37 209.454,-37 217.863,-37"/>
<polygon fill="midnightblue" stroke="midnightblue" points="217.993,-40.5001 227.993,-37 217.993,-33.5001 217.993,-40.5001"/>
</g>
<!-- Node3 -->
<g id="node3" class="node"><title>Node3</title>
<g id="a_node3"><a xlink:href="../../d7/d4d/classPHNodeIOManager.html#a684551827a6ed397d1cab2d4dfee988d" target="_top" xlink:title="PHNodeIOManager::closeFile">
<polygon fill="none" stroke="black" points="408,-49.5 408,-68.5 554,-68.5 554,-49.5 408,-49.5"/>
<text text-anchor="middle" x="481" y="-56.5" font-family="FreeSans" font-size="10.00">PHNodeIOManager::closeFile</text>
</a>
</g>
</g>
<!-- Node2&#45;&gt;Node3 -->
<g id="edge2" class="edge"><title>Node2&#45;&gt;Node3</title>
<path fill="none" stroke="midnightblue" d="M364.103,-45.0671C375.037,-46.3815 386.473,-47.7563 397.72,-49.1085"/>
<polygon fill="midnightblue" stroke="midnightblue" points="397.631,-52.6228 407.977,-50.3415 398.467,-45.6729 397.631,-52.6228"/>
</g>
<!-- Node4 -->
<g id="node4" class="node"><title>Node4</title>
<g id="a_node4"><a xlink:href="../../d7/d4d/classPHNodeIOManager.html#a7f701a7b25803133c586853f87454a3a" target="_top" xlink:title="PHNodeIOManager::selectObject\lToRead">
<polygon fill="none" stroke="black" points="400.5,-0 400.5,-30 561.5,-30 561.5,-0 400.5,-0"/>
<text text-anchor="start" x="408.5" y="-18" font-family="FreeSans" font-size="10.00">PHNodeIOManager::selectObject</text>
<text text-anchor="middle" x="481" y="-7" font-family="FreeSans" font-size="10.00">ToRead</text>
</a>
</g>
</g>
<!-- Node2&#45;&gt;Node4 -->
<g id="edge3" class="edge"><title>Node2&#45;&gt;Node4</title>
<path fill="none" stroke="midnightblue" d="M364.103,-28.9329C372.701,-27.8994 381.608,-26.8285 390.49,-25.7607"/>
<polygon fill="midnightblue" stroke="midnightblue" points="390.98,-29.2272 400.49,-24.5585 390.144,-22.2772 390.98,-29.2272"/>
</g>
</g>
</svg>
