<?xml version="1.0" encoding="UTF-8" standalone="no"?>
<!DOCTYPE svg PUBLIC "-//W3C//DTD SVG 1.1//EN"
 "http://www.w3.org/Graphics/SVG/1.1/DTD/svg11.dtd">
<!-- Generated by graphviz version 2.36.0 (20140111.2315)
 -->
<!-- Title: PHNodeIOManager::selectObjectToRead Pages: 1 -->
<svg width="1228pt" height="121pt"
 viewBox="0.00 0.00 1228.00 121.00" xmlns="http://www.w3.org/2000/svg" xmlns:xlink="http://www.w3.org/1999/xlink">
<g id="graph0" class="graph" transform="scale(1 1) rotate(0) translate(4 117)">
<title>PHNodeIOManager::selectObjectToRead</title>
<!-- Node1 -->
<g id="node1" class="node"><title>Node1</title>
<polygon fill="#bfbfbf" stroke="black" points="0.5,-39 0.5,-69 161.5,-69 161.5,-39 0.5,-39"/>
<text text-anchor="start" x="8.5" y="-57" font-family="FreeSans" font-size="10.00">PHNodeIOManager::selectObject</text>
<text text-anchor="middle" x="81" y="-46" font-family="FreeSans" font-size="10.00">ToRead</text>
</g>
<!-- Node2 -->
<g id="node2" class="node"><title>Node2</title>
<g id="a_node2"><a xlink:href="../../d7/d0b/classFun4AllDstInputManager.html#ae18b1ca89168aab89e6a9b867951f8ce" target="_top" xlink:title="Fun4AllDstInputManager\l::setBranches">
<polygon fill="none" stroke="black" points="404,-61 404,-91 528,-91 528,-61 404,-61"/>
<text text-anchor="start" x="412" y="-79" font-family="FreeSans" font-size="10.00">Fun4AllDstInputManager</text>
<text text-anchor="middle" x="466" y="-68" font-family="FreeSans" font-size="10.00">::setBranches</text>
</a>
</g>
</g>
<!-- Node1&#45;&gt;Node2 -->
<g id="edge1" class="edge"><title>Node1&#45;&gt;Node2</title>
<path fill="none" stroke="midnightblue" d="M153.115,-71.096C167.867,-73.9695 183.372,-76.5026 198,-78 268.325,-85.1987 349.612,-83.1111 403.846,-80.2464"/>
<polygon fill="midnightblue" stroke="midnightblue" points="153.537,-67.6108 143.042,-69.0609 152.151,-74.4721 153.537,-67.6108"/>
</g>
<!-- Node8 -->
<g id="node8" class="node"><title>Node8</title>
<g id="a_node8"><a xlink:href="../../d7/d4d/classPHNodeIOManager.html#a5d6181baf8cf3741d062e1b50eb8c131" target="_top" xlink:title="PHNodeIOManager::setFile">
<polygon fill="none" stroke="black" points="198,-0.5 198,-19.5 334,-19.5 334,-0.5 198,-0.5"/>
<text text-anchor="middle" x="266" y="-7.5" font-family="FreeSans" font-size="10.00">PHNodeIOManager::setFile</text>
</a>
</g>
</g>
<!-- Node1&#45;&gt;Node8 -->
<g id="edge7" class="edge"><title>Node1&#45;&gt;Node8</title>
<path fill="none" stroke="midnightblue" d="M154.353,-36.6036C178.576,-30.7794 204.674,-24.5046 225.437,-19.5124"/>
<polygon fill="midnightblue" stroke="midnightblue" points="153.371,-33.2399 144.466,-38.9808 155.008,-40.046 153.371,-33.2399"/>
</g>
<!-- Node10 -->
<g id="node10" class="node"><title>Node10</title>
<g id="a_node10"><a xlink:href="../../d7/d0b/classFun4AllDstInputManager.html#a22bc575e2e8b3b72e67523a694acbf22" target="_top" xlink:title="Fun4AllDstInputManager\l::setSyncBranches">
<polygon fill="none" stroke="black" points="204,-39 204,-69 328,-69 328,-39 204,-39"/>
<text text-anchor="start" x="212" y="-57" font-family="FreeSans" font-size="10.00">Fun4AllDstInputManager</text>
<text text-anchor="middle" x="266" y="-46" font-family="FreeSans" font-size="10.00">::setSyncBranches</text>
</a>
</g>
</g>
<!-- Node1&#45;&gt;Node10 -->
<g id="edge9" class="edge"><title>Node1&#45;&gt;Node10</title>
<path fill="none" stroke="midnightblue" d="M171.735,-54C182.654,-54 193.606,-54 203.97,-54"/>
<polygon fill="midnightblue" stroke="midnightblue" points="171.734,-50.5001 161.734,-54 171.734,-57.5001 171.734,-50.5001"/>
</g>
<!-- Node3 -->
<g id="node3" class="node"><title>Node3</title>
<g id="a_node3"><a xlink:href="../../d7/d0b/classFun4AllDstInputManager.html#a4d32eadb9f77d41387656b87377ef14f" target="_top" xlink:title="Fun4AllDstInputManager\l::fileopen">
<polygon fill="none" stroke="black" points="598,-61 598,-91 722,-91 722,-61 598,-61"/>
<text text-anchor="start" x="606" y="-79" font-family="FreeSans" font-size="10.00">Fun4AllDstInputManager</text>
<text text-anchor="middle" x="660" y="-68" font-family="FreeSans" font-size="10.00">::fileopen</text>
</a>
</g>
</g>
<!-- Node2&#45;&gt;Node3 -->
<g id="edge2" class="edge"><title>Node2&#45;&gt;Node3</title>
<path fill="none" stroke="midnightblue" d="M538.114,-76C557.723,-76 578.821,-76 597.815,-76"/>
<polygon fill="midnightblue" stroke="midnightblue" points="538.014,-72.5001 528.014,-76 538.014,-79.5001 538.014,-72.5001"/>
</g>
<!-- Node4 -->
<g id="node4" class="node"><title>Node4</title>
<g id="a_node4"><a xlink:href="../../d7/d0b/classFun4AllDstInputManager.html#ae4e92b95ae50ab72856d06c99b043496" target="_top" xlink:title="Fun4AllDstInputManager\l::OpenNextFile">
<polygon fill="none" stroke="black" points="758,-61 758,-91 882,-91 882,-61 758,-61"/>
<text text-anchor="start" x="766" y="-79" font-family="FreeSans" font-size="10.00">Fun4AllDstInputManager</text>
<text text-anchor="middle" x="820" y="-68" font-family="FreeSans" font-size="10.00">::OpenNextFile</text>
</a>
</g>
</g>
<!-- Node3&#45;&gt;Node4 -->
<g id="edge3" class="edge"><title>Node3&#45;&gt;Node4</title>
<path fill="none" stroke="midnightblue" d="M732.366,-76C740.863,-76 749.478,-76 757.815,-76"/>
<polygon fill="midnightblue" stroke="midnightblue" points="732.087,-72.5001 722.087,-76 732.087,-79.5001 732.087,-72.5001"/>
</g>
<!-- Node5 -->
<g id="node5" class="node"><title>Node5</title>
<g id="a_node5"><a xlink:href="../../d7/d0b/classFun4AllDstInputManager.html#ade26017b627e0e1f1ec0dec62ac7fd52" target="_top" xlink:title="Fun4AllDstInputManager\l::ReadNextEventSyncObject">
<polygon fill="none" stroke="black" points="919.5,-83 919.5,-113 1058.5,-113 1058.5,-83 919.5,-83"/>
<text text-anchor="start" x="927.5" y="-101" font-family="FreeSans" font-size="10.00">Fun4AllDstInputManager</text>
<text text-anchor="middle" x="989" y="-90" font-family="FreeSans" font-size="10.00">::ReadNextEventSyncObject</text>
</a>
</g>
</g>
<!-- Node4&#45;&gt;Node5 -->
<g id="edge4" class="edge"><title>Node4&#45;&gt;Node5</title>
<path fill="none" stroke="midnightblue" d="M892.291,-85.3917C901.291,-86.5772 910.483,-87.7882 919.438,-88.9679"/>
<polygon fill="midnightblue" stroke="midnightblue" points="892.608,-81.9032 882.236,-84.0671 891.694,-88.8433 892.608,-81.9032"/>
</g>
<!-- Node7 -->
<g id="node7" class="node"><title>Node7</title>
<g id="a_node7"><a xlink:href="../../d7/d0b/classFun4AllDstInputManager.html#aeafa0248f9050c13fdae1bcb93336d7a" target="_top" xlink:title="Fun4AllDstInputManager::run">
<polygon fill="none" stroke="black" points="918,-44.5 918,-63.5 1060,-63.5 1060,-44.5 918,-44.5"/>
<text text-anchor="middle" x="989" y="-51.5" font-family="FreeSans" font-size="10.00">Fun4AllDstInputManager::run</text>
</a>
</g>
</g>
<!-- Node4&#45;&gt;Node7 -->
<g id="edge6" class="edge"><title>Node4&#45;&gt;Node7</title>
<path fill="none" stroke="midnightblue" d="M892.376,-66.5971C900.777,-65.4905 909.344,-64.3619 917.729,-63.2573"/>
<polygon fill="midnightblue" stroke="midnightblue" points="891.694,-63.1567 882.236,-67.9329 892.608,-70.0968 891.694,-63.1567"/>
</g>
<!-- Node6 -->
<g id="node6" class="node"><title>Node6</title>
<g id="a_node6"><a xlink:href="../../d7/d0b/classFun4AllDstInputManager.html#a0244c2edbaa2350038304b09f352c2d0" target="_top" xlink:title="Fun4AllDstInputManager\l::SyncIt">
<polygon fill="none" stroke="black" points="1096,-83 1096,-113 1220,-113 1220,-83 1096,-83"/>
<text text-anchor="start" x="1104" y="-101" font-family="FreeSans" font-size="10.00">Fun4AllDstInputManager</text>
<text text-anchor="middle" x="1158" y="-90" font-family="FreeSans" font-size="10.00">::SyncIt</text>
</a>
</g>
</g>
<!-- Node5&#45;&gt;Node6 -->
<g id="edge5" class="edge"><title>Node5&#45;&gt;Node6</title>
<path fill="none" stroke="midnightblue" d="M1068.99,-98C1077.98,-98 1087.04,-98 1095.75,-98"/>
<polygon fill="midnightblue" stroke="midnightblue" points="1068.89,-94.5001 1058.89,-98 1068.89,-101.5 1068.89,-94.5001"/>
</g>
<!-- Node9 -->
<g id="node9" class="node"><title>Node9</title>
<g id="a_node9"><a xlink:href="../../d7/d4d/classPHNodeIOManager.html#a97ea7a7609bed69ee8a9ac47296172a7" target="_top" xlink:title="PHNodeIOManager::PHNodeIOManager">
<polygon fill="none" stroke="black" points="370,-0.5 370,-19.5 562,-19.5 562,-0.5 370,-0.5"/>
<text text-anchor="middle" x="466" y="-7.5" font-family="FreeSans" font-size="10.00">PHNodeIOManager::PHNodeIOManager</text>
</a>
</g>
</g>
<!-- Node8&#45;&gt;Node9 -->
<g id="edge8" class="edge"><title>Node8&#45;&gt;Node9</title>
<path fill="none" stroke="midnightblue" d="M344.2,-10C352.64,-10 361.302,-10 369.924,-10"/>
<polygon fill="midnightblue" stroke="midnightblue" points="344.034,-6.5001 334.034,-10 344.034,-13.5001 344.034,-6.5001"/>
</g>
<!-- Node10&#45;&gt;Node2 -->
<g id="edge10" class="edge"><title>Node10&#45;&gt;Node2</title>
<path fill="none" stroke="midnightblue" d="M338.083,-61.8981C359.599,-64.2888 383.031,-66.8924 403.839,-69.2043"/>
<polygon fill="midnightblue" stroke="midnightblue" points="338.348,-58.406 328.022,-60.7802 337.574,-65.3632 338.348,-58.406"/>
</g>
</g>
</svg>
