<?xml version="1.0" encoding="UTF-8" standalone="no"?>
<!DOCTYPE svg PUBLIC "-//W3C//DTD SVG 1.1//EN"
 "http://www.w3.org/Graphics/SVG/1.1/DTD/svg11.dtd">
<!-- Generated by graphviz version 2.36.0 (20140111.2315)
 -->
<!-- Title: PHNodeIOManager::read Pages: 1 -->
<svg width="844pt" height="286pt"
 viewBox="0.00 0.00 844.00 286.00" xmlns="http://www.w3.org/2000/svg" xmlns:xlink="http://www.w3.org/1999/xlink">
<g id="graph0" class="graph" transform="scale(1 1) rotate(0) translate(4 282)">
<title>PHNodeIOManager::read</title>
<!-- Node1 -->
<g id="node1" class="node"><title>Node1</title>
<polygon fill="#bfbfbf" stroke="black" points="0.5,-171.5 0.5,-190.5 125.5,-190.5 125.5,-171.5 0.5,-171.5"/>
<text text-anchor="middle" x="63" y="-178.5" font-family="FreeSans" font-size="10.00">PHNodeIOManager::read</text>
</g>
<!-- Node2 -->
<g id="node2" class="node"><title>Node2</title>
<g id="a_node2"><a xlink:href="../../d7/d4d/classPHNodeIOManager.html#a78c3103ae5561ab423517d5ebb880a38" target="_top" xlink:title="PHNodeIOManager::readEvent\lFromFile">
<polygon fill="none" stroke="black" points="165,-211 165,-241 315,-241 315,-211 165,-211"/>
<text text-anchor="start" x="173" y="-229" font-family="FreeSans" font-size="10.00">PHNodeIOManager::readEvent</text>
<text text-anchor="middle" x="240" y="-218" font-family="FreeSans" font-size="10.00">FromFile</text>
</a>
</g>
</g>
<!-- Node1&#45;&gt;Node2 -->
<g id="edge1" class="edge"><title>Node1&#45;&gt;Node2</title>
<path fill="none" stroke="midnightblue" d="M101.113,-190.543C121.305,-195.735 146.927,-202.324 170.591,-208.409"/>
<polygon fill="midnightblue" stroke="midnightblue" points="170.034,-211.88 180.591,-210.98 171.777,-205.1 170.034,-211.88"/>
</g>
<!-- Node4 -->
<g id="node4" class="node"><title>Node4</title>
<g id="a_node4"><a xlink:href="../../d7/d4d/classPHNodeIOManager.html#a3882997324989c7dd04e9f6b728af7db" target="_top" xlink:title="PHNodeIOManager::reconstruct\lNodeTree">
<polygon fill="none" stroke="black" points="162.5,-121 162.5,-151 317.5,-151 317.5,-121 162.5,-121"/>
<text text-anchor="start" x="170.5" y="-139" font-family="FreeSans" font-size="10.00">PHNodeIOManager::reconstruct</text>
<text text-anchor="middle" x="240" y="-128" font-family="FreeSans" font-size="10.00">NodeTree</text>
</a>
</g>
</g>
<!-- Node1&#45;&gt;Node4 -->
<g id="edge3" class="edge"><title>Node1&#45;&gt;Node4</title>
<path fill="none" stroke="midnightblue" d="M101.113,-171.457C121.305,-166.265 146.927,-159.676 170.591,-153.591"/>
<polygon fill="midnightblue" stroke="midnightblue" points="171.777,-156.9 180.591,-151.02 170.034,-150.12 171.777,-156.9"/>
</g>
<!-- Node3 -->
<g id="node3" class="node"><title>Node3</title>
<g id="a_node3"><a xlink:href="../../d5/d88/PHMessage_8cc.html#a04070e856fed35b20952495249e0357f" target="_top" xlink:title="PHMessage">
<polygon fill="none" stroke="black" points="394.5,-258.5 394.5,-277.5 465.5,-277.5 465.5,-258.5 394.5,-258.5"/>
<text text-anchor="middle" x="430" y="-265.5" font-family="FreeSans" font-size="10.00">PHMessage</text>
</a>
</g>
</g>
<!-- Node2&#45;&gt;Node3 -->
<g id="edge2" class="edge"><title>Node2&#45;&gt;Node3</title>
<path fill="none" stroke="midnightblue" d="M308.341,-241.044C333.559,-246.678 361.567,-252.935 384.245,-258.002"/>
<polygon fill="midnightblue" stroke="midnightblue" points="383.739,-261.475 394.261,-260.239 385.265,-254.643 383.739,-261.475"/>
</g>
<!-- Node5 -->
<g id="node5" class="node"><title>Node5</title>
<g id="a_node5"><a xlink:href="../../d5/d07/classPHNodeIterator.html#a4cfa0490b6522394b13723c7db38a3a6" target="_top" xlink:title="PHNodeIterator::cd">
<polygon fill="none" stroke="black" points="380,-126.5 380,-145.5 480,-145.5 480,-126.5 380,-126.5"/>
<text text-anchor="middle" x="430" y="-133.5" font-family="FreeSans" font-size="10.00">PHNodeIterator::cd</text>
</a>
</g>
</g>
<!-- Node4&#45;&gt;Node5 -->
<g id="edge4" class="edge"><title>Node4&#45;&gt;Node5</title>
<path fill="none" stroke="midnightblue" d="M317.738,-136C335.143,-136 353.365,-136 369.906,-136"/>
<polygon fill="midnightblue" stroke="midnightblue" points="369.966,-139.5 379.966,-136 369.966,-132.5 369.966,-139.5"/>
</g>
<!-- Node9 -->
<g id="node9" class="node"><title>Node9</title>
<g id="a_node9"><a xlink:href="../../d5/d07/classPHNodeIterator.html#a2c183a75c6a6784f38ff15b6163eb7ee" target="_top" xlink:title="PHNodeIterator::addNode">
<polygon fill="none" stroke="black" points="366,-38.5 366,-57.5 494,-57.5 494,-38.5 366,-38.5"/>
<text text-anchor="middle" x="430" y="-45.5" font-family="FreeSans" font-size="10.00">PHNodeIterator::addNode</text>
</a>
</g>
</g>
<!-- Node4&#45;&gt;Node9 -->
<g id="edge8" class="edge"><title>Node4&#45;&gt;Node9</title>
<path fill="none" stroke="midnightblue" d="M261.634,-120.763C283.542,-105.234 319.675,-81.4377 354,-67 359.85,-64.5393 366.096,-62.3397 372.392,-60.3886"/>
<polygon fill="midnightblue" stroke="midnightblue" points="373.645,-63.6694 382.277,-57.5254 371.698,-56.9458 373.645,-63.6694"/>
</g>
<!-- Node13 -->
<g id="node13" class="node"><title>Node13</title>
<g id="a_node13"><a xlink:href="../../d7/d4d/classPHNodeIOManager.html#a8be36f2013dddcf8026b0aeb9177dc7c" target="_top" xlink:title="PHNodeIOManager::getBranch\lClassName">
<polygon fill="none" stroke="black" points="354.5,-77 354.5,-107 505.5,-107 505.5,-77 354.5,-77"/>
<text text-anchor="start" x="362.5" y="-95" font-family="FreeSans" font-size="10.00">PHNodeIOManager::getBranch</text>
<text text-anchor="middle" x="430" y="-84" font-family="FreeSans" font-size="10.00">ClassName</text>
</a>
</g>
</g>
<!-- Node4&#45;&gt;Node13 -->
<g id="edge13" class="edge"><title>Node4&#45;&gt;Node13</title>
<path fill="none" stroke="midnightblue" d="M305.173,-120.981C321.117,-117.249 338.338,-113.219 354.723,-109.384"/>
<polygon fill="midnightblue" stroke="midnightblue" points="355.858,-112.713 364.797,-107.026 354.263,-105.897 355.858,-112.713"/>
</g>
<!-- Node14 -->
<g id="node14" class="node"><title>Node14</title>
<g id="a_node14"><a xlink:href="../../d5/d07/classPHNodeIterator.html#aea98bf8619af59b1212a94fb32106baa" target="_top" xlink:title="PHNodeIterator::findFirst">
<polygon fill="none" stroke="black" points="368,-164.5 368,-183.5 492,-183.5 492,-164.5 368,-164.5"/>
<text text-anchor="middle" x="430" y="-171.5" font-family="FreeSans" font-size="10.00">PHNodeIterator::findFirst</text>
</a>
</g>
</g>
<!-- Node4&#45;&gt;Node14 -->
<g id="edge14" class="edge"><title>Node4&#45;&gt;Node14</title>
<path fill="none" stroke="midnightblue" d="M315.303,-151.019C334.092,-154.816 353.981,-158.837 371.781,-162.434"/>
<polygon fill="midnightblue" stroke="midnightblue" points="371.5,-165.948 381.995,-164.499 372.887,-159.087 371.5,-165.948"/>
</g>
<!-- Node15 -->
<g id="node15" class="node"><title>Node15</title>
<g id="a_node15"><a xlink:href="../../d1/d3e/classPHDataNode.html#a1f3b856fd3ce165047be8aa97f4ab9f3" target="_top" xlink:title="PHDataNode::getData">
<polygon fill="none" stroke="black" points="373.5,-0.5 373.5,-19.5 486.5,-19.5 486.5,-0.5 373.5,-0.5"/>
<text text-anchor="middle" x="430" y="-7.5" font-family="FreeSans" font-size="10.00">PHDataNode::getData</text>
</a>
</g>
</g>
<!-- Node4&#45;&gt;Node15 -->
<g id="edge18" class="edge"><title>Node4&#45;&gt;Node15</title>
<path fill="none" stroke="midnightblue" d="M252.759,-120.676C271.554,-97.273 310.685,-52.8392 354,-29 358.192,-26.6927 362.67,-24.6597 367.273,-22.8692"/>
<polygon fill="midnightblue" stroke="midnightblue" points="368.559,-26.1274 376.845,-19.5246 366.25,-19.5192 368.559,-26.1274"/>
</g>
<!-- Node16 -->
<g id="node16" class="node"><title>Node16</title>
<g id="a_node16"><a xlink:href="../../dc/d82/classPHNode.html#a5efaced7ccd6df01fc40abbb07dfe61d" target="_top" xlink:title="PHNode::setObjectType">
<polygon fill="none" stroke="black" points="369,-220.5 369,-239.5 491,-239.5 491,-220.5 369,-220.5"/>
<text text-anchor="middle" x="430" y="-227.5" font-family="FreeSans" font-size="10.00">PHNode::setObjectType</text>
</a>
</g>
</g>
<!-- Node4&#45;&gt;Node16 -->
<g id="edge19" class="edge"><title>Node4&#45;&gt;Node16</title>
<path fill="none" stroke="midnightblue" d="M259.441,-151.117C280.915,-168.009 318.048,-195.073 354,-211 359.429,-213.405 365.219,-215.546 371.083,-217.442"/>
<polygon fill="midnightblue" stroke="midnightblue" points="370.389,-220.888 380.973,-220.406 372.399,-214.183 370.389,-220.888"/>
</g>
<!-- Node6 -->
<g id="node6" class="node"><title>Node6</title>
<g id="a_node6"><a xlink:href="../../dc/d82/classPHNode.html#a5c15cb20d02290b69eb4d7f6051c9722" target="_top" xlink:title="PHNode::getParent">
<polygon fill="none" stroke="black" points="563.5,-123.5 563.5,-142.5 664.5,-142.5 664.5,-123.5 563.5,-123.5"/>
<text text-anchor="middle" x="614" y="-130.5" font-family="FreeSans" font-size="10.00">PHNode::getParent</text>
</a>
</g>
</g>
<!-- Node5&#45;&gt;Node6 -->
<g id="edge5" class="edge"><title>Node5&#45;&gt;Node6</title>
<path fill="none" stroke="midnightblue" d="M480.252,-135.188C502.719,-134.818 529.521,-134.376 553.14,-133.987"/>
<polygon fill="midnightblue" stroke="midnightblue" points="553.452,-137.482 563.393,-133.818 553.336,-130.483 553.452,-137.482"/>
</g>
<!-- Node7 -->
<g id="node7" class="node"><title>Node7</title>
<g id="a_node7"><a xlink:href="../../dc/d82/classPHNode.html#a4ab1f90aed955a652813bfe377087bda" target="_top" xlink:title="PHNode::getType">
<polygon fill="none" stroke="black" points="567.5,-161.5 567.5,-180.5 660.5,-180.5 660.5,-161.5 567.5,-161.5"/>
<text text-anchor="middle" x="614" y="-168.5" font-family="FreeSans" font-size="10.00">PHNode::getType</text>
</a>
</g>
</g>
<!-- Node5&#45;&gt;Node7 -->
<g id="edge6" class="edge"><title>Node5&#45;&gt;Node7</title>
<path fill="none" stroke="midnightblue" d="M480.252,-145.472C504.123,-150.062 532.889,-155.594 557.53,-160.333"/>
<polygon fill="midnightblue" stroke="midnightblue" points="556.976,-163.79 567.457,-162.242 558.298,-156.916 556.976,-163.79"/>
</g>
<!-- Node8 -->
<g id="node8" class="node"><title>Node8</title>
<g id="a_node8"><a xlink:href="../../dc/d82/classPHNode.html#aca3576f926a4401eddc3d88bf0ce0de3" target="_top" xlink:title="PHNode::getName">
<polygon fill="none" stroke="black" points="730,-85.5 730,-104.5 828,-104.5 828,-85.5 730,-85.5"/>
<text text-anchor="middle" x="779" y="-92.5" font-family="FreeSans" font-size="10.00">PHNode::getName</text>
</a>
</g>
</g>
<!-- Node5&#45;&gt;Node8 -->
<g id="edge7" class="edge"><title>Node5&#45;&gt;Node8</title>
<path fill="none" stroke="midnightblue" d="M472.974,-126.494C493.661,-122.112 519.038,-117.189 542,-114 602.31,-105.624 671.842,-100.58 719.731,-97.816"/>
<polygon fill="midnightblue" stroke="midnightblue" points="720.123,-101.3 729.911,-97.244 719.731,-94.3106 720.123,-101.3"/>
</g>
<!-- Node10 -->
<g id="node10" class="node"><title>Node10</title>
<g id="a_node10"><a xlink:href="../../d5/dca/classPHCompositeNode.html#ac7dbf017614c324e218a001d729607bf" target="_top" xlink:title="PHCompositeNode::addNode">
<polygon fill="none" stroke="black" points="542,-44.5 542,-63.5 686,-63.5 686,-44.5 542,-44.5"/>
<text text-anchor="middle" x="614" y="-51.5" font-family="FreeSans" font-size="10.00">PHCompositeNode::addNode</text>
</a>
</g>
</g>
<!-- Node9&#45;&gt;Node10 -->
<g id="edge9" class="edge"><title>Node9&#45;&gt;Node10</title>
<path fill="none" stroke="midnightblue" d="M494.144,-50.0817C506.296,-50.4823 519.181,-50.9071 531.811,-51.3234"/>
<polygon fill="midnightblue" stroke="midnightblue" points="531.756,-54.8234 541.866,-51.6549 531.987,-47.8272 531.756,-54.8234"/>
</g>
<!-- Node10&#45;&gt;Node8 -->
<g id="edge11" class="edge"><title>Node10&#45;&gt;Node8</title>
<path fill="none" stroke="midnightblue" d="M652.805,-63.5093C675.867,-69.3101 705.555,-76.7777 730.233,-82.9851"/>
<polygon fill="midnightblue" stroke="midnightblue" points="729.566,-86.4262 740.118,-85.4714 731.274,-79.6377 729.566,-86.4262"/>
</g>
<!-- Node11 -->
<g id="node11" class="node"><title>Node11</title>
<g id="a_node11"><a xlink:href="../../d6/d86/classPHPointerList.html#af5fc4e6958b5b90c57bfb497566f503c" target="_top" xlink:title="PHPointerList::append">
<polygon fill="none" stroke="black" points="722,-46.5 722,-65.5 836,-65.5 836,-46.5 722,-46.5"/>
<text text-anchor="middle" x="779" y="-53.5" font-family="FreeSans" font-size="10.00">PHPointerList::append</text>
</a>
</g>
</g>
<!-- Node10&#45;&gt;Node11 -->
<g id="edge10" class="edge"><title>Node10&#45;&gt;Node11</title>
<path fill="none" stroke="midnightblue" d="M686.02,-54.8714C694.559,-54.9762 703.254,-55.0829 711.722,-55.1868"/>
<polygon fill="midnightblue" stroke="midnightblue" points="711.87,-58.6888 721.912,-55.3118 711.956,-51.6893 711.87,-58.6888"/>
</g>
<!-- Node12 -->
<g id="node12" class="node"><title>Node12</title>
<g id="a_node12"><a xlink:href="../../dc/d82/classPHNode.html#adda2bd6cef2d5067bbe3016a990b7198" target="_top" xlink:title="PHNode::setParent">
<polygon fill="none" stroke="black" points="728.5,-8.5 728.5,-27.5 829.5,-27.5 829.5,-8.5 728.5,-8.5"/>
<text text-anchor="middle" x="779" y="-15.5" font-family="FreeSans" font-size="10.00">PHNode::setParent</text>
</a>
</g>
</g>
<!-- Node10&#45;&gt;Node12 -->
<g id="edge12" class="edge"><title>Node10&#45;&gt;Node12</title>
<path fill="none" stroke="midnightblue" d="M658.253,-44.4472C678.69,-39.9336 703.276,-34.5035 724.839,-29.7411"/>
<polygon fill="midnightblue" stroke="midnightblue" points="725.818,-33.1093 734.828,-27.5349 724.308,-26.274 725.818,-33.1093"/>
</g>
<!-- Node14&#45;&gt;Node7 -->
<g id="edge15" class="edge"><title>Node14&#45;&gt;Node7</title>
<path fill="none" stroke="midnightblue" d="M492.11,-172.993C513.135,-172.646 536.555,-172.26 557.141,-171.921"/>
<polygon fill="midnightblue" stroke="midnightblue" points="557.366,-175.418 567.307,-171.753 557.25,-168.419 557.366,-175.418"/>
</g>
<!-- Node14&#45;&gt;Node8 -->
<g id="edge16" class="edge"><title>Node14&#45;&gt;Node8</title>
<path fill="none" stroke="midnightblue" d="M458.778,-183.553C507.144,-198.525 609.009,-222.616 686,-190 722.789,-174.414 752.075,-136.119 767.058,-113.191"/>
<polygon fill="midnightblue" stroke="midnightblue" points="770.046,-115.015 772.418,-104.689 764.124,-111.281 770.046,-115.015"/>
</g>
<!-- Node14&#45;&gt;Node14 -->
<g id="edge17" class="edge"><title>Node14&#45;&gt;Node14</title>
<path fill="none" stroke="midnightblue" d="M401.64,-183.757C387.844,-192.565 397.297,-202 430,-202 452.483,-202 463.978,-197.541 464.483,-191.891"/>
<polygon fill="midnightblue" stroke="midnightblue" points="467.17,-189.642 458.36,-183.757 461.577,-193.851 467.17,-189.642"/>
</g>
</g>
</svg>
