<?xml version="1.0" encoding="UTF-8" standalone="no"?>
<!DOCTYPE svg PUBLIC "-//W3C//DTD SVG 1.1//EN"
 "http://www.w3.org/Graphics/SVG/1.1/DTD/svg11.dtd">
<!-- Generated by graphviz version 2.36.0 (20140111.2315)
 -->
<!-- Title: PHNodeIOManager::reconstructNodeTree Pages: 1 -->
<svg width="682pt" height="315pt"
 viewBox="0.00 0.00 682.00 315.00" xmlns="http://www.w3.org/2000/svg" xmlns:xlink="http://www.w3.org/1999/xlink">
<g id="graph0" class="graph" transform="scale(1 1) rotate(0) translate(4 311)">
<title>PHNodeIOManager::reconstructNodeTree</title>
<!-- Node1 -->
<g id="node1" class="node"><title>Node1</title>
<polygon fill="#bfbfbf" stroke="black" points="0.5,-99 0.5,-129 155.5,-129 155.5,-99 0.5,-99"/>
<text text-anchor="start" x="8.5" y="-117" font-family="FreeSans" font-size="10.00">PHNodeIOManager::reconstruct</text>
<text text-anchor="middle" x="78" y="-106" font-family="FreeSans" font-size="10.00">NodeTree</text>
</g>
<!-- Node2 -->
<g id="node2" class="node"><title>Node2</title>
<g id="a_node2"><a xlink:href="../../d5/d07/classPHNodeIterator.html#a2c183a75c6a6784f38ff15b6163eb7ee" target="_top" xlink:title="PHNodeIterator::addNode">
<polygon fill="none" stroke="black" points="204,-230.5 204,-249.5 332,-249.5 332,-230.5 204,-230.5"/>
<text text-anchor="middle" x="268" y="-237.5" font-family="FreeSans" font-size="10.00">PHNodeIterator::addNode</text>
</a>
</g>
</g>
<!-- Node1&#45;&gt;Node2 -->
<g id="edge1" class="edge"><title>Node1&#45;&gt;Node2</title>
<path fill="none" stroke="midnightblue" d="M93.4221,-129.298C113.744,-150.129 152.729,-187.505 192,-211 202.378,-217.209 214.32,-222.536 225.579,-226.868"/>
<polygon fill="midnightblue" stroke="midnightblue" points="224.648,-230.254 235.242,-230.415 227.06,-223.683 224.648,-230.254"/>
</g>
<!-- Node7 -->
<g id="node7" class="node"><title>Node7</title>
<g id="a_node7"><a xlink:href="../../d5/d07/classPHNodeIterator.html#a4cfa0490b6522394b13723c7db38a3a6" target="_top" xlink:title="PHNodeIterator::cd">
<polygon fill="none" stroke="black" points="218,-182.5 218,-201.5 318,-201.5 318,-182.5 218,-182.5"/>
<text text-anchor="middle" x="268" y="-189.5" font-family="FreeSans" font-size="10.00">PHNodeIterator::cd</text>
</a>
</g>
</g>
<!-- Node1&#45;&gt;Node7 -->
<g id="edge6" class="edge"><title>Node1&#45;&gt;Node7</title>
<path fill="none" stroke="midnightblue" d="M103.795,-129.103C126.181,-142.209 160.366,-160.924 192,-173 198.408,-175.446 205.243,-177.672 212.081,-179.669"/>
<polygon fill="midnightblue" stroke="midnightblue" points="211.479,-183.134 222.051,-182.429 213.347,-176.388 211.479,-183.134"/>
</g>
<!-- Node10 -->
<g id="node10" class="node"><title>Node10</title>
<g id="a_node10"><a xlink:href="../../d5/d07/classPHNodeIterator.html#aea98bf8619af59b1212a94fb32106baa" target="_top" xlink:title="PHNodeIterator::findFirst">
<polygon fill="none" stroke="black" points="206,-126.5 206,-145.5 330,-145.5 330,-126.5 206,-126.5"/>
<text text-anchor="middle" x="268" y="-133.5" font-family="FreeSans" font-size="10.00">PHNodeIterator::findFirst</text>
</a>
</g>
</g>
<!-- Node1&#45;&gt;Node10 -->
<g id="edge10" class="edge"><title>Node1&#45;&gt;Node10</title>
<path fill="none" stroke="midnightblue" d="M155.738,-122.98C168.877,-124.517 182.481,-126.11 195.477,-127.63"/>
<polygon fill="midnightblue" stroke="midnightblue" points="195.41,-131.146 205.749,-128.832 196.223,-124.194 195.41,-131.146"/>
</g>
<!-- Node11 -->
<g id="node11" class="node"><title>Node11</title>
<g id="a_node11"><a xlink:href="../../d7/d4d/classPHNodeIOManager.html#a8be36f2013dddcf8026b0aeb9177dc7c" target="_top" xlink:title="PHNodeIOManager::getBranch\lClassName">
<polygon fill="none" stroke="black" points="192.5,-77 192.5,-107 343.5,-107 343.5,-77 192.5,-77"/>
<text text-anchor="start" x="200.5" y="-95" font-family="FreeSans" font-size="10.00">PHNodeIOManager::getBranch</text>
<text text-anchor="middle" x="268" y="-84" font-family="FreeSans" font-size="10.00">ClassName</text>
</a>
</g>
</g>
<!-- Node1&#45;&gt;Node11 -->
<g id="edge14" class="edge"><title>Node1&#45;&gt;Node11</title>
<path fill="none" stroke="midnightblue" d="M155.738,-105.02C164.516,-103.993 173.503,-102.941 182.377,-101.903"/>
<polygon fill="midnightblue" stroke="midnightblue" points="182.805,-105.377 192.331,-100.738 181.992,-98.424 182.805,-105.377"/>
</g>
<!-- Node12 -->
<g id="node12" class="node"><title>Node12</title>
<g id="a_node12"><a xlink:href="../../d1/d3e/classPHDataNode.html#a1f3b856fd3ce165047be8aa97f4ab9f3" target="_top" xlink:title="PHDataNode::getData">
<polygon fill="none" stroke="black" points="211.5,-38.5 211.5,-57.5 324.5,-57.5 324.5,-38.5 211.5,-38.5"/>
<text text-anchor="middle" x="268" y="-45.5" font-family="FreeSans" font-size="10.00">PHDataNode::getData</text>
</a>
</g>
</g>
<!-- Node1&#45;&gt;Node12 -->
<g id="edge15" class="edge"><title>Node1&#45;&gt;Node12</title>
<path fill="none" stroke="midnightblue" d="M112.7,-98.9788C134.948,-89.3875 164.889,-77.0926 192,-68 200.173,-65.2589 208.944,-62.6389 217.505,-60.2506"/>
<polygon fill="midnightblue" stroke="midnightblue" points="218.676,-63.5594 227.409,-57.5601 216.841,-56.8042 218.676,-63.5594"/>
</g>
<!-- Node13 -->
<g id="node13" class="node"><title>Node13</title>
<g id="a_node13"><a xlink:href="../../dc/d82/classPHNode.html#a5efaced7ccd6df01fc40abbb07dfe61d" target="_top" xlink:title="PHNode::setObjectType">
<polygon fill="none" stroke="black" points="207,-0.5 207,-19.5 329,-19.5 329,-0.5 207,-0.5"/>
<text text-anchor="middle" x="268" y="-7.5" font-family="FreeSans" font-size="10.00">PHNode::setObjectType</text>
</a>
</g>
</g>
<!-- Node1&#45;&gt;Node13 -->
<g id="edge16" class="edge"><title>Node1&#45;&gt;Node13</title>
<path fill="none" stroke="midnightblue" d="M94.8529,-98.7721C115.556,-79.7097 153.695,-47.3392 192,-29 196.998,-26.6074 202.332,-24.4925 207.765,-22.628"/>
<polygon fill="midnightblue" stroke="midnightblue" points="209.109,-25.8744 217.598,-19.5363 207.009,-19.1967 209.109,-25.8744"/>
</g>
<!-- Node3 -->
<g id="node3" class="node"><title>Node3</title>
<g id="a_node3"><a xlink:href="../../d5/dca/classPHCompositeNode.html#ac7dbf017614c324e218a001d729607bf" target="_top" xlink:title="PHCompositeNode::addNode">
<polygon fill="none" stroke="black" points="380,-249.5 380,-268.5 524,-268.5 524,-249.5 380,-249.5"/>
<text text-anchor="middle" x="452" y="-256.5" font-family="FreeSans" font-size="10.00">PHCompositeNode::addNode</text>
</a>
</g>
</g>
<!-- Node2&#45;&gt;Node3 -->
<g id="edge2" class="edge"><title>Node2&#45;&gt;Node3</title>
<path fill="none" stroke="midnightblue" d="M332.144,-246.592C344.296,-247.861 357.181,-249.206 369.811,-250.524"/>
<polygon fill="midnightblue" stroke="midnightblue" points="369.557,-254.017 379.866,-251.574 370.284,-247.054 369.557,-254.017"/>
</g>
<!-- Node4 -->
<g id="node4" class="node"><title>Node4</title>
<g id="a_node4"><a xlink:href="../../d6/d86/classPHPointerList.html#af5fc4e6958b5b90c57bfb497566f503c" target="_top" xlink:title="PHPointerList::append">
<polygon fill="none" stroke="black" points="560,-287.5 560,-306.5 674,-306.5 674,-287.5 560,-287.5"/>
<text text-anchor="middle" x="617" y="-294.5" font-family="FreeSans" font-size="10.00">PHPointerList::append</text>
</a>
</g>
</g>
<!-- Node3&#45;&gt;Node4 -->
<g id="edge3" class="edge"><title>Node3&#45;&gt;Node4</title>
<path fill="none" stroke="midnightblue" d="M494.132,-268.589C515.738,-273.626 542.409,-279.844 565.286,-285.177"/>
<polygon fill="midnightblue" stroke="midnightblue" points="564.63,-288.618 575.164,-287.48 566.22,-281.801 564.63,-288.618"/>
</g>
<!-- Node5 -->
<g id="node5" class="node"><title>Node5</title>
<g id="a_node5"><a xlink:href="../../dc/d82/classPHNode.html#aca3576f926a4401eddc3d88bf0ce0de3" target="_top" xlink:title="PHNode::getName">
<polygon fill="none" stroke="black" points="568,-211.5 568,-230.5 666,-230.5 666,-211.5 568,-211.5"/>
<text text-anchor="middle" x="617" y="-218.5" font-family="FreeSans" font-size="10.00">PHNode::getName</text>
</a>
</g>
</g>
<!-- Node3&#45;&gt;Node5 -->
<g id="edge4" class="edge"><title>Node3&#45;&gt;Node5</title>
<path fill="none" stroke="midnightblue" d="M494.132,-249.411C515.738,-244.374 542.409,-238.156 565.286,-232.823"/>
<polygon fill="midnightblue" stroke="midnightblue" points="566.22,-236.199 575.164,-230.52 564.63,-229.382 566.22,-236.199"/>
</g>
<!-- Node6 -->
<g id="node6" class="node"><title>Node6</title>
<g id="a_node6"><a xlink:href="../../dc/d82/classPHNode.html#adda2bd6cef2d5067bbe3016a990b7198" target="_top" xlink:title="PHNode::setParent">
<polygon fill="none" stroke="black" points="566.5,-249.5 566.5,-268.5 667.5,-268.5 667.5,-249.5 566.5,-249.5"/>
<text text-anchor="middle" x="617" y="-256.5" font-family="FreeSans" font-size="10.00">PHNode::setParent</text>
</a>
</g>
</g>
<!-- Node3&#45;&gt;Node6 -->
<g id="edge5" class="edge"><title>Node3&#45;&gt;Node6</title>
<path fill="none" stroke="midnightblue" d="M524.02,-259C534.701,-259 545.626,-259 556.045,-259"/>
<polygon fill="midnightblue" stroke="midnightblue" points="556.268,-262.5 566.268,-259 556.268,-255.5 556.268,-262.5"/>
</g>
<!-- Node7&#45;&gt;Node5 -->
<g id="edge9" class="edge"><title>Node7&#45;&gt;Node5</title>
<path fill="none" stroke="midnightblue" d="M318.17,-196.531C337.446,-198.281 359.757,-200.273 380,-202 440.478,-207.159 509.708,-212.688 557.471,-216.444"/>
<polygon fill="midnightblue" stroke="midnightblue" points="557.383,-219.947 567.626,-217.241 557.931,-212.969 557.383,-219.947"/>
</g>
<!-- Node8 -->
<g id="node8" class="node"><title>Node8</title>
<g id="a_node8"><a xlink:href="../../dc/d82/classPHNode.html#a5c15cb20d02290b69eb4d7f6051c9722" target="_top" xlink:title="PHNode::getParent">
<polygon fill="none" stroke="black" points="401.5,-173.5 401.5,-192.5 502.5,-192.5 502.5,-173.5 401.5,-173.5"/>
<text text-anchor="middle" x="452" y="-180.5" font-family="FreeSans" font-size="10.00">PHNode::getParent</text>
</a>
</g>
</g>
<!-- Node7&#45;&gt;Node8 -->
<g id="edge7" class="edge"><title>Node7&#45;&gt;Node8</title>
<path fill="none" stroke="midnightblue" d="M318.252,-189.564C340.719,-188.453 367.521,-187.128 391.14,-185.96"/>
<polygon fill="midnightblue" stroke="midnightblue" points="391.578,-189.443 401.393,-185.453 391.232,-182.451 391.578,-189.443"/>
</g>
<!-- Node9 -->
<g id="node9" class="node"><title>Node9</title>
<g id="a_node9"><a xlink:href="../../dc/d82/classPHNode.html#a4ab1f90aed955a652813bfe377087bda" target="_top" xlink:title="PHNode::getType">
<polygon fill="none" stroke="black" points="405.5,-135.5 405.5,-154.5 498.5,-154.5 498.5,-135.5 405.5,-135.5"/>
<text text-anchor="middle" x="452" y="-142.5" font-family="FreeSans" font-size="10.00">PHNode::getType</text>
</a>
</g>
</g>
<!-- Node7&#45;&gt;Node9 -->
<g id="edge8" class="edge"><title>Node7&#45;&gt;Node9</title>
<path fill="none" stroke="midnightblue" d="M306.784,-182.489C318.697,-179.474 331.903,-176.115 344,-173 364.018,-167.845 386.122,-162.074 405.017,-157.117"/>
<polygon fill="midnightblue" stroke="midnightblue" points="406.08,-160.457 414.863,-154.532 404.302,-153.686 406.08,-160.457"/>
</g>
<!-- Node10&#45;&gt;Node5 -->
<g id="edge12" class="edge"><title>Node10&#45;&gt;Node5</title>
<path fill="none" stroke="midnightblue" d="M300.76,-126.418C350.581,-113.175 449.141,-94.2866 524,-126 560.789,-141.586 590.075,-179.881 605.058,-202.809"/>
<polygon fill="midnightblue" stroke="midnightblue" points="602.124,-204.719 610.418,-211.311 608.046,-200.985 602.124,-204.719"/>
</g>
<!-- Node10&#45;&gt;Node9 -->
<g id="edge11" class="edge"><title>Node10&#45;&gt;Node9</title>
<path fill="none" stroke="midnightblue" d="M330.11,-139.022C351.135,-140.062 374.555,-141.22 395.141,-142.238"/>
<polygon fill="midnightblue" stroke="midnightblue" points="395.146,-145.742 405.307,-142.74 395.492,-138.751 395.146,-145.742"/>
</g>
<!-- Node10&#45;&gt;Node10 -->
<g id="edge13" class="edge"><title>Node10&#45;&gt;Node10</title>
<path fill="none" stroke="midnightblue" d="M239.64,-145.757C225.844,-154.565 235.297,-164 268,-164 290.483,-164 301.978,-159.541 302.483,-153.891"/>
<polygon fill="midnightblue" stroke="midnightblue" points="305.17,-151.642 296.36,-145.757 299.577,-155.851 305.17,-151.642"/>
</g>
</g>
</svg>
