<?xml version="1.0" encoding="UTF-8" standalone="no"?>
<!DOCTYPE svg PUBLIC "-//W3C//DTD SVG 1.1//EN"
 "http://www.w3.org/Graphics/SVG/1.1/DTD/svg11.dtd">
<!-- Generated by graphviz version 2.36.0 (20140111.2315)
 -->
<!-- Title: fun4all/fun4all/Fun4AllFileOutStream.h Pages: 1 -->
<svg width="376pt" height="176pt"
 viewBox="0.00 0.00 376.00 176.00" xmlns="http://www.w3.org/2000/svg" xmlns:xlink="http://www.w3.org/1999/xlink">
<g id="graph0" class="graph" transform="scale(1 1) rotate(0) translate(4 172)">
<title>fun4all/fun4all/Fun4AllFileOutStream.h</title>
<!-- Node1 -->
<g id="node1" class="node"><title>Node1</title>
<polygon fill="#bfbfbf" stroke="black" points="162,-137 162,-167 290,-167 290,-137 162,-137"/>
<text text-anchor="start" x="170" y="-155" font-family="FreeSans" font-size="10.00">fun4all/fun4all/Fun4AllFile</text>
<text text-anchor="middle" x="226" y="-144" font-family="FreeSans" font-size="10.00">OutStream.h</text>
</g>
<!-- Node2 -->
<g id="node2" class="node"><title>Node2</title>
<g id="a_node2"><a xlink:href="../../d8/d07/Fun4AllRolloverFileOutStream_8h.html" target="_top" xlink:title="fun4all/fun4all/Fun4AllRollover\lFileOutStream.h">
<polygon fill="none" stroke="black" points="74,-69 74,-99 222,-99 222,-69 74,-69"/>
<text text-anchor="start" x="82" y="-87" font-family="FreeSans" font-size="10.00">fun4all/fun4all/Fun4AllRollover</text>
<text text-anchor="middle" x="148" y="-76" font-family="FreeSans" font-size="10.00">FileOutStream.h</text>
</a>
</g>
</g>
<!-- Node1&#45;&gt;Node2 -->
<g id="edge1" class="edge"><title>Node1&#45;&gt;Node2</title>
<path fill="none" stroke="midnightblue" d="M201.204,-130.018C189.263,-119.915 175.264,-108.07 164.624,-99.0663"/>
<polygon fill="midnightblue" stroke="midnightblue" points="199.18,-132.891 209.075,-136.679 203.702,-127.548 199.18,-132.891"/>
</g>
<!-- Node5 -->
<g id="node5" class="node"><title>Node5</title>
<g id="a_node5"><a xlink:href="../../d2/d3e/Fun4AllFileOutStream_8cc.html" target="_top" xlink:title="fun4all/fun4all/Fun4AllFile\lOutStream.cc">
<polygon fill="none" stroke="black" points="240,-69 240,-99 368,-99 368,-69 240,-69"/>
<text text-anchor="start" x="248" y="-87" font-family="FreeSans" font-size="10.00">fun4all/fun4all/Fun4AllFile</text>
<text text-anchor="middle" x="304" y="-76" font-family="FreeSans" font-size="10.00">OutStream.cc</text>
</a>
</g>
</g>
<!-- Node1&#45;&gt;Node5 -->
<g id="edge4" class="edge"><title>Node1&#45;&gt;Node5</title>
<path fill="none" stroke="midnightblue" d="M250.796,-130.018C262.737,-119.915 276.736,-108.07 287.376,-99.0663"/>
<polygon fill="midnightblue" stroke="midnightblue" points="248.298,-127.548 242.925,-136.679 252.82,-132.891 248.298,-127.548"/>
</g>
<!-- Node3 -->
<g id="node3" class="node"><title>Node3</title>
<g id="a_node3"><a xlink:href="../../d6/dbe/Fun4AllEventOutputManager_8cc.html" target="_top" xlink:title="fun4all/fun4all/Fun4AllEvent\lOutputManager.cc">
<polygon fill="none" stroke="black" points="-0.5,-1 -0.5,-31 136.5,-31 136.5,-1 -0.5,-1"/>
<text text-anchor="start" x="7.5" y="-19" font-family="FreeSans" font-size="10.00">fun4all/fun4all/Fun4AllEvent</text>
<text text-anchor="middle" x="68" y="-8" font-family="FreeSans" font-size="10.00">OutputManager.cc</text>
</a>
</g>
</g>
<!-- Node2&#45;&gt;Node3 -->
<g id="edge2" class="edge"><title>Node2&#45;&gt;Node3</title>
<path fill="none" stroke="midnightblue" d="M122.92,-62.3094C110.597,-52.1426 96.0681,-40.1562 85.0501,-31.0663"/>
<polygon fill="midnightblue" stroke="midnightblue" points="120.7,-65.0149 130.641,-68.679 125.155,-59.6153 120.7,-65.0149"/>
</g>
<!-- Node4 -->
<g id="node4" class="node"><title>Node4</title>
<g id="a_node4"><a xlink:href="../../db/d70/Fun4AllRolloverFileOutStream_8cc.html" target="_top" xlink:title="fun4all/fun4all/Fun4AllRollover\lFileOutStream.cc">
<polygon fill="none" stroke="black" points="155,-1 155,-31 303,-31 303,-1 155,-1"/>
<text text-anchor="start" x="163" y="-19" font-family="FreeSans" font-size="10.00">fun4all/fun4all/Fun4AllRollover</text>
<text text-anchor="middle" x="229" y="-8" font-family="FreeSans" font-size="10.00">FileOutStream.cc</text>
</a>
</g>
</g>
<!-- Node2&#45;&gt;Node4 -->
<g id="edge3" class="edge"><title>Node2&#45;&gt;Node4</title>
<path fill="none" stroke="midnightblue" d="M173.393,-62.3094C185.87,-52.1426 200.581,-40.1562 211.737,-31.0663"/>
<polygon fill="midnightblue" stroke="midnightblue" points="171.117,-59.6489 165.576,-68.679 175.539,-65.0755 171.117,-59.6489"/>
</g>
</g>
</svg>
