<?xml version="1.0" encoding="UTF-8" standalone="no"?>
<!DOCTYPE svg PUBLIC "-//W3C//DTD SVG 1.1//EN"
 "http://www.w3.org/Graphics/SVG/1.1/DTD/svg11.dtd">
<!-- Generated by graphviz version 2.36.0 (20140111.2315)
 -->
<!-- Title: Fun4AllInputManager::PushBackEvents Pages: 1 -->
<svg width="294pt" height="87pt"
 viewBox="0.00 0.00 294.00 87.00" xmlns="http://www.w3.org/2000/svg" xmlns:xlink="http://www.w3.org/1999/xlink">
<g id="graph0" class="graph" transform="scale(1 1) rotate(0) translate(4 83)">
<title>Fun4AllInputManager::PushBackEvents</title>
<!-- Node1 -->
<g id="node1" class="node"><title>Node1</title>
<polygon fill="#bfbfbf" stroke="black" points="0.5,-24 0.5,-54 109.5,-54 109.5,-24 0.5,-24"/>
<text text-anchor="start" x="8.5" y="-42" font-family="FreeSans" font-size="10.00">Fun4AllInputManager</text>
<text text-anchor="middle" x="55" y="-31" font-family="FreeSans" font-size="10.00">::PushBackEvents</text>
</g>
<!-- Node2 -->
<g id="node2" class="node"><title>Node2</title>
<g id="a_node2"><a xlink:href="../../dd/ded/classFun4AllSyncManager.html#aca6b99ed1a096ae7cd5d135e0529175f" target="_top" xlink:title="Fun4AllSyncManager\l::PushBackInputMgrsEvents">
<polygon fill="none" stroke="black" points="146,-49 146,-79 286,-79 286,-49 146,-49"/>
<text text-anchor="start" x="154" y="-67" font-family="FreeSans" font-size="10.00">Fun4AllSyncManager</text>
<text text-anchor="middle" x="216" y="-56" font-family="FreeSans" font-size="10.00">::PushBackInputMgrsEvents</text>
</a>
</g>
</g>
<!-- Node1&#45;&gt;Node2 -->
<g id="edge1" class="edge"><title>Node1&#45;&gt;Node2</title>
<path fill="none" stroke="midnightblue" d="M119.727,-49.0199C128.278,-50.3644 137.082,-51.7488 145.723,-53.1074"/>
<polygon fill="midnightblue" stroke="midnightblue" points="120.252,-45.5597 109.83,-47.4639 119.165,-52.4747 120.252,-45.5597"/>
</g>
<!-- Node3 -->
<g id="node3" class="node"><title>Node3</title>
<g id="a_node3"><a xlink:href="../../d4/da9/classFun4AllInputManager.html#ab3d2e9e91ba594a105e185650491dac9" target="_top" xlink:title="Fun4AllInputManager\l::skip">
<polygon fill="none" stroke="black" points="161.5,-0 161.5,-30 270.5,-30 270.5,-0 161.5,-0"/>
<text text-anchor="start" x="169.5" y="-18" font-family="FreeSans" font-size="10.00">Fun4AllInputManager</text>
<text text-anchor="middle" x="216" y="-7" font-family="FreeSans" font-size="10.00">::skip</text>
</a>
</g>
</g>
<!-- Node1&#45;&gt;Node3 -->
<g id="edge2" class="edge"><title>Node1&#45;&gt;Node3</title>
<path fill="none" stroke="midnightblue" d="M119.764,-29.3753C133.601,-27.2866 148.101,-25.0979 161.495,-23.0762"/>
<polygon fill="midnightblue" stroke="midnightblue" points="119.196,-25.9213 109.83,-30.8747 120.241,-32.8429 119.196,-25.9213"/>
</g>
</g>
</svg>
