<?xml version="1.0" encoding="UTF-8" standalone="no"?>
<!DOCTYPE svg PUBLIC "-//W3C//DTD SVG 1.1//EN"
 "http://www.w3.org/Graphics/SVG/1.1/DTD/svg11.dtd">
<!-- Generated by graphviz version 2.36.0 (20140111.2315)
 -->
<!-- Title: Fun4AllInputManager::AddToFileOpened Pages: 1 -->
<svg width="788pt" height="125pt"
 viewBox="0.00 0.00 788.00 125.00" xmlns="http://www.w3.org/2000/svg" xmlns:xlink="http://www.w3.org/1999/xlink">
<g id="graph0" class="graph" transform="scale(1 1) rotate(0) translate(4 121)">
<title>Fun4AllInputManager::AddToFileOpened</title>
<!-- Node1 -->
<g id="node1" class="node"><title>Node1</title>
<polygon fill="#bfbfbf" stroke="black" points="0.5,-24 0.5,-54 109.5,-54 109.5,-24 0.5,-24"/>
<text text-anchor="start" x="8.5" y="-42" font-family="FreeSans" font-size="10.00">Fun4AllInputManager</text>
<text text-anchor="middle" x="55" y="-31" font-family="FreeSans" font-size="10.00">::AddToFileOpened</text>
</g>
<!-- Node2 -->
<g id="node2" class="node"><title>Node2</title>
<g id="a_node2"><a xlink:href="../../d7/d0b/classFun4AllDstInputManager.html#a4d32eadb9f77d41387656b87377ef14f" target="_top" xlink:title="Fun4AllDstInputManager\l::fileopen">
<polygon fill="none" stroke="black" points="148,-49 148,-79 272,-79 272,-49 148,-49"/>
<text text-anchor="start" x="156" y="-67" font-family="FreeSans" font-size="10.00">Fun4AllDstInputManager</text>
<text text-anchor="middle" x="210" y="-56" font-family="FreeSans" font-size="10.00">::fileopen</text>
</a>
</g>
</g>
<!-- Node1&#45;&gt;Node2 -->
<g id="edge1" class="edge"><title>Node1&#45;&gt;Node2</title>
<path fill="none" stroke="midnightblue" d="M119.561,-49.3858C128.944,-50.919 138.595,-52.4959 147.926,-54.0205"/>
<polygon fill="midnightblue" stroke="midnightblue" points="119.946,-45.9023 109.512,-47.7438 118.817,-52.8107 119.946,-45.9023"/>
</g>
<!-- Node7 -->
<g id="node7" class="node"><title>Node7</title>
<g id="a_node7"><a xlink:href="../../da/dd8/classFun4AllPrdfInputManager.html#af7c7687826ed9f7495f0837fbc7f3f1e" target="_top" xlink:title="Fun4AllPrdfInputManager\l::fileopen">
<polygon fill="none" stroke="black" points="146.5,-0 146.5,-30 273.5,-30 273.5,-0 146.5,-0"/>
<text text-anchor="start" x="154.5" y="-18" font-family="FreeSans" font-size="10.00">Fun4AllPrdfInputManager</text>
<text text-anchor="middle" x="210" y="-7" font-family="FreeSans" font-size="10.00">::fileopen</text>
</a>
</g>
</g>
<!-- Node1&#45;&gt;Node7 -->
<g id="edge6" class="edge"><title>Node1&#45;&gt;Node7</title>
<path fill="none" stroke="midnightblue" d="M119.424,-29.0512C128.318,-27.6561 137.455,-26.2228 146.334,-24.8299"/>
<polygon fill="midnightblue" stroke="midnightblue" points="118.849,-25.5985 109.512,-30.606 119.934,-32.5139 118.849,-25.5985"/>
</g>
<!-- Node3 -->
<g id="node3" class="node"><title>Node3</title>
<g id="a_node3"><a xlink:href="../../d7/d0b/classFun4AllDstInputManager.html#ae4e92b95ae50ab72856d06c99b043496" target="_top" xlink:title="Fun4AllDstInputManager\l::OpenNextFile">
<polygon fill="none" stroke="black" points="312,-49 312,-79 436,-79 436,-49 312,-49"/>
<text text-anchor="start" x="320" y="-67" font-family="FreeSans" font-size="10.00">Fun4AllDstInputManager</text>
<text text-anchor="middle" x="374" y="-56" font-family="FreeSans" font-size="10.00">::OpenNextFile</text>
</a>
</g>
</g>
<!-- Node2&#45;&gt;Node3 -->
<g id="edge2" class="edge"><title>Node2&#45;&gt;Node3</title>
<path fill="none" stroke="midnightblue" d="M282.413,-64C292.26,-64 302.299,-64 311.937,-64"/>
<polygon fill="midnightblue" stroke="midnightblue" points="282.245,-60.5001 272.245,-64 282.245,-67.5001 282.245,-60.5001"/>
</g>
<!-- Node4 -->
<g id="node4" class="node"><title>Node4</title>
<g id="a_node4"><a xlink:href="../../d7/d0b/classFun4AllDstInputManager.html#ade26017b627e0e1f1ec0dec62ac7fd52" target="_top" xlink:title="Fun4AllDstInputManager\l::ReadNextEventSyncObject">
<polygon fill="none" stroke="black" points="477.5,-87 477.5,-117 616.5,-117 616.5,-87 477.5,-87"/>
<text text-anchor="start" x="485.5" y="-105" font-family="FreeSans" font-size="10.00">Fun4AllDstInputManager</text>
<text text-anchor="middle" x="547" y="-94" font-family="FreeSans" font-size="10.00">::ReadNextEventSyncObject</text>
</a>
</g>
</g>
<!-- Node3&#45;&gt;Node4 -->
<g id="edge3" class="edge"><title>Node3&#45;&gt;Node4</title>
<path fill="none" stroke="midnightblue" d="M446.275,-79.8388C456.846,-82.1881 467.717,-84.6038 478.215,-86.9366"/>
<polygon fill="midnightblue" stroke="midnightblue" points="446.773,-76.3643 436.252,-77.6115 445.255,-83.1976 446.773,-76.3643"/>
</g>
<!-- Node6 -->
<g id="node6" class="node"><title>Node6</title>
<g id="a_node6"><a xlink:href="../../d7/d0b/classFun4AllDstInputManager.html#aeafa0248f9050c13fdae1bcb93336d7a" target="_top" xlink:title="Fun4AllDstInputManager::run">
<polygon fill="none" stroke="black" points="476,-48.5 476,-67.5 618,-67.5 618,-48.5 476,-48.5"/>
<text text-anchor="middle" x="547" y="-55.5" font-family="FreeSans" font-size="10.00">Fun4AllDstInputManager::run</text>
</a>
</g>
</g>
<!-- Node3&#45;&gt;Node6 -->
<g id="edge5" class="edge"><title>Node3&#45;&gt;Node6</title>
<path fill="none" stroke="midnightblue" d="M446.321,-61.4975C456.092,-61.1547 466.118,-60.8029 475.868,-60.4608"/>
<polygon fill="midnightblue" stroke="midnightblue" points="446.123,-58.0022 436.252,-61.8508 446.369,-64.9979 446.123,-58.0022"/>
</g>
<!-- Node5 -->
<g id="node5" class="node"><title>Node5</title>
<g id="a_node5"><a xlink:href="../../d7/d0b/classFun4AllDstInputManager.html#a0244c2edbaa2350038304b09f352c2d0" target="_top" xlink:title="Fun4AllDstInputManager\l::SyncIt">
<polygon fill="none" stroke="black" points="656,-87 656,-117 780,-117 780,-87 656,-87"/>
<text text-anchor="start" x="664" y="-105" font-family="FreeSans" font-size="10.00">Fun4AllDstInputManager</text>
<text text-anchor="middle" x="718" y="-94" font-family="FreeSans" font-size="10.00">::SyncIt</text>
</a>
</g>
</g>
<!-- Node4&#45;&gt;Node5 -->
<g id="edge4" class="edge"><title>Node4&#45;&gt;Node5</title>
<path fill="none" stroke="midnightblue" d="M626.856,-102C636.62,-102 646.486,-102 655.927,-102"/>
<polygon fill="midnightblue" stroke="midnightblue" points="626.739,-98.5001 616.739,-102 626.739,-105.5 626.739,-98.5001"/>
</g>
<!-- Node8 -->
<g id="node8" class="node"><title>Node8</title>
<g id="a_node8"><a xlink:href="../../da/dd8/classFun4AllPrdfInputManager.html#ad41dec5d04fecb25543013a8971a503c" target="_top" xlink:title="Fun4AllPrdfInputManager\l::OpenNextFile">
<polygon fill="none" stroke="black" points="310.5,-0 310.5,-30 437.5,-30 437.5,-0 310.5,-0"/>
<text text-anchor="start" x="318.5" y="-18" font-family="FreeSans" font-size="10.00">Fun4AllPrdfInputManager</text>
<text text-anchor="middle" x="374" y="-7" font-family="FreeSans" font-size="10.00">::OpenNextFile</text>
</a>
</g>
</g>
<!-- Node7&#45;&gt;Node8 -->
<g id="edge7" class="edge"><title>Node7&#45;&gt;Node8</title>
<path fill="none" stroke="midnightblue" d="M283.885,-15C292.69,-15 301.624,-15 310.266,-15"/>
<polygon fill="midnightblue" stroke="midnightblue" points="283.633,-11.5001 273.633,-15 283.633,-18.5001 283.633,-11.5001"/>
</g>
<!-- Node9 -->
<g id="node9" class="node"><title>Node9</title>
<g id="a_node9"><a xlink:href="../../da/dd8/classFun4AllPrdfInputManager.html#ac3f313ef5571ce32cd40799791e2ea56" target="_top" xlink:title="Fun4AllPrdfInputManager::run">
<polygon fill="none" stroke="black" points="474.5,-5.5 474.5,-24.5 619.5,-24.5 619.5,-5.5 474.5,-5.5"/>
<text text-anchor="middle" x="547" y="-12.5" font-family="FreeSans" font-size="10.00">Fun4AllPrdfInputManager::run</text>
</a>
</g>
</g>
<!-- Node8&#45;&gt;Node9 -->
<g id="edge8" class="edge"><title>Node8&#45;&gt;Node9</title>
<path fill="none" stroke="midnightblue" d="M447.885,-15C456.648,-15 465.592,-15 474.338,-15"/>
<polygon fill="midnightblue" stroke="midnightblue" points="447.703,-11.5001 437.703,-15 447.703,-18.5001 447.703,-11.5001"/>
</g>
</g>
</svg>
