<?xml version="1.0" encoding="UTF-8" standalone="no"?>
<!DOCTYPE svg PUBLIC "-//W3C//DTD SVG 1.1//EN"
 "http://www.w3.org/Graphics/SVG/1.1/DTD/svg11.dtd">
<!-- Generated by graphviz version 2.36.0 (20140111.2315)
 -->
<!-- Title: Fun4AllInputManager::Print Pages: 1 -->
<svg width="282pt" height="87pt"
 viewBox="0.00 0.00 282.00 87.00" xmlns="http://www.w3.org/2000/svg" xmlns:xlink="http://www.w3.org/1999/xlink">
<g id="graph0" class="graph" transform="scale(1 1) rotate(0) translate(4 83)">
<title>Fun4AllInputManager::Print</title>
<!-- Node1 -->
<g id="node1" class="node"><title>Node1</title>
<polygon fill="#bfbfbf" stroke="black" points="0.5,-24 0.5,-54 109.5,-54 109.5,-24 0.5,-24"/>
<text text-anchor="start" x="8.5" y="-42" font-family="FreeSans" font-size="10.00">Fun4AllInputManager</text>
<text text-anchor="middle" x="55" y="-31" font-family="FreeSans" font-size="10.00">::Print</text>
</g>
<!-- Node2 -->
<g id="node2" class="node"><title>Node2</title>
<g id="a_node2"><a xlink:href="../../da/dd8/classFun4AllPrdfInputManager.html#ab736ddc8e2fcce92d08a44d6fe297a9e" target="_top" xlink:title="Fun4AllPrdfInputManager\l::Print">
<polygon fill="none" stroke="black" points="146.5,-49 146.5,-79 273.5,-79 273.5,-49 146.5,-49"/>
<text text-anchor="start" x="154.5" y="-67" font-family="FreeSans" font-size="10.00">Fun4AllPrdfInputManager</text>
<text text-anchor="middle" x="210" y="-56" font-family="FreeSans" font-size="10.00">::Print</text>
</a>
</g>
</g>
<!-- Node1&#45;&gt;Node2 -->
<g id="edge1" class="edge"><title>Node1&#45;&gt;Node2</title>
<path fill="none" stroke="midnightblue" d="M119.424,-49.3633C128.318,-50.8166 137.455,-52.3096 146.334,-53.7605"/>
<polygon fill="midnightblue" stroke="midnightblue" points="119.946,-45.9023 109.512,-47.7438 118.817,-52.8107 119.946,-45.9023"/>
</g>
<!-- Node3 -->
<g id="node3" class="node"><title>Node3</title>
<g id="a_node3"><a xlink:href="../../d7/d0b/classFun4AllDstInputManager.html#ac24c4362dbe7ec37d4d7127227e540fa" target="_top" xlink:title="Fun4AllDstInputManager\l::Print">
<polygon fill="none" stroke="black" points="148,-0 148,-30 272,-30 272,-0 148,-0"/>
<text text-anchor="start" x="156" y="-18" font-family="FreeSans" font-size="10.00">Fun4AllDstInputManager</text>
<text text-anchor="middle" x="210" y="-7" font-family="FreeSans" font-size="10.00">::Print</text>
</a>
</g>
</g>
<!-- Node1&#45;&gt;Node3 -->
<g id="edge2" class="edge"><title>Node1&#45;&gt;Node3</title>
<path fill="none" stroke="midnightblue" d="M119.561,-29.0297C128.944,-27.5578 138.595,-26.044 147.926,-24.5803"/>
<polygon fill="midnightblue" stroke="midnightblue" points="118.849,-25.5985 109.512,-30.606 119.934,-32.5139 118.849,-25.5985"/>
</g>
</g>
</svg>
