<?xml version="1.0" encoding="UTF-8" standalone="no"?>
<!DOCTYPE svg PUBLIC "-//W3C//DTD SVG 1.1//EN"
 "http://www.w3.org/Graphics/SVG/1.1/DTD/svg11.dtd">
<!-- Generated by graphviz version 2.36.0 (20140111.2315)
 -->
<!-- Title: Fun4AllInputManager::registerSubsystem Pages: 1 -->
<svg width="274pt" height="142pt"
 viewBox="0.00 0.00 274.00 142.00" xmlns="http://www.w3.org/2000/svg" xmlns:xlink="http://www.w3.org/1999/xlink">
<g id="graph0" class="graph" transform="scale(1 1) rotate(0) translate(4 138)">
<title>Fun4AllInputManager::registerSubsystem</title>
<!-- Node1 -->
<g id="node1" class="node"><title>Node1</title>
<polygon fill="#bfbfbf" stroke="black" points="0.5,-52 0.5,-82 109.5,-82 109.5,-52 0.5,-52"/>
<text text-anchor="start" x="8.5" y="-70" font-family="FreeSans" font-size="10.00">Fun4AllInputManager</text>
<text text-anchor="middle" x="55" y="-59" font-family="FreeSans" font-size="10.00">::registerSubsystem</text>
</g>
<!-- Node2 -->
<g id="node2" class="node"><title>Node2</title>
<g id="a_node2"><a xlink:href="../../d0/d32/classSubsysReco.html#a6670c0a093dd2c2bdd44f8fc6f9ba8e8" target="_top" xlink:title="SubsysReco::Init">
<polygon fill="none" stroke="black" points="161.5,-114.5 161.5,-133.5 250.5,-133.5 250.5,-114.5 161.5,-114.5"/>
<text text-anchor="middle" x="206" y="-121.5" font-family="FreeSans" font-size="10.00">SubsysReco::Init</text>
</a>
</g>
</g>
<!-- Node1&#45;&gt;Node2 -->
<g id="edge1" class="edge"><title>Node1&#45;&gt;Node2</title>
<path fill="none" stroke="midnightblue" d="M89.9067,-82.1489C106.651,-89.4156 127.238,-98.0335 146,-105 151.687,-107.112 157.731,-109.215 163.698,-111.211"/>
<polygon fill="midnightblue" stroke="midnightblue" points="162.999,-114.665 173.592,-114.451 165.178,-108.012 162.999,-114.665"/>
</g>
<!-- Node3 -->
<g id="node3" class="node"><title>Node3</title>
<g id="a_node3"><a xlink:href="../../da/d29/classFun4AllServer.html#a3e55156f91b2c94bb6c4ef33ffce587a" target="_top" xlink:title="Fun4AllServer::instance">
<polygon fill="none" stroke="black" points="146.5,-76.5 146.5,-95.5 265.5,-95.5 265.5,-76.5 146.5,-76.5"/>
<text text-anchor="middle" x="206" y="-83.5" font-family="FreeSans" font-size="10.00">Fun4AllServer::instance</text>
</a>
</g>
</g>
<!-- Node1&#45;&gt;Node3 -->
<g id="edge2" class="edge"><title>Node1&#45;&gt;Node3</title>
<path fill="none" stroke="midnightblue" d="M109.792,-73.8594C118.453,-74.9638 127.52,-76.1199 136.47,-77.2613"/>
<polygon fill="midnightblue" stroke="midnightblue" points="136.136,-80.747 146.499,-78.5401 137.022,-73.8032 136.136,-80.747"/>
</g>
<!-- Node4 -->
<g id="node4" class="node"><title>Node4</title>
<g id="a_node4"><a xlink:href="../../d5/dec/classFun4AllBase.html#a41f9ac377743d046f590617fd6f4f0ed" target="_top" xlink:title="Returns the name of this module. ">
<polygon fill="none" stroke="black" points="154.5,-38.5 154.5,-57.5 257.5,-57.5 257.5,-38.5 154.5,-38.5"/>
<text text-anchor="middle" x="206" y="-45.5" font-family="FreeSans" font-size="10.00">Fun4AllBase::Name</text>
</a>
</g>
</g>
<!-- Node1&#45;&gt;Node4 -->
<g id="edge3" class="edge"><title>Node1&#45;&gt;Node4</title>
<path fill="none" stroke="midnightblue" d="M109.792,-60.1406C120.897,-58.7245 132.669,-57.2234 144.009,-55.7774"/>
<polygon fill="midnightblue" stroke="midnightblue" points="144.793,-59.2059 154.269,-54.469 143.907,-52.2621 144.793,-59.2059"/>
</g>
<!-- Node5 -->
<g id="node5" class="node"><title>Node5</title>
<g id="a_node5"><a xlink:href="../../da/d29/classFun4AllServer.html#abcaf6825367e5db292ff795237bdcf62" target="_top" xlink:title="Fun4AllServer::topNode">
<polygon fill="none" stroke="black" points="146.5,-0.5 146.5,-19.5 265.5,-19.5 265.5,-0.5 146.5,-0.5"/>
<text text-anchor="middle" x="206" y="-7.5" font-family="FreeSans" font-size="10.00">Fun4AllServer::topNode</text>
</a>
</g>
</g>
<!-- Node1&#45;&gt;Node5 -->
<g id="edge4" class="edge"><title>Node1&#45;&gt;Node5</title>
<path fill="none" stroke="midnightblue" d="M89.9067,-51.8511C106.651,-44.5844 127.238,-35.9665 146,-29 151.687,-26.8883 157.731,-24.7853 163.698,-22.7895"/>
<polygon fill="midnightblue" stroke="midnightblue" points="165.178,-25.9878 173.592,-19.5494 162.999,-19.3355 165.178,-25.9878"/>
</g>
</g>
</svg>
