<?xml version="1.0" encoding="UTF-8" standalone="no"?>
<!DOCTYPE svg PUBLIC "-//W3C//DTD SVG 1.1//EN"
 "http://www.w3.org/Graphics/SVG/1.1/DTD/svg11.dtd">
<!-- Generated by graphviz version 2.36.0 (20140111.2315)
 -->
<!-- Title: Fun4AllInputManager::RejectEvent Pages: 1 -->
<svg width="274pt" height="104pt"
 viewBox="0.00 0.00 274.00 104.00" xmlns="http://www.w3.org/2000/svg" xmlns:xlink="http://www.w3.org/1999/xlink">
<g id="graph0" class="graph" transform="scale(1 1) rotate(0) translate(4 100)">
<title>Fun4AllInputManager::RejectEvent</title>
<!-- Node1 -->
<g id="node1" class="node"><title>Node1</title>
<polygon fill="#bfbfbf" stroke="black" points="0.5,-33 0.5,-63 109.5,-63 109.5,-33 0.5,-33"/>
<text text-anchor="start" x="8.5" y="-51" font-family="FreeSans" font-size="10.00">Fun4AllInputManager</text>
<text text-anchor="middle" x="55" y="-40" font-family="FreeSans" font-size="10.00">::RejectEvent</text>
</g>
<!-- Node2 -->
<g id="node2" class="node"><title>Node2</title>
<g id="a_node2"><a xlink:href="../../da/d29/classFun4AllServer.html#a3e55156f91b2c94bb6c4ef33ffce587a" target="_top" xlink:title="Fun4AllServer::instance">
<polygon fill="none" stroke="black" points="146.5,-76.5 146.5,-95.5 265.5,-95.5 265.5,-76.5 146.5,-76.5"/>
<text text-anchor="middle" x="206" y="-83.5" font-family="FreeSans" font-size="10.00">Fun4AllServer::instance</text>
</a>
</g>
</g>
<!-- Node1&#45;&gt;Node2 -->
<g id="edge1" class="edge"><title>Node1&#45;&gt;Node2</title>
<path fill="none" stroke="midnightblue" d="M109.792,-61.7189C125.52,-65.7299 142.584,-70.0819 157.865,-73.9791"/>
<polygon fill="midnightblue" stroke="midnightblue" points="157.063,-77.3863 167.617,-76.4662 158.792,-70.6034 157.063,-77.3863"/>
</g>
<!-- Node3 -->
<g id="node3" class="node"><title>Node3</title>
<g id="a_node3"><a xlink:href="../../d5/dec/classFun4AllBase.html#a41f9ac377743d046f590617fd6f4f0ed" target="_top" xlink:title="Returns the name of this module. ">
<polygon fill="none" stroke="black" points="154.5,-38.5 154.5,-57.5 257.5,-57.5 257.5,-38.5 154.5,-38.5"/>
<text text-anchor="middle" x="206" y="-45.5" font-family="FreeSans" font-size="10.00">Fun4AllBase::Name</text>
</a>
</g>
</g>
<!-- Node1&#45;&gt;Node3 -->
<g id="edge2" class="edge"><title>Node1&#45;&gt;Node3</title>
<path fill="none" stroke="midnightblue" d="M109.792,-48C120.897,-48 132.669,-48 144.009,-48"/>
<polygon fill="midnightblue" stroke="midnightblue" points="144.27,-51.5001 154.269,-48 144.269,-44.5001 144.27,-51.5001"/>
</g>
<!-- Node4 -->
<g id="node4" class="node"><title>Node4</title>
<g id="a_node4"><a xlink:href="../../da/d29/classFun4AllServer.html#abcaf6825367e5db292ff795237bdcf62" target="_top" xlink:title="Fun4AllServer::topNode">
<polygon fill="none" stroke="black" points="146.5,-0.5 146.5,-19.5 265.5,-19.5 265.5,-0.5 146.5,-0.5"/>
<text text-anchor="middle" x="206" y="-7.5" font-family="FreeSans" font-size="10.00">Fun4AllServer::topNode</text>
</a>
</g>
</g>
<!-- Node1&#45;&gt;Node4 -->
<g id="edge3" class="edge"><title>Node1&#45;&gt;Node4</title>
<path fill="none" stroke="midnightblue" d="M109.792,-34.2811C125.52,-30.2701 142.584,-25.9181 157.865,-22.0209"/>
<polygon fill="midnightblue" stroke="midnightblue" points="158.792,-25.3966 167.617,-19.5338 157.063,-18.6137 158.792,-25.3966"/>
</g>
</g>
</svg>
