<?xml version="1.0" encoding="UTF-8" standalone="no"?>
<!DOCTYPE svg PUBLIC "-//W3C//DTD SVG 1.1//EN"
 "http://www.w3.org/Graphics/SVG/1.1/DTD/svg11.dtd">
<!-- Generated by graphviz version 2.36.0 (20140111.2315)
 -->
<!-- Title: Fun4AllInputManager::SetRunNumber Pages: 1 -->
<svg width="798pt" height="99pt"
 viewBox="0.00 0.00 798.00 99.00" xmlns="http://www.w3.org/2000/svg" xmlns:xlink="http://www.w3.org/1999/xlink">
<g id="graph0" class="graph" transform="scale(1 1) rotate(0) translate(4 95)">
<title>Fun4AllInputManager::SetRunNumber</title>
<!-- Node1 -->
<g id="node1" class="node"><title>Node1</title>
<polygon fill="#bfbfbf" stroke="black" points="0.5,-17 0.5,-47 109.5,-47 109.5,-17 0.5,-17"/>
<text text-anchor="start" x="8.5" y="-35" font-family="FreeSans" font-size="10.00">Fun4AllInputManager</text>
<text text-anchor="middle" x="55" y="-24" font-family="FreeSans" font-size="10.00">::SetRunNumber</text>
</g>
<!-- Node2 -->
<g id="node2" class="node"><title>Node2</title>
<g id="a_node2"><a xlink:href="../../d7/d0b/classFun4AllDstInputManager.html#a4d32eadb9f77d41387656b87377ef14f" target="_top" xlink:title="Fun4AllDstInputManager\l::fileopen">
<polygon fill="none" stroke="black" points="157,-39 157,-69 281,-69 281,-39 157,-39"/>
<text text-anchor="start" x="165" y="-57" font-family="FreeSans" font-size="10.00">Fun4AllDstInputManager</text>
<text text-anchor="middle" x="219" y="-46" font-family="FreeSans" font-size="10.00">::fileopen</text>
</a>
</g>
</g>
<!-- Node1&#45;&gt;Node2 -->
<g id="edge1" class="edge"><title>Node1&#45;&gt;Node2</title>
<path fill="none" stroke="midnightblue" d="M119.965,-40.6866C132.074,-42.3311 144.715,-44.0477 156.739,-45.6805"/>
<polygon fill="midnightblue" stroke="midnightblue" points="120.324,-37.2033 109.944,-39.3257 119.382,-44.1396 120.324,-37.2033"/>
</g>
<!-- Node7 -->
<g id="node7" class="node"><title>Node7</title>
<g id="a_node7"><a xlink:href="../../da/dd8/classFun4AllPrdfInputManager.html#ac3f313ef5571ce32cd40799791e2ea56" target="_top" xlink:title="Fun4AllPrdfInputManager::run">
<polygon fill="none" stroke="black" points="146.5,-0.5 146.5,-19.5 291.5,-19.5 291.5,-0.5 146.5,-0.5"/>
<text text-anchor="middle" x="219" y="-7.5" font-family="FreeSans" font-size="10.00">Fun4AllPrdfInputManager::run</text>
</a>
</g>
</g>
<!-- Node1&#45;&gt;Node7 -->
<g id="edge6" class="edge"><title>Node1&#45;&gt;Node7</title>
<path fill="none" stroke="midnightblue" d="M120.09,-23.2964C129.212,-22.0576 138.634,-20.7781 147.865,-19.5246"/>
<polygon fill="midnightblue" stroke="midnightblue" points="119.382,-19.8604 109.944,-24.6743 120.324,-26.7967 119.382,-19.8604"/>
</g>
<!-- Node3 -->
<g id="node3" class="node"><title>Node3</title>
<g id="a_node3"><a xlink:href="../../d7/d0b/classFun4AllDstInputManager.html#ae4e92b95ae50ab72856d06c99b043496" target="_top" xlink:title="Fun4AllDstInputManager\l::OpenNextFile">
<polygon fill="none" stroke="black" points="328,-39 328,-69 452,-69 452,-39 328,-39"/>
<text text-anchor="start" x="336" y="-57" font-family="FreeSans" font-size="10.00">Fun4AllDstInputManager</text>
<text text-anchor="middle" x="390" y="-46" font-family="FreeSans" font-size="10.00">::OpenNextFile</text>
</a>
</g>
</g>
<!-- Node2&#45;&gt;Node3 -->
<g id="edge2" class="edge"><title>Node2&#45;&gt;Node3</title>
<path fill="none" stroke="midnightblue" d="M291.138,-54C303.325,-54 315.893,-54 327.793,-54"/>
<polygon fill="midnightblue" stroke="midnightblue" points="291.013,-50.5001 281.013,-54 291.013,-57.5001 291.013,-50.5001"/>
</g>
<!-- Node4 -->
<g id="node4" class="node"><title>Node4</title>
<g id="a_node4"><a xlink:href="../../d7/d0b/classFun4AllDstInputManager.html#ade26017b627e0e1f1ec0dec62ac7fd52" target="_top" xlink:title="Fun4AllDstInputManager\l::ReadNextEventSyncObject">
<polygon fill="none" stroke="black" points="489.5,-61 489.5,-91 628.5,-91 628.5,-61 489.5,-61"/>
<text text-anchor="start" x="497.5" y="-79" font-family="FreeSans" font-size="10.00">Fun4AllDstInputManager</text>
<text text-anchor="middle" x="559" y="-68" font-family="FreeSans" font-size="10.00">::ReadNextEventSyncObject</text>
</a>
</g>
</g>
<!-- Node3&#45;&gt;Node4 -->
<g id="edge3" class="edge"><title>Node3&#45;&gt;Node4</title>
<path fill="none" stroke="midnightblue" d="M462.291,-63.3917C471.291,-64.5772 480.483,-65.7882 489.438,-66.9679"/>
<polygon fill="midnightblue" stroke="midnightblue" points="462.608,-59.9032 452.236,-62.0671 461.694,-66.8433 462.608,-59.9032"/>
</g>
<!-- Node6 -->
<g id="node6" class="node"><title>Node6</title>
<g id="a_node6"><a xlink:href="../../d7/d0b/classFun4AllDstInputManager.html#aeafa0248f9050c13fdae1bcb93336d7a" target="_top" xlink:title="Fun4AllDstInputManager::run">
<polygon fill="none" stroke="black" points="488,-22.5 488,-41.5 630,-41.5 630,-22.5 488,-22.5"/>
<text text-anchor="middle" x="559" y="-29.5" font-family="FreeSans" font-size="10.00">Fun4AllDstInputManager::run</text>
</a>
</g>
</g>
<!-- Node3&#45;&gt;Node6 -->
<g id="edge5" class="edge"><title>Node3&#45;&gt;Node6</title>
<path fill="none" stroke="midnightblue" d="M462.376,-44.5971C470.777,-43.4905 479.344,-42.3619 487.729,-41.2573"/>
<polygon fill="midnightblue" stroke="midnightblue" points="461.694,-41.1567 452.236,-45.9329 462.608,-48.0968 461.694,-41.1567"/>
</g>
<!-- Node5 -->
<g id="node5" class="node"><title>Node5</title>
<g id="a_node5"><a xlink:href="../../d7/d0b/classFun4AllDstInputManager.html#a0244c2edbaa2350038304b09f352c2d0" target="_top" xlink:title="Fun4AllDstInputManager\l::SyncIt">
<polygon fill="none" stroke="black" points="666,-61 666,-91 790,-91 790,-61 666,-61"/>
<text text-anchor="start" x="674" y="-79" font-family="FreeSans" font-size="10.00">Fun4AllDstInputManager</text>
<text text-anchor="middle" x="728" y="-68" font-family="FreeSans" font-size="10.00">::SyncIt</text>
</a>
</g>
</g>
<!-- Node4&#45;&gt;Node5 -->
<g id="edge4" class="edge"><title>Node4&#45;&gt;Node5</title>
<path fill="none" stroke="midnightblue" d="M638.987,-76C647.977,-76 657.037,-76 665.749,-76"/>
<polygon fill="midnightblue" stroke="midnightblue" points="638.889,-72.5001 628.889,-76 638.889,-79.5001 638.889,-72.5001"/>
</g>
</g>
</svg>
