<?xml version="1.0" encoding="UTF-8" standalone="no"?>
<!DOCTYPE svg PUBLIC "-//W3C//DTD SVG 1.1//EN"
 "http://www.w3.org/Graphics/SVG/1.1/DTD/svg11.dtd">
<!-- Generated by graphviz version 2.36.0 (20140111.2315)
 -->
<!-- Title: Fun4AllInputManager::setSyncManager Pages: 1 -->
<svg width="630pt" height="102pt"
 viewBox="0.00 0.00 630.00 102.00" xmlns="http://www.w3.org/2000/svg" xmlns:xlink="http://www.w3.org/1999/xlink">
<g id="graph0" class="graph" transform="scale(1 1) rotate(0) translate(4 98)">
<title>Fun4AllInputManager::setSyncManager</title>
<!-- Node1 -->
<g id="node1" class="node"><title>Node1</title>
<polygon fill="#bfbfbf" stroke="black" points="0.5,-25 0.5,-55 109.5,-55 109.5,-25 0.5,-25"/>
<text text-anchor="start" x="8.5" y="-43" font-family="FreeSans" font-size="10.00">Fun4AllInputManager</text>
<text text-anchor="middle" x="55" y="-32" font-family="FreeSans" font-size="10.00">::setSyncManager</text>
</g>
<!-- Node2 -->
<g id="node2" class="node"><title>Node2</title>
<g id="a_node2"><a xlink:href="../../dd/ded/classFun4AllSyncManager.html#a2a284bc4ed777ec7f39d6e5c7090067c" target="_top" xlink:title="Fun4AllSyncManager\l::registerInputManager">
<polygon fill="none" stroke="black" points="160.5,-50 160.5,-80 273.5,-80 273.5,-50 160.5,-50"/>
<text text-anchor="start" x="168.5" y="-68" font-family="FreeSans" font-size="10.00">Fun4AllSyncManager</text>
<text text-anchor="middle" x="217" y="-57" font-family="FreeSans" font-size="10.00">::registerInputManager</text>
</a>
</g>
</g>
<!-- Node1&#45;&gt;Node2 -->
<g id="edge1" class="edge"><title>Node1&#45;&gt;Node2</title>
<path fill="none" stroke="midnightblue" d="M119.801,-49.9688C133.174,-52.0585 147.178,-54.2466 160.232,-56.2862"/>
<polygon fill="midnightblue" stroke="midnightblue" points="120.143,-46.48 109.723,-48.3942 119.063,-53.3961 120.143,-46.48"/>
</g>
<!-- Node6 -->
<g id="node6" class="node"><title>Node6</title>
<g id="a_node6"><a xlink:href="../../df/d43/classFun4AllDummyInputManager.html#a3863cb07576f56e8e514ae272b322679" target="_top" xlink:title="Fun4AllDummyInputManager\l::setSyncManager">
<polygon fill="none" stroke="black" points="146,-1 146,-31 288,-31 288,-1 146,-1"/>
<text text-anchor="start" x="154" y="-19" font-family="FreeSans" font-size="10.00">Fun4AllDummyInputManager</text>
<text text-anchor="middle" x="217" y="-8" font-family="FreeSans" font-size="10.00">::setSyncManager</text>
</a>
</g>
</g>
<!-- Node1&#45;&gt;Node6 -->
<g id="edge5" class="edge"><title>Node1&#45;&gt;Node6</title>
<path fill="none" stroke="midnightblue" d="M119.7,-30.4451C128.323,-29.1515 137.211,-27.8184 145.938,-26.5093"/>
<polygon fill="midnightblue" stroke="midnightblue" points="119.093,-26.9968 109.723,-31.9416 120.131,-33.9194 119.093,-26.9968"/>
</g>
<!-- Node3 -->
<g id="node3" class="node"><title>Node3</title>
<g id="a_node3"><a xlink:href="../../da/d29/classFun4AllServer.html#ab2cb490790d15b865ae79eb3094caabe" target="_top" xlink:title="Fun4AllServer::registerInput\lManager">
<polygon fill="none" stroke="black" points="324.5,-50 324.5,-80 461.5,-80 461.5,-50 324.5,-50"/>
<text text-anchor="start" x="332.5" y="-68" font-family="FreeSans" font-size="10.00">Fun4AllServer::registerInput</text>
<text text-anchor="middle" x="393" y="-57" font-family="FreeSans" font-size="10.00">Manager</text>
</a>
</g>
</g>
<!-- Node2&#45;&gt;Node3 -->
<g id="edge2" class="edge"><title>Node2&#45;&gt;Node3</title>
<path fill="none" stroke="midnightblue" d="M283.535,-65C296.825,-65 310.829,-65 324.196,-65"/>
<polygon fill="midnightblue" stroke="midnightblue" points="283.533,-61.5001 273.533,-65 283.533,-68.5001 283.533,-61.5001"/>
</g>
<!-- Node4 -->
<g id="node4" class="node"><title>Node4</title>
<g id="a_node4"><a xlink:href="../../d0/d46/Fun4__SimpleReadMySql_8C.html#a70381893748e3445abc30632beb256ce" target="_top" xlink:title="Fun4_SimpleReadMySql">
<polygon fill="none" stroke="black" points="498.5,-74.5 498.5,-93.5 621.5,-93.5 621.5,-74.5 498.5,-74.5"/>
<text text-anchor="middle" x="560" y="-81.5" font-family="FreeSans" font-size="10.00">Fun4_SimpleReadMySql</text>
</a>
</g>
</g>
<!-- Node3&#45;&gt;Node4 -->
<g id="edge3" class="edge"><title>Node3&#45;&gt;Node4</title>
<path fill="none" stroke="midnightblue" d="M471.668,-73.9436C480.645,-74.9773 489.698,-76.0198 498.401,-77.0219"/>
<polygon fill="midnightblue" stroke="midnightblue" points="471.923,-70.4499 461.588,-72.7828 471.122,-77.4039 471.923,-70.4499"/>
</g>
<!-- Node5 -->
<g id="node5" class="node"><title>Node5</title>
<g id="a_node5"><a xlink:href="../../d9/d8c/Fun4ReadMySql_8C.html#a729b39fa627147c63772f28c9be36b62" target="_top" xlink:title="Fun4ReadMySql">
<polygon fill="none" stroke="black" points="516,-36.5 516,-55.5 604,-55.5 604,-36.5 516,-36.5"/>
<text text-anchor="middle" x="560" y="-43.5" font-family="FreeSans" font-size="10.00">Fun4ReadMySql</text>
</a>
</g>
</g>
<!-- Node3&#45;&gt;Node5 -->
<g id="edge4" class="edge"><title>Node3&#45;&gt;Node5</title>
<path fill="none" stroke="midnightblue" d="M471.547,-56.0703C486.786,-54.3156 502.251,-52.5348 515.852,-50.9686"/>
<polygon fill="midnightblue" stroke="midnightblue" points="471.122,-52.5961 461.588,-57.2172 471.923,-59.5501 471.122,-52.5961"/>
</g>
</g>
</svg>
