<?xml version="1.0" encoding="UTF-8" standalone="no"?>
<!DOCTYPE svg PUBLIC "-//W3C//DTD SVG 1.1//EN"
 "http://www.w3.org/Graphics/SVG/1.1/DTD/svg11.dtd">
<!-- Generated by graphviz version 2.36.0 (20140111.2315)
 -->
<!-- Title: boost::shared_polymorphic_downcast Pages: 1 -->
<svg width="304pt" height="66pt"
 viewBox="0.00 0.00 304.00 66.00" xmlns="http://www.w3.org/2000/svg" xmlns:xlink="http://www.w3.org/1999/xlink">
<g id="graph0" class="graph" transform="scale(1 1) rotate(0) translate(4 62)">
<title>boost::shared_polymorphic_downcast</title>
<!-- Node1 -->
<g id="node1" class="node"><title>Node1</title>
<polygon fill="#bfbfbf" stroke="black" points="0.5,-14 0.5,-44 131.5,-44 131.5,-14 0.5,-14"/>
<text text-anchor="start" x="8.5" y="-32" font-family="FreeSans" font-size="10.00">boost::shared_polymorphic</text>
<text text-anchor="middle" x="66" y="-21" font-family="FreeSans" font-size="10.00">_downcast</text>
</g>
<!-- Node2 -->
<g id="node2" class="node"><title>Node2</title>
<g id="a_node2"><a xlink:href="../../da/d18/classboost_1_1shared__ptr.html#abd63b8767a5b5501e0d9bcac983c9859" target="_top" xlink:title="boost::shared_ptr::get">
<polygon fill="none" stroke="black" points="177.5,-38.5 177.5,-57.5 286.5,-57.5 286.5,-38.5 177.5,-38.5"/>
<text text-anchor="middle" x="232" y="-45.5" font-family="FreeSans" font-size="10.00">boost::shared_ptr::get</text>
</a>
</g>
</g>
<!-- Node1&#45;&gt;Node2 -->
<g id="edge1" class="edge"><title>Node1&#45;&gt;Node2</title>
<path fill="none" stroke="midnightblue" d="M131.817,-36.5093C143.52,-37.8651 155.712,-39.2776 167.38,-40.6294"/>
<polygon fill="midnightblue" stroke="midnightblue" points="167.138,-44.1246 177.474,-41.7988 167.943,-37.1711 167.138,-44.1246"/>
</g>
<!-- Node3 -->
<g id="node3" class="node"><title>Node3</title>
<g id="a_node3"><a xlink:href="../../d4/da9/namespaceboost.html#a241550106141c8ac116ae8968b8bb25f" target="_top" xlink:title="boost::shared_static_cast">
<polygon fill="none" stroke="black" points="168,-0.5 168,-19.5 296,-19.5 296,-0.5 168,-0.5"/>
<text text-anchor="middle" x="232" y="-7.5" font-family="FreeSans" font-size="10.00">boost::shared_static_cast</text>
</a>
</g>
</g>
<!-- Node1&#45;&gt;Node3 -->
<g id="edge2" class="edge"><title>Node1&#45;&gt;Node3</title>
<path fill="none" stroke="midnightblue" d="M131.817,-21.4907C140.376,-20.4991 149.196,-19.4773 157.882,-18.471"/>
<polygon fill="midnightblue" stroke="midnightblue" points="158.462,-21.9273 167.993,-17.2996 157.656,-14.9738 158.462,-21.9273"/>
</g>
</g>
</svg>
