<?xml version="1.0" encoding="UTF-8" standalone="no"?>
<!DOCTYPE svg PUBLIC "-//W3C//DTD SVG 1.1//EN"
 "http://www.w3.org/Graphics/SVG/1.1/DTD/svg11.dtd">
<!-- Generated by graphviz version 2.36.0 (20140111.2315)
 -->
<!-- Title: boost::operator== Pages: 1 -->
<svg width="230pt" height="66pt"
 viewBox="0.00 0.00 230.00 66.00" xmlns="http://www.w3.org/2000/svg" xmlns:xlink="http://www.w3.org/1999/xlink">
<g id="graph0" class="graph" transform="scale(1 1) rotate(0) translate(4 62)">
<title>boost::operator==</title>
<!-- Node1 -->
<g id="node1" class="node"><title>Node1</title>
<polygon fill="#bfbfbf" stroke="black" points="0,-19.5 0,-38.5 92,-38.5 92,-19.5 0,-19.5"/>
<text text-anchor="middle" x="46" y="-26.5" font-family="FreeSans" font-size="10.00">boost::operator==</text>
</g>
<!-- Node2 -->
<g id="node2" class="node"><title>Node2</title>
<g id="a_node2"><a xlink:href="../../d1/d96/classboost_1_1array.html#a692b0cab4e768f391c6784c799ea61ab" target="_top" xlink:title="boost::array::begin">
<polygon fill="none" stroke="black" points="128,-38.5 128,-57.5 222,-57.5 222,-38.5 128,-38.5"/>
<text text-anchor="middle" x="175" y="-45.5" font-family="FreeSans" font-size="10.00">boost::array::begin</text>
</a>
</g>
</g>
<!-- Node1&#45;&gt;Node2 -->
<g id="edge1" class="edge"><title>Node1&#45;&gt;Node2</title>
<path fill="none" stroke="midnightblue" d="M92.133,-35.7522C100.435,-36.9941 109.194,-38.3047 117.774,-39.5883"/>
<polygon fill="midnightblue" stroke="midnightblue" points="117.318,-43.0589 127.726,-41.0772 118.354,-36.136 117.318,-43.0589"/>
</g>
<!-- Node3 -->
<g id="node3" class="node"><title>Node3</title>
<g id="a_node3"><a xlink:href="../../d1/d96/classboost_1_1array.html#a7ceca2d1f87a5832e13db810b75b7a20" target="_top" xlink:title="boost::array::end">
<polygon fill="none" stroke="black" points="132,-0.5 132,-19.5 218,-19.5 218,-0.5 132,-0.5"/>
<text text-anchor="middle" x="175" y="-7.5" font-family="FreeSans" font-size="10.00">boost::array::end</text>
</a>
</g>
</g>
<!-- Node1&#45;&gt;Node3 -->
<g id="edge2" class="edge"><title>Node1&#45;&gt;Node3</title>
<path fill="none" stroke="midnightblue" d="M92.133,-22.2478C101.764,-20.807 112.011,-19.274 121.879,-17.7976"/>
<polygon fill="midnightblue" stroke="midnightblue" points="122.612,-21.2271 131.984,-16.2859 121.576,-14.3041 122.612,-21.2271"/>
</g>
</g>
</svg>
