<?xml version="1.0" encoding="UTF-8" standalone="no"?>
<!DOCTYPE svg PUBLIC "-//W3C//DTD SVG 1.1//EN"
 "http://www.w3.org/Graphics/SVG/1.1/DTD/svg11.dtd">
<!-- Generated by graphviz version 2.36.0 (20140111.2315)
 -->
<!-- Title: boost::atomic_compare_exchange Pages: 1 -->
<svg width="282pt" height="77pt"
 viewBox="0.00 0.00 282.00 77.00" xmlns="http://www.w3.org/2000/svg" xmlns:xlink="http://www.w3.org/1999/xlink">
<g id="graph0" class="graph" transform="scale(1 1) rotate(0) translate(4 73)">
<title>boost::atomic_compare_exchange</title>
<!-- Node1 -->
<g id="node1" class="node"><title>Node1</title>
<polygon fill="#bfbfbf" stroke="black" points="0.5,-17 0.5,-47 117.5,-47 117.5,-17 0.5,-17"/>
<text text-anchor="start" x="8.5" y="-35" font-family="FreeSans" font-size="10.00">boost::atomic_compare</text>
<text text-anchor="middle" x="59" y="-24" font-family="FreeSans" font-size="10.00">_exchange</text>
</g>
<!-- Node2 -->
<g id="node2" class="node"><title>Node2</title>
<g id="a_node2"><a xlink:href="../../da/d18/classboost_1_1shared__ptr.html#a1849079e5a8797032bcd9e8b460287a4" target="_top" xlink:title="boost::shared_ptr::\l_internal_equiv">
<polygon fill="none" stroke="black" points="166.5,-39 166.5,-69 261.5,-69 261.5,-39 166.5,-39"/>
<text text-anchor="start" x="174.5" y="-57" font-family="FreeSans" font-size="10.00">boost::shared_ptr::</text>
<text text-anchor="middle" x="214" y="-46" font-family="FreeSans" font-size="10.00">_internal_equiv</text>
</a>
</g>
</g>
<!-- Node1&#45;&gt;Node2 -->
<g id="edge1" class="edge"><title>Node1&#45;&gt;Node2</title>
<path fill="none" stroke="midnightblue" d="M117.843,-40.3173C130.272,-42.1044 143.4,-43.9922 155.805,-45.7758"/>
<polygon fill="midnightblue" stroke="midnightblue" points="155.626,-49.2861 166.023,-47.2451 156.623,-42.3574 155.626,-49.2861"/>
</g>
<!-- Node3 -->
<g id="node3" class="node"><title>Node3</title>
<g id="a_node3"><a xlink:href="../../da/d18/classboost_1_1shared__ptr.html#a35e547e16fa205e5d727929789fd7ac9" target="_top" xlink:title="boost::shared_ptr::swap">
<polygon fill="none" stroke="black" points="154.5,-0.5 154.5,-19.5 273.5,-19.5 273.5,-0.5 154.5,-0.5"/>
<text text-anchor="middle" x="214" y="-7.5" font-family="FreeSans" font-size="10.00">boost::shared_ptr::swap</text>
</a>
</g>
</g>
<!-- Node1&#45;&gt;Node3 -->
<g id="edge2" class="edge"><title>Node1&#45;&gt;Node3</title>
<path fill="none" stroke="midnightblue" d="M117.843,-23.6827C126.512,-22.4362 135.522,-21.1407 144.388,-19.8657"/>
<polygon fill="midnightblue" stroke="midnightblue" points="144.913,-23.3264 154.313,-18.4387 143.916,-16.3977 144.913,-23.3264"/>
</g>
</g>
</svg>
