<?xml version="1.0" encoding="UTF-8" standalone="no"?>
<!DOCTYPE svg PUBLIC "-//W3C//DTD SVG 1.1//EN"
 "http://www.w3.org/Graphics/SVG/1.1/DTD/svg11.dtd">
<!-- Generated by graphviz version 2.36.0 (20140111.2315)
 -->
<!-- Title: boost::atomic_compare_exchange_explicit Pages: 1 -->
<svg width="436pt" height="77pt"
 viewBox="0.00 0.00 436.00 77.00" xmlns="http://www.w3.org/2000/svg" xmlns:xlink="http://www.w3.org/1999/xlink">
<g id="graph0" class="graph" transform="scale(1 1) rotate(0) translate(4 73)">
<title>boost::atomic_compare_exchange_explicit</title>
<!-- Node1 -->
<g id="node1" class="node"><title>Node1</title>
<polygon fill="#bfbfbf" stroke="black" points="0.5,-17 0.5,-47 117.5,-47 117.5,-17 0.5,-17"/>
<text text-anchor="start" x="8.5" y="-35" font-family="FreeSans" font-size="10.00">boost::atomic_compare</text>
<text text-anchor="middle" x="59" y="-24" font-family="FreeSans" font-size="10.00">_exchange_explicit</text>
</g>
<!-- Node2 -->
<g id="node2" class="node"><title>Node2</title>
<g id="a_node2"><a xlink:href="../../d4/da9/namespaceboost.html#a8940021c293d75b997d0a2fd57fb97f4" target="_top" xlink:title="boost::atomic_compare\l_exchange">
<polygon fill="none" stroke="black" points="154.5,-17 154.5,-47 271.5,-47 271.5,-17 154.5,-17"/>
<text text-anchor="start" x="162.5" y="-35" font-family="FreeSans" font-size="10.00">boost::atomic_compare</text>
<text text-anchor="middle" x="213" y="-24" font-family="FreeSans" font-size="10.00">_exchange</text>
</a>
</g>
</g>
<!-- Node1&#45;&gt;Node2 -->
<g id="edge1" class="edge"><title>Node1&#45;&gt;Node2</title>
<path fill="none" stroke="midnightblue" d="M117.898,-32C126.461,-32 135.349,-32 144.093,-32"/>
<polygon fill="midnightblue" stroke="midnightblue" points="144.263,-35.5001 154.263,-32 144.263,-28.5001 144.263,-35.5001"/>
</g>
<!-- Node3 -->
<g id="node3" class="node"><title>Node3</title>
<g id="a_node3"><a xlink:href="../../da/d18/classboost_1_1shared__ptr.html#a1849079e5a8797032bcd9e8b460287a4" target="_top" xlink:title="boost::shared_ptr::\l_internal_equiv">
<polygon fill="none" stroke="black" points="320.5,-39 320.5,-69 415.5,-69 415.5,-39 320.5,-39"/>
<text text-anchor="start" x="328.5" y="-57" font-family="FreeSans" font-size="10.00">boost::shared_ptr::</text>
<text text-anchor="middle" x="368" y="-46" font-family="FreeSans" font-size="10.00">_internal_equiv</text>
</a>
</g>
</g>
<!-- Node2&#45;&gt;Node3 -->
<g id="edge2" class="edge"><title>Node2&#45;&gt;Node3</title>
<path fill="none" stroke="midnightblue" d="M271.843,-40.3173C284.272,-42.1044 297.4,-43.9922 309.805,-45.7758"/>
<polygon fill="midnightblue" stroke="midnightblue" points="309.626,-49.2861 320.023,-47.2451 310.623,-42.3574 309.626,-49.2861"/>
</g>
<!-- Node4 -->
<g id="node4" class="node"><title>Node4</title>
<g id="a_node4"><a xlink:href="../../da/d18/classboost_1_1shared__ptr.html#a35e547e16fa205e5d727929789fd7ac9" target="_top" xlink:title="boost::shared_ptr::swap">
<polygon fill="none" stroke="black" points="308.5,-0.5 308.5,-19.5 427.5,-19.5 427.5,-0.5 308.5,-0.5"/>
<text text-anchor="middle" x="368" y="-7.5" font-family="FreeSans" font-size="10.00">boost::shared_ptr::swap</text>
</a>
</g>
</g>
<!-- Node2&#45;&gt;Node4 -->
<g id="edge3" class="edge"><title>Node2&#45;&gt;Node4</title>
<path fill="none" stroke="midnightblue" d="M271.843,-23.6827C280.512,-22.4362 289.522,-21.1407 298.388,-19.8657"/>
<polygon fill="midnightblue" stroke="midnightblue" points="298.913,-23.3264 308.313,-18.4387 297.916,-16.3977 298.913,-23.3264"/>
</g>
</g>
</svg>
