<?xml version="1.0" encoding="UTF-8" standalone="no"?>
<!DOCTYPE svg PUBLIC "-//W3C//DTD SVG 1.1//EN"
 "http://www.w3.org/Graphics/SVG/1.1/DTD/svg11.dtd">
<!-- Generated by graphviz version 2.36.0 (20140111.2315)
 -->
<!-- Title: boost::atomic_exchange_explicit Pages: 1 -->
<svg width="444pt" height="38pt"
 viewBox="0.00 0.00 444.00 38.00" xmlns="http://www.w3.org/2000/svg" xmlns:xlink="http://www.w3.org/1999/xlink">
<g id="graph0" class="graph" transform="scale(1 1) rotate(0) translate(4 34)">
<title>boost::atomic_exchange_explicit</title>
<!-- Node1 -->
<g id="node1" class="node"><title>Node1</title>
<polygon fill="#bfbfbf" stroke="black" points="0.5,-0 0.5,-30 121.5,-30 121.5,-0 0.5,-0"/>
<text text-anchor="start" x="8.5" y="-18" font-family="FreeSans" font-size="10.00">boost::atomic_exchange</text>
<text text-anchor="middle" x="61" y="-7" font-family="FreeSans" font-size="10.00">_explicit</text>
</g>
<!-- Node2 -->
<g id="node2" class="node"><title>Node2</title>
<g id="a_node2"><a xlink:href="../../d4/da9/namespaceboost.html#a6d367cd4931325d822c116faf5d8b6a5" target="_top" xlink:title="boost::atomic_exchange">
<polygon fill="none" stroke="black" points="158.5,-5.5 158.5,-24.5 279.5,-24.5 279.5,-5.5 158.5,-5.5"/>
<text text-anchor="middle" x="219" y="-12.5" font-family="FreeSans" font-size="10.00">boost::atomic_exchange</text>
</a>
</g>
</g>
<!-- Node1&#45;&gt;Node2 -->
<g id="edge1" class="edge"><title>Node1&#45;&gt;Node2</title>
<path fill="none" stroke="midnightblue" d="M121.868,-15C130.452,-15 139.346,-15 148.103,-15"/>
<polygon fill="midnightblue" stroke="midnightblue" points="148.293,-18.5001 158.293,-15 148.293,-11.5001 148.293,-18.5001"/>
</g>
<!-- Node3 -->
<g id="node3" class="node"><title>Node3</title>
<g id="a_node3"><a xlink:href="../../da/d18/classboost_1_1shared__ptr.html#a35e547e16fa205e5d727929789fd7ac9" target="_top" xlink:title="boost::shared_ptr::swap">
<polygon fill="none" stroke="black" points="316.5,-5.5 316.5,-24.5 435.5,-24.5 435.5,-5.5 316.5,-5.5"/>
<text text-anchor="middle" x="376" y="-12.5" font-family="FreeSans" font-size="10.00">boost::shared_ptr::swap</text>
</a>
</g>
</g>
<!-- Node2&#45;&gt;Node3 -->
<g id="edge2" class="edge"><title>Node2&#45;&gt;Node3</title>
<path fill="none" stroke="midnightblue" d="M279.927,-15C288.499,-15 297.374,-15 306.102,-15"/>
<polygon fill="midnightblue" stroke="midnightblue" points="306.253,-18.5001 316.253,-15 306.253,-11.5001 306.253,-18.5001"/>
</g>
</g>
</svg>
