<?xml version="1.0" encoding="UTF-8" standalone="no"?>
<!DOCTYPE svg PUBLIC "-//W3C//DTD SVG 1.1//EN"
 "http://www.w3.org/Graphics/SVG/1.1/DTD/svg11.dtd">
<!-- Generated by graphviz version 2.36.0 (20140111.2315)
 -->
<!-- Title: boost::atomic_store_explicit Pages: 1 -->
<svg width="404pt" height="38pt"
 viewBox="0.00 0.00 404.00 38.00" xmlns="http://www.w3.org/2000/svg" xmlns:xlink="http://www.w3.org/1999/xlink">
<g id="graph0" class="graph" transform="scale(1 1) rotate(0) translate(4 34)">
<title>boost::atomic_store_explicit</title>
<!-- Node1 -->
<g id="node1" class="node"><title>Node1</title>
<polygon fill="#bfbfbf" stroke="black" points="0.5,-0 0.5,-30 101.5,-30 101.5,-0 0.5,-0"/>
<text text-anchor="start" x="8.5" y="-18" font-family="FreeSans" font-size="10.00">boost::atomic_store</text>
<text text-anchor="middle" x="51" y="-7" font-family="FreeSans" font-size="10.00">_explicit</text>
</g>
<!-- Node2 -->
<g id="node2" class="node"><title>Node2</title>
<g id="a_node2"><a xlink:href="../../d4/da9/namespaceboost.html#a8ad2de7e358794f915f6324942ff57d7" target="_top" xlink:title="boost::atomic_store">
<polygon fill="none" stroke="black" points="138.5,-5.5 138.5,-24.5 239.5,-24.5 239.5,-5.5 138.5,-5.5"/>
<text text-anchor="middle" x="189" y="-12.5" font-family="FreeSans" font-size="10.00">boost::atomic_store</text>
</a>
</g>
</g>
<!-- Node1&#45;&gt;Node2 -->
<g id="edge1" class="edge"><title>Node1&#45;&gt;Node2</title>
<path fill="none" stroke="midnightblue" d="M101.869,-15C110.369,-15 119.277,-15 128.006,-15"/>
<polygon fill="midnightblue" stroke="midnightblue" points="128.137,-18.5001 138.137,-15 128.137,-11.5001 128.137,-18.5001"/>
</g>
<!-- Node3 -->
<g id="node3" class="node"><title>Node3</title>
<g id="a_node3"><a xlink:href="../../da/d18/classboost_1_1shared__ptr.html#a35e547e16fa205e5d727929789fd7ac9" target="_top" xlink:title="boost::shared_ptr::swap">
<polygon fill="none" stroke="black" points="276.5,-5.5 276.5,-24.5 395.5,-24.5 395.5,-5.5 276.5,-5.5"/>
<text text-anchor="middle" x="336" y="-12.5" font-family="FreeSans" font-size="10.00">boost::shared_ptr::swap</text>
</a>
</g>
</g>
<!-- Node2&#45;&gt;Node3 -->
<g id="edge2" class="edge"><title>Node2&#45;&gt;Node3</title>
<path fill="none" stroke="midnightblue" d="M239.901,-15C248.321,-15 257.192,-15 265.995,-15"/>
<polygon fill="midnightblue" stroke="midnightblue" points="266.266,-18.5001 276.266,-15 266.266,-11.5001 266.266,-18.5001"/>
</g>
</g>
</svg>
