<?xml version="1.0" encoding="UTF-8" standalone="no"?>
<!DOCTYPE svg PUBLIC "-//W3C//DTD SVG 1.1//EN"
 "http://www.w3.org/Graphics/SVG/1.1/DTD/svg11.dtd">
<!-- Generated by graphviz version 2.36.0 (20140111.2315)
 -->
<!-- Title: fun4all/fun4all/Fun4AllInputManager.cc Pages: 1 -->
<svg width="1000pt" height="264pt"
 viewBox="0.00 0.00 1000.00 264.00" xmlns="http://www.w3.org/2000/svg" xmlns:xlink="http://www.w3.org/1999/xlink">
<g id="graph0" class="graph" transform="scale(1 1) rotate(0) translate(4 260)">
<title>fun4all/fun4all/Fun4AllInputManager.cc</title>
<!-- Node1 -->
<g id="node1" class="node"><title>Node1</title>
<polygon fill="#bfbfbf" stroke="black" points="631,-225 631,-255 765,-255 765,-225 631,-225"/>
<text text-anchor="start" x="639" y="-243" font-family="FreeSans" font-size="10.00">fun4all/fun4all/Fun4AllInput</text>
<text text-anchor="middle" x="698" y="-232" font-family="FreeSans" font-size="10.00">Manager.cc</text>
</g>
<!-- Node2 -->
<g id="node2" class="node"><title>Node2</title>
<g id="a_node2"><a xlink:href="../../d1/de7/Fun4AllInputManager_8h.html" target="_top" xlink:title="Fun4AllInputManager.h">
<polygon fill="none" stroke="black" points="181,-168.5 181,-187.5 297,-187.5 297,-168.5 181,-168.5"/>
<text text-anchor="middle" x="239" y="-175.5" font-family="FreeSans" font-size="10.00">Fun4AllInputManager.h</text>
</a>
</g>
</g>
<!-- Node1&#45;&gt;Node2 -->
<g id="edge1" class="edge"><title>Node1&#45;&gt;Node2</title>
<path fill="none" stroke="midnightblue" d="M630.766,-230.211C544.178,-218.893 394.498,-199.326 307.365,-187.937"/>
<polygon fill="midnightblue" stroke="midnightblue" points="307.686,-184.449 297.317,-186.623 306.779,-191.39 307.686,-184.449"/>
</g>
<!-- Node9 -->
<g id="node9" class="node"><title>Node9</title>
<g id="a_node9"><a xlink:href="../../d5/d6f/phool_8h.html" target="_top" xlink:title="phool/phool.h">
<polygon fill="none" stroke="black" points="726,-168.5 726,-187.5 800,-187.5 800,-168.5 726,-168.5"/>
<text text-anchor="middle" x="763" y="-175.5" font-family="FreeSans" font-size="10.00">phool/phool.h</text>
</a>
</g>
</g>
<!-- Node1&#45;&gt;Node9 -->
<g id="edge9" class="edge"><title>Node1&#45;&gt;Node9</title>
<path fill="none" stroke="midnightblue" d="M713.404,-224.781C723.239,-215.703 735.993,-203.929 746.105,-194.595"/>
<polygon fill="midnightblue" stroke="midnightblue" points="748.568,-197.085 753.542,-187.731 743.82,-191.942 748.568,-197.085"/>
</g>
<!-- Node10 -->
<g id="node10" class="node"><title>Node10</title>
<polygon fill="none" stroke="#bfbfbf" points="685,-56.5 685,-75.5 739,-75.5 739,-56.5 685,-56.5"/>
<text text-anchor="middle" x="712" y="-63.5" font-family="FreeSans" font-size="10.00">iostream</text>
</g>
<!-- Node1&#45;&gt;Node10 -->
<g id="edge31" class="edge"><title>Node1&#45;&gt;Node10</title>
<path fill="none" stroke="midnightblue" d="M699.146,-224.925C701.657,-194.073 707.647,-120.484 710.473,-85.7549"/>
<polygon fill="midnightblue" stroke="midnightblue" points="713.978,-85.8357 711.301,-75.5847 707.001,-85.2677 713.978,-85.8357"/>
</g>
<!-- Node11 -->
<g id="node11" class="node"><title>Node11</title>
<g id="a_node11"><a xlink:href="../../dc/da2/Fun4AllServer_8h.html" target="_top" xlink:title="Fun4AllServer.h">
<polygon fill="none" stroke="black" points="501,-168.5 501,-187.5 587,-187.5 587,-168.5 501,-168.5"/>
<text text-anchor="middle" x="544" y="-175.5" font-family="FreeSans" font-size="10.00">Fun4AllServer.h</text>
</a>
</g>
</g>
<!-- Node1&#45;&gt;Node11 -->
<g id="edge11" class="edge"><title>Node1&#45;&gt;Node11</title>
<path fill="none" stroke="midnightblue" d="M661.894,-224.933C635.68,-214.72 600.559,-201.036 575.484,-191.266"/>
<polygon fill="midnightblue" stroke="midnightblue" points="576.662,-187.969 566.073,-187.6 574.121,-194.492 576.662,-187.969"/>
</g>
<!-- Node17 -->
<g id="node17" class="node"><title>Node17</title>
<g id="a_node17"><a xlink:href="../../d5/dc2/SubsysReco_8h.html" target="_top" xlink:title="SubsysReco.h">
<polygon fill="none" stroke="black" points="-0.5,-112.5 -0.5,-131.5 78.5,-131.5 78.5,-112.5 -0.5,-112.5"/>
<text text-anchor="middle" x="39" y="-119.5" font-family="FreeSans" font-size="10.00">SubsysReco.h</text>
</a>
</g>
</g>
<!-- Node1&#45;&gt;Node17 -->
<g id="edge26" class="edge"><title>Node1&#45;&gt;Node17</title>
<path fill="none" stroke="midnightblue" d="M630.752,-235.472C508.933,-228.585 256.533,-211.907 172,-188 130.592,-176.289 86.4548,-152.091 60.872,-136.75"/>
<polygon fill="midnightblue" stroke="midnightblue" points="62.6857,-133.757 52.3257,-131.539 59.0412,-139.734 62.6857,-133.757"/>
</g>
<!-- Node18 -->
<g id="node18" class="node"><title>Node18</title>
<polygon fill="none" stroke="#bfbfbf" points="818.5,-168.5 818.5,-187.5 923.5,-187.5 923.5,-168.5 818.5,-168.5"/>
<text text-anchor="middle" x="871" y="-175.5" font-family="FreeSans" font-size="10.00">boost/filesystem.hpp</text>
</g>
<!-- Node1&#45;&gt;Node18 -->
<g id="edge29" class="edge"><title>Node1&#45;&gt;Node18</title>
<path fill="none" stroke="midnightblue" d="M738.561,-224.933C768.489,-214.553 808.752,-200.589 837.001,-190.792"/>
<polygon fill="midnightblue" stroke="midnightblue" points="838.154,-194.096 846.455,-187.513 835.86,-187.483 838.154,-194.096"/>
</g>
<!-- Node19 -->
<g id="node19" class="node"><title>Node19</title>
<polygon fill="none" stroke="#bfbfbf" points="942,-168.5 942,-187.5 992,-187.5 992,-168.5 942,-168.5"/>
<text text-anchor="middle" x="967" y="-175.5" font-family="FreeSans" font-size="10.00">fstream</text>
</g>
<!-- Node1&#45;&gt;Node19 -->
<g id="edge30" class="edge"><title>Node1&#45;&gt;Node19</title>
<path fill="none" stroke="midnightblue" d="M765.226,-225.039C812.076,-215.141 875.972,-201.304 932,-188 932.099,-187.976 932.199,-187.953 932.298,-187.929"/>
<polygon fill="midnightblue" stroke="midnightblue" points="932.914,-191.382 941.793,-185.601 931.247,-184.583 932.914,-191.382"/>
</g>
<!-- Node3 -->
<g id="node3" class="node"><title>Node3</title>
<g id="a_node3"><a xlink:href="../../d2/de7/Fun4AllBase_8h.html" target="_top" xlink:title="Fun4AllBase.h">
<polygon fill="none" stroke="black" points="268,-56.5 268,-75.5 348,-75.5 348,-56.5 268,-56.5"/>
<text text-anchor="middle" x="308" y="-63.5" font-family="FreeSans" font-size="10.00">Fun4AllBase.h</text>
</a>
</g>
</g>
<!-- Node2&#45;&gt;Node3 -->
<g id="edge2" class="edge"><title>Node2&#45;&gt;Node3</title>
<path fill="none" stroke="midnightblue" d="M229.915,-168.144C217.776,-155.203 199.098,-130.642 211,-112 221.536,-95.4972 239.855,-84.9543 257.755,-78.2615"/>
<polygon fill="midnightblue" stroke="midnightblue" points="259.256,-81.4487 267.605,-74.926 257.011,-74.8186 259.256,-81.4487"/>
</g>
<!-- Node4 -->
<g id="node4" class="node"><title>Node4</title>
<polygon fill="none" stroke="#bfbfbf" points="318.5,-0.5 318.5,-19.5 359.5,-19.5 359.5,-0.5 318.5,-0.5"/>
<text text-anchor="middle" x="339" y="-7.5" font-family="FreeSans" font-size="10.00">string</text>
</g>
<!-- Node2&#45;&gt;Node4 -->
<g id="edge7" class="edge"><title>Node2&#45;&gt;Node4</title>
<path fill="none" stroke="midnightblue" d="M228.827,-168.455C215.659,-156.293 195.365,-133.116 204,-112 222.656,-66.3812 275.173,-37.0786 308.937,-22.364"/>
<polygon fill="midnightblue" stroke="midnightblue" points="310.463,-25.5197 318.337,-18.4313 307.761,-19.0621 310.463,-25.5197"/>
</g>
<!-- Node6 -->
<g id="node6" class="node"><title>Node6</title>
<g id="a_node6"><a xlink:href="../../da/dc1/Fun4AllReturnCodes_8h.html" target="_top" xlink:title="Fun4AllReturnCodes.h">
<polygon fill="none" stroke="black" points="220.5,-112.5 220.5,-131.5 333.5,-131.5 333.5,-112.5 220.5,-112.5"/>
<text text-anchor="middle" x="277" y="-119.5" font-family="FreeSans" font-size="10.00">Fun4AllReturnCodes.h</text>
</a>
</g>
</g>
<!-- Node2&#45;&gt;Node6 -->
<g id="edge5" class="edge"><title>Node2&#45;&gt;Node6</title>
<path fill="none" stroke="midnightblue" d="M245.275,-168.083C250.642,-160.455 258.518,-149.264 265.079,-139.941"/>
<polygon fill="midnightblue" stroke="midnightblue" points="267.949,-141.943 270.842,-131.751 262.225,-137.915 267.949,-141.943"/>
</g>
<!-- Node7 -->
<g id="node7" class="node"><title>Node7</title>
<polygon fill="none" stroke="#bfbfbf" points="96.5,-112.5 96.5,-131.5 125.5,-131.5 125.5,-112.5 96.5,-112.5"/>
<text text-anchor="middle" x="111" y="-119.5" font-family="FreeSans" font-size="10.00">list</text>
</g>
<!-- Node2&#45;&gt;Node7 -->
<g id="edge6" class="edge"><title>Node2&#45;&gt;Node7</title>
<path fill="none" stroke="midnightblue" d="M218.718,-168.444C196.019,-158.867 159.266,-143.362 135.115,-133.173"/>
<polygon fill="midnightblue" stroke="midnightblue" points="136.187,-129.827 125.613,-129.165 133.466,-136.277 136.187,-129.827"/>
</g>
<!-- Node8 -->
<g id="node8" class="node"><title>Node8</title>
<polygon fill="none" stroke="#bfbfbf" points="352,-112.5 352,-131.5 396,-131.5 396,-112.5 352,-112.5"/>
<text text-anchor="middle" x="374" y="-119.5" font-family="FreeSans" font-size="10.00">vector</text>
</g>
<!-- Node2&#45;&gt;Node8 -->
<g id="edge8" class="edge"><title>Node2&#45;&gt;Node8</title>
<path fill="none" stroke="midnightblue" d="M260.391,-168.444C282.707,-159.517 317.903,-145.439 343.208,-135.317"/>
<polygon fill="midnightblue" stroke="midnightblue" points="344.724,-138.48 352.709,-131.516 342.124,-131.981 344.724,-138.48"/>
</g>
<!-- Node3&#45;&gt;Node4 -->
<g id="edge3" class="edge"><title>Node3&#45;&gt;Node4</title>
<path fill="none" stroke="midnightblue" d="M313.119,-56.083C317.408,-48.6127 323.658,-37.7244 328.942,-28.5199"/>
<polygon fill="midnightblue" stroke="midnightblue" points="332.033,-30.1662 333.976,-19.7511 325.962,-26.6811 332.033,-30.1662"/>
</g>
<!-- Node5 -->
<g id="node5" class="node"><title>Node5</title>
<polygon fill="none" stroke="#bfbfbf" points="255.5,-0.5 255.5,-19.5 300.5,-19.5 300.5,-0.5 255.5,-0.5"/>
<text text-anchor="middle" x="278" y="-7.5" font-family="FreeSans" font-size="10.00">climits</text>
</g>
<!-- Node3&#45;&gt;Node5 -->
<g id="edge4" class="edge"><title>Node3&#45;&gt;Node5</title>
<path fill="none" stroke="midnightblue" d="M303.046,-56.083C298.896,-48.6127 292.847,-37.7244 287.733,-28.5199"/>
<polygon fill="midnightblue" stroke="midnightblue" points="290.778,-26.7929 282.862,-19.7511 284.659,-30.1924 290.778,-26.7929"/>
</g>
<!-- Node9&#45;&gt;Node10 -->
<g id="edge10" class="edge"><title>Node9&#45;&gt;Node10</title>
<path fill="none" stroke="midnightblue" d="M758.998,-168.368C750.693,-150.456 731.437,-108.923 720.321,-84.9482"/>
<polygon fill="midnightblue" stroke="midnightblue" points="723.365,-83.1916 715.983,-75.5914 717.014,-86.136 723.365,-83.1916"/>
</g>
<!-- Node11&#45;&gt;Node3 -->
<g id="edge12" class="edge"><title>Node11&#45;&gt;Node3</title>
<path fill="none" stroke="midnightblue" d="M525.481,-168.368C484.208,-149.131 384.481,-102.648 335.744,-79.9314"/>
<polygon fill="midnightblue" stroke="midnightblue" points="336.975,-76.6438 326.432,-75.5914 334.018,-82.9885 336.975,-76.6438"/>
</g>
<!-- Node11&#45;&gt;Node4 -->
<g id="edge24" class="edge"><title>Node11&#45;&gt;Node4</title>
<path fill="none" stroke="midnightblue" d="M533.267,-168.309C500.195,-141.528 399.555,-60.0347 357.635,-26.09"/>
<polygon fill="midnightblue" stroke="midnightblue" points="359.601,-23.1782 349.627,-19.6051 355.196,-28.6183 359.601,-23.1782"/>
</g>
<!-- Node11&#45;&gt;Node8 -->
<g id="edge25" class="edge"><title>Node11&#45;&gt;Node8</title>
<path fill="none" stroke="midnightblue" d="M517.063,-168.444C486.903,-158.863 438.062,-143.349 405.986,-133.16"/>
<polygon fill="midnightblue" stroke="midnightblue" points="406.796,-129.745 396.206,-130.054 404.677,-136.417 406.796,-129.745"/>
</g>
<!-- Node11&#45;&gt;Node10 -->
<g id="edge22" class="edge"><title>Node11&#45;&gt;Node10</title>
<path fill="none" stroke="midnightblue" d="M576.114,-168.355C599.414,-161.083 630.934,-149.109 655,-132 673.464,-118.874 689.97,-98.63 700.408,-84.225"/>
<polygon fill="midnightblue" stroke="midnightblue" points="703.484,-85.9348 706.351,-75.7354 697.749,-81.9205 703.484,-85.9348"/>
</g>
<!-- Node12 -->
<g id="node12" class="node"><title>Node12</title>
<g id="a_node12"><a xlink:href="../../d0/d59/Fun4AllHistoManager_8h.html" target="_top" xlink:title="Fun4AllHistoManager.h">
<polygon fill="none" stroke="black" points="528,-112.5 528,-131.5 646,-131.5 646,-112.5 528,-112.5"/>
<text text-anchor="middle" x="587" y="-119.5" font-family="FreeSans" font-size="10.00">Fun4AllHistoManager.h</text>
</a>
</g>
</g>
<!-- Node11&#45;&gt;Node12 -->
<g id="edge13" class="edge"><title>Node11&#45;&gt;Node12</title>
<path fill="none" stroke="midnightblue" d="M551.101,-168.083C557.237,-160.377 566.27,-149.033 573.739,-139.653"/>
<polygon fill="midnightblue" stroke="midnightblue" points="576.54,-141.754 580.032,-131.751 571.064,-137.394 576.54,-141.754"/>
</g>
<!-- Node13 -->
<g id="node13" class="node"><title>Node13</title>
<polygon fill="none" stroke="#bfbfbf" points="499.5,-56.5 499.5,-75.5 534.5,-75.5 534.5,-56.5 499.5,-56.5"/>
<text text-anchor="middle" x="517" y="-63.5" font-family="FreeSans" font-size="10.00">map</text>
</g>
<!-- Node11&#45;&gt;Node13 -->
<g id="edge23" class="edge"><title>Node11&#45;&gt;Node13</title>
<path fill="none" stroke="midnightblue" d="M537.464,-168.25C531.396,-159.564 522.752,-145.613 519,-132 514.824,-116.847 514.598,-98.9518 515.262,-85.7783"/>
<polygon fill="midnightblue" stroke="midnightblue" points="518.767,-85.8309 515.996,-75.6047 511.785,-85.3266 518.767,-85.8309"/>
</g>
<!-- Node14 -->
<g id="node14" class="node"><title>Node14</title>
<g id="a_node14"><a xlink:href="../../dc/d26/PHTimer_8h.html" target="_top" xlink:title="high precision timer ">
<polygon fill="none" stroke="black" points="778.5,-112.5 778.5,-131.5 867.5,-131.5 867.5,-112.5 778.5,-112.5"/>
<text text-anchor="middle" x="823" y="-119.5" font-family="FreeSans" font-size="10.00">phool/PHTimer.h</text>
</a>
</g>
</g>
<!-- Node11&#45;&gt;Node14 -->
<g id="edge18" class="edge"><title>Node11&#45;&gt;Node14</title>
<path fill="none" stroke="midnightblue" d="M587.288,-168.622C636.177,-159.159 715.805,-143.748 768.791,-133.492"/>
<polygon fill="midnightblue" stroke="midnightblue" points="769.535,-136.913 778.688,-131.577 768.205,-130.041 769.535,-136.913"/>
</g>
<!-- Node12&#45;&gt;Node3 -->
<g id="edge14" class="edge"><title>Node12&#45;&gt;Node3</title>
<path fill="none" stroke="midnightblue" d="M542.792,-112.444C492.662,-102.741 411.085,-86.952 358.492,-76.7727"/>
<polygon fill="midnightblue" stroke="midnightblue" points="358.861,-73.2792 348.378,-74.8151 357.531,-80.1516 358.861,-73.2792"/>
</g>
<!-- Node12&#45;&gt;Node4 -->
<g id="edge17" class="edge"><title>Node12&#45;&gt;Node4</title>
<path fill="none" stroke="midnightblue" d="M583.633,-112.271C577.695,-98.0987 563.97,-70.2366 543,-56 489.75,-19.8491 412.297,-12.1942 369.785,-10.8998"/>
<polygon fill="midnightblue" stroke="midnightblue" points="369.836,-7.40024 359.766,-10.6943 369.692,-14.3988 369.836,-7.40024"/>
</g>
<!-- Node12&#45;&gt;Node10 -->
<g id="edge15" class="edge"><title>Node12&#45;&gt;Node10</title>
<path fill="none" stroke="midnightblue" d="M606.807,-112.444C627.287,-103.596 659.483,-89.6875 682.865,-79.5865"/>
<polygon fill="midnightblue" stroke="midnightblue" points="684.494,-82.6953 692.286,-75.5164 681.718,-76.2692 684.494,-82.6953"/>
</g>
<!-- Node12&#45;&gt;Node13 -->
<g id="edge16" class="edge"><title>Node12&#45;&gt;Node13</title>
<path fill="none" stroke="midnightblue" d="M575.753,-112.324C565.203,-104.185 549.199,-91.8395 536.558,-82.0874"/>
<polygon fill="midnightblue" stroke="midnightblue" points="538.507,-79.1707 528.451,-75.8339 534.231,-84.7132 538.507,-79.1707"/>
</g>
<!-- Node14&#45;&gt;Node10 -->
<g id="edge19" class="edge"><title>Node14&#45;&gt;Node10</title>
<path fill="none" stroke="midnightblue" d="M805.166,-112.324C787.284,-103.625 759.525,-90.1202 738.954,-80.113"/>
<polygon fill="midnightblue" stroke="midnightblue" points="740.313,-76.8819 729.79,-75.6545 737.251,-83.1765 740.313,-76.8819"/>
</g>
<!-- Node15 -->
<g id="node15" class="node"><title>Node15</title>
<polygon fill="none" stroke="#bfbfbf" points="777,-56.5 777,-75.5 829,-75.5 829,-56.5 777,-56.5"/>
<text text-anchor="middle" x="803" y="-63.5" font-family="FreeSans" font-size="10.00">sstream</text>
</g>
<!-- Node14&#45;&gt;Node15 -->
<g id="edge20" class="edge"><title>Node14&#45;&gt;Node15</title>
<path fill="none" stroke="midnightblue" d="M819.697,-112.083C817.018,-104.849 813.151,-94.4087 809.814,-85.3968"/>
<polygon fill="midnightblue" stroke="midnightblue" points="812.996,-83.9129 806.241,-75.7511 806.432,-86.3442 812.996,-83.9129"/>
</g>
<!-- Node16 -->
<g id="node16" class="node"><title>Node16</title>
<polygon fill="none" stroke="#bfbfbf" points="847,-56.5 847,-75.5 897,-75.5 897,-56.5 847,-56.5"/>
<text text-anchor="middle" x="872" y="-63.5" font-family="FreeSans" font-size="10.00">unistd.h</text>
</g>
<!-- Node14&#45;&gt;Node16 -->
<g id="edge21" class="edge"><title>Node14&#45;&gt;Node16</title>
<path fill="none" stroke="midnightblue" d="M831.091,-112.083C838.155,-104.298 848.588,-92.8015 857.149,-83.3665"/>
<polygon fill="midnightblue" stroke="midnightblue" points="859.931,-85.5087 864.059,-75.7511 854.747,-80.8047 859.931,-85.5087"/>
</g>
<!-- Node17&#45;&gt;Node3 -->
<g id="edge27" class="edge"><title>Node17&#45;&gt;Node3</title>
<path fill="none" stroke="midnightblue" d="M78.6919,-113.032C126.235,-103.488 205.935,-87.4889 257.735,-77.0904"/>
<polygon fill="midnightblue" stroke="midnightblue" points="258.59,-80.4887 267.705,-75.0889 257.212,-73.6256 258.59,-80.4887"/>
</g>
<!-- Node17&#45;&gt;Node4 -->
<g id="edge28" class="edge"><title>Node17&#45;&gt;Node4</title>
<path fill="none" stroke="midnightblue" d="M49.4814,-112.392C67.0719,-98.3939 104.14,-70.7764 140,-56 208.092,-27.9419 232.588,-38.1098 308.39,-19.9149"/>
<polygon fill="midnightblue" stroke="midnightblue" points="309.548,-23.2334 318.405,-17.4194 307.855,-16.4411 309.548,-23.2334"/>
</g>
</g>
</svg>
