<?xml version="1.0" encoding="UTF-8" standalone="no"?>
<!DOCTYPE svg PUBLIC "-//W3C//DTD SVG 1.1//EN"
 "http://www.w3.org/Graphics/SVG/1.1/DTD/svg11.dtd">
<!-- Generated by graphviz version 2.36.0 (20140111.2315)
 -->
<!-- Title: fun4all/fun4all/Fun4AllEventOutStream.h Pages: 1 -->
<svg width="427pt" height="244pt"
 viewBox="0.00 0.00 427.00 244.00" xmlns="http://www.w3.org/2000/svg" xmlns:xlink="http://www.w3.org/1999/xlink">
<g id="graph0" class="graph" transform="scale(1 1) rotate(0) translate(4 240)">
<title>fun4all/fun4all/Fun4AllEventOutStream.h</title>
<!-- Node1 -->
<g id="node1" class="node"><title>Node1</title>
<polygon fill="#bfbfbf" stroke="black" points="96.5,-205 96.5,-235 233.5,-235 233.5,-205 96.5,-205"/>
<text text-anchor="start" x="104.5" y="-223" font-family="FreeSans" font-size="10.00">fun4all/fun4all/Fun4AllEvent</text>
<text text-anchor="middle" x="165" y="-212" font-family="FreeSans" font-size="10.00">OutStream.h</text>
</g>
<!-- Node2 -->
<g id="node2" class="node"><title>Node2</title>
<g id="a_node2"><a xlink:href="../../d6/dbe/Fun4AllEventOutputManager_8cc.html" target="_top" xlink:title="fun4all/fun4all/Fun4AllEvent\lOutputManager.cc">
<polygon fill="none" stroke="black" points="-0.5,-1 -0.5,-31 136.5,-31 136.5,-1 -0.5,-1"/>
<text text-anchor="start" x="7.5" y="-19" font-family="FreeSans" font-size="10.00">fun4all/fun4all/Fun4AllEvent</text>
<text text-anchor="middle" x="68" y="-8" font-family="FreeSans" font-size="10.00">OutputManager.cc</text>
</a>
</g>
</g>
<!-- Node1&#45;&gt;Node2 -->
<g id="edge1" class="edge"><title>Node1&#45;&gt;Node2</title>
<path fill="none" stroke="midnightblue" d="M121.605,-199.743C108.443,-191.787 95.289,-181.267 87,-168 59.6996,-124.304 62.9656,-59.5638 66.0721,-31.1918"/>
<polygon fill="midnightblue" stroke="midnightblue" points="120.228,-202.985 130.659,-204.844 123.664,-196.886 120.228,-202.985"/>
</g>
<!-- Node3 -->
<g id="node3" class="node"><title>Node3</title>
<g id="a_node3"><a xlink:href="../../da/d10/Fun4AllEventOutStream_8cc.html" target="_top" xlink:title="fun4all/fun4all/Fun4AllEvent\lOutStream.cc">
<polygon fill="none" stroke="black" points="96.5,-137 96.5,-167 233.5,-167 233.5,-137 96.5,-137"/>
<text text-anchor="start" x="104.5" y="-155" font-family="FreeSans" font-size="10.00">fun4all/fun4all/Fun4AllEvent</text>
<text text-anchor="middle" x="165" y="-144" font-family="FreeSans" font-size="10.00">OutStream.cc</text>
</a>
</g>
</g>
<!-- Node1&#45;&gt;Node3 -->
<g id="edge2" class="edge"><title>Node1&#45;&gt;Node3</title>
<path fill="none" stroke="midnightblue" d="M165,-194.532C165,-185.361 165,-175.245 165,-167.293"/>
<polygon fill="midnightblue" stroke="midnightblue" points="161.5,-194.679 165,-204.679 168.5,-194.679 161.5,-194.679"/>
</g>
<!-- Node4 -->
<g id="node4" class="node"><title>Node4</title>
<g id="a_node4"><a xlink:href="../../df/d18/Fun4AllFileOutStream_8h.html" target="_top" xlink:title="fun4all/fun4all/Fun4AllFile\lOutStream.h">
<polygon fill="none" stroke="black" points="252,-137 252,-167 380,-167 380,-137 252,-137"/>
<text text-anchor="start" x="260" y="-155" font-family="FreeSans" font-size="10.00">fun4all/fun4all/Fun4AllFile</text>
<text text-anchor="middle" x="316" y="-144" font-family="FreeSans" font-size="10.00">OutStream.h</text>
</a>
</g>
</g>
<!-- Node1&#45;&gt;Node4 -->
<g id="edge3" class="edge"><title>Node1&#45;&gt;Node4</title>
<path fill="none" stroke="midnightblue" d="M206.757,-200.749C231.136,-190.093 261.423,-176.855 283.92,-167.022"/>
<polygon fill="midnightblue" stroke="midnightblue" points="205.154,-197.629 197.393,-204.841 207.958,-204.043 205.154,-197.629"/>
</g>
<!-- Node5 -->
<g id="node5" class="node"><title>Node5</title>
<g id="a_node5"><a xlink:href="../../d8/d07/Fun4AllRolloverFileOutStream_8h.html" target="_top" xlink:title="fun4all/fun4all/Fun4AllRollover\lFileOutStream.h">
<polygon fill="none" stroke="black" points="125,-69 125,-99 273,-99 273,-69 125,-69"/>
<text text-anchor="start" x="133" y="-87" font-family="FreeSans" font-size="10.00">fun4all/fun4all/Fun4AllRollover</text>
<text text-anchor="middle" x="199" y="-76" font-family="FreeSans" font-size="10.00">FileOutStream.h</text>
</a>
</g>
</g>
<!-- Node4&#45;&gt;Node5 -->
<g id="edge4" class="edge"><title>Node4&#45;&gt;Node5</title>
<path fill="none" stroke="midnightblue" d="M282.162,-131.912C263.613,-121.448 241.013,-108.7 224.058,-99.1352"/>
<polygon fill="midnightblue" stroke="midnightblue" points="280.471,-134.977 290.901,-136.841 283.91,-128.88 280.471,-134.977"/>
</g>
<!-- Node7 -->
<g id="node7" class="node"><title>Node7</title>
<g id="a_node7"><a xlink:href="../../d2/d3e/Fun4AllFileOutStream_8cc.html" target="_top" xlink:title="fun4all/fun4all/Fun4AllFile\lOutStream.cc">
<polygon fill="none" stroke="black" points="291,-69 291,-99 419,-99 419,-69 291,-69"/>
<text text-anchor="start" x="299" y="-87" font-family="FreeSans" font-size="10.00">fun4all/fun4all/Fun4AllFile</text>
<text text-anchor="middle" x="355" y="-76" font-family="FreeSans" font-size="10.00">OutStream.cc</text>
</a>
</g>
</g>
<!-- Node4&#45;&gt;Node7 -->
<g id="edge7" class="edge"><title>Node4&#45;&gt;Node7</title>
<path fill="none" stroke="midnightblue" d="M329.58,-128.019C335.224,-118.467 341.6,-107.677 346.554,-99.2931"/>
<polygon fill="midnightblue" stroke="midnightblue" points="326.537,-126.289 324.462,-136.679 332.563,-129.85 326.537,-126.289"/>
</g>
<!-- Node5&#45;&gt;Node2 -->
<g id="edge5" class="edge"><title>Node5&#45;&gt;Node2</title>
<path fill="none" stroke="midnightblue" d="M161.96,-64.3388C141.035,-53.7964 115.3,-40.8303 96.0563,-31.1352"/>
<polygon fill="midnightblue" stroke="midnightblue" points="160.392,-67.4676 170.897,-68.8413 163.541,-61.2162 160.392,-67.4676"/>
</g>
<!-- Node6 -->
<g id="node6" class="node"><title>Node6</title>
<g id="a_node6"><a xlink:href="../../db/d70/Fun4AllRolloverFileOutStream_8cc.html" target="_top" xlink:title="fun4all/fun4all/Fun4AllRollover\lFileOutStream.cc">
<polygon fill="none" stroke="black" points="155,-1 155,-31 303,-31 303,-1 155,-1"/>
<text text-anchor="start" x="163" y="-19" font-family="FreeSans" font-size="10.00">fun4all/fun4all/Fun4AllRollover</text>
<text text-anchor="middle" x="229" y="-8" font-family="FreeSans" font-size="10.00">FileOutStream.cc</text>
</a>
</g>
</g>
<!-- Node5&#45;&gt;Node6 -->
<g id="edge6" class="edge"><title>Node5&#45;&gt;Node6</title>
<path fill="none" stroke="midnightblue" d="M209.715,-59.4263C213.99,-50.0226 218.771,-39.5042 222.503,-31.2931"/>
<polygon fill="midnightblue" stroke="midnightblue" points="206.461,-58.127 205.51,-68.679 212.834,-61.0236 206.461,-58.127"/>
</g>
</g>
</svg>
