<?xml version="1.0" encoding="UTF-8" standalone="no"?>
<!DOCTYPE svg PUBLIC "-//W3C//DTD SVG 1.1//EN"
 "http://www.w3.org/Graphics/SVG/1.1/DTD/svg11.dtd">
<!-- Generated by graphviz version 2.36.0 (20140111.2315)
 -->
<!-- Title: fun4all/phool/PHObject.cc Pages: 1 -->
<svg width="243pt" height="140pt"
 viewBox="0.00 0.00 243.00 140.00" xmlns="http://www.w3.org/2000/svg" xmlns:xlink="http://www.w3.org/1999/xlink">
<g id="graph0" class="graph" transform="scale(1 1) rotate(0) translate(4 136)">
<title>fun4all/phool/PHObject.cc</title>
<!-- Node1 -->
<g id="node1" class="node"><title>Node1</title>
<polygon fill="#bfbfbf" stroke="black" points="57,-112.5 57,-131.5 187,-131.5 187,-112.5 57,-112.5"/>
<text text-anchor="middle" x="122" y="-119.5" font-family="FreeSans" font-size="10.00">fun4all/phool/PHObject.cc</text>
</g>
<!-- Node2 -->
<g id="node2" class="node"><title>Node2</title>
<g id="a_node2"><a xlink:href="../../df/d32/PHObject_8h.html" target="_top" xlink:title="PHObject.h">
<polygon fill="none" stroke="black" points="1.5,-56.5 1.5,-75.5 68.5,-75.5 68.5,-56.5 1.5,-56.5"/>
<text text-anchor="middle" x="35" y="-63.5" font-family="FreeSans" font-size="10.00">PHObject.h</text>
</a>
</g>
</g>
<!-- Node1&#45;&gt;Node2 -->
<g id="edge1" class="edge"><title>Node1&#45;&gt;Node2</title>
<path fill="none" stroke="midnightblue" d="M108.022,-112.324C94.4504,-103.9 73.6198,-90.9709 57.675,-81.0741"/>
<polygon fill="midnightblue" stroke="midnightblue" points="59.2856,-77.9544 48.9434,-75.6545 55.594,-83.9019 59.2856,-77.9544"/>
</g>
<!-- Node4 -->
<g id="node4" class="node"><title>Node4</title>
<polygon fill="none" stroke="#bfbfbf" points="77,-0.5 77,-19.5 131,-19.5 131,-0.5 77,-0.5"/>
<text text-anchor="middle" x="104" y="-7.5" font-family="FreeSans" font-size="10.00">iostream</text>
</g>
<!-- Node1&#45;&gt;Node4 -->
<g id="edge5" class="edge"><title>Node1&#45;&gt;Node4</title>
<path fill="none" stroke="midnightblue" d="M120.588,-112.368C117.683,-94.617 110.982,-53.6664 107.043,-29.5974"/>
<polygon fill="midnightblue" stroke="midnightblue" points="110.475,-28.8949 105.406,-19.5914 103.567,-30.0254 110.475,-28.8949"/>
</g>
<!-- Node5 -->
<g id="node5" class="node"><title>Node5</title>
<polygon fill="none" stroke="#bfbfbf" points="125.5,-56.5 125.5,-75.5 170.5,-75.5 170.5,-56.5 125.5,-56.5"/>
<text text-anchor="middle" x="148" y="-63.5" font-family="FreeSans" font-size="10.00">cstdlib</text>
</g>
<!-- Node1&#45;&gt;Node5 -->
<g id="edge4" class="edge"><title>Node1&#45;&gt;Node5</title>
<path fill="none" stroke="midnightblue" d="M126.293,-112.083C129.852,-104.691 135.022,-93.9533 139.424,-84.8111"/>
<polygon fill="midnightblue" stroke="midnightblue" points="142.602,-86.2795 143.787,-75.7511 136.295,-83.2427 142.602,-86.2795"/>
</g>
<!-- Node6 -->
<g id="node6" class="node"><title>Node6</title>
<g id="a_node6"><a xlink:href="../../d5/d6f/phool_8h.html" target="_top" xlink:title="phool.h">
<polygon fill="none" stroke="black" points="188.5,-56.5 188.5,-75.5 235.5,-75.5 235.5,-56.5 188.5,-56.5"/>
<text text-anchor="middle" x="212" y="-63.5" font-family="FreeSans" font-size="10.00">phool.h</text>
</a>
</g>
</g>
<!-- Node1&#45;&gt;Node6 -->
<g id="edge6" class="edge"><title>Node1&#45;&gt;Node6</title>
<path fill="none" stroke="midnightblue" d="M136.46,-112.324C150.5,-103.9 172.048,-90.9709 188.543,-81.0741"/>
<polygon fill="midnightblue" stroke="midnightblue" points="190.802,-83.8007 197.576,-75.6545 187.2,-77.7983 190.802,-83.8007"/>
</g>
<!-- Node3 -->
<g id="node3" class="node"><title>Node3</title>
<polygon fill="none" stroke="#bfbfbf" points="-0.5,-0.5 -0.5,-19.5 58.5,-19.5 58.5,-0.5 -0.5,-0.5"/>
<text text-anchor="middle" x="29" y="-7.5" font-family="FreeSans" font-size="10.00">TObject.h</text>
</g>
<!-- Node2&#45;&gt;Node3 -->
<g id="edge2" class="edge"><title>Node2&#45;&gt;Node3</title>
<path fill="none" stroke="midnightblue" d="M34.0092,-56.083C33.2141,-48.9272 32.0706,-38.6353 31.0768,-29.6911"/>
<polygon fill="midnightblue" stroke="midnightblue" points="34.5553,-29.3034 29.9723,-19.7511 27.5982,-30.0765 34.5553,-29.3034"/>
</g>
<!-- Node2&#45;&gt;Node4 -->
<g id="edge3" class="edge"><title>Node2&#45;&gt;Node4</title>
<path fill="none" stroke="midnightblue" d="M46.086,-56.324C56.486,-48.1849 72.2606,-35.8395 84.7216,-26.0874"/>
<polygon fill="midnightblue" stroke="midnightblue" points="86.9943,-28.7533 92.7122,-19.8339 82.6801,-23.2407 86.9943,-28.7533"/>
</g>
<!-- Node6&#45;&gt;Node4 -->
<g id="edge7" class="edge"><title>Node6&#45;&gt;Node4</title>
<path fill="none" stroke="midnightblue" d="M194.648,-56.324C177.328,-47.6641 150.485,-34.2424 130.498,-24.249"/>
<polygon fill="midnightblue" stroke="midnightblue" points="131.819,-20.9962 121.309,-19.6545 128.688,-27.2572 131.819,-20.9962"/>
</g>
</g>
</svg>
