<?xml version="1.0" encoding="UTF-8" standalone="no"?>
<!DOCTYPE svg PUBLIC "-//W3C//DTD SVG 1.1//EN"
 "http://www.w3.org/Graphics/SVG/1.1/DTD/svg11.dtd">
<!-- Generated by graphviz version 2.36.0 (20140111.2315)
 -->
<!-- Title: fun4all/phool/recoConsts.h Pages: 1 -->
<svg width="138pt" height="140pt"
 viewBox="0.00 0.00 138.00 140.00" xmlns="http://www.w3.org/2000/svg" xmlns:xlink="http://www.w3.org/1999/xlink">
<g id="graph0" class="graph" transform="scale(1 1) rotate(0) translate(4 136)">
<title>fun4all/phool/recoConsts.h</title>
<!-- Node1 -->
<g id="node1" class="node"><title>Node1</title>
<polygon fill="#bfbfbf" stroke="black" points="-0.5,-112.5 -0.5,-131.5 130.5,-131.5 130.5,-112.5 -0.5,-112.5"/>
<text text-anchor="middle" x="65" y="-119.5" font-family="FreeSans" font-size="10.00">fun4all/phool/recoConsts.h</text>
</g>
<!-- Node2 -->
<g id="node2" class="node"><title>Node2</title>
<g id="a_node2"><a xlink:href="../../d0/d11/PHFlag_8h.html" target="_top" xlink:title="PHFlag.h">
<polygon fill="none" stroke="black" points="36.5,-56.5 36.5,-75.5 93.5,-75.5 93.5,-56.5 36.5,-56.5"/>
<text text-anchor="middle" x="65" y="-63.5" font-family="FreeSans" font-size="10.00">PHFlag.h</text>
</a>
</g>
</g>
<!-- Node1&#45;&gt;Node2 -->
<g id="edge1" class="edge"><title>Node1&#45;&gt;Node2</title>
<path fill="none" stroke="midnightblue" d="M65,-112.083C65,-105.006 65,-94.8611 65,-85.9865"/>
<polygon fill="midnightblue" stroke="midnightblue" points="68.5001,-85.751 65,-75.7511 61.5001,-85.7511 68.5001,-85.751"/>
</g>
<!-- Node3 -->
<g id="node3" class="node"><title>Node3</title>
<polygon fill="none" stroke="#bfbfbf" points="19.5,-0.5 19.5,-19.5 54.5,-19.5 54.5,-0.5 19.5,-0.5"/>
<text text-anchor="middle" x="37" y="-7.5" font-family="FreeSans" font-size="10.00">map</text>
</g>
<!-- Node2&#45;&gt;Node3 -->
<g id="edge2" class="edge"><title>Node2&#45;&gt;Node3</title>
<path fill="none" stroke="midnightblue" d="M60.3764,-56.083C56.5437,-48.6913 50.9758,-37.9533 46.2354,-28.8111"/>
<polygon fill="midnightblue" stroke="midnightblue" points="49.248,-27.0175 41.5376,-19.7511 43.0337,-30.2398 49.248,-27.0175"/>
</g>
<!-- Node4 -->
<g id="node4" class="node"><title>Node4</title>
<polygon fill="none" stroke="#bfbfbf" points="72.5,-0.5 72.5,-19.5 113.5,-19.5 113.5,-0.5 72.5,-0.5"/>
<text text-anchor="middle" x="93" y="-7.5" font-family="FreeSans" font-size="10.00">string</text>
</g>
<!-- Node2&#45;&gt;Node4 -->
<g id="edge3" class="edge"><title>Node2&#45;&gt;Node4</title>
<path fill="none" stroke="midnightblue" d="M69.6236,-56.083C73.4563,-48.6913 79.0242,-37.9533 83.7646,-28.8111"/>
<polygon fill="midnightblue" stroke="midnightblue" points="86.9663,-30.2398 88.4624,-19.7511 80.752,-27.0175 86.9663,-30.2398"/>
</g>
</g>
</svg>
