<?xml version="1.0" encoding="UTF-8" standalone="no"?>
<!DOCTYPE svg PUBLIC "-//W3C//DTD SVG 1.1//EN"
 "http://www.w3.org/Graphics/SVG/1.1/DTD/svg11.dtd">
<!-- Generated by graphviz version 2.36.0 (20140111.2315)
 -->
<!-- Title: fun4all/fun4all/Fun4AllEventOutStream.cc Pages: 1 -->
<svg width="940pt" height="208pt"
 viewBox="0.00 0.00 940.00 208.00" xmlns="http://www.w3.org/2000/svg" xmlns:xlink="http://www.w3.org/1999/xlink">
<g id="graph0" class="graph" transform="scale(1 1) rotate(0) translate(4 204)">
<title>fun4all/fun4all/Fun4AllEventOutStream.cc</title>
<!-- Node1 -->
<g id="node1" class="node"><title>Node1</title>
<polygon fill="#bfbfbf" stroke="black" points="572.5,-169 572.5,-199 709.5,-199 709.5,-169 572.5,-169"/>
<text text-anchor="start" x="580.5" y="-187" font-family="FreeSans" font-size="10.00">fun4all/fun4all/Fun4AllEvent</text>
<text text-anchor="middle" x="641" y="-176" font-family="FreeSans" font-size="10.00">OutStream.cc</text>
</g>
<!-- Node2 -->
<g id="node2" class="node"><title>Node2</title>
<g id="a_node2"><a xlink:href="../../d4/d07/Fun4AllEventOutStream_8h.html" target="_top" xlink:title="Fun4AllEventOutStream.h">
<polygon fill="none" stroke="black" points="247.5,-112.5 247.5,-131.5 376.5,-131.5 376.5,-112.5 247.5,-112.5"/>
<text text-anchor="middle" x="312" y="-119.5" font-family="FreeSans" font-size="10.00">Fun4AllEventOutStream.h</text>
</a>
</g>
</g>
<!-- Node1&#45;&gt;Node2 -->
<g id="edge1" class="edge"><title>Node1&#45;&gt;Node2</title>
<path fill="none" stroke="midnightblue" d="M572.431,-170.495C512.029,-159.479 425.101,-143.626 368.586,-133.32"/>
<polygon fill="midnightblue" stroke="midnightblue" points="369.213,-129.876 358.747,-131.525 367.957,-136.763 369.213,-129.876"/>
</g>
<!-- Node11 -->
<g id="node11" class="node"><title>Node11</title>
<polygon fill="none" stroke="#bfbfbf" points="395,-112.5 395,-131.5 477,-131.5 477,-112.5 395,-112.5"/>
<text text-anchor="middle" x="436" y="-119.5" font-family="FreeSans" font-size="10.00">Event/oEvent.h</text>
</g>
<!-- Node1&#45;&gt;Node11 -->
<g id="edge11" class="edge"><title>Node1&#45;&gt;Node11</title>
<path fill="none" stroke="midnightblue" d="M592.937,-168.933C557.008,-158.417 508.509,-144.222 474.98,-134.409"/>
<polygon fill="midnightblue" stroke="midnightblue" points="475.666,-130.963 465.085,-131.513 473.699,-137.681 475.666,-130.963"/>
</g>
<!-- Node12 -->
<g id="node12" class="node"><title>Node12</title>
<polygon fill="none" stroke="#bfbfbf" points="495.5,-112.5 495.5,-131.5 584.5,-131.5 584.5,-112.5 495.5,-112.5"/>
<text text-anchor="middle" x="540" y="-119.5" font-family="FreeSans" font-size="10.00">Event/A_Event.h</text>
</g>
<!-- Node1&#45;&gt;Node12 -->
<g id="edge12" class="edge"><title>Node1&#45;&gt;Node12</title>
<path fill="none" stroke="midnightblue" d="M617.32,-168.933C601.041,-159.262 579.523,-146.479 563.322,-136.855"/>
<polygon fill="midnightblue" stroke="midnightblue" points="564.862,-133.698 554.477,-131.6 561.287,-139.717 564.862,-133.698"/>
</g>
<!-- Node13 -->
<g id="node13" class="node"><title>Node13</title>
<polygon fill="none" stroke="#bfbfbf" points="602.5,-112.5 602.5,-131.5 679.5,-131.5 679.5,-112.5 602.5,-112.5"/>
<text text-anchor="middle" x="641" y="-119.5" font-family="FreeSans" font-size="10.00">Event/Event.h</text>
</g>
<!-- Node1&#45;&gt;Node13 -->
<g id="edge13" class="edge"><title>Node1&#45;&gt;Node13</title>
<path fill="none" stroke="midnightblue" d="M641,-168.781C641,-160.781 641,-150.689 641,-142.017"/>
<polygon fill="midnightblue" stroke="midnightblue" points="644.5,-141.73 641,-131.731 637.5,-141.731 644.5,-141.73"/>
</g>
<!-- Node14 -->
<g id="node14" class="node"><title>Node14</title>
<polygon fill="none" stroke="#bfbfbf" points="697.5,-112.5 697.5,-131.5 778.5,-131.5 778.5,-112.5 697.5,-112.5"/>
<text text-anchor="middle" x="738" y="-119.5" font-family="FreeSans" font-size="10.00">Event/packet.h</text>
</g>
<!-- Node1&#45;&gt;Node14 -->
<g id="edge14" class="edge"><title>Node1&#45;&gt;Node14</title>
<path fill="none" stroke="midnightblue" d="M663.988,-168.781C679.483,-159.196 699.837,-146.606 715.277,-137.056"/>
<polygon fill="midnightblue" stroke="midnightblue" points="717.505,-139.793 724.168,-131.556 713.823,-133.84 717.505,-139.793"/>
</g>
<!-- Node15 -->
<g id="node15" class="node"><title>Node15</title>
<g id="a_node15"><a xlink:href="../../d5/d6f/phool_8h.html" target="_top" xlink:title="phool/phool.h">
<polygon fill="none" stroke="black" points="797,-112.5 797,-131.5 871,-131.5 871,-112.5 797,-112.5"/>
<text text-anchor="middle" x="834" y="-119.5" font-family="FreeSans" font-size="10.00">phool/phool.h</text>
</a>
</g>
</g>
<!-- Node1&#45;&gt;Node15 -->
<g id="edge15" class="edge"><title>Node1&#45;&gt;Node15</title>
<path fill="none" stroke="midnightblue" d="M686.25,-168.933C719.929,-158.462 765.342,-144.345 796.893,-134.536"/>
<polygon fill="midnightblue" stroke="midnightblue" points="798.107,-137.824 806.618,-131.513 796.029,-131.139 798.107,-137.824"/>
</g>
<!-- Node17 -->
<g id="node17" class="node"><title>Node17</title>
<polygon fill="none" stroke="#bfbfbf" points="889.5,-112.5 889.5,-131.5 932.5,-131.5 932.5,-112.5 889.5,-112.5"/>
<text text-anchor="middle" x="911" y="-119.5" font-family="FreeSans" font-size="10.00">queue</text>
</g>
<!-- Node1&#45;&gt;Node17 -->
<g id="edge17" class="edge"><title>Node1&#45;&gt;Node17</title>
<path fill="none" stroke="midnightblue" d="M709.554,-169.741C755.156,-160.603 816.564,-147.694 879.648,-131.943"/>
<polygon fill="midnightblue" stroke="midnightblue" points="880.531,-135.33 889.374,-129.495 878.822,-128.541 880.531,-135.33"/>
</g>
<!-- Node3 -->
<g id="node3" class="node"><title>Node3</title>
<g id="a_node3"><a xlink:href="../../d2/de7/Fun4AllBase_8h.html" target="_top" xlink:title="Fun4AllBase.h">
<polygon fill="none" stroke="black" points="44,-56.5 44,-75.5 124,-75.5 124,-56.5 44,-56.5"/>
<text text-anchor="middle" x="84" y="-63.5" font-family="FreeSans" font-size="10.00">Fun4AllBase.h</text>
</a>
</g>
</g>
<!-- Node2&#45;&gt;Node3 -->
<g id="edge2" class="edge"><title>Node2&#45;&gt;Node3</title>
<path fill="none" stroke="midnightblue" d="M275.873,-112.444C236.349,-103.083 172.903,-88.0561 129.887,-77.868"/>
<polygon fill="midnightblue" stroke="midnightblue" points="130.496,-74.4154 119.958,-75.5164 128.882,-81.2269 130.496,-74.4154"/>
</g>
<!-- Node4 -->
<g id="node4" class="node"><title>Node4</title>
<polygon fill="none" stroke="#bfbfbf" points="-0.5,-0.5 -0.5,-19.5 40.5,-19.5 40.5,-0.5 -0.5,-0.5"/>
<text text-anchor="middle" x="20" y="-7.5" font-family="FreeSans" font-size="10.00">string</text>
</g>
<!-- Node2&#45;&gt;Node4 -->
<g id="edge10" class="edge"><title>Node2&#45;&gt;Node4</title>
<path fill="none" stroke="midnightblue" d="M247.22,-118.637C175.16,-114.642 64.9187,-104.013 35,-76 22.4696,-64.2676 19.4207,-44.3317 19.0744,-29.6245"/>
<polygon fill="midnightblue" stroke="midnightblue" points="22.574,-29.6709 19.2242,-19.6196 15.5748,-29.566 22.574,-29.6709"/>
</g>
<!-- Node6 -->
<g id="node6" class="node"><title>Node6</title>
<polygon fill="none" stroke="#bfbfbf" points="142,-56.5 142,-75.5 248,-75.5 248,-56.5 142,-56.5"/>
<text text-anchor="middle" x="195" y="-63.5" font-family="FreeSans" font-size="10.00">Event/phenixTypes.h</text>
</g>
<!-- Node2&#45;&gt;Node6 -->
<g id="edge5" class="edge"><title>Node2&#45;&gt;Node6</title>
<path fill="none" stroke="midnightblue" d="M293.461,-112.444C274.377,-103.636 244.425,-89.8116 222.564,-79.722"/>
<polygon fill="midnightblue" stroke="midnightblue" points="223.999,-76.5292 213.452,-75.5164 221.065,-82.8849 223.999,-76.5292"/>
</g>
<!-- Node7 -->
<g id="node7" class="node"><title>Node7</title>
<polygon fill="none" stroke="#bfbfbf" points="265.5,-56.5 265.5,-75.5 358.5,-75.5 358.5,-56.5 265.5,-56.5"/>
<text text-anchor="middle" x="312" y="-63.5" font-family="FreeSans" font-size="10.00">boost/version.hpp</text>
</g>
<!-- Node2&#45;&gt;Node7 -->
<g id="edge6" class="edge"><title>Node2&#45;&gt;Node7</title>
<path fill="none" stroke="midnightblue" d="M312,-112.083C312,-105.006 312,-94.8611 312,-85.9865"/>
<polygon fill="midnightblue" stroke="midnightblue" points="315.5,-85.751 312,-75.7511 308.5,-85.7511 315.5,-85.751"/>
</g>
<!-- Node8 -->
<g id="node8" class="node"><title>Node8</title>
<polygon fill="none" stroke="#bfbfbf" points="376.5,-56.5 376.5,-75.5 507.5,-75.5 507.5,-56.5 376.5,-56.5"/>
<text text-anchor="middle" x="442" y="-63.5" font-family="FreeSans" font-size="10.00">boost/numeric/interval.hpp</text>
</g>
<!-- Node2&#45;&gt;Node8 -->
<g id="edge7" class="edge"><title>Node2&#45;&gt;Node8</title>
<path fill="none" stroke="midnightblue" d="M332.599,-112.444C353.993,-103.557 387.681,-89.5632 412.024,-79.4514"/>
<polygon fill="midnightblue" stroke="midnightblue" points="413.605,-82.5848 421.497,-75.5164 410.92,-76.1203 413.605,-82.5848"/>
</g>
<!-- Node9 -->
<g id="node9" class="node"><title>Node9</title>
<polygon fill="none" stroke="#bfbfbf" points="525.5,-56.5 525.5,-75.5 560.5,-75.5 560.5,-56.5 525.5,-56.5"/>
<text text-anchor="middle" x="543" y="-63.5" font-family="FreeSans" font-size="10.00">map</text>
</g>
<!-- Node2&#45;&gt;Node9 -->
<g id="edge8" class="edge"><title>Node2&#45;&gt;Node9</title>
<path fill="none" stroke="midnightblue" d="M357.304,-112.422C396.756,-104.634 455.632,-92.2532 515.713,-75.8418"/>
<polygon fill="midnightblue" stroke="midnightblue" points="516.657,-79.212 525.363,-73.1733 514.791,-72.4652 516.657,-79.212"/>
</g>
<!-- Node10 -->
<g id="node10" class="node"><title>Node10</title>
<polygon fill="none" stroke="#bfbfbf" points="579,-56.5 579,-75.5 609,-75.5 609,-56.5 579,-56.5"/>
<text text-anchor="middle" x="594" y="-63.5" font-family="FreeSans" font-size="10.00">set</text>
</g>
<!-- Node2&#45;&gt;Node10 -->
<g id="edge9" class="edge"><title>Node2&#45;&gt;Node10</title>
<path fill="none" stroke="midnightblue" d="M376.563,-112.839C428.944,-105.468 504.423,-93.1406 569,-76 569.1,-75.9734 569.201,-75.9465 569.301,-75.9194"/>
<polygon fill="midnightblue" stroke="midnightblue" points="570.3,-79.2745 578.795,-72.9442 568.206,-72.5949 570.3,-79.2745"/>
</g>
<!-- Node3&#45;&gt;Node4 -->
<g id="edge3" class="edge"><title>Node3&#45;&gt;Node4</title>
<path fill="none" stroke="midnightblue" d="M73.7173,-56.324C64.1637,-48.2631 49.7203,-36.0765 38.2157,-26.3695"/>
<polygon fill="midnightblue" stroke="midnightblue" points="40.3698,-23.6076 30.4698,-19.8339 35.8557,-28.9577 40.3698,-23.6076"/>
</g>
<!-- Node5 -->
<g id="node5" class="node"><title>Node5</title>
<polygon fill="none" stroke="#bfbfbf" points="61.5,-0.5 61.5,-19.5 106.5,-19.5 106.5,-0.5 61.5,-0.5"/>
<text text-anchor="middle" x="84" y="-7.5" font-family="FreeSans" font-size="10.00">climits</text>
</g>
<!-- Node3&#45;&gt;Node5 -->
<g id="edge4" class="edge"><title>Node3&#45;&gt;Node5</title>
<path fill="none" stroke="midnightblue" d="M84,-56.083C84,-49.0059 84,-38.8611 84,-29.9865"/>
<polygon fill="midnightblue" stroke="midnightblue" points="87.5001,-29.751 84,-19.7511 80.5001,-29.7511 87.5001,-29.751"/>
</g>
<!-- Node16 -->
<g id="node16" class="node"><title>Node16</title>
<polygon fill="none" stroke="#bfbfbf" points="807,-56.5 807,-75.5 861,-75.5 861,-56.5 807,-56.5"/>
<text text-anchor="middle" x="834" y="-63.5" font-family="FreeSans" font-size="10.00">iostream</text>
</g>
<!-- Node15&#45;&gt;Node16 -->
<g id="edge16" class="edge"><title>Node15&#45;&gt;Node16</title>
<path fill="none" stroke="midnightblue" d="M834,-112.083C834,-105.006 834,-94.8611 834,-85.9865"/>
<polygon fill="midnightblue" stroke="midnightblue" points="837.5,-85.751 834,-75.7511 830.5,-85.7511 837.5,-85.751"/>
</g>
</g>
</svg>
