<?xml version="1.0" encoding="UTF-8" standalone="no"?>
<!DOCTYPE svg PUBLIC "-//W3C//DTD SVG 1.1//EN"
 "http://www.w3.org/Graphics/SVG/1.1/DTD/svg11.dtd">
<!-- Generated by graphviz version 2.36.0 (20140111.2315)
 -->
<!-- Title: EventHeader Pages: 1 -->
<svg width="90pt" height="196pt"
 viewBox="0.00 0.00 90.00 196.00" xmlns="http://www.w3.org/2000/svg" xmlns:xlink="http://www.w3.org/1999/xlink">
<g id="graph0" class="graph" transform="scale(1 1) rotate(0) translate(4 192)">
<title>EventHeader</title>
<!-- Node1 -->
<g id="node1" class="node"><title>Node1</title>
<polygon fill="#bfbfbf" stroke="black" points="4.5,-56.5 4.5,-75.5 77.5,-75.5 77.5,-56.5 4.5,-56.5"/>
<text text-anchor="middle" x="41" y="-63.5" font-family="FreeSans" font-size="10.00">EventHeader</text>
</g>
<!-- Node4 -->
<g id="node4" class="node"><title>Node4</title>
<g id="a_node4"><a xlink:href="../../d0/d76/classEventHeaderv1.html" target="_top" xlink:title="simple event header with ID and time ">
<polygon fill="none" stroke="black" points="-0.5,-0.5 -0.5,-19.5 82.5,-19.5 82.5,-0.5 -0.5,-0.5"/>
<text text-anchor="middle" x="41" y="-7.5" font-family="FreeSans" font-size="10.00">EventHeaderv1</text>
</a>
</g>
</g>
<!-- Node1&#45;&gt;Node4 -->
<g id="edge3" class="edge"><title>Node1&#45;&gt;Node4</title>
<path fill="none" stroke="midnightblue" d="M41,-45.8045C41,-36.9102 41,-26.7798 41,-19.7511"/>
<polygon fill="midnightblue" stroke="midnightblue" points="37.5001,-46.083 41,-56.083 44.5001,-46.083 37.5001,-46.083"/>
</g>
<!-- Node2 -->
<g id="node2" class="node"><title>Node2</title>
<g id="a_node2"><a xlink:href="../../d9/d24/classPHObject.html" target="_top" xlink:title="PHObject">
<polygon fill="none" stroke="black" points="11.5,-112.5 11.5,-131.5 70.5,-131.5 70.5,-112.5 11.5,-112.5"/>
<text text-anchor="middle" x="41" y="-119.5" font-family="FreeSans" font-size="10.00">PHObject</text>
</a>
</g>
</g>
<!-- Node2&#45;&gt;Node1 -->
<g id="edge1" class="edge"><title>Node2&#45;&gt;Node1</title>
<path fill="none" stroke="midnightblue" d="M41,-101.805C41,-92.9102 41,-82.7798 41,-75.7511"/>
<polygon fill="midnightblue" stroke="midnightblue" points="37.5001,-102.083 41,-112.083 44.5001,-102.083 37.5001,-102.083"/>
</g>
<!-- Node3 -->
<g id="node3" class="node"><title>Node3</title>
<polygon fill="none" stroke="#bfbfbf" points="15.5,-168.5 15.5,-187.5 66.5,-187.5 66.5,-168.5 15.5,-168.5"/>
<text text-anchor="middle" x="41" y="-175.5" font-family="FreeSans" font-size="10.00">TObject</text>
</g>
<!-- Node3&#45;&gt;Node2 -->
<g id="edge2" class="edge"><title>Node3&#45;&gt;Node2</title>
<path fill="none" stroke="midnightblue" d="M41,-157.805C41,-148.91 41,-138.78 41,-131.751"/>
<polygon fill="midnightblue" stroke="midnightblue" points="37.5001,-158.083 41,-168.083 44.5001,-158.083 37.5001,-158.083"/>
</g>
</g>
</svg>
