<?xml version="1.0" encoding="UTF-8" standalone="no"?>
<!DOCTYPE svg PUBLIC "-//W3C//DTD SVG 1.1//EN"
 "http://www.w3.org/Graphics/SVG/1.1/DTD/svg11.dtd">
<!-- Generated by graphviz version 2.36.0 (20140111.2315)
 -->
<!-- Title: SHit::identify Pages: 1 -->
<svg width="394pt" height="82pt"
 viewBox="0.00 0.00 394.00 82.00" xmlns="http://www.w3.org/2000/svg" xmlns:xlink="http://www.w3.org/1999/xlink">
<g id="graph0" class="graph" transform="scale(1 1) rotate(0) translate(4 78)">
<title>SHit::identify</title>
<!-- Node1 -->
<g id="node1" class="node"><title>Node1</title>
<polygon fill="#bfbfbf" stroke="black" points="0.5,-27.5 0.5,-46.5 71.5,-46.5 71.5,-27.5 0.5,-27.5"/>
<text text-anchor="middle" x="36" y="-34.5" font-family="FreeSans" font-size="10.00">SHit::identify</text>
</g>
<!-- Node2 -->
<g id="node2" class="node"><title>Node2</title>
<g id="a_node2"><a xlink:href="../../db/dda/classReadMySql.html#ad8a5a442bb429b679cb6ee50f627d0f2" target="_top" xlink:title="ReadMySql::FillSHitMap">
<polygon fill="none" stroke="black" points="115,-49.5 115,-68.5 237,-68.5 237,-49.5 115,-49.5"/>
<text text-anchor="middle" x="176" y="-56.5" font-family="FreeSans" font-size="10.00">ReadMySql::FillSHitMap</text>
</a>
</g>
</g>
<!-- Node1&#45;&gt;Node2 -->
<g id="edge1" class="edge"><title>Node1&#45;&gt;Node2</title>
<path fill="none" stroke="midnightblue" d="M81.747,-44.1336C92.4227,-45.8355 103.986,-47.6789 115.217,-49.4694"/>
<polygon fill="midnightblue" stroke="midnightblue" points="82.2496,-40.6696 71.8232,-42.5515 81.1475,-47.5823 82.2496,-40.6696"/>
</g>
<!-- Node4 -->
<g id="node4" class="node"><title>Node4</title>
<g id="a_node4"><a xlink:href="../../d0/d68/classSimpleReadMySql.html#a80b8383438a4d0c279abec571ba39f84" target="_top" xlink:title="SimpleReadMySql::process\l_event">
<polygon fill="none" stroke="black" points="108.5,-0 108.5,-30 243.5,-30 243.5,-0 108.5,-0"/>
<text text-anchor="start" x="116.5" y="-18" font-family="FreeSans" font-size="10.00">SimpleReadMySql::process</text>
<text text-anchor="middle" x="176" y="-7" font-family="FreeSans" font-size="10.00">_event</text>
</a>
</g>
</g>
<!-- Node1&#45;&gt;Node4 -->
<g id="edge3" class="edge"><title>Node1&#45;&gt;Node4</title>
<path fill="none" stroke="midnightblue" d="M81.8771,-29.8457C90.3807,-28.49 99.4435,-27.0452 108.451,-25.6093"/>
<polygon fill="midnightblue" stroke="midnightblue" points="81.1475,-26.4177 71.8232,-31.4485 82.2496,-33.3304 81.1475,-26.4177"/>
</g>
<!-- Node3 -->
<g id="node3" class="node"><title>Node3</title>
<g id="a_node3"><a xlink:href="../../db/dda/classReadMySql.html#aef5367b1b70eb7b88d513750e78fc872" target="_top" xlink:title="ReadMySql::process\l_event">
<polygon fill="none" stroke="black" points="280.5,-44 280.5,-74 385.5,-74 385.5,-44 280.5,-44"/>
<text text-anchor="start" x="288.5" y="-62" font-family="FreeSans" font-size="10.00">ReadMySql::process</text>
<text text-anchor="middle" x="333" y="-51" font-family="FreeSans" font-size="10.00">_event</text>
</a>
</g>
</g>
<!-- Node2&#45;&gt;Node3 -->
<g id="edge2" class="edge"><title>Node2&#45;&gt;Node3</title>
<path fill="none" stroke="midnightblue" d="M247.398,-59C258.403,-59 269.601,-59 280.094,-59"/>
<polygon fill="midnightblue" stroke="midnightblue" points="247.371,-55.5001 237.371,-59 247.371,-62.5001 247.371,-55.5001"/>
</g>
</g>
</svg>
