<?xml version="1.0" encoding="UTF-8" standalone="no"?>
<!DOCTYPE svg PUBLIC "-//W3C//DTD SVG 1.1//EN"
 "http://www.w3.org/Graphics/SVG/1.1/DTD/svg11.dtd">
<!-- Generated by graphviz version 2.36.0 (20140111.2315)
 -->
<!-- Title: SHit::Clone Pages: 1 -->
<svg width="240pt" height="104pt"
 viewBox="0.00 0.00 240.00 104.00" xmlns="http://www.w3.org/2000/svg" xmlns:xlink="http://www.w3.org/1999/xlink">
<g id="graph0" class="graph" transform="scale(1 1) rotate(0) translate(4 100)">
<title>SHit::Clone</title>
<!-- Node1 -->
<g id="node1" class="node"><title>Node1</title>
<polygon fill="#bfbfbf" stroke="black" points="0.5,-38.5 0.5,-57.5 65.5,-57.5 65.5,-38.5 0.5,-38.5"/>
<text text-anchor="middle" x="33" y="-45.5" font-family="FreeSans" font-size="10.00">SHit::Clone</text>
</g>
<!-- Node2 -->
<g id="node2" class="node"><title>Node2</title>
<g id="a_node2"><a xlink:href="../../de/d92/classSHitMap__v1.html#a819187d76adb3b93a8604e021d5f5a47" target="_top" xlink:title="SHitMap_v1::insert">
<polygon fill="none" stroke="black" points="117.5,-76.5 117.5,-95.5 216.5,-95.5 216.5,-76.5 117.5,-76.5"/>
<text text-anchor="middle" x="167" y="-83.5" font-family="FreeSans" font-size="10.00">SHitMap_v1::insert</text>
</a>
</g>
</g>
<!-- Node1&#45;&gt;Node2 -->
<g id="edge1" class="edge"><title>Node1&#45;&gt;Node2</title>
<path fill="none" stroke="midnightblue" d="M75.2669,-59.8799C93.7869,-65.2114 115.345,-71.4174 132.799,-76.442"/>
<polygon fill="midnightblue" stroke="midnightblue" points="76.1953,-56.505 65.6173,-57.1019 74.2587,-63.2319 76.1953,-56.505"/>
</g>
<!-- Node3 -->
<g id="node3" class="node"><title>Node3</title>
<g id="a_node3"><a xlink:href="../../de/d92/classSHitMap__v1.html#aafef7752aeef9d4750538f6189cb9d34" target="_top" xlink:title="SHitMap_v1::operator=">
<polygon fill="none" stroke="black" points="109,-38.5 109,-57.5 225,-57.5 225,-38.5 109,-38.5"/>
<text text-anchor="middle" x="167" y="-45.5" font-family="FreeSans" font-size="10.00">SHitMap_v1::operator=</text>
</a>
</g>
</g>
<!-- Node1&#45;&gt;Node3 -->
<g id="edge2" class="edge"><title>Node1&#45;&gt;Node3</title>
<path fill="none" stroke="midnightblue" d="M75.7546,-48C86.2569,-48 97.7105,-48 108.824,-48"/>
<polygon fill="midnightblue" stroke="midnightblue" points="75.6173,-44.5001 65.6173,-48 75.6173,-51.5001 75.6173,-44.5001"/>
</g>
<!-- Node4 -->
<g id="node4" class="node"><title>Node4</title>
<g id="a_node4"><a xlink:href="../../de/d92/classSHitMap__v1.html#a66084567e72d58ea9fb02af6a9b93867" target="_top" xlink:title="SHitMap_v1::SHitMap_v1">
<polygon fill="none" stroke="black" points="102.5,-0.5 102.5,-19.5 231.5,-19.5 231.5,-0.5 102.5,-0.5"/>
<text text-anchor="middle" x="167" y="-7.5" font-family="FreeSans" font-size="10.00">SHitMap_v1::SHitMap_v1</text>
</a>
</g>
</g>
<!-- Node1&#45;&gt;Node4 -->
<g id="edge3" class="edge"><title>Node1&#45;&gt;Node4</title>
<path fill="none" stroke="midnightblue" d="M75.2669,-36.1201C93.7869,-30.7886 115.345,-24.5826 132.799,-19.558"/>
<polygon fill="midnightblue" stroke="midnightblue" points="74.2587,-32.7681 65.6173,-38.8981 76.1953,-39.495 74.2587,-32.7681"/>
</g>
</g>
</svg>
