<?xml version="1.0" encoding="UTF-8" standalone="no"?>
<!DOCTYPE svg PUBLIC "-//W3C//DTD SVG 1.1//EN"
 "http://www.w3.org/Graphics/SVG/1.1/DTD/svg11.dtd">
<!-- Generated by graphviz version 2.36.0 (20140111.2315)
 -->
<!-- Title: SHit::set_detector_id Pages: 1 -->
<svg width="430pt" height="82pt"
 viewBox="0.00 0.00 430.00 82.00" xmlns="http://www.w3.org/2000/svg" xmlns:xlink="http://www.w3.org/1999/xlink">
<g id="graph0" class="graph" transform="scale(1 1) rotate(0) translate(4 78)">
<title>SHit::set_detector_id</title>
<!-- Node1 -->
<g id="node1" class="node"><title>Node1</title>
<polygon fill="#bfbfbf" stroke="black" points="0.5,-27.5 0.5,-46.5 107.5,-46.5 107.5,-27.5 0.5,-27.5"/>
<text text-anchor="middle" x="54" y="-34.5" font-family="FreeSans" font-size="10.00">SHit::set_detector_id</text>
</g>
<!-- Node2 -->
<g id="node2" class="node"><title>Node2</title>
<g id="a_node2"><a xlink:href="../../db/dda/classReadMySql.html#ad8a5a442bb429b679cb6ee50f627d0f2" target="_top" xlink:title="ReadMySql::FillSHitMap">
<polygon fill="none" stroke="black" points="151,-49.5 151,-68.5 273,-68.5 273,-49.5 151,-49.5"/>
<text text-anchor="middle" x="212" y="-56.5" font-family="FreeSans" font-size="10.00">ReadMySql::FillSHitMap</text>
</a>
</g>
</g>
<!-- Node1&#45;&gt;Node2 -->
<g id="edge1" class="edge"><title>Node1&#45;&gt;Node2</title>
<path fill="none" stroke="midnightblue" d="M117.742,-45.8483C128.709,-47.3949 140.095,-49.0006 150.986,-50.5365"/>
<polygon fill="midnightblue" stroke="midnightblue" points="118.205,-42.379 107.814,-44.4482 117.228,-49.3104 118.205,-42.379"/>
</g>
<!-- Node4 -->
<g id="node4" class="node"><title>Node4</title>
<g id="a_node4"><a xlink:href="../../d0/d68/classSimpleReadMySql.html#a80b8383438a4d0c279abec571ba39f84" target="_top" xlink:title="SimpleReadMySql::process\l_event">
<polygon fill="none" stroke="black" points="144.5,-0 144.5,-30 279.5,-30 279.5,-0 144.5,-0"/>
<text text-anchor="start" x="152.5" y="-18" font-family="FreeSans" font-size="10.00">SimpleReadMySql::process</text>
<text text-anchor="middle" x="212" y="-7" font-family="FreeSans" font-size="10.00">_event</text>
</a>
</g>
</g>
<!-- Node1&#45;&gt;Node4 -->
<g id="edge3" class="edge"><title>Node1&#45;&gt;Node4</title>
<path fill="none" stroke="midnightblue" d="M117.909,-28.1282C126.634,-26.8977 135.621,-25.6303 144.411,-24.3908"/>
<polygon fill="midnightblue" stroke="midnightblue" points="117.228,-24.6896 107.814,-29.5518 118.205,-31.621 117.228,-24.6896"/>
</g>
<!-- Node3 -->
<g id="node3" class="node"><title>Node3</title>
<g id="a_node3"><a xlink:href="../../db/dda/classReadMySql.html#aef5367b1b70eb7b88d513750e78fc872" target="_top" xlink:title="ReadMySql::process\l_event">
<polygon fill="none" stroke="black" points="316.5,-44 316.5,-74 421.5,-74 421.5,-44 316.5,-44"/>
<text text-anchor="start" x="324.5" y="-62" font-family="FreeSans" font-size="10.00">ReadMySql::process</text>
<text text-anchor="middle" x="369" y="-51" font-family="FreeSans" font-size="10.00">_event</text>
</a>
</g>
</g>
<!-- Node2&#45;&gt;Node3 -->
<g id="edge2" class="edge"><title>Node2&#45;&gt;Node3</title>
<path fill="none" stroke="midnightblue" d="M283.398,-59C294.403,-59 305.601,-59 316.094,-59"/>
<polygon fill="midnightblue" stroke="midnightblue" points="283.371,-55.5001 273.371,-59 283.371,-62.5001 283.371,-55.5001"/>
</g>
</g>
</svg>
