<?xml version="1.0" encoding="UTF-8" standalone="no"?>
<!DOCTYPE svg PUBLIC "-//W3C//DTD SVG 1.1//EN"
 "http://www.w3.org/Graphics/SVG/1.1/DTD/svg11.dtd">
<!-- Generated by graphviz version 2.36.0 (20140111.2315)
 -->
<!-- Title: SHit::get_hit_id Pages: 1 -->
<svg width="258pt" height="66pt"
 viewBox="0.00 0.00 258.00 66.00" xmlns="http://www.w3.org/2000/svg" xmlns:xlink="http://www.w3.org/1999/xlink">
<g id="graph0" class="graph" transform="scale(1 1) rotate(0) translate(4 62)">
<title>SHit::get_hit_id</title>
<!-- Node1 -->
<g id="node1" class="node"><title>Node1</title>
<polygon fill="#bfbfbf" stroke="black" points="0.5,-19.5 0.5,-38.5 83.5,-38.5 83.5,-19.5 0.5,-19.5"/>
<text text-anchor="middle" x="42" y="-26.5" font-family="FreeSans" font-size="10.00">SHit::get_hit_id</text>
</g>
<!-- Node2 -->
<g id="node2" class="node"><title>Node2</title>
<g id="a_node2"><a xlink:href="../../de/d92/classSHitMap__v1.html#aafef7752aeef9d4750538f6189cb9d34" target="_top" xlink:title="SHitMap_v1::operator=">
<polygon fill="none" stroke="black" points="127,-38.5 127,-57.5 243,-57.5 243,-38.5 127,-38.5"/>
<text text-anchor="middle" x="185" y="-45.5" font-family="FreeSans" font-size="10.00">SHitMap_v1::operator=</text>
</a>
</g>
</g>
<!-- Node1&#45;&gt;Node2 -->
<g id="edge1" class="edge"><title>Node1&#45;&gt;Node2</title>
<path fill="none" stroke="midnightblue" d="M93.807,-35.8463C104.51,-37.2886 115.871,-38.8195 126.791,-40.291"/>
<polygon fill="midnightblue" stroke="midnightblue" points="94.1609,-32.3625 83.783,-34.4956 93.226,-39.2998 94.1609,-32.3625"/>
</g>
<!-- Node3 -->
<g id="node3" class="node"><title>Node3</title>
<g id="a_node3"><a xlink:href="../../de/d92/classSHitMap__v1.html#a66084567e72d58ea9fb02af6a9b93867" target="_top" xlink:title="SHitMap_v1::SHitMap_v1">
<polygon fill="none" stroke="black" points="120.5,-0.5 120.5,-19.5 249.5,-19.5 249.5,-0.5 120.5,-0.5"/>
<text text-anchor="middle" x="185" y="-7.5" font-family="FreeSans" font-size="10.00">SHitMap_v1::SHitMap_v1</text>
</a>
</g>
</g>
<!-- Node1&#45;&gt;Node3 -->
<g id="edge2" class="edge"><title>Node1&#45;&gt;Node3</title>
<path fill="none" stroke="midnightblue" d="M93.7288,-22.1642C102.401,-20.9956 111.507,-19.7685 120.462,-18.5618"/>
<polygon fill="midnightblue" stroke="midnightblue" points="93.226,-18.7002 83.783,-23.5044 94.1609,-25.6375 93.226,-18.7002"/>
</g>
</g>
</svg>
