<?xml version="1.0" encoding="UTF-8" standalone="no"?>
<!DOCTYPE svg PUBLIC "-//W3C//DTD SVG 1.1//EN"
 "http://www.w3.org/Graphics/SVG/1.1/DTD/svg11.dtd">
<!-- Generated by graphviz version 2.36.0 (20140111.2315)
 -->
<!-- Title: SHit::set_in_time Pages: 1 -->
<svg width="400pt" height="38pt"
 viewBox="0.00 0.00 400.00 38.00" xmlns="http://www.w3.org/2000/svg" xmlns:xlink="http://www.w3.org/1999/xlink">
<g id="graph0" class="graph" transform="scale(1 1) rotate(0) translate(4 34)">
<title>SHit::set_in_time</title>
<!-- Node1 -->
<g id="node1" class="node"><title>Node1</title>
<polygon fill="#bfbfbf" stroke="black" points="0.5,-5.5 0.5,-24.5 91.5,-24.5 91.5,-5.5 0.5,-5.5"/>
<text text-anchor="middle" x="46" y="-12.5" font-family="FreeSans" font-size="10.00">SHit::set_in_time</text>
</g>
<!-- Node2 -->
<g id="node2" class="node"><title>Node2</title>
<g id="a_node2"><a xlink:href="../../db/dda/classReadMySql.html#ad8a5a442bb429b679cb6ee50f627d0f2" target="_top" xlink:title="ReadMySql::FillSHitMap">
<polygon fill="none" stroke="black" points="128,-5.5 128,-24.5 250,-24.5 250,-5.5 128,-5.5"/>
<text text-anchor="middle" x="189" y="-12.5" font-family="FreeSans" font-size="10.00">ReadMySql::FillSHitMap</text>
</a>
</g>
</g>
<!-- Node1&#45;&gt;Node2 -->
<g id="edge1" class="edge"><title>Node1&#45;&gt;Node2</title>
<path fill="none" stroke="midnightblue" d="M101.851,-15C110.406,-15 119.285,-15 127.948,-15"/>
<polygon fill="midnightblue" stroke="midnightblue" points="101.613,-11.5001 91.6133,-15 101.613,-18.5001 101.613,-11.5001"/>
</g>
<!-- Node3 -->
<g id="node3" class="node"><title>Node3</title>
<g id="a_node3"><a xlink:href="../../db/dda/classReadMySql.html#aef5367b1b70eb7b88d513750e78fc872" target="_top" xlink:title="ReadMySql::process\l_event">
<polygon fill="none" stroke="black" points="286.5,-0 286.5,-30 391.5,-30 391.5,-0 286.5,-0"/>
<text text-anchor="start" x="294.5" y="-18" font-family="FreeSans" font-size="10.00">ReadMySql::process</text>
<text text-anchor="middle" x="339" y="-7" font-family="FreeSans" font-size="10.00">_event</text>
</a>
</g>
</g>
<!-- Node2&#45;&gt;Node3 -->
<g id="edge2" class="edge"><title>Node2&#45;&gt;Node3</title>
<path fill="none" stroke="midnightblue" d="M260.416,-15C269.172,-15 277.994,-15 286.393,-15"/>
<polygon fill="midnightblue" stroke="midnightblue" points="260.197,-11.5001 250.197,-15 260.197,-18.5001 260.197,-11.5001"/>
</g>
</g>
</svg>
