<?xml version="1.0" encoding="UTF-8" standalone="no"?>
<!DOCTYPE svg PUBLIC "-//W3C//DTD SVG 1.1//EN"
 "http://www.w3.org/Graphics/SVG/1.1/DTD/svg11.dtd">
<!-- Generated by graphviz version 2.36.0 (20140111.2315)
 -->
<!-- Title: SHit::set_hodo_mask Pages: 1 -->
<svg width="418pt" height="38pt"
 viewBox="0.00 0.00 418.00 38.00" xmlns="http://www.w3.org/2000/svg" xmlns:xlink="http://www.w3.org/1999/xlink">
<g id="graph0" class="graph" transform="scale(1 1) rotate(0) translate(4 34)">
<title>SHit::set_hodo_mask</title>
<!-- Node1 -->
<g id="node1" class="node"><title>Node1</title>
<polygon fill="#bfbfbf" stroke="black" points="0,-5.5 0,-24.5 110,-24.5 110,-5.5 0,-5.5"/>
<text text-anchor="middle" x="55" y="-12.5" font-family="FreeSans" font-size="10.00">SHit::set_hodo_mask</text>
</g>
<!-- Node2 -->
<g id="node2" class="node"><title>Node2</title>
<g id="a_node2"><a xlink:href="../../db/dda/classReadMySql.html#ad8a5a442bb429b679cb6ee50f627d0f2" target="_top" xlink:title="ReadMySql::FillSHitMap">
<polygon fill="none" stroke="black" points="146,-5.5 146,-24.5 268,-24.5 268,-5.5 146,-5.5"/>
<text text-anchor="middle" x="207" y="-12.5" font-family="FreeSans" font-size="10.00">ReadMySql::FillSHitMap</text>
</a>
</g>
</g>
<!-- Node1&#45;&gt;Node2 -->
<g id="edge1" class="edge"><title>Node1&#45;&gt;Node2</title>
<path fill="none" stroke="midnightblue" d="M120.347,-15C128.803,-15 137.443,-15 145.827,-15"/>
<polygon fill="midnightblue" stroke="midnightblue" points="120.153,-11.5001 110.153,-15 120.153,-18.5001 120.153,-11.5001"/>
</g>
<!-- Node3 -->
<g id="node3" class="node"><title>Node3</title>
<g id="a_node3"><a xlink:href="../../db/dda/classReadMySql.html#aef5367b1b70eb7b88d513750e78fc872" target="_top" xlink:title="ReadMySql::process\l_event">
<polygon fill="none" stroke="black" points="304.5,-0 304.5,-30 409.5,-30 409.5,-0 304.5,-0"/>
<text text-anchor="start" x="312.5" y="-18" font-family="FreeSans" font-size="10.00">ReadMySql::process</text>
<text text-anchor="middle" x="357" y="-7" font-family="FreeSans" font-size="10.00">_event</text>
</a>
</g>
</g>
<!-- Node2&#45;&gt;Node3 -->
<g id="edge2" class="edge"><title>Node2&#45;&gt;Node3</title>
<path fill="none" stroke="midnightblue" d="M278.416,-15C287.172,-15 295.994,-15 304.393,-15"/>
<polygon fill="midnightblue" stroke="midnightblue" points="278.197,-11.5001 268.197,-15 278.197,-18.5001 278.197,-11.5001"/>
</g>
</g>
</svg>
