<?xml version="1.0" encoding="UTF-8" standalone="no"?>
<!DOCTYPE svg PUBLIC "-//W3C//DTD SVG 1.1//EN"
 "http://www.w3.org/Graphics/SVG/1.1/DTD/svg11.dtd">
<!-- Generated by graphviz version 2.36.0 (20140111.2315)
 -->
<!-- Title: SHit::set_drift_distance Pages: 1 -->
<svg width="440pt" height="82pt"
 viewBox="0.00 0.00 440.00 82.00" xmlns="http://www.w3.org/2000/svg" xmlns:xlink="http://www.w3.org/1999/xlink">
<g id="graph0" class="graph" transform="scale(1 1) rotate(0) translate(4 78)">
<title>SHit::set_drift_distance</title>
<!-- Node1 -->
<g id="node1" class="node"><title>Node1</title>
<polygon fill="#bfbfbf" stroke="black" points="0,-27.5 0,-46.5 118,-46.5 118,-27.5 0,-27.5"/>
<text text-anchor="middle" x="59" y="-34.5" font-family="FreeSans" font-size="10.00">SHit::set_drift_distance</text>
</g>
<!-- Node2 -->
<g id="node2" class="node"><title>Node2</title>
<g id="a_node2"><a xlink:href="../../db/dda/classReadMySql.html#ad8a5a442bb429b679cb6ee50f627d0f2" target="_top" xlink:title="ReadMySql::FillSHitMap">
<polygon fill="none" stroke="black" points="161,-49.5 161,-68.5 283,-68.5 283,-49.5 161,-49.5"/>
<text text-anchor="middle" x="222" y="-56.5" font-family="FreeSans" font-size="10.00">ReadMySql::FillSHitMap</text>
</a>
</g>
</g>
<!-- Node1&#45;&gt;Node2 -->
<g id="edge1" class="edge"><title>Node1&#45;&gt;Node2</title>
<path fill="none" stroke="midnightblue" d="M128.346,-46.3392C139.13,-47.8128 150.211,-49.327 160.792,-50.7728"/>
<polygon fill="midnightblue" stroke="midnightblue" points="128.507,-42.8287 118.125,-44.9425 127.559,-49.7642 128.507,-42.8287"/>
</g>
<!-- Node4 -->
<g id="node4" class="node"><title>Node4</title>
<g id="a_node4"><a xlink:href="../../d0/d68/classSimpleReadMySql.html#a80b8383438a4d0c279abec571ba39f84" target="_top" xlink:title="SimpleReadMySql::process\l_event">
<polygon fill="none" stroke="black" points="154.5,-0 154.5,-30 289.5,-30 289.5,-0 154.5,-0"/>
<text text-anchor="start" x="162.5" y="-18" font-family="FreeSans" font-size="10.00">SimpleReadMySql::process</text>
<text text-anchor="middle" x="222" y="-7" font-family="FreeSans" font-size="10.00">_event</text>
</a>
</g>
</g>
<!-- Node1&#45;&gt;Node4 -->
<g id="edge3" class="edge"><title>Node1&#45;&gt;Node4</title>
<path fill="none" stroke="midnightblue" d="M128.221,-27.6779C136.919,-26.4893 145.813,-25.274 154.484,-24.0892"/>
<polygon fill="midnightblue" stroke="midnightblue" points="127.559,-24.2358 118.125,-29.0575 128.507,-31.1713 127.559,-24.2358"/>
</g>
<!-- Node3 -->
<g id="node3" class="node"><title>Node3</title>
<g id="a_node3"><a xlink:href="../../db/dda/classReadMySql.html#aef5367b1b70eb7b88d513750e78fc872" target="_top" xlink:title="ReadMySql::process\l_event">
<polygon fill="none" stroke="black" points="326.5,-44 326.5,-74 431.5,-74 431.5,-44 326.5,-44"/>
<text text-anchor="start" x="334.5" y="-62" font-family="FreeSans" font-size="10.00">ReadMySql::process</text>
<text text-anchor="middle" x="379" y="-51" font-family="FreeSans" font-size="10.00">_event</text>
</a>
</g>
</g>
<!-- Node2&#45;&gt;Node3 -->
<g id="edge2" class="edge"><title>Node2&#45;&gt;Node3</title>
<path fill="none" stroke="midnightblue" d="M293.398,-59C304.403,-59 315.601,-59 326.094,-59"/>
<polygon fill="midnightblue" stroke="midnightblue" points="293.371,-55.5001 283.371,-59 293.371,-62.5001 293.371,-55.5001"/>
</g>
</g>
</svg>
