<?xml version="1.0" encoding="UTF-8" standalone="no"?>
<!DOCTYPE svg PUBLIC "-//W3C//DTD SVG 1.1//EN"
 "http://www.w3.org/Graphics/SVG/1.1/DTD/svg11.dtd">
<!-- Generated by graphviz version 2.36.0 (20140111.2315)
 -->
<!-- Title: FlagSavev1 Pages: 1 -->
<svg width="534pt" height="224pt"
 viewBox="0.00 0.00 534.00 224.00" xmlns="http://www.w3.org/2000/svg" xmlns:xlink="http://www.w3.org/1999/xlink">
<g id="graph0" class="graph" transform="scale(1 1) rotate(0) translate(4 220)">
<title>FlagSavev1</title>
<!-- Node1 -->
<g id="node1" class="node"><title>Node1</title>
<polygon fill="#bfbfbf" stroke="black" points="458,-103.5 458,-122.5 526,-122.5 526,-103.5 458,-103.5"/>
<text text-anchor="middle" x="492" y="-110.5" font-family="FreeSans" font-size="10.00">FlagSavev1</text>
</g>
<!-- Node2 -->
<g id="node2" class="node"><title>Node2</title>
<g id="a_node2"><a xlink:href="../../d3/da3/classFlagSave.html" target="_top" xlink:title="FlagSave">
<polygon fill="none" stroke="black" points="293,-196.5 293,-215.5 351,-215.5 351,-196.5 293,-196.5"/>
<text text-anchor="middle" x="322" y="-203.5" font-family="FreeSans" font-size="10.00">FlagSave</text>
</a>
</g>
</g>
<!-- Node2&#45;&gt;Node1 -->
<g id="edge1" class="edge"><title>Node2&#45;&gt;Node1</title>
<path fill="none" stroke="midnightblue" d="M360.982,-193.858C384.704,-185.382 415.32,-172.772 440,-157 455.766,-146.925 471.746,-132.256 481.515,-122.671"/>
<polygon fill="midnightblue" stroke="midnightblue" points="359.57,-190.643 351.275,-197.234 361.869,-197.255 359.57,-190.643"/>
</g>
<!-- Node3 -->
<g id="node3" class="node"><title>Node3</title>
<g id="a_node3"><a xlink:href="../../d9/d24/classPHObject.html" target="_top" xlink:title="PHObject">
<polygon fill="none" stroke="black" points="132.5,-196.5 132.5,-215.5 191.5,-215.5 191.5,-196.5 132.5,-196.5"/>
<text text-anchor="middle" x="162" y="-203.5" font-family="FreeSans" font-size="10.00">PHObject</text>
</a>
</g>
</g>
<!-- Node3&#45;&gt;Node2 -->
<g id="edge2" class="edge"><title>Node3&#45;&gt;Node2</title>
<path fill="none" stroke="midnightblue" d="M201.917,-206C230.102,-206 267.547,-206 292.866,-206"/>
<polygon fill="midnightblue" stroke="midnightblue" points="201.613,-202.5 191.613,-206 201.613,-209.5 201.613,-202.5"/>
</g>
<!-- Node4 -->
<g id="node4" class="node"><title>Node4</title>
<polygon fill="none" stroke="#bfbfbf" points="21.5,-196.5 21.5,-215.5 72.5,-215.5 72.5,-196.5 21.5,-196.5"/>
<text text-anchor="middle" x="47" y="-203.5" font-family="FreeSans" font-size="10.00">TObject</text>
</g>
<!-- Node4&#45;&gt;Node3 -->
<g id="edge3" class="edge"><title>Node4&#45;&gt;Node3</title>
<path fill="none" stroke="midnightblue" d="M82.9485,-206C98.7298,-206 117.15,-206 132.131,-206"/>
<polygon fill="midnightblue" stroke="midnightblue" points="82.5194,-202.5 72.5193,-206 82.5193,-209.5 82.5194,-202.5"/>
</g>
<!-- Node5 -->
<g id="node5" class="node"><title>Node5</title>
<polygon fill="none" stroke="#bfbfbf" points="268.5,-147 268.5,-177 375.5,-177 375.5,-147 268.5,-147"/>
<text text-anchor="start" x="276.5" y="-165" font-family="FreeSans" font-size="10.00">std::map&lt; std::string,</text>
<text text-anchor="middle" x="322" y="-154" font-family="FreeSans" font-size="10.00"> int &gt;</text>
</g>
<!-- Node5&#45;&gt;Node1 -->
<g id="edge4" class="edge"><title>Node5&#45;&gt;Node1</title>
<path fill="none" stroke="#9a32cd" stroke-dasharray="5,2" d="M384.586,-144.144C402.463,-138.95 422.013,-133.259 440,-128 446.024,-126.239 452.446,-124.355 458.629,-122.538"/>
<polygon fill="#9a32cd" stroke="#9a32cd" points="383.474,-140.822 374.847,-146.972 385.427,-147.544 383.474,-140.822"/>
<text text-anchor="middle" x="417" y="-145" font-family="FreeSans" font-size="10.00"> intflag</text>
</g>
<!-- Node6 -->
<g id="node6" class="node"><title>Node6</title>
<g id="a_node6"><a xlink:title="STL class. ">
<polygon fill="none" stroke="#bfbfbf" points="132.5,-79.5 132.5,-98.5 191.5,-98.5 191.5,-79.5 132.5,-79.5"/>
<text text-anchor="middle" x="162" y="-86.5" font-family="FreeSans" font-size="10.00">std::string</text>
</a>
</g>
</g>
<!-- Node6&#45;&gt;Node5 -->
<g id="edge5" class="edge"><title>Node6&#45;&gt;Node5</title>
<path fill="none" stroke="#9a32cd" stroke-dasharray="5,2" d="M186.662,-104.049C194.011,-108.462 202.225,-113.136 210,-117 232.532,-128.198 258.562,-138.863 279.75,-146.998"/>
<polygon fill="#9a32cd" stroke="#9a32cd" points="188.267,-100.927 177.914,-98.6784 184.605,-106.893 188.267,-100.927"/>
<text text-anchor="middle" x="230" y="-138" font-family="FreeSans" font-size="10.00"> keys</text>
</g>
<!-- Node8 -->
<g id="node8" class="node"><title>Node8</title>
<polygon fill="none" stroke="#bfbfbf" points="268.5,-98 268.5,-128 375.5,-128 375.5,-98 268.5,-98"/>
<text text-anchor="start" x="276.5" y="-116" font-family="FreeSans" font-size="10.00">std::map&lt; std::string,</text>
<text text-anchor="middle" x="322" y="-105" font-family="FreeSans" font-size="10.00"> float &gt;</text>
</g>
<!-- Node6&#45;&gt;Node8 -->
<g id="edge8" class="edge"><title>Node6&#45;&gt;Node8</title>
<path fill="none" stroke="#9a32cd" stroke-dasharray="5,2" d="M201.632,-94.8682C221.7,-97.9164 246.519,-101.686 268.32,-104.998"/>
<polygon fill="#9a32cd" stroke="#9a32cd" points="202.025,-91.3878 191.613,-93.3462 200.974,-98.3084 202.025,-91.3878"/>
<text text-anchor="middle" x="230" y="-105" font-family="FreeSans" font-size="10.00"> keys</text>
</g>
<!-- Node9 -->
<g id="node9" class="node"><title>Node9</title>
<polygon fill="none" stroke="#bfbfbf" points="268.5,-49 268.5,-79 375.5,-79 375.5,-49 268.5,-49"/>
<text text-anchor="start" x="276.5" y="-67" font-family="FreeSans" font-size="10.00">std::map&lt; std::string,</text>
<text text-anchor="middle" x="322" y="-56" font-family="FreeSans" font-size="10.00"> std::string &gt;</text>
</g>
<!-- Node6&#45;&gt;Node9 -->
<g id="edge10" class="edge"><title>Node6&#45;&gt;Node9</title>
<path fill="none" stroke="#9a32cd" stroke-dasharray="5,2" d="M193.499,-75.7975C198.911,-73.8959 204.557,-72.1849 210,-71 228.773,-66.913 249.721,-64.9455 268.318,-64.0674"/>
<polygon fill="#9a32cd" stroke="#9a32cd" points="192.22,-72.5393 184.108,-79.3538 194.699,-79.0857 192.22,-72.5393"/>
<text text-anchor="middle" x="230" y="-85" font-family="FreeSans" font-size="10.00"> keys</text>
<text text-anchor="middle" x="230" y="-74" font-family="FreeSans" font-size="10.00">elements</text>
</g>
<!-- Node10 -->
<g id="node10" class="node"><title>Node10</title>
<polygon fill="none" stroke="#bfbfbf" points="268.5,-0 268.5,-30 375.5,-30 375.5,-0 268.5,-0"/>
<text text-anchor="start" x="276.5" y="-18" font-family="FreeSans" font-size="10.00">std::map&lt; std::string,</text>
<text text-anchor="middle" x="322" y="-7" font-family="FreeSans" font-size="10.00"> double &gt;</text>
</g>
<!-- Node6&#45;&gt;Node10 -->
<g id="edge12" class="edge"><title>Node6&#45;&gt;Node10</title>
<path fill="none" stroke="#9a32cd" stroke-dasharray="5,2" d="M180.304,-72.445C188.738,-65.0751 199.345,-56.776 210,-51 228.077,-41.2001 249.269,-33.512 268.264,-27.8016"/>
<polygon fill="#9a32cd" stroke="#9a32cd" points="177.721,-70.0625 172.673,-79.3772 182.428,-75.2438 177.721,-70.0625"/>
<text text-anchor="middle" x="230" y="-54" font-family="FreeSans" font-size="10.00"> keys</text>
</g>
<!-- Node7 -->
<g id="node7" class="node"><title>Node7</title>
<g id="a_node7"><a xlink:title="STL class. ">
<polygon fill="none" stroke="#bfbfbf" points="0.5,-74 0.5,-104 93.5,-104 93.5,-74 0.5,-74"/>
<text text-anchor="start" x="8.5" y="-92" font-family="FreeSans" font-size="10.00">std::basic_string&lt;</text>
<text text-anchor="middle" x="47" y="-81" font-family="FreeSans" font-size="10.00"> char &gt;</text>
</a>
</g>
</g>
<!-- Node7&#45;&gt;Node6 -->
<g id="edge6" class="edge"><title>Node7&#45;&gt;Node6</title>
<path fill="none" stroke="midnightblue" d="M103.885,-89C113.778,-89 123.695,-89 132.425,-89"/>
<polygon fill="midnightblue" stroke="midnightblue" points="103.636,-85.5001 93.6357,-89 103.636,-92.5001 103.636,-85.5001"/>
</g>
<!-- Node8&#45;&gt;Node1 -->
<g id="edge7" class="edge"><title>Node8&#45;&gt;Node1</title>
<path fill="none" stroke="#9a32cd" stroke-dasharray="5,2" d="M385.97,-113C410.368,-113 437.295,-113 457.776,-113"/>
<polygon fill="#9a32cd" stroke="#9a32cd" points="385.695,-109.5 375.695,-113 385.695,-116.5 385.695,-109.5"/>
<text text-anchor="middle" x="417" y="-116" font-family="FreeSans" font-size="10.00"> floatflag</text>
</g>
<!-- Node9&#45;&gt;Node1 -->
<g id="edge9" class="edge"><title>Node9&#45;&gt;Node1</title>
<path fill="none" stroke="#9a32cd" stroke-dasharray="5,2" d="M384.586,-81.8562C402.463,-87.0504 422.013,-92.7413 440,-98 446.024,-99.7611 452.446,-101.645 458.629,-103.462"/>
<polygon fill="#9a32cd" stroke="#9a32cd" points="385.427,-78.4558 374.847,-79.0276 383.474,-85.178 385.427,-78.4558"/>
<text text-anchor="middle" x="417" y="-101" font-family="FreeSans" font-size="10.00"> stringflag</text>
</g>
<!-- Node10&#45;&gt;Node1 -->
<g id="edge11" class="edge"><title>Node10&#45;&gt;Node1</title>
<path fill="none" stroke="#9a32cd" stroke-dasharray="5,2" d="M365.819,-34.2752C369.269,-35.8629 372.696,-37.4519 376,-39 404.62,-52.4088 413.49,-52.791 440,-70 455.348,-79.9634 471.178,-94.0078 481.048,-103.3"/>
<polygon fill="#9a32cd" stroke="#9a32cd" points="367.255,-31.083 356.705,-30.1049 364.342,-37.4483 367.255,-31.083"/>
<text text-anchor="middle" x="417" y="-73" font-family="FreeSans" font-size="10.00"> doubleflag</text>
</g>
</g>
</svg>
