<?xml version="1.0" encoding="UTF-8" standalone="no"?>
<!DOCTYPE svg PUBLIC "-//W3C//DTD SVG 1.1//EN"
 "http://www.w3.org/Graphics/SVG/1.1/DTD/svg11.dtd">
<!-- Generated by graphviz version 2.36.0 (20140111.2315)
 -->
<!-- Title: PHCompositeNode::prune Pages: 1 -->
<svg width="304pt" height="142pt"
 viewBox="0.00 0.00 304.00 142.00" xmlns="http://www.w3.org/2000/svg" xmlns:xlink="http://www.w3.org/1999/xlink">
<g id="graph0" class="graph" transform="scale(1 1) rotate(0) translate(4 138)">
<title>PHCompositeNode::prune</title>
<!-- Node1 -->
<g id="node1" class="node"><title>Node1</title>
<polygon fill="#bfbfbf" stroke="black" points="0.5,-57.5 0.5,-76.5 129.5,-76.5 129.5,-57.5 0.5,-57.5"/>
<text text-anchor="middle" x="65" y="-64.5" font-family="FreeSans" font-size="10.00">PHCompositeNode::prune</text>
</g>
<!-- Node2 -->
<g id="node2" class="node"><title>Node2</title>
<g id="a_node2"><a xlink:href="../../dc/d82/classPHNode.html#a121a1f9c608c309a3a1cc3d9e7040c65" target="_top" xlink:title="PHNode::isPersistent">
<polygon fill="none" stroke="black" points="176,-114.5 176,-133.5 286,-133.5 286,-114.5 176,-114.5"/>
<text text-anchor="middle" x="231" y="-121.5" font-family="FreeSans" font-size="10.00">PHNode::isPersistent</text>
</a>
</g>
</g>
<!-- Node1&#45;&gt;Node2 -->
<g id="edge1" class="edge"><title>Node1&#45;&gt;Node2</title>
<path fill="none" stroke="midnightblue" d="M89.6616,-76.5627C109.812,-84.5682 139.608,-96.0816 166,-105 172.492,-107.194 179.399,-109.388 186.184,-111.465"/>
<polygon fill="midnightblue" stroke="midnightblue" points="185.388,-114.88 195.973,-114.41 187.405,-108.177 185.388,-114.88"/>
</g>
<!-- Node3 -->
<g id="node3" class="node"><title>Node3</title>
<g id="a_node3"><a xlink:href="../../d9/db3/classPHPointerListIterator.html#adacf481f4864357223b8c91541243fcd" target="_top" xlink:title="PHPointerListIterator::pos">
<polygon fill="none" stroke="black" points="166.5,-76.5 166.5,-95.5 295.5,-95.5 295.5,-76.5 166.5,-76.5"/>
<text text-anchor="middle" x="231" y="-83.5" font-family="FreeSans" font-size="10.00">PHPointerListIterator::pos</text>
</a>
</g>
</g>
<!-- Node1&#45;&gt;Node3 -->
<g id="edge2" class="edge"><title>Node1&#45;&gt;Node3</title>
<path fill="none" stroke="midnightblue" d="M129.876,-74.4003C138.474,-75.3964 147.351,-76.4248 156.104,-77.4389"/>
<polygon fill="midnightblue" stroke="midnightblue" points="155.962,-80.9457 166.298,-78.6199 156.767,-73.9922 155.962,-80.9457"/>
</g>
<!-- Node4 -->
<g id="node4" class="node"><title>Node4</title>
<g id="a_node4"><a xlink:href="../../dc/d82/classPHNode.html#aeb6dd8e9f0262e85ec7143ed328d28c7" target="_top" xlink:title="PHNode::prune">
<polygon fill="none" stroke="black" points="189.5,-38.5 189.5,-57.5 272.5,-57.5 272.5,-38.5 189.5,-38.5"/>
<text text-anchor="middle" x="231" y="-45.5" font-family="FreeSans" font-size="10.00">PHNode::prune</text>
</a>
</g>
</g>
<!-- Node1&#45;&gt;Node4 -->
<g id="edge3" class="edge"><title>Node1&#45;&gt;Node4</title>
<path fill="none" stroke="midnightblue" d="M129.876,-59.5997C146.255,-57.7022 163.649,-55.687 179.264,-53.8779"/>
<polygon fill="midnightblue" stroke="midnightblue" points="179.709,-57.3499 189.24,-52.7222 178.904,-50.3964 179.709,-57.3499"/>
</g>
<!-- Node5 -->
<g id="node5" class="node"><title>Node5</title>
<g id="a_node5"><a xlink:href="../../d6/d86/classPHPointerList.html#ac0570b0428cc5d6d0f9bc21ed321ad61" target="_top" xlink:title="PHPointerList::removeAt">
<polygon fill="none" stroke="black" points="168.5,-0.5 168.5,-19.5 293.5,-19.5 293.5,-0.5 168.5,-0.5"/>
<text text-anchor="middle" x="231" y="-7.5" font-family="FreeSans" font-size="10.00">PHPointerList::removeAt</text>
</a>
</g>
</g>
<!-- Node1&#45;&gt;Node5 -->
<g id="edge4" class="edge"><title>Node1&#45;&gt;Node5</title>
<path fill="none" stroke="midnightblue" d="M89.6616,-57.4373C109.812,-49.4318 139.608,-37.9184 166,-29 172.492,-26.8062 179.399,-24.6123 186.184,-22.5353"/>
<polygon fill="midnightblue" stroke="midnightblue" points="187.405,-25.8228 195.973,-19.5896 185.388,-19.1197 187.405,-25.8228"/>
</g>
</g>
</svg>
