<?xml version="1.0" encoding="UTF-8" standalone="no"?>
<!DOCTYPE svg PUBLIC "-//W3C//DTD SVG 1.1//EN"
 "http://www.w3.org/Graphics/SVG/1.1/DTD/svg11.dtd">
<!-- Generated by graphviz version 2.36.0 (20140111.2315)
 -->
<!-- Title: PHCompositeNode::addNode Pages: 1 -->
<svg width="302pt" height="104pt"
 viewBox="0.00 0.00 302.00 104.00" xmlns="http://www.w3.org/2000/svg" xmlns:xlink="http://www.w3.org/1999/xlink">
<g id="graph0" class="graph" transform="scale(1 1) rotate(0) translate(4 100)">
<title>PHCompositeNode::addNode</title>
<!-- Node1 -->
<g id="node1" class="node"><title>Node1</title>
<polygon fill="#bfbfbf" stroke="black" points="0,-38.5 0,-57.5 144,-57.5 144,-38.5 0,-38.5"/>
<text text-anchor="middle" x="72" y="-45.5" font-family="FreeSans" font-size="10.00">PHCompositeNode::addNode</text>
</g>
<!-- Node2 -->
<g id="node2" class="node"><title>Node2</title>
<g id="a_node2"><a xlink:href="../../d6/d86/classPHPointerList.html#af5fc4e6958b5b90c57bfb497566f503c" target="_top" xlink:title="PHPointerList::append">
<polygon fill="none" stroke="black" points="180,-76.5 180,-95.5 294,-95.5 294,-76.5 180,-76.5"/>
<text text-anchor="middle" x="237" y="-83.5" font-family="FreeSans" font-size="10.00">PHPointerList::append</text>
</a>
</g>
</g>
<!-- Node1&#45;&gt;Node2 -->
<g id="edge1" class="edge"><title>Node1&#45;&gt;Node2</title>
<path fill="none" stroke="midnightblue" d="M114.132,-57.589C135.738,-62.6261 162.409,-68.8438 185.286,-74.1771"/>
<polygon fill="midnightblue" stroke="midnightblue" points="184.63,-77.6181 195.164,-76.4799 186.22,-70.8009 184.63,-77.6181"/>
</g>
<!-- Node3 -->
<g id="node3" class="node"><title>Node3</title>
<g id="a_node3"><a xlink:href="../../dc/d82/classPHNode.html#aca3576f926a4401eddc3d88bf0ce0de3" target="_top" xlink:title="PHNode::getName">
<polygon fill="none" stroke="black" points="188,-38.5 188,-57.5 286,-57.5 286,-38.5 188,-38.5"/>
<text text-anchor="middle" x="237" y="-45.5" font-family="FreeSans" font-size="10.00">PHNode::getName</text>
</a>
</g>
</g>
<!-- Node1&#45;&gt;Node3 -->
<g id="edge2" class="edge"><title>Node1&#45;&gt;Node3</title>
<path fill="none" stroke="midnightblue" d="M144.02,-48C155.202,-48 166.652,-48 177.509,-48"/>
<polygon fill="midnightblue" stroke="midnightblue" points="177.708,-51.5001 187.708,-48 177.708,-44.5001 177.708,-51.5001"/>
</g>
<!-- Node4 -->
<g id="node4" class="node"><title>Node4</title>
<g id="a_node4"><a xlink:href="../../dc/d82/classPHNode.html#adda2bd6cef2d5067bbe3016a990b7198" target="_top" xlink:title="PHNode::setParent">
<polygon fill="none" stroke="black" points="186.5,-0.5 186.5,-19.5 287.5,-19.5 287.5,-0.5 186.5,-0.5"/>
<text text-anchor="middle" x="237" y="-7.5" font-family="FreeSans" font-size="10.00">PHNode::setParent</text>
</a>
</g>
</g>
<!-- Node1&#45;&gt;Node4 -->
<g id="edge3" class="edge"><title>Node1&#45;&gt;Node4</title>
<path fill="none" stroke="midnightblue" d="M114.132,-38.411C135.738,-33.3739 162.409,-27.1562 185.286,-21.8229"/>
<polygon fill="midnightblue" stroke="midnightblue" points="186.22,-25.1991 195.164,-19.5201 184.63,-18.3819 186.22,-25.1991"/>
</g>
</g>
</svg>
