<?xml version="1.0" encoding="UTF-8" standalone="no"?>
<!DOCTYPE svg PUBLIC "-//W3C//DTD SVG 1.1//EN"
 "http://www.w3.org/Graphics/SVG/1.1/DTD/svg11.dtd">
<!-- Generated by graphviz version 2.36.0 (20140111.2315)
 -->
<!-- Title: PHCompositeNode::forgetMe Pages: 1 -->
<svg width="318pt" height="66pt"
 viewBox="0.00 0.00 318.00 66.00" xmlns="http://www.w3.org/2000/svg" xmlns:xlink="http://www.w3.org/1999/xlink">
<g id="graph0" class="graph" transform="scale(1 1) rotate(0) translate(4 62)">
<title>PHCompositeNode::forgetMe</title>
<!-- Node1 -->
<g id="node1" class="node"><title>Node1</title>
<polygon fill="#bfbfbf" stroke="black" points="0.5,-19.5 0.5,-38.5 143.5,-38.5 143.5,-19.5 0.5,-19.5"/>
<text text-anchor="middle" x="72" y="-26.5" font-family="FreeSans" font-size="10.00">PHCompositeNode::forgetMe</text>
</g>
<!-- Node2 -->
<g id="node2" class="node"><title>Node2</title>
<g id="a_node2"><a xlink:href="../../d9/db3/classPHPointerListIterator.html#adacf481f4864357223b8c91541243fcd" target="_top" xlink:title="PHPointerListIterator::pos">
<polygon fill="none" stroke="black" points="180.5,-38.5 180.5,-57.5 309.5,-57.5 309.5,-38.5 180.5,-38.5"/>
<text text-anchor="middle" x="245" y="-45.5" font-family="FreeSans" font-size="10.00">PHPointerListIterator::pos</text>
</a>
</g>
</g>
<!-- Node1&#45;&gt;Node2 -->
<g id="edge1" class="edge"><title>Node1&#45;&gt;Node2</title>
<path fill="none" stroke="midnightblue" d="M143.54,-36.8377C152.43,-37.8255 161.543,-38.8381 170.478,-39.8308"/>
<polygon fill="midnightblue" stroke="midnightblue" points="170.143,-43.3151 180.468,-40.9409 170.916,-36.3579 170.143,-43.3151"/>
</g>
<!-- Node3 -->
<g id="node3" class="node"><title>Node3</title>
<g id="a_node3"><a xlink:href="../../d6/d86/classPHPointerList.html#ac0570b0428cc5d6d0f9bc21ed321ad61" target="_top" xlink:title="PHPointerList::removeAt">
<polygon fill="none" stroke="black" points="182.5,-0.5 182.5,-19.5 307.5,-19.5 307.5,-0.5 182.5,-0.5"/>
<text text-anchor="middle" x="245" y="-7.5" font-family="FreeSans" font-size="10.00">PHPointerList::removeAt</text>
</a>
</g>
</g>
<!-- Node1&#45;&gt;Node3 -->
<g id="edge2" class="edge"><title>Node1&#45;&gt;Node3</title>
<path fill="none" stroke="midnightblue" d="M143.54,-21.1623C152.998,-20.1113 162.709,-19.0323 172.189,-17.979"/>
<polygon fill="midnightblue" stroke="midnightblue" points="172.811,-21.4315 182.363,-16.8485 172.038,-14.4743 172.811,-21.4315"/>
</g>
</g>
</svg>
