<?xml version="1.0" encoding="UTF-8" standalone="no"?>
<!DOCTYPE svg PUBLIC "-//W3C//DTD SVG 1.1//EN"
 "http://www.w3.org/Graphics/SVG/1.1/DTD/svg11.dtd">
<!-- Generated by graphviz version 2.36.0 (20140111.2315)
 -->
<!-- Title: PHCompositeNode::print Pages: 1 -->
<svg width="884pt" height="115pt"
 viewBox="0.00 0.00 884.00 115.00" xmlns="http://www.w3.org/2000/svg" xmlns:xlink="http://www.w3.org/1999/xlink">
<g id="graph0" class="graph" transform="scale(1 1) rotate(0) translate(4 111)">
<title>PHCompositeNode::print</title>
<!-- Node1 -->
<g id="node1" class="node"><title>Node1</title>
<polygon fill="#bfbfbf" stroke="black" points="0,-22.5 0,-41.5 124,-41.5 124,-22.5 0,-22.5"/>
<text text-anchor="middle" x="62" y="-29.5" font-family="FreeSans" font-size="10.00">PHCompositeNode::print</text>
</g>
<!-- Node2 -->
<g id="node2" class="node"><title>Node2</title>
<g id="a_node2"><a xlink:href="../../d5/d07/classPHNodeIterator.html#aec2fbc1e56be7e1a0b064ecde48edee5" target="_top" xlink:title="PHNodeIterator::print">
<polygon fill="none" stroke="black" points="160,-22.5 160,-41.5 268,-41.5 268,-22.5 160,-22.5"/>
<text text-anchor="middle" x="214" y="-29.5" font-family="FreeSans" font-size="10.00">PHNodeIterator::print</text>
</a>
</g>
</g>
<!-- Node1&#45;&gt;Node2 -->
<g id="edge1" class="edge"><title>Node1&#45;&gt;Node2</title>
<path fill="none" stroke="midnightblue" d="M134.089,-32C142.726,-32 151.431,-32 159.746,-32"/>
<polygon fill="midnightblue" stroke="midnightblue" points="134.011,-28.5001 124.011,-32 134.011,-35.5001 134.011,-28.5001"/>
</g>
<!-- Node3 -->
<g id="node3" class="node"><title>Node3</title>
<g id="a_node3"><a xlink:href="../../da/d29/classFun4AllServer.html#a6a65a944dfb40966ace97d35ab1f7942" target="_top" xlink:title="Fun4AllServer::process\l_event">
<polygon fill="none" stroke="black" points="304.5,-39 304.5,-69 421.5,-69 421.5,-39 304.5,-39"/>
<text text-anchor="start" x="312.5" y="-57" font-family="FreeSans" font-size="10.00">Fun4AllServer::process</text>
<text text-anchor="middle" x="363" y="-46" font-family="FreeSans" font-size="10.00">_event</text>
</a>
</g>
</g>
<!-- Node2&#45;&gt;Node3 -->
<g id="edge2" class="edge"><title>Node2&#45;&gt;Node3</title>
<path fill="none" stroke="midnightblue" d="M278.143,-41.45C286.826,-42.7495 295.706,-44.0784 304.284,-45.3622"/>
<polygon fill="midnightblue" stroke="midnightblue" points="278.478,-37.9613 268.07,-39.9425 277.442,-44.8842 278.478,-37.9613"/>
</g>
<!-- Node8 -->
<g id="node8" class="node"><title>Node8</title>
<g id="a_node8"><a xlink:href="../../da/d29/classFun4AllServer.html#ae1b1a243ee1a67367c8da4ec3bdc003d" target="_top" xlink:title="Fun4AllServer::Print">
<polygon fill="none" stroke="black" points="311.5,-0.5 311.5,-19.5 414.5,-19.5 414.5,-0.5 311.5,-0.5"/>
<text text-anchor="middle" x="363" y="-7.5" font-family="FreeSans" font-size="10.00">Fun4AllServer::Print</text>
</a>
</g>
</g>
<!-- Node2&#45;&gt;Node8 -->
<g id="edge7" class="edge"><title>Node2&#45;&gt;Node8</title>
<path fill="none" stroke="midnightblue" d="M278.167,-22.5465C289.292,-20.8815 300.74,-19.1682 311.462,-17.5635"/>
<polygon fill="midnightblue" stroke="midnightblue" points="277.442,-19.1158 268.07,-24.0575 278.478,-26.0387 277.442,-19.1158"/>
</g>
<!-- Node4 -->
<g id="node4" class="node"><title>Node4</title>
<g id="a_node4"><a xlink:href="../../da/d29/classFun4AllServer.html#a94738b092fa009fcea45737d8ea41224" target="_top" xlink:title="Fun4AllServer::process\l_event">
<polygon fill="none" stroke="black" points="462.5,-77 462.5,-107 579.5,-107 579.5,-77 462.5,-77"/>
<text text-anchor="start" x="470.5" y="-95" font-family="FreeSans" font-size="10.00">Fun4AllServer::process</text>
<text text-anchor="middle" x="521" y="-84" font-family="FreeSans" font-size="10.00">_event</text>
</a>
</g>
</g>
<!-- Node3&#45;&gt;Node4 -->
<g id="edge3" class="edge"><title>Node3&#45;&gt;Node4</title>
<path fill="none" stroke="midnightblue" d="M431.419,-70.4225C441.718,-72.9312 452.267,-75.501 462.331,-77.9525"/>
<polygon fill="midnightblue" stroke="midnightblue" points="432.19,-67.008 421.645,-68.0418 430.533,-73.8092 432.19,-67.008"/>
</g>
<!-- Node5 -->
<g id="node5" class="node"><title>Node5</title>
<g id="a_node5"><a xlink:href="../../da/d29/classFun4AllServer.html#a11bbc8b2f53bc06e0b05ee202dd6372a" target="_top" xlink:title="run n events (0 means up to end of file) ">
<polygon fill="none" stroke="black" points="620,-19.5 620,-38.5 716,-38.5 716,-19.5 620,-19.5"/>
<text text-anchor="middle" x="668" y="-26.5" font-family="FreeSans" font-size="10.00">Fun4AllServer::run</text>
</a>
</g>
</g>
<!-- Node3&#45;&gt;Node5 -->
<g id="edge4" class="edge"><title>Node3&#45;&gt;Node5</title>
<path fill="none" stroke="midnightblue" d="M431.754,-48.4097C489.003,-43.6862 569.515,-37.0433 619.946,-32.8824"/>
<polygon fill="midnightblue" stroke="midnightblue" points="431.383,-44.9283 421.705,-49.2388 431.959,-51.9046 431.383,-44.9283"/>
</g>
<!-- Node6 -->
<g id="node6" class="node"><title>Node6</title>
<g id="a_node6"><a xlink:href="../../d0/d46/Fun4__SimpleReadMySql_8C.html#a70381893748e3445abc30632beb256ce" target="_top" xlink:title="Fun4_SimpleReadMySql">
<polygon fill="none" stroke="black" points="752.5,-38.5 752.5,-57.5 875.5,-57.5 875.5,-38.5 752.5,-38.5"/>
<text text-anchor="middle" x="814" y="-45.5" font-family="FreeSans" font-size="10.00">Fun4_SimpleReadMySql</text>
</a>
</g>
</g>
<!-- Node5&#45;&gt;Node6 -->
<g id="edge5" class="edge"><title>Node5&#45;&gt;Node6</title>
<path fill="none" stroke="midnightblue" d="M726.109,-36.5352C734.736,-37.6735 743.66,-38.851 752.358,-39.9986"/>
<polygon fill="midnightblue" stroke="midnightblue" points="726.523,-33.0596 716.151,-35.2213 725.607,-39.9994 726.523,-33.0596"/>
</g>
<!-- Node7 -->
<g id="node7" class="node"><title>Node7</title>
<g id="a_node7"><a xlink:href="../../d9/d8c/Fun4ReadMySql_8C.html#a729b39fa627147c63772f28c9be36b62" target="_top" xlink:title="Fun4ReadMySql">
<polygon fill="none" stroke="black" points="770,-0.5 770,-19.5 858,-19.5 858,-0.5 770,-0.5"/>
<text text-anchor="middle" x="814" y="-7.5" font-family="FreeSans" font-size="10.00">Fun4ReadMySql</text>
</a>
</g>
</g>
<!-- Node5&#45;&gt;Node7 -->
<g id="edge6" class="edge"><title>Node5&#45;&gt;Node7</title>
<path fill="none" stroke="midnightblue" d="M726.457,-21.4189C740.854,-19.5193 756.061,-17.5128 769.643,-15.7208"/>
<polygon fill="midnightblue" stroke="midnightblue" points="725.607,-18.0006 716.151,-22.7787 726.523,-24.9404 725.607,-18.0006"/>
</g>
<!-- Node9 -->
<g id="node9" class="node"><title>Node9</title>
<g id="a_node9"><a xlink:href="../../da/d29/classFun4AllServer.html#afcfc5583204cac58b4e66a2406187a18" target="_top" xlink:title="Fun4AllServer::BeginRun">
<polygon fill="none" stroke="black" points="458.5,-0.5 458.5,-19.5 583.5,-19.5 583.5,-0.5 458.5,-0.5"/>
<text text-anchor="middle" x="521" y="-7.5" font-family="FreeSans" font-size="10.00">Fun4AllServer::BeginRun</text>
</a>
</g>
</g>
<!-- Node8&#45;&gt;Node9 -->
<g id="edge8" class="edge"><title>Node8&#45;&gt;Node9</title>
<path fill="none" stroke="midnightblue" d="M424.663,-10C435.748,-10 447.325,-10 458.437,-10"/>
<polygon fill="midnightblue" stroke="midnightblue" points="424.649,-6.5001 414.649,-10 424.649,-13.5001 424.649,-6.5001"/>
</g>
<!-- Node9&#45;&gt;Node5 -->
<g id="edge9" class="edge"><title>Node9&#45;&gt;Node5</title>
<path fill="none" stroke="midnightblue" d="M594.109,-19.4488C602.823,-20.5906 611.544,-21.7333 619.769,-22.8111"/>
<polygon fill="midnightblue" stroke="midnightblue" points="594.284,-15.9418 583.914,-18.1128 593.374,-22.8825 594.284,-15.9418"/>
</g>
</g>
</svg>
