<?xml version="1.0" encoding="UTF-8" standalone="no"?>
<!DOCTYPE svg PUBLIC "-//W3C//DTD SVG 1.1//EN"
 "http://www.w3.org/Graphics/SVG/1.1/DTD/svg11.dtd">
<!-- Generated by graphviz version 2.36.0 (20140111.2315)
 -->
<!-- Title: PHCompositeNode::write Pages: 1 -->
<svg width="466pt" height="126pt"
 viewBox="0.00 0.00 466.00 126.00" xmlns="http://www.w3.org/2000/svg" xmlns:xlink="http://www.w3.org/1999/xlink">
<g id="graph0" class="graph" transform="scale(1 1) rotate(0) translate(4 122)">
<title>PHCompositeNode::write</title>
<!-- Node1 -->
<g id="node1" class="node"><title>Node1</title>
<polygon fill="#bfbfbf" stroke="black" points="0,-44.5 0,-63.5 126,-63.5 126,-44.5 0,-44.5"/>
<text text-anchor="middle" x="63" y="-51.5" font-family="FreeSans" font-size="10.00">PHCompositeNode::write</text>
</g>
<!-- Node2 -->
<g id="node2" class="node"><title>Node2</title>
<g id="a_node2"><a xlink:href="../../d7/d4d/classPHNodeIOManager.html#a436c3a21a9c6ea54a33ffcc9f2480949" target="_top" xlink:title="PHNodeIOManager::write">
<polygon fill="none" stroke="black" points="162,-44.5 162,-63.5 290,-63.5 290,-44.5 162,-44.5"/>
<text text-anchor="middle" x="226" y="-51.5" font-family="FreeSans" font-size="10.00">PHNodeIOManager::write</text>
</a>
</g>
</g>
<!-- Node1&#45;&gt;Node2 -->
<g id="edge1" class="edge"><title>Node1&#45;&gt;Node2</title>
<path fill="none" stroke="midnightblue" d="M136.486,-54C144.95,-54 153.533,-54 161.856,-54"/>
<polygon fill="midnightblue" stroke="midnightblue" points="136.247,-50.5001 126.247,-54 136.247,-57.5001 136.247,-50.5001"/>
</g>
<!-- Node3 -->
<g id="node3" class="node"><title>Node3</title>
<g id="a_node3"><a xlink:href="../../da/daa/classFun4AllDstOutputManager.html#aa4b5b519c6db1540d03007c8c21436fc" target="_top" xlink:title="write starting from given node ">
<polygon fill="none" stroke="black" points="326.5,-88 326.5,-118 457.5,-118 457.5,-88 326.5,-88"/>
<text text-anchor="start" x="334.5" y="-106" font-family="FreeSans" font-size="10.00">Fun4AllDstOutputManager</text>
<text text-anchor="middle" x="392" y="-95" font-family="FreeSans" font-size="10.00">::Write</text>
</a>
</g>
</g>
<!-- Node2&#45;&gt;Node3 -->
<g id="edge2" class="edge"><title>Node2&#45;&gt;Node3</title>
<path fill="none" stroke="midnightblue" d="M268.683,-66.4541C290.589,-72.9992 317.606,-81.0713 340.672,-87.963"/>
<polygon fill="midnightblue" stroke="midnightblue" points="269.594,-63.0733 259.01,-63.564 267.59,-69.7804 269.594,-63.0733"/>
</g>
<!-- Node4 -->
<g id="node4" class="node"><title>Node4</title>
<g id="a_node4"><a xlink:href="../../da/daa/classFun4AllDstOutputManager.html#ac839ec7d93dd52ca363c8307fa88cb94" target="_top" xlink:title="write specified node ">
<polygon fill="none" stroke="black" points="326.5,-39 326.5,-69 457.5,-69 457.5,-39 326.5,-39"/>
<text text-anchor="start" x="334.5" y="-57" font-family="FreeSans" font-size="10.00">Fun4AllDstOutputManager</text>
<text text-anchor="middle" x="392" y="-46" font-family="FreeSans" font-size="10.00">::WriteNode</text>
</a>
</g>
</g>
<!-- Node2&#45;&gt;Node4 -->
<g id="edge3" class="edge"><title>Node2&#45;&gt;Node4</title>
<path fill="none" stroke="midnightblue" d="M300.475,-54C309.122,-54 317.896,-54 326.408,-54"/>
<polygon fill="midnightblue" stroke="midnightblue" points="300.407,-50.5001 290.407,-54 300.407,-57.5001 300.407,-50.5001"/>
</g>
<!-- Node5 -->
<g id="node5" class="node"><title>Node5</title>
<g id="a_node5"><a xlink:href="../../d9/dde/classPHIODataNode.html#a85de85728a52af6aac318b64179ffd2f" target="_top" xlink:title="PHIODataNode::write">
<polygon fill="none" stroke="black" points="337,-0.5 337,-19.5 447,-19.5 447,-0.5 337,-0.5"/>
<text text-anchor="middle" x="392" y="-7.5" font-family="FreeSans" font-size="10.00">PHIODataNode::write</text>
</a>
</g>
</g>
<!-- Node2&#45;&gt;Node5 -->
<g id="edge4" class="edge"><title>Node2&#45;&gt;Node5</title>
<path fill="none" stroke="midnightblue" d="M272.304,-41.8453C298.547,-34.8045 331.107,-26.0688 355.484,-19.5287"/>
<polygon fill="midnightblue" stroke="midnightblue" points="271.337,-38.4808 262.586,-44.4527 273.151,-45.2417 271.337,-38.4808"/>
</g>
</g>
</svg>
