<?xml version="1.0" encoding="UTF-8" standalone="no"?>
<!DOCTYPE svg PUBLIC "-//W3C//DTD SVG 1.1//EN"
 "http://www.w3.org/Graphics/SVG/1.1/DTD/svg11.dtd">
<!-- Generated by graphviz version 2.36.0 (20140111.2315)
 -->
<!-- Title: PHCompositeNode::addNode Pages: 1 -->
<svg width="1372pt" height="297pt"
 viewBox="0.00 0.00 1372.00 297.02" xmlns="http://www.w3.org/2000/svg" xmlns:xlink="http://www.w3.org/1999/xlink">
<g id="graph0" class="graph" transform="scale(1 1) rotate(0) translate(4 293.017)">
<title>PHCompositeNode::addNode</title>
<!-- Node1 -->
<g id="node1" class="node"><title>Node1</title>
<polygon fill="#bfbfbf" stroke="black" points="0,-126.5 0,-145.5 144,-145.5 144,-126.5 0,-126.5"/>
<text text-anchor="middle" x="72" y="-133.5" font-family="FreeSans" font-size="10.00">PHCompositeNode::addNode</text>
</g>
<!-- Node2 -->
<g id="node2" class="node"><title>Node2</title>
<g id="a_node2"><a xlink:href="../../d5/d07/classPHNodeIterator.html#a2c183a75c6a6784f38ff15b6163eb7ee" target="_top" xlink:title="PHNodeIterator::addNode">
<polygon fill="none" stroke="black" points="193,-214.5 193,-233.5 321,-233.5 321,-214.5 193,-214.5"/>
<text text-anchor="middle" x="257" y="-221.5" font-family="FreeSans" font-size="10.00">PHNodeIterator::addNode</text>
</a>
</g>
</g>
<!-- Node1&#45;&gt;Node2 -->
<g id="edge1" class="edge"><title>Node1&#45;&gt;Node2</title>
<path fill="none" stroke="midnightblue" d="M93.1914,-151.534C113.945,-166.832 147.701,-189.896 180,-204 189.503,-208.15 200.061,-211.598 210.212,-214.396"/>
<polygon fill="midnightblue" stroke="midnightblue" points="95.2379,-148.694 85.1352,-145.502 91.0425,-154.298 95.2379,-148.694"/>
</g>
<!-- Node11 -->
<g id="node11" class="node"><title>Node11</title>
<g id="a_node11"><a xlink:href="../../da/dd8/classFun4AllPrdfInputManager.html#a36fdaca3254cbb07a00af64b10488385" target="_top" xlink:title="Fun4AllPrdfInputManager\l::Fun4AllPrdfInputManager">
<polygon fill="none" stroke="black" points="191.5,-165 191.5,-195 322.5,-195 322.5,-165 191.5,-165"/>
<text text-anchor="start" x="199.5" y="-183" font-family="FreeSans" font-size="10.00">Fun4AllPrdfInputManager</text>
<text text-anchor="middle" x="257" y="-172" font-family="FreeSans" font-size="10.00">::Fun4AllPrdfInputManager</text>
</a>
</g>
</g>
<!-- Node1&#45;&gt;Node11 -->
<g id="edge13" class="edge"><title>Node1&#45;&gt;Node11</title>
<path fill="none" stroke="midnightblue" d="M122.722,-147.955C144.491,-153.189 170.278,-159.389 193.342,-164.935"/>
<polygon fill="midnightblue" stroke="midnightblue" points="123.249,-144.482 112.708,-145.547 121.613,-151.288 123.249,-144.482"/>
</g>
<!-- Node12 -->
<g id="node12" class="node"><title>Node12</title>
<g id="a_node12"><a xlink:href="../../da/d29/classFun4AllServer.html#ac42fd391b795d9605811abb9394c2011" target="_top" xlink:title="Fun4AllServer::getNode">
<polygon fill="none" stroke="black" points="574.5,-260.5 574.5,-279.5 693.5,-279.5 693.5,-260.5 574.5,-260.5"/>
<text text-anchor="middle" x="634" y="-267.5" font-family="FreeSans" font-size="10.00">Fun4AllServer::getNode</text>
</a>
</g>
</g>
<!-- Node1&#45;&gt;Node12 -->
<g id="edge14" class="edge"><title>Node1&#45;&gt;Node12</title>
<path fill="none" stroke="midnightblue" d="M84.8008,-154.309C102.189,-179.472 137.294,-223.802 180,-243 310.962,-301.872 485.047,-290.605 574.481,-279.227"/>
<polygon fill="midnightblue" stroke="midnightblue" points="87.5017,-152.053 79.0253,-145.696 81.6878,-155.951 87.5017,-152.053"/>
</g>
<!-- Node13 -->
<g id="node13" class="node"><title>Node13</title>
<g id="a_node13"><a xlink:href="../../da/d29/classFun4AllServer.html#a2ebfcdcf706670c98c189bfa93c3ff89" target="_top" xlink:title="Fun4AllServer::InitNodeTree">
<polygon fill="none" stroke="black" points="187.5,-126.5 187.5,-145.5 326.5,-145.5 326.5,-126.5 187.5,-126.5"/>
<text text-anchor="middle" x="257" y="-133.5" font-family="FreeSans" font-size="10.00">Fun4AllServer::InitNodeTree</text>
</a>
</g>
</g>
<!-- Node1&#45;&gt;Node13 -->
<g id="edge16" class="edge"><title>Node1&#45;&gt;Node13</title>
<path fill="none" stroke="midnightblue" d="M154.142,-136C165.254,-136 176.572,-136 187.429,-136"/>
<polygon fill="midnightblue" stroke="midnightblue" points="154.015,-132.5 144.015,-136 154.014,-139.5 154.015,-132.5"/>
</g>
<!-- Node17 -->
<g id="node17" class="node"><title>Node17</title>
<g id="a_node17"><a xlink:href="../../d6/dc8/classFun4AllPrdfOutputManager.html#a1d891012ff50062628d053f825426c80" target="_top" xlink:title="PRDF node initialization [class specific method]. ">
<polygon fill="none" stroke="black" points="190,-77 190,-107 324,-107 324,-77 190,-77"/>
<text text-anchor="start" x="198" y="-95" font-family="FreeSans" font-size="10.00">Fun4AllPrdfOutputManager</text>
<text text-anchor="middle" x="257" y="-84" font-family="FreeSans" font-size="10.00">::InitPrdfNode</text>
</a>
</g>
</g>
<!-- Node1&#45;&gt;Node17 -->
<g id="edge20" class="edge"><title>Node1&#45;&gt;Node17</title>
<path fill="none" stroke="midnightblue" d="M122.722,-124.045C144.491,-118.811 170.278,-112.611 193.342,-107.065"/>
<polygon fill="midnightblue" stroke="midnightblue" points="121.613,-120.712 112.708,-126.453 123.249,-127.518 121.613,-120.712"/>
</g>
<!-- Node18 -->
<g id="node18" class="node"><title>Node18</title>
<g id="a_node18"><a xlink:href="../../d0/d68/classSimpleReadMySql.html#a650a5f65ee1634450425061b781ec942" target="_top" xlink:title="SimpleReadMySql::MakeNodes">
<polygon fill="none" stroke="black" points="180.5,-38.5 180.5,-57.5 333.5,-57.5 333.5,-38.5 180.5,-38.5"/>
<text text-anchor="middle" x="257" y="-45.5" font-family="FreeSans" font-size="10.00">SimpleReadMySql::MakeNodes</text>
</a>
</g>
</g>
<!-- Node1&#45;&gt;Node18 -->
<g id="edge21" class="edge"><title>Node1&#45;&gt;Node18</title>
<path fill="none" stroke="midnightblue" d="M93.1167,-120.136C113.812,-104.535 147.524,-81.0715 180,-67 188.736,-63.215 198.376,-60.0793 207.774,-57.5209"/>
<polygon fill="midnightblue" stroke="midnightblue" points="90.894,-117.43 85.0856,-126.291 95.1519,-122.986 90.894,-117.43"/>
</g>
<!-- Node20 -->
<g id="node20" class="node"><title>Node20</title>
<g id="a_node20"><a xlink:href="../../db/dda/classReadMySql.html#a893da68c47d48aaa94b6a6befdb4ab85" target="_top" xlink:title="ReadMySql::MakeNodes">
<polygon fill="none" stroke="black" points="195.5,-0.5 195.5,-19.5 318.5,-19.5 318.5,-0.5 195.5,-0.5"/>
<text text-anchor="middle" x="257" y="-7.5" font-family="FreeSans" font-size="10.00">ReadMySql::MakeNodes</text>
</a>
</g>
</g>
<!-- Node1&#45;&gt;Node20 -->
<g id="edge23" class="edge"><title>Node1&#45;&gt;Node20</title>
<path fill="none" stroke="midnightblue" d="M85.8874,-118.044C104.094,-94.0307 139.66,-51.84 180,-29 186.864,-25.1134 194.519,-22.0127 202.255,-19.5412"/>
<polygon fill="midnightblue" stroke="midnightblue" points="82.9268,-116.161 79.7855,-126.279 88.5511,-120.328 82.9268,-116.161"/>
</g>
<!-- Node3 -->
<g id="node3" class="node"><title>Node3</title>
<g id="a_node3"><a xlink:href="../../d7/ddf/classPHDataNodeIterator.html#ada64e599ccfdcb102d9fb539225bab14" target="_top" xlink:title="PHDataNodeIterator\l::AddIODataNode">
<polygon fill="none" stroke="black" points="395.5,-214 395.5,-244 500.5,-244 500.5,-214 395.5,-214"/>
<text text-anchor="start" x="403.5" y="-232" font-family="FreeSans" font-size="10.00">PHDataNodeIterator</text>
<text text-anchor="middle" x="448" y="-221" font-family="FreeSans" font-size="10.00">::AddIODataNode</text>
</a>
</g>
</g>
<!-- Node2&#45;&gt;Node3 -->
<g id="edge2" class="edge"><title>Node2&#45;&gt;Node3</title>
<path fill="none" stroke="midnightblue" d="M331.254,-225.938C352.705,-226.505 375.696,-227.114 395.489,-227.637"/>
<polygon fill="midnightblue" stroke="midnightblue" points="331.286,-222.438 321.197,-225.672 331.101,-229.435 331.286,-222.438"/>
</g>
<!-- Node4 -->
<g id="node4" class="node"><title>Node4</title>
<g id="a_node4"><a xlink:href="../../d7/d4d/classPHNodeIOManager.html#a3882997324989c7dd04e9f6b728af7db" target="_top" xlink:title="PHNodeIOManager::reconstruct\lNodeTree">
<polygon fill="none" stroke="black" points="370.5,-165 370.5,-195 525.5,-195 525.5,-165 370.5,-165"/>
<text text-anchor="start" x="378.5" y="-183" font-family="FreeSans" font-size="10.00">PHNodeIOManager::reconstruct</text>
<text text-anchor="middle" x="448" y="-172" font-family="FreeSans" font-size="10.00">NodeTree</text>
</a>
</g>
</g>
<!-- Node2&#45;&gt;Node4 -->
<g id="edge3" class="edge"><title>Node2&#45;&gt;Node4</title>
<path fill="none" stroke="midnightblue" d="M309.047,-212.116C331.594,-206.867 358.36,-200.636 382.287,-195.065"/>
<polygon fill="midnightblue" stroke="midnightblue" points="307.956,-208.776 299.01,-214.453 309.543,-215.594 307.956,-208.776"/>
</g>
<!-- Node5 -->
<g id="node5" class="node"><title>Node5</title>
<g id="a_node5"><a xlink:href="../../d7/d4d/classPHNodeIOManager.html#a92da4bff2438e94d469011b7720f286f" target="_top" xlink:title="PHNodeIOManager::read">
<polygon fill="none" stroke="black" points="571.5,-173.5 571.5,-192.5 696.5,-192.5 696.5,-173.5 571.5,-173.5"/>
<text text-anchor="middle" x="634" y="-180.5" font-family="FreeSans" font-size="10.00">PHNodeIOManager::read</text>
</a>
</g>
</g>
<!-- Node4&#45;&gt;Node5 -->
<g id="edge4" class="edge"><title>Node4&#45;&gt;Node5</title>
<path fill="none" stroke="midnightblue" d="M535.73,-181.414C547.725,-181.61 559.84,-181.807 571.256,-181.993"/>
<polygon fill="midnightblue" stroke="midnightblue" points="535.756,-177.914 525.7,-181.251 535.642,-184.913 535.756,-177.914"/>
</g>
<!-- Node6 -->
<g id="node6" class="node"><title>Node6</title>
<g id="a_node6"><a xlink:href="../../d7/d0b/classFun4AllDstInputManager.html#a4d32eadb9f77d41387656b87377ef14f" target="_top" xlink:title="Fun4AllDstInputManager\l::fileopen">
<polygon fill="none" stroke="black" points="742,-250 742,-280 866,-280 866,-250 742,-250"/>
<text text-anchor="start" x="750" y="-268" font-family="FreeSans" font-size="10.00">Fun4AllDstInputManager</text>
<text text-anchor="middle" x="804" y="-257" font-family="FreeSans" font-size="10.00">::fileopen</text>
</a>
</g>
</g>
<!-- Node5&#45;&gt;Node6 -->
<g id="edge5" class="edge"><title>Node5&#45;&gt;Node6</title>
<path fill="none" stroke="midnightblue" d="M663.755,-197.035C693.933,-211.765 741.202,-234.837 772.145,-249.94"/>
<polygon fill="midnightblue" stroke="midnightblue" points="665.122,-193.808 654.601,-192.567 662.052,-200.099 665.122,-193.808"/>
</g>
<!-- Node8 -->
<g id="node8" class="node"><title>Node8</title>
<g id="a_node8"><a xlink:href="../../d7/d0b/classFun4AllDstInputManager.html#ade26017b627e0e1f1ec0dec62ac7fd52" target="_top" xlink:title="Fun4AllDstInputManager\l::ReadNextEventSyncObject">
<polygon fill="none" stroke="black" points="1063.5,-212 1063.5,-242 1202.5,-242 1202.5,-212 1063.5,-212"/>
<text text-anchor="start" x="1071.5" y="-230" font-family="FreeSans" font-size="10.00">Fun4AllDstInputManager</text>
<text text-anchor="middle" x="1133" y="-219" font-family="FreeSans" font-size="10.00">::ReadNextEventSyncObject</text>
</a>
</g>
</g>
<!-- Node5&#45;&gt;Node8 -->
<g id="edge12" class="edge"><title>Node5&#45;&gt;Node8</title>
<path fill="none" stroke="midnightblue" d="M706.825,-192.933C718.568,-194.403 730.614,-195.818 742,-197 854.294,-208.657 985.216,-217.826 1063.21,-222.822"/>
<polygon fill="midnightblue" stroke="midnightblue" points="706.97,-189.423 696.608,-191.632 706.085,-196.367 706.97,-189.423"/>
</g>
<!-- Node9 -->
<g id="node9" class="node"><title>Node9</title>
<g id="a_node9"><a xlink:href="../../d7/d0b/classFun4AllDstInputManager.html#a0244c2edbaa2350038304b09f352c2d0" target="_top" xlink:title="Fun4AllDstInputManager\l::SyncIt">
<polygon fill="none" stroke="black" points="1240,-171 1240,-201 1364,-201 1364,-171 1240,-171"/>
<text text-anchor="start" x="1248" y="-189" font-family="FreeSans" font-size="10.00">Fun4AllDstInputManager</text>
<text text-anchor="middle" x="1302" y="-178" font-family="FreeSans" font-size="10.00">::SyncIt</text>
</a>
</g>
</g>
<!-- Node5&#45;&gt;Node9 -->
<g id="edge11" class="edge"><title>Node5&#45;&gt;Node9</title>
<path fill="none" stroke="midnightblue" d="M706.838,-173.968C815.024,-161.863 1026.06,-144.074 1204,-164 1217.21,-165.48 1231.25,-168.06 1244.43,-170.944"/>
<polygon fill="midnightblue" stroke="midnightblue" points="706.235,-170.514 696.694,-175.12 707.025,-177.469 706.235,-170.514"/>
</g>
<!-- Node10 -->
<g id="node10" class="node"><title>Node10</title>
<g id="a_node10"><a xlink:href="../../d7/d0b/classFun4AllDstInputManager.html#aeafa0248f9050c13fdae1bcb93336d7a" target="_top" xlink:title="Fun4AllDstInputManager::run">
<polygon fill="none" stroke="black" points="1062,-173.5 1062,-192.5 1204,-192.5 1204,-173.5 1062,-173.5"/>
<text text-anchor="middle" x="1133" y="-180.5" font-family="FreeSans" font-size="10.00">Fun4AllDstInputManager::run</text>
</a>
</g>
</g>
<!-- Node5&#45;&gt;Node10 -->
<g id="edge10" class="edge"><title>Node5&#45;&gt;Node10</title>
<path fill="none" stroke="midnightblue" d="M706.776,-183C801.708,-183 967.947,-183 1061.99,-183"/>
<polygon fill="midnightblue" stroke="midnightblue" points="706.69,-179.5 696.69,-183 706.69,-186.5 706.69,-179.5"/>
</g>
<!-- Node7 -->
<g id="node7" class="node"><title>Node7</title>
<g id="a_node7"><a xlink:href="../../d7/d0b/classFun4AllDstInputManager.html#ae4e92b95ae50ab72856d06c99b043496" target="_top" xlink:title="Fun4AllDstInputManager\l::OpenNextFile">
<polygon fill="none" stroke="black" points="902,-250 902,-280 1026,-280 1026,-250 902,-250"/>
<text text-anchor="start" x="910" y="-268" font-family="FreeSans" font-size="10.00">Fun4AllDstInputManager</text>
<text text-anchor="middle" x="964" y="-257" font-family="FreeSans" font-size="10.00">::OpenNextFile</text>
</a>
</g>
</g>
<!-- Node6&#45;&gt;Node7 -->
<g id="edge6" class="edge"><title>Node6&#45;&gt;Node7</title>
<path fill="none" stroke="midnightblue" d="M876.366,-265C884.863,-265 893.478,-265 901.815,-265"/>
<polygon fill="midnightblue" stroke="midnightblue" points="876.087,-261.5 866.087,-265 876.087,-268.5 876.087,-261.5"/>
</g>
<!-- Node7&#45;&gt;Node8 -->
<g id="edge7" class="edge"><title>Node7&#45;&gt;Node8</title>
<path fill="none" stroke="midnightblue" d="M1036.06,-248.83C1045.99,-246.571 1056.16,-244.257 1065.99,-242.02"/>
<polygon fill="midnightblue" stroke="midnightblue" points="1035.21,-245.434 1026.24,-251.066 1036.76,-252.26 1035.21,-245.434"/>
</g>
<!-- Node7&#45;&gt;Node10 -->
<g id="edge9" class="edge"><title>Node7&#45;&gt;Node10</title>
<path fill="none" stroke="midnightblue" d="M992.464,-243.843C1011.2,-230.27 1037.04,-213.161 1062,-202 1070.28,-198.299 1079.43,-195.176 1088.32,-192.6"/>
<polygon fill="midnightblue" stroke="midnightblue" points="990.36,-241.046 984.388,-249.796 994.514,-246.68 990.36,-241.046"/>
</g>
<!-- Node8&#45;&gt;Node9 -->
<g id="edge8" class="edge"><title>Node8&#45;&gt;Node9</title>
<path fill="none" stroke="midnightblue" d="M1205.23,-209.512C1216.73,-206.69 1228.54,-203.79 1239.77,-201.032"/>
<polygon fill="midnightblue" stroke="midnightblue" points="1204.11,-206.183 1195.24,-211.966 1205.78,-212.981 1204.11,-206.183"/>
</g>
<!-- Node12&#45;&gt;Node6 -->
<g id="edge15" class="edge"><title>Node12&#45;&gt;Node6</title>
<path fill="none" stroke="midnightblue" d="M703.786,-267.953C716.447,-267.576 729.584,-267.185 741.995,-266.816"/>
<polygon fill="midnightblue" stroke="midnightblue" points="703.65,-264.455 693.758,-268.251 703.858,-271.452 703.65,-264.455"/>
</g>
<!-- Node14 -->
<g id="node14" class="node"><title>Node14</title>
<g id="a_node14"><a xlink:href="../../da/d29/classFun4AllServer.html#aa1939c3e2c3113cce0a6415103b4f5a5" target="_top" xlink:title="Fun4AllServer::InitAll">
<polygon fill="none" stroke="black" points="394.5,-88.5 394.5,-107.5 501.5,-107.5 501.5,-88.5 394.5,-88.5"/>
<text text-anchor="middle" x="448" y="-95.5" font-family="FreeSans" font-size="10.00">Fun4AllServer::InitAll</text>
</a>
</g>
</g>
<!-- Node13&#45;&gt;Node14 -->
<g id="edge17" class="edge"><title>Node13&#45;&gt;Node14</title>
<path fill="none" stroke="midnightblue" d="M315.742,-124.39C342.622,-118.986 374.203,-112.636 399.65,-107.52"/>
<polygon fill="midnightblue" stroke="midnightblue" points="314.807,-121.008 305.693,-126.411 316.186,-127.871 314.807,-121.008"/>
</g>
<!-- Node16 -->
<g id="node16" class="node"><title>Node16</title>
<g id="a_node16"><a xlink:href="../../da/d29/classFun4AllServer.html#a3477a81b5b754fccc94dfa8283d041f4" target="_top" xlink:title="Fun4AllServer::topNode">
<polygon fill="none" stroke="black" points="388.5,-126.5 388.5,-145.5 507.5,-145.5 507.5,-126.5 388.5,-126.5"/>
<text text-anchor="middle" x="448" y="-133.5" font-family="FreeSans" font-size="10.00">Fun4AllServer::topNode</text>
</a>
</g>
</g>
<!-- Node13&#45;&gt;Node16 -->
<g id="edge19" class="edge"><title>Node13&#45;&gt;Node16</title>
<path fill="none" stroke="midnightblue" d="M336.605,-136C353.943,-136 372.015,-136 388.397,-136"/>
<polygon fill="midnightblue" stroke="midnightblue" points="336.501,-132.5 326.501,-136 336.501,-139.5 336.501,-132.5"/>
</g>
<!-- Node15 -->
<g id="node15" class="node"><title>Node15</title>
<g id="a_node15"><a xlink:href="../../da/d29/classFun4AllServer.html#a90e27f05f0b2e8b6fe462387b14bfb92" target="_top" xlink:title="Fun4AllServer::Fun4AllServer">
<polygon fill="none" stroke="black" points="562,-88.5 562,-107.5 706,-107.5 706,-88.5 562,-88.5"/>
<text text-anchor="middle" x="634" y="-95.5" font-family="FreeSans" font-size="10.00">Fun4AllServer::Fun4AllServer</text>
</a>
</g>
</g>
<!-- Node14&#45;&gt;Node15 -->
<g id="edge18" class="edge"><title>Node14&#45;&gt;Node15</title>
<path fill="none" stroke="midnightblue" d="M512.037,-98C528.046,-98 545.359,-98 561.746,-98"/>
<polygon fill="midnightblue" stroke="midnightblue" points="511.727,-94.5001 501.727,-98 511.727,-101.5 511.727,-94.5001"/>
</g>
<!-- Node19 -->
<g id="node19" class="node"><title>Node19</title>
<g id="a_node19"><a xlink:href="../../d0/d68/classSimpleReadMySql.html#ace02cda93f92690611b99f9bb06a677c" target="_top" xlink:title="SimpleReadMySql::InitRun">
<polygon fill="none" stroke="black" points="382.5,-38.5 382.5,-57.5 513.5,-57.5 513.5,-38.5 382.5,-38.5"/>
<text text-anchor="middle" x="448" y="-45.5" font-family="FreeSans" font-size="10.00">SimpleReadMySql::InitRun</text>
</a>
</g>
</g>
<!-- Node18&#45;&gt;Node19 -->
<g id="edge22" class="edge"><title>Node18&#45;&gt;Node19</title>
<path fill="none" stroke="midnightblue" d="M343.812,-48C356.737,-48 369.88,-48 382.263,-48"/>
<polygon fill="midnightblue" stroke="midnightblue" points="343.513,-44.5001 333.513,-48 343.513,-51.5001 343.513,-44.5001"/>
</g>
<!-- Node21 -->
<g id="node21" class="node"><title>Node21</title>
<g id="a_node21"><a xlink:href="../../db/dda/classReadMySql.html#ab73b7895d9b3e258b58f31b66b93a827" target="_top" xlink:title="ReadMySql::InitRun">
<polygon fill="none" stroke="black" points="397.5,-0.5 397.5,-19.5 498.5,-19.5 498.5,-0.5 397.5,-0.5"/>
<text text-anchor="middle" x="448" y="-7.5" font-family="FreeSans" font-size="10.00">ReadMySql::InitRun</text>
</a>
</g>
</g>
<!-- Node20&#45;&gt;Node21 -->
<g id="edge24" class="edge"><title>Node20&#45;&gt;Node21</title>
<path fill="none" stroke="midnightblue" d="M328.605,-10C351.525,-10 376.451,-10 397.495,-10"/>
<polygon fill="midnightblue" stroke="midnightblue" points="328.581,-6.5001 318.581,-10 328.581,-13.5001 328.581,-6.5001"/>
</g>
</g>
</svg>
