<?xml version="1.0" encoding="UTF-8" standalone="no"?>
<!DOCTYPE svg PUBLIC "-//W3C//DTD SVG 1.1//EN"
 "http://www.w3.org/Graphics/SVG/1.1/DTD/svg11.dtd">
<!-- Generated by graphviz version 2.36.0 (20140111.2315)
 -->
<!-- Title: fun4all/fun4all/TDirectoryHelper.h Pages: 1 -->
<svg width="130pt" height="96pt"
 viewBox="0.00 0.00 130.00 96.00" xmlns="http://www.w3.org/2000/svg" xmlns:xlink="http://www.w3.org/1999/xlink">
<g id="graph0" class="graph" transform="scale(1 1) rotate(0) translate(4 92)">
<title>fun4all/fun4all/TDirectoryHelper.h</title>
<!-- Node1 -->
<g id="node1" class="node"><title>Node1</title>
<polygon fill="#bfbfbf" stroke="black" points="-1,-57 -1,-87 123,-87 123,-57 -1,-57"/>
<text text-anchor="start" x="7" y="-75" font-family="FreeSans" font-size="10.00">fun4all/fun4all/TDirectory</text>
<text text-anchor="middle" x="61" y="-64" font-family="FreeSans" font-size="10.00">Helper.h</text>
</g>
<!-- Node2 -->
<g id="node2" class="node"><title>Node2</title>
<polygon fill="none" stroke="#bfbfbf" points="10.5,-0.5 10.5,-19.5 51.5,-19.5 51.5,-0.5 10.5,-0.5"/>
<text text-anchor="middle" x="31" y="-7.5" font-family="FreeSans" font-size="10.00">string</text>
</g>
<!-- Node1&#45;&gt;Node2 -->
<g id="edge1" class="edge"><title>Node1&#45;&gt;Node2</title>
<path fill="none" stroke="midnightblue" d="M53.8904,-56.7808C49.7108,-48.4217 44.3887,-37.7773 39.9282,-28.8565"/>
<polygon fill="midnightblue" stroke="midnightblue" points="42.968,-27.1095 35.3653,-19.7305 36.707,-30.2401 42.968,-27.1095"/>
</g>
<!-- Node3 -->
<g id="node3" class="node"><title>Node3</title>
<polygon fill="none" stroke="#bfbfbf" points="70,-0.5 70,-19.5 114,-19.5 114,-0.5 70,-0.5"/>
<text text-anchor="middle" x="92" y="-7.5" font-family="FreeSans" font-size="10.00">vector</text>
</g>
<!-- Node1&#45;&gt;Node3 -->
<g id="edge2" class="edge"><title>Node1&#45;&gt;Node3</title>
<path fill="none" stroke="midnightblue" d="M68.3466,-56.7808C72.6655,-48.4217 78.1651,-37.7773 82.7742,-28.8565"/>
<polygon fill="midnightblue" stroke="midnightblue" points="86.0085,-30.2214 87.4892,-19.7305 79.7895,-27.0082 86.0085,-30.2214"/>
</g>
</g>
</svg>
