<?xml version="1.0" encoding="UTF-8" standalone="no"?>
<!DOCTYPE svg PUBLIC "-//W3C//DTD SVG 1.1//EN"
 "http://www.w3.org/Graphics/SVG/1.1/DTD/svg11.dtd">
<!-- Generated by graphviz version 2.36.0 (20140111.2315)
 -->
<!-- Title: fun4all/interfaces/SHitMap_v1.h Pages: 1 -->
<svg width="335pt" height="264pt"
 viewBox="0.00 0.00 335.11 264.00" xmlns="http://www.w3.org/2000/svg" xmlns:xlink="http://www.w3.org/1999/xlink">
<g id="graph0" class="graph" transform="scale(1 1) rotate(0) translate(4 260)">
<title>fun4all/interfaces/SHitMap_v1.h</title>
<!-- Node1 -->
<g id="node1" class="node"><title>Node1</title>
<polygon fill="#bfbfbf" stroke="black" points="193.5,-225 193.5,-255 284.5,-255 284.5,-225 193.5,-225"/>
<text text-anchor="start" x="201.5" y="-243" font-family="FreeSans" font-size="10.00">fun4all/interfaces</text>
<text text-anchor="middle" x="239" y="-232" font-family="FreeSans" font-size="10.00">/SHitMap_v1.h</text>
</g>
<!-- Node2 -->
<g id="node2" class="node"><title>Node2</title>
<g id="a_node2"><a xlink:href="../../d1/de9/SHitMap_8h.html" target="_top" xlink:title="SHitMap.h">
<polygon fill="none" stroke="black" points="208,-168.5 208,-187.5 270,-187.5 270,-168.5 208,-168.5"/>
<text text-anchor="middle" x="239" y="-175.5" font-family="FreeSans" font-size="10.00">SHitMap.h</text>
</a>
</g>
</g>
<!-- Node1&#45;&gt;Node2 -->
<g id="edge1" class="edge"><title>Node1&#45;&gt;Node2</title>
<path fill="none" stroke="midnightblue" d="M239,-224.781C239,-216.781 239,-206.689 239,-198.017"/>
<polygon fill="midnightblue" stroke="midnightblue" points="242.5,-197.73 239,-187.731 235.5,-197.731 242.5,-197.73"/>
</g>
<!-- Node3 -->
<g id="node3" class="node"><title>Node3</title>
<g id="a_node3"><a xlink:href="../../d2/d2c/SHit_8h.html" target="_top" xlink:title="SHit.h">
<polygon fill="none" stroke="black" points="158,-112.5 158,-131.5 202,-131.5 202,-112.5 158,-112.5"/>
<text text-anchor="middle" x="180" y="-119.5" font-family="FreeSans" font-size="10.00">SHit.h</text>
</a>
</g>
</g>
<!-- Node1&#45;&gt;Node3 -->
<g id="edge12" class="edge"><title>Node1&#45;&gt;Node3</title>
<path fill="none" stroke="midnightblue" d="M225.484,-224.86C216.847,-215.154 205.995,-201.611 199,-188 191.442,-173.295 186.455,-155.132 183.494,-141.747"/>
<polygon fill="midnightblue" stroke="midnightblue" points="186.895,-140.91 181.472,-131.808 180.036,-142.305 186.895,-140.91"/>
</g>
<!-- Node4 -->
<g id="node4" class="node"><title>Node4</title>
<g id="a_node4"><a xlink:href="../../df/d32/PHObject_8h.html" target="_top" xlink:title="phool/PHObject.h">
<polygon fill="none" stroke="black" points="-0.5,-56.5 -0.5,-75.5 92.5,-75.5 92.5,-56.5 -0.5,-56.5"/>
<text text-anchor="middle" x="46" y="-63.5" font-family="FreeSans" font-size="10.00">phool/PHObject.h</text>
</a>
</g>
</g>
<!-- Node1&#45;&gt;Node4 -->
<g id="edge13" class="edge"><title>Node1&#45;&gt;Node4</title>
<path fill="none" stroke="midnightblue" d="M221.76,-224.754C197.41,-204.518 151.707,-166.113 114,-132 95.7772,-115.514 75.4839,-95.952 61.8495,-82.6257"/>
<polygon fill="midnightblue" stroke="midnightblue" points="64.2469,-80.0746 54.6572,-75.5703 59.3449,-85.0717 64.2469,-80.0746"/>
</g>
<!-- Node6 -->
<g id="node6" class="node"><title>Node6</title>
<polygon fill="none" stroke="#bfbfbf" points="205,-0.5 205,-19.5 259,-19.5 259,-0.5 205,-0.5"/>
<text text-anchor="middle" x="232" y="-7.5" font-family="FreeSans" font-size="10.00">iostream</text>
</g>
<!-- Node1&#45;&gt;Node6 -->
<g id="edge15" class="edge"><title>Node1&#45;&gt;Node6</title>
<path fill="none" stroke="midnightblue" d="M260.157,-224.739C290.163,-202.572 339.783,-157.635 324,-112 311.076,-74.632 275.972,-43.1028 253.055,-25.6537"/>
<polygon fill="midnightblue" stroke="midnightblue" points="255.066,-22.7883 244.94,-19.6727 250.913,-28.4232 255.066,-22.7883"/>
</g>
<!-- Node9 -->
<g id="node9" class="node"><title>Node9</title>
<polygon fill="none" stroke="#bfbfbf" points="280.5,-112.5 280.5,-131.5 315.5,-131.5 315.5,-112.5 280.5,-112.5"/>
<text text-anchor="middle" x="298" y="-119.5" font-family="FreeSans" font-size="10.00">map</text>
</g>
<!-- Node1&#45;&gt;Node9 -->
<g id="edge14" class="edge"><title>Node1&#45;&gt;Node9</title>
<path fill="none" stroke="midnightblue" d="M252.098,-224.771C260.485,-215.027 271.058,-201.476 278,-188 285.603,-173.24 290.888,-155.082 294.108,-141.713"/>
<polygon fill="midnightblue" stroke="midnightblue" points="297.56,-142.313 296.332,-131.789 290.73,-140.782 297.56,-142.313"/>
</g>
<!-- Node2&#45;&gt;Node3 -->
<g id="edge2" class="edge"><title>Node2&#45;&gt;Node3</title>
<path fill="none" stroke="midnightblue" d="M229.521,-168.324C220.799,-160.341 207.657,-148.313 197.102,-138.653"/>
<polygon fill="midnightblue" stroke="midnightblue" points="199.392,-136.004 189.652,-131.834 194.666,-141.167 199.392,-136.004"/>
</g>
<!-- Node2&#45;&gt;Node4 -->
<g id="edge9" class="edge"><title>Node2&#45;&gt;Node4</title>
<path fill="none" stroke="midnightblue" d="M220.45,-168.389C202.055,-159.695 173.197,-145.64 149,-132 120.088,-115.702 87.909,-94.9545 67.3381,-81.3404"/>
<polygon fill="midnightblue" stroke="midnightblue" points="69.0208,-78.256 58.7568,-75.6288 65.1422,-84.0832 69.0208,-78.256"/>
</g>
<!-- Node2&#45;&gt;Node6 -->
<g id="edge11" class="edge"><title>Node2&#45;&gt;Node6</title>
<path fill="none" stroke="midnightblue" d="M243.782,-168.332C254.223,-148.241 277.115,-97.0728 264,-56 260.659,-45.538 253.9,-35.4277 247.451,-27.4496"/>
<polygon fill="midnightblue" stroke="midnightblue" points="249.944,-24.9815 240.751,-19.7136 244.652,-29.5641 249.944,-24.9815"/>
</g>
<!-- Node2&#45;&gt;Node9 -->
<g id="edge10" class="edge"><title>Node2&#45;&gt;Node9</title>
<path fill="none" stroke="midnightblue" d="M248.479,-168.324C257.201,-160.341 270.343,-148.313 280.898,-138.653"/>
<polygon fill="midnightblue" stroke="midnightblue" points="283.334,-141.167 288.348,-131.834 278.608,-136.004 283.334,-141.167"/>
</g>
<!-- Node3&#45;&gt;Node4 -->
<g id="edge3" class="edge"><title>Node3&#45;&gt;Node4</title>
<path fill="none" stroke="midnightblue" d="M158.767,-112.444C136.616,-103.517 101.681,-89.4387 76.564,-79.3168"/>
<polygon fill="midnightblue" stroke="midnightblue" points="77.7168,-76.0079 67.1334,-75.5164 75.1003,-82.5006 77.7168,-76.0079"/>
</g>
<!-- Node3&#45;&gt;Node6 -->
<g id="edge6" class="edge"><title>Node3&#45;&gt;Node6</title>
<path fill="none" stroke="midnightblue" d="M181.553,-112.233C184.045,-99.4021 189.632,-74.9762 199,-56 203.976,-45.9202 211.221,-35.7332 217.655,-27.6069"/>
<polygon fill="midnightblue" stroke="midnightblue" points="220.513,-29.6427 224.174,-19.7004 215.112,-25.1898 220.513,-29.6427"/>
</g>
<!-- Node7 -->
<g id="node7" class="node"><title>Node7</title>
<polygon fill="none" stroke="#bfbfbf" points="208.5,-56.5 208.5,-75.5 255.5,-75.5 255.5,-56.5 208.5,-56.5"/>
<text text-anchor="middle" x="232" y="-63.5" font-family="FreeSans" font-size="10.00">limits.h</text>
</g>
<!-- Node3&#45;&gt;Node7 -->
<g id="edge7" class="edge"><title>Node3&#45;&gt;Node7</title>
<path fill="none" stroke="midnightblue" d="M188.587,-112.083C196.159,-104.22 207.378,-92.5688 216.514,-83.0813"/>
<polygon fill="midnightblue" stroke="midnightblue" points="219.158,-85.3821 223.573,-75.7511 214.115,-80.5266 219.158,-85.3821"/>
</g>
<!-- Node8 -->
<g id="node8" class="node"><title>Node8</title>
<polygon fill="none" stroke="#bfbfbf" points="110.5,-56.5 110.5,-75.5 151.5,-75.5 151.5,-56.5 110.5,-56.5"/>
<text text-anchor="middle" x="131" y="-63.5" font-family="FreeSans" font-size="10.00">string</text>
</g>
<!-- Node3&#45;&gt;Node8 -->
<g id="edge8" class="edge"><title>Node3&#45;&gt;Node8</title>
<path fill="none" stroke="midnightblue" d="M171.909,-112.083C164.845,-104.298 154.412,-92.8015 145.851,-83.3665"/>
<polygon fill="midnightblue" stroke="midnightblue" points="148.253,-80.8047 138.941,-75.7511 143.069,-85.5087 148.253,-80.8047"/>
</g>
<!-- Node5 -->
<g id="node5" class="node"><title>Node5</title>
<polygon fill="none" stroke="#bfbfbf" points="16.5,-0.5 16.5,-19.5 75.5,-19.5 75.5,-0.5 16.5,-0.5"/>
<text text-anchor="middle" x="46" y="-7.5" font-family="FreeSans" font-size="10.00">TObject.h</text>
</g>
<!-- Node4&#45;&gt;Node5 -->
<g id="edge4" class="edge"><title>Node4&#45;&gt;Node5</title>
<path fill="none" stroke="midnightblue" d="M46,-56.083C46,-49.0059 46,-38.8611 46,-29.9865"/>
<polygon fill="midnightblue" stroke="midnightblue" points="49.5001,-29.751 46,-19.7511 42.5001,-29.7511 49.5001,-29.751"/>
</g>
<!-- Node4&#45;&gt;Node6 -->
<g id="edge5" class="edge"><title>Node4&#45;&gt;Node6</title>
<path fill="none" stroke="midnightblue" d="M75.4723,-56.4435C107.824,-47.0511 159.822,-31.9549 194.919,-21.7654"/>
<polygon fill="midnightblue" stroke="midnightblue" points="196.156,-25.0509 204.784,-18.9015 194.204,-18.3285 196.156,-25.0509"/>
</g>
</g>
</svg>
