<?xml version="1.0" encoding="UTF-8" standalone="no"?>
<!DOCTYPE svg PUBLIC "-//W3C//DTD SVG 1.1//EN"
 "http://www.w3.org/Graphics/SVG/1.1/DTD/svg11.dtd">
<!-- Generated by graphviz version 2.36.0 (20140111.2315)
 -->
<!-- Title: fun4all/ffaobjects/EventHeader.cc Pages: 1 -->
<svg width="199pt" height="208pt"
 viewBox="0.00 0.00 199.00 208.00" xmlns="http://www.w3.org/2000/svg" xmlns:xlink="http://www.w3.org/1999/xlink">
<g id="graph0" class="graph" transform="scale(1 1) rotate(0) translate(4 204)">
<title>fun4all/ffaobjects/EventHeader.cc</title>
<!-- Node1 -->
<g id="node1" class="node"><title>Node1</title>
<polygon fill="#bfbfbf" stroke="black" points="101,-169 101,-199 191,-199 191,-169 101,-169"/>
<text text-anchor="start" x="109" y="-187" font-family="FreeSans" font-size="10.00">fun4all/ffaobjects</text>
<text text-anchor="middle" x="146" y="-176" font-family="FreeSans" font-size="10.00">/EventHeader.cc</text>
</g>
<!-- Node2 -->
<g id="node2" class="node"><title>Node2</title>
<g id="a_node2"><a xlink:href="../../d5/d61/EventHeader_8h.html" target="_top" xlink:title="EventHeader.h">
<polygon fill="none" stroke="black" points="72,-112.5 72,-131.5 152,-131.5 152,-112.5 72,-112.5"/>
<text text-anchor="middle" x="112" y="-119.5" font-family="FreeSans" font-size="10.00">EventHeader.h</text>
</a>
</g>
</g>
<!-- Node1&#45;&gt;Node2 -->
<g id="edge1" class="edge"><title>Node1&#45;&gt;Node2</title>
<path fill="none" stroke="midnightblue" d="M137.942,-168.781C133.155,-160.332 127.044,-149.548 121.956,-140.569"/>
<polygon fill="midnightblue" stroke="midnightblue" points="124.923,-138.705 116.947,-131.731 118.832,-142.156 124.923,-138.705"/>
</g>
<!-- Node5 -->
<g id="node5" class="node"><title>Node5</title>
<polygon fill="none" stroke="#bfbfbf" points="123,-0.5 123,-19.5 177,-19.5 177,-0.5 123,-0.5"/>
<text text-anchor="middle" x="150" y="-7.5" font-family="FreeSans" font-size="10.00">iostream</text>
</g>
<!-- Node1&#45;&gt;Node5 -->
<g id="edge6" class="edge"><title>Node1&#45;&gt;Node5</title>
<path fill="none" stroke="midnightblue" d="M151.314,-168.953C154.845,-158.843 159.158,-144.789 161,-132 162.706,-120.152 163.286,-83.6565 160,-56 158.948,-47.1488 156.919,-37.4818 154.962,-29.3841"/>
<polygon fill="midnightblue" stroke="midnightblue" points="158.311,-28.3551 152.436,-19.5386 151.531,-30.0946 158.311,-28.3551"/>
</g>
<!-- Node3 -->
<g id="node3" class="node"><title>Node3</title>
<g id="a_node3"><a xlink:href="../../df/d32/PHObject_8h.html" target="_top" xlink:title="phool/PHObject.h">
<polygon fill="none" stroke="black" points="-0.5,-56.5 -0.5,-75.5 92.5,-75.5 92.5,-56.5 -0.5,-56.5"/>
<text text-anchor="middle" x="46" y="-63.5" font-family="FreeSans" font-size="10.00">phool/PHObject.h</text>
</a>
</g>
</g>
<!-- Node2&#45;&gt;Node3 -->
<g id="edge2" class="edge"><title>Node2&#45;&gt;Node3</title>
<path fill="none" stroke="midnightblue" d="M101.396,-112.324C91.5438,-104.263 76.6491,-92.0765 64.7849,-82.3695"/>
<polygon fill="midnightblue" stroke="midnightblue" points="66.7529,-79.4575 56.797,-75.8339 62.3202,-84.8752 66.7529,-79.4575"/>
</g>
<!-- Node6 -->
<g id="node6" class="node"><title>Node6</title>
<polygon fill="none" stroke="#bfbfbf" points="110.5,-56.5 110.5,-75.5 151.5,-75.5 151.5,-56.5 110.5,-56.5"/>
<text text-anchor="middle" x="131" y="-63.5" font-family="FreeSans" font-size="10.00">ctime</text>
</g>
<!-- Node2&#45;&gt;Node6 -->
<g id="edge5" class="edge"><title>Node2&#45;&gt;Node6</title>
<path fill="none" stroke="midnightblue" d="M115.137,-112.083C117.683,-104.849 121.356,-94.4087 124.527,-85.3968"/>
<polygon fill="midnightblue" stroke="midnightblue" points="127.903,-86.3459 127.921,-75.7511 121.3,-84.0225 127.903,-86.3459"/>
</g>
<!-- Node4 -->
<g id="node4" class="node"><title>Node4</title>
<polygon fill="none" stroke="#bfbfbf" points="16.5,-0.5 16.5,-19.5 75.5,-19.5 75.5,-0.5 16.5,-0.5"/>
<text text-anchor="middle" x="46" y="-7.5" font-family="FreeSans" font-size="10.00">TObject.h</text>
</g>
<!-- Node3&#45;&gt;Node4 -->
<g id="edge3" class="edge"><title>Node3&#45;&gt;Node4</title>
<path fill="none" stroke="midnightblue" d="M46,-56.083C46,-49.0059 46,-38.8611 46,-29.9865"/>
<polygon fill="midnightblue" stroke="midnightblue" points="49.5001,-29.751 46,-19.7511 42.5001,-29.7511 49.5001,-29.751"/>
</g>
<!-- Node3&#45;&gt;Node5 -->
<g id="edge4" class="edge"><title>Node3&#45;&gt;Node5</title>
<path fill="none" stroke="midnightblue" d="M62.7094,-56.324C79.3119,-47.7034 105.002,-34.3643 124.22,-24.3855"/>
<polygon fill="midnightblue" stroke="midnightblue" points="126.07,-27.3689 133.332,-19.6545 122.844,-21.1565 126.07,-27.3689"/>
</g>
</g>
</svg>
