<?xml version="1.0" encoding="UTF-8" standalone="no"?>
<!DOCTYPE svg PUBLIC "-//W3C//DTD SVG 1.1//EN"
 "http://www.w3.org/Graphics/SVG/1.1/DTD/svg11.dtd">
<!-- Generated by graphviz version 2.36.0 (20140111.2315)
 -->
<!-- Title: fun4all/phool/PHPointerListIterator.h Pages: 1 -->
<svg width="221pt" height="264pt"
 viewBox="0.00 0.00 221.00 264.00" xmlns="http://www.w3.org/2000/svg" xmlns:xlink="http://www.w3.org/1999/xlink">
<g id="graph0" class="graph" transform="scale(1 1) rotate(0) translate(4 260)">
<title>fun4all/phool/PHPointerListIterator.h</title>
<!-- Node1 -->
<g id="node1" class="node"><title>Node1</title>
<polygon fill="#bfbfbf" stroke="black" points="0,-225 0,-255 136,-255 136,-225 0,-225"/>
<text text-anchor="start" x="8" y="-243" font-family="FreeSans" font-size="10.00">fun4all/phool/PHPointerList</text>
<text text-anchor="middle" x="68" y="-232" font-family="FreeSans" font-size="10.00">Iterator.h</text>
</g>
<!-- Node2 -->
<g id="node2" class="node"><title>Node2</title>
<g id="a_node2"><a xlink:href="../../db/dd5/PHPointerList_8h.html" target="_top" xlink:title="PHPointerList.h">
<polygon fill="none" stroke="black" points="25,-168.5 25,-187.5 111,-187.5 111,-168.5 25,-168.5"/>
<text text-anchor="middle" x="68" y="-175.5" font-family="FreeSans" font-size="10.00">PHPointerList.h</text>
</a>
</g>
</g>
<!-- Node1&#45;&gt;Node2 -->
<g id="edge1" class="edge"><title>Node1&#45;&gt;Node2</title>
<path fill="none" stroke="midnightblue" d="M68,-224.781C68,-216.781 68,-206.689 68,-198.017"/>
<polygon fill="midnightblue" stroke="midnightblue" points="71.5001,-197.73 68,-187.731 64.5001,-197.731 71.5001,-197.73"/>
</g>
<!-- Node3 -->
<g id="node3" class="node"><title>Node3</title>
<g id="a_node3"><a xlink:href="../../d5/d6f/phool_8h.html" target="_top" xlink:title="phool.h">
<polygon fill="none" stroke="black" points="44.5,-56.5 44.5,-75.5 91.5,-75.5 91.5,-56.5 44.5,-56.5"/>
<text text-anchor="middle" x="68" y="-63.5" font-family="FreeSans" font-size="10.00">phool.h</text>
</a>
</g>
</g>
<!-- Node2&#45;&gt;Node3 -->
<g id="edge2" class="edge"><title>Node2&#45;&gt;Node3</title>
<path fill="none" stroke="midnightblue" d="M68,-168.368C68,-150.617 68,-109.666 68,-85.5974"/>
<polygon fill="midnightblue" stroke="midnightblue" points="71.5001,-85.5914 68,-75.5914 64.5001,-85.5915 71.5001,-85.5914"/>
</g>
<!-- Node4 -->
<g id="node4" class="node"><title>Node4</title>
<polygon fill="none" stroke="#bfbfbf" points="15,-0.5 15,-19.5 69,-19.5 69,-0.5 15,-0.5"/>
<text text-anchor="middle" x="42" y="-7.5" font-family="FreeSans" font-size="10.00">iostream</text>
</g>
<!-- Node2&#45;&gt;Node4 -->
<g id="edge8" class="edge"><title>Node2&#45;&gt;Node4</title>
<path fill="none" stroke="midnightblue" d="M64.1209,-168.316C56.677,-151.121 40.6273,-111.342 35,-76 33.6023,-67.2217 34.3148,-64.8624 35,-56 35.6788,-47.2204 37.0919,-37.5626 38.4719,-29.4526"/>
<polygon fill="midnightblue" stroke="midnightblue" points="41.9215,-30.0446 40.2611,-19.5806 35.0337,-28.7961 41.9215,-30.0446"/>
</g>
<!-- Node5 -->
<g id="node5" class="node"><title>Node5</title>
<g id="a_node5"><a xlink:href="../../d3/d62/PHNode_8h.html" target="_top" xlink:title="PHNode.h">
<polygon fill="none" stroke="black" points="98,-112.5 98,-131.5 160,-131.5 160,-112.5 98,-112.5"/>
<text text-anchor="middle" x="129" y="-119.5" font-family="FreeSans" font-size="10.00">PHNode.h</text>
</a>
</g>
</g>
<!-- Node2&#45;&gt;Node5 -->
<g id="edge4" class="edge"><title>Node2&#45;&gt;Node5</title>
<path fill="none" stroke="midnightblue" d="M77.8007,-168.324C86.8181,-160.341 100.406,-148.313 111.318,-138.653"/>
<polygon fill="midnightblue" stroke="midnightblue" points="113.853,-141.083 119.021,-131.834 109.213,-135.842 113.853,-141.083"/>
</g>
<!-- Node3&#45;&gt;Node4 -->
<g id="edge3" class="edge"><title>Node3&#45;&gt;Node4</title>
<path fill="none" stroke="midnightblue" d="M63.7066,-56.083C60.1477,-48.6913 54.9775,-37.9533 50.5757,-28.8111"/>
<polygon fill="midnightblue" stroke="midnightblue" points="53.7052,-27.2427 46.2135,-19.7511 47.3982,-30.2795 53.7052,-27.2427"/>
</g>
<!-- Node5&#45;&gt;Node3 -->
<g id="edge5" class="edge"><title>Node5&#45;&gt;Node3</title>
<path fill="none" stroke="midnightblue" d="M119.199,-112.324C110.182,-104.341 96.594,-92.3128 85.682,-82.6529"/>
<polygon fill="midnightblue" stroke="midnightblue" points="87.7866,-79.8416 77.979,-75.8339 83.1467,-85.083 87.7866,-79.8416"/>
</g>
<!-- Node6 -->
<g id="node6" class="node"><title>Node6</title>
<polygon fill="none" stroke="#bfbfbf" points="109.5,-56.5 109.5,-75.5 154.5,-75.5 154.5,-56.5 109.5,-56.5"/>
<text text-anchor="middle" x="132" y="-63.5" font-family="FreeSans" font-size="10.00">iosfwd</text>
</g>
<!-- Node5&#45;&gt;Node6 -->
<g id="edge6" class="edge"><title>Node5&#45;&gt;Node6</title>
<path fill="none" stroke="midnightblue" d="M129.495,-112.083C129.889,-105.006 130.452,-94.8611 130.945,-85.9865"/>
<polygon fill="midnightblue" stroke="midnightblue" points="134.454,-85.9299 131.514,-75.7511 127.464,-85.5415 134.454,-85.9299"/>
</g>
<!-- Node7 -->
<g id="node7" class="node"><title>Node7</title>
<polygon fill="none" stroke="#bfbfbf" points="172.5,-56.5 172.5,-75.5 213.5,-75.5 213.5,-56.5 172.5,-56.5"/>
<text text-anchor="middle" x="193" y="-63.5" font-family="FreeSans" font-size="10.00">string</text>
</g>
<!-- Node5&#45;&gt;Node7 -->
<g id="edge7" class="edge"><title>Node5&#45;&gt;Node7</title>
<path fill="none" stroke="midnightblue" d="M139.283,-112.324C148.836,-104.263 163.28,-92.0765 174.784,-82.3695"/>
<polygon fill="midnightblue" stroke="midnightblue" points="177.144,-84.9577 182.53,-75.8339 172.63,-79.6076 177.144,-84.9577"/>
</g>
</g>
</svg>
