<?xml version="1.0" encoding="UTF-8" standalone="no"?>
<!DOCTYPE svg PUBLIC "-//W3C//DTD SVG 1.1//EN"
 "http://www.w3.org/Graphics/SVG/1.1/DTD/svg11.dtd">
<!-- Generated by graphviz version 2.36.0 (20140111.2315)
 -->
<!-- Title: fun4all/phool/phooldefs.h Pages: 1 -->
<svg width="1238pt" height="232pt"
 viewBox="0.00 0.00 1238.00 232.00" xmlns="http://www.w3.org/2000/svg" xmlns:xlink="http://www.w3.org/1999/xlink">
<g id="graph0" class="graph" transform="scale(1 1) rotate(0) translate(4 228)">
<title>fun4all/phool/phooldefs.h</title>
<!-- Node1 -->
<g id="node1" class="node"><title>Node1</title>
<polygon fill="#bfbfbf" stroke="black" points="879,-204.5 879,-223.5 1003,-223.5 1003,-204.5 879,-204.5"/>
<text text-anchor="middle" x="941" y="-211.5" font-family="FreeSans" font-size="10.00">fun4all/phool/phooldefs.h</text>
</g>
<!-- Node2 -->
<g id="node2" class="node"><title>Node2</title>
<g id="a_node2"><a xlink:href="../../d3/d79/PHIODataNode_8h.html" target="_top" xlink:title="fun4all/phool/PHIODataNode.h">
<polygon fill="none" stroke="black" points="639,-142.5 639,-161.5 789,-161.5 789,-142.5 639,-142.5"/>
<text text-anchor="middle" x="714" y="-149.5" font-family="FreeSans" font-size="10.00">fun4all/phool/PHIODataNode.h</text>
</a>
</g>
</g>
<!-- Node1&#45;&gt;Node2 -->
<g id="edge1" class="edge"><title>Node1&#45;&gt;Node2</title>
<path fill="none" stroke="midnightblue" d="M898.635,-201.802C854.548,-190.149 786.469,-172.155 746.463,-161.581"/>
<polygon fill="midnightblue" stroke="midnightblue" points="897.914,-205.232 908.476,-204.403 899.703,-198.464 897.914,-205.232"/>
</g>
<!-- Node12 -->
<g id="node12" class="node"><title>Node12</title>
<g id="a_node12"><a xlink:href="../../d7/d32/PHNodeIOManager_8cc.html" target="_top" xlink:title="fun4all/phool/PHNodeIOManager.cc">
<polygon fill="none" stroke="black" points="883.5,-74.5 883.5,-93.5 1056.5,-93.5 1056.5,-74.5 883.5,-74.5"/>
<text text-anchor="middle" x="970" y="-81.5" font-family="FreeSans" font-size="10.00">fun4all/phool/PHNodeIOManager.cc</text>
</a>
</g>
</g>
<!-- Node1&#45;&gt;Node12 -->
<g id="edge17" class="edge"><title>Node1&#45;&gt;Node12</title>
<path fill="none" stroke="midnightblue" d="M926.865,-196.069C915.51,-180.296 902.847,-156.237 912,-136 920.62,-116.941 940.272,-102.172 954.31,-93.542"/>
<polygon fill="midnightblue" stroke="midnightblue" points="924.344,-198.53 933.225,-204.307 929.884,-194.253 924.344,-198.53"/>
</g>
<!-- Node14 -->
<g id="node14" class="node"><title>Node14</title>
<g id="a_node14"><a xlink:href="../../df/d01/PHCompositeNode_8cc.html" target="_top" xlink:title="fun4all/phool/PHComposite\lNode.cc">
<polygon fill="none" stroke="black" points="921.5,-137 921.5,-167 1056.5,-167 1056.5,-137 921.5,-137"/>
<text text-anchor="start" x="929.5" y="-155" font-family="FreeSans" font-size="10.00">fun4all/phool/PHComposite</text>
<text text-anchor="middle" x="989" y="-144" font-family="FreeSans" font-size="10.00">Node.cc</text>
</a>
</g>
</g>
<!-- Node1&#45;&gt;Node14 -->
<g id="edge16" class="edge"><title>Node1&#45;&gt;Node14</title>
<path fill="none" stroke="midnightblue" d="M954.287,-196.391C961.638,-187.202 970.676,-175.905 977.687,-167.141"/>
<polygon fill="midnightblue" stroke="midnightblue" points="951.391,-194.408 947.877,-204.403 956.857,-198.781 951.391,-194.408"/>
</g>
<!-- Node15 -->
<g id="node15" class="node"><title>Node15</title>
<g id="a_node15"><a xlink:href="../../d0/d41/PHNodeIterator_8cc.html" target="_top" xlink:title="fun4all/phool/PHNodeIterator.cc">
<polygon fill="none" stroke="black" points="1074.5,-142.5 1074.5,-161.5 1229.5,-161.5 1229.5,-142.5 1074.5,-142.5"/>
<text text-anchor="middle" x="1152" y="-149.5" font-family="FreeSans" font-size="10.00">fun4all/phool/PHNodeIterator.cc</text>
</a>
</g>
</g>
<!-- Node1&#45;&gt;Node15 -->
<g id="edge18" class="edge"><title>Node1&#45;&gt;Node15</title>
<path fill="none" stroke="midnightblue" d="M980.898,-201.655C1021.89,-189.998 1084.8,-172.11 1121.82,-161.581"/>
<polygon fill="midnightblue" stroke="midnightblue" points="979.892,-198.302 971.231,-204.403 981.807,-205.035 979.892,-198.302"/>
</g>
<!-- Node3 -->
<g id="node3" class="node"><title>Node3</title>
<g id="a_node3"><a xlink:href="../../d3/d53/Fun4AllDstInputManager_8cc.html" target="_top" xlink:title="fun4all/fun4all/Fun4AllDst\lInputManager.cc">
<polygon fill="none" stroke="black" points="636,-1 636,-31 764,-31 764,-1 636,-1"/>
<text text-anchor="start" x="644" y="-19" font-family="FreeSans" font-size="10.00">fun4all/fun4all/Fun4AllDst</text>
<text text-anchor="middle" x="700" y="-8" font-family="FreeSans" font-size="10.00">InputManager.cc</text>
</a>
</g>
</g>
<!-- Node2&#45;&gt;Node3 -->
<g id="edge2" class="edge"><title>Node2&#45;&gt;Node3</title>
<path fill="none" stroke="midnightblue" d="M750.353,-138.411C767.765,-130.334 786.97,-117.935 797,-100 803.942,-87.587 804.353,-80.1738 797,-68 786.474,-50.5742 767.802,-38.8057 749.632,-31.0096"/>
<polygon fill="midnightblue" stroke="midnightblue" points="748.737,-135.296 740.933,-142.462 751.503,-141.727 748.737,-135.296"/>
</g>
<!-- Node4 -->
<g id="node4" class="node"><title>Node4</title>
<g id="a_node4"><a xlink:href="../../df/d03/Fun4AllSyncManager_8cc.html" target="_top" xlink:title="fun4all/fun4all/Fun4AllSync\lManager.cc">
<polygon fill="none" stroke="black" points="337,-69 337,-99 471,-99 471,-69 337,-69"/>
<text text-anchor="start" x="345" y="-87" font-family="FreeSans" font-size="10.00">fun4all/fun4all/Fun4AllSync</text>
<text text-anchor="middle" x="404" y="-76" font-family="FreeSans" font-size="10.00">Manager.cc</text>
</a>
</g>
</g>
<!-- Node2&#45;&gt;Node4 -->
<g id="edge3" class="edge"><title>Node2&#45;&gt;Node4</title>
<path fill="none" stroke="midnightblue" d="M663.991,-140.353C611.258,-129.126 527.931,-111.385 469.874,-99.0247"/>
<polygon fill="midnightblue" stroke="midnightblue" points="663.281,-143.78 673.791,-142.439 664.739,-136.934 663.281,-143.78"/>
</g>
<!-- Node5 -->
<g id="node5" class="node"><title>Node5</title>
<g id="a_node5"><a xlink:href="../../dd/d12/ReadMySql_8C.html" target="_top" xlink:title="fun4all/modules/ReadMySql.C">
<polygon fill="none" stroke="black" points="782,-6.5 782,-25.5 928,-25.5 928,-6.5 782,-6.5"/>
<text text-anchor="middle" x="855" y="-13.5" font-family="FreeSans" font-size="10.00">fun4all/modules/ReadMySql.C</text>
</a>
</g>
</g>
<!-- Node2&#45;&gt;Node5 -->
<g id="edge4" class="edge"><title>Node2&#45;&gt;Node5</title>
<path fill="none" stroke="midnightblue" d="M750.969,-138.768C771.566,-130.455 796.506,-117.719 814,-100 835.68,-78.0408 847.902,-42.3329 852.659,-25.8514"/>
<polygon fill="midnightblue" stroke="midnightblue" points="749.634,-135.531 741.557,-142.387 752.147,-142.065 749.634,-135.531"/>
</g>
<!-- Node6 -->
<g id="node6" class="node"><title>Node6</title>
<g id="a_node6"><a xlink:href="../../dd/d2f/SimpleReadMySql_8C.html" target="_top" xlink:title="fun4all/modules/SimpleRead\lMySql.C">
<polygon fill="none" stroke="black" points="0,-1 0,-31 140,-31 140,-1 0,-1"/>
<text text-anchor="start" x="8" y="-19" font-family="FreeSans" font-size="10.00">fun4all/modules/SimpleRead</text>
<text text-anchor="middle" x="70" y="-8" font-family="FreeSans" font-size="10.00">MySql.C</text>
</a>
</g>
</g>
<!-- Node2&#45;&gt;Node6 -->
<g id="edge5" class="edge"><title>Node2&#45;&gt;Node6</title>
<path fill="none" stroke="midnightblue" d="M628.705,-147.9C501.418,-142.397 268.341,-128.692 190,-100 147.661,-84.4937 106.184,-50.4237 84.8402,-31.1018"/>
<polygon fill="midnightblue" stroke="midnightblue" points="628.669,-151.402 638.808,-148.329 628.966,-144.408 628.669,-151.402"/>
</g>
<!-- Node7 -->
<g id="node7" class="node"><title>Node7</title>
<g id="a_node7"><a xlink:href="../../dd/dd4/getClass_8h.html" target="_top" xlink:title="fun4all/phool/getClass.h">
<polygon fill="none" stroke="black" points="199,-74.5 199,-93.5 319,-93.5 319,-74.5 199,-74.5"/>
<text text-anchor="middle" x="259" y="-81.5" font-family="FreeSans" font-size="10.00">fun4all/phool/getClass.h</text>
</a>
</g>
</g>
<!-- Node2&#45;&gt;Node7 -->
<g id="edge6" class="edge"><title>Node2&#45;&gt;Node7</title>
<path fill="none" stroke="midnightblue" d="M628.326,-141.739C549.9,-132.773 430.763,-117.927 328,-100 317.373,-98.1461 305.898,-95.7942 295.415,-93.5059"/>
<polygon fill="midnightblue" stroke="midnightblue" points="628.307,-145.259 638.638,-142.911 629.098,-138.304 628.307,-145.259"/>
</g>
<!-- Node11 -->
<g id="node11" class="node"><title>Node11</title>
<g id="a_node11"><a xlink:href="../../d7/d95/PHDataNodeIterator_8h.html" target="_top" xlink:title="fun4all/phool/PHDataNode\lIterator.h">
<polygon fill="none" stroke="black" points="489,-69 489,-99 621,-99 621,-69 489,-69"/>
<text text-anchor="start" x="497" y="-87" font-family="FreeSans" font-size="10.00">fun4all/phool/PHDataNode</text>
<text text-anchor="middle" x="555" y="-76" font-family="FreeSans" font-size="10.00">Iterator.h</text>
</a>
</g>
</g>
<!-- Node2&#45;&gt;Node11 -->
<g id="edge13" class="edge"><title>Node2&#45;&gt;Node11</title>
<path fill="none" stroke="midnightblue" d="M683.851,-138.485C656.765,-127.242 617.033,-110.75 588.863,-99.0562"/>
<polygon fill="midnightblue" stroke="midnightblue" points="682.636,-141.77 693.214,-142.372 685.319,-135.305 682.636,-141.77"/>
</g>
<!-- Node2&#45;&gt;Node12 -->
<g id="edge14" class="edge"><title>Node2&#45;&gt;Node12</title>
<path fill="none" stroke="midnightblue" d="M756.889,-139.943C807.582,-126.873 890.845,-105.407 936.854,-93.5455"/>
<polygon fill="midnightblue" stroke="midnightblue" points="756.015,-136.554 747.205,-142.439 757.762,-143.332 756.015,-136.554"/>
</g>
<!-- Node13 -->
<g id="node13" class="node"><title>Node13</title>
<g id="a_node13"><a xlink:href="../../dc/d01/PHNodeReset_8cc.html" target="_top" xlink:title="fun4all/phool/PHNodeReset.cc">
<polygon fill="none" stroke="black" points="639,-74.5 639,-93.5 789,-93.5 789,-74.5 639,-74.5"/>
<text text-anchor="middle" x="714" y="-81.5" font-family="FreeSans" font-size="10.00">fun4all/phool/PHNodeReset.cc</text>
</a>
</g>
</g>
<!-- Node2&#45;&gt;Node13 -->
<g id="edge15" class="edge"><title>Node2&#45;&gt;Node13</title>
<path fill="none" stroke="midnightblue" d="M714,-132.041C714,-119.472 714,-103.563 714,-93.8411"/>
<polygon fill="midnightblue" stroke="midnightblue" points="710.5,-132.372 714,-142.372 717.5,-132.372 710.5,-132.372"/>
</g>
<!-- Node7&#45;&gt;Node3 -->
<g id="edge7" class="edge"><title>Node7&#45;&gt;Node3</title>
<path fill="none" stroke="midnightblue" d="M304.95,-72.3827C312.624,-70.7905 320.52,-69.2621 328,-68 459.548,-45.8057 494.299,-53.2684 626,-32 629.235,-31.4775 632.544,-30.9141 635.882,-30.3226"/>
<polygon fill="midnightblue" stroke="midnightblue" points="304.095,-68.9864 295.045,-74.4956 305.555,-75.8324 304.095,-68.9864"/>
</g>
<!-- Node7&#45;&gt;Node5 -->
<g id="edge11" class="edge"><title>Node7&#45;&gt;Node5</title>
<path fill="none" stroke="midnightblue" d="M303.867,-72.3404C311.87,-70.6984 320.156,-69.1646 328,-68 524.272,-38.8597 576.272,-57.8848 773,-32 786.057,-30.282 800.193,-27.89 812.991,-25.5203"/>
<polygon fill="midnightblue" stroke="midnightblue" points="302.986,-68.9497 293.936,-74.4586 304.446,-75.7957 302.986,-68.9497"/>
</g>
<!-- Node7&#45;&gt;Node6 -->
<g id="edge12" class="edge"><title>Node7&#45;&gt;Node6</title>
<path fill="none" stroke="midnightblue" d="M224.843,-71.0723C192.627,-59.8221 144.325,-42.9549 110.252,-31.0562"/>
<polygon fill="midnightblue" stroke="midnightblue" points="223.697,-74.3791 234.292,-74.3717 226.005,-67.7704 223.697,-74.3791"/>
</g>
<!-- Node8 -->
<g id="node8" class="node"><title>Node8</title>
<g id="a_node8"><a xlink:href="../../d6/dbe/Fun4AllEventOutputManager_8cc.html" target="_top" xlink:title="fun4all/fun4all/Fun4AllEvent\lOutputManager.cc">
<polygon fill="none" stroke="black" points="480.5,-1 480.5,-31 617.5,-31 617.5,-1 480.5,-1"/>
<text text-anchor="start" x="488.5" y="-19" font-family="FreeSans" font-size="10.00">fun4all/fun4all/Fun4AllEvent</text>
<text text-anchor="middle" x="549" y="-8" font-family="FreeSans" font-size="10.00">OutputManager.cc</text>
</a>
</g>
</g>
<!-- Node7&#45;&gt;Node8 -->
<g id="edge8" class="edge"><title>Node7&#45;&gt;Node8</title>
<path fill="none" stroke="midnightblue" d="M306.399,-72.2126C355.761,-60.9785 433.29,-43.334 487.376,-31.0247"/>
<polygon fill="midnightblue" stroke="midnightblue" points="305.589,-68.8074 296.615,-74.4393 307.143,-75.6329 305.589,-68.8074"/>
</g>
<!-- Node9 -->
<g id="node9" class="node"><title>Node9</title>
<g id="a_node9"><a xlink:href="../../da/d7b/Fun4AllPrdfInputManager_8cc.html" target="_top" xlink:title="fun4all/fun4all/Fun4AllPrdf\lInputManager.cc">
<polygon fill="none" stroke="black" points="158.5,-1 158.5,-31 289.5,-31 289.5,-1 158.5,-1"/>
<text text-anchor="start" x="166.5" y="-19" font-family="FreeSans" font-size="10.00">fun4all/fun4all/Fun4AllPrdf</text>
<text text-anchor="middle" x="224" y="-8" font-family="FreeSans" font-size="10.00">InputManager.cc</text>
</a>
</g>
</g>
<!-- Node7&#45;&gt;Node9 -->
<g id="edge9" class="edge"><title>Node7&#45;&gt;Node9</title>
<path fill="none" stroke="midnightblue" d="M249.72,-65.5003C244.034,-54.7781 236.85,-41.2311 231.52,-31.1815"/>
<polygon fill="midnightblue" stroke="midnightblue" points="246.647,-67.1768 254.424,-74.3717 252.831,-63.8972 246.647,-67.1768"/>
</g>
<!-- Node10 -->
<g id="node10" class="node"><title>Node10</title>
<g id="a_node10"><a xlink:href="../../d8/d7a/Fun4AllServer_8cc.html" target="_top" xlink:title="fun4all/fun4all/Fun4AllServer.cc">
<polygon fill="none" stroke="black" points="308,-6.5 308,-25.5 462,-25.5 462,-6.5 308,-6.5"/>
<text text-anchor="middle" x="385" y="-13.5" font-family="FreeSans" font-size="10.00">fun4all/fun4all/Fun4AllServer.cc</text>
</a>
</g>
</g>
<!-- Node7&#45;&gt;Node10 -->
<g id="edge10" class="edge"><title>Node7&#45;&gt;Node10</title>
<path fill="none" stroke="midnightblue" d="M284.412,-69.6889C309.495,-56.5502 347.109,-36.8475 368.524,-25.6305"/>
<polygon fill="midnightblue" stroke="midnightblue" points="282.707,-66.6311 275.472,-74.3717 285.955,-72.8319 282.707,-66.6311"/>
</g>
</g>
</svg>
