<?xml version="1.0" encoding="UTF-8" standalone="no"?>
<!DOCTYPE svg PUBLIC "-//W3C//DTD SVG 1.1//EN"
 "http://www.w3.org/Graphics/SVG/1.1/DTD/svg11.dtd">
<!-- Generated by graphviz version 2.36.0 (20140111.2315)
 -->
<!-- Title: Fun4AllDstOutputManager::Fun4AllDstOutputManager Pages: 1 -->
<svg width="360pt" height="77pt"
 viewBox="0.00 0.00 360.00 77.00" xmlns="http://www.w3.org/2000/svg" xmlns:xlink="http://www.w3.org/1999/xlink">
<g id="graph0" class="graph" transform="scale(1 1) rotate(0) translate(4 73)">
<title>Fun4AllDstOutputManager::Fun4AllDstOutputManager</title>
<!-- Node1 -->
<g id="node1" class="node"><title>Node1</title>
<polygon fill="#bfbfbf" stroke="black" points="0,-22 0,-52 136,-52 136,-22 0,-22"/>
<text text-anchor="start" x="8" y="-40" font-family="FreeSans" font-size="10.00">Fun4AllDstOutputManager</text>
<text text-anchor="middle" x="68" y="-29" font-family="FreeSans" font-size="10.00">::Fun4AllDstOutputManager</text>
</g>
<!-- Node2 -->
<g id="node2" class="node"><title>Node2</title>
<g id="a_node2"><a xlink:href="../../d7/d4d/classPHNodeIOManager.html#a7fcd787c0049e4476b2534299b801b47" target="_top" xlink:title="PHNodeIOManager::isFunctional">
<polygon fill="none" stroke="black" points="182.5,-49.5 182.5,-68.5 341.5,-68.5 341.5,-49.5 182.5,-49.5"/>
<text text-anchor="middle" x="262" y="-56.5" font-family="FreeSans" font-size="10.00">PHNodeIOManager::isFunctional</text>
</a>
</g>
</g>
<!-- Node1&#45;&gt;Node2 -->
<g id="edge1" class="edge"><title>Node1&#45;&gt;Node2</title>
<path fill="none" stroke="midnightblue" d="M136.152,-44.6945C147.811,-46.0304 160.096,-47.438 172.225,-48.8279"/>
<polygon fill="midnightblue" stroke="midnightblue" points="172.027,-52.328 182.361,-49.9893 172.824,-45.3736 172.027,-52.328"/>
</g>
<!-- Node3 -->
<g id="node3" class="node"><title>Node3</title>
<g id="a_node3"><a xlink:href="../../d7/d4d/classPHNodeIOManager.html#a3a09bb7a12ddd71a5cfb06bcbd679540" target="_top" xlink:title="PHNodeIOManager::SetCompression\lLevel">
<polygon fill="none" stroke="black" points="172.5,-0 172.5,-30 351.5,-30 351.5,-0 172.5,-0"/>
<text text-anchor="start" x="180.5" y="-18" font-family="FreeSans" font-size="10.00">PHNodeIOManager::SetCompression</text>
<text text-anchor="middle" x="262" y="-7" font-family="FreeSans" font-size="10.00">Level</text>
</a>
</g>
</g>
<!-- Node1&#45;&gt;Node3 -->
<g id="edge2" class="edge"><title>Node1&#45;&gt;Node3</title>
<path fill="none" stroke="midnightblue" d="M136.152,-29.3055C144.638,-28.3332 153.455,-27.3229 162.302,-26.3091"/>
<polygon fill="midnightblue" stroke="midnightblue" points="162.752,-29.7806 172.289,-25.1648 161.955,-22.8261 162.752,-29.7806"/>
</g>
</g>
</svg>
