<?xml version="1.0" encoding="UTF-8" standalone="no"?>
<!DOCTYPE svg PUBLIC "-//W3C//DTD SVG 1.1//EN"
 "http://www.w3.org/Graphics/SVG/1.1/DTD/svg11.dtd">
<!-- Generated by graphviz version 2.36.0 (20140111.2315)
 -->
<!-- Title: Fun4AllDstOutputManager::outfileopen Pages: 1 -->
<svg width="356pt" height="77pt"
 viewBox="0.00 0.00 356.00 77.00" xmlns="http://www.w3.org/2000/svg" xmlns:xlink="http://www.w3.org/1999/xlink">
<g id="graph0" class="graph" transform="scale(1 1) rotate(0) translate(4 73)">
<title>Fun4AllDstOutputManager::outfileopen</title>
<!-- Node1 -->
<g id="node1" class="node"><title>Node1</title>
<polygon fill="#bfbfbf" stroke="black" points="0.5,-22 0.5,-52 131.5,-52 131.5,-22 0.5,-22"/>
<text text-anchor="start" x="8.5" y="-40" font-family="FreeSans" font-size="10.00">Fun4AllDstOutputManager</text>
<text text-anchor="middle" x="66" y="-29" font-family="FreeSans" font-size="10.00">::outfileopen</text>
</g>
<!-- Node2 -->
<g id="node2" class="node"><title>Node2</title>
<g id="a_node2"><a xlink:href="../../d7/d4d/classPHNodeIOManager.html#a7fcd787c0049e4476b2534299b801b47" target="_top" xlink:title="PHNodeIOManager::isFunctional">
<polygon fill="none" stroke="black" points="178.5,-49.5 178.5,-68.5 337.5,-68.5 337.5,-49.5 178.5,-49.5"/>
<text text-anchor="middle" x="258" y="-56.5" font-family="FreeSans" font-size="10.00">PHNodeIOManager::isFunctional</text>
</a>
</g>
</g>
<!-- Node1&#45;&gt;Node2 -->
<g id="edge1" class="edge"><title>Node1&#45;&gt;Node2</title>
<path fill="none" stroke="midnightblue" d="M131.59,-44.4789C143.357,-45.8413 155.82,-47.2844 168.143,-48.7114"/>
<polygon fill="midnightblue" stroke="midnightblue" points="168.109,-52.2306 178.445,-49.9041 168.914,-45.2771 168.109,-52.2306"/>
</g>
<!-- Node3 -->
<g id="node3" class="node"><title>Node3</title>
<g id="a_node3"><a xlink:href="../../d7/d4d/classPHNodeIOManager.html#a3a09bb7a12ddd71a5cfb06bcbd679540" target="_top" xlink:title="PHNodeIOManager::SetCompression\lLevel">
<polygon fill="none" stroke="black" points="168.5,-0 168.5,-30 347.5,-30 347.5,-0 168.5,-0"/>
<text text-anchor="start" x="176.5" y="-18" font-family="FreeSans" font-size="10.00">PHNodeIOManager::SetCompression</text>
<text text-anchor="middle" x="258" y="-7" font-family="FreeSans" font-size="10.00">Level</text>
</a>
</g>
</g>
<!-- Node1&#45;&gt;Node3 -->
<g id="edge2" class="edge"><title>Node1&#45;&gt;Node3</title>
<path fill="none" stroke="midnightblue" d="M131.59,-29.5211C140.189,-28.5255 149.158,-27.487 158.174,-26.4431"/>
<polygon fill="midnightblue" stroke="midnightblue" points="158.824,-29.8913 168.355,-25.2642 158.019,-22.9377 158.824,-29.8913"/>
</g>
</g>
</svg>
