<?xml version="1.0" encoding="UTF-8" standalone="no"?>
<!DOCTYPE svg PUBLIC "-//W3C//DTD SVG 1.1//EN"
 "http://www.w3.org/Graphics/SVG/1.1/DTD/svg11.dtd">
<!-- Generated by graphviz version 2.36.0 (20140111.2315)
 -->
<!-- Title: Fun4AllDstOutputManager::WriteNode Pages: 1 -->
<svg width="582pt" height="38pt"
 viewBox="0.00 0.00 582.00 38.00" xmlns="http://www.w3.org/2000/svg" xmlns:xlink="http://www.w3.org/1999/xlink">
<g id="graph0" class="graph" transform="scale(1 1) rotate(0) translate(4 34)">
<title>Fun4AllDstOutputManager::WriteNode</title>
<!-- Node1 -->
<g id="node1" class="node"><title>Node1</title>
<polygon fill="#bfbfbf" stroke="black" points="0.5,-0 0.5,-30 131.5,-30 131.5,-0 0.5,-0"/>
<text text-anchor="start" x="8.5" y="-18" font-family="FreeSans" font-size="10.00">Fun4AllDstOutputManager</text>
<text text-anchor="middle" x="66" y="-7" font-family="FreeSans" font-size="10.00">::WriteNode</text>
</g>
<!-- Node2 -->
<g id="node2" class="node"><title>Node2</title>
<g id="a_node2"><a xlink:href="../../d7/d4d/classPHNodeIOManager.html#a436c3a21a9c6ea54a33ffcc9f2480949" target="_top" xlink:title="PHNodeIOManager::write">
<polygon fill="none" stroke="black" points="168,-5.5 168,-24.5 296,-24.5 296,-5.5 168,-5.5"/>
<text text-anchor="middle" x="232" y="-12.5" font-family="FreeSans" font-size="10.00">PHNodeIOManager::write</text>
</a>
</g>
</g>
<!-- Node1&#45;&gt;Node2 -->
<g id="edge1" class="edge"><title>Node1&#45;&gt;Node2</title>
<path fill="none" stroke="midnightblue" d="M131.817,-15C140.376,-15 149.196,-15 157.882,-15"/>
<polygon fill="midnightblue" stroke="midnightblue" points="157.993,-18.5001 167.993,-15 157.993,-11.5001 157.993,-18.5001"/>
</g>
<!-- Node3 -->
<g id="node3" class="node"><title>Node3</title>
<g id="a_node3"><a xlink:href="../../d5/dca/classPHCompositeNode.html#a774f54eea4fcb26e8b98f537efc1c6d9" target="_top" xlink:title="PHCompositeNode::write">
<polygon fill="none" stroke="black" points="332,-5.5 332,-24.5 458,-24.5 458,-5.5 332,-5.5"/>
<text text-anchor="middle" x="395" y="-12.5" font-family="FreeSans" font-size="10.00">PHCompositeNode::write</text>
</a>
</g>
</g>
<!-- Node2&#45;&gt;Node3 -->
<g id="edge2" class="edge"><title>Node2&#45;&gt;Node3</title>
<path fill="none" stroke="midnightblue" d="M296.169,-15C304.499,-15 313.089,-15 321.559,-15"/>
<polygon fill="midnightblue" stroke="midnightblue" points="321.805,-18.5001 331.804,-15 321.804,-11.5001 321.805,-18.5001"/>
</g>
<!-- Node4 -->
<g id="node4" class="node"><title>Node4</title>
<g id="a_node4"><a xlink:href="../../dc/d82/classPHNode.html#a82ef8bef92f7d2cc470bccb042ab57cc" target="_top" xlink:title="PHNode::write">
<polygon fill="none" stroke="black" points="494,-5.5 494,-24.5 574,-24.5 574,-5.5 494,-5.5"/>
<text text-anchor="middle" x="534" y="-12.5" font-family="FreeSans" font-size="10.00">PHNode::write</text>
</a>
</g>
</g>
<!-- Node3&#45;&gt;Node4 -->
<g id="edge3" class="edge"><title>Node3&#45;&gt;Node4</title>
<path fill="none" stroke="midnightblue" d="M458.086,-15C466.649,-15 475.346,-15 483.636,-15"/>
<polygon fill="midnightblue" stroke="midnightblue" points="483.879,-18.5001 493.879,-15 483.879,-11.5001 483.879,-18.5001"/>
</g>
</g>
</svg>
