<?xml version="1.0" encoding="UTF-8" standalone="no"?>
<!DOCTYPE svg PUBLIC "-//W3C//DTD SVG 1.1//EN"
 "http://www.w3.org/Graphics/SVG/1.1/DTD/svg11.dtd">
<!-- Generated by graphviz version 2.36.0 (20140111.2315)
 -->
<!-- Title: Fun4AllDstOutputManager::Write Pages: 1 -->
<svg width="624pt" height="298pt"
 viewBox="0.00 0.00 624.00 298.00" xmlns="http://www.w3.org/2000/svg" xmlns:xlink="http://www.w3.org/1999/xlink">
<g id="graph0" class="graph" transform="scale(1 1) rotate(0) translate(4 294)">
<title>Fun4AllDstOutputManager::Write</title>
<!-- Node1 -->
<g id="node1" class="node"><title>Node1</title>
<polygon fill="#bfbfbf" stroke="black" points="0.5,-115 0.5,-145 131.5,-145 131.5,-115 0.5,-115"/>
<text text-anchor="start" x="8.5" y="-133" font-family="FreeSans" font-size="10.00">Fun4AllDstOutputManager</text>
<text text-anchor="middle" x="66" y="-122" font-family="FreeSans" font-size="10.00">::Write</text>
</g>
<!-- Node2 -->
<g id="node2" class="node"><title>Node2</title>
<g id="a_node2"><a xlink:href="../../d5/d07/classPHNodeIterator.html#aea98bf8619af59b1212a94fb32106baa" target="_top" xlink:title="PHNodeIterator::findFirst">
<polygon fill="none" stroke="black" points="174,-251.5 174,-270.5 298,-270.5 298,-251.5 174,-251.5"/>
<text text-anchor="middle" x="236" y="-258.5" font-family="FreeSans" font-size="10.00">PHNodeIterator::findFirst</text>
</a>
</g>
</g>
<!-- Node1&#45;&gt;Node2 -->
<g id="edge1" class="edge"><title>Node1&#45;&gt;Node2</title>
<path fill="none" stroke="midnightblue" d="M76.5072,-145.161C92.4427,-169.314 126.874,-216.407 168,-242 171.368,-244.096 174.974,-245.967 178.7,-247.636"/>
<polygon fill="midnightblue" stroke="midnightblue" points="177.561,-250.949 188.147,-251.382 180.142,-244.442 177.561,-250.949"/>
</g>
<!-- Node5 -->
<g id="node5" class="node"><title>Node5</title>
<g id="a_node5"><a xlink:href="../../da/d29/classFun4AllServer.html#a3e55156f91b2c94bb6c4ef33ffce587a" target="_top" xlink:title="Fun4AllServer::instance">
<polygon fill="none" stroke="black" points="176.5,-213.5 176.5,-232.5 295.5,-232.5 295.5,-213.5 176.5,-213.5"/>
<text text-anchor="middle" x="236" y="-220.5" font-family="FreeSans" font-size="10.00">Fun4AllServer::instance</text>
</a>
</g>
</g>
<!-- Node1&#45;&gt;Node5 -->
<g id="edge5" class="edge"><title>Node1&#45;&gt;Node5</title>
<path fill="none" stroke="midnightblue" d="M84.0756,-145.132C103.279,-161.453 135.98,-187.217 168,-203 173.371,-205.647 179.16,-208.017 185.006,-210.118"/>
<polygon fill="midnightblue" stroke="midnightblue" points="184.241,-213.553 194.835,-213.401 186.459,-206.913 184.241,-213.553"/>
</g>
<!-- Node6 -->
<g id="node6" class="node"><title>Node6</title>
<g id="a_node6"><a xlink:href="../../da/d29/classFun4AllServer.html#ac9e5b55796d46d41f6f0ec9e3422959a" target="_top" xlink:title="Fun4AllServer::MakeNodes\lPersistent">
<polygon fill="none" stroke="black" points="168.5,-164 168.5,-194 303.5,-194 303.5,-164 168.5,-164"/>
<text text-anchor="start" x="176.5" y="-182" font-family="FreeSans" font-size="10.00">Fun4AllServer::MakeNodes</text>
<text text-anchor="middle" x="236" y="-171" font-family="FreeSans" font-size="10.00">Persistent</text>
</a>
</g>
</g>
<!-- Node1&#45;&gt;Node6 -->
<g id="edge6" class="edge"><title>Node1&#45;&gt;Node6</title>
<path fill="none" stroke="midnightblue" d="M118.776,-145.101C136.103,-150.155 155.586,-155.838 173.577,-161.085"/>
<polygon fill="midnightblue" stroke="midnightblue" points="172.815,-164.508 183.395,-163.948 174.775,-157.788 172.815,-164.508"/>
</g>
<!-- Node10 -->
<g id="node10" class="node"><title>Node10</title>
<g id="a_node10"><a xlink:href="../../da/d29/classFun4AllServer.html#a92c6fe0e0c19c48d2b1f9d0f63c12bbe" target="_top" xlink:title="Fun4AllServer::MakeNodes\lTransient">
<polygon fill="none" stroke="black" points="168.5,-115 168.5,-145 303.5,-145 303.5,-115 168.5,-115"/>
<text text-anchor="start" x="176.5" y="-133" font-family="FreeSans" font-size="10.00">Fun4AllServer::MakeNodes</text>
<text text-anchor="middle" x="236" y="-122" font-family="FreeSans" font-size="10.00">Transient</text>
</a>
</g>
</g>
<!-- Node1&#45;&gt;Node10 -->
<g id="edge10" class="edge"><title>Node1&#45;&gt;Node10</title>
<path fill="none" stroke="midnightblue" d="M131.953,-130C140.514,-130 149.354,-130 158.091,-130"/>
<polygon fill="midnightblue" stroke="midnightblue" points="158.277,-133.5 168.277,-130 158.277,-126.5 158.277,-133.5"/>
</g>
<!-- Node11 -->
<g id="node11" class="node"><title>Node11</title>
<g id="a_node11"><a xlink:href="../../dc/d82/classPHNode.html#ad5c0a3b8418667e0b16c0581435b0aff" target="_top" xlink:title="PHNode::makePersistent">
<polygon fill="none" stroke="black" points="172.5,-76.5 172.5,-95.5 299.5,-95.5 299.5,-76.5 172.5,-76.5"/>
<text text-anchor="middle" x="236" y="-83.5" font-family="FreeSans" font-size="10.00">PHNode::makePersistent</text>
</a>
</g>
</g>
<!-- Node1&#45;&gt;Node11 -->
<g id="edge12" class="edge"><title>Node1&#45;&gt;Node11</title>
<path fill="none" stroke="midnightblue" d="M124.346,-114.981C145.407,-109.465 168.962,-103.296 188.909,-98.0716"/>
<polygon fill="midnightblue" stroke="midnightblue" points="189.893,-101.432 198.68,-95.5124 188.119,-94.6603 189.893,-101.432"/>
</g>
<!-- Node12 -->
<g id="node12" class="node"><title>Node12</title>
<g id="a_node12"><a xlink:href="../../dc/d82/classPHNode.html#a6202404549f6c053f3a3485ab28a968e" target="_top" xlink:title="PHNode::makeTransient">
<polygon fill="none" stroke="black" points="174.5,-38.5 174.5,-57.5 297.5,-57.5 297.5,-38.5 174.5,-38.5"/>
<text text-anchor="middle" x="236" y="-45.5" font-family="FreeSans" font-size="10.00">PHNode::makeTransient</text>
</a>
</g>
</g>
<!-- Node1&#45;&gt;Node12 -->
<g id="edge13" class="edge"><title>Node1&#45;&gt;Node12</title>
<path fill="none" stroke="midnightblue" d="M87.322,-114.918C107.068,-100.86 138.335,-80.1418 168,-67 173.311,-64.6471 178.989,-62.5081 184.708,-60.5856"/>
<polygon fill="midnightblue" stroke="midnightblue" points="185.832,-63.9013 194.316,-57.5551 183.726,-57.2255 185.832,-63.9013"/>
</g>
<!-- Node13 -->
<g id="node13" class="node"><title>Node13</title>
<g id="a_node13"><a xlink:href="../../d7/d4d/classPHNodeIOManager.html#a436c3a21a9c6ea54a33ffcc9f2480949" target="_top" xlink:title="PHNodeIOManager::write">
<polygon fill="none" stroke="black" points="172,-0.5 172,-19.5 300,-19.5 300,-0.5 172,-0.5"/>
<text text-anchor="middle" x="236" y="-7.5" font-family="FreeSans" font-size="10.00">PHNodeIOManager::write</text>
</a>
</g>
</g>
<!-- Node1&#45;&gt;Node13 -->
<g id="edge14" class="edge"><title>Node1&#45;&gt;Node13</title>
<path fill="none" stroke="midnightblue" d="M77.9606,-114.924C94.8311,-92.8039 129.293,-51.7238 168,-29 171.695,-26.8308 175.651,-24.8981 179.724,-23.1779"/>
<polygon fill="midnightblue" stroke="midnightblue" points="181.254,-26.3417 189.376,-19.5387 178.785,-19.7918 181.254,-26.3417"/>
</g>
<!-- Node2&#45;&gt;Node2 -->
<g id="edge4" class="edge"><title>Node2&#45;&gt;Node2</title>
<path fill="none" stroke="midnightblue" d="M210.415,-270.757C197.968,-279.565 206.496,-289 236,-289 255.823,-289 266.177,-284.741 267.063,-279.275"/>
<polygon fill="midnightblue" stroke="midnightblue" points="269.938,-277.275 261.585,-270.757 264.051,-281.061 269.938,-277.275"/>
</g>
<!-- Node3 -->
<g id="node3" class="node"><title>Node3</title>
<g id="a_node3"><a xlink:href="../../dc/d82/classPHNode.html#a4ab1f90aed955a652813bfe377087bda" target="_top" xlink:title="PHNode::getType">
<polygon fill="none" stroke="black" points="356.5,-270.5 356.5,-289.5 449.5,-289.5 449.5,-270.5 356.5,-270.5"/>
<text text-anchor="middle" x="403" y="-277.5" font-family="FreeSans" font-size="10.00">PHNode::getType</text>
</a>
</g>
</g>
<!-- Node2&#45;&gt;Node3 -->
<g id="edge2" class="edge"><title>Node2&#45;&gt;Node3</title>
<path fill="none" stroke="midnightblue" d="M298.44,-268.075C314.073,-269.875 330.788,-271.8 346.127,-273.566"/>
<polygon fill="midnightblue" stroke="midnightblue" points="346.162,-277.093 356.497,-274.76 346.963,-270.139 346.162,-277.093"/>
</g>
<!-- Node4 -->
<g id="node4" class="node"><title>Node4</title>
<g id="a_node4"><a xlink:href="../../dc/d82/classPHNode.html#aca3576f926a4401eddc3d88bf0ce0de3" target="_top" xlink:title="PHNode::getName">
<polygon fill="none" stroke="black" points="354,-232.5 354,-251.5 452,-251.5 452,-232.5 354,-232.5"/>
<text text-anchor="middle" x="403" y="-239.5" font-family="FreeSans" font-size="10.00">PHNode::getName</text>
</a>
</g>
</g>
<!-- Node2&#45;&gt;Node4 -->
<g id="edge3" class="edge"><title>Node2&#45;&gt;Node4</title>
<path fill="none" stroke="midnightblue" d="M298.44,-253.925C313.329,-252.211 329.199,-250.383 343.927,-248.687"/>
<polygon fill="midnightblue" stroke="midnightblue" points="344.381,-252.158 353.915,-247.537 343.58,-245.204 344.381,-252.158"/>
</g>
<!-- Node7 -->
<g id="node7" class="node"><title>Node7</title>
<g id="a_node7"><a xlink:href="../../d5/d07/classPHNodeIterator.html#a110a5b87a02a22deecae334f32387ffa" target="_top" xlink:title="PHNodeIterator::ls">
<polygon fill="none" stroke="black" points="354.5,-144.5 354.5,-163.5 451.5,-163.5 451.5,-144.5 354.5,-144.5"/>
<text text-anchor="middle" x="403" y="-151.5" font-family="FreeSans" font-size="10.00">PHNodeIterator::ls</text>
</a>
</g>
</g>
<!-- Node6&#45;&gt;Node7 -->
<g id="edge7" class="edge"><title>Node6&#45;&gt;Node7</title>
<path fill="none" stroke="midnightblue" d="M303.636,-168.904C317.045,-166.872 331.035,-164.752 344.117,-162.77"/>
<polygon fill="midnightblue" stroke="midnightblue" points="345.021,-166.173 354.384,-161.215 343.973,-159.252 345.021,-166.173"/>
</g>
<!-- Node8 -->
<g id="node8" class="node"><title>Node8</title>
<g id="a_node8"><a xlink:href="../../d6/d86/classPHPointerList.html#a560c9339d74f28f604d07dcb10a2e0be" target="_top" xlink:title="PHPointerList::clear">
<polygon fill="none" stroke="black" points="507,-163.5 507,-182.5 611,-182.5 611,-163.5 507,-163.5"/>
<text text-anchor="middle" x="559" y="-170.5" font-family="FreeSans" font-size="10.00">PHPointerList::clear</text>
</a>
</g>
</g>
<!-- Node7&#45;&gt;Node8 -->
<g id="edge8" class="edge"><title>Node7&#45;&gt;Node8</title>
<path fill="none" stroke="midnightblue" d="M451.882,-159.908C466.087,-161.66 481.842,-163.604 496.77,-165.446"/>
<polygon fill="midnightblue" stroke="midnightblue" points="496.591,-168.95 506.944,-166.701 497.448,-162.003 496.591,-168.95"/>
</g>
<!-- Node9 -->
<g id="node9" class="node"><title>Node9</title>
<g id="a_node9"><a xlink:href="../../d6/d86/classPHPointerList.html#af5fc4e6958b5b90c57bfb497566f503c" target="_top" xlink:title="PHPointerList::append">
<polygon fill="none" stroke="black" points="502,-125.5 502,-144.5 616,-144.5 616,-125.5 502,-125.5"/>
<text text-anchor="middle" x="559" y="-132.5" font-family="FreeSans" font-size="10.00">PHPointerList::append</text>
</a>
</g>
</g>
<!-- Node7&#45;&gt;Node9 -->
<g id="edge9" class="edge"><title>Node7&#45;&gt;Node9</title>
<path fill="none" stroke="midnightblue" d="M451.882,-148.092C464.477,-146.539 478.29,-144.834 491.666,-143.184"/>
<polygon fill="midnightblue" stroke="midnightblue" points="492.285,-146.634 501.781,-141.936 491.428,-139.687 492.285,-146.634"/>
</g>
<!-- Node10&#45;&gt;Node7 -->
<g id="edge11" class="edge"><title>Node10&#45;&gt;Node7</title>
<path fill="none" stroke="midnightblue" d="M303.636,-139.693C317.045,-141.643 331.035,-143.678 344.117,-145.581"/>
<polygon fill="midnightblue" stroke="midnightblue" points="343.984,-149.098 354.384,-147.074 344.992,-142.171 343.984,-149.098"/>
</g>
<!-- Node14 -->
<g id="node14" class="node"><title>Node14</title>
<g id="a_node14"><a xlink:href="../../d5/dca/classPHCompositeNode.html#a774f54eea4fcb26e8b98f537efc1c6d9" target="_top" xlink:title="PHCompositeNode::write">
<polygon fill="none" stroke="black" points="340,-0.5 340,-19.5 466,-19.5 466,-0.5 340,-0.5"/>
<text text-anchor="middle" x="403" y="-7.5" font-family="FreeSans" font-size="10.00">PHCompositeNode::write</text>
</a>
</g>
</g>
<!-- Node13&#45;&gt;Node14 -->
<g id="edge15" class="edge"><title>Node13&#45;&gt;Node14</title>
<path fill="none" stroke="midnightblue" d="M300.321,-10C309.967,-10 319.983,-10 329.8,-10"/>
<polygon fill="midnightblue" stroke="midnightblue" points="329.937,-13.5001 339.936,-10 329.936,-6.5001 329.937,-13.5001"/>
</g>
<!-- Node15 -->
<g id="node15" class="node"><title>Node15</title>
<g id="a_node15"><a xlink:href="../../dc/d82/classPHNode.html#a82ef8bef92f7d2cc470bccb042ab57cc" target="_top" xlink:title="PHNode::write">
<polygon fill="none" stroke="black" points="519,-0.5 519,-19.5 599,-19.5 599,-0.5 519,-0.5"/>
<text text-anchor="middle" x="559" y="-7.5" font-family="FreeSans" font-size="10.00">PHNode::write</text>
</a>
</g>
</g>
<!-- Node14&#45;&gt;Node15 -->
<g id="edge16" class="edge"><title>Node14&#45;&gt;Node15</title>
<path fill="none" stroke="midnightblue" d="M466.194,-10C480.296,-10 495.087,-10 508.577,-10"/>
<polygon fill="midnightblue" stroke="midnightblue" points="508.607,-13.5001 518.607,-10 508.607,-6.5001 508.607,-13.5001"/>
</g>
</g>
</svg>
