<?xml version="1.0" encoding="UTF-8" standalone="no"?>
<!DOCTYPE svg PUBLIC "-//W3C//DTD SVG 1.1//EN"
 "http://www.w3.org/Graphics/SVG/1.1/DTD/svg11.dtd">
<!-- Generated by graphviz version 2.36.0 (20140111.2315)
 -->
<!-- Title: Fun4AllDstOutputManager::Print Pages: 1 -->
<svg width="444pt" height="38pt"
 viewBox="0.00 0.00 444.00 38.00" xmlns="http://www.w3.org/2000/svg" xmlns:xlink="http://www.w3.org/1999/xlink">
<g id="graph0" class="graph" transform="scale(1 1) rotate(0) translate(4 34)">
<title>Fun4AllDstOutputManager::Print</title>
<!-- Node1 -->
<g id="node1" class="node"><title>Node1</title>
<polygon fill="#bfbfbf" stroke="black" points="0.5,-0 0.5,-30 131.5,-30 131.5,-0 0.5,-0"/>
<text text-anchor="start" x="8.5" y="-18" font-family="FreeSans" font-size="10.00">Fun4AllDstOutputManager</text>
<text text-anchor="middle" x="66" y="-7" font-family="FreeSans" font-size="10.00">::Print</text>
</g>
<!-- Node2 -->
<g id="node2" class="node"><title>Node2</title>
<g id="a_node2"><a xlink:href="../../d8/d77/classFun4AllOutputManager.html#ae13cdf197e3ae6f5310199ca034b8754" target="_top" xlink:title="print method (dump event selector) ">
<polygon fill="none" stroke="black" points="168,-0 168,-30 284,-30 284,-0 168,-0"/>
<text text-anchor="start" x="176" y="-18" font-family="FreeSans" font-size="10.00">Fun4AllOutputManager</text>
<text text-anchor="middle" x="226" y="-7" font-family="FreeSans" font-size="10.00">::Print</text>
</a>
</g>
</g>
<!-- Node1&#45;&gt;Node2 -->
<g id="edge1" class="edge"><title>Node1&#45;&gt;Node2</title>
<path fill="none" stroke="midnightblue" d="M131.721,-15C140.357,-15 149.23,-15 157.906,-15"/>
<polygon fill="midnightblue" stroke="midnightblue" points="157.975,-18.5001 167.975,-15 157.975,-11.5001 157.975,-18.5001"/>
</g>
<!-- Node3 -->
<g id="node3" class="node"><title>Node3</title>
<g id="a_node3"><a xlink:href="../../d8/d77/classFun4AllOutputManager.html#af86abee7682ee661cf4477e1e0443f71" target="_top" xlink:title="get number of Events ">
<polygon fill="none" stroke="black" points="320,-0 320,-30 436,-30 436,-0 320,-0"/>
<text text-anchor="start" x="328" y="-18" font-family="FreeSans" font-size="10.00">Fun4AllOutputManager</text>
<text text-anchor="middle" x="378" y="-7" font-family="FreeSans" font-size="10.00">::EventsWritten</text>
</a>
</g>
</g>
<!-- Node2&#45;&gt;Node3 -->
<g id="edge2" class="edge"><title>Node2&#45;&gt;Node3</title>
<path fill="none" stroke="midnightblue" d="M284.136,-15C292.377,-15 300.923,-15 309.344,-15"/>
<polygon fill="midnightblue" stroke="midnightblue" points="309.526,-18.5001 319.525,-15 309.525,-11.5001 309.526,-18.5001"/>
</g>
</g>
</svg>
