<?xml version="1.0" encoding="UTF-8" standalone="no"?>
<!DOCTYPE svg PUBLIC "-//W3C//DTD SVG 1.1//EN"
 "http://www.w3.org/Graphics/SVG/1.1/DTD/svg11.dtd">
<!-- Generated by graphviz version 2.36.0 (20140111.2315)
 -->
<!-- Title: Fun4AllDstInputManager Pages: 1 -->
<svg width="1570pt" height="535pt"
 viewBox="0.00 0.00 1570.00 535.00" xmlns="http://www.w3.org/2000/svg" xmlns:xlink="http://www.w3.org/1999/xlink">
<g id="graph0" class="graph" transform="scale(1 1) rotate(0) translate(4 531)">
<title>Fun4AllDstInputManager</title>
<!-- Node1 -->
<g id="node1" class="node"><title>Node1</title>
<polygon fill="#bfbfbf" stroke="black" points="1229,-226.5 1229,-245.5 1353,-245.5 1353,-226.5 1229,-226.5"/>
<text text-anchor="middle" x="1291" y="-233.5" font-family="FreeSans" font-size="10.00">Fun4AllDstInputManager</text>
</g>
<!-- Node2 -->
<g id="node2" class="node"><title>Node2</title>
<g id="a_node2"><a xlink:href="../../d4/da9/classFun4AllInputManager.html" target="_top" xlink:title="Fun4AllInputManager">
<polygon fill="none" stroke="black" points="1032.5,-382.5 1032.5,-401.5 1141.5,-401.5 1141.5,-382.5 1032.5,-382.5"/>
<text text-anchor="middle" x="1087" y="-389.5" font-family="FreeSans" font-size="10.00">Fun4AllInputManager</text>
</a>
</g>
</g>
<!-- Node2&#45;&gt;Node1 -->
<g id="edge1" class="edge"><title>Node2&#45;&gt;Node1</title>
<path fill="none" stroke="midnightblue" d="M1107.93,-375.926C1122.1,-364.776 1141.78,-349.858 1160,-338 1181.35,-324.106 1189.4,-324.974 1210,-310 1237.85,-289.756 1266.54,-260.895 1280.79,-245.9"/>
<polygon fill="midnightblue" stroke="midnightblue" points="1105.53,-373.36 1099.88,-382.32 1109.88,-378.842 1105.53,-373.36"/>
</g>
<!-- Node9 -->
<g id="node9" class="node"><title>Node9</title>
<polygon fill="none" stroke="#bfbfbf" points="1228.5,-379 1228.5,-409 1353.5,-409 1353.5,-379 1228.5,-379"/>
<text text-anchor="start" x="1236.5" y="-397" font-family="FreeSans" font-size="10.00">std::vector&lt; Fun4AllInput</text>
<text text-anchor="middle" x="1291" y="-386" font-family="FreeSans" font-size="10.00">Manager * &gt;</text>
</g>
<!-- Node2&#45;&gt;Node9 -->
<g id="edge11" class="edge"><title>Node2&#45;&gt;Node9</title>
<path fill="none" stroke="#9a32cd" stroke-dasharray="5,2" d="M1151.84,-392.632C1176.26,-392.874 1204.05,-393.149 1228.27,-393.389"/>
<polygon fill="#9a32cd" stroke="#9a32cd" points="1151.64,-389.13 1141.6,-392.531 1151.57,-396.13 1151.64,-389.13"/>
<text text-anchor="middle" x="1185" y="-397" font-family="FreeSans" font-size="10.00"> elements</text>
</g>
<!-- Node3 -->
<g id="node3" class="node"><title>Node3</title>
<g id="a_node3"><a xlink:href="../../d5/dec/classFun4AllBase.html" target="_top" xlink:title="Fun4AllBase">
<polygon fill="none" stroke="black" points="296,-460.5 296,-479.5 368,-479.5 368,-460.5 296,-460.5"/>
<text text-anchor="middle" x="332" y="-467.5" font-family="FreeSans" font-size="10.00">Fun4AllBase</text>
</a>
</g>
</g>
<!-- Node3&#45;&gt;Node2 -->
<g id="edge2" class="edge"><title>Node3&#45;&gt;Node2</title>
<path fill="none" stroke="midnightblue" d="M378.267,-467.291C487.811,-460.399 775.733,-440.276 1014,-406 1022.57,-404.767 1031.67,-403.201 1040.41,-401.567"/>
<polygon fill="midnightblue" stroke="midnightblue" points="377.993,-463.801 368.23,-467.916 378.429,-470.787 377.993,-463.801"/>
</g>
<!-- Node7 -->
<g id="node7" class="node"><title>Node7</title>
<g id="a_node7"><a xlink:href="../../d0/d32/classSubsysReco.html" target="_top" xlink:title="SubsysReco">
<polygon fill="none" stroke="black" points="558.5,-479.5 558.5,-498.5 629.5,-498.5 629.5,-479.5 558.5,-479.5"/>
<text text-anchor="middle" x="594" y="-486.5" font-family="FreeSans" font-size="10.00">SubsysReco</text>
</a>
</g>
</g>
<!-- Node3&#45;&gt;Node7 -->
<g id="edge7" class="edge"><title>Node3&#45;&gt;Node7</title>
<path fill="none" stroke="midnightblue" d="M378.203,-473.303C429.515,-477.053 512.094,-483.088 558.491,-486.478"/>
<polygon fill="midnightblue" stroke="midnightblue" points="378.293,-469.801 368.065,-472.562 377.783,-476.782 378.293,-469.801"/>
</g>
<!-- Node8 -->
<g id="node8" class="node"><title>Node8</title>
<g id="a_node8"><a xlink:href="../../dd/ded/classFun4AllSyncManager.html" target="_top" xlink:title="Fun4AllSyncManager">
<polygon fill="none" stroke="black" points="1452.5,-339.5 1452.5,-358.5 1561.5,-358.5 1561.5,-339.5 1452.5,-339.5"/>
<text text-anchor="middle" x="1507" y="-346.5" font-family="FreeSans" font-size="10.00">Fun4AllSyncManager</text>
</a>
</g>
</g>
<!-- Node3&#45;&gt;Node8 -->
<g id="edge9" class="edge"><title>Node3&#45;&gt;Node8</title>
<path fill="none" stroke="midnightblue" d="M368.39,-482.853C417.926,-499.663 511.074,-527 593,-527 593,-527 593,-527 1292,-527 1398.32,-527 1479.95,-395.542 1500.8,-358.57"/>
<polygon fill="midnightblue" stroke="midnightblue" points="369.386,-479.494 358.791,-479.541 367.102,-486.111 369.386,-479.494"/>
</g>
<!-- Node4 -->
<g id="node4" class="node"><title>Node4</title>
<g id="a_node4"><a xlink:title="STL class. ">
<polygon fill="none" stroke="#bfbfbf" points="132.5,-219.5 132.5,-238.5 191.5,-238.5 191.5,-219.5 132.5,-219.5"/>
<text text-anchor="middle" x="162" y="-226.5" font-family="FreeSans" font-size="10.00">std::string</text>
</a>
</g>
</g>
<!-- Node4&#45;&gt;Node1 -->
<g id="edge23" class="edge"><title>Node4&#45;&gt;Node1</title>
<path fill="none" stroke="#9a32cd" stroke-dasharray="5,2" d="M194.271,-242.217C199.456,-244.048 204.829,-245.732 210,-247 262.579,-259.893 276.863,-261 331,-261 331,-261 331,-261 1088,-261 1140.48,-261 1200.04,-252.588 1240.82,-245.523"/>
<polygon fill="#9a32cd" stroke="#9a32cd" points="195.226,-238.837 184.634,-238.588 192.759,-245.388 195.226,-238.837"/>
<text text-anchor="middle" x="729" y="-275" font-family="FreeSans" font-size="10.00"> syncbranchname</text>
<text text-anchor="middle" x="729" y="-264" font-family="FreeSans" font-size="10.00">RunNode</text>
</g>
<!-- Node4&#45;&gt;Node2 -->
<g id="edge17" class="edge"><title>Node4&#45;&gt;Node2</title>
<path fill="none" stroke="#9a32cd" stroke-dasharray="5,2" d="M163.976,-248.997C166.565,-278.212 175.97,-332.012 210,-359 274.28,-409.978 851.749,-398.492 1032.3,-393.6"/>
<polygon fill="#9a32cd" stroke="#9a32cd" points="167.451,-248.515 163.263,-238.783 160.468,-249.002 167.451,-248.515"/>
<text text-anchor="middle" x="594" y="-424" font-family="FreeSans" font-size="10.00"> topNodeName</text>
<text text-anchor="middle" x="594" y="-413" font-family="FreeSans" font-size="10.00">InputNode</text>
<text text-anchor="middle" x="594" y="-402" font-family="FreeSans" font-size="10.00">filename</text>
</g>
<!-- Node4&#45;&gt;Node3 -->
<g id="edge3" class="edge"><title>Node4&#45;&gt;Node3</title>
<path fill="none" stroke="#9a32cd" stroke-dasharray="5,2" d="M163.424,-249.269C165.159,-284.415 173.286,-357.364 210,-404 232.572,-432.672 271.19,-450.605 298.727,-460.419"/>
<polygon fill="#9a32cd" stroke="#9a32cd" points="166.908,-248.759 163.049,-238.892 159.913,-249.012 166.908,-248.759"/>
<text text-anchor="middle" x="235" y="-447" font-family="FreeSans" font-size="10.00"> ThisName</text>
</g>
<!-- Node14 -->
<g id="node14" class="node"><title>Node14</title>
<polygon fill="none" stroke="#bfbfbf" points="404,-335.5 404,-354.5 510,-354.5 510,-335.5 404,-335.5"/>
<text text-anchor="middle" x="457" y="-342.5" font-family="FreeSans" font-size="10.00">std::list&lt; std::string &gt;</text>
</g>
<!-- Node4&#45;&gt;Node14 -->
<g id="edge19" class="edge"><title>Node4&#45;&gt;Node14</title>
<path fill="none" stroke="#9a32cd" stroke-dasharray="5,2" d="M167.125,-248.55C172.799,-270.164 185.257,-304.149 210,-321 267.28,-360.009 350.193,-359.351 403.6,-353.55"/>
<polygon fill="#9a32cd" stroke="#9a32cd" points="170.462,-247.453 164.747,-238.531 163.651,-249.069 170.462,-247.453"/>
<text text-anchor="middle" x="235" y="-347" font-family="FreeSans" font-size="10.00"> elements</text>
</g>
<!-- Node15 -->
<g id="node15" class="node"><title>Node15</title>
<polygon fill="none" stroke="#bfbfbf" points="678.5,-290 678.5,-320 779.5,-320 779.5,-290 678.5,-290"/>
<text text-anchor="start" x="686.5" y="-308" font-family="FreeSans" font-size="10.00">std::map&lt; const std</text>
<text text-anchor="middle" x="729" y="-297" font-family="FreeSans" font-size="10.00">::string, int &gt;</text>
</g>
<!-- Node4&#45;&gt;Node15 -->
<g id="edge21" class="edge"><title>Node4&#45;&gt;Node15</title>
<path fill="none" stroke="#9a32cd" stroke-dasharray="5,2" d="M175.841,-246.808C184.288,-257.003 196.294,-268.941 210,-275 369.012,-345.296 582.682,-326.65 678.217,-313.215"/>
<polygon fill="#9a32cd" stroke="#9a32cd" points="178.528,-244.562 169.624,-238.82 173.004,-248.861 178.528,-244.562"/>
<text text-anchor="middle" x="332" y="-323" font-family="FreeSans" font-size="10.00"> keys</text>
</g>
<!-- Node17 -->
<g id="node17" class="node"><title>Node17</title>
<g id="a_node17"><a xlink:href="../../dc/d82/classPHNode.html" target="_top" xlink:title="PHNode">
<polygon fill="none" stroke="black" points="305,-184.5 305,-203.5 359,-203.5 359,-184.5 305,-184.5"/>
<text text-anchor="middle" x="332" y="-191.5" font-family="FreeSans" font-size="10.00">PHNode</text>
</a>
</g>
</g>
<!-- Node4&#45;&gt;Node17 -->
<g id="edge27" class="edge"><title>Node4&#45;&gt;Node17</title>
<path fill="none" stroke="#9a32cd" stroke-dasharray="5,2" d="M185.499,-213.981C192.992,-209.695 201.58,-205.51 210,-203 241.693,-193.55 280.023,-192.306 304.928,-192.757"/>
<polygon fill="#9a32cd" stroke="#9a32cd" points="183.41,-211.155 176.69,-219.346 187.051,-217.134 183.41,-211.155"/>
<text text-anchor="middle" x="235" y="-239" font-family="FreeSans" font-size="10.00"> objecttype</text>
<text text-anchor="middle" x="235" y="-228" font-family="FreeSans" font-size="10.00">objectclass</text>
<text text-anchor="middle" x="235" y="-217" font-family="FreeSans" font-size="10.00">type</text>
<text text-anchor="middle" x="235" y="-206" font-family="FreeSans" font-size="10.00">name</text>
</g>
<!-- Node19 -->
<g id="node19" class="node"><title>Node19</title>
<g id="a_node19"><a xlink:href="../../d7/d4d/classPHNodeIOManager.html" target="_top" xlink:title="PHNodeIOManager">
<polygon fill="none" stroke="black" points="543,-114.5 543,-133.5 645,-133.5 645,-114.5 543,-114.5"/>
<text text-anchor="middle" x="594" y="-121.5" font-family="FreeSans" font-size="10.00">PHNodeIOManager</text>
</a>
</g>
</g>
<!-- Node4&#45;&gt;Node19 -->
<g id="edge37" class="edge"><title>Node4&#45;&gt;Node19</title>
<path fill="none" stroke="#9a32cd" stroke-dasharray="5,2" d="M172.513,-210.369C180.938,-195.089 194.313,-173.524 210,-158 235.586,-132.679 243.477,-124.195 278,-114 372.323,-86.145 489.488,-102.337 550.915,-114.453"/>
<polygon fill="#9a32cd" stroke="#9a32cd" points="169.328,-208.904 167.718,-219.376 175.507,-212.194 169.328,-208.904"/>
<text text-anchor="middle" x="332" y="-117" font-family="FreeSans" font-size="10.00"> TreeName</text>
</g>
<!-- Node20 -->
<g id="node20" class="node"><title>Node20</title>
<g id="a_node20"><a xlink:href="../../d0/d36/classPHIOManager.html" target="_top" xlink:title="PHIOManager">
<polygon fill="none" stroke="black" points="292.5,-49.5 292.5,-68.5 371.5,-68.5 371.5,-49.5 292.5,-49.5"/>
<text text-anchor="middle" x="332" y="-56.5" font-family="FreeSans" font-size="10.00">PHIOManager</text>
</a>
</g>
</g>
<!-- Node4&#45;&gt;Node20 -->
<g id="edge32" class="edge"><title>Node4&#45;&gt;Node20</title>
<path fill="none" stroke="#9a32cd" stroke-dasharray="5,2" d="M163.101,-209.153C164.415,-176.861 172.009,-113.223 210,-80 232.309,-60.4909 266.065,-55.9764 292.259,-55.9248"/>
<polygon fill="#9a32cd" stroke="#9a32cd" points="159.601,-209.085 162.858,-219.167 166.599,-209.254 159.601,-209.085"/>
<text text-anchor="middle" x="235" y="-83" font-family="FreeSans" font-size="10.00"> filename</text>
</g>
<!-- Node21 -->
<g id="node21" class="node"><title>Node21</title>
<polygon fill="none" stroke="#bfbfbf" points="278.5,-0 278.5,-30 385.5,-30 385.5,-0 278.5,-0"/>
<text text-anchor="start" x="286.5" y="-18" font-family="FreeSans" font-size="10.00">std::map&lt; std::string,</text>
<text text-anchor="middle" x="332" y="-7" font-family="FreeSans" font-size="10.00"> TBranch * &gt;</text>
</g>
<!-- Node4&#45;&gt;Node21 -->
<g id="edge34" class="edge"><title>Node4&#45;&gt;Node21</title>
<path fill="none" stroke="#9a32cd" stroke-dasharray="5,2" d="M165.445,-209.142C171.116,-166.299 186.504,-67.1798 210,-44 227.915,-26.3259 254.584,-18.7322 278.328,-15.7044"/>
<polygon fill="#9a32cd" stroke="#9a32cd" points="161.957,-208.822 164.158,-219.186 168.9,-209.711 161.957,-208.822"/>
<text text-anchor="middle" x="235" y="-47" font-family="FreeSans" font-size="10.00"> keys</text>
</g>
<!-- Node22 -->
<g id="node22" class="node"><title>Node22</title>
<polygon fill="none" stroke="#bfbfbf" points="278.5,-135 278.5,-165 385.5,-165 385.5,-135 278.5,-135"/>
<text text-anchor="start" x="286.5" y="-153" font-family="FreeSans" font-size="10.00">std::map&lt; std::string,</text>
<text text-anchor="middle" x="332" y="-142" font-family="FreeSans" font-size="10.00"> PHBoolean &gt;</text>
</g>
<!-- Node4&#45;&gt;Node22 -->
<g id="edge36" class="edge"><title>Node4&#45;&gt;Node22</title>
<path fill="none" stroke="#9a32cd" stroke-dasharray="5,2" d="M176.066,-210.954C184.595,-200.433 196.609,-187.749 210,-180 230.699,-168.021 256.073,-160.794 278.229,-156.448"/>
<polygon fill="#9a32cd" stroke="#9a32cd" points="173.099,-209.07 169.767,-219.127 178.644,-213.343 173.099,-209.07"/>
<text text-anchor="middle" x="235" y="-183" font-family="FreeSans" font-size="10.00"> keys</text>
</g>
<!-- Node5 -->
<g id="node5" class="node"><title>Node5</title>
<g id="a_node5"><a xlink:title="STL class. ">
<polygon fill="none" stroke="#bfbfbf" points="0.5,-214 0.5,-244 93.5,-244 93.5,-214 0.5,-214"/>
<text text-anchor="start" x="8.5" y="-232" font-family="FreeSans" font-size="10.00">std::basic_string&lt;</text>
<text text-anchor="middle" x="47" y="-221" font-family="FreeSans" font-size="10.00"> char &gt;</text>
</a>
</g>
</g>
<!-- Node5&#45;&gt;Node4 -->
<g id="edge4" class="edge"><title>Node5&#45;&gt;Node4</title>
<path fill="none" stroke="midnightblue" d="M103.885,-229C113.778,-229 123.695,-229 132.425,-229"/>
<polygon fill="midnightblue" stroke="midnightblue" points="103.636,-225.5 93.6357,-229 103.636,-232.5 103.636,-225.5"/>
</g>
<!-- Node6 -->
<g id="node6" class="node"><title>Node6</title>
<polygon fill="none" stroke="#bfbfbf" points="798.5,-479.5 798.5,-498.5 937.5,-498.5 937.5,-479.5 798.5,-479.5"/>
<text text-anchor="middle" x="868" y="-486.5" font-family="FreeSans" font-size="10.00">std::vector&lt; SubsysReco * &gt;</text>
</g>
<!-- Node6&#45;&gt;Node2 -->
<g id="edge5" class="edge"><title>Node6&#45;&gt;Node2</title>
<path fill="none" stroke="#9a32cd" stroke-dasharray="5,2" d="M947.954,-485.013C970.229,-481.519 993.863,-475.436 1014,-465 1043.55,-449.683 1068.35,-417.791 1079.57,-401.713"/>
<polygon fill="#9a32cd" stroke="#9a32cd" points="947.245,-481.578 937.833,-486.442 948.224,-488.509 947.245,-481.578"/>
<text text-anchor="middle" x="985" y="-486" font-family="FreeSans" font-size="10.00"> Subsystems</text>
</g>
<!-- Node7&#45;&gt;Node6 -->
<g id="edge6" class="edge"><title>Node7&#45;&gt;Node6</title>
<path fill="none" stroke="#9a32cd" stroke-dasharray="5,2" d="M639.9,-489C682.983,-489 748.647,-489 798.304,-489"/>
<polygon fill="#9a32cd" stroke="#9a32cd" points="639.725,-485.5 629.725,-489 639.725,-492.5 639.725,-485.5"/>
<text text-anchor="middle" x="729" y="-492" font-family="FreeSans" font-size="10.00"> elements</text>
</g>
<!-- Node8&#45;&gt;Node2 -->
<g id="edge8" class="edge"><title>Node8&#45;&gt;Node2</title>
<path fill="none" stroke="#9a32cd" stroke-dasharray="5,2" d="M1442.21,-347.353C1385.66,-346.774 1300.97,-348.066 1228,-358 1190.08,-363.162 1147.48,-374.298 1119.34,-382.424"/>
<polygon fill="#9a32cd" stroke="#9a32cd" points="1442.39,-350.855 1452.43,-347.481 1442.48,-343.856 1442.39,-350.855"/>
<text text-anchor="middle" x="1291" y="-361" font-family="FreeSans" font-size="10.00"> mySyncManager</text>
</g>
<!-- Node9&#45;&gt;Node8 -->
<g id="edge10" class="edge"><title>Node9&#45;&gt;Node8</title>
<path fill="none" stroke="#9a32cd" stroke-dasharray="5,2" d="M1363.42,-378.983C1395.56,-372.224 1432.53,-364.449 1460.78,-358.51"/>
<polygon fill="#9a32cd" stroke="#9a32cd" points="1362.68,-375.562 1353.61,-381.045 1364.12,-382.412 1362.68,-375.562"/>
<text text-anchor="middle" x="1403" y="-380" font-family="FreeSans" font-size="10.00"> InManager</text>
</g>
<!-- Node10 -->
<g id="node10" class="node"><title>Node10</title>
<g id="a_node10"><a xlink:href="../../de/dbb/classSyncObject.html" target="_top" xlink:title="SyncObject">
<polygon fill="none" stroke="black" points="1053.5,-95.5 1053.5,-114.5 1120.5,-114.5 1120.5,-95.5 1053.5,-95.5"/>
<text text-anchor="middle" x="1087" y="-102.5" font-family="FreeSans" font-size="10.00">SyncObject</text>
</a>
</g>
</g>
<!-- Node10&#45;&gt;Node1 -->
<g id="edge22" class="edge"><title>Node10&#45;&gt;Node1</title>
<path fill="none" stroke="#9a32cd" stroke-dasharray="5,2" d="M1130.69,-110.379C1155.4,-115.019 1186.21,-123.532 1210,-139 1245.87,-162.32 1273.71,-206.791 1284.79,-226.356"/>
<polygon fill="#9a32cd" stroke="#9a32cd" points="1130.97,-106.875 1120.52,-108.619 1129.77,-113.772 1130.97,-106.875"/>
<text text-anchor="middle" x="1185" y="-142" font-family="FreeSans" font-size="10.00"> syncobject</text>
</g>
<!-- Node10&#45;&gt;Node8 -->
<g id="edge12" class="edge"><title>Node10&#45;&gt;Node8</title>
<path fill="none" stroke="#9a32cd" stroke-dasharray="5,2" d="M1130.83,-105.456C1154.69,-106.804 1184.6,-110.333 1210,-119 1345.5,-165.241 1466.71,-301.866 1498.12,-339.377"/>
<polygon fill="#9a32cd" stroke="#9a32cd" points="1130.83,-101.952 1120.68,-104.992 1130.51,-108.945 1130.83,-101.952"/>
<text text-anchor="middle" x="1291" y="-203" font-family="FreeSans" font-size="10.00"> MasterSync</text>
</g>
<!-- Node11 -->
<g id="node11" class="node"><title>Node11</title>
<g id="a_node11"><a xlink:href="../../d9/d24/classPHObject.html" target="_top" xlink:title="PHObject">
<polygon fill="none" stroke="black" points="838.5,-95.5 838.5,-114.5 897.5,-114.5 897.5,-95.5 838.5,-95.5"/>
<text text-anchor="middle" x="868" y="-102.5" font-family="FreeSans" font-size="10.00">PHObject</text>
</a>
</g>
</g>
<!-- Node11&#45;&gt;Node10 -->
<g id="edge13" class="edge"><title>Node11&#45;&gt;Node10</title>
<path fill="none" stroke="midnightblue" d="M907.813,-99.6833C949.244,-97.6727 1014.18,-97.7774 1053.16,-99.9973"/>
<polygon fill="midnightblue" stroke="midnightblue" points="907.606,-96.1893 897.816,-100.24 907.995,-103.178 907.606,-96.1893"/>
</g>
<!-- Node11&#45;&gt;Node10 -->
<g id="edge15" class="edge"><title>Node11&#45;&gt;Node10</title>
<path fill="none" stroke="midnightblue" d="M907.813,-110.317C949.244,-112.327 1014.18,-112.223 1053.16,-110.003"/>
<polygon fill="midnightblue" stroke="midnightblue" points="907.995,-106.822 897.816,-109.76 907.606,-113.811 907.995,-106.822"/>
</g>
<!-- Node12 -->
<g id="node12" class="node"><title>Node12</title>
<polygon fill="none" stroke="#bfbfbf" points="568.5,-76.5 568.5,-95.5 619.5,-95.5 619.5,-76.5 568.5,-76.5"/>
<text text-anchor="middle" x="594" y="-83.5" font-family="FreeSans" font-size="10.00">TObject</text>
</g>
<!-- Node12&#45;&gt;Node11 -->
<g id="edge14" class="edge"><title>Node12&#45;&gt;Node11</title>
<path fill="none" stroke="midnightblue" d="M629.779,-88.4294C684.041,-92.2198 787.83,-99.4697 838.182,-102.987"/>
<polygon fill="midnightblue" stroke="midnightblue" points="629.838,-84.9251 619.618,-87.7196 629.35,-91.908 629.838,-84.9251"/>
</g>
<!-- Node13 -->
<g id="node13" class="node"><title>Node13</title>
<polygon fill="none" stroke="#bfbfbf" points="1246.5,-49.5 1246.5,-68.5 1335.5,-68.5 1335.5,-49.5 1246.5,-49.5"/>
<text text-anchor="middle" x="1291" y="-56.5" font-family="FreeSans" font-size="10.00">std::vector&lt; int &gt;</text>
</g>
<!-- Node13&#45;&gt;Node8 -->
<g id="edge16" class="edge"><title>Node13&#45;&gt;Node8</title>
<path fill="none" stroke="#9a32cd" stroke-dasharray="5,2" d="M1345.82,-53.5803C1375.23,-53.6052 1410.37,-58.9361 1434,-80 1474.51,-116.11 1499.34,-295.76 1504.84,-339.424"/>
<polygon fill="#9a32cd" stroke="#9a32cd" points="1345.61,-50.0835 1335.68,-53.7756 1345.75,-57.0822 1345.61,-50.0835"/>
<text text-anchor="middle" x="1403" y="-83" font-family="FreeSans" font-size="10.00"> iretInManager</text>
</g>
<!-- Node14&#45;&gt;Node2 -->
<g id="edge18" class="edge"><title>Node14&#45;&gt;Node2</title>
<path fill="none" stroke="#9a32cd" stroke-dasharray="5,2" d="M520.295,-342.421C585.223,-340.337 689.88,-338.677 780,-345 884.772,-352.351 910.416,-360.637 1014,-378 1022.04,-379.347 1030.56,-380.896 1038.81,-382.461"/>
<polygon fill="#9a32cd" stroke="#9a32cd" points="520.102,-338.925 510.224,-342.758 520.336,-345.921 520.102,-338.925"/>
<text text-anchor="middle" x="729" y="-370" font-family="FreeSans" font-size="10.00"> filelist</text>
<text text-anchor="middle" x="729" y="-359" font-family="FreeSans" font-size="10.00">filelist_copy</text>
<text text-anchor="middle" x="729" y="-348" font-family="FreeSans" font-size="10.00">filelist_opened</text>
</g>
<!-- Node15&#45;&gt;Node1 -->
<g id="edge20" class="edge"><title>Node15&#45;&gt;Node1</title>
<path fill="none" stroke="#9a32cd" stroke-dasharray="5,2" d="M789.959,-308.634C881.996,-312.576 1062.88,-313.822 1210,-275 1234.05,-268.653 1259.49,-254.864 1275.06,-245.504"/>
<polygon fill="#9a32cd" stroke="#9a32cd" points="789.869,-305.126 779.721,-308.168 789.551,-312.119 789.869,-305.126"/>
<text text-anchor="middle" x="985" y="-312" font-family="FreeSans" font-size="10.00"> branchread</text>
</g>
<!-- Node16 -->
<g id="node16" class="node"><title>Node16</title>
<g id="a_node16"><a xlink:href="../../d5/dca/classPHCompositeNode.html" target="_top" xlink:title="PHCompositeNode">
<polygon fill="none" stroke="black" points="817.5,-201.5 817.5,-220.5 918.5,-220.5 918.5,-201.5 817.5,-201.5"/>
<text text-anchor="middle" x="868" y="-208.5" font-family="FreeSans" font-size="10.00">PHCompositeNode</text>
</a>
</g>
</g>
<!-- Node16&#45;&gt;Node1 -->
<g id="edge24" class="edge"><title>Node16&#45;&gt;Node1</title>
<path fill="none" stroke="#9a32cd" stroke-dasharray="5,2" d="M929.162,-213.688C984.493,-216.255 1068.8,-220.404 1142,-225 1170.54,-226.792 1202.16,-229.098 1228.82,-231.136"/>
<polygon fill="#9a32cd" stroke="#9a32cd" points="928.986,-210.176 918.836,-213.212 928.664,-217.169 928.986,-210.176"/>
<text text-anchor="middle" x="1087" y="-239" font-family="FreeSans" font-size="10.00"> dstNode</text>
<text text-anchor="middle" x="1087" y="-228" font-family="FreeSans" font-size="10.00">runNode</text>
</g>
<!-- Node17&#45;&gt;Node16 -->
<g id="edge25" class="edge"><title>Node17&#45;&gt;Node16</title>
<path fill="none" stroke="midnightblue" d="M368.997,-201.834C380.159,-203.927 392.539,-205.909 404,-207 553.844,-221.258 732.193,-216.798 817.179,-213.374"/>
<polygon fill="midnightblue" stroke="midnightblue" points="369.636,-198.393 359.149,-199.903 368.288,-205.262 369.636,-198.393"/>
</g>
<!-- Node17&#45;&gt;Node17 -->
<g id="edge26" class="edge"><title>Node17&#45;&gt;Node17</title>
<path fill="none" stroke="#9a32cd" stroke-dasharray="5,2" d="M314.223,-213.4C315.41,-218.315 321.336,-222 332,-222 349.062,-222 353.995,-212.565 346.796,-203.757"/>
<polygon fill="#9a32cd" stroke="#9a32cd" points="317.594,-214.345 317.204,-203.757 310.907,-212.278 317.594,-214.345"/>
<text text-anchor="middle" x="332" y="-225" font-family="FreeSans" font-size="10.00"> parent</text>
</g>
<!-- Node18 -->
<g id="node18" class="node"><title>Node18</title>
<g id="a_node18"><a xlink:href="../../d6/d86/classPHPointerList.html" target="_top" xlink:title="PHPointerList\&lt; PHNode \&gt;">
<polygon fill="none" stroke="black" points="528,-175.5 528,-194.5 660,-194.5 660,-175.5 528,-175.5"/>
<text text-anchor="middle" x="594" y="-182.5" font-family="FreeSans" font-size="10.00">PHPointerList&lt; PHNode &gt;</text>
</a>
</g>
</g>
<!-- Node17&#45;&gt;Node18 -->
<g id="edge29" class="edge"><title>Node17&#45;&gt;Node18</title>
<path fill="none" stroke="#9a32cd" stroke-dasharray="5,2" d="M369.431,-192.739C410.396,-191.321 477.729,-188.99 527.814,-187.256"/>
<polygon fill="#9a32cd" stroke="#9a32cd" points="369.234,-189.244 359.361,-193.088 369.476,-196.239 369.234,-189.244"/>
<text text-anchor="middle" x="457" y="-195" font-family="FreeSans" font-size="10.00"> items</text>
</g>
<!-- Node18&#45;&gt;Node16 -->
<g id="edge28" class="edge"><title>Node18&#45;&gt;Node16</title>
<path fill="none" stroke="#9a32cd" stroke-dasharray="5,2" d="M670.391,-188.959C703.996,-191.069 744.034,-194.055 780,-198 792.145,-199.332 805.195,-201.101 817.399,-202.904"/>
<polygon fill="#9a32cd" stroke="#9a32cd" points="670.376,-185.452 660.18,-188.333 669.947,-192.439 670.376,-185.452"/>
<text text-anchor="middle" x="729" y="-201" font-family="FreeSans" font-size="10.00"> subNodes</text>
</g>
<!-- Node19&#45;&gt;Node1 -->
<g id="edge30" class="edge"><title>Node19&#45;&gt;Node1</title>
<path fill="none" stroke="#9a32cd" stroke-dasharray="5,2" d="M655.149,-133.652C765.246,-151.326 1006.57,-190.098 1210,-223 1216.95,-224.123 1224.23,-225.304 1231.45,-226.476"/>
<polygon fill="#9a32cd" stroke="#9a32cd" points="655.655,-130.189 645.227,-132.059 654.546,-137.1 655.655,-130.189"/>
<text text-anchor="middle" x="985" y="-194" font-family="FreeSans" font-size="10.00"> IManager</text>
</g>
<!-- Node20&#45;&gt;Node19 -->
<g id="edge31" class="edge"><title>Node20&#45;&gt;Node19</title>
<path fill="none" stroke="midnightblue" d="M381.913,-61.5336C418.528,-64.9038 469.125,-72.7489 510,-91 519.254,-95.1322 518.977,-100.386 528,-105 535.327,-108.747 543.507,-111.866 551.526,-114.419"/>
<polygon fill="midnightblue" stroke="midnightblue" points="381.759,-58.0084 371.501,-60.6606 381.174,-64.984 381.759,-58.0084"/>
</g>
<!-- Node21&#45;&gt;Node19 -->
<g id="edge33" class="edge"><title>Node21&#45;&gt;Node19</title>
<path fill="none" stroke="#9a32cd" stroke-dasharray="5,2" d="M395.886,-12.3987C433.218,-14.1843 479.135,-22.6628 510,-50 529.254,-67.0534 509.525,-87.1054 528,-105 532.307,-109.172 537.478,-112.435 542.997,-114.987"/>
<polygon fill="#9a32cd" stroke="#9a32cd" points="395.712,-8.89128 385.603,-12.0624 395.484,-15.8875 395.712,-8.89128"/>
<text text-anchor="middle" x="457" y="-53" font-family="FreeSans" font-size="10.00"> fBranches</text>
</g>
<!-- Node22&#45;&gt;Node19 -->
<g id="edge35" class="edge"><title>Node22&#45;&gt;Node19</title>
<path fill="none" stroke="#9a32cd" stroke-dasharray="5,2" d="M395.572,-143.743C440.65,-139.235 500.685,-133.232 542.672,-129.033"/>
<polygon fill="#9a32cd" stroke="#9a32cd" points="395.217,-140.261 385.615,-144.739 395.914,-147.226 395.217,-140.261"/>
<text text-anchor="middle" x="457" y="-146" font-family="FreeSans" font-size="10.00"> objectToRead</text>
</g>
</g>
</svg>
