<?xml version="1.0" encoding="UTF-8" standalone="no"?>
<!DOCTYPE svg PUBLIC "-//W3C//DTD SVG 1.1//EN"
 "http://www.w3.org/Graphics/SVG/1.1/DTD/svg11.dtd">
<!-- Generated by graphviz version 2.36.0 (20140111.2315)
 -->
<!-- Title: fun4all/interfaces/SHit.h Pages: 1 -->
<svg width="700pt" height="312pt"
 viewBox="0.00 0.00 699.77 312.00" xmlns="http://www.w3.org/2000/svg" xmlns:xlink="http://www.w3.org/1999/xlink">
<g id="graph0" class="graph" transform="scale(1 1) rotate(0) translate(4 308)">
<title>fun4all/interfaces/SHit.h</title>
<!-- Node1 -->
<g id="node1" class="node"><title>Node1</title>
<polygon fill="#bfbfbf" stroke="black" points="281.198,-273 281.198,-303 372.198,-303 372.198,-273 281.198,-273"/>
<text text-anchor="start" x="289.198" y="-291" font-family="FreeSans" font-size="10.00">fun4all/interfaces</text>
<text text-anchor="middle" x="326.698" y="-280" font-family="FreeSans" font-size="10.00">/SHit.h</text>
</g>
<!-- Node2 -->
<g id="node2" class="node"><title>Node2</title>
<g id="a_node2"><a xlink:href="../../d1/de9/SHitMap_8h.html" target="_top" xlink:title="fun4all/interfaces\l/SHitMap.h">
<polygon fill="none" stroke="black" points="133.198,-205 133.198,-235 224.198,-235 224.198,-205 133.198,-205"/>
<text text-anchor="start" x="141.198" y="-223" font-family="FreeSans" font-size="10.00">fun4all/interfaces</text>
<text text-anchor="middle" x="178.698" y="-212" font-family="FreeSans" font-size="10.00">/SHitMap.h</text>
</a>
</g>
</g>
<!-- Node1&#45;&gt;Node2 -->
<g id="edge1" class="edge"><title>Node1&#45;&gt;Node2</title>
<path fill="none" stroke="midnightblue" d="M285.77,-268.749C261.876,-258.093 232.19,-244.855 210.141,-235.022"/>
<polygon fill="midnightblue" stroke="midnightblue" points="284.389,-271.965 294.948,-272.841 287.24,-265.572 284.389,-271.965"/>
</g>
<!-- Node6 -->
<g id="node6" class="node"><title>Node6</title>
<g id="a_node6"><a xlink:href="../../d3/d47/SEvent__v1_8C.html" target="_top" xlink:title="fun4all/interfaces\l/SEvent_v1.C">
<polygon fill="none" stroke="black" points="42.1977,-1 42.1977,-31 133.198,-31 133.198,-1 42.1977,-1"/>
<text text-anchor="start" x="50.1977" y="-19" font-family="FreeSans" font-size="10.00">fun4all/interfaces</text>
<text text-anchor="middle" x="87.6977" y="-8" font-family="FreeSans" font-size="10.00">/SEvent_v1.C</text>
</a>
</g>
</g>
<!-- Node1&#45;&gt;Node6 -->
<g id="edge12" class="edge"><title>Node1&#45;&gt;Node6</title>
<path fill="none" stroke="midnightblue" d="M270.843,-286.866C193.211,-283.132 57.41,-262.703 14.6977,-168 -3.57474,-127.485 -5.84531,-107.412 14.6977,-68 23.2014,-51.6856 39.5732,-39.5185 54.6606,-31.1681"/>
<polygon fill="midnightblue" stroke="midnightblue" points="270.801,-290.367 280.934,-287.273 271.084,-283.372 270.801,-290.367"/>
</g>
<!-- Node7 -->
<g id="node7" class="node"><title>Node7</title>
<g id="a_node7"><a xlink:href="../../dd/d12/ReadMySql_8C.html" target="_top" xlink:title="fun4all/modules/ReadMySql.C">
<polygon fill="none" stroke="black" points="307.698,-6.5 307.698,-25.5 453.698,-25.5 453.698,-6.5 307.698,-6.5"/>
<text text-anchor="middle" x="380.698" y="-13.5" font-family="FreeSans" font-size="10.00">fun4all/modules/ReadMySql.C</text>
</a>
</g>
</g>
<!-- Node1&#45;&gt;Node7 -->
<g id="edge21" class="edge"><title>Node1&#45;&gt;Node7</title>
<path fill="none" stroke="midnightblue" d="M340.776,-263.914C354.069,-240.662 373.068,-203.276 380.698,-168 392.169,-114.961 385.089,-48.9685 381.959,-25.649"/>
<polygon fill="midnightblue" stroke="midnightblue" points="337.678,-262.279 335.651,-272.678 343.721,-265.812 337.678,-262.279"/>
</g>
<!-- Node8 -->
<g id="node8" class="node"><title>Node8</title>
<g id="a_node8"><a xlink:href="../../dd/d9c/SHitMap_8C.html" target="_top" xlink:title="fun4all/interfaces\l/SHitMap.C">
<polygon fill="none" stroke="black" points="24.1977,-137 24.1977,-167 115.198,-167 115.198,-137 24.1977,-137"/>
<text text-anchor="start" x="32.1977" y="-155" font-family="FreeSans" font-size="10.00">fun4all/interfaces</text>
<text text-anchor="middle" x="69.6977" y="-144" font-family="FreeSans" font-size="10.00">/SHitMap.C</text>
</a>
</g>
</g>
<!-- Node1&#45;&gt;Node8 -->
<g id="edge18" class="edge"><title>Node1&#45;&gt;Node8</title>
<path fill="none" stroke="midnightblue" d="M271.04,-283.992C227.435,-279.205 167.093,-266.985 123.698,-236 99.0741,-218.418 82.7845,-185.781 75.0082,-167.1"/>
<polygon fill="midnightblue" stroke="midnightblue" points="270.889,-287.494 281.187,-285.006 271.585,-280.529 270.889,-287.494"/>
</g>
<!-- Node9 -->
<g id="node9" class="node"><title>Node9</title>
<g id="a_node9"><a xlink:href="../../d3/d56/SHitMap__v1_8h.html" target="_top" xlink:title="fun4all/interfaces\l/SHitMap_v1.h">
<polygon fill="none" stroke="black" points="281.198,-137 281.198,-167 372.198,-167 372.198,-137 281.198,-137"/>
<text text-anchor="start" x="289.198" y="-155" font-family="FreeSans" font-size="10.00">fun4all/interfaces</text>
<text text-anchor="middle" x="326.698" y="-144" font-family="FreeSans" font-size="10.00">/SHitMap_v1.h</text>
</a>
</g>
</g>
<!-- Node1&#45;&gt;Node9 -->
<g id="edge19" class="edge"><title>Node1&#45;&gt;Node9</title>
<path fill="none" stroke="midnightblue" d="M326.698,-262.524C326.698,-234.619 326.698,-189.94 326.698,-167.237"/>
<polygon fill="midnightblue" stroke="midnightblue" points="323.198,-262.66 326.698,-272.66 330.198,-262.66 323.198,-262.66"/>
</g>
<!-- Node10 -->
<g id="node10" class="node"><title>Node10</title>
<g id="a_node10"><a xlink:href="../../db/d6c/SHitMap__v1_8C.html" target="_top" xlink:title="fun4all/interfaces\l/SHitMap_v1.C">
<polygon fill="none" stroke="black" points="242.198,-69 242.198,-99 333.198,-99 333.198,-69 242.198,-69"/>
<text text-anchor="start" x="250.198" y="-87" font-family="FreeSans" font-size="10.00">fun4all/interfaces</text>
<text text-anchor="middle" x="287.698" y="-76" font-family="FreeSans" font-size="10.00">/SHitMap_v1.C</text>
</a>
</g>
</g>
<!-- Node1&#45;&gt;Node10 -->
<g id="edge20" class="edge"><title>Node1&#45;&gt;Node10</title>
<path fill="none" stroke="midnightblue" d="M312.361,-263.951C298.824,-240.727 279.474,-203.361 271.698,-168 266.402,-143.921 274.948,-115.701 281.449,-99.1444"/>
<polygon fill="midnightblue" stroke="midnightblue" points="309.452,-265.907 317.58,-272.703 315.464,-262.321 309.452,-265.907"/>
</g>
<!-- Node11 -->
<g id="node11" class="node"><title>Node11</title>
<g id="a_node11"><a xlink:href="../../dd/d2f/SimpleReadMySql_8C.html" target="_top" xlink:title="fun4all/modules/SimpleRead\lMySql.C">
<polygon fill="none" stroke="black" points="427.698,-69 427.698,-99 567.698,-99 567.698,-69 427.698,-69"/>
<text text-anchor="start" x="435.698" y="-87" font-family="FreeSans" font-size="10.00">fun4all/modules/SimpleRead</text>
<text text-anchor="middle" x="497.698" y="-76" font-family="FreeSans" font-size="10.00">MySql.C</text>
</a>
</g>
</g>
<!-- Node1&#45;&gt;Node11 -->
<g id="edge22" class="edge"><title>Node1&#45;&gt;Node11</title>
<path fill="none" stroke="midnightblue" d="M369.505,-268.218C385.041,-259.939 401.903,-249.088 414.698,-236 455.685,-194.074 482.564,-127.834 492.911,-99.0866"/>
<polygon fill="midnightblue" stroke="midnightblue" points="367.863,-265.127 360.551,-272.793 371.048,-271.36 367.863,-265.127"/>
</g>
<!-- Node12 -->
<g id="node12" class="node"><title>Node12</title>
<g id="a_node12"><a xlink:href="../../d1/d3b/SHit_8C.html" target="_top" xlink:title="fun4all/interfaces\l/SHit.C">
<polygon fill="none" stroke="black" points="467.198,-205 467.198,-235 558.198,-235 558.198,-205 467.198,-205"/>
<text text-anchor="start" x="475.198" y="-223" font-family="FreeSans" font-size="10.00">fun4all/interfaces</text>
<text text-anchor="middle" x="512.698" y="-212" font-family="FreeSans" font-size="10.00">/SHit.C</text>
</a>
</g>
</g>
<!-- Node1&#45;&gt;Node12 -->
<g id="edge13" class="edge"><title>Node1&#45;&gt;Node12</title>
<path fill="none" stroke="midnightblue" d="M376.151,-269.452C406.507,-258.68 444.858,-245.072 473.182,-235.022"/>
<polygon fill="midnightblue" stroke="midnightblue" points="374.853,-266.199 366.599,-272.841 377.194,-272.796 374.853,-266.199"/>
</g>
<!-- Node13 -->
<g id="node13" class="node"><title>Node13</title>
<g id="a_node13"><a xlink:href="../../d0/d11/SHit__v1_8h.html" target="_top" xlink:title="fun4all/interfaces\l/SHit_v1.h">
<polygon fill="none" stroke="black" points="574.198,-137 574.198,-167 665.198,-167 665.198,-137 574.198,-137"/>
<text text-anchor="start" x="582.198" y="-155" font-family="FreeSans" font-size="10.00">fun4all/interfaces</text>
<text text-anchor="middle" x="619.698" y="-144" font-family="FreeSans" font-size="10.00">/SHit_v1.h</text>
</a>
</g>
</g>
<!-- Node1&#45;&gt;Node13 -->
<g id="edge14" class="edge"><title>Node1&#45;&gt;Node13</title>
<path fill="none" stroke="midnightblue" d="M382.386,-287.086C434.347,-284.583 511.88,-273.983 566.698,-236 591.431,-218.862 607.207,-186.058 614.651,-167.23"/>
<polygon fill="midnightblue" stroke="midnightblue" points="382.203,-283.59 372.349,-287.484 382.48,-290.585 382.203,-283.59"/>
</g>
<!-- Node3 -->
<g id="node3" class="node"><title>Node3</title>
<g id="a_node3"><a xlink:href="../../db/d3d/SEvent_8h.html" target="_top" xlink:title="fun4all/interfaces\l/SEvent.h">
<polygon fill="none" stroke="black" points="133.198,-137 133.198,-167 224.198,-167 224.198,-137 133.198,-137"/>
<text text-anchor="start" x="141.198" y="-155" font-family="FreeSans" font-size="10.00">fun4all/interfaces</text>
<text text-anchor="middle" x="178.698" y="-144" font-family="FreeSans" font-size="10.00">/SEvent.h</text>
</a>
</g>
</g>
<!-- Node2&#45;&gt;Node3 -->
<g id="edge2" class="edge"><title>Node2&#45;&gt;Node3</title>
<path fill="none" stroke="midnightblue" d="M178.698,-194.532C178.698,-185.361 178.698,-175.245 178.698,-167.293"/>
<polygon fill="midnightblue" stroke="midnightblue" points="175.198,-194.679 178.698,-204.679 182.198,-194.679 175.198,-194.679"/>
</g>
<!-- Node2&#45;&gt;Node8 -->
<g id="edge7" class="edge"><title>Node2&#45;&gt;Node8</title>
<path fill="none" stroke="midnightblue" d="M146.701,-199.626C129.51,-189.217 108.695,-176.613 93.0423,-167.135"/>
<polygon fill="midnightblue" stroke="midnightblue" points="144.948,-202.656 155.314,-204.841 148.573,-196.668 144.948,-202.656"/>
</g>
<!-- Node2&#45;&gt;Node9 -->
<g id="edge8" class="edge"><title>Node2&#45;&gt;Node9</title>
<path fill="none" stroke="midnightblue" d="M219.625,-200.749C243.519,-190.093 273.205,-176.855 295.255,-167.022"/>
<polygon fill="midnightblue" stroke="midnightblue" points="218.155,-197.572 210.447,-204.841 221.006,-203.965 218.155,-197.572"/>
</g>
<!-- Node4 -->
<g id="node4" class="node"><title>Node4</title>
<g id="a_node4"><a xlink:href="../../d4/d9a/SEvent_8C.html" target="_top" xlink:title="fun4all/interfaces\l/SEvent.C">
<polygon fill="none" stroke="black" points="24.1977,-69 24.1977,-99 115.198,-99 115.198,-69 24.1977,-69"/>
<text text-anchor="start" x="32.1977" y="-87" font-family="FreeSans" font-size="10.00">fun4all/interfaces</text>
<text text-anchor="middle" x="69.6977" y="-76" font-family="FreeSans" font-size="10.00">/SEvent.C</text>
</a>
</g>
</g>
<!-- Node3&#45;&gt;Node4 -->
<g id="edge3" class="edge"><title>Node3&#45;&gt;Node4</title>
<path fill="none" stroke="midnightblue" d="M146.701,-131.626C129.51,-121.217 108.695,-108.613 93.0423,-99.1352"/>
<polygon fill="midnightblue" stroke="midnightblue" points="144.948,-134.656 155.314,-136.841 148.573,-128.668 144.948,-134.656"/>
</g>
<!-- Node5 -->
<g id="node5" class="node"><title>Node5</title>
<g id="a_node5"><a xlink:href="../../de/d46/SEvent__v1_8h.html" target="_top" xlink:title="fun4all/interfaces\l/SEvent_v1.h">
<polygon fill="none" stroke="black" points="133.198,-69 133.198,-99 224.198,-99 224.198,-69 133.198,-69"/>
<text text-anchor="start" x="141.198" y="-87" font-family="FreeSans" font-size="10.00">fun4all/interfaces</text>
<text text-anchor="middle" x="178.698" y="-76" font-family="FreeSans" font-size="10.00">/SEvent_v1.h</text>
</a>
</g>
</g>
<!-- Node3&#45;&gt;Node5 -->
<g id="edge4" class="edge"><title>Node3&#45;&gt;Node5</title>
<path fill="none" stroke="midnightblue" d="M178.698,-126.532C178.698,-117.361 178.698,-107.245 178.698,-99.2931"/>
<polygon fill="midnightblue" stroke="midnightblue" points="175.198,-126.679 178.698,-136.679 182.198,-126.679 175.198,-126.679"/>
</g>
<!-- Node5&#45;&gt;Node6 -->
<g id="edge5" class="edge"><title>Node5&#45;&gt;Node6</title>
<path fill="none" stroke="midnightblue" d="M150.57,-62.5994C136.467,-52.3712 119.745,-40.2428 107.092,-31.0663"/>
<polygon fill="midnightblue" stroke="midnightblue" points="148.802,-65.6411 158.952,-68.679 152.912,-59.9745 148.802,-65.6411"/>
</g>
<!-- Node5&#45;&gt;Node7 -->
<g id="edge6" class="edge"><title>Node5&#45;&gt;Node7</title>
<path fill="none" stroke="midnightblue" d="M231.775,-65.6578C271.259,-52.7573 323.461,-35.701 354.417,-25.5868"/>
<polygon fill="midnightblue" stroke="midnightblue" points="230.45,-62.4086 222.032,-68.8413 232.624,-69.0624 230.45,-62.4086"/>
</g>
<!-- Node9&#45;&gt;Node7 -->
<g id="edge10" class="edge"><title>Node9&#45;&gt;Node7</title>
<path fill="none" stroke="midnightblue" d="M336.27,-127.246C348.484,-96.9389 369.004,-46.0178 377.181,-25.7275"/>
<polygon fill="midnightblue" stroke="midnightblue" points="332.968,-126.076 332.477,-136.66 339.461,-128.693 332.968,-126.076"/>
</g>
<!-- Node9&#45;&gt;Node10 -->
<g id="edge9" class="edge"><title>Node9&#45;&gt;Node10</title>
<path fill="none" stroke="midnightblue" d="M313.118,-128.019C307.473,-118.467 301.098,-107.677 296.144,-99.2931"/>
<polygon fill="midnightblue" stroke="midnightblue" points="310.135,-129.85 318.235,-136.679 316.161,-126.289 310.135,-129.85"/>
</g>
<!-- Node9&#45;&gt;Node11 -->
<g id="edge11" class="edge"><title>Node9&#45;&gt;Node11</title>
<path fill="none" stroke="midnightblue" d="M372.89,-133.171C400.681,-122.445 435.554,-108.985 461.368,-99.0218"/>
<polygon fill="midnightblue" stroke="midnightblue" points="371.45,-129.975 363.382,-136.841 373.971,-136.506 371.45,-129.975"/>
</g>
<!-- Node13&#45;&gt;Node7 -->
<g id="edge16" class="edge"><title>Node13&#45;&gt;Node7</title>
<path fill="none" stroke="midnightblue" d="M652.879,-131.332C677.41,-114.339 703.682,-89.2409 685.698,-68 656.557,-33.5826 534.311,-22.3741 453.71,-18.7353"/>
<polygon fill="midnightblue" stroke="midnightblue" points="650.752,-128.543 644.35,-136.985 654.619,-134.377 650.752,-128.543"/>
</g>
<!-- Node13&#45;&gt;Node11 -->
<g id="edge17" class="edge"><title>Node13&#45;&gt;Node11</title>
<path fill="none" stroke="midnightblue" d="M584.677,-132.055C565.286,-121.564 541.587,-108.743 523.826,-99.1352"/>
<polygon fill="midnightblue" stroke="midnightblue" points="583.065,-135.162 593.526,-136.841 586.396,-129.005 583.065,-135.162"/>
</g>
<!-- Node14 -->
<g id="node14" class="node"><title>Node14</title>
<g id="a_node14"><a xlink:href="../../da/dc5/SHit__v1_8C.html" target="_top" xlink:title="fun4all/interfaces\l/SHit_v1.C">
<polygon fill="none" stroke="black" points="586.198,-69 586.198,-99 677.198,-99 677.198,-69 586.198,-69"/>
<text text-anchor="start" x="594.198" y="-87" font-family="FreeSans" font-size="10.00">fun4all/interfaces</text>
<text text-anchor="middle" x="631.698" y="-76" font-family="FreeSans" font-size="10.00">/SHit_v1.C</text>
</a>
</g>
</g>
<!-- Node13&#45;&gt;Node14 -->
<g id="edge15" class="edge"><title>Node13&#45;&gt;Node14</title>
<path fill="none" stroke="midnightblue" d="M624.092,-126.831C625.774,-117.581 627.637,-107.331 629.099,-99.2931"/>
<polygon fill="midnightblue" stroke="midnightblue" points="620.647,-126.214 622.302,-136.679 627.534,-127.466 620.647,-126.214"/>
</g>
</g>
</svg>
