<?xml version="1.0" encoding="UTF-8" standalone="no"?>
<!DOCTYPE svg PUBLIC "-//W3C//DTD SVG 1.1//EN"
 "http://www.w3.org/Graphics/SVG/1.1/DTD/svg11.dtd">
<!-- Generated by graphviz version 2.36.0 (20140111.2315)
 -->
<!-- Title: fun4all/fun4all/Fun4AllInputManager.h Pages: 1 -->
<svg width="1070pt" height="244pt"
 viewBox="0.00 0.00 1070.00 244.00" xmlns="http://www.w3.org/2000/svg" xmlns:xlink="http://www.w3.org/1999/xlink">
<g id="graph0" class="graph" transform="scale(1 1) rotate(0) translate(4 240)">
<title>fun4all/fun4all/Fun4AllInputManager.h</title>
<!-- Node1 -->
<g id="node1" class="node"><title>Node1</title>
<polygon fill="#bfbfbf" stroke="black" points="529,-205 529,-235 663,-235 663,-205 529,-205"/>
<text text-anchor="start" x="537" y="-223" font-family="FreeSans" font-size="10.00">fun4all/fun4all/Fun4AllInput</text>
<text text-anchor="middle" x="596" y="-212" font-family="FreeSans" font-size="10.00">Manager.h</text>
</g>
<!-- Node2 -->
<g id="node2" class="node"><title>Node2</title>
<g id="a_node2"><a xlink:href="../../dd/de7/Fun4AllDstInputManager_8h.html" target="_top" xlink:title="fun4all/fun4all/Fun4AllDst\lInputManager.h">
<polygon fill="none" stroke="black" points="144,-137 144,-167 272,-167 272,-137 144,-137"/>
<text text-anchor="start" x="152" y="-155" font-family="FreeSans" font-size="10.00">fun4all/fun4all/Fun4AllDst</text>
<text text-anchor="middle" x="208" y="-144" font-family="FreeSans" font-size="10.00">InputManager.h</text>
</a>
</g>
</g>
<!-- Node1&#45;&gt;Node2 -->
<g id="edge1" class="edge"><title>Node1&#45;&gt;Node2</title>
<path fill="none" stroke="midnightblue" d="M518.886,-207.443C455.017,-197.649 361.945,-182.862 281,-168 278.073,-167.463 275.083,-166.901 272.064,-166.323"/>
<polygon fill="midnightblue" stroke="midnightblue" points="518.465,-210.92 528.88,-208.972 519.524,-204 518.465,-210.92"/>
</g>
<!-- Node6 -->
<g id="node6" class="node"><title>Node6</title>
<g id="a_node6"><a xlink:href="../../d8/d8f/Fun4AllDummyInputManager_8h.html" target="_top" xlink:title="fun4all/fun4all/Fun4AllDummy\lInputManager.h">
<polygon fill="none" stroke="black" points="290,-137 290,-167 436,-167 436,-137 290,-137"/>
<text text-anchor="start" x="298" y="-155" font-family="FreeSans" font-size="10.00">fun4all/fun4all/Fun4AllDummy</text>
<text text-anchor="middle" x="363" y="-144" font-family="FreeSans" font-size="10.00">InputManager.h</text>
</a>
</g>
</g>
<!-- Node1&#45;&gt;Node6 -->
<g id="edge5" class="edge"><title>Node1&#45;&gt;Node6</title>
<path fill="none" stroke="midnightblue" d="M536.304,-202.091C497.98,-191.235 448.797,-177.303 412.622,-167.056"/>
<polygon fill="midnightblue" stroke="midnightblue" points="535.726,-205.564 546.301,-204.922 537.634,-198.829 535.726,-205.564"/>
</g>
<!-- Node8 -->
<g id="node8" class="node"><title>Node8</title>
<g id="a_node8"><a xlink:href="../../d0/d56/Fun4AllInputManager_8cc.html" target="_top" xlink:title="fun4all/fun4all/Fun4AllInput\lManager.cc">
<polygon fill="none" stroke="black" points="454,-137 454,-167 588,-167 588,-137 454,-137"/>
<text text-anchor="start" x="462" y="-155" font-family="FreeSans" font-size="10.00">fun4all/fun4all/Fun4AllInput</text>
<text text-anchor="middle" x="521" y="-144" font-family="FreeSans" font-size="10.00">Manager.cc</text>
</a>
</g>
</g>
<!-- Node1&#45;&gt;Node8 -->
<g id="edge7" class="edge"><title>Node1&#45;&gt;Node8</title>
<path fill="none" stroke="midnightblue" d="M572.157,-198.018C560.676,-187.915 547.215,-176.07 536.984,-167.066"/>
<polygon fill="midnightblue" stroke="midnightblue" points="569.907,-200.7 579.726,-204.679 574.531,-195.445 569.907,-200.7"/>
</g>
<!-- Node9 -->
<g id="node9" class="node"><title>Node9</title>
<g id="a_node9"><a xlink:href="../../da/d64/Fun4AllPrdfInputManager_8h.html" target="_top" xlink:title="fun4all/fun4all/Fun4AllPrdf\lInputManager.h">
<polygon fill="none" stroke="black" points="606.5,-137 606.5,-167 737.5,-167 737.5,-137 606.5,-137"/>
<text text-anchor="start" x="614.5" y="-155" font-family="FreeSans" font-size="10.00">fun4all/fun4all/Fun4AllPrdf</text>
<text text-anchor="middle" x="672" y="-144" font-family="FreeSans" font-size="10.00">InputManager.h</text>
</a>
</g>
</g>
<!-- Node1&#45;&gt;Node9 -->
<g id="edge8" class="edge"><title>Node1&#45;&gt;Node9</title>
<path fill="none" stroke="midnightblue" d="M620.161,-198.018C631.795,-187.915 645.435,-176.07 655.802,-167.066"/>
<polygon fill="midnightblue" stroke="midnightblue" points="617.746,-195.479 612.491,-204.679 622.336,-200.765 617.746,-195.479"/>
</g>
<!-- Node11 -->
<g id="node11" class="node"><title>Node11</title>
<g id="a_node11"><a xlink:href="../../d8/d7a/Fun4AllServer_8cc.html" target="_top" xlink:title="fun4all/fun4all/Fun4AllServer.cc">
<polygon fill="none" stroke="black" points="756,-142.5 756,-161.5 910,-161.5 910,-142.5 756,-142.5"/>
<text text-anchor="middle" x="833" y="-149.5" font-family="FreeSans" font-size="10.00">fun4all/fun4all/Fun4AllServer.cc</text>
</a>
</g>
</g>
<!-- Node1&#45;&gt;Node11 -->
<g id="edge10" class="edge"><title>Node1&#45;&gt;Node11</title>
<path fill="none" stroke="midnightblue" d="M656.25,-202.221C702.912,-189.227 765.612,-171.766 802.428,-161.514"/>
<polygon fill="midnightblue" stroke="midnightblue" points="655.246,-198.868 646.552,-204.922 657.124,-205.611 655.246,-198.868"/>
</g>
<!-- Node12 -->
<g id="node12" class="node"><title>Node12</title>
<g id="a_node12"><a xlink:href="../../df/d03/Fun4AllSyncManager_8cc.html" target="_top" xlink:title="fun4all/fun4all/Fun4AllSync\lManager.cc">
<polygon fill="none" stroke="black" points="928,-137 928,-167 1062,-167 1062,-137 928,-137"/>
<text text-anchor="start" x="936" y="-155" font-family="FreeSans" font-size="10.00">fun4all/fun4all/Fun4AllSync</text>
<text text-anchor="middle" x="995" y="-144" font-family="FreeSans" font-size="10.00">Manager.cc</text>
</a>
</g>
</g>
<!-- Node1&#45;&gt;Node12 -->
<g id="edge11" class="edge"><title>Node1&#45;&gt;Node12</title>
<path fill="none" stroke="midnightblue" d="M673.49,-207.616C739.008,-197.787 835.301,-182.862 919,-168 921.913,-167.483 924.887,-166.944 927.889,-166.39"/>
<polygon fill="midnightblue" stroke="midnightblue" points="672.618,-204.207 663.246,-209.149 673.654,-211.13 672.618,-204.207"/>
</g>
<!-- Node3 -->
<g id="node3" class="node"><title>Node3</title>
<g id="a_node3"><a xlink:href="../../d3/d53/Fun4AllDstInputManager_8cc.html" target="_top" xlink:title="fun4all/fun4all/Fun4AllDst\lInputManager.cc">
<polygon fill="none" stroke="black" points="0,-69 0,-99 128,-99 128,-69 0,-69"/>
<text text-anchor="start" x="8" y="-87" font-family="FreeSans" font-size="10.00">fun4all/fun4all/Fun4AllDst</text>
<text text-anchor="middle" x="64" y="-76" font-family="FreeSans" font-size="10.00">InputManager.cc</text>
</a>
</g>
</g>
<!-- Node2&#45;&gt;Node3 -->
<g id="edge2" class="edge"><title>Node2&#45;&gt;Node3</title>
<path fill="none" stroke="midnightblue" d="M167.902,-132.622C144.791,-122.029 116.183,-108.917 94.8405,-99.1352"/>
<polygon fill="midnightblue" stroke="midnightblue" points="166.559,-135.856 177.108,-136.841 169.476,-129.493 166.559,-135.856"/>
</g>
<!-- Node4 -->
<g id="node4" class="node"><title>Node4</title>
<g id="a_node4"><a xlink:href="../../d2/dab/Fun4AllNoSyncDstInputManager_8h.html" target="_top" xlink:title="fun4all/fun4all/Fun4AllNo\lSyncDstInputManager.h">
<polygon fill="none" stroke="black" points="146.5,-69 146.5,-99 271.5,-99 271.5,-69 146.5,-69"/>
<text text-anchor="start" x="154.5" y="-87" font-family="FreeSans" font-size="10.00">fun4all/fun4all/Fun4AllNo</text>
<text text-anchor="middle" x="209" y="-76" font-family="FreeSans" font-size="10.00">SyncDstInputManager.h</text>
</a>
</g>
</g>
<!-- Node2&#45;&gt;Node4 -->
<g id="edge3" class="edge"><title>Node2&#45;&gt;Node4</title>
<path fill="none" stroke="midnightblue" d="M208.371,-126.532C208.51,-117.361 208.663,-107.245 208.783,-99.2931"/>
<polygon fill="midnightblue" stroke="midnightblue" points="204.869,-126.627 208.217,-136.679 211.868,-126.733 204.869,-126.627"/>
</g>
<!-- Node5 -->
<g id="node5" class="node"><title>Node5</title>
<g id="a_node5"><a xlink:href="../../d9/d35/Fun4AllNoSyncDstInputManager_8cc.html" target="_top" xlink:title="fun4all/fun4all/Fun4AllNo\lSyncDstInputManager.cc">
<polygon fill="none" stroke="black" points="146.5,-1 146.5,-31 271.5,-31 271.5,-1 146.5,-1"/>
<text text-anchor="start" x="154.5" y="-19" font-family="FreeSans" font-size="10.00">fun4all/fun4all/Fun4AllNo</text>
<text text-anchor="middle" x="209" y="-8" font-family="FreeSans" font-size="10.00">SyncDstInputManager.cc</text>
</a>
</g>
</g>
<!-- Node4&#45;&gt;Node5 -->
<g id="edge4" class="edge"><title>Node4&#45;&gt;Node5</title>
<path fill="none" stroke="midnightblue" d="M209,-58.5322C209,-49.3606 209,-39.2449 209,-31.2931"/>
<polygon fill="midnightblue" stroke="midnightblue" points="205.5,-58.6789 209,-68.679 212.5,-58.679 205.5,-58.6789"/>
</g>
<!-- Node7 -->
<g id="node7" class="node"><title>Node7</title>
<g id="a_node7"><a xlink:href="../../dd/dec/Fun4AllDummyInputManager_8cc.html" target="_top" xlink:title="fun4all/fun4all/Fun4AllDummy\lInputManager.cc">
<polygon fill="none" stroke="black" points="290,-69 290,-99 436,-99 436,-69 290,-69"/>
<text text-anchor="start" x="298" y="-87" font-family="FreeSans" font-size="10.00">fun4all/fun4all/Fun4AllDummy</text>
<text text-anchor="middle" x="363" y="-76" font-family="FreeSans" font-size="10.00">InputManager.cc</text>
</a>
</g>
</g>
<!-- Node6&#45;&gt;Node7 -->
<g id="edge6" class="edge"><title>Node6&#45;&gt;Node7</title>
<path fill="none" stroke="midnightblue" d="M363,-126.532C363,-117.361 363,-107.245 363,-99.2931"/>
<polygon fill="midnightblue" stroke="midnightblue" points="359.5,-126.679 363,-136.679 366.5,-126.679 359.5,-126.679"/>
</g>
<!-- Node10 -->
<g id="node10" class="node"><title>Node10</title>
<g id="a_node10"><a xlink:href="../../da/d7b/Fun4AllPrdfInputManager_8cc.html" target="_top" xlink:title="fun4all/fun4all/Fun4AllPrdf\lInputManager.cc">
<polygon fill="none" stroke="black" points="606.5,-69 606.5,-99 737.5,-99 737.5,-69 606.5,-69"/>
<text text-anchor="start" x="614.5" y="-87" font-family="FreeSans" font-size="10.00">fun4all/fun4all/Fun4AllPrdf</text>
<text text-anchor="middle" x="672" y="-76" font-family="FreeSans" font-size="10.00">InputManager.cc</text>
</a>
</g>
</g>
<!-- Node9&#45;&gt;Node10 -->
<g id="edge9" class="edge"><title>Node9&#45;&gt;Node10</title>
<path fill="none" stroke="midnightblue" d="M672,-126.532C672,-117.361 672,-107.245 672,-99.2931"/>
<polygon fill="midnightblue" stroke="midnightblue" points="668.5,-126.679 672,-136.679 675.5,-126.679 668.5,-126.679"/>
</g>
</g>
</svg>
