<?xml version="1.0" encoding="UTF-8" standalone="no"?>
<!DOCTYPE svg PUBLIC "-//W3C//DTD SVG 1.1//EN"
 "http://www.w3.org/Graphics/SVG/1.1/DTD/svg11.dtd">
<!-- Generated by graphviz version 2.36.0 (20140111.2315)
 -->
<!-- Title: fun4all/phool/PHMessage.cc Pages: 1 -->
<svg width="153pt" height="140pt"
 viewBox="0.00 0.00 153.00 140.00" xmlns="http://www.w3.org/2000/svg" xmlns:xlink="http://www.w3.org/1999/xlink">
<g id="graph0" class="graph" transform="scale(1 1) rotate(0) translate(4 136)">
<title>fun4all/phool/PHMessage.cc</title>
<!-- Node1 -->
<g id="node1" class="node"><title>Node1</title>
<polygon fill="#bfbfbf" stroke="black" points="4.5,-112.5 4.5,-131.5 145.5,-131.5 145.5,-112.5 4.5,-112.5"/>
<text text-anchor="middle" x="75" y="-119.5" font-family="FreeSans" font-size="10.00">fun4all/phool/PHMessage.cc</text>
</g>
<!-- Node2 -->
<g id="node2" class="node"><title>Node2</title>
<g id="a_node2"><a xlink:href="../../d5/d6f/phool_8h.html" target="_top" xlink:title="phool.h">
<polygon fill="none" stroke="black" points="-0.5,-56.5 -0.5,-75.5 46.5,-75.5 46.5,-56.5 -0.5,-56.5"/>
<text text-anchor="middle" x="23" y="-63.5" font-family="FreeSans" font-size="10.00">phool.h</text>
</a>
</g>
</g>
<!-- Node1&#45;&gt;Node2 -->
<g id="edge1" class="edge"><title>Node1&#45;&gt;Node2</title>
<path fill="none" stroke="midnightblue" d="M66.4133,-112.083C58.841,-104.22 47.6218,-92.5688 38.4856,-83.0813"/>
<polygon fill="midnightblue" stroke="midnightblue" points="40.8845,-80.5266 31.427,-75.7511 35.8423,-85.3821 40.8845,-80.5266"/>
</g>
<!-- Node3 -->
<g id="node3" class="node"><title>Node3</title>
<polygon fill="none" stroke="#bfbfbf" points="22,-0.5 22,-19.5 76,-19.5 76,-0.5 22,-0.5"/>
<text text-anchor="middle" x="49" y="-7.5" font-family="FreeSans" font-size="10.00">iostream</text>
</g>
<!-- Node1&#45;&gt;Node3 -->
<g id="edge3" class="edge"><title>Node1&#45;&gt;Node3</title>
<path fill="none" stroke="midnightblue" d="M72.9598,-112.368C68.764,-94.617 59.0848,-53.6664 53.3958,-29.5974"/>
<polygon fill="midnightblue" stroke="midnightblue" points="56.7372,-28.5182 51.0307,-19.5914 49.9249,-30.1284 56.7372,-28.5182"/>
</g>
<!-- Node4 -->
<g id="node4" class="node"><title>Node4</title>
<polygon fill="none" stroke="#bfbfbf" points="103.5,-56.5 103.5,-75.5 144.5,-75.5 144.5,-56.5 103.5,-56.5"/>
<text text-anchor="middle" x="124" y="-63.5" font-family="FreeSans" font-size="10.00">string</text>
</g>
<!-- Node1&#45;&gt;Node4 -->
<g id="edge4" class="edge"><title>Node1&#45;&gt;Node4</title>
<path fill="none" stroke="midnightblue" d="M83.0914,-112.083C90.1554,-104.298 100.588,-92.8015 109.149,-83.3665"/>
<polygon fill="midnightblue" stroke="midnightblue" points="111.931,-85.5087 116.059,-75.7511 106.747,-80.8047 111.931,-85.5087"/>
</g>
<!-- Node2&#45;&gt;Node3 -->
<g id="edge2" class="edge"><title>Node2&#45;&gt;Node3</title>
<path fill="none" stroke="midnightblue" d="M27.2934,-56.083C30.8523,-48.6913 36.0225,-37.9533 40.4243,-28.8111"/>
<polygon fill="midnightblue" stroke="midnightblue" points="43.6018,-30.2795 44.7865,-19.7511 37.2948,-27.2427 43.6018,-30.2795"/>
</g>
</g>
</svg>
