<?xml version="1.0" encoding="UTF-8" standalone="no"?>
<!DOCTYPE svg PUBLIC "-//W3C//DTD SVG 1.1//EN"
 "http://www.w3.org/Graphics/SVG/1.1/DTD/svg11.dtd">
<!-- Generated by graphviz version 2.36.0 (20140111.2315)
 -->
<!-- Title: fun4all/fun4all/Fun4AllFileOutStream.cc Pages: 1 -->
<svg width="1432pt" height="264pt"
 viewBox="0.00 0.00 1432.44 264.00" xmlns="http://www.w3.org/2000/svg" xmlns:xlink="http://www.w3.org/1999/xlink">
<g id="graph0" class="graph" transform="scale(1 1) rotate(0) translate(4 260)">
<title>fun4all/fun4all/Fun4AllFileOutStream.cc</title>
<!-- Node1 -->
<g id="node1" class="node"><title>Node1</title>
<polygon fill="#bfbfbf" stroke="black" points="1031.44,-225 1031.44,-255 1159.44,-255 1159.44,-225 1031.44,-225"/>
<text text-anchor="start" x="1039.44" y="-243" font-family="FreeSans" font-size="10.00">fun4all/fun4all/Fun4AllFile</text>
<text text-anchor="middle" x="1095.44" y="-232" font-family="FreeSans" font-size="10.00">OutStream.cc</text>
</g>
<!-- Node2 -->
<g id="node2" class="node"><title>Node2</title>
<g id="a_node2"><a xlink:href="../../df/d18/Fun4AllFileOutStream_8h.html" target="_top" xlink:title="Fun4AllFileOutStream.h">
<polygon fill="none" stroke="black" points="396.435,-168.5 396.435,-187.5 516.435,-187.5 516.435,-168.5 396.435,-168.5"/>
<text text-anchor="middle" x="456.435" y="-175.5" font-family="FreeSans" font-size="10.00">Fun4AllFileOutStream.h</text>
</a>
</g>
</g>
<!-- Node1&#45;&gt;Node2 -->
<g id="edge1" class="edge"><title>Node1&#45;&gt;Node2</title>
<path fill="none" stroke="midnightblue" d="M1031.24,-232.972C910.877,-221.671 652.182,-197.38 527.067,-185.632"/>
<polygon fill="midnightblue" stroke="midnightblue" points="527.121,-182.122 516.838,-184.672 526.467,-189.091 527.121,-182.122"/>
</g>
<!-- Node12 -->
<g id="node12" class="node"><title>Node12</title>
<polygon fill="none" stroke="#bfbfbf" points="805.435,-56.5 805.435,-75.5 859.435,-75.5 859.435,-56.5 805.435,-56.5"/>
<text text-anchor="middle" x="832.435" y="-63.5" font-family="FreeSans" font-size="10.00">iostream</text>
</g>
<!-- Node1&#45;&gt;Node12 -->
<g id="edge35" class="edge"><title>Node1&#45;&gt;Node12</title>
<path fill="none" stroke="midnightblue" d="M1031.4,-235.384C990.415,-230.113 938.22,-217.557 901.435,-188 871.84,-164.22 881.663,-144.737 862.435,-112 856.907,-102.588 850.214,-92.4448 844.553,-84.1751"/>
<polygon fill="midnightblue" stroke="midnightblue" points="847.297,-81.9902 838.718,-75.7733 841.547,-85.9833 847.297,-81.9902"/>
</g>
<!-- Node13 -->
<g id="node13" class="node"><title>Node13</title>
<g id="a_node13"><a xlink:href="../../dc/da2/Fun4AllServer_8h.html" target="_top" xlink:title="Fun4AllServer.h">
<polygon fill="none" stroke="black" points="720.435,-168.5 720.435,-187.5 806.435,-187.5 806.435,-168.5 720.435,-168.5"/>
<text text-anchor="middle" x="763.435" y="-175.5" font-family="FreeSans" font-size="10.00">Fun4AllServer.h</text>
</a>
</g>
</g>
<!-- Node1&#45;&gt;Node13 -->
<g id="edge15" class="edge"><title>Node1&#45;&gt;Node13</title>
<path fill="none" stroke="midnightblue" d="M1031.42,-227.431C969.03,-216.156 875.255,-199.208 816.783,-188.641"/>
<polygon fill="midnightblue" stroke="midnightblue" points="817.11,-185.144 806.647,-186.809 815.865,-192.032 817.11,-185.144"/>
</g>
<!-- Node19 -->
<g id="node19" class="node"><title>Node19</title>
<polygon fill="none" stroke="#bfbfbf" points="910.935,-168.5 910.935,-187.5 1005.94,-187.5 1005.94,-168.5 910.935,-168.5"/>
<text text-anchor="middle" x="958.435" y="-175.5" font-family="FreeSans" font-size="10.00">Event/olzoBuffer.h</text>
</g>
<!-- Node1&#45;&gt;Node19 -->
<g id="edge30" class="edge"><title>Node1&#45;&gt;Node19</title>
<path fill="none" stroke="midnightblue" d="M1063.31,-224.933C1040.3,-214.855 1009.58,-201.399 987.337,-191.657"/>
<polygon fill="midnightblue" stroke="midnightblue" points="988.636,-188.406 978.072,-187.6 985.828,-194.818 988.636,-188.406"/>
</g>
<!-- Node20 -->
<g id="node20" class="node"><title>Node20</title>
<polygon fill="none" stroke="#bfbfbf" points="1023.94,-168.5 1023.94,-187.5 1100.94,-187.5 1100.94,-168.5 1023.94,-168.5"/>
<text text-anchor="middle" x="1062.44" y="-175.5" font-family="FreeSans" font-size="10.00">Event/Event.h</text>
</g>
<!-- Node1&#45;&gt;Node20 -->
<g id="edge31" class="edge"><title>Node1&#45;&gt;Node20</title>
<path fill="none" stroke="midnightblue" d="M1087.61,-224.781C1082.97,-216.332 1077.04,-205.548 1072.1,-196.569"/>
<polygon fill="midnightblue" stroke="midnightblue" points="1075.12,-194.806 1067.24,-187.731 1068.99,-198.179 1075.12,-194.806"/>
</g>
<!-- Node21 -->
<g id="node21" class="node"><title>Node21</title>
<g id="a_node21"><a xlink:href="../../d5/d6f/phool_8h.html" target="_top" xlink:title="phool/phool.h">
<polygon fill="none" stroke="black" points="910.435,-112.5 910.435,-131.5 984.435,-131.5 984.435,-112.5 910.435,-112.5"/>
<text text-anchor="middle" x="947.435" y="-119.5" font-family="FreeSans" font-size="10.00">phool/phool.h</text>
</a>
</g>
</g>
<!-- Node1&#45;&gt;Node21 -->
<g id="edge32" class="edge"><title>Node1&#45;&gt;Node21</title>
<path fill="none" stroke="midnightblue" d="M1104.24,-224.72C1112.54,-209.228 1121.98,-184.504 1109.44,-168 1102.31,-158.629 1039.85,-143.202 994.615,-133.071"/>
<polygon fill="midnightblue" stroke="midnightblue" points="995.199,-129.615 984.678,-130.868 993.683,-136.449 995.199,-129.615"/>
</g>
<!-- Node22 -->
<g id="node22" class="node"><title>Node22</title>
<polygon fill="none" stroke="#bfbfbf" points="1157.44,-168.5 1157.44,-187.5 1203.44,-187.5 1203.44,-168.5 1157.44,-168.5"/>
<text text-anchor="middle" x="1180.44" y="-175.5" font-family="FreeSans" font-size="10.00">cstring</text>
</g>
<!-- Node1&#45;&gt;Node22 -->
<g id="edge34" class="edge"><title>Node1&#45;&gt;Node22</title>
<path fill="none" stroke="midnightblue" d="M1115.58,-224.781C1129.03,-215.286 1146.66,-202.843 1160.14,-193.327"/>
<polygon fill="midnightblue" stroke="midnightblue" points="1162.16,-196.182 1168.31,-187.556 1158.13,-190.463 1162.16,-196.182"/>
</g>
<!-- Node23 -->
<g id="node23" class="node"><title>Node23</title>
<polygon fill="none" stroke="#bfbfbf" points="1221.94,-168.5 1221.94,-187.5 1286.94,-187.5 1286.94,-168.5 1221.94,-168.5"/>
<text text-anchor="middle" x="1254.44" y="-175.5" font-family="FreeSans" font-size="10.00">sys/types.h</text>
</g>
<!-- Node1&#45;&gt;Node23 -->
<g id="edge36" class="edge"><title>Node1&#45;&gt;Node23</title>
<path fill="none" stroke="midnightblue" d="M1132.71,-224.933C1159.9,-214.674 1196.36,-200.915 1222.27,-191.137"/>
<polygon fill="midnightblue" stroke="midnightblue" points="1223.53,-194.405 1231.65,-187.6 1221.05,-187.856 1223.53,-194.405"/>
</g>
<!-- Node24 -->
<g id="node24" class="node"><title>Node24</title>
<polygon fill="none" stroke="#bfbfbf" points="1304.94,-168.5 1304.94,-187.5 1363.94,-187.5 1363.94,-168.5 1304.94,-168.5"/>
<text text-anchor="middle" x="1334.44" y="-175.5" font-family="FreeSans" font-size="10.00">sys/stat.h</text>
</g>
<!-- Node1&#45;&gt;Node24 -->
<g id="edge37" class="edge"><title>Node1&#45;&gt;Node24</title>
<path fill="none" stroke="midnightblue" d="M1151.47,-224.933C1195.64,-213.844 1256.1,-198.665 1295.22,-188.845"/>
<polygon fill="midnightblue" stroke="midnightblue" points="1296.08,-192.239 1304.92,-186.409 1294.37,-185.449 1296.08,-192.239"/>
</g>
<!-- Node25 -->
<g id="node25" class="node"><title>Node25</title>
<polygon fill="none" stroke="#bfbfbf" points="1381.94,-168.5 1381.94,-187.5 1424.94,-187.5 1424.94,-168.5 1381.94,-168.5"/>
<text text-anchor="middle" x="1403.44" y="-175.5" font-family="FreeSans" font-size="10.00">fcntl.h</text>
</g>
<!-- Node1&#45;&gt;Node25 -->
<g id="edge38" class="edge"><title>Node1&#45;&gt;Node25</title>
<path fill="none" stroke="midnightblue" d="M1159.63,-229.06C1213.7,-220.26 1293.25,-206.314 1371.76,-187.953"/>
<polygon fill="midnightblue" stroke="midnightblue" points="1372.9,-191.281 1381.83,-185.573 1371.29,-184.469 1372.9,-191.281"/>
</g>
<!-- Node3 -->
<g id="node3" class="node"><title>Node3</title>
<g id="a_node3"><a xlink:href="../../d4/d07/Fun4AllEventOutStream_8h.html" target="_top" xlink:title="Fun4AllEventOutStream.h">
<polygon fill="none" stroke="black" points="216.935,-112.5 216.935,-131.5 345.935,-131.5 345.935,-112.5 216.935,-112.5"/>
<text text-anchor="middle" x="281.435" y="-119.5" font-family="FreeSans" font-size="10.00">Fun4AllEventOutStream.h</text>
</a>
</g>
</g>
<!-- Node2&#45;&gt;Node3 -->
<g id="edge2" class="edge"><title>Node2&#45;&gt;Node3</title>
<path fill="none" stroke="midnightblue" d="M428.706,-168.444C399.01,-159.28 351.719,-144.688 318.766,-134.519"/>
<polygon fill="midnightblue" stroke="midnightblue" points="319.622,-131.121 309.035,-131.516 317.558,-137.809 319.622,-131.121"/>
</g>
<!-- Node5 -->
<g id="node5" class="node"><title>Node5</title>
<polygon fill="none" stroke="#bfbfbf" points="473.935,-0.5 473.935,-19.5 514.935,-19.5 514.935,-0.5 473.935,-0.5"/>
<text text-anchor="middle" x="494.435" y="-7.5" font-family="FreeSans" font-size="10.00">string</text>
</g>
<!-- Node2&#45;&gt;Node5 -->
<g id="edge13" class="edge"><title>Node2&#45;&gt;Node5</title>
<path fill="none" stroke="midnightblue" d="M457.815,-168.422C461.087,-148.52 469.839,-97.722 480.435,-56 482.704,-47.0675 485.687,-37.2835 488.316,-29.1268"/>
<polygon fill="midnightblue" stroke="midnightblue" points="491.666,-30.1429 491.479,-19.5497 485.019,-27.9477 491.666,-30.1429"/>
</g>
<!-- Node7 -->
<g id="node7" class="node"><title>Node7</title>
<polygon fill="none" stroke="#bfbfbf" points="322.435,-56.5 322.435,-75.5 428.435,-75.5 428.435,-56.5 322.435,-56.5"/>
<text text-anchor="middle" x="375.435" y="-63.5" font-family="FreeSans" font-size="10.00">Event/phenixTypes.h</text>
</g>
<!-- Node2&#45;&gt;Node7 -->
<g id="edge12" class="edge"><title>Node2&#45;&gt;Node7</title>
<path fill="none" stroke="midnightblue" d="M450.079,-168.368C436.653,-150.135 405.203,-107.426 387.714,-83.6752"/>
<polygon fill="midnightblue" stroke="midnightblue" points="390.51,-81.5685 381.762,-75.5914 384.873,-85.7192 390.51,-81.5685"/>
</g>
<!-- Node2&#45;&gt;Node12 -->
<g id="edge14" class="edge"><title>Node2&#45;&gt;Node12</title>
<path fill="none" stroke="midnightblue" d="M516.721,-169.124C563.892,-162.041 630.765,-149.96 687.435,-132 730.956,-118.207 778.803,-95.0846 807.196,-80.458"/>
<polygon fill="midnightblue" stroke="midnightblue" points="809.138,-83.3929 816.389,-75.668 805.903,-77.1851 809.138,-83.3929"/>
</g>
<!-- Node4 -->
<g id="node4" class="node"><title>Node4</title>
<g id="a_node4"><a xlink:href="../../d2/de7/Fun4AllBase_8h.html" target="_top" xlink:title="Fun4AllBase.h">
<polygon fill="none" stroke="black" points="614.435,-56.5 614.435,-75.5 694.435,-75.5 694.435,-56.5 614.435,-56.5"/>
<text text-anchor="middle" x="654.435" y="-63.5" font-family="FreeSans" font-size="10.00">Fun4AllBase.h</text>
</a>
</g>
</g>
<!-- Node3&#45;&gt;Node4 -->
<g id="edge3" class="edge"><title>Node3&#45;&gt;Node4</title>
<path fill="none" stroke="midnightblue" d="M340.538,-112.444C413.322,-101.907 535.691,-84.1909 604.163,-74.278"/>
<polygon fill="midnightblue" stroke="midnightblue" points="604.873,-77.7119 614.268,-72.8151 603.87,-70.7841 604.873,-77.7119"/>
</g>
<!-- Node3&#45;&gt;Node5 -->
<g id="edge11" class="edge"><title>Node3&#45;&gt;Node5</title>
<path fill="none" stroke="midnightblue" d="M216.771,-119.819C143.616,-116.953 31.1498,-107.405 4.43541,-76 -1.32404,-69.2294 -1.55569,-62.5665 4.43541,-56 35.438,-22.0198 361.106,-13.3642 463.679,-11.4728"/>
<polygon fill="midnightblue" stroke="midnightblue" points="463.771,-14.9718 473.708,-11.2966 463.648,-7.97293 463.771,-14.9718"/>
</g>
<!-- Node3&#45;&gt;Node7 -->
<g id="edge6" class="edge"><title>Node3&#45;&gt;Node7</title>
<path fill="none" stroke="midnightblue" d="M296.538,-112.324C311.339,-103.822 334.13,-90.7288 351.418,-80.7975"/>
<polygon fill="midnightblue" stroke="midnightblue" points="353.443,-83.6707 360.37,-75.6545 349.956,-77.6009 353.443,-83.6707"/>
</g>
<!-- Node8 -->
<g id="node8" class="node"><title>Node8</title>
<polygon fill="none" stroke="#bfbfbf" points="211.935,-56.5 211.935,-75.5 304.935,-75.5 304.935,-56.5 211.935,-56.5"/>
<text text-anchor="middle" x="258.435" y="-63.5" font-family="FreeSans" font-size="10.00">boost/version.hpp</text>
</g>
<!-- Node3&#45;&gt;Node8 -->
<g id="edge7" class="edge"><title>Node3&#45;&gt;Node8</title>
<path fill="none" stroke="midnightblue" d="M277.637,-112.083C274.523,-104.77 270.013,-94.1814 266.146,-85.1034"/>
<polygon fill="midnightblue" stroke="midnightblue" points="269.301,-83.5798 262.163,-75.7511 262.861,-86.3229 269.301,-83.5798"/>
</g>
<!-- Node9 -->
<g id="node9" class="node"><title>Node9</title>
<polygon fill="none" stroke="#bfbfbf" points="13.9354,-56.5 13.9354,-75.5 144.935,-75.5 144.935,-56.5 13.9354,-56.5"/>
<text text-anchor="middle" x="79.4354" y="-63.5" font-family="FreeSans" font-size="10.00">boost/numeric/interval.hpp</text>
</g>
<!-- Node3&#45;&gt;Node9 -->
<g id="edge8" class="edge"><title>Node3&#45;&gt;Node9</title>
<path fill="none" stroke="midnightblue" d="M249.428,-112.444C214.707,-103.162 159.148,-88.3093 121.059,-78.127"/>
<polygon fill="midnightblue" stroke="midnightblue" points="121.858,-74.7178 111.293,-75.5164 120.05,-81.4803 121.858,-74.7178"/>
</g>
<!-- Node10 -->
<g id="node10" class="node"><title>Node10</title>
<polygon fill="none" stroke="#bfbfbf" points="522.935,-56.5 522.935,-75.5 557.935,-75.5 557.935,-56.5 522.935,-56.5"/>
<text text-anchor="middle" x="540.435" y="-63.5" font-family="FreeSans" font-size="10.00">map</text>
</g>
<!-- Node3&#45;&gt;Node10 -->
<g id="edge9" class="edge"><title>Node3&#45;&gt;Node10</title>
<path fill="none" stroke="midnightblue" d="M322.475,-112.444C375.692,-101.348 467.086,-82.2929 512.761,-72.7699"/>
<polygon fill="midnightblue" stroke="midnightblue" points="513.747,-76.1398 522.822,-70.6723 512.318,-69.2871 513.747,-76.1398"/>
</g>
<!-- Node11 -->
<g id="node11" class="node"><title>Node11</title>
<polygon fill="none" stroke="#bfbfbf" points="163.435,-56.5 163.435,-75.5 193.435,-75.5 193.435,-56.5 163.435,-56.5"/>
<text text-anchor="middle" x="178.435" y="-63.5" font-family="FreeSans" font-size="10.00">set</text>
</g>
<!-- Node3&#45;&gt;Node11 -->
<g id="edge10" class="edge"><title>Node3&#45;&gt;Node11</title>
<path fill="none" stroke="midnightblue" d="M264.887,-112.324C248.055,-103.499 221.791,-89.7302 202.627,-79.6827"/>
<polygon fill="midnightblue" stroke="midnightblue" points="204.082,-76.4942 193.601,-74.9507 200.832,-82.6938 204.082,-76.4942"/>
</g>
<!-- Node4&#45;&gt;Node5 -->
<g id="edge4" class="edge"><title>Node4&#45;&gt;Node5</title>
<path fill="none" stroke="midnightblue" d="M629.083,-56.4435C600.741,-46.8782 554.871,-31.3969 524.68,-21.2075"/>
<polygon fill="midnightblue" stroke="midnightblue" points="525.684,-17.8526 515.09,-17.971 523.446,-24.4851 525.684,-17.8526"/>
</g>
<!-- Node6 -->
<g id="node6" class="node"><title>Node6</title>
<polygon fill="none" stroke="#bfbfbf" points="631.935,-0.5 631.935,-19.5 676.935,-19.5 676.935,-0.5 631.935,-0.5"/>
<text text-anchor="middle" x="654.435" y="-7.5" font-family="FreeSans" font-size="10.00">climits</text>
</g>
<!-- Node4&#45;&gt;Node6 -->
<g id="edge5" class="edge"><title>Node4&#45;&gt;Node6</title>
<path fill="none" stroke="midnightblue" d="M654.435,-56.083C654.435,-49.0059 654.435,-38.8611 654.435,-29.9865"/>
<polygon fill="midnightblue" stroke="midnightblue" points="657.936,-29.751 654.435,-19.7511 650.936,-29.7511 657.936,-29.751"/>
</g>
<!-- Node13&#45;&gt;Node4 -->
<g id="edge16" class="edge"><title>Node13&#45;&gt;Node4</title>
<path fill="none" stroke="midnightblue" d="M754.882,-168.368C736.576,-149.894 693.371,-106.293 670.036,-82.7436"/>
<polygon fill="midnightblue" stroke="midnightblue" points="672.474,-80.2312 662.949,-75.5914 667.501,-85.1583 672.474,-80.2312"/>
</g>
<!-- Node13&#45;&gt;Node5 -->
<g id="edge28" class="edge"><title>Node13&#45;&gt;Node5</title>
<path fill="none" stroke="midnightblue" d="M720.01,-173.159C662.448,-167.273 564.939,-154.296 537.435,-132 506.22,-106.694 497.644,-57.037 495.303,-29.866"/>
<polygon fill="midnightblue" stroke="midnightblue" points="498.785,-29.4818 494.633,-19.7345 491.8,-29.9436 498.785,-29.4818"/>
</g>
<!-- Node13&#45;&gt;Node10 -->
<g id="edge27" class="edge"><title>Node13&#45;&gt;Node10</title>
<path fill="none" stroke="midnightblue" d="M720.04,-173.471C664.926,-168.063 574.227,-155.758 551.435,-132 539.932,-120.009 537.938,-100.712 538.368,-86.2529"/>
<polygon fill="midnightblue" stroke="midnightblue" points="541.884,-86.1479 539.097,-75.9264 534.901,-85.6552 541.884,-86.1479"/>
</g>
<!-- Node13&#45;&gt;Node12 -->
<g id="edge26" class="edge"><title>Node13&#45;&gt;Node12</title>
<path fill="none" stroke="midnightblue" d="M768.157,-168.466C775.156,-155.926 788.815,-131.858 801.435,-112 807.414,-102.592 814.435,-92.3403 820.283,-84.0013"/>
<polygon fill="midnightblue" stroke="midnightblue" points="823.143,-86.0186 826.062,-75.8337 817.428,-81.9754 823.143,-86.0186"/>
</g>
<!-- Node14 -->
<g id="node14" class="node"><title>Node14</title>
<g id="a_node14"><a xlink:href="../../d0/d59/Fun4AllHistoManager_8h.html" target="_top" xlink:title="Fun4AllHistoManager.h">
<polygon fill="none" stroke="black" points="560.435,-112.5 560.435,-131.5 678.435,-131.5 678.435,-112.5 560.435,-112.5"/>
<text text-anchor="middle" x="619.435" y="-119.5" font-family="FreeSans" font-size="10.00">Fun4AllHistoManager.h</text>
</a>
</g>
</g>
<!-- Node13&#45;&gt;Node14 -->
<g id="edge17" class="edge"><title>Node13&#45;&gt;Node14</title>
<path fill="none" stroke="midnightblue" d="M740.618,-168.444C716.604,-159.438 678.606,-145.189 651.566,-135.049"/>
<polygon fill="midnightblue" stroke="midnightblue" points="652.738,-131.751 642.146,-131.516 650.28,-138.305 652.738,-131.751"/>
</g>
<!-- Node15 -->
<g id="node15" class="node"><title>Node15</title>
<g id="a_node15"><a xlink:href="../../dc/d26/PHTimer_8h.html" target="_top" xlink:title="high precision timer ">
<polygon fill="none" stroke="black" points="1002.94,-112.5 1002.94,-131.5 1091.94,-131.5 1091.94,-112.5 1002.94,-112.5"/>
<text text-anchor="middle" x="1047.44" y="-119.5" font-family="FreeSans" font-size="10.00">phool/PHTimer.h</text>
</a>
</g>
</g>
<!-- Node13&#45;&gt;Node15 -->
<g id="edge22" class="edge"><title>Node13&#45;&gt;Node15</title>
<path fill="none" stroke="midnightblue" d="M806.569,-168.799C856.279,-159.347 938.079,-143.793 992.352,-133.474"/>
<polygon fill="midnightblue" stroke="midnightblue" points="993.316,-136.853 1002.49,-131.547 992.008,-129.976 993.316,-136.853"/>
</g>
<!-- Node18 -->
<g id="node18" class="node"><title>Node18</title>
<polygon fill="none" stroke="#bfbfbf" points="810.435,-112.5 810.435,-131.5 854.435,-131.5 854.435,-112.5 810.435,-112.5"/>
<text text-anchor="middle" x="832.435" y="-119.5" font-family="FreeSans" font-size="10.00">vector</text>
</g>
<!-- Node13&#45;&gt;Node18 -->
<g id="edge29" class="edge"><title>Node13&#45;&gt;Node18</title>
<path fill="none" stroke="midnightblue" d="M774.521,-168.324C784.921,-160.185 800.696,-147.839 813.157,-138.087"/>
<polygon fill="midnightblue" stroke="midnightblue" points="815.43,-140.753 821.148,-131.834 811.115,-135.241 815.43,-140.753"/>
</g>
<!-- Node14&#45;&gt;Node4 -->
<g id="edge18" class="edge"><title>Node14&#45;&gt;Node4</title>
<path fill="none" stroke="midnightblue" d="M625.215,-112.083C630.108,-104.534 637.263,-93.4948 643.268,-84.2298"/>
<polygon fill="midnightblue" stroke="midnightblue" points="646.261,-86.0463 648.763,-75.7511 640.387,-82.239 646.261,-86.0463"/>
</g>
<!-- Node14&#45;&gt;Node5 -->
<g id="edge21" class="edge"><title>Node14&#45;&gt;Node5</title>
<path fill="none" stroke="midnightblue" d="M613.692,-112.24C604.714,-98.9859 586.312,-73.527 566.435,-56 552.469,-43.6839 534.753,-32.565 520.39,-24.4608"/>
<polygon fill="midnightblue" stroke="midnightblue" points="521.959,-21.3297 511.509,-19.5883 518.592,-27.4668 521.959,-21.3297"/>
</g>
<!-- Node14&#45;&gt;Node10 -->
<g id="edge20" class="edge"><title>Node14&#45;&gt;Node10</title>
<path fill="none" stroke="midnightblue" d="M606.743,-112.324C594.534,-103.979 575.857,-91.2122 561.432,-81.3524"/>
<polygon fill="midnightblue" stroke="midnightblue" points="563.327,-78.4082 553.097,-75.6545 559.377,-84.1871 563.327,-78.4082"/>
</g>
<!-- Node14&#45;&gt;Node12 -->
<g id="edge19" class="edge"><title>Node14&#45;&gt;Node12</title>
<path fill="none" stroke="midnightblue" d="M653.186,-112.444C691.926,-102.622 755.267,-86.5637 795.355,-76.4007"/>
<polygon fill="midnightblue" stroke="midnightblue" points="796.43,-79.7388 805.264,-73.8886 794.71,-72.9535 796.43,-79.7388"/>
</g>
<!-- Node15&#45;&gt;Node12 -->
<g id="edge23" class="edge"><title>Node15&#45;&gt;Node12</title>
<path fill="none" stroke="midnightblue" d="M1013.37,-112.444C974.072,-102.574 909.699,-86.4057 869.269,-76.2512"/>
<polygon fill="midnightblue" stroke="midnightblue" points="870.087,-72.8481 859.536,-73.8067 868.382,-79.6373 870.087,-72.8481"/>
</g>
<!-- Node16 -->
<g id="node16" class="node"><title>Node16</title>
<polygon fill="none" stroke="#bfbfbf" points="986.435,-56.5 986.435,-75.5 1038.44,-75.5 1038.44,-56.5 986.435,-56.5"/>
<text text-anchor="middle" x="1012.44" y="-63.5" font-family="FreeSans" font-size="10.00">sstream</text>
</g>
<!-- Node15&#45;&gt;Node16 -->
<g id="edge24" class="edge"><title>Node15&#45;&gt;Node16</title>
<path fill="none" stroke="midnightblue" d="M1041.66,-112.083C1036.76,-104.534 1029.61,-93.4948 1023.6,-84.2298"/>
<polygon fill="midnightblue" stroke="midnightblue" points="1026.48,-82.239 1018.11,-75.7511 1020.61,-86.0463 1026.48,-82.239"/>
</g>
<!-- Node17 -->
<g id="node17" class="node"><title>Node17</title>
<polygon fill="none" stroke="#bfbfbf" points="1056.44,-56.5 1056.44,-75.5 1106.44,-75.5 1106.44,-56.5 1056.44,-56.5"/>
<text text-anchor="middle" x="1081.44" y="-63.5" font-family="FreeSans" font-size="10.00">unistd.h</text>
</g>
<!-- Node15&#45;&gt;Node17 -->
<g id="edge25" class="edge"><title>Node15&#45;&gt;Node17</title>
<path fill="none" stroke="midnightblue" d="M1053.05,-112.083C1057.8,-104.534 1064.75,-93.4948 1070.59,-84.2298"/>
<polygon fill="midnightblue" stroke="midnightblue" points="1073.56,-86.0783 1075.93,-75.7511 1067.64,-82.3486 1073.56,-86.0783"/>
</g>
<!-- Node21&#45;&gt;Node12 -->
<g id="edge33" class="edge"><title>Node21&#45;&gt;Node12</title>
<path fill="none" stroke="midnightblue" d="M929.213,-112.444C910.54,-103.675 881.279,-89.9355 859.818,-79.8579"/>
<polygon fill="midnightblue" stroke="midnightblue" points="861.112,-76.5988 850.572,-75.5164 858.136,-82.935 861.112,-76.5988"/>
</g>
</g>
</svg>
