<?xml version="1.0" encoding="UTF-8" standalone="no"?>
<!DOCTYPE svg PUBLIC "-//W3C//DTD SVG 1.1//EN"
 "http://www.w3.org/Graphics/SVG/1.1/DTD/svg11.dtd">
<!-- Generated by graphviz version 2.36.0 (20140111.2315)
 -->
<!-- Title: PHNodeReset::perform Pages: 1 -->
<svg width="284pt" height="142pt"
 viewBox="0.00 0.00 284.00 142.00" xmlns="http://www.w3.org/2000/svg" xmlns:xlink="http://www.w3.org/1999/xlink">
<g id="graph0" class="graph" transform="scale(1 1) rotate(0) translate(4 138)">
<title>PHNodeReset::perform</title>
<!-- Node1 -->
<g id="node1" class="node"><title>Node1</title>
<polygon fill="#bfbfbf" stroke="black" points="0.5,-57.5 0.5,-76.5 117.5,-76.5 117.5,-57.5 0.5,-57.5"/>
<text text-anchor="middle" x="59" y="-64.5" font-family="FreeSans" font-size="10.00">PHNodeReset::perform</text>
</g>
<!-- Node2 -->
<g id="node2" class="node"><title>Node2</title>
<g id="a_node2"><a xlink:href="../../dc/d82/classPHNode.html#aca3576f926a4401eddc3d88bf0ce0de3" target="_top" xlink:title="PHNode::getName">
<polygon fill="none" stroke="black" points="166,-114.5 166,-133.5 264,-133.5 264,-114.5 166,-114.5"/>
<text text-anchor="middle" x="215" y="-121.5" font-family="FreeSans" font-size="10.00">PHNode::getName</text>
</a>
</g>
</g>
<!-- Node1&#45;&gt;Node2 -->
<g id="edge1" class="edge"><title>Node1&#45;&gt;Node2</title>
<path fill="none" stroke="midnightblue" d="M82.2237,-76.5515C101.154,-84.5502 129.156,-96.0598 154,-105 160.005,-107.161 166.393,-109.325 172.676,-111.378"/>
<polygon fill="midnightblue" stroke="midnightblue" points="171.804,-114.773 182.395,-114.496 173.943,-108.108 171.804,-114.773"/>
</g>
<!-- Node3 -->
<g id="node3" class="node"><title>Node3</title>
<g id="a_node3"><a xlink:href="../../dc/d82/classPHNode.html#af8e3244a9eae5dd966a719f8847eddb6" target="_top" xlink:title="PHNode::getObjectType">
<polygon fill="none" stroke="black" points="154,-76.5 154,-95.5 276,-95.5 276,-76.5 154,-76.5"/>
<text text-anchor="middle" x="215" y="-83.5" font-family="FreeSans" font-size="10.00">PHNode::getObjectType</text>
</a>
</g>
</g>
<!-- Node1&#45;&gt;Node3 -->
<g id="edge2" class="edge"><title>Node1&#45;&gt;Node3</title>
<path fill="none" stroke="midnightblue" d="M117.782,-74.129C126.248,-75.1734 135.044,-76.2587 143.726,-77.3298"/>
<polygon fill="midnightblue" stroke="midnightblue" points="143.484,-80.8265 153.838,-78.5774 144.341,-73.8791 143.484,-80.8265"/>
</g>
<!-- Node4 -->
<g id="node4" class="node"><title>Node4</title>
<g id="a_node4"><a xlink:href="../../dc/d82/classPHNode.html#af02d191e793ed8dfee54bff11387ba3e" target="_top" xlink:title="PHNode::getResetFlag">
<polygon fill="none" stroke="black" points="157,-38.5 157,-57.5 273,-57.5 273,-38.5 157,-38.5"/>
<text text-anchor="middle" x="215" y="-45.5" font-family="FreeSans" font-size="10.00">PHNode::getResetFlag</text>
</a>
</g>
</g>
<!-- Node1&#45;&gt;Node4 -->
<g id="edge3" class="edge"><title>Node1&#45;&gt;Node4</title>
<path fill="none" stroke="midnightblue" d="M117.782,-59.871C127.284,-58.6988 137.202,-57.475 146.908,-56.2776"/>
<polygon fill="midnightblue" stroke="midnightblue" points="147.422,-59.7409 156.918,-55.0426 146.564,-52.7935 147.422,-59.7409"/>
</g>
<!-- Node5 -->
<g id="node5" class="node"><title>Node5</title>
<g id="a_node5"><a xlink:href="../../dc/d82/classPHNode.html#a4ab1f90aed955a652813bfe377087bda" target="_top" xlink:title="PHNode::getType">
<polygon fill="none" stroke="black" points="168.5,-0.5 168.5,-19.5 261.5,-19.5 261.5,-0.5 168.5,-0.5"/>
<text text-anchor="middle" x="215" y="-7.5" font-family="FreeSans" font-size="10.00">PHNode::getType</text>
</a>
</g>
</g>
<!-- Node1&#45;&gt;Node5 -->
<g id="edge4" class="edge"><title>Node1&#45;&gt;Node5</title>
<path fill="none" stroke="midnightblue" d="M82.2237,-57.4485C101.154,-49.4498 129.156,-37.9402 154,-29 160.005,-26.8392 166.393,-24.6753 172.676,-22.6223"/>
<polygon fill="midnightblue" stroke="midnightblue" points="173.943,-25.8919 182.395,-19.5038 171.804,-19.2267 173.943,-25.8919"/>
</g>
</g>
</svg>
