<?xml version="1.0" encoding="UTF-8" standalone="no"?>
<!DOCTYPE svg PUBLIC "-//W3C//DTD SVG 1.1//EN"
 "http://www.w3.org/Graphics/SVG/1.1/DTD/svg11.dtd">
<!-- Generated by graphviz version 2.36.0 (20140111.2315)
 -->
<!-- Title: Fun4AllRolloverFileOutStream Pages: 1 -->
<svg width="1056pt" height="325pt"
 viewBox="0.00 0.00 1056.00 325.00" xmlns="http://www.w3.org/2000/svg" xmlns:xlink="http://www.w3.org/1999/xlink">
<g id="graph0" class="graph" transform="scale(1 1) rotate(0) translate(4 321)">
<title>Fun4AllRolloverFileOutStream</title>
<!-- Node1 -->
<g id="node1" class="node"><title>Node1</title>
<polygon fill="#bfbfbf" stroke="black" points="900,-268.5 900,-287.5 1048,-287.5 1048,-268.5 900,-268.5"/>
<text text-anchor="middle" x="974" y="-275.5" font-family="FreeSans" font-size="10.00">Fun4AllRolloverFileOutStream</text>
</g>
<!-- Node2 -->
<g id="node2" class="node"><title>Node2</title>
<g id="a_node2"><a xlink:href="../../de/d50/classFun4AllFileOutStream.html" target="_top" xlink:title="Fun4AllFileOutStream">
<polygon fill="none" stroke="black" points="734.5,-268.5 734.5,-287.5 847.5,-287.5 847.5,-268.5 734.5,-268.5"/>
<text text-anchor="middle" x="791" y="-275.5" font-family="FreeSans" font-size="10.00">Fun4AllFileOutStream</text>
</a>
</g>
</g>
<!-- Node2&#45;&gt;Node1 -->
<g id="edge1" class="edge"><title>Node2&#45;&gt;Node1</title>
<path fill="none" stroke="midnightblue" d="M857.984,-278C871.555,-278 885.922,-278 899.733,-278"/>
<polygon fill="midnightblue" stroke="midnightblue" points="857.783,-274.5 847.783,-278 857.783,-281.5 857.783,-274.5"/>
</g>
<!-- Node3 -->
<g id="node3" class="node"><title>Node3</title>
<g id="a_node3"><a xlink:href="../../dc/dab/classFun4AllEventOutStream.html" target="_top" xlink:title="Fun4AllEventOutStream">
<polygon fill="none" stroke="black" points="508,-221.5 508,-240.5 630,-240.5 630,-221.5 508,-221.5"/>
<text text-anchor="middle" x="569" y="-228.5" font-family="FreeSans" font-size="10.00">Fun4AllEventOutStream</text>
</a>
</g>
</g>
<!-- Node3&#45;&gt;Node2 -->
<g id="edge2" class="edge"><title>Node3&#45;&gt;Node2</title>
<path fill="none" stroke="midnightblue" d="M624.672,-242.68C661.806,-250.613 710.313,-260.976 745.169,-268.422"/>
<polygon fill="midnightblue" stroke="midnightblue" points="625.031,-239.178 614.52,-240.511 623.568,-246.023 625.031,-239.178"/>
</g>
<!-- Node7 -->
<g id="node7" class="node"><title>Node7</title>
<g id="a_node7"><a xlink:href="../../d2/d4a/classFun4AllEventOutputManager.html" target="_top" xlink:title="Fun4AllEventOutputManager">
<polygon fill="none" stroke="black" points="720.5,-179.5 720.5,-198.5 861.5,-198.5 861.5,-179.5 720.5,-179.5"/>
<text text-anchor="middle" x="791" y="-186.5" font-family="FreeSans" font-size="10.00">Fun4AllEventOutputManager</text>
</a>
</g>
</g>
<!-- Node3&#45;&gt;Node7 -->
<g id="edge13" class="edge"><title>Node3&#45;&gt;Node7</title>
<path fill="none" stroke="#9a32cd" stroke-dasharray="5,2" d="M603.653,-218.066C617.246,-213.295 633.194,-208.264 648,-205 671.258,-199.873 697.041,-196.341 720.185,-193.929"/>
<polygon fill="#9a32cd" stroke="#9a32cd" points="602.443,-214.782 594.221,-221.464 604.816,-221.367 602.443,-214.782"/>
<text text-anchor="middle" x="675" y="-208" font-family="FreeSans" font-size="10.00"> outstream</text>
</g>
<!-- Node4 -->
<g id="node4" class="node"><title>Node4</title>
<g id="a_node4"><a xlink:href="../../d5/dec/classFun4AllBase.html" target="_top" xlink:title="Fun4AllBase">
<polygon fill="none" stroke="black" points="300,-125.5 300,-144.5 372,-144.5 372,-125.5 300,-125.5"/>
<text text-anchor="middle" x="336" y="-132.5" font-family="FreeSans" font-size="10.00">Fun4AllBase</text>
</a>
</g>
</g>
<!-- Node4&#45;&gt;Node3 -->
<g id="edge3" class="edge"><title>Node4&#45;&gt;Node3</title>
<path fill="none" stroke="midnightblue" d="M382.507,-133.109C414.133,-133.552 456.457,-137.745 490,-154 522.535,-169.766 549.742,-204.544 561.607,-221.429"/>
<polygon fill="midnightblue" stroke="midnightblue" points="382.226,-129.608 372.22,-133.09 382.213,-136.608 382.226,-129.608"/>
</g>
<!-- Node8 -->
<g id="node8" class="node"><title>Node8</title>
<g id="a_node8"><a xlink:href="../../d8/d77/classFun4AllOutputManager.html" target="_top" xlink:title="Fun4AllOutputManager">
<polygon fill="none" stroke="black" points="511,-79.5 511,-98.5 627,-98.5 627,-79.5 511,-79.5"/>
<text text-anchor="middle" x="569" y="-86.5" font-family="FreeSans" font-size="10.00">Fun4AllOutputManager</text>
</a>
</g>
</g>
<!-- Node4&#45;&gt;Node8 -->
<g id="edge8" class="edge"><title>Node4&#45;&gt;Node8</title>
<path fill="none" stroke="midnightblue" d="M382.03,-126.033C421.776,-118.118 479.543,-106.615 520.121,-98.5343"/>
<polygon fill="midnightblue" stroke="midnightblue" points="381.208,-122.628 372.084,-128.014 382.575,-129.493 381.208,-122.628"/>
</g>
<!-- Node5 -->
<g id="node5" class="node"><title>Node5</title>
<g id="a_node5"><a xlink:title="STL class. ">
<polygon fill="none" stroke="#bfbfbf" points="132.5,-125.5 132.5,-144.5 191.5,-144.5 191.5,-125.5 132.5,-125.5"/>
<text text-anchor="middle" x="162" y="-132.5" font-family="FreeSans" font-size="10.00">std::string</text>
</a>
</g>
</g>
<!-- Node5&#45;&gt;Node2 -->
<g id="edge16" class="edge"><title>Node5&#45;&gt;Node2</title>
<path fill="none" stroke="#9a32cd" stroke-dasharray="5,2" d="M173.13,-153.585C190.061,-182.492 227.121,-237.264 276,-260 435.087,-334.001 652.787,-305.004 745.39,-287.528"/>
<polygon fill="#9a32cd" stroke="#9a32cd" points="175.974,-151.504 167.995,-144.534 169.885,-154.958 175.974,-151.504"/>
<text text-anchor="middle" x="452" y="-309" font-family="FreeSans" font-size="10.00"> filerule</text>
</g>
<!-- Node5&#45;&gt;Node4 -->
<g id="edge4" class="edge"><title>Node5&#45;&gt;Node4</title>
<path fill="none" stroke="#9a32cd" stroke-dasharray="5,2" d="M202.107,-135C231.517,-135 271.468,-135 299.867,-135"/>
<polygon fill="#9a32cd" stroke="#9a32cd" points="201.789,-131.5 191.789,-135 201.789,-138.5 201.789,-131.5"/>
<text text-anchor="middle" x="234" y="-138" font-family="FreeSans" font-size="10.00"> ThisName</text>
</g>
<!-- Node5&#45;&gt;Node7 -->
<g id="edge14" class="edge"><title>Node5&#45;&gt;Node7</title>
<path fill="none" stroke="#9a32cd" stroke-dasharray="5,2" d="M198.808,-147.404C202.556,-148.408 206.335,-149.303 210,-150 391.679,-184.571 610.45,-189.632 720.119,-189.717"/>
<polygon fill="#9a32cd" stroke="#9a32cd" points="199.641,-144.001 189.06,-144.549 197.673,-150.719 199.641,-144.001"/>
<text text-anchor="middle" x="452" y="-185" font-family="FreeSans" font-size="10.00"> outfilerule</text>
</g>
<!-- Node5&#45;&gt;Node8 -->
<g id="edge10" class="edge"><title>Node5&#45;&gt;Node8</title>
<path fill="none" stroke="#9a32cd" stroke-dasharray="5,2" d="M181.726,-118.906C202.945,-101.848 239.363,-76.0156 276,-66 367.726,-40.9243 481.253,-64.7551 535.787,-79.423"/>
<polygon fill="#9a32cd" stroke="#9a32cd" points="179.348,-116.33 173.86,-125.393 183.801,-121.731 179.348,-116.33"/>
<text text-anchor="middle" x="336" y="-69" font-family="FreeSans" font-size="10.00"> outfilename</text>
</g>
<!-- Node10 -->
<g id="node10" class="node"><title>Node10</title>
<polygon fill="none" stroke="#bfbfbf" points="276,-86.5 276,-105.5 396,-105.5 396,-86.5 276,-86.5"/>
<text text-anchor="middle" x="336" y="-93.5" font-family="FreeSans" font-size="10.00">std::vector&lt; std::string &gt;</text>
</g>
<!-- Node5&#45;&gt;Node10 -->
<g id="edge12" class="edge"><title>Node5&#45;&gt;Node10</title>
<path fill="none" stroke="#9a32cd" stroke-dasharray="5,2" d="M200.893,-122.481C203.961,-121.597 207.025,-120.758 210,-120 231.95,-114.411 256.362,-109.451 277.745,-105.511"/>
<polygon fill="#9a32cd" stroke="#9a32cd" points="199.741,-119.172 191.175,-125.407 201.76,-125.875 199.741,-119.172"/>
<text text-anchor="middle" x="234" y="-123" font-family="FreeSans" font-size="10.00"> elements</text>
</g>
<!-- Node6 -->
<g id="node6" class="node"><title>Node6</title>
<g id="a_node6"><a xlink:title="STL class. ">
<polygon fill="none" stroke="#bfbfbf" points="0.5,-120 0.5,-150 93.5,-150 93.5,-120 0.5,-120"/>
<text text-anchor="start" x="8.5" y="-138" font-family="FreeSans" font-size="10.00">std::basic_string&lt;</text>
<text text-anchor="middle" x="47" y="-127" font-family="FreeSans" font-size="10.00"> char &gt;</text>
</a>
</g>
</g>
<!-- Node6&#45;&gt;Node5 -->
<g id="edge5" class="edge"><title>Node6&#45;&gt;Node5</title>
<path fill="none" stroke="midnightblue" d="M103.885,-135C113.778,-135 123.695,-135 132.425,-135"/>
<polygon fill="midnightblue" stroke="midnightblue" points="103.636,-131.5 93.6357,-135 103.636,-138.5 103.636,-131.5"/>
</g>
<!-- Node7&#45;&gt;Node3 -->
<g id="edge6" class="edge"><title>Node7&#45;&gt;Node3</title>
<path fill="none" stroke="#9a32cd" stroke-dasharray="5,2" d="M756.185,-202.081C740.015,-207.833 720.247,-214.144 702,-218 678.794,-222.904 652.893,-225.966 630.223,-227.875"/>
<polygon fill="#9a32cd" stroke="#9a32cd" points="757.544,-205.311 765.741,-198.599 755.147,-198.734 757.544,-205.311"/>
<text text-anchor="middle" x="675" y="-229" font-family="FreeSans" font-size="10.00"> mymanager</text>
</g>
<!-- Node8&#45;&gt;Node7 -->
<g id="edge7" class="edge"><title>Node8&#45;&gt;Node7</title>
<path fill="none" stroke="midnightblue" d="M600.411,-102.823C645.731,-123.423 729.842,-161.655 768.969,-179.441"/>
<polygon fill="midnightblue" stroke="midnightblue" points="601.647,-99.5402 591.095,-98.5884 598.75,-105.913 601.647,-99.5402"/>
</g>
<!-- Node9 -->
<g id="node9" class="node"><title>Node9</title>
<polygon fill="none" stroke="#bfbfbf" points="277.5,-0.5 277.5,-19.5 394.5,-19.5 394.5,-0.5 277.5,-0.5"/>
<text text-anchor="middle" x="336" y="-7.5" font-family="FreeSans" font-size="10.00">std::vector&lt; unsigned &gt;</text>
</g>
<!-- Node9&#45;&gt;Node8 -->
<g id="edge9" class="edge"><title>Node9&#45;&gt;Node8</title>
<path fill="none" stroke="#9a32cd" stroke-dasharray="5,2" d="M404.945,-12.0112C432.187,-14.6702 463.37,-20.1192 490,-31 517.806,-42.3615 544.654,-65.9641 558.433,-79.2921"/>
<polygon fill="#9a32cd" stroke="#9a32cd" points="404.98,-8.50118 394.714,-11.1232 404.374,-15.475 404.98,-8.50118"/>
<text text-anchor="middle" x="452" y="-34" font-family="FreeSans" font-size="10.00"> recomoduleindex</text>
</g>
<!-- Node10&#45;&gt;Node8 -->
<g id="edge11" class="edge"><title>Node10&#45;&gt;Node8</title>
<path fill="none" stroke="#9a32cd" stroke-dasharray="5,2" d="M406.323,-90.366C408.914,-90.2293 411.48,-90.1062 414,-90 446.056,-88.6487 481.897,-88.3445 510.931,-88.4027"/>
<polygon fill="#9a32cd" stroke="#9a32cd" points="406.027,-86.8773 396.249,-90.9553 406.436,-93.8653 406.027,-86.8773"/>
<text text-anchor="middle" x="452" y="-93" font-family="FreeSans" font-size="10.00"> EventSelectors</text>
</g>
<!-- Node11 -->
<g id="node11" class="node"><title>Node11</title>
<polygon fill="none" stroke="#bfbfbf" points="285.5,-210.5 285.5,-251.5 386.5,-251.5 386.5,-210.5 285.5,-210.5"/>
<text text-anchor="start" x="293.5" y="-239.5" font-family="FreeSans" font-size="10.00">std::map&lt; int, boost</text>
<text text-anchor="start" x="293.5" y="-228.5" font-family="FreeSans" font-size="10.00">::numeric::interval&lt;</text>
<text text-anchor="middle" x="336" y="-217.5" font-family="FreeSans" font-size="10.00"> int &gt; &gt;</text>
</g>
<!-- Node11&#45;&gt;Node3 -->
<g id="edge15" class="edge"><title>Node11&#45;&gt;Node3</title>
<path fill="none" stroke="#9a32cd" stroke-dasharray="5,2" d="M396.859,-231C431.002,-231 473.669,-231 507.859,-231"/>
<polygon fill="#9a32cd" stroke="#9a32cd" points="396.555,-227.5 386.555,-231 396.555,-234.5 396.555,-227.5"/>
<text text-anchor="middle" x="452" y="-245" font-family="FreeSans" font-size="10.00"> addpktrange</text>
<text text-anchor="middle" x="452" y="-234" font-family="FreeSans" font-size="10.00">droppktrange</text>
</g>
</g>
</svg>
