<?xml version="1.0" encoding="UTF-8" standalone="no"?>
<!DOCTYPE svg PUBLIC "-//W3C//DTD SVG 1.1//EN"
 "http://www.w3.org/Graphics/SVG/1.1/DTD/svg11.dtd">
<!-- Generated by graphviz version 2.36.0 (20140111.2315)
 -->
<!-- Title: fun4all/modules/SimpleReadMySql.h Pages: 1 -->
<svg width="618pt" height="208pt"
 viewBox="0.00 0.00 618.00 208.00" xmlns="http://www.w3.org/2000/svg" xmlns:xlink="http://www.w3.org/1999/xlink">
<g id="graph0" class="graph" transform="scale(1 1) rotate(0) translate(4 204)">
<title>fun4all/modules/SimpleReadMySql.h</title>
<!-- Node1 -->
<g id="node1" class="node"><title>Node1</title>
<polygon fill="#bfbfbf" stroke="black" points="307,-169 307,-199 447,-199 447,-169 307,-169"/>
<text text-anchor="start" x="315" y="-187" font-family="FreeSans" font-size="10.00">fun4all/modules/SimpleRead</text>
<text text-anchor="middle" x="377" y="-176" font-family="FreeSans" font-size="10.00">MySql.h</text>
</g>
<!-- Node2 -->
<g id="node2" class="node"><title>Node2</title>
<polygon fill="none" stroke="#bfbfbf" points="-0.5,-112.5 -0.5,-131.5 78.5,-131.5 78.5,-112.5 -0.5,-112.5"/>
<text text-anchor="middle" x="39" y="-119.5" font-family="FreeSans" font-size="10.00">TSQLServer.h</text>
</g>
<!-- Node1&#45;&gt;Node2 -->
<g id="edge1" class="edge"><title>Node1&#45;&gt;Node2</title>
<path fill="none" stroke="midnightblue" d="M306.898,-170.77C250.643,-160.923 169.362,-146.623 88.4409,-132.069"/>
<polygon fill="midnightblue" stroke="midnightblue" points="89.038,-128.621 78.576,-130.294 87.7977,-135.51 89.038,-128.621"/>
</g>
<!-- Node3 -->
<g id="node3" class="node"><title>Node3</title>
<polygon fill="none" stroke="#bfbfbf" points="97,-112.5 97,-131.5 175,-131.5 175,-112.5 97,-112.5"/>
<text text-anchor="middle" x="136" y="-119.5" font-family="FreeSans" font-size="10.00">TSQLResult.h</text>
</g>
<!-- Node1&#45;&gt;Node3 -->
<g id="edge2" class="edge"><title>Node1&#45;&gt;Node3</title>
<path fill="none" stroke="midnightblue" d="M320.496,-168.933C277.621,-158.258 219.519,-143.793 180.053,-133.968"/>
<polygon fill="midnightblue" stroke="midnightblue" points="180.742,-130.532 170.193,-131.513 179.051,-137.325 180.742,-130.532"/>
</g>
<!-- Node4 -->
<g id="node4" class="node"><title>Node4</title>
<polygon fill="none" stroke="#bfbfbf" points="193,-112.5 193,-131.5 263,-131.5 263,-112.5 193,-112.5"/>
<text text-anchor="middle" x="228" y="-119.5" font-family="FreeSans" font-size="10.00">TSQLRow.h</text>
</g>
<!-- Node1&#45;&gt;Node4 -->
<g id="edge3" class="edge"><title>Node1&#45;&gt;Node4</title>
<path fill="none" stroke="midnightblue" d="M342.066,-168.933C316.816,-158.765 283.023,-145.157 258.784,-135.396"/>
<polygon fill="midnightblue" stroke="midnightblue" points="259.94,-132.089 249.357,-131.6 257.325,-138.582 259.94,-132.089"/>
</g>
<!-- Node5 -->
<g id="node5" class="node"><title>Node5</title>
<g id="a_node5"><a xlink:href="../../d5/dc2/SubsysReco_8h.html" target="_top" xlink:title="fun4all/SubsysReco.h">
<polygon fill="none" stroke="black" points="281,-112.5 281,-131.5 391,-131.5 391,-112.5 281,-112.5"/>
<text text-anchor="middle" x="336" y="-119.5" font-family="FreeSans" font-size="10.00">fun4all/SubsysReco.h</text>
</a>
</g>
</g>
<!-- Node1&#45;&gt;Node5 -->
<g id="edge4" class="edge"><title>Node1&#45;&gt;Node5</title>
<path fill="none" stroke="midnightblue" d="M367.284,-168.781C361.387,-160.152 353.827,-149.088 347.616,-139.999"/>
<polygon fill="midnightblue" stroke="midnightblue" points="350.498,-138.012 341.966,-131.731 344.718,-141.962 350.498,-138.012"/>
</g>
<!-- Node7 -->
<g id="node7" class="node"><title>Node7</title>
<polygon fill="none" stroke="#bfbfbf" points="360.5,-0.5 360.5,-19.5 401.5,-19.5 401.5,-0.5 360.5,-0.5"/>
<text text-anchor="middle" x="381" y="-7.5" font-family="FreeSans" font-size="10.00">string</text>
</g>
<!-- Node1&#45;&gt;Node7 -->
<g id="edge10" class="edge"><title>Node1&#45;&gt;Node7</title>
<path fill="none" stroke="midnightblue" d="M385.359,-168.835C390.718,-158.9 397.182,-145.104 400,-132 407.793,-95.7638 396.166,-52.7775 387.951,-29.032"/>
<polygon fill="midnightblue" stroke="midnightblue" points="391.214,-27.764 384.499,-19.5692 384.638,-30.1631 391.214,-27.764"/>
</g>
<!-- Node9 -->
<g id="node9" class="node"><title>Node9</title>
<polygon fill="none" stroke="#bfbfbf" points="447,-112.5 447,-131.5 491,-131.5 491,-112.5 447,-112.5"/>
<text text-anchor="middle" x="469" y="-119.5" font-family="FreeSans" font-size="10.00">vector</text>
</g>
<!-- Node1&#45;&gt;Node9 -->
<g id="edge9" class="edge"><title>Node1&#45;&gt;Node9</title>
<path fill="none" stroke="midnightblue" d="M398.803,-168.781C413.5,-159.196 432.804,-146.606 447.448,-137.056"/>
<polygon fill="midnightblue" stroke="midnightblue" points="449.417,-139.95 455.881,-131.556 445.593,-134.087 449.417,-139.95"/>
</g>
<!-- Node10 -->
<g id="node10" class="node"><title>Node10</title>
<polygon fill="none" stroke="#bfbfbf" points="509,-112.5 509,-131.5 563,-131.5 563,-112.5 509,-112.5"/>
<text text-anchor="middle" x="536" y="-119.5" font-family="FreeSans" font-size="10.00">iostream</text>
</g>
<!-- Node1&#45;&gt;Node10 -->
<g id="edge11" class="edge"><title>Node1&#45;&gt;Node10</title>
<path fill="none" stroke="midnightblue" d="M414.278,-168.933C441.463,-158.674 477.926,-144.915 503.837,-135.137"/>
<polygon fill="midnightblue" stroke="midnightblue" points="505.09,-138.405 513.21,-131.6 502.618,-131.856 505.09,-138.405"/>
</g>
<!-- Node11 -->
<g id="node11" class="node"><title>Node11</title>
<polygon fill="none" stroke="#bfbfbf" points="581.5,-112.5 581.5,-131.5 610.5,-131.5 610.5,-112.5 581.5,-112.5"/>
<text text-anchor="middle" x="596" y="-119.5" font-family="FreeSans" font-size="10.00">list</text>
</g>
<!-- Node1&#45;&gt;Node11 -->
<g id="edge12" class="edge"><title>Node1&#45;&gt;Node11</title>
<path fill="none" stroke="midnightblue" d="M437.198,-168.955C473.626,-160.065 521.136,-147.781 571.574,-131.882"/>
<polygon fill="midnightblue" stroke="midnightblue" points="572.896,-135.134 581.36,-128.763 570.77,-128.465 572.896,-135.134"/>
</g>
<!-- Node6 -->
<g id="node6" class="node"><title>Node6</title>
<g id="a_node6"><a xlink:href="../../d2/de7/Fun4AllBase_8h.html" target="_top" xlink:title="Fun4AllBase.h">
<polygon fill="none" stroke="black" points="273,-56.5 273,-75.5 353,-75.5 353,-56.5 273,-56.5"/>
<text text-anchor="middle" x="313" y="-63.5" font-family="FreeSans" font-size="10.00">Fun4AllBase.h</text>
</a>
</g>
</g>
<!-- Node5&#45;&gt;Node6 -->
<g id="edge5" class="edge"><title>Node5&#45;&gt;Node6</title>
<path fill="none" stroke="midnightblue" d="M332.202,-112.083C329.087,-104.77 324.577,-94.1814 320.711,-85.1034"/>
<polygon fill="midnightblue" stroke="midnightblue" points="323.866,-83.5798 316.727,-75.7511 317.426,-86.3229 323.866,-83.5798"/>
</g>
<!-- Node5&#45;&gt;Node7 -->
<g id="edge8" class="edge"><title>Node5&#45;&gt;Node7</title>
<path fill="none" stroke="midnightblue" d="M341.832,-112.361C347.586,-103.533 356.323,-89.2734 362,-76 368.502,-60.7988 373.593,-42.6845 376.863,-29.4444"/>
<polygon fill="midnightblue" stroke="midnightblue" points="380.286,-30.1762 379.171,-19.6402 373.472,-28.5719 380.286,-30.1762"/>
</g>
<!-- Node6&#45;&gt;Node7 -->
<g id="edge6" class="edge"><title>Node6&#45;&gt;Node7</title>
<path fill="none" stroke="midnightblue" d="M323.925,-56.324C334.175,-48.1849 349.721,-35.8395 362.001,-26.0874"/>
<polygon fill="midnightblue" stroke="midnightblue" points="364.221,-28.7937 369.876,-19.8339 359.868,-23.3119 364.221,-28.7937"/>
</g>
<!-- Node8 -->
<g id="node8" class="node"><title>Node8</title>
<polygon fill="none" stroke="#bfbfbf" points="290.5,-0.5 290.5,-19.5 335.5,-19.5 335.5,-0.5 290.5,-0.5"/>
<text text-anchor="middle" x="313" y="-7.5" font-family="FreeSans" font-size="10.00">climits</text>
</g>
<!-- Node6&#45;&gt;Node8 -->
<g id="edge7" class="edge"><title>Node6&#45;&gt;Node8</title>
<path fill="none" stroke="midnightblue" d="M313,-56.083C313,-49.0059 313,-38.8611 313,-29.9865"/>
<polygon fill="midnightblue" stroke="midnightblue" points="316.5,-29.751 313,-19.7511 309.5,-29.7511 316.5,-29.751"/>
</g>
</g>
</svg>
