<?xml version="1.0" encoding="UTF-8" standalone="no"?>
<!DOCTYPE svg PUBLIC "-//W3C//DTD SVG 1.1//EN"
 "http://www.w3.org/Graphics/SVG/1.1/DTD/svg11.dtd">
<!-- Generated by graphviz version 2.36.0 (20140111.2315)
 -->
<!-- Title: PHTypedNodeIterator&lt; T &gt; Pages: 1 -->
<svg width="219pt" height="460pt"
 viewBox="0.00 0.00 219.00 460.00" xmlns="http://www.w3.org/2000/svg" xmlns:xlink="http://www.w3.org/1999/xlink">
<g id="graph0" class="graph" transform="scale(1 1) rotate(0) translate(4 456)">
<title>PHTypedNodeIterator&lt; T &gt;</title>
<!-- Node1 -->
<g id="node1" class="node"><title>Node1</title>
<polygon fill="#bfbfbf" stroke="black" points="6,-0.5 6,-19.5 140,-19.5 140,-0.5 6,-0.5"/>
<text text-anchor="middle" x="73" y="-7.5" font-family="FreeSans" font-size="10.00">PHTypedNodeIterator&lt; T &gt;</text>
</g>
<!-- Node2 -->
<g id="node2" class="node"><title>Node2</title>
<g id="a_node2"><a xlink:href="../../d5/d07/classPHNodeIterator.html" target="_top" xlink:title="PHNodeIterator">
<polygon fill="none" stroke="black" points="30.5,-58.5 30.5,-77.5 115.5,-77.5 115.5,-58.5 30.5,-58.5"/>
<text text-anchor="middle" x="73" y="-65.5" font-family="FreeSans" font-size="10.00">PHNodeIterator</text>
</a>
</g>
</g>
<!-- Node2&#45;&gt;Node1 -->
<g id="edge1" class="edge"><title>Node2&#45;&gt;Node1</title>
<path fill="none" stroke="midnightblue" d="M73,-47.953C73,-38.2875 73,-27.0312 73,-19.5052"/>
<polygon fill="midnightblue" stroke="midnightblue" points="69.5001,-48.25 73,-58.25 76.5001,-48.25 69.5001,-48.25"/>
</g>
<!-- Node3 -->
<g id="node3" class="node"><title>Node3</title>
<g id="a_node3"><a xlink:href="../../d6/d86/classPHPointerList.html" target="_top" xlink:title="PHPointerList\&lt; PHNode \&gt;">
<polygon fill="none" stroke="black" points="0,-194.5 0,-213.5 132,-213.5 132,-194.5 0,-194.5"/>
<text text-anchor="middle" x="66" y="-201.5" font-family="FreeSans" font-size="10.00">PHPointerList&lt; PHNode &gt;</text>
</a>
</g>
</g>
<!-- Node3&#45;&gt;Node2 -->
<g id="edge2" class="edge"><title>Node3&#45;&gt;Node2</title>
<path fill="none" stroke="#9a32cd" stroke-dasharray="5,2" d="M54.5587,-185.088C46.0671,-169.58 36.7904,-146.483 42,-126 46.7203,-107.441 58.8418,-88.3948 66.4532,-77.6927"/>
<polygon fill="#9a32cd" stroke="#9a32cd" points="51.7685,-187.246 59.8655,-194.079 57.7968,-183.688 51.7685,-187.246"/>
<text text-anchor="middle" x="71" y="-133.5" font-family="FreeSans" font-size="10.00"> subNodeList</text>
</g>
<!-- Node7 -->
<g id="node7" class="node"><title>Node7</title>
<g id="a_node7"><a xlink:href="../../d5/dca/classPHCompositeNode.html" target="_top" xlink:title="PHCompositeNode">
<polygon fill="none" stroke="black" points="109.5,-126.5 109.5,-145.5 210.5,-145.5 210.5,-126.5 109.5,-126.5"/>
<text text-anchor="middle" x="160" y="-133.5" font-family="FreeSans" font-size="10.00">PHCompositeNode</text>
</a>
</g>
</g>
<!-- Node3&#45;&gt;Node7 -->
<g id="edge9" class="edge"><title>Node3&#45;&gt;Node7</title>
<path fill="none" stroke="#9a32cd" stroke-dasharray="5,2" d="M77.574,-186.103C83.3461,-178.604 90.8347,-170.113 99,-164 109.476,-156.157 122.589,-149.977 133.97,-145.521"/>
<polygon fill="#9a32cd" stroke="#9a32cd" points="74.7009,-184.102 71.6487,-194.248 80.3617,-188.22 74.7009,-184.102"/>
<text text-anchor="middle" x="122.5" y="-167.5" font-family="FreeSans" font-size="10.00"> subNodes</text>
</g>
<!-- Node4 -->
<g id="node4" class="node"><title>Node4</title>
<g id="a_node4"><a xlink:href="../../dc/d82/classPHNode.html" target="_top" xlink:title="PHNode">
<polygon fill="none" stroke="black" points="109,-262.5 109,-281.5 163,-281.5 163,-262.5 109,-262.5"/>
<text text-anchor="middle" x="136" y="-269.5" font-family="FreeSans" font-size="10.00">PHNode</text>
</a>
</g>
</g>
<!-- Node4&#45;&gt;Node3 -->
<g id="edge3" class="edge"><title>Node4&#45;&gt;Node3</title>
<path fill="none" stroke="#9a32cd" stroke-dasharray="5,2" d="M119.468,-255.412C105.716,-242.447 86.6351,-224.456 75.3769,-213.841"/>
<polygon fill="#9a32cd" stroke="#9a32cd" points="117.172,-258.058 126.849,-262.372 121.974,-252.965 117.172,-258.058"/>
<text text-anchor="middle" x="121.5" y="-235.5" font-family="FreeSans" font-size="10.00"> items</text>
</g>
<!-- Node4&#45;&gt;Node4 -->
<g id="edge4" class="edge"><title>Node4&#45;&gt;Node4</title>
<path fill="none" stroke="#9a32cd" stroke-dasharray="5,2" d="M173.51,-277.495C178.038,-276.502 181,-274.671 181,-272 181,-267.617 173.024,-265.494 163.241,-265.631"/>
<polygon fill="#9a32cd" stroke="#9a32cd" points="172.908,-274.033 163.241,-278.369 173.502,-281.008 172.908,-274.033"/>
<text text-anchor="middle" x="196" y="-269.5" font-family="FreeSans" font-size="10.00"> parent</text>
</g>
<!-- Node4&#45;&gt;Node7 -->
<g id="edge8" class="edge"><title>Node4&#45;&gt;Node7</title>
<path fill="none" stroke="midnightblue" d="M139.405,-251.992C144.683,-222.523 154.629,-166.986 158.451,-145.65"/>
<polygon fill="midnightblue" stroke="midnightblue" points="135.893,-251.747 137.575,-262.208 142.783,-252.982 135.893,-251.747"/>
</g>
<!-- Node5 -->
<g id="node5" class="node"><title>Node5</title>
<g id="a_node5"><a xlink:title="STL class. ">
<polygon fill="none" stroke="#bfbfbf" points="106.5,-362.5 106.5,-381.5 165.5,-381.5 165.5,-362.5 106.5,-362.5"/>
<text text-anchor="middle" x="136" y="-369.5" font-family="FreeSans" font-size="10.00">std::string</text>
</a>
</g>
</g>
<!-- Node5&#45;&gt;Node4 -->
<g id="edge5" class="edge"><title>Node5&#45;&gt;Node4</title>
<path fill="none" stroke="#9a32cd" stroke-dasharray="5,2" d="M136,-352.22C136,-330.951 136,-297.22 136,-281.537"/>
<polygon fill="#9a32cd" stroke="#9a32cd" points="132.5,-352.303 136,-362.303 139.5,-352.303 132.5,-352.303"/>
<text text-anchor="middle" x="161" y="-336" font-family="FreeSans" font-size="10.00"> objecttype</text>
<text text-anchor="middle" x="161" y="-325" font-family="FreeSans" font-size="10.00">objectclass</text>
<text text-anchor="middle" x="161" y="-314" font-family="FreeSans" font-size="10.00">type</text>
<text text-anchor="middle" x="161" y="-303" font-family="FreeSans" font-size="10.00">name</text>
</g>
<!-- Node6 -->
<g id="node6" class="node"><title>Node6</title>
<g id="a_node6"><a xlink:title="STL class. ">
<polygon fill="none" stroke="#bfbfbf" points="89.5,-421 89.5,-451 182.5,-451 182.5,-421 89.5,-421"/>
<text text-anchor="start" x="97.5" y="-439" font-family="FreeSans" font-size="10.00">std::basic_string&lt;</text>
<text text-anchor="middle" x="136" y="-428" font-family="FreeSans" font-size="10.00"> char &gt;</text>
</a>
</g>
</g>
<!-- Node6&#45;&gt;Node5 -->
<g id="edge6" class="edge"><title>Node6&#45;&gt;Node5</title>
<path fill="none" stroke="midnightblue" d="M136,-410.871C136,-400.663 136,-389.408 136,-381.842"/>
<polygon fill="midnightblue" stroke="midnightblue" points="132.5,-410.931 136,-420.931 139.5,-410.931 132.5,-410.931"/>
</g>
<!-- Node7&#45;&gt;Node2 -->
<g id="edge7" class="edge"><title>Node7&#45;&gt;Node2</title>
<path fill="none" stroke="#9a32cd" stroke-dasharray="5,2" d="M140.354,-120.096C123.092,-107.001 98.5764,-88.4028 84.3765,-77.6305"/>
<polygon fill="#9a32cd" stroke="#9a32cd" points="138.544,-123.116 148.626,-126.372 142.775,-117.539 138.544,-123.116"/>
<text text-anchor="middle" x="153" y="-99.5" font-family="FreeSans" font-size="10.00"> currentNode</text>
</g>
</g>
</svg>
