<?xml version="1.0" encoding="UTF-8" standalone="no"?>
<!DOCTYPE svg PUBLIC "-//W3C//DTD SVG 1.1//EN"
 "http://www.w3.org/Graphics/SVG/1.1/DTD/svg11.dtd">
<!-- Generated by graphviz version 2.36.0 (20140111.2315)
 -->
<!-- Title: fun4all/modules/SimpleReadMySql.C Pages: 1 -->
<svg width="2239pt" height="544pt"
 viewBox="0.00 0.00 2239.00 544.00" xmlns="http://www.w3.org/2000/svg" xmlns:xlink="http://www.w3.org/1999/xlink">
<g id="graph0" class="graph" transform="scale(1 1) rotate(0) translate(4 540)">
<title>fun4all/modules/SimpleReadMySql.C</title>
<!-- Node1 -->
<g id="node1" class="node"><title>Node1</title>
<polygon fill="#bfbfbf" stroke="black" points="1532,-505 1532,-535 1672,-535 1672,-505 1532,-505"/>
<text text-anchor="start" x="1540" y="-523" font-family="FreeSans" font-size="10.00">fun4all/modules/SimpleRead</text>
<text text-anchor="middle" x="1602" y="-512" font-family="FreeSans" font-size="10.00">MySql.C</text>
</g>
<!-- Node2 -->
<g id="node2" class="node"><title>Node2</title>
<g id="a_node2"><a xlink:href="../../d4/dcb/SimpleReadMySql_8h.html" target="_top" xlink:title="SimpleReadMySql.h">
<polygon fill="none" stroke="black" points="285,-224.5 285,-243.5 389,-243.5 389,-224.5 285,-224.5"/>
<text text-anchor="middle" x="337" y="-231.5" font-family="FreeSans" font-size="10.00">SimpleReadMySql.h</text>
</a>
</g>
</g>
<!-- Node1&#45;&gt;Node2 -->
<g id="edge1" class="edge"><title>Node1&#45;&gt;Node2</title>
<path fill="none" stroke="midnightblue" d="M1531.93,-519.174C1285.71,-518.871 475,-509.768 475,-403 475,-403 475,-403 475,-345 475,-293.66 415.875,-262.401 375.026,-246.931"/>
<polygon fill="midnightblue" stroke="midnightblue" points="376.188,-243.63 365.594,-243.513 373.803,-250.211 376.188,-243.63"/>
</g>
<!-- Node13 -->
<g id="node13" class="node"><title>Node13</title>
<g id="a_node13"><a xlink:href="../../d2/d2c/SHit_8h.html" target="_top" xlink:title="interfaces/SHit.h">
<polygon fill="none" stroke="black" points="652.5,-112.5 652.5,-131.5 741.5,-131.5 741.5,-112.5 652.5,-112.5"/>
<text text-anchor="middle" x="697" y="-119.5" font-family="FreeSans" font-size="10.00">interfaces/SHit.h</text>
</a>
</g>
</g>
<!-- Node1&#45;&gt;Node13 -->
<g id="edge14" class="edge"><title>Node1&#45;&gt;Node13</title>
<path fill="none" stroke="midnightblue" d="M1531.95,-517.435C1318.4,-511.744 690,-487.792 690,-403 690,-403 690,-403 690,-233 690,-200.883 693.009,-163.598 695.081,-141.726"/>
<polygon fill="midnightblue" stroke="midnightblue" points="698.587,-141.841 696.085,-131.546 691.62,-141.154 698.587,-141.841"/>
</g>
<!-- Node17 -->
<g id="node17" class="node"><title>Node17</title>
<g id="a_node17"><a xlink:href="../../d0/d11/SHit__v1_8h.html" target="_top" xlink:title="interfaces/SHit_v1.h">
<polygon fill="none" stroke="black" points="556.5,-168.5 556.5,-187.5 661.5,-187.5 661.5,-168.5 556.5,-168.5"/>
<text text-anchor="middle" x="609" y="-175.5" font-family="FreeSans" font-size="10.00">interfaces/SHit_v1.h</text>
</a>
</g>
</g>
<!-- Node1&#45;&gt;Node17 -->
<g id="edge21" class="edge"><title>Node1&#45;&gt;Node17</title>
<path fill="none" stroke="midnightblue" d="M1531.67,-518.624C1328.45,-517.053 750.155,-508.991 676,-468 645.026,-450.878 630,-438.391 630,-403 630,-403 630,-403 630,-289 630,-256.384 620.982,-219.278 614.765,-197.573"/>
<polygon fill="midnightblue" stroke="midnightblue" points="618.043,-196.316 611.832,-187.732 611.334,-198.315 618.043,-196.316"/>
</g>
<!-- Node18 -->
<g id="node18" class="node"><title>Node18</title>
<g id="a_node18"><a xlink:href="../../d3/d56/SHitMap__v1_8h.html" target="_top" xlink:title="interfaces/SHitMap_v1.h">
<polygon fill="none" stroke="black" points="812,-224.5 812,-243.5 936,-243.5 936,-224.5 812,-224.5"/>
<text text-anchor="middle" x="874" y="-231.5" font-family="FreeSans" font-size="10.00">interfaces/SHitMap_v1.h</text>
</a>
</g>
</g>
<!-- Node1&#45;&gt;Node18 -->
<g id="edge25" class="edge"><title>Node1&#45;&gt;Node18</title>
<path fill="none" stroke="midnightblue" d="M1531.79,-513.552C1365.79,-499.731 963,-460.291 963,-403 963,-403 963,-403 963,-345 963,-302.846 923.01,-267.779 896.642,-249.239"/>
<polygon fill="midnightblue" stroke="midnightblue" points="898.544,-246.3 888.299,-243.599 894.623,-252.099 898.544,-246.3"/>
</g>
<!-- Node21 -->
<g id="node21" class="node"><title>Node21</title>
<g id="a_node21"><a xlink:href="../../da/dc1/Fun4AllReturnCodes_8h.html" target="_top" xlink:title="fun4all/Fun4AllReturnCodes.h">
<polygon fill="none" stroke="black" points="1245.5,-448.5 1245.5,-467.5 1390.5,-467.5 1390.5,-448.5 1245.5,-448.5"/>
<text text-anchor="middle" x="1318" y="-455.5" font-family="FreeSans" font-size="10.00">fun4all/Fun4AllReturnCodes.h</text>
</a>
</g>
</g>
<!-- Node1&#45;&gt;Node21 -->
<g id="edge35" class="edge"><title>Node1&#45;&gt;Node21</title>
<path fill="none" stroke="midnightblue" d="M1535.41,-504.933C1484.25,-494.122 1414.67,-479.424 1368.15,-469.594"/>
<polygon fill="midnightblue" stroke="midnightblue" points="1368.8,-466.155 1358.29,-467.513 1367.35,-473.004 1368.8,-466.155"/>
</g>
<!-- Node22 -->
<g id="node22" class="node"><title>Node22</title>
<g id="a_node22"><a xlink:href="../../d8/dfd/PHNodeIterator_8h.html" target="_top" xlink:title="phool/PHNodeIterator.h">
<polygon fill="none" stroke="black" points="1512.5,-280.5 1512.5,-299.5 1631.5,-299.5 1631.5,-280.5 1512.5,-280.5"/>
<text text-anchor="middle" x="1572" y="-287.5" font-family="FreeSans" font-size="10.00">phool/PHNodeIterator.h</text>
</a>
</g>
</g>
<!-- Node1&#45;&gt;Node22 -->
<g id="edge36" class="edge"><title>Node1&#45;&gt;Node22</title>
<path fill="none" stroke="midnightblue" d="M1596.13,-504.994C1592.2,-494.903 1587.34,-480.856 1585,-468 1574.5,-410.238 1586.26,-394.374 1580,-336 1579.06,-327.213 1577.42,-317.554 1575.87,-309.445"/>
<polygon fill="midnightblue" stroke="midnightblue" points="1579.29,-308.691 1573.89,-299.576 1572.43,-310.07 1579.29,-308.691"/>
</g>
<!-- Node28 -->
<g id="node28" class="node"><title>Node28</title>
<g id="a_node28"><a xlink:href="../../d3/d79/PHIODataNode_8h.html" target="_top" xlink:title="phool/PHIODataNode.h">
<polygon fill="none" stroke="black" points="1168.5,-392.5 1168.5,-411.5 1287.5,-411.5 1287.5,-392.5 1168.5,-392.5"/>
<text text-anchor="middle" x="1228" y="-399.5" font-family="FreeSans" font-size="10.00">phool/PHIODataNode.h</text>
</a>
</g>
</g>
<!-- Node1&#45;&gt;Node28 -->
<g id="edge50" class="edge"><title>Node1&#45;&gt;Node28</title>
<path fill="none" stroke="midnightblue" d="M1549.5,-504.896C1517.18,-495.645 1475.16,-482.587 1439,-468 1420.57,-460.564 1417.6,-455.011 1399,-448 1360.04,-433.316 1314.38,-421.561 1280.04,-413.753"/>
<polygon fill="midnightblue" stroke="midnightblue" points="1280.74,-410.324 1270.22,-411.557 1279.21,-417.155 1280.74,-410.324"/>
</g>
<!-- Node35 -->
<g id="node35" class="node"><title>Node35</title>
<g id="a_node35"><a xlink:href="../../dd/dd4/getClass_8h.html" target="_top" xlink:title="phool/getClass.h">
<polygon fill="none" stroke="black" points="1447.5,-448.5 1447.5,-467.5 1536.5,-467.5 1536.5,-448.5 1447.5,-448.5"/>
<text text-anchor="middle" x="1492" y="-455.5" font-family="FreeSans" font-size="10.00">phool/getClass.h</text>
</a>
</g>
</g>
<!-- Node1&#45;&gt;Node35 -->
<g id="edge68" class="edge"><title>Node1&#45;&gt;Node35</title>
<path fill="none" stroke="midnightblue" d="M1576.21,-504.933C1558.31,-495.171 1534.61,-482.24 1516.91,-472.586"/>
<polygon fill="midnightblue" stroke="midnightblue" points="1518.22,-469.316 1507.77,-467.6 1514.87,-475.461 1518.22,-469.316"/>
</g>
<!-- Node36 -->
<g id="node36" class="node"><title>Node36</title>
<polygon fill="none" stroke="#bfbfbf" points="1593.5,-448.5 1593.5,-467.5 1684.5,-467.5 1684.5,-448.5 1593.5,-448.5"/>
<text text-anchor="middle" x="1639" y="-455.5" font-family="FreeSans" font-size="10.00">TLorentzVector.h</text>
</g>
<!-- Node1&#45;&gt;Node36 -->
<g id="edge75" class="edge"><title>Node1&#45;&gt;Node36</title>
<path fill="none" stroke="midnightblue" d="M1610.77,-504.781C1616.03,-496.242 1622.77,-485.318 1628.34,-476.283"/>
<polygon fill="midnightblue" stroke="midnightblue" points="1631.35,-478.079 1633.62,-467.731 1625.39,-474.405 1631.35,-478.079"/>
</g>
<!-- Node37 -->
<g id="node37" class="node"><title>Node37</title>
<polygon fill="none" stroke="#bfbfbf" points="1703,-448.5 1703,-467.5 1771,-467.5 1771,-448.5 1703,-448.5"/>
<text text-anchor="middle" x="1737" y="-455.5" font-family="FreeSans" font-size="10.00">TObjArray.h</text>
</g>
<!-- Node1&#45;&gt;Node37 -->
<g id="edge76" class="edge"><title>Node1&#45;&gt;Node37</title>
<path fill="none" stroke="midnightblue" d="M1633.65,-504.933C1656.22,-494.9 1686.33,-481.519 1708.23,-471.789"/>
<polygon fill="midnightblue" stroke="midnightblue" points="1709.93,-474.86 1717.65,-467.6 1707.09,-468.463 1709.93,-474.86"/>
</g>
<!-- Node38 -->
<g id="node38" class="node"><title>Node38</title>
<polygon fill="none" stroke="#bfbfbf" points="1789,-448.5 1789,-467.5 1839,-467.5 1839,-448.5 1789,-448.5"/>
<text text-anchor="middle" x="1814" y="-455.5" font-family="FreeSans" font-size="10.00">TLeaf.h</text>
</g>
<!-- Node1&#45;&gt;Node38 -->
<g id="edge77" class="edge"><title>Node1&#45;&gt;Node38</title>
<path fill="none" stroke="midnightblue" d="M1651.7,-504.933C1690.91,-493.836 1744.6,-478.642 1779.29,-468.823"/>
<polygon fill="midnightblue" stroke="midnightblue" points="1780.31,-472.172 1788.98,-466.081 1778.4,-465.437 1780.31,-472.172"/>
</g>
<!-- Node39 -->
<g id="node39" class="node"><title>Node39</title>
<polygon fill="none" stroke="#bfbfbf" points="1857,-448.5 1857,-467.5 1903,-467.5 1903,-448.5 1857,-448.5"/>
<text text-anchor="middle" x="1880" y="-455.5" font-family="FreeSans" font-size="10.00">cstring</text>
</g>
<!-- Node1&#45;&gt;Node39 -->
<g id="edge78" class="edge"><title>Node1&#45;&gt;Node39</title>
<path fill="none" stroke="midnightblue" d="M1672.01,-505.835C1718.98,-496.689 1782.44,-483.735 1847.02,-468.109"/>
<polygon fill="midnightblue" stroke="midnightblue" points="1848.09,-471.452 1856.98,-465.682 1846.43,-464.651 1848.09,-471.452"/>
</g>
<!-- Node40 -->
<g id="node40" class="node"><title>Node40</title>
<polygon fill="none" stroke="#bfbfbf" points="1921,-448.5 1921,-467.5 1965,-467.5 1965,-448.5 1921,-448.5"/>
<text text-anchor="middle" x="1943" y="-455.5" font-family="FreeSans" font-size="10.00">cmath</text>
</g>
<!-- Node1&#45;&gt;Node40 -->
<g id="edge79" class="edge"><title>Node1&#45;&gt;Node40</title>
<path fill="none" stroke="midnightblue" d="M1672.02,-509.917C1732.88,-501.467 1823.51,-487.551 1910.92,-468.029"/>
<polygon fill="midnightblue" stroke="midnightblue" points="1911.75,-471.429 1920.73,-465.81 1910.21,-464.602 1911.75,-471.429"/>
</g>
<!-- Node41 -->
<g id="node41" class="node"><title>Node41</title>
<polygon fill="none" stroke="#bfbfbf" points="1983,-448.5 1983,-467.5 2023,-467.5 2023,-448.5 1983,-448.5"/>
<text text-anchor="middle" x="2003" y="-455.5" font-family="FreeSans" font-size="10.00">cfloat</text>
</g>
<!-- Node1&#45;&gt;Node41 -->
<g id="edge80" class="edge"><title>Node1&#45;&gt;Node41</title>
<path fill="none" stroke="midnightblue" d="M1672.31,-512.61C1747.35,-505.03 1869.44,-490.509 1973,-468 1973.1,-467.978 1973.2,-467.957 1973.3,-467.935"/>
<polygon fill="midnightblue" stroke="midnightblue" points="1973.95,-471.382 1982.78,-465.53 1972.22,-464.596 1973.95,-471.382"/>
</g>
<!-- Node42 -->
<g id="node42" class="node"><title>Node42</title>
<polygon fill="none" stroke="#bfbfbf" points="2041.5,-448.5 2041.5,-467.5 2100.5,-467.5 2100.5,-448.5 2041.5,-448.5"/>
<text text-anchor="middle" x="2071" y="-455.5" font-family="FreeSans" font-size="10.00">stdexcept</text>
</g>
<!-- Node1&#45;&gt;Node42 -->
<g id="edge81" class="edge"><title>Node1&#45;&gt;Node42</title>
<path fill="none" stroke="midnightblue" d="M1672.35,-513.024C1755.7,-505.413 1898.89,-490.669 2031.34,-467.936"/>
<polygon fill="midnightblue" stroke="midnightblue" points="2032,-471.373 2041.26,-466.215 2030.81,-464.476 2032,-471.373"/>
</g>
<!-- Node43 -->
<g id="node43" class="node"><title>Node43</title>
<polygon fill="none" stroke="#bfbfbf" points="2118.5,-448.5 2118.5,-467.5 2231.5,-467.5 2231.5,-448.5 2118.5,-448.5"/>
<text text-anchor="middle" x="2175" y="-455.5" font-family="FreeSans" font-size="10.00">boost/lexical_cast.hpp</text>
</g>
<!-- Node1&#45;&gt;Node43 -->
<g id="edge82" class="edge"><title>Node1&#45;&gt;Node43</title>
<path fill="none" stroke="midnightblue" d="M1672.21,-512.727C1768.14,-503.979 1945.81,-487.151 2108.31,-468.042"/>
<polygon fill="midnightblue" stroke="midnightblue" points="2108.97,-471.488 2118.49,-466.839 2108.15,-464.537 2108.97,-471.488"/>
</g>
<!-- Node3 -->
<g id="node3" class="node"><title>Node3</title>
<polygon fill="none" stroke="#bfbfbf" points="108.5,-168.5 108.5,-187.5 187.5,-187.5 187.5,-168.5 108.5,-168.5"/>
<text text-anchor="middle" x="148" y="-175.5" font-family="FreeSans" font-size="10.00">TSQLServer.h</text>
</g>
<!-- Node2&#45;&gt;Node3 -->
<g id="edge2" class="edge"><title>Node2&#45;&gt;Node3</title>
<path fill="none" stroke="midnightblue" d="M307.052,-224.444C274.842,-215.241 223.466,-200.562 187.858,-190.388"/>
<polygon fill="midnightblue" stroke="midnightblue" points="188.384,-186.898 177.808,-187.516 186.461,-193.629 188.384,-186.898"/>
</g>
<!-- Node4 -->
<g id="node4" class="node"><title>Node4</title>
<polygon fill="none" stroke="#bfbfbf" points="206,-168.5 206,-187.5 284,-187.5 284,-168.5 206,-168.5"/>
<text text-anchor="middle" x="245" y="-175.5" font-family="FreeSans" font-size="10.00">TSQLResult.h</text>
</g>
<!-- Node2&#45;&gt;Node4 -->
<g id="edge3" class="edge"><title>Node2&#45;&gt;Node4</title>
<path fill="none" stroke="midnightblue" d="M322.219,-224.324C307.733,-215.822 285.427,-202.729 268.507,-192.797"/>
<polygon fill="midnightblue" stroke="midnightblue" points="270.141,-189.698 259.745,-187.655 266.597,-195.735 270.141,-189.698"/>
</g>
<!-- Node5 -->
<g id="node5" class="node"><title>Node5</title>
<polygon fill="none" stroke="#bfbfbf" points="302,-168.5 302,-187.5 372,-187.5 372,-168.5 302,-168.5"/>
<text text-anchor="middle" x="337" y="-175.5" font-family="FreeSans" font-size="10.00">TSQLRow.h</text>
</g>
<!-- Node2&#45;&gt;Node5 -->
<g id="edge4" class="edge"><title>Node2&#45;&gt;Node5</title>
<path fill="none" stroke="midnightblue" d="M337,-224.083C337,-217.006 337,-206.861 337,-197.986"/>
<polygon fill="midnightblue" stroke="midnightblue" points="340.5,-197.751 337,-187.751 333.5,-197.751 340.5,-197.751"/>
</g>
<!-- Node6 -->
<g id="node6" class="node"><title>Node6</title>
<g id="a_node6"><a xlink:href="../../d5/dc2/SubsysReco_8h.html" target="_top" xlink:title="fun4all/SubsysReco.h">
<polygon fill="none" stroke="black" points="428,-168.5 428,-187.5 538,-187.5 538,-168.5 428,-168.5"/>
<text text-anchor="middle" x="483" y="-175.5" font-family="FreeSans" font-size="10.00">fun4all/SubsysReco.h</text>
</a>
</g>
</g>
<!-- Node2&#45;&gt;Node6 -->
<g id="edge5" class="edge"><title>Node2&#45;&gt;Node6</title>
<path fill="none" stroke="midnightblue" d="M360.134,-224.444C384.482,-215.438 423.007,-201.189 450.423,-191.049"/>
<polygon fill="midnightblue" stroke="midnightblue" points="451.809,-194.268 459.974,-187.516 449.381,-187.703 451.809,-194.268"/>
</g>
<!-- Node8 -->
<g id="node8" class="node"><title>Node8</title>
<polygon fill="none" stroke="#bfbfbf" points="1036.5,-56.5 1036.5,-75.5 1077.5,-75.5 1077.5,-56.5 1036.5,-56.5"/>
<text text-anchor="middle" x="1057" y="-63.5" font-family="FreeSans" font-size="10.00">string</text>
</g>
<!-- Node2&#45;&gt;Node8 -->
<g id="edge11" class="edge"><title>Node2&#45;&gt;Node8</title>
<path fill="none" stroke="midnightblue" d="M389.045,-231.398C514.314,-227.143 825.158,-214.059 864,-188 895.527,-166.848 873.731,-136.181 903,-112 938.556,-82.625 992.543,-72.4238 1026.24,-68.8821"/>
<polygon fill="midnightblue" stroke="midnightblue" points="1026.78,-72.3474 1036.42,-67.9504 1026.15,-65.3765 1026.78,-72.3474"/>
</g>
<!-- Node10 -->
<g id="node10" class="node"><title>Node10</title>
<polygon fill="none" stroke="#bfbfbf" points="0,-168.5 0,-187.5 44,-187.5 44,-168.5 0,-168.5"/>
<text text-anchor="middle" x="22" y="-175.5" font-family="FreeSans" font-size="10.00">vector</text>
</g>
<!-- Node2&#45;&gt;Node10 -->
<g id="edge10" class="edge"><title>Node2&#45;&gt;Node10</title>
<path fill="none" stroke="midnightblue" d="M284.853,-226.912C229.531,-219.975 139.459,-207.318 54.044,-188.254"/>
<polygon fill="midnightblue" stroke="midnightblue" points="54.7177,-184.818 44.1914,-186.021 53.1706,-191.645 54.7177,-184.818"/>
</g>
<!-- Node11 -->
<g id="node11" class="node"><title>Node11</title>
<polygon fill="none" stroke="#bfbfbf" points="781,-0.5 781,-19.5 835,-19.5 835,-0.5 781,-0.5"/>
<text text-anchor="middle" x="808" y="-7.5" font-family="FreeSans" font-size="10.00">iostream</text>
</g>
<!-- Node2&#45;&gt;Node11 -->
<g id="edge12" class="edge"><title>Node2&#45;&gt;Node11</title>
<path fill="none" stroke="midnightblue" d="M346.985,-224.434C356.539,-215.884 370.942,-202.031 381,-188 419.33,-134.528 394.177,-93.8368 448,-56 499.41,-19.8594 689.395,-12.719 770.695,-11.3273"/>
<polygon fill="midnightblue" stroke="midnightblue" points="771.02,-14.8229 780.966,-11.1725 770.914,-7.82371 771.02,-14.8229"/>
</g>
<!-- Node12 -->
<g id="node12" class="node"><title>Node12</title>
<polygon fill="none" stroke="#bfbfbf" points="61.5,-168.5 61.5,-187.5 90.5,-187.5 90.5,-168.5 61.5,-168.5"/>
<text text-anchor="middle" x="76" y="-175.5" font-family="FreeSans" font-size="10.00">list</text>
</g>
<!-- Node2&#45;&gt;Node12 -->
<g id="edge13" class="edge"><title>Node2&#45;&gt;Node12</title>
<path fill="none" stroke="midnightblue" d="M284.816,-225.992C238.437,-219.126 168.755,-207.247 100.944,-188.18"/>
<polygon fill="midnightblue" stroke="midnightblue" points="101.533,-184.708 90.9556,-185.314 99.6026,-191.436 101.533,-184.708"/>
</g>
<!-- Node7 -->
<g id="node7" class="node"><title>Node7</title>
<g id="a_node7"><a xlink:href="../../d2/de7/Fun4AllBase_8h.html" target="_top" xlink:title="Fun4AllBase.h">
<polygon fill="none" stroke="black" points="440,-112.5 440,-131.5 520,-131.5 520,-112.5 440,-112.5"/>
<text text-anchor="middle" x="480" y="-119.5" font-family="FreeSans" font-size="10.00">Fun4AllBase.h</text>
</a>
</g>
</g>
<!-- Node6&#45;&gt;Node7 -->
<g id="edge6" class="edge"><title>Node6&#45;&gt;Node7</title>
<path fill="none" stroke="midnightblue" d="M482.505,-168.083C482.111,-161.006 481.548,-150.861 481.055,-141.986"/>
<polygon fill="midnightblue" stroke="midnightblue" points="484.536,-141.542 480.486,-131.751 477.546,-141.93 484.536,-141.542"/>
</g>
<!-- Node6&#45;&gt;Node8 -->
<g id="edge9" class="edge"><title>Node6&#45;&gt;Node8</title>
<path fill="none" stroke="midnightblue" d="M499.757,-168.368C528.321,-154.075 588.635,-125.712 643,-112 715.868,-93.6206 943.399,-75.4166 1026.35,-69.2234"/>
<polygon fill="midnightblue" stroke="midnightblue" points="1026.68,-72.7082 1036.4,-68.4792 1026.17,-65.7273 1026.68,-72.7082"/>
</g>
<!-- Node7&#45;&gt;Node8 -->
<g id="edge7" class="edge"><title>Node7&#45;&gt;Node8</title>
<path fill="none" stroke="midnightblue" d="M520.3,-117.014C536.382,-115.434 555.065,-113.614 572,-112 743.303,-95.6741 948.72,-76.8695 1025.78,-69.8423"/>
<polygon fill="midnightblue" stroke="midnightblue" points="1026.56,-73.286 1036.2,-68.8927 1025.92,-66.3149 1026.56,-73.286"/>
</g>
<!-- Node9 -->
<g id="node9" class="node"><title>Node9</title>
<polygon fill="none" stroke="#bfbfbf" points="457.5,-56.5 457.5,-75.5 502.5,-75.5 502.5,-56.5 457.5,-56.5"/>
<text text-anchor="middle" x="480" y="-63.5" font-family="FreeSans" font-size="10.00">climits</text>
</g>
<!-- Node7&#45;&gt;Node9 -->
<g id="edge8" class="edge"><title>Node7&#45;&gt;Node9</title>
<path fill="none" stroke="midnightblue" d="M480,-112.083C480,-105.006 480,-94.8611 480,-85.9865"/>
<polygon fill="midnightblue" stroke="midnightblue" points="483.5,-85.751 480,-75.7511 476.5,-85.7511 483.5,-85.751"/>
</g>
<!-- Node13&#45;&gt;Node8 -->
<g id="edge20" class="edge"><title>Node13&#45;&gt;Node8</title>
<path fill="none" stroke="midnightblue" d="M741.504,-114.324C815.483,-103.228 961.94,-81.259 1025.9,-71.6655"/>
<polygon fill="midnightblue" stroke="midnightblue" points="1026.77,-75.074 1036.14,-70.1293 1025.73,-68.1515 1026.77,-75.074"/>
</g>
<!-- Node13&#45;&gt;Node11 -->
<g id="edge18" class="edge"><title>Node13&#45;&gt;Node11</title>
<path fill="none" stroke="midnightblue" d="M704.323,-112.283C715.178,-99.5151 736.374,-75.1665 756,-56 766.677,-45.5732 779.325,-34.6 789.473,-26.0999"/>
<polygon fill="midnightblue" stroke="midnightblue" points="791.843,-28.6819 797.312,-19.6078 787.378,-23.2907 791.843,-28.6819"/>
</g>
<!-- Node14 -->
<g id="node14" class="node"><title>Node14</title>
<g id="a_node14"><a xlink:href="../../df/d32/PHObject_8h.html" target="_top" xlink:title="phool/PHObject.h">
<polygon fill="none" stroke="black" points="836.5,-56.5 836.5,-75.5 929.5,-75.5 929.5,-56.5 836.5,-56.5"/>
<text text-anchor="middle" x="883" y="-63.5" font-family="FreeSans" font-size="10.00">phool/PHObject.h</text>
</a>
</g>
</g>
<!-- Node13&#45;&gt;Node14 -->
<g id="edge15" class="edge"><title>Node13&#45;&gt;Node14</title>
<path fill="none" stroke="midnightblue" d="M726.472,-112.444C758.171,-103.241 808.732,-88.5617 843.775,-78.3879"/>
<polygon fill="midnightblue" stroke="midnightblue" points="845.038,-81.6658 853.666,-75.5164 843.086,-74.9434 845.038,-81.6658"/>
</g>
<!-- Node16 -->
<g id="node16" class="node"><title>Node16</title>
<polygon fill="none" stroke="#bfbfbf" points="656.5,-56.5 656.5,-75.5 703.5,-75.5 703.5,-56.5 656.5,-56.5"/>
<text text-anchor="middle" x="680" y="-63.5" font-family="FreeSans" font-size="10.00">limits.h</text>
</g>
<!-- Node13&#45;&gt;Node16 -->
<g id="edge19" class="edge"><title>Node13&#45;&gt;Node16</title>
<path fill="none" stroke="midnightblue" d="M694.193,-112.083C691.915,-104.849 688.629,-94.4087 685.792,-85.3968"/>
<polygon fill="midnightblue" stroke="midnightblue" points="689.096,-84.2385 682.755,-75.7511 682.419,-86.3406 689.096,-84.2385"/>
</g>
<!-- Node14&#45;&gt;Node11 -->
<g id="edge17" class="edge"><title>Node14&#45;&gt;Node11</title>
<path fill="none" stroke="midnightblue" d="M870.95,-56.324C859.537,-48.1066 842.169,-35.6017 828.565,-25.8069"/>
<polygon fill="midnightblue" stroke="midnightblue" points="830.43,-22.8366 820.269,-19.8339 826.34,-28.5174 830.43,-22.8366"/>
</g>
<!-- Node15 -->
<g id="node15" class="node"><title>Node15</title>
<polygon fill="none" stroke="#bfbfbf" points="1286.5,-0.5 1286.5,-19.5 1345.5,-19.5 1345.5,-0.5 1286.5,-0.5"/>
<text text-anchor="middle" x="1316" y="-7.5" font-family="FreeSans" font-size="10.00">TObject.h</text>
</g>
<!-- Node14&#45;&gt;Node15 -->
<g id="edge16" class="edge"><title>Node14&#45;&gt;Node15</title>
<path fill="none" stroke="midnightblue" d="M929.75,-59.1697C1015.35,-48.4948 1195.82,-25.9884 1276.07,-15.98"/>
<polygon fill="midnightblue" stroke="midnightblue" points="1276.76,-19.4204 1286.25,-14.7097 1275.9,-12.4742 1276.76,-19.4204"/>
</g>
<!-- Node17&#45;&gt;Node11 -->
<g id="edge24" class="edge"><title>Node17&#45;&gt;Node11</title>
<path fill="none" stroke="midnightblue" d="M608.877,-168.375C609.065,-146.023 612.876,-85.8821 647,-56 681.578,-25.7199 734.988,-15.6824 770.698,-12.4306"/>
<polygon fill="midnightblue" stroke="midnightblue" points="771.021,-15.9161 780.72,-11.653 770.479,-8.93709 771.021,-15.9161"/>
</g>
<!-- Node17&#45;&gt;Node13 -->
<g id="edge22" class="edge"><title>Node17&#45;&gt;Node13</title>
<path fill="none" stroke="midnightblue" d="M623.139,-168.324C636.866,-159.9 657.936,-146.971 674.064,-137.074"/>
<polygon fill="midnightblue" stroke="midnightblue" points="676.204,-139.868 682.896,-131.655 672.543,-133.902 676.204,-139.868"/>
</g>
<!-- Node17&#45;&gt;Node14 -->
<g id="edge23" class="edge"><title>Node17&#45;&gt;Node14</title>
<path fill="none" stroke="midnightblue" d="M610.965,-168.239C614.639,-154.019 623.959,-126.091 643,-112 671.446,-90.9484 764.867,-78.2156 826.415,-71.9048"/>
<polygon fill="midnightblue" stroke="midnightblue" points="826.778,-75.3861 836.381,-70.9103 826.082,-68.4207 826.778,-75.3861"/>
</g>
<!-- Node18&#45;&gt;Node11 -->
<g id="edge34" class="edge"><title>Node18&#45;&gt;Node11</title>
<path fill="none" stroke="midnightblue" d="M837.298,-224.349C818.166,-217.775 796.428,-206.583 785,-188 753.667,-137.047 782.663,-62.2993 798.823,-28.6102"/>
<polygon fill="midnightblue" stroke="midnightblue" points="802.013,-30.0558 803.345,-19.545 795.749,-26.9311 802.013,-30.0558"/>
</g>
<!-- Node18&#45;&gt;Node13 -->
<g id="edge31" class="edge"><title>Node18&#45;&gt;Node13</title>
<path fill="none" stroke="midnightblue" d="M836.122,-224.447C810.734,-217.467 777.426,-205.807 752,-188 733.724,-175.201 717.88,-154.898 707.953,-140.39"/>
<polygon fill="midnightblue" stroke="midnightblue" points="710.739,-138.258 702.318,-131.83 704.893,-142.107 710.739,-138.258"/>
</g>
<!-- Node18&#45;&gt;Node14 -->
<g id="edge32" class="edge"><title>Node18&#45;&gt;Node14</title>
<path fill="none" stroke="midnightblue" d="M884.978,-224.486C904.204,-208.747 943.148,-172.944 956,-132 958.662,-123.519 960.333,-119.761 956,-112 947.844,-97.3909 932.78,-86.9362 918.446,-79.8038"/>
<polygon fill="midnightblue" stroke="midnightblue" points="919.762,-76.557 909.211,-75.5863 916.854,-82.9244 919.762,-76.557"/>
</g>
<!-- Node19 -->
<g id="node19" class="node"><title>Node19</title>
<g id="a_node19"><a xlink:href="../../d1/de9/SHitMap_8h.html" target="_top" xlink:title="SHitMap.h">
<polygon fill="none" stroke="black" points="794,-168.5 794,-187.5 856,-187.5 856,-168.5 794,-168.5"/>
<text text-anchor="middle" x="825" y="-175.5" font-family="FreeSans" font-size="10.00">SHitMap.h</text>
</a>
</g>
</g>
<!-- Node18&#45;&gt;Node19 -->
<g id="edge26" class="edge"><title>Node18&#45;&gt;Node19</title>
<path fill="none" stroke="midnightblue" d="M865.909,-224.083C858.845,-216.298 848.412,-204.801 839.851,-195.367"/>
<polygon fill="midnightblue" stroke="midnightblue" points="842.253,-192.805 832.941,-187.751 837.069,-197.509 842.253,-192.805"/>
</g>
<!-- Node20 -->
<g id="node20" class="node"><title>Node20</title>
<polygon fill="none" stroke="#bfbfbf" points="912.5,-112.5 912.5,-131.5 947.5,-131.5 947.5,-112.5 912.5,-112.5"/>
<text text-anchor="middle" x="930" y="-119.5" font-family="FreeSans" font-size="10.00">map</text>
</g>
<!-- Node18&#45;&gt;Node20 -->
<g id="edge33" class="edge"><title>Node18&#45;&gt;Node20</title>
<path fill="none" stroke="midnightblue" d="M878.684,-224.417C883.584,-215.394 891.456,-200.764 898,-188 906.059,-172.279 914.908,-154.243 921.253,-141.164"/>
<polygon fill="midnightblue" stroke="midnightblue" points="924.542,-142.403 925.743,-131.877 918.239,-139.357 924.542,-142.403"/>
</g>
<!-- Node19&#45;&gt;Node11 -->
<g id="edge30" class="edge"><title>Node19&#45;&gt;Node11</title>
<path fill="none" stroke="midnightblue" d="M824.086,-168.075C821.41,-141.945 813.552,-65.2106 809.902,-29.577"/>
<polygon fill="midnightblue" stroke="midnightblue" points="813.378,-29.1595 808.877,-19.5681 806.415,-29.8727 813.378,-29.1595"/>
</g>
<!-- Node19&#45;&gt;Node13 -->
<g id="edge27" class="edge"><title>Node19&#45;&gt;Node13</title>
<path fill="none" stroke="midnightblue" d="M804.718,-168.444C783.653,-159.557 750.483,-145.563 726.514,-135.451"/>
<polygon fill="midnightblue" stroke="midnightblue" points="727.761,-132.179 717.187,-131.516 725.04,-138.628 727.761,-132.179"/>
</g>
<!-- Node19&#45;&gt;Node14 -->
<g id="edge28" class="edge"><title>Node19&#45;&gt;Node14</title>
<path fill="none" stroke="midnightblue" d="M829.551,-168.368C839.038,-150.376 861.092,-108.55 873.706,-84.6267"/>
<polygon fill="midnightblue" stroke="midnightblue" points="876.902,-86.0696 878.47,-75.5914 870.71,-82.8047 876.902,-86.0696"/>
</g>
<!-- Node19&#45;&gt;Node20 -->
<g id="edge29" class="edge"><title>Node19&#45;&gt;Node20</title>
<path fill="none" stroke="midnightblue" d="M841.87,-168.324C858.709,-159.664 884.807,-146.242 904.238,-136.249"/>
<polygon fill="midnightblue" stroke="midnightblue" points="905.88,-139.341 913.172,-131.655 902.678,-133.116 905.88,-139.341"/>
</g>
<!-- Node23 -->
<g id="node23" class="node"><title>Node23</title>
<g id="a_node23"><a xlink:href="../../d5/d6f/phool_8h.html" target="_top" xlink:title="phool.h">
<polygon fill="none" stroke="black" points="1444.5,-56.5 1444.5,-75.5 1491.5,-75.5 1491.5,-56.5 1444.5,-56.5"/>
<text text-anchor="middle" x="1468" y="-63.5" font-family="FreeSans" font-size="10.00">phool.h</text>
</a>
</g>
</g>
<!-- Node22&#45;&gt;Node23 -->
<g id="edge37" class="edge"><title>Node22&#45;&gt;Node23</title>
<path fill="none" stroke="midnightblue" d="M1540.19,-280.398C1521.57,-273.642 1499.36,-262.248 1487,-244 1453.83,-195.034 1459.63,-120.368 1464.68,-85.7866"/>
<polygon fill="midnightblue" stroke="midnightblue" points="1468.17,-86.1198 1466.3,-75.6908 1461.26,-85.0077 1468.17,-86.1198"/>
</g>
<!-- Node24 -->
<g id="node24" class="node"><title>Node24</title>
<g id="a_node24"><a xlink:href="../../d8/d30/PHCompositeNode_8h.html" target="_top" xlink:title="PHCompositeNode.h">
<polygon fill="none" stroke="black" points="1496,-224.5 1496,-243.5 1604,-243.5 1604,-224.5 1496,-224.5"/>
<text text-anchor="middle" x="1550" y="-231.5" font-family="FreeSans" font-size="10.00">PHCompositeNode.h</text>
</a>
</g>
</g>
<!-- Node22&#45;&gt;Node24 -->
<g id="edge39" class="edge"><title>Node22&#45;&gt;Node24</title>
<path fill="none" stroke="midnightblue" d="M1568.37,-280.083C1565.39,-272.77 1561.07,-262.181 1557.38,-253.103"/>
<polygon fill="midnightblue" stroke="midnightblue" points="1560.58,-251.691 1553.57,-243.751 1554.1,-254.333 1560.58,-251.691"/>
</g>
<!-- Node27 -->
<g id="node27" class="node"><title>Node27</title>
<g id="a_node27"><a xlink:href="../../db/dd5/PHPointerList_8h.html" target="_top" xlink:title="PHPointerList.h">
<polygon fill="none" stroke="black" points="1572,-168.5 1572,-187.5 1658,-187.5 1658,-168.5 1572,-168.5"/>
<text text-anchor="middle" x="1615" y="-175.5" font-family="FreeSans" font-size="10.00">PHPointerList.h</text>
</a>
</g>
</g>
<!-- Node22&#45;&gt;Node27 -->
<g id="edge49" class="edge"><title>Node22&#45;&gt;Node27</title>
<path fill="none" stroke="midnightblue" d="M1583.43,-280.446C1593.29,-272.306 1606.89,-259.086 1613,-244 1618.96,-229.285 1618.98,-211.122 1617.78,-197.74"/>
<polygon fill="midnightblue" stroke="midnightblue" points="1621.25,-197.319 1616.59,-187.805 1614.3,-198.149 1621.25,-197.319"/>
</g>
<!-- Node23&#45;&gt;Node11 -->
<g id="edge38" class="edge"><title>Node23&#45;&gt;Node11</title>
<path fill="none" stroke="midnightblue" d="M1444.33,-57.9523C1441.21,-57.1989 1438.04,-56.5192 1435,-56 1213.62,-18.2371 942.999,-12.1077 845.354,-11.1561"/>
<polygon fill="midnightblue" stroke="midnightblue" points="845.143,-7.65431 835.114,-11.0695 845.084,-14.6541 845.143,-7.65431"/>
</g>
<!-- Node24&#45;&gt;Node23 -->
<g id="edge40" class="edge"><title>Node24&#45;&gt;Node23</title>
<path fill="none" stroke="midnightblue" d="M1545.59,-224.075C1532.57,-197.719 1494.12,-119.878 1476.72,-84.6608"/>
<polygon fill="midnightblue" stroke="midnightblue" points="1479.8,-82.9838 1472.23,-75.5681 1473.52,-86.084 1479.8,-82.9838"/>
</g>
<!-- Node25 -->
<g id="node25" class="node"><title>Node25</title>
<g id="a_node25"><a xlink:href="../../d3/d62/PHNode_8h.html" target="_top" xlink:title="PHNode.h">
<polygon fill="none" stroke="black" points="1378,-112.5 1378,-131.5 1440,-131.5 1440,-112.5 1378,-112.5"/>
<text text-anchor="middle" x="1409" y="-119.5" font-family="FreeSans" font-size="10.00">PHNode.h</text>
</a>
</g>
</g>
<!-- Node24&#45;&gt;Node25 -->
<g id="edge41" class="edge"><title>Node24&#45;&gt;Node25</title>
<path fill="none" stroke="midnightblue" d="M1538.94,-224.368C1514.95,-205.653 1457.9,-161.151 1428.01,-137.832"/>
<polygon fill="midnightblue" stroke="midnightblue" points="1430.05,-134.983 1420.01,-131.591 1425.74,-140.502 1430.05,-134.983"/>
</g>
<!-- Node24&#45;&gt;Node27 -->
<g id="edge45" class="edge"><title>Node24&#45;&gt;Node27</title>
<path fill="none" stroke="midnightblue" d="M1560.44,-224.324C1570.15,-216.263 1584.82,-204.077 1596.5,-194.369"/>
<polygon fill="midnightblue" stroke="midnightblue" points="1598.91,-196.916 1604.37,-187.834 1594.44,-191.532 1598.91,-196.916"/>
</g>
<!-- Node25&#45;&gt;Node8 -->
<g id="edge44" class="edge"><title>Node25&#45;&gt;Node8</title>
<path fill="none" stroke="midnightblue" d="M1377.76,-116.208C1310.82,-105.938 1154.23,-81.9165 1087.74,-71.7157"/>
<polygon fill="midnightblue" stroke="midnightblue" points="1087.92,-68.2022 1077.5,-70.1453 1086.86,-75.1213 1087.92,-68.2022"/>
</g>
<!-- Node25&#45;&gt;Node23 -->
<g id="edge42" class="edge"><title>Node25&#45;&gt;Node23</title>
<path fill="none" stroke="midnightblue" d="M1418.48,-112.324C1427.2,-104.341 1440.34,-92.3128 1450.9,-82.6529"/>
<polygon fill="midnightblue" stroke="midnightblue" points="1453.33,-85.1674 1458.35,-75.8339 1448.61,-80.0036 1453.33,-85.1674"/>
</g>
<!-- Node26 -->
<g id="node26" class="node"><title>Node26</title>
<polygon fill="none" stroke="#bfbfbf" points="1381.5,-56.5 1381.5,-75.5 1426.5,-75.5 1426.5,-56.5 1381.5,-56.5"/>
<text text-anchor="middle" x="1404" y="-63.5" font-family="FreeSans" font-size="10.00">iosfwd</text>
</g>
<!-- Node25&#45;&gt;Node26 -->
<g id="edge43" class="edge"><title>Node25&#45;&gt;Node26</title>
<path fill="none" stroke="midnightblue" d="M1408.17,-112.083C1407.52,-105.006 1406.58,-94.8611 1405.76,-85.9865"/>
<polygon fill="midnightblue" stroke="midnightblue" points="1409.22,-85.3858 1404.81,-75.7511 1402.25,-86.0312 1409.22,-85.3858"/>
</g>
<!-- Node27&#45;&gt;Node11 -->
<g id="edge48" class="edge"><title>Node27&#45;&gt;Node11</title>
<path fill="none" stroke="midnightblue" d="M1612.13,-168.184C1607.47,-154.858 1597.2,-129.306 1582,-112 1552.88,-78.8416 1541.72,-70.3866 1500,-56 1377.38,-13.7178 970.944,-10.7326 845.323,-10.8472"/>
<polygon fill="midnightblue" stroke="midnightblue" points="845.063,-7.34754 835.069,-10.8642 845.074,-14.3475 845.063,-7.34754"/>
</g>
<!-- Node27&#45;&gt;Node23 -->
<g id="edge46" class="edge"><title>Node27&#45;&gt;Node23</title>
<path fill="none" stroke="midnightblue" d="M1609.2,-168.471C1599.74,-155.07 1579.86,-128.872 1558,-112 1540.5,-98.4921 1518.3,-87.3417 1500.33,-79.5193"/>
<polygon fill="midnightblue" stroke="midnightblue" points="1501.42,-76.1778 1490.84,-75.522 1498.7,-82.6291 1501.42,-76.1778"/>
</g>
<!-- Node27&#45;&gt;Node25 -->
<g id="edge47" class="edge"><title>Node27&#45;&gt;Node25</title>
<path fill="none" stroke="midnightblue" d="M1582.36,-168.444C1546.53,-159.052 1488.95,-143.959 1450.08,-133.77"/>
<polygon fill="midnightblue" stroke="midnightblue" points="1450.7,-130.313 1440.14,-131.163 1448.93,-137.084 1450.7,-130.313"/>
</g>
<!-- Node28&#45;&gt;Node8 -->
<g id="edge67" class="edge"><title>Node28&#45;&gt;Node8</title>
<path fill="none" stroke="midnightblue" d="M1224.49,-392.325C1217.4,-373.959 1202,-329.658 1202,-291 1202,-291 1202,-291 1202,-177 1202,-143.976 1190.65,-133.98 1166,-112 1143.64,-92.0588 1111.22,-80.211 1087.56,-73.72"/>
<polygon fill="midnightblue" stroke="midnightblue" points="1088.24,-70.2824 1077.69,-71.1814 1086.5,-77.0618 1088.24,-70.2824"/>
</g>
<!-- Node28&#45;&gt;Node15 -->
<g id="edge66" class="edge"><title>Node28&#45;&gt;Node15</title>
<path fill="none" stroke="midnightblue" d="M1229.92,-392.492C1240.92,-343.742 1296.01,-99.6078 1311.78,-29.7198"/>
<polygon fill="midnightblue" stroke="midnightblue" points="1315.24,-30.2567 1314.03,-19.7316 1308.41,-28.7159 1315.24,-30.2567"/>
</g>
<!-- Node29 -->
<g id="node29" class="node"><title>Node29</title>
<g id="a_node29"><a xlink:href="../../dd/d9b/PHDataNode_8h.html" target="_top" xlink:title="PHDataNode.h">
<polygon fill="none" stroke="black" points="1268,-280.5 1268,-299.5 1350,-299.5 1350,-280.5 1268,-280.5"/>
<text text-anchor="middle" x="1309" y="-287.5" font-family="FreeSans" font-size="10.00">PHDataNode.h</text>
</a>
</g>
</g>
<!-- Node28&#45;&gt;Node29 -->
<g id="edge51" class="edge"><title>Node28&#45;&gt;Node29</title>
<path fill="none" stroke="midnightblue" d="M1234.36,-392.368C1247.78,-374.135 1279.23,-331.426 1296.72,-307.675"/>
<polygon fill="midnightblue" stroke="midnightblue" points="1299.56,-309.719 1302.67,-299.591 1293.93,-305.568 1299.56,-309.719"/>
</g>
<!-- Node30 -->
<g id="node30" class="node"><title>Node30</title>
<g id="a_node30"><a xlink:href="../../d9/d53/PHIOManager_8h.html" target="_top" xlink:title="PHIOManager.h">
<polygon fill="none" stroke="black" points="1050,-112.5 1050,-131.5 1136,-131.5 1136,-112.5 1050,-112.5"/>
<text text-anchor="middle" x="1093" y="-119.5" font-family="FreeSans" font-size="10.00">PHIOManager.h</text>
</a>
</g>
</g>
<!-- Node28&#45;&gt;Node30 -->
<g id="edge54" class="edge"><title>Node28&#45;&gt;Node30</title>
<path fill="none" stroke="midnightblue" d="M1168.42,-395.398C1142.67,-389.677 1114.86,-378.335 1099,-356 1093.85,-348.753 1098.76,-344.886 1099,-336 1100.78,-270.15 1105.22,-253.85 1107,-188 1107.24,-179.114 1108.34,-176.788 1107,-168 1105.63,-159.001 1102.81,-149.325 1100.05,-141.26"/>
<polygon fill="midnightblue" stroke="midnightblue" points="1103.31,-139.976 1096.6,-131.778 1096.73,-142.372 1103.31,-139.976"/>
</g>
<!-- Node31 -->
<g id="node31" class="node"><title>Node31</title>
<g id="a_node31"><a xlink:href="../../dd/de7/PHNodeIOManager_8h.html" target="_top" xlink:title="PHNodeIOManager.h">
<polygon fill="none" stroke="black" points="988,-168.5 988,-187.5 1098,-187.5 1098,-168.5 988,-168.5"/>
<text text-anchor="middle" x="1043" y="-175.5" font-family="FreeSans" font-size="10.00">PHNodeIOManager.h</text>
</a>
</g>
</g>
<!-- Node28&#45;&gt;Node31 -->
<g id="edge57" class="edge"><title>Node28&#45;&gt;Node31</title>
<path fill="none" stroke="midnightblue" d="M1168.17,-399.996C1133.21,-396.077 1091.15,-384.996 1066,-356 1026.79,-310.799 1033.65,-233.08 1039.38,-197.618"/>
<polygon fill="midnightblue" stroke="midnightblue" points="1042.84,-198.142 1041.15,-187.684 1035.95,-196.919 1042.84,-198.142"/>
</g>
<!-- Node32 -->
<g id="node32" class="node"><title>Node32</title>
<g id="a_node32"><a xlink:href="../../db/d17/PHTypedNodeIterator_8h.html" target="_top" xlink:title="PHTypedNodeIterator.h">
<polygon fill="none" stroke="black" points="1344.5,-336.5 1344.5,-355.5 1463.5,-355.5 1463.5,-336.5 1344.5,-336.5"/>
<text text-anchor="middle" x="1404" y="-343.5" font-family="FreeSans" font-size="10.00">PHTypedNodeIterator.h</text>
</a>
</g>
</g>
<!-- Node28&#45;&gt;Node32 -->
<g id="edge61" class="edge"><title>Node28&#45;&gt;Node32</title>
<path fill="none" stroke="midnightblue" d="M1255.89,-392.444C1285.75,-383.28 1333.31,-368.688 1366.46,-358.519"/>
<polygon fill="midnightblue" stroke="midnightblue" points="1367.71,-361.796 1376.24,-355.516 1365.66,-355.104 1367.71,-361.796"/>
</g>
<!-- Node34 -->
<g id="node34" class="node"><title>Node34</title>
<g id="a_node34"><a xlink:href="../../de/da7/phooldefs_8h.html" target="_top" xlink:title="phooldefs.h">
<polygon fill="none" stroke="black" points="1108,-336.5 1108,-355.5 1174,-355.5 1174,-336.5 1108,-336.5"/>
<text text-anchor="middle" x="1141" y="-343.5" font-family="FreeSans" font-size="10.00">phooldefs.h</text>
</a>
</g>
</g>
<!-- Node28&#45;&gt;Node34 -->
<g id="edge64" class="edge"><title>Node28&#45;&gt;Node34</title>
<path fill="none" stroke="midnightblue" d="M1214.02,-392.324C1200.45,-383.9 1179.62,-370.971 1163.68,-361.074"/>
<polygon fill="midnightblue" stroke="midnightblue" points="1165.29,-357.954 1154.94,-355.655 1161.59,-363.902 1165.29,-357.954"/>
</g>
<!-- Node29&#45;&gt;Node11 -->
<g id="edge53" class="edge"><title>Node29&#45;&gt;Node11</title>
<path fill="none" stroke="midnightblue" d="M1304.82,-280.393C1296.36,-262.156 1278,-218.087 1278,-179 1278,-179 1278,-179 1278,-121 1278,-32.3071 956.675,-15.0808 845.396,-11.7744"/>
<polygon fill="midnightblue" stroke="midnightblue" points="845.393,-8.27307 835.301,-11.4959 845.2,-15.2704 845.393,-8.27307"/>
</g>
<!-- Node29&#45;&gt;Node25 -->
<g id="edge52" class="edge"><title>Node29&#45;&gt;Node25</title>
<path fill="none" stroke="midnightblue" d="M1314.38,-280.075C1330.32,-253.606 1377.55,-175.209 1398.63,-140.21"/>
<polygon fill="midnightblue" stroke="midnightblue" points="1401.68,-141.94 1403.84,-131.568 1395.68,-138.328 1401.68,-141.94"/>
</g>
<!-- Node30&#45;&gt;Node8 -->
<g id="edge56" class="edge"><title>Node30&#45;&gt;Node8</title>
<path fill="none" stroke="midnightblue" d="M1087.06,-112.083C1082.02,-104.534 1074.66,-93.4948 1068.49,-84.2298"/>
<polygon fill="midnightblue" stroke="midnightblue" points="1071.29,-82.1301 1062.83,-75.7511 1065.47,-86.0131 1071.29,-82.1301"/>
</g>
<!-- Node30&#45;&gt;Node23 -->
<g id="edge55" class="edge"><title>Node30&#45;&gt;Node23</title>
<path fill="none" stroke="midnightblue" d="M1136.23,-117.207C1199.57,-111.234 1321.43,-98.1763 1434.44,-75.8522"/>
<polygon fill="midnightblue" stroke="midnightblue" points="1435.18,-79.2736 1444.3,-73.8766 1433.81,-72.4101 1435.18,-79.2736"/>
</g>
<!-- Node31&#45;&gt;Node8 -->
<g id="edge59" class="edge"><title>Node31&#45;&gt;Node8</title>
<path fill="none" stroke="midnightblue" d="M1041.6,-168.09C1039.89,-155.493 1037.58,-131.804 1041,-112 1042.57,-102.91 1045.79,-93.2219 1048.94,-85.1726"/>
<polygon fill="midnightblue" stroke="midnightblue" points="1052.26,-86.2993 1052.89,-75.7229 1045.81,-83.6018 1052.26,-86.2993"/>
</g>
<!-- Node31&#45;&gt;Node20 -->
<g id="edge60" class="edge"><title>Node31&#45;&gt;Node20</title>
<path fill="none" stroke="midnightblue" d="M1025.09,-168.444C1006.75,-159.675 977.995,-145.935 956.906,-135.858"/>
<polygon fill="midnightblue" stroke="midnightblue" points="958.353,-132.67 947.821,-131.516 955.335,-138.986 958.353,-132.67"/>
</g>
<!-- Node31&#45;&gt;Node30 -->
<g id="edge58" class="edge"><title>Node31&#45;&gt;Node30</title>
<path fill="none" stroke="midnightblue" d="M1051.26,-168.083C1058.46,-160.298 1069.11,-148.801 1077.85,-139.367"/>
<polygon fill="midnightblue" stroke="midnightblue" points="1080.67,-141.467 1084.9,-131.751 1075.53,-136.711 1080.67,-141.467"/>
</g>
<!-- Node32&#45;&gt;Node22 -->
<g id="edge62" class="edge"><title>Node32&#45;&gt;Node22</title>
<path fill="none" stroke="midnightblue" d="M1430.62,-336.444C1459.01,-327.32 1504.14,-312.813 1535.75,-302.651"/>
<polygon fill="midnightblue" stroke="midnightblue" points="1537.06,-305.909 1545.5,-299.516 1534.91,-299.244 1537.06,-305.909"/>
</g>
<!-- Node33 -->
<g id="node33" class="node"><title>Node33</title>
<polygon fill="none" stroke="#bfbfbf" points="1368.5,-280.5 1368.5,-299.5 1417.5,-299.5 1417.5,-280.5 1368.5,-280.5"/>
<text text-anchor="middle" x="1393" y="-287.5" font-family="FreeSans" font-size="10.00">cstddef</text>
</g>
<!-- Node32&#45;&gt;Node33 -->
<g id="edge63" class="edge"><title>Node32&#45;&gt;Node33</title>
<path fill="none" stroke="midnightblue" d="M1402.18,-336.083C1400.73,-328.927 1398.63,-318.635 1396.81,-309.691"/>
<polygon fill="midnightblue" stroke="midnightblue" points="1400.21,-308.851 1394.78,-299.751 1393.35,-310.248 1400.21,-308.851"/>
</g>
<!-- Node34&#45;&gt;Node8 -->
<g id="edge65" class="edge"><title>Node34&#45;&gt;Node8</title>
<path fill="none" stroke="midnightblue" d="M1144.1,-336.289C1150.38,-317.856 1164,-273.435 1164,-235 1164,-235 1164,-235 1164,-177 1164,-146.902 1164.19,-135.189 1145,-112 1130.19,-94.0996 1106.43,-82.5461 1087.33,-75.6332"/>
<polygon fill="midnightblue" stroke="midnightblue" points="1088.43,-72.3116 1077.84,-72.4322 1086.19,-78.9445 1088.43,-72.3116"/>
</g>
<!-- Node35&#45;&gt;Node8 -->
<g id="edge74" class="edge"><title>Node35&#45;&gt;Node8</title>
<path fill="none" stroke="midnightblue" d="M1492.08,-448.348C1491.95,-427.862 1489.76,-375.17 1472,-336 1458.7,-306.666 1449.53,-302 1426,-280 1332.22,-192.308 1305.33,-170.411 1191,-112 1157.28,-94.7739 1115.53,-81.9661 1087.68,-74.5081"/>
<polygon fill="midnightblue" stroke="midnightblue" points="1088.29,-71.0506 1077.73,-71.9137 1086.53,-77.824 1088.29,-71.0506"/>
</g>
<!-- Node35&#45;&gt;Node15 -->
<g id="edge73" class="edge"><title>Node35&#45;&gt;Node15</title>
<path fill="none" stroke="midnightblue" d="M1509.15,-448.457C1524.19,-440.416 1546.08,-427.338 1562,-412 1647.01,-330.078 1716.2,-275.321 1667,-168 1612.49,-49.0892 1435.78,-20.2305 1355.88,-13.2346"/>
<polygon fill="midnightblue" stroke="midnightblue" points="1355.97,-9.73076 1345.72,-12.4184 1355.41,-16.7083 1355.97,-9.73076"/>
</g>
<!-- Node35&#45;&gt;Node22 -->
<g id="edge69" class="edge"><title>Node35&#45;&gt;Node22</title>
<path fill="none" stroke="midnightblue" d="M1506.14,-448.449C1518.06,-440.492 1534.63,-427.542 1544,-412 1563.51,-379.637 1569.43,-334.88 1571.22,-309.864"/>
<polygon fill="midnightblue" stroke="midnightblue" points="1574.73,-309.772 1571.8,-299.591 1567.74,-309.378 1574.73,-309.772"/>
</g>
<!-- Node35&#45;&gt;Node25 -->
<g id="edge72" class="edge"><title>Node35&#45;&gt;Node25</title>
<path fill="none" stroke="midnightblue" d="M1495.6,-448.222C1499.06,-439.285 1504.03,-424.942 1506,-412 1511.07,-378.606 1513.16,-369.01 1506,-336 1497.23,-295.562 1441.02,-184.646 1418.4,-140.992"/>
<polygon fill="midnightblue" stroke="midnightblue" points="1421.37,-139.117 1413.65,-131.86 1415.16,-142.347 1421.37,-139.117"/>
</g>
<!-- Node35&#45;&gt;Node28 -->
<g id="edge70" class="edge"><title>Node35&#45;&gt;Node28</title>
<path fill="none" stroke="midnightblue" d="M1450.17,-448.444C1403.92,-438.984 1329.39,-423.738 1279.56,-413.547"/>
<polygon fill="midnightblue" stroke="midnightblue" points="1280.13,-410.091 1269.64,-411.516 1278.73,-416.949 1280.13,-410.091"/>
</g>
<!-- Node35&#45;&gt;Node29 -->
<g id="edge71" class="edge"><title>Node35&#45;&gt;Node29</title>
<path fill="none" stroke="midnightblue" d="M1470.73,-448.442C1437.45,-434.052 1372.95,-402 1335,-356 1323.89,-342.536 1317.06,-323.723 1313.21,-309.799"/>
<polygon fill="midnightblue" stroke="midnightblue" points="1316.55,-308.731 1310.73,-299.877 1309.76,-310.427 1316.55,-308.731"/>
</g>
</g>
</svg>
