<?xml version="1.0" encoding="UTF-8" standalone="no"?>
<!DOCTYPE svg PUBLIC "-//W3C//DTD SVG 1.1//EN"
 "http://www.w3.org/Graphics/SVG/1.1/DTD/svg11.dtd">
<!-- Generated by graphviz version 2.36.0 (20140111.2315)
 -->
<!-- Title: PHNode Pages: 1 -->
<svg width="228pt" height="140pt"
 viewBox="0.00 0.00 228.00 140.00" xmlns="http://www.w3.org/2000/svg" xmlns:xlink="http://www.w3.org/1999/xlink">
<g id="graph0" class="graph" transform="scale(1 1) rotate(0) translate(4 136)">
<title>PHNode</title>
<!-- Node1 -->
<g id="node1" class="node"><title>Node1</title>
<polygon fill="#bfbfbf" stroke="black" points="81,-112.5 81,-131.5 135,-131.5 135,-112.5 81,-112.5"/>
<text text-anchor="middle" x="108" y="-119.5" font-family="FreeSans" font-size="10.00">PHNode</text>
</g>
<!-- Node2 -->
<g id="node2" class="node"><title>Node2</title>
<g id="a_node2"><a xlink:href="../../d5/dca/classPHCompositeNode.html" target="_top" xlink:title="PHCompositeNode">
<polygon fill="none" stroke="black" points="-0.5,-56.5 -0.5,-75.5 100.5,-75.5 100.5,-56.5 -0.5,-56.5"/>
<text text-anchor="middle" x="50" y="-63.5" font-family="FreeSans" font-size="10.00">PHCompositeNode</text>
</a>
</g>
</g>
<!-- Node1&#45;&gt;Node2 -->
<g id="edge1" class="edge"><title>Node1&#45;&gt;Node2</title>
<path fill="none" stroke="midnightblue" d="M91.0869,-105.253C80.797,-95.6731 68.0343,-83.7906 59.4883,-75.8339"/>
<polygon fill="midnightblue" stroke="midnightblue" points="88.9774,-108.071 98.6813,-112.324 93.7473,-102.948 88.9774,-108.071"/>
</g>
<!-- Node3 -->
<g id="node3" class="node"><title>Node3</title>
<g id="a_node3"><a xlink:href="../../d1/d3e/classPHDataNode.html" target="_top" xlink:title="PHDataNode\&lt; T \&gt;">
<polygon fill="none" stroke="black" points="118.5,-56.5 118.5,-75.5 215.5,-75.5 215.5,-56.5 118.5,-56.5"/>
<text text-anchor="middle" x="167" y="-63.5" font-family="FreeSans" font-size="10.00">PHDataNode&lt; T &gt;</text>
</a>
</g>
</g>
<!-- Node1&#45;&gt;Node3 -->
<g id="edge2" class="edge"><title>Node1&#45;&gt;Node3</title>
<path fill="none" stroke="midnightblue" d="M124.895,-105.537C135.415,-95.9087 148.569,-83.8694 157.348,-75.8339"/>
<polygon fill="midnightblue" stroke="midnightblue" points="122.493,-102.99 117.479,-112.324 127.219,-108.154 122.493,-102.99"/>
</g>
<!-- Node4 -->
<g id="node4" class="node"><title>Node4</title>
<g id="a_node4"><a xlink:href="../../d9/dde/classPHIODataNode.html" target="_top" xlink:title="PHIODataNode\&lt; T \&gt;">
<polygon fill="none" stroke="black" points="113.5,-0.5 113.5,-19.5 220.5,-19.5 220.5,-0.5 113.5,-0.5"/>
<text text-anchor="middle" x="167" y="-7.5" font-family="FreeSans" font-size="10.00">PHIODataNode&lt; T &gt;</text>
</a>
</g>
</g>
<!-- Node3&#45;&gt;Node4 -->
<g id="edge3" class="edge"><title>Node3&#45;&gt;Node4</title>
<path fill="none" stroke="midnightblue" d="M167,-45.8045C167,-36.9102 167,-26.7798 167,-19.7511"/>
<polygon fill="midnightblue" stroke="midnightblue" points="163.5,-46.083 167,-56.083 170.5,-46.083 163.5,-46.083"/>
</g>
</g>
</svg>
