<?xml version="1.0" encoding="UTF-8" standalone="no"?>
<!DOCTYPE svg PUBLIC "-//W3C//DTD SVG 1.1//EN"
 "http://www.w3.org/Graphics/SVG/1.1/DTD/svg11.dtd">
<!-- Generated by graphviz version 2.36.0 (20140111.2315)
 -->
<!-- Title: boost::array&lt; T, 0 &gt;::assign Pages: 1 -->
<svg width="346pt" height="66pt"
 viewBox="0.00 0.00 346.00 66.00" xmlns="http://www.w3.org/2000/svg" xmlns:xlink="http://www.w3.org/1999/xlink">
<g id="graph0" class="graph" transform="scale(1 1) rotate(0) translate(4 62)">
<title>boost::array&lt; T, 0 &gt;::assign</title>
<!-- Node1 -->
<g id="node1" class="node"><title>Node1</title>
<polygon fill="#bfbfbf" stroke="black" points="0.5,-14 0.5,-44 91.5,-44 91.5,-14 0.5,-14"/>
<text text-anchor="start" x="8.5" y="-32" font-family="FreeSans" font-size="10.00">boost::array&lt; T, 0</text>
<text text-anchor="middle" x="46" y="-21" font-family="FreeSans" font-size="10.00"> &gt;::assign</text>
</g>
<!-- Node2 -->
<g id="node2" class="node"><title>Node2</title>
<g id="a_node2"><a xlink:href="../../d1/d96/classboost_1_1array.html#a4dd92c3399a847641733637356b0c972" target="_top" xlink:title="boost::array::fill">
<polygon fill="none" stroke="black" points="128,-19.5 128,-38.5 208,-38.5 208,-19.5 128,-19.5"/>
<text text-anchor="middle" x="168" y="-26.5" font-family="FreeSans" font-size="10.00">boost::array::fill</text>
</a>
</g>
</g>
<!-- Node1&#45;&gt;Node2 -->
<g id="edge1" class="edge"><title>Node1&#45;&gt;Node2</title>
<path fill="none" stroke="midnightblue" d="M91.6836,-29C100.116,-29 108.981,-29 117.55,-29"/>
<polygon fill="midnightblue" stroke="midnightblue" points="117.806,-32.5001 127.806,-29 117.806,-25.5001 117.806,-32.5001"/>
</g>
<!-- Node3 -->
<g id="node3" class="node"><title>Node3</title>
<g id="a_node3"><a xlink:href="../../d1/d96/classboost_1_1array.html#a692b0cab4e768f391c6784c799ea61ab" target="_top" xlink:title="boost::array::begin">
<polygon fill="none" stroke="black" points="244,-38.5 244,-57.5 338,-57.5 338,-38.5 244,-38.5"/>
<text text-anchor="middle" x="291" y="-45.5" font-family="FreeSans" font-size="10.00">boost::array::begin</text>
</a>
</g>
</g>
<!-- Node2&#45;&gt;Node3 -->
<g id="edge2" class="edge"><title>Node2&#45;&gt;Node3</title>
<path fill="none" stroke="midnightblue" d="M208.285,-35.1688C216.419,-36.446 225.139,-37.8153 233.744,-39.1664"/>
<polygon fill="midnightblue" stroke="midnightblue" points="233.329,-42.644 243.751,-40.7377 234.415,-35.7288 233.329,-42.644"/>
</g>
<!-- Node4 -->
<g id="node4" class="node"><title>Node4</title>
<g id="a_node4"><a xlink:href="../../d1/d96/classboost_1_1array.html#aaf4df5cfae58ef79c61cddcb80cad437" target="_top" xlink:title="boost::array::size">
<polygon fill="none" stroke="black" points="247,-0.5 247,-19.5 335,-19.5 335,-0.5 247,-0.5"/>
<text text-anchor="middle" x="291" y="-7.5" font-family="FreeSans" font-size="10.00">boost::array::size</text>
</a>
</g>
</g>
<!-- Node2&#45;&gt;Node4 -->
<g id="edge3" class="edge"><title>Node2&#45;&gt;Node4</title>
<path fill="none" stroke="midnightblue" d="M208.285,-22.8312C217.306,-21.4148 227.046,-19.8853 236.552,-18.3927"/>
<polygon fill="midnightblue" stroke="midnightblue" points="237.393,-21.8036 246.729,-16.7947 236.307,-14.8884 237.393,-21.8036"/>
</g>
</g>
</svg>
