<?xml version="1.0" encoding="UTF-8" standalone="no"?>
<!DOCTYPE svg PUBLIC "-//W3C//DTD SVG 1.1//EN"
 "http://www.w3.org/Graphics/SVG/1.1/DTD/svg11.dtd">
<!-- Generated by graphviz version 2.36.0 (20140111.2315)
 -->
<!-- Title: SHitMap_v1::operator= Pages: 1 -->
<svg width="262pt" height="180pt"
 viewBox="0.00 0.00 262.00 180.00" xmlns="http://www.w3.org/2000/svg" xmlns:xlink="http://www.w3.org/1999/xlink">
<g id="graph0" class="graph" transform="scale(1 1) rotate(0) translate(4 176)">
<title>SHitMap_v1::operator=</title>
<!-- Node1 -->
<g id="node1" class="node"><title>Node1</title>
<polygon fill="#bfbfbf" stroke="black" points="0,-76.5 0,-95.5 116,-95.5 116,-76.5 0,-76.5"/>
<text text-anchor="middle" x="58" y="-83.5" font-family="FreeSans" font-size="10.00">SHitMap_v1::operator=</text>
</g>
<!-- Node2 -->
<g id="node2" class="node"><title>Node2</title>
<g id="a_node2"><a xlink:href="../../de/d92/classSHitMap__v1.html#aa8962de29392f9a2f1f7ba6751809bba" target="_top" xlink:title="SHitMap_v1::begin">
<polygon fill="none" stroke="black" points="154,-152.5 154,-171.5 252,-171.5 252,-152.5 154,-152.5"/>
<text text-anchor="middle" x="203" y="-159.5" font-family="FreeSans" font-size="10.00">SHitMap_v1::begin</text>
</a>
</g>
</g>
<!-- Node1&#45;&gt;Node2 -->
<g id="edge1" class="edge"><title>Node1&#45;&gt;Node2</title>
<path fill="none" stroke="midnightblue" d="M72.7153,-95.5357C90.4604,-107.605 122.593,-128.559 152,-143 156.048,-144.988 160.359,-146.905 164.688,-148.707"/>
<polygon fill="midnightblue" stroke="midnightblue" points="163.514,-152.007 174.099,-152.451 166.101,-145.503 163.514,-152.007"/>
</g>
<!-- Node3 -->
<g id="node3" class="node"><title>Node3</title>
<g id="a_node3"><a xlink:href="../../d0/da1/classSHit.html#a34c44ef544bd3c7b68f33f8d255a8be5" target="_top" xlink:title="SHit::Clone">
<polygon fill="none" stroke="black" points="170.5,-114.5 170.5,-133.5 235.5,-133.5 235.5,-114.5 170.5,-114.5"/>
<text text-anchor="middle" x="203" y="-121.5" font-family="FreeSans" font-size="10.00">SHit::Clone</text>
</a>
</g>
</g>
<!-- Node1&#45;&gt;Node3 -->
<g id="edge2" class="edge"><title>Node1&#45;&gt;Node3</title>
<path fill="none" stroke="midnightblue" d="M95.0849,-95.589C114.994,-100.88 139.804,-107.473 160.512,-112.975"/>
<polygon fill="midnightblue" stroke="midnightblue" points="159.745,-116.393 170.308,-115.578 161.542,-109.627 159.745,-116.393"/>
</g>
<!-- Node4 -->
<g id="node4" class="node"><title>Node4</title>
<g id="a_node4"><a xlink:href="../../de/d92/classSHitMap__v1.html#a4b02d19cd3ba3cce60688cbe3dfec39c" target="_top" xlink:title="SHitMap_v1::end">
<polygon fill="none" stroke="black" points="157.5,-76.5 157.5,-95.5 248.5,-95.5 248.5,-76.5 157.5,-76.5"/>
<text text-anchor="middle" x="203" y="-83.5" font-family="FreeSans" font-size="10.00">SHitMap_v1::end</text>
</a>
</g>
</g>
<!-- Node1&#45;&gt;Node4 -->
<g id="edge3" class="edge"><title>Node1&#45;&gt;Node4</title>
<path fill="none" stroke="midnightblue" d="M116.34,-86C126.49,-86 137.036,-86 147.116,-86"/>
<polygon fill="midnightblue" stroke="midnightblue" points="147.416,-89.5001 157.416,-86 147.415,-82.5001 147.416,-89.5001"/>
</g>
<!-- Node5 -->
<g id="node5" class="node"><title>Node5</title>
<g id="a_node5"><a xlink:href="../../d0/da1/classSHit.html#a80583327e744f8be37a40d5a6822b811" target="_top" xlink:title="SHit::get_hit_id">
<polygon fill="none" stroke="black" points="161.5,-38.5 161.5,-57.5 244.5,-57.5 244.5,-38.5 161.5,-38.5"/>
<text text-anchor="middle" x="203" y="-45.5" font-family="FreeSans" font-size="10.00">SHit::get_hit_id</text>
</a>
</g>
</g>
<!-- Node1&#45;&gt;Node5 -->
<g id="edge4" class="edge"><title>Node1&#45;&gt;Node5</title>
<path fill="none" stroke="midnightblue" d="M95.0849,-76.411C113.63,-71.4831 136.426,-65.4251 156.199,-60.1709"/>
<polygon fill="midnightblue" stroke="midnightblue" points="157.161,-63.5368 165.927,-57.5859 155.363,-56.7716 157.161,-63.5368"/>
</g>
<!-- Node6 -->
<g id="node6" class="node"><title>Node6</title>
<g id="a_node6"><a xlink:href="../../de/d92/classSHitMap__v1.html#aa4b5f63d10448381a62ad527ad7f074c" target="_top" xlink:title="Clear Event. ">
<polygon fill="none" stroke="black" points="152.5,-0.5 152.5,-19.5 253.5,-19.5 253.5,-0.5 152.5,-0.5"/>
<text text-anchor="middle" x="203" y="-7.5" font-family="FreeSans" font-size="10.00">SHitMap_v1::Reset</text>
</a>
</g>
</g>
<!-- Node1&#45;&gt;Node6 -->
<g id="edge5" class="edge"><title>Node1&#45;&gt;Node6</title>
<path fill="none" stroke="midnightblue" d="M72.7153,-76.4643C90.4604,-64.3952 122.593,-43.4415 152,-29 156.048,-27.0121 160.359,-25.0947 164.688,-23.2926"/>
<polygon fill="midnightblue" stroke="midnightblue" points="166.101,-26.4975 174.099,-19.5489 163.514,-19.9932 166.101,-26.4975"/>
</g>
</g>
</svg>
