<?xml version="1.0" encoding="UTF-8" standalone="no"?>
<!DOCTYPE svg PUBLIC "-//W3C//DTD SVG 1.1//EN"
 "http://www.w3.org/Graphics/SVG/1.1/DTD/svg11.dtd">
<!-- Generated by graphviz version 2.36.0 (20140111.2315)
 -->
<!-- Title: SHitMap_v1::SHitMap_v1 Pages: 1 -->
<svg width="272pt" height="142pt"
 viewBox="0.00 0.00 272.00 142.00" xmlns="http://www.w3.org/2000/svg" xmlns:xlink="http://www.w3.org/1999/xlink">
<g id="graph0" class="graph" transform="scale(1 1) rotate(0) translate(4 138)">
<title>SHitMap_v1::SHitMap_v1</title>
<!-- Node1 -->
<g id="node1" class="node"><title>Node1</title>
<polygon fill="#bfbfbf" stroke="black" points="0.5,-57.5 0.5,-76.5 129.5,-76.5 129.5,-57.5 0.5,-57.5"/>
<text text-anchor="middle" x="65" y="-64.5" font-family="FreeSans" font-size="10.00">SHitMap_v1::SHitMap_v1</text>
</g>
<!-- Node2 -->
<g id="node2" class="node"><title>Node2</title>
<g id="a_node2"><a xlink:href="../../de/d92/classSHitMap__v1.html#aa8962de29392f9a2f1f7ba6751809bba" target="_top" xlink:title="SHitMap_v1::begin">
<polygon fill="none" stroke="black" points="166,-114.5 166,-133.5 264,-133.5 264,-114.5 166,-114.5"/>
<text text-anchor="middle" x="215" y="-121.5" font-family="FreeSans" font-size="10.00">SHitMap_v1::begin</text>
</a>
</g>
</g>
<!-- Node1&#45;&gt;Node2 -->
<g id="edge1" class="edge"><title>Node1&#45;&gt;Node2</title>
<path fill="none" stroke="midnightblue" d="M90.7719,-76.5405C115.104,-85.9116 152.431,-100.288 179.628,-110.762"/>
<polygon fill="midnightblue" stroke="midnightblue" points="178.558,-114.1 189.147,-114.428 181.073,-107.568 178.558,-114.1"/>
</g>
<!-- Node3 -->
<g id="node3" class="node"><title>Node3</title>
<g id="a_node3"><a xlink:href="../../d0/da1/classSHit.html#a34c44ef544bd3c7b68f33f8d255a8be5" target="_top" xlink:title="SHit::Clone">
<polygon fill="none" stroke="black" points="182.5,-76.5 182.5,-95.5 247.5,-95.5 247.5,-76.5 182.5,-76.5"/>
<text text-anchor="middle" x="215" y="-83.5" font-family="FreeSans" font-size="10.00">SHit::Clone</text>
</a>
</g>
</g>
<!-- Node1&#45;&gt;Node3 -->
<g id="edge2" class="edge"><title>Node1&#45;&gt;Node3</title>
<path fill="none" stroke="midnightblue" d="M129.624,-75.168C143.966,-77.0092 158.839,-78.9185 172.029,-80.6119"/>
<polygon fill="midnightblue" stroke="midnightblue" points="171.841,-84.1163 182.205,-81.9182 172.732,-77.1733 171.841,-84.1163"/>
</g>
<!-- Node4 -->
<g id="node4" class="node"><title>Node4</title>
<g id="a_node4"><a xlink:href="../../de/d92/classSHitMap__v1.html#a4b02d19cd3ba3cce60688cbe3dfec39c" target="_top" xlink:title="SHitMap_v1::end">
<polygon fill="none" stroke="black" points="169.5,-38.5 169.5,-57.5 260.5,-57.5 260.5,-38.5 169.5,-38.5"/>
<text text-anchor="middle" x="215" y="-45.5" font-family="FreeSans" font-size="10.00">SHitMap_v1::end</text>
</a>
</g>
</g>
<!-- Node1&#45;&gt;Node4 -->
<g id="edge3" class="edge"><title>Node1&#45;&gt;Node4</title>
<path fill="none" stroke="midnightblue" d="M129.624,-58.832C139.405,-57.5764 149.433,-56.289 159.006,-55.0601"/>
<polygon fill="midnightblue" stroke="midnightblue" points="159.708,-58.4987 169.181,-53.7538 158.817,-51.5557 159.708,-58.4987"/>
</g>
<!-- Node5 -->
<g id="node5" class="node"><title>Node5</title>
<g id="a_node5"><a xlink:href="../../d0/da1/classSHit.html#a80583327e744f8be37a40d5a6822b811" target="_top" xlink:title="SHit::get_hit_id">
<polygon fill="none" stroke="black" points="173.5,-0.5 173.5,-19.5 256.5,-19.5 256.5,-0.5 173.5,-0.5"/>
<text text-anchor="middle" x="215" y="-7.5" font-family="FreeSans" font-size="10.00">SHit::get_hit_id</text>
</a>
</g>
</g>
<!-- Node1&#45;&gt;Node5 -->
<g id="edge4" class="edge"><title>Node1&#45;&gt;Node5</title>
<path fill="none" stroke="midnightblue" d="M90.7719,-57.4595C115.104,-48.0884 152.431,-33.7124 179.628,-23.2377"/>
<polygon fill="midnightblue" stroke="midnightblue" points="181.073,-26.4319 189.147,-19.5716 178.558,-19.8996 181.073,-26.4319"/>
</g>
</g>
</svg>
