<?xml version="1.0" encoding="UTF-8" standalone="no"?>
<!DOCTYPE svg PUBLIC "-//W3C//DTD SVG 1.1//EN"
 "http://www.w3.org/Graphics/SVG/1.1/DTD/svg11.dtd">
<!-- Generated by graphviz version 2.36.0 (20140111.2315)
 -->
<!-- Title: SHitMap_v1::end Pages: 1 -->
<svg width="266pt" height="66pt"
 viewBox="0.00 0.00 266.00 66.00" xmlns="http://www.w3.org/2000/svg" xmlns:xlink="http://www.w3.org/1999/xlink">
<g id="graph0" class="graph" transform="scale(1 1) rotate(0) translate(4 62)">
<title>SHitMap_v1::end</title>
<!-- Node1 -->
<g id="node1" class="node"><title>Node1</title>
<polygon fill="#bfbfbf" stroke="black" points="0.5,-19.5 0.5,-38.5 91.5,-38.5 91.5,-19.5 0.5,-19.5"/>
<text text-anchor="middle" x="46" y="-26.5" font-family="FreeSans" font-size="10.00">SHitMap_v1::end</text>
</g>
<!-- Node2 -->
<g id="node2" class="node"><title>Node2</title>
<g id="a_node2"><a xlink:href="../../de/d92/classSHitMap__v1.html#aafef7752aeef9d4750538f6189cb9d34" target="_top" xlink:title="SHitMap_v1::operator=">
<polygon fill="none" stroke="black" points="135,-38.5 135,-57.5 251,-57.5 251,-38.5 135,-38.5"/>
<text text-anchor="middle" x="193" y="-45.5" font-family="FreeSans" font-size="10.00">SHitMap_v1::operator=</text>
</a>
</g>
</g>
<!-- Node1&#45;&gt;Node2 -->
<g id="edge1" class="edge"><title>Node1&#45;&gt;Node2</title>
<path fill="none" stroke="midnightblue" d="M101.842,-36.1862C112.646,-37.6019 124.007,-39.0906 134.884,-40.5158"/>
<polygon fill="midnightblue" stroke="midnightblue" points="102.058,-32.6846 91.6879,-34.8557 101.148,-39.6253 102.058,-32.6846"/>
</g>
<!-- Node3 -->
<g id="node3" class="node"><title>Node3</title>
<g id="a_node3"><a xlink:href="../../de/d92/classSHitMap__v1.html#a66084567e72d58ea9fb02af6a9b93867" target="_top" xlink:title="SHitMap_v1::SHitMap_v1">
<polygon fill="none" stroke="black" points="128.5,-0.5 128.5,-19.5 257.5,-19.5 257.5,-0.5 128.5,-0.5"/>
<text text-anchor="middle" x="193" y="-7.5" font-family="FreeSans" font-size="10.00">SHitMap_v1::SHitMap_v1</text>
</a>
</g>
</g>
<!-- Node1&#45;&gt;Node3 -->
<g id="edge2" class="edge"><title>Node1&#45;&gt;Node3</title>
<path fill="none" stroke="midnightblue" d="M101.679,-21.8352C110.359,-20.6977 119.403,-19.5127 128.27,-18.3508"/>
<polygon fill="midnightblue" stroke="midnightblue" points="101.148,-18.3747 91.6879,-23.1443 102.058,-25.3153 101.148,-18.3747"/>
</g>
</g>
</svg>
