<?xml version="1.0" encoding="UTF-8" standalone="no"?>
<!DOCTYPE svg PUBLIC "-//W3C//DTD SVG 1.1//EN"
 "http://www.w3.org/Graphics/SVG/1.1/DTD/svg11.dtd">
<!-- Generated by graphviz version 2.36.0 (20140111.2315)
 -->
<!-- Title: SHitMap_v1::Reset Pages: 1 -->
<svg width="280pt" height="104pt"
 viewBox="0.00 0.00 280.00 104.00" xmlns="http://www.w3.org/2000/svg" xmlns:xlink="http://www.w3.org/1999/xlink">
<g id="graph0" class="graph" transform="scale(1 1) rotate(0) translate(4 100)">
<title>SHitMap_v1::Reset</title>
<!-- Node1 -->
<g id="node1" class="node"><title>Node1</title>
<polygon fill="#bfbfbf" stroke="black" points="0.5,-38.5 0.5,-57.5 101.5,-57.5 101.5,-38.5 0.5,-38.5"/>
<text text-anchor="middle" x="51" y="-45.5" font-family="FreeSans" font-size="10.00">SHitMap_v1::Reset</text>
</g>
<!-- Node2 -->
<g id="node2" class="node"><title>Node2</title>
<g id="a_node2"><a xlink:href="../../de/d92/classSHitMap__v1.html#ab08f2ef7fe45cdadda246200d9e41594" target="_top" xlink:title="SHitMap_v1::clear">
<polygon fill="none" stroke="black" points="157,-76.5 157,-95.5 253,-95.5 253,-76.5 157,-76.5"/>
<text text-anchor="middle" x="205" y="-83.5" font-family="FreeSans" font-size="10.00">SHitMap_v1::clear</text>
</a>
</g>
</g>
<!-- Node1&#45;&gt;Node2 -->
<g id="edge1" class="edge"><title>Node1&#45;&gt;Node2</title>
<path fill="none" stroke="midnightblue" d="M100.16,-60.04C121.395,-65.3488 145.995,-71.4988 165.92,-76.4799"/>
<polygon fill="midnightblue" stroke="midnightblue" points="100.906,-56.6189 90.356,-57.589 99.2085,-63.4099 100.906,-56.6189"/>
</g>
<!-- Node3 -->
<g id="node3" class="node"><title>Node3</title>
<g id="a_node3"><a xlink:href="../../de/d92/classSHitMap__v1.html#aafef7752aeef9d4750538f6189cb9d34" target="_top" xlink:title="SHitMap_v1::operator=">
<polygon fill="none" stroke="black" points="147,-38.5 147,-57.5 263,-57.5 263,-38.5 147,-38.5"/>
<text text-anchor="middle" x="205" y="-45.5" font-family="FreeSans" font-size="10.00">SHitMap_v1::operator=</text>
</a>
</g>
</g>
<!-- Node1&#45;&gt;Node3 -->
<g id="edge2" class="edge"><title>Node1&#45;&gt;Node3</title>
<path fill="none" stroke="midnightblue" d="M111.792,-48C123.382,-48 135.501,-48 146.999,-48"/>
<polygon fill="midnightblue" stroke="midnightblue" points="111.771,-44.5001 101.77,-48 111.77,-51.5001 111.771,-44.5001"/>
</g>
<!-- Node4 -->
<g id="node4" class="node"><title>Node4</title>
<g id="a_node4"><a xlink:href="../../de/d92/classSHitMap__v1.html#a72d18280a010fbabaf4739b1c2e2f0f1" target="_top" xlink:title="SHitMap_v1::~SHitMap_v1">
<polygon fill="none" stroke="black" points="138,-0.5 138,-19.5 272,-19.5 272,-0.5 138,-0.5"/>
<text text-anchor="middle" x="205" y="-7.5" font-family="FreeSans" font-size="10.00">SHitMap_v1::~SHitMap_v1</text>
</a>
</g>
</g>
<!-- Node1&#45;&gt;Node4 -->
<g id="edge3" class="edge"><title>Node1&#45;&gt;Node4</title>
<path fill="none" stroke="midnightblue" d="M100.16,-35.96C121.395,-30.6512 145.995,-24.5012 165.92,-19.5201"/>
<polygon fill="midnightblue" stroke="midnightblue" points="99.2085,-32.5901 90.356,-38.411 100.906,-39.3811 99.2085,-32.5901"/>
</g>
</g>
</svg>
