<?xml version="1.0" encoding="UTF-8" standalone="no"?>
<!DOCTYPE svg PUBLIC "-//W3C//DTD SVG 1.1//EN"
 "http://www.w3.org/Graphics/SVG/1.1/DTD/svg11.dtd">
<!-- Generated by graphviz version 2.36.0 (20140111.2315)
 -->
<!-- Title: SHitMap_v1::begin Pages: 1 -->
<svg width="272pt" height="66pt"
 viewBox="0.00 0.00 272.00 66.00" xmlns="http://www.w3.org/2000/svg" xmlns:xlink="http://www.w3.org/1999/xlink">
<g id="graph0" class="graph" transform="scale(1 1) rotate(0) translate(4 62)">
<title>SHitMap_v1::begin</title>
<!-- Node1 -->
<g id="node1" class="node"><title>Node1</title>
<polygon fill="#bfbfbf" stroke="black" points="0,-19.5 0,-38.5 98,-38.5 98,-19.5 0,-19.5"/>
<text text-anchor="middle" x="49" y="-26.5" font-family="FreeSans" font-size="10.00">SHitMap_v1::begin</text>
</g>
<!-- Node2 -->
<g id="node2" class="node"><title>Node2</title>
<g id="a_node2"><a xlink:href="../../de/d92/classSHitMap__v1.html#aafef7752aeef9d4750538f6189cb9d34" target="_top" xlink:title="SHitMap_v1::operator=">
<polygon fill="none" stroke="black" points="141,-38.5 141,-57.5 257,-57.5 257,-38.5 141,-38.5"/>
<text text-anchor="middle" x="199" y="-45.5" font-family="FreeSans" font-size="10.00">SHitMap_v1::operator=</text>
</a>
</g>
</g>
<!-- Node1&#45;&gt;Node2 -->
<g id="edge1" class="edge"><title>Node1&#45;&gt;Node2</title>
<path fill="none" stroke="midnightblue" d="M108.193,-36.4707C118.952,-37.852 130.18,-39.2934 140.907,-40.6705"/>
<polygon fill="midnightblue" stroke="midnightblue" points="108.416,-32.9707 98.0514,-35.1688 107.524,-39.9137 108.416,-32.9707"/>
</g>
<!-- Node3 -->
<g id="node3" class="node"><title>Node3</title>
<g id="a_node3"><a xlink:href="../../de/d92/classSHitMap__v1.html#a66084567e72d58ea9fb02af6a9b93867" target="_top" xlink:title="SHitMap_v1::SHitMap_v1">
<polygon fill="none" stroke="black" points="134.5,-0.5 134.5,-19.5 263.5,-19.5 263.5,-0.5 134.5,-0.5"/>
<text text-anchor="middle" x="199" y="-7.5" font-family="FreeSans" font-size="10.00">SHitMap_v1::SHitMap_v1</text>
</a>
</g>
</g>
<!-- Node1&#45;&gt;Node3 -->
<g id="edge2" class="edge"><title>Node1&#45;&gt;Node3</title>
<path fill="none" stroke="midnightblue" d="M108.008,-21.5531C116.634,-20.4457 125.564,-19.2992 134.299,-18.1778"/>
<polygon fill="midnightblue" stroke="midnightblue" points="107.524,-18.0863 98.0514,-22.8312 108.416,-25.0293 107.524,-18.0863"/>
</g>
</g>
</svg>
