<?xml version="1.0" encoding="UTF-8" standalone="no"?>
<!DOCTYPE svg PUBLIC "-//W3C//DTD SVG 1.1//EN"
 "http://www.w3.org/Graphics/SVG/1.1/DTD/svg11.dtd">
<!-- Generated by graphviz version 2.36.0 (20140111.2315)
 -->
<!-- Title: fun4all/ffaobjects/SyncObjectv1.h Pages: 1 -->
<svg width="294pt" height="176pt"
 viewBox="0.00 0.00 294.00 176.00" xmlns="http://www.w3.org/2000/svg" xmlns:xlink="http://www.w3.org/1999/xlink">
<g id="graph0" class="graph" transform="scale(1 1) rotate(0) translate(4 172)">
<title>fun4all/ffaobjects/SyncObjectv1.h</title>
<!-- Node1 -->
<g id="node1" class="node"><title>Node1</title>
<polygon fill="#bfbfbf" stroke="black" points="56,-137 56,-167 146,-167 146,-137 56,-137"/>
<text text-anchor="start" x="64" y="-155" font-family="FreeSans" font-size="10.00">fun4all/ffaobjects</text>
<text text-anchor="middle" x="101" y="-144" font-family="FreeSans" font-size="10.00">/SyncObjectv1.h</text>
</g>
<!-- Node2 -->
<g id="node2" class="node"><title>Node2</title>
<g id="a_node2"><a xlink:href="../../dc/df5/SyncObjectv1_8cc.html" target="_top" xlink:title="fun4all/ffaobjects\l/SyncObjectv1.cc">
<polygon fill="none" stroke="black" points="-0.5,-69 -0.5,-99 92.5,-99 92.5,-69 -0.5,-69"/>
<text text-anchor="start" x="7.5" y="-87" font-family="FreeSans" font-size="10.00">fun4all/ffaobjects</text>
<text text-anchor="middle" x="46" y="-76" font-family="FreeSans" font-size="10.00">/SyncObjectv1.cc</text>
</a>
</g>
</g>
<!-- Node1&#45;&gt;Node2 -->
<g id="edge1" class="edge"><title>Node1&#45;&gt;Node2</title>
<path fill="none" stroke="midnightblue" d="M82.5844,-128.901C74.4468,-119.136 65.1136,-107.936 57.9109,-99.2931"/>
<polygon fill="midnightblue" stroke="midnightblue" points="79.9752,-131.237 89.0658,-136.679 85.3527,-126.756 79.9752,-131.237"/>
</g>
<!-- Node3 -->
<g id="node3" class="node"><title>Node3</title>
<g id="a_node3"><a xlink:href="../../dc/d4b/SyncObjectv2_8h.html" target="_top" xlink:title="fun4all/ffaobjects\l/SyncObjectv2.h">
<polygon fill="none" stroke="black" points="111,-69 111,-99 201,-99 201,-69 111,-69"/>
<text text-anchor="start" x="119" y="-87" font-family="FreeSans" font-size="10.00">fun4all/ffaobjects</text>
<text text-anchor="middle" x="156" y="-76" font-family="FreeSans" font-size="10.00">/SyncObjectv2.h</text>
</a>
</g>
</g>
<!-- Node1&#45;&gt;Node3 -->
<g id="edge2" class="edge"><title>Node1&#45;&gt;Node3</title>
<path fill="none" stroke="midnightblue" d="M119.416,-128.901C127.553,-119.136 136.886,-107.936 144.089,-99.2931"/>
<polygon fill="midnightblue" stroke="midnightblue" points="116.647,-126.756 112.934,-136.679 122.025,-131.237 116.647,-126.756"/>
</g>
<!-- Node4 -->
<g id="node4" class="node"><title>Node4</title>
<g id="a_node4"><a xlink:href="../../d5/dfb/SyncObjectv2_8cc.html" target="_top" xlink:title="fun4all/ffaobjects\l/SyncObjectv2.cc">
<polygon fill="none" stroke="black" points="44.5,-1 44.5,-31 137.5,-31 137.5,-1 44.5,-1"/>
<text text-anchor="start" x="52.5" y="-19" font-family="FreeSans" font-size="10.00">fun4all/ffaobjects</text>
<text text-anchor="middle" x="91" y="-8" font-family="FreeSans" font-size="10.00">/SyncObjectv2.cc</text>
</a>
</g>
</g>
<!-- Node3&#45;&gt;Node4 -->
<g id="edge3" class="edge"><title>Node3&#45;&gt;Node4</title>
<path fill="none" stroke="midnightblue" d="M134.811,-61.4855C125.061,-51.5852 113.759,-40.1092 105.077,-31.2931"/>
<polygon fill="midnightblue" stroke="midnightblue" points="132.385,-64.01 141.896,-68.679 137.373,-59.0982 132.385,-64.01"/>
</g>
<!-- Node5 -->
<g id="node5" class="node"><title>Node5</title>
<g id="a_node5"><a xlink:href="../../da/d7b/Fun4AllPrdfInputManager_8cc.html" target="_top" xlink:title="fun4all/fun4all/Fun4AllPrdf\lInputManager.cc">
<polygon fill="none" stroke="black" points="155.5,-1 155.5,-31 286.5,-31 286.5,-1 155.5,-1"/>
<text text-anchor="start" x="163.5" y="-19" font-family="FreeSans" font-size="10.00">fun4all/fun4all/Fun4AllPrdf</text>
<text text-anchor="middle" x="221" y="-8" font-family="FreeSans" font-size="10.00">InputManager.cc</text>
</a>
</g>
</g>
<!-- Node3&#45;&gt;Node5 -->
<g id="edge4" class="edge"><title>Node3&#45;&gt;Node5</title>
<path fill="none" stroke="midnightblue" d="M177.189,-61.4855C186.939,-51.5852 198.241,-40.1092 206.923,-31.2931"/>
<polygon fill="midnightblue" stroke="midnightblue" points="174.627,-59.0982 170.104,-68.679 179.615,-64.01 174.627,-59.0982"/>
</g>
</g>
</svg>
