<?xml version="1.0" encoding="UTF-8" standalone="no"?>
<!DOCTYPE svg PUBLIC "-//W3C//DTD SVG 1.1//EN"
 "http://www.w3.org/Graphics/SVG/1.1/DTD/svg11.dtd">
<!-- Generated by graphviz version 2.36.0 (20140111.2315)
 -->
<!-- Title: fun4all/fun4all/Fun4AllDstOutputManager.h Pages: 1 -->
<svg width="242pt" height="208pt"
 viewBox="0.00 0.00 242.00 208.00" xmlns="http://www.w3.org/2000/svg" xmlns:xlink="http://www.w3.org/1999/xlink">
<g id="graph0" class="graph" transform="scale(1 1) rotate(0) translate(4 204)">
<title>fun4all/fun4all/Fun4AllDstOutputManager.h</title>
<!-- Node1 -->
<g id="node1" class="node"><title>Node1</title>
<polygon fill="#bfbfbf" stroke="black" points="0,-169 0,-199 128,-199 128,-169 0,-169"/>
<text text-anchor="start" x="8" y="-187" font-family="FreeSans" font-size="10.00">fun4all/fun4all/Fun4AllDst</text>
<text text-anchor="middle" x="64" y="-176" font-family="FreeSans" font-size="10.00">OutputManager.h</text>
</g>
<!-- Node2 -->
<g id="node2" class="node"><title>Node2</title>
<g id="a_node2"><a xlink:href="../../de/df8/Fun4AllOutputManager_8h.html" target="_top" xlink:title="Fun4AllOutputManager.h">
<polygon fill="none" stroke="black" points="92,-112.5 92,-131.5 216,-131.5 216,-112.5 92,-112.5"/>
<text text-anchor="middle" x="154" y="-119.5" font-family="FreeSans" font-size="10.00">Fun4AllOutputManager.h</text>
</a>
</g>
</g>
<!-- Node1&#45;&gt;Node2 -->
<g id="edge1" class="edge"><title>Node1&#45;&gt;Node2</title>
<path fill="none" stroke="midnightblue" d="M85.3287,-168.781C99.5707,-159.286 118.235,-146.843 132.51,-137.327"/>
<polygon fill="midnightblue" stroke="midnightblue" points="134.787,-140.015 141.166,-131.556 130.904,-134.191 134.787,-140.015"/>
</g>
<!-- Node4 -->
<g id="node4" class="node"><title>Node4</title>
<polygon fill="none" stroke="#bfbfbf" points="105.5,-0.5 105.5,-19.5 146.5,-19.5 146.5,-0.5 105.5,-0.5"/>
<text text-anchor="middle" x="126" y="-7.5" font-family="FreeSans" font-size="10.00">string</text>
</g>
<!-- Node1&#45;&gt;Node4 -->
<g id="edge7" class="edge"><title>Node1&#45;&gt;Node4</title>
<path fill="none" stroke="midnightblue" d="M56.386,-168.919C44.1712,-144.231 23.6318,-92.3155 45,-56 55.8758,-37.5164 77.3902,-26.0803 95.5137,-19.3642"/>
<polygon fill="midnightblue" stroke="midnightblue" points="96.7948,-22.6257 105.144,-16.1038 94.5501,-15.9953 96.7948,-22.6257"/>
</g>
<!-- Node6 -->
<g id="node6" class="node"><title>Node6</title>
<polygon fill="none" stroke="#bfbfbf" points="54,-56.5 54,-75.5 98,-75.5 98,-56.5 54,-56.5"/>
<text text-anchor="middle" x="76" y="-63.5" font-family="FreeSans" font-size="10.00">vector</text>
</g>
<!-- Node1&#45;&gt;Node6 -->
<g id="edge8" class="edge"><title>Node1&#45;&gt;Node6</title>
<path fill="none" stroke="midnightblue" d="M65.4714,-168.776C67.6335,-147.876 71.6714,-108.844 74.0693,-85.6638"/>
<polygon fill="midnightblue" stroke="midnightblue" points="77.5516,-86.0141 75.0993,-75.707 70.5888,-85.2937 77.5516,-86.0141"/>
</g>
<!-- Node3 -->
<g id="node3" class="node"><title>Node3</title>
<g id="a_node3"><a xlink:href="../../d2/de7/Fun4AllBase_8h.html" target="_top" xlink:title="Fun4AllBase.h">
<polygon fill="none" stroke="black" points="154,-56.5 154,-75.5 234,-75.5 234,-56.5 154,-56.5"/>
<text text-anchor="middle" x="194" y="-63.5" font-family="FreeSans" font-size="10.00">Fun4AllBase.h</text>
</a>
</g>
</g>
<!-- Node2&#45;&gt;Node3 -->
<g id="edge2" class="edge"><title>Node2&#45;&gt;Node3</title>
<path fill="none" stroke="midnightblue" d="M160.605,-112.083C166.255,-104.455 174.545,-93.2645 181.451,-83.9408"/>
<polygon fill="midnightblue" stroke="midnightblue" points="184.378,-85.87 187.518,-75.7511 178.753,-81.7034 184.378,-85.87"/>
</g>
<!-- Node2&#45;&gt;Node4 -->
<g id="edge6" class="edge"><title>Node2&#45;&gt;Node4</title>
<path fill="none" stroke="midnightblue" d="M151.803,-112.368C147.284,-94.617 136.861,-53.6664 130.734,-29.5974"/>
<polygon fill="midnightblue" stroke="midnightblue" points="134.046,-28.419 128.187,-19.5914 127.262,-30.1458 134.046,-28.419"/>
</g>
<!-- Node2&#45;&gt;Node6 -->
<g id="edge5" class="edge"><title>Node2&#45;&gt;Node6</title>
<path fill="none" stroke="midnightblue" d="M141.468,-112.324C129.414,-103.979 110.973,-91.2122 96.7313,-81.3524"/>
<polygon fill="midnightblue" stroke="midnightblue" points="98.7151,-78.469 88.5009,-75.6545 94.7306,-84.2243 98.7151,-78.469"/>
</g>
<!-- Node3&#45;&gt;Node4 -->
<g id="edge3" class="edge"><title>Node3&#45;&gt;Node4</title>
<path fill="none" stroke="midnightblue" d="M183.075,-56.324C172.825,-48.1849 157.279,-35.8395 144.999,-26.0874"/>
<polygon fill="midnightblue" stroke="midnightblue" points="147.132,-23.3119 137.124,-19.8339 142.779,-28.7937 147.132,-23.3119"/>
</g>
<!-- Node5 -->
<g id="node5" class="node"><title>Node5</title>
<polygon fill="none" stroke="#bfbfbf" points="171.5,-0.5 171.5,-19.5 216.5,-19.5 216.5,-0.5 171.5,-0.5"/>
<text text-anchor="middle" x="194" y="-7.5" font-family="FreeSans" font-size="10.00">climits</text>
</g>
<!-- Node3&#45;&gt;Node5 -->
<g id="edge4" class="edge"><title>Node3&#45;&gt;Node5</title>
<path fill="none" stroke="midnightblue" d="M194,-56.083C194,-49.0059 194,-38.8611 194,-29.9865"/>
<polygon fill="midnightblue" stroke="midnightblue" points="197.5,-29.751 194,-19.7511 190.5,-29.7511 197.5,-29.751"/>
</g>
</g>
</svg>
