<?xml version="1.0" encoding="UTF-8" standalone="no"?>
<!DOCTYPE svg PUBLIC "-//W3C//DTD SVG 1.1//EN"
 "http://www.w3.org/Graphics/SVG/1.1/DTD/svg11.dtd">
<!-- Generated by graphviz version 2.36.0 (20140111.2315)
 -->
<!-- Title: Fun4AllOutputManager::EventsWritten Pages: 1 -->
<svg width="908pt" height="145pt"
 viewBox="0.00 0.00 908.00 145.00" xmlns="http://www.w3.org/2000/svg" xmlns:xlink="http://www.w3.org/1999/xlink">
<g id="graph0" class="graph" transform="scale(1 1) rotate(0) translate(4 141)">
<title>Fun4AllOutputManager::EventsWritten</title>
<!-- Node1 -->
<g id="node1" class="node"><title>Node1</title>
<polygon fill="#bfbfbf" stroke="black" points="0,-58 0,-88 116,-88 116,-58 0,-58"/>
<text text-anchor="start" x="8" y="-76" font-family="FreeSans" font-size="10.00">Fun4AllOutputManager</text>
<text text-anchor="middle" x="58" y="-65" font-family="FreeSans" font-size="10.00">::EventsWritten</text>
</g>
<!-- Node2 -->
<g id="node2" class="node"><title>Node2</title>
<g id="a_node2"><a xlink:href="../../d8/d77/classFun4AllOutputManager.html#ae13cdf197e3ae6f5310199ca034b8754" target="_top" xlink:title="print method (dump event selector) ">
<polygon fill="none" stroke="black" points="152,-58 152,-88 268,-88 268,-58 152,-58"/>
<text text-anchor="start" x="160" y="-76" font-family="FreeSans" font-size="10.00">Fun4AllOutputManager</text>
<text text-anchor="middle" x="210" y="-65" font-family="FreeSans" font-size="10.00">::Print</text>
</a>
</g>
</g>
<!-- Node1&#45;&gt;Node2 -->
<g id="edge1" class="edge"><title>Node1&#45;&gt;Node2</title>
<path fill="none" stroke="midnightblue" d="M126.311,-73C134.728,-73 143.277,-73 151.525,-73"/>
<polygon fill="midnightblue" stroke="midnightblue" points="126.137,-69.5001 116.136,-73 126.136,-76.5001 126.137,-69.5001"/>
</g>
<!-- Node3 -->
<g id="node3" class="node"><title>Node3</title>
<g id="a_node3"><a xlink:href="../../da/daa/classFun4AllDstOutputManager.html#aabf3c98fd391310f0bd2b917213f6671" target="_top" xlink:title="print method (dump event selector) ">
<polygon fill="none" stroke="black" points="309.5,-107 309.5,-137 440.5,-137 440.5,-107 309.5,-107"/>
<text text-anchor="start" x="317.5" y="-125" font-family="FreeSans" font-size="10.00">Fun4AllDstOutputManager</text>
<text text-anchor="middle" x="375" y="-114" font-family="FreeSans" font-size="10.00">::Print</text>
</a>
</g>
</g>
<!-- Node2&#45;&gt;Node3 -->
<g id="edge2" class="edge"><title>Node2&#45;&gt;Node3</title>
<path fill="none" stroke="midnightblue" d="M271.253,-91.1129C288.582,-96.3222 307.289,-101.946 323.93,-106.948"/>
<polygon fill="midnightblue" stroke="midnightblue" points="271.82,-87.6285 261.235,-88.1014 269.804,-94.3322 271.82,-87.6285"/>
</g>
<!-- Node4 -->
<g id="node4" class="node"><title>Node4</title>
<g id="a_node4"><a xlink:href="../../d2/d4a/classFun4AllEventOutputManager.html#a2d0c494379ea20262ea11203096d0884" target="_top" xlink:title="print method (dump event selector) ">
<polygon fill="none" stroke="black" points="304.5,-58 304.5,-88 445.5,-88 445.5,-58 304.5,-58"/>
<text text-anchor="start" x="312.5" y="-76" font-family="FreeSans" font-size="10.00">Fun4AllEventOutputManager</text>
<text text-anchor="middle" x="375" y="-65" font-family="FreeSans" font-size="10.00">::Print</text>
</a>
</g>
</g>
<!-- Node2&#45;&gt;Node4 -->
<g id="edge3" class="edge"><title>Node2&#45;&gt;Node4</title>
<path fill="none" stroke="midnightblue" d="M278.078,-73C286.763,-73 295.675,-73 304.401,-73"/>
<polygon fill="midnightblue" stroke="midnightblue" points="278.01,-69.5001 268.009,-73 278.009,-76.5001 278.01,-69.5001"/>
</g>
<!-- Node5 -->
<g id="node5" class="node"><title>Node5</title>
<g id="a_node5"><a xlink:href="../../da/d29/classFun4AllServer.html#ae1b1a243ee1a67367c8da4ec3bdc003d" target="_top" xlink:title="Fun4AllServer::Print">
<polygon fill="none" stroke="black" points="323.5,-19.5 323.5,-38.5 426.5,-38.5 426.5,-19.5 323.5,-19.5"/>
<text text-anchor="middle" x="375" y="-26.5" font-family="FreeSans" font-size="10.00">Fun4AllServer::Print</text>
</a>
</g>
</g>
<!-- Node2&#45;&gt;Node5 -->
<g id="edge4" class="edge"><title>Node2&#45;&gt;Node5</title>
<path fill="none" stroke="midnightblue" d="M276.559,-55.3031C297.724,-49.5899 320.381,-43.4738 338.517,-38.5783"/>
<polygon fill="midnightblue" stroke="midnightblue" points="275.382,-51.9955 266.639,-57.9808 277.206,-58.7536 275.382,-51.9955"/>
</g>
<!-- Node6 -->
<g id="node6" class="node"><title>Node6</title>
<g id="a_node6"><a xlink:href="../../da/d29/classFun4AllServer.html#afcfc5583204cac58b4e66a2406187a18" target="_top" xlink:title="Fun4AllServer::BeginRun">
<polygon fill="none" stroke="black" points="482.5,-19.5 482.5,-38.5 607.5,-38.5 607.5,-19.5 482.5,-19.5"/>
<text text-anchor="middle" x="545" y="-26.5" font-family="FreeSans" font-size="10.00">Fun4AllServer::BeginRun</text>
</a>
</g>
</g>
<!-- Node5&#45;&gt;Node6 -->
<g id="edge5" class="edge"><title>Node5&#45;&gt;Node6</title>
<path fill="none" stroke="midnightblue" d="M436.91,-29C451.698,-29 467.523,-29 482.346,-29"/>
<polygon fill="midnightblue" stroke="midnightblue" points="436.861,-25.5001 426.861,-29 436.861,-32.5001 436.861,-25.5001"/>
</g>
<!-- Node7 -->
<g id="node7" class="node"><title>Node7</title>
<g id="a_node7"><a xlink:href="../../da/d29/classFun4AllServer.html#a11bbc8b2f53bc06e0b05ee202dd6372a" target="_top" xlink:title="run n events (0 means up to end of file) ">
<polygon fill="none" stroke="black" points="644,-19.5 644,-38.5 740,-38.5 740,-19.5 644,-19.5"/>
<text text-anchor="middle" x="692" y="-26.5" font-family="FreeSans" font-size="10.00">Fun4AllServer::run</text>
</a>
</g>
</g>
<!-- Node6&#45;&gt;Node7 -->
<g id="edge6" class="edge"><title>Node6&#45;&gt;Node7</title>
<path fill="none" stroke="midnightblue" d="M618.109,-29C626.823,-29 635.544,-29 643.769,-29"/>
<polygon fill="midnightblue" stroke="midnightblue" points="617.914,-25.5001 607.914,-29 617.914,-32.5001 617.914,-25.5001"/>
</g>
<!-- Node8 -->
<g id="node8" class="node"><title>Node8</title>
<g id="a_node8"><a xlink:href="../../d0/d46/Fun4__SimpleReadMySql_8C.html#a70381893748e3445abc30632beb256ce" target="_top" xlink:title="Fun4_SimpleReadMySql">
<polygon fill="none" stroke="black" points="776.5,-38.5 776.5,-57.5 899.5,-57.5 899.5,-38.5 776.5,-38.5"/>
<text text-anchor="middle" x="838" y="-45.5" font-family="FreeSans" font-size="10.00">Fun4_SimpleReadMySql</text>
</a>
</g>
</g>
<!-- Node7&#45;&gt;Node8 -->
<g id="edge7" class="edge"><title>Node7&#45;&gt;Node8</title>
<path fill="none" stroke="midnightblue" d="M750.109,-36.5352C758.736,-37.6735 767.66,-38.851 776.358,-39.9986"/>
<polygon fill="midnightblue" stroke="midnightblue" points="750.523,-33.0596 740.151,-35.2213 749.607,-39.9994 750.523,-33.0596"/>
</g>
<!-- Node9 -->
<g id="node9" class="node"><title>Node9</title>
<g id="a_node9"><a xlink:href="../../d9/d8c/Fun4ReadMySql_8C.html#a729b39fa627147c63772f28c9be36b62" target="_top" xlink:title="Fun4ReadMySql">
<polygon fill="none" stroke="black" points="794,-0.5 794,-19.5 882,-19.5 882,-0.5 794,-0.5"/>
<text text-anchor="middle" x="838" y="-7.5" font-family="FreeSans" font-size="10.00">Fun4ReadMySql</text>
</a>
</g>
</g>
<!-- Node7&#45;&gt;Node9 -->
<g id="edge8" class="edge"><title>Node7&#45;&gt;Node9</title>
<path fill="none" stroke="midnightblue" d="M750.457,-21.4189C764.854,-19.5193 780.061,-17.5128 793.643,-15.7208"/>
<polygon fill="midnightblue" stroke="midnightblue" points="749.607,-18.0006 740.151,-22.7787 750.523,-24.9404 749.607,-18.0006"/>
</g>
</g>
</svg>
