<?xml version="1.0" encoding="UTF-8" standalone="no"?>
<!DOCTYPE svg PUBLIC "-//W3C//DTD SVG 1.1//EN"
 "http://www.w3.org/Graphics/SVG/1.1/DTD/svg11.dtd">
<!-- Generated by graphviz version 2.36.0 (20140111.2315)
 -->
<!-- Title: Fun4AllOutputManager::RecoModuleIndex Pages: 1 -->
<svg width="964pt" height="126pt"
 viewBox="0.00 0.00 964.00 126.00" xmlns="http://www.w3.org/2000/svg" xmlns:xlink="http://www.w3.org/1999/xlink">
<g id="graph0" class="graph" transform="scale(1 1) rotate(0) translate(4 122)">
<title>Fun4AllOutputManager::RecoModuleIndex</title>
<!-- Node1 -->
<g id="node1" class="node"><title>Node1</title>
<polygon fill="#bfbfbf" stroke="black" points="0,-26 0,-56 116,-56 116,-26 0,-26"/>
<text text-anchor="start" x="8" y="-44" font-family="FreeSans" font-size="10.00">Fun4AllOutputManager</text>
<text text-anchor="middle" x="58" y="-33" font-family="FreeSans" font-size="10.00">::RecoModuleIndex</text>
</g>
<!-- Node2 -->
<g id="node2" class="node"><title>Node2</title>
<g id="a_node2"><a xlink:href="../../da/d29/classFun4AllServer.html#a596005b9bc46ff6f5167378423248271" target="_top" xlink:title="Fun4AllServer::UpdateEvent\lSelector">
<polygon fill="none" stroke="black" points="152.5,-26 152.5,-56 291.5,-56 291.5,-26 152.5,-26"/>
<text text-anchor="start" x="160.5" y="-44" font-family="FreeSans" font-size="10.00">Fun4AllServer::UpdateEvent</text>
<text text-anchor="middle" x="222" y="-33" font-family="FreeSans" font-size="10.00">Selector</text>
</a>
</g>
</g>
<!-- Node1&#45;&gt;Node2 -->
<g id="edge1" class="edge"><title>Node1&#45;&gt;Node2</title>
<path fill="none" stroke="midnightblue" d="M126.18,-41C134.861,-41 143.759,-41 152.462,-41"/>
<polygon fill="midnightblue" stroke="midnightblue" points="126.115,-37.5001 116.115,-41 126.115,-44.5001 126.115,-37.5001"/>
</g>
<!-- Node3 -->
<g id="node3" class="node"><title>Node3</title>
<g id="a_node3"><a xlink:href="../../da/d29/classFun4AllServer.html#a3a4e3f448388cb2e68b085e9038feaf8" target="_top" xlink:title="Fun4AllServer::unregister\lSubsystemsNow">
<polygon fill="none" stroke="black" points="328.5,-49 328.5,-79 453.5,-79 453.5,-49 328.5,-49"/>
<text text-anchor="start" x="336.5" y="-67" font-family="FreeSans" font-size="10.00">Fun4AllServer::unregister</text>
<text text-anchor="middle" x="391" y="-56" font-family="FreeSans" font-size="10.00">SubsystemsNow</text>
</a>
</g>
</g>
<!-- Node2&#45;&gt;Node3 -->
<g id="edge2" class="edge"><title>Node2&#45;&gt;Node3</title>
<path fill="none" stroke="midnightblue" d="M301.913,-51.8682C310.836,-53.0972 319.83,-54.3359 328.484,-55.5278"/>
<polygon fill="midnightblue" stroke="midnightblue" points="302.274,-48.385 291.889,-50.4878 301.318,-55.3195 302.274,-48.385"/>
</g>
<!-- Node10 -->
<g id="node10" class="node"><title>Node10</title>
<g id="a_node10"><a xlink:href="../../da/d29/classFun4AllServer.html#a9e7cd54536d1edb6e5c5cc153c0a036a" target="_top" xlink:title="Fun4AllServer::registerOutput\lManager">
<polygon fill="none" stroke="black" points="652,-0 652,-30 796,-30 796,-0 652,-0"/>
<text text-anchor="start" x="660" y="-18" font-family="FreeSans" font-size="10.00">Fun4AllServer::registerOutput</text>
<text text-anchor="middle" x="724" y="-7" font-family="FreeSans" font-size="10.00">Manager</text>
</a>
</g>
</g>
<!-- Node2&#45;&gt;Node10 -->
<g id="edge10" class="edge"><title>Node2&#45;&gt;Node10</title>
<path fill="none" stroke="midnightblue" d="M301.987,-36.8927C398.19,-31.8901 559.274,-23.5138 651.804,-18.7022"/>
<polygon fill="midnightblue" stroke="midnightblue" points="301.541,-33.4111 291.736,-37.4257 301.904,-40.4016 301.541,-33.4111"/>
</g>
<!-- Node4 -->
<g id="node4" class="node"><title>Node4</title>
<g id="a_node4"><a xlink:href="../../da/d29/classFun4AllServer.html#a6a65a944dfb40966ace97d35ab1f7942" target="_top" xlink:title="Fun4AllServer::process\l_event">
<polygon fill="none" stroke="black" points="494.5,-49 494.5,-79 611.5,-79 611.5,-49 494.5,-49"/>
<text text-anchor="start" x="502.5" y="-67" font-family="FreeSans" font-size="10.00">Fun4AllServer::process</text>
<text text-anchor="middle" x="553" y="-56" font-family="FreeSans" font-size="10.00">_event</text>
</a>
</g>
</g>
<!-- Node3&#45;&gt;Node4 -->
<g id="edge3" class="edge"><title>Node3&#45;&gt;Node4</title>
<path fill="none" stroke="midnightblue" d="M463.994,-64C474.211,-64 484.604,-64 494.498,-64"/>
<polygon fill="midnightblue" stroke="midnightblue" points="463.86,-60.5001 453.86,-64 463.86,-67.5001 463.86,-60.5001"/>
</g>
<!-- Node9 -->
<g id="node9" class="node"><title>Node9</title>
<g id="a_node9"><a xlink:href="../../da/d29/classFun4AllServer.html#afcfc5583204cac58b4e66a2406187a18" target="_top" xlink:title="Fun4AllServer::BeginRun">
<polygon fill="none" stroke="black" points="490.5,-98.5 490.5,-117.5 615.5,-117.5 615.5,-98.5 490.5,-98.5"/>
<text text-anchor="middle" x="553" y="-105.5" font-family="FreeSans" font-size="10.00">Fun4AllServer::BeginRun</text>
</a>
</g>
</g>
<!-- Node3&#45;&gt;Node9 -->
<g id="edge8" class="edge"><title>Node3&#45;&gt;Node9</title>
<path fill="none" stroke="midnightblue" d="M456.352,-81.6969C477.128,-87.4101 499.368,-93.5262 517.17,-98.4217"/>
<polygon fill="midnightblue" stroke="midnightblue" points="457.186,-78.2962 446.615,-79.0192 455.329,-85.0456 457.186,-78.2962"/>
</g>
<!-- Node5 -->
<g id="node5" class="node"><title>Node5</title>
<g id="a_node5"><a xlink:href="../../da/d29/classFun4AllServer.html#a94738b092fa009fcea45737d8ea41224" target="_top" xlink:title="Fun4AllServer::process\l_event">
<polygon fill="none" stroke="black" points="665.5,-49 665.5,-79 782.5,-79 782.5,-49 665.5,-49"/>
<text text-anchor="start" x="673.5" y="-67" font-family="FreeSans" font-size="10.00">Fun4AllServer::process</text>
<text text-anchor="middle" x="724" y="-56" font-family="FreeSans" font-size="10.00">_event</text>
</a>
</g>
</g>
<!-- Node4&#45;&gt;Node5 -->
<g id="edge4" class="edge"><title>Node4&#45;&gt;Node5</title>
<path fill="none" stroke="midnightblue" d="M621.995,-64C636.346,-64 651.357,-64 665.286,-64"/>
<polygon fill="midnightblue" stroke="midnightblue" points="621.688,-60.5001 611.688,-64 621.688,-67.5001 621.688,-60.5001"/>
</g>
<!-- Node6 -->
<g id="node6" class="node"><title>Node6</title>
<g id="a_node6"><a xlink:href="../../da/d29/classFun4AllServer.html#a11bbc8b2f53bc06e0b05ee202dd6372a" target="_top" xlink:title="run n events (0 means up to end of file) ">
<polygon fill="none" stroke="black" points="676,-98.5 676,-117.5 772,-117.5 772,-98.5 676,-98.5"/>
<text text-anchor="middle" x="724" y="-105.5" font-family="FreeSans" font-size="10.00">Fun4AllServer::run</text>
</a>
</g>
</g>
<!-- Node4&#45;&gt;Node6 -->
<g id="edge5" class="edge"><title>Node4&#45;&gt;Node6</title>
<path fill="none" stroke="midnightblue" d="M621.415,-81.5518C643.616,-87.332 667.46,-93.5398 686.464,-98.4876"/>
<polygon fill="midnightblue" stroke="midnightblue" points="622.247,-78.1518 611.688,-79.0192 620.483,-84.926 622.247,-78.1518"/>
</g>
<!-- Node7 -->
<g id="node7" class="node"><title>Node7</title>
<g id="a_node7"><a xlink:href="../../d0/d46/Fun4__SimpleReadMySql_8C.html#a70381893748e3445abc30632beb256ce" target="_top" xlink:title="Fun4_SimpleReadMySql">
<polygon fill="none" stroke="black" points="832.5,-84.5 832.5,-103.5 955.5,-103.5 955.5,-84.5 832.5,-84.5"/>
<text text-anchor="middle" x="894" y="-91.5" font-family="FreeSans" font-size="10.00">Fun4_SimpleReadMySql</text>
</a>
</g>
</g>
<!-- Node6&#45;&gt;Node7 -->
<g id="edge6" class="edge"><title>Node6&#45;&gt;Node7</title>
<path fill="none" stroke="midnightblue" d="M782.552,-103.204C798.595,-101.867 816.071,-100.411 832.289,-99.0593"/>
<polygon fill="midnightblue" stroke="midnightblue" points="781.919,-99.7445 772.244,-104.063 782.501,-106.72 781.919,-99.7445"/>
</g>
<!-- Node8 -->
<g id="node8" class="node"><title>Node8</title>
<g id="a_node8"><a xlink:href="../../d9/d8c/Fun4ReadMySql_8C.html#a729b39fa627147c63772f28c9be36b62" target="_top" xlink:title="Fun4ReadMySql">
<polygon fill="none" stroke="black" points="850,-32.5 850,-51.5 938,-51.5 938,-32.5 850,-32.5"/>
<text text-anchor="middle" x="894" y="-39.5" font-family="FreeSans" font-size="10.00">Fun4ReadMySql</text>
</a>
</g>
</g>
<!-- Node6&#45;&gt;Node8 -->
<g id="edge7" class="edge"><title>Node6&#45;&gt;Node8</title>
<path fill="none" stroke="midnightblue" d="M773.03,-95.6586C780.781,-93.3278 788.665,-90.7501 796,-88 824.446,-77.335 855.993,-61.6023 875.159,-51.579"/>
<polygon fill="midnightblue" stroke="midnightblue" points="771.962,-92.3241 763.334,-98.4732 773.913,-99.0466 771.962,-92.3241"/>
</g>
<!-- Node9&#45;&gt;Node6 -->
<g id="edge9" class="edge"><title>Node9&#45;&gt;Node6</title>
<path fill="none" stroke="midnightblue" d="M626.303,-108C643.075,-108 660.501,-108 675.864,-108"/>
<polygon fill="midnightblue" stroke="midnightblue" points="625.97,-104.5 615.97,-108 625.97,-111.5 625.97,-104.5"/>
</g>
<!-- Node10&#45;&gt;Node7 -->
<g id="edge11" class="edge"><title>Node10&#45;&gt;Node7</title>
<path fill="none" stroke="midnightblue" d="M784.051,-33.8241C788.136,-35.4732 792.154,-37.2024 796,-39 812.987,-46.9403 815.748,-51.6468 832,-61 846.193,-69.1681 862.521,-77.9711 874.711,-84.4291"/>
<polygon fill="midnightblue" stroke="midnightblue" points="785.039,-30.454 774.449,-30.1273 782.523,-36.9866 785.039,-30.454"/>
</g>
<!-- Node10&#45;&gt;Node8 -->
<g id="edge12" class="edge"><title>Node10&#45;&gt;Node8</title>
<path fill="none" stroke="midnightblue" d="M806.141,-28.0405C821.254,-30.4695 836.492,-32.9183 849.893,-35.072"/>
<polygon fill="midnightblue" stroke="midnightblue" points="806.676,-24.5816 796.247,-26.4504 805.565,-31.493 806.676,-24.5816"/>
</g>
</g>
</svg>
