<?xml version="1.0" encoding="UTF-8" standalone="no"?>
<!DOCTYPE svg PUBLIC "-//W3C//DTD SVG 1.1//EN"
 "http://www.w3.org/Graphics/SVG/1.1/DTD/svg11.dtd">
<!-- Generated by graphviz version 2.36.0 (20140111.2315)
 -->
<!-- Title: Fun4AllOutputManager::Print Pages: 1 -->
<svg width="756pt" height="145pt"
 viewBox="0.00 0.00 756.00 145.00" xmlns="http://www.w3.org/2000/svg" xmlns:xlink="http://www.w3.org/1999/xlink">
<g id="graph0" class="graph" transform="scale(1 1) rotate(0) translate(4 141)">
<title>Fun4AllOutputManager::Print</title>
<!-- Node1 -->
<g id="node1" class="node"><title>Node1</title>
<polygon fill="#bfbfbf" stroke="black" points="0,-58 0,-88 116,-88 116,-58 0,-58"/>
<text text-anchor="start" x="8" y="-76" font-family="FreeSans" font-size="10.00">Fun4AllOutputManager</text>
<text text-anchor="middle" x="58" y="-65" font-family="FreeSans" font-size="10.00">::Print</text>
</g>
<!-- Node2 -->
<g id="node2" class="node"><title>Node2</title>
<g id="a_node2"><a xlink:href="../../da/daa/classFun4AllDstOutputManager.html#aabf3c98fd391310f0bd2b917213f6671" target="_top" xlink:title="print method (dump event selector) ">
<polygon fill="none" stroke="black" points="157.5,-107 157.5,-137 288.5,-137 288.5,-107 157.5,-107"/>
<text text-anchor="start" x="165.5" y="-125" font-family="FreeSans" font-size="10.00">Fun4AllDstOutputManager</text>
<text text-anchor="middle" x="223" y="-114" font-family="FreeSans" font-size="10.00">::Print</text>
</a>
</g>
</g>
<!-- Node1&#45;&gt;Node2 -->
<g id="edge1" class="edge"><title>Node1&#45;&gt;Node2</title>
<path fill="none" stroke="midnightblue" d="M119.253,-91.1129C136.582,-96.3222 155.289,-101.946 171.93,-106.948"/>
<polygon fill="midnightblue" stroke="midnightblue" points="119.82,-87.6285 109.235,-88.1014 117.804,-94.3322 119.82,-87.6285"/>
</g>
<!-- Node3 -->
<g id="node3" class="node"><title>Node3</title>
<g id="a_node3"><a xlink:href="../../d2/d4a/classFun4AllEventOutputManager.html#a2d0c494379ea20262ea11203096d0884" target="_top" xlink:title="print method (dump event selector) ">
<polygon fill="none" stroke="black" points="152.5,-58 152.5,-88 293.5,-88 293.5,-58 152.5,-58"/>
<text text-anchor="start" x="160.5" y="-76" font-family="FreeSans" font-size="10.00">Fun4AllEventOutputManager</text>
<text text-anchor="middle" x="223" y="-65" font-family="FreeSans" font-size="10.00">::Print</text>
</a>
</g>
</g>
<!-- Node1&#45;&gt;Node3 -->
<g id="edge2" class="edge"><title>Node1&#45;&gt;Node3</title>
<path fill="none" stroke="midnightblue" d="M126.078,-73C134.763,-73 143.675,-73 152.401,-73"/>
<polygon fill="midnightblue" stroke="midnightblue" points="126.01,-69.5001 116.009,-73 126.009,-76.5001 126.01,-69.5001"/>
</g>
<!-- Node4 -->
<g id="node4" class="node"><title>Node4</title>
<g id="a_node4"><a xlink:href="../../da/d29/classFun4AllServer.html#ae1b1a243ee1a67367c8da4ec3bdc003d" target="_top" xlink:title="Fun4AllServer::Print">
<polygon fill="none" stroke="black" points="171.5,-19.5 171.5,-38.5 274.5,-38.5 274.5,-19.5 171.5,-19.5"/>
<text text-anchor="middle" x="223" y="-26.5" font-family="FreeSans" font-size="10.00">Fun4AllServer::Print</text>
</a>
</g>
</g>
<!-- Node1&#45;&gt;Node4 -->
<g id="edge3" class="edge"><title>Node1&#45;&gt;Node4</title>
<path fill="none" stroke="midnightblue" d="M124.559,-55.3031C145.724,-49.5899 168.381,-43.4738 186.517,-38.5783"/>
<polygon fill="midnightblue" stroke="midnightblue" points="123.382,-51.9955 114.639,-57.9808 125.206,-58.7536 123.382,-51.9955"/>
</g>
<!-- Node5 -->
<g id="node5" class="node"><title>Node5</title>
<g id="a_node5"><a xlink:href="../../da/d29/classFun4AllServer.html#afcfc5583204cac58b4e66a2406187a18" target="_top" xlink:title="Fun4AllServer::BeginRun">
<polygon fill="none" stroke="black" points="330.5,-19.5 330.5,-38.5 455.5,-38.5 455.5,-19.5 330.5,-19.5"/>
<text text-anchor="middle" x="393" y="-26.5" font-family="FreeSans" font-size="10.00">Fun4AllServer::BeginRun</text>
</a>
</g>
</g>
<!-- Node4&#45;&gt;Node5 -->
<g id="edge4" class="edge"><title>Node4&#45;&gt;Node5</title>
<path fill="none" stroke="midnightblue" d="M284.91,-29C299.698,-29 315.523,-29 330.346,-29"/>
<polygon fill="midnightblue" stroke="midnightblue" points="284.861,-25.5001 274.861,-29 284.861,-32.5001 284.861,-25.5001"/>
</g>
<!-- Node6 -->
<g id="node6" class="node"><title>Node6</title>
<g id="a_node6"><a xlink:href="../../da/d29/classFun4AllServer.html#a11bbc8b2f53bc06e0b05ee202dd6372a" target="_top" xlink:title="run n events (0 means up to end of file) ">
<polygon fill="none" stroke="black" points="492,-19.5 492,-38.5 588,-38.5 588,-19.5 492,-19.5"/>
<text text-anchor="middle" x="540" y="-26.5" font-family="FreeSans" font-size="10.00">Fun4AllServer::run</text>
</a>
</g>
</g>
<!-- Node5&#45;&gt;Node6 -->
<g id="edge5" class="edge"><title>Node5&#45;&gt;Node6</title>
<path fill="none" stroke="midnightblue" d="M466.109,-29C474.823,-29 483.544,-29 491.769,-29"/>
<polygon fill="midnightblue" stroke="midnightblue" points="465.914,-25.5001 455.914,-29 465.914,-32.5001 465.914,-25.5001"/>
</g>
<!-- Node7 -->
<g id="node7" class="node"><title>Node7</title>
<g id="a_node7"><a xlink:href="../../d0/d46/Fun4__SimpleReadMySql_8C.html#a70381893748e3445abc30632beb256ce" target="_top" xlink:title="Fun4_SimpleReadMySql">
<polygon fill="none" stroke="black" points="624.5,-38.5 624.5,-57.5 747.5,-57.5 747.5,-38.5 624.5,-38.5"/>
<text text-anchor="middle" x="686" y="-45.5" font-family="FreeSans" font-size="10.00">Fun4_SimpleReadMySql</text>
</a>
</g>
</g>
<!-- Node6&#45;&gt;Node7 -->
<g id="edge6" class="edge"><title>Node6&#45;&gt;Node7</title>
<path fill="none" stroke="midnightblue" d="M598.109,-36.5352C606.736,-37.6735 615.66,-38.851 624.358,-39.9986"/>
<polygon fill="midnightblue" stroke="midnightblue" points="598.523,-33.0596 588.151,-35.2213 597.607,-39.9994 598.523,-33.0596"/>
</g>
<!-- Node8 -->
<g id="node8" class="node"><title>Node8</title>
<g id="a_node8"><a xlink:href="../../d9/d8c/Fun4ReadMySql_8C.html#a729b39fa627147c63772f28c9be36b62" target="_top" xlink:title="Fun4ReadMySql">
<polygon fill="none" stroke="black" points="642,-0.5 642,-19.5 730,-19.5 730,-0.5 642,-0.5"/>
<text text-anchor="middle" x="686" y="-7.5" font-family="FreeSans" font-size="10.00">Fun4ReadMySql</text>
</a>
</g>
</g>
<!-- Node6&#45;&gt;Node8 -->
<g id="edge7" class="edge"><title>Node6&#45;&gt;Node8</title>
<path fill="none" stroke="midnightblue" d="M598.457,-21.4189C612.854,-19.5193 628.061,-17.5128 641.643,-15.7208"/>
<polygon fill="midnightblue" stroke="midnightblue" points="597.607,-18.0006 588.151,-22.7787 598.523,-24.9404 597.607,-18.0006"/>
</g>
</g>
</svg>
