<?xml version="1.0" encoding="UTF-8" standalone="no"?>
<!DOCTYPE svg PUBLIC "-//W3C//DTD SVG 1.1//EN"
 "http://www.w3.org/Graphics/SVG/1.1/DTD/svg11.dtd">
<!-- Generated by graphviz version 2.36.0 (20140111.2315)
 -->
<!-- Title: PHDataNode::setData Pages: 1 -->
<svg width="478pt" height="94pt"
 viewBox="0.00 0.00 478.00 94.00" xmlns="http://www.w3.org/2000/svg" xmlns:xlink="http://www.w3.org/1999/xlink">
<g id="graph0" class="graph" transform="scale(1 1) rotate(0) translate(4 90)">
<title>PHDataNode::setData</title>
<!-- Node1 -->
<g id="node1" class="node"><title>Node1</title>
<polygon fill="#bfbfbf" stroke="black" points="0.5,-22.5 0.5,-41.5 113.5,-41.5 113.5,-22.5 0.5,-22.5"/>
<text text-anchor="middle" x="57" y="-29.5" font-family="FreeSans" font-size="10.00">PHDataNode::setData</text>
</g>
<!-- Node2 -->
<g id="node2" class="node"><title>Node2</title>
<g id="a_node2"><a xlink:href="../../d1/d3e/classPHDataNode.html#a5e2c17883d38f51e5b1f17a60b3c6ce8" target="_top" xlink:title="PHDataNode::PHDataNode">
<polygon fill="none" stroke="black" points="150.5,-66.5 150.5,-85.5 287.5,-85.5 287.5,-66.5 150.5,-66.5"/>
<text text-anchor="middle" x="219" y="-73.5" font-family="FreeSans" font-size="10.00">PHDataNode::PHDataNode</text>
</a>
</g>
</g>
<!-- Node1&#45;&gt;Node2 -->
<g id="edge1" class="edge"><title>Node1&#45;&gt;Node2</title>
<path fill="none" stroke="midnightblue" d="M102.538,-44.2478C128.082,-51.2724 159.673,-59.96 183.35,-66.4713"/>
<polygon fill="midnightblue" stroke="midnightblue" points="103.288,-40.8243 92.7176,-41.5473 101.432,-47.5737 103.288,-40.8243"/>
</g>
<!-- Node3 -->
<g id="node3" class="node"><title>Node3</title>
<g id="a_node3"><a xlink:href="../../da/dd8/classFun4AllPrdfInputManager.html#a4d3e00664417e9198d9fab5d4c336f97" target="_top" xlink:title="Fun4AllPrdfInputManager\l::ResetEvent">
<polygon fill="none" stroke="black" points="155.5,-17 155.5,-47 282.5,-47 282.5,-17 155.5,-17"/>
<text text-anchor="start" x="163.5" y="-35" font-family="FreeSans" font-size="10.00">Fun4AllPrdfInputManager</text>
<text text-anchor="middle" x="219" y="-24" font-family="FreeSans" font-size="10.00">::ResetEvent</text>
</a>
</g>
</g>
<!-- Node1&#45;&gt;Node3 -->
<g id="edge2" class="edge"><title>Node1&#45;&gt;Node3</title>
<path fill="none" stroke="midnightblue" d="M123.832,-32C134.291,-32 145.084,-32 155.465,-32"/>
<polygon fill="midnightblue" stroke="midnightblue" points="123.511,-28.5001 113.511,-32 123.511,-35.5001 123.511,-28.5001"/>
</g>
<!-- Node4 -->
<g id="node4" class="node"><title>Node4</title>
<g id="a_node4"><a xlink:href="../../da/dd8/classFun4AllPrdfInputManager.html#ac3f313ef5571ce32cd40799791e2ea56" target="_top" xlink:title="Fun4AllPrdfInputManager::run">
<polygon fill="none" stroke="black" points="324.5,-0.5 324.5,-19.5 469.5,-19.5 469.5,-0.5 324.5,-0.5"/>
<text text-anchor="middle" x="397" y="-7.5" font-family="FreeSans" font-size="10.00">Fun4AllPrdfInputManager::run</text>
</a>
</g>
</g>
<!-- Node1&#45;&gt;Node4 -->
<g id="edge4" class="edge"><title>Node1&#45;&gt;Node4</title>
<path fill="none" stroke="midnightblue" d="M96.7456,-19.5467C113.009,-14.9359 132.238,-10.2786 150,-8 208.354,-0.513819 275.135,-1.66313 324.379,-4.32218"/>
<polygon fill="midnightblue" stroke="midnightblue" points="95.6546,-16.2191 87.0422,-22.3898 97.623,-22.9367 95.6546,-16.2191"/>
</g>
<!-- Node3&#45;&gt;Node4 -->
<g id="edge3" class="edge"><title>Node3&#45;&gt;Node4</title>
<path fill="none" stroke="midnightblue" d="M292.516,-22.9355C303.032,-21.621 313.853,-20.2683 324.353,-18.9559"/>
<polygon fill="midnightblue" stroke="midnightblue" points="292.035,-19.4683 282.547,-24.1817 292.904,-26.4142 292.035,-19.4683"/>
</g>
</g>
</svg>
