<?xml version="1.0" encoding="UTF-8" standalone="no"?>
<!DOCTYPE svg PUBLIC "-//W3C//DTD SVG 1.1//EN"
 "http://www.w3.org/Graphics/SVG/1.1/DTD/svg11.dtd">
<!-- Generated by graphviz version 2.36.0 (20140111.2315)
 -->
<!-- Title: PHDataNode::getData Pages: 1 -->
<svg width="1134pt" height="164pt"
 viewBox="0.00 0.00 1134.00 163.80" xmlns="http://www.w3.org/2000/svg" xmlns:xlink="http://www.w3.org/1999/xlink">
<g id="graph0" class="graph" transform="scale(1 1) rotate(0) translate(4 159.803)">
<title>PHDataNode::getData</title>
<!-- Node1 -->
<g id="node1" class="node"><title>Node1</title>
<polygon fill="#bfbfbf" stroke="black" points="0.5,-98.3025 0.5,-117.303 113.5,-117.303 113.5,-98.3025 0.5,-98.3025"/>
<text text-anchor="middle" x="57" y="-105.303" font-family="FreeSans" font-size="10.00">PHDataNode::getData</text>
</g>
<!-- Node2 -->
<g id="node2" class="node"><title>Node2</title>
<g id="a_node2"><a xlink:href="../../da/dc3/namespacefindNode.html#af4793f47e215cb6b0d51e0a9303a4382" target="_top" xlink:title="findNode::getClass">
<polygon fill="none" stroke="black" points="179,-136.303 179,-155.303 277,-155.303 277,-136.303 179,-136.303"/>
<text text-anchor="middle" x="228" y="-143.303" font-family="FreeSans" font-size="10.00">findNode::getClass</text>
</a>
</g>
</g>
<!-- Node1&#45;&gt;Node2 -->
<g id="edge1" class="edge"><title>Node1&#45;&gt;Node2</title>
<path fill="none" stroke="midnightblue" d="M110.587,-119.627C134.413,-124.984 162.207,-131.234 184.661,-136.282"/>
<polygon fill="midnightblue" stroke="midnightblue" points="111.17,-116.171 100.646,-117.392 109.634,-123 111.17,-116.171"/>
</g>
<!-- Node3 -->
<g id="node3" class="node"><title>Node3</title>
<g id="a_node3"><a xlink:href="../../d9/dde/classPHIODataNode.html#a07cd6c9e2bfc7b5c31f903283d8ebe13" target="_top" xlink:title="PHIODataNode::operator*">
<polygon fill="none" stroke="black" points="164,-98.3025 164,-117.303 292,-117.303 292,-98.3025 164,-98.3025"/>
<text text-anchor="middle" x="228" y="-105.303" font-family="FreeSans" font-size="10.00">PHIODataNode::operator*</text>
</a>
</g>
</g>
<!-- Node1&#45;&gt;Node3 -->
<g id="edge2" class="edge"><title>Node1&#45;&gt;Node3</title>
<path fill="none" stroke="midnightblue" d="M124.15,-107.803C137.245,-107.803 150.958,-107.803 163.948,-107.803"/>
<polygon fill="midnightblue" stroke="midnightblue" points="123.805,-104.303 113.805,-107.803 123.805,-111.303 123.805,-104.303"/>
</g>
<!-- Node4 -->
<g id="node4" class="node"><title>Node4</title>
<g id="a_node4"><a xlink:href="../../d7/d4d/classPHNodeIOManager.html#a3882997324989c7dd04e9f6b728af7db" target="_top" xlink:title="PHNodeIOManager::reconstruct\lNodeTree">
<polygon fill="none" stroke="black" points="150.5,-48.8025 150.5,-78.8025 305.5,-78.8025 305.5,-48.8025 150.5,-48.8025"/>
<text text-anchor="start" x="158.5" y="-66.8025" font-family="FreeSans" font-size="10.00">PHNodeIOManager::reconstruct</text>
<text text-anchor="middle" x="228" y="-55.8025" font-family="FreeSans" font-size="10.00">NodeTree</text>
</a>
</g>
</g>
<!-- Node1&#45;&gt;Node4 -->
<g id="edge3" class="edge"><title>Node1&#45;&gt;Node4</title>
<path fill="none" stroke="midnightblue" d="M104.465,-95.7051C124.453,-90.5012 148.029,-84.363 169.135,-78.8679"/>
<polygon fill="midnightblue" stroke="midnightblue" points="103.466,-92.3485 94.6705,-98.2552 105.23,-99.1226 103.466,-92.3485"/>
</g>
<!-- Node5 -->
<g id="node5" class="node"><title>Node5</title>
<g id="a_node5"><a xlink:href="../../d7/d4d/classPHNodeIOManager.html#a92da4bff2438e94d469011b7720f286f" target="_top" xlink:title="PHNodeIOManager::read">
<polygon fill="none" stroke="black" points="342.5,-54.3025 342.5,-73.3025 467.5,-73.3025 467.5,-54.3025 342.5,-54.3025"/>
<text text-anchor="middle" x="405" y="-61.3025" font-family="FreeSans" font-size="10.00">PHNodeIOManager::read</text>
</a>
</g>
</g>
<!-- Node4&#45;&gt;Node5 -->
<g id="edge4" class="edge"><title>Node4&#45;&gt;Node5</title>
<path fill="none" stroke="midnightblue" d="M315.659,-63.8025C324.676,-63.8025 333.706,-63.8025 342.364,-63.8025"/>
<polygon fill="midnightblue" stroke="midnightblue" points="315.503,-60.3026 305.503,-63.8025 315.503,-67.3026 315.503,-60.3026"/>
</g>
<!-- Node6 -->
<g id="node6" class="node"><title>Node6</title>
<g id="a_node6"><a xlink:href="../../d7/d0b/classFun4AllDstInputManager.html#a4d32eadb9f77d41387656b87377ef14f" target="_top" xlink:title="Fun4AllDstInputManager\l::fileopen">
<polygon fill="none" stroke="black" points="504,-26.8025 504,-56.8025 628,-56.8025 628,-26.8025 504,-26.8025"/>
<text text-anchor="start" x="512" y="-44.8025" font-family="FreeSans" font-size="10.00">Fun4AllDstInputManager</text>
<text text-anchor="middle" x="566" y="-33.8025" font-family="FreeSans" font-size="10.00">::fileopen</text>
</a>
</g>
</g>
<!-- Node5&#45;&gt;Node6 -->
<g id="edge5" class="edge"><title>Node5&#45;&gt;Node6</title>
<path fill="none" stroke="midnightblue" d="M477.965,-53.8451C486.582,-52.6529 495.318,-51.4441 503.763,-50.2756"/>
<polygon fill="midnightblue" stroke="midnightblue" points="477.355,-50.3961 467.929,-55.2338 478.314,-57.33 477.355,-50.3961"/>
</g>
<!-- Node8 -->
<g id="node8" class="node"><title>Node8</title>
<g id="a_node8"><a xlink:href="../../d7/d0b/classFun4AllDstInputManager.html#ade26017b627e0e1f1ec0dec62ac7fd52" target="_top" xlink:title="Fun4AllDstInputManager\l::ReadNextEventSyncObject">
<polygon fill="none" stroke="black" points="825.5,-26.8025 825.5,-56.8025 964.5,-56.8025 964.5,-26.8025 825.5,-26.8025"/>
<text text-anchor="start" x="833.5" y="-44.8025" font-family="FreeSans" font-size="10.00">Fun4AllDstInputManager</text>
<text text-anchor="middle" x="895" y="-33.8025" font-family="FreeSans" font-size="10.00">::ReadNextEventSyncObject</text>
</a>
</g>
</g>
<!-- Node5&#45;&gt;Node8 -->
<g id="edge12" class="edge"><title>Node5&#45;&gt;Node8</title>
<path fill="none" stroke="midnightblue" d="M429.142,-49.0287C448.341,-37.6987 476.803,-22.987 504,-16.8025 627.08,11.1854 662.623,-2.21761 788,-16.8025 805.466,-18.8344 824.231,-22.6893 841.047,-26.7745"/>
<polygon fill="midnightblue" stroke="midnightblue" points="427.242,-46.0878 420.507,-54.2669 430.873,-52.0727 427.242,-46.0878"/>
</g>
<!-- Node9 -->
<g id="node9" class="node"><title>Node9</title>
<g id="a_node9"><a xlink:href="../../d7/d0b/classFun4AllDstInputManager.html#a0244c2edbaa2350038304b09f352c2d0" target="_top" xlink:title="Fun4AllDstInputManager\l::SyncIt">
<polygon fill="none" stroke="black" points="1002,-67.8025 1002,-97.8025 1126,-97.8025 1126,-67.8025 1002,-67.8025"/>
<text text-anchor="start" x="1010" y="-85.8025" font-family="FreeSans" font-size="10.00">Fun4AllDstInputManager</text>
<text text-anchor="middle" x="1064" y="-74.8025" font-family="FreeSans" font-size="10.00">::SyncIt</text>
</a>
</g>
</g>
<!-- Node5&#45;&gt;Node9 -->
<g id="edge11" class="edge"><title>Node5&#45;&gt;Node9</title>
<path fill="none" stroke="midnightblue" d="M451.895,-75.7143C468.237,-79.5272 486.841,-83.3833 504,-85.8025 707.494,-114.493 761.77,-127.672 966,-104.803 979.214,-103.323 993.254,-100.743 1006.43,-97.8586"/>
<polygon fill="midnightblue" stroke="midnightblue" points="452.584,-72.2807 442.045,-73.359 450.957,-79.0887 452.584,-72.2807"/>
</g>
<!-- Node10 -->
<g id="node10" class="node"><title>Node10</title>
<g id="a_node10"><a xlink:href="../../d7/d0b/classFun4AllDstInputManager.html#aeafa0248f9050c13fdae1bcb93336d7a" target="_top" xlink:title="Fun4AllDstInputManager::run">
<polygon fill="none" stroke="black" points="824,-76.3025 824,-95.3025 966,-95.3025 966,-76.3025 824,-76.3025"/>
<text text-anchor="middle" x="895" y="-83.3025" font-family="FreeSans" font-size="10.00">Fun4AllDstInputManager::run</text>
</a>
</g>
</g>
<!-- Node5&#45;&gt;Node10 -->
<g id="edge10" class="edge"><title>Node5&#45;&gt;Node10</title>
<path fill="none" stroke="midnightblue" d="M477.961,-67.0467C570.866,-71.235 731.511,-78.4772 823.633,-82.6302"/>
<polygon fill="midnightblue" stroke="midnightblue" points="477.953,-63.5428 467.806,-66.5888 477.638,-70.5357 477.953,-63.5428"/>
</g>
<!-- Node7 -->
<g id="node7" class="node"><title>Node7</title>
<g id="a_node7"><a xlink:href="../../d7/d0b/classFun4AllDstInputManager.html#ae4e92b95ae50ab72856d06c99b043496" target="_top" xlink:title="Fun4AllDstInputManager\l::OpenNextFile">
<polygon fill="none" stroke="black" points="664,-26.8025 664,-56.8025 788,-56.8025 788,-26.8025 664,-26.8025"/>
<text text-anchor="start" x="672" y="-44.8025" font-family="FreeSans" font-size="10.00">Fun4AllDstInputManager</text>
<text text-anchor="middle" x="726" y="-33.8025" font-family="FreeSans" font-size="10.00">::OpenNextFile</text>
</a>
</g>
</g>
<!-- Node6&#45;&gt;Node7 -->
<g id="edge6" class="edge"><title>Node6&#45;&gt;Node7</title>
<path fill="none" stroke="midnightblue" d="M638.366,-41.8025C646.863,-41.8025 655.478,-41.8025 663.815,-41.8025"/>
<polygon fill="midnightblue" stroke="midnightblue" points="638.087,-38.3026 628.087,-41.8025 638.087,-45.3026 638.087,-38.3026"/>
</g>
<!-- Node7&#45;&gt;Node8 -->
<g id="edge7" class="edge"><title>Node7&#45;&gt;Node8</title>
<path fill="none" stroke="midnightblue" d="M798.291,-41.8025C807.291,-41.8025 816.483,-41.8025 825.438,-41.8025"/>
<polygon fill="midnightblue" stroke="midnightblue" points="798.236,-38.3026 788.236,-41.8025 798.236,-45.3026 798.236,-38.3026"/>
</g>
<!-- Node7&#45;&gt;Node10 -->
<g id="edge9" class="edge"><title>Node7&#45;&gt;Node10</title>
<path fill="none" stroke="midnightblue" d="M793.874,-59.4219C815.642,-65.1573 838.981,-71.3066 857.646,-76.2242"/>
<polygon fill="midnightblue" stroke="midnightblue" points="794.567,-55.9851 784.005,-56.8218 792.783,-62.7541 794.567,-55.9851"/>
</g>
<!-- Node8&#45;&gt;Node9 -->
<g id="edge8" class="edge"><title>Node8&#45;&gt;Node9</title>
<path fill="none" stroke="midnightblue" d="M967.233,-59.291C978.728,-62.113 990.539,-65.0128 1001.77,-67.7703"/>
<polygon fill="midnightblue" stroke="midnightblue" points="967.782,-55.8219 957.236,-56.8366 966.113,-62.62 967.782,-55.8219"/>
</g>
</g>
</svg>
