<?xml version="1.0" encoding="UTF-8" standalone="no"?>
<!DOCTYPE svg PUBLIC "-//W3C//DTD SVG 1.1//EN"
 "http://www.w3.org/Graphics/SVG/1.1/DTD/svg11.dtd">
<!-- Generated by graphviz version 2.36.0 (20140111.2315)
 -->
<!-- Title: fun4all/phool/PHDataNodeIterator.h Pages: 1 -->
<svg width="577pt" height="488pt"
 viewBox="0.00 0.00 577.34 488.00" xmlns="http://www.w3.org/2000/svg" xmlns:xlink="http://www.w3.org/1999/xlink">
<g id="graph0" class="graph" transform="scale(1 1) rotate(0) translate(4 484)">
<title>fun4all/phool/PHDataNodeIterator.h</title>
<!-- Node1 -->
<g id="node1" class="node"><title>Node1</title>
<polygon fill="#bfbfbf" stroke="black" points="320,-449 320,-479 452,-479 452,-449 320,-449"/>
<text text-anchor="start" x="328" y="-467" font-family="FreeSans" font-size="10.00">fun4all/phool/PHDataNode</text>
<text text-anchor="middle" x="386" y="-456" font-family="FreeSans" font-size="10.00">Iterator.h</text>
</g>
<!-- Node2 -->
<g id="node2" class="node"><title>Node2</title>
<g id="a_node2"><a xlink:href="../../d3/d79/PHIODataNode_8h.html" target="_top" xlink:title="PHIODataNode.h">
<polygon fill="none" stroke="black" points="215,-392.5 215,-411.5 307,-411.5 307,-392.5 215,-392.5"/>
<text text-anchor="middle" x="261" y="-399.5" font-family="FreeSans" font-size="10.00">PHIODataNode.h</text>
</a>
</g>
</g>
<!-- Node1&#45;&gt;Node2 -->
<g id="edge1" class="edge"><title>Node1&#45;&gt;Node2</title>
<path fill="none" stroke="midnightblue" d="M356.693,-448.933C335.981,-438.991 308.417,-425.76 288.193,-416.053"/>
<polygon fill="midnightblue" stroke="midnightblue" points="289.447,-412.772 278.917,-411.6 286.417,-419.083 289.447,-412.772"/>
</g>
<!-- Node13 -->
<g id="node13" class="node"><title>Node13</title>
<g id="a_node13"><a xlink:href="../../d8/dfd/PHNodeIterator_8h.html" target="_top" xlink:title="PHNodeIterator.h">
<polygon fill="none" stroke="black" points="477,-280.5 477,-299.5 569,-299.5 569,-280.5 477,-280.5"/>
<text text-anchor="middle" x="523" y="-287.5" font-family="FreeSans" font-size="10.00">PHNodeIterator.h</text>
</a>
</g>
</g>
<!-- Node1&#45;&gt;Node13 -->
<g id="edge32" class="edge"><title>Node1&#45;&gt;Node13</title>
<path fill="none" stroke="midnightblue" d="M424.676,-448.909C462.353,-432.854 517.435,-402.637 542,-356 549.936,-340.933 542.809,-322.108 535.124,-308.6"/>
<polygon fill="midnightblue" stroke="midnightblue" points="537.91,-306.453 529.637,-299.834 531.976,-310.168 537.91,-306.453"/>
</g>
<!-- Node16 -->
<g id="node16" class="node"><title>Node16</title>
<polygon fill="none" stroke="#bfbfbf" points="398.5,-280.5 398.5,-299.5 447.5,-299.5 447.5,-280.5 398.5,-280.5"/>
<text text-anchor="middle" x="423" y="-287.5" font-family="FreeSans" font-size="10.00">cstddef</text>
</g>
<!-- Node1&#45;&gt;Node16 -->
<g id="edge33" class="edge"><title>Node1&#45;&gt;Node16</title>
<path fill="none" stroke="midnightblue" d="M387.053,-448.684C389.041,-424.931 394.159,-376.025 405,-336 407.475,-326.863 411.251,-317.066 414.706,-308.954"/>
<polygon fill="midnightblue" stroke="midnightblue" points="417.931,-310.316 418.79,-299.756 411.533,-307.476 417.931,-310.316"/>
</g>
<!-- Node3 -->
<g id="node3" class="node"><title>Node3</title>
<g id="a_node3"><a xlink:href="../../dd/d9b/PHDataNode_8h.html" target="_top" xlink:title="PHDataNode.h">
<polygon fill="none" stroke="black" points="293,-168.5 293,-187.5 375,-187.5 375,-168.5 293,-168.5"/>
<text text-anchor="middle" x="334" y="-175.5" font-family="FreeSans" font-size="10.00">PHDataNode.h</text>
</a>
</g>
</g>
<!-- Node2&#45;&gt;Node3 -->
<g id="edge2" class="edge"><title>Node2&#45;&gt;Node3</title>
<path fill="none" stroke="midnightblue" d="M283.61,-392.374C299.062,-385.172 318.413,-373.275 328,-356 356.416,-304.793 345.869,-231.803 338.608,-197.791"/>
<polygon fill="midnightblue" stroke="midnightblue" points="341.973,-196.806 336.332,-187.838 335.149,-198.366 341.973,-196.806"/>
</g>
<!-- Node8 -->
<g id="node8" class="node"><title>Node8</title>
<polygon fill="none" stroke="#bfbfbf" points="165.5,-56.5 165.5,-75.5 206.5,-75.5 206.5,-56.5 165.5,-56.5"/>
<text text-anchor="middle" x="186" y="-63.5" font-family="FreeSans" font-size="10.00">string</text>
</g>
<!-- Node2&#45;&gt;Node8 -->
<g id="edge31" class="edge"><title>Node2&#45;&gt;Node8</title>
<path fill="none" stroke="midnightblue" d="M218.427,-392.419C168.949,-379.673 94,-350.54 94,-291 94,-291 94,-291 94,-177 94,-146.902 94.7522,-135.935 113,-112 124.033,-97.5287 141.171,-86.618 156.07,-79.1666"/>
<polygon fill="midnightblue" stroke="midnightblue" points="157.883,-82.1821 165.451,-74.7669 154.911,-75.8446 157.883,-82.1821"/>
</g>
<!-- Node9 -->
<g id="node9" class="node"><title>Node9</title>
<g id="a_node9"><a xlink:href="../../d9/d53/PHIOManager_8h.html" target="_top" xlink:title="PHIOManager.h">
<polygon fill="none" stroke="black" points="214,-112.5 214,-131.5 300,-131.5 300,-112.5 214,-112.5"/>
<text text-anchor="middle" x="257" y="-119.5" font-family="FreeSans" font-size="10.00">PHIOManager.h</text>
</a>
</g>
</g>
<!-- Node2&#45;&gt;Node9 -->
<g id="edge9" class="edge"><title>Node2&#45;&gt;Node9</title>
<path fill="none" stroke="midnightblue" d="M258.518,-392.467C256.043,-383.485 252.415,-368.888 251,-356 250.03,-347.164 250.875,-344.888 251,-336 252.011,-264.238 254.935,-178.916 256.293,-141.799"/>
<polygon fill="midnightblue" stroke="midnightblue" points="259.801,-141.643 256.674,-131.521 252.805,-141.384 259.801,-141.643"/>
</g>
<!-- Node10 -->
<g id="node10" class="node"><title>Node10</title>
<g id="a_node10"><a xlink:href="../../dd/de7/PHNodeIOManager_8h.html" target="_top" xlink:title="PHNodeIOManager.h">
<polygon fill="none" stroke="black" points="122,-168.5 122,-187.5 232,-187.5 232,-168.5 122,-168.5"/>
<text text-anchor="middle" x="177" y="-175.5" font-family="FreeSans" font-size="10.00">PHNodeIOManager.h</text>
</a>
</g>
</g>
<!-- Node2&#45;&gt;Node10 -->
<g id="edge12" class="edge"><title>Node2&#45;&gt;Node10</title>
<path fill="none" stroke="midnightblue" d="M249.727,-392.235C239.862,-383.953 225.907,-370.642 218,-356 189.577,-303.366 180.765,-231.582 178.107,-197.904"/>
<polygon fill="midnightblue" stroke="midnightblue" points="181.581,-197.41 177.401,-187.674 174.598,-197.892 181.581,-197.41"/>
</g>
<!-- Node12 -->
<g id="node12" class="node"><title>Node12</title>
<g id="a_node12"><a xlink:href="../../db/d17/PHTypedNodeIterator_8h.html" target="_top" xlink:title="PHTypedNodeIterator.h">
<polygon fill="none" stroke="black" points="414.5,-336.5 414.5,-355.5 533.5,-355.5 533.5,-336.5 414.5,-336.5"/>
<text text-anchor="middle" x="474" y="-343.5" font-family="FreeSans" font-size="10.00">PHTypedNodeIterator.h</text>
</a>
</g>
</g>
<!-- Node2&#45;&gt;Node12 -->
<g id="edge16" class="edge"><title>Node2&#45;&gt;Node12</title>
<path fill="none" stroke="midnightblue" d="M294.75,-392.444C331.518,-383.122 390.446,-368.183 430.622,-357.997"/>
<polygon fill="midnightblue" stroke="midnightblue" points="431.574,-361.367 440.407,-355.516 429.854,-354.581 431.574,-361.367"/>
</g>
<!-- Node17 -->
<g id="node17" class="node"><title>Node17</title>
<g id="a_node17"><a xlink:href="../../de/da7/phooldefs_8h.html" target="_top" xlink:title="phooldefs.h">
<polygon fill="none" stroke="black" points="0,-224.5 0,-243.5 66,-243.5 66,-224.5 0,-224.5"/>
<text text-anchor="middle" x="33" y="-231.5" font-family="FreeSans" font-size="10.00">phooldefs.h</text>
</a>
</g>
</g>
<!-- Node2&#45;&gt;Node17 -->
<g id="edge28" class="edge"><title>Node2&#45;&gt;Node17</title>
<path fill="none" stroke="midnightblue" d="M214.733,-400.908C174.571,-398.42 117.181,-388.741 80,-356 49.5141,-329.154 38.6579,-280.126 34.9024,-253.462"/>
<polygon fill="midnightblue" stroke="midnightblue" points="38.3765,-253.036 33.6911,-243.533 31.428,-253.883 38.3765,-253.036"/>
</g>
<!-- Node18 -->
<g id="node18" class="node"><title>Node18</title>
<polygon fill="none" stroke="#bfbfbf" points="260.5,-336.5 260.5,-355.5 319.5,-355.5 319.5,-336.5 260.5,-336.5"/>
<text text-anchor="middle" x="290" y="-343.5" font-family="FreeSans" font-size="10.00">TObject.h</text>
</g>
<!-- Node2&#45;&gt;Node18 -->
<g id="edge30" class="edge"><title>Node2&#45;&gt;Node18</title>
<path fill="none" stroke="midnightblue" d="M265.789,-392.083C269.758,-384.691 275.525,-373.953 280.435,-364.811"/>
<polygon fill="midnightblue" stroke="midnightblue" points="283.653,-366.217 285.3,-355.751 277.486,-362.905 283.653,-366.217"/>
</g>
<!-- Node4 -->
<g id="node4" class="node"><title>Node4</title>
<g id="a_node4"><a xlink:href="../../d3/d62/PHNode_8h.html" target="_top" xlink:title="PHNode.h">
<polygon fill="none" stroke="black" points="356,-112.5 356,-131.5 418,-131.5 418,-112.5 356,-112.5"/>
<text text-anchor="middle" x="387" y="-119.5" font-family="FreeSans" font-size="10.00">PHNode.h</text>
</a>
</g>
</g>
<!-- Node3&#45;&gt;Node4 -->
<g id="edge3" class="edge"><title>Node3&#45;&gt;Node4</title>
<path fill="none" stroke="midnightblue" d="M342.752,-168.083C350.47,-160.22 361.905,-148.569 371.217,-139.081"/>
<polygon fill="midnightblue" stroke="midnightblue" points="373.904,-141.34 378.411,-131.751 368.908,-136.436 373.904,-141.34"/>
</g>
<!-- Node6 -->
<g id="node6" class="node"><title>Node6</title>
<polygon fill="none" stroke="#bfbfbf" points="421,-0.5 421,-19.5 475,-19.5 475,-0.5 421,-0.5"/>
<text text-anchor="middle" x="448" y="-7.5" font-family="FreeSans" font-size="10.00">iostream</text>
</g>
<!-- Node3&#45;&gt;Node6 -->
<g id="edge8" class="edge"><title>Node3&#45;&gt;Node6</title>
<path fill="none" stroke="midnightblue" d="M332.723,-168.352C330.058,-146.953 326.124,-90.7496 352,-56 366.171,-36.9692 390.412,-25.694 410.988,-19.1893"/>
<polygon fill="midnightblue" stroke="midnightblue" points="412.103,-22.5103 420.735,-16.3662 410.156,-15.7866 412.103,-22.5103"/>
</g>
<!-- Node5 -->
<g id="node5" class="node"><title>Node5</title>
<g id="a_node5"><a xlink:href="../../d5/d6f/phool_8h.html" target="_top" xlink:title="phool.h">
<polygon fill="none" stroke="black" points="424.5,-56.5 424.5,-75.5 471.5,-75.5 471.5,-56.5 424.5,-56.5"/>
<text text-anchor="middle" x="448" y="-63.5" font-family="FreeSans" font-size="10.00">phool.h</text>
</a>
</g>
</g>
<!-- Node4&#45;&gt;Node5 -->
<g id="edge4" class="edge"><title>Node4&#45;&gt;Node5</title>
<path fill="none" stroke="midnightblue" d="M396.801,-112.324C405.818,-104.341 419.406,-92.3128 430.318,-82.6529"/>
<polygon fill="midnightblue" stroke="midnightblue" points="432.853,-85.083 438.021,-75.8339 428.213,-79.8416 432.853,-85.083"/>
</g>
<!-- Node7 -->
<g id="node7" class="node"><title>Node7</title>
<polygon fill="none" stroke="#bfbfbf" points="361.5,-56.5 361.5,-75.5 406.5,-75.5 406.5,-56.5 361.5,-56.5"/>
<text text-anchor="middle" x="384" y="-63.5" font-family="FreeSans" font-size="10.00">iosfwd</text>
</g>
<!-- Node4&#45;&gt;Node7 -->
<g id="edge6" class="edge"><title>Node4&#45;&gt;Node7</title>
<path fill="none" stroke="midnightblue" d="M386.505,-112.083C386.111,-105.006 385.548,-94.8611 385.055,-85.9865"/>
<polygon fill="midnightblue" stroke="midnightblue" points="388.536,-85.5415 384.486,-75.7511 381.546,-85.9299 388.536,-85.5415"/>
</g>
<!-- Node4&#45;&gt;Node8 -->
<g id="edge7" class="edge"><title>Node4&#45;&gt;Node8</title>
<path fill="none" stroke="midnightblue" d="M355.594,-112.562C317.646,-102.368 254.226,-85.3294 216.63,-75.229"/>
<polygon fill="midnightblue" stroke="midnightblue" points="217.319,-71.7901 206.753,-72.5756 215.503,-78.5503 217.319,-71.7901"/>
</g>
<!-- Node5&#45;&gt;Node6 -->
<g id="edge5" class="edge"><title>Node5&#45;&gt;Node6</title>
<path fill="none" stroke="midnightblue" d="M448,-56.083C448,-49.0059 448,-38.8611 448,-29.9865"/>
<polygon fill="midnightblue" stroke="midnightblue" points="451.5,-29.751 448,-19.7511 444.5,-29.7511 451.5,-29.751"/>
</g>
<!-- Node9&#45;&gt;Node5 -->
<g id="edge10" class="edge"><title>Node9&#45;&gt;Node5</title>
<path fill="none" stroke="midnightblue" d="M287.265,-112.444C321.826,-102.672 378.223,-86.7275 414.197,-76.5567"/>
<polygon fill="midnightblue" stroke="midnightblue" points="415.543,-79.8137 424.213,-73.7251 413.638,-73.0777 415.543,-79.8137"/>
</g>
<!-- Node9&#45;&gt;Node8 -->
<g id="edge11" class="edge"><title>Node9&#45;&gt;Node8</title>
<path fill="none" stroke="midnightblue" d="M245.593,-112.324C234.891,-104.185 218.659,-91.8395 205.837,-82.0874"/>
<polygon fill="midnightblue" stroke="midnightblue" points="207.693,-79.1018 197.615,-75.8339 203.456,-84.6734 207.693,-79.1018"/>
</g>
<!-- Node10&#45;&gt;Node8 -->
<g id="edge14" class="edge"><title>Node10&#45;&gt;Node8</title>
<path fill="none" stroke="midnightblue" d="M177.706,-168.368C179.159,-150.617 182.509,-109.666 184.478,-85.5974"/>
<polygon fill="midnightblue" stroke="midnightblue" points="187.97,-85.8436 185.297,-75.5914 180.993,-85.2727 187.97,-85.8436"/>
</g>
<!-- Node10&#45;&gt;Node9 -->
<g id="edge13" class="edge"><title>Node10&#45;&gt;Node9</title>
<path fill="none" stroke="midnightblue" d="M189.853,-168.324C202.216,-159.979 221.13,-147.212 235.737,-137.352"/>
<polygon fill="midnightblue" stroke="midnightblue" points="237.848,-140.15 244.179,-131.655 233.932,-134.348 237.848,-140.15"/>
</g>
<!-- Node11 -->
<g id="node11" class="node"><title>Node11</title>
<polygon fill="none" stroke="#bfbfbf" points="122.5,-112.5 122.5,-131.5 157.5,-131.5 157.5,-112.5 122.5,-112.5"/>
<text text-anchor="middle" x="140" y="-119.5" font-family="FreeSans" font-size="10.00">map</text>
</g>
<!-- Node10&#45;&gt;Node11 -->
<g id="edge15" class="edge"><title>Node10&#45;&gt;Node11</title>
<path fill="none" stroke="midnightblue" d="M170.89,-168.083C165.718,-160.534 158.154,-149.495 151.806,-140.23"/>
<polygon fill="midnightblue" stroke="midnightblue" points="154.536,-138.022 145.996,-131.751 148.761,-141.979 154.536,-138.022"/>
</g>
<!-- Node12&#45;&gt;Node13 -->
<g id="edge17" class="edge"><title>Node12&#45;&gt;Node13</title>
<path fill="none" stroke="midnightblue" d="M482.091,-336.083C489.155,-328.298 499.588,-316.801 508.149,-307.367"/>
<polygon fill="midnightblue" stroke="midnightblue" points="510.931,-309.509 515.059,-299.751 505.747,-304.805 510.931,-309.509"/>
</g>
<!-- Node12&#45;&gt;Node16 -->
<g id="edge27" class="edge"><title>Node12&#45;&gt;Node16</title>
<path fill="none" stroke="midnightblue" d="M465.578,-336.083C458.152,-328.22 447.148,-316.569 438.188,-307.081"/>
<polygon fill="midnightblue" stroke="midnightblue" points="440.676,-304.618 431.265,-299.751 435.587,-309.424 440.676,-304.618"/>
</g>
<!-- Node13&#45;&gt;Node5 -->
<g id="edge18" class="edge"><title>Node13&#45;&gt;Node5</title>
<path fill="none" stroke="midnightblue" d="M530.422,-280.263C546.662,-260.028 582.472,-208.575 564,-168 545.611,-127.606 502.202,-97.0888 474.013,-80.651"/>
<polygon fill="midnightblue" stroke="midnightblue" points="475.525,-77.4855 465.096,-75.6223 472.087,-83.5829 475.525,-77.4855"/>
</g>
<!-- Node14 -->
<g id="node14" class="node"><title>Node14</title>
<g id="a_node14"><a xlink:href="../../d8/d30/PHCompositeNode_8h.html" target="_top" xlink:title="PHCompositeNode.h">
<polygon fill="none" stroke="black" points="387,-224.5 387,-243.5 495,-243.5 495,-224.5 387,-224.5"/>
<text text-anchor="middle" x="441" y="-231.5" font-family="FreeSans" font-size="10.00">PHCompositeNode.h</text>
</a>
</g>
</g>
<!-- Node13&#45;&gt;Node14 -->
<g id="edge19" class="edge"><title>Node13&#45;&gt;Node14</title>
<path fill="none" stroke="midnightblue" d="M509.825,-280.324C497.153,-271.979 477.767,-259.212 462.794,-249.352"/>
<polygon fill="midnightblue" stroke="midnightblue" points="464.419,-246.231 454.142,-243.655 460.569,-252.078 464.419,-246.231"/>
</g>
<!-- Node15 -->
<g id="node15" class="node"><title>Node15</title>
<g id="a_node15"><a xlink:href="../../db/dd5/PHPointerList_8h.html" target="_top" xlink:title="PHPointerList.h">
<polygon fill="none" stroke="black" points="469,-168.5 469,-187.5 555,-187.5 555,-168.5 469,-168.5"/>
<text text-anchor="middle" x="512" y="-175.5" font-family="FreeSans" font-size="10.00">PHPointerList.h</text>
</a>
</g>
</g>
<!-- Node13&#45;&gt;Node15 -->
<g id="edge26" class="edge"><title>Node13&#45;&gt;Node15</title>
<path fill="none" stroke="midnightblue" d="M522.137,-280.368C520.362,-262.617 516.267,-221.666 513.86,-197.597"/>
<polygon fill="midnightblue" stroke="midnightblue" points="517.337,-197.193 512.859,-187.591 510.372,-197.89 517.337,-197.193"/>
</g>
<!-- Node14&#45;&gt;Node4 -->
<g id="edge21" class="edge"><title>Node14&#45;&gt;Node4</title>
<path fill="none" stroke="midnightblue" d="M436.763,-224.368C427.93,-206.376 407.397,-164.55 395.653,-140.627"/>
<polygon fill="midnightblue" stroke="midnightblue" points="398.766,-139.026 391.218,-131.591 392.483,-142.11 398.766,-139.026"/>
</g>
<!-- Node14&#45;&gt;Node5 -->
<g id="edge20" class="edge"><title>Node14&#45;&gt;Node5</title>
<path fill="none" stroke="midnightblue" d="M441.376,-224.075C442.478,-197.945 445.714,-121.211 447.217,-85.577"/>
<polygon fill="midnightblue" stroke="midnightblue" points="450.714,-85.7067 447.639,-75.5681 443.72,-85.4117 450.714,-85.7067"/>
</g>
<!-- Node14&#45;&gt;Node15 -->
<g id="edge22" class="edge"><title>Node14&#45;&gt;Node15</title>
<path fill="none" stroke="midnightblue" d="M452.407,-224.324C463.109,-216.185 479.341,-203.839 492.163,-194.087"/>
<polygon fill="midnightblue" stroke="midnightblue" points="494.544,-196.673 500.385,-187.834 490.307,-191.102 494.544,-196.673"/>
</g>
<!-- Node15&#45;&gt;Node4 -->
<g id="edge24" class="edge"><title>Node15&#45;&gt;Node4</title>
<path fill="none" stroke="midnightblue" d="M492.193,-168.444C471.713,-159.596 439.517,-145.687 416.135,-135.586"/>
<polygon fill="midnightblue" stroke="midnightblue" points="417.282,-132.269 406.714,-131.516 414.506,-138.695 417.282,-132.269"/>
</g>
<!-- Node15&#45;&gt;Node5 -->
<g id="edge23" class="edge"><title>Node15&#45;&gt;Node5</title>
<path fill="none" stroke="midnightblue" d="M506.978,-168.368C496.463,-150.296 471.957,-108.176 458.07,-84.3074"/>
<polygon fill="midnightblue" stroke="midnightblue" points="461.053,-82.4748 452.999,-75.5914 455.002,-85.9951 461.053,-82.4748"/>
</g>
<!-- Node15&#45;&gt;Node6 -->
<g id="edge25" class="edge"><title>Node15&#45;&gt;Node6</title>
<path fill="none" stroke="midnightblue" d="M510.816,-168.425C507.783,-148.104 498.63,-95.7431 480,-56 475.279,-45.9284 468.264,-35.7422 462.004,-27.6143"/>
<polygon fill="midnightblue" stroke="midnightblue" points="464.642,-25.3104 455.652,-19.7053 459.185,-29.6937 464.642,-25.3104"/>
</g>
<!-- Node17&#45;&gt;Node8 -->
<g id="edge29" class="edge"><title>Node17&#45;&gt;Node8</title>
<path fill="none" stroke="midnightblue" d="M34.024,-224.456C37.0484,-202.807 47.8424,-145.17 80,-112 100.365,-90.9937 132.087,-79.2986 155.525,-73.1337"/>
<polygon fill="midnightblue" stroke="midnightblue" points="156.435,-76.5146 165.323,-70.7479 154.779,-69.7133 156.435,-76.5146"/>
</g>
</g>
</svg>
