<?xml version="1.0" encoding="UTF-8" standalone="no"?>
<!DOCTYPE svg PUBLIC "-//W3C//DTD SVG 1.1//EN"
 "http://www.w3.org/Graphics/SVG/1.1/DTD/svg11.dtd">
<!-- Generated by graphviz version 2.36.0 (20140111.2315)
 -->
<!-- Title: SyncObjectv2::SyncObjectv2 Pages: 1 -->
<svg width="344pt" height="294pt"
 viewBox="0.00 0.00 344.00 294.00" xmlns="http://www.w3.org/2000/svg" xmlns:xlink="http://www.w3.org/1999/xlink">
<g id="graph0" class="graph" transform="scale(1 1) rotate(0) translate(4 290)">
<title>SyncObjectv2::SyncObjectv2</title>
<!-- Node1 -->
<g id="node1" class="node"><title>Node1</title>
<polygon fill="#bfbfbf" stroke="black" points="0.5,-133.5 0.5,-152.5 143.5,-152.5 143.5,-133.5 0.5,-133.5"/>
<text text-anchor="middle" x="72" y="-140.5" font-family="FreeSans" font-size="10.00">SyncObjectv2::SyncObjectv2</text>
</g>
<!-- Node2 -->
<g id="node2" class="node"><title>Node2</title>
<g id="a_node2"><a xlink:href="../../de/dbb/classSyncObject.html#ad679d42aac1a409a94d2e535766dcebd" target="_top" xlink:title="set Event Counter ">
<polygon fill="none" stroke="black" points="193,-266.5 193,-285.5 323,-285.5 323,-266.5 193,-266.5"/>
<text text-anchor="middle" x="258" y="-273.5" font-family="FreeSans" font-size="10.00">SyncObject::EventCounter</text>
</a>
</g>
</g>
<!-- Node1&#45;&gt;Node2 -->
<g id="edge1" class="edge"><title>Node1&#45;&gt;Node2</title>
<path fill="none" stroke="midnightblue" d="M79.174,-152.709C93.8045,-174.881 132.912,-229.442 180,-257 183.847,-259.252 187.953,-261.238 192.19,-262.989"/>
<polygon fill="midnightblue" stroke="midnightblue" points="191.033,-266.293 201.627,-266.461 193.451,-259.723 191.033,-266.293"/>
</g>
<!-- Node3 -->
<g id="node3" class="node"><title>Node3</title>
<g id="a_node3"><a xlink:href="../../d9/d30/classSyncObjectv1.html#a137e19479315bfa9dd7f24bc7636bb22" target="_top" xlink:title="get Event Counter ">
<polygon fill="none" stroke="black" points="188,-228.5 188,-247.5 328,-247.5 328,-228.5 188,-228.5"/>
<text text-anchor="middle" x="258" y="-235.5" font-family="FreeSans" font-size="10.00">SyncObjectv1::EventCounter</text>
</a>
</g>
</g>
<!-- Node1&#45;&gt;Node3 -->
<g id="edge2" class="edge"><title>Node1&#45;&gt;Node3</title>
<path fill="none" stroke="midnightblue" d="M83.6877,-152.718C102.026,-168.878 141.266,-201.247 180,-219 185.292,-221.426 190.937,-223.568 196.673,-225.455"/>
<polygon fill="midnightblue" stroke="midnightblue" points="195.781,-228.842 206.367,-228.394 197.813,-222.143 195.781,-228.842"/>
</g>
<!-- Node4 -->
<g id="node4" class="node"><title>Node4</title>
<g id="a_node4"><a xlink:href="../../de/dbb/classSyncObject.html#aa650d97c0d3ace8ae7945f54224228ef" target="_top" xlink:title="set Event Number ">
<polygon fill="none" stroke="black" points="192.5,-190.5 192.5,-209.5 323.5,-209.5 323.5,-190.5 192.5,-190.5"/>
<text text-anchor="middle" x="258" y="-197.5" font-family="FreeSans" font-size="10.00">SyncObject::EventNumber</text>
</a>
</g>
</g>
<!-- Node1&#45;&gt;Node4 -->
<g id="edge3" class="edge"><title>Node1&#45;&gt;Node4</title>
<path fill="none" stroke="midnightblue" d="M97.8466,-152.615C119.386,-160.76 151.49,-172.443 180,-181 188.152,-183.447 196.856,-185.819 205.371,-188.012"/>
<polygon fill="midnightblue" stroke="midnightblue" points="204.683,-191.448 215.235,-190.495 206.392,-184.659 204.683,-191.448"/>
</g>
<!-- Node5 -->
<g id="node5" class="node"><title>Node5</title>
<g id="a_node5"><a xlink:href="../../d9/d30/classSyncObjectv1.html#aa26c49bf535e4170ceea4ee4c8c3feed" target="_top" xlink:title="get Event Number ">
<polygon fill="none" stroke="black" points="187.5,-152.5 187.5,-171.5 328.5,-171.5 328.5,-152.5 187.5,-152.5"/>
<text text-anchor="middle" x="258" y="-159.5" font-family="FreeSans" font-size="10.00">SyncObjectv1::EventNumber</text>
</a>
</g>
</g>
<!-- Node1&#45;&gt;Node5 -->
<g id="edge4" class="edge"><title>Node1&#45;&gt;Node5</title>
<path fill="none" stroke="midnightblue" d="M143.613,-150.292C154.631,-151.429 166.083,-152.612 177.286,-153.769"/>
<polygon fill="midnightblue" stroke="midnightblue" points="177.18,-157.276 187.487,-154.822 177.899,-150.313 177.18,-157.276"/>
</g>
<!-- Node6 -->
<g id="node6" class="node"><title>Node6</title>
<g id="a_node6"><a xlink:href="../../de/dbb/classSyncObject.html#af1188def459d0ff933d71e37c7afc0c5" target="_top" xlink:title="set Run Number ">
<polygon fill="none" stroke="black" points="196.5,-114.5 196.5,-133.5 319.5,-133.5 319.5,-114.5 196.5,-114.5"/>
<text text-anchor="middle" x="258" y="-121.5" font-family="FreeSans" font-size="10.00">SyncObject::RunNumber</text>
</a>
</g>
</g>
<!-- Node1&#45;&gt;Node6 -->
<g id="edge5" class="edge"><title>Node1&#45;&gt;Node6</title>
<path fill="none" stroke="midnightblue" d="M143.613,-135.708C157.64,-134.26 172.369,-132.739 186.395,-131.291"/>
<polygon fill="midnightblue" stroke="midnightblue" points="186.877,-134.76 196.465,-130.251 186.158,-127.797 186.877,-134.76"/>
</g>
<!-- Node7 -->
<g id="node7" class="node"><title>Node7</title>
<g id="a_node7"><a xlink:href="../../d9/d30/classSyncObjectv1.html#a5858900d58b529169eaa196ce6a13bbb" target="_top" xlink:title="get Run Number ">
<polygon fill="none" stroke="black" points="191,-76.5 191,-95.5 325,-95.5 325,-76.5 191,-76.5"/>
<text text-anchor="middle" x="258" y="-83.5" font-family="FreeSans" font-size="10.00">SyncObjectv1::RunNumber</text>
</a>
</g>
</g>
<!-- Node1&#45;&gt;Node7 -->
<g id="edge6" class="edge"><title>Node1&#45;&gt;Node7</title>
<path fill="none" stroke="midnightblue" d="M97.8466,-133.385C119.386,-125.24 151.49,-113.557 180,-105 188.152,-102.553 196.856,-100.181 205.371,-97.9885"/>
<polygon fill="midnightblue" stroke="midnightblue" points="206.392,-101.341 215.235,-95.5047 204.683,-94.5525 206.392,-101.341"/>
</g>
<!-- Node8 -->
<g id="node8" class="node"><title>Node8</title>
<g id="a_node8"><a xlink:href="../../df/da3/classSyncObjectv2.html#a13b6650096a3889cd609d92b399725cd" target="_top" xlink:title="get Segment Number ">
<polygon fill="none" stroke="black" points="180.5,-38.5 180.5,-57.5 335.5,-57.5 335.5,-38.5 180.5,-38.5"/>
<text text-anchor="middle" x="258" y="-45.5" font-family="FreeSans" font-size="10.00">SyncObjectv2::SegmentNumber</text>
</a>
</g>
</g>
<!-- Node1&#45;&gt;Node8 -->
<g id="edge7" class="edge"><title>Node1&#45;&gt;Node8</title>
<path fill="none" stroke="midnightblue" d="M83.6877,-133.282C102.026,-117.122 141.266,-84.7529 180,-67 185.292,-64.5744 190.937,-62.4317 196.673,-60.5447"/>
<polygon fill="midnightblue" stroke="midnightblue" points="197.813,-63.8566 206.367,-57.6055 195.781,-57.1577 197.813,-63.8566"/>
</g>
<!-- Node9 -->
<g id="node9" class="node"><title>Node9</title>
<g id="a_node9"><a xlink:href="../../de/dbb/classSyncObject.html#a9e8ffb7e35744a8f46cc59b4cf8fa1ca" target="_top" xlink:title="set Segment Number ">
<polygon fill="none" stroke="black" points="185.5,-0.5 185.5,-19.5 330.5,-19.5 330.5,-0.5 185.5,-0.5"/>
<text text-anchor="middle" x="258" y="-7.5" font-family="FreeSans" font-size="10.00">SyncObject::SegmentNumber</text>
</a>
</g>
</g>
<!-- Node1&#45;&gt;Node9 -->
<g id="edge8" class="edge"><title>Node1&#45;&gt;Node9</title>
<path fill="none" stroke="midnightblue" d="M79.174,-133.291C93.8045,-111.119 132.912,-56.5576 180,-29 183.847,-26.7484 187.953,-24.7625 192.19,-23.011"/>
<polygon fill="midnightblue" stroke="midnightblue" points="193.451,-26.2767 201.627,-19.539 191.033,-19.7072 193.451,-26.2767"/>
</g>
</g>
</svg>
