<?xml version="1.0" encoding="UTF-8" standalone="no"?>
<!DOCTYPE svg PUBLIC "-//W3C//DTD SVG 1.1//EN"
 "http://www.w3.org/Graphics/SVG/1.1/DTD/svg11.dtd">
<!-- Generated by graphviz version 2.36.0 (20140111.2315)
 -->
<!-- Title: fun4all/fun4all/Fun4AllPrdfInputManager.h Pages: 1 -->
<svg width="459pt" height="208pt"
 viewBox="0.00 0.00 459.00 208.00" xmlns="http://www.w3.org/2000/svg" xmlns:xlink="http://www.w3.org/1999/xlink">
<g id="graph0" class="graph" transform="scale(1 1) rotate(0) translate(4 204)">
<title>fun4all/fun4all/Fun4AllPrdfInputManager.h</title>
<!-- Node1 -->
<g id="node1" class="node"><title>Node1</title>
<polygon fill="#bfbfbf" stroke="black" points="320.5,-169 320.5,-199 451.5,-199 451.5,-169 320.5,-169"/>
<text text-anchor="start" x="328.5" y="-187" font-family="FreeSans" font-size="10.00">fun4all/fun4all/Fun4AllPrdf</text>
<text text-anchor="middle" x="386" y="-176" font-family="FreeSans" font-size="10.00">InputManager.h</text>
</g>
<!-- Node2 -->
<g id="node2" class="node"><title>Node2</title>
<g id="a_node2"><a xlink:href="../../d1/de7/Fun4AllInputManager_8h.html" target="_top" xlink:title="Fun4AllInputManager.h">
<polygon fill="none" stroke="black" points="213,-112.5 213,-131.5 329,-131.5 329,-112.5 213,-112.5"/>
<text text-anchor="middle" x="271" y="-119.5" font-family="FreeSans" font-size="10.00">Fun4AllInputManager.h</text>
</a>
</g>
</g>
<!-- Node1&#45;&gt;Node2 -->
<g id="edge1" class="edge"><title>Node1&#45;&gt;Node2</title>
<path fill="none" stroke="midnightblue" d="M359.038,-168.933C340.155,-159.081 315.084,-146 296.527,-136.318"/>
<polygon fill="midnightblue" stroke="midnightblue" points="297.968,-133.123 287.483,-131.6 294.73,-139.329 297.968,-133.123"/>
</g>
<!-- Node4 -->
<g id="node4" class="node"><title>Node4</title>
<polygon fill="none" stroke="#bfbfbf" points="327.5,-0.5 327.5,-19.5 368.5,-19.5 368.5,-0.5 327.5,-0.5"/>
<text text-anchor="middle" x="348" y="-7.5" font-family="FreeSans" font-size="10.00">string</text>
</g>
<!-- Node1&#45;&gt;Node4 -->
<g id="edge9" class="edge"><title>Node1&#45;&gt;Node4</title>
<path fill="none" stroke="midnightblue" d="M382.89,-168.925C376.074,-138.073 359.816,-64.4842 352.144,-29.7549"/>
<polygon fill="midnightblue" stroke="midnightblue" points="355.472,-28.5941 349.897,-19.5847 348.636,-30.1043 355.472,-28.5941"/>
</g>
<!-- Node9 -->
<g id="node9" class="node"><title>Node9</title>
<polygon fill="none" stroke="#bfbfbf" points="414.5,-112.5 414.5,-131.5 449.5,-131.5 449.5,-112.5 414.5,-112.5"/>
<text text-anchor="middle" x="432" y="-119.5" font-family="FreeSans" font-size="10.00">map</text>
</g>
<!-- Node1&#45;&gt;Node9 -->
<g id="edge10" class="edge"><title>Node1&#45;&gt;Node9</title>
<path fill="none" stroke="midnightblue" d="M396.901,-168.781C403.586,-160.062 412.176,-148.857 419.185,-139.715"/>
<polygon fill="midnightblue" stroke="midnightblue" points="422,-141.796 425.307,-131.731 416.445,-137.537 422,-141.796"/>
</g>
<!-- Node3 -->
<g id="node3" class="node"><title>Node3</title>
<g id="a_node3"><a xlink:href="../../d2/de7/Fun4AllBase_8h.html" target="_top" xlink:title="Fun4AllBase.h">
<polygon fill="none" stroke="black" points="0,-56.5 0,-75.5 80,-75.5 80,-56.5 0,-56.5"/>
<text text-anchor="middle" x="40" y="-63.5" font-family="FreeSans" font-size="10.00">Fun4AllBase.h</text>
</a>
</g>
</g>
<!-- Node2&#45;&gt;Node3 -->
<g id="edge2" class="edge"><title>Node2&#45;&gt;Node3</title>
<path fill="none" stroke="midnightblue" d="M234.397,-112.444C194.269,-103.063 129.802,-87.9926 86.2154,-77.8036"/>
<polygon fill="midnightblue" stroke="midnightblue" points="86.9656,-74.3847 76.4314,-75.5164 85.3721,-81.2009 86.9656,-74.3847"/>
</g>
<!-- Node2&#45;&gt;Node4 -->
<g id="edge7" class="edge"><title>Node2&#45;&gt;Node4</title>
<path fill="none" stroke="midnightblue" d="M286.472,-112.426C299.344,-104.541 317.242,-91.7074 328,-76 337.486,-62.1492 342.604,-43.6325 345.281,-29.9058"/>
<polygon fill="midnightblue" stroke="midnightblue" points="348.788,-30.1517 346.996,-19.7096 341.885,-28.9901 348.788,-30.1517"/>
</g>
<!-- Node6 -->
<g id="node6" class="node"><title>Node6</title>
<g id="a_node6"><a xlink:href="../../da/dc1/Fun4AllReturnCodes_8h.html" target="_top" xlink:title="Fun4AllReturnCodes.h">
<polygon fill="none" stroke="black" points="98.5,-56.5 98.5,-75.5 211.5,-75.5 211.5,-56.5 98.5,-56.5"/>
<text text-anchor="middle" x="155" y="-63.5" font-family="FreeSans" font-size="10.00">Fun4AllReturnCodes.h</text>
</a>
</g>
</g>
<!-- Node2&#45;&gt;Node6 -->
<g id="edge5" class="edge"><title>Node2&#45;&gt;Node6</title>
<path fill="none" stroke="midnightblue" d="M252.619,-112.444C233.784,-103.675 204.269,-89.9355 182.621,-79.8579"/>
<polygon fill="midnightblue" stroke="midnightblue" points="183.838,-76.5637 173.295,-75.5164 180.883,-82.9098 183.838,-76.5637"/>
</g>
<!-- Node7 -->
<g id="node7" class="node"><title>Node7</title>
<polygon fill="none" stroke="#bfbfbf" points="229.5,-56.5 229.5,-75.5 258.5,-75.5 258.5,-56.5 229.5,-56.5"/>
<text text-anchor="middle" x="244" y="-63.5" font-family="FreeSans" font-size="10.00">list</text>
</g>
<!-- Node2&#45;&gt;Node7 -->
<g id="edge6" class="edge"><title>Node2&#45;&gt;Node7</title>
<path fill="none" stroke="midnightblue" d="M266.541,-112.083C262.846,-104.691 257.477,-93.9533 252.906,-84.8111"/>
<polygon fill="midnightblue" stroke="midnightblue" points="255.978,-83.1301 248.376,-75.7511 249.717,-86.2606 255.978,-83.1301"/>
</g>
<!-- Node8 -->
<g id="node8" class="node"><title>Node8</title>
<polygon fill="none" stroke="#bfbfbf" points="276,-56.5 276,-75.5 320,-75.5 320,-56.5 276,-56.5"/>
<text text-anchor="middle" x="298" y="-63.5" font-family="FreeSans" font-size="10.00">vector</text>
</g>
<!-- Node2&#45;&gt;Node8 -->
<g id="edge8" class="edge"><title>Node2&#45;&gt;Node8</title>
<path fill="none" stroke="midnightblue" d="M275.459,-112.083C279.154,-104.691 284.523,-93.9533 289.094,-84.8111"/>
<polygon fill="midnightblue" stroke="midnightblue" points="292.283,-86.2606 293.624,-75.7511 286.022,-83.1301 292.283,-86.2606"/>
</g>
<!-- Node3&#45;&gt;Node4 -->
<g id="edge3" class="edge"><title>Node3&#45;&gt;Node4</title>
<path fill="none" stroke="midnightblue" d="M80.1056,-57.6012C83.1149,-57.056 86.1051,-56.5173 89,-56 171.456,-41.2646 268.804,-24.5284 317.31,-16.2339"/>
<polygon fill="midnightblue" stroke="midnightblue" points="317.906,-19.6829 327.173,-14.5486 316.727,-12.7829 317.906,-19.6829"/>
</g>
<!-- Node5 -->
<g id="node5" class="node"><title>Node5</title>
<polygon fill="none" stroke="#bfbfbf" points="17.5,-0.5 17.5,-19.5 62.5,-19.5 62.5,-0.5 17.5,-0.5"/>
<text text-anchor="middle" x="40" y="-7.5" font-family="FreeSans" font-size="10.00">climits</text>
</g>
<!-- Node3&#45;&gt;Node5 -->
<g id="edge4" class="edge"><title>Node3&#45;&gt;Node5</title>
<path fill="none" stroke="midnightblue" d="M40,-56.083C40,-49.0059 40,-38.8611 40,-29.9865"/>
<polygon fill="midnightblue" stroke="midnightblue" points="43.5001,-29.751 40,-19.7511 36.5001,-29.7511 43.5001,-29.751"/>
</g>
</g>
</svg>
