<?xml version="1.0" encoding="UTF-8" standalone="no"?>
<!DOCTYPE svg PUBLIC "-//W3C//DTD SVG 1.1//EN"
 "http://www.w3.org/Graphics/SVG/1.1/DTD/svg11.dtd">
<!-- Generated by graphviz version 2.36.0 (20140111.2315)
 -->
<!-- Title: fun4all/fun4all/Fun4AllReturnCodes.h Pages: 1 -->
<svg width="1362pt" height="312pt"
 viewBox="0.00 0.00 1362.00 312.00" xmlns="http://www.w3.org/2000/svg" xmlns:xlink="http://www.w3.org/1999/xlink">
<g id="graph0" class="graph" transform="scale(1 1) rotate(0) translate(4 308)">
<title>fun4all/fun4all/Fun4AllReturnCodes.h</title>
<!-- Node1 -->
<g id="node1" class="node"><title>Node1</title>
<polygon fill="#bfbfbf" stroke="black" points="877.5,-273 877.5,-303 1018.5,-303 1018.5,-273 877.5,-273"/>
<text text-anchor="start" x="885.5" y="-291" font-family="FreeSans" font-size="10.00">fun4all/fun4all/Fun4AllReturn</text>
<text text-anchor="middle" x="948" y="-280" font-family="FreeSans" font-size="10.00">Codes.h</text>
</g>
<!-- Node2 -->
<g id="node2" class="node"><title>Node2</title>
<g id="a_node2"><a xlink:href="../../d1/de7/Fun4AllInputManager_8h.html" target="_top" xlink:title="fun4all/fun4all/Fun4AllInput\lManager.h">
<polygon fill="none" stroke="black" points="503,-205 503,-235 637,-235 637,-205 503,-205"/>
<text text-anchor="start" x="511" y="-223" font-family="FreeSans" font-size="10.00">fun4all/fun4all/Fun4AllInput</text>
<text text-anchor="middle" x="570" y="-212" font-family="FreeSans" font-size="10.00">Manager.h</text>
</a>
</g>
</g>
<!-- Node1&#45;&gt;Node2 -->
<g id="edge1" class="edge"><title>Node1&#45;&gt;Node2</title>
<path fill="none" stroke="midnightblue" d="M867.445,-272.935C798.884,-260.964 701.547,-243.969 637.135,-232.722"/>
<polygon fill="midnightblue" stroke="midnightblue" points="866.892,-276.391 877.345,-274.663 868.096,-269.495 866.892,-276.391"/>
</g>
<!-- Node4 -->
<g id="node4" class="node"><title>Node4</title>
<g id="a_node4"><a xlink:href="../../d3/d53/Fun4AllDstInputManager_8cc.html" target="_top" xlink:title="fun4all/fun4all/Fun4AllDst\lInputManager.cc">
<polygon fill="none" stroke="black" points="340,-69 340,-99 468,-99 468,-69 340,-69"/>
<text text-anchor="start" x="348" y="-87" font-family="FreeSans" font-size="10.00">fun4all/fun4all/Fun4AllDst</text>
<text text-anchor="middle" x="404" y="-76" font-family="FreeSans" font-size="10.00">InputManager.cc</text>
</a>
</g>
</g>
<!-- Node1&#45;&gt;Node4 -->
<g id="edge13" class="edge"><title>Node1&#45;&gt;Node4</title>
<path fill="none" stroke="midnightblue" d="M867.296,-287.288C690.031,-285.979 275.846,-271.649 193,-168 150.236,-114.497 263.081,-95.3806 339.76,-88.6237"/>
<polygon fill="midnightblue" stroke="midnightblue" points="867.326,-290.788 877.347,-287.35 867.369,-283.788 867.326,-290.788"/>
</g>
<!-- Node5 -->
<g id="node5" class="node"><title>Node5</title>
<g id="a_node5"><a xlink:href="../../d2/dab/Fun4AllNoSyncDstInputManager_8h.html" target="_top" xlink:title="fun4all/fun4all/Fun4AllNo\lSyncDstInputManager.h">
<polygon fill="none" stroke="black" points="584.5,-69 584.5,-99 709.5,-99 709.5,-69 584.5,-69"/>
<text text-anchor="start" x="592.5" y="-87" font-family="FreeSans" font-size="10.00">fun4all/fun4all/Fun4AllNo</text>
<text text-anchor="middle" x="647" y="-76" font-family="FreeSans" font-size="10.00">SyncDstInputManager.h</text>
</a>
</g>
</g>
<!-- Node1&#45;&gt;Node5 -->
<g id="edge15" class="edge"><title>Node1&#45;&gt;Node5</title>
<path fill="none" stroke="midnightblue" d="M960.122,-263.733C975.223,-231.132 995.553,-171.843 965,-136 948.655,-116.825 797.676,-99.3685 709.758,-90.7168"/>
<polygon fill="midnightblue" stroke="midnightblue" points="956.872,-262.412 955.665,-272.938 963.173,-265.463 956.872,-262.412"/>
</g>
<!-- Node7 -->
<g id="node7" class="node"><title>Node7</title>
<g id="a_node7"><a xlink:href="../../d8/d8f/Fun4AllDummyInputManager_8h.html" target="_top" xlink:title="fun4all/fun4all/Fun4AllDummy\lInputManager.h">
<polygon fill="none" stroke="black" points="0,-137 0,-167 146,-167 146,-137 0,-137"/>
<text text-anchor="start" x="8" y="-155" font-family="FreeSans" font-size="10.00">fun4all/fun4all/Fun4AllDummy</text>
<text text-anchor="middle" x="73" y="-144" font-family="FreeSans" font-size="10.00">InputManager.h</text>
</a>
</g>
</g>
<!-- Node1&#45;&gt;Node7 -->
<g id="edge14" class="edge"><title>Node1&#45;&gt;Node7</title>
<path fill="none" stroke="midnightblue" d="M867.191,-284.893C679.177,-279.545 223.529,-263.858 160,-236 125.97,-221.078 97.202,-186.78 82.8307,-167.264"/>
<polygon fill="midnightblue" stroke="midnightblue" points="867.198,-288.394 877.292,-285.177 867.395,-281.397 867.198,-288.394"/>
</g>
<!-- Node11 -->
<g id="node11" class="node"><title>Node11</title>
<g id="a_node11"><a xlink:href="../../da/d7b/Fun4AllPrdfInputManager_8cc.html" target="_top" xlink:title="fun4all/fun4all/Fun4AllPrdf\lInputManager.cc">
<polygon fill="none" stroke="black" points="804.5,-69 804.5,-99 935.5,-99 935.5,-69 804.5,-69"/>
<text text-anchor="start" x="812.5" y="-87" font-family="FreeSans" font-size="10.00">fun4all/fun4all/Fun4AllPrdf</text>
<text text-anchor="middle" x="870" y="-76" font-family="FreeSans" font-size="10.00">InputManager.cc</text>
</a>
</g>
</g>
<!-- Node1&#45;&gt;Node11 -->
<g id="edge16" class="edge"><title>Node1&#45;&gt;Node11</title>
<path fill="none" stroke="midnightblue" d="M975.705,-266.19C984.562,-257.885 993.286,-247.542 998,-236 1014.8,-194.855 1022.94,-172.786 998,-136 983.77,-115.013 959.379,-102.662 935.681,-95.3933"/>
<polygon fill="midnightblue" stroke="midnightblue" points="973.207,-263.724 967.985,-272.943 977.816,-268.993 973.207,-263.724"/>
</g>
<!-- Node12 -->
<g id="node12" class="node"><title>Node12</title>
<g id="a_node12"><a xlink:href="../../d8/d7a/Fun4AllServer_8cc.html" target="_top" xlink:title="fun4all/fun4all/Fun4AllServer.cc">
<polygon fill="none" stroke="black" points="802,-142.5 802,-161.5 956,-161.5 956,-142.5 802,-142.5"/>
<text text-anchor="middle" x="879" y="-149.5" font-family="FreeSans" font-size="10.00">fun4all/fun4all/Fun4AllServer.cc</text>
</a>
</g>
</g>
<!-- Node1&#45;&gt;Node12 -->
<g id="edge17" class="edge"><title>Node1&#45;&gt;Node12</title>
<path fill="none" stroke="midnightblue" d="M935.971,-263.64C920.391,-233.382 893.987,-182.106 883.494,-161.728"/>
<polygon fill="midnightblue" stroke="midnightblue" points="932.926,-265.371 940.616,-272.66 939.149,-262.167 932.926,-265.371"/>
</g>
<!-- Node14 -->
<g id="node14" class="node"><title>Node14</title>
<g id="a_node14"><a xlink:href="../../dd/d12/ReadMySql_8C.html" target="_top" xlink:title="fun4all/modules/ReadMySql.C">
<polygon fill="none" stroke="black" points="1050,-210.5 1050,-229.5 1196,-229.5 1196,-210.5 1050,-210.5"/>
<text text-anchor="middle" x="1123" y="-217.5" font-family="FreeSans" font-size="10.00">fun4all/modules/ReadMySql.C</text>
</a>
</g>
</g>
<!-- Node1&#45;&gt;Node14 -->
<g id="edge18" class="edge"><title>Node1&#45;&gt;Node14</title>
<path fill="none" stroke="midnightblue" d="M995.293,-269.164C1029.34,-256.325 1073.75,-239.572 1100.23,-229.587"/>
<polygon fill="midnightblue" stroke="midnightblue" points="993.663,-266.038 985.542,-272.841 996.134,-272.587 993.663,-266.038"/>
</g>
<!-- Node15 -->
<g id="node15" class="node"><title>Node15</title>
<g id="a_node15"><a xlink:href="../../dd/d2f/SimpleReadMySql_8C.html" target="_top" xlink:title="fun4all/modules/SimpleRead\lMySql.C">
<polygon fill="none" stroke="black" points="1214,-205 1214,-235 1354,-235 1354,-205 1214,-205"/>
<text text-anchor="start" x="1222" y="-223" font-family="FreeSans" font-size="10.00">fun4all/modules/SimpleRead</text>
<text text-anchor="middle" x="1284" y="-212" font-family="FreeSans" font-size="10.00">MySql.C</text>
</a>
</g>
</g>
<!-- Node1&#45;&gt;Node15 -->
<g id="edge19" class="edge"><title>Node1&#45;&gt;Node15</title>
<path fill="none" stroke="midnightblue" d="M1028.81,-271.127C1085.26,-260.039 1159.87,-245.382 1213.83,-234.784"/>
<polygon fill="midnightblue" stroke="midnightblue" points="1027.98,-267.722 1018.85,-273.084 1029.33,-274.591 1027.98,-267.722"/>
</g>
<!-- Node3 -->
<g id="node3" class="node"><title>Node3</title>
<g id="a_node3"><a xlink:href="../../dd/de7/Fun4AllDstInputManager_8h.html" target="_top" xlink:title="fun4all/fun4all/Fun4AllDst\lInputManager.h">
<polygon fill="none" stroke="black" points="506,-137 506,-167 634,-167 634,-137 506,-137"/>
<text text-anchor="start" x="514" y="-155" font-family="FreeSans" font-size="10.00">fun4all/fun4all/Fun4AllDst</text>
<text text-anchor="middle" x="570" y="-144" font-family="FreeSans" font-size="10.00">InputManager.h</text>
</a>
</g>
</g>
<!-- Node2&#45;&gt;Node3 -->
<g id="edge2" class="edge"><title>Node2&#45;&gt;Node3</title>
<path fill="none" stroke="midnightblue" d="M570,-194.532C570,-185.361 570,-175.245 570,-167.293"/>
<polygon fill="midnightblue" stroke="midnightblue" points="566.5,-194.679 570,-204.679 573.5,-194.679 566.5,-194.679"/>
</g>
<!-- Node2&#45;&gt;Node7 -->
<g id="edge6" class="edge"><title>Node2&#45;&gt;Node7</title>
<path fill="none" stroke="midnightblue" d="M492.894,-208.761C398.278,-196.196 239.026,-175.048 146.221,-162.724"/>
<polygon fill="midnightblue" stroke="midnightblue" points="492.599,-212.252 502.972,-210.099 493.52,-205.313 492.599,-212.252"/>
</g>
<!-- Node9 -->
<g id="node9" class="node"><title>Node9</title>
<g id="a_node9"><a xlink:href="../../d0/d56/Fun4AllInputManager_8cc.html" target="_top" xlink:title="fun4all/fun4all/Fun4AllInput\lManager.cc">
<polygon fill="none" stroke="black" points="202,-137 202,-167 336,-167 336,-137 202,-137"/>
<text text-anchor="start" x="210" y="-155" font-family="FreeSans" font-size="10.00">fun4all/fun4all/Fun4AllInput</text>
<text text-anchor="middle" x="269" y="-144" font-family="FreeSans" font-size="10.00">Manager.cc</text>
</a>
</g>
</g>
<!-- Node2&#45;&gt;Node9 -->
<g id="edge8" class="edge"><title>Node2&#45;&gt;Node9</title>
<path fill="none" stroke="midnightblue" d="M496.023,-202.779C446.085,-191.829 380.831,-177.521 333.104,-167.056"/>
<polygon fill="midnightblue" stroke="midnightblue" points="495.28,-206.199 505.797,-204.922 496.779,-199.362 495.28,-206.199"/>
</g>
<!-- Node10 -->
<g id="node10" class="node"><title>Node10</title>
<g id="a_node10"><a xlink:href="../../da/d64/Fun4AllPrdfInputManager_8h.html" target="_top" xlink:title="fun4all/fun4all/Fun4AllPrdf\lInputManager.h">
<polygon fill="none" stroke="black" points="652.5,-137 652.5,-167 783.5,-167 783.5,-137 652.5,-137"/>
<text text-anchor="start" x="660.5" y="-155" font-family="FreeSans" font-size="10.00">fun4all/fun4all/Fun4AllPrdf</text>
<text text-anchor="middle" x="718" y="-144" font-family="FreeSans" font-size="10.00">InputManager.h</text>
</a>
</g>
</g>
<!-- Node2&#45;&gt;Node10 -->
<g id="edge9" class="edge"><title>Node2&#45;&gt;Node10</title>
<path fill="none" stroke="midnightblue" d="M610.928,-200.749C634.822,-190.093 664.508,-176.855 686.557,-167.022"/>
<polygon fill="midnightblue" stroke="midnightblue" points="609.457,-197.572 601.75,-204.841 612.308,-203.965 609.457,-197.572"/>
</g>
<!-- Node2&#45;&gt;Node12 -->
<g id="edge11" class="edge"><title>Node2&#45;&gt;Node12</title>
<path fill="none" stroke="midnightblue" d="M645.895,-202.789C706.99,-189.74 790.437,-171.916 839.14,-161.514"/>
<polygon fill="midnightblue" stroke="midnightblue" points="644.958,-199.411 635.909,-204.922 646.42,-206.256 644.958,-199.411"/>
</g>
<!-- Node13 -->
<g id="node13" class="node"><title>Node13</title>
<g id="a_node13"><a xlink:href="../../df/d03/Fun4AllSyncManager_8cc.html" target="_top" xlink:title="fun4all/fun4all/Fun4AllSync\lManager.cc">
<polygon fill="none" stroke="black" points="354,-137 354,-167 488,-167 488,-137 354,-137"/>
<text text-anchor="start" x="362" y="-155" font-family="FreeSans" font-size="10.00">fun4all/fun4all/Fun4AllSync</text>
<text text-anchor="middle" x="421" y="-144" font-family="FreeSans" font-size="10.00">Manager.cc</text>
</a>
</g>
</g>
<!-- Node2&#45;&gt;Node13 -->
<g id="edge12" class="edge"><title>Node2&#45;&gt;Node13</title>
<path fill="none" stroke="midnightblue" d="M528.796,-200.749C504.74,-190.093 474.854,-176.855 452.655,-167.022"/>
<polygon fill="midnightblue" stroke="midnightblue" points="527.475,-203.991 538.036,-204.841 530.31,-197.591 527.475,-203.991"/>
</g>
<!-- Node3&#45;&gt;Node4 -->
<g id="edge3" class="edge"><title>Node3&#45;&gt;Node4</title>
<path fill="none" stroke="midnightblue" d="M524.805,-133.031C497.885,-122.328 464.217,-108.942 439.267,-99.0218"/>
<polygon fill="midnightblue" stroke="midnightblue" points="523.803,-136.399 534.389,-136.841 526.389,-129.894 523.803,-136.399"/>
</g>
<!-- Node3&#45;&gt;Node5 -->
<g id="edge4" class="edge"><title>Node3&#45;&gt;Node5</title>
<path fill="none" stroke="midnightblue" d="M594.478,-130.018C606.266,-119.915 620.085,-108.07 630.589,-99.0663"/>
<polygon fill="midnightblue" stroke="midnightblue" points="592.023,-127.514 586.708,-136.679 596.578,-132.828 592.023,-127.514"/>
</g>
<!-- Node6 -->
<g id="node6" class="node"><title>Node6</title>
<g id="a_node6"><a xlink:href="../../d9/d35/Fun4AllNoSyncDstInputManager_8cc.html" target="_top" xlink:title="fun4all/fun4all/Fun4AllNo\lSyncDstInputManager.cc">
<polygon fill="none" stroke="black" points="584.5,-1 584.5,-31 709.5,-31 709.5,-1 584.5,-1"/>
<text text-anchor="start" x="592.5" y="-19" font-family="FreeSans" font-size="10.00">fun4all/fun4all/Fun4AllNo</text>
<text text-anchor="middle" x="647" y="-8" font-family="FreeSans" font-size="10.00">SyncDstInputManager.cc</text>
</a>
</g>
</g>
<!-- Node5&#45;&gt;Node6 -->
<g id="edge5" class="edge"><title>Node5&#45;&gt;Node6</title>
<path fill="none" stroke="midnightblue" d="M647,-58.5322C647,-49.3606 647,-39.2449 647,-31.2931"/>
<polygon fill="midnightblue" stroke="midnightblue" points="643.5,-58.6789 647,-68.679 650.5,-58.679 643.5,-58.6789"/>
</g>
<!-- Node8 -->
<g id="node8" class="node"><title>Node8</title>
<g id="a_node8"><a xlink:href="../../dd/dec/Fun4AllDummyInputManager_8cc.html" target="_top" xlink:title="fun4all/fun4all/Fun4AllDummy\lInputManager.cc">
<polygon fill="none" stroke="black" points="0,-69 0,-99 146,-99 146,-69 0,-69"/>
<text text-anchor="start" x="8" y="-87" font-family="FreeSans" font-size="10.00">fun4all/fun4all/Fun4AllDummy</text>
<text text-anchor="middle" x="73" y="-76" font-family="FreeSans" font-size="10.00">InputManager.cc</text>
</a>
</g>
</g>
<!-- Node7&#45;&gt;Node8 -->
<g id="edge7" class="edge"><title>Node7&#45;&gt;Node8</title>
<path fill="none" stroke="midnightblue" d="M73,-126.532C73,-117.361 73,-107.245 73,-99.2931"/>
<polygon fill="midnightblue" stroke="midnightblue" points="69.5001,-126.679 73,-136.679 76.5001,-126.679 69.5001,-126.679"/>
</g>
<!-- Node10&#45;&gt;Node11 -->
<g id="edge10" class="edge"><title>Node10&#45;&gt;Node11</title>
<path fill="none" stroke="midnightblue" d="M760.034,-132.749C784.574,-122.093 815.062,-108.855 837.707,-99.0218"/>
<polygon fill="midnightblue" stroke="midnightblue" points="758.386,-129.648 750.608,-136.841 761.174,-136.069 758.386,-129.648"/>
</g>
</g>
</svg>
