<?xml version="1.0" encoding="UTF-8" standalone="no"?>
<!DOCTYPE svg PUBLIC "-//W3C//DTD SVG 1.1//EN"
 "http://www.w3.org/Graphics/SVG/1.1/DTD/svg11.dtd">
<!-- Generated by graphviz version 2.36.0 (20140111.2315)
 -->
<!-- Title: fun4all/phool/PHNodeIOManager.h Pages: 1 -->
<svg width="1205pt" height="232pt"
 viewBox="0.00 0.00 1205.00 232.00" xmlns="http://www.w3.org/2000/svg" xmlns:xlink="http://www.w3.org/1999/xlink">
<g id="graph0" class="graph" transform="scale(1 1) rotate(0) translate(4 228)">
<title>fun4all/phool/PHNodeIOManager.h</title>
<!-- Node1 -->
<g id="node1" class="node"><title>Node1</title>
<polygon fill="#bfbfbf" stroke="black" points="842.5,-204.5 842.5,-223.5 1009.5,-223.5 1009.5,-204.5 842.5,-204.5"/>
<text text-anchor="middle" x="926" y="-211.5" font-family="FreeSans" font-size="10.00">fun4all/phool/PHNodeIOManager.h</text>
</g>
<!-- Node2 -->
<g id="node2" class="node"><title>Node2</title>
<g id="a_node2"><a xlink:href="../../d3/d53/Fun4AllDstInputManager_8cc.html" target="_top" xlink:title="fun4all/fun4all/Fun4AllDst\lInputManager.cc">
<polygon fill="none" stroke="black" points="0,-1 0,-31 128,-31 128,-1 0,-1"/>
<text text-anchor="start" x="8" y="-19" font-family="FreeSans" font-size="10.00">fun4all/fun4all/Fun4AllDst</text>
<text text-anchor="middle" x="64" y="-8" font-family="FreeSans" font-size="10.00">InputManager.cc</text>
</a>
</g>
</g>
<!-- Node1&#45;&gt;Node2 -->
<g id="edge1" class="edge"><title>Node1&#45;&gt;Node2</title>
<path fill="none" stroke="midnightblue" d="M832.137,-211.39C642.001,-206.347 219.901,-185.556 108,-100 85.197,-82.5654 72.9513,-49.8729 67.5245,-31.1427"/>
<polygon fill="midnightblue" stroke="midnightblue" points="832.306,-214.895 842.393,-211.653 832.486,-207.898 832.306,-214.895"/>
</g>
<!-- Node3 -->
<g id="node3" class="node"><title>Node3</title>
<g id="a_node3"><a xlink:href="../../d9/d74/Fun4AllDstOutputManager_8cc.html" target="_top" xlink:title="fun4all/fun4all/Fun4AllDst\lOutputManager.cc">
<polygon fill="none" stroke="black" points="1069,-137 1069,-167 1197,-167 1197,-137 1069,-137"/>
<text text-anchor="start" x="1077" y="-155" font-family="FreeSans" font-size="10.00">fun4all/fun4all/Fun4AllDst</text>
<text text-anchor="middle" x="1133" y="-144" font-family="FreeSans" font-size="10.00">OutputManager.cc</text>
</a>
</g>
</g>
<!-- Node1&#45;&gt;Node3 -->
<g id="edge2" class="edge"><title>Node1&#45;&gt;Node3</title>
<path fill="none" stroke="midnightblue" d="M965.664,-201.503C999.555,-191.68 1048.43,-177.514 1084.61,-167.025"/>
<polygon fill="midnightblue" stroke="midnightblue" points="964.288,-198.258 955.658,-204.403 966.237,-204.981 964.288,-198.258"/>
</g>
<!-- Node4 -->
<g id="node4" class="node"><title>Node4</title>
<g id="a_node4"><a xlink:href="../../d8/d7a/Fun4AllServer_8cc.html" target="_top" xlink:title="fun4all/fun4all/Fun4AllServer.cc">
<polygon fill="none" stroke="black" points="868,-6.5 868,-25.5 1022,-25.5 1022,-6.5 868,-6.5"/>
<text text-anchor="middle" x="945" y="-13.5" font-family="FreeSans" font-size="10.00">fun4all/fun4all/Fun4AllServer.cc</text>
</a>
</g>
</g>
<!-- Node1&#45;&gt;Node4 -->
<g id="edge3" class="edge"><title>Node1&#45;&gt;Node4</title>
<path fill="none" stroke="midnightblue" d="M945.14,-197.826C968.256,-178.144 1005.91,-141.391 1021,-100 1025.87,-86.6378 1027.69,-80.5495 1021,-68 1010.01,-47.389 986.582,-33.6324 968.624,-25.6543"/>
<polygon fill="midnightblue" stroke="midnightblue" points="942.817,-195.206 937.351,-204.282 947.284,-200.595 942.817,-195.206"/>
</g>
<!-- Node5 -->
<g id="node5" class="node"><title>Node5</title>
<g id="a_node5"><a xlink:href="../../d3/d79/PHIODataNode_8h.html" target="_top" xlink:title="fun4all/phool/PHIODataNode.h">
<polygon fill="none" stroke="black" points="418,-142.5 418,-161.5 568,-161.5 568,-142.5 418,-142.5"/>
<text text-anchor="middle" x="493" y="-149.5" font-family="FreeSans" font-size="10.00">fun4all/phool/PHIODataNode.h</text>
</a>
</g>
</g>
<!-- Node1&#45;&gt;Node5 -->
<g id="edge4" class="edge"><title>Node1&#45;&gt;Node5</title>
<path fill="none" stroke="midnightblue" d="M854.482,-203.09C770.744,-191.487 633.462,-172.464 554.366,-161.503"/>
<polygon fill="midnightblue" stroke="midnightblue" points="854.036,-206.561 864.422,-204.467 854.997,-199.628 854.036,-206.561"/>
</g>
<!-- Node13 -->
<g id="node13" class="node"><title>Node13</title>
<g id="a_node13"><a xlink:href="../../d7/d32/PHNodeIOManager_8cc.html" target="_top" xlink:title="fun4all/phool/PHNodeIOManager.cc">
<polygon fill="none" stroke="black" points="839.5,-74.5 839.5,-93.5 1012.5,-93.5 1012.5,-74.5 839.5,-74.5"/>
<text text-anchor="middle" x="926" y="-81.5" font-family="FreeSans" font-size="10.00">fun4all/phool/PHNodeIOManager.cc</text>
</a>
</g>
</g>
<!-- Node1&#45;&gt;Node13 -->
<g id="edge19" class="edge"><title>Node1&#45;&gt;Node13</title>
<path fill="none" stroke="midnightblue" d="M926,-194.029C926,-165.803 926,-113.892 926,-93.5224"/>
<polygon fill="midnightblue" stroke="midnightblue" points="922.5,-194.202 926,-204.202 929.5,-194.202 922.5,-194.202"/>
</g>
<!-- Node5&#45;&gt;Node2 -->
<g id="edge5" class="edge"><title>Node5&#45;&gt;Node2</title>
<path fill="none" stroke="midnightblue" d="M423.285,-140.545C384.821,-132.9 337.078,-120.238 298,-100 278.394,-89.8462 279.613,-78.1415 260,-68 237.122,-56.1701 176.241,-41.178 128.345,-30.5171"/>
<polygon fill="midnightblue" stroke="midnightblue" points="422.882,-144.031 433.362,-142.476 424.2,-137.156 422.882,-144.031"/>
</g>
<!-- Node6 -->
<g id="node6" class="node"><title>Node6</title>
<g id="a_node6"><a xlink:href="../../df/d03/Fun4AllSyncManager_8cc.html" target="_top" xlink:title="fun4all/fun4all/Fun4AllSync\lManager.cc">
<polygon fill="none" stroke="black" points="117,-69 117,-99 251,-99 251,-69 117,-69"/>
<text text-anchor="start" x="125" y="-87" font-family="FreeSans" font-size="10.00">fun4all/fun4all/Fun4AllSync</text>
<text text-anchor="middle" x="184" y="-76" font-family="FreeSans" font-size="10.00">Manager.cc</text>
</a>
</g>
</g>
<!-- Node5&#45;&gt;Node6 -->
<g id="edge6" class="edge"><title>Node5&#45;&gt;Node6</title>
<path fill="none" stroke="midnightblue" d="M442.824,-140.283C390.244,-129.052 307.411,-111.36 249.661,-99.0247"/>
<polygon fill="midnightblue" stroke="midnightblue" points="442.41,-143.773 452.92,-142.439 443.872,-136.928 442.41,-143.773"/>
</g>
<!-- Node7 -->
<g id="node7" class="node"><title>Node7</title>
<g id="a_node7"><a xlink:href="../../dd/d12/ReadMySql_8C.html" target="_top" xlink:title="fun4all/modules/ReadMySql.C">
<polygon fill="none" stroke="black" points="451,-6.5 451,-25.5 597,-25.5 597,-6.5 451,-6.5"/>
<text text-anchor="middle" x="524" y="-13.5" font-family="FreeSans" font-size="10.00">fun4all/modules/ReadMySql.C</text>
</a>
</g>
</g>
<!-- Node5&#45;&gt;Node7 -->
<g id="edge7" class="edge"><title>Node5&#45;&gt;Node7</title>
<path fill="none" stroke="midnightblue" d="M484.742,-133.103C478.021,-115.931 470.868,-89.5071 479,-68 485.682,-50.3281 501.59,-34.8242 512.581,-25.6814"/>
<polygon fill="midnightblue" stroke="midnightblue" points="481.593,-134.643 488.73,-142.473 488.034,-131.901 481.593,-134.643"/>
</g>
<!-- Node8 -->
<g id="node8" class="node"><title>Node8</title>
<g id="a_node8"><a xlink:href="../../dd/d2f/SimpleReadMySql_8C.html" target="_top" xlink:title="fun4all/modules/SimpleRead\lMySql.C">
<polygon fill="none" stroke="black" points="615,-1 615,-31 755,-31 755,-1 615,-1"/>
<text text-anchor="start" x="623" y="-19" font-family="FreeSans" font-size="10.00">fun4all/modules/SimpleRead</text>
<text text-anchor="middle" x="685" y="-8" font-family="FreeSans" font-size="10.00">MySql.C</text>
</a>
</g>
</g>
<!-- Node5&#45;&gt;Node8 -->
<g id="edge8" class="edge"><title>Node5&#45;&gt;Node8</title>
<path fill="none" stroke="midnightblue" d="M492.174,-132.237C492.4,-113.577 495.732,-85.3025 512,-68 526.424,-52.6582 573.446,-39.3594 614.831,-30.1919"/>
<polygon fill="midnightblue" stroke="midnightblue" points="488.678,-132.49 492.347,-142.43 495.677,-132.372 488.678,-132.49"/>
</g>
<!-- Node9 -->
<g id="node9" class="node"><title>Node9</title>
<g id="a_node9"><a xlink:href="../../dd/dd4/getClass_8h.html" target="_top" xlink:title="fun4all/phool/getClass.h">
<polygon fill="none" stroke="black" points="307,-74.5 307,-93.5 427,-93.5 427,-74.5 307,-74.5"/>
<text text-anchor="middle" x="367" y="-81.5" font-family="FreeSans" font-size="10.00">fun4all/phool/getClass.h</text>
</a>
</g>
</g>
<!-- Node5&#45;&gt;Node9 -->
<g id="edge9" class="edge"><title>Node5&#45;&gt;Node9</title>
<path fill="none" stroke="midnightblue" d="M467.588,-137.689C442.505,-124.55 404.891,-104.848 383.476,-93.6305"/>
<polygon fill="midnightblue" stroke="midnightblue" points="466.045,-140.832 476.528,-142.372 469.293,-134.631 466.045,-140.832"/>
</g>
<!-- Node12 -->
<g id="node12" class="node"><title>Node12</title>
<g id="a_node12"><a xlink:href="../../d7/d95/PHDataNodeIterator_8h.html" target="_top" xlink:title="fun4all/phool/PHDataNode\lIterator.h">
<polygon fill="none" stroke="black" points="521,-69 521,-99 653,-99 653,-69 521,-69"/>
<text text-anchor="start" x="529" y="-87" font-family="FreeSans" font-size="10.00">fun4all/phool/PHDataNode</text>
<text text-anchor="middle" x="587" y="-76" font-family="FreeSans" font-size="10.00">Iterator.h</text>
</a>
</g>
</g>
<!-- Node5&#45;&gt;Node12 -->
<g id="edge16" class="edge"><title>Node5&#45;&gt;Node12</title>
<path fill="none" stroke="midnightblue" d="M513.825,-136.378C529.609,-125.296 551.175,-110.154 566.802,-99.1815"/>
<polygon fill="midnightblue" stroke="midnightblue" points="511.462,-133.761 505.289,-142.372 515.484,-139.49 511.462,-133.761"/>
</g>
<!-- Node5&#45;&gt;Node13 -->
<g id="edge17" class="edge"><title>Node5&#45;&gt;Node13</title>
<path fill="none" stroke="midnightblue" d="M559.6,-140.947C627.397,-130.7 735.528,-114.321 829,-100 842.644,-97.9096 857.364,-95.6404 871.115,-93.5147"/>
<polygon fill="midnightblue" stroke="midnightblue" points="558.85,-137.521 549.485,-142.476 559.896,-144.442 558.85,-137.521"/>
</g>
<!-- Node14 -->
<g id="node14" class="node"><title>Node14</title>
<g id="a_node14"><a xlink:href="../../dc/d01/PHNodeReset_8cc.html" target="_top" xlink:title="fun4all/phool/PHNodeReset.cc">
<polygon fill="none" stroke="black" points="671,-74.5 671,-93.5 821,-93.5 821,-74.5 671,-74.5"/>
<text text-anchor="middle" x="746" y="-81.5" font-family="FreeSans" font-size="10.00">fun4all/phool/PHNodeReset.cc</text>
</a>
</g>
</g>
<!-- Node5&#45;&gt;Node14 -->
<g id="edge18" class="edge"><title>Node5&#45;&gt;Node14</title>
<path fill="none" stroke="midnightblue" d="M535.7,-139.861C585.828,-126.784 667.868,-105.382 713.242,-93.5455"/>
<polygon fill="midnightblue" stroke="midnightblue" points="534.609,-136.528 525.816,-142.439 536.376,-143.302 534.609,-136.528"/>
</g>
<!-- Node9&#45;&gt;Node2 -->
<g id="edge10" class="edge"><title>Node9&#45;&gt;Node2</title>
<path fill="none" stroke="midnightblue" d="M317.782,-72.2793C266.135,-61.0295 184.734,-43.2986 128.099,-30.9622"/>
<polygon fill="midnightblue" stroke="midnightblue" points="317.183,-75.7307 327.699,-74.4393 318.673,-68.8911 317.183,-75.7307"/>
</g>
<!-- Node9&#45;&gt;Node4 -->
<g id="edge13" class="edge"><title>Node9&#45;&gt;Node4</title>
<path fill="none" stroke="midnightblue" d="M437.193,-74.9849C546.905,-62.4572 758.066,-38.3454 870.417,-25.5164"/>
<polygon fill="midnightblue" stroke="midnightblue" points="436.759,-71.5116 427.22,-76.1236 437.553,-78.4664 436.759,-71.5116"/>
</g>
<!-- Node9&#45;&gt;Node7 -->
<g id="edge14" class="edge"><title>Node9&#45;&gt;Node7</title>
<path fill="none" stroke="midnightblue" d="M397.027,-70.3772C428.261,-57.2472 476.317,-37.0452 503.47,-25.6305"/>
<polygon fill="midnightblue" stroke="midnightblue" points="395.387,-67.2698 387.525,-74.3717 398.1,-73.7228 395.387,-67.2698"/>
</g>
<!-- Node9&#45;&gt;Node8 -->
<g id="edge15" class="edge"><title>Node9&#45;&gt;Node8</title>
<path fill="none" stroke="midnightblue" d="M418.299,-72.353C472.393,-61.126 557.87,-43.3854 617.426,-31.0247"/>
<polygon fill="midnightblue" stroke="midnightblue" points="417.327,-68.9801 408.247,-74.4393 418.75,-75.834 417.327,-68.9801"/>
</g>
<!-- Node10 -->
<g id="node10" class="node"><title>Node10</title>
<g id="a_node10"><a xlink:href="../../d6/dbe/Fun4AllEventOutputManager_8cc.html" target="_top" xlink:title="fun4all/fun4all/Fun4AllEvent\lOutputManager.cc">
<polygon fill="none" stroke="black" points="146.5,-1 146.5,-31 283.5,-31 283.5,-1 146.5,-1"/>
<text text-anchor="start" x="154.5" y="-19" font-family="FreeSans" font-size="10.00">fun4all/fun4all/Fun4AllEvent</text>
<text text-anchor="middle" x="215" y="-8" font-family="FreeSans" font-size="10.00">OutputManager.cc</text>
</a>
</g>
</g>
<!-- Node9&#45;&gt;Node10 -->
<g id="edge11" class="edge"><title>Node9&#45;&gt;Node10</title>
<path fill="none" stroke="midnightblue" d="M337.837,-70.3372C311.952,-59.0974 274.184,-42.6985 247.372,-31.0562"/>
<polygon fill="midnightblue" stroke="midnightblue" points="336.562,-73.5992 347.129,-74.3717 339.35,-67.1783 336.562,-73.5992"/>
</g>
<!-- Node11 -->
<g id="node11" class="node"><title>Node11</title>
<g id="a_node11"><a xlink:href="../../da/d7b/Fun4AllPrdfInputManager_8cc.html" target="_top" xlink:title="fun4all/fun4all/Fun4AllPrdf\lInputManager.cc">
<polygon fill="none" stroke="black" points="301.5,-1 301.5,-31 432.5,-31 432.5,-1 301.5,-1"/>
<text text-anchor="start" x="309.5" y="-19" font-family="FreeSans" font-size="10.00">fun4all/fun4all/Fun4AllPrdf</text>
<text text-anchor="middle" x="367" y="-8" font-family="FreeSans" font-size="10.00">InputManager.cc</text>
</a>
</g>
</g>
<!-- Node9&#45;&gt;Node11 -->
<g id="edge12" class="edge"><title>Node9&#45;&gt;Node11</title>
<path fill="none" stroke="midnightblue" d="M367,-64.1737C367,-53.6781 367,-40.8209 367,-31.1815"/>
<polygon fill="midnightblue" stroke="midnightblue" points="363.5,-64.3716 367,-74.3717 370.5,-64.3717 363.5,-64.3716"/>
</g>
</g>
</svg>
