<?xml version="1.0" encoding="UTF-8" standalone="no"?>
<!DOCTYPE svg PUBLIC "-//W3C//DTD SVG 1.1//EN"
 "http://www.w3.org/Graphics/SVG/1.1/DTD/svg11.dtd">
<!-- Generated by graphviz version 2.36.0 (20140111.2315)
 -->
<!-- Title: SimpleReadMySql::getInt Pages: 1 -->
<svg width="306pt" height="77pt"
 viewBox="0.00 0.00 306.00 77.00" xmlns="http://www.w3.org/2000/svg" xmlns:xlink="http://www.w3.org/1999/xlink">
<g id="graph0" class="graph" transform="scale(1 1) rotate(0) translate(4 73)">
<title>SimpleReadMySql::getInt</title>
<!-- Node1 -->
<g id="node1" class="node"><title>Node1</title>
<polygon fill="#bfbfbf" stroke="black" points="0.5,-27.5 0.5,-46.5 125.5,-46.5 125.5,-27.5 0.5,-27.5"/>
<text text-anchor="middle" x="63" y="-34.5" font-family="FreeSans" font-size="10.00">SimpleReadMySql::getInt</text>
</g>
<!-- Node2 -->
<g id="node2" class="node"><title>Node2</title>
<g id="a_node2"><a xlink:href="../../d0/d68/classSimpleReadMySql.html#ace02cda93f92690611b99f9bb06a677c" target="_top" xlink:title="SimpleReadMySql::InitRun">
<polygon fill="none" stroke="black" points="164.5,-49.5 164.5,-68.5 295.5,-68.5 295.5,-49.5 164.5,-49.5"/>
<text text-anchor="middle" x="230" y="-56.5" font-family="FreeSans" font-size="10.00">SimpleReadMySql::InitRun</text>
</a>
</g>
</g>
<!-- Node1&#45;&gt;Node2 -->
<g id="edge1" class="edge"><title>Node1&#45;&gt;Node2</title>
<path fill="none" stroke="midnightblue" d="M136.012,-46.6016C145.411,-47.8548 154.995,-49.1326 164.264,-50.3685"/>
<polygon fill="midnightblue" stroke="midnightblue" points="136.284,-43.107 125.909,-45.2546 135.359,-50.0456 136.284,-43.107"/>
</g>
<!-- Node3 -->
<g id="node3" class="node"><title>Node3</title>
<g id="a_node3"><a xlink:href="../../d0/d68/classSimpleReadMySql.html#a80b8383438a4d0c279abec571ba39f84" target="_top" xlink:title="SimpleReadMySql::process\l_event">
<polygon fill="none" stroke="black" points="162.5,-0 162.5,-30 297.5,-30 297.5,-0 162.5,-0"/>
<text text-anchor="start" x="170.5" y="-18" font-family="FreeSans" font-size="10.00">SimpleReadMySql::process</text>
<text text-anchor="middle" x="230" y="-7" font-family="FreeSans" font-size="10.00">_event</text>
</a>
</g>
</g>
<!-- Node1&#45;&gt;Node3 -->
<g id="edge2" class="edge"><title>Node1&#45;&gt;Node3</title>
<path fill="none" stroke="midnightblue" d="M136.06,-27.392C144.79,-26.228 153.678,-25.043 162.325,-23.89"/>
<polygon fill="midnightblue" stroke="midnightblue" points="135.359,-23.9544 125.909,-28.7454 136.284,-30.893 135.359,-23.9544"/>
</g>
</g>
</svg>
