<?xml version="1.0" encoding="UTF-8" standalone="no"?>
<!DOCTYPE svg PUBLIC "-//W3C//DTD SVG 1.1//EN"
 "http://www.w3.org/Graphics/SVG/1.1/DTD/svg11.dtd">
<!-- Generated by graphviz version 2.36.0 (20140111.2315)
 -->
<!-- Title: SimpleReadMySql::InitRun Pages: 1 -->
<svg width="660pt" height="211pt"
 viewBox="0.00 0.00 660.00 211.00" xmlns="http://www.w3.org/2000/svg" xmlns:xlink="http://www.w3.org/1999/xlink">
<g id="graph0" class="graph" transform="scale(1 1) rotate(0) translate(4 207)">
<title>SimpleReadMySql::InitRun</title>
<!-- Node1 -->
<g id="node1" class="node"><title>Node1</title>
<polygon fill="#bfbfbf" stroke="black" points="0.5,-82.5 0.5,-101.5 131.5,-101.5 131.5,-82.5 0.5,-82.5"/>
<text text-anchor="middle" x="66" y="-89.5" font-family="FreeSans" font-size="10.00">SimpleReadMySql::InitRun</text>
</g>
<!-- Node2 -->
<g id="node2" class="node"><title>Node2</title>
<g id="a_node2"><a xlink:href="../../d0/d68/classSimpleReadMySql.html#a3e12b15174d064199a227eeb4ebc1266" target="_top" xlink:title="SimpleReadMySql::getInt">
<polygon fill="none" stroke="black" points="182.5,-164.5 182.5,-183.5 307.5,-183.5 307.5,-164.5 182.5,-164.5"/>
<text text-anchor="middle" x="245" y="-171.5" font-family="FreeSans" font-size="10.00">SimpleReadMySql::getInt</text>
</a>
</g>
</g>
<!-- Node1&#45;&gt;Node2 -->
<g id="edge1" class="edge"><title>Node1&#45;&gt;Node2</title>
<path fill="none" stroke="midnightblue" d="M79.3654,-101.518C97.7352,-115.225 133.757,-140.468 168,-155 173.833,-157.476 180.061,-159.679 186.346,-161.628"/>
<polygon fill="midnightblue" stroke="midnightblue" points="185.643,-165.068 196.221,-164.484 187.587,-158.344 185.643,-165.068"/>
</g>
<!-- Node3 -->
<g id="node3" class="node"><title>Node3</title>
<g id="a_node3"><a xlink:href="../../d0/d68/classSimpleReadMySql.html#a650a5f65ee1634450425061b781ec942" target="_top" xlink:title="SimpleReadMySql::MakeNodes">
<polygon fill="none" stroke="black" points="168.5,-126.5 168.5,-145.5 321.5,-145.5 321.5,-126.5 168.5,-126.5"/>
<text text-anchor="middle" x="245" y="-133.5" font-family="FreeSans" font-size="10.00">SimpleReadMySql::MakeNodes</text>
</a>
</g>
</g>
<!-- Node1&#45;&gt;Node3 -->
<g id="edge2" class="edge"><title>Node1&#45;&gt;Node3</title>
<path fill="none" stroke="midnightblue" d="M105.406,-101.547C131.964,-108.149 167.495,-116.982 195.932,-124.051"/>
<polygon fill="midnightblue" stroke="midnightblue" points="195.12,-127.455 205.669,-126.471 196.808,-120.662 195.12,-127.455"/>
</g>
<!-- Node10 -->
<g id="node10" class="node"><title>Node10</title>
<g id="a_node10"><a xlink:href="../../d0/d68/classSimpleReadMySql.html#a866d18a61731bd885c745e5aaff2b4e6" target="_top" xlink:title="SimpleReadMySql::makeQuery\lInput">
<polygon fill="none" stroke="black" points="170,-77 170,-107 320,-107 320,-77 170,-77"/>
<text text-anchor="start" x="178" y="-95" font-family="FreeSans" font-size="10.00">SimpleReadMySql::makeQuery</text>
<text text-anchor="middle" x="245" y="-84" font-family="FreeSans" font-size="10.00">Input</text>
</a>
</g>
</g>
<!-- Node1&#45;&gt;Node10 -->
<g id="edge11" class="edge"><title>Node1&#45;&gt;Node10</title>
<path fill="none" stroke="midnightblue" d="M131.652,-92C140.79,-92 150.295,-92 159.735,-92"/>
<polygon fill="midnightblue" stroke="midnightblue" points="159.933,-95.5001 169.933,-92 159.933,-88.5001 159.933,-95.5001"/>
</g>
<!-- Node11 -->
<g id="node11" class="node"><title>Node11</title>
<g id="a_node11"><a xlink:href="../../d0/d68/classSimpleReadMySql.html#ad8c384caab5203a7bfedfefd1a356b0b" target="_top" xlink:title="SimpleReadMySql::nextEntry">
<polygon fill="none" stroke="black" points="175,-38.5 175,-57.5 315,-57.5 315,-38.5 175,-38.5"/>
<text text-anchor="middle" x="245" y="-45.5" font-family="FreeSans" font-size="10.00">SimpleReadMySql::nextEntry</text>
</a>
</g>
</g>
<!-- Node1&#45;&gt;Node11 -->
<g id="edge12" class="edge"><title>Node1&#45;&gt;Node11</title>
<path fill="none" stroke="midnightblue" d="M105.406,-82.4527C131.964,-75.8508 167.495,-67.0181 195.932,-59.949"/>
<polygon fill="midnightblue" stroke="midnightblue" points="196.808,-63.3379 205.669,-57.5287 195.12,-56.5446 196.808,-63.3379"/>
</g>
<!-- Node12 -->
<g id="node12" class="node"><title>Node12</title>
<g id="a_node12"><a xlink:href="../../d5/dec/classFun4AllBase.html#a8a5c77a92bdac6bc043476e132379a40" target="_top" xlink:title="Gets the verbosity of this module. ">
<polygon fill="none" stroke="black" points="186.5,-0.5 186.5,-19.5 303.5,-19.5 303.5,-0.5 186.5,-0.5"/>
<text text-anchor="middle" x="245" y="-7.5" font-family="FreeSans" font-size="10.00">Fun4AllBase::Verbosity</text>
</a>
</g>
</g>
<!-- Node1&#45;&gt;Node12 -->
<g id="edge13" class="edge"><title>Node1&#45;&gt;Node12</title>
<path fill="none" stroke="midnightblue" d="M79.3654,-82.4817C97.7352,-68.7747 133.757,-43.5321 168,-29 173.833,-26.5244 180.061,-24.3206 186.346,-22.3716"/>
<polygon fill="midnightblue" stroke="midnightblue" points="187.587,-25.6562 196.221,-19.5162 185.643,-18.9316 187.587,-25.6562"/>
</g>
<!-- Node4 -->
<g id="node4" class="node"><title>Node4</title>
<g id="a_node4"><a xlink:href="../../d5/d07/classPHNodeIterator.html#aea98bf8619af59b1212a94fb32106baa" target="_top" xlink:title="PHNodeIterator::findFirst">
<polygon fill="none" stroke="black" points="368,-145.5 368,-164.5 492,-164.5 492,-145.5 368,-145.5"/>
<text text-anchor="middle" x="430" y="-152.5" font-family="FreeSans" font-size="10.00">PHNodeIterator::findFirst</text>
</a>
</g>
</g>
<!-- Node3&#45;&gt;Node4 -->
<g id="edge3" class="edge"><title>Node3&#45;&gt;Node4</title>
<path fill="none" stroke="midnightblue" d="M321.754,-143.865C333.618,-145.097 345.846,-146.367 357.608,-147.588"/>
<polygon fill="midnightblue" stroke="midnightblue" points="357.495,-151.095 367.803,-148.646 358.218,-144.132 357.495,-151.095"/>
</g>
<!-- Node7 -->
<g id="node7" class="node"><title>Node7</title>
<g id="a_node7"><a xlink:href="../../d5/dca/classPHCompositeNode.html#ac7dbf017614c324e218a001d729607bf" target="_top" xlink:title="PHCompositeNode::addNode">
<polygon fill="none" stroke="black" points="358,-107.5 358,-126.5 502,-126.5 502,-107.5 358,-107.5"/>
<text text-anchor="middle" x="430" y="-114.5" font-family="FreeSans" font-size="10.00">PHCompositeNode::addNode</text>
</a>
</g>
</g>
<!-- Node3&#45;&gt;Node7 -->
<g id="edge7" class="edge"><title>Node3&#45;&gt;Node7</title>
<path fill="none" stroke="midnightblue" d="M321.754,-128.135C330.306,-127.247 339.046,-126.339 347.665,-125.445"/>
<polygon fill="midnightblue" stroke="midnightblue" points="348.124,-128.916 357.709,-124.402 347.401,-121.953 348.124,-128.916"/>
</g>
<!-- Node4&#45;&gt;Node4 -->
<g id="edge4" class="edge"><title>Node4&#45;&gt;Node4</title>
<path fill="none" stroke="midnightblue" d="M404.723,-164.757C392.426,-173.565 400.852,-183 430,-183 449.584,-183 459.814,-178.741 460.689,-173.275"/>
<polygon fill="midnightblue" stroke="midnightblue" points="463.594,-171.321 455.277,-164.757 457.686,-175.075 463.594,-171.321"/>
</g>
<!-- Node5 -->
<g id="node5" class="node"><title>Node5</title>
<g id="a_node5"><a xlink:href="../../dc/d82/classPHNode.html#aca3576f926a4401eddc3d88bf0ce0de3" target="_top" xlink:title="PHNode::getName">
<polygon fill="none" stroke="black" points="546,-145.5 546,-164.5 644,-164.5 644,-145.5 546,-145.5"/>
<text text-anchor="middle" x="595" y="-152.5" font-family="FreeSans" font-size="10.00">PHNode::getName</text>
</a>
</g>
</g>
<!-- Node4&#45;&gt;Node5 -->
<g id="edge5" class="edge"><title>Node4&#45;&gt;Node5</title>
<path fill="none" stroke="midnightblue" d="M492.159,-155C506.479,-155 521.695,-155 535.878,-155"/>
<polygon fill="midnightblue" stroke="midnightblue" points="535.996,-158.5 545.996,-155 535.996,-151.5 535.996,-158.5"/>
</g>
<!-- Node6 -->
<g id="node6" class="node"><title>Node6</title>
<g id="a_node6"><a xlink:href="../../dc/d82/classPHNode.html#a4ab1f90aed955a652813bfe377087bda" target="_top" xlink:title="PHNode::getType">
<polygon fill="none" stroke="black" points="548.5,-183.5 548.5,-202.5 641.5,-202.5 641.5,-183.5 548.5,-183.5"/>
<text text-anchor="middle" x="595" y="-190.5" font-family="FreeSans" font-size="10.00">PHNode::getType</text>
</a>
</g>
</g>
<!-- Node4&#45;&gt;Node6 -->
<g id="edge6" class="edge"><title>Node4&#45;&gt;Node6</title>
<path fill="none" stroke="midnightblue" d="M472.132,-164.589C493.738,-169.626 520.409,-175.844 543.286,-181.177"/>
<polygon fill="midnightblue" stroke="midnightblue" points="542.63,-184.618 553.164,-183.48 544.22,-177.801 542.63,-184.618"/>
</g>
<!-- Node7&#45;&gt;Node5 -->
<g id="edge9" class="edge"><title>Node7&#45;&gt;Node5</title>
<path fill="none" stroke="midnightblue" d="M472.132,-126.589C493.738,-131.626 520.409,-137.844 543.286,-143.177"/>
<polygon fill="midnightblue" stroke="midnightblue" points="542.63,-146.618 553.164,-145.48 544.22,-139.801 542.63,-146.618"/>
</g>
<!-- Node8 -->
<g id="node8" class="node"><title>Node8</title>
<g id="a_node8"><a xlink:href="../../d6/d86/classPHPointerList.html#af5fc4e6958b5b90c57bfb497566f503c" target="_top" xlink:title="PHPointerList::append">
<polygon fill="none" stroke="black" points="538,-107.5 538,-126.5 652,-126.5 652,-107.5 538,-107.5"/>
<text text-anchor="middle" x="595" y="-114.5" font-family="FreeSans" font-size="10.00">PHPointerList::append</text>
</a>
</g>
</g>
<!-- Node7&#45;&gt;Node8 -->
<g id="edge8" class="edge"><title>Node7&#45;&gt;Node8</title>
<path fill="none" stroke="midnightblue" d="M502.02,-117C510.559,-117 519.254,-117 527.722,-117"/>
<polygon fill="midnightblue" stroke="midnightblue" points="527.912,-120.5 537.912,-117 527.912,-113.5 527.912,-120.5"/>
</g>
<!-- Node9 -->
<g id="node9" class="node"><title>Node9</title>
<g id="a_node9"><a xlink:href="../../dc/d82/classPHNode.html#adda2bd6cef2d5067bbe3016a990b7198" target="_top" xlink:title="PHNode::setParent">
<polygon fill="none" stroke="black" points="544.5,-69.5 544.5,-88.5 645.5,-88.5 645.5,-69.5 544.5,-69.5"/>
<text text-anchor="middle" x="595" y="-76.5" font-family="FreeSans" font-size="10.00">PHNode::setParent</text>
</a>
</g>
</g>
<!-- Node7&#45;&gt;Node9 -->
<g id="edge10" class="edge"><title>Node7&#45;&gt;Node9</title>
<path fill="none" stroke="midnightblue" d="M472.132,-107.411C493.738,-102.374 520.409,-96.1562 543.286,-90.8229"/>
<polygon fill="midnightblue" stroke="midnightblue" points="544.22,-94.1991 553.164,-88.5201 542.63,-87.3819 544.22,-94.1991"/>
</g>
</g>
</svg>
