<?xml version="1.0" encoding="UTF-8" standalone="no"?>
<!DOCTYPE svg PUBLIC "-//W3C//DTD SVG 1.1//EN"
 "http://www.w3.org/Graphics/SVG/1.1/DTD/svg11.dtd">
<!-- Generated by graphviz version 2.36.0 (20140111.2315)
 -->
<!-- Title: SimpleReadMySql::nextEntry Pages: 1 -->
<svg width="320pt" height="77pt"
 viewBox="0.00 0.00 320.00 77.00" xmlns="http://www.w3.org/2000/svg" xmlns:xlink="http://www.w3.org/1999/xlink">
<g id="graph0" class="graph" transform="scale(1 1) rotate(0) translate(4 73)">
<title>SimpleReadMySql::nextEntry</title>
<!-- Node1 -->
<g id="node1" class="node"><title>Node1</title>
<polygon fill="#bfbfbf" stroke="black" points="0,-27.5 0,-46.5 140,-46.5 140,-27.5 0,-27.5"/>
<text text-anchor="middle" x="70" y="-34.5" font-family="FreeSans" font-size="10.00">SimpleReadMySql::nextEntry</text>
</g>
<!-- Node2 -->
<g id="node2" class="node"><title>Node2</title>
<g id="a_node2"><a xlink:href="../../d0/d68/classSimpleReadMySql.html#ace02cda93f92690611b99f9bb06a677c" target="_top" xlink:title="SimpleReadMySql::InitRun">
<polygon fill="none" stroke="black" points="178.5,-49.5 178.5,-68.5 309.5,-68.5 309.5,-49.5 178.5,-49.5"/>
<text text-anchor="middle" x="244" y="-56.5" font-family="FreeSans" font-size="10.00">SimpleReadMySql::InitRun</text>
</a>
</g>
</g>
<!-- Node1&#45;&gt;Node2 -->
<g id="edge1" class="edge"><title>Node1&#45;&gt;Node2</title>
<path fill="none" stroke="midnightblue" d="M150.501,-47.1687C159.807,-48.359 169.215,-49.5624 178.286,-50.7227"/>
<polygon fill="midnightblue" stroke="midnightblue" points="150.826,-43.6819 140.463,-45.8848 149.938,-50.6254 150.826,-43.6819"/>
</g>
<!-- Node3 -->
<g id="node3" class="node"><title>Node3</title>
<g id="a_node3"><a xlink:href="../../d0/d68/classSimpleReadMySql.html#a80b8383438a4d0c279abec571ba39f84" target="_top" xlink:title="SimpleReadMySql::process\l_event">
<polygon fill="none" stroke="black" points="176.5,-0 176.5,-30 311.5,-30 311.5,-0 176.5,-0"/>
<text text-anchor="start" x="184.5" y="-18" font-family="FreeSans" font-size="10.00">SimpleReadMySql::process</text>
<text text-anchor="middle" x="244" y="-7" font-family="FreeSans" font-size="10.00">_event</text>
</a>
</g>
</g>
<!-- Node1&#45;&gt;Node3 -->
<g id="edge2" class="edge"><title>Node1&#45;&gt;Node3</title>
<path fill="none" stroke="midnightblue" d="M150.536,-26.8268C159.169,-25.7226 167.889,-24.6073 176.346,-23.5256"/>
<polygon fill="midnightblue" stroke="midnightblue" points="149.938,-23.3746 140.463,-28.1152 150.826,-30.3181 149.938,-23.3746"/>
</g>
</g>
</svg>
