<?xml version="1.0" encoding="UTF-8" standalone="no"?>
<!DOCTYPE svg PUBLIC "-//W3C//DTD SVG 1.1//EN"
 "http://www.w3.org/Graphics/SVG/1.1/DTD/svg11.dtd">
<!-- Generated by graphviz version 2.36.0 (20140111.2315)
 -->
<!-- Title: SimpleReadMySql::MakeNodes Pages: 1 -->
<svg width="492pt" height="142pt"
 viewBox="0.00 0.00 492.00 142.00" xmlns="http://www.w3.org/2000/svg" xmlns:xlink="http://www.w3.org/1999/xlink">
<g id="graph0" class="graph" transform="scale(1 1) rotate(0) translate(4 138)">
<title>SimpleReadMySql::MakeNodes</title>
<!-- Node1 -->
<g id="node1" class="node"><title>Node1</title>
<polygon fill="#bfbfbf" stroke="black" points="0.5,-48.5 0.5,-67.5 153.5,-67.5 153.5,-48.5 0.5,-48.5"/>
<text text-anchor="middle" x="77" y="-55.5" font-family="FreeSans" font-size="10.00">SimpleReadMySql::MakeNodes</text>
</g>
<!-- Node2 -->
<g id="node2" class="node"><title>Node2</title>
<g id="a_node2"><a xlink:href="../../d5/dca/classPHCompositeNode.html#ac7dbf017614c324e218a001d729607bf" target="_top" xlink:title="PHCompositeNode::addNode">
<polygon fill="none" stroke="black" points="190,-76.5 190,-95.5 334,-95.5 334,-76.5 190,-76.5"/>
<text text-anchor="middle" x="262" y="-83.5" font-family="FreeSans" font-size="10.00">PHCompositeNode::addNode</text>
</a>
</g>
</g>
<!-- Node1&#45;&gt;Node2 -->
<g id="edge1" class="edge"><title>Node1&#45;&gt;Node2</title>
<path fill="none" stroke="midnightblue" d="M140.211,-67.5186C155.681,-69.8855 172.399,-72.4435 188.322,-74.8799"/>
<polygon fill="midnightblue" stroke="midnightblue" points="188.236,-78.4074 198.65,-76.4602 189.295,-71.4879 188.236,-78.4074"/>
</g>
<!-- Node6 -->
<g id="node6" class="node"><title>Node6</title>
<g id="a_node6"><a xlink:href="../../d5/d07/classPHNodeIterator.html#aea98bf8619af59b1212a94fb32106baa" target="_top" xlink:title="PHNodeIterator::findFirst">
<polygon fill="none" stroke="black" points="200,-20.5 200,-39.5 324,-39.5 324,-20.5 200,-20.5"/>
<text text-anchor="middle" x="262" y="-27.5" font-family="FreeSans" font-size="10.00">PHNodeIterator::findFirst</text>
</a>
</g>
</g>
<!-- Node1&#45;&gt;Node6 -->
<g id="edge5" class="edge"><title>Node1&#45;&gt;Node6</title>
<path fill="none" stroke="midnightblue" d="M140.211,-48.4814C156.171,-46.0394 173.46,-43.394 189.835,-40.8887"/>
<polygon fill="midnightblue" stroke="midnightblue" points="190.536,-44.3222 199.892,-39.3499 189.477,-37.4027 190.536,-44.3222"/>
</g>
<!-- Node3 -->
<g id="node3" class="node"><title>Node3</title>
<g id="a_node3"><a xlink:href="../../d6/d86/classPHPointerList.html#af5fc4e6958b5b90c57bfb497566f503c" target="_top" xlink:title="PHPointerList::append">
<polygon fill="none" stroke="black" points="370,-114.5 370,-133.5 484,-133.5 484,-114.5 370,-114.5"/>
<text text-anchor="middle" x="427" y="-121.5" font-family="FreeSans" font-size="10.00">PHPointerList::append</text>
</a>
</g>
</g>
<!-- Node2&#45;&gt;Node3 -->
<g id="edge2" class="edge"><title>Node2&#45;&gt;Node3</title>
<path fill="none" stroke="midnightblue" d="M304.132,-95.589C325.738,-100.626 352.409,-106.844 375.286,-112.177"/>
<polygon fill="midnightblue" stroke="midnightblue" points="374.63,-115.618 385.164,-114.48 376.22,-108.801 374.63,-115.618"/>
</g>
<!-- Node4 -->
<g id="node4" class="node"><title>Node4</title>
<g id="a_node4"><a xlink:href="../../dc/d82/classPHNode.html#aca3576f926a4401eddc3d88bf0ce0de3" target="_top" xlink:title="PHNode::getName">
<polygon fill="none" stroke="black" points="378,-38.5 378,-57.5 476,-57.5 476,-38.5 378,-38.5"/>
<text text-anchor="middle" x="427" y="-45.5" font-family="FreeSans" font-size="10.00">PHNode::getName</text>
</a>
</g>
</g>
<!-- Node2&#45;&gt;Node4 -->
<g id="edge3" class="edge"><title>Node2&#45;&gt;Node4</title>
<path fill="none" stroke="midnightblue" d="M304.132,-76.411C325.738,-71.3739 352.409,-65.1562 375.286,-59.8229"/>
<polygon fill="midnightblue" stroke="midnightblue" points="376.22,-63.1991 385.164,-57.5201 374.63,-56.3819 376.22,-63.1991"/>
</g>
<!-- Node5 -->
<g id="node5" class="node"><title>Node5</title>
<g id="a_node5"><a xlink:href="../../dc/d82/classPHNode.html#adda2bd6cef2d5067bbe3016a990b7198" target="_top" xlink:title="PHNode::setParent">
<polygon fill="none" stroke="black" points="376.5,-76.5 376.5,-95.5 477.5,-95.5 477.5,-76.5 376.5,-76.5"/>
<text text-anchor="middle" x="427" y="-83.5" font-family="FreeSans" font-size="10.00">PHNode::setParent</text>
</a>
</g>
</g>
<!-- Node2&#45;&gt;Node5 -->
<g id="edge4" class="edge"><title>Node2&#45;&gt;Node5</title>
<path fill="none" stroke="midnightblue" d="M334.02,-86C344.701,-86 355.626,-86 366.045,-86"/>
<polygon fill="midnightblue" stroke="midnightblue" points="366.268,-89.5001 376.268,-86 366.268,-82.5001 366.268,-89.5001"/>
</g>
<!-- Node6&#45;&gt;Node4 -->
<g id="edge7" class="edge"><title>Node6&#45;&gt;Node4</title>
<path fill="none" stroke="midnightblue" d="M324.159,-36.7537C338.479,-38.3351 353.695,-40.0154 367.878,-41.5816"/>
<polygon fill="midnightblue" stroke="midnightblue" points="367.672,-45.0801 377.996,-42.6989 368.441,-38.1224 367.672,-45.0801"/>
</g>
<!-- Node6&#45;&gt;Node6 -->
<g id="edge6" class="edge"><title>Node6&#45;&gt;Node6</title>
<path fill="none" stroke="midnightblue" d="M236.723,-39.7571C224.426,-48.5653 232.852,-58 262,-58 281.584,-58 291.814,-53.741 292.689,-48.2746"/>
<polygon fill="midnightblue" stroke="midnightblue" points="295.594,-46.3207 287.277,-39.7571 289.686,-50.0745 295.594,-46.3207"/>
</g>
<!-- Node7 -->
<g id="node7" class="node"><title>Node7</title>
<g id="a_node7"><a xlink:href="../../dc/d82/classPHNode.html#a4ab1f90aed955a652813bfe377087bda" target="_top" xlink:title="PHNode::getType">
<polygon fill="none" stroke="black" points="380.5,-0.5 380.5,-19.5 473.5,-19.5 473.5,-0.5 380.5,-0.5"/>
<text text-anchor="middle" x="427" y="-7.5" font-family="FreeSans" font-size="10.00">PHNode::getType</text>
</a>
</g>
</g>
<!-- Node6&#45;&gt;Node7 -->
<g id="edge8" class="edge"><title>Node6&#45;&gt;Node7</title>
<path fill="none" stroke="midnightblue" d="M324.159,-22.4958C339.279,-20.6406 355.397,-18.663 370.244,-16.8412"/>
<polygon fill="midnightblue" stroke="midnightblue" points="370.793,-20.3002 380.292,-15.6083 369.94,-13.3523 370.793,-20.3002"/>
</g>
</g>
</svg>
