<?xml version="1.0" encoding="UTF-8" standalone="no"?>
<!DOCTYPE svg PUBLIC "-//W3C//DTD SVG 1.1//EN"
 "http://www.w3.org/Graphics/SVG/1.1/DTD/svg11.dtd">
<!-- Generated by graphviz version 2.36.0 (20140111.2315)
 -->
<!-- Title: SimpleReadMySql::process_event Pages: 1 -->
<svg width="330pt" height="458pt"
 viewBox="0.00 0.00 330.00 458.00" xmlns="http://www.w3.org/2000/svg" xmlns:xlink="http://www.w3.org/1999/xlink">
<g id="graph0" class="graph" transform="scale(1 1) rotate(0) translate(4 454)">
<title>SimpleReadMySql::process_event</title>
<!-- Node1 -->
<g id="node1" class="node"><title>Node1</title>
<polygon fill="#bfbfbf" stroke="black" points="0.5,-207 0.5,-237 135.5,-237 135.5,-207 0.5,-207"/>
<text text-anchor="start" x="8.5" y="-225" font-family="FreeSans" font-size="10.00">SimpleReadMySql::process</text>
<text text-anchor="middle" x="68" y="-214" font-family="FreeSans" font-size="10.00">_event</text>
</g>
<!-- Node2 -->
<g id="node2" class="node"><title>Node2</title>
<g id="a_node2"><a xlink:href="../../d0/d68/classSimpleReadMySql.html#a44db8f81a3a5a64362283ef74cb2b227" target="_top" xlink:title="SimpleReadMySql::getFloat">
<polygon fill="none" stroke="black" points="179,-430.5 179,-449.5 315,-449.5 315,-430.5 179,-430.5"/>
<text text-anchor="middle" x="247" y="-437.5" font-family="FreeSans" font-size="10.00">SimpleReadMySql::getFloat</text>
</a>
</g>
</g>
<!-- Node1&#45;&gt;Node2 -->
<g id="edge1" class="edge"><title>Node1&#45;&gt;Node2</title>
<path fill="none" stroke="midnightblue" d="M72.337,-237.179C81.3687,-274.556 109.907,-371.578 172,-421 174.286,-422.82 176.727,-424.467 179.279,-425.958"/>
<polygon fill="midnightblue" stroke="midnightblue" points="177.807,-429.135 188.32,-430.449 180.921,-422.866 177.807,-429.135"/>
</g>
<!-- Node3 -->
<g id="node3" class="node"><title>Node3</title>
<g id="a_node3"><a xlink:href="../../d0/d68/classSimpleReadMySql.html#a3e12b15174d064199a227eeb4ebc1266" target="_top" xlink:title="SimpleReadMySql::getInt">
<polygon fill="none" stroke="black" points="184.5,-392.5 184.5,-411.5 309.5,-411.5 309.5,-392.5 184.5,-392.5"/>
<text text-anchor="middle" x="247" y="-399.5" font-family="FreeSans" font-size="10.00">SimpleReadMySql::getInt</text>
</a>
</g>
</g>
<!-- Node1&#45;&gt;Node3 -->
<g id="edge2" class="edge"><title>Node1&#45;&gt;Node3</title>
<path fill="none" stroke="midnightblue" d="M74.2695,-237.116C86.2681,-269.234 118.777,-344.479 172,-383 174.686,-384.944 177.554,-386.69 180.541,-388.257"/>
<polygon fill="midnightblue" stroke="midnightblue" points="179.248,-391.514 189.802,-392.445 182.132,-385.136 179.248,-391.514"/>
</g>
<!-- Node4 -->
<g id="node4" class="node"><title>Node4</title>
<g id="a_node4"><a xlink:href="../../d0/d68/classSimpleReadMySql.html#a7d5aeec56556a7be866fc2e246f5117b" target="_top" xlink:title="SimpleReadMySql::GetNodes">
<polygon fill="none" stroke="black" points="174.5,-354.5 174.5,-373.5 319.5,-373.5 319.5,-354.5 174.5,-354.5"/>
<text text-anchor="middle" x="247" y="-361.5" font-family="FreeSans" font-size="10.00">SimpleReadMySql::GetNodes</text>
</a>
</g>
</g>
<!-- Node1&#45;&gt;Node4 -->
<g id="edge3" class="edge"><title>Node1&#45;&gt;Node4</title>
<path fill="none" stroke="midnightblue" d="M77.3219,-237.096C92.5499,-263.263 127.469,-316.926 172,-345 175.375,-347.128 178.978,-349.018 182.71,-350.696"/>
<polygon fill="midnightblue" stroke="midnightblue" points="181.606,-354.024 192.192,-354.449 184.182,-347.515 181.606,-354.024"/>
</g>
<!-- Node5 -->
<g id="node5" class="node"><title>Node5</title>
<g id="a_node5"><a xlink:href="../../d0/da1/classSHit.html#a673eb2a30c137f009f266d685dca9d57" target="_top" xlink:title="SHit::identify">
<polygon fill="none" stroke="black" points="211.5,-316.5 211.5,-335.5 282.5,-335.5 282.5,-316.5 211.5,-316.5"/>
<text text-anchor="middle" x="247" y="-323.5" font-family="FreeSans" font-size="10.00">SHit::identify</text>
</a>
</g>
</g>
<!-- Node1&#45;&gt;Node5 -->
<g id="edge4" class="edge"><title>Node1&#45;&gt;Node5</title>
<path fill="none" stroke="midnightblue" d="M83.1872,-237.276C101.781,-256.389 136.251,-288.812 172,-307 181.132,-311.646 191.492,-315.219 201.505,-317.942"/>
<polygon fill="midnightblue" stroke="midnightblue" points="200.797,-321.372 211.346,-320.391 202.487,-314.579 200.797,-321.372"/>
</g>
<!-- Node6 -->
<g id="node6" class="node"><title>Node6</title>
<g id="a_node6"><a xlink:href="../../d9/d05/classSHitMap.html#aec623d275586feb46be85b25a3ac82ca" target="_top" xlink:title="SHitMap::insert">
<polygon fill="none" stroke="black" points="205.5,-278.5 205.5,-297.5 288.5,-297.5 288.5,-278.5 205.5,-278.5"/>
<text text-anchor="middle" x="247" y="-285.5" font-family="FreeSans" font-size="10.00">SHitMap::insert</text>
</a>
</g>
</g>
<!-- Node1&#45;&gt;Node6 -->
<g id="edge5" class="edge"><title>Node1&#45;&gt;Node6</title>
<path fill="none" stroke="midnightblue" d="M99.5862,-237.173C119.811,-246.826 147.092,-259.133 172,-268 179.755,-270.761 188.082,-273.355 196.252,-275.701"/>
<polygon fill="midnightblue" stroke="midnightblue" points="195.519,-279.13 206.091,-278.436 197.394,-272.386 195.519,-279.13"/>
</g>
<!-- Node7 -->
<g id="node7" class="node"><title>Node7</title>
<g id="a_node7"><a xlink:href="../../d0/d68/classSimpleReadMySql.html#a866d18a61731bd885c745e5aaff2b4e6" target="_top" xlink:title="SimpleReadMySql::makeQuery\lInput">
<polygon fill="none" stroke="black" points="172,-229 172,-259 322,-259 322,-229 172,-229"/>
<text text-anchor="start" x="180" y="-247" font-family="FreeSans" font-size="10.00">SimpleReadMySql::makeQuery</text>
<text text-anchor="middle" x="247" y="-236" font-family="FreeSans" font-size="10.00">Input</text>
</a>
</g>
</g>
<!-- Node1&#45;&gt;Node7 -->
<g id="edge6" class="edge"><title>Node1&#45;&gt;Node7</title>
<path fill="none" stroke="midnightblue" d="M135.664,-230.286C144.279,-231.357 153.189,-232.464 162.038,-233.564"/>
<polygon fill="midnightblue" stroke="midnightblue" points="161.629,-237.04 171.984,-234.8 162.492,-230.093 161.629,-237.04"/>
</g>
<!-- Node8 -->
<g id="node8" class="node"><title>Node8</title>
<g id="a_node8"><a xlink:href="../../d0/d68/classSimpleReadMySql.html#ad8c384caab5203a7bfedfefd1a356b0b" target="_top" xlink:title="SimpleReadMySql::nextEntry">
<polygon fill="none" stroke="black" points="177,-190.5 177,-209.5 317,-209.5 317,-190.5 177,-190.5"/>
<text text-anchor="middle" x="247" y="-197.5" font-family="FreeSans" font-size="10.00">SimpleReadMySql::nextEntry</text>
</a>
</g>
</g>
<!-- Node1&#45;&gt;Node8 -->
<g id="edge7" class="edge"><title>Node1&#45;&gt;Node8</title>
<path fill="none" stroke="midnightblue" d="M135.664,-213.714C145.733,-212.463 156.204,-211.161 166.511,-209.88"/>
<polygon fill="midnightblue" stroke="midnightblue" points="167.25,-213.315 176.742,-208.608 166.386,-206.369 167.25,-213.315"/>
</g>
<!-- Node9 -->
<g id="node9" class="node"><title>Node9</title>
<g id="a_node9"><a xlink:href="../../d0/da1/classSHit.html#a9f8489049f75b565e815273d7c2a50ad" target="_top" xlink:title="SHit::set_detector_id">
<polygon fill="none" stroke="black" points="193.5,-152.5 193.5,-171.5 300.5,-171.5 300.5,-152.5 193.5,-152.5"/>
<text text-anchor="middle" x="247" y="-159.5" font-family="FreeSans" font-size="10.00">SHit::set_detector_id</text>
</a>
</g>
</g>
<!-- Node1&#45;&gt;Node9 -->
<g id="edge8" class="edge"><title>Node1&#45;&gt;Node9</title>
<path fill="none" stroke="midnightblue" d="M103.87,-206.833C123.631,-198.565 148.943,-188.515 172,-181 179.448,-178.572 187.399,-176.253 195.223,-174.122"/>
<polygon fill="midnightblue" stroke="midnightblue" points="196.248,-177.472 205.019,-171.53 194.456,-170.705 196.248,-177.472"/>
</g>
<!-- Node10 -->
<g id="node10" class="node"><title>Node10</title>
<g id="a_node10"><a xlink:href="../../d0/da1/classSHit.html#aa7b0b4bd395c159a47fc913a510e1f6e" target="_top" xlink:title="SHit::set_drift_distance">
<polygon fill="none" stroke="black" points="188,-114.5 188,-133.5 306,-133.5 306,-114.5 188,-114.5"/>
<text text-anchor="middle" x="247" y="-121.5" font-family="FreeSans" font-size="10.00">SHit::set_drift_distance</text>
</a>
</g>
</g>
<!-- Node1&#45;&gt;Node10 -->
<g id="edge9" class="edge"><title>Node1&#45;&gt;Node10</title>
<path fill="none" stroke="midnightblue" d="M84.3985,-206.918C103.433,-189.099 137.55,-159.761 172,-143 176.92,-140.606 182.176,-138.491 187.531,-136.626"/>
<polygon fill="midnightblue" stroke="midnightblue" points="188.764,-139.906 197.228,-133.534 186.638,-133.237 188.764,-139.906"/>
</g>
<!-- Node11 -->
<g id="node11" class="node"><title>Node11</title>
<g id="a_node11"><a xlink:href="../../d0/da1/classSHit.html#a2fd5c4dd920665d1a74fc1f3cf21c32e" target="_top" xlink:title="SHit::set_element_id">
<polygon fill="none" stroke="black" points="193.5,-76.5 193.5,-95.5 300.5,-95.5 300.5,-76.5 193.5,-76.5"/>
<text text-anchor="middle" x="247" y="-83.5" font-family="FreeSans" font-size="10.00">SHit::set_element_id</text>
</a>
</g>
</g>
<!-- Node1&#45;&gt;Node11 -->
<g id="edge10" class="edge"><title>Node1&#45;&gt;Node11</title>
<path fill="none" stroke="midnightblue" d="M78.0125,-206.849C93.7859,-181.691 128.861,-131.457 172,-105 175.791,-102.675 179.859,-100.633 184.066,-98.8395"/>
<polygon fill="midnightblue" stroke="midnightblue" points="185.325,-102.105 193.443,-95.2982 182.852,-95.5568 185.325,-102.105"/>
</g>
<!-- Node12 -->
<g id="node12" class="node"><title>Node12</title>
<g id="a_node12"><a xlink:href="../../d0/da1/classSHit.html#a2d0e63ff24bb20629cd8b5aeba64aeb3" target="_top" xlink:title="SHit::set_hit_id">
<polygon fill="none" stroke="black" points="205.5,-38.5 205.5,-57.5 288.5,-57.5 288.5,-38.5 205.5,-38.5"/>
<text text-anchor="middle" x="247" y="-45.5" font-family="FreeSans" font-size="10.00">SHit::set_hit_id</text>
</a>
</g>
</g>
<!-- Node1&#45;&gt;Node12 -->
<g id="edge11" class="edge"><title>Node1&#45;&gt;Node12</title>
<path fill="none" stroke="midnightblue" d="M74.6235,-206.971C87.0904,-175.782 120.116,-103.869 172,-67 178.994,-62.03 187.178,-58.3585 195.505,-55.6467"/>
<polygon fill="midnightblue" stroke="midnightblue" points="196.611,-58.9713 205.282,-52.8838 194.707,-52.2351 196.611,-58.9713"/>
</g>
<!-- Node13 -->
<g id="node13" class="node"><title>Node13</title>
<g id="a_node13"><a xlink:href="../../d5/dec/classFun4AllBase.html#a8a5c77a92bdac6bc043476e132379a40" target="_top" xlink:title="Gets the verbosity of this module. ">
<polygon fill="none" stroke="black" points="188.5,-0.5 188.5,-19.5 305.5,-19.5 305.5,-0.5 188.5,-0.5"/>
<text text-anchor="middle" x="247" y="-7.5" font-family="FreeSans" font-size="10.00">Fun4AllBase::Verbosity</text>
</a>
</g>
</g>
<!-- Node1&#45;&gt;Node13 -->
<g id="edge12" class="edge"><title>Node1&#45;&gt;Node13</title>
<path fill="none" stroke="midnightblue" d="M72.6208,-206.733C82.1309,-170.081 111.374,-76.6324 172,-29 174.298,-27.1946 176.748,-25.5593 179.308,-24.0781"/>
<polygon fill="midnightblue" stroke="midnightblue" points="180.946,-27.1727 188.369,-19.6127 177.852,-20.8938 180.946,-27.1727"/>
</g>
</g>
</svg>
