<?xml version="1.0" encoding="UTF-8" standalone="no"?>
<!DOCTYPE svg PUBLIC "-//W3C//DTD SVG 1.1//EN"
 "http://www.w3.org/Graphics/SVG/1.1/DTD/svg11.dtd">
<!-- Generated by graphviz version 2.36.0 (20140111.2315)
 -->
<!-- Title: fun4all/fun4all/Fun4AllEventOutputManager.h Pages: 1 -->
<svg width="240pt" height="208pt"
 viewBox="0.00 0.00 240.00 208.00" xmlns="http://www.w3.org/2000/svg" xmlns:xlink="http://www.w3.org/1999/xlink">
<g id="graph0" class="graph" transform="scale(1 1) rotate(0) translate(4 204)">
<title>fun4all/fun4all/Fun4AllEventOutputManager.h</title>
<!-- Node1 -->
<g id="node1" class="node"><title>Node1</title>
<polygon fill="#bfbfbf" stroke="black" points="95.5,-169 95.5,-199 232.5,-199 232.5,-169 95.5,-169"/>
<text text-anchor="start" x="103.5" y="-187" font-family="FreeSans" font-size="10.00">fun4all/fun4all/Fun4AllEvent</text>
<text text-anchor="middle" x="164" y="-176" font-family="FreeSans" font-size="10.00">OutputManager.h</text>
</g>
<!-- Node2 -->
<g id="node2" class="node"><title>Node2</title>
<g id="a_node2"><a xlink:href="../../de/df8/Fun4AllOutputManager_8h.html" target="_top" xlink:title="Fun4AllOutputManager.h">
<polygon fill="none" stroke="black" points="57,-112.5 57,-131.5 181,-131.5 181,-112.5 57,-112.5"/>
<text text-anchor="middle" x="119" y="-119.5" font-family="FreeSans" font-size="10.00">Fun4AllOutputManager.h</text>
</a>
</g>
</g>
<!-- Node1&#45;&gt;Node2 -->
<g id="edge1" class="edge"><title>Node1&#45;&gt;Node2</title>
<path fill="none" stroke="midnightblue" d="M153.336,-168.781C146.864,-160.152 138.566,-149.088 131.749,-139.999"/>
<polygon fill="midnightblue" stroke="midnightblue" points="134.348,-137.631 125.548,-131.731 128.748,-141.831 134.348,-137.631"/>
</g>
<!-- Node4 -->
<g id="node4" class="node"><title>Node4</title>
<polygon fill="none" stroke="#bfbfbf" points="149.5,-0.5 149.5,-19.5 190.5,-19.5 190.5,-0.5 149.5,-0.5"/>
<text text-anchor="middle" x="170" y="-7.5" font-family="FreeSans" font-size="10.00">string</text>
</g>
<!-- Node1&#45;&gt;Node4 -->
<g id="edge7" class="edge"><title>Node1&#45;&gt;Node4</title>
<path fill="none" stroke="midnightblue" d="M173.079,-168.931C178.901,-159.04 185.926,-145.256 189,-132 197.374,-95.8935 185.536,-52.8603 177.128,-29.0716"/>
<polygon fill="midnightblue" stroke="midnightblue" points="180.366,-27.736 173.591,-19.5899 173.807,-30.1826 180.366,-27.736"/>
</g>
<!-- Node3 -->
<g id="node3" class="node"><title>Node3</title>
<g id="a_node3"><a xlink:href="../../d2/de7/Fun4AllBase_8h.html" target="_top" xlink:title="Fun4AllBase.h">
<polygon fill="none" stroke="black" points="0,-56.5 0,-75.5 80,-75.5 80,-56.5 0,-56.5"/>
<text text-anchor="middle" x="40" y="-63.5" font-family="FreeSans" font-size="10.00">Fun4AllBase.h</text>
</a>
</g>
</g>
<!-- Node2&#45;&gt;Node3 -->
<g id="edge2" class="edge"><title>Node2&#45;&gt;Node3</title>
<path fill="none" stroke="midnightblue" d="M106.307,-112.324C94.0989,-103.979 75.4215,-91.2122 60.9971,-81.3524"/>
<polygon fill="midnightblue" stroke="midnightblue" points="62.892,-78.4082 52.6612,-75.6545 58.9418,-84.1871 62.892,-78.4082"/>
</g>
<!-- Node2&#45;&gt;Node4 -->
<g id="edge6" class="edge"><title>Node2&#45;&gt;Node4</title>
<path fill="none" stroke="midnightblue" d="M126.279,-112.197C133.191,-103.471 143.469,-89.4914 150,-76 157.235,-61.0558 162.556,-42.9161 165.883,-29.601"/>
<polygon fill="midnightblue" stroke="midnightblue" points="169.323,-30.2631 168.207,-19.7272 162.509,-28.6593 169.323,-30.2631"/>
</g>
<!-- Node6 -->
<g id="node6" class="node"><title>Node6</title>
<polygon fill="none" stroke="#bfbfbf" points="98,-56.5 98,-75.5 142,-75.5 142,-56.5 98,-56.5"/>
<text text-anchor="middle" x="120" y="-63.5" font-family="FreeSans" font-size="10.00">vector</text>
</g>
<!-- Node2&#45;&gt;Node6 -->
<g id="edge5" class="edge"><title>Node2&#45;&gt;Node6</title>
<path fill="none" stroke="midnightblue" d="M119.165,-112.083C119.296,-105.006 119.484,-94.8611 119.648,-85.9865"/>
<polygon fill="midnightblue" stroke="midnightblue" points="123.152,-85.8142 119.838,-75.7511 116.153,-85.6845 123.152,-85.8142"/>
</g>
<!-- Node3&#45;&gt;Node4 -->
<g id="edge3" class="edge"><title>Node3&#45;&gt;Node4</title>
<path fill="none" stroke="midnightblue" d="M60.5989,-56.4435C81.9934,-47.5566 115.681,-33.5632 140.024,-23.4514"/>
<polygon fill="midnightblue" stroke="midnightblue" points="141.605,-26.5848 149.497,-19.5164 138.92,-20.1203 141.605,-26.5848"/>
</g>
<!-- Node5 -->
<g id="node5" class="node"><title>Node5</title>
<polygon fill="none" stroke="#bfbfbf" points="17.5,-0.5 17.5,-19.5 62.5,-19.5 62.5,-0.5 17.5,-0.5"/>
<text text-anchor="middle" x="40" y="-7.5" font-family="FreeSans" font-size="10.00">climits</text>
</g>
<!-- Node3&#45;&gt;Node5 -->
<g id="edge4" class="edge"><title>Node3&#45;&gt;Node5</title>
<path fill="none" stroke="midnightblue" d="M40,-56.083C40,-49.0059 40,-38.8611 40,-29.9865"/>
<polygon fill="midnightblue" stroke="midnightblue" points="43.5001,-29.751 40,-19.7511 36.5001,-29.7511 43.5001,-29.751"/>
</g>
</g>
</svg>
