<?xml version="1.0" encoding="UTF-8" standalone="no"?>
<!DOCTYPE svg PUBLIC "-//W3C//DTD SVG 1.1//EN"
 "http://www.w3.org/Graphics/SVG/1.1/DTD/svg11.dtd">
<!-- Generated by graphviz version 2.36.0 (20140111.2315)
 -->
<!-- Title: Fun4AllPrdfOutputManager::InitPrdfManager Pages: 1 -->
<svg width="442pt" height="104pt"
 viewBox="0.00 0.00 442.00 104.00" xmlns="http://www.w3.org/2000/svg" xmlns:xlink="http://www.w3.org/1999/xlink">
<g id="graph0" class="graph" transform="scale(1 1) rotate(0) translate(4 100)">
<title>Fun4AllPrdfOutputManager::InitPrdfManager</title>
<!-- Node1 -->
<g id="node1" class="node"><title>Node1</title>
<polygon fill="#bfbfbf" stroke="black" points="0,-33 0,-63 134,-63 134,-33 0,-33"/>
<text text-anchor="start" x="8" y="-51" font-family="FreeSans" font-size="10.00">Fun4AllPrdfOutputManager</text>
<text text-anchor="middle" x="67" y="-40" font-family="FreeSans" font-size="10.00">::InitPrdfManager</text>
</g>
<!-- Node2 -->
<g id="node2" class="node"><title>Node2</title>
<g id="a_node2"><a xlink:href="../../d1/da8/classPHFlag.html#a4b73a422f0076568904d71f40e849da5" target="_top" xlink:title="PHFlag::FlagExist">
<polygon fill="none" stroke="black" points="177,-76.5 177,-95.5 271,-95.5 271,-76.5 177,-76.5"/>
<text text-anchor="middle" x="224" y="-83.5" font-family="FreeSans" font-size="10.00">PHFlag::FlagExist</text>
</a>
</g>
</g>
<!-- Node1&#45;&gt;Node2 -->
<g id="edge1" class="edge"><title>Node1&#45;&gt;Node2</title>
<path fill="none" stroke="midnightblue" d="M129.26,-63.0186C144.104,-66.6578 159.781,-70.501 173.976,-73.9813"/>
<polygon fill="midnightblue" stroke="midnightblue" points="173.472,-77.4614 184.018,-76.4432 175.139,-70.6627 173.472,-77.4614"/>
</g>
<!-- Node3 -->
<g id="node3" class="node"><title>Node3</title>
<g id="a_node3"><a xlink:href="../../d1/da8/classPHFlag.html#a07899067141a5f12333cc37183caddc8" target="_top" xlink:title="PHFlag::get_IntFlag">
<polygon fill="none" stroke="black" points="172.5,-38.5 172.5,-57.5 275.5,-57.5 275.5,-38.5 172.5,-38.5"/>
<text text-anchor="middle" x="224" y="-45.5" font-family="FreeSans" font-size="10.00">PHFlag::get_IntFlag</text>
</a>
</g>
</g>
<!-- Node1&#45;&gt;Node3 -->
<g id="edge2" class="edge"><title>Node1&#45;&gt;Node3</title>
<path fill="none" stroke="midnightblue" d="M134.184,-48C143.39,-48 152.815,-48 161.922,-48"/>
<polygon fill="midnightblue" stroke="midnightblue" points="162.041,-51.5001 172.041,-48 162.041,-44.5001 162.041,-51.5001"/>
</g>
<!-- Node4 -->
<g id="node4" class="node"><title>Node4</title>
<g id="a_node4"><a xlink:href="../../d8/d14/classrecoConsts.html#ae69a5c29a7199ba16d0e537158618802" target="_top" xlink:title="recoConsts::instance">
<polygon fill="none" stroke="black" points="170.5,-0.5 170.5,-19.5 277.5,-19.5 277.5,-0.5 170.5,-0.5"/>
<text text-anchor="middle" x="224" y="-7.5" font-family="FreeSans" font-size="10.00">recoConsts::instance</text>
</a>
</g>
</g>
<!-- Node1&#45;&gt;Node4 -->
<g id="edge3" class="edge"><title>Node1&#45;&gt;Node4</title>
<path fill="none" stroke="midnightblue" d="M129.26,-32.9814C144.104,-29.3422 159.781,-25.499 173.976,-22.0187"/>
<polygon fill="midnightblue" stroke="midnightblue" points="175.139,-25.3373 184.018,-19.5568 173.472,-18.5386 175.139,-25.3373"/>
</g>
<!-- Node5 -->
<g id="node5" class="node"><title>Node5</title>
<g id="a_node5"><a xlink:href="../../d8/d14/classrecoConsts.html#ae882d6adc62f783ec78114fe3dee3c24" target="_top" xlink:title="recoConsts::recoConsts">
<polygon fill="none" stroke="black" points="314,-0.5 314,-19.5 434,-19.5 434,-0.5 314,-0.5"/>
<text text-anchor="middle" x="374" y="-7.5" font-family="FreeSans" font-size="10.00">recoConsts::recoConsts</text>
</a>
</g>
</g>
<!-- Node4&#45;&gt;Node5 -->
<g id="edge4" class="edge"><title>Node4&#45;&gt;Node5</title>
<path fill="none" stroke="midnightblue" d="M277.596,-10C286.016,-10 294.841,-10 303.58,-10"/>
<polygon fill="midnightblue" stroke="midnightblue" points="303.77,-13.5001 313.77,-10 303.77,-6.5001 303.77,-13.5001"/>
</g>
</g>
</svg>
