<?xml version="1.0" encoding="UTF-8" standalone="no"?>
<!DOCTYPE svg PUBLIC "-//W3C//DTD SVG 1.1//EN"
 "http://www.w3.org/Graphics/SVG/1.1/DTD/svg11.dtd">
<!-- Generated by graphviz version 2.36.0 (20140111.2315)
 -->
<!-- Title: Fun4AllPrdfOutputManager::InitPrdfNode Pages: 1 -->
<svg width="472pt" height="142pt"
 viewBox="0.00 0.00 472.00 142.00" xmlns="http://www.w3.org/2000/svg" xmlns:xlink="http://www.w3.org/1999/xlink">
<g id="graph0" class="graph" transform="scale(1 1) rotate(0) translate(4 138)">
<title>Fun4AllPrdfOutputManager::InitPrdfNode</title>
<!-- Node1 -->
<g id="node1" class="node"><title>Node1</title>
<polygon fill="#bfbfbf" stroke="black" points="0,-43 0,-73 134,-73 134,-43 0,-43"/>
<text text-anchor="start" x="8" y="-61" font-family="FreeSans" font-size="10.00">Fun4AllPrdfOutputManager</text>
<text text-anchor="middle" x="67" y="-50" font-family="FreeSans" font-size="10.00">::InitPrdfNode</text>
</g>
<!-- Node2 -->
<g id="node2" class="node"><title>Node2</title>
<g id="a_node2"><a xlink:href="../../d5/dca/classPHCompositeNode.html#ac7dbf017614c324e218a001d729607bf" target="_top" xlink:title="PHCompositeNode::addNode">
<polygon fill="none" stroke="black" points="170,-76.5 170,-95.5 314,-95.5 314,-76.5 170,-76.5"/>
<text text-anchor="middle" x="242" y="-83.5" font-family="FreeSans" font-size="10.00">PHCompositeNode::addNode</text>
</a>
</g>
</g>
<!-- Node1&#45;&gt;Node2 -->
<g id="edge1" class="edge"><title>Node1&#45;&gt;Node2</title>
<path fill="none" stroke="midnightblue" d="M134.392,-68.7455C146.797,-70.7533 159.788,-72.8558 172.263,-74.8749"/>
<polygon fill="midnightblue" stroke="midnightblue" points="171.705,-78.3301 182.136,-76.4729 172.824,-71.42 171.705,-78.3301"/>
</g>
<!-- Node6 -->
<g id="node6" class="node"><title>Node6</title>
<g id="a_node6"><a xlink:href="../../d5/d07/classPHNodeIterator.html#aea98bf8619af59b1212a94fb32106baa" target="_top" xlink:title="PHNodeIterator::findFirst">
<polygon fill="none" stroke="black" points="180,-20.5 180,-39.5 304,-39.5 304,-20.5 180,-20.5"/>
<text text-anchor="middle" x="242" y="-27.5" font-family="FreeSans" font-size="10.00">PHNodeIterator::findFirst</text>
</a>
</g>
</g>
<!-- Node1&#45;&gt;Node6 -->
<g id="edge5" class="edge"><title>Node1&#45;&gt;Node6</title>
<path fill="none" stroke="midnightblue" d="M134.392,-47.2545C146.797,-45.2467 159.788,-43.1442 172.263,-41.1251"/>
<polygon fill="midnightblue" stroke="midnightblue" points="172.824,-44.58 182.136,-39.5271 171.705,-37.6699 172.824,-44.58"/>
</g>
<!-- Node3 -->
<g id="node3" class="node"><title>Node3</title>
<g id="a_node3"><a xlink:href="../../dc/d82/classPHNode.html#aca3576f926a4401eddc3d88bf0ce0de3" target="_top" xlink:title="PHNode::getName">
<polygon fill="none" stroke="black" points="358,-38.5 358,-57.5 456,-57.5 456,-38.5 358,-38.5"/>
<text text-anchor="middle" x="407" y="-45.5" font-family="FreeSans" font-size="10.00">PHNode::getName</text>
</a>
</g>
</g>
<!-- Node2&#45;&gt;Node3 -->
<g id="edge2" class="edge"><title>Node2&#45;&gt;Node3</title>
<path fill="none" stroke="midnightblue" d="M284.132,-76.411C305.738,-71.3739 332.409,-65.1562 355.286,-59.8229"/>
<polygon fill="midnightblue" stroke="midnightblue" points="356.22,-63.1991 365.164,-57.5201 354.63,-56.3819 356.22,-63.1991"/>
</g>
<!-- Node4 -->
<g id="node4" class="node"><title>Node4</title>
<g id="a_node4"><a xlink:href="../../dc/d82/classPHNode.html#adda2bd6cef2d5067bbe3016a990b7198" target="_top" xlink:title="PHNode::setParent">
<polygon fill="none" stroke="black" points="356.5,-114.5 356.5,-133.5 457.5,-133.5 457.5,-114.5 356.5,-114.5"/>
<text text-anchor="middle" x="407" y="-121.5" font-family="FreeSans" font-size="10.00">PHNode::setParent</text>
</a>
</g>
</g>
<!-- Node2&#45;&gt;Node4 -->
<g id="edge3" class="edge"><title>Node2&#45;&gt;Node4</title>
<path fill="none" stroke="midnightblue" d="M284.132,-95.589C305.738,-100.626 332.409,-106.844 355.286,-112.177"/>
<polygon fill="midnightblue" stroke="midnightblue" points="354.63,-115.618 365.164,-114.48 356.22,-108.801 354.63,-115.618"/>
</g>
<!-- Node5 -->
<g id="node5" class="node"><title>Node5</title>
<g id="a_node5"><a xlink:href="../../d6/d86/classPHPointerList.html#af5fc4e6958b5b90c57bfb497566f503c" target="_top" xlink:title="PHPointerList::append">
<polygon fill="none" stroke="black" points="350,-76.5 350,-95.5 464,-95.5 464,-76.5 350,-76.5"/>
<text text-anchor="middle" x="407" y="-83.5" font-family="FreeSans" font-size="10.00">PHPointerList::append</text>
</a>
</g>
</g>
<!-- Node2&#45;&gt;Node5 -->
<g id="edge4" class="edge"><title>Node2&#45;&gt;Node5</title>
<path fill="none" stroke="midnightblue" d="M314.02,-86C322.559,-86 331.254,-86 339.722,-86"/>
<polygon fill="midnightblue" stroke="midnightblue" points="339.912,-89.5001 349.912,-86 339.912,-82.5001 339.912,-89.5001"/>
</g>
<!-- Node6&#45;&gt;Node3 -->
<g id="edge7" class="edge"><title>Node6&#45;&gt;Node3</title>
<path fill="none" stroke="midnightblue" d="M304.159,-36.7537C318.479,-38.3351 333.695,-40.0154 347.878,-41.5816"/>
<polygon fill="midnightblue" stroke="midnightblue" points="347.672,-45.0801 357.996,-42.6989 348.441,-38.1224 347.672,-45.0801"/>
</g>
<!-- Node6&#45;&gt;Node6 -->
<g id="edge8" class="edge"><title>Node6&#45;&gt;Node6</title>
<path fill="none" stroke="midnightblue" d="M216.723,-39.7571C204.426,-48.5653 212.852,-58 242,-58 261.584,-58 271.814,-53.741 272.689,-48.2746"/>
<polygon fill="midnightblue" stroke="midnightblue" points="275.594,-46.3207 267.277,-39.7571 269.686,-50.0745 275.594,-46.3207"/>
</g>
<!-- Node7 -->
<g id="node7" class="node"><title>Node7</title>
<g id="a_node7"><a xlink:href="../../dc/d82/classPHNode.html#a4ab1f90aed955a652813bfe377087bda" target="_top" xlink:title="PHNode::getType">
<polygon fill="none" stroke="black" points="360.5,-0.5 360.5,-19.5 453.5,-19.5 453.5,-0.5 360.5,-0.5"/>
<text text-anchor="middle" x="407" y="-7.5" font-family="FreeSans" font-size="10.00">PHNode::getType</text>
</a>
</g>
</g>
<!-- Node6&#45;&gt;Node7 -->
<g id="edge6" class="edge"><title>Node6&#45;&gt;Node7</title>
<path fill="none" stroke="midnightblue" d="M304.159,-22.4958C319.279,-20.6406 335.397,-18.663 350.244,-16.8412"/>
<polygon fill="midnightblue" stroke="midnightblue" points="350.793,-20.3002 360.292,-15.6083 349.94,-13.3523 350.793,-20.3002"/>
</g>
</g>
</svg>
