<?xml version="1.0" encoding="UTF-8" standalone="no"?>
<!DOCTYPE svg PUBLIC "-//W3C//DTD SVG 1.1//EN"
 "http://www.w3.org/Graphics/SVG/1.1/DTD/svg11.dtd">
<!-- Generated by graphviz version 2.36.0 (20140111.2315)
 -->
<!-- Title: Fun4AllPrdfOutputManager::Write Pages: 1 -->
<svg width="612pt" height="104pt"
 viewBox="0.00 0.00 612.00 104.00" xmlns="http://www.w3.org/2000/svg" xmlns:xlink="http://www.w3.org/1999/xlink">
<g id="graph0" class="graph" transform="scale(1 1) rotate(0) translate(4 100)">
<title>Fun4AllPrdfOutputManager::Write</title>
<!-- Node1 -->
<g id="node1" class="node"><title>Node1</title>
<polygon fill="#bfbfbf" stroke="black" points="0,-33 0,-63 134,-63 134,-33 0,-33"/>
<text text-anchor="start" x="8" y="-51" font-family="FreeSans" font-size="10.00">Fun4AllPrdfOutputManager</text>
<text text-anchor="middle" x="67" y="-40" font-family="FreeSans" font-size="10.00">::Write</text>
</g>
<!-- Node2 -->
<g id="node2" class="node"><title>Node2</title>
<g id="a_node2"><a xlink:href="../../d6/dc8/classFun4AllPrdfOutputManager.html#a34a327859dafb50190588e6393d8ec2b" target="_top" xlink:title="Fun4AllPrdfOutputManager\l::InitPrdfManager">
<polygon fill="none" stroke="black" points="170,-33 170,-63 304,-63 304,-33 170,-33"/>
<text text-anchor="start" x="178" y="-51" font-family="FreeSans" font-size="10.00">Fun4AllPrdfOutputManager</text>
<text text-anchor="middle" x="237" y="-40" font-family="FreeSans" font-size="10.00">::InitPrdfManager</text>
</a>
</g>
</g>
<!-- Node1&#45;&gt;Node2 -->
<g id="edge1" class="edge"><title>Node1&#45;&gt;Node2</title>
<path fill="none" stroke="midnightblue" d="M134.398,-48C142.679,-48 151.199,-48 159.616,-48"/>
<polygon fill="midnightblue" stroke="midnightblue" points="159.809,-51.5001 169.809,-48 159.809,-44.5001 159.809,-51.5001"/>
</g>
<!-- Node3 -->
<g id="node3" class="node"><title>Node3</title>
<g id="a_node3"><a xlink:href="../../d1/da8/classPHFlag.html#a4b73a422f0076568904d71f40e849da5" target="_top" xlink:title="PHFlag::FlagExist">
<polygon fill="none" stroke="black" points="347,-76.5 347,-95.5 441,-95.5 441,-76.5 347,-76.5"/>
<text text-anchor="middle" x="394" y="-83.5" font-family="FreeSans" font-size="10.00">PHFlag::FlagExist</text>
</a>
</g>
</g>
<!-- Node2&#45;&gt;Node3 -->
<g id="edge2" class="edge"><title>Node2&#45;&gt;Node3</title>
<path fill="none" stroke="midnightblue" d="M299.26,-63.0186C314.104,-66.6578 329.781,-70.501 343.976,-73.9813"/>
<polygon fill="midnightblue" stroke="midnightblue" points="343.472,-77.4614 354.018,-76.4432 345.139,-70.6627 343.472,-77.4614"/>
</g>
<!-- Node4 -->
<g id="node4" class="node"><title>Node4</title>
<g id="a_node4"><a xlink:href="../../d1/da8/classPHFlag.html#a07899067141a5f12333cc37183caddc8" target="_top" xlink:title="PHFlag::get_IntFlag">
<polygon fill="none" stroke="black" points="342.5,-38.5 342.5,-57.5 445.5,-57.5 445.5,-38.5 342.5,-38.5"/>
<text text-anchor="middle" x="394" y="-45.5" font-family="FreeSans" font-size="10.00">PHFlag::get_IntFlag</text>
</a>
</g>
</g>
<!-- Node2&#45;&gt;Node4 -->
<g id="edge3" class="edge"><title>Node2&#45;&gt;Node4</title>
<path fill="none" stroke="midnightblue" d="M304.184,-48C313.39,-48 322.815,-48 331.922,-48"/>
<polygon fill="midnightblue" stroke="midnightblue" points="332.041,-51.5001 342.041,-48 332.041,-44.5001 332.041,-51.5001"/>
</g>
<!-- Node5 -->
<g id="node5" class="node"><title>Node5</title>
<g id="a_node5"><a xlink:href="../../d8/d14/classrecoConsts.html#ae69a5c29a7199ba16d0e537158618802" target="_top" xlink:title="recoConsts::instance">
<polygon fill="none" stroke="black" points="340.5,-0.5 340.5,-19.5 447.5,-19.5 447.5,-0.5 340.5,-0.5"/>
<text text-anchor="middle" x="394" y="-7.5" font-family="FreeSans" font-size="10.00">recoConsts::instance</text>
</a>
</g>
</g>
<!-- Node2&#45;&gt;Node5 -->
<g id="edge4" class="edge"><title>Node2&#45;&gt;Node5</title>
<path fill="none" stroke="midnightblue" d="M299.26,-32.9814C314.104,-29.3422 329.781,-25.499 343.976,-22.0187"/>
<polygon fill="midnightblue" stroke="midnightblue" points="345.139,-25.3373 354.018,-19.5568 343.472,-18.5386 345.139,-25.3373"/>
</g>
<!-- Node6 -->
<g id="node6" class="node"><title>Node6</title>
<g id="a_node6"><a xlink:href="../../d8/d14/classrecoConsts.html#ae882d6adc62f783ec78114fe3dee3c24" target="_top" xlink:title="recoConsts::recoConsts">
<polygon fill="none" stroke="black" points="484,-0.5 484,-19.5 604,-19.5 604,-0.5 484,-0.5"/>
<text text-anchor="middle" x="544" y="-7.5" font-family="FreeSans" font-size="10.00">recoConsts::recoConsts</text>
</a>
</g>
</g>
<!-- Node5&#45;&gt;Node6 -->
<g id="edge5" class="edge"><title>Node5&#45;&gt;Node6</title>
<path fill="none" stroke="midnightblue" d="M447.596,-10C456.016,-10 464.841,-10 473.58,-10"/>
<polygon fill="midnightblue" stroke="midnightblue" points="473.77,-13.5001 483.77,-10 473.77,-6.5001 473.77,-13.5001"/>
</g>
</g>
</svg>
