<?xml version="1.0" encoding="UTF-8" standalone="no"?>
<!DOCTYPE svg PUBLIC "-//W3C//DTD SVG 1.1//EN"
 "http://www.w3.org/Graphics/SVG/1.1/DTD/svg11.dtd">
<!-- Generated by graphviz version 2.36.0 (20140111.2315)
 -->
<!-- Title: PHTimeServer::timer Pages: 1 -->
<svg width="333pt" height="324pt"
 viewBox="0.00 0.00 333.00 324.00" xmlns="http://www.w3.org/2000/svg" xmlns:xlink="http://www.w3.org/1999/xlink">
<g id="graph0" class="graph" transform="scale(1 1) rotate(0) translate(4 320)">
<title>PHTimeServer::timer</title>
<!-- Node1 -->
<g id="node1" class="node"><title>Node1</title>
<polygon fill="#bfbfbf" stroke="black" points="125.5,-0.5 125.5,-19.5 232.5,-19.5 232.5,-0.5 125.5,-0.5"/>
<text text-anchor="middle" x="179" y="-7.5" font-family="FreeSans" font-size="10.00">PHTimeServer::timer</text>
</g>
<!-- Node2 -->
<g id="node2" class="node"><title>Node2</title>
<g id="a_node2"><a xlink:href="../../da/d18/classboost_1_1shared__ptr.html" target="_top" xlink:title="boost::shared_ptr\&lt;\l PHTimer \&gt;">
<polygon fill="none" stroke="black" points="130.5,-69 130.5,-99 227.5,-99 227.5,-69 130.5,-69"/>
<text text-anchor="start" x="138.5" y="-87" font-family="FreeSans" font-size="10.00">boost::shared_ptr&lt;</text>
<text text-anchor="middle" x="179" y="-76" font-family="FreeSans" font-size="10.00"> PHTimer &gt;</text>
</a>
</g>
</g>
<!-- Node2&#45;&gt;Node1 -->
<g id="edge1" class="edge"><title>Node2&#45;&gt;Node1</title>
<path fill="none" stroke="#9a32cd" stroke-dasharray="5,2" d="M179,-58.6883C179,-45.2526 179,-29.3805 179,-19.7589"/>
<polygon fill="#9a32cd" stroke="#9a32cd" points="175.5,-58.7751 179,-68.7751 182.5,-58.7752 175.5,-58.7751"/>
<text text-anchor="middle" x="194" y="-41.5" font-family="FreeSans" font-size="10.00"> _timer</text>
</g>
<!-- Node3 -->
<g id="node3" class="node"><title>Node3</title>
<g id="a_node3"><a xlink:href="../../d0/d5e/classPHTimer.html" target="_top" xlink:title="high precision timer ">
<polygon fill="none" stroke="black" points="151,-148.5 151,-167.5 207,-167.5 207,-148.5 151,-148.5"/>
<text text-anchor="middle" x="179" y="-155.5" font-family="FreeSans" font-size="10.00">PHTimer</text>
</a>
</g>
</g>
<!-- Node3&#45;&gt;Node2 -->
<g id="edge2" class="edge"><title>Node3&#45;&gt;Node2</title>
<path fill="none" stroke="#9a32cd" stroke-dasharray="5,2" d="M179,-138.085C179,-125.915 179,-110.354 179,-99.2316"/>
<polygon fill="#9a32cd" stroke="#9a32cd" points="175.5,-138.458 179,-148.458 182.5,-138.458 175.5,-138.458"/>
<text text-anchor="middle" x="185.5" y="-121.5" font-family="FreeSans" font-size="10.00"> px</text>
</g>
<!-- Node4 -->
<g id="node4" class="node"><title>Node4</title>
<g id="a_node4"><a xlink:href="../../dc/d23/structPHTimer_1_1time__struct.html" target="_top" xlink:title="used to store high precision time using two integers ">
<polygon fill="none" stroke="black" points="-0.5,-226.5 -0.5,-245.5 108.5,-245.5 108.5,-226.5 -0.5,-226.5"/>
<text text-anchor="middle" x="54" y="-233.5" font-family="FreeSans" font-size="10.00">PHTimer::time_struct</text>
</a>
</g>
</g>
<!-- Node4&#45;&gt;Node3 -->
<g id="edge3" class="edge"><title>Node4&#45;&gt;Node3</title>
<path fill="none" stroke="#9a32cd" stroke-dasharray="5,2" d="M73.2398,-220.321C87.0102,-210.12 106.188,-196.521 124,-186 135.54,-179.184 149.044,-172.536 159.783,-167.543"/>
<polygon fill="#9a32cd" stroke="#9a32cd" points="70.9423,-217.669 65.0403,-226.468 75.1411,-223.27 70.9423,-217.669"/>
<text text-anchor="middle" x="149.5" y="-200" font-family="FreeSans" font-size="10.00"> _stop_time</text>
<text text-anchor="middle" x="149.5" y="-189" font-family="FreeSans" font-size="10.00">_start_time</text>
</g>
<!-- Node5 -->
<g id="node5" class="node"><title>Node5</title>
<g id="a_node5"><a xlink:href="../../d2/db1/classPHTimer_1_1Frequency.html" target="_top" xlink:title="internal frequency read from cpu information file ">
<polygon fill="none" stroke="black" points="126.5,-226.5 126.5,-245.5 231.5,-245.5 231.5,-226.5 126.5,-226.5"/>
<text text-anchor="middle" x="179" y="-233.5" font-family="FreeSans" font-size="10.00">PHTimer::Frequency</text>
</a>
</g>
</g>
<!-- Node5&#45;&gt;Node3 -->
<g id="edge4" class="edge"><title>Node5&#45;&gt;Node3</title>
<path fill="none" stroke="#9a32cd" stroke-dasharray="5,2" d="M179,-216.224C179,-200.697 179,-179.358 179,-167.616"/>
<polygon fill="#9a32cd" stroke="#9a32cd" points="175.5,-216.282 179,-226.282 182.5,-216.282 175.5,-216.282"/>
<text text-anchor="middle" x="204" y="-194.5" font-family="FreeSans" font-size="10.00"> _frequency</text>
</g>
<!-- Node6 -->
<g id="node6" class="node"><title>Node6</title>
<g id="a_node6"><a xlink:title="STL class. ">
<polygon fill="none" stroke="#bfbfbf" points="249.5,-226.5 249.5,-245.5 308.5,-245.5 308.5,-226.5 249.5,-226.5"/>
<text text-anchor="middle" x="279" y="-233.5" font-family="FreeSans" font-size="10.00">std::string</text>
</a>
</g>
</g>
<!-- Node6&#45;&gt;Node3 -->
<g id="edge5" class="edge"><title>Node6&#45;&gt;Node3</title>
<path fill="none" stroke="#9a32cd" stroke-dasharray="5,2" d="M265.929,-218.313C257.341,-208.099 245.427,-195.258 233,-186 222.998,-178.548 210.626,-172.19 200.249,-167.519"/>
<polygon fill="#9a32cd" stroke="#9a32cd" points="263.272,-220.592 272.299,-226.138 268.701,-216.173 263.272,-220.592"/>
<text text-anchor="middle" x="271" y="-194.5" font-family="FreeSans" font-size="10.00"> _name</text>
</g>
<!-- Node7 -->
<g id="node7" class="node"><title>Node7</title>
<g id="a_node7"><a xlink:title="STL class. ">
<polygon fill="none" stroke="#bfbfbf" points="232.5,-285 232.5,-315 325.5,-315 325.5,-285 232.5,-285"/>
<text text-anchor="start" x="240.5" y="-303" font-family="FreeSans" font-size="10.00">std::basic_string&lt;</text>
<text text-anchor="middle" x="279" y="-292" font-family="FreeSans" font-size="10.00"> char &gt;</text>
</a>
</g>
</g>
<!-- Node7&#45;&gt;Node6 -->
<g id="edge6" class="edge"><title>Node7&#45;&gt;Node6</title>
<path fill="none" stroke="midnightblue" d="M279,-274.871C279,-264.663 279,-253.408 279,-245.842"/>
<polygon fill="midnightblue" stroke="midnightblue" points="275.5,-274.931 279,-284.931 282.5,-274.931 275.5,-274.931"/>
</g>
</g>
</svg>
