<?xml version="1.0" encoding="UTF-8" standalone="no"?>
<!DOCTYPE svg PUBLIC "-//W3C//DTD SVG 1.1//EN"
 "http://www.w3.org/Graphics/SVG/1.1/DTD/svg11.dtd">
<!-- Generated by graphviz version 2.36.0 (20140111.2315)
 -->
<!-- Title: recoConsts Pages: 1 -->
<svg width="620pt" height="185pt"
 viewBox="0.00 0.00 620.00 185.00" xmlns="http://www.w3.org/2000/svg" xmlns:xlink="http://www.w3.org/1999/xlink">
<g id="graph0" class="graph" transform="scale(1 1) rotate(0) translate(4 181)">
<title>recoConsts</title>
<!-- Node1 -->
<g id="node1" class="node"><title>Node1</title>
<polygon fill="#bfbfbf" stroke="black" points="546,-78.5 546,-97.5 612,-97.5 612,-78.5 546,-78.5"/>
<text text-anchor="middle" x="579" y="-85.5" font-family="FreeSans" font-size="10.00">recoConsts</text>
</g>
<!-- Node1&#45;&gt;Node1 -->
<g id="edge11" class="edge"><title>Node1&#45;&gt;Node1</title>
<path fill="none" stroke="#9a32cd" stroke-dasharray="5,2" d="M569.424,-107.766C570.176,-112.497 573.368,-116 579,-116 588.242,-116 590.914,-106.565 587.015,-97.7571"/>
<polygon fill="#9a32cd" stroke="#9a32cd" points="572.902,-108.177 570.985,-97.7571 565.986,-107.098 572.902,-108.177"/>
<text text-anchor="middle" x="579" y="-119" font-family="FreeSans" font-size="10.00"> __instance</text>
</g>
<!-- Node2 -->
<g id="node2" class="node"><title>Node2</title>
<g id="a_node2"><a xlink:href="../../d1/da8/classPHFlag.html" target="_top" xlink:title="PHFlag">
<polygon fill="none" stroke="black" points="458,-78.5 458,-97.5 508,-97.5 508,-78.5 458,-78.5"/>
<text text-anchor="middle" x="483" y="-85.5" font-family="FreeSans" font-size="10.00">PHFlag</text>
</a>
</g>
</g>
<!-- Node2&#45;&gt;Node1 -->
<g id="edge1" class="edge"><title>Node2&#45;&gt;Node1</title>
<path fill="none" stroke="midnightblue" d="M518.322,-88C527.271,-88 536.883,-88 545.722,-88"/>
<polygon fill="midnightblue" stroke="midnightblue" points="518.207,-84.5001 508.207,-88 518.207,-91.5001 518.207,-84.5001"/>
</g>
<!-- Node3 -->
<g id="node3" class="node"><title>Node3</title>
<polygon fill="none" stroke="#bfbfbf" points="268.5,-147 268.5,-177 375.5,-177 375.5,-147 268.5,-147"/>
<text text-anchor="start" x="276.5" y="-165" font-family="FreeSans" font-size="10.00">std::map&lt; std::string,</text>
<text text-anchor="middle" x="322" y="-154" font-family="FreeSans" font-size="10.00"> int &gt;</text>
</g>
<!-- Node3&#45;&gt;Node2 -->
<g id="edge2" class="edge"><title>Node3&#45;&gt;Node2</title>
<path fill="none" stroke="#9a32cd" stroke-dasharray="5,2" d="M377.499,-143.336C397.567,-135.751 420.215,-126.333 440,-116 450.254,-110.645 461.1,-103.368 469.201,-97.5747"/>
<polygon fill="#9a32cd" stroke="#9a32cd" points="376.036,-140.146 367.88,-146.909 378.472,-146.708 376.036,-140.146"/>
<text text-anchor="middle" x="417" y="-139" font-family="FreeSans" font-size="10.00"> intflag</text>
</g>
<!-- Node4 -->
<g id="node4" class="node"><title>Node4</title>
<g id="a_node4"><a xlink:title="STL class. ">
<polygon fill="none" stroke="#bfbfbf" points="132.5,-77.5 132.5,-96.5 191.5,-96.5 191.5,-77.5 132.5,-77.5"/>
<text text-anchor="middle" x="162" y="-84.5" font-family="FreeSans" font-size="10.00">std::string</text>
</a>
</g>
</g>
<!-- Node4&#45;&gt;Node3 -->
<g id="edge3" class="edge"><title>Node4&#45;&gt;Node3</title>
<path fill="none" stroke="#9a32cd" stroke-dasharray="5,2" d="M186.699,-101.975C194.049,-106.385 202.255,-111.077 210,-115 233.335,-126.822 260.347,-138.304 281.881,-146.961"/>
<polygon fill="#9a32cd" stroke="#9a32cd" points="188.301,-98.8517 177.944,-96.6167 184.647,-104.822 188.301,-98.8517"/>
<text text-anchor="middle" x="230" y="-136" font-family="FreeSans" font-size="10.00"> keys</text>
</g>
<!-- Node6 -->
<g id="node6" class="node"><title>Node6</title>
<polygon fill="none" stroke="#bfbfbf" points="268.5,-98 268.5,-128 375.5,-128 375.5,-98 268.5,-98"/>
<text text-anchor="start" x="276.5" y="-116" font-family="FreeSans" font-size="10.00">std::map&lt; std::string,</text>
<text text-anchor="middle" x="322" y="-105" font-family="FreeSans" font-size="10.00"> float &gt;</text>
</g>
<!-- Node4&#45;&gt;Node6 -->
<g id="edge6" class="edge"><title>Node4&#45;&gt;Node6</title>
<path fill="none" stroke="#9a32cd" stroke-dasharray="5,2" d="M201.632,-93.3572C221.7,-96.6595 246.519,-100.744 268.32,-104.331"/>
<polygon fill="#9a32cd" stroke="#9a32cd" points="202.048,-89.8787 191.613,-91.7084 200.912,-96.7858 202.048,-89.8787"/>
<text text-anchor="middle" x="230" y="-103" font-family="FreeSans" font-size="10.00"> keys</text>
</g>
<!-- Node7 -->
<g id="node7" class="node"><title>Node7</title>
<polygon fill="none" stroke="#bfbfbf" points="268.5,-49 268.5,-79 375.5,-79 375.5,-49 268.5,-49"/>
<text text-anchor="start" x="276.5" y="-67" font-family="FreeSans" font-size="10.00">std::map&lt; std::string,</text>
<text text-anchor="middle" x="322" y="-56" font-family="FreeSans" font-size="10.00"> std::string &gt;</text>
</g>
<!-- Node4&#45;&gt;Node7 -->
<g id="edge8" class="edge"><title>Node4&#45;&gt;Node7</title>
<path fill="none" stroke="#9a32cd" stroke-dasharray="5,2" d="M191.719,-73.5646C197.647,-71.3145 203.934,-69.2935 210,-68 228.765,-63.9985 249.711,-62.5033 268.309,-62.1706"/>
<polygon fill="#9a32cd" stroke="#9a32cd" points="190.106,-70.4431 182.185,-77.4795 192.765,-76.9184 190.106,-70.4431"/>
<text text-anchor="middle" x="230" y="-82" font-family="FreeSans" font-size="10.00"> keys</text>
<text text-anchor="middle" x="230" y="-71" font-family="FreeSans" font-size="10.00">elements</text>
</g>
<!-- Node8 -->
<g id="node8" class="node"><title>Node8</title>
<polygon fill="none" stroke="#bfbfbf" points="268.5,-0 268.5,-30 375.5,-30 375.5,-0 268.5,-0"/>
<text text-anchor="start" x="276.5" y="-18" font-family="FreeSans" font-size="10.00">std::map&lt; std::string,</text>
<text text-anchor="middle" x="322" y="-7" font-family="FreeSans" font-size="10.00"> double &gt;</text>
</g>
<!-- Node4&#45;&gt;Node8 -->
<g id="edge10" class="edge"><title>Node4&#45;&gt;Node8</title>
<path fill="none" stroke="#9a32cd" stroke-dasharray="5,2" d="M179.581,-70.4034C188.077,-62.6765 198.945,-53.9082 210,-48 228.086,-38.3345 249.381,-31.1323 268.457,-25.965"/>
<polygon fill="#9a32cd" stroke="#9a32cd" points="177.086,-67.9465 172.234,-77.3653 181.9,-73.0278 177.086,-67.9465"/>
<text text-anchor="middle" x="230" y="-51" font-family="FreeSans" font-size="10.00"> keys</text>
</g>
<!-- Node5 -->
<g id="node5" class="node"><title>Node5</title>
<g id="a_node5"><a xlink:title="STL class. ">
<polygon fill="none" stroke="#bfbfbf" points="0.5,-72 0.5,-102 93.5,-102 93.5,-72 0.5,-72"/>
<text text-anchor="start" x="8.5" y="-90" font-family="FreeSans" font-size="10.00">std::basic_string&lt;</text>
<text text-anchor="middle" x="47" y="-79" font-family="FreeSans" font-size="10.00"> char &gt;</text>
</a>
</g>
</g>
<!-- Node5&#45;&gt;Node4 -->
<g id="edge4" class="edge"><title>Node5&#45;&gt;Node4</title>
<path fill="none" stroke="midnightblue" d="M103.885,-87C113.778,-87 123.695,-87 132.425,-87"/>
<polygon fill="midnightblue" stroke="midnightblue" points="103.636,-83.5001 93.6357,-87 103.636,-90.5001 103.636,-83.5001"/>
</g>
<!-- Node6&#45;&gt;Node2 -->
<g id="edge5" class="edge"><title>Node6&#45;&gt;Node2</title>
<path fill="none" stroke="#9a32cd" stroke-dasharray="5,2" d="M385.413,-103.187C410.682,-99.2135 438.369,-94.8603 457.596,-91.8372"/>
<polygon fill="#9a32cd" stroke="#9a32cd" points="384.838,-99.7339 375.503,-104.745 385.926,-106.649 384.838,-99.7339"/>
<text text-anchor="middle" x="417" y="-104" font-family="FreeSans" font-size="10.00"> floatflag</text>
</g>
<!-- Node7&#45;&gt;Node2 -->
<g id="edge7" class="edge"><title>Node7&#45;&gt;Node2</title>
<path fill="none" stroke="#9a32cd" stroke-dasharray="5,2" d="M385.877,-68.3959C403.483,-70.1821 422.568,-72.643 440,-76 445.808,-77.1186 451.976,-78.6695 457.745,-80.2856"/>
<polygon fill="#9a32cd" stroke="#9a32cd" points="385.995,-64.8912 375.706,-67.4205 385.326,-71.8592 385.995,-64.8912"/>
<text text-anchor="middle" x="417" y="-79" font-family="FreeSans" font-size="10.00"> charflag</text>
</g>
<!-- Node8&#45;&gt;Node2 -->
<g id="edge9" class="edge"><title>Node8&#45;&gt;Node2</title>
<path fill="none" stroke="#9a32cd" stroke-dasharray="5,2" d="M385.205,-31.9542C403.404,-38.0475 422.972,-45.7483 440,-55 451.733,-61.3749 463.556,-71.0195 471.655,-78.2382"/>
<polygon fill="#9a32cd" stroke="#9a32cd" points="386.14,-28.578 375.548,-28.825 383.982,-35.2372 386.14,-28.578"/>
<text text-anchor="middle" x="417" y="-58" font-family="FreeSans" font-size="10.00"> doubleflag</text>
</g>
</g>
</svg>
