<?xml version="1.0" encoding="UTF-8" standalone="no"?>
<!DOCTYPE svg PUBLIC "-//W3C//DTD SVG 1.1//EN"
 "http://www.w3.org/Graphics/SVG/1.1/DTD/svg11.dtd">
<!-- Generated by graphviz version 2.36.0 (20140111.2315)
 -->
<!-- Title: fun4all/phool/PHIODataNode.h Pages: 1 -->
<svg width="1110pt" height="164pt"
 viewBox="0.00 0.00 1110.00 164.00" xmlns="http://www.w3.org/2000/svg" xmlns:xlink="http://www.w3.org/1999/xlink">
<g id="graph0" class="graph" transform="scale(1 1) rotate(0) translate(4 160)">
<title>fun4all/phool/PHIODataNode.h</title>
<!-- Node1 -->
<g id="node1" class="node"><title>Node1</title>
<polygon fill="#bfbfbf" stroke="black" points="377,-136.5 377,-155.5 527,-155.5 527,-136.5 377,-136.5"/>
<text text-anchor="middle" x="452" y="-143.5" font-family="FreeSans" font-size="10.00">fun4all/phool/PHIODataNode.h</text>
</g>
<!-- Node2 -->
<g id="node2" class="node"><title>Node2</title>
<g id="a_node2"><a xlink:href="../../d3/d53/Fun4AllDstInputManager_8cc.html" target="_top" xlink:title="fun4all/fun4all/Fun4AllDst\lInputManager.cc">
<polygon fill="none" stroke="black" points="0,-1 0,-31 128,-31 128,-1 0,-1"/>
<text text-anchor="start" x="8" y="-19" font-family="FreeSans" font-size="10.00">fun4all/fun4all/Fun4AllDst</text>
<text text-anchor="middle" x="64" y="-8" font-family="FreeSans" font-size="10.00">InputManager.cc</text>
</a>
</g>
</g>
<!-- Node1&#45;&gt;Node2 -->
<g id="edge1" class="edge"><title>Node1&#45;&gt;Node2</title>
<path fill="none" stroke="midnightblue" d="M395.295,-134.477C356.458,-126.615 304.033,-114.711 259,-100 198.319,-80.1775 130.321,-49.0999 92.7964,-31.1281"/>
<polygon fill="midnightblue" stroke="midnightblue" points="394.875,-137.962 405.366,-136.486 396.245,-131.097 394.875,-137.962"/>
</g>
<!-- Node3 -->
<g id="node3" class="node"><title>Node3</title>
<g id="a_node3"><a xlink:href="../../df/d03/Fun4AllSyncManager_8cc.html" target="_top" xlink:title="fun4all/fun4all/Fun4AllSync\lManager.cc">
<polygon fill="none" stroke="black" points="458,-69 458,-99 592,-99 592,-69 458,-69"/>
<text text-anchor="start" x="466" y="-87" font-family="FreeSans" font-size="10.00">fun4all/fun4all/Fun4AllSync</text>
<text text-anchor="middle" x="525" y="-76" font-family="FreeSans" font-size="10.00">Manager.cc</text>
</a>
</g>
</g>
<!-- Node1&#45;&gt;Node3 -->
<g id="edge2" class="edge"><title>Node1&#45;&gt;Node3</title>
<path fill="none" stroke="midnightblue" d="M470.5,-129.795C481.962,-120.374 496.583,-108.356 507.795,-99.1408"/>
<polygon fill="midnightblue" stroke="midnightblue" points="467.962,-127.35 462.459,-136.403 472.407,-132.758 467.962,-127.35"/>
</g>
<!-- Node4 -->
<g id="node4" class="node"><title>Node4</title>
<g id="a_node4"><a xlink:href="../../dd/d12/ReadMySql_8C.html" target="_top" xlink:title="fun4all/modules/ReadMySql.C">
<polygon fill="none" stroke="black" points="146,-6.5 146,-25.5 292,-25.5 292,-6.5 146,-6.5"/>
<text text-anchor="middle" x="219" y="-13.5" font-family="FreeSans" font-size="10.00">fun4all/modules/ReadMySql.C</text>
</a>
</g>
</g>
<!-- Node1&#45;&gt;Node4 -->
<g id="edge3" class="edge"><title>Node1&#45;&gt;Node4</title>
<path fill="none" stroke="midnightblue" d="M391.971,-134.145C363.352,-127.23 329.457,-116.4 302,-100 268.059,-79.7274 237.895,-42.5152 225.275,-25.6797"/>
<polygon fill="midnightblue" stroke="midnightblue" points="391.323,-137.588 401.854,-136.431 392.9,-130.768 391.323,-137.588"/>
</g>
<!-- Node5 -->
<g id="node5" class="node"><title>Node5</title>
<g id="a_node5"><a xlink:href="../../dd/d2f/SimpleReadMySql_8C.html" target="_top" xlink:title="fun4all/modules/SimpleRead\lMySql.C">
<polygon fill="none" stroke="black" points="310,-1 310,-31 450,-31 450,-1 310,-1"/>
<text text-anchor="start" x="318" y="-19" font-family="FreeSans" font-size="10.00">fun4all/modules/SimpleRead</text>
<text text-anchor="middle" x="380" y="-8" font-family="FreeSans" font-size="10.00">MySql.C</text>
</a>
</g>
</g>
<!-- Node1&#45;&gt;Node5 -->
<g id="edge4" class="edge"><title>Node1&#45;&gt;Node5</title>
<path fill="none" stroke="midnightblue" d="M367.069,-135.98C345.365,-129.386 324.402,-118.345 311,-100 302.61,-88.5159 304.595,-80.6984 311,-68 319.117,-51.9068 334.976,-39.6331 349.445,-31.1635"/>
<polygon fill="midnightblue" stroke="midnightblue" points="366.161,-139.36 376.731,-138.624 368.009,-132.609 366.161,-139.36"/>
</g>
<!-- Node6 -->
<g id="node6" class="node"><title>Node6</title>
<g id="a_node6"><a xlink:href="../../dd/dd4/getClass_8h.html" target="_top" xlink:title="fun4all/phool/getClass.h">
<polygon fill="none" stroke="black" points="320,-74.5 320,-93.5 440,-93.5 440,-74.5 320,-74.5"/>
<text text-anchor="middle" x="380" y="-81.5" font-family="FreeSans" font-size="10.00">fun4all/phool/getClass.h</text>
</a>
</g>
</g>
<!-- Node1&#45;&gt;Node6 -->
<g id="edge5" class="edge"><title>Node1&#45;&gt;Node6</title>
<path fill="none" stroke="midnightblue" d="M433.816,-129.846C420.045,-118.371 401.623,-103.02 390.297,-93.5806"/>
<polygon fill="midnightblue" stroke="midnightblue" points="431.761,-132.69 441.684,-136.403 436.243,-127.313 431.761,-132.69"/>
</g>
<!-- Node10 -->
<g id="node10" class="node"><title>Node10</title>
<g id="a_node10"><a xlink:href="../../d7/d95/PHDataNodeIterator_8h.html" target="_top" xlink:title="fun4all/phool/PHDataNode\lIterator.h">
<polygon fill="none" stroke="black" points="610,-69 610,-99 742,-99 742,-69 610,-69"/>
<text text-anchor="start" x="618" y="-87" font-family="FreeSans" font-size="10.00">fun4all/phool/PHDataNode</text>
<text text-anchor="middle" x="676" y="-76" font-family="FreeSans" font-size="10.00">Iterator.h</text>
</a>
</g>
</g>
<!-- Node1&#45;&gt;Node10 -->
<g id="edge12" class="edge"><title>Node1&#45;&gt;Node10</title>
<path fill="none" stroke="midnightblue" d="M493.977,-133.756C530.683,-123.924 584.145,-109.604 623.639,-99.0253"/>
<polygon fill="midnightblue" stroke="midnightblue" points="492.848,-130.435 484.094,-136.403 494.659,-137.197 492.848,-130.435"/>
</g>
<!-- Node11 -->
<g id="node11" class="node"><title>Node11</title>
<g id="a_node11"><a xlink:href="../../d7/d32/PHNodeIOManager_8cc.html" target="_top" xlink:title="fun4all/phool/PHNodeIOManager.cc">
<polygon fill="none" stroke="black" points="760.5,-74.5 760.5,-93.5 933.5,-93.5 933.5,-74.5 760.5,-74.5"/>
<text text-anchor="middle" x="847" y="-81.5" font-family="FreeSans" font-size="10.00">fun4all/phool/PHNodeIOManager.cc</text>
</a>
</g>
</g>
<!-- Node1&#45;&gt;Node11 -->
<g id="edge13" class="edge"><title>Node1&#45;&gt;Node11</title>
<path fill="none" stroke="midnightblue" d="M519.537,-134.946C580.149,-125.897 671.539,-112.187 751,-100 764.589,-97.9158 779.256,-95.6383 792.936,-93.5019"/>
<polygon fill="midnightblue" stroke="midnightblue" points="518.709,-131.531 509.335,-136.469 519.742,-138.454 518.709,-131.531"/>
</g>
<!-- Node12 -->
<g id="node12" class="node"><title>Node12</title>
<g id="a_node12"><a xlink:href="../../dc/d01/PHNodeReset_8cc.html" target="_top" xlink:title="fun4all/phool/PHNodeReset.cc">
<polygon fill="none" stroke="black" points="952,-74.5 952,-93.5 1102,-93.5 1102,-74.5 952,-74.5"/>
<text text-anchor="middle" x="1027" y="-81.5" font-family="FreeSans" font-size="10.00">fun4all/phool/PHNodeReset.cc</text>
</a>
</g>
</g>
<!-- Node1&#45;&gt;Node12 -->
<g id="edge14" class="edge"><title>Node1&#45;&gt;Node12</title>
<path fill="none" stroke="midnightblue" d="M537.493,-139.312C635.467,-132.292 800.729,-118.919 942,-100 955.219,-98.2298 969.52,-95.8775 982.553,-93.5617"/>
<polygon fill="midnightblue" stroke="midnightblue" points="537.075,-135.832 527.348,-140.033 537.571,-142.815 537.075,-135.832"/>
</g>
<!-- Node6&#45;&gt;Node2 -->
<g id="edge6" class="edge"><title>Node6&#45;&gt;Node2</title>
<path fill="none" stroke="midnightblue" d="M329.199,-72.3897C274.549,-60.9755 187.519,-42.7983 128.176,-30.4038"/>
<polygon fill="midnightblue" stroke="midnightblue" points="328.508,-75.8208 339.012,-74.4393 329.939,-68.9687 328.508,-75.8208"/>
</g>
<!-- Node6&#45;&gt;Node4 -->
<g id="edge10" class="edge"><title>Node6&#45;&gt;Node4</title>
<path fill="none" stroke="midnightblue" d="M349.596,-70.5361C317.48,-57.3706 267.708,-36.9673 239.798,-25.5259"/>
<polygon fill="midnightblue" stroke="midnightblue" points="348.372,-73.817 358.952,-74.3717 351.027,-67.3401 348.372,-73.817"/>
</g>
<!-- Node6&#45;&gt;Node5 -->
<g id="edge11" class="edge"><title>Node6&#45;&gt;Node5</title>
<path fill="none" stroke="midnightblue" d="M380,-64.1737C380,-53.6781 380,-40.8209 380,-31.1815"/>
<polygon fill="midnightblue" stroke="midnightblue" points="376.5,-64.3716 380,-74.3717 383.5,-64.3717 376.5,-64.3716"/>
</g>
<!-- Node7 -->
<g id="node7" class="node"><title>Node7</title>
<g id="a_node7"><a xlink:href="../../d6/dbe/Fun4AllEventOutputManager_8cc.html" target="_top" xlink:title="fun4all/fun4all/Fun4AllEvent\lOutputManager.cc">
<polygon fill="none" stroke="black" points="468.5,-1 468.5,-31 605.5,-31 605.5,-1 468.5,-1"/>
<text text-anchor="start" x="476.5" y="-19" font-family="FreeSans" font-size="10.00">fun4all/fun4all/Fun4AllEvent</text>
<text text-anchor="middle" x="537" y="-8" font-family="FreeSans" font-size="10.00">OutputManager.cc</text>
</a>
</g>
</g>
<!-- Node6&#45;&gt;Node7 -->
<g id="edge7" class="edge"><title>Node6&#45;&gt;Node7</title>
<path fill="none" stroke="midnightblue" d="M409.77,-70.4854C436.515,-59.242 475.747,-42.7498 503.563,-31.0562"/>
<polygon fill="midnightblue" stroke="midnightblue" points="408.387,-67.2698 400.525,-74.3717 411.1,-73.7228 408.387,-67.2698"/>
</g>
<!-- Node8 -->
<g id="node8" class="node"><title>Node8</title>
<g id="a_node8"><a xlink:href="../../da/d7b/Fun4AllPrdfInputManager_8cc.html" target="_top" xlink:title="fun4all/fun4all/Fun4AllPrdf\lInputManager.cc">
<polygon fill="none" stroke="black" points="623.5,-1 623.5,-31 754.5,-31 754.5,-1 623.5,-1"/>
<text text-anchor="start" x="631.5" y="-19" font-family="FreeSans" font-size="10.00">fun4all/fun4all/Fun4AllPrdf</text>
<text text-anchor="middle" x="689" y="-8" font-family="FreeSans" font-size="10.00">InputManager.cc</text>
</a>
</g>
</g>
<!-- Node6&#45;&gt;Node8 -->
<g id="edge8" class="edge"><title>Node6&#45;&gt;Node8</title>
<path fill="none" stroke="midnightblue" d="M428.839,-72.3532C435.61,-70.8858 442.477,-69.402 449,-68 507.929,-55.3336 575.037,-41.0882 623.28,-30.8791"/>
<polygon fill="midnightblue" stroke="midnightblue" points="428.068,-68.9388 419.038,-74.4801 429.553,-75.7796 428.068,-68.9388"/>
</g>
<!-- Node9 -->
<g id="node9" class="node"><title>Node9</title>
<g id="a_node9"><a xlink:href="../../d8/d7a/Fun4AllServer_8cc.html" target="_top" xlink:title="fun4all/fun4all/Fun4AllServer.cc">
<polygon fill="none" stroke="black" points="773,-6.5 773,-25.5 927,-25.5 927,-6.5 773,-6.5"/>
<text text-anchor="middle" x="850" y="-13.5" font-family="FreeSans" font-size="10.00">fun4all/fun4all/Fun4AllServer.cc</text>
</a>
</g>
</g>
<!-- Node6&#45;&gt;Node9 -->
<g id="edge9" class="edge"><title>Node6&#45;&gt;Node9</title>
<path fill="none" stroke="midnightblue" d="M425.944,-72.3435C433.618,-70.756 441.516,-69.2394 449,-68 587.583,-45.0514 623.953,-51.9414 763,-32 776.199,-30.107 790.475,-27.7683 803.572,-25.5053"/>
<polygon fill="midnightblue" stroke="midnightblue" points="425.089,-68.947 416.038,-74.4539 426.548,-75.7934 425.089,-68.947"/>
</g>
</g>
</svg>
