<?xml version="1.0" encoding="UTF-8" standalone="no"?>
<!DOCTYPE svg PUBLIC "-//W3C//DTD SVG 1.1//EN"
 "http://www.w3.org/Graphics/SVG/1.1/DTD/svg11.dtd">
<!-- Generated by graphviz version 2.36.0 (20140111.2315)
 -->
<!-- Title: fun4all/fun4all/Fun4AllServer.h Pages: 1 -->
<svg width="507pt" height="196pt"
 viewBox="0.00 0.00 507.00 196.00" xmlns="http://www.w3.org/2000/svg" xmlns:xlink="http://www.w3.org/1999/xlink">
<g id="graph0" class="graph" transform="scale(1 1) rotate(0) translate(4 192)">
<title>fun4all/fun4all/Fun4AllServer.h</title>
<!-- Node1 -->
<g id="node1" class="node"><title>Node1</title>
<polygon fill="#bfbfbf" stroke="black" points="207.5,-168.5 207.5,-187.5 356.5,-187.5 356.5,-168.5 207.5,-168.5"/>
<text text-anchor="middle" x="282" y="-175.5" font-family="FreeSans" font-size="10.00">fun4all/fun4all/Fun4AllServer.h</text>
</g>
<!-- Node2 -->
<g id="node2" class="node"><title>Node2</title>
<g id="a_node2"><a xlink:href="../../d2/de7/Fun4AllBase_8h.html" target="_top" xlink:title="Fun4AllBase.h">
<polygon fill="none" stroke="black" points="0,-56.5 0,-75.5 80,-75.5 80,-56.5 0,-56.5"/>
<text text-anchor="middle" x="40" y="-63.5" font-family="FreeSans" font-size="10.00">Fun4AllBase.h</text>
</a>
</g>
</g>
<!-- Node1&#45;&gt;Node2 -->
<g id="edge1" class="edge"><title>Node1&#45;&gt;Node2</title>
<path fill="none" stroke="midnightblue" d="M207.242,-170.249C170.924,-164.294 127.916,-153.087 94,-132 74.9902,-120.181 59.4582,-99.3605 50.0112,-84.4672"/>
<polygon fill="midnightblue" stroke="midnightblue" points="52.8744,-82.4381 44.7064,-75.6902 46.8836,-86.0589 52.8744,-82.4381"/>
</g>
<!-- Node3 -->
<g id="node3" class="node"><title>Node3</title>
<polygon fill="none" stroke="#bfbfbf" points="87.5,-0.5 87.5,-19.5 128.5,-19.5 128.5,-0.5 87.5,-0.5"/>
<text text-anchor="middle" x="108" y="-7.5" font-family="FreeSans" font-size="10.00">string</text>
</g>
<!-- Node1&#45;&gt;Node3 -->
<g id="edge15" class="edge"><title>Node1&#45;&gt;Node3</title>
<path fill="none" stroke="midnightblue" d="M207.338,-172.201C178.281,-166.482 147.185,-154.922 127,-132 101.904,-103.502 102.575,-55.8853 105.276,-29.6892"/>
<polygon fill="midnightblue" stroke="midnightblue" points="108.77,-29.9538 106.532,-19.5982 101.824,-29.0894 108.77,-29.9538"/>
</g>
<!-- Node5 -->
<g id="node5" class="node"><title>Node5</title>
<g id="a_node5"><a xlink:href="../../d0/d59/Fun4AllHistoManager_8h.html" target="_top" xlink:title="Fun4AllHistoManager.h">
<polygon fill="none" stroke="black" points="136,-112.5 136,-131.5 254,-131.5 254,-112.5 136,-112.5"/>
<text text-anchor="middle" x="195" y="-119.5" font-family="FreeSans" font-size="10.00">Fun4AllHistoManager.h</text>
</a>
</g>
</g>
<!-- Node1&#45;&gt;Node5 -->
<g id="edge4" class="edge"><title>Node1&#45;&gt;Node5</title>
<path fill="none" stroke="midnightblue" d="M268.022,-168.324C254.45,-159.9 233.62,-146.971 217.675,-137.074"/>
<polygon fill="midnightblue" stroke="midnightblue" points="219.286,-133.954 208.943,-131.655 215.594,-139.902 219.286,-133.954"/>
</g>
<!-- Node6 -->
<g id="node6" class="node"><title>Node6</title>
<polygon fill="none" stroke="#bfbfbf" points="293,-56.5 293,-75.5 347,-75.5 347,-56.5 293,-56.5"/>
<text text-anchor="middle" x="320" y="-63.5" font-family="FreeSans" font-size="10.00">iostream</text>
</g>
<!-- Node1&#45;&gt;Node6 -->
<g id="edge13" class="edge"><title>Node1&#45;&gt;Node6</title>
<path fill="none" stroke="midnightblue" d="M284.982,-168.368C291.142,-150.537 305.389,-109.295 313.688,-85.2717"/>
<polygon fill="midnightblue" stroke="midnightblue" points="317.075,-86.1862 317.032,-75.5914 310.459,-83.9005 317.075,-86.1862"/>
</g>
<!-- Node7 -->
<g id="node7" class="node"><title>Node7</title>
<polygon fill="none" stroke="#bfbfbf" points="208.5,-56.5 208.5,-75.5 243.5,-75.5 243.5,-56.5 208.5,-56.5"/>
<text text-anchor="middle" x="226" y="-63.5" font-family="FreeSans" font-size="10.00">map</text>
</g>
<!-- Node1&#45;&gt;Node7 -->
<g id="edge14" class="edge"><title>Node1&#45;&gt;Node7</title>
<path fill="none" stroke="midnightblue" d="M280.585,-168.162C278.265,-155.244 272.89,-130.709 263,-112 257.399,-101.404 249.055,-90.9754 241.708,-82.8298"/>
<polygon fill="midnightblue" stroke="midnightblue" points="244.234,-80.4068 234.832,-75.5235 239.137,-85.2043 244.234,-80.4068"/>
</g>
<!-- Node8 -->
<g id="node8" class="node"><title>Node8</title>
<g id="a_node8"><a xlink:href="../../dc/d26/PHTimer_8h.html" target="_top" xlink:title="high precision timer ">
<polygon fill="none" stroke="black" points="348.5,-112.5 348.5,-131.5 437.5,-131.5 437.5,-112.5 348.5,-112.5"/>
<text text-anchor="middle" x="393" y="-119.5" font-family="FreeSans" font-size="10.00">phool/PHTimer.h</text>
</a>
</g>
</g>
<!-- Node1&#45;&gt;Node8 -->
<g id="edge9" class="edge"><title>Node1&#45;&gt;Node8</title>
<path fill="none" stroke="midnightblue" d="M299.834,-168.324C317.716,-159.625 345.475,-146.12 366.046,-136.113"/>
<polygon fill="midnightblue" stroke="midnightblue" points="367.749,-139.177 375.21,-131.655 364.687,-132.882 367.749,-139.177"/>
</g>
<!-- Node11 -->
<g id="node11" class="node"><title>Node11</title>
<polygon fill="none" stroke="#bfbfbf" points="455,-112.5 455,-131.5 499,-131.5 499,-112.5 455,-112.5"/>
<text text-anchor="middle" x="477" y="-119.5" font-family="FreeSans" font-size="10.00">vector</text>
</g>
<!-- Node1&#45;&gt;Node11 -->
<g id="edge16" class="edge"><title>Node1&#45;&gt;Node11</title>
<path fill="none" stroke="midnightblue" d="M313.785,-168.428C344.915,-159.999 393.94,-146.638 445.369,-132.149"/>
<polygon fill="midnightblue" stroke="midnightblue" points="446.323,-135.517 454.996,-129.432 444.421,-128.78 446.323,-135.517"/>
</g>
<!-- Node2&#45;&gt;Node3 -->
<g id="edge2" class="edge"><title>Node2&#45;&gt;Node3</title>
<path fill="none" stroke="midnightblue" d="M50.9254,-56.324C61.1746,-48.1849 76.7206,-35.8395 89.001,-26.0874"/>
<polygon fill="midnightblue" stroke="midnightblue" points="91.2213,-28.7937 96.8758,-19.8339 86.8681,-23.3119 91.2213,-28.7937"/>
</g>
<!-- Node4 -->
<g id="node4" class="node"><title>Node4</title>
<polygon fill="none" stroke="#bfbfbf" points="17.5,-0.5 17.5,-19.5 62.5,-19.5 62.5,-0.5 17.5,-0.5"/>
<text text-anchor="middle" x="40" y="-7.5" font-family="FreeSans" font-size="10.00">climits</text>
</g>
<!-- Node2&#45;&gt;Node4 -->
<g id="edge3" class="edge"><title>Node2&#45;&gt;Node4</title>
<path fill="none" stroke="midnightblue" d="M40,-56.083C40,-49.0059 40,-38.8611 40,-29.9865"/>
<polygon fill="midnightblue" stroke="midnightblue" points="43.5001,-29.751 40,-19.7511 36.5001,-29.7511 43.5001,-29.751"/>
</g>
<!-- Node5&#45;&gt;Node2 -->
<g id="edge5" class="edge"><title>Node5&#45;&gt;Node2</title>
<path fill="none" stroke="midnightblue" d="M170.44,-112.444C144.477,-103.399 103.332,-89.064 74.2029,-78.9158"/>
<polygon fill="midnightblue" stroke="midnightblue" points="75.0401,-75.5013 64.4453,-75.5164 72.7371,-82.1116 75.0401,-75.5013"/>
</g>
<!-- Node5&#45;&gt;Node3 -->
<g id="edge8" class="edge"><title>Node5&#45;&gt;Node3</title>
<path fill="none" stroke="midnightblue" d="M188.173,-112.368C173.752,-94.135 139.973,-51.4257 121.189,-27.6752"/>
<polygon fill="midnightblue" stroke="midnightblue" points="123.744,-25.2636 114.795,-19.5914 118.253,-29.606 123.744,-25.2636"/>
</g>
<!-- Node5&#45;&gt;Node6 -->
<g id="edge6" class="edge"><title>Node5&#45;&gt;Node6</title>
<path fill="none" stroke="midnightblue" d="M214.807,-112.444C235.287,-103.596 267.483,-89.6875 290.865,-79.5865"/>
<polygon fill="midnightblue" stroke="midnightblue" points="292.494,-82.6953 300.286,-75.5164 289.718,-76.2692 292.494,-82.6953"/>
</g>
<!-- Node5&#45;&gt;Node7 -->
<g id="edge7" class="edge"><title>Node5&#45;&gt;Node7</title>
<path fill="none" stroke="midnightblue" d="M200.119,-112.083C204.408,-104.613 210.658,-93.7244 215.942,-84.5199"/>
<polygon fill="midnightblue" stroke="midnightblue" points="219.033,-86.1662 220.976,-75.7511 212.962,-82.6811 219.033,-86.1662"/>
</g>
<!-- Node8&#45;&gt;Node6 -->
<g id="edge10" class="edge"><title>Node8&#45;&gt;Node6</title>
<path fill="none" stroke="midnightblue" d="M381.271,-112.324C370.163,-104.107 353.258,-91.6017 340.017,-81.8069"/>
<polygon fill="midnightblue" stroke="midnightblue" points="342.063,-78.9671 331.942,-75.8339 337.9,-84.5948 342.063,-78.9671"/>
</g>
<!-- Node9 -->
<g id="node9" class="node"><title>Node9</title>
<polygon fill="none" stroke="#bfbfbf" points="434,-56.5 434,-75.5 486,-75.5 486,-56.5 434,-56.5"/>
<text text-anchor="middle" x="460" y="-63.5" font-family="FreeSans" font-size="10.00">sstream</text>
</g>
<!-- Node8&#45;&gt;Node9 -->
<g id="edge11" class="edge"><title>Node8&#45;&gt;Node9</title>
<path fill="none" stroke="midnightblue" d="M403.765,-112.324C413.766,-104.263 428.887,-92.0765 440.93,-82.3695"/>
<polygon fill="midnightblue" stroke="midnightblue" points="443.45,-84.8343 449.039,-75.8339 439.057,-79.3841 443.45,-84.8343"/>
</g>
<!-- Node10 -->
<g id="node10" class="node"><title>Node10</title>
<polygon fill="none" stroke="#bfbfbf" points="366,-56.5 366,-75.5 416,-75.5 416,-56.5 366,-56.5"/>
<text text-anchor="middle" x="391" y="-63.5" font-family="FreeSans" font-size="10.00">unistd.h</text>
</g>
<!-- Node8&#45;&gt;Node10 -->
<g id="edge12" class="edge"><title>Node8&#45;&gt;Node10</title>
<path fill="none" stroke="midnightblue" d="M392.67,-112.083C392.408,-105.006 392.032,-94.8611 391.703,-85.9865"/>
<polygon fill="midnightblue" stroke="midnightblue" points="395.192,-85.6147 391.324,-75.7511 388.197,-85.8738 395.192,-85.6147"/>
</g>
</g>
</svg>
