<?xml version="1.0" encoding="UTF-8" standalone="no"?>
<!DOCTYPE svg PUBLIC "-//W3C//DTD SVG 1.1//EN"
 "http://www.w3.org/Graphics/SVG/1.1/DTD/svg11.dtd">
<!-- Generated by graphviz version 2.36.0 (20140111.2315)
 -->
<!-- Title: fun4all/interfaces/SHitMap.h Pages: 1 -->
<svg width="546pt" height="244pt"
 viewBox="0.00 0.00 546.00 244.00" xmlns="http://www.w3.org/2000/svg" xmlns:xlink="http://www.w3.org/1999/xlink">
<g id="graph0" class="graph" transform="scale(1 1) rotate(0) translate(4 240)">
<title>fun4all/interfaces/SHitMap.h</title>
<!-- Node1 -->
<g id="node1" class="node"><title>Node1</title>
<polygon fill="#bfbfbf" stroke="black" points="179.5,-205 179.5,-235 270.5,-235 270.5,-205 179.5,-205"/>
<text text-anchor="start" x="187.5" y="-223" font-family="FreeSans" font-size="10.00">fun4all/interfaces</text>
<text text-anchor="middle" x="225" y="-212" font-family="FreeSans" font-size="10.00">/SHitMap.h</text>
</g>
<!-- Node2 -->
<g id="node2" class="node"><title>Node2</title>
<g id="a_node2"><a xlink:href="../../db/d3d/SEvent_8h.html" target="_top" xlink:title="fun4all/interfaces\l/SEvent.h">
<polygon fill="none" stroke="black" points="70.5,-137 70.5,-167 161.5,-167 161.5,-137 70.5,-137"/>
<text text-anchor="start" x="78.5" y="-155" font-family="FreeSans" font-size="10.00">fun4all/interfaces</text>
<text text-anchor="middle" x="116" y="-144" font-family="FreeSans" font-size="10.00">/SEvent.h</text>
</a>
</g>
</g>
<!-- Node1&#45;&gt;Node2 -->
<g id="edge1" class="edge"><title>Node1&#45;&gt;Node2</title>
<path fill="none" stroke="midnightblue" d="M193.004,-199.626C175.812,-189.217 154.997,-176.613 139.345,-167.135"/>
<polygon fill="midnightblue" stroke="midnightblue" points="191.25,-202.656 201.617,-204.841 194.876,-196.668 191.25,-202.656"/>
</g>
<!-- Node7 -->
<g id="node7" class="node"><title>Node7</title>
<g id="a_node7"><a xlink:href="../../dd/d9c/SHitMap_8C.html" target="_top" xlink:title="fun4all/interfaces\l/SHitMap.C">
<polygon fill="none" stroke="black" points="179.5,-137 179.5,-167 270.5,-167 270.5,-137 179.5,-137"/>
<text text-anchor="start" x="187.5" y="-155" font-family="FreeSans" font-size="10.00">fun4all/interfaces</text>
<text text-anchor="middle" x="225" y="-144" font-family="FreeSans" font-size="10.00">/SHitMap.C</text>
</a>
</g>
</g>
<!-- Node1&#45;&gt;Node7 -->
<g id="edge6" class="edge"><title>Node1&#45;&gt;Node7</title>
<path fill="none" stroke="midnightblue" d="M225,-194.532C225,-185.361 225,-175.245 225,-167.293"/>
<polygon fill="midnightblue" stroke="midnightblue" points="221.5,-194.679 225,-204.679 228.5,-194.679 221.5,-194.679"/>
</g>
<!-- Node8 -->
<g id="node8" class="node"><title>Node8</title>
<g id="a_node8"><a xlink:href="../../d3/d56/SHitMap__v1_8h.html" target="_top" xlink:title="fun4all/interfaces\l/SHitMap_v1.h">
<polygon fill="none" stroke="black" points="288.5,-137 288.5,-167 379.5,-167 379.5,-137 288.5,-137"/>
<text text-anchor="start" x="296.5" y="-155" font-family="FreeSans" font-size="10.00">fun4all/interfaces</text>
<text text-anchor="middle" x="334" y="-144" font-family="FreeSans" font-size="10.00">/SHitMap_v1.h</text>
</a>
</g>
</g>
<!-- Node1&#45;&gt;Node8 -->
<g id="edge7" class="edge"><title>Node1&#45;&gt;Node8</title>
<path fill="none" stroke="midnightblue" d="M256.996,-199.626C274.188,-189.217 295.003,-176.613 310.655,-167.135"/>
<polygon fill="midnightblue" stroke="midnightblue" points="255.124,-196.668 248.383,-204.841 258.75,-202.656 255.124,-196.668"/>
</g>
<!-- Node3 -->
<g id="node3" class="node"><title>Node3</title>
<g id="a_node3"><a xlink:href="../../d4/d9a/SEvent_8C.html" target="_top" xlink:title="fun4all/interfaces\l/SEvent.C">
<polygon fill="none" stroke="black" points="-0.5,-69 -0.5,-99 90.5,-99 90.5,-69 -0.5,-69"/>
<text text-anchor="start" x="7.5" y="-87" font-family="FreeSans" font-size="10.00">fun4all/interfaces</text>
<text text-anchor="middle" x="45" y="-76" font-family="FreeSans" font-size="10.00">/SEvent.C</text>
</a>
</g>
</g>
<!-- Node2&#45;&gt;Node3 -->
<g id="edge2" class="edge"><title>Node2&#45;&gt;Node3</title>
<path fill="none" stroke="midnightblue" d="M93.1684,-129.776C82.4477,-119.81 69.9529,-108.196 60.3759,-99.2931"/>
<polygon fill="midnightblue" stroke="midnightblue" points="90.8868,-132.434 100.594,-136.679 95.6527,-127.307 90.8868,-132.434"/>
</g>
<!-- Node4 -->
<g id="node4" class="node"><title>Node4</title>
<g id="a_node4"><a xlink:href="../../de/d46/SEvent__v1_8h.html" target="_top" xlink:title="fun4all/interfaces\l/SEvent_v1.h">
<polygon fill="none" stroke="black" points="108.5,-69 108.5,-99 199.5,-99 199.5,-69 108.5,-69"/>
<text text-anchor="start" x="116.5" y="-87" font-family="FreeSans" font-size="10.00">fun4all/interfaces</text>
<text text-anchor="middle" x="154" y="-76" font-family="FreeSans" font-size="10.00">/SEvent_v1.h</text>
</a>
</g>
</g>
<!-- Node2&#45;&gt;Node4 -->
<g id="edge3" class="edge"><title>Node2&#45;&gt;Node4</title>
<path fill="none" stroke="midnightblue" d="M129.402,-127.723C134.859,-118.244 140.993,-107.591 145.771,-99.2931"/>
<polygon fill="midnightblue" stroke="midnightblue" points="126.202,-126.266 124.245,-136.679 132.268,-129.759 126.202,-126.266"/>
</g>
<!-- Node5 -->
<g id="node5" class="node"><title>Node5</title>
<g id="a_node5"><a xlink:href="../../d3/d47/SEvent__v1_8C.html" target="_top" xlink:title="fun4all/interfaces\l/SEvent_v1.C">
<polygon fill="none" stroke="black" points="77.5,-1 77.5,-31 168.5,-31 168.5,-1 77.5,-1"/>
<text text-anchor="start" x="85.5" y="-19" font-family="FreeSans" font-size="10.00">fun4all/interfaces</text>
<text text-anchor="middle" x="123" y="-8" font-family="FreeSans" font-size="10.00">/SEvent_v1.C</text>
</a>
</g>
</g>
<!-- Node4&#45;&gt;Node5 -->
<g id="edge4" class="edge"><title>Node4&#45;&gt;Node5</title>
<path fill="none" stroke="midnightblue" d="M142.928,-59.4263C138.511,-50.0226 133.57,-39.5042 129.713,-31.2931"/>
<polygon fill="midnightblue" stroke="midnightblue" points="139.854,-61.1157 147.273,-68.679 146.19,-58.1397 139.854,-61.1157"/>
</g>
<!-- Node6 -->
<g id="node6" class="node"><title>Node6</title>
<g id="a_node6"><a xlink:href="../../dd/d12/ReadMySql_8C.html" target="_top" xlink:title="fun4all/modules/ReadMySql.C">
<polygon fill="none" stroke="black" points="187,-6.5 187,-25.5 333,-25.5 333,-6.5 187,-6.5"/>
<text text-anchor="middle" x="260" y="-13.5" font-family="FreeSans" font-size="10.00">fun4all/modules/ReadMySql.C</text>
</a>
</g>
</g>
<!-- Node4&#45;&gt;Node6 -->
<g id="edge5" class="edge"><title>Node4&#45;&gt;Node6</title>
<path fill="none" stroke="midnightblue" d="M185.308,-63.5061C205.467,-50.9544 230.686,-35.2522 246.056,-25.6819"/>
<polygon fill="midnightblue" stroke="midnightblue" points="183.379,-60.5846 176.74,-68.8413 187.079,-66.5269 183.379,-60.5846"/>
</g>
<!-- Node8&#45;&gt;Node6 -->
<g id="edge9" class="edge"><title>Node8&#45;&gt;Node6</title>
<path fill="none" stroke="midnightblue" d="M305.551,-130.407C295.796,-122.002 285.669,-111.538 279,-100 264.871,-75.555 261.249,-41.3841 260.32,-25.6076"/>
<polygon fill="midnightblue" stroke="midnightblue" points="303.614,-133.344 313.572,-136.96 308.043,-127.923 303.614,-133.344"/>
</g>
<!-- Node9 -->
<g id="node9" class="node"><title>Node9</title>
<g id="a_node9"><a xlink:href="../../db/d6c/SHitMap__v1_8C.html" target="_top" xlink:title="fun4all/interfaces\l/SHitMap_v1.C">
<polygon fill="none" stroke="black" points="288.5,-69 288.5,-99 379.5,-99 379.5,-69 288.5,-69"/>
<text text-anchor="start" x="296.5" y="-87" font-family="FreeSans" font-size="10.00">fun4all/interfaces</text>
<text text-anchor="middle" x="334" y="-76" font-family="FreeSans" font-size="10.00">/SHitMap_v1.C</text>
</a>
</g>
</g>
<!-- Node8&#45;&gt;Node9 -->
<g id="edge8" class="edge"><title>Node8&#45;&gt;Node9</title>
<path fill="none" stroke="midnightblue" d="M334,-126.532C334,-117.361 334,-107.245 334,-99.2931"/>
<polygon fill="midnightblue" stroke="midnightblue" points="330.5,-126.679 334,-136.679 337.5,-126.679 330.5,-126.679"/>
</g>
<!-- Node10 -->
<g id="node10" class="node"><title>Node10</title>
<g id="a_node10"><a xlink:href="../../dd/d2f/SimpleReadMySql_8C.html" target="_top" xlink:title="fun4all/modules/SimpleRead\lMySql.C">
<polygon fill="none" stroke="black" points="398,-69 398,-99 538,-99 538,-69 398,-69"/>
<text text-anchor="start" x="406" y="-87" font-family="FreeSans" font-size="10.00">fun4all/modules/SimpleRead</text>
<text text-anchor="middle" x="468" y="-76" font-family="FreeSans" font-size="10.00">MySql.C</text>
</a>
</g>
</g>
<!-- Node8&#45;&gt;Node10 -->
<g id="edge10" class="edge"><title>Node8&#45;&gt;Node10</title>
<path fill="none" stroke="midnightblue" d="M371.888,-132.339C393.292,-121.796 419.617,-108.83 439.301,-99.1352"/>
<polygon fill="midnightblue" stroke="midnightblue" points="370.171,-129.283 362.746,-136.841 373.264,-135.563 370.171,-129.283"/>
</g>
</g>
</svg>
