<?xml version="1.0" encoding="UTF-8" standalone="no"?>
<!DOCTYPE svg PUBLIC "-//W3C//DTD SVG 1.1//EN"
 "http://www.w3.org/Graphics/SVG/1.1/DTD/svg11.dtd">
<!-- Generated by graphviz version 2.36.0 (20140111.2315)
 -->
<!-- Title: PHTimer::stop Pages: 1 -->
<svg width="518pt" height="82pt"
 viewBox="0.00 0.00 518.00 82.00" xmlns="http://www.w3.org/2000/svg" xmlns:xlink="http://www.w3.org/1999/xlink">
<g id="graph0" class="graph" transform="scale(1 1) rotate(0) translate(4 78)">
<title>PHTimer::stop</title>
<!-- Node1 -->
<g id="node1" class="node"><title>Node1</title>
<polygon fill="#bfbfbf" stroke="black" points="0.5,-30.5 0.5,-49.5 79.5,-49.5 79.5,-30.5 0.5,-30.5"/>
<text text-anchor="middle" x="40" y="-37.5" font-family="FreeSans" font-size="10.00">PHTimer::stop</text>
</g>
<!-- Node2 -->
<g id="node2" class="node"><title>Node2</title>
<g id="a_node2"><a xlink:href="../../d0/d5e/classPHTimer.html#a976738876ad978116fdc4549a3765685" target="_top" xlink:title="retrieve elapsed value since last restart (in ms) ">
<polygon fill="none" stroke="black" points="116,-11.5 116,-30.5 210,-30.5 210,-11.5 116,-11.5"/>
<text text-anchor="middle" x="163" y="-18.5" font-family="FreeSans" font-size="10.00">PHTimer::elapsed</text>
</a>
</g>
</g>
<!-- Node1&#45;&gt;Node2 -->
<g id="edge1" class="edge"><title>Node1&#45;&gt;Node2</title>
<path fill="none" stroke="midnightblue" d="M79.6178,-33.936C87.9596,-32.6262 96.9427,-31.2156 105.802,-29.8245"/>
<polygon fill="midnightblue" stroke="midnightblue" points="106.376,-33.2774 115.712,-28.2684 105.29,-26.3621 106.376,-33.2774"/>
</g>
<!-- Node3 -->
<g id="node3" class="node"><title>Node3</title>
<g id="a_node3"><a xlink:href="../../d0/d5e/classPHTimer.html#aa92e3fe4a0a1799f39743eda9ef9d497" target="_top" xlink:title="gets time from cpu clock counts ">
<polygon fill="none" stroke="black" points="256,-44 256,-74 358,-74 358,-44 256,-44"/>
<text text-anchor="start" x="264" y="-62" font-family="FreeSans" font-size="10.00">PHTimer::get_clock</text>
<text text-anchor="middle" x="307" y="-51" font-family="FreeSans" font-size="10.00">_counts</text>
</a>
</g>
</g>
<!-- Node1&#45;&gt;Node3 -->
<g id="edge5" class="edge"><title>Node1&#45;&gt;Node3</title>
<path fill="none" stroke="midnightblue" d="M79.5333,-42.7628C123.045,-45.8825 194.412,-50.9994 245.402,-54.6552"/>
<polygon fill="midnightblue" stroke="midnightblue" points="245.41,-58.1647 255.634,-55.3889 245.91,-51.1826 245.41,-58.1647"/>
</g>
<!-- Node2&#45;&gt;Node3 -->
<g id="edge2" class="edge"><title>Node2&#45;&gt;Node3</title>
<path fill="none" stroke="midnightblue" d="M199.833,-30.589C213.917,-34.358 230.471,-38.788 246.262,-43.0139"/>
<polygon fill="midnightblue" stroke="midnightblue" points="245.402,-46.4068 255.967,-45.611 247.212,-39.6448 245.402,-46.4068"/>
</g>
<!-- Node4 -->
<g id="node4" class="node"><title>Node4</title>
<g id="a_node4"><a xlink:href="../../d0/d5e/classPHTimer.html#aa75ff2c27aba40e7ef0a934f9a3355c2" target="_top" xlink:title="returns difference between to time ">
<polygon fill="none" stroke="black" points="246.5,-5.5 246.5,-24.5 367.5,-24.5 367.5,-5.5 246.5,-5.5"/>
<text text-anchor="middle" x="307" y="-12.5" font-family="FreeSans" font-size="10.00">PHTimer::get_difference</text>
</a>
</g>
</g>
<!-- Node2&#45;&gt;Node4 -->
<g id="edge3" class="edge"><title>Node2&#45;&gt;Node4</title>
<path fill="none" stroke="midnightblue" d="M210.103,-19.052C218.517,-18.6965 227.465,-18.3184 236.384,-17.9415"/>
<polygon fill="midnightblue" stroke="midnightblue" points="236.568,-21.4369 246.412,-17.5178 236.273,-14.4432 236.568,-21.4369"/>
</g>
<!-- Node5 -->
<g id="node5" class="node"><title>Node5</title>
<g id="a_node5"><a xlink:href="../../d2/db1/classPHTimer_1_1Frequency.html#a023a2d706df9a8bd303810a9ed017f61" target="_top" xlink:title="period accessor ">
<polygon fill="none" stroke="black" points="404.5,-0 404.5,-30 509.5,-30 509.5,-0 404.5,-0"/>
<text text-anchor="start" x="412.5" y="-18" font-family="FreeSans" font-size="10.00">PHTimer::Frequency</text>
<text text-anchor="middle" x="457" y="-7" font-family="FreeSans" font-size="10.00">::period</text>
</a>
</g>
</g>
<!-- Node4&#45;&gt;Node5 -->
<g id="edge4" class="edge"><title>Node4&#45;&gt;Node5</title>
<path fill="none" stroke="midnightblue" d="M367.771,-15C376.42,-15 385.339,-15 394.03,-15"/>
<polygon fill="midnightblue" stroke="midnightblue" points="394.099,-18.5001 404.099,-15 394.099,-11.5001 394.099,-18.5001"/>
</g>
</g>
</svg>
