<?xml version="1.0" encoding="UTF-8" standalone="no"?>
<!DOCTYPE svg PUBLIC "-//W3C//DTD SVG 1.1//EN"
 "http://www.w3.org/Graphics/SVG/1.1/DTD/svg11.dtd">
<!-- Generated by graphviz version 2.36.0 (20140111.2315)
 -->
<!-- Title: PHTimer::elapsed Pages: 1 -->
<svg width="402pt" height="82pt"
 viewBox="0.00 0.00 402.00 82.00" xmlns="http://www.w3.org/2000/svg" xmlns:xlink="http://www.w3.org/1999/xlink">
<g id="graph0" class="graph" transform="scale(1 1) rotate(0) translate(4 78)">
<title>PHTimer::elapsed</title>
<!-- Node1 -->
<g id="node1" class="node"><title>Node1</title>
<polygon fill="#bfbfbf" stroke="black" points="0,-27.5 0,-46.5 94,-46.5 94,-27.5 0,-27.5"/>
<text text-anchor="middle" x="47" y="-34.5" font-family="FreeSans" font-size="10.00">PHTimer::elapsed</text>
</g>
<!-- Node2 -->
<g id="node2" class="node"><title>Node2</title>
<g id="a_node2"><a xlink:href="../../d0/d5e/classPHTimer.html#aa92e3fe4a0a1799f39743eda9ef9d497" target="_top" xlink:title="gets time from cpu clock counts ">
<polygon fill="none" stroke="black" points="140,-44 140,-74 242,-74 242,-44 140,-44"/>
<text text-anchor="start" x="148" y="-62" font-family="FreeSans" font-size="10.00">PHTimer::get_clock</text>
<text text-anchor="middle" x="191" y="-51" font-family="FreeSans" font-size="10.00">_counts</text>
</a>
</g>
</g>
<!-- Node1&#45;&gt;Node2 -->
<g id="edge1" class="edge"><title>Node1&#45;&gt;Node2</title>
<path fill="none" stroke="midnightblue" d="M94.1033,-44.1428C105.492,-45.9071 117.858,-47.8231 129.807,-49.6743"/>
<polygon fill="midnightblue" stroke="midnightblue" points="129.296,-53.1369 139.714,-51.2093 130.368,-46.2194 129.296,-53.1369"/>
</g>
<!-- Node3 -->
<g id="node3" class="node"><title>Node3</title>
<g id="a_node3"><a xlink:href="../../d0/d5e/classPHTimer.html#aa75ff2c27aba40e7ef0a934f9a3355c2" target="_top" xlink:title="returns difference between to time ">
<polygon fill="none" stroke="black" points="130.5,-5.5 130.5,-24.5 251.5,-24.5 251.5,-5.5 130.5,-5.5"/>
<text text-anchor="middle" x="191" y="-12.5" font-family="FreeSans" font-size="10.00">PHTimer::get_difference</text>
</a>
</g>
</g>
<!-- Node1&#45;&gt;Node3 -->
<g id="edge2" class="edge"><title>Node1&#45;&gt;Node3</title>
<path fill="none" stroke="midnightblue" d="M94.1033,-29.8572C102.517,-28.5537 111.465,-27.1673 120.384,-25.7855"/>
<polygon fill="midnightblue" stroke="midnightblue" points="121.065,-29.2218 130.412,-24.232 119.994,-22.3044 121.065,-29.2218"/>
</g>
<!-- Node4 -->
<g id="node4" class="node"><title>Node4</title>
<g id="a_node4"><a xlink:href="../../d2/db1/classPHTimer_1_1Frequency.html#a023a2d706df9a8bd303810a9ed017f61" target="_top" xlink:title="period accessor ">
<polygon fill="none" stroke="black" points="288.5,-0 288.5,-30 393.5,-30 393.5,-0 288.5,-0"/>
<text text-anchor="start" x="296.5" y="-18" font-family="FreeSans" font-size="10.00">PHTimer::Frequency</text>
<text text-anchor="middle" x="341" y="-7" font-family="FreeSans" font-size="10.00">::period</text>
</a>
</g>
</g>
<!-- Node3&#45;&gt;Node4 -->
<g id="edge3" class="edge"><title>Node3&#45;&gt;Node4</title>
<path fill="none" stroke="midnightblue" d="M251.771,-15C260.42,-15 269.339,-15 278.03,-15"/>
<polygon fill="midnightblue" stroke="midnightblue" points="278.099,-18.5001 288.099,-15 278.099,-11.5001 278.099,-18.5001"/>
</g>
</g>
</svg>
