<?xml version="1.0" encoding="UTF-8" standalone="no"?>
<!DOCTYPE svg PUBLIC "-//W3C//DTD SVG 1.1//EN"
 "http://www.w3.org/Graphics/SVG/1.1/DTD/svg11.dtd">
<!-- Generated by graphviz version 2.36.0 (20140111.2315)
 -->
<!-- Title: PHTimer::get_difference Pages: 1 -->
<svg width="490pt" height="66pt"
 viewBox="0.00 0.00 490.00 66.00" xmlns="http://www.w3.org/2000/svg" xmlns:xlink="http://www.w3.org/1999/xlink">
<g id="graph0" class="graph" transform="scale(1 1) rotate(0) translate(4 62)">
<title>PHTimer::get_difference</title>
<!-- Node1 -->
<g id="node1" class="node"><title>Node1</title>
<polygon fill="#bfbfbf" stroke="black" points="0.5,-19.5 0.5,-38.5 121.5,-38.5 121.5,-19.5 0.5,-19.5"/>
<text text-anchor="middle" x="61" y="-26.5" font-family="FreeSans" font-size="10.00">PHTimer::get_difference</text>
</g>
<!-- Node2 -->
<g id="node2" class="node"><title>Node2</title>
<g id="a_node2"><a xlink:href="../../d0/d5e/classPHTimer.html#a976738876ad978116fdc4549a3765685" target="_top" xlink:title="retrieve elapsed value since last restart (in ms) ">
<polygon fill="none" stroke="black" points="158,-19.5 158,-38.5 252,-38.5 252,-19.5 158,-19.5"/>
<text text-anchor="middle" x="205" y="-26.5" font-family="FreeSans" font-size="10.00">PHTimer::elapsed</text>
</a>
</g>
</g>
<!-- Node1&#45;&gt;Node2 -->
<g id="edge1" class="edge"><title>Node1&#45;&gt;Node2</title>
<path fill="none" stroke="midnightblue" d="M131.986,-29C140.689,-29 149.413,-29 157.634,-29"/>
<polygon fill="midnightblue" stroke="midnightblue" points="131.809,-25.5001 121.809,-29 131.809,-32.5001 131.809,-25.5001"/>
</g>
<!-- Node3 -->
<g id="node3" class="node"><title>Node3</title>
<g id="a_node3"><a xlink:href="../../d0/d5e/classPHTimer.html#a888198bd40c6e112b820d6b78406e3aa" target="_top" xlink:title="Dump elapsed time to provided ostream. ">
<polygon fill="none" stroke="black" points="288.5,-38.5 288.5,-57.5 367.5,-57.5 367.5,-38.5 288.5,-38.5"/>
<text text-anchor="middle" x="328" y="-45.5" font-family="FreeSans" font-size="10.00">PHTimer::print</text>
</a>
</g>
</g>
<!-- Node2&#45;&gt;Node3 -->
<g id="edge2" class="edge"><title>Node2&#45;&gt;Node3</title>
<path fill="none" stroke="midnightblue" d="M261.978,-37.79C270.821,-39.1785 279.793,-40.5873 288.134,-41.897"/>
<polygon fill="midnightblue" stroke="midnightblue" points="262.512,-34.331 252.09,-36.2373 261.426,-41.2462 262.512,-34.331"/>
</g>
<!-- Node5 -->
<g id="node5" class="node"><title>Node5</title>
<g id="a_node5"><a xlink:href="../../d0/d5e/classPHTimer.html#adce6f9a85834e59bd154b9c624ee4e41" target="_top" xlink:title="stops the counter ">
<polygon fill="none" stroke="black" points="288.5,-0.5 288.5,-19.5 367.5,-19.5 367.5,-0.5 288.5,-0.5"/>
<text text-anchor="middle" x="328" y="-7.5" font-family="FreeSans" font-size="10.00">PHTimer::stop</text>
</a>
</g>
</g>
<!-- Node2&#45;&gt;Node5 -->
<g id="edge4" class="edge"><title>Node2&#45;&gt;Node5</title>
<path fill="none" stroke="midnightblue" d="M261.978,-20.21C270.821,-18.8215 279.793,-17.4127 288.134,-16.103"/>
<polygon fill="midnightblue" stroke="midnightblue" points="261.426,-16.7538 252.09,-21.7627 262.512,-23.669 261.426,-16.7538"/>
</g>
<!-- Node4 -->
<g id="node4" class="node"><title>Node4</title>
<g id="a_node4"><a xlink:href="../../d0/d5e/classPHTimer.html#a01cc1f85cc7a3303d38cb5a7a2f0a749" target="_top" xlink:title="test PHTimer for a given amount of time (in ms) ">
<polygon fill="none" stroke="black" points="404.5,-38.5 404.5,-57.5 481.5,-57.5 481.5,-38.5 404.5,-38.5"/>
<text text-anchor="middle" x="443" y="-45.5" font-family="FreeSans" font-size="10.00">PHTimer::test</text>
</a>
</g>
</g>
<!-- Node3&#45;&gt;Node4 -->
<g id="edge3" class="edge"><title>Node3&#45;&gt;Node4</title>
<path fill="none" stroke="midnightblue" d="M377.833,-48C386.72,-48 395.865,-48 404.367,-48"/>
<polygon fill="midnightblue" stroke="midnightblue" points="377.572,-44.5001 367.572,-48 377.572,-51.5001 377.572,-44.5001"/>
</g>
</g>
</svg>
