<?xml version="1.0" encoding="UTF-8" standalone="no"?>
<!DOCTYPE svg PUBLIC "-//W3C//DTD SVG 1.1//EN"
 "http://www.w3.org/Graphics/SVG/1.1/DTD/svg11.dtd">
<!-- Generated by graphviz version 2.36.0 (20140111.2315)
 -->
<!-- Title: PHTimer::elapsed Pages: 1 -->
<svg width="332pt" height="66pt"
 viewBox="0.00 0.00 332.00 66.00" xmlns="http://www.w3.org/2000/svg" xmlns:xlink="http://www.w3.org/1999/xlink">
<g id="graph0" class="graph" transform="scale(1 1) rotate(0) translate(4 62)">
<title>PHTimer::elapsed</title>
<!-- Node1 -->
<g id="node1" class="node"><title>Node1</title>
<polygon fill="#bfbfbf" stroke="black" points="0,-19.5 0,-38.5 94,-38.5 94,-19.5 0,-19.5"/>
<text text-anchor="middle" x="47" y="-26.5" font-family="FreeSans" font-size="10.00">PHTimer::elapsed</text>
</g>
<!-- Node2 -->
<g id="node2" class="node"><title>Node2</title>
<g id="a_node2"><a xlink:href="../../d0/d5e/classPHTimer.html#a888198bd40c6e112b820d6b78406e3aa" target="_top" xlink:title="Dump elapsed time to provided ostream. ">
<polygon fill="none" stroke="black" points="130.5,-38.5 130.5,-57.5 209.5,-57.5 209.5,-38.5 130.5,-38.5"/>
<text text-anchor="middle" x="170" y="-45.5" font-family="FreeSans" font-size="10.00">PHTimer::print</text>
</a>
</g>
</g>
<!-- Node1&#45;&gt;Node2 -->
<g id="edge1" class="edge"><title>Node1&#45;&gt;Node2</title>
<path fill="none" stroke="midnightblue" d="M103.978,-37.79C112.821,-39.1785 121.793,-40.5873 130.134,-41.897"/>
<polygon fill="midnightblue" stroke="midnightblue" points="104.512,-34.331 94.0901,-36.2373 103.426,-41.2462 104.512,-34.331"/>
</g>
<!-- Node4 -->
<g id="node4" class="node"><title>Node4</title>
<g id="a_node4"><a xlink:href="../../d0/d5e/classPHTimer.html#adce6f9a85834e59bd154b9c624ee4e41" target="_top" xlink:title="stops the counter ">
<polygon fill="none" stroke="black" points="130.5,-0.5 130.5,-19.5 209.5,-19.5 209.5,-0.5 130.5,-0.5"/>
<text text-anchor="middle" x="170" y="-7.5" font-family="FreeSans" font-size="10.00">PHTimer::stop</text>
</a>
</g>
</g>
<!-- Node1&#45;&gt;Node4 -->
<g id="edge3" class="edge"><title>Node1&#45;&gt;Node4</title>
<path fill="none" stroke="midnightblue" d="M103.978,-20.21C112.821,-18.8215 121.793,-17.4127 130.134,-16.103"/>
<polygon fill="midnightblue" stroke="midnightblue" points="103.426,-16.7538 94.0901,-21.7627 104.512,-23.669 103.426,-16.7538"/>
</g>
<!-- Node3 -->
<g id="node3" class="node"><title>Node3</title>
<g id="a_node3"><a xlink:href="../../d0/d5e/classPHTimer.html#a01cc1f85cc7a3303d38cb5a7a2f0a749" target="_top" xlink:title="test PHTimer for a given amount of time (in ms) ">
<polygon fill="none" stroke="black" points="246.5,-38.5 246.5,-57.5 323.5,-57.5 323.5,-38.5 246.5,-38.5"/>
<text text-anchor="middle" x="285" y="-45.5" font-family="FreeSans" font-size="10.00">PHTimer::test</text>
</a>
</g>
</g>
<!-- Node2&#45;&gt;Node3 -->
<g id="edge2" class="edge"><title>Node2&#45;&gt;Node3</title>
<path fill="none" stroke="midnightblue" d="M219.833,-48C228.72,-48 237.865,-48 246.367,-48"/>
<polygon fill="midnightblue" stroke="midnightblue" points="219.572,-44.5001 209.572,-48 219.572,-51.5001 219.572,-44.5001"/>
</g>
</g>
</svg>
