<?xml version="1.0" encoding="UTF-8" standalone="no"?>
<!DOCTYPE svg PUBLIC "-//W3C//DTD SVG 1.1//EN"
 "http://www.w3.org/Graphics/SVG/1.1/DTD/svg11.dtd">
<!-- Generated by graphviz version 2.36.0 (20140111.2315)
 -->
<!-- Title: PHTimer::get_clock_counts Pages: 1 -->
<svg width="470pt" height="104pt"
 viewBox="0.00 0.00 470.00 104.00" xmlns="http://www.w3.org/2000/svg" xmlns:xlink="http://www.w3.org/1999/xlink">
<g id="graph0" class="graph" transform="scale(1 1) rotate(0) translate(4 100)">
<title>PHTimer::get_clock_counts</title>
<!-- Node1 -->
<g id="node1" class="node"><title>Node1</title>
<polygon fill="#bfbfbf" stroke="black" points="0,-33 0,-63 102,-63 102,-33 0,-33"/>
<text text-anchor="start" x="8" y="-51" font-family="FreeSans" font-size="10.00">PHTimer::get_clock</text>
<text text-anchor="middle" x="51" y="-40" font-family="FreeSans" font-size="10.00">_counts</text>
</g>
<!-- Node2 -->
<g id="node2" class="node"><title>Node2</title>
<g id="a_node2"><a xlink:href="../../d0/d5e/classPHTimer.html#a976738876ad978116fdc4549a3765685" target="_top" xlink:title="retrieve elapsed value since last restart (in ms) ">
<polygon fill="none" stroke="black" points="138,-76.5 138,-95.5 232,-95.5 232,-76.5 138,-76.5"/>
<text text-anchor="middle" x="185" y="-83.5" font-family="FreeSans" font-size="10.00">PHTimer::elapsed</text>
</a>
</g>
</g>
<!-- Node1&#45;&gt;Node2 -->
<g id="edge1" class="edge"><title>Node1&#45;&gt;Node2</title>
<path fill="none" stroke="midnightblue" d="M112.267,-65.3495C125.451,-69.1449 138.942,-73.0287 150.615,-76.3891"/>
<polygon fill="midnightblue" stroke="midnightblue" points="112.858,-61.8777 102.28,-62.4746 110.922,-68.6045 112.858,-61.8777"/>
</g>
<!-- Node5 -->
<g id="node5" class="node"><title>Node5</title>
<g id="a_node5"><a xlink:href="../../d0/d5e/classPHTimer.html#adce6f9a85834e59bd154b9c624ee4e41" target="_top" xlink:title="stops the counter ">
<polygon fill="none" stroke="black" points="268.5,-38.5 268.5,-57.5 347.5,-57.5 347.5,-38.5 268.5,-38.5"/>
<text text-anchor="middle" x="308" y="-45.5" font-family="FreeSans" font-size="10.00">PHTimer::stop</text>
</a>
</g>
</g>
<!-- Node1&#45;&gt;Node5 -->
<g id="edge7" class="edge"><title>Node1&#45;&gt;Node5</title>
<path fill="none" stroke="midnightblue" d="M112.09,-48C160.383,-48 226.786,-48 268.28,-48"/>
<polygon fill="midnightblue" stroke="midnightblue" points="112.076,-44.5001 102.076,-48 112.076,-51.5001 112.076,-44.5001"/>
</g>
<!-- Node6 -->
<g id="node6" class="node"><title>Node6</title>
<g id="a_node6"><a xlink:href="../../d0/d5e/classPHTimer.html#a433d96c3401380d49ff01acfd16ac69c" target="_top" xlink:title="Restart timer. ">
<polygon fill="none" stroke="black" points="141,-0.5 141,-19.5 229,-19.5 229,-0.5 141,-0.5"/>
<text text-anchor="middle" x="185" y="-7.5" font-family="FreeSans" font-size="10.00">PHTimer::restart</text>
</a>
</g>
</g>
<!-- Node1&#45;&gt;Node6 -->
<g id="edge5" class="edge"><title>Node1&#45;&gt;Node6</title>
<path fill="none" stroke="midnightblue" d="M112.267,-30.6505C125.451,-26.8551 138.942,-22.9713 150.615,-19.6109"/>
<polygon fill="midnightblue" stroke="midnightblue" points="110.922,-27.3955 102.28,-33.5254 112.858,-34.1223 110.922,-27.3955"/>
</g>
<!-- Node3 -->
<g id="node3" class="node"><title>Node3</title>
<g id="a_node3"><a xlink:href="../../d0/d5e/classPHTimer.html#a888198bd40c6e112b820d6b78406e3aa" target="_top" xlink:title="Dump elapsed time to provided ostream. ">
<polygon fill="none" stroke="black" points="268.5,-76.5 268.5,-95.5 347.5,-95.5 347.5,-76.5 268.5,-76.5"/>
<text text-anchor="middle" x="308" y="-83.5" font-family="FreeSans" font-size="10.00">PHTimer::print</text>
</a>
</g>
</g>
<!-- Node2&#45;&gt;Node3 -->
<g id="edge2" class="edge"><title>Node2&#45;&gt;Node3</title>
<path fill="none" stroke="midnightblue" d="M242.263,-86C251.014,-86 259.883,-86 268.134,-86"/>
<polygon fill="midnightblue" stroke="midnightblue" points="242.09,-82.5001 232.09,-86 242.09,-89.5001 242.09,-82.5001"/>
</g>
<!-- Node2&#45;&gt;Node5 -->
<g id="edge4" class="edge"><title>Node2&#45;&gt;Node5</title>
<path fill="none" stroke="midnightblue" d="M226.377,-73.3196C242.726,-68.1852 261.288,-62.3559 276.476,-57.5859"/>
<polygon fill="midnightblue" stroke="midnightblue" points="225.025,-70.0755 216.533,-76.411 227.123,-76.7539 225.025,-70.0755"/>
</g>
<!-- Node4 -->
<g id="node4" class="node"><title>Node4</title>
<g id="a_node4"><a xlink:href="../../d0/d5e/classPHTimer.html#a01cc1f85cc7a3303d38cb5a7a2f0a749" target="_top" xlink:title="test PHTimer for a given amount of time (in ms) ">
<polygon fill="none" stroke="black" points="384.5,-38.5 384.5,-57.5 461.5,-57.5 461.5,-38.5 384.5,-38.5"/>
<text text-anchor="middle" x="423" y="-45.5" font-family="FreeSans" font-size="10.00">PHTimer::test</text>
</a>
</g>
</g>
<!-- Node3&#45;&gt;Node4 -->
<g id="edge3" class="edge"><title>Node3&#45;&gt;Node4</title>
<path fill="none" stroke="midnightblue" d="M347.14,-73.1741C362.302,-68.0753 379.444,-62.3109 393.494,-57.5859"/>
<polygon fill="midnightblue" stroke="midnightblue" points="345.877,-69.9061 337.515,-76.411 348.109,-76.5409 345.877,-69.9061"/>
</g>
<!-- Node6&#45;&gt;Node4 -->
<g id="edge6" class="edge"><title>Node6&#45;&gt;Node4</title>
<path fill="none" stroke="midnightblue" d="M239.177,-14.418C270.924,-17.5067 311.952,-22.2897 348,-29 361.431,-31.5001 376.034,-35.0642 388.691,-38.4313"/>
<polygon fill="midnightblue" stroke="midnightblue" points="239.499,-10.933 229.214,-13.4745 238.839,-17.9018 239.499,-10.933"/>
</g>
</g>
</svg>
