<?xml version="1.0" encoding="UTF-8" standalone="no"?>
<!DOCTYPE svg PUBLIC "-//W3C//DTD SVG 1.1//EN"
 "http://www.w3.org/Graphics/SVG/1.1/DTD/svg11.dtd">
<!-- Generated by graphviz version 2.36.0 (20140111.2315)
 -->
<!-- Title: PHTimer::print Pages: 1 -->
<svg width="518pt" height="93pt"
 viewBox="0.00 0.00 518.00 93.00" xmlns="http://www.w3.org/2000/svg" xmlns:xlink="http://www.w3.org/1999/xlink">
<g id="graph0" class="graph" transform="scale(1 1) rotate(0) translate(4 89)">
<title>PHTimer::print</title>
<!-- Node1 -->
<g id="node1" class="node"><title>Node1</title>
<polygon fill="#bfbfbf" stroke="black" points="0.5,-19.5 0.5,-38.5 79.5,-38.5 79.5,-19.5 0.5,-19.5"/>
<text text-anchor="middle" x="40" y="-26.5" font-family="FreeSans" font-size="10.00">PHTimer::print</text>
</g>
<!-- Node2 -->
<g id="node2" class="node"><title>Node2</title>
<g id="a_node2"><a xlink:href="../../d0/d5e/classPHTimer.html#a976738876ad978116fdc4549a3765685" target="_top" xlink:title="retrieve elapsed value since last restart (in ms) ">
<polygon fill="none" stroke="black" points="116,-38.5 116,-57.5 210,-57.5 210,-38.5 116,-38.5"/>
<text text-anchor="middle" x="163" y="-45.5" font-family="FreeSans" font-size="10.00">PHTimer::elapsed</text>
</a>
</g>
</g>
<!-- Node1&#45;&gt;Node2 -->
<g id="edge1" class="edge"><title>Node1&#45;&gt;Node2</title>
<path fill="none" stroke="midnightblue" d="M79.6178,-35.064C87.9596,-36.3738 96.9427,-37.7844 105.802,-39.1755"/>
<polygon fill="midnightblue" stroke="midnightblue" points="105.29,-42.6379 115.712,-40.7316 106.376,-35.7226 105.29,-42.6379"/>
</g>
<!-- Node6 -->
<g id="node6" class="node"><title>Node6</title>
<g id="a_node6"><a xlink:href="../../d0/d5e/classPHTimer.html#ac0fd0e47b6cd0a290f3db3ee4dae3ab5" target="_top" xlink:title="print a message (formated) to a stream ">
<polygon fill="none" stroke="black" points="118,-0.5 118,-19.5 208,-19.5 208,-0.5 118,-0.5"/>
<text text-anchor="middle" x="163" y="-7.5" font-family="FreeSans" font-size="10.00">PHTimer::PRINT</text>
</a>
</g>
</g>
<!-- Node1&#45;&gt;Node6 -->
<g id="edge5" class="edge"><title>Node1&#45;&gt;Node6</title>
<path fill="none" stroke="midnightblue" d="M79.6178,-22.936C88.5572,-21.5323 98.2331,-20.013 107.704,-18.5258"/>
<polygon fill="midnightblue" stroke="midnightblue" points="108.52,-21.9406 117.856,-16.9317 107.434,-15.0254 108.52,-21.9406"/>
</g>
<!-- Node3 -->
<g id="node3" class="node"><title>Node3</title>
<g id="a_node3"><a xlink:href="../../d0/d5e/classPHTimer.html#aa92e3fe4a0a1799f39743eda9ef9d497" target="_top" xlink:title="gets time from cpu clock counts ">
<polygon fill="none" stroke="black" points="256,-55 256,-85 358,-85 358,-55 256,-55"/>
<text text-anchor="start" x="264" y="-73" font-family="FreeSans" font-size="10.00">PHTimer::get_clock</text>
<text text-anchor="middle" x="307" y="-62" font-family="FreeSans" font-size="10.00">_counts</text>
</a>
</g>
</g>
<!-- Node2&#45;&gt;Node3 -->
<g id="edge2" class="edge"><title>Node2&#45;&gt;Node3</title>
<path fill="none" stroke="midnightblue" d="M210.103,-55.1428C221.492,-56.9071 233.858,-58.8231 245.807,-60.6743"/>
<polygon fill="midnightblue" stroke="midnightblue" points="245.296,-64.1369 255.714,-62.2093 246.368,-57.2194 245.296,-64.1369"/>
</g>
<!-- Node4 -->
<g id="node4" class="node"><title>Node4</title>
<g id="a_node4"><a xlink:href="../../d0/d5e/classPHTimer.html#aa75ff2c27aba40e7ef0a934f9a3355c2" target="_top" xlink:title="returns difference between to time ">
<polygon fill="none" stroke="black" points="246.5,-16.5 246.5,-35.5 367.5,-35.5 367.5,-16.5 246.5,-16.5"/>
<text text-anchor="middle" x="307" y="-23.5" font-family="FreeSans" font-size="10.00">PHTimer::get_difference</text>
</a>
</g>
</g>
<!-- Node2&#45;&gt;Node4 -->
<g id="edge3" class="edge"><title>Node2&#45;&gt;Node4</title>
<path fill="none" stroke="midnightblue" d="M210.103,-40.8572C218.517,-39.5537 227.465,-38.1673 236.384,-36.7855"/>
<polygon fill="midnightblue" stroke="midnightblue" points="237.065,-40.2218 246.412,-35.232 235.994,-33.3044 237.065,-40.2218"/>
</g>
<!-- Node5 -->
<g id="node5" class="node"><title>Node5</title>
<g id="a_node5"><a xlink:href="../../d2/db1/classPHTimer_1_1Frequency.html#a023a2d706df9a8bd303810a9ed017f61" target="_top" xlink:title="period accessor ">
<polygon fill="none" stroke="black" points="404.5,-11 404.5,-41 509.5,-41 509.5,-11 404.5,-11"/>
<text text-anchor="start" x="412.5" y="-29" font-family="FreeSans" font-size="10.00">PHTimer::Frequency</text>
<text text-anchor="middle" x="457" y="-18" font-family="FreeSans" font-size="10.00">::period</text>
</a>
</g>
</g>
<!-- Node4&#45;&gt;Node5 -->
<g id="edge4" class="edge"><title>Node4&#45;&gt;Node5</title>
<path fill="none" stroke="midnightblue" d="M367.771,-26C376.42,-26 385.339,-26 394.03,-26"/>
<polygon fill="midnightblue" stroke="midnightblue" points="394.099,-29.5001 404.099,-26 394.099,-22.5001 394.099,-29.5001"/>
</g>
</g>
</svg>
