<?xml version="1.0" encoding="UTF-8" standalone="no"?>
<!DOCTYPE svg PUBLIC "-//W3C//DTD SVG 1.1//EN"
 "http://www.w3.org/Graphics/SVG/1.1/DTD/svg11.dtd">
<!-- Generated by graphviz version 2.36.0 (20140111.2315)
 -->
<!-- Title: PHTimer::PRINT Pages: 1 -->
<svg width="374pt" height="180pt"
 viewBox="0.00 0.00 374.00 180.00" xmlns="http://www.w3.org/2000/svg" xmlns:xlink="http://www.w3.org/1999/xlink">
<g id="graph0" class="graph" transform="scale(1 1) rotate(0) translate(4 176)">
<title>PHTimer::PRINT</title>
<!-- Node1 -->
<g id="node1" class="node"><title>Node1</title>
<polygon fill="#bfbfbf" stroke="black" points="0,-76.5 0,-95.5 90,-95.5 90,-76.5 0,-76.5"/>
<text text-anchor="middle" x="45" y="-83.5" font-family="FreeSans" font-size="10.00">PHTimer::PRINT</text>
</g>
<!-- Node2 -->
<g id="node2" class="node"><title>Node2</title>
<g id="a_node2"><a xlink:href="../../d0/d5e/classPHTimer.html#a888198bd40c6e112b820d6b78406e3aa" target="_top" xlink:title="Dump elapsed time to provided ostream. ">
<polygon fill="none" stroke="black" points="149.5,-152.5 149.5,-171.5 228.5,-171.5 228.5,-152.5 149.5,-152.5"/>
<text text-anchor="middle" x="189" y="-159.5" font-family="FreeSans" font-size="10.00">PHTimer::print</text>
</a>
</g>
</g>
<!-- Node1&#45;&gt;Node2 -->
<g id="edge1" class="edge"><title>Node1&#45;&gt;Node2</title>
<path fill="none" stroke="midnightblue" d="M67.2474,-101.549C82.9633,-112.611 105.166,-127.342 126,-138 136.687,-143.467 148.923,-148.453 159.686,-152.446"/>
<polygon fill="midnightblue" stroke="midnightblue" points="68.9749,-98.4814 58.8031,-95.5175 64.9065,-104.178 68.9749,-98.4814"/>
</g>
<!-- Node3 -->
<g id="node3" class="node"><title>Node3</title>
<g id="a_node3"><a xlink:href="../../d0/d5e/classPHTimer.html#a01cc1f85cc7a3303d38cb5a7a2f0a749" target="_top" xlink:title="test PHTimer for a given amount of time (in ms) ">
<polygon fill="none" stroke="black" points="288.5,-133.5 288.5,-152.5 365.5,-152.5 365.5,-133.5 288.5,-133.5"/>
<text text-anchor="middle" x="327" y="-140.5" font-family="FreeSans" font-size="10.00">PHTimer::test</text>
</a>
</g>
</g>
<!-- Node1&#45;&gt;Node3 -->
<g id="edge6" class="edge"><title>Node1&#45;&gt;Node3</title>
<path fill="none" stroke="midnightblue" d="M94.3558,-97.8579C104.774,-100.308 115.738,-102.808 126,-105 182.338,-117.036 248.016,-129.15 288.299,-136.364"/>
<polygon fill="midnightblue" stroke="midnightblue" points="95.1141,-94.4407 84.576,-95.5358 93.497,-101.251 95.1141,-94.4407"/>
</g>
<!-- Node4 -->
<g id="node4" class="node"><title>Node4</title>
<g id="a_node4"><a xlink:href="../../d3/de2/classPHTimeServer.html#afe7fec18fe00cc4dbd9bbcafef2d1a58" target="_top" xlink:title="dump all registered timer value. ">
<polygon fill="none" stroke="black" points="137,-76.5 137,-95.5 241,-95.5 241,-76.5 137,-76.5"/>
<text text-anchor="middle" x="189" y="-83.5" font-family="FreeSans" font-size="10.00">PHTimeServer::print</text>
</a>
</g>
</g>
<!-- Node1&#45;&gt;Node4 -->
<g id="edge3" class="edge"><title>Node1&#45;&gt;Node4</title>
<path fill="none" stroke="midnightblue" d="M100.467,-86C112.443,-86 125.083,-86 136.92,-86"/>
<polygon fill="midnightblue" stroke="midnightblue" points="100.151,-82.5001 90.1513,-86 100.151,-89.5001 100.151,-82.5001"/>
</g>
<!-- Node5 -->
<g id="node5" class="node"><title>Node5</title>
<g id="a_node5"><a xlink:href="../../d0/d5e/classPHTimer.html#a368d0ba41f3f57737731c4bfb545a954" target="_top" xlink:title="Dump statistics. ">
<polygon fill="none" stroke="black" points="138.5,-38.5 138.5,-57.5 239.5,-57.5 239.5,-38.5 138.5,-38.5"/>
<text text-anchor="middle" x="189" y="-45.5" font-family="FreeSans" font-size="10.00">PHTimer::print_stat</text>
</a>
</g>
</g>
<!-- Node1&#45;&gt;Node5 -->
<g id="edge4" class="edge"><title>Node1&#45;&gt;Node5</title>
<path fill="none" stroke="midnightblue" d="M91.4929,-73.8258C111.128,-68.5713 133.766,-62.5134 152.179,-57.5859"/>
<polygon fill="midnightblue" stroke="midnightblue" points="90.5879,-70.4448 81.8326,-76.411 92.3975,-77.2069 90.5879,-70.4448"/>
</g>
<!-- Node6 -->
<g id="node6" class="node"><title>Node6</title>
<g id="a_node6"><a xlink:href="../../d3/de2/classPHTimeServer.html#a4a471c05ea4978a9e5f57c24eb12ca8a" target="_top" xlink:title="dump all registered timer statistics. ">
<polygon fill="none" stroke="black" points="126,-0.5 126,-19.5 252,-19.5 252,-0.5 126,-0.5"/>
<text text-anchor="middle" x="189" y="-7.5" font-family="FreeSans" font-size="10.00">PHTimeServer::print_stat</text>
</a>
</g>
</g>
<!-- Node1&#45;&gt;Node6 -->
<g id="edge5" class="edge"><title>Node1&#45;&gt;Node6</title>
<path fill="none" stroke="midnightblue" d="M64.7237,-69.9986C80.2705,-57.3908 103.417,-40.1387 126,-29 133.472,-25.3148 141.804,-22.1726 149.876,-19.5673"/>
<polygon fill="midnightblue" stroke="midnightblue" points="62.3926,-67.3846 56.9202,-76.4567 66.8556,-72.7773 62.3926,-67.3846"/>
</g>
<!-- Node2&#45;&gt;Node3 -->
<g id="edge2" class="edge"><title>Node2&#45;&gt;Node3</title>
<path fill="none" stroke="midnightblue" d="M238.533,-155.22C254.873,-152.937 272.85,-150.425 288.235,-148.276"/>
<polygon fill="midnightblue" stroke="midnightblue" points="238.028,-151.756 228.608,-156.606 238.996,-158.689 238.028,-151.756"/>
</g>
</g>
</svg>
