<?xml version="1.0" encoding="UTF-8" standalone="no"?>
<!DOCTYPE svg PUBLIC "-//W3C//DTD SVG 1.1//EN"
 "http://www.w3.org/Graphics/SVG/1.1/DTD/svg11.dtd">
<!-- Generated by graphviz version 2.36.0 (20140111.2315)
 -->
<!-- Title: PHTimer::test Pages: 1 -->
<svg width="640pt" height="109pt"
 viewBox="0.00 0.00 640.00 109.00" xmlns="http://www.w3.org/2000/svg" xmlns:xlink="http://www.w3.org/1999/xlink">
<g id="graph0" class="graph" transform="scale(1 1) rotate(0) translate(4 105)">
<title>PHTimer::test</title>
<!-- Node1 -->
<g id="node1" class="node"><title>Node1</title>
<polygon fill="#bfbfbf" stroke="black" points="0.5,-38.5 0.5,-57.5 77.5,-57.5 77.5,-38.5 0.5,-38.5"/>
<text text-anchor="middle" x="39" y="-45.5" font-family="FreeSans" font-size="10.00">PHTimer::test</text>
</g>
<!-- Node2 -->
<g id="node2" class="node"><title>Node2</title>
<g id="a_node2"><a xlink:href="../../d0/d5e/classPHTimer.html#a888198bd40c6e112b820d6b78406e3aa" target="_top" xlink:title="Dump elapsed time to provided ostream. ">
<polygon fill="none" stroke="black" points="118.5,-76.5 118.5,-95.5 197.5,-95.5 197.5,-76.5 118.5,-76.5"/>
<text text-anchor="middle" x="158" y="-83.5" font-family="FreeSans" font-size="10.00">PHTimer::print</text>
</a>
</g>
</g>
<!-- Node1&#45;&gt;Node2 -->
<g id="edge1" class="edge"><title>Node1&#45;&gt;Node2</title>
<path fill="none" stroke="midnightblue" d="M69.524,-57.589C84.2119,-62.3594 102.16,-68.1888 117.968,-73.3229"/>
<polygon fill="midnightblue" stroke="midnightblue" points="116.893,-76.6538 127.485,-76.4141 119.056,-69.9961 116.893,-76.6538"/>
</g>
<!-- Node7 -->
<g id="node7" class="node"><title>Node7</title>
<g id="a_node7"><a xlink:href="../../d0/d5e/classPHTimer.html#ac0fd0e47b6cd0a290f3db3ee4dae3ab5" target="_top" xlink:title="print a message (formated) to a stream ">
<polygon fill="none" stroke="black" points="240,-38.5 240,-57.5 330,-57.5 330,-38.5 240,-38.5"/>
<text text-anchor="middle" x="285" y="-45.5" font-family="FreeSans" font-size="10.00">PHTimer::PRINT</text>
</a>
</g>
</g>
<!-- Node1&#45;&gt;Node7 -->
<g id="edge7" class="edge"><title>Node1&#45;&gt;Node7</title>
<path fill="none" stroke="midnightblue" d="M77.5903,-48C118.23,-48 183.38,-48 229.606,-48"/>
<polygon fill="midnightblue" stroke="midnightblue" points="229.751,-51.5001 239.75,-48 229.75,-44.5001 229.751,-51.5001"/>
</g>
<!-- Node8 -->
<g id="node8" class="node"><title>Node8</title>
<g id="a_node8"><a xlink:href="../../d0/d5e/classPHTimer.html#a433d96c3401380d49ff01acfd16ac69c" target="_top" xlink:title="Restart timer. ">
<polygon fill="none" stroke="black" points="114,-0.5 114,-19.5 202,-19.5 202,-0.5 114,-0.5"/>
<text text-anchor="middle" x="158" y="-7.5" font-family="FreeSans" font-size="10.00">PHTimer::restart</text>
</a>
</g>
</g>
<!-- Node1&#45;&gt;Node8 -->
<g id="edge8" class="edge"><title>Node1&#45;&gt;Node8</title>
<path fill="none" stroke="midnightblue" d="M69.524,-38.411C84.2119,-33.6406 102.16,-27.8112 117.968,-22.6771"/>
<polygon fill="midnightblue" stroke="midnightblue" points="119.056,-26.0039 127.485,-19.5859 116.893,-19.3462 119.056,-26.0039"/>
</g>
<!-- Node3 -->
<g id="node3" class="node"><title>Node3</title>
<g id="a_node3"><a xlink:href="../../d0/d5e/classPHTimer.html#a976738876ad978116fdc4549a3765685" target="_top" xlink:title="retrieve elapsed value since last restart (in ms) ">
<polygon fill="none" stroke="black" points="238,-76.5 238,-95.5 332,-95.5 332,-76.5 238,-76.5"/>
<text text-anchor="middle" x="285" y="-83.5" font-family="FreeSans" font-size="10.00">PHTimer::elapsed</text>
</a>
</g>
</g>
<!-- Node2&#45;&gt;Node3 -->
<g id="edge2" class="edge"><title>Node2&#45;&gt;Node3</title>
<path fill="none" stroke="midnightblue" d="M197.524,-86C207.101,-86 217.562,-86 227.797,-86"/>
<polygon fill="midnightblue" stroke="midnightblue" points="227.914,-89.5001 237.914,-86 227.914,-82.5001 227.914,-89.5001"/>
</g>
<!-- Node2&#45;&gt;Node7 -->
<g id="edge6" class="edge"><title>Node2&#45;&gt;Node7</title>
<path fill="none" stroke="midnightblue" d="M190.543,-76.411C206.383,-71.5956 225.773,-65.7012 242.776,-60.532"/>
<polygon fill="midnightblue" stroke="midnightblue" points="243.918,-63.8433 252.467,-57.5859 241.882,-57.1459 243.918,-63.8433"/>
</g>
<!-- Node4 -->
<g id="node4" class="node"><title>Node4</title>
<g id="a_node4"><a xlink:href="../../d0/d5e/classPHTimer.html#aa92e3fe4a0a1799f39743eda9ef9d497" target="_top" xlink:title="gets time from cpu clock counts ">
<polygon fill="none" stroke="black" points="378,-11 378,-41 480,-41 480,-11 378,-11"/>
<text text-anchor="start" x="386" y="-29" font-family="FreeSans" font-size="10.00">PHTimer::get_clock</text>
<text text-anchor="middle" x="429" y="-18" font-family="FreeSans" font-size="10.00">_counts</text>
</a>
</g>
</g>
<!-- Node3&#45;&gt;Node4 -->
<g id="edge3" class="edge"><title>Node3&#45;&gt;Node4</title>
<path fill="none" stroke="midnightblue" d="M309.424,-76.3881C316.669,-73.3982 324.671,-70.0785 332,-67 348.901,-59.9009 367.433,-52.0111 383.669,-45.0636"/>
<polygon fill="midnightblue" stroke="midnightblue" points="385.12,-48.2499 392.934,-41.095 382.363,-41.8154 385.12,-48.2499"/>
</g>
<!-- Node5 -->
<g id="node5" class="node"><title>Node5</title>
<g id="a_node5"><a xlink:href="../../d0/d5e/classPHTimer.html#aa75ff2c27aba40e7ef0a934f9a3355c2" target="_top" xlink:title="returns difference between to time ">
<polygon fill="none" stroke="black" points="368.5,-76.5 368.5,-95.5 489.5,-95.5 489.5,-76.5 368.5,-76.5"/>
<text text-anchor="middle" x="429" y="-83.5" font-family="FreeSans" font-size="10.00">PHTimer::get_difference</text>
</a>
</g>
</g>
<!-- Node3&#45;&gt;Node5 -->
<g id="edge4" class="edge"><title>Node3&#45;&gt;Node5</title>
<path fill="none" stroke="midnightblue" d="M332.103,-86C340.517,-86 349.465,-86 358.384,-86"/>
<polygon fill="midnightblue" stroke="midnightblue" points="358.412,-89.5001 368.412,-86 358.412,-82.5001 358.412,-89.5001"/>
</g>
<!-- Node6 -->
<g id="node6" class="node"><title>Node6</title>
<g id="a_node6"><a xlink:href="../../d2/db1/classPHTimer_1_1Frequency.html#a023a2d706df9a8bd303810a9ed017f61" target="_top" xlink:title="period accessor ">
<polygon fill="none" stroke="black" points="526.5,-71 526.5,-101 631.5,-101 631.5,-71 526.5,-71"/>
<text text-anchor="start" x="534.5" y="-89" font-family="FreeSans" font-size="10.00">PHTimer::Frequency</text>
<text text-anchor="middle" x="579" y="-78" font-family="FreeSans" font-size="10.00">::period</text>
</a>
</g>
</g>
<!-- Node5&#45;&gt;Node6 -->
<g id="edge5" class="edge"><title>Node5&#45;&gt;Node6</title>
<path fill="none" stroke="midnightblue" d="M489.771,-86C498.42,-86 507.339,-86 516.03,-86"/>
<polygon fill="midnightblue" stroke="midnightblue" points="516.099,-89.5001 526.099,-86 516.099,-82.5001 516.099,-89.5001"/>
</g>
<!-- Node8&#45;&gt;Node4 -->
<g id="edge9" class="edge"><title>Node8&#45;&gt;Node4</title>
<path fill="none" stroke="midnightblue" d="M202.22,-12.5707C246.959,-15.2318 317.213,-19.4104 367.469,-22.3996"/>
<polygon fill="midnightblue" stroke="midnightblue" points="367.366,-25.8996 377.556,-22.9996 367.782,-18.912 367.366,-25.8996"/>
</g>
</g>
</svg>
