<?xml version="1.0" encoding="UTF-8" standalone="no"?>
<!DOCTYPE svg PUBLIC "-//W3C//DTD SVG 1.1//EN"
 "http://www.w3.org/Graphics/SVG/1.1/DTD/svg11.dtd">
<!-- Generated by graphviz version 2.36.0 (20140111.2315)
 -->
<!-- Title: fun4all/phool/PHNodeReset.cc Pages: 1 -->
<svg width="752pt" height="476pt"
 viewBox="0.00 0.00 752.00 476.00" xmlns="http://www.w3.org/2000/svg" xmlns:xlink="http://www.w3.org/1999/xlink">
<g id="graph0" class="graph" transform="scale(1 1) rotate(0) translate(4 472)">
<title>fun4all/phool/PHNodeReset.cc</title>
<!-- Node1 -->
<g id="node1" class="node"><title>Node1</title>
<polygon fill="#bfbfbf" stroke="black" points="515,-448.5 515,-467.5 665,-467.5 665,-448.5 515,-448.5"/>
<text text-anchor="middle" x="590" y="-455.5" font-family="FreeSans" font-size="10.00">fun4all/phool/PHNodeReset.cc</text>
</g>
<!-- Node2 -->
<g id="node2" class="node"><title>Node2</title>
<g id="a_node2"><a xlink:href="../../df/dcd/PHNodeReset_8h.html" target="_top" xlink:title="PHNodeReset.h">
<polygon fill="none" stroke="black" points="96.5,-392.5 96.5,-411.5 183.5,-411.5 183.5,-392.5 96.5,-392.5"/>
<text text-anchor="middle" x="140" y="-399.5" font-family="FreeSans" font-size="10.00">PHNodeReset.h</text>
</a>
</g>
</g>
<!-- Node1&#45;&gt;Node2 -->
<g id="edge1" class="edge"><title>Node1&#45;&gt;Node2</title>
<path fill="none" stroke="midnightblue" d="M518.696,-448.444C428.384,-437.606 274.79,-419.175 193.745,-409.449"/>
<polygon fill="midnightblue" stroke="midnightblue" points="194.101,-405.967 183.755,-408.251 193.267,-412.917 194.101,-405.967"/>
</g>
<!-- Node4 -->
<g id="node4" class="node"><title>Node4</title>
<g id="a_node4"><a xlink:href="../../dd/d9b/PHDataNode_8h.html" target="_top" xlink:title="PHDataNode.h">
<polygon fill="none" stroke="black" points="594,-224.5 594,-243.5 676,-243.5 676,-224.5 594,-224.5"/>
<text text-anchor="middle" x="635" y="-231.5" font-family="FreeSans" font-size="10.00">PHDataNode.h</text>
</a>
</g>
</g>
<!-- Node1&#45;&gt;Node4 -->
<g id="edge3" class="edge"><title>Node1&#45;&gt;Node4</title>
<path fill="none" stroke="midnightblue" d="M591.056,-448.441C593.569,-428.578 600.347,-377.856 609,-336 615.031,-306.826 624.049,-273.433 629.724,-253.295"/>
<polygon fill="midnightblue" stroke="midnightblue" points="633.117,-254.158 632.492,-243.581 626.385,-252.239 633.117,-254.158"/>
</g>
<!-- Node7 -->
<g id="node7" class="node"><title>Node7</title>
<polygon fill="none" stroke="#bfbfbf" points="615,-0.5 615,-19.5 669,-19.5 669,-0.5 615,-0.5"/>
<text text-anchor="middle" x="642" y="-7.5" font-family="FreeSans" font-size="10.00">iostream</text>
</g>
<!-- Node1&#45;&gt;Node7 -->
<g id="edge38" class="edge"><title>Node1&#45;&gt;Node7</title>
<path fill="none" stroke="midnightblue" d="M625.718,-448.429C671.211,-435.134 744,-404.827 744,-347 744,-347 744,-347 744,-121 744,-76.3915 698.34,-42.2336 668.119,-24.511"/>
<polygon fill="midnightblue" stroke="midnightblue" points="669.733,-21.4036 659.303,-19.5451 666.298,-27.5026 669.733,-21.4036"/>
</g>
<!-- Node10 -->
<g id="node10" class="node"><title>Node10</title>
<g id="a_node10"><a xlink:href="../../d3/d79/PHIODataNode_8h.html" target="_top" xlink:title="PHIODataNode.h">
<polygon fill="none" stroke="black" points="334,-392.5 334,-411.5 426,-411.5 426,-392.5 334,-392.5"/>
<text text-anchor="middle" x="380" y="-399.5" font-family="FreeSans" font-size="10.00">PHIODataNode.h</text>
</a>
</g>
</g>
<!-- Node1&#45;&gt;Node10 -->
<g id="edge10" class="edge"><title>Node1&#45;&gt;Node10</title>
<path fill="none" stroke="midnightblue" d="M556.725,-448.444C520.552,-439.142 462.623,-424.246 423.019,-414.062"/>
<polygon fill="midnightblue" stroke="midnightblue" points="423.676,-410.617 413.119,-411.516 421.933,-417.397 423.676,-410.617"/>
</g>
<!-- Node21 -->
<g id="node21" class="node"><title>Node21</title>
<g id="a_node21"><a xlink:href="../../df/d32/PHObject_8h.html" target="_top" xlink:title="PHObject.h">
<polygon fill="none" stroke="black" points="618.5,-392.5 618.5,-411.5 685.5,-411.5 685.5,-392.5 618.5,-392.5"/>
<text text-anchor="middle" x="652" y="-399.5" font-family="FreeSans" font-size="10.00">PHObject.h</text>
</a>
</g>
</g>
<!-- Node1&#45;&gt;Node21 -->
<g id="edge35" class="edge"><title>Node1&#45;&gt;Node21</title>
<path fill="none" stroke="midnightblue" d="M599.961,-448.324C609.127,-440.341 622.937,-428.313 634.028,-418.653"/>
<polygon fill="midnightblue" stroke="midnightblue" points="636.615,-421.041 641.857,-411.834 632.018,-415.762 636.615,-421.041"/>
</g>
<!-- Node3 -->
<g id="node3" class="node"><title>Node3</title>
<g id="a_node3"><a xlink:href="../../d0/d82/PHNodeOperation_8h.html" target="_top" xlink:title="PHNodeOperation.h">
<polygon fill="none" stroke="black" points="0,-336.5 0,-355.5 104,-355.5 104,-336.5 0,-336.5"/>
<text text-anchor="middle" x="52" y="-343.5" font-family="FreeSans" font-size="10.00">PHNodeOperation.h</text>
</a>
</g>
</g>
<!-- Node2&#45;&gt;Node3 -->
<g id="edge2" class="edge"><title>Node2&#45;&gt;Node3</title>
<path fill="none" stroke="midnightblue" d="M125.861,-392.324C112.134,-383.9 91.0637,-370.971 74.9357,-361.074"/>
<polygon fill="midnightblue" stroke="midnightblue" points="76.4574,-357.902 66.1036,-355.655 72.7963,-363.868 76.4574,-357.902"/>
</g>
<!-- Node5 -->
<g id="node5" class="node"><title>Node5</title>
<g id="a_node5"><a xlink:href="../../d3/d62/PHNode_8h.html" target="_top" xlink:title="PHNode.h">
<polygon fill="none" stroke="black" points="508,-112.5 508,-131.5 570,-131.5 570,-112.5 508,-112.5"/>
<text text-anchor="middle" x="539" y="-119.5" font-family="FreeSans" font-size="10.00">PHNode.h</text>
</a>
</g>
</g>
<!-- Node4&#45;&gt;Node5 -->
<g id="edge4" class="edge"><title>Node4&#45;&gt;Node5</title>
<path fill="none" stroke="midnightblue" d="M627.467,-224.368C611.484,-206.055 573.952,-163.049 553.28,-139.362"/>
<polygon fill="midnightblue" stroke="midnightblue" points="555.71,-136.824 546.498,-131.591 550.436,-141.427 555.71,-136.824"/>
</g>
<!-- Node4&#45;&gt;Node7 -->
<g id="edge9" class="edge"><title>Node4&#45;&gt;Node7</title>
<path fill="none" stroke="midnightblue" d="M635.274,-224.297C636.304,-191.633 639.955,-75.8661 641.402,-29.9573"/>
<polygon fill="midnightblue" stroke="midnightblue" points="644.903,-29.9891 641.72,-19.8837 637.906,-29.7684 644.903,-29.9891"/>
</g>
<!-- Node6 -->
<g id="node6" class="node"><title>Node6</title>
<g id="a_node6"><a xlink:href="../../d5/d6f/phool_8h.html" target="_top" xlink:title="phool.h">
<polygon fill="none" stroke="black" points="456.5,-56.5 456.5,-75.5 503.5,-75.5 503.5,-56.5 456.5,-56.5"/>
<text text-anchor="middle" x="480" y="-63.5" font-family="FreeSans" font-size="10.00">phool.h</text>
</a>
</g>
</g>
<!-- Node5&#45;&gt;Node6 -->
<g id="edge5" class="edge"><title>Node5&#45;&gt;Node6</title>
<path fill="none" stroke="midnightblue" d="M529.521,-112.324C520.799,-104.341 507.657,-92.3128 497.102,-82.6529"/>
<polygon fill="midnightblue" stroke="midnightblue" points="499.392,-80.0036 489.652,-75.8339 494.666,-85.1674 499.392,-80.0036"/>
</g>
<!-- Node8 -->
<g id="node8" class="node"><title>Node8</title>
<polygon fill="none" stroke="#bfbfbf" points="521.5,-56.5 521.5,-75.5 566.5,-75.5 566.5,-56.5 521.5,-56.5"/>
<text text-anchor="middle" x="544" y="-63.5" font-family="FreeSans" font-size="10.00">iosfwd</text>
</g>
<!-- Node5&#45;&gt;Node8 -->
<g id="edge7" class="edge"><title>Node5&#45;&gt;Node8</title>
<path fill="none" stroke="midnightblue" d="M539.826,-112.083C540.481,-105.006 541.42,-94.8611 542.242,-85.9865"/>
<polygon fill="midnightblue" stroke="midnightblue" points="545.753,-86.0312 543.19,-75.7511 538.783,-85.3858 545.753,-86.0312"/>
</g>
<!-- Node9 -->
<g id="node9" class="node"><title>Node9</title>
<polygon fill="none" stroke="#bfbfbf" points="187.5,-56.5 187.5,-75.5 228.5,-75.5 228.5,-56.5 187.5,-56.5"/>
<text text-anchor="middle" x="208" y="-63.5" font-family="FreeSans" font-size="10.00">string</text>
</g>
<!-- Node5&#45;&gt;Node9 -->
<g id="edge8" class="edge"><title>Node5&#45;&gt;Node9</title>
<path fill="none" stroke="midnightblue" d="M507.86,-115.92C444.573,-105.595 301.608,-82.2714 238.696,-72.0078"/>
<polygon fill="midnightblue" stroke="midnightblue" points="239.045,-68.5185 228.612,-70.3626 237.918,-75.4272 239.045,-68.5185"/>
</g>
<!-- Node6&#45;&gt;Node7 -->
<g id="edge6" class="edge"><title>Node6&#45;&gt;Node7</title>
<path fill="none" stroke="midnightblue" d="M503.556,-57.1479C530.637,-48.1209 575.368,-33.2105 606.635,-22.7885"/>
<polygon fill="midnightblue" stroke="midnightblue" points="607.893,-26.0583 616.273,-19.5756 605.68,-19.4175 607.893,-26.0583"/>
</g>
<!-- Node10&#45;&gt;Node4 -->
<g id="edge11" class="edge"><title>Node10&#45;&gt;Node4</title>
<path fill="none" stroke="midnightblue" d="M409.417,-392.354C432.828,-384.744 465.88,-372.33 492,-356 534.689,-329.311 537.284,-312.183 576,-280 588.631,-269.5 603.315,-258.297 614.874,-249.696"/>
<polygon fill="midnightblue" stroke="midnightblue" points="617.055,-252.436 623.019,-243.68 612.896,-246.806 617.055,-252.436"/>
</g>
<!-- Node10&#45;&gt;Node9 -->
<g id="edge34" class="edge"><title>Node10&#45;&gt;Node9</title>
<path fill="none" stroke="midnightblue" d="M333.934,-400.447C262.215,-396.879 132,-378.372 132,-291 132,-291 132,-291 132,-177 132,-137.276 165.964,-101.504 188.482,-82.1536"/>
<polygon fill="midnightblue" stroke="midnightblue" points="190.976,-84.6337 196.457,-75.5672 186.518,-79.2364 190.976,-84.6337"/>
</g>
<!-- Node11 -->
<g id="node11" class="node"><title>Node11</title>
<g id="a_node11"><a xlink:href="../../d9/d53/PHIOManager_8h.html" target="_top" xlink:title="PHIOManager.h">
<polygon fill="none" stroke="black" points="290,-112.5 290,-131.5 376,-131.5 376,-112.5 290,-112.5"/>
<text text-anchor="middle" x="333" y="-119.5" font-family="FreeSans" font-size="10.00">PHIOManager.h</text>
</a>
</g>
</g>
<!-- Node10&#45;&gt;Node11 -->
<g id="edge12" class="edge"><title>Node10&#45;&gt;Node11</title>
<path fill="none" stroke="midnightblue" d="M373.882,-392.349C361.792,-374.377 336,-331.314 336,-291 336,-291 336,-291 336,-233 336,-200.936 334.711,-163.634 333.822,-141.745"/>
<polygon fill="midnightblue" stroke="midnightblue" points="337.311,-141.399 333.392,-131.556 330.317,-141.694 337.311,-141.399"/>
</g>
<!-- Node12 -->
<g id="node12" class="node"><title>Node12</title>
<g id="a_node12"><a xlink:href="../../dd/de7/PHNodeIOManager_8h.html" target="_top" xlink:title="PHNodeIOManager.h">
<polygon fill="none" stroke="black" points="198,-168.5 198,-187.5 308,-187.5 308,-168.5 198,-168.5"/>
<text text-anchor="middle" x="253" y="-175.5" font-family="FreeSans" font-size="10.00">PHNodeIOManager.h</text>
</a>
</g>
</g>
<!-- Node10&#45;&gt;Node12 -->
<g id="edge15" class="edge"><title>Node10&#45;&gt;Node12</title>
<path fill="none" stroke="midnightblue" d="M364.799,-392.44C351.864,-384.477 333.59,-371.523 322,-356 284.24,-305.425 264.376,-231.555 256.753,-197.479"/>
<polygon fill="midnightblue" stroke="midnightblue" points="260.142,-196.587 254.629,-187.539 253.296,-198.05 260.142,-196.587"/>
</g>
<!-- Node14 -->
<g id="node14" class="node"><title>Node14</title>
<g id="a_node14"><a xlink:href="../../db/d17/PHTypedNodeIterator_8h.html" target="_top" xlink:title="PHTypedNodeIterator.h">
<polygon fill="none" stroke="black" points="364.5,-336.5 364.5,-355.5 483.5,-355.5 483.5,-336.5 364.5,-336.5"/>
<text text-anchor="middle" x="424" y="-343.5" font-family="FreeSans" font-size="10.00">PHTypedNodeIterator.h</text>
</a>
</g>
</g>
<!-- Node10&#45;&gt;Node14 -->
<g id="edge19" class="edge"><title>Node10&#45;&gt;Node14</title>
<path fill="none" stroke="midnightblue" d="M387.266,-392.083C393.545,-384.377 402.788,-373.033 410.431,-363.653"/>
<polygon fill="midnightblue" stroke="midnightblue" points="413.266,-365.714 416.869,-355.751 407.839,-361.293 413.266,-365.714"/>
</g>
<!-- Node19 -->
<g id="node19" class="node"><title>Node19</title>
<g id="a_node19"><a xlink:href="../../de/da7/phooldefs_8h.html" target="_top" xlink:title="phooldefs.h">
<polygon fill="none" stroke="black" points="182,-280.5 182,-299.5 248,-299.5 248,-280.5 182,-280.5"/>
<text text-anchor="middle" x="215" y="-287.5" font-family="FreeSans" font-size="10.00">phooldefs.h</text>
</a>
</g>
</g>
<!-- Node10&#45;&gt;Node19 -->
<g id="edge31" class="edge"><title>Node10&#45;&gt;Node19</title>
<path fill="none" stroke="midnightblue" d="M350.039,-392.381C327.519,-384.996 296.615,-372.865 273,-356 254.423,-342.733 237.59,-322.515 226.902,-308.154"/>
<polygon fill="midnightblue" stroke="midnightblue" points="229.493,-305.764 220.809,-299.695 223.813,-309.855 229.493,-305.764"/>
</g>
<!-- Node20 -->
<g id="node20" class="node"><title>Node20</title>
<polygon fill="none" stroke="#bfbfbf" points="618.5,-336.5 618.5,-355.5 677.5,-355.5 677.5,-336.5 618.5,-336.5"/>
<text text-anchor="middle" x="648" y="-343.5" font-family="FreeSans" font-size="10.00">TObject.h</text>
</g>
<!-- Node10&#45;&gt;Node20 -->
<g id="edge33" class="edge"><title>Node10&#45;&gt;Node20</title>
<path fill="none" stroke="midnightblue" d="M422.465,-392.444C473.449,-382.171 558.297,-365.075 608.108,-355.038"/>
<polygon fill="midnightblue" stroke="midnightblue" points="609.069,-358.415 618.18,-353.008 607.686,-351.553 609.069,-358.415"/>
</g>
<!-- Node11&#45;&gt;Node6 -->
<g id="edge13" class="edge"><title>Node11&#45;&gt;Node6</title>
<path fill="none" stroke="midnightblue" d="M356.293,-112.444C380.807,-103.438 419.596,-89.1891 447.2,-79.049"/>
<polygon fill="midnightblue" stroke="midnightblue" points="448.637,-82.25 456.816,-75.5164 446.223,-75.6793 448.637,-82.25"/>
</g>
<!-- Node11&#45;&gt;Node9 -->
<g id="edge14" class="edge"><title>Node11&#45;&gt;Node9</title>
<path fill="none" stroke="midnightblue" d="M313.193,-112.444C292.713,-103.596 260.517,-89.6875 237.135,-79.5865"/>
<polygon fill="midnightblue" stroke="midnightblue" points="238.282,-76.2692 227.714,-75.5164 235.506,-82.6953 238.282,-76.2692"/>
</g>
<!-- Node12&#45;&gt;Node9 -->
<g id="edge17" class="edge"><title>Node12&#45;&gt;Node9</title>
<path fill="none" stroke="midnightblue" d="M247.168,-168.361C241.414,-159.533 232.677,-145.273 227,-132 220.498,-116.799 215.407,-98.6845 212.137,-85.4444"/>
<polygon fill="midnightblue" stroke="midnightblue" points="215.528,-84.5719 209.829,-75.6402 208.714,-86.1762 215.528,-84.5719"/>
</g>
<!-- Node12&#45;&gt;Node11 -->
<g id="edge16" class="edge"><title>Node12&#45;&gt;Node11</title>
<path fill="none" stroke="midnightblue" d="M265.853,-168.324C278.216,-159.979 297.13,-147.212 311.737,-137.352"/>
<polygon fill="midnightblue" stroke="midnightblue" points="313.848,-140.15 320.179,-131.655 309.932,-134.348 313.848,-140.15"/>
</g>
<!-- Node13 -->
<g id="node13" class="node"><title>Node13</title>
<polygon fill="none" stroke="#bfbfbf" points="236.5,-112.5 236.5,-131.5 271.5,-131.5 271.5,-112.5 236.5,-112.5"/>
<text text-anchor="middle" x="254" y="-119.5" font-family="FreeSans" font-size="10.00">map</text>
</g>
<!-- Node12&#45;&gt;Node13 -->
<g id="edge18" class="edge"><title>Node12&#45;&gt;Node13</title>
<path fill="none" stroke="midnightblue" d="M253.165,-168.083C253.296,-161.006 253.484,-150.861 253.648,-141.986"/>
<polygon fill="midnightblue" stroke="midnightblue" points="257.152,-141.814 253.838,-131.751 250.153,-141.685 257.152,-141.814"/>
</g>
<!-- Node15 -->
<g id="node15" class="node"><title>Node15</title>
<g id="a_node15"><a xlink:href="../../d8/dfd/PHNodeIterator_8h.html" target="_top" xlink:title="PHNodeIterator.h">
<polygon fill="none" stroke="black" points="432,-280.5 432,-299.5 524,-299.5 524,-280.5 432,-280.5"/>
<text text-anchor="middle" x="478" y="-287.5" font-family="FreeSans" font-size="10.00">PHNodeIterator.h</text>
</a>
</g>
</g>
<!-- Node14&#45;&gt;Node15 -->
<g id="edge20" class="edge"><title>Node14&#45;&gt;Node15</title>
<path fill="none" stroke="midnightblue" d="M432.917,-336.083C440.78,-328.22 452.431,-316.569 461.919,-307.081"/>
<polygon fill="midnightblue" stroke="midnightblue" points="464.653,-309.297 469.249,-299.751 459.703,-304.347 464.653,-309.297"/>
</g>
<!-- Node18 -->
<g id="node18" class="node"><title>Node18</title>
<polygon fill="none" stroke="#bfbfbf" points="364.5,-280.5 364.5,-299.5 413.5,-299.5 413.5,-280.5 364.5,-280.5"/>
<text text-anchor="middle" x="389" y="-287.5" font-family="FreeSans" font-size="10.00">cstddef</text>
</g>
<!-- Node14&#45;&gt;Node18 -->
<g id="edge30" class="edge"><title>Node14&#45;&gt;Node18</title>
<path fill="none" stroke="midnightblue" d="M418.22,-336.083C413.328,-328.534 406.173,-317.495 400.167,-308.23"/>
<polygon fill="midnightblue" stroke="midnightblue" points="403.048,-306.239 394.672,-299.751 397.174,-310.046 403.048,-306.239"/>
</g>
<!-- Node15&#45;&gt;Node6 -->
<g id="edge21" class="edge"><title>Node15&#45;&gt;Node6</title>
<path fill="none" stroke="midnightblue" d="M497.142,-280.409C511.961,-272.829 531.931,-260.43 544,-244 574.797,-202.075 570.362,-183.457 578,-132 579.305,-123.207 582.798,-119.483 578,-112 570.506,-100.313 538.802,-87.0636 513.456,-77.985"/>
<polygon fill="midnightblue" stroke="midnightblue" points="514.365,-74.5951 503.77,-74.6035 512.057,-81.2039 514.365,-74.5951"/>
</g>
<!-- Node16 -->
<g id="node16" class="node"><title>Node16</title>
<g id="a_node16"><a xlink:href="../../d8/d30/PHCompositeNode_8h.html" target="_top" xlink:title="PHCompositeNode.h">
<polygon fill="none" stroke="black" points="427,-224.5 427,-243.5 535,-243.5 535,-224.5 427,-224.5"/>
<text text-anchor="middle" x="481" y="-231.5" font-family="FreeSans" font-size="10.00">PHCompositeNode.h</text>
</a>
</g>
</g>
<!-- Node15&#45;&gt;Node16 -->
<g id="edge22" class="edge"><title>Node15&#45;&gt;Node16</title>
<path fill="none" stroke="midnightblue" d="M478.495,-280.083C478.889,-273.006 479.452,-262.861 479.945,-253.986"/>
<polygon fill="midnightblue" stroke="midnightblue" points="483.454,-253.93 480.514,-243.751 476.464,-253.542 483.454,-253.93"/>
</g>
<!-- Node17 -->
<g id="node17" class="node"><title>Node17</title>
<g id="a_node17"><a xlink:href="../../db/dd5/PHPointerList_8h.html" target="_top" xlink:title="PHPointerList.h">
<polygon fill="none" stroke="black" points="366,-168.5 366,-187.5 452,-187.5 452,-168.5 366,-168.5"/>
<text text-anchor="middle" x="409" y="-175.5" font-family="FreeSans" font-size="10.00">PHPointerList.h</text>
</a>
</g>
</g>
<!-- Node15&#45;&gt;Node17 -->
<g id="edge29" class="edge"><title>Node15&#45;&gt;Node17</title>
<path fill="none" stroke="midnightblue" d="M459.915,-280.442C446.058,-272.881 427.717,-260.491 418,-244 409.777,-230.044 407.912,-211.539 407.879,-197.843"/>
<polygon fill="midnightblue" stroke="midnightblue" points="411.383,-197.776 408.183,-187.676 404.386,-197.567 411.383,-197.776"/>
</g>
<!-- Node16&#45;&gt;Node5 -->
<g id="edge24" class="edge"><title>Node16&#45;&gt;Node5</title>
<path fill="none" stroke="midnightblue" d="M485.551,-224.368C495.038,-206.376 517.092,-164.55 529.706,-140.627"/>
<polygon fill="midnightblue" stroke="midnightblue" points="532.902,-142.07 534.47,-131.591 526.71,-138.805 532.902,-142.07"/>
</g>
<!-- Node16&#45;&gt;Node6 -->
<g id="edge23" class="edge"><title>Node16&#45;&gt;Node6</title>
<path fill="none" stroke="midnightblue" d="M480.946,-224.075C480.789,-197.945 480.327,-121.211 480.112,-85.577"/>
<polygon fill="midnightblue" stroke="midnightblue" points="483.612,-85.5468 480.052,-75.5681 476.612,-85.589 483.612,-85.5468"/>
</g>
<!-- Node16&#45;&gt;Node17 -->
<g id="edge25" class="edge"><title>Node16&#45;&gt;Node17</title>
<path fill="none" stroke="midnightblue" d="M469.432,-224.324C458.58,-216.185 442.119,-203.839 429.117,-194.087"/>
<polygon fill="midnightblue" stroke="midnightblue" points="430.879,-191.034 420.779,-187.834 426.679,-196.634 430.879,-191.034"/>
</g>
<!-- Node17&#45;&gt;Node5 -->
<g id="edge27" class="edge"><title>Node17&#45;&gt;Node5</title>
<path fill="none" stroke="midnightblue" d="M429.599,-168.444C450.993,-159.557 484.681,-145.563 509.024,-135.451"/>
<polygon fill="midnightblue" stroke="midnightblue" points="510.605,-138.585 518.497,-131.516 507.92,-132.12 510.605,-138.585"/>
</g>
<!-- Node17&#45;&gt;Node6 -->
<g id="edge26" class="edge"><title>Node17&#45;&gt;Node6</title>
<path fill="none" stroke="midnightblue" d="M414.571,-168.368C426.236,-150.296 453.423,-108.176 468.829,-84.3074"/>
<polygon fill="midnightblue" stroke="midnightblue" points="471.972,-85.8913 474.455,-75.5914 466.091,-82.0952 471.972,-85.8913"/>
</g>
<!-- Node17&#45;&gt;Node7 -->
<g id="edge28" class="edge"><title>Node17&#45;&gt;Node7</title>
<path fill="none" stroke="midnightblue" d="M408.973,-168.481C409.39,-146.384 413.709,-86.8065 447,-56 469.617,-35.0711 554.513,-21.5404 604.523,-15.2038"/>
<polygon fill="midnightblue" stroke="midnightblue" points="605.132,-18.6553 614.63,-13.9607 604.278,-11.7077 605.132,-18.6553"/>
</g>
<!-- Node19&#45;&gt;Node9 -->
<g id="edge32" class="edge"><title>Node19&#45;&gt;Node9</title>
<path fill="none" stroke="midnightblue" d="M212.03,-280.496C206.2,-263.295 193.436,-223.028 189,-188 184.387,-151.577 194.639,-109.245 201.803,-85.5424"/>
<polygon fill="midnightblue" stroke="midnightblue" points="205.212,-86.3705 204.903,-75.7802 198.541,-84.2518 205.212,-86.3705"/>
</g>
<!-- Node21&#45;&gt;Node7 -->
<g id="edge37" class="edge"><title>Node21&#45;&gt;Node7</title>
<path fill="none" stroke="midnightblue" d="M660.036,-392.321C667.655,-383.687 678.955,-369.774 686,-356 699.763,-329.09 706,-321.225 706,-291 706,-291 706,-291 706,-121 706,-83.3274 677.608,-47.0403 658.646,-27.0052"/>
<polygon fill="midnightblue" stroke="midnightblue" points="660.953,-24.3599 651.443,-19.6885 655.964,-29.2705 660.953,-24.3599"/>
</g>
<!-- Node21&#45;&gt;Node20 -->
<g id="edge36" class="edge"><title>Node21&#45;&gt;Node20</title>
<path fill="none" stroke="midnightblue" d="M651.339,-392.083C650.815,-385.006 650.064,-374.861 649.406,-365.986"/>
<polygon fill="midnightblue" stroke="midnightblue" points="652.877,-365.465 648.648,-355.751 645.897,-365.982 652.877,-365.465"/>
</g>
</g>
</svg>
