<?xml version="1.0" encoding="UTF-8" standalone="no"?>
<!DOCTYPE svg PUBLIC "-//W3C//DTD SVG 1.1//EN"
 "http://www.w3.org/Graphics/SVG/1.1/DTD/svg11.dtd">
<!-- Generated by graphviz version 2.36.0 (20140111.2315)
 -->
<!-- Title: Doxygen_Assist/shared_ptr.hpp Pages: 1 -->
<svg width="1782pt" height="108pt"
 viewBox="0.00 0.00 1782.00 108.00" xmlns="http://www.w3.org/2000/svg" xmlns:xlink="http://www.w3.org/1999/xlink">
<g id="graph0" class="graph" transform="scale(1 1) rotate(0) translate(4 104)">
<title>Doxygen_Assist/shared_ptr.hpp</title>
<!-- Node1 -->
<g id="node1" class="node"><title>Node1</title>
<polygon fill="#bfbfbf" stroke="black" points="973.5,-69 973.5,-99 1092.5,-99 1092.5,-69 973.5,-69"/>
<text text-anchor="start" x="981.5" y="-87" font-family="FreeSans" font-size="10.00">Doxygen_Assist/shared</text>
<text text-anchor="middle" x="1033" y="-76" font-family="FreeSans" font-size="10.00">_ptr.hpp</text>
</g>
<!-- Node2 -->
<g id="node2" class="node"><title>Node2</title>
<polygon fill="none" stroke="#bfbfbf" points="-0.5,-6.5 -0.5,-25.5 86.5,-25.5 86.5,-6.5 -0.5,-6.5"/>
<text text-anchor="middle" x="43" y="-13.5" font-family="FreeSans" font-size="10.00">boost/config.hpp</text>
</g>
<!-- Node1&#45;&gt;Node2 -->
<g id="edge1" class="edge"><title>Node1&#45;&gt;Node2</title>
<path fill="none" stroke="midnightblue" d="M973.24,-81.5203C794.36,-76.8113 265.049,-60.7662 95,-32 89.4993,-31.0695 83.753,-29.7637 78.1709,-28.3068"/>
<polygon fill="midnightblue" stroke="midnightblue" points="78.9621,-24.8938 68.3889,-25.5695 77.0758,-31.6349 78.9621,-24.8938"/>
</g>
<!-- Node3 -->
<g id="node3" class="node"><title>Node3</title>
<polygon fill="none" stroke="#bfbfbf" points="104.5,-1 104.5,-31 203.5,-31 203.5,-1 104.5,-1"/>
<text text-anchor="start" x="112.5" y="-19" font-family="FreeSans" font-size="10.00">boost/config/no_tr1</text>
<text text-anchor="middle" x="154" y="-8" font-family="FreeSans" font-size="10.00">/memory.hpp</text>
</g>
<!-- Node1&#45;&gt;Node3 -->
<g id="edge2" class="edge"><title>Node1&#45;&gt;Node3</title>
<path fill="none" stroke="midnightblue" d="M973.334,-83.1815C838.959,-82.7545 502.443,-77.0085 213.79,-32.0913"/>
<polygon fill="midnightblue" stroke="midnightblue" points="213.966,-28.5758 203.543,-30.4769 212.876,-35.4905 213.966,-28.5758"/>
</g>
<!-- Node4 -->
<g id="node4" class="node"><title>Node4</title>
<polygon fill="none" stroke="#bfbfbf" points="221.5,-6.5 221.5,-25.5 310.5,-25.5 310.5,-6.5 221.5,-6.5"/>
<text text-anchor="middle" x="266" y="-13.5" font-family="FreeSans" font-size="10.00">boost/assert.hpp</text>
</g>
<!-- Node1&#45;&gt;Node4 -->
<g id="edge3" class="edge"><title>Node1&#45;&gt;Node4</title>
<path fill="none" stroke="midnightblue" d="M973.359,-82.7367C850.299,-81.3173 559.683,-73.4337 320,-32 314.367,-31.0263 308.476,-29.7095 302.741,-28.2583"/>
<polygon fill="midnightblue" stroke="midnightblue" points="303.244,-24.769 292.678,-25.5463 301.422,-31.5279 303.244,-24.769"/>
</g>
<!-- Node5 -->
<g id="node5" class="node"><title>Node5</title>
<polygon fill="none" stroke="#bfbfbf" points="329,-6.5 329,-25.5 459,-25.5 459,-6.5 329,-6.5"/>
<text text-anchor="middle" x="394" y="-13.5" font-family="FreeSans" font-size="10.00">boost/checked_delete.hpp</text>
</g>
<!-- Node1&#45;&gt;Node5 -->
<g id="edge4" class="edge"><title>Node1&#45;&gt;Node5</title>
<path fill="none" stroke="midnightblue" d="M973.366,-79.7798C870.042,-73.7185 651.216,-58.7555 468,-32 459.516,-30.7611 450.537,-29.1761 441.869,-27.5027"/>
<polygon fill="midnightblue" stroke="midnightblue" points="442.377,-24.0352 431.886,-25.5132 441.009,-30.9002 442.377,-24.0352"/>
</g>
<!-- Node6 -->
<g id="node6" class="node"><title>Node6</title>
<polygon fill="none" stroke="#bfbfbf" points="477,-6.5 477,-25.5 609,-25.5 609,-6.5 477,-6.5"/>
<text text-anchor="middle" x="543" y="-13.5" font-family="FreeSans" font-size="10.00">boost/throw_exception.hpp</text>
</g>
<!-- Node1&#45;&gt;Node6 -->
<g id="edge5" class="edge"><title>Node1&#45;&gt;Node6</title>
<path fill="none" stroke="midnightblue" d="M973.356,-77.0931C892.561,-68.7673 743.952,-52.305 618,-32 609.892,-30.6928 601.323,-29.1417 592.991,-27.5408"/>
<polygon fill="midnightblue" stroke="midnightblue" points="593.477,-24.0695 582.99,-25.5764 592.128,-30.9383 593.477,-24.0695"/>
</g>
<!-- Node7 -->
<g id="node7" class="node"><title>Node7</title>
<polygon fill="none" stroke="#bfbfbf" points="627.5,-1 627.5,-31 738.5,-31 738.5,-1 627.5,-1"/>
<text text-anchor="start" x="635.5" y="-19" font-family="FreeSans" font-size="10.00">boost/smart_ptr/detail</text>
<text text-anchor="middle" x="683" y="-8" font-family="FreeSans" font-size="10.00">/shared_count.hpp</text>
</g>
<!-- Node1&#45;&gt;Node7 -->
<g id="edge6" class="edge"><title>Node1&#45;&gt;Node7</title>
<path fill="none" stroke="midnightblue" d="M973.337,-73.2115C917.761,-63.8921 832.368,-49.0614 748.573,-32.0587"/>
<polygon fill="midnightblue" stroke="midnightblue" points="749.127,-28.5997 738.63,-30.0291 747.728,-35.4583 749.127,-28.5997"/>
</g>
<!-- Node8 -->
<g id="node8" class="node"><title>Node8</title>
<polygon fill="none" stroke="#bfbfbf" points="757,-6.5 757,-25.5 895,-25.5 895,-6.5 757,-6.5"/>
<text text-anchor="middle" x="826" y="-13.5" font-family="FreeSans" font-size="10.00">boost/detail/workaround.hpp</text>
</g>
<!-- Node1&#45;&gt;Node8 -->
<g id="edge7" class="edge"><title>Node1&#45;&gt;Node8</title>
<path fill="none" stroke="midnightblue" d="M988.847,-68.9223C951.239,-56.9313 897.841,-39.9058 862.581,-28.6635"/>
<polygon fill="midnightblue" stroke="midnightblue" points="863.293,-25.217 852.702,-25.5138 861.166,-31.8862 863.293,-25.217"/>
</g>
<!-- Node9 -->
<g id="node9" class="node"><title>Node9</title>
<polygon fill="none" stroke="#bfbfbf" points="913.5,-1 913.5,-31 1024.5,-31 1024.5,-1 913.5,-1"/>
<text text-anchor="start" x="921.5" y="-19" font-family="FreeSans" font-size="10.00">boost/smart_ptr/detail</text>
<text text-anchor="middle" x="969" y="-8" font-family="FreeSans" font-size="10.00">/sp_convertible.hpp</text>
</g>
<!-- Node1&#45;&gt;Node9 -->
<g id="edge8" class="edge"><title>Node1&#45;&gt;Node9</title>
<path fill="none" stroke="midnightblue" d="M1019.11,-68.679C1010.56,-59.8572 999.429,-48.3801 989.832,-38.4831"/>
<polygon fill="midnightblue" stroke="midnightblue" points="992.334,-36.0356 982.86,-31.2931 987.309,-40.9086 992.334,-36.0356"/>
</g>
<!-- Node10 -->
<g id="node10" class="node"><title>Node10</title>
<polygon fill="none" stroke="#bfbfbf" points="1042.5,-1 1042.5,-31 1153.5,-31 1153.5,-1 1042.5,-1"/>
<text text-anchor="start" x="1050.5" y="-19" font-family="FreeSans" font-size="10.00">boost/smart_ptr/detail</text>
<text text-anchor="middle" x="1098" y="-8" font-family="FreeSans" font-size="10.00">/spinlock_pool.hpp</text>
</g>
<!-- Node1&#45;&gt;Node10 -->
<g id="edge9" class="edge"><title>Node1&#45;&gt;Node10</title>
<path fill="none" stroke="midnightblue" d="M1047.1,-68.679C1055.79,-59.8572 1067.1,-48.3801 1076.84,-38.4831"/>
<polygon fill="midnightblue" stroke="midnightblue" points="1079.4,-40.8739 1083.92,-31.2931 1074.41,-35.962 1079.4,-40.8739"/>
</g>
<!-- Node11 -->
<g id="node11" class="node"><title>Node11</title>
<polygon fill="none" stroke="#bfbfbf" points="1171.5,-6.5 1171.5,-25.5 1294.5,-25.5 1294.5,-6.5 1171.5,-6.5"/>
<text text-anchor="middle" x="1233" y="-13.5" font-family="FreeSans" font-size="10.00">boost/memory_order.hpp</text>
</g>
<!-- Node1&#45;&gt;Node11 -->
<g id="edge10" class="edge"><title>Node1&#45;&gt;Node11</title>
<path fill="none" stroke="midnightblue" d="M1075.91,-68.8413C1112.15,-56.8789 1163.46,-39.9489 1197.45,-28.7315"/>
<polygon fill="midnightblue" stroke="midnightblue" points="1198.58,-32.0444 1206.98,-25.5868 1196.39,-25.397 1198.58,-32.0444"/>
</g>
<!-- Node12 -->
<g id="node12" class="node"><title>Node12</title>
<polygon fill="none" stroke="#bfbfbf" points="1313,-6.5 1313,-25.5 1369,-25.5 1369,-6.5 1313,-6.5"/>
<text text-anchor="middle" x="1341" y="-13.5" font-family="FreeSans" font-size="10.00">algorithm</text>
</g>
<!-- Node1&#45;&gt;Node12 -->
<g id="edge11" class="edge"><title>Node1&#45;&gt;Node12</title>
<path fill="none" stroke="midnightblue" d="M1092.75,-75.0346C1147.97,-66.8942 1231.97,-52.5282 1303,-32 1305.97,-31.1416 1309.03,-30.1406 1312.07,-29.0704"/>
<polygon fill="midnightblue" stroke="midnightblue" points="1313.4,-32.3078 1321.52,-25.5062 1310.93,-25.7574 1313.4,-32.3078"/>
</g>
<!-- Node13 -->
<g id="node13" class="node"><title>Node13</title>
<polygon fill="none" stroke="#bfbfbf" points="1387.5,-6.5 1387.5,-25.5 1446.5,-25.5 1446.5,-6.5 1387.5,-6.5"/>
<text text-anchor="middle" x="1417" y="-13.5" font-family="FreeSans" font-size="10.00">functional</text>
</g>
<!-- Node1&#45;&gt;Node13 -->
<g id="edge12" class="edge"><title>Node1&#45;&gt;Node13</title>
<path fill="none" stroke="midnightblue" d="M1092.81,-78.0039C1162.04,-71.3336 1279.09,-57.3111 1377,-32 1380.23,-31.1647 1383.56,-30.1595 1386.86,-29.0701"/>
<polygon fill="midnightblue" stroke="midnightblue" points="1388.26,-32.2861 1396.51,-25.6343 1385.91,-25.6917 1388.26,-32.2861"/>
</g>
<!-- Node14 -->
<g id="node14" class="node"><title>Node14</title>
<polygon fill="none" stroke="#bfbfbf" points="1465,-6.5 1465,-25.5 1515,-25.5 1515,-6.5 1465,-6.5"/>
<text text-anchor="middle" x="1490" y="-13.5" font-family="FreeSans" font-size="10.00">typeinfo</text>
</g>
<!-- Node1&#45;&gt;Node14 -->
<g id="edge13" class="edge"><title>Node1&#45;&gt;Node14</title>
<path fill="none" stroke="midnightblue" d="M1092.72,-81.1138C1175.41,-77.3063 1328.86,-65.9057 1455,-32 1457.66,-31.2846 1460.38,-30.4045 1463.08,-29.4322"/>
<polygon fill="midnightblue" stroke="midnightblue" points="1464.56,-32.6071 1472.54,-25.6369 1461.96,-26.1099 1464.56,-32.6071"/>
</g>
<!-- Node15 -->
<g id="node15" class="node"><title>Node15</title>
<polygon fill="none" stroke="#bfbfbf" points="1533.5,-6.5 1533.5,-25.5 1582.5,-25.5 1582.5,-6.5 1533.5,-6.5"/>
<text text-anchor="middle" x="1558" y="-13.5" font-family="FreeSans" font-size="10.00">cstddef</text>
</g>
<!-- Node1&#45;&gt;Node15 -->
<g id="edge14" class="edge"><title>Node1&#45;&gt;Node15</title>
<path fill="none" stroke="midnightblue" d="M1092.65,-82.7479C1186.14,-81.0358 1372.21,-72.2975 1524,-32 1526.66,-31.2949 1529.37,-30.4092 1532.05,-29.4224"/>
<polygon fill="midnightblue" stroke="midnightblue" points="1533.52,-32.6008 1541.43,-25.5485 1530.85,-26.1308 1533.52,-32.6008"/>
</g>
<!-- Node16 -->
<g id="node16" class="node"><title>Node16</title>
<polygon fill="none" stroke="#bfbfbf" points="1600.5,-6.5 1600.5,-25.5 1645.5,-25.5 1645.5,-6.5 1600.5,-6.5"/>
<text text-anchor="middle" x="1623" y="-13.5" font-family="FreeSans" font-size="10.00">iosfwd</text>
</g>
<!-- Node1&#45;&gt;Node16 -->
<g id="edge15" class="edge"><title>Node1&#45;&gt;Node16</title>
<path fill="none" stroke="midnightblue" d="M1092.57,-80.1653C1216.51,-73.8424 1498.28,-57.1357 1591,-32 1593.35,-31.3633 1595.74,-30.564 1598.1,-29.6676"/>
<polygon fill="midnightblue" stroke="midnightblue" points="1599.68,-32.7957 1607.46,-25.605 1596.9,-26.3739 1599.68,-32.7957"/>
</g>
<!-- Node17 -->
<g id="node17" class="node"><title>Node17</title>
<polygon fill="none" stroke="#bfbfbf" points="1663.5,-1 1663.5,-31 1774.5,-31 1774.5,-1 1663.5,-1"/>
<text text-anchor="start" x="1671.5" y="-19" font-family="FreeSans" font-size="10.00">boost/smart_ptr/detail</text>
<text text-anchor="middle" x="1719" y="-8" font-family="FreeSans" font-size="10.00">/operator_bool.hpp</text>
</g>
<!-- Node1&#45;&gt;Node17 -->
<g id="edge16" class="edge"><title>Node1&#45;&gt;Node17</title>
<path fill="none" stroke="midnightblue" d="M1092.85,-80.9675C1202.26,-76.6243 1441.93,-64.2065 1653.39,-31.9324"/>
<polygon fill="midnightblue" stroke="midnightblue" points="1654.09,-35.366 1663.43,-30.3805 1653.02,-28.4481 1654.09,-35.366"/>
</g>
</g>
</svg>
