<?xml version="1.0" encoding="UTF-8" standalone="no"?>
<!DOCTYPE svg PUBLIC "-//W3C//DTD SVG 1.1//EN"
 "http://www.w3.org/Graphics/SVG/1.1/DTD/svg11.dtd">
<!-- Generated by graphviz version 2.36.0 (20140111.2315)
 -->
<!-- Title: fun4all/modules/ReadMySql.h Pages: 1 -->
<svg width="671pt" height="196pt"
 viewBox="0.00 0.00 671.00 196.00" xmlns="http://www.w3.org/2000/svg" xmlns:xlink="http://www.w3.org/1999/xlink">
<g id="graph0" class="graph" transform="scale(1 1) rotate(0) translate(4 192)">
<title>fun4all/modules/ReadMySql.h</title>
<!-- Node1 -->
<g id="node1" class="node"><title>Node1</title>
<polygon fill="#bfbfbf" stroke="black" points="346.5,-168.5 346.5,-187.5 491.5,-187.5 491.5,-168.5 346.5,-168.5"/>
<text text-anchor="middle" x="419" y="-175.5" font-family="FreeSans" font-size="10.00">fun4all/modules/ReadMySql.h</text>
</g>
<!-- Node2 -->
<g id="node2" class="node"><title>Node2</title>
<polygon fill="none" stroke="#bfbfbf" points="-0.5,-112.5 -0.5,-131.5 78.5,-131.5 78.5,-112.5 -0.5,-112.5"/>
<text text-anchor="middle" x="39" y="-119.5" font-family="FreeSans" font-size="10.00">TSQLServer.h</text>
</g>
<!-- Node1&#45;&gt;Node2 -->
<g id="edge1" class="edge"><title>Node1&#45;&gt;Node2</title>
<path fill="none" stroke="midnightblue" d="M349.441,-168.499C284.593,-160.356 184.94,-147.287 88.4788,-132.01"/>
<polygon fill="midnightblue" stroke="midnightblue" points="88.9794,-128.545 78.5532,-130.428 87.8777,-135.458 88.9794,-128.545"/>
</g>
<!-- Node3 -->
<g id="node3" class="node"><title>Node3</title>
<polygon fill="none" stroke="#bfbfbf" points="97,-112.5 97,-131.5 175,-131.5 175,-112.5 97,-112.5"/>
<text text-anchor="middle" x="136" y="-119.5" font-family="FreeSans" font-size="10.00">TSQLResult.h</text>
</g>
<!-- Node1&#45;&gt;Node3 -->
<g id="edge2" class="edge"><title>Node1&#45;&gt;Node3</title>
<path fill="none" stroke="midnightblue" d="M374.158,-168.444C322.618,-158.609 238.306,-142.521 185.056,-132.36"/>
<polygon fill="midnightblue" stroke="midnightblue" points="185.643,-128.909 175.164,-130.473 184.331,-135.785 185.643,-128.909"/>
</g>
<!-- Node4 -->
<g id="node4" class="node"><title>Node4</title>
<polygon fill="none" stroke="#bfbfbf" points="193,-112.5 193,-131.5 263,-131.5 263,-112.5 193,-112.5"/>
<text text-anchor="middle" x="228" y="-119.5" font-family="FreeSans" font-size="10.00">TSQLRow.h</text>
</g>
<!-- Node1&#45;&gt;Node4 -->
<g id="edge3" class="edge"><title>Node1&#45;&gt;Node4</title>
<path fill="none" stroke="midnightblue" d="M388.735,-168.444C356.045,-159.201 303.818,-144.436 267.817,-134.257"/>
<polygon fill="midnightblue" stroke="midnightblue" points="268.698,-130.869 258.123,-131.516 266.794,-137.605 268.698,-130.869"/>
</g>
<!-- Node5 -->
<g id="node5" class="node"><title>Node5</title>
<g id="a_node5"><a xlink:href="../../d5/dc2/SubsysReco_8h.html" target="_top" xlink:title="fun4all/SubsysReco.h">
<polygon fill="none" stroke="black" points="281,-112.5 281,-131.5 391,-131.5 391,-112.5 281,-112.5"/>
<text text-anchor="middle" x="336" y="-119.5" font-family="FreeSans" font-size="10.00">fun4all/SubsysReco.h</text>
</a>
</g>
</g>
<!-- Node1&#45;&gt;Node5 -->
<g id="edge4" class="edge"><title>Node1&#45;&gt;Node5</title>
<path fill="none" stroke="midnightblue" d="M405.665,-168.324C392.838,-159.979 373.215,-147.212 358.06,-137.352"/>
<polygon fill="midnightblue" stroke="midnightblue" points="359.593,-134.174 349.302,-131.655 355.776,-140.042 359.593,-134.174"/>
</g>
<!-- Node7 -->
<g id="node7" class="node"><title>Node7</title>
<polygon fill="none" stroke="#bfbfbf" points="360.5,-0.5 360.5,-19.5 401.5,-19.5 401.5,-0.5 360.5,-0.5"/>
<text text-anchor="middle" x="381" y="-7.5" font-family="FreeSans" font-size="10.00">string</text>
</g>
<!-- Node1&#45;&gt;Node7 -->
<g id="edge10" class="edge"><title>Node1&#45;&gt;Node7</title>
<path fill="none" stroke="midnightblue" d="M416.957,-168.075C410.975,-141.945 393.41,-65.2106 385.253,-29.577"/>
<polygon fill="midnightblue" stroke="midnightblue" points="388.605,-28.5349 382.961,-19.5681 381.781,-30.097 388.605,-28.5349"/>
</g>
<!-- Node9 -->
<g id="node9" class="node"><title>Node9</title>
<polygon fill="none" stroke="#bfbfbf" points="447,-112.5 447,-131.5 491,-131.5 491,-112.5 447,-112.5"/>
<text text-anchor="middle" x="469" y="-119.5" font-family="FreeSans" font-size="10.00">vector</text>
</g>
<!-- Node1&#45;&gt;Node9 -->
<g id="edge9" class="edge"><title>Node1&#45;&gt;Node9</title>
<path fill="none" stroke="midnightblue" d="M427.256,-168.083C434.465,-160.298 445.11,-148.801 453.846,-139.367"/>
<polygon fill="midnightblue" stroke="midnightblue" points="456.671,-141.467 460.897,-131.751 451.535,-136.711 456.671,-141.467"/>
</g>
<!-- Node10 -->
<g id="node10" class="node"><title>Node10</title>
<polygon fill="none" stroke="#bfbfbf" points="509,-112.5 509,-131.5 563,-131.5 563,-112.5 509,-112.5"/>
<text text-anchor="middle" x="536" y="-119.5" font-family="FreeSans" font-size="10.00">iostream</text>
</g>
<!-- Node1&#45;&gt;Node10 -->
<g id="edge11" class="edge"><title>Node1&#45;&gt;Node10</title>
<path fill="none" stroke="midnightblue" d="M437.539,-168.444C456.623,-159.636 486.575,-145.812 508.436,-135.722"/>
<polygon fill="midnightblue" stroke="midnightblue" points="509.935,-138.885 517.548,-131.516 507.001,-132.529 509.935,-138.885"/>
</g>
<!-- Node11 -->
<g id="node11" class="node"><title>Node11</title>
<polygon fill="none" stroke="#bfbfbf" points="581.5,-112.5 581.5,-131.5 610.5,-131.5 610.5,-112.5 581.5,-112.5"/>
<text text-anchor="middle" x="596" y="-119.5" font-family="FreeSans" font-size="10.00">list</text>
</g>
<!-- Node1&#45;&gt;Node11 -->
<g id="edge12" class="edge"><title>Node1&#45;&gt;Node11</title>
<path fill="none" stroke="midnightblue" d="M450.562,-168.441C479.702,-160.379 524.354,-147.626 571.812,-131.88"/>
<polygon fill="midnightblue" stroke="midnightblue" points="572.965,-135.185 581.337,-128.691 570.743,-128.547 572.965,-135.185"/>
</g>
<!-- Node12 -->
<g id="node12" class="node"><title>Node12</title>
<polygon fill="none" stroke="#bfbfbf" points="628.5,-112.5 628.5,-131.5 663.5,-131.5 663.5,-112.5 628.5,-112.5"/>
<text text-anchor="middle" x="646" y="-119.5" font-family="FreeSans" font-size="10.00">map</text>
</g>
<!-- Node1&#45;&gt;Node12 -->
<g id="edge13" class="edge"><title>Node1&#45;&gt;Node12</title>
<path fill="none" stroke="midnightblue" d="M463.012,-168.423C501.6,-160.606 559.365,-148.192 618.478,-131.916"/>
<polygon fill="midnightblue" stroke="midnightblue" points="619.666,-135.219 628.36,-129.162 617.787,-128.476 619.666,-135.219"/>
</g>
<!-- Node6 -->
<g id="node6" class="node"><title>Node6</title>
<g id="a_node6"><a xlink:href="../../d2/de7/Fun4AllBase_8h.html" target="_top" xlink:title="Fun4AllBase.h">
<polygon fill="none" stroke="black" points="273,-56.5 273,-75.5 353,-75.5 353,-56.5 273,-56.5"/>
<text text-anchor="middle" x="313" y="-63.5" font-family="FreeSans" font-size="10.00">Fun4AllBase.h</text>
</a>
</g>
</g>
<!-- Node5&#45;&gt;Node6 -->
<g id="edge5" class="edge"><title>Node5&#45;&gt;Node6</title>
<path fill="none" stroke="midnightblue" d="M332.202,-112.083C329.087,-104.77 324.577,-94.1814 320.711,-85.1034"/>
<polygon fill="midnightblue" stroke="midnightblue" points="323.866,-83.5798 316.727,-75.7511 317.426,-86.3229 323.866,-83.5798"/>
</g>
<!-- Node5&#45;&gt;Node7 -->
<g id="edge8" class="edge"><title>Node5&#45;&gt;Node7</title>
<path fill="none" stroke="midnightblue" d="M341.832,-112.361C347.586,-103.533 356.323,-89.2734 362,-76 368.502,-60.7988 373.593,-42.6845 376.863,-29.4444"/>
<polygon fill="midnightblue" stroke="midnightblue" points="380.286,-30.1762 379.171,-19.6402 373.472,-28.5719 380.286,-30.1762"/>
</g>
<!-- Node6&#45;&gt;Node7 -->
<g id="edge6" class="edge"><title>Node6&#45;&gt;Node7</title>
<path fill="none" stroke="midnightblue" d="M323.925,-56.324C334.175,-48.1849 349.721,-35.8395 362.001,-26.0874"/>
<polygon fill="midnightblue" stroke="midnightblue" points="364.221,-28.7937 369.876,-19.8339 359.868,-23.3119 364.221,-28.7937"/>
</g>
<!-- Node8 -->
<g id="node8" class="node"><title>Node8</title>
<polygon fill="none" stroke="#bfbfbf" points="290.5,-0.5 290.5,-19.5 335.5,-19.5 335.5,-0.5 290.5,-0.5"/>
<text text-anchor="middle" x="313" y="-7.5" font-family="FreeSans" font-size="10.00">climits</text>
</g>
<!-- Node6&#45;&gt;Node8 -->
<g id="edge7" class="edge"><title>Node6&#45;&gt;Node8</title>
<path fill="none" stroke="midnightblue" d="M313,-56.083C313,-49.0059 313,-38.8611 313,-29.9865"/>
<polygon fill="midnightblue" stroke="midnightblue" points="316.5,-29.751 313,-19.7511 309.5,-29.7511 316.5,-29.751"/>
</g>
</g>
</svg>
