<?xml version="1.0" encoding="UTF-8" standalone="no"?>
<!DOCTYPE svg PUBLIC "-//W3C//DTD SVG 1.1//EN"
 "http://www.w3.org/Graphics/SVG/1.1/DTD/svg11.dtd">
<!-- Generated by graphviz version 2.36.0 (20140111.2315)
 -->
<!-- Title: fun4all/phool/getClass.h Pages: 1 -->
<svg width="935pt" height="96pt"
 viewBox="0.00 0.00 935.00 96.00" xmlns="http://www.w3.org/2000/svg" xmlns:xlink="http://www.w3.org/1999/xlink">
<g id="graph0" class="graph" transform="scale(1 1) rotate(0) translate(4 92)">
<title>fun4all/phool/getClass.h</title>
<!-- Node1 -->
<g id="node1" class="node"><title>Node1</title>
<polygon fill="#bfbfbf" stroke="black" points="387,-68.5 387,-87.5 507,-87.5 507,-68.5 387,-68.5"/>
<text text-anchor="middle" x="447" y="-75.5" font-family="FreeSans" font-size="10.00">fun4all/phool/getClass.h</text>
</g>
<!-- Node2 -->
<g id="node2" class="node"><title>Node2</title>
<g id="a_node2"><a xlink:href="../../d3/d53/Fun4AllDstInputManager_8cc.html" target="_top" xlink:title="fun4all/fun4all/Fun4AllDst\lInputManager.cc">
<polygon fill="none" stroke="black" points="0,-1 0,-31 128,-31 128,-1 0,-1"/>
<text text-anchor="start" x="8" y="-19" font-family="FreeSans" font-size="10.00">fun4all/fun4all/Fun4AllDst</text>
<text text-anchor="middle" x="64" y="-8" font-family="FreeSans" font-size="10.00">InputManager.cc</text>
</a>
</g>
</g>
<!-- Node1&#45;&gt;Node2 -->
<g id="edge1" class="edge"><title>Node1&#45;&gt;Node2</title>
<path fill="none" stroke="midnightblue" d="M376.615,-67.9773C313.661,-59.6232 218.95,-46.3548 137,-32 134.069,-31.4866 131.075,-30.9443 128.054,-30.3825"/>
<polygon fill="midnightblue" stroke="midnightblue" points="376.454,-71.4864 386.826,-69.3262 377.37,-64.5466 376.454,-71.4864"/>
</g>
<!-- Node3 -->
<g id="node3" class="node"><title>Node3</title>
<g id="a_node3"><a xlink:href="../../d6/dbe/Fun4AllEventOutputManager_8cc.html" target="_top" xlink:title="fun4all/fun4all/Fun4AllEvent\lOutputManager.cc">
<polygon fill="none" stroke="black" points="146.5,-1 146.5,-31 283.5,-31 283.5,-1 146.5,-1"/>
<text text-anchor="start" x="154.5" y="-19" font-family="FreeSans" font-size="10.00">fun4all/fun4all/Fun4AllEvent</text>
<text text-anchor="middle" x="215" y="-8" font-family="FreeSans" font-size="10.00">OutputManager.cc</text>
</a>
</g>
</g>
<!-- Node1&#45;&gt;Node3 -->
<g id="edge2" class="edge"><title>Node1&#45;&gt;Node3</title>
<path fill="none" stroke="midnightblue" d="M404.01,-65.882C365.981,-56.0467 310.311,-41.6493 269.231,-31.0253"/>
<polygon fill="midnightblue" stroke="midnightblue" points="403.202,-69.2881 413.76,-68.4035 404.955,-62.511 403.202,-69.2881"/>
</g>
<!-- Node4 -->
<g id="node4" class="node"><title>Node4</title>
<g id="a_node4"><a xlink:href="../../da/d7b/Fun4AllPrdfInputManager_8cc.html" target="_top" xlink:title="fun4all/fun4all/Fun4AllPrdf\lInputManager.cc">
<polygon fill="none" stroke="black" points="301.5,-1 301.5,-31 432.5,-31 432.5,-1 301.5,-1"/>
<text text-anchor="start" x="309.5" y="-19" font-family="FreeSans" font-size="10.00">fun4all/fun4all/Fun4AllPrdf</text>
<text text-anchor="middle" x="367" y="-8" font-family="FreeSans" font-size="10.00">InputManager.cc</text>
</a>
</g>
</g>
<!-- Node1&#45;&gt;Node4 -->
<g id="edge3" class="edge"><title>Node1&#45;&gt;Node4</title>
<path fill="none" stroke="midnightblue" d="M427.461,-62.3459C414.795,-52.8461 398.383,-40.5369 385.854,-31.1408"/>
<polygon fill="midnightblue" stroke="midnightblue" points="425.438,-65.2034 435.538,-68.4035 429.638,-59.6034 425.438,-65.2034"/>
</g>
<!-- Node5 -->
<g id="node5" class="node"><title>Node5</title>
<g id="a_node5"><a xlink:href="../../d8/d7a/Fun4AllServer_8cc.html" target="_top" xlink:title="fun4all/fun4all/Fun4AllServer.cc">
<polygon fill="none" stroke="black" points="451,-6.5 451,-25.5 605,-25.5 605,-6.5 451,-6.5"/>
<text text-anchor="middle" x="528" y="-13.5" font-family="FreeSans" font-size="10.00">fun4all/fun4all/Fun4AllServer.cc</text>
</a>
</g>
</g>
<!-- Node1&#45;&gt;Node5 -->
<g id="edge4" class="edge"><title>Node1&#45;&gt;Node5</title>
<path fill="none" stroke="midnightblue" d="M467.02,-62.1702C482.558,-50.6608 503.553,-35.1086 516.416,-25.5806"/>
<polygon fill="midnightblue" stroke="midnightblue" points="464.558,-59.6387 458.605,-68.4035 468.724,-65.2636 464.558,-59.6387"/>
</g>
<!-- Node6 -->
<g id="node6" class="node"><title>Node6</title>
<g id="a_node6"><a xlink:href="../../dd/d12/ReadMySql_8C.html" target="_top" xlink:title="fun4all/modules/ReadMySql.C">
<polygon fill="none" stroke="black" points="623,-6.5 623,-25.5 769,-25.5 769,-6.5 623,-6.5"/>
<text text-anchor="middle" x="696" y="-13.5" font-family="FreeSans" font-size="10.00">fun4all/modules/ReadMySql.C</text>
</a>
</g>
</g>
<!-- Node1&#45;&gt;Node6 -->
<g id="edge5" class="edge"><title>Node1&#45;&gt;Node6</title>
<path fill="none" stroke="midnightblue" d="M492.311,-66.0818C540.747,-54.4105 616.52,-36.1517 660.711,-25.5034"/>
<polygon fill="midnightblue" stroke="midnightblue" points="491.313,-62.7219 482.411,-68.4672 492.953,-69.5271 491.313,-62.7219"/>
</g>
<!-- Node7 -->
<g id="node7" class="node"><title>Node7</title>
<g id="a_node7"><a xlink:href="../../dd/d2f/SimpleReadMySql_8C.html" target="_top" xlink:title="fun4all/modules/SimpleRead\lMySql.C">
<polygon fill="none" stroke="black" points="787,-1 787,-31 927,-31 927,-1 787,-1"/>
<text text-anchor="start" x="795" y="-19" font-family="FreeSans" font-size="10.00">fun4all/modules/SimpleRead</text>
<text text-anchor="middle" x="857" y="-8" font-family="FreeSans" font-size="10.00">MySql.C</text>
</a>
</g>
</g>
<!-- Node1&#45;&gt;Node7 -->
<g id="edge6" class="edge"><title>Node1&#45;&gt;Node7</title>
<path fill="none" stroke="midnightblue" d="M517.277,-68.5326C584.39,-60.1896 688.301,-46.6027 778,-32 780.894,-31.5289 783.844,-31.0342 786.823,-30.5229"/>
<polygon fill="midnightblue" stroke="midnightblue" points="516.733,-65.0731 507.239,-69.7754 517.593,-72.02 516.733,-65.0731"/>
</g>
</g>
</svg>
