<?xml version="1.0" encoding="UTF-8" standalone="no"?>
<!DOCTYPE svg PUBLIC "-//W3C//DTD SVG 1.1//EN"
 "http://www.w3.org/Graphics/SVG/1.1/DTD/svg11.dtd">
<!-- Generated by graphviz version 2.36.0 (20140111.2315)
 -->
<!-- Title: fun4all/interfaces/SHitMap_v1.C Pages: 1 -->
<svg width="317pt" height="320pt"
 viewBox="0.00 0.00 316.53 320.00" xmlns="http://www.w3.org/2000/svg" xmlns:xlink="http://www.w3.org/1999/xlink">
<g id="graph0" class="graph" transform="scale(1 1) rotate(0) translate(4 316)">
<title>fun4all/interfaces/SHitMap_v1.C</title>
<!-- Node1 -->
<g id="node1" class="node"><title>Node1</title>
<polygon fill="#bfbfbf" stroke="black" points="156.032,-281 156.032,-311 247.032,-311 247.032,-281 156.032,-281"/>
<text text-anchor="start" x="164.032" y="-299" font-family="FreeSans" font-size="10.00">fun4all/interfaces</text>
<text text-anchor="middle" x="201.532" y="-288" font-family="FreeSans" font-size="10.00">/SHitMap_v1.C</text>
</g>
<!-- Node2 -->
<g id="node2" class="node"><title>Node2</title>
<g id="a_node2"><a xlink:href="../../d3/d56/SHitMap__v1_8h.html" target="_top" xlink:title="SHitMap_v1.h">
<polygon fill="none" stroke="black" points="162.532,-224.5 162.532,-243.5 240.532,-243.5 240.532,-224.5 162.532,-224.5"/>
<text text-anchor="middle" x="201.532" y="-231.5" font-family="FreeSans" font-size="10.00">SHitMap_v1.h</text>
</a>
</g>
</g>
<!-- Node1&#45;&gt;Node2 -->
<g id="edge1" class="edge"><title>Node1&#45;&gt;Node2</title>
<path fill="none" stroke="midnightblue" d="M201.532,-280.781C201.532,-272.781 201.532,-262.689 201.532,-254.017"/>
<polygon fill="midnightblue" stroke="midnightblue" points="205.032,-253.73 201.532,-243.731 198.032,-253.731 205.032,-253.73"/>
</g>
<!-- Node4 -->
<g id="node4" class="node"><title>Node4</title>
<g id="a_node4"><a xlink:href="../../d2/d2c/SHit_8h.html" target="_top" xlink:title="SHit.h">
<polygon fill="none" stroke="black" points="114.532,-112.5 114.532,-131.5 158.532,-131.5 158.532,-112.5 114.532,-112.5"/>
<text text-anchor="middle" x="136.532" y="-119.5" font-family="FreeSans" font-size="10.00">SHit.h</text>
</a>
</g>
</g>
<!-- Node1&#45;&gt;Node4 -->
<g id="edge17" class="edge"><title>Node1&#45;&gt;Node4</title>
<path fill="none" stroke="midnightblue" d="M183.543,-280.88C173.019,-271.578 160.475,-258.471 153.532,-244 137.53,-210.648 135.44,-166.588 135.735,-141.884"/>
<polygon fill="midnightblue" stroke="midnightblue" points="139.238,-141.814 136.008,-131.723 132.24,-141.625 139.238,-141.814"/>
</g>
<!-- Node10 -->
<g id="node10" class="node"><title>Node10</title>
<polygon fill="none" stroke="#bfbfbf" points="253.032,-112.5 253.032,-131.5 288.032,-131.5 288.032,-112.5 253.032,-112.5"/>
<text text-anchor="middle" x="270.532" y="-119.5" font-family="FreeSans" font-size="10.00">map</text>
</g>
<!-- Node1&#45;&gt;Node10 -->
<g id="edge18" class="edge"><title>Node1&#45;&gt;Node10</title>
<path fill="none" stroke="midnightblue" d="M219.246,-280.744C229.666,-271.39 242.198,-258.276 249.532,-244 266.52,-210.928 270.109,-166.767 270.67,-141.97"/>
<polygon fill="midnightblue" stroke="midnightblue" points="274.171,-141.794 270.75,-131.767 267.171,-141.739 274.171,-141.794"/>
</g>
<!-- Node3 -->
<g id="node3" class="node"><title>Node3</title>
<g id="a_node3"><a xlink:href="../../d1/de9/SHitMap_8h.html" target="_top" xlink:title="SHitMap.h">
<polygon fill="none" stroke="black" points="170.532,-168.5 170.532,-187.5 232.532,-187.5 232.532,-168.5 170.532,-168.5"/>
<text text-anchor="middle" x="201.532" y="-175.5" font-family="FreeSans" font-size="10.00">SHitMap.h</text>
</a>
</g>
</g>
<!-- Node2&#45;&gt;Node3 -->
<g id="edge2" class="edge"><title>Node2&#45;&gt;Node3</title>
<path fill="none" stroke="midnightblue" d="M201.532,-224.083C201.532,-217.006 201.532,-206.861 201.532,-197.986"/>
<polygon fill="midnightblue" stroke="midnightblue" points="205.032,-197.751 201.532,-187.751 198.032,-197.751 205.032,-197.751"/>
</g>
<!-- Node2&#45;&gt;Node4 -->
<g id="edge13" class="edge"><title>Node2&#45;&gt;Node4</title>
<path fill="none" stroke="midnightblue" d="M192.21,-224.467C183.345,-215.942 170.121,-202.106 161.532,-188 152.69,-173.478 146.018,-155.296 141.801,-141.858"/>
<polygon fill="midnightblue" stroke="midnightblue" points="145.038,-140.464 138.841,-131.87 138.326,-142.452 145.038,-140.464"/>
</g>
<!-- Node5 -->
<g id="node5" class="node"><title>Node5</title>
<g id="a_node5"><a xlink:href="../../df/d32/PHObject_8h.html" target="_top" xlink:title="phool/PHObject.h">
<polygon fill="none" stroke="black" points="215.032,-56.5 215.032,-75.5 308.032,-75.5 308.032,-56.5 215.032,-56.5"/>
<text text-anchor="middle" x="261.532" y="-63.5" font-family="FreeSans" font-size="10.00">phool/PHObject.h</text>
</a>
</g>
</g>
<!-- Node2&#45;&gt;Node5 -->
<g id="edge14" class="edge"><title>Node2&#45;&gt;Node5</title>
<path fill="none" stroke="midnightblue" d="M215.751,-224.356C239.003,-209.175 283.847,-175.191 296.532,-132 299.037,-123.471 299.417,-120.408 296.532,-112 292.813,-101.161 285.299,-90.9216 278.183,-82.9566"/>
<polygon fill="midnightblue" stroke="midnightblue" points="280.533,-80.3498 271.088,-75.5497 275.478,-85.1922 280.533,-80.3498"/>
</g>
<!-- Node7 -->
<g id="node7" class="node"><title>Node7</title>
<polygon fill="none" stroke="#bfbfbf" points="110.532,-0.5 110.532,-19.5 164.532,-19.5 164.532,-0.5 110.532,-0.5"/>
<text text-anchor="middle" x="137.532" y="-7.5" font-family="FreeSans" font-size="10.00">iostream</text>
</g>
<!-- Node2&#45;&gt;Node7 -->
<g id="edge16" class="edge"><title>Node2&#45;&gt;Node7</title>
<path fill="none" stroke="midnightblue" d="M181.145,-224.373C138.61,-205.098 41.2337,-154.011 3.53194,-76 -16.2375,-35.0942 54.2595,-19.7197 100.424,-14.0995"/>
<polygon fill="midnightblue" stroke="midnightblue" points="100.88,-17.5704 110.431,-12.9849 100.105,-10.6135 100.88,-17.5704"/>
</g>
<!-- Node2&#45;&gt;Node10 -->
<g id="edge15" class="edge"><title>Node2&#45;&gt;Node10</title>
<path fill="none" stroke="midnightblue" d="M210.407,-224.299C218.893,-215.648 231.673,-201.723 240.532,-188 250.106,-173.169 258.291,-154.787 263.681,-141.359"/>
<polygon fill="midnightblue" stroke="midnightblue" points="267.03,-142.404 267.378,-131.815 260.502,-139.876 267.03,-142.404"/>
</g>
<!-- Node3&#45;&gt;Node4 -->
<g id="edge3" class="edge"><title>Node3&#45;&gt;Node4</title>
<path fill="none" stroke="midnightblue" d="M191.089,-168.324C181.386,-160.263 166.717,-148.077 155.032,-138.369"/>
<polygon fill="midnightblue" stroke="midnightblue" points="157.094,-135.532 147.165,-131.834 152.621,-140.916 157.094,-135.532"/>
</g>
<!-- Node3&#45;&gt;Node5 -->
<g id="edge10" class="edge"><title>Node3&#45;&gt;Node5</title>
<path fill="none" stroke="midnightblue" d="M206.24,-168.368C216.054,-150.376 238.868,-108.55 251.917,-84.6267"/>
<polygon fill="midnightblue" stroke="midnightblue" points="255.13,-86.0464 256.846,-75.5914 248.984,-82.6944 255.13,-86.0464"/>
</g>
<!-- Node3&#45;&gt;Node7 -->
<g id="edge12" class="edge"><title>Node3&#45;&gt;Node7</title>
<path fill="none" stroke="midnightblue" d="M199.959,-168.487C196.042,-148.299 184.827,-96.2071 166.532,-56 162.057,-46.1656 155.666,-35.9835 150.022,-27.7973"/>
<polygon fill="midnightblue" stroke="midnightblue" points="152.773,-25.6267 144.109,-19.528 147.079,-29.6982 152.773,-25.6267"/>
</g>
<!-- Node3&#45;&gt;Node10 -->
<g id="edge11" class="edge"><title>Node3&#45;&gt;Node10</title>
<path fill="none" stroke="midnightblue" d="M212.618,-168.324C223.018,-160.185 238.793,-147.839 251.254,-138.087"/>
<polygon fill="midnightblue" stroke="midnightblue" points="253.526,-140.753 259.244,-131.834 249.212,-135.241 253.526,-140.753"/>
</g>
<!-- Node4&#45;&gt;Node5 -->
<g id="edge4" class="edge"><title>Node4&#45;&gt;Node5</title>
<path fill="none" stroke="midnightblue" d="M156.339,-112.444C176.819,-103.596 209.015,-89.6875 232.397,-79.5865"/>
<polygon fill="midnightblue" stroke="midnightblue" points="234.026,-82.6953 241.818,-75.5164 231.25,-76.2692 234.026,-82.6953"/>
</g>
<!-- Node4&#45;&gt;Node7 -->
<g id="edge7" class="edge"><title>Node4&#45;&gt;Node7</title>
<path fill="none" stroke="midnightblue" d="M128.321,-112.437C117.668,-100.253 101.158,-77.0515 107.532,-56 110.649,-45.7048 116.984,-35.612 123.033,-27.6023"/>
<polygon fill="midnightblue" stroke="midnightblue" points="125.76,-29.7968 129.318,-19.8175 120.313,-25.3995 125.76,-29.7968"/>
</g>
<!-- Node8 -->
<g id="node8" class="node"><title>Node8</title>
<polygon fill="none" stroke="#bfbfbf" points="13.0319,-56.5 13.0319,-75.5 60.0319,-75.5 60.0319,-56.5 13.0319,-56.5"/>
<text text-anchor="middle" x="36.5319" y="-63.5" font-family="FreeSans" font-size="10.00">limits.h</text>
</g>
<!-- Node4&#45;&gt;Node8 -->
<g id="edge8" class="edge"><title>Node4&#45;&gt;Node8</title>
<path fill="none" stroke="midnightblue" d="M120.465,-112.324C104.574,-103.743 80.0245,-90.486 61.5735,-80.5224"/>
<polygon fill="midnightblue" stroke="midnightblue" points="63.0209,-77.3264 52.5588,-75.6545 59.6948,-83.4857 63.0209,-77.3264"/>
</g>
<!-- Node9 -->
<g id="node9" class="node"><title>Node9</title>
<polygon fill="none" stroke="#bfbfbf" points="117.032,-56.5 117.032,-75.5 158.032,-75.5 158.032,-56.5 117.032,-56.5"/>
<text text-anchor="middle" x="137.532" y="-63.5" font-family="FreeSans" font-size="10.00">string</text>
</g>
<!-- Node4&#45;&gt;Node9 -->
<g id="edge9" class="edge"><title>Node4&#45;&gt;Node9</title>
<path fill="none" stroke="midnightblue" d="M136.697,-112.083C136.828,-105.006 137.016,-94.8611 137.18,-85.9865"/>
<polygon fill="midnightblue" stroke="midnightblue" points="140.684,-85.8142 137.37,-75.7511 133.685,-85.6845 140.684,-85.8142"/>
</g>
<!-- Node6 -->
<g id="node6" class="node"><title>Node6</title>
<polygon fill="none" stroke="#bfbfbf" points="232.032,-0.5 232.032,-19.5 291.032,-19.5 291.032,-0.5 232.032,-0.5"/>
<text text-anchor="middle" x="261.532" y="-7.5" font-family="FreeSans" font-size="10.00">TObject.h</text>
</g>
<!-- Node5&#45;&gt;Node6 -->
<g id="edge5" class="edge"><title>Node5&#45;&gt;Node6</title>
<path fill="none" stroke="midnightblue" d="M261.532,-56.083C261.532,-49.0059 261.532,-38.8611 261.532,-29.9865"/>
<polygon fill="midnightblue" stroke="midnightblue" points="265.032,-29.751 261.532,-19.7511 258.032,-29.7511 265.032,-29.751"/>
</g>
<!-- Node5&#45;&gt;Node7 -->
<g id="edge6" class="edge"><title>Node5&#45;&gt;Node7</title>
<path fill="none" stroke="midnightblue" d="M241.884,-56.4435C221.567,-47.5961 189.629,-33.6875 166.434,-23.5865"/>
<polygon fill="midnightblue" stroke="midnightblue" points="167.654,-20.3002 157.088,-19.5164 164.859,-26.7181 167.654,-20.3002"/>
</g>
</g>
</svg>
