<?xml version="1.0" encoding="UTF-8" standalone="no"?>
<!DOCTYPE svg PUBLIC "-//W3C//DTD SVG 1.1//EN"
 "http://www.w3.org/Graphics/SVG/1.1/DTD/svg11.dtd">
<!-- Generated by graphviz version 2.36.0 (20140111.2315)
 -->
<!-- Title: fun4all/phool/PHCompositeNode.h Pages: 1 -->
<svg width="1495pt" height="368pt"
 viewBox="0.00 0.00 1495.00 368.00" xmlns="http://www.w3.org/2000/svg" xmlns:xlink="http://www.w3.org/1999/xlink">
<g id="graph0" class="graph" transform="scale(1 1) rotate(0) translate(4 364)">
<title>fun4all/phool/PHCompositeNode.h</title>
<!-- Node1 -->
<g id="node1" class="node"><title>Node1</title>
<polygon fill="#bfbfbf" stroke="black" points="460.5,-329 460.5,-359 595.5,-359 595.5,-329 460.5,-329"/>
<text text-anchor="start" x="468.5" y="-347" font-family="FreeSans" font-size="10.00">fun4all/phool/PHComposite</text>
<text text-anchor="middle" x="528" y="-336" font-family="FreeSans" font-size="10.00">Node.h</text>
</g>
<!-- Node2 -->
<g id="node2" class="node"><title>Node2</title>
<g id="a_node2"><a xlink:href="../../d3/d53/Fun4AllDstInputManager_8cc.html" target="_top" xlink:title="fun4all/fun4all/Fun4AllDst\lInputManager.cc">
<polygon fill="none" stroke="black" points="842,-1 842,-31 970,-31 970,-1 842,-1"/>
<text text-anchor="start" x="850" y="-19" font-family="FreeSans" font-size="10.00">fun4all/fun4all/Fun4AllDst</text>
<text text-anchor="middle" x="906" y="-8" font-family="FreeSans" font-size="10.00">InputManager.cc</text>
</a>
</g>
</g>
<!-- Node1&#45;&gt;Node2 -->
<g id="edge1" class="edge"><title>Node1&#45;&gt;Node2</title>
<path fill="none" stroke="midnightblue" d="M605.674,-338.029C805.897,-324.182 1324,-281.359 1324,-209 1324,-209 1324,-209 1324,-145 1324,-108.272 1322.9,-90.6629 1294,-68 1245.01,-29.5884 1067.35,-20.0361 970.325,-17.709"/>
<polygon fill="midnightblue" stroke="midnightblue" points="605.26,-334.549 595.523,-338.725 605.739,-341.533 605.26,-334.549"/>
</g>
<!-- Node3 -->
<g id="node3" class="node"><title>Node3</title>
<g id="a_node3"><a xlink:href="../../da/d7b/Fun4AllPrdfInputManager_8cc.html" target="_top" xlink:title="fun4all/fun4all/Fun4AllPrdf\lInputManager.cc">
<polygon fill="none" stroke="black" points="-0.5,-1 -0.5,-31 130.5,-31 130.5,-1 -0.5,-1"/>
<text text-anchor="start" x="7.5" y="-19" font-family="FreeSans" font-size="10.00">fun4all/fun4all/Fun4AllPrdf</text>
<text text-anchor="middle" x="65" y="-8" font-family="FreeSans" font-size="10.00">InputManager.cc</text>
</a>
</g>
</g>
<!-- Node1&#45;&gt;Node3 -->
<g id="edge2" class="edge"><title>Node1&#45;&gt;Node3</title>
<path fill="none" stroke="midnightblue" d="M450.244,-339.494C347.129,-333.814 171.468,-320.259 114,-292 67.4663,-269.118 32,-260.855 32,-209 32,-209 32,-209 32,-145 32,-102.545 49.2337,-54.6048 58.793,-31.2789"/>
<polygon fill="midnightblue" stroke="midnightblue" points="450.123,-342.992 460.297,-340.035 450.5,-336.002 450.123,-342.992"/>
</g>
<!-- Node4 -->
<g id="node4" class="node"><title>Node4</title>
<g id="a_node4"><a xlink:href="../../d8/d3b/Fun4AllPrdfOutputManager_8cc.html" target="_top" xlink:title="fun4all/fun4all/Fun4AllPrdf\lOutputManager.cc">
<polygon fill="none" stroke="black" points="98.5,-193 98.5,-223 229.5,-223 229.5,-193 98.5,-193"/>
<text text-anchor="start" x="106.5" y="-211" font-family="FreeSans" font-size="10.00">fun4all/fun4all/Fun4AllPrdf</text>
<text text-anchor="middle" x="164" y="-200" font-family="FreeSans" font-size="10.00">OutputManager.cc</text>
</a>
</g>
</g>
<!-- Node1&#45;&gt;Node4 -->
<g id="edge3" class="edge"><title>Node1&#45;&gt;Node4</title>
<path fill="none" stroke="midnightblue" d="M480.304,-325.442C407.284,-298.561 269.229,-247.738 202.3,-223.099"/>
<polygon fill="midnightblue" stroke="midnightblue" points="479.14,-328.743 489.734,-328.913 481.558,-322.174 479.14,-328.743"/>
</g>
<!-- Node5 -->
<g id="node5" class="node"><title>Node5</title>
<g id="a_node5"><a xlink:href="../../d8/d7a/Fun4AllServer_8cc.html" target="_top" xlink:title="fun4all/fun4all/Fun4AllServer.cc">
<polygon fill="none" stroke="black" points="181,-6.5 181,-25.5 335,-25.5 335,-6.5 181,-6.5"/>
<text text-anchor="middle" x="258" y="-13.5" font-family="FreeSans" font-size="10.00">fun4all/fun4all/Fun4AllServer.cc</text>
</a>
</g>
</g>
<!-- Node1&#45;&gt;Node5 -->
<g id="edge4" class="edge"><title>Node1&#45;&gt;Node5</title>
<path fill="none" stroke="midnightblue" d="M450.46,-336.372C319.833,-323.046 70,-287.321 70,-209 70,-209 70,-209 70,-145 70,-74.3205 161.914,-39.9018 217.207,-25.5911"/>
<polygon fill="midnightblue" stroke="midnightblue" points="450.122,-339.856 460.421,-337.369 450.819,-332.891 450.122,-339.856"/>
</g>
<!-- Node6 -->
<g id="node6" class="node"><title>Node6</title>
<g id="a_node6"><a xlink:href="../../d8/dfd/PHNodeIterator_8h.html" target="_top" xlink:title="fun4all/phool/PHNodeIterator.h">
<polygon fill="none" stroke="black" points="453,-266.5 453,-285.5 603,-285.5 603,-266.5 453,-266.5"/>
<text text-anchor="middle" x="528" y="-273.5" font-family="FreeSans" font-size="10.00">fun4all/phool/PHNodeIterator.h</text>
</a>
</g>
</g>
<!-- Node1&#45;&gt;Node6 -->
<g id="edge5" class="edge"><title>Node1&#45;&gt;Node6</title>
<path fill="none" stroke="midnightblue" d="M528,-318.376C528,-306.971 528,-294.136 528,-285.828"/>
<polygon fill="midnightblue" stroke="midnightblue" points="524.5,-318.679 528,-328.679 531.5,-318.679 524.5,-318.679"/>
</g>
<!-- Node16 -->
<g id="node16" class="node"><title>Node16</title>
<g id="a_node16"><a xlink:href="../../d7/d32/PHNodeIOManager_8cc.html" target="_top" xlink:title="fun4all/phool/PHNodeIOManager.cc">
<polygon fill="none" stroke="black" points="1084.5,-74.5 1084.5,-93.5 1257.5,-93.5 1257.5,-74.5 1084.5,-74.5"/>
<text text-anchor="middle" x="1171" y="-81.5" font-family="FreeSans" font-size="10.00">fun4all/phool/PHNodeIOManager.cc</text>
</a>
</g>
</g>
<!-- Node1&#45;&gt;Node16 -->
<g id="edge34" class="edge"><title>Node1&#45;&gt;Node16</title>
<path fill="none" stroke="midnightblue" d="M605.717,-333.456C701.517,-319.441 867.407,-287.731 996,-224 1068.66,-187.991 1139.32,-118.132 1162.82,-93.6941"/>
<polygon fill="midnightblue" stroke="midnightblue" points="605.215,-329.992 595.814,-334.878 606.21,-336.921 605.215,-329.992"/>
</g>
<!-- Node19 -->
<g id="node19" class="node"><title>Node19</title>
<g id="a_node19"><a xlink:href="../../df/d01/PHCompositeNode_8cc.html" target="_top" xlink:title="fun4all/phool/PHComposite\lNode.cc">
<polygon fill="none" stroke="black" points="1352.5,-261 1352.5,-291 1487.5,-291 1487.5,-261 1352.5,-261"/>
<text text-anchor="start" x="1360.5" y="-279" font-family="FreeSans" font-size="10.00">fun4all/phool/PHComposite</text>
<text text-anchor="middle" x="1420" y="-268" font-family="FreeSans" font-size="10.00">Node.cc</text>
</a>
</g>
</g>
<!-- Node1&#45;&gt;Node19 -->
<g id="edge33" class="edge"><title>Node1&#45;&gt;Node19</title>
<path fill="none" stroke="midnightblue" d="M605.831,-341.154C750.507,-337.045 1070.47,-324.775 1338,-292 1342.6,-291.437 1347.33,-290.78 1352.08,-290.062"/>
<polygon fill="midnightblue" stroke="midnightblue" points="605.618,-337.658 595.72,-341.436 605.814,-344.655 605.618,-337.658"/>
</g>
<!-- Node6&#45;&gt;Node4 -->
<g id="edge7" class="edge"><title>Node6&#45;&gt;Node4</title>
<path fill="none" stroke="midnightblue" d="M470.016,-264.722C412.604,-254.513 322.203,-238.353 244,-224 239.413,-223.158 234.68,-222.284 229.914,-221.4"/>
<polygon fill="midnightblue" stroke="midnightblue" points="469.533,-268.19 479.991,-266.494 470.758,-261.298 469.533,-268.19"/>
</g>
<!-- Node6&#45;&gt;Node5 -->
<g id="edge8" class="edge"><title>Node6&#45;&gt;Node5</title>
<path fill="none" stroke="midnightblue" d="M444.799,-265.012C390.623,-256.827 326.517,-243.407 307,-224 249.911,-167.232 254.519,-57.0393 257.145,-25.5765"/>
<polygon fill="midnightblue" stroke="midnightblue" points="444.384,-268.488 454.786,-266.479 445.401,-261.562 444.384,-268.488"/>
</g>
<!-- Node7 -->
<g id="node7" class="node"><title>Node7</title>
<g id="a_node7"><a xlink:href="../../d9/d74/Fun4AllDstOutputManager_8cc.html" target="_top" xlink:title="fun4all/fun4all/Fun4AllDst\lOutputManager.cc">
<polygon fill="none" stroke="black" points="324,-193 324,-223 452,-223 452,-193 324,-193"/>
<text text-anchor="start" x="332" y="-211" font-family="FreeSans" font-size="10.00">fun4all/fun4all/Fun4AllDst</text>
<text text-anchor="middle" x="388" y="-200" font-family="FreeSans" font-size="10.00">OutputManager.cc</text>
</a>
</g>
</g>
<!-- Node6&#45;&gt;Node7 -->
<g id="edge6" class="edge"><title>Node6&#45;&gt;Node7</title>
<path fill="none" stroke="midnightblue" d="M500.507,-262.039C476.685,-250.809 442.294,-234.596 417.816,-223.056"/>
<polygon fill="midnightblue" stroke="midnightblue" points="499.16,-265.273 509.697,-266.372 502.145,-258.942 499.16,-265.273"/>
</g>
<!-- Node8 -->
<g id="node8" class="node"><title>Node8</title>
<g id="a_node8"><a xlink:href="../../dd/d12/ReadMySql_8C.html" target="_top" xlink:title="fun4all/modules/ReadMySql.C">
<polygon fill="none" stroke="black" points="509,-6.5 509,-25.5 655,-25.5 655,-6.5 509,-6.5"/>
<text text-anchor="middle" x="582" y="-13.5" font-family="FreeSans" font-size="10.00">fun4all/modules/ReadMySql.C</text>
</a>
</g>
</g>
<!-- Node6&#45;&gt;Node8 -->
<g id="edge9" class="edge"><title>Node6&#45;&gt;Node8</title>
<path fill="none" stroke="midnightblue" d="M442.817,-265.388C390.729,-257.559 331.095,-244.404 315,-224 306.192,-212.834 312.893,-206.065 315,-192 323.539,-134.995 310.679,-107.133 353,-68 359.841,-61.6744 473.921,-38.3314 538.426,-25.5329"/>
<polygon fill="midnightblue" stroke="midnightblue" points="442.381,-268.862 452.781,-266.836 443.388,-261.935 442.381,-268.862"/>
</g>
<!-- Node9 -->
<g id="node9" class="node"><title>Node9</title>
<g id="a_node9"><a xlink:href="../../dd/d2f/SimpleReadMySql_8C.html" target="_top" xlink:title="fun4all/modules/SimpleRead\lMySql.C">
<polygon fill="none" stroke="black" points="673,-1 673,-31 813,-31 813,-1 673,-1"/>
<text text-anchor="start" x="681" y="-19" font-family="FreeSans" font-size="10.00">fun4all/modules/SimpleRead</text>
<text text-anchor="middle" x="743" y="-8" font-family="FreeSans" font-size="10.00">MySql.C</text>
</a>
</g>
</g>
<!-- Node6&#45;&gt;Node9 -->
<g id="edge10" class="edge"><title>Node6&#45;&gt;Node9</title>
<path fill="none" stroke="midnightblue" d="M613.278,-273.888C708.275,-270.778 865.642,-260.013 996,-224 1123.28,-188.837 1194.73,-211.164 1266,-100 1336.53,9.99863 1494.85,-114.526 833,-32 826.555,-31.1964 819.866,-30.2655 813.177,-29.2686"/>
<polygon fill="midnightblue" stroke="midnightblue" points="613.035,-270.394 603.146,-274.198 613.249,-277.39 613.035,-270.394"/>
</g>
<!-- Node10 -->
<g id="node10" class="node"><title>Node10</title>
<g id="a_node10"><a xlink:href="../../dd/dd4/getClass_8h.html" target="_top" xlink:title="fun4all/phool/getClass.h">
<polygon fill="none" stroke="black" points="362,-74.5 362,-93.5 482,-93.5 482,-74.5 362,-74.5"/>
<text text-anchor="middle" x="422" y="-81.5" font-family="FreeSans" font-size="10.00">fun4all/phool/getClass.h</text>
</a>
</g>
</g>
<!-- Node6&#45;&gt;Node10 -->
<g id="edge11" class="edge"><title>Node6&#45;&gt;Node10</title>
<path fill="none" stroke="midnightblue" d="M518.02,-257.56C512.405,-247.721 505.281,-235.191 499,-224 471.455,-174.924 438.914,-115.796 426.831,-93.8008"/>
<polygon fill="midnightblue" stroke="midnightblue" points="515.044,-259.408 523.045,-266.354 521.122,-255.935 515.044,-259.408"/>
</g>
<!-- Node12 -->
<g id="node12" class="node"><title>Node12</title>
<g id="a_node12"><a xlink:href="../../db/d17/PHTypedNodeIterator_8h.html" target="_top" xlink:title="fun4all/phool/PHTypedNode\lIterator.h">
<polygon fill="none" stroke="black" points="508,-193 508,-223 646,-223 646,-193 508,-193"/>
<text text-anchor="start" x="516" y="-211" font-family="FreeSans" font-size="10.00">fun4all/phool/PHTypedNode</text>
<text text-anchor="middle" x="577" y="-200" font-family="FreeSans" font-size="10.00">Iterator.h</text>
</a>
</g>
</g>
<!-- Node6&#45;&gt;Node12 -->
<g id="edge18" class="edge"><title>Node6&#45;&gt;Node12</title>
<path fill="none" stroke="midnightblue" d="M540.507,-258.153C548.541,-247.333 558.858,-233.436 566.471,-223.181"/>
<polygon fill="midnightblue" stroke="midnightblue" points="537.557,-256.256 534.406,-266.372 543.177,-260.429 537.557,-256.256"/>
</g>
<!-- Node15 -->
<g id="node15" class="node"><title>Node15</title>
<g id="a_node15"><a xlink:href="../../d7/d95/PHDataNodeIterator_8h.html" target="_top" xlink:title="fun4all/phool/PHDataNode\lIterator.h">
<polygon fill="none" stroke="black" points="934,-69 934,-99 1066,-99 1066,-69 934,-69"/>
<text text-anchor="start" x="942" y="-87" font-family="FreeSans" font-size="10.00">fun4all/phool/PHDataNode</text>
<text text-anchor="middle" x="1000" y="-76" font-family="FreeSans" font-size="10.00">Iterator.h</text>
</a>
</g>
</g>
<!-- Node6&#45;&gt;Node15 -->
<g id="edge30" class="edge"><title>Node6&#45;&gt;Node15</title>
<path fill="none" stroke="midnightblue" d="M613.301,-270.504C734.588,-263.318 945.139,-247.607 971,-224 1006.5,-191.591 1004.75,-127.905 1001.89,-99.395"/>
<polygon fill="midnightblue" stroke="midnightblue" points="613.068,-267.011 603.289,-271.09 613.477,-274 613.068,-267.011"/>
</g>
<!-- Node6&#45;&gt;Node16 -->
<g id="edge31" class="edge"><title>Node6&#45;&gt;Node16</title>
<path fill="none" stroke="midnightblue" d="M564.919,-263.409C616.854,-247.159 714.486,-216.813 798,-192 924.897,-154.298 1076.75,-111.433 1140.48,-93.5436"/>
<polygon fill="midnightblue" stroke="midnightblue" points="563.656,-260.137 555.159,-266.465 565.748,-266.817 563.656,-260.137"/>
</g>
<!-- Node18 -->
<g id="node18" class="node"><title>Node18</title>
<g id="a_node18"><a xlink:href="../../d0/d41/PHNodeIterator_8cc.html" target="_top" xlink:title="fun4all/phool/PHNodeIterator.cc">
<polygon fill="none" stroke="black" points="807.5,-198.5 807.5,-217.5 962.5,-217.5 962.5,-198.5 807.5,-198.5"/>
<text text-anchor="middle" x="885" y="-205.5" font-family="FreeSans" font-size="10.00">fun4all/phool/PHNodeIterator.cc</text>
</a>
</g>
</g>
<!-- Node6&#45;&gt;Node18 -->
<g id="edge32" class="edge"><title>Node6&#45;&gt;Node18</title>
<path fill="none" stroke="midnightblue" d="M584.313,-264.589C654.618,-251.592 773.547,-229.605 838.777,-217.546"/>
<polygon fill="midnightblue" stroke="midnightblue" points="583.503,-261.18 574.306,-266.439 584.775,-268.063 583.503,-261.18"/>
</g>
<!-- Node10&#45;&gt;Node2 -->
<g id="edge12" class="edge"><title>Node10&#45;&gt;Node2</title>
<path fill="none" stroke="midnightblue" d="M467.679,-72.3594C475.435,-70.7569 483.428,-69.2313 491,-68 637.06,-44.2493 675.522,-53.0189 822,-32 828.452,-31.0742 835.168,-30.0235 841.866,-28.9182"/>
<polygon fill="midnightblue" stroke="midnightblue" points="466.726,-68.9839 457.675,-74.492 468.185,-75.8301 466.726,-68.9839"/>
</g>
<!-- Node10&#45;&gt;Node3 -->
<g id="edge14" class="edge"><title>Node10&#45;&gt;Node3</title>
<path fill="none" stroke="midnightblue" d="M365.813,-72.6125C302.021,-60.8191 198.081,-41.6032 130.62,-29.1314"/>
<polygon fill="midnightblue" stroke="midnightblue" points="365.225,-76.063 375.694,-74.4393 366.497,-69.1796 365.225,-76.063"/>
</g>
<!-- Node10&#45;&gt;Node5 -->
<g id="edge15" class="edge"><title>Node10&#45;&gt;Node5</title>
<path fill="none" stroke="midnightblue" d="M391.029,-70.5361C358.315,-57.3706 307.616,-36.9673 279.186,-25.5259"/>
<polygon fill="midnightblue" stroke="midnightblue" points="389.976,-73.8851 400.56,-74.3717 392.59,-67.3913 389.976,-73.8851"/>
</g>
<!-- Node10&#45;&gt;Node8 -->
<g id="edge16" class="edge"><title>Node10&#45;&gt;Node8</title>
<path fill="none" stroke="midnightblue" d="M452.216,-70.5361C484.132,-57.3706 533.594,-36.9673 561.331,-25.5259"/>
<polygon fill="midnightblue" stroke="midnightblue" points="450.827,-67.3227 442.917,-74.3717 453.496,-73.7938 450.827,-67.3227"/>
</g>
<!-- Node10&#45;&gt;Node9 -->
<g id="edge17" class="edge"><title>Node10&#45;&gt;Node9</title>
<path fill="none" stroke="midnightblue" d="M470.575,-72.3484C477.429,-70.8721 484.39,-69.3873 491,-68 552.378,-55.1184 622.289,-41.0145 672.88,-30.9101"/>
<polygon fill="midnightblue" stroke="midnightblue" points="469.696,-68.9575 460.662,-74.4927 471.176,-75.7992 469.696,-68.9575"/>
</g>
<!-- Node11 -->
<g id="node11" class="node"><title>Node11</title>
<g id="a_node11"><a xlink:href="../../d6/dbe/Fun4AllEventOutputManager_8cc.html" target="_top" xlink:title="fun4all/fun4all/Fun4AllEvent\lOutputManager.cc">
<polygon fill="none" stroke="black" points="353.5,-1 353.5,-31 490.5,-31 490.5,-1 353.5,-1"/>
<text text-anchor="start" x="361.5" y="-19" font-family="FreeSans" font-size="10.00">fun4all/fun4all/Fun4AllEvent</text>
<text text-anchor="middle" x="422" y="-8" font-family="FreeSans" font-size="10.00">OutputManager.cc</text>
</a>
</g>
</g>
<!-- Node10&#45;&gt;Node11 -->
<g id="edge13" class="edge"><title>Node10&#45;&gt;Node11</title>
<path fill="none" stroke="midnightblue" d="M422,-64.1737C422,-53.6781 422,-40.8209 422,-31.1815"/>
<polygon fill="midnightblue" stroke="midnightblue" points="418.5,-64.3716 422,-74.3717 425.5,-64.3717 418.5,-64.3716"/>
</g>
<!-- Node12&#45;&gt;Node5 -->
<g id="edge19" class="edge"><title>Node12&#45;&gt;Node5</title>
<path fill="none" stroke="midnightblue" d="M530.526,-189.172C483.809,-170.265 410.649,-137.923 353,-100 317.869,-76.8902 281.997,-41.7576 266.257,-25.6357"/>
<polygon fill="midnightblue" stroke="midnightblue" points="529.495,-192.529 540.079,-193 532.098,-186.031 529.495,-192.529"/>
</g>
<!-- Node13 -->
<g id="node13" class="node"><title>Node13</title>
<g id="a_node13"><a xlink:href="../../df/d03/Fun4AllSyncManager_8cc.html" target="_top" xlink:title="fun4all/fun4all/Fun4AllSync\lManager.cc">
<polygon fill="none" stroke="black" points="500,-69 500,-99 634,-99 634,-69 500,-69"/>
<text text-anchor="start" x="508" y="-87" font-family="FreeSans" font-size="10.00">fun4all/fun4all/Fun4AllSync</text>
<text text-anchor="middle" x="567" y="-76" font-family="FreeSans" font-size="10.00">Manager.cc</text>
</a>
</g>
</g>
<!-- Node12&#45;&gt;Node13 -->
<g id="edge20" class="edge"><title>Node12&#45;&gt;Node13</title>
<path fill="none" stroke="midnightblue" d="M574.98,-182.355C572.928,-157.318 569.821,-119.417 568.154,-99.0787"/>
<polygon fill="midnightblue" stroke="midnightblue" points="571.508,-182.845 575.814,-192.526 578.485,-182.273 571.508,-182.845"/>
</g>
<!-- Node14 -->
<g id="node14" class="node"><title>Node14</title>
<g id="a_node14"><a xlink:href="../../d3/d79/PHIODataNode_8h.html" target="_top" xlink:title="fun4all/phool/PHIODataNode.h">
<polygon fill="none" stroke="black" points="601,-136.5 601,-155.5 751,-155.5 751,-136.5 601,-136.5"/>
<text text-anchor="middle" x="676" y="-143.5" font-family="FreeSans" font-size="10.00">fun4all/phool/PHIODataNode.h</text>
</a>
</g>
</g>
<!-- Node12&#45;&gt;Node14 -->
<g id="edge21" class="edge"><title>Node12&#45;&gt;Node14</title>
<path fill="none" stroke="midnightblue" d="M609.139,-187.522C626.92,-176.746 648.122,-163.896 661.81,-155.6"/>
<polygon fill="midnightblue" stroke="midnightblue" points="606.949,-184.756 600.211,-192.933 610.577,-190.743 606.949,-184.756"/>
</g>
<!-- Node14&#45;&gt;Node2 -->
<g id="edge22" class="edge"><title>Node14&#45;&gt;Node2</title>
<path fill="none" stroke="midnightblue" d="M761.416,-135.966C811.4,-128.954 868.11,-117.441 886,-100 904.573,-81.8926 907.099,-49.7555 906.838,-31.2315"/>
<polygon fill="midnightblue" stroke="midnightblue" points="760.636,-132.539 751.196,-137.351 761.576,-139.476 760.636,-132.539"/>
</g>
<!-- Node14&#45;&gt;Node8 -->
<g id="edge24" class="edge"><title>Node14&#45;&gt;Node8</title>
<path fill="none" stroke="midnightblue" d="M670.698,-126.225C665.446,-109.791 656.261,-85.8237 643,-68 629.816,-50.2802 609.284,-34.7883 595.739,-25.6612"/>
<polygon fill="midnightblue" stroke="midnightblue" points="667.475,-127.663 673.707,-136.231 674.178,-125.647 667.475,-127.663"/>
</g>
<!-- Node14&#45;&gt;Node9 -->
<g id="edge25" class="edge"><title>Node14&#45;&gt;Node9</title>
<path fill="none" stroke="midnightblue" d="M685.315,-127.205C698.754,-101.529 723.316,-54.6054 735.597,-31.1431"/>
<polygon fill="midnightblue" stroke="midnightblue" points="682.142,-125.719 680.605,-136.202 688.344,-128.965 682.142,-125.719"/>
</g>
<!-- Node14&#45;&gt;Node10 -->
<g id="edge26" class="edge"><title>Node14&#45;&gt;Node10</title>
<path fill="none" stroke="midnightblue" d="M630.089,-134.155C580.694,-122.487 503.17,-104.174 457.998,-93.5034"/>
<polygon fill="midnightblue" stroke="midnightblue" points="629.341,-137.574 639.878,-136.467 630.95,-130.762 629.341,-137.574"/>
</g>
<!-- Node14&#45;&gt;Node13 -->
<g id="edge23" class="edge"><title>Node14&#45;&gt;Node13</title>
<path fill="none" stroke="midnightblue" d="M651.346,-131.429C633.848,-121.797 610.415,-108.898 592.689,-99.1408"/>
<polygon fill="midnightblue" stroke="midnightblue" points="649.935,-134.647 660.383,-136.403 653.31,-128.515 649.935,-134.647"/>
</g>
<!-- Node14&#45;&gt;Node15 -->
<g id="edge27" class="edge"><title>Node14&#45;&gt;Node15</title>
<path fill="none" stroke="midnightblue" d="M732.193,-134.686C781.653,-125.595 855.618,-111.973 920,-100 924.446,-99.1733 929.03,-98.3188 933.649,-97.4566"/>
<polygon fill="midnightblue" stroke="midnightblue" points="731.533,-131.248 722.33,-136.498 732.798,-138.133 731.533,-131.248"/>
</g>
<!-- Node14&#45;&gt;Node16 -->
<g id="edge28" class="edge"><title>Node14&#45;&gt;Node16</title>
<path fill="none" stroke="midnightblue" d="M761.099,-135.834C859.751,-125.132 1016.3,-107.892 1075,-100 1089.38,-98.0668 1104.93,-95.7397 1119.24,-93.5015"/>
<polygon fill="midnightblue" stroke="midnightblue" points="760.711,-132.355 751.146,-136.913 761.465,-139.315 760.711,-132.355"/>
</g>
<!-- Node17 -->
<g id="node17" class="node"><title>Node17</title>
<g id="a_node17"><a xlink:href="../../dc/d01/PHNodeReset_8cc.html" target="_top" xlink:title="fun4all/phool/PHNodeReset.cc">
<polygon fill="none" stroke="black" points="728,-74.5 728,-93.5 878,-93.5 878,-74.5 728,-74.5"/>
<text text-anchor="middle" x="803" y="-81.5" font-family="FreeSans" font-size="10.00">fun4all/phool/PHNodeReset.cc</text>
</a>
</g>
</g>
<!-- Node14&#45;&gt;Node17 -->
<g id="edge29" class="edge"><title>Node14&#45;&gt;Node17</title>
<path fill="none" stroke="midnightblue" d="M703.376,-132.066C728.019,-120.424 763.539,-103.643 784.838,-93.5806"/>
<polygon fill="midnightblue" stroke="midnightblue" points="701.743,-128.967 694.196,-136.403 704.733,-135.296 701.743,-128.967"/>
</g>
</g>
</svg>
