<?xml version="1.0" encoding="UTF-8" standalone="no"?>
<!DOCTYPE svg PUBLIC "-//W3C//DTD SVG 1.1//EN"
 "http://www.w3.org/Graphics/SVG/1.1/DTD/svg11.dtd">
<!-- Generated by graphviz version 2.36.0 (20140111.2315)
 -->
<!-- Title: PHNodeIOManager Pages: 1 -->
<svg width="586pt" height="152pt"
 viewBox="0.00 0.00 586.00 152.00" xmlns="http://www.w3.org/2000/svg" xmlns:xlink="http://www.w3.org/1999/xlink">
<g id="graph0" class="graph" transform="scale(1 1) rotate(0) translate(4 148)">
<title>PHNodeIOManager</title>
<!-- Node1 -->
<g id="node1" class="node"><title>Node1</title>
<polygon fill="#bfbfbf" stroke="black" points="476,-73.5 476,-92.5 578,-92.5 578,-73.5 476,-73.5"/>
<text text-anchor="middle" x="527" y="-80.5" font-family="FreeSans" font-size="10.00">PHNodeIOManager</text>
</g>
<!-- Node2 -->
<g id="node2" class="node"><title>Node2</title>
<g id="a_node2"><a xlink:href="../../d0/d36/classPHIOManager.html" target="_top" xlink:title="PHIOManager">
<polygon fill="none" stroke="black" points="282.5,-98.5 282.5,-117.5 361.5,-117.5 361.5,-98.5 282.5,-98.5"/>
<text text-anchor="middle" x="322" y="-105.5" font-family="FreeSans" font-size="10.00">PHIOManager</text>
</a>
</g>
</g>
<!-- Node2&#45;&gt;Node1 -->
<g id="edge1" class="edge"><title>Node2&#45;&gt;Node1</title>
<path fill="none" stroke="midnightblue" d="M371.955,-101.971C403.442,-98.0934 444.244,-93.0685 475.944,-89.1645"/>
<polygon fill="midnightblue" stroke="midnightblue" points="371.158,-98.5427 361.661,-103.239 372.013,-105.49 371.158,-98.5427"/>
</g>
<!-- Node3 -->
<g id="node3" class="node"><title>Node3</title>
<g id="a_node3"><a xlink:title="STL class. ">
<polygon fill="none" stroke="#bfbfbf" points="132.5,-78.5 132.5,-97.5 191.5,-97.5 191.5,-78.5 132.5,-78.5"/>
<text text-anchor="middle" x="162" y="-85.5" font-family="FreeSans" font-size="10.00">std::string</text>
</a>
</g>
</g>
<!-- Node3&#45;&gt;Node1 -->
<g id="edge8" class="edge"><title>Node3&#45;&gt;Node1</title>
<path fill="none" stroke="#9a32cd" stroke-dasharray="5,2" d="M186.421,-102.671C193.761,-106.795 202.031,-110.974 210,-114 234.697,-123.378 241.743,-124.093 268,-127 352.267,-136.328 376.787,-134.341 458,-110 473.939,-105.223 491.372,-98.2646 504.596,-92.6085"/>
<polygon fill="#9a32cd" stroke="#9a32cd" points="188.11,-99.604 177.713,-97.568 184.571,-105.644 188.11,-99.604"/>
<text text-anchor="middle" x="322" y="-136" font-family="FreeSans" font-size="10.00"> TreeName</text>
</g>
<!-- Node3&#45;&gt;Node2 -->
<g id="edge2" class="edge"><title>Node3&#45;&gt;Node2</title>
<path fill="none" stroke="#9a32cd" stroke-dasharray="5,2" d="M201.669,-92.8948C226.248,-96.0061 257.945,-100.018 282.493,-103.126"/>
<polygon fill="#9a32cd" stroke="#9a32cd" points="201.973,-89.4054 191.613,-91.6218 201.094,-96.35 201.973,-89.4054"/>
<text text-anchor="middle" x="230" y="-102" font-family="FreeSans" font-size="10.00"> filename</text>
</g>
<!-- Node5 -->
<g id="node5" class="node"><title>Node5</title>
<polygon fill="none" stroke="#bfbfbf" points="268.5,-49 268.5,-79 375.5,-79 375.5,-49 268.5,-49"/>
<text text-anchor="start" x="276.5" y="-67" font-family="FreeSans" font-size="10.00">std::map&lt; std::string,</text>
<text text-anchor="middle" x="322" y="-56" font-family="FreeSans" font-size="10.00"> TBranch * &gt;</text>
</g>
<!-- Node3&#45;&gt;Node5 -->
<g id="edge5" class="edge"><title>Node3&#45;&gt;Node5</title>
<path fill="none" stroke="#9a32cd" stroke-dasharray="5,2" d="M201.811,-81.3142C204.581,-80.8615 207.332,-80.4192 210,-80 229.042,-77.0076 249.956,-73.9368 268.447,-71.2957"/>
<polygon fill="#9a32cd" stroke="#9a32cd" points="201.104,-77.8836 191.814,-82.9764 202.252,-84.7889 201.104,-77.8836"/>
<text text-anchor="middle" x="230" y="-83" font-family="FreeSans" font-size="10.00"> keys</text>
</g>
<!-- Node6 -->
<g id="node6" class="node"><title>Node6</title>
<polygon fill="none" stroke="#bfbfbf" points="268.5,-0 268.5,-30 375.5,-30 375.5,-0 268.5,-0"/>
<text text-anchor="start" x="276.5" y="-18" font-family="FreeSans" font-size="10.00">std::map&lt; std::string,</text>
<text text-anchor="middle" x="322" y="-7" font-family="FreeSans" font-size="10.00"> PHBoolean &gt;</text>
</g>
<!-- Node3&#45;&gt;Node6 -->
<g id="edge7" class="edge"><title>Node3&#45;&gt;Node6</title>
<path fill="none" stroke="#9a32cd" stroke-dasharray="5,2" d="M186.662,-72.9514C194.011,-68.538 202.225,-63.8637 210,-60 232.532,-48.8023 258.562,-38.1367 279.75,-30.0019"/>
<polygon fill="#9a32cd" stroke="#9a32cd" points="184.605,-70.1071 177.914,-78.3216 188.267,-76.0728 184.605,-70.1071"/>
<text text-anchor="middle" x="230" y="-63" font-family="FreeSans" font-size="10.00"> keys</text>
</g>
<!-- Node4 -->
<g id="node4" class="node"><title>Node4</title>
<g id="a_node4"><a xlink:title="STL class. ">
<polygon fill="none" stroke="#bfbfbf" points="0.5,-73 0.5,-103 93.5,-103 93.5,-73 0.5,-73"/>
<text text-anchor="start" x="8.5" y="-91" font-family="FreeSans" font-size="10.00">std::basic_string&lt;</text>
<text text-anchor="middle" x="47" y="-80" font-family="FreeSans" font-size="10.00"> char &gt;</text>
</a>
</g>
</g>
<!-- Node4&#45;&gt;Node3 -->
<g id="edge3" class="edge"><title>Node4&#45;&gt;Node3</title>
<path fill="none" stroke="midnightblue" d="M103.885,-88C113.778,-88 123.695,-88 132.425,-88"/>
<polygon fill="midnightblue" stroke="midnightblue" points="103.636,-84.5001 93.6357,-88 103.636,-91.5001 103.636,-84.5001"/>
</g>
<!-- Node5&#45;&gt;Node1 -->
<g id="edge4" class="edge"><title>Node5&#45;&gt;Node1</title>
<path fill="none" stroke="#9a32cd" stroke-dasharray="5,2" d="M385.849,-67.9001C408.604,-69.5115 434.483,-71.5748 458,-74 463.804,-74.5986 469.878,-75.2978 475.905,-76.0371"/>
<polygon fill="#9a32cd" stroke="#9a32cd" points="385.852,-64.392 375.634,-67.1919 385.367,-71.3753 385.852,-64.392"/>
<text text-anchor="middle" x="426" y="-77" font-family="FreeSans" font-size="10.00"> fBranches</text>
</g>
<!-- Node6&#45;&gt;Node1 -->
<g id="edge6" class="edge"><title>Node6&#45;&gt;Node1</title>
<path fill="none" stroke="#9a32cd" stroke-dasharray="5,2" d="M385.377,-31.3072C408.398,-37.7729 434.573,-45.6557 458,-54 474.201,-59.7705 492.073,-67.4457 505.427,-73.4505"/>
<polygon fill="#9a32cd" stroke="#9a32cd" points="386.294,-27.9293 375.722,-28.6257 384.421,-34.674 386.294,-27.9293"/>
<text text-anchor="middle" x="426" y="-57" font-family="FreeSans" font-size="10.00"> objectToRead</text>
</g>
</g>
</svg>
