<?xml version="1.0" encoding="UTF-8" standalone="no"?>
<!DOCTYPE svg PUBLIC "-//W3C//DTD SVG 1.1//EN"
 "http://www.w3.org/Graphics/SVG/1.1/DTD/svg11.dtd">
<!-- Generated by graphviz version 2.36.0 (20140111.2315)
 -->
<!-- Title: PHPointerList::clear Pages: 1 -->
<svg width="1090pt" height="136pt"
 viewBox="0.00 0.00 1090.00 136.00" xmlns="http://www.w3.org/2000/svg" xmlns:xlink="http://www.w3.org/1999/xlink">
<g id="graph0" class="graph" transform="scale(1 1) rotate(0) translate(4 132)">
<title>PHPointerList::clear</title>
<!-- Node1 -->
<g id="node1" class="node"><title>Node1</title>
<polygon fill="#bfbfbf" stroke="black" points="0,-54.5 0,-73.5 104,-73.5 104,-54.5 0,-54.5"/>
<text text-anchor="middle" x="52" y="-61.5" font-family="FreeSans" font-size="10.00">PHPointerList::clear</text>
</g>
<!-- Node2 -->
<g id="node2" class="node"><title>Node2</title>
<g id="a_node2"><a xlink:href="../../d5/d07/classPHNodeIterator.html#a110a5b87a02a22deecae334f32387ffa" target="_top" xlink:title="PHNodeIterator::ls">
<polygon fill="none" stroke="black" points="140.5,-54.5 140.5,-73.5 237.5,-73.5 237.5,-54.5 140.5,-54.5"/>
<text text-anchor="middle" x="189" y="-61.5" font-family="FreeSans" font-size="10.00">PHNodeIterator::ls</text>
</a>
</g>
</g>
<!-- Node1&#45;&gt;Node2 -->
<g id="edge1" class="edge"><title>Node1&#45;&gt;Node2</title>
<path fill="none" stroke="midnightblue" d="M114.256,-64C123.046,-64 131.979,-64 140.452,-64"/>
<polygon fill="midnightblue" stroke="midnightblue" points="114.038,-60.5001 104.038,-64 114.038,-67.5001 114.038,-60.5001"/>
</g>
<!-- Node3 -->
<g id="node3" class="node"><title>Node3</title>
<g id="a_node3"><a xlink:href="../../da/d29/classFun4AllServer.html#a3654ebdcb099bcc5c820df6d4952663c" target="_top" xlink:title="Fun4AllServer::CountOutNodes\lRecursive">
<polygon fill="none" stroke="black" points="274,-98 274,-128 426,-128 426,-98 274,-98"/>
<text text-anchor="start" x="282" y="-116" font-family="FreeSans" font-size="10.00">Fun4AllServer::CountOutNodes</text>
<text text-anchor="middle" x="350" y="-105" font-family="FreeSans" font-size="10.00">Recursive</text>
</a>
</g>
</g>
<!-- Node2&#45;&gt;Node3 -->
<g id="edge2" class="edge"><title>Node2&#45;&gt;Node3</title>
<path fill="none" stroke="midnightblue" d="M230.7,-76.5426C251.886,-83.0719 277.944,-91.1024 300.207,-97.963"/>
<polygon fill="midnightblue" stroke="midnightblue" points="231.622,-73.1644 221.034,-73.564 229.56,-79.8539 231.622,-73.1644"/>
</g>
<!-- Node10 -->
<g id="node10" class="node"><title>Node10</title>
<g id="a_node10"><a xlink:href="../../da/d29/classFun4AllServer.html#ac9e5b55796d46d41f6f0ec9e3422959a" target="_top" xlink:title="Fun4AllServer::MakeNodes\lPersistent">
<polygon fill="none" stroke="black" points="282.5,-49 282.5,-79 417.5,-79 417.5,-49 282.5,-49"/>
<text text-anchor="start" x="290.5" y="-67" font-family="FreeSans" font-size="10.00">Fun4AllServer::MakeNodes</text>
<text text-anchor="middle" x="350" y="-56" font-family="FreeSans" font-size="10.00">Persistent</text>
</a>
</g>
</g>
<!-- Node2&#45;&gt;Node10 -->
<g id="edge9" class="edge"><title>Node2&#45;&gt;Node10</title>
<path fill="none" stroke="midnightblue" d="M247.777,-64C258.965,-64 270.775,-64 282.223,-64"/>
<polygon fill="midnightblue" stroke="midnightblue" points="247.705,-60.5001 237.705,-64 247.705,-67.5001 247.705,-60.5001"/>
</g>
<!-- Node12 -->
<g id="node12" class="node"><title>Node12</title>
<g id="a_node12"><a xlink:href="../../da/d29/classFun4AllServer.html#a92c6fe0e0c19c48d2b1f9d0f63c12bbe" target="_top" xlink:title="Fun4AllServer::MakeNodes\lTransient">
<polygon fill="none" stroke="black" points="282.5,-0 282.5,-30 417.5,-30 417.5,-0 282.5,-0"/>
<text text-anchor="start" x="290.5" y="-18" font-family="FreeSans" font-size="10.00">Fun4AllServer::MakeNodes</text>
<text text-anchor="middle" x="350" y="-7" font-family="FreeSans" font-size="10.00">Transient</text>
</a>
</g>
</g>
<!-- Node2&#45;&gt;Node12 -->
<g id="edge11" class="edge"><title>Node2&#45;&gt;Node12</title>
<path fill="none" stroke="midnightblue" d="M230.7,-51.4574C251.886,-44.9281 277.944,-36.8976 300.207,-30.037"/>
<polygon fill="midnightblue" stroke="midnightblue" points="229.56,-48.1461 221.034,-54.436 231.622,-54.8356 229.56,-48.1461"/>
</g>
<!-- Node4 -->
<g id="node4" class="node"><title>Node4</title>
<g id="a_node4"><a xlink:href="../../da/d29/classFun4AllServer.html#a6f3f13c3a8b5c29457e694ba910296aa" target="_top" xlink:title="Fun4AllServer::CountOutNodes">
<polygon fill="none" stroke="black" points="462,-101.5 462,-120.5 614,-120.5 614,-101.5 462,-101.5"/>
<text text-anchor="middle" x="538" y="-108.5" font-family="FreeSans" font-size="10.00">Fun4AllServer::CountOutNodes</text>
</a>
</g>
</g>
<!-- Node3&#45;&gt;Node4 -->
<g id="edge3" class="edge"><title>Node3&#45;&gt;Node4</title>
<path fill="none" stroke="midnightblue" d="M436.147,-112.084C444.742,-111.992 453.426,-111.899 461.905,-111.807"/>
<polygon fill="midnightblue" stroke="midnightblue" points="436.079,-108.585 426.117,-112.192 436.154,-115.584 436.079,-108.585"/>
</g>
<!-- Node5 -->
<g id="node5" class="node"><title>Node5</title>
<g id="a_node5"><a xlink:href="../../da/d29/classFun4AllServer.html#a6a65a944dfb40966ace97d35ab1f7942" target="_top" xlink:title="Fun4AllServer::process\l_event">
<polygon fill="none" stroke="black" points="650.5,-48 650.5,-78 767.5,-78 767.5,-48 650.5,-48"/>
<text text-anchor="start" x="658.5" y="-66" font-family="FreeSans" font-size="10.00">Fun4AllServer::process</text>
<text text-anchor="middle" x="709" y="-55" font-family="FreeSans" font-size="10.00">_event</text>
</a>
</g>
</g>
<!-- Node4&#45;&gt;Node5 -->
<g id="edge4" class="edge"><title>Node4&#45;&gt;Node5</title>
<path fill="none" stroke="midnightblue" d="M582.567,-98.6261C604.659,-92.3514 631.673,-84.6787 654.966,-78.063"/>
<polygon fill="midnightblue" stroke="midnightblue" points="581.457,-95.3028 572.793,-101.402 583.369,-102.036 581.457,-95.3028"/>
</g>
<!-- Node6 -->
<g id="node6" class="node"><title>Node6</title>
<g id="a_node6"><a xlink:href="../../da/d29/classFun4AllServer.html#a94738b092fa009fcea45737d8ea41224" target="_top" xlink:title="Fun4AllServer::process\l_event">
<polygon fill="none" stroke="black" points="804.5,-70 804.5,-100 921.5,-100 921.5,-70 804.5,-70"/>
<text text-anchor="start" x="812.5" y="-88" font-family="FreeSans" font-size="10.00">Fun4AllServer::process</text>
<text text-anchor="middle" x="863" y="-77" font-family="FreeSans" font-size="10.00">_event</text>
</a>
</g>
</g>
<!-- Node5&#45;&gt;Node6 -->
<g id="edge5" class="edge"><title>Node5&#45;&gt;Node6</title>
<path fill="none" stroke="midnightblue" d="M778.072,-72.8525C786.817,-74.1183 795.704,-75.4045 804.263,-76.6433"/>
<polygon fill="midnightblue" stroke="midnightblue" points="778.297,-69.3486 767.898,-71.38 777.294,-76.2764 778.297,-69.3486"/>
</g>
<!-- Node7 -->
<g id="node7" class="node"><title>Node7</title>
<g id="a_node7"><a xlink:href="../../da/d29/classFun4AllServer.html#a11bbc8b2f53bc06e0b05ee202dd6372a" target="_top" xlink:title="run n events (0 means up to end of file) ">
<polygon fill="none" stroke="black" points="815,-31.5 815,-50.5 911,-50.5 911,-31.5 815,-31.5"/>
<text text-anchor="middle" x="863" y="-38.5" font-family="FreeSans" font-size="10.00">Fun4AllServer::run</text>
</a>
</g>
</g>
<!-- Node5&#45;&gt;Node7 -->
<g id="edge6" class="edge"><title>Node5&#45;&gt;Node7</title>
<path fill="none" stroke="midnightblue" d="M778.152,-53.1359C790.471,-51.3529 803.067,-49.5297 814.629,-47.8563"/>
<polygon fill="midnightblue" stroke="midnightblue" points="777.294,-49.7236 767.898,-54.62 778.297,-56.6514 777.294,-49.7236"/>
</g>
<!-- Node8 -->
<g id="node8" class="node"><title>Node8</title>
<g id="a_node8"><a xlink:href="../../d0/d46/Fun4__SimpleReadMySql_8C.html#a70381893748e3445abc30632beb256ce" target="_top" xlink:title="Fun4_SimpleReadMySql">
<polygon fill="none" stroke="black" points="958.5,-50.5 958.5,-69.5 1081.5,-69.5 1081.5,-50.5 958.5,-50.5"/>
<text text-anchor="middle" x="1020" y="-57.5" font-family="FreeSans" font-size="10.00">Fun4_SimpleReadMySql</text>
</a>
</g>
</g>
<!-- Node7&#45;&gt;Node8 -->
<g id="edge7" class="edge"><title>Node7&#45;&gt;Node8</title>
<path fill="none" stroke="midnightblue" d="M921.328,-48.0273C933.441,-49.5121 946.26,-51.0835 958.487,-52.5823"/>
<polygon fill="midnightblue" stroke="midnightblue" points="921.699,-44.5467 911.347,-46.8039 920.847,-51.4947 921.699,-44.5467"/>
</g>
<!-- Node9 -->
<g id="node9" class="node"><title>Node9</title>
<g id="a_node9"><a xlink:href="../../d9/d8c/Fun4ReadMySql_8C.html#a729b39fa627147c63772f28c9be36b62" target="_top" xlink:title="Fun4ReadMySql">
<polygon fill="none" stroke="black" points="976,-12.5 976,-31.5 1064,-31.5 1064,-12.5 976,-12.5"/>
<text text-anchor="middle" x="1020" y="-19.5" font-family="FreeSans" font-size="10.00">Fun4ReadMySql</text>
</a>
</g>
</g>
<!-- Node7&#45;&gt;Node9 -->
<g id="edge8" class="edge"><title>Node7&#45;&gt;Node9</title>
<path fill="none" stroke="midnightblue" d="M921.457,-33.9569C939.476,-31.7481 959.048,-29.349 975.898,-27.2835"/>
<polygon fill="midnightblue" stroke="midnightblue" points="920.847,-30.5054 911.347,-35.1961 921.699,-37.4533 920.847,-30.5054"/>
</g>
<!-- Node11 -->
<g id="node11" class="node"><title>Node11</title>
<g id="a_node11"><a xlink:href="../../da/daa/classFun4AllDstOutputManager.html#aa4b5b519c6db1540d03007c8c21436fc" target="_top" xlink:title="write starting from given node ">
<polygon fill="none" stroke="black" points="472.5,-47 472.5,-77 603.5,-77 603.5,-47 472.5,-47"/>
<text text-anchor="start" x="480.5" y="-65" font-family="FreeSans" font-size="10.00">Fun4AllDstOutputManager</text>
<text text-anchor="middle" x="538" y="-54" font-family="FreeSans" font-size="10.00">::Write</text>
</a>
</g>
</g>
<!-- Node10&#45;&gt;Node11 -->
<g id="edge10" class="edge"><title>Node10&#45;&gt;Node11</title>
<path fill="none" stroke="midnightblue" d="M427.781,-63.1744C442.609,-63.015 458.005,-62.8494 472.398,-62.6946"/>
<polygon fill="midnightblue" stroke="midnightblue" points="427.587,-59.6762 417.625,-63.2836 427.662,-66.6758 427.587,-59.6762"/>
</g>
<!-- Node12&#45;&gt;Node5 -->
<g id="edge12" class="edge"><title>Node12&#45;&gt;Node5</title>
<path fill="none" stroke="midnightblue" d="M427.93,-17.6561C480.629,-20.3972 551.944,-25.9221 614,-37 629.169,-39.7078 645.431,-43.7758 660.093,-47.8949"/>
<polygon fill="midnightblue" stroke="midnightblue" points="427.809,-14.1458 417.647,-17.1442 427.46,-21.1372 427.809,-14.1458"/>
</g>
<!-- Node12&#45;&gt;Node11 -->
<g id="edge13" class="edge"><title>Node12&#45;&gt;Node11</title>
<path fill="none" stroke="midnightblue" d="M420.091,-32.4585C438.975,-37.2302 459.269,-42.3584 477.563,-46.981"/>
<polygon fill="midnightblue" stroke="midnightblue" points="420.916,-29.0569 410.363,-30.0003 419.201,-35.8436 420.916,-29.0569"/>
</g>
</g>
</svg>
