<?xml version="1.0" encoding="UTF-8" standalone="no"?>
<!DOCTYPE svg PUBLIC "-//W3C//DTD SVG 1.1//EN"
 "http://www.w3.org/Graphics/SVG/1.1/DTD/svg11.dtd">
<!-- Generated by graphviz version 2.36.0 (20140111.2315)
 -->
<!-- Title: PHPointerList::removeAt Pages: 1 -->
<svg width="314pt" height="66pt"
 viewBox="0.00 0.00 314.00 66.00" xmlns="http://www.w3.org/2000/svg" xmlns:xlink="http://www.w3.org/1999/xlink">
<g id="graph0" class="graph" transform="scale(1 1) rotate(0) translate(4 62)">
<title>PHPointerList::removeAt</title>
<!-- Node1 -->
<g id="node1" class="node"><title>Node1</title>
<polygon fill="#bfbfbf" stroke="black" points="0.5,-19.5 0.5,-38.5 125.5,-38.5 125.5,-19.5 0.5,-19.5"/>
<text text-anchor="middle" x="63" y="-26.5" font-family="FreeSans" font-size="10.00">PHPointerList::removeAt</text>
</g>
<!-- Node2 -->
<g id="node2" class="node"><title>Node2</title>
<g id="a_node2"><a xlink:href="../../d5/dca/classPHCompositeNode.html#a012e50d9437dbf9d84a9f4bb00a7f495" target="_top" xlink:title="PHCompositeNode::forgetMe">
<polygon fill="none" stroke="black" points="162.5,-38.5 162.5,-57.5 305.5,-57.5 305.5,-38.5 162.5,-38.5"/>
<text text-anchor="middle" x="234" y="-45.5" font-family="FreeSans" font-size="10.00">PHCompositeNode::forgetMe</text>
</a>
</g>
</g>
<!-- Node1&#45;&gt;Node2 -->
<g id="edge1" class="edge"><title>Node1&#45;&gt;Node2</title>
<path fill="none" stroke="midnightblue" d="M136.114,-37.1075C144.845,-38.0891 153.757,-39.091 162.465,-40.07"/>
<polygon fill="midnightblue" stroke="midnightblue" points="136.298,-33.6062 125.97,-35.967 135.516,-40.5624 136.298,-33.6062"/>
</g>
<!-- Node3 -->
<g id="node3" class="node"><title>Node3</title>
<g id="a_node3"><a xlink:href="../../d5/dca/classPHCompositeNode.html#a54f3041607c9d4c9eabecc489553925f" target="_top" xlink:title="PHCompositeNode::prune">
<polygon fill="none" stroke="black" points="169.5,-0.5 169.5,-19.5 298.5,-19.5 298.5,-0.5 169.5,-0.5"/>
<text text-anchor="middle" x="234" y="-7.5" font-family="FreeSans" font-size="10.00">PHCompositeNode::prune</text>
</a>
</g>
</g>
<!-- Node1&#45;&gt;Node3 -->
<g id="edge2" class="edge"><title>Node1&#45;&gt;Node3</title>
<path fill="none" stroke="midnightblue" d="M136.032,-20.9017C147.103,-19.657 158.466,-18.3796 169.338,-17.1573"/>
<polygon fill="midnightblue" stroke="midnightblue" points="135.516,-17.4376 125.97,-22.033 136.298,-24.3938 135.516,-17.4376"/>
</g>
</g>
</svg>
