<?xml version="1.0" encoding="UTF-8" standalone="no"?>
<!DOCTYPE svg PUBLIC "-//W3C//DTD SVG 1.1//EN"
 "http://www.w3.org/Graphics/SVG/1.1/DTD/svg11.dtd">
<!-- Generated by graphviz version 2.36.0 (20140111.2315)
 -->
<!-- Title: PHPointerList::append Pages: 1 -->
<svg width="1522pt" height="479pt"
 viewBox="0.00 0.00 1522.00 478.78" xmlns="http://www.w3.org/2000/svg" xmlns:xlink="http://www.w3.org/1999/xlink">
<g id="graph0" class="graph" transform="scale(1 1) rotate(0) translate(4 474.782)">
<title>PHPointerList::append</title>
<!-- Node1 -->
<g id="node1" class="node"><title>Node1</title>
<polygon fill="#bfbfbf" stroke="black" points="0,-182.5 0,-201.5 114,-201.5 114,-182.5 0,-182.5"/>
<text text-anchor="middle" x="57" y="-189.5" font-family="FreeSans" font-size="10.00">PHPointerList::append</text>
</g>
<!-- Node2 -->
<g id="node2" class="node"><title>Node2</title>
<g id="a_node2"><a xlink:href="../../d5/dca/classPHCompositeNode.html#ac7dbf017614c324e218a001d729607bf" target="_top" xlink:title="PHCompositeNode::addNode">
<polygon fill="none" stroke="black" points="150,-262.5 150,-281.5 294,-281.5 294,-262.5 150,-262.5"/>
<text text-anchor="middle" x="222" y="-269.5" font-family="FreeSans" font-size="10.00">PHCompositeNode::addNode</text>
</a>
</g>
</g>
<!-- Node1&#45;&gt;Node2 -->
<g id="edge1" class="edge"><title>Node1&#45;&gt;Node2</title>
<path fill="none" stroke="midnightblue" d="M86.8055,-206.138C119.822,-222.342 173.037,-248.46 201.522,-262.44"/>
<polygon fill="midnightblue" stroke="midnightblue" points="88.1808,-202.914 77.6616,-201.65 85.0966,-209.198 88.1808,-202.914"/>
</g>
<!-- Node23 -->
<g id="node23" class="node"><title>Node23</title>
<g id="a_node23"><a xlink:href="../../d5/d07/classPHNodeIterator.html#a110a5b87a02a22deecae334f32387ffa" target="_top" xlink:title="PHNodeIterator::ls">
<polygon fill="none" stroke="black" points="173.5,-78.5 173.5,-97.5 270.5,-97.5 270.5,-78.5 173.5,-78.5"/>
<text text-anchor="middle" x="222" y="-85.5" font-family="FreeSans" font-size="10.00">PHNodeIterator::ls</text>
</a>
</g>
</g>
<!-- Node1&#45;&gt;Node23 -->
<g id="edge26" class="edge"><title>Node1&#45;&gt;Node23</title>
<path fill="none" stroke="midnightblue" d="M81.8799,-176.764C115.982,-155.005 177.639,-115.666 205.994,-97.5745"/>
<polygon fill="midnightblue" stroke="midnightblue" points="79.5901,-174.073 73.0425,-182.402 83.3553,-179.974 79.5901,-174.073"/>
</g>
<!-- Node3 -->
<g id="node3" class="node"><title>Node3</title>
<g id="a_node3"><a xlink:href="../../d5/d07/classPHNodeIterator.html#a2c183a75c6a6784f38ff15b6163eb7ee" target="_top" xlink:title="PHNodeIterator::addNode">
<polygon fill="none" stroke="black" points="343,-322.5 343,-341.5 471,-341.5 471,-322.5 343,-322.5"/>
<text text-anchor="middle" x="407" y="-329.5" font-family="FreeSans" font-size="10.00">PHNodeIterator::addNode</text>
</a>
</g>
</g>
<!-- Node2&#45;&gt;Node3 -->
<g id="edge2" class="edge"><title>Node2&#45;&gt;Node3</title>
<path fill="none" stroke="midnightblue" d="M255.103,-285.47C276.17,-294.017 304.449,-304.943 330,-313 340.896,-316.436 352.824,-319.662 363.933,-322.447"/>
<polygon fill="midnightblue" stroke="midnightblue" points="256.257,-282.16 245.677,-281.609 253.604,-288.638 256.257,-282.16"/>
</g>
<!-- Node12 -->
<g id="node12" class="node"><title>Node12</title>
<g id="a_node12"><a xlink:href="../../da/dd8/classFun4AllPrdfInputManager.html#a36fdaca3254cbb07a00af64b10488385" target="_top" xlink:title="Fun4AllPrdfInputManager\l::Fun4AllPrdfInputManager">
<polygon fill="none" stroke="black" points="341.5,-235 341.5,-265 472.5,-265 472.5,-235 341.5,-235"/>
<text text-anchor="start" x="349.5" y="-253" font-family="FreeSans" font-size="10.00">Fun4AllPrdfInputManager</text>
<text text-anchor="middle" x="407" y="-242" font-family="FreeSans" font-size="10.00">::Fun4AllPrdfInputManager</text>
</a>
</g>
</g>
<!-- Node2&#45;&gt;Node12 -->
<g id="edge14" class="edge"><title>Node2&#45;&gt;Node12</title>
<path fill="none" stroke="midnightblue" d="M303.962,-262.267C316.46,-260.764 329.224,-259.23 341.304,-257.778"/>
<polygon fill="midnightblue" stroke="midnightblue" points="303.525,-258.794 294.015,-263.463 304.361,-265.744 303.525,-258.794"/>
</g>
<!-- Node13 -->
<g id="node13" class="node"><title>Node13</title>
<g id="a_node13"><a xlink:href="../../da/d29/classFun4AllServer.html#ac42fd391b795d9605811abb9394c2011" target="_top" xlink:title="Fun4AllServer::getNode">
<polygon fill="none" stroke="black" points="724.5,-437.5 724.5,-456.5 843.5,-456.5 843.5,-437.5 724.5,-437.5"/>
<text text-anchor="middle" x="784" y="-444.5" font-family="FreeSans" font-size="10.00">Fun4AllServer::getNode</text>
</a>
</g>
</g>
<!-- Node2&#45;&gt;Node13 -->
<g id="edge15" class="edge"><title>Node2&#45;&gt;Node13</title>
<path fill="none" stroke="midnightblue" d="M231.27,-291.217C246.019,-322.921 280.07,-385.597 330,-415 460.1,-491.614 649.045,-471.512 735.997,-456.52"/>
<polygon fill="midnightblue" stroke="midnightblue" points="234.305,-289.432 227.013,-281.745 227.92,-292.301 234.305,-289.432"/>
</g>
<!-- Node14 -->
<g id="node14" class="node"><title>Node14</title>
<g id="a_node14"><a xlink:href="../../da/d29/classFun4AllServer.html#a2ebfcdcf706670c98c189bfa93c3ff89" target="_top" xlink:title="Fun4AllServer::InitNodeTree">
<polygon fill="none" stroke="black" points="337.5,-284.5 337.5,-303.5 476.5,-303.5 476.5,-284.5 337.5,-284.5"/>
<text text-anchor="middle" x="407" y="-291.5" font-family="FreeSans" font-size="10.00">Fun4AllServer::InitNodeTree</text>
</a>
</g>
</g>
<!-- Node2&#45;&gt;Node14 -->
<g id="edge17" class="edge"><title>Node2&#45;&gt;Node14</title>
<path fill="none" stroke="midnightblue" d="M304.142,-281.755C315.254,-283.091 326.572,-284.451 337.429,-285.757"/>
<polygon fill="midnightblue" stroke="midnightblue" points="304.361,-278.256 294.015,-280.537 303.525,-285.206 304.361,-278.256"/>
</g>
<!-- Node18 -->
<g id="node18" class="node"><title>Node18</title>
<g id="a_node18"><a xlink:href="../../d6/dc8/classFun4AllPrdfOutputManager.html#a1d891012ff50062628d053f825426c80" target="_top" xlink:title="PRDF node initialization [class specific method]. ">
<polygon fill="none" stroke="black" points="340,-147 340,-177 474,-177 474,-147 340,-147"/>
<text text-anchor="start" x="348" y="-165" font-family="FreeSans" font-size="10.00">Fun4AllPrdfOutputManager</text>
<text text-anchor="middle" x="407" y="-154" font-family="FreeSans" font-size="10.00">::InitPrdfNode</text>
</a>
</g>
</g>
<!-- Node2&#45;&gt;Node18 -->
<g id="edge21" class="edge"><title>Node2&#45;&gt;Node18</title>
<path fill="none" stroke="midnightblue" d="M240.164,-255.139C260.222,-236.245 295.129,-205.804 330,-187 336.969,-183.242 344.602,-179.918 352.258,-177.022"/>
<polygon fill="midnightblue" stroke="midnightblue" points="237.56,-252.786 232.758,-262.23 242.401,-257.842 237.56,-252.786"/>
</g>
<!-- Node19 -->
<g id="node19" class="node"><title>Node19</title>
<g id="a_node19"><a xlink:href="../../d0/d68/classSimpleReadMySql.html#a650a5f65ee1634450425061b781ec942" target="_top" xlink:title="SimpleReadMySql::MakeNodes">
<polygon fill="none" stroke="black" points="330.5,-196.5 330.5,-215.5 483.5,-215.5 483.5,-196.5 330.5,-196.5"/>
<text text-anchor="middle" x="407" y="-203.5" font-family="FreeSans" font-size="10.00">SimpleReadMySql::MakeNodes</text>
</a>
</g>
</g>
<!-- Node2&#45;&gt;Node19 -->
<g id="edge22" class="edge"><title>Node2&#45;&gt;Node19</title>
<path fill="none" stroke="midnightblue" d="M251.441,-257.932C272.706,-247.803 302.696,-234.335 330,-225 340.424,-221.436 351.86,-218.225 362.624,-215.501"/>
<polygon fill="midnightblue" stroke="midnightblue" points="249.816,-254.83 242.326,-262.323 252.854,-261.136 249.816,-254.83"/>
</g>
<!-- Node21 -->
<g id="node21" class="node"><title>Node21</title>
<g id="a_node21"><a xlink:href="../../db/dda/classReadMySql.html#a893da68c47d48aaa94b6a6befdb4ab85" target="_top" xlink:title="ReadMySql::MakeNodes">
<polygon fill="none" stroke="black" points="345.5,-386.5 345.5,-405.5 468.5,-405.5 468.5,-386.5 345.5,-386.5"/>
<text text-anchor="middle" x="407" y="-393.5" font-family="FreeSans" font-size="10.00">ReadMySql::MakeNodes</text>
</a>
</g>
</g>
<!-- Node2&#45;&gt;Node21 -->
<g id="edge24" class="edge"><title>Node2&#45;&gt;Node21</title>
<path fill="none" stroke="midnightblue" d="M243.183,-287.859C264.373,-304.279 298.873,-330.371 330,-351 349.684,-364.045 373.188,-377.68 388.793,-386.474"/>
<polygon fill="midnightblue" stroke="midnightblue" points="245.267,-285.045 235.226,-281.662 240.966,-290.568 245.267,-285.045"/>
</g>
<!-- Node4 -->
<g id="node4" class="node"><title>Node4</title>
<g id="a_node4"><a xlink:href="../../d7/ddf/classPHDataNodeIterator.html#ada64e599ccfdcb102d9fb539225bab14" target="_top" xlink:title="PHDataNodeIterator\l::AddIODataNode">
<polygon fill="none" stroke="black" points="545.5,-363 545.5,-393 650.5,-393 650.5,-363 545.5,-363"/>
<text text-anchor="start" x="553.5" y="-381" font-family="FreeSans" font-size="10.00">PHDataNodeIterator</text>
<text text-anchor="middle" x="598" y="-370" font-family="FreeSans" font-size="10.00">::AddIODataNode</text>
</a>
</g>
</g>
<!-- Node3&#45;&gt;Node4 -->
<g id="edge3" class="edge"><title>Node3&#45;&gt;Node4</title>
<path fill="none" stroke="midnightblue" d="M457.196,-343.974C484.279,-350.565 517.865,-358.74 545.33,-365.424"/>
<polygon fill="midnightblue" stroke="midnightblue" points="457.705,-340.495 447.161,-341.531 456.05,-347.297 457.705,-340.495"/>
</g>
<!-- Node5 -->
<g id="node5" class="node"><title>Node5</title>
<g id="a_node5"><a xlink:href="../../d7/d4d/classPHNodeIOManager.html#a3882997324989c7dd04e9f6b728af7db" target="_top" xlink:title="PHNodeIOManager::reconstruct\lNodeTree">
<polygon fill="none" stroke="black" points="520.5,-314 520.5,-344 675.5,-344 675.5,-314 520.5,-314"/>
<text text-anchor="start" x="528.5" y="-332" font-family="FreeSans" font-size="10.00">PHNodeIOManager::reconstruct</text>
<text text-anchor="middle" x="598" y="-321" font-family="FreeSans" font-size="10.00">NodeTree</text>
</a>
</g>
</g>
<!-- Node3&#45;&gt;Node5 -->
<g id="edge4" class="edge"><title>Node3&#45;&gt;Node5</title>
<path fill="none" stroke="midnightblue" d="M481.335,-330.836C494.147,-330.633 507.506,-330.421 520.404,-330.216"/>
<polygon fill="midnightblue" stroke="midnightblue" points="481.14,-327.339 471.197,-330.997 481.251,-334.338 481.14,-327.339"/>
</g>
<!-- Node6 -->
<g id="node6" class="node"><title>Node6</title>
<g id="a_node6"><a xlink:href="../../d7/d4d/classPHNodeIOManager.html#a92da4bff2438e94d469011b7720f286f" target="_top" xlink:title="PHNodeIOManager::read">
<polygon fill="none" stroke="black" points="721.5,-331.5 721.5,-350.5 846.5,-350.5 846.5,-331.5 721.5,-331.5"/>
<text text-anchor="middle" x="784" y="-338.5" font-family="FreeSans" font-size="10.00">PHNodeIOManager::read</text>
</a>
</g>
</g>
<!-- Node5&#45;&gt;Node6 -->
<g id="edge5" class="edge"><title>Node5&#45;&gt;Node6</title>
<path fill="none" stroke="midnightblue" d="M685.73,-334.656C697.725,-335.439 709.84,-336.229 721.256,-336.973"/>
<polygon fill="midnightblue" stroke="midnightblue" points="685.907,-331.16 675.7,-334.002 685.451,-338.146 685.907,-331.16"/>
</g>
<!-- Node7 -->
<g id="node7" class="node"><title>Node7</title>
<g id="a_node7"><a xlink:href="../../d7/d0b/classFun4AllDstInputManager.html#a4d32eadb9f77d41387656b87377ef14f" target="_top" xlink:title="Fun4AllDstInputManager\l::fileopen">
<polygon fill="none" stroke="black" points="892,-408 892,-438 1016,-438 1016,-408 892,-408"/>
<text text-anchor="start" x="900" y="-426" font-family="FreeSans" font-size="10.00">Fun4AllDstInputManager</text>
<text text-anchor="middle" x="954" y="-415" font-family="FreeSans" font-size="10.00">::fileopen</text>
</a>
</g>
</g>
<!-- Node6&#45;&gt;Node7 -->
<g id="edge6" class="edge"><title>Node6&#45;&gt;Node7</title>
<path fill="none" stroke="midnightblue" d="M813.755,-355.035C843.933,-369.765 891.202,-392.837 922.145,-407.94"/>
<polygon fill="midnightblue" stroke="midnightblue" points="815.122,-351.808 804.601,-350.567 812.052,-358.099 815.122,-351.808"/>
</g>
<!-- Node9 -->
<g id="node9" class="node"><title>Node9</title>
<g id="a_node9"><a xlink:href="../../d7/d0b/classFun4AllDstInputManager.html#ade26017b627e0e1f1ec0dec62ac7fd52" target="_top" xlink:title="Fun4AllDstInputManager\l::ReadNextEventSyncObject">
<polygon fill="none" stroke="black" points="1213.5,-370 1213.5,-400 1352.5,-400 1352.5,-370 1213.5,-370"/>
<text text-anchor="start" x="1221.5" y="-388" font-family="FreeSans" font-size="10.00">Fun4AllDstInputManager</text>
<text text-anchor="middle" x="1283" y="-377" font-family="FreeSans" font-size="10.00">::ReadNextEventSyncObject</text>
</a>
</g>
</g>
<!-- Node6&#45;&gt;Node9 -->
<g id="edge11" class="edge"><title>Node6&#45;&gt;Node9</title>
<path fill="none" stroke="midnightblue" d="M856.825,-350.933C868.568,-352.403 880.614,-353.818 892,-355 1004.29,-366.657 1135.22,-375.826 1213.21,-380.822"/>
<polygon fill="midnightblue" stroke="midnightblue" points="856.97,-347.423 846.608,-349.632 856.085,-354.367 856.97,-347.423"/>
</g>
<!-- Node10 -->
<g id="node10" class="node"><title>Node10</title>
<g id="a_node10"><a xlink:href="../../d7/d0b/classFun4AllDstInputManager.html#a0244c2edbaa2350038304b09f352c2d0" target="_top" xlink:title="Fun4AllDstInputManager\l::SyncIt">
<polygon fill="none" stroke="black" points="1390,-329 1390,-359 1514,-359 1514,-329 1390,-329"/>
<text text-anchor="start" x="1398" y="-347" font-family="FreeSans" font-size="10.00">Fun4AllDstInputManager</text>
<text text-anchor="middle" x="1452" y="-336" font-family="FreeSans" font-size="10.00">::SyncIt</text>
</a>
</g>
</g>
<!-- Node6&#45;&gt;Node10 -->
<g id="edge13" class="edge"><title>Node6&#45;&gt;Node10</title>
<path fill="none" stroke="midnightblue" d="M856.838,-331.968C965.024,-319.863 1176.06,-302.074 1354,-322 1367.21,-323.48 1381.25,-326.06 1394.43,-328.944"/>
<polygon fill="midnightblue" stroke="midnightblue" points="856.235,-328.514 846.694,-333.12 857.025,-335.469 856.235,-328.514"/>
</g>
<!-- Node11 -->
<g id="node11" class="node"><title>Node11</title>
<g id="a_node11"><a xlink:href="../../d7/d0b/classFun4AllDstInputManager.html#aeafa0248f9050c13fdae1bcb93336d7a" target="_top" xlink:title="Fun4AllDstInputManager::run">
<polygon fill="none" stroke="black" points="1212,-331.5 1212,-350.5 1354,-350.5 1354,-331.5 1212,-331.5"/>
<text text-anchor="middle" x="1283" y="-338.5" font-family="FreeSans" font-size="10.00">Fun4AllDstInputManager::run</text>
</a>
</g>
</g>
<!-- Node6&#45;&gt;Node11 -->
<g id="edge12" class="edge"><title>Node6&#45;&gt;Node11</title>
<path fill="none" stroke="midnightblue" d="M856.776,-341C951.708,-341 1117.95,-341 1211.99,-341"/>
<polygon fill="midnightblue" stroke="midnightblue" points="856.69,-337.5 846.69,-341 856.69,-344.5 856.69,-337.5"/>
</g>
<!-- Node8 -->
<g id="node8" class="node"><title>Node8</title>
<g id="a_node8"><a xlink:href="../../d7/d0b/classFun4AllDstInputManager.html#ae4e92b95ae50ab72856d06c99b043496" target="_top" xlink:title="Fun4AllDstInputManager\l::OpenNextFile">
<polygon fill="none" stroke="black" points="1052,-408 1052,-438 1176,-438 1176,-408 1052,-408"/>
<text text-anchor="start" x="1060" y="-426" font-family="FreeSans" font-size="10.00">Fun4AllDstInputManager</text>
<text text-anchor="middle" x="1114" y="-415" font-family="FreeSans" font-size="10.00">::OpenNextFile</text>
</a>
</g>
</g>
<!-- Node7&#45;&gt;Node8 -->
<g id="edge7" class="edge"><title>Node7&#45;&gt;Node8</title>
<path fill="none" stroke="midnightblue" d="M1026.37,-423C1034.86,-423 1043.48,-423 1051.82,-423"/>
<polygon fill="midnightblue" stroke="midnightblue" points="1026.09,-419.5 1016.09,-423 1026.09,-426.5 1026.09,-419.5"/>
</g>
<!-- Node8&#45;&gt;Node9 -->
<g id="edge8" class="edge"><title>Node8&#45;&gt;Node9</title>
<path fill="none" stroke="midnightblue" d="M1186.06,-406.83C1195.99,-404.571 1206.16,-402.257 1215.99,-400.02"/>
<polygon fill="midnightblue" stroke="midnightblue" points="1185.21,-403.434 1176.24,-409.066 1186.76,-410.26 1185.21,-403.434"/>
</g>
<!-- Node8&#45;&gt;Node11 -->
<g id="edge10" class="edge"><title>Node8&#45;&gt;Node11</title>
<path fill="none" stroke="midnightblue" d="M1142.46,-401.843C1161.2,-388.27 1187.04,-371.161 1212,-360 1220.28,-356.299 1229.43,-353.176 1238.32,-350.6"/>
<polygon fill="midnightblue" stroke="midnightblue" points="1140.36,-399.046 1134.39,-407.796 1144.51,-404.68 1140.36,-399.046"/>
</g>
<!-- Node9&#45;&gt;Node10 -->
<g id="edge9" class="edge"><title>Node9&#45;&gt;Node10</title>
<path fill="none" stroke="midnightblue" d="M1355.23,-367.512C1366.73,-364.69 1378.54,-361.79 1389.77,-359.032"/>
<polygon fill="midnightblue" stroke="midnightblue" points="1354.11,-364.183 1345.24,-369.966 1355.78,-370.981 1354.11,-364.183"/>
</g>
<!-- Node13&#45;&gt;Node7 -->
<g id="edge16" class="edge"><title>Node13&#45;&gt;Node7</title>
<path fill="none" stroke="midnightblue" d="M853.786,-437.173C866.447,-435.365 879.584,-433.488 891.995,-431.715"/>
<polygon fill="midnightblue" stroke="midnightblue" points="853.163,-433.727 843.758,-438.606 854.153,-440.656 853.163,-433.727"/>
</g>
<!-- Node15 -->
<g id="node15" class="node"><title>Node15</title>
<g id="a_node15"><a xlink:href="../../da/d29/classFun4AllServer.html#aa1939c3e2c3113cce0a6415103b4f5a5" target="_top" xlink:title="Fun4AllServer::InitAll">
<polygon fill="none" stroke="black" points="544.5,-275.5 544.5,-294.5 651.5,-294.5 651.5,-275.5 544.5,-275.5"/>
<text text-anchor="middle" x="598" y="-282.5" font-family="FreeSans" font-size="10.00">Fun4AllServer::InitAll</text>
</a>
</g>
</g>
<!-- Node14&#45;&gt;Node15 -->
<g id="edge18" class="edge"><title>Node14&#45;&gt;Node15</title>
<path fill="none" stroke="midnightblue" d="M486.595,-290.257C506.096,-289.329 526.527,-288.356 544.437,-287.503"/>
<polygon fill="midnightblue" stroke="midnightblue" points="486.323,-286.766 476.501,-290.738 486.656,-293.758 486.323,-286.766"/>
</g>
<!-- Node17 -->
<g id="node17" class="node"><title>Node17</title>
<g id="a_node17"><a xlink:href="../../da/d29/classFun4AllServer.html#a3477a81b5b754fccc94dfa8283d041f4" target="_top" xlink:title="Fun4AllServer::topNode">
<polygon fill="none" stroke="black" points="538.5,-237.5 538.5,-256.5 657.5,-256.5 657.5,-237.5 538.5,-237.5"/>
<text text-anchor="middle" x="598" y="-244.5" font-family="FreeSans" font-size="10.00">Fun4AllServer::topNode</text>
</a>
</g>
</g>
<!-- Node14&#45;&gt;Node17 -->
<g id="edge20" class="edge"><title>Node14&#45;&gt;Node17</title>
<path fill="none" stroke="midnightblue" d="M455.834,-282.007C475.683,-277.04 498.95,-271.228 520,-266 532.428,-262.913 545.988,-259.562 558.217,-256.545"/>
<polygon fill="midnightblue" stroke="midnightblue" points="454.945,-278.622 446.094,-284.446 456.645,-285.412 454.945,-278.622"/>
</g>
<!-- Node16 -->
<g id="node16" class="node"><title>Node16</title>
<g id="a_node16"><a xlink:href="../../da/d29/classFun4AllServer.html#a90e27f05f0b2e8b6fe462387b14bfb92" target="_top" xlink:title="Fun4AllServer::Fun4AllServer">
<polygon fill="none" stroke="black" points="712,-275.5 712,-294.5 856,-294.5 856,-275.5 712,-275.5"/>
<text text-anchor="middle" x="784" y="-282.5" font-family="FreeSans" font-size="10.00">Fun4AllServer::Fun4AllServer</text>
</a>
</g>
</g>
<!-- Node15&#45;&gt;Node16 -->
<g id="edge19" class="edge"><title>Node15&#45;&gt;Node16</title>
<path fill="none" stroke="midnightblue" d="M662.037,-285C678.046,-285 695.359,-285 711.746,-285"/>
<polygon fill="midnightblue" stroke="midnightblue" points="661.727,-281.5 651.727,-285 661.727,-288.5 661.727,-281.5"/>
</g>
<!-- Node20 -->
<g id="node20" class="node"><title>Node20</title>
<g id="a_node20"><a xlink:href="../../d0/d68/classSimpleReadMySql.html#ace02cda93f92690611b99f9bb06a677c" target="_top" xlink:title="SimpleReadMySql::InitRun">
<polygon fill="none" stroke="black" points="532.5,-196.5 532.5,-215.5 663.5,-215.5 663.5,-196.5 532.5,-196.5"/>
<text text-anchor="middle" x="598" y="-203.5" font-family="FreeSans" font-size="10.00">SimpleReadMySql::InitRun</text>
</a>
</g>
</g>
<!-- Node19&#45;&gt;Node20 -->
<g id="edge23" class="edge"><title>Node19&#45;&gt;Node20</title>
<path fill="none" stroke="midnightblue" d="M493.812,-206C506.737,-206 519.88,-206 532.263,-206"/>
<polygon fill="midnightblue" stroke="midnightblue" points="493.513,-202.5 483.513,-206 493.513,-209.5 493.513,-202.5"/>
</g>
<!-- Node22 -->
<g id="node22" class="node"><title>Node22</title>
<g id="a_node22"><a xlink:href="../../db/dda/classReadMySql.html#ab73b7895d9b3e258b58f31b66b93a827" target="_top" xlink:title="ReadMySql::InitRun">
<polygon fill="none" stroke="black" points="547.5,-412.5 547.5,-431.5 648.5,-431.5 648.5,-412.5 547.5,-412.5"/>
<text text-anchor="middle" x="598" y="-419.5" font-family="FreeSans" font-size="10.00">ReadMySql::InitRun</text>
</a>
</g>
</g>
<!-- Node21&#45;&gt;Node22 -->
<g id="edge25" class="edge"><title>Node21&#45;&gt;Node22</title>
<path fill="none" stroke="midnightblue" d="M478.605,-405.713C501.525,-408.866 526.451,-412.295 547.495,-415.19"/>
<polygon fill="midnightblue" stroke="midnightblue" points="478.964,-402.229 468.581,-404.334 478.01,-409.164 478.964,-402.229"/>
</g>
<!-- Node24 -->
<g id="node24" class="node"><title>Node24</title>
<g id="a_node24"><a xlink:href="../../da/d29/classFun4AllServer.html#a3654ebdcb099bcc5c820df6d4952663c" target="_top" xlink:title="Fun4AllServer::CountOutNodes\lRecursive">
<polygon fill="none" stroke="black" points="331,-98 331,-128 483,-128 483,-98 331,-98"/>
<text text-anchor="start" x="339" y="-116" font-family="FreeSans" font-size="10.00">Fun4AllServer::CountOutNodes</text>
<text text-anchor="middle" x="407" y="-105" font-family="FreeSans" font-size="10.00">Recursive</text>
</a>
</g>
</g>
<!-- Node23&#45;&gt;Node24 -->
<g id="edge27" class="edge"><title>Node23&#45;&gt;Node24</title>
<path fill="none" stroke="midnightblue" d="M280.814,-95.898C296.735,-98.0731 314.237,-100.464 330.979,-102.751"/>
<polygon fill="midnightblue" stroke="midnightblue" points="280.985,-92.389 270.603,-94.5032 280.038,-99.3246 280.985,-92.389"/>
</g>
<!-- Node31 -->
<g id="node31" class="node"><title>Node31</title>
<g id="a_node31"><a xlink:href="../../da/d29/classFun4AllServer.html#ac9e5b55796d46d41f6f0ec9e3422959a" target="_top" xlink:title="Fun4AllServer::MakeNodes\lPersistent">
<polygon fill="none" stroke="black" points="339.5,-0 339.5,-30 474.5,-30 474.5,-0 339.5,-0"/>
<text text-anchor="start" x="347.5" y="-18" font-family="FreeSans" font-size="10.00">Fun4AllServer::MakeNodes</text>
<text text-anchor="middle" x="407" y="-7" font-family="FreeSans" font-size="10.00">Persistent</text>
</a>
</g>
</g>
<!-- Node23&#45;&gt;Node31 -->
<g id="edge34" class="edge"><title>Node23&#45;&gt;Node31</title>
<path fill="none" stroke="midnightblue" d="M251.164,-73.944C272.507,-63.5772 302.719,-49.5079 330,-39 338.135,-35.8668 346.868,-32.8222 355.413,-30.0124"/>
<polygon fill="midnightblue" stroke="midnightblue" points="249.465,-70.8787 242.023,-78.4205 252.544,-77.1653 249.465,-70.8787"/>
</g>
<!-- Node33 -->
<g id="node33" class="node"><title>Node33</title>
<g id="a_node33"><a xlink:href="../../da/d29/classFun4AllServer.html#a92c6fe0e0c19c48d2b1f9d0f63c12bbe" target="_top" xlink:title="Fun4AllServer::MakeNodes\lTransient">
<polygon fill="none" stroke="black" points="339.5,-49 339.5,-79 474.5,-79 474.5,-49 339.5,-49"/>
<text text-anchor="start" x="347.5" y="-67" font-family="FreeSans" font-size="10.00">Fun4AllServer::MakeNodes</text>
<text text-anchor="middle" x="407" y="-56" font-family="FreeSans" font-size="10.00">Transient</text>
</a>
</g>
</g>
<!-- Node23&#45;&gt;Node33 -->
<g id="edge36" class="edge"><title>Node23&#45;&gt;Node33</title>
<path fill="none" stroke="midnightblue" d="M280.704,-80.4323C299.33,-77.9895 320.13,-75.2616 339.348,-72.7412"/>
<polygon fill="midnightblue" stroke="midnightblue" points="280.063,-76.9862 270.603,-81.7569 280.974,-83.9268 280.063,-76.9862"/>
</g>
<!-- Node25 -->
<g id="node25" class="node"><title>Node25</title>
<g id="a_node25"><a xlink:href="../../da/d29/classFun4AllServer.html#a6f3f13c3a8b5c29457e694ba910296aa" target="_top" xlink:title="Fun4AllServer::CountOutNodes">
<polygon fill="none" stroke="black" points="522,-101.5 522,-120.5 674,-120.5 674,-101.5 522,-101.5"/>
<text text-anchor="middle" x="598" y="-108.5" font-family="FreeSans" font-size="10.00">Fun4AllServer::CountOutNodes</text>
</a>
</g>
</g>
<!-- Node24&#45;&gt;Node25 -->
<g id="edge28" class="edge"><title>Node24&#45;&gt;Node25</title>
<path fill="none" stroke="midnightblue" d="M493.415,-112.096C502.851,-111.996 512.41,-111.895 521.709,-111.797"/>
<polygon fill="midnightblue" stroke="midnightblue" points="493.203,-108.598 483.241,-112.204 493.277,-115.598 493.203,-108.598"/>
</g>
<!-- Node26 -->
<g id="node26" class="node"><title>Node26</title>
<g id="a_node26"><a xlink:href="../../da/d29/classFun4AllServer.html#a6a65a944dfb40966ace97d35ab1f7942" target="_top" xlink:title="Fun4AllServer::process\l_event">
<polygon fill="none" stroke="black" points="725.5,-77 725.5,-107 842.5,-107 842.5,-77 725.5,-77"/>
<text text-anchor="start" x="733.5" y="-95" font-family="FreeSans" font-size="10.00">Fun4AllServer::process</text>
<text text-anchor="middle" x="784" y="-84" font-family="FreeSans" font-size="10.00">_event</text>
</a>
</g>
</g>
<!-- Node25&#45;&gt;Node26 -->
<g id="edge29" class="edge"><title>Node25&#45;&gt;Node26</title>
<path fill="none" stroke="midnightblue" d="M684.194,-102.203C698.125,-100.764 712.265,-99.3042 725.327,-97.9553"/>
<polygon fill="midnightblue" stroke="midnightblue" points="683.693,-98.7358 674.105,-103.245 684.412,-105.699 683.693,-98.7358"/>
</g>
<!-- Node27 -->
<g id="node27" class="node"><title>Node27</title>
<g id="a_node27"><a xlink:href="../../da/d29/classFun4AllServer.html#a94738b092fa009fcea45737d8ea41224" target="_top" xlink:title="Fun4AllServer::process\l_event">
<polygon fill="none" stroke="black" points="895.5,-99 895.5,-129 1012.5,-129 1012.5,-99 895.5,-99"/>
<text text-anchor="start" x="903.5" y="-117" font-family="FreeSans" font-size="10.00">Fun4AllServer::process</text>
<text text-anchor="middle" x="954" y="-106" font-family="FreeSans" font-size="10.00">_event</text>
</a>
</g>
</g>
<!-- Node26&#45;&gt;Node27 -->
<g id="edge30" class="edge"><title>Node26&#45;&gt;Node27</title>
<path fill="none" stroke="midnightblue" d="M852.929,-100.895C867.002,-102.738 881.7,-104.663 895.362,-106.452"/>
<polygon fill="midnightblue" stroke="midnightblue" points="853.186,-97.3993 842.816,-99.5712 852.277,-104.34 853.186,-97.3993"/>
</g>
<!-- Node28 -->
<g id="node28" class="node"><title>Node28</title>
<g id="a_node28"><a xlink:href="../../da/d29/classFun4AllServer.html#a11bbc8b2f53bc06e0b05ee202dd6372a" target="_top" xlink:title="run n events (0 means up to end of file) ">
<polygon fill="none" stroke="black" points="906,-60.5 906,-79.5 1002,-79.5 1002,-60.5 906,-60.5"/>
<text text-anchor="middle" x="954" y="-67.5" font-family="FreeSans" font-size="10.00">Fun4AllServer::run</text>
</a>
</g>
</g>
<!-- Node26&#45;&gt;Node28 -->
<g id="edge31" class="edge"><title>Node26&#45;&gt;Node28</title>
<path fill="none" stroke="midnightblue" d="M853.117,-83.0799C870.847,-80.7582 889.556,-78.3081 905.929,-76.1641"/>
<polygon fill="midnightblue" stroke="midnightblue" points="852.277,-79.66 842.816,-84.4288 853.186,-86.6007 852.277,-79.66"/>
</g>
<!-- Node29 -->
<g id="node29" class="node"><title>Node29</title>
<g id="a_node29"><a xlink:href="../../d0/d46/Fun4__SimpleReadMySql_8C.html#a70381893748e3445abc30632beb256ce" target="_top" xlink:title="Fun4_SimpleReadMySql">
<polygon fill="none" stroke="black" points="1052.5,-79.5 1052.5,-98.5 1175.5,-98.5 1175.5,-79.5 1052.5,-79.5"/>
<text text-anchor="middle" x="1114" y="-86.5" font-family="FreeSans" font-size="10.00">Fun4_SimpleReadMySql</text>
</a>
</g>
</g>
<!-- Node28&#45;&gt;Node29 -->
<g id="edge32" class="edge"><title>Node28&#45;&gt;Node29</title>
<path fill="none" stroke="midnightblue" d="M1012.59,-76.9258C1025.56,-78.4847 1039.35,-80.1437 1052.43,-81.7167"/>
<polygon fill="midnightblue" stroke="midnightblue" points="1012.75,-73.4197 1002.41,-75.7006 1011.92,-80.3696 1012.75,-73.4197"/>
</g>
<!-- Node30 -->
<g id="node30" class="node"><title>Node30</title>
<g id="a_node30"><a xlink:href="../../d9/d8c/Fun4ReadMySql_8C.html#a729b39fa627147c63772f28c9be36b62" target="_top" xlink:title="Fun4ReadMySql">
<polygon fill="none" stroke="black" points="1070,-41.5 1070,-60.5 1158,-60.5 1158,-41.5 1070,-41.5"/>
<text text-anchor="middle" x="1114" y="-48.5" font-family="FreeSans" font-size="10.00">Fun4ReadMySql</text>
</a>
</g>
</g>
<!-- Node28&#45;&gt;Node30 -->
<g id="edge33" class="edge"><title>Node28&#45;&gt;Node30</title>
<path fill="none" stroke="midnightblue" d="M1012.44,-63.0926C1031.43,-60.8093 1052.22,-58.3095 1069.94,-56.1785"/>
<polygon fill="midnightblue" stroke="midnightblue" points="1011.92,-59.6304 1002.41,-64.2994 1012.75,-66.5803 1011.92,-59.6304"/>
</g>
<!-- Node32 -->
<g id="node32" class="node"><title>Node32</title>
<g id="a_node32"><a xlink:href="../../da/daa/classFun4AllDstOutputManager.html#aa4b5b519c6db1540d03007c8c21436fc" target="_top" xlink:title="write starting from given node ">
<polygon fill="none" stroke="black" points="532.5,-2 532.5,-32 663.5,-32 663.5,-2 532.5,-2"/>
<text text-anchor="start" x="540.5" y="-20" font-family="FreeSans" font-size="10.00">Fun4AllDstOutputManager</text>
<text text-anchor="middle" x="598" y="-9" font-family="FreeSans" font-size="10.00">::Write</text>
</a>
</g>
</g>
<!-- Node31&#45;&gt;Node32 -->
<g id="edge35" class="edge"><title>Node31&#45;&gt;Node32</title>
<path fill="none" stroke="midnightblue" d="M484.853,-15.8133C500.581,-15.9797 516.985,-16.1533 532.238,-16.3147"/>
<polygon fill="midnightblue" stroke="midnightblue" points="484.671,-12.3112 474.634,-15.7051 484.597,-19.3108 484.671,-12.3112"/>
</g>
<!-- Node33&#45;&gt;Node26 -->
<g id="edge37" class="edge"><title>Node33&#45;&gt;Node26</title>
<path fill="none" stroke="midnightblue" d="M484.888,-69.741C556.242,-75.0687 660.86,-82.8802 725.305,-87.6921"/>
<polygon fill="midnightblue" stroke="midnightblue" points="484.843,-66.228 474.61,-68.9736 484.322,-73.2085 484.843,-66.228"/>
</g>
<!-- Node33&#45;&gt;Node32 -->
<g id="edge38" class="edge"><title>Node33&#45;&gt;Node32</title>
<path fill="none" stroke="midnightblue" d="M478.206,-46.5415C497.394,-41.7698 518.016,-36.6416 536.604,-32.019"/>
<polygon fill="midnightblue" stroke="midnightblue" points="477.18,-43.1898 468.32,-48.9997 478.87,-49.9829 477.18,-43.1898"/>
</g>
</g>
</svg>
