<?xml version="1.0" encoding="UTF-8" standalone="no"?>
<!DOCTYPE svg PUBLIC "-//W3C//DTD SVG 1.1//EN"
 "http://www.w3.org/Graphics/SVG/1.1/DTD/svg11.dtd">
<!-- Generated by graphviz version 2.36.0 (20140111.2315)
 -->
<!-- Title: fun4all/fun4all/Fun4AllUtils.h Pages: 1 -->
<svg width="148pt" height="84pt"
 viewBox="0.00 0.00 148.00 84.00" xmlns="http://www.w3.org/2000/svg" xmlns:xlink="http://www.w3.org/1999/xlink">
<g id="graph0" class="graph" transform="scale(1 1) rotate(0) translate(4 80)">
<title>fun4all/fun4all/Fun4AllUtils.h</title>
<!-- Node1 -->
<g id="node1" class="node"><title>Node1</title>
<polygon fill="#bfbfbf" stroke="black" points="0,-56.5 0,-75.5 140,-75.5 140,-56.5 0,-56.5"/>
<text text-anchor="middle" x="70" y="-63.5" font-family="FreeSans" font-size="10.00">fun4all/fun4all/Fun4AllUtils.h</text>
</g>
<!-- Node2 -->
<g id="node2" class="node"><title>Node2</title>
<polygon fill="none" stroke="#bfbfbf" points="24.5,-0.5 24.5,-19.5 59.5,-19.5 59.5,-0.5 24.5,-0.5"/>
<text text-anchor="middle" x="42" y="-7.5" font-family="FreeSans" font-size="10.00">map</text>
</g>
<!-- Node1&#45;&gt;Node2 -->
<g id="edge1" class="edge"><title>Node1&#45;&gt;Node2</title>
<path fill="none" stroke="midnightblue" d="M65.3764,-56.083C61.5437,-48.6913 55.9758,-37.9533 51.2354,-28.8111"/>
<polygon fill="midnightblue" stroke="midnightblue" points="54.248,-27.0175 46.5376,-19.7511 48.0337,-30.2398 54.248,-27.0175"/>
</g>
<!-- Node3 -->
<g id="node3" class="node"><title>Node3</title>
<polygon fill="none" stroke="#bfbfbf" points="77.5,-0.5 77.5,-19.5 118.5,-19.5 118.5,-0.5 77.5,-0.5"/>
<text text-anchor="middle" x="98" y="-7.5" font-family="FreeSans" font-size="10.00">string</text>
</g>
<!-- Node1&#45;&gt;Node3 -->
<g id="edge2" class="edge"><title>Node1&#45;&gt;Node3</title>
<path fill="none" stroke="midnightblue" d="M74.6236,-56.083C78.4563,-48.6913 84.0242,-37.9533 88.7646,-28.8111"/>
<polygon fill="midnightblue" stroke="midnightblue" points="91.9663,-30.2398 93.4624,-19.7511 85.752,-27.0175 91.9663,-30.2398"/>
</g>
</g>
</svg>
