<?xml version="1.0" encoding="UTF-8" standalone="no"?>
<!DOCTYPE svg PUBLIC "-//W3C//DTD SVG 1.1//EN"
 "http://www.w3.org/Graphics/SVG/1.1/DTD/svg11.dtd">
<!-- Generated by graphviz version 2.36.0 (20140111.2315)
 -->
<!-- Title: SyncObject Pages: 1 -->
<svg width="84pt" height="252pt"
 viewBox="0.00 0.00 84.00 252.00" xmlns="http://www.w3.org/2000/svg" xmlns:xlink="http://www.w3.org/1999/xlink">
<g id="graph0" class="graph" transform="scale(1 1) rotate(0) translate(4 248)">
<title>SyncObject</title>
<!-- Node1 -->
<g id="node1" class="node"><title>Node1</title>
<polygon fill="#bfbfbf" stroke="black" points="4.5,-112.5 4.5,-131.5 71.5,-131.5 71.5,-112.5 4.5,-112.5"/>
<text text-anchor="middle" x="38" y="-119.5" font-family="FreeSans" font-size="10.00">SyncObject</text>
</g>
<!-- Node4 -->
<g id="node4" class="node"><title>Node4</title>
<g id="a_node4"><a xlink:href="../../d9/d30/classSyncObjectv1.html" target="_top" xlink:title="SyncObjectv1">
<polygon fill="none" stroke="black" points="-0.5,-56.5 -0.5,-75.5 76.5,-75.5 76.5,-56.5 -0.5,-56.5"/>
<text text-anchor="middle" x="38" y="-63.5" font-family="FreeSans" font-size="10.00">SyncObjectv1</text>
</a>
</g>
</g>
<!-- Node1&#45;&gt;Node4 -->
<g id="edge4" class="edge"><title>Node1&#45;&gt;Node4</title>
<path fill="none" stroke="midnightblue" d="M38,-101.805C38,-92.9102 38,-82.7798 38,-75.7511"/>
<polygon fill="midnightblue" stroke="midnightblue" points="34.5001,-102.083 38,-112.083 41.5001,-102.083 34.5001,-102.083"/>
</g>
<!-- Node2 -->
<g id="node2" class="node"><title>Node2</title>
<g id="a_node2"><a xlink:href="../../d9/d24/classPHObject.html" target="_top" xlink:title="PHObject">
<polygon fill="none" stroke="black" points="8.5,-168.5 8.5,-187.5 67.5,-187.5 67.5,-168.5 8.5,-168.5"/>
<text text-anchor="middle" x="38" y="-175.5" font-family="FreeSans" font-size="10.00">PHObject</text>
</a>
</g>
</g>
<!-- Node2&#45;&gt;Node1 -->
<g id="edge1" class="edge"><title>Node2&#45;&gt;Node1</title>
<path fill="none" stroke="midnightblue" d="M31.5276,-158.101C30.8956,-149.136 31.3427,-138.858 32.869,-131.751"/>
<polygon fill="midnightblue" stroke="midnightblue" points="28.0658,-158.622 32.8337,-168.083 35.0067,-157.713 28.0658,-158.622"/>
</g>
<!-- Node2&#45;&gt;Node1 -->
<g id="edge3" class="edge"><title>Node2&#45;&gt;Node1</title>
<path fill="none" stroke="midnightblue" d="M44.4724,-158.101C45.1044,-149.136 44.6573,-138.858 43.131,-131.751"/>
<polygon fill="midnightblue" stroke="midnightblue" points="40.9933,-157.713 43.1663,-168.083 47.9342,-158.622 40.9933,-157.713"/>
</g>
<!-- Node3 -->
<g id="node3" class="node"><title>Node3</title>
<polygon fill="none" stroke="#bfbfbf" points="12.5,-224.5 12.5,-243.5 63.5,-243.5 63.5,-224.5 12.5,-224.5"/>
<text text-anchor="middle" x="38" y="-231.5" font-family="FreeSans" font-size="10.00">TObject</text>
</g>
<!-- Node3&#45;&gt;Node2 -->
<g id="edge2" class="edge"><title>Node3&#45;&gt;Node2</title>
<path fill="none" stroke="midnightblue" d="M38,-213.805C38,-204.91 38,-194.78 38,-187.751"/>
<polygon fill="midnightblue" stroke="midnightblue" points="34.5001,-214.083 38,-224.083 41.5001,-214.083 34.5001,-214.083"/>
</g>
<!-- Node5 -->
<g id="node5" class="node"><title>Node5</title>
<g id="a_node5"><a xlink:href="../../df/da3/classSyncObjectv2.html" target="_top" xlink:title="SyncObjectv2">
<polygon fill="none" stroke="black" points="-0.5,-0.5 -0.5,-19.5 76.5,-19.5 76.5,-0.5 -0.5,-0.5"/>
<text text-anchor="middle" x="38" y="-7.5" font-family="FreeSans" font-size="10.00">SyncObjectv2</text>
</a>
</g>
</g>
<!-- Node4&#45;&gt;Node5 -->
<g id="edge5" class="edge"><title>Node4&#45;&gt;Node5</title>
<path fill="none" stroke="midnightblue" d="M38,-45.8045C38,-36.9102 38,-26.7798 38,-19.7511"/>
<polygon fill="midnightblue" stroke="midnightblue" points="34.5001,-46.083 38,-56.083 41.5001,-46.083 34.5001,-46.083"/>
</g>
</g>
</svg>
