<?xml version="1.0" encoding="UTF-8" standalone="no"?>
<!DOCTYPE svg PUBLIC "-//W3C//DTD SVG 1.1//EN"
 "http://www.w3.org/Graphics/SVG/1.1/DTD/svg11.dtd">
<!-- Generated by graphviz version 2.36.0 (20140111.2315)
 -->
<!-- Title: fun4all/phool/PHTimeStamp.cc Pages: 1 -->
<svg width="300pt" height="196pt"
 viewBox="0.00 0.00 300.00 196.00" xmlns="http://www.w3.org/2000/svg" xmlns:xlink="http://www.w3.org/1999/xlink">
<g id="graph0" class="graph" transform="scale(1 1) rotate(0) translate(4 192)">
<title>fun4all/phool/PHTimeStamp.cc</title>
<!-- Node1 -->
<g id="node1" class="node"><title>Node1</title>
<polygon fill="#bfbfbf" stroke="black" points="103,-168.5 103,-187.5 255,-187.5 255,-168.5 103,-168.5"/>
<text text-anchor="middle" x="179" y="-175.5" font-family="FreeSans" font-size="10.00">fun4all/phool/PHTimeStamp.cc</text>
</g>
<!-- Node2 -->
<g id="node2" class="node"><title>Node2</title>
<g id="a_node2"><a xlink:href="../../da/d32/PHTimeStamp_8h.html" target="_top" xlink:title="PHTimeStamp.h">
<polygon fill="none" stroke="black" points="36.5,-112.5 36.5,-131.5 125.5,-131.5 125.5,-112.5 36.5,-112.5"/>
<text text-anchor="middle" x="81" y="-119.5" font-family="FreeSans" font-size="10.00">PHTimeStamp.h</text>
</a>
</g>
</g>
<!-- Node1&#45;&gt;Node2 -->
<g id="edge1" class="edge"><title>Node1&#45;&gt;Node2</title>
<path fill="none" stroke="midnightblue" d="M163.255,-168.324C147.681,-159.743 123.623,-146.486 105.541,-136.522"/>
<polygon fill="midnightblue" stroke="midnightblue" points="107.154,-133.415 96.7063,-131.655 103.776,-139.546 107.154,-133.415"/>
</g>
<!-- Node5 -->
<g id="node5" class="node"><title>Node5</title>
<polygon fill="none" stroke="#bfbfbf" points="104,-0.5 104,-19.5 158,-19.5 158,-0.5 104,-0.5"/>
<text text-anchor="middle" x="131" y="-7.5" font-family="FreeSans" font-size="10.00">iostream</text>
</g>
<!-- Node1&#45;&gt;Node5 -->
<g id="edge8" class="edge"><title>Node1&#45;&gt;Node5</title>
<path fill="none" stroke="midnightblue" d="M176.419,-168.075C168.864,-141.945 146.675,-65.2106 136.372,-29.577"/>
<polygon fill="midnightblue" stroke="midnightblue" points="139.618,-28.2023 133.478,-19.5681 132.893,-30.1468 139.618,-28.2023"/>
</g>
<!-- Node7 -->
<g id="node7" class="node"><title>Node7</title>
<polygon fill="none" stroke="#bfbfbf" points="182.5,-112.5 182.5,-131.5 227.5,-131.5 227.5,-112.5 182.5,-112.5"/>
<text text-anchor="middle" x="205" y="-119.5" font-family="FreeSans" font-size="10.00">cstdlib</text>
</g>
<!-- Node1&#45;&gt;Node7 -->
<g id="edge6" class="edge"><title>Node1&#45;&gt;Node7</title>
<path fill="none" stroke="midnightblue" d="M183.293,-168.083C186.852,-160.691 192.022,-149.953 196.424,-140.811"/>
<polygon fill="midnightblue" stroke="midnightblue" points="199.602,-142.279 200.787,-131.751 193.295,-139.243 199.602,-142.279"/>
</g>
<!-- Node8 -->
<g id="node8" class="node"><title>Node8</title>
<polygon fill="none" stroke="#bfbfbf" points="246,-112.5 246,-131.5 292,-131.5 292,-112.5 246,-112.5"/>
<text text-anchor="middle" x="269" y="-119.5" font-family="FreeSans" font-size="10.00">cstring</text>
</g>
<!-- Node1&#45;&gt;Node8 -->
<g id="edge7" class="edge"><title>Node1&#45;&gt;Node8</title>
<path fill="none" stroke="midnightblue" d="M193.46,-168.324C207.5,-159.9 229.048,-146.971 245.543,-137.074"/>
<polygon fill="midnightblue" stroke="midnightblue" points="247.802,-139.801 254.576,-131.655 244.2,-133.798 247.802,-139.801"/>
</g>
<!-- Node3 -->
<g id="node3" class="node"><title>Node3</title>
<g id="a_node3"><a xlink:href="../../df/d32/PHObject_8h.html" target="_top" xlink:title="PHObject.h">
<polygon fill="none" stroke="black" points="-0.5,-56.5 -0.5,-75.5 66.5,-75.5 66.5,-56.5 -0.5,-56.5"/>
<text text-anchor="middle" x="33" y="-63.5" font-family="FreeSans" font-size="10.00">PHObject.h</text>
</a>
</g>
</g>
<!-- Node2&#45;&gt;Node3 -->
<g id="edge2" class="edge"><title>Node2&#45;&gt;Node3</title>
<path fill="none" stroke="midnightblue" d="M73.0738,-112.083C66.1539,-104.298 55.9346,-92.8015 47.548,-83.3665"/>
<polygon fill="midnightblue" stroke="midnightblue" points="50.0383,-80.8999 40.7787,-75.7511 44.8065,-85.5505 50.0383,-80.8999"/>
</g>
<!-- Node6 -->
<g id="node6" class="node"><title>Node6</title>
<polygon fill="none" stroke="#bfbfbf" points="84.5,-56.5 84.5,-75.5 125.5,-75.5 125.5,-56.5 84.5,-56.5"/>
<text text-anchor="middle" x="105" y="-63.5" font-family="FreeSans" font-size="10.00">ctime</text>
</g>
<!-- Node2&#45;&gt;Node6 -->
<g id="edge5" class="edge"><title>Node2&#45;&gt;Node6</title>
<path fill="none" stroke="midnightblue" d="M84.9631,-112.083C88.2133,-104.77 92.9194,-94.1814 96.954,-85.1034"/>
<polygon fill="midnightblue" stroke="midnightblue" points="100.248,-86.3107 101.111,-75.7511 93.8508,-83.4677 100.248,-86.3107"/>
</g>
<!-- Node4 -->
<g id="node4" class="node"><title>Node4</title>
<polygon fill="none" stroke="#bfbfbf" points="3.5,-0.5 3.5,-19.5 62.5,-19.5 62.5,-0.5 3.5,-0.5"/>
<text text-anchor="middle" x="33" y="-7.5" font-family="FreeSans" font-size="10.00">TObject.h</text>
</g>
<!-- Node3&#45;&gt;Node4 -->
<g id="edge3" class="edge"><title>Node3&#45;&gt;Node4</title>
<path fill="none" stroke="midnightblue" d="M33,-56.083C33,-49.0059 33,-38.8611 33,-29.9865"/>
<polygon fill="midnightblue" stroke="midnightblue" points="36.5001,-29.751 33,-19.7511 29.5001,-29.7511 36.5001,-29.751"/>
</g>
<!-- Node3&#45;&gt;Node5 -->
<g id="edge4" class="edge"><title>Node3&#45;&gt;Node5</title>
<path fill="none" stroke="midnightblue" d="M48.7454,-56.324C64.3187,-47.7428 88.3773,-34.486 106.459,-24.5224"/>
<polygon fill="midnightblue" stroke="midnightblue" points="108.224,-27.546 115.294,-19.6545 104.846,-21.4152 108.224,-27.546"/>
</g>
</g>
</svg>
