<?xml version="1.0" encoding="UTF-8" standalone="no"?>
<!DOCTYPE svg PUBLIC "-//W3C//DTD SVG 1.1//EN"
 "http://www.w3.org/Graphics/SVG/1.1/DTD/svg11.dtd">
<!-- Generated by graphviz version 2.36.0 (20140111.2315)
 -->
<!-- Title: PHMessage Pages: 1 -->
<svg width="612pt" height="82pt"
 viewBox="0.00 0.00 612.00 82.00" xmlns="http://www.w3.org/2000/svg" xmlns:xlink="http://www.w3.org/1999/xlink">
<g id="graph0" class="graph" transform="scale(1 1) rotate(0) translate(4 78)">
<title>PHMessage</title>
<!-- Node1 -->
<g id="node1" class="node"><title>Node1</title>
<polygon fill="#bfbfbf" stroke="black" points="0.5,-27.5 0.5,-46.5 71.5,-46.5 71.5,-27.5 0.5,-27.5"/>
<text text-anchor="middle" x="36" y="-34.5" font-family="FreeSans" font-size="10.00">PHMessage</text>
</g>
<!-- Node2 -->
<g id="node2" class="node"><title>Node2</title>
<g id="a_node2"><a xlink:href="../../d7/d4d/classPHNodeIOManager.html#a78c3103ae5561ab423517d5ebb880a38" target="_top" xlink:title="PHNodeIOManager::readEvent\lFromFile">
<polygon fill="none" stroke="black" points="113,-44 113,-74 263,-74 263,-44 113,-44"/>
<text text-anchor="start" x="121" y="-62" font-family="FreeSans" font-size="10.00">PHNodeIOManager::readEvent</text>
<text text-anchor="middle" x="188" y="-51" font-family="FreeSans" font-size="10.00">FromFile</text>
</a>
</g>
</g>
<!-- Node1&#45;&gt;Node2 -->
<g id="edge1" class="edge"><title>Node1&#45;&gt;Node2</title>
<path fill="none" stroke="midnightblue" d="M81.9772,-43.5966C91.6924,-45.0215 102.213,-46.5645 112.714,-48.1047"/>
<polygon fill="midnightblue" stroke="midnightblue" points="82.1921,-40.0908 71.79,-42.1025 81.1763,-47.0167 82.1921,-40.0908"/>
</g>
<!-- Node4 -->
<g id="node4" class="node"><title>Node4</title>
<g id="a_node4"><a xlink:href="../../d7/d4d/classPHNodeIOManager.html#a46838c856432158c96650747545e0645" target="_top" xlink:title="PHNodeIOManager::readSpecific">
<polygon fill="none" stroke="black" points="108,-5.5 108,-24.5 268,-24.5 268,-5.5 108,-5.5"/>
<text text-anchor="middle" x="188" y="-12.5" font-family="FreeSans" font-size="10.00">PHNodeIOManager::readSpecific</text>
</a>
</g>
</g>
<!-- Node1&#45;&gt;Node4 -->
<g id="edge3" class="edge"><title>Node1&#45;&gt;Node4</title>
<path fill="none" stroke="midnightblue" d="M82.0121,-30.3982C94.6062,-28.5511 108.551,-26.5059 122.053,-24.5256"/>
<polygon fill="midnightblue" stroke="midnightblue" points="81.1763,-26.9833 71.79,-31.8975 82.1921,-33.9092 81.1763,-26.9833"/>
</g>
<!-- Node3 -->
<g id="node3" class="node"><title>Node3</title>
<g id="a_node3"><a xlink:href="../../d7/d4d/classPHNodeIOManager.html#a2b725c7a0d47b26925b38bbe26edd399" target="_top" xlink:title="PHNodeIOManager::read">
<polygon fill="none" stroke="black" points="311.5,-49.5 311.5,-68.5 436.5,-68.5 436.5,-49.5 311.5,-49.5"/>
<text text-anchor="middle" x="374" y="-56.5" font-family="FreeSans" font-size="10.00">PHNodeIOManager::read</text>
</a>
</g>
</g>
<!-- Node2&#45;&gt;Node3 -->
<g id="edge2" class="edge"><title>Node2&#45;&gt;Node3</title>
<path fill="none" stroke="midnightblue" d="M273.301,-59C286.168,-59 299.237,-59 311.492,-59"/>
<polygon fill="midnightblue" stroke="midnightblue" points="273.045,-55.5001 263.044,-59 273.044,-62.5001 273.045,-55.5001"/>
</g>
<!-- Node5 -->
<g id="node5" class="node"><title>Node5</title>
<g id="a_node5"><a xlink:href="../../d7/d0b/classFun4AllDstInputManager.html#ade26017b627e0e1f1ec0dec62ac7fd52" target="_top" xlink:title="Fun4AllDstInputManager\l::ReadNextEventSyncObject">
<polygon fill="none" stroke="black" points="304.5,-0 304.5,-30 443.5,-30 443.5,-0 304.5,-0"/>
<text text-anchor="start" x="312.5" y="-18" font-family="FreeSans" font-size="10.00">Fun4AllDstInputManager</text>
<text text-anchor="middle" x="374" y="-7" font-family="FreeSans" font-size="10.00">::ReadNextEventSyncObject</text>
</a>
</g>
</g>
<!-- Node4&#45;&gt;Node5 -->
<g id="edge4" class="edge"><title>Node4&#45;&gt;Node5</title>
<path fill="none" stroke="midnightblue" d="M278.344,-15C287.099,-15 295.886,-15 304.387,-15"/>
<polygon fill="midnightblue" stroke="midnightblue" points="278.1,-11.5001 268.1,-15 278.1,-18.5001 278.1,-11.5001"/>
</g>
<!-- Node6 -->
<g id="node6" class="node"><title>Node6</title>
<g id="a_node6"><a xlink:href="../../d7/d0b/classFun4AllDstInputManager.html#a0244c2edbaa2350038304b09f352c2d0" target="_top" xlink:title="Fun4AllDstInputManager\l::SyncIt">
<polygon fill="none" stroke="black" points="480,-0 480,-30 604,-30 604,-0 480,-0"/>
<text text-anchor="start" x="488" y="-18" font-family="FreeSans" font-size="10.00">Fun4AllDstInputManager</text>
<text text-anchor="middle" x="542" y="-7" font-family="FreeSans" font-size="10.00">::SyncIt</text>
</a>
</g>
</g>
<!-- Node5&#45;&gt;Node6 -->
<g id="edge5" class="edge"><title>Node5&#45;&gt;Node6</title>
<path fill="none" stroke="midnightblue" d="M454.1,-15C462.783,-15 471.522,-15 479.937,-15"/>
<polygon fill="midnightblue" stroke="midnightblue" points="453.957,-11.5001 443.957,-15 453.957,-18.5001 453.957,-11.5001"/>
</g>
</g>
</svg>
