<?xml version="1.0" encoding="UTF-8" standalone="no"?>
<!DOCTYPE svg PUBLIC "-//W3C//DTD SVG 1.1//EN"
 "http://www.w3.org/Graphics/SVG/1.1/DTD/svg11.dtd">
<!-- Generated by graphviz version 2.36.0 (20140111.2315)
 -->
<!-- Title: SubsysReco Pages: 1 -->
<svg width="188pt" height="140pt"
 viewBox="0.00 0.00 188.00 140.00" xmlns="http://www.w3.org/2000/svg" xmlns:xlink="http://www.w3.org/1999/xlink">
<g id="graph0" class="graph" transform="scale(1 1) rotate(0) translate(4 136)">
<title>SubsysReco</title>
<!-- Node1 -->
<g id="node1" class="node"><title>Node1</title>
<polygon fill="#bfbfbf" stroke="black" points="46.5,-56.5 46.5,-75.5 117.5,-75.5 117.5,-56.5 46.5,-56.5"/>
<text text-anchor="middle" x="82" y="-63.5" font-family="FreeSans" font-size="10.00">SubsysReco</text>
</g>
<!-- Node3 -->
<g id="node3" class="node"><title>Node3</title>
<g id="a_node3"><a xlink:href="../../db/dda/classReadMySql.html" target="_top" xlink:title="ReadMySql">
<polygon fill="none" stroke="black" points="0,-0.5 0,-19.5 66,-19.5 66,-0.5 0,-0.5"/>
<text text-anchor="middle" x="33" y="-7.5" font-family="FreeSans" font-size="10.00">ReadMySql</text>
</a>
</g>
</g>
<!-- Node1&#45;&gt;Node3 -->
<g id="edge2" class="edge"><title>Node1&#45;&gt;Node3</title>
<path fill="none" stroke="midnightblue" d="M66.9655,-48.4314C58.3778,-38.9673 47.9565,-27.4827 40.9408,-19.7511"/>
<polygon fill="midnightblue" stroke="midnightblue" points="64.5967,-51.0293 73.9086,-56.083 69.7807,-46.3254 64.5967,-51.0293"/>
</g>
<!-- Node4 -->
<g id="node4" class="node"><title>Node4</title>
<g id="a_node4"><a xlink:href="../../d0/d68/classSimpleReadMySql.html" target="_top" xlink:title="SimpleReadMySql">
<polygon fill="none" stroke="black" points="84,-0.5 84,-19.5 180,-19.5 180,-0.5 84,-0.5"/>
<text text-anchor="middle" x="132" y="-7.5" font-family="FreeSans" font-size="10.00">SimpleReadMySql</text>
</a>
</g>
</g>
<!-- Node1&#45;&gt;Node4 -->
<g id="edge3" class="edge"><title>Node1&#45;&gt;Node4</title>
<path fill="none" stroke="midnightblue" d="M97.0763,-48.7175C105.889,-39.1997 116.666,-27.5608 123.897,-19.7511"/>
<polygon fill="midnightblue" stroke="midnightblue" points="94.4824,-46.3674 90.2565,-56.083 99.6188,-51.1233 94.4824,-46.3674"/>
</g>
<!-- Node2 -->
<g id="node2" class="node"><title>Node2</title>
<g id="a_node2"><a xlink:href="../../d5/dec/classFun4AllBase.html" target="_top" xlink:title="Fun4AllBase">
<polygon fill="none" stroke="black" points="46,-112.5 46,-131.5 118,-131.5 118,-112.5 46,-112.5"/>
<text text-anchor="middle" x="82" y="-119.5" font-family="FreeSans" font-size="10.00">Fun4AllBase</text>
</a>
</g>
</g>
<!-- Node2&#45;&gt;Node1 -->
<g id="edge1" class="edge"><title>Node2&#45;&gt;Node1</title>
<path fill="none" stroke="midnightblue" d="M82,-101.805C82,-92.9102 82,-82.7798 82,-75.7511"/>
<polygon fill="midnightblue" stroke="midnightblue" points="78.5001,-102.083 82,-112.083 85.5001,-102.083 78.5001,-102.083"/>
</g>
</g>
</svg>
