<?xml version="1.0" encoding="UTF-8" standalone="no"?>
<!DOCTYPE svg PUBLIC "-//W3C//DTD SVG 1.1//EN"
 "http://www.w3.org/Graphics/SVG/1.1/DTD/svg11.dtd">
<!-- Generated by graphviz version 2.36.0 (20140111.2315)
 -->
<!-- Title: fun4all/phool/PHIOManager.h Pages: 1 -->
<svg width="1263pt" height="288pt"
 viewBox="0.00 0.00 1263.00 288.00" xmlns="http://www.w3.org/2000/svg" xmlns:xlink="http://www.w3.org/1999/xlink">
<g id="graph0" class="graph" transform="scale(1 1) rotate(0) translate(4 284)">
<title>fun4all/phool/PHIOManager.h</title>
<!-- Node1 -->
<g id="node1" class="node"><title>Node1</title>
<polygon fill="#bfbfbf" stroke="black" points="932,-260.5 932,-279.5 1076,-279.5 1076,-260.5 932,-260.5"/>
<text text-anchor="middle" x="1004" y="-267.5" font-family="FreeSans" font-size="10.00">fun4all/phool/PHIOManager.h</text>
</g>
<!-- Node2 -->
<g id="node2" class="node"><title>Node2</title>
<g id="a_node2"><a xlink:href="../../d3/d79/PHIODataNode_8h.html" target="_top" xlink:title="fun4all/phool/PHIODataNode.h">
<polygon fill="none" stroke="black" points="658,-142.5 658,-161.5 808,-161.5 808,-142.5 658,-142.5"/>
<text text-anchor="middle" x="733" y="-149.5" font-family="FreeSans" font-size="10.00">fun4all/phool/PHIODataNode.h</text>
</a>
</g>
</g>
<!-- Node1&#45;&gt;Node2 -->
<g id="edge1" class="edge"><title>Node1&#45;&gt;Node2</title>
<path fill="none" stroke="midnightblue" d="M974.809,-256.505C919.392,-232.784 800.264,-181.792 752.956,-161.542"/>
<polygon fill="midnightblue" stroke="midnightblue" points="973.502,-259.753 984.073,-260.47 976.257,-253.317 973.502,-259.753"/>
</g>
<!-- Node14 -->
<g id="node14" class="node"><title>Node14</title>
<g id="a_node14"><a xlink:href="../../dd/de7/PHNodeIOManager_8h.html" target="_top" xlink:title="fun4all/phool/PHNodeIOManager.h">
<polygon fill="none" stroke="black" points="920.5,-204.5 920.5,-223.5 1087.5,-223.5 1087.5,-204.5 920.5,-204.5"/>
<text text-anchor="middle" x="1004" y="-211.5" font-family="FreeSans" font-size="10.00">fun4all/phool/PHNodeIOManager.h</text>
</a>
</g>
</g>
<!-- Node1&#45;&gt;Node14 -->
<g id="edge16" class="edge"><title>Node1&#45;&gt;Node14</title>
<path fill="none" stroke="midnightblue" d="M1004,-249.805C1004,-240.91 1004,-230.78 1004,-223.751"/>
<polygon fill="midnightblue" stroke="midnightblue" points="1000.5,-250.083 1004,-260.083 1007.5,-250.083 1000.5,-250.083"/>
</g>
<!-- Node16 -->
<g id="node16" class="node"><title>Node16</title>
<g id="a_node16"><a xlink:href="../../d8/d21/PHIOManager_8cc.html" target="_top" xlink:title="fun4all/phool/PHIOManager.cc">
<polygon fill="none" stroke="black" points="1105.5,-204.5 1105.5,-223.5 1254.5,-223.5 1254.5,-204.5 1105.5,-204.5"/>
<text text-anchor="middle" x="1180" y="-211.5" font-family="FreeSans" font-size="10.00">fun4all/phool/PHIOManager.cc</text>
</a>
</g>
</g>
<!-- Node1&#45;&gt;Node16 -->
<g id="edge22" class="edge"><title>Node1&#45;&gt;Node16</title>
<path fill="none" stroke="midnightblue" d="M1041.69,-257.436C1074.87,-247.255 1122.43,-232.664 1152.24,-223.516"/>
<polygon fill="midnightblue" stroke="midnightblue" points="1040.42,-254.164 1031.89,-260.444 1042.47,-260.856 1040.42,-254.164"/>
</g>
<!-- Node3 -->
<g id="node3" class="node"><title>Node3</title>
<g id="a_node3"><a xlink:href="../../d3/d53/Fun4AllDstInputManager_8cc.html" target="_top" xlink:title="fun4all/fun4all/Fun4AllDst\lInputManager.cc">
<polygon fill="none" stroke="black" points="799,-1 799,-31 927,-31 927,-1 799,-1"/>
<text text-anchor="start" x="807" y="-19" font-family="FreeSans" font-size="10.00">fun4all/fun4all/Fun4AllDst</text>
<text text-anchor="middle" x="863" y="-8" font-family="FreeSans" font-size="10.00">InputManager.cc</text>
</a>
</g>
</g>
<!-- Node2&#45;&gt;Node3 -->
<g id="edge2" class="edge"><title>Node2&#45;&gt;Node3</title>
<path fill="none" stroke="midnightblue" d="M754.177,-136.759C767.708,-127.163 785.232,-113.782 799,-100 820.99,-77.9869 842.159,-48.3488 853.791,-31.0941"/>
<polygon fill="midnightblue" stroke="midnightblue" points="752.155,-133.902 745.942,-142.484 756.151,-139.649 752.155,-133.902"/>
</g>
<!-- Node4 -->
<g id="node4" class="node"><title>Node4</title>
<g id="a_node4"><a xlink:href="../../df/d03/Fun4AllSyncManager_8cc.html" target="_top" xlink:title="fun4all/fun4all/Fun4AllSync\lManager.cc">
<polygon fill="none" stroke="black" points="305,-69 305,-99 439,-99 439,-69 305,-69"/>
<text text-anchor="start" x="313" y="-87" font-family="FreeSans" font-size="10.00">fun4all/fun4all/Fun4AllSync</text>
<text text-anchor="middle" x="372" y="-76" font-family="FreeSans" font-size="10.00">Manager.cc</text>
</a>
</g>
</g>
<!-- Node2&#45;&gt;Node4 -->
<g id="edge3" class="edge"><title>Node2&#45;&gt;Node4</title>
<path fill="none" stroke="midnightblue" d="M673.749,-140.714C616.064,-130.625 525.939,-114.664 448,-100 445.092,-99.4529 442.123,-98.8891 439.124,-98.3154"/>
<polygon fill="midnightblue" stroke="midnightblue" points="673.326,-144.193 683.779,-142.466 674.531,-137.297 673.326,-144.193"/>
</g>
<!-- Node5 -->
<g id="node5" class="node"><title>Node5</title>
<g id="a_node5"><a xlink:href="../../dd/d12/ReadMySql_8C.html" target="_top" xlink:title="fun4all/modules/ReadMySql.C">
<polygon fill="none" stroke="black" points="463,-6.5 463,-25.5 609,-25.5 609,-6.5 463,-6.5"/>
<text text-anchor="middle" x="536" y="-13.5" font-family="FreeSans" font-size="10.00">fun4all/modules/ReadMySql.C</text>
</a>
</g>
</g>
<!-- Node2&#45;&gt;Node5 -->
<g id="edge4" class="edge"><title>Node2&#45;&gt;Node5</title>
<path fill="none" stroke="midnightblue" d="M748.298,-134.529C763.039,-116.614 780.94,-87.8806 765,-68 759.203,-60.7706 645.905,-38.0434 580.889,-25.5084"/>
<polygon fill="midnightblue" stroke="midnightblue" points="745.401,-132.527 741.478,-142.369 750.682,-137.122 745.401,-132.527"/>
</g>
<!-- Node6 -->
<g id="node6" class="node"><title>Node6</title>
<g id="a_node6"><a xlink:href="../../dd/d2f/SimpleReadMySql_8C.html" target="_top" xlink:title="fun4all/modules/SimpleRead\lMySql.C">
<polygon fill="none" stroke="black" points="0,-1 0,-31 140,-31 140,-1 0,-1"/>
<text text-anchor="start" x="8" y="-19" font-family="FreeSans" font-size="10.00">fun4all/modules/SimpleRead</text>
<text text-anchor="middle" x="70" y="-8" font-family="FreeSans" font-size="10.00">MySql.C</text>
</a>
</g>
</g>
<!-- Node2&#45;&gt;Node6 -->
<g id="edge5" class="edge"><title>Node2&#45;&gt;Node6</title>
<path fill="none" stroke="midnightblue" d="M647.629,-150.232C509.339,-147.861 243.224,-138.296 158,-100 123.902,-84.678 94.6772,-50.536 80.0337,-31.1532"/>
<polygon fill="midnightblue" stroke="midnightblue" points="647.71,-153.734 657.766,-150.397 647.824,-146.735 647.71,-153.734"/>
</g>
<!-- Node7 -->
<g id="node7" class="node"><title>Node7</title>
<g id="a_node7"><a xlink:href="../../dd/dd4/getClass_8h.html" target="_top" xlink:title="fun4all/phool/getClass.h">
<polygon fill="none" stroke="black" points="167,-74.5 167,-93.5 287,-93.5 287,-74.5 167,-74.5"/>
<text text-anchor="middle" x="227" y="-81.5" font-family="FreeSans" font-size="10.00">fun4all/phool/getClass.h</text>
</a>
</g>
</g>
<!-- Node2&#45;&gt;Node7 -->
<g id="edge6" class="edge"><title>Node2&#45;&gt;Node7</title>
<path fill="none" stroke="midnightblue" d="M647.708,-143.538C559.374,-135.227 417.518,-120.249 296,-100 285.238,-98.2066 273.619,-95.8472 263.04,-93.5322"/>
<polygon fill="midnightblue" stroke="midnightblue" points="647.396,-147.024 657.678,-144.469 648.047,-140.054 647.396,-147.024"/>
</g>
<!-- Node11 -->
<g id="node11" class="node"><title>Node11</title>
<g id="a_node11"><a xlink:href="../../d7/d95/PHDataNodeIterator_8h.html" target="_top" xlink:title="fun4all/phool/PHDataNode\lIterator.h">
<polygon fill="none" stroke="black" points="457,-69 457,-99 589,-99 589,-69 457,-69"/>
<text text-anchor="start" x="465" y="-87" font-family="FreeSans" font-size="10.00">fun4all/phool/PHDataNode</text>
<text text-anchor="middle" x="523" y="-76" font-family="FreeSans" font-size="10.00">Iterator.h</text>
</a>
</g>
</g>
<!-- Node2&#45;&gt;Node11 -->
<g id="edge13" class="edge"><title>Node2&#45;&gt;Node11</title>
<path fill="none" stroke="midnightblue" d="M695.97,-139.362C660.179,-128.113 605.91,-111.057 567.724,-99.0562"/>
<polygon fill="midnightblue" stroke="midnightblue" points="694.957,-142.712 705.546,-142.372 697.056,-136.034 694.957,-142.712"/>
</g>
<!-- Node12 -->
<g id="node12" class="node"><title>Node12</title>
<g id="a_node12"><a xlink:href="../../d7/d32/PHNodeIOManager_8cc.html" target="_top" xlink:title="fun4all/phool/PHNodeIOManager.cc">
<polygon fill="none" stroke="black" points="851.5,-74.5 851.5,-93.5 1024.5,-93.5 1024.5,-74.5 851.5,-74.5"/>
<text text-anchor="middle" x="938" y="-81.5" font-family="FreeSans" font-size="10.00">fun4all/phool/PHNodeIOManager.cc</text>
</a>
</g>
</g>
<!-- Node2&#45;&gt;Node12 -->
<g id="edge14" class="edge"><title>Node2&#45;&gt;Node12</title>
<path fill="none" stroke="midnightblue" d="M769.36,-139.294C810.138,-126.165 875.291,-105.189 911.518,-93.5259"/>
<polygon fill="midnightblue" stroke="midnightblue" points="768.246,-135.975 759.8,-142.372 770.392,-142.639 768.246,-135.975"/>
</g>
<!-- Node13 -->
<g id="node13" class="node"><title>Node13</title>
<g id="a_node13"><a xlink:href="../../dc/d01/PHNodeReset_8cc.html" target="_top" xlink:title="fun4all/phool/PHNodeReset.cc">
<polygon fill="none" stroke="black" points="607,-74.5 607,-93.5 757,-93.5 757,-74.5 607,-74.5"/>
<text text-anchor="middle" x="682" y="-81.5" font-family="FreeSans" font-size="10.00">fun4all/phool/PHNodeReset.cc</text>
</a>
</g>
</g>
<!-- Node2&#45;&gt;Node13 -->
<g id="edge15" class="edge"><title>Node2&#45;&gt;Node13</title>
<path fill="none" stroke="midnightblue" d="M720.103,-134.31C710.161,-121.444 696.804,-104.158 688.832,-93.8411"/>
<polygon fill="midnightblue" stroke="midnightblue" points="717.449,-136.599 726.333,-142.372 722.988,-132.319 717.449,-136.599"/>
</g>
<!-- Node7&#45;&gt;Node3 -->
<g id="edge7" class="edge"><title>Node7&#45;&gt;Node3</title>
<path fill="none" stroke="midnightblue" d="M271.599,-72.3414C279.683,-70.6847 288.066,-69.1456 296,-68 513.878,-36.5396 571.946,-62.2178 790,-32 792.948,-31.5915 795.955,-31.1354 798.987,-30.6434"/>
<polygon fill="midnightblue" stroke="midnightblue" points="270.623,-68.9709 261.574,-74.4821 272.084,-75.8165 270.623,-68.9709"/>
</g>
<!-- Node7&#45;&gt;Node5 -->
<g id="edge11" class="edge"><title>Node7&#45;&gt;Node5</title>
<path fill="none" stroke="midnightblue" d="M275.839,-72.3532C282.61,-70.8858 289.477,-69.402 296,-68 366.173,-52.9166 447.946,-35.5943 495.647,-25.515"/>
<polygon fill="midnightblue" stroke="midnightblue" points="275.068,-68.9388 266.038,-74.4801 276.553,-75.7796 275.068,-68.9388"/>
</g>
<!-- Node7&#45;&gt;Node6 -->
<g id="edge12" class="edge"><title>Node7&#45;&gt;Node6</title>
<path fill="none" stroke="midnightblue" d="M197.23,-70.4854C170.485,-59.242 131.253,-42.7498 103.437,-31.0562"/>
<polygon fill="midnightblue" stroke="midnightblue" points="195.9,-73.7228 206.475,-74.3717 198.613,-67.2698 195.9,-73.7228"/>
</g>
<!-- Node8 -->
<g id="node8" class="node"><title>Node8</title>
<g id="a_node8"><a xlink:href="../../d6/dbe/Fun4AllEventOutputManager_8cc.html" target="_top" xlink:title="fun4all/fun4all/Fun4AllEvent\lOutputManager.cc">
<polygon fill="none" stroke="black" points="158.5,-1 158.5,-31 295.5,-31 295.5,-1 158.5,-1"/>
<text text-anchor="start" x="166.5" y="-19" font-family="FreeSans" font-size="10.00">fun4all/fun4all/Fun4AllEvent</text>
<text text-anchor="middle" x="227" y="-8" font-family="FreeSans" font-size="10.00">OutputManager.cc</text>
</a>
</g>
</g>
<!-- Node7&#45;&gt;Node8 -->
<g id="edge8" class="edge"><title>Node7&#45;&gt;Node8</title>
<path fill="none" stroke="midnightblue" d="M227,-64.1737C227,-53.6781 227,-40.8209 227,-31.1815"/>
<polygon fill="midnightblue" stroke="midnightblue" points="223.5,-64.3716 227,-74.3717 230.5,-64.3717 223.5,-64.3716"/>
</g>
<!-- Node9 -->
<g id="node9" class="node"><title>Node9</title>
<g id="a_node9"><a xlink:href="../../da/d7b/Fun4AllPrdfInputManager_8cc.html" target="_top" xlink:title="fun4all/fun4all/Fun4AllPrdf\lInputManager.cc">
<polygon fill="none" stroke="black" points="313.5,-1 313.5,-31 444.5,-31 444.5,-1 313.5,-1"/>
<text text-anchor="start" x="321.5" y="-19" font-family="FreeSans" font-size="10.00">fun4all/fun4all/Fun4AllPrdf</text>
<text text-anchor="middle" x="379" y="-8" font-family="FreeSans" font-size="10.00">InputManager.cc</text>
</a>
</g>
</g>
<!-- Node7&#45;&gt;Node9 -->
<g id="edge9" class="edge"><title>Node7&#45;&gt;Node9</title>
<path fill="none" stroke="midnightblue" d="M256.163,-70.3372C282.048,-59.0974 319.816,-42.6985 346.628,-31.0562"/>
<polygon fill="midnightblue" stroke="midnightblue" points="254.65,-67.1783 246.871,-74.3717 257.438,-73.5992 254.65,-67.1783"/>
</g>
<!-- Node10 -->
<g id="node10" class="node"><title>Node10</title>
<g id="a_node10"><a xlink:href="../../d8/d7a/Fun4AllServer_8cc.html" target="_top" xlink:title="fun4all/fun4all/Fun4AllServer.cc">
<polygon fill="none" stroke="black" points="627,-6.5 627,-25.5 781,-25.5 781,-6.5 627,-6.5"/>
<text text-anchor="middle" x="704" y="-13.5" font-family="FreeSans" font-size="10.00">fun4all/fun4all/Fun4AllServer.cc</text>
</a>
</g>
</g>
<!-- Node7&#45;&gt;Node10 -->
<g id="edge10" class="edge"><title>Node7&#45;&gt;Node10</title>
<path fill="none" stroke="midnightblue" d="M272.941,-72.3254C280.615,-70.7401 288.514,-69.2288 296,-68 438.101,-44.674 475.447,-52.3812 618,-32 631.053,-30.1338 645.166,-27.8036 658.112,-25.5404"/>
<polygon fill="midnightblue" stroke="midnightblue" points="272.087,-68.9287 263.035,-74.4346 273.544,-75.7753 272.087,-68.9287"/>
</g>
<!-- Node14&#45;&gt;Node2 -->
<g id="edge20" class="edge"><title>Node14&#45;&gt;Node2</title>
<path fill="none" stroke="midnightblue" d="M955.675,-202.301C903.007,-190.64 819.804,-172.219 771.407,-161.503"/>
<polygon fill="midnightblue" stroke="midnightblue" points="954.94,-205.723 965.46,-204.467 956.453,-198.888 954.94,-205.723"/>
</g>
<!-- Node14&#45;&gt;Node3 -->
<g id="edge17" class="edge"><title>Node14&#45;&gt;Node3</title>
<path fill="none" stroke="midnightblue" d="M1094.05,-202.968C1138.13,-196.01 1184.58,-184.893 1198,-168 1206.85,-156.865 1205.39,-148.154 1198,-136 1142.31,-44.3528 1007.9,-22.2923 927.277,-17.5772"/>
<polygon fill="midnightblue" stroke="midnightblue" points="1093.47,-199.516 1084.1,-204.476 1094.52,-206.437 1093.47,-199.516"/>
</g>
<!-- Node14&#45;&gt;Node10 -->
<g id="edge19" class="edge"><title>Node14&#45;&gt;Node10</title>
<path fill="none" stroke="midnightblue" d="M1015.55,-195.758C1033.92,-165.996 1064.63,-104.657 1033,-68 997.34,-26.6677 843.893,-40.6906 790,-32 777.581,-29.9974 764.175,-27.7165 751.727,-25.5484"/>
<polygon fill="midnightblue" stroke="midnightblue" points="1012.57,-193.932 1010.12,-204.24 1018.46,-197.708 1012.57,-193.932"/>
</g>
<!-- Node14&#45;&gt;Node12 -->
<g id="edge21" class="edge"><title>Node14&#45;&gt;Node12</title>
<path fill="none" stroke="midnightblue" d="M994.793,-195.145C980.38,-167.192 953.038,-114.164 942.394,-93.5224"/>
<polygon fill="midnightblue" stroke="midnightblue" points="991.77,-196.918 999.464,-204.202 997.991,-193.71 991.77,-196.918"/>
</g>
<!-- Node15 -->
<g id="node15" class="node"><title>Node15</title>
<g id="a_node15"><a xlink:href="../../d9/d74/Fun4AllDstOutputManager_8cc.html" target="_top" xlink:title="fun4all/fun4all/Fun4AllDst\lOutputManager.cc">
<polygon fill="none" stroke="black" points="1061,-137 1061,-167 1189,-167 1189,-137 1061,-137"/>
<text text-anchor="start" x="1069" y="-155" font-family="FreeSans" font-size="10.00">fun4all/fun4all/Fun4AllDst</text>
<text text-anchor="middle" x="1125" y="-144" font-family="FreeSans" font-size="10.00">OutputManager.cc</text>
</a>
</g>
</g>
<!-- Node14&#45;&gt;Node15 -->
<g id="edge18" class="edge"><title>Node14&#45;&gt;Node15</title>
<path fill="none" stroke="midnightblue" d="M1030.3,-199.961C1049.83,-190.276 1076.44,-177.079 1096.48,-167.141"/>
<polygon fill="midnightblue" stroke="midnightblue" points="1028.74,-196.825 1021.34,-204.403 1031.85,-203.097 1028.74,-196.825"/>
</g>
</g>
</svg>
