<?xml version="1.0" encoding="UTF-8" standalone="no"?>
<!DOCTYPE svg PUBLIC "-//W3C//DTD SVG 1.1//EN"
 "http://www.w3.org/Graphics/SVG/1.1/DTD/svg11.dtd">
<!-- Generated by graphviz version 2.36.0 (20140111.2315)
 -->
<!-- Title: Fun4AllServer Pages: 1 -->
<svg width="1600pt" height="902pt"
 viewBox="0.00 0.00 1600.00 901.77" xmlns="http://www.w3.org/2000/svg" xmlns:xlink="http://www.w3.org/1999/xlink">
<g id="graph0" class="graph" transform="scale(1 1) rotate(0) translate(4 897.774)">
<title>Fun4AllServer</title>
<!-- Node1 -->
<g id="node1" class="node"><title>Node1</title>
<polygon fill="#bfbfbf" stroke="black" points="1490,-360.73 1490,-379.73 1568,-379.73 1568,-360.73 1490,-360.73"/>
<text text-anchor="middle" x="1529" y="-367.73" font-family="FreeSans" font-size="10.00">Fun4AllServer</text>
</g>
<!-- Node1&#45;&gt;Node1 -->
<g id="edge59" class="edge"><title>Node1&#45;&gt;Node1</title>
<path fill="none" stroke="#9a32cd" stroke-dasharray="5,2" d="M1506.31,-389.259C1507.54,-394.358 1515.11,-398.23 1529,-398.23 1550.68,-398.23 1556.95,-388.795 1547.8,-379.987"/>
<polygon fill="#9a32cd" stroke="#9a32cd" points="1509.56,-390.562 1510.2,-379.987 1503.1,-387.854 1509.56,-390.562"/>
<text text-anchor="middle" x="1529" y="-401.23" font-family="FreeSans" font-size="10.00"> __instance</text>
</g>
<!-- Node2 -->
<g id="node2" class="node"><title>Node2</title>
<g id="a_node2"><a xlink:href="../../d5/dec/classFun4AllBase.html" target="_top" xlink:title="Fun4AllBase">
<polygon fill="none" stroke="black" points="354,-531.73 354,-550.73 426,-550.73 426,-531.73 354,-531.73"/>
<text text-anchor="middle" x="390" y="-538.73" font-family="FreeSans" font-size="10.00">Fun4AllBase</text>
</a>
</g>
</g>
<!-- Node2&#45;&gt;Node1 -->
<g id="edge1" class="edge"><title>Node2&#45;&gt;Node1</title>
<path fill="none" stroke="midnightblue" d="M436.314,-543.302C627.365,-551.673 1361.3,-580.053 1448,-526.23 1502.56,-492.357 1521.53,-408.345 1526.51,-379.856"/>
<polygon fill="midnightblue" stroke="midnightblue" points="436.213,-539.794 426.068,-542.849 435.904,-546.787 436.213,-539.794"/>
</g>
<!-- Node10 -->
<g id="node10" class="node"><title>Node10</title>
<g id="a_node10"><a xlink:href="../../dd/ded/classFun4AllSyncManager.html" target="_top" xlink:title="Fun4AllSyncManager">
<polygon fill="none" stroke="black" points="857.5,-615.73 857.5,-634.73 966.5,-634.73 966.5,-615.73 857.5,-615.73"/>
<text text-anchor="middle" x="912" y="-622.73" font-family="FreeSans" font-size="10.00">Fun4AllSyncManager</text>
</a>
</g>
</g>
<!-- Node2&#45;&gt;Node10 -->
<g id="edge14" class="edge"><title>Node2&#45;&gt;Node10</title>
<path fill="none" stroke="midnightblue" d="M425.377,-554.233C464.942,-568.59 532.17,-591.138 592,-602.23 684.266,-619.335 793.734,-623.88 857.482,-624.993"/>
<polygon fill="midnightblue" stroke="midnightblue" points="426.53,-550.927 415.936,-550.771 424.12,-557.5 426.53,-550.927"/>
</g>
<!-- Node12 -->
<g id="node12" class="node"><title>Node12</title>
<g id="a_node12"><a xlink:href="../../d4/da9/classFun4AllInputManager.html" target="_top" xlink:title="Fun4AllInputManager">
<polygon fill="none" stroke="black" points="1194.5,-747.73 1194.5,-766.73 1303.5,-766.73 1303.5,-747.73 1194.5,-747.73"/>
<text text-anchor="middle" x="1249" y="-754.73" font-family="FreeSans" font-size="10.00">Fun4AllInputManager</text>
</a>
</g>
</g>
<!-- Node2&#45;&gt;Node12 -->
<g id="edge17" class="edge"><title>Node2&#45;&gt;Node12</title>
<path fill="none" stroke="midnightblue" d="M409.182,-558.283C422.196,-571.384 439.248,-590.522 450,-610.23 463.334,-634.67 447.279,-651.635 468,-670.23 522.033,-718.718 1026.71,-746.77 1194.24,-754.806"/>
<polygon fill="midnightblue" stroke="midnightblue" points="411.289,-555.448 401.694,-550.955 406.393,-560.451 411.289,-555.448"/>
</g>
<!-- Node14 -->
<g id="node14" class="node"><title>Node14</title>
<g id="a_node14"><a xlink:href="../../d0/d32/classSubsysReco.html" target="_top" xlink:title="SubsysReco">
<polygon fill="none" stroke="black" points="622.5,-664.73 622.5,-683.73 693.5,-683.73 693.5,-664.73 622.5,-664.73"/>
<text text-anchor="middle" x="658" y="-671.73" font-family="FreeSans" font-size="10.00">SubsysReco</text>
</a>
</g>
</g>
<!-- Node2&#45;&gt;Node14 -->
<g id="edge20" class="edge"><title>Node2&#45;&gt;Node14</title>
<path fill="none" stroke="midnightblue" d="M400.229,-559.894C412.452,-582.524 436.228,-620.013 468,-639.23 515.97,-668.244 582.375,-674.25 622.36,-674.951"/>
<polygon fill="midnightblue" stroke="midnightblue" points="403.289,-558.192 395.573,-550.931 397.077,-561.419 403.289,-558.192"/>
</g>
<!-- Node27 -->
<g id="node27" class="node"><title>Node27</title>
<g id="a_node27"><a xlink:href="../../d8/d77/classFun4AllOutputManager.html" target="_top" xlink:title="Fun4AllOutputManager">
<polygon fill="none" stroke="black" points="600,-253.73 600,-272.73 716,-272.73 716,-253.73 600,-253.73"/>
<text text-anchor="middle" x="658" y="-260.73" font-family="FreeSans" font-size="10.00">Fun4AllOutputManager</text>
</a>
</g>
</g>
<!-- Node2&#45;&gt;Node27 -->
<g id="edge41" class="edge"><title>Node2&#45;&gt;Node27</title>
<path fill="none" stroke="midnightblue" d="M405.674,-523.288C418.074,-507.796 435.999,-484.6 450,-463.23 458.942,-449.58 457.761,-443.936 468,-431.23 523.918,-361.836 609.997,-296.858 643.242,-272.928"/>
<polygon fill="midnightblue" stroke="midnightblue" points="402.645,-521.469 399.084,-531.447 408.09,-525.867 402.645,-521.469"/>
</g>
<!-- Node33 -->
<g id="node33" class="node"><title>Node33</title>
<g id="a_node33"><a xlink:href="../../d3/d96/classFun4AllHistoManager.html" target="_top" xlink:title="Fun4AllHistoManager">
<polygon fill="none" stroke="black" points="603,-422.73 603,-441.73 713,-441.73 713,-422.73 603,-422.73"/>
<text text-anchor="middle" x="658" y="-429.73" font-family="FreeSans" font-size="10.00">Fun4AllHistoManager</text>
</a>
</g>
</g>
<!-- Node2&#45;&gt;Node33 -->
<g id="edge52" class="edge"><title>Node2&#45;&gt;Node33</title>
<path fill="none" stroke="midnightblue" d="M424.146,-527.647C478.672,-505.304 585.971,-461.336 633.447,-441.881"/>
<polygon fill="midnightblue" stroke="midnightblue" points="422.532,-524.526 414.606,-531.557 425.186,-531.004 422.532,-524.526"/>
</g>
<!-- Node3 -->
<g id="node3" class="node"><title>Node3</title>
<g id="a_node3"><a xlink:title="STL class. ">
<polygon fill="none" stroke="#bfbfbf" points="157.5,-322.73 157.5,-341.73 216.5,-341.73 216.5,-322.73 157.5,-322.73"/>
<text text-anchor="middle" x="187" y="-329.73" font-family="FreeSans" font-size="10.00">std::string</text>
</a>
</g>
</g>
<!-- Node3&#45;&gt;Node1 -->
<g id="edge49" class="edge"><title>Node3&#45;&gt;Node1</title>
<path fill="none" stroke="#9a32cd" stroke-dasharray="5,2" d="M226.531,-337.125C266.938,-341.83 332.323,-348.23 389,-348.23 389,-348.23 389,-348.23 784,-348.23 1054.4,-348.23 1379.84,-362.928 1489.68,-368.297"/>
<polygon fill="#9a32cd" stroke="#9a32cd" points="226.912,-333.646 216.569,-335.941 226.085,-340.597 226.912,-333.646"/>
<text text-anchor="middle" x="783" y="-351.23" font-family="FreeSans" font-size="10.00"> default_Tdirectory</text>
</g>
<!-- Node3&#45;&gt;Node2 -->
<g id="edge2" class="edge"><title>Node3&#45;&gt;Node2</title>
<path fill="none" stroke="#9a32cd" stroke-dasharray="5,2" d="M197.572,-351.048C209.965,-374.306 233.181,-414.342 260,-443.23 295.401,-481.362 347.005,-515.56 372.905,-531.596"/>
<polygon fill="#9a32cd" stroke="#9a32cd" points="200.535,-349.161 192.804,-341.915 194.329,-352.4 200.535,-349.161"/>
<text text-anchor="middle" x="286" y="-491.23" font-family="FreeSans" font-size="10.00"> ThisName</text>
</g>
<!-- Node5 -->
<g id="node5" class="node"><title>Node5</title>
<polygon fill="none" stroke="#bfbfbf" points="1190.5,-80.2298 1190.5,-110.23 1307.5,-110.23 1307.5,-80.2298 1190.5,-80.2298"/>
<text text-anchor="start" x="1198.5" y="-98.2298" font-family="FreeSans" font-size="10.00">std::map&lt; std::string,</text>
<text text-anchor="middle" x="1249" y="-87.2298" font-family="FreeSans" font-size="10.00"> PHCompositeNode * &gt;</text>
</g>
<!-- Node3&#45;&gt;Node5 -->
<g id="edge5" class="edge"><title>Node3&#45;&gt;Node5</title>
<path fill="none" stroke="#9a32cd" stroke-dasharray="5,2" d="M192.283,-312.602C206.291,-248.745 250.392,-50.4217 260,-40.2298 301.176,3.44712 328.974,-0.229808 389,-0.229808 389,-0.229808 389,-0.229808 913,-0.229808 1022.83,-0.229808 1044.1,-41.0947 1150,-70.2298 1163.04,-73.8163 1177.1,-77.5071 1190.38,-80.9149"/>
<polygon fill="#9a32cd" stroke="#9a32cd" points="188.819,-312.063 190.1,-322.58 195.657,-313.56 188.819,-312.063"/>
<text text-anchor="middle" x="658" y="-3.22981" font-family="FreeSans" font-size="10.00"> keys</text>
</g>
<!-- Node7 -->
<g id="node7" class="node"><title>Node7</title>
<g id="a_node7"><a xlink:href="../../dc/d82/classPHNode.html" target="_top" xlink:title="PHNode">
<polygon fill="none" stroke="black" points="363,-95.7298 363,-114.73 417,-114.73 417,-95.7298 363,-95.7298"/>
<text text-anchor="middle" x="390" y="-102.73" font-family="FreeSans" font-size="10.00">PHNode</text>
</a>
</g>
</g>
<!-- Node3&#45;&gt;Node7 -->
<g id="edge9" class="edge"><title>Node3&#45;&gt;Node7</title>
<path fill="none" stroke="#9a32cd" stroke-dasharray="5,2" d="M190.15,-312.452C195.278,-274.894 211.65,-192.927 260,-147.23 274.978,-133.074 329.76,-118.645 362.927,-110.932"/>
<polygon fill="#9a32cd" stroke="#9a32cd" points="186.649,-312.239 188.896,-322.593 193.597,-313.098 186.649,-312.239"/>
<text text-anchor="middle" x="286" y="-183.23" font-family="FreeSans" font-size="10.00"> objecttype</text>
<text text-anchor="middle" x="286" y="-172.23" font-family="FreeSans" font-size="10.00">objectclass</text>
<text text-anchor="middle" x="286" y="-161.23" font-family="FreeSans" font-size="10.00">type</text>
<text text-anchor="middle" x="286" y="-150.23" font-family="FreeSans" font-size="10.00">name</text>
</g>
<!-- Node3&#45;&gt;Node12 -->
<g id="edge22" class="edge"><title>Node3&#45;&gt;Node12</title>
<path fill="none" stroke="#9a32cd" stroke-dasharray="5,2" d="M191.717,-351.62C209.374,-440.917 288.135,-808.23 389,-808.23 389,-808.23 389,-808.23 913,-808.23 913.878,-808.23 1099.93,-779.84 1194.35,-765.424"/>
<polygon fill="#9a32cd" stroke="#9a32cd" points="195.139,-350.883 189.789,-341.738 188.269,-352.223 195.139,-350.883"/>
<text text-anchor="middle" x="658" y="-833.23" font-family="FreeSans" font-size="10.00"> topNodeName</text>
<text text-anchor="middle" x="658" y="-822.23" font-family="FreeSans" font-size="10.00">InputNode</text>
<text text-anchor="middle" x="658" y="-811.23" font-family="FreeSans" font-size="10.00">filename</text>
</g>
<!-- Node15 -->
<g id="node15" class="node"><title>Node15</title>
<polygon fill="none" stroke="#bfbfbf" points="468,-744.73 468,-763.73 574,-763.73 574,-744.73 468,-744.73"/>
<text text-anchor="middle" x="521" y="-751.73" font-family="FreeSans" font-size="10.00">std::list&lt; std::string &gt;</text>
</g>
<!-- Node3&#45;&gt;Node15 -->
<g id="edge24" class="edge"><title>Node3&#45;&gt;Node15</title>
<path fill="none" stroke="#9a32cd" stroke-dasharray="5,2" d="M193.879,-351.77C204.265,-384.629 227.839,-452.346 260,-503.23 334.165,-620.572 352.47,-659.271 468,-736.23 473.009,-739.566 478.702,-742.351 484.439,-744.653"/>
<polygon fill="#9a32cd" stroke="#9a32cd" points="197.168,-350.557 190.869,-342.037 190.48,-352.625 197.168,-350.557"/>
<text text-anchor="middle" x="286" y="-587.23" font-family="FreeSans" font-size="10.00"> elements</text>
</g>
<!-- Node22 -->
<g id="node22" class="node"><title>Node22</title>
<polygon fill="none" stroke="#bfbfbf" points="607.5,-165.23 607.5,-195.23 708.5,-195.23 708.5,-165.23 607.5,-165.23"/>
<text text-anchor="start" x="615.5" y="-183.23" font-family="FreeSans" font-size="10.00">std::map&lt; const std</text>
<text text-anchor="middle" x="658" y="-172.23" font-family="FreeSans" font-size="10.00">::string, PHTimer &gt;</text>
</g>
<!-- Node3&#45;&gt;Node22 -->
<g id="edge34" class="edge"><title>Node3&#45;&gt;Node22</title>
<path fill="none" stroke="#9a32cd" stroke-dasharray="5,2" d="M199.208,-313.992C220.206,-281.762 268.915,-215.65 330,-189.23 378.347,-168.32 528.323,-172.987 607.26,-177.144"/>
<polygon fill="#9a32cd" stroke="#9a32cd" points="196.227,-312.158 193.815,-322.475 202.134,-315.914 196.227,-312.158"/>
<text text-anchor="middle" x="390" y="-192.23" font-family="FreeSans" font-size="10.00"> keys</text>
</g>
<!-- Node23 -->
<g id="node23" class="node"><title>Node23</title>
<g id="a_node23"><a xlink:href="../../d0/d5e/classPHTimer.html" target="_top" xlink:title="high precision timer ">
<polygon fill="none" stroke="black" points="362,-57.7298 362,-76.7298 418,-76.7298 418,-57.7298 362,-57.7298"/>
<text text-anchor="middle" x="390" y="-64.7298" font-family="FreeSans" font-size="10.00">PHTimer</text>
</a>
</g>
</g>
<!-- Node3&#45;&gt;Node23 -->
<g id="edge38" class="edge"><title>Node3&#45;&gt;Node23</title>
<path fill="none" stroke="#9a32cd" stroke-dasharray="5,2" d="M188.842,-312.068C191.709,-269.247 204.341,-168.474 260,-111.23 267.299,-103.723 326.173,-85.5626 361.813,-75.0694"/>
<polygon fill="#9a32cd" stroke="#9a32cd" points="185.333,-312.128 188.274,-322.306 192.322,-312.516 185.333,-312.128"/>
<text text-anchor="middle" x="286" y="-114.23" font-family="FreeSans" font-size="10.00"> _name</text>
</g>
<!-- Node3&#45;&gt;Node27 -->
<g id="edge43" class="edge"><title>Node3&#45;&gt;Node27</title>
<path fill="none" stroke="#9a32cd" stroke-dasharray="5,2" d="M219.622,-318.721C248.046,-307.046 291.171,-290.48 330,-280.23 435.317,-252.428 465.146,-253.3 574,-257.23 582.374,-257.532 591.214,-258.005 599.879,-258.557"/>
<polygon fill="#9a32cd" stroke="#9a32cd" points="218.106,-315.561 210.212,-322.628 220.79,-322.026 218.106,-315.561"/>
<text text-anchor="middle" x="390" y="-283.23" font-family="FreeSans" font-size="10.00"> outfilename</text>
</g>
<!-- Node29 -->
<g id="node29" class="node"><title>Node29</title>
<polygon fill="none" stroke="#bfbfbf" points="330,-300.73 330,-319.73 450,-319.73 450,-300.73 330,-300.73"/>
<text text-anchor="middle" x="390" y="-307.73" font-family="FreeSans" font-size="10.00">std::vector&lt; std::string &gt;</text>
</g>
<!-- Node3&#45;&gt;Node29 -->
<g id="edge45" class="edge"><title>Node3&#45;&gt;Node29</title>
<path fill="none" stroke="#9a32cd" stroke-dasharray="5,2" d="M226.695,-327.22C237.471,-325.872 249.186,-324.45 260,-323.23 282.815,-320.655 307.928,-318.068 329.886,-315.887"/>
<polygon fill="#9a32cd" stroke="#9a32cd" points="226.193,-323.756 216.711,-328.481 227.071,-330.701 226.193,-323.756"/>
<text text-anchor="middle" x="286" y="-326.23" font-family="FreeSans" font-size="10.00"> elements</text>
</g>
<!-- Node3&#45;&gt;Node33 -->
<g id="edge53" class="edge"><title>Node3&#45;&gt;Node33</title>
<path fill="none" stroke="#9a32cd" stroke-dasharray="5,2" d="M217.05,-346.052C229.965,-351.745 245.501,-357.987 260,-362.23 323.476,-380.803 509.614,-410.106 602.698,-424.172"/>
<polygon fill="#9a32cd" stroke="#9a32cd" points="218.299,-342.775 207.745,-341.847 215.416,-349.154 218.299,-342.775"/>
<text text-anchor="middle" x="390" y="-403.23" font-family="FreeSans" font-size="10.00"> outfilename</text>
</g>
<!-- Node34 -->
<g id="node34" class="node"><title>Node34</title>
<polygon fill="none" stroke="#bfbfbf" points="339,-424.23 339,-454.23 441,-454.23 441,-424.23 339,-424.23"/>
<text text-anchor="start" x="347" y="-442.23" font-family="FreeSans" font-size="10.00">std::map&lt; const std</text>
<text text-anchor="middle" x="390" y="-431.23" font-family="FreeSans" font-size="10.00">::string, TNamed * &gt;</text>
</g>
<!-- Node3&#45;&gt;Node34 -->
<g id="edge55" class="edge"><title>Node3&#45;&gt;Node34</title>
<path fill="none" stroke="#9a32cd" stroke-dasharray="5,2" d="M200.137,-350.106C212.967,-367.597 234.808,-393.668 260,-408.23 283.93,-422.063 313.77,-429.739 338.722,-433.99"/>
<polygon fill="#9a32cd" stroke="#9a32cd" points="202.92,-347.98 194.28,-341.848 197.211,-352.03 202.92,-347.98"/>
<text text-anchor="middle" x="286" y="-431.23" font-family="FreeSans" font-size="10.00"> keys</text>
</g>
<!-- Node4 -->
<g id="node4" class="node"><title>Node4</title>
<g id="a_node4"><a xlink:title="STL class. ">
<polygon fill="none" stroke="#bfbfbf" points="0.5,-317.23 0.5,-347.23 93.5,-347.23 93.5,-317.23 0.5,-317.23"/>
<text text-anchor="start" x="8.5" y="-335.23" font-family="FreeSans" font-size="10.00">std::basic_string&lt;</text>
<text text-anchor="middle" x="47" y="-324.23" font-family="FreeSans" font-size="10.00"> char &gt;</text>
</a>
</g>
</g>
<!-- Node4&#45;&gt;Node3 -->
<g id="edge3" class="edge"><title>Node4&#45;&gt;Node3</title>
<path fill="none" stroke="midnightblue" d="M103.638,-332.23C122.07,-332.23 141.826,-332.23 157.367,-332.23"/>
<polygon fill="midnightblue" stroke="midnightblue" points="103.569,-328.73 93.5688,-332.23 103.569,-335.73 103.569,-328.73"/>
</g>
<!-- Node5&#45;&gt;Node1 -->
<g id="edge4" class="edge"><title>Node5&#45;&gt;Node1</title>
<path fill="none" stroke="#9a32cd" stroke-dasharray="5,2" d="M1317.66,-85.0061C1359.61,-82.5239 1412.16,-86.9097 1448,-116.23 1526.9,-180.779 1529.23,-322.571 1528.36,-360.655"/>
<polygon fill="#9a32cd" stroke="#9a32cd" points="1317.23,-81.528 1307.51,-85.75 1317.74,-88.5093 1317.23,-81.528"/>
<text text-anchor="middle" x="1407" y="-119.23" font-family="FreeSans" font-size="10.00"> topnodemap</text>
</g>
<!-- Node6 -->
<g id="node6" class="node"><title>Node6</title>
<g id="a_node6"><a xlink:href="../../d5/dca/classPHCompositeNode.html" target="_top" xlink:title="PHCompositeNode">
<polygon fill="none" stroke="black" points="861.5,-90.7298 861.5,-109.73 962.5,-109.73 962.5,-90.7298 861.5,-90.7298"/>
<text text-anchor="middle" x="912" y="-97.7298" font-family="FreeSans" font-size="10.00">PHCompositeNode</text>
</a>
</g>
</g>
<!-- Node6&#45;&gt;Node1 -->
<g id="edge57" class="edge"><title>Node6&#45;&gt;Node1</title>
<path fill="none" stroke="#9a32cd" stroke-dasharray="5,2" d="M958.659,-112.371C1006.23,-124.794 1083.04,-144.21 1150,-158.23 1215.8,-172.005 1394.08,-170.087 1448,-210.23 1500.31,-249.176 1520.63,-331.892 1526.25,-360.361"/>
<polygon fill="#9a32cd" stroke="#9a32cd" points="959.525,-108.98 948.965,-109.831 957.751,-115.752 959.525,-108.98"/>
<text text-anchor="middle" x="1249" y="-183.23" font-family="FreeSans" font-size="10.00"> TopNode</text>
</g>
<!-- Node6&#45;&gt;Node5 -->
<g id="edge6" class="edge"><title>Node6&#45;&gt;Node5</title>
<path fill="none" stroke="#9a32cd" stroke-dasharray="5,2" d="M973.126,-99.3324C1034.68,-98.4136 1129.69,-96.9956 1190.34,-96.0904"/>
<polygon fill="#9a32cd" stroke="#9a32cd" points="972.738,-95.8377 962.791,-99.4867 972.842,-102.837 972.738,-95.8377"/>
<text text-anchor="middle" x="1066" y="-102.23" font-family="FreeSans" font-size="10.00"> elements</text>
</g>
<!-- Node7&#45;&gt;Node6 -->
<g id="edge7" class="edge"><title>Node7&#45;&gt;Node6</title>
<path fill="none" stroke="midnightblue" d="M427.263,-104.881C518.455,-104.004 757.455,-101.706 861.459,-100.706"/>
<polygon fill="midnightblue" stroke="midnightblue" points="427.109,-101.382 417.143,-104.978 427.176,-108.382 427.109,-101.382"/>
</g>
<!-- Node7&#45;&gt;Node7 -->
<g id="edge8" class="edge"><title>Node7&#45;&gt;Node7</title>
<path fill="none" stroke="#9a32cd" stroke-dasharray="5,2" d="M370.742,-124.63C372.028,-129.544 378.447,-133.23 390,-133.23 408.484,-133.23 413.828,-123.795 406.029,-114.987"/>
<polygon fill="#9a32cd" stroke="#9a32cd" points="374.114,-125.581 373.971,-114.987 367.476,-123.358 374.114,-125.581"/>
<text text-anchor="middle" x="390" y="-136.23" font-family="FreeSans" font-size="10.00"> parent</text>
</g>
<!-- Node8 -->
<g id="node8" class="node"><title>Node8</title>
<g id="a_node8"><a xlink:href="../../d6/d86/classPHPointerList.html" target="_top" xlink:title="PHPointerList\&lt; PHNode \&gt;">
<polygon fill="none" stroke="black" points="592,-61.7298 592,-80.7298 724,-80.7298 724,-61.7298 592,-61.7298"/>
<text text-anchor="middle" x="658" y="-68.7298" font-family="FreeSans" font-size="10.00">PHPointerList&lt; PHNode &gt;</text>
</a>
</g>
</g>
<!-- Node7&#45;&gt;Node8 -->
<g id="edge11" class="edge"><title>Node7&#45;&gt;Node8</title>
<path fill="none" stroke="#9a32cd" stroke-dasharray="5,2" d="M426.935,-93.8488C439.77,-90.2061 454.417,-86.526 468,-84.2298 508.862,-77.3223 555.285,-74.0651 591.897,-72.5383"/>
<polygon fill="#9a32cd" stroke="#9a32cd" points="425.697,-90.5643 417.085,-96.735 427.665,-97.2819 425.697,-90.5643"/>
<text text-anchor="middle" x="521" y="-87.2298" font-family="FreeSans" font-size="10.00"> items</text>
</g>
<!-- Node8&#45;&gt;Node6 -->
<g id="edge10" class="edge"><title>Node8&#45;&gt;Node6</title>
<path fill="none" stroke="#9a32cd" stroke-dasharray="5,2" d="M734.393,-75.5251C762.576,-77.5626 794.819,-80.4073 824,-84.2298 837.096,-85.9452 851.211,-88.3138 864.183,-90.703"/>
<polygon fill="#9a32cd" stroke="#9a32cd" points="734.427,-72.0189 724.206,-74.8106 733.937,-79.0018 734.427,-72.0189"/>
<text text-anchor="middle" x="783" y="-87.2298" font-family="FreeSans" font-size="10.00"> subNodes</text>
</g>
<!-- Node9 -->
<g id="node9" class="node"><title>Node9</title>
<polygon fill="none" stroke="#bfbfbf" points="1186.5,-622.23 1186.5,-652.23 1311.5,-652.23 1311.5,-622.23 1186.5,-622.23"/>
<text text-anchor="start" x="1194.5" y="-640.23" font-family="FreeSans" font-size="10.00">std::vector&lt; Fun4AllSync</text>
<text text-anchor="middle" x="1249" y="-629.23" font-family="FreeSans" font-size="10.00">Manager * &gt;</text>
</g>
<!-- Node9&#45;&gt;Node1 -->
<g id="edge12" class="edge"><title>Node9&#45;&gt;Node1</title>
<path fill="none" stroke="#9a32cd" stroke-dasharray="5,2" d="M1321.72,-643.259C1363.03,-642.872 1413.45,-635.311 1448,-606.23 1520.49,-545.22 1527.5,-415.883 1528.01,-379.771"/>
<polygon fill="#9a32cd" stroke="#9a32cd" points="1321.72,-639.759 1311.7,-643.216 1321.69,-646.759 1321.72,-639.759"/>
<text text-anchor="middle" x="1407" y="-642.23" font-family="FreeSans" font-size="10.00"> SyncManagers</text>
</g>
<!-- Node10&#45;&gt;Node1 -->
<g id="edge48" class="edge"><title>Node10&#45;&gt;Node1</title>
<path fill="none" stroke="#9a32cd" stroke-dasharray="5,2" d="M976.76,-618.326C1116.61,-603.071 1438.65,-567.284 1448,-560.23 1509.13,-514.085 1523.96,-412.318 1527.18,-380.168"/>
<polygon fill="#9a32cd" stroke="#9a32cd" points="976.173,-614.869 966.611,-619.432 976.931,-621.828 976.173,-614.869"/>
<text text-anchor="middle" x="1249" y="-601.23" font-family="FreeSans" font-size="10.00"> defaultSyncManager</text>
</g>
<!-- Node10&#45;&gt;Node9 -->
<g id="edge13" class="edge"><title>Node10&#45;&gt;Node9</title>
<path fill="none" stroke="#9a32cd" stroke-dasharray="5,2" d="M976.788,-624.009C1020.5,-623.544 1079.79,-623.641 1132,-626.23 1149.68,-627.107 1168.82,-628.669 1186.37,-630.346"/>
<polygon fill="#9a32cd" stroke="#9a32cd" points="976.545,-620.512 966.588,-624.131 976.629,-627.511 976.545,-620.512"/>
<text text-anchor="middle" x="1066" y="-629.23" font-family="FreeSans" font-size="10.00"> elements</text>
</g>
<!-- Node10&#45;&gt;Node12 -->
<g id="edge21" class="edge"><title>Node10&#45;&gt;Node12</title>
<path fill="none" stroke="#9a32cd" stroke-dasharray="5,2" d="M941.102,-639.131C957.852,-646.92 979.736,-656.242 1000,-662.23 1057.11,-679.105 1079.53,-657.074 1132,-685.23 1142.25,-690.73 1140.77,-697.152 1150,-704.23 1173.95,-722.589 1205.1,-738.254 1225.78,-747.691"/>
<polygon fill="#9a32cd" stroke="#9a32cd" points="942.419,-635.882 931.884,-634.759 939.419,-642.207 942.419,-635.882"/>
<text text-anchor="middle" x="1066" y="-688.23" font-family="FreeSans" font-size="10.00"> mySyncManager</text>
</g>
<!-- Node11 -->
<g id="node11" class="node"><title>Node11</title>
<polygon fill="none" stroke="#bfbfbf" points="1466.5,-768.23 1466.5,-798.23 1591.5,-798.23 1591.5,-768.23 1466.5,-768.23"/>
<text text-anchor="start" x="1474.5" y="-786.23" font-family="FreeSans" font-size="10.00">std::vector&lt; Fun4AllInput</text>
<text text-anchor="middle" x="1529" y="-775.23" font-family="FreeSans" font-size="10.00">Manager * &gt;</text>
</g>
<!-- Node11&#45;&gt;Node10 -->
<g id="edge15" class="edge"><title>Node11&#45;&gt;Node10</title>
<path fill="none" stroke="#9a32cd" stroke-dasharray="5,2" d="M1471.05,-765.158C1435.69,-754.026 1389.27,-739.571 1348,-727.23 1252.31,-698.615 1229.24,-688.008 1132,-665.23 1076.12,-652.14 1011.38,-640.777 966.857,-633.542"/>
<polygon fill="#9a32cd" stroke="#9a32cd" points="1470.12,-768.537 1480.71,-768.206 1472.23,-761.861 1470.12,-768.537"/>
<text text-anchor="middle" x="1249" y="-730.23" font-family="FreeSans" font-size="10.00"> InManager</text>
</g>
<!-- Node12&#45;&gt;Node11 -->
<g id="edge16" class="edge"><title>Node12&#45;&gt;Node11</title>
<path fill="none" stroke="#9a32cd" stroke-dasharray="5,2" d="M1313.71,-763.189C1359.53,-767.474 1420.98,-773.221 1466.32,-777.462"/>
<polygon fill="#9a32cd" stroke="#9a32cd" points="1313.88,-759.689 1303.6,-762.243 1313.23,-766.659 1313.88,-759.689"/>
<text text-anchor="middle" x="1407" y="-779.23" font-family="FreeSans" font-size="10.00"> elements</text>
</g>
<!-- Node13 -->
<g id="node13" class="node"><title>Node13</title>
<polygon fill="none" stroke="#bfbfbf" points="842.5,-682.73 842.5,-701.73 981.5,-701.73 981.5,-682.73 842.5,-682.73"/>
<text text-anchor="middle" x="912" y="-689.73" font-family="FreeSans" font-size="10.00">std::vector&lt; SubsysReco * &gt;</text>
</g>
<!-- Node13&#45;&gt;Node12 -->
<g id="edge18" class="edge"><title>Node13&#45;&gt;Node12</title>
<path fill="none" stroke="#9a32cd" stroke-dasharray="5,2" d="M991.809,-698.221C1033.77,-702.345 1086.06,-708.975 1132,-719.23 1164.27,-726.432 1200.28,-738.967 1223.5,-747.662"/>
<polygon fill="#9a32cd" stroke="#9a32cd" points="991.936,-694.718 981.649,-697.252 991.271,-701.686 991.936,-694.718"/>
<text text-anchor="middle" x="1066" y="-722.23" font-family="FreeSans" font-size="10.00"> Subsystems</text>
</g>
<!-- Node14&#45;&gt;Node13 -->
<g id="edge19" class="edge"><title>Node14&#45;&gt;Node13</title>
<path fill="none" stroke="#9a32cd" stroke-dasharray="5,2" d="M703.86,-677.434C742.283,-680.179 798.225,-684.174 842.289,-687.322"/>
<polygon fill="#9a32cd" stroke="#9a32cd" points="703.735,-673.916 693.511,-676.695 703.236,-680.899 703.735,-673.916"/>
<text text-anchor="middle" x="783" y="-689.23" font-family="FreeSans" font-size="10.00"> elements</text>
</g>
<!-- Node15&#45;&gt;Node12 -->
<g id="edge23" class="edge"><title>Node15&#45;&gt;Node12</title>
<path fill="none" stroke="#9a32cd" stroke-dasharray="5,2" d="M584.36,-754.487C724.567,-755.067 1062.69,-756.464 1194.3,-757.008"/>
<polygon fill="#9a32cd" stroke="#9a32cd" points="584.227,-750.987 574.212,-754.446 584.198,-757.987 584.227,-750.987"/>
<text text-anchor="middle" x="783" y="-781.23" font-family="FreeSans" font-size="10.00"> filelist</text>
<text text-anchor="middle" x="783" y="-770.23" font-family="FreeSans" font-size="10.00">filelist_copy</text>
<text text-anchor="middle" x="783" y="-759.23" font-family="FreeSans" font-size="10.00">filelist_opened</text>
</g>
<!-- Node16 -->
<g id="node16" class="node"><title>Node16</title>
<g id="a_node16"><a xlink:href="../../de/dbb/classSyncObject.html" target="_top" xlink:title="SyncObject">
<polygon fill="none" stroke="black" points="624.5,-859.73 624.5,-878.73 691.5,-878.73 691.5,-859.73 624.5,-859.73"/>
<text text-anchor="middle" x="658" y="-866.73" font-family="FreeSans" font-size="10.00">SyncObject</text>
</a>
</g>
</g>
<!-- Node16&#45;&gt;Node10 -->
<g id="edge25" class="edge"><title>Node16&#45;&gt;Node10</title>
<path fill="none" stroke="#9a32cd" stroke-dasharray="5,2" d="M701.298,-861.297C710.013,-857.756 718.269,-852.635 724,-845.23 748.469,-813.614 715.744,-696.378 742,-666.23 757.07,-648.927 813.823,-637.717 857.448,-631.465"/>
<polygon fill="#9a32cd" stroke="#9a32cd" points="700.092,-858.01 691.758,-864.553 702.353,-864.635 700.092,-858.01"/>
<text text-anchor="middle" x="783" y="-669.23" font-family="FreeSans" font-size="10.00"> MasterSync</text>
</g>
<!-- Node17 -->
<g id="node17" class="node"><title>Node17</title>
<g id="a_node17"><a xlink:href="../../d9/d24/classPHObject.html" target="_top" xlink:title="PHObject">
<polygon fill="none" stroke="black" points="360.5,-859.73 360.5,-878.73 419.5,-878.73 419.5,-859.73 360.5,-859.73"/>
<text text-anchor="middle" x="390" y="-866.73" font-family="FreeSans" font-size="10.00">PHObject</text>
</a>
</g>
</g>
<!-- Node17&#45;&gt;Node16 -->
<g id="edge26" class="edge"><title>Node17&#45;&gt;Node16</title>
<path fill="none" stroke="midnightblue" d="M429.982,-864.287C482.527,-861.774 575.141,-861.882 624.265,-864.609"/>
<polygon fill="midnightblue" stroke="midnightblue" points="429.515,-860.807 419.719,-864.844 429.894,-867.797 429.515,-860.807"/>
</g>
<!-- Node17&#45;&gt;Node16 -->
<g id="edge28" class="edge"><title>Node17&#45;&gt;Node16</title>
<path fill="none" stroke="midnightblue" d="M429.982,-874.172C482.527,-876.685 575.141,-876.578 624.265,-873.851"/>
<polygon fill="midnightblue" stroke="midnightblue" points="429.894,-870.663 419.719,-873.616 429.515,-877.652 429.894,-870.663"/>
</g>
<!-- Node21 -->
<g id="node21" class="node"><title>Node21</title>
<g id="a_node21"><a xlink:href="../../da/dc2/classPHTimeStamp.html" target="_top" xlink:title="PHTimeStamp">
<polygon fill="none" stroke="black" points="742.5,-866.73 742.5,-885.73 823.5,-885.73 823.5,-866.73 742.5,-866.73"/>
<text text-anchor="middle" x="783" y="-873.73" font-family="FreeSans" font-size="10.00">PHTimeStamp</text>
</a>
</g>
</g>
<!-- Node17&#45;&gt;Node21 -->
<g id="edge32" class="edge"><title>Node17&#45;&gt;Node21</title>
<path fill="none" stroke="midnightblue" d="M425.782,-881.951C438.835,-886.102 453.919,-890.172 468,-892.23 500.565,-896.99 722.716,-888.379 724,-888.23 729.924,-887.543 736.141,-886.552 742.214,-885.429"/>
<polygon fill="midnightblue" stroke="midnightblue" points="426.841,-878.615 416.247,-878.793 424.639,-885.26 426.841,-878.615"/>
</g>
<!-- Node18 -->
<g id="node18" class="node"><title>Node18</title>
<polygon fill="none" stroke="#bfbfbf" points="161.5,-859.73 161.5,-878.73 212.5,-878.73 212.5,-859.73 161.5,-859.73"/>
<text text-anchor="middle" x="187" y="-866.73" font-family="FreeSans" font-size="10.00">TObject</text>
</g>
<!-- Node18&#45;&gt;Node17 -->
<g id="edge27" class="edge"><title>Node18&#45;&gt;Node17</title>
<path fill="none" stroke="midnightblue" d="M222.966,-869.23C261.885,-869.23 324.052,-869.23 360.255,-869.23"/>
<polygon fill="midnightblue" stroke="midnightblue" points="222.647,-865.73 212.647,-869.23 222.647,-872.73 222.647,-865.73"/>
</g>
<!-- Node19 -->
<g id="node19" class="node"><title>Node19</title>
<polygon fill="none" stroke="#bfbfbf" points="613.5,-573.73 613.5,-592.73 702.5,-592.73 702.5,-573.73 613.5,-573.73"/>
<text text-anchor="middle" x="658" y="-580.73" font-family="FreeSans" font-size="10.00">std::vector&lt; int &gt;</text>
</g>
<!-- Node19&#45;&gt;Node1 -->
<g id="edge56" class="edge"><title>Node19&#45;&gt;Node1</title>
<path fill="none" stroke="#9a32cd" stroke-dasharray="5,2" d="M712.739,-573.395C867.066,-544.857 1309.39,-460.904 1448,-411.23 1471.36,-402.858 1496.56,-389.07 1512.31,-379.822"/>
<polygon fill="#9a32cd" stroke="#9a32cd" points="711.763,-570.016 702.565,-575.274 713.034,-576.9 711.763,-570.016"/>
<text text-anchor="middle" x="1066" y="-520.23" font-family="FreeSans" font-size="10.00"> RetCodes</text>
</g>
<!-- Node19&#45;&gt;Node10 -->
<g id="edge29" class="edge"><title>Node19&#45;&gt;Node10</title>
<path fill="none" stroke="#9a32cd" stroke-dasharray="5,2" d="M712.902,-586.363C745.311,-588.845 787.263,-593.117 824,-600.23 843.903,-604.083 865.839,-610.401 882.705,-615.721"/>
<polygon fill="#9a32cd" stroke="#9a32cd" points="712.963,-582.858 702.734,-585.618 712.452,-589.839 712.963,-582.858"/>
<text text-anchor="middle" x="783" y="-603.23" font-family="FreeSans" font-size="10.00"> iretInManager</text>
</g>
<!-- Node20 -->
<g id="node20" class="node"><title>Node20</title>
<polygon fill="none" stroke="#bfbfbf" points="1201,-129.73 1201,-148.73 1297,-148.73 1297,-129.73 1201,-129.73"/>
<text text-anchor="middle" x="1249" y="-136.73" font-family="FreeSans" font-size="10.00">std::map&lt; int, int &gt;</text>
</g>
<!-- Node20&#45;&gt;Node1 -->
<g id="edge30" class="edge"><title>Node20&#45;&gt;Node1</title>
<path fill="none" stroke="#9a32cd" stroke-dasharray="5,2" d="M1307.1,-130.393C1350.13,-126.976 1408.32,-129.672 1448,-160.23 1515.08,-211.885 1525.92,-326.858 1527.67,-360.69"/>
<polygon fill="#9a32cd" stroke="#9a32cd" points="1306.69,-126.916 1297.06,-131.322 1307.34,-133.886 1306.69,-126.916"/>
<text text-anchor="middle" x="1407" y="-163.23" font-family="FreeSans" font-size="10.00"> retcodesmap</text>
</g>
<!-- Node21&#45;&gt;Node1 -->
<g id="edge31" class="edge"><title>Node21&#45;&gt;Node1</title>
<path fill="none" stroke="#9a32cd" stroke-dasharray="5,2" d="M833.807,-878.994C937.523,-882.404 1180.9,-877.992 1348,-776.23 1498.8,-684.393 1523.84,-431.982 1527.45,-379.761"/>
<polygon fill="#9a32cd" stroke="#9a32cd" points="833.746,-875.489 823.624,-878.618 833.488,-882.484 833.746,-875.489"/>
<text text-anchor="middle" x="1066" y="-877.23" font-family="FreeSans" font-size="10.00"> beginruntimestamp</text>
</g>
<!-- Node22&#45;&gt;Node1 -->
<g id="edge33" class="edge"><title>Node22&#45;&gt;Node1</title>
<path fill="none" stroke="#9a32cd" stroke-dasharray="5,2" d="M718.941,-180.501C881.104,-182.205 1324.54,-193.562 1448,-266.23 1487.07,-289.224 1513.74,-339.313 1523.68,-360.478"/>
<polygon fill="#9a32cd" stroke="#9a32cd" points="718.706,-176.999 708.673,-180.403 718.638,-183.999 718.706,-176.999"/>
<text text-anchor="middle" x="1066" y="-203.23" font-family="FreeSans" font-size="10.00"> timer_map</text>
</g>
<!-- Node23&#45;&gt;Node22 -->
<g id="edge35" class="edge"><title>Node23&#45;&gt;Node22</title>
<path fill="none" stroke="#9a32cd" stroke-dasharray="5,2" d="M427.813,-77.1109C435.329,-79.6712 443.057,-82.7159 450,-86.2298 458.805,-90.6859 459.413,-94.3677 468,-99.2298 516.306,-126.58 575.662,-150.59 614.82,-165.226"/>
<polygon fill="#9a32cd" stroke="#9a32cd" points="428.729,-73.7296 418.139,-74.0255 426.602,-80.3986 428.729,-73.7296"/>
<text text-anchor="middle" x="521" y="-152.23" font-family="FreeSans" font-size="10.00"> elements</text>
</g>
<!-- Node24 -->
<g id="node24" class="node"><title>Node24</title>
<g id="a_node24"><a xlink:href="../../dc/d23/structPHTimer_1_1time__struct.html" target="_top" xlink:title="used to store high precision time using two integers ">
<polygon fill="none" stroke="black" points="132.5,-59.7298 132.5,-78.7298 241.5,-78.7298 241.5,-59.7298 132.5,-59.7298"/>
<text text-anchor="middle" x="187" y="-66.7298" font-family="FreeSans" font-size="10.00">PHTimer::time_struct</text>
</a>
</g>
</g>
<!-- Node24&#45;&gt;Node23 -->
<g id="edge36" class="edge"><title>Node24&#45;&gt;Node23</title>
<path fill="none" stroke="#9a32cd" stroke-dasharray="5,2" d="M251.875,-68.3221C254.62,-68.2895 257.338,-68.2586 260,-68.2298 295.16,-67.8494 335.713,-67.5594 361.82,-67.3921"/>
<polygon fill="#9a32cd" stroke="#9a32cd" points="251.819,-64.8224 241.863,-68.4457 251.905,-71.8219 251.819,-64.8224"/>
<text text-anchor="middle" x="286" y="-82.2298" font-family="FreeSans" font-size="10.00"> _stop_time</text>
<text text-anchor="middle" x="286" y="-71.2298" font-family="FreeSans" font-size="10.00">_start_time</text>
</g>
<!-- Node25 -->
<g id="node25" class="node"><title>Node25</title>
<g id="a_node25"><a xlink:href="../../d2/db1/classPHTimer_1_1Frequency.html" target="_top" xlink:title="internal frequency read from cpu information file ">
<polygon fill="none" stroke="black" points="134.5,-21.7298 134.5,-40.7298 239.5,-40.7298 239.5,-21.7298 134.5,-21.7298"/>
<text text-anchor="middle" x="187" y="-28.7298" font-family="FreeSans" font-size="10.00">PHTimer::Frequency</text>
</a>
</g>
</g>
<!-- Node25&#45;&gt;Node23 -->
<g id="edge37" class="edge"><title>Node25&#45;&gt;Node23</title>
<path fill="none" stroke="#9a32cd" stroke-dasharray="5,2" d="M249.485,-42.0851C269.431,-45.6208 291.658,-49.576 312,-53.2298 328.583,-56.2084 347.167,-59.5861 361.922,-62.2775"/>
<polygon fill="#9a32cd" stroke="#9a32cd" points="250.049,-38.6305 239.591,-40.3324 248.827,-45.5232 250.049,-38.6305"/>
<text text-anchor="middle" x="286" y="-56.2298" font-family="FreeSans" font-size="10.00"> _frequency</text>
</g>
<!-- Node26 -->
<g id="node26" class="node"><title>Node26</title>
<polygon fill="none" stroke="#bfbfbf" points="1000,-252.23 1000,-282.23 1132,-282.23 1132,-252.23 1000,-252.23"/>
<text text-anchor="start" x="1008" y="-270.23" font-family="FreeSans" font-size="10.00">std::vector&lt; Fun4AllOutput</text>
<text text-anchor="middle" x="1066" y="-259.23" font-family="FreeSans" font-size="10.00">Manager * &gt;</text>
</g>
<!-- Node26&#45;&gt;Node1 -->
<g id="edge39" class="edge"><title>Node26&#45;&gt;Node1</title>
<path fill="none" stroke="#9a32cd" stroke-dasharray="5,2" d="M1142.53,-257.727C1222.29,-251.037 1349.83,-250.048 1448,-295.23 1480.69,-310.274 1508.71,-343.984 1521.15,-360.598"/>
<polygon fill="#9a32cd" stroke="#9a32cd" points="1141.73,-254.284 1132.08,-258.659 1142.35,-261.256 1141.73,-254.284"/>
<text text-anchor="middle" x="1249" y="-267.23" font-family="FreeSans" font-size="10.00"> OutputManager</text>
</g>
<!-- Node27&#45;&gt;Node26 -->
<g id="edge40" class="edge"><title>Node27&#45;&gt;Node26</title>
<path fill="none" stroke="#9a32cd" stroke-dasharray="5,2" d="M726.711,-263.897C802.68,-264.645 925.052,-265.851 999.927,-266.589"/>
<polygon fill="#9a32cd" stroke="#9a32cd" points="726.343,-260.393 716.309,-263.794 726.274,-267.393 726.343,-260.393"/>
<text text-anchor="middle" x="783" y="-268.23" font-family="FreeSans" font-size="10.00"> elements</text>
</g>
<!-- Node28 -->
<g id="node28" class="node"><title>Node28</title>
<polygon fill="none" stroke="#bfbfbf" points="331.5,-209.73 331.5,-228.73 448.5,-228.73 448.5,-209.73 331.5,-209.73"/>
<text text-anchor="middle" x="390" y="-216.73" font-family="FreeSans" font-size="10.00">std::vector&lt; unsigned &gt;</text>
</g>
<!-- Node28&#45;&gt;Node27 -->
<g id="edge42" class="edge"><title>Node28&#45;&gt;Node27</title>
<path fill="none" stroke="#9a32cd" stroke-dasharray="5,2" d="M454.711,-208.513C490.394,-204.725 535.352,-203.673 574,-214.23 602.087,-221.902 630.337,-241.782 645.553,-253.73"/>
<polygon fill="#9a32cd" stroke="#9a32cd" points="453.959,-205.076 444.43,-209.706 454.766,-212.03 453.959,-205.076"/>
<text text-anchor="middle" x="521" y="-217.23" font-family="FreeSans" font-size="10.00"> recomoduleindex</text>
</g>
<!-- Node29&#45;&gt;Node1 -->
<g id="edge58" class="edge"><title>Node29&#45;&gt;Node1</title>
<path fill="none" stroke="#9a32cd" stroke-dasharray="5,2" d="M460.491,-308.05C664.552,-302.232 1259.49,-289.593 1448,-333.23 1471.7,-338.717 1496.82,-351.661 1512.46,-360.682"/>
<polygon fill="#9a32cd" stroke="#9a32cd" points="460.101,-304.56 450.206,-308.347 460.303,-311.557 460.101,-304.56"/>
<text text-anchor="middle" x="912" y="-306.23" font-family="FreeSans" font-size="10.00"> ComplaintList</text>
</g>
<!-- Node29&#45;&gt;Node27 -->
<g id="edge44" class="edge"><title>Node29&#45;&gt;Node27</title>
<path fill="none" stroke="#9a32cd" stroke-dasharray="5,2" d="M418.925,-296.151C438.77,-286.26 462.79,-274.562 468,-273.23 511.294,-262.157 561.929,-260.026 599.886,-260.462"/>
<polygon fill="#9a32cd" stroke="#9a32cd" points="417.278,-293.062 409.901,-300.667 420.41,-299.322 417.278,-293.062"/>
<text text-anchor="middle" x="521" y="-276.23" font-family="FreeSans" font-size="10.00"> EventSelectors</text>
</g>
<!-- Node30 -->
<g id="node30" class="node"><title>Node30</title>
<polygon fill="none" stroke="#bfbfbf" points="1150.5,-31.2298 1150.5,-61.2298 1347.5,-61.2298 1347.5,-31.2298 1150.5,-31.2298"/>
<text text-anchor="start" x="1158.5" y="-49.2298" font-family="FreeSans" font-size="10.00">std::vector&lt; std::pair</text>
<text text-anchor="middle" x="1249" y="-38.2298" font-family="FreeSans" font-size="10.00">&lt; SubsysReco *, PHCompositeNode * &gt; &gt;</text>
</g>
<!-- Node30&#45;&gt;Node1 -->
<g id="edge46" class="edge"><title>Node30&#45;&gt;Node1</title>
<path fill="none" stroke="#9a32cd" stroke-dasharray="5,2" d="M1358.05,-31.6869C1390.12,-32.9566 1423.24,-40.5243 1448,-61.2298 1496.14,-101.492 1521.72,-312.397 1526.98,-360.47"/>
<polygon fill="#9a32cd" stroke="#9a32cd" points="1357.75,-28.1806 1347.69,-31.4873 1357.62,-35.1793 1357.75,-28.1806"/>
<text text-anchor="middle" x="1407" y="-75.2298" font-family="FreeSans" font-size="10.00"> Subsystems</text>
<text text-anchor="middle" x="1407" y="-64.2298" font-family="FreeSans" font-size="10.00">DeleteSubsystems</text>
</g>
<!-- Node31 -->
<g id="node31" class="node"><title>Node31</title>
<polygon fill="none" stroke="#bfbfbf" points="1185,-498.73 1185,-517.73 1313,-517.73 1313,-498.73 1185,-498.73"/>
<text text-anchor="middle" x="1249" y="-505.73" font-family="FreeSans" font-size="10.00">std::vector&lt; TDirectory * &gt;</text>
</g>
<!-- Node31&#45;&gt;Node1 -->
<g id="edge47" class="edge"><title>Node31&#45;&gt;Node1</title>
<path fill="none" stroke="#9a32cd" stroke-dasharray="5,2" d="M1323.21,-513.284C1362.71,-512.729 1410.84,-506.494 1448,-484.23 1489.9,-459.129 1515.49,-402.662 1524.42,-379.957"/>
<polygon fill="#9a32cd" stroke="#9a32cd" points="1323.09,-509.784 1313.1,-513.307 1323.11,-516.784 1323.09,-509.784"/>
<text text-anchor="middle" x="1407" y="-514.23" font-family="FreeSans" font-size="10.00"> TDirCollection</text>
</g>
<!-- Node32 -->
<g id="node32" class="node"><title>Node32</title>
<polygon fill="none" stroke="#bfbfbf" points="1003,-378.23 1003,-408.23 1129,-408.23 1129,-378.23 1003,-378.23"/>
<text text-anchor="start" x="1011" y="-396.23" font-family="FreeSans" font-size="10.00">std::vector&lt; Fun4AllHisto</text>
<text text-anchor="middle" x="1066" y="-385.23" font-family="FreeSans" font-size="10.00">Manager * &gt;</text>
</g>
<!-- Node32&#45;&gt;Node1 -->
<g id="edge50" class="edge"><title>Node32&#45;&gt;Node1</title>
<path fill="none" stroke="#9a32cd" stroke-dasharray="5,2" d="M1139.41,-389.617C1238.61,-384.668 1413.17,-375.959 1489.95,-372.128"/>
<polygon fill="#9a32cd" stroke="#9a32cd" points="1138.99,-386.134 1129.17,-390.128 1139.33,-393.125 1138.99,-386.134"/>
<text text-anchor="middle" x="1249" y="-392.23" font-family="FreeSans" font-size="10.00"> HistoManager</text>
</g>
<!-- Node33&#45;&gt;Node1 -->
<g id="edge60" class="edge"><title>Node33&#45;&gt;Node1</title>
<path fill="none" stroke="#9a32cd" stroke-dasharray="5,2" d="M723.447,-431.726C845.547,-430.301 1118.89,-424.872 1348,-404.23 1392.7,-400.203 1403.95,-398.795 1448,-390.23 1462.9,-387.333 1479.17,-383.407 1493.13,-379.799"/>
<polygon fill="#9a32cd" stroke="#9a32cd" points="723.121,-428.229 713.161,-431.84 723.199,-435.228 723.121,-428.229"/>
<text text-anchor="middle" x="1066" y="-428.23" font-family="FreeSans" font-size="10.00"> ServerHistoManager</text>
</g>
<!-- Node33&#45;&gt;Node32 -->
<g id="edge51" class="edge"><title>Node33&#45;&gt;Node32</title>
<path fill="none" stroke="#9a32cd" stroke-dasharray="5,2" d="M694.385,-419.449C708.939,-414.753 726.087,-409.928 742,-407.23 831.788,-392.007 937.508,-390.457 1002.9,-391.363"/>
<polygon fill="#9a32cd" stroke="#9a32cd" points="693.151,-416.171 684.77,-422.653 695.364,-422.812 693.151,-416.171"/>
<text text-anchor="middle" x="783" y="-410.23" font-family="FreeSans" font-size="10.00"> elements</text>
</g>
<!-- Node34&#45;&gt;Node33 -->
<g id="edge54" class="edge"><title>Node34&#45;&gt;Node33</title>
<path fill="none" stroke="#9a32cd" stroke-dasharray="5,2" d="M451.059,-437.649C496.565,-436.452 558.563,-434.82 602.614,-433.661"/>
<polygon fill="#9a32cd" stroke="#9a32cd" points="450.937,-434.151 441.033,-437.913 451.121,-441.149 450.937,-434.151"/>
<text text-anchor="middle" x="521" y="-440.23" font-family="FreeSans" font-size="10.00"> Histo</text>
</g>
</g>
</svg>
