<?xml version="1.0" encoding="UTF-8" standalone="no"?>
<!DOCTYPE svg PUBLIC "-//W3C//DTD SVG 1.1//EN"
 "http://www.w3.org/Graphics/SVG/1.1/DTD/svg11.dtd">
<!-- Generated by graphviz version 2.36.0 (20140111.2315)
 -->
<!-- Title: PHIODataNode::write Pages: 1 -->
<svg width="560pt" height="28pt"
 viewBox="0.00 0.00 560.00 28.00" xmlns="http://www.w3.org/2000/svg" xmlns:xlink="http://www.w3.org/1999/xlink">
<g id="graph0" class="graph" transform="scale(1 1) rotate(0) translate(4 24)">
<title>PHIODataNode::write</title>
<!-- Node1 -->
<g id="node1" class="node"><title>Node1</title>
<polygon fill="#bfbfbf" stroke="black" points="0,-0.5 0,-19.5 110,-19.5 110,-0.5 0,-0.5"/>
<text text-anchor="middle" x="55" y="-7.5" font-family="FreeSans" font-size="10.00">PHIODataNode::write</text>
</g>
<!-- Node2 -->
<g id="node2" class="node"><title>Node2</title>
<g id="a_node2"><a xlink:href="../../d7/d4d/classPHNodeIOManager.html#a436c3a21a9c6ea54a33ffcc9f2480949" target="_top" xlink:title="PHNodeIOManager::write">
<polygon fill="none" stroke="black" points="146,-0.5 146,-19.5 274,-19.5 274,-0.5 146,-0.5"/>
<text text-anchor="middle" x="210" y="-7.5" font-family="FreeSans" font-size="10.00">PHNodeIOManager::write</text>
</a>
</g>
</g>
<!-- Node1&#45;&gt;Node2 -->
<g id="edge1" class="edge"><title>Node1&#45;&gt;Node2</title>
<path fill="none" stroke="midnightblue" d="M110.373,-10C118.645,-10 127.295,-10 135.889,-10"/>
<polygon fill="midnightblue" stroke="midnightblue" points="135.924,-13.5001 145.924,-10 135.924,-6.5001 135.924,-13.5001"/>
</g>
<!-- Node3 -->
<g id="node3" class="node"><title>Node3</title>
<g id="a_node3"><a xlink:href="../../d5/dca/classPHCompositeNode.html#a774f54eea4fcb26e8b98f537efc1c6d9" target="_top" xlink:title="PHCompositeNode::write">
<polygon fill="none" stroke="black" points="310,-0.5 310,-19.5 436,-19.5 436,-0.5 310,-0.5"/>
<text text-anchor="middle" x="373" y="-7.5" font-family="FreeSans" font-size="10.00">PHCompositeNode::write</text>
</a>
</g>
</g>
<!-- Node2&#45;&gt;Node3 -->
<g id="edge2" class="edge"><title>Node2&#45;&gt;Node3</title>
<path fill="none" stroke="midnightblue" d="M274.169,-10C282.499,-10 291.089,-10 299.559,-10"/>
<polygon fill="midnightblue" stroke="midnightblue" points="299.805,-13.5001 309.804,-10 299.804,-6.5001 299.805,-13.5001"/>
</g>
<!-- Node4 -->
<g id="node4" class="node"><title>Node4</title>
<g id="a_node4"><a xlink:href="../../dc/d82/classPHNode.html#a82ef8bef92f7d2cc470bccb042ab57cc" target="_top" xlink:title="PHNode::write">
<polygon fill="none" stroke="black" points="472,-0.5 472,-19.5 552,-19.5 552,-0.5 472,-0.5"/>
<text text-anchor="middle" x="512" y="-7.5" font-family="FreeSans" font-size="10.00">PHNode::write</text>
</a>
</g>
</g>
<!-- Node3&#45;&gt;Node4 -->
<g id="edge3" class="edge"><title>Node3&#45;&gt;Node4</title>
<path fill="none" stroke="midnightblue" d="M436.086,-10C444.649,-10 453.346,-10 461.636,-10"/>
<polygon fill="midnightblue" stroke="midnightblue" points="461.879,-13.5001 471.879,-10 461.879,-6.5001 461.879,-13.5001"/>
</g>
</g>
</svg>
