<?xml version="1.0" encoding="UTF-8" standalone="no"?>
<!DOCTYPE svg PUBLIC "-//W3C//DTD SVG 1.1//EN"
 "http://www.w3.org/Graphics/SVG/1.1/DTD/svg11.dtd">
<!-- Generated by graphviz version 2.36.0 (20140111.2315)
 -->
<!-- Title: ReadMySql::MakeNodes Pages: 1 -->
<svg width="462pt" height="142pt"
 viewBox="0.00 0.00 462.00 142.00" xmlns="http://www.w3.org/2000/svg" xmlns:xlink="http://www.w3.org/1999/xlink">
<g id="graph0" class="graph" transform="scale(1 1) rotate(0) translate(4 138)">
<title>ReadMySql::MakeNodes</title>
<!-- Node1 -->
<g id="node1" class="node"><title>Node1</title>
<polygon fill="#bfbfbf" stroke="black" points="0.5,-48.5 0.5,-67.5 123.5,-67.5 123.5,-48.5 0.5,-48.5"/>
<text text-anchor="middle" x="62" y="-55.5" font-family="FreeSans" font-size="10.00">ReadMySql::MakeNodes</text>
</g>
<!-- Node2 -->
<g id="node2" class="node"><title>Node2</title>
<g id="a_node2"><a xlink:href="../../d5/dca/classPHCompositeNode.html#ac7dbf017614c324e218a001d729607bf" target="_top" xlink:title="PHCompositeNode::addNode">
<polygon fill="none" stroke="black" points="160,-76.5 160,-95.5 304,-95.5 304,-76.5 160,-76.5"/>
<text text-anchor="middle" x="232" y="-83.5" font-family="FreeSans" font-size="10.00">PHCompositeNode::addNode</text>
</a>
</g>
</g>
<!-- Node1&#45;&gt;Node2 -->
<g id="edge1" class="edge"><title>Node1&#45;&gt;Node2</title>
<path fill="none" stroke="midnightblue" d="M120.346,-67.5577C134.402,-69.9004 149.57,-72.4283 164.033,-74.8389"/>
<polygon fill="midnightblue" stroke="midnightblue" points="163.473,-78.2937 173.912,-76.4854 164.624,-71.3889 163.473,-78.2937"/>
</g>
<!-- Node6 -->
<g id="node6" class="node"><title>Node6</title>
<g id="a_node6"><a xlink:href="../../d5/d07/classPHNodeIterator.html#aea98bf8619af59b1212a94fb32106baa" target="_top" xlink:title="PHNodeIterator::findFirst">
<polygon fill="none" stroke="black" points="170,-20.5 170,-39.5 294,-39.5 294,-20.5 170,-20.5"/>
<text text-anchor="middle" x="232" y="-27.5" font-family="FreeSans" font-size="10.00">PHNodeIterator::findFirst</text>
</a>
</g>
</g>
<!-- Node1&#45;&gt;Node6 -->
<g id="edge5" class="edge"><title>Node1&#45;&gt;Node6</title>
<path fill="none" stroke="midnightblue" d="M120.346,-48.4423C134.402,-46.0996 149.57,-43.5717 164.033,-41.1611"/>
<polygon fill="midnightblue" stroke="midnightblue" points="164.624,-44.6111 173.912,-39.5146 163.473,-37.7063 164.624,-44.6111"/>
</g>
<!-- Node3 -->
<g id="node3" class="node"><title>Node3</title>
<g id="a_node3"><a xlink:href="../../d6/d86/classPHPointerList.html#af5fc4e6958b5b90c57bfb497566f503c" target="_top" xlink:title="PHPointerList::append">
<polygon fill="none" stroke="black" points="340,-114.5 340,-133.5 454,-133.5 454,-114.5 340,-114.5"/>
<text text-anchor="middle" x="397" y="-121.5" font-family="FreeSans" font-size="10.00">PHPointerList::append</text>
</a>
</g>
</g>
<!-- Node2&#45;&gt;Node3 -->
<g id="edge2" class="edge"><title>Node2&#45;&gt;Node3</title>
<path fill="none" stroke="midnightblue" d="M274.132,-95.589C295.738,-100.626 322.409,-106.844 345.286,-112.177"/>
<polygon fill="midnightblue" stroke="midnightblue" points="344.63,-115.618 355.164,-114.48 346.22,-108.801 344.63,-115.618"/>
</g>
<!-- Node4 -->
<g id="node4" class="node"><title>Node4</title>
<g id="a_node4"><a xlink:href="../../dc/d82/classPHNode.html#aca3576f926a4401eddc3d88bf0ce0de3" target="_top" xlink:title="PHNode::getName">
<polygon fill="none" stroke="black" points="348,-38.5 348,-57.5 446,-57.5 446,-38.5 348,-38.5"/>
<text text-anchor="middle" x="397" y="-45.5" font-family="FreeSans" font-size="10.00">PHNode::getName</text>
</a>
</g>
</g>
<!-- Node2&#45;&gt;Node4 -->
<g id="edge3" class="edge"><title>Node2&#45;&gt;Node4</title>
<path fill="none" stroke="midnightblue" d="M274.132,-76.411C295.738,-71.3739 322.409,-65.1562 345.286,-59.8229"/>
<polygon fill="midnightblue" stroke="midnightblue" points="346.22,-63.1991 355.164,-57.5201 344.63,-56.3819 346.22,-63.1991"/>
</g>
<!-- Node5 -->
<g id="node5" class="node"><title>Node5</title>
<g id="a_node5"><a xlink:href="../../dc/d82/classPHNode.html#adda2bd6cef2d5067bbe3016a990b7198" target="_top" xlink:title="PHNode::setParent">
<polygon fill="none" stroke="black" points="346.5,-76.5 346.5,-95.5 447.5,-95.5 447.5,-76.5 346.5,-76.5"/>
<text text-anchor="middle" x="397" y="-83.5" font-family="FreeSans" font-size="10.00">PHNode::setParent</text>
</a>
</g>
</g>
<!-- Node2&#45;&gt;Node5 -->
<g id="edge4" class="edge"><title>Node2&#45;&gt;Node5</title>
<path fill="none" stroke="midnightblue" d="M304.02,-86C314.701,-86 325.626,-86 336.045,-86"/>
<polygon fill="midnightblue" stroke="midnightblue" points="336.268,-89.5001 346.268,-86 336.268,-82.5001 336.268,-89.5001"/>
</g>
<!-- Node6&#45;&gt;Node4 -->
<g id="edge7" class="edge"><title>Node6&#45;&gt;Node4</title>
<path fill="none" stroke="midnightblue" d="M294.159,-36.7537C308.479,-38.3351 323.695,-40.0154 337.878,-41.5816"/>
<polygon fill="midnightblue" stroke="midnightblue" points="337.672,-45.0801 347.996,-42.6989 338.441,-38.1224 337.672,-45.0801"/>
</g>
<!-- Node6&#45;&gt;Node6 -->
<g id="edge6" class="edge"><title>Node6&#45;&gt;Node6</title>
<path fill="none" stroke="midnightblue" d="M206.723,-39.7571C194.426,-48.5653 202.852,-58 232,-58 251.584,-58 261.814,-53.741 262.689,-48.2746"/>
<polygon fill="midnightblue" stroke="midnightblue" points="265.594,-46.3207 257.277,-39.7571 259.686,-50.0745 265.594,-46.3207"/>
</g>
<!-- Node7 -->
<g id="node7" class="node"><title>Node7</title>
<g id="a_node7"><a xlink:href="../../dc/d82/classPHNode.html#a4ab1f90aed955a652813bfe377087bda" target="_top" xlink:title="PHNode::getType">
<polygon fill="none" stroke="black" points="350.5,-0.5 350.5,-19.5 443.5,-19.5 443.5,-0.5 350.5,-0.5"/>
<text text-anchor="middle" x="397" y="-7.5" font-family="FreeSans" font-size="10.00">PHNode::getType</text>
</a>
</g>
</g>
<!-- Node6&#45;&gt;Node7 -->
<g id="edge8" class="edge"><title>Node6&#45;&gt;Node7</title>
<path fill="none" stroke="midnightblue" d="M294.159,-22.4958C309.279,-20.6406 325.397,-18.663 340.244,-16.8412"/>
<polygon fill="midnightblue" stroke="midnightblue" points="340.793,-20.3002 350.292,-15.6083 339.94,-13.3523 340.793,-20.3002"/>
</g>
</g>
</svg>
