<?xml version="1.0" encoding="UTF-8" standalone="no"?>
<!DOCTYPE svg PUBLIC "-//W3C//DTD SVG 1.1//EN"
 "http://www.w3.org/Graphics/SVG/1.1/DTD/svg11.dtd">
<!-- Generated by graphviz version 2.36.0 (20140111.2315)
 -->
<!-- Title: ReadMySql::getInt Pages: 1 -->
<svg width="404pt" height="104pt"
 viewBox="0.00 0.00 404.00 104.00" xmlns="http://www.w3.org/2000/svg" xmlns:xlink="http://www.w3.org/1999/xlink">
<g id="graph0" class="graph" transform="scale(1 1) rotate(0) translate(4 100)">
<title>ReadMySql::getInt</title>
<!-- Node1 -->
<g id="node1" class="node"><title>Node1</title>
<polygon fill="#bfbfbf" stroke="black" points="0.5,-38.5 0.5,-57.5 95.5,-57.5 95.5,-38.5 0.5,-38.5"/>
<text text-anchor="middle" x="48" y="-45.5" font-family="FreeSans" font-size="10.00">ReadMySql::getInt</text>
</g>
<!-- Node2 -->
<g id="node2" class="node"><title>Node2</title>
<g id="a_node2"><a xlink:href="../../db/dda/classReadMySql.html#a3eea7821034734e2f01e451734055a3d" target="_top" xlink:title="ReadMySql::FillSEvent">
<polygon fill="none" stroke="black" points="135.5,-76.5 135.5,-95.5 250.5,-95.5 250.5,-76.5 135.5,-76.5"/>
<text text-anchor="middle" x="193" y="-83.5" font-family="FreeSans" font-size="10.00">ReadMySql::FillSEvent</text>
</a>
</g>
</g>
<!-- Node1&#45;&gt;Node2 -->
<g id="edge1" class="edge"><title>Node1&#45;&gt;Node2</title>
<path fill="none" stroke="midnightblue" d="M94.8133,-60.1742C114.587,-65.4287 137.384,-71.4866 155.927,-76.4141"/>
<polygon fill="midnightblue" stroke="midnightblue" points="95.6484,-56.7747 85.0849,-57.589 93.8506,-63.5399 95.6484,-56.7747"/>
</g>
<!-- Node4 -->
<g id="node4" class="node"><title>Node4</title>
<g id="a_node4"><a xlink:href="../../db/dda/classReadMySql.html#ad8a5a442bb429b679cb6ee50f627d0f2" target="_top" xlink:title="ReadMySql::FillSHitMap">
<polygon fill="none" stroke="black" points="132,-38.5 132,-57.5 254,-57.5 254,-38.5 132,-38.5"/>
<text text-anchor="middle" x="193" y="-45.5" font-family="FreeSans" font-size="10.00">ReadMySql::FillSHitMap</text>
</a>
</g>
</g>
<!-- Node1&#45;&gt;Node4 -->
<g id="edge3" class="edge"><title>Node1&#45;&gt;Node4</title>
<path fill="none" stroke="midnightblue" d="M105.992,-48C114.472,-48 123.236,-48 131.779,-48"/>
<polygon fill="midnightblue" stroke="midnightblue" points="105.824,-44.5001 95.8235,-48 105.824,-51.5001 105.824,-44.5001"/>
</g>
<!-- Node5 -->
<g id="node5" class="node"><title>Node5</title>
<g id="a_node5"><a xlink:href="../../db/dda/classReadMySql.html#ab73b7895d9b3e258b58f31b66b93a827" target="_top" xlink:title="ReadMySql::InitRun">
<polygon fill="none" stroke="black" points="142.5,-0.5 142.5,-19.5 243.5,-19.5 243.5,-0.5 142.5,-0.5"/>
<text text-anchor="middle" x="193" y="-7.5" font-family="FreeSans" font-size="10.00">ReadMySql::InitRun</text>
</a>
</g>
</g>
<!-- Node1&#45;&gt;Node5 -->
<g id="edge5" class="edge"><title>Node1&#45;&gt;Node5</title>
<path fill="none" stroke="midnightblue" d="M94.8133,-35.8258C114.587,-30.5713 137.384,-24.5134 155.927,-19.5859"/>
<polygon fill="midnightblue" stroke="midnightblue" points="93.8506,-32.4601 85.0849,-38.411 95.6484,-39.2253 93.8506,-32.4601"/>
</g>
<!-- Node3 -->
<g id="node3" class="node"><title>Node3</title>
<g id="a_node3"><a xlink:href="../../db/dda/classReadMySql.html#aef5367b1b70eb7b88d513750e78fc872" target="_top" xlink:title="ReadMySql::process\l_event">
<polygon fill="none" stroke="black" points="290.5,-52 290.5,-82 395.5,-82 395.5,-52 290.5,-52"/>
<text text-anchor="start" x="298.5" y="-70" font-family="FreeSans" font-size="10.00">ReadMySql::process</text>
<text text-anchor="middle" x="343" y="-59" font-family="FreeSans" font-size="10.00">_event</text>
</a>
</g>
</g>
<!-- Node2&#45;&gt;Node3 -->
<g id="edge2" class="edge"><title>Node2&#45;&gt;Node3</title>
<path fill="none" stroke="midnightblue" d="M261.006,-77.3979C270.889,-76.1292 280.939,-74.8389 290.445,-73.6186"/>
<polygon fill="midnightblue" stroke="midnightblue" points="260.27,-73.9635 250.797,-78.7084 261.162,-80.9065 260.27,-73.9635"/>
</g>
<!-- Node4&#45;&gt;Node3 -->
<g id="edge4" class="edge"><title>Node4&#45;&gt;Node3</title>
<path fill="none" stroke="midnightblue" d="M264.13,-57.0032C272.98,-58.1393 281.903,-59.2849 290.393,-60.3747"/>
<polygon fill="midnightblue" stroke="midnightblue" points="264.562,-53.5299 254.197,-55.728 263.67,-60.473 264.562,-53.5299"/>
</g>
</g>
</svg>
