<?xml version="1.0" encoding="UTF-8" standalone="no"?>
<!DOCTYPE svg PUBLIC "-//W3C//DTD SVG 1.1//EN"
 "http://www.w3.org/Graphics/SVG/1.1/DTD/svg11.dtd">
<!-- Generated by graphviz version 2.36.0 (20140111.2315)
 -->
<!-- Title: ReadMySql::FillSEvent Pages: 1 -->
<svg width="294pt" height="218pt"
 viewBox="0.00 0.00 294.00 218.00" xmlns="http://www.w3.org/2000/svg" xmlns:xlink="http://www.w3.org/1999/xlink">
<g id="graph0" class="graph" transform="scale(1 1) rotate(0) translate(4 214)">
<title>ReadMySql::FillSEvent</title>
<!-- Node1 -->
<g id="node1" class="node"><title>Node1</title>
<polygon fill="#bfbfbf" stroke="black" points="0.5,-95.5 0.5,-114.5 115.5,-114.5 115.5,-95.5 0.5,-95.5"/>
<text text-anchor="middle" x="58" y="-102.5" font-family="FreeSans" font-size="10.00">ReadMySql::FillSEvent</text>
</g>
<!-- Node2 -->
<g id="node2" class="node"><title>Node2</title>
<g id="a_node2"><a xlink:href="../../db/dda/classReadMySql.html#a3f6689c1c62d985e8747ab88c0a4e2d9" target="_top" xlink:title="ReadMySql::getInt">
<polygon fill="none" stroke="black" points="171.5,-190.5 171.5,-209.5 266.5,-209.5 266.5,-190.5 171.5,-190.5"/>
<text text-anchor="middle" x="219" y="-197.5" font-family="FreeSans" font-size="10.00">ReadMySql::getInt</text>
</a>
</g>
</g>
<!-- Node1&#45;&gt;Node2 -->
<g id="edge1" class="edge"><title>Node1&#45;&gt;Node2</title>
<path fill="none" stroke="midnightblue" d="M68.0996,-114.643C83.7592,-130.691 117.463,-162.9 152,-181 156.264,-183.235 160.825,-185.237 165.483,-187.025"/>
<polygon fill="midnightblue" stroke="midnightblue" points="164.521,-190.396 175.116,-190.399 166.835,-183.79 164.521,-190.396"/>
</g>
<!-- Node3 -->
<g id="node3" class="node"><title>Node3</title>
<g id="a_node3"><a xlink:href="../../d8/dfc/classSEvent.html#a859473b85466c0dc32a130aa0b276f16" target="_top" xlink:title="SEvent::set_coda_event_id">
<polygon fill="none" stroke="black" points="152,-152.5 152,-171.5 286,-171.5 286,-152.5 152,-152.5"/>
<text text-anchor="middle" x="219" y="-159.5" font-family="FreeSans" font-size="10.00">SEvent::set_coda_event_id</text>
</a>
</g>
</g>
<!-- Node1&#45;&gt;Node3 -->
<g id="edge2" class="edge"><title>Node1&#45;&gt;Node3</title>
<path fill="none" stroke="midnightblue" d="M80.5448,-114.575C99.234,-122.695 127.119,-134.364 152,-143 158.509,-145.259 165.442,-147.467 172.276,-149.53"/>
<polygon fill="midnightblue" stroke="midnightblue" points="171.575,-152.973 182.156,-152.441 173.553,-146.258 171.575,-152.973"/>
</g>
<!-- Node4 -->
<g id="node4" class="node"><title>Node4</title>
<g id="a_node4"><a xlink:href="../../d8/dfc/classSEvent.html#a18e6c7143340e3a9cafb4ab740433596" target="_top" xlink:title="SEvent::set_event_id">
<polygon fill="none" stroke="black" points="165,-114.5 165,-133.5 273,-133.5 273,-114.5 165,-114.5"/>
<text text-anchor="middle" x="219" y="-121.5" font-family="FreeSans" font-size="10.00">SEvent::set_event_id</text>
</a>
</g>
</g>
<!-- Node1&#45;&gt;Node4 -->
<g id="edge3" class="edge"><title>Node1&#45;&gt;Node4</title>
<path fill="none" stroke="midnightblue" d="M115.505,-111.752C128.183,-113.267 141.714,-114.884 154.65,-116.43"/>
<polygon fill="midnightblue" stroke="midnightblue" points="154.524,-119.94 164.869,-117.651 155.355,-112.989 154.524,-119.94"/>
</g>
<!-- Node5 -->
<g id="node5" class="node"><title>Node5</title>
<g id="a_node5"><a xlink:href="../../d8/dfc/classSEvent.html#a03fdcf3c51a7299d71a4e3153837b598" target="_top" xlink:title="SEvent::set_run_id">
<polygon fill="none" stroke="black" points="170,-76.5 170,-95.5 268,-95.5 268,-76.5 170,-76.5"/>
<text text-anchor="middle" x="219" y="-83.5" font-family="FreeSans" font-size="10.00">SEvent::set_run_id</text>
</a>
</g>
</g>
<!-- Node1&#45;&gt;Node5 -->
<g id="edge4" class="edge"><title>Node1&#45;&gt;Node5</title>
<path fill="none" stroke="midnightblue" d="M115.505,-98.2478C129.799,-96.5398 145.177,-94.7021 159.564,-92.9829"/>
<polygon fill="midnightblue" stroke="midnightblue" points="160.321,-96.4175 169.835,-91.7556 159.49,-89.467 160.321,-96.4175"/>
</g>
<!-- Node6 -->
<g id="node6" class="node"><title>Node6</title>
<g id="a_node6"><a xlink:href="../../d8/dfc/classSEvent.html#a3f5eae100d673fe2c10827ff0411535e" target="_top" xlink:title="SEvent::set_spill_id">
<polygon fill="none" stroke="black" points="168.5,-38.5 168.5,-57.5 269.5,-57.5 269.5,-38.5 168.5,-38.5"/>
<text text-anchor="middle" x="219" y="-45.5" font-family="FreeSans" font-size="10.00">SEvent::set_spill_id</text>
</a>
</g>
</g>
<!-- Node1&#45;&gt;Node6 -->
<g id="edge5" class="edge"><title>Node1&#45;&gt;Node6</title>
<path fill="none" stroke="midnightblue" d="M80.5448,-95.4246C99.234,-87.3053 127.119,-75.6364 152,-67 158.509,-64.7408 165.442,-62.5334 172.276,-60.4697"/>
<polygon fill="midnightblue" stroke="midnightblue" points="173.553,-63.7422 182.156,-57.5595 171.575,-57.0274 173.553,-63.7422"/>
</g>
<!-- Node7 -->
<g id="node7" class="node"><title>Node7</title>
<g id="a_node7"><a xlink:href="../../d8/dfc/classSEvent.html#a9dc67e44363458e2ec44a596ebeca4c8" target="_top" xlink:title="SEvent::set_trigger">
<polygon fill="none" stroke="black" points="170,-0.5 170,-19.5 268,-19.5 268,-0.5 170,-0.5"/>
<text text-anchor="middle" x="219" y="-7.5" font-family="FreeSans" font-size="10.00">SEvent::set_trigger</text>
</a>
</g>
</g>
<!-- Node1&#45;&gt;Node7 -->
<g id="edge6" class="edge"><title>Node1&#45;&gt;Node7</title>
<path fill="none" stroke="midnightblue" d="M68.0996,-95.3574C83.7592,-79.3094 117.463,-47.0998 152,-29 156.264,-26.7653 160.825,-24.7629 165.483,-22.9751"/>
<polygon fill="midnightblue" stroke="midnightblue" points="166.835,-26.21 175.116,-19.6011 164.521,-19.6035 166.835,-26.21"/>
</g>
</g>
</svg>
