<?xml version="1.0" encoding="UTF-8" standalone="no"?>
<!DOCTYPE svg PUBLIC "-//W3C//DTD SVG 1.1//EN"
 "http://www.w3.org/Graphics/SVG/1.1/DTD/svg11.dtd">
<!-- Generated by graphviz version 2.36.0 (20140111.2315)
 -->
<!-- Title: ReadMySql::InitRun Pages: 1 -->
<svg width="618pt" height="199pt"
 viewBox="0.00 0.00 618.00 199.00" xmlns="http://www.w3.org/2000/svg" xmlns:xlink="http://www.w3.org/1999/xlink">
<g id="graph0" class="graph" transform="scale(1 1) rotate(0) translate(4 195)">
<title>ReadMySql::InitRun</title>
<!-- Node1 -->
<g id="node1" class="node"><title>Node1</title>
<polygon fill="#bfbfbf" stroke="black" points="0.5,-76.5 0.5,-95.5 101.5,-95.5 101.5,-76.5 0.5,-76.5"/>
<text text-anchor="middle" x="51" y="-83.5" font-family="FreeSans" font-size="10.00">ReadMySql::InitRun</text>
</g>
<!-- Node2 -->
<g id="node2" class="node"><title>Node2</title>
<g id="a_node2"><a xlink:href="../../db/dda/classReadMySql.html#a3f6689c1c62d985e8747ab88c0a4e2d9" target="_top" xlink:title="ReadMySql::getInt">
<polygon fill="none" stroke="black" points="161.5,-152.5 161.5,-171.5 256.5,-171.5 256.5,-152.5 161.5,-152.5"/>
<text text-anchor="middle" x="209" y="-159.5" font-family="FreeSans" font-size="10.00">ReadMySql::getInt</text>
</a>
</g>
</g>
<!-- Node1&#45;&gt;Node2 -->
<g id="edge1" class="edge"><title>Node1&#45;&gt;Node2</title>
<path fill="none" stroke="midnightblue" d="M63.8045,-95.6249C79.7419,-108.182 109.444,-130.07 138,-143 143.291,-145.396 148.948,-147.545 154.667,-149.459"/>
<polygon fill="midnightblue" stroke="midnightblue" points="153.709,-152.826 164.297,-152.459 155.791,-146.143 153.709,-152.826"/>
</g>
<!-- Node3 -->
<g id="node3" class="node"><title>Node3</title>
<g id="a_node3"><a xlink:href="../../db/dda/classReadMySql.html#a893da68c47d48aaa94b6a6befdb4ab85" target="_top" xlink:title="ReadMySql::MakeNodes">
<polygon fill="none" stroke="black" points="147.5,-114.5 147.5,-133.5 270.5,-133.5 270.5,-114.5 147.5,-114.5"/>
<text text-anchor="middle" x="209" y="-121.5" font-family="FreeSans" font-size="10.00">ReadMySql::MakeNodes</text>
</a>
</g>
</g>
<!-- Node1&#45;&gt;Node3 -->
<g id="edge2" class="edge"><title>Node1&#45;&gt;Node3</title>
<path fill="none" stroke="midnightblue" d="M91.3654,-95.589C111.951,-100.604 137.34,-106.788 159.169,-112.105"/>
<polygon fill="midnightblue" stroke="midnightblue" points="158.373,-115.514 168.918,-114.48 160.03,-108.713 158.373,-115.514"/>
</g>
<!-- Node10 -->
<g id="node10" class="node"><title>Node10</title>
<g id="a_node10"><a xlink:href="../../db/dda/classReadMySql.html#acd5d8312088200e52716870649ff0425" target="_top" xlink:title="ReadMySql::makeQueryInput">
<polygon fill="none" stroke="black" points="138,-76.5 138,-95.5 280,-95.5 280,-76.5 138,-76.5"/>
<text text-anchor="middle" x="209" y="-83.5" font-family="FreeSans" font-size="10.00">ReadMySql::makeQueryInput</text>
</a>
</g>
</g>
<!-- Node1&#45;&gt;Node10 -->
<g id="edge11" class="edge"><title>Node1&#45;&gt;Node10</title>
<path fill="none" stroke="midnightblue" d="M101.788,-86C110.146,-86 119.003,-86 127.896,-86"/>
<polygon fill="midnightblue" stroke="midnightblue" points="127.928,-89.5001 137.928,-86 127.928,-82.5001 127.928,-89.5001"/>
</g>
<!-- Node11 -->
<g id="node11" class="node"><title>Node11</title>
<g id="a_node11"><a xlink:href="../../db/dda/classReadMySql.html#adf46b2a7238c8f71d0c08e6df21effae" target="_top" xlink:title="ReadMySql::nextEntry">
<polygon fill="none" stroke="black" points="154,-38.5 154,-57.5 264,-57.5 264,-38.5 154,-38.5"/>
<text text-anchor="middle" x="209" y="-45.5" font-family="FreeSans" font-size="10.00">ReadMySql::nextEntry</text>
</a>
</g>
</g>
<!-- Node1&#45;&gt;Node11 -->
<g id="edge12" class="edge"><title>Node1&#45;&gt;Node11</title>
<path fill="none" stroke="midnightblue" d="M91.3654,-76.411C111.951,-71.3965 137.34,-65.2119 159.169,-59.8947"/>
<polygon fill="midnightblue" stroke="midnightblue" points="160.03,-63.2874 168.918,-57.5201 158.373,-56.4863 160.03,-63.2874"/>
</g>
<!-- Node12 -->
<g id="node12" class="node"><title>Node12</title>
<g id="a_node12"><a xlink:href="../../d5/dec/classFun4AllBase.html#a8a5c77a92bdac6bc043476e132379a40" target="_top" xlink:title="Gets the verbosity of this module. ">
<polygon fill="none" stroke="black" points="150.5,-0.5 150.5,-19.5 267.5,-19.5 267.5,-0.5 150.5,-0.5"/>
<text text-anchor="middle" x="209" y="-7.5" font-family="FreeSans" font-size="10.00">Fun4AllBase::Verbosity</text>
</a>
</g>
</g>
<!-- Node1&#45;&gt;Node12 -->
<g id="edge13" class="edge"><title>Node1&#45;&gt;Node12</title>
<path fill="none" stroke="midnightblue" d="M63.8045,-76.3751C79.7419,-63.8183 109.444,-41.9299 138,-29 143.291,-26.6042 148.948,-24.4549 154.667,-22.5411"/>
<polygon fill="midnightblue" stroke="midnightblue" points="155.791,-25.857 164.297,-19.5406 153.709,-19.1738 155.791,-25.857"/>
</g>
<!-- Node4 -->
<g id="node4" class="node"><title>Node4</title>
<g id="a_node4"><a xlink:href="../../d5/d07/classPHNodeIterator.html#aea98bf8619af59b1212a94fb32106baa" target="_top" xlink:title="PHNodeIterator::findFirst">
<polygon fill="none" stroke="black" points="326,-133.5 326,-152.5 450,-152.5 450,-133.5 326,-133.5"/>
<text text-anchor="middle" x="388" y="-140.5" font-family="FreeSans" font-size="10.00">PHNodeIterator::findFirst</text>
</a>
</g>
</g>
<!-- Node3&#45;&gt;Node4 -->
<g id="edge3" class="edge"><title>Node3&#45;&gt;Node4</title>
<path fill="none" stroke="midnightblue" d="M270.913,-130.539C285.376,-132.091 300.93,-133.761 315.806,-135.358"/>
<polygon fill="midnightblue" stroke="midnightblue" points="315.658,-138.862 325.974,-136.449 316.405,-131.902 315.658,-138.862"/>
</g>
<!-- Node7 -->
<g id="node7" class="node"><title>Node7</title>
<g id="a_node7"><a xlink:href="../../d5/dca/classPHCompositeNode.html#ac7dbf017614c324e218a001d729607bf" target="_top" xlink:title="PHCompositeNode::addNode">
<polygon fill="none" stroke="black" points="316,-95.5 316,-114.5 460,-114.5 460,-95.5 316,-95.5"/>
<text text-anchor="middle" x="388" y="-102.5" font-family="FreeSans" font-size="10.00">PHCompositeNode::addNode</text>
</a>
</g>
</g>
<!-- Node3&#45;&gt;Node7 -->
<g id="edge7" class="edge"><title>Node3&#45;&gt;Node7</title>
<path fill="none" stroke="midnightblue" d="M270.913,-117.461C282.128,-116.257 294,-114.983 305.702,-113.727"/>
<polygon fill="midnightblue" stroke="midnightblue" points="306.352,-117.177 315.922,-112.63 305.605,-110.217 306.352,-117.177"/>
</g>
<!-- Node4&#45;&gt;Node4 -->
<g id="edge4" class="edge"><title>Node4&#45;&gt;Node4</title>
<path fill="none" stroke="midnightblue" d="M362.723,-152.757C350.426,-161.565 358.852,-171 388,-171 407.584,-171 417.814,-166.741 418.689,-161.275"/>
<polygon fill="midnightblue" stroke="midnightblue" points="421.594,-159.321 413.277,-152.757 415.686,-163.075 421.594,-159.321"/>
</g>
<!-- Node5 -->
<g id="node5" class="node"><title>Node5</title>
<g id="a_node5"><a xlink:href="../../dc/d82/classPHNode.html#aca3576f926a4401eddc3d88bf0ce0de3" target="_top" xlink:title="PHNode::getName">
<polygon fill="none" stroke="black" points="504,-133.5 504,-152.5 602,-152.5 602,-133.5 504,-133.5"/>
<text text-anchor="middle" x="553" y="-140.5" font-family="FreeSans" font-size="10.00">PHNode::getName</text>
</a>
</g>
</g>
<!-- Node4&#45;&gt;Node5 -->
<g id="edge5" class="edge"><title>Node4&#45;&gt;Node5</title>
<path fill="none" stroke="midnightblue" d="M450.159,-143C464.479,-143 479.695,-143 493.878,-143"/>
<polygon fill="midnightblue" stroke="midnightblue" points="493.996,-146.5 503.996,-143 493.996,-139.5 493.996,-146.5"/>
</g>
<!-- Node6 -->
<g id="node6" class="node"><title>Node6</title>
<g id="a_node6"><a xlink:href="../../dc/d82/classPHNode.html#a4ab1f90aed955a652813bfe377087bda" target="_top" xlink:title="PHNode::getType">
<polygon fill="none" stroke="black" points="506.5,-171.5 506.5,-190.5 599.5,-190.5 599.5,-171.5 506.5,-171.5"/>
<text text-anchor="middle" x="553" y="-178.5" font-family="FreeSans" font-size="10.00">PHNode::getType</text>
</a>
</g>
</g>
<!-- Node4&#45;&gt;Node6 -->
<g id="edge6" class="edge"><title>Node4&#45;&gt;Node6</title>
<path fill="none" stroke="midnightblue" d="M430.132,-152.589C451.738,-157.626 478.409,-163.844 501.286,-169.177"/>
<polygon fill="midnightblue" stroke="midnightblue" points="500.63,-172.618 511.164,-171.48 502.22,-165.801 500.63,-172.618"/>
</g>
<!-- Node7&#45;&gt;Node5 -->
<g id="edge9" class="edge"><title>Node7&#45;&gt;Node5</title>
<path fill="none" stroke="midnightblue" d="M430.132,-114.589C451.738,-119.626 478.409,-125.844 501.286,-131.177"/>
<polygon fill="midnightblue" stroke="midnightblue" points="500.63,-134.618 511.164,-133.48 502.22,-127.801 500.63,-134.618"/>
</g>
<!-- Node8 -->
<g id="node8" class="node"><title>Node8</title>
<g id="a_node8"><a xlink:href="../../d6/d86/classPHPointerList.html#af5fc4e6958b5b90c57bfb497566f503c" target="_top" xlink:title="PHPointerList::append">
<polygon fill="none" stroke="black" points="496,-95.5 496,-114.5 610,-114.5 610,-95.5 496,-95.5"/>
<text text-anchor="middle" x="553" y="-102.5" font-family="FreeSans" font-size="10.00">PHPointerList::append</text>
</a>
</g>
</g>
<!-- Node7&#45;&gt;Node8 -->
<g id="edge8" class="edge"><title>Node7&#45;&gt;Node8</title>
<path fill="none" stroke="midnightblue" d="M460.02,-105C468.559,-105 477.254,-105 485.722,-105"/>
<polygon fill="midnightblue" stroke="midnightblue" points="485.912,-108.5 495.912,-105 485.912,-101.5 485.912,-108.5"/>
</g>
<!-- Node9 -->
<g id="node9" class="node"><title>Node9</title>
<g id="a_node9"><a xlink:href="../../dc/d82/classPHNode.html#adda2bd6cef2d5067bbe3016a990b7198" target="_top" xlink:title="PHNode::setParent">
<polygon fill="none" stroke="black" points="502.5,-57.5 502.5,-76.5 603.5,-76.5 603.5,-57.5 502.5,-57.5"/>
<text text-anchor="middle" x="553" y="-64.5" font-family="FreeSans" font-size="10.00">PHNode::setParent</text>
</a>
</g>
</g>
<!-- Node7&#45;&gt;Node9 -->
<g id="edge10" class="edge"><title>Node7&#45;&gt;Node9</title>
<path fill="none" stroke="midnightblue" d="M430.132,-95.411C451.738,-90.3739 478.409,-84.1562 501.286,-78.8229"/>
<polygon fill="midnightblue" stroke="midnightblue" points="502.22,-82.1991 511.164,-76.5201 500.63,-75.3819 502.22,-82.1991"/>
</g>
</g>
</svg>
