<?xml version="1.0" encoding="UTF-8" standalone="no"?>
<!DOCTYPE svg PUBLIC "-//W3C//DTD SVG 1.1//EN"
 "http://www.w3.org/Graphics/SVG/1.1/DTD/svg11.dtd">
<!-- Generated by graphviz version 2.36.0 (20140111.2315)
 -->
<!-- Title: ReadMySql::FillSHitMap Pages: 1 -->
<svg width="284pt" height="446pt"
 viewBox="0.00 0.00 284.00 446.00" xmlns="http://www.w3.org/2000/svg" xmlns:xlink="http://www.w3.org/1999/xlink">
<g id="graph0" class="graph" transform="scale(1 1) rotate(0) translate(4 442)">
<title>ReadMySql::FillSHitMap</title>
<!-- Node1 -->
<g id="node1" class="node"><title>Node1</title>
<polygon fill="#bfbfbf" stroke="black" points="0,-209.5 0,-228.5 122,-228.5 122,-209.5 0,-209.5"/>
<text text-anchor="middle" x="61" y="-216.5" font-family="FreeSans" font-size="10.00">ReadMySql::FillSHitMap</text>
</g>
<!-- Node2 -->
<g id="node2" class="node"><title>Node2</title>
<g id="a_node2"><a xlink:href="../../db/dda/classReadMySql.html#af8c4f71c0671dbc34370e363d92106ad" target="_top" xlink:title="ReadMySql::getFloat">
<polygon fill="none" stroke="black" points="164,-418.5 164,-437.5 270,-437.5 270,-418.5 164,-418.5"/>
<text text-anchor="middle" x="217" y="-425.5" font-family="FreeSans" font-size="10.00">ReadMySql::getFloat</text>
</a>
</g>
</g>
<!-- Node1&#45;&gt;Node2 -->
<g id="edge1" class="edge"><title>Node1&#45;&gt;Node2</title>
<path fill="none" stroke="midnightblue" d="M64.0599,-228.503C71.2316,-259.319 98.0093,-357.462 158,-409 159.969,-410.692 162.093,-412.234 164.323,-413.639"/>
<polygon fill="midnightblue" stroke="midnightblue" points="162.876,-416.833 173.353,-418.41 166.146,-410.644 162.876,-416.833"/>
</g>
<!-- Node3 -->
<g id="node3" class="node"><title>Node3</title>
<g id="a_node3"><a xlink:href="../../db/dda/classReadMySql.html#a3f6689c1c62d985e8747ab88c0a4e2d9" target="_top" xlink:title="ReadMySql::getInt">
<polygon fill="none" stroke="black" points="169.5,-380.5 169.5,-399.5 264.5,-399.5 264.5,-380.5 169.5,-380.5"/>
<text text-anchor="middle" x="217" y="-387.5" font-family="FreeSans" font-size="10.00">ReadMySql::getInt</text>
</a>
</g>
</g>
<!-- Node1&#45;&gt;Node3 -->
<g id="edge2" class="edge"><title>Node1&#45;&gt;Node3</title>
<path fill="none" stroke="midnightblue" d="M65.4588,-228.818C75.423,-255.691 106.795,-331.093 158,-371 160.311,-372.801 162.8,-374.435 165.401,-375.917"/>
<polygon fill="midnightblue" stroke="midnightblue" points="164.059,-379.156 174.582,-380.39 167.125,-372.863 164.059,-379.156"/>
</g>
<!-- Node4 -->
<g id="node4" class="node"><title>Node4</title>
<g id="a_node4"><a xlink:href="../../d0/da1/classSHit.html#a673eb2a30c137f009f266d685dca9d57" target="_top" xlink:title="SHit::identify">
<polygon fill="none" stroke="black" points="181.5,-342.5 181.5,-361.5 252.5,-361.5 252.5,-342.5 181.5,-342.5"/>
<text text-anchor="middle" x="217" y="-349.5" font-family="FreeSans" font-size="10.00">SHit::identify</text>
</a>
</g>
</g>
<!-- Node1&#45;&gt;Node4 -->
<g id="edge3" class="edge"><title>Node1&#45;&gt;Node4</title>
<path fill="none" stroke="midnightblue" d="M67.6141,-228.823C80.6408,-250.754 115.108,-304.048 158,-333 162.281,-335.89 167.036,-338.368 171.927,-340.487"/>
<polygon fill="midnightblue" stroke="midnightblue" points="170.825,-343.813 181.415,-344.131 173.335,-337.278 170.825,-343.813"/>
</g>
<!-- Node5 -->
<g id="node5" class="node"><title>Node5</title>
<g id="a_node5"><a xlink:href="../../d9/d05/classSHitMap.html#aec623d275586feb46be85b25a3ac82ca" target="_top" xlink:title="SHitMap::insert">
<polygon fill="none" stroke="black" points="175.5,-304.5 175.5,-323.5 258.5,-323.5 258.5,-304.5 175.5,-304.5"/>
<text text-anchor="middle" x="217" y="-311.5" font-family="FreeSans" font-size="10.00">SHitMap::insert</text>
</a>
</g>
</g>
<!-- Node1&#45;&gt;Node5 -->
<g id="edge4" class="edge"><title>Node1&#45;&gt;Node5</title>
<path fill="none" stroke="midnightblue" d="M71.7958,-228.741C88.2756,-244.645 123.172,-276.284 158,-295 161.993,-297.146 166.271,-299.105 170.628,-300.88"/>
<polygon fill="midnightblue" stroke="midnightblue" points="169.618,-304.239 180.21,-304.473 172.075,-297.685 169.618,-304.239"/>
</g>
<!-- Node6 -->
<g id="node6" class="node"><title>Node6</title>
<g id="a_node6"><a xlink:href="../../d0/da1/classSHit.html#a9f8489049f75b565e815273d7c2a50ad" target="_top" xlink:title="SHit::set_detector_id">
<polygon fill="none" stroke="black" points="163.5,-266.5 163.5,-285.5 270.5,-285.5 270.5,-266.5 163.5,-266.5"/>
<text text-anchor="middle" x="217" y="-273.5" font-family="FreeSans" font-size="10.00">SHit::set_detector_id</text>
</a>
</g>
</g>
<!-- Node1&#45;&gt;Node6 -->
<g id="edge5" class="edge"><title>Node1&#45;&gt;Node6</title>
<path fill="none" stroke="midnightblue" d="M85.129,-228.609C104.481,-236.54 132.881,-247.924 158,-257 163.746,-259.076 169.845,-261.181 175.848,-263.196"/>
<polygon fill="midnightblue" stroke="midnightblue" points="175.185,-266.663 185.779,-266.482 177.384,-260.018 175.185,-266.663"/>
</g>
<!-- Node7 -->
<g id="node7" class="node"><title>Node7</title>
<g id="a_node7"><a xlink:href="../../d0/da1/classSHit.html#aa7b0b4bd395c159a47fc913a510e1f6e" target="_top" xlink:title="SHit::set_drift_distance">
<polygon fill="none" stroke="black" points="158,-228.5 158,-247.5 276,-247.5 276,-228.5 158,-228.5"/>
<text text-anchor="middle" x="217" y="-235.5" font-family="FreeSans" font-size="10.00">SHit::set_drift_distance</text>
</a>
</g>
</g>
<!-- Node1&#45;&gt;Node7 -->
<g id="edge6" class="edge"><title>Node1&#45;&gt;Node7</title>
<path fill="none" stroke="midnightblue" d="M122.423,-226.455C130.69,-227.475 139.225,-228.528 147.621,-229.564"/>
<polygon fill="midnightblue" stroke="midnightblue" points="147.414,-233.065 157.767,-230.815 148.271,-226.117 147.414,-233.065"/>
</g>
<!-- Node8 -->
<g id="node8" class="node"><title>Node8</title>
<g id="a_node8"><a xlink:href="../../d0/da1/classSHit.html#a2fd5c4dd920665d1a74fc1f3cf21c32e" target="_top" xlink:title="SHit::set_element_id">
<polygon fill="none" stroke="black" points="163.5,-190.5 163.5,-209.5 270.5,-209.5 270.5,-190.5 163.5,-190.5"/>
<text text-anchor="middle" x="217" y="-197.5" font-family="FreeSans" font-size="10.00">SHit::set_element_id</text>
</a>
</g>
</g>
<!-- Node1&#45;&gt;Node8 -->
<g id="edge7" class="edge"><title>Node1&#45;&gt;Node8</title>
<path fill="none" stroke="midnightblue" d="M122.423,-211.545C132.535,-210.298 143.047,-209.001 153.217,-207.746"/>
<polygon fill="midnightblue" stroke="midnightblue" points="153.748,-211.207 163.244,-206.509 152.891,-204.26 153.748,-211.207"/>
</g>
<!-- Node9 -->
<g id="node9" class="node"><title>Node9</title>
<g id="a_node9"><a xlink:href="../../d0/da1/classSHit.html#a2d0e63ff24bb20629cd8b5aeba64aeb3" target="_top" xlink:title="SHit::set_hit_id">
<polygon fill="none" stroke="black" points="175.5,-152.5 175.5,-171.5 258.5,-171.5 258.5,-152.5 175.5,-152.5"/>
<text text-anchor="middle" x="217" y="-159.5" font-family="FreeSans" font-size="10.00">SHit::set_hit_id</text>
</a>
</g>
</g>
<!-- Node1&#45;&gt;Node9 -->
<g id="edge8" class="edge"><title>Node1&#45;&gt;Node9</title>
<path fill="none" stroke="midnightblue" d="M85.129,-209.391C104.481,-201.46 132.881,-190.076 158,-181 163.746,-178.924 169.845,-176.819 175.848,-174.804"/>
<polygon fill="midnightblue" stroke="midnightblue" points="177.384,-177.982 185.779,-171.518 175.185,-171.337 177.384,-177.982"/>
</g>
<!-- Node10 -->
<g id="node10" class="node"><title>Node10</title>
<g id="a_node10"><a xlink:href="../../d0/da1/classSHit.html#abe2b09da3f63e85ab918429b6afc0462" target="_top" xlink:title="SHit::set_hodo_mask">
<polygon fill="none" stroke="black" points="162,-114.5 162,-133.5 272,-133.5 272,-114.5 162,-114.5"/>
<text text-anchor="middle" x="217" y="-121.5" font-family="FreeSans" font-size="10.00">SHit::set_hodo_mask</text>
</a>
</g>
</g>
<!-- Node1&#45;&gt;Node10 -->
<g id="edge9" class="edge"><title>Node1&#45;&gt;Node10</title>
<path fill="none" stroke="midnightblue" d="M71.7958,-209.259C88.2756,-193.355 123.172,-161.716 158,-143 161.993,-140.854 166.271,-138.895 170.628,-137.12"/>
<polygon fill="midnightblue" stroke="midnightblue" points="172.075,-140.315 180.21,-133.527 169.618,-133.761 172.075,-140.315"/>
</g>
<!-- Node11 -->
<g id="node11" class="node"><title>Node11</title>
<g id="a_node11"><a xlink:href="../../d0/da1/classSHit.html#a0d1e39d6ad139c672d84db637e1fa4be" target="_top" xlink:title="SHit::set_in_time">
<polygon fill="none" stroke="black" points="171.5,-76.5 171.5,-95.5 262.5,-95.5 262.5,-76.5 171.5,-76.5"/>
<text text-anchor="middle" x="217" y="-83.5" font-family="FreeSans" font-size="10.00">SHit::set_in_time</text>
</a>
</g>
</g>
<!-- Node1&#45;&gt;Node11 -->
<g id="edge10" class="edge"><title>Node1&#45;&gt;Node11</title>
<path fill="none" stroke="midnightblue" d="M67.6141,-209.177C80.6408,-187.246 115.108,-133.952 158,-105 160.944,-103.013 164.11,-101.221 167.392,-99.6064"/>
<polygon fill="midnightblue" stroke="midnightblue" points="169.064,-102.696 176.852,-95.5126 166.284,-96.272 169.064,-102.696"/>
</g>
<!-- Node12 -->
<g id="node12" class="node"><title>Node12</title>
<g id="a_node12"><a xlink:href="../../d0/da1/classSHit.html#ab149cf0f1b0786f419615012f174c76f" target="_top" xlink:title="SHit::set_pos">
<polygon fill="none" stroke="black" points="179.5,-38.5 179.5,-57.5 254.5,-57.5 254.5,-38.5 179.5,-38.5"/>
<text text-anchor="middle" x="217" y="-45.5" font-family="FreeSans" font-size="10.00">SHit::set_pos</text>
</a>
</g>
</g>
<!-- Node1&#45;&gt;Node12 -->
<g id="edge11" class="edge"><title>Node1&#45;&gt;Node12</title>
<path fill="none" stroke="midnightblue" d="M65.4588,-209.182C75.423,-182.309 106.795,-106.907 158,-67 161.624,-64.1758 165.684,-61.7632 169.929,-59.7038"/>
<polygon fill="midnightblue" stroke="midnightblue" points="171.541,-62.8232 179.418,-55.7371 168.842,-56.3647 171.541,-62.8232"/>
</g>
<!-- Node13 -->
<g id="node13" class="node"><title>Node13</title>
<g id="a_node13"><a xlink:href="../../d0/da1/classSHit.html#aa88865f7b08fe09b00edf7c5fbdf0b91" target="_top" xlink:title="SHit::set_tdc_time">
<polygon fill="none" stroke="black" points="168.5,-0.5 168.5,-19.5 265.5,-19.5 265.5,-0.5 168.5,-0.5"/>
<text text-anchor="middle" x="217" y="-7.5" font-family="FreeSans" font-size="10.00">SHit::set_tdc_time</text>
</a>
</g>
</g>
<!-- Node1&#45;&gt;Node13 -->
<g id="edge12" class="edge"><title>Node1&#45;&gt;Node13</title>
<path fill="none" stroke="midnightblue" d="M64.0599,-209.497C71.2316,-178.681 98.0093,-80.5385 158,-29 159.969,-27.3083 162.093,-25.7664 164.323,-24.3611"/>
<polygon fill="midnightblue" stroke="midnightblue" points="166.146,-27.3561 173.353,-19.59 162.876,-21.1668 166.146,-27.3561"/>
</g>
</g>
</svg>
