<?xml version="1.0" encoding="UTF-8" standalone="no"?>
<!DOCTYPE svg PUBLIC "-//W3C//DTD SVG 1.1//EN"
 "http://www.w3.org/Graphics/SVG/1.1/DTD/svg11.dtd">
<!-- Generated by graphviz version 2.36.0 (20140111.2315)
 -->
<!-- Title: ReadMySql::process_event Pages: 1 -->
<svg width="442pt" height="636pt"
 viewBox="0.00 0.00 442.00 636.00" xmlns="http://www.w3.org/2000/svg" xmlns:xlink="http://www.w3.org/1999/xlink">
<g id="graph0" class="graph" transform="scale(1 1) rotate(0) translate(4 632)">
<title>ReadMySql::process_event</title>
<!-- Node1 -->
<g id="node1" class="node"><title>Node1</title>
<polygon fill="#bfbfbf" stroke="black" points="0.5,-223 0.5,-253 105.5,-253 105.5,-223 0.5,-223"/>
<text text-anchor="start" x="8.5" y="-241" font-family="FreeSans" font-size="10.00">ReadMySql::process</text>
<text text-anchor="middle" x="53" y="-230" font-family="FreeSans" font-size="10.00">_event</text>
</g>
<!-- Node2 -->
<g id="node2" class="node"><title>Node2</title>
<g id="a_node2"><a xlink:href="../../db/dda/classReadMySql.html#a3eea7821034734e2f01e451734055a3d" target="_top" xlink:title="ReadMySql::FillSEvent">
<polygon fill="none" stroke="black" points="145.5,-494.5 145.5,-513.5 260.5,-513.5 260.5,-494.5 145.5,-494.5"/>
<text text-anchor="middle" x="203" y="-501.5" font-family="FreeSans" font-size="10.00">ReadMySql::FillSEvent</text>
</a>
</g>
</g>
<!-- Node1&#45;&gt;Node2 -->
<g id="edge1" class="edge"><title>Node1&#45;&gt;Node2</title>
<path fill="none" stroke="midnightblue" d="M62.3812,-253.063C87.7816,-298.716 163.865,-435.459 191.675,-485.442"/>
<polygon fill="midnightblue" stroke="midnightblue" points="188.782,-487.442 196.703,-494.479 194.899,-484.039 188.782,-487.442"/>
</g>
<!-- Node9 -->
<g id="node9" class="node"><title>Node9</title>
<g id="a_node9"><a xlink:href="../../db/dda/classReadMySql.html#ad8a5a442bb429b679cb6ee50f627d0f2" target="_top" xlink:title="ReadMySql::FillSHitMap">
<polygon fill="none" stroke="black" points="142,-228.5 142,-247.5 264,-247.5 264,-228.5 142,-228.5"/>
<text text-anchor="middle" x="203" y="-235.5" font-family="FreeSans" font-size="10.00">ReadMySql::FillSHitMap</text>
</a>
</g>
</g>
<!-- Node1&#45;&gt;Node9 -->
<g id="edge8" class="edge"><title>Node1&#45;&gt;Node9</title>
<path fill="none" stroke="midnightblue" d="M105.763,-238C114.151,-238 122.959,-238 131.698,-238"/>
<polygon fill="midnightblue" stroke="midnightblue" points="131.896,-241.5 141.896,-238 131.896,-234.5 131.896,-241.5"/>
</g>
<!-- Node21 -->
<g id="node21" class="node"><title>Node21</title>
<g id="a_node21"><a xlink:href="../../db/dda/classReadMySql.html#aa91aaec10315630f6d684b2c74d39f0d" target="_top" xlink:title="ReadMySql::GetNodes">
<polygon fill="none" stroke="black" points="145.5,-190.5 145.5,-209.5 260.5,-209.5 260.5,-190.5 145.5,-190.5"/>
<text text-anchor="middle" x="203" y="-197.5" font-family="FreeSans" font-size="10.00">ReadMySql::GetNodes</text>
</a>
</g>
</g>
<!-- Node1&#45;&gt;Node21 -->
<g id="edge21" class="edge"><title>Node1&#45;&gt;Node21</title>
<path fill="none" stroke="midnightblue" d="M105.763,-224.709C121.764,-220.601 139.294,-216.1 154.957,-212.079"/>
<polygon fill="midnightblue" stroke="midnightblue" points="156.13,-215.391 164.946,-209.514 154.389,-208.611 156.13,-215.391"/>
</g>
<!-- Node3 -->
<g id="node3" class="node"><title>Node3</title>
<g id="a_node3"><a xlink:href="../../db/dda/classReadMySql.html#a3f6689c1c62d985e8747ab88c0a4e2d9" target="_top" xlink:title="ReadMySql::getInt">
<polygon fill="none" stroke="black" points="319.5,-418.5 319.5,-437.5 414.5,-437.5 414.5,-418.5 319.5,-418.5"/>
<text text-anchor="middle" x="367" y="-425.5" font-family="FreeSans" font-size="10.00">ReadMySql::getInt</text>
</a>
</g>
</g>
<!-- Node2&#45;&gt;Node3 -->
<g id="edge2" class="edge"><title>Node2&#45;&gt;Node3</title>
<path fill="none" stroke="midnightblue" d="M217.71,-494.321C235.818,-481.906 269.043,-460.384 300,-447 305.399,-444.666 311.168,-442.526 316.963,-440.592"/>
<polygon fill="midnightblue" stroke="midnightblue" points="318.194,-443.874 326.682,-437.534 316.092,-437.197 318.194,-443.874"/>
</g>
<!-- Node4 -->
<g id="node4" class="node"><title>Node4</title>
<g id="a_node4"><a xlink:href="../../d8/dfc/classSEvent.html#a859473b85466c0dc32a130aa0b276f16" target="_top" xlink:title="SEvent::set_coda_event_id">
<polygon fill="none" stroke="black" points="300,-608.5 300,-627.5 434,-627.5 434,-608.5 300,-608.5"/>
<text text-anchor="middle" x="367" y="-615.5" font-family="FreeSans" font-size="10.00">SEvent::set_coda_event_id</text>
</a>
</g>
</g>
<!-- Node2&#45;&gt;Node4 -->
<g id="edge3" class="edge"><title>Node2&#45;&gt;Node4</title>
<path fill="none" stroke="midnightblue" d="M211.036,-513.672C225.501,-532.86 260.555,-575.876 300,-599 303.703,-601.171 307.67,-603.107 311.753,-604.831"/>
<polygon fill="midnightblue" stroke="midnightblue" points="310.83,-608.224 321.422,-608.481 313.302,-601.675 310.83,-608.224"/>
</g>
<!-- Node5 -->
<g id="node5" class="node"><title>Node5</title>
<g id="a_node5"><a xlink:href="../../d8/dfc/classSEvent.html#a18e6c7143340e3a9cafb4ab740433596" target="_top" xlink:title="SEvent::set_event_id">
<polygon fill="none" stroke="black" points="313,-570.5 313,-589.5 421,-589.5 421,-570.5 313,-570.5"/>
<text text-anchor="middle" x="367" y="-577.5" font-family="FreeSans" font-size="10.00">SEvent::set_event_id</text>
</a>
</g>
</g>
<!-- Node2&#45;&gt;Node5 -->
<g id="edge4" class="edge"><title>Node2&#45;&gt;Node5</title>
<path fill="none" stroke="midnightblue" d="M217.71,-513.679C235.818,-526.094 269.043,-547.616 300,-561 305.399,-563.334 311.168,-565.474 316.963,-567.408"/>
<polygon fill="midnightblue" stroke="midnightblue" points="316.092,-570.803 326.682,-570.466 318.194,-564.126 316.092,-570.803"/>
</g>
<!-- Node6 -->
<g id="node6" class="node"><title>Node6</title>
<g id="a_node6"><a xlink:href="../../d8/dfc/classSEvent.html#a03fdcf3c51a7299d71a4e3153837b598" target="_top" xlink:title="SEvent::set_run_id">
<polygon fill="none" stroke="black" points="318,-532.5 318,-551.5 416,-551.5 416,-532.5 318,-532.5"/>
<text text-anchor="middle" x="367" y="-539.5" font-family="FreeSans" font-size="10.00">SEvent::set_run_id</text>
</a>
</g>
</g>
<!-- Node2&#45;&gt;Node6 -->
<g id="edge5" class="edge"><title>Node2&#45;&gt;Node6</title>
<path fill="none" stroke="midnightblue" d="M244.879,-513.589C266.353,-518.626 292.86,-524.844 315.597,-530.177"/>
<polygon fill="midnightblue" stroke="midnightblue" points="314.879,-533.604 325.415,-532.48 316.478,-526.789 314.879,-533.604"/>
</g>
<!-- Node7 -->
<g id="node7" class="node"><title>Node7</title>
<g id="a_node7"><a xlink:href="../../d8/dfc/classSEvent.html#a3f5eae100d673fe2c10827ff0411535e" target="_top" xlink:title="SEvent::set_spill_id">
<polygon fill="none" stroke="black" points="316.5,-494.5 316.5,-513.5 417.5,-513.5 417.5,-494.5 316.5,-494.5"/>
<text text-anchor="middle" x="367" y="-501.5" font-family="FreeSans" font-size="10.00">SEvent::set_spill_id</text>
</a>
</g>
</g>
<!-- Node2&#45;&gt;Node7 -->
<g id="edge6" class="edge"><title>Node2&#45;&gt;Node7</title>
<path fill="none" stroke="midnightblue" d="M260.66,-504C275.412,-504 291.353,-504 306.259,-504"/>
<polygon fill="midnightblue" stroke="midnightblue" points="306.387,-507.5 316.387,-504 306.387,-500.5 306.387,-507.5"/>
</g>
<!-- Node8 -->
<g id="node8" class="node"><title>Node8</title>
<g id="a_node8"><a xlink:href="../../d8/dfc/classSEvent.html#a9dc67e44363458e2ec44a596ebeca4c8" target="_top" xlink:title="SEvent::set_trigger">
<polygon fill="none" stroke="black" points="318,-456.5 318,-475.5 416,-475.5 416,-456.5 318,-456.5"/>
<text text-anchor="middle" x="367" y="-463.5" font-family="FreeSans" font-size="10.00">SEvent::set_trigger</text>
</a>
</g>
</g>
<!-- Node2&#45;&gt;Node8 -->
<g id="edge7" class="edge"><title>Node2&#45;&gt;Node8</title>
<path fill="none" stroke="midnightblue" d="M244.879,-494.411C266.353,-489.374 292.86,-483.156 315.597,-477.823"/>
<polygon fill="midnightblue" stroke="midnightblue" points="316.478,-481.211 325.415,-475.52 314.879,-474.396 316.478,-481.211"/>
</g>
<!-- Node9&#45;&gt;Node3 -->
<g id="edge10" class="edge"><title>Node9&#45;&gt;Node3</title>
<path fill="none" stroke="midnightblue" d="M206.636,-247.86C214.985,-277.155 243.682,-364.403 300,-409 303.118,-411.469 306.545,-413.618 310.146,-415.487"/>
<polygon fill="midnightblue" stroke="midnightblue" points="308.821,-418.728 319.382,-419.582 311.659,-412.329 308.821,-418.728"/>
</g>
<!-- Node10 -->
<g id="node10" class="node"><title>Node10</title>
<g id="a_node10"><a xlink:href="../../db/dda/classReadMySql.html#af8c4f71c0671dbc34370e363d92106ad" target="_top" xlink:title="ReadMySql::getFloat">
<polygon fill="none" stroke="black" points="314,-380.5 314,-399.5 420,-399.5 420,-380.5 314,-380.5"/>
<text text-anchor="middle" x="367" y="-387.5" font-family="FreeSans" font-size="10.00">ReadMySql::getFloat</text>
</a>
</g>
</g>
<!-- Node9&#45;&gt;Node10 -->
<g id="edge9" class="edge"><title>Node9&#45;&gt;Node10</title>
<path fill="none" stroke="midnightblue" d="M208.227,-247.734C219.414,-272.333 252.249,-337.417 300,-371 302.866,-373.016 305.945,-374.82 309.148,-376.433"/>
<polygon fill="midnightblue" stroke="midnightblue" points="307.872,-379.695 318.437,-380.494 310.676,-373.281 307.872,-379.695"/>
</g>
<!-- Node11 -->
<g id="node11" class="node"><title>Node11</title>
<g id="a_node11"><a xlink:href="../../d0/da1/classSHit.html#a673eb2a30c137f009f266d685dca9d57" target="_top" xlink:title="SHit::identify">
<polygon fill="none" stroke="black" points="331.5,-342.5 331.5,-361.5 402.5,-361.5 402.5,-342.5 331.5,-342.5"/>
<text text-anchor="middle" x="367" y="-349.5" font-family="FreeSans" font-size="10.00">SHit::identify</text>
</a>
</g>
</g>
<!-- Node9&#45;&gt;Node11 -->
<g id="edge11" class="edge"><title>Node9&#45;&gt;Node11</title>
<path fill="none" stroke="midnightblue" d="M211.036,-247.672C225.501,-266.86 260.555,-309.876 300,-333 306.652,-336.899 314.154,-340.041 321.653,-342.559"/>
<polygon fill="midnightblue" stroke="midnightblue" points="320.852,-345.973 331.437,-345.521 322.88,-339.274 320.852,-345.973"/>
</g>
<!-- Node12 -->
<g id="node12" class="node"><title>Node12</title>
<g id="a_node12"><a xlink:href="../../d9/d05/classSHitMap.html#aec623d275586feb46be85b25a3ac82ca" target="_top" xlink:title="SHitMap::insert">
<polygon fill="none" stroke="black" points="325.5,-304.5 325.5,-323.5 408.5,-323.5 408.5,-304.5 325.5,-304.5"/>
<text text-anchor="middle" x="367" y="-311.5" font-family="FreeSans" font-size="10.00">SHitMap::insert</text>
</a>
</g>
</g>
<!-- Node9&#45;&gt;Node12 -->
<g id="edge12" class="edge"><title>Node9&#45;&gt;Node12</title>
<path fill="none" stroke="midnightblue" d="M217.71,-247.679C235.818,-260.094 269.043,-281.616 300,-295 305.399,-297.334 311.168,-299.474 316.963,-301.408"/>
<polygon fill="midnightblue" stroke="midnightblue" points="316.092,-304.803 326.682,-304.466 318.194,-298.126 316.092,-304.803"/>
</g>
<!-- Node13 -->
<g id="node13" class="node"><title>Node13</title>
<g id="a_node13"><a xlink:href="../../d0/da1/classSHit.html#a9f8489049f75b565e815273d7c2a50ad" target="_top" xlink:title="SHit::set_detector_id">
<polygon fill="none" stroke="black" points="313.5,-266.5 313.5,-285.5 420.5,-285.5 420.5,-266.5 313.5,-266.5"/>
<text text-anchor="middle" x="367" y="-273.5" font-family="FreeSans" font-size="10.00">SHit::set_detector_id</text>
</a>
</g>
</g>
<!-- Node9&#45;&gt;Node13 -->
<g id="edge13" class="edge"><title>Node9&#45;&gt;Node13</title>
<path fill="none" stroke="midnightblue" d="M244.879,-247.589C266.353,-252.626 292.86,-258.844 315.597,-264.177"/>
<polygon fill="midnightblue" stroke="midnightblue" points="314.879,-267.604 325.415,-266.48 316.478,-260.789 314.879,-267.604"/>
</g>
<!-- Node14 -->
<g id="node14" class="node"><title>Node14</title>
<g id="a_node14"><a xlink:href="../../d0/da1/classSHit.html#aa7b0b4bd395c159a47fc913a510e1f6e" target="_top" xlink:title="SHit::set_drift_distance">
<polygon fill="none" stroke="black" points="308,-228.5 308,-247.5 426,-247.5 426,-228.5 308,-228.5"/>
<text text-anchor="middle" x="367" y="-235.5" font-family="FreeSans" font-size="10.00">SHit::set_drift_distance</text>
</a>
</g>
</g>
<!-- Node9&#45;&gt;Node14 -->
<g id="edge14" class="edge"><title>Node9&#45;&gt;Node14</title>
<path fill="none" stroke="midnightblue" d="M264.323,-238C275.205,-238 286.621,-238 297.711,-238"/>
<polygon fill="midnightblue" stroke="midnightblue" points="297.779,-241.5 307.779,-238 297.779,-234.5 297.779,-241.5"/>
</g>
<!-- Node15 -->
<g id="node15" class="node"><title>Node15</title>
<g id="a_node15"><a xlink:href="../../d0/da1/classSHit.html#a2fd5c4dd920665d1a74fc1f3cf21c32e" target="_top" xlink:title="SHit::set_element_id">
<polygon fill="none" stroke="black" points="313.5,-190.5 313.5,-209.5 420.5,-209.5 420.5,-190.5 313.5,-190.5"/>
<text text-anchor="middle" x="367" y="-197.5" font-family="FreeSans" font-size="10.00">SHit::set_element_id</text>
</a>
</g>
</g>
<!-- Node9&#45;&gt;Node15 -->
<g id="edge15" class="edge"><title>Node9&#45;&gt;Node15</title>
<path fill="none" stroke="midnightblue" d="M244.879,-228.411C266.353,-223.374 292.86,-217.156 315.597,-211.823"/>
<polygon fill="midnightblue" stroke="midnightblue" points="316.478,-215.211 325.415,-209.52 314.879,-208.396 316.478,-215.211"/>
</g>
<!-- Node16 -->
<g id="node16" class="node"><title>Node16</title>
<g id="a_node16"><a xlink:href="../../d0/da1/classSHit.html#a2d0e63ff24bb20629cd8b5aeba64aeb3" target="_top" xlink:title="SHit::set_hit_id">
<polygon fill="none" stroke="black" points="325.5,-152.5 325.5,-171.5 408.5,-171.5 408.5,-152.5 325.5,-152.5"/>
<text text-anchor="middle" x="367" y="-159.5" font-family="FreeSans" font-size="10.00">SHit::set_hit_id</text>
</a>
</g>
</g>
<!-- Node9&#45;&gt;Node16 -->
<g id="edge16" class="edge"><title>Node9&#45;&gt;Node16</title>
<path fill="none" stroke="midnightblue" d="M243.992,-228.463C250.94,-225.945 257.888,-222.828 264,-219 283.717,-206.651 280.122,-193.088 300,-181 304.96,-177.984 310.421,-175.427 316.012,-173.265"/>
<polygon fill="midnightblue" stroke="midnightblue" points="317.176,-176.566 325.481,-169.987 314.886,-169.952 317.176,-176.566"/>
</g>
<!-- Node17 -->
<g id="node17" class="node"><title>Node17</title>
<g id="a_node17"><a xlink:href="../../d0/da1/classSHit.html#abe2b09da3f63e85ab918429b6afc0462" target="_top" xlink:title="SHit::set_hodo_mask">
<polygon fill="none" stroke="black" points="312,-114.5 312,-133.5 422,-133.5 422,-114.5 312,-114.5"/>
<text text-anchor="middle" x="367" y="-121.5" font-family="FreeSans" font-size="10.00">SHit::set_hodo_mask</text>
</a>
</g>
</g>
<!-- Node9&#45;&gt;Node17 -->
<g id="edge17" class="edge"><title>Node9&#45;&gt;Node17</title>
<path fill="none" stroke="midnightblue" d="M248.814,-228.426C254.315,-225.968 259.555,-222.88 264,-219 292.16,-194.424 271.519,-167.202 300,-143 301.988,-141.311 304.117,-139.772 306.351,-138.369"/>
<polygon fill="midnightblue" stroke="midnightblue" points="308.176,-141.364 315.395,-133.609 304.916,-135.17 308.176,-141.364"/>
</g>
<!-- Node18 -->
<g id="node18" class="node"><title>Node18</title>
<g id="a_node18"><a xlink:href="../../d0/da1/classSHit.html#a0d1e39d6ad139c672d84db637e1fa4be" target="_top" xlink:title="SHit::set_in_time">
<polygon fill="none" stroke="black" points="321.5,-76.5 321.5,-95.5 412.5,-95.5 412.5,-76.5 321.5,-76.5"/>
<text text-anchor="middle" x="367" y="-83.5" font-family="FreeSans" font-size="10.00">SHit::set_in_time</text>
</a>
</g>
</g>
<!-- Node9&#45;&gt;Node18 -->
<g id="edge18" class="edge"><title>Node9&#45;&gt;Node18</title>
<path fill="none" stroke="midnightblue" d="M250.526,-228.399C255.496,-225.944 260.138,-222.865 264,-219 301.556,-181.414 261.952,-142.087 300,-105 303.498,-101.59 307.567,-98.7853 311.934,-96.4788"/>
<polygon fill="midnightblue" stroke="midnightblue" points="313.472,-99.6261 321.23,-92.4105 310.666,-93.2133 313.472,-99.6261"/>
</g>
<!-- Node19 -->
<g id="node19" class="node"><title>Node19</title>
<g id="a_node19"><a xlink:href="../../d0/da1/classSHit.html#ab149cf0f1b0786f419615012f174c76f" target="_top" xlink:title="SHit::set_pos">
<polygon fill="none" stroke="black" points="329.5,-38.5 329.5,-57.5 404.5,-57.5 404.5,-38.5 329.5,-38.5"/>
<text text-anchor="middle" x="367" y="-45.5" font-family="FreeSans" font-size="10.00">SHit::set_pos</text>
</a>
</g>
</g>
<!-- Node9&#45;&gt;Node19 -->
<g id="edge19" class="edge"><title>Node9&#45;&gt;Node19</title>
<path fill="none" stroke="midnightblue" d="M251.395,-228.365C256.092,-225.914 260.431,-222.843 264,-219 311.238,-168.124 252.095,-117.248 300,-67 305.438,-61.296 312.467,-57.2708 319.904,-54.4378"/>
<polygon fill="midnightblue" stroke="midnightblue" points="320.953,-57.7768 329.452,-51.4503 318.863,-51.0962 320.953,-57.7768"/>
</g>
<!-- Node20 -->
<g id="node20" class="node"><title>Node20</title>
<g id="a_node20"><a xlink:href="../../d0/da1/classSHit.html#aa88865f7b08fe09b00edf7c5fbdf0b91" target="_top" xlink:title="SHit::set_tdc_time">
<polygon fill="none" stroke="black" points="318.5,-0.5 318.5,-19.5 415.5,-19.5 415.5,-0.5 318.5,-0.5"/>
<text text-anchor="middle" x="367" y="-7.5" font-family="FreeSans" font-size="10.00">SHit::set_tdc_time</text>
</a>
</g>
</g>
<!-- Node9&#45;&gt;Node20 -->
<g id="edge20" class="edge"><title>Node9&#45;&gt;Node20</title>
<path fill="none" stroke="midnightblue" d="M251.861,-228.367C256.413,-225.913 260.592,-222.842 264,-219 321.039,-154.708 242.118,-92.5342 300,-29 302.723,-26.0114 305.882,-23.4812 309.314,-21.3403"/>
<polygon fill="midnightblue" stroke="midnightblue" points="310.976,-24.422 318.316,-16.7814 307.813,-18.1772 310.976,-24.422"/>
</g>
</g>
</svg>
