<?xml version="1.0" encoding="UTF-8" standalone="no"?>
<!DOCTYPE svg PUBLIC "-//W3C//DTD SVG 1.1//EN"
 "http://www.w3.org/Graphics/SVG/1.1/DTD/svg11.dtd">
<!-- Generated by graphviz version 2.36.0 (20140111.2315)
 -->
<!-- Title: fun4all/interfaces/SEvent.h Pages: 1 -->
<svg width="304pt" height="176pt"
 viewBox="0.00 0.00 304.00 176.00" xmlns="http://www.w3.org/2000/svg" xmlns:xlink="http://www.w3.org/1999/xlink">
<g id="graph0" class="graph" transform="scale(1 1) rotate(0) translate(4 172)">
<title>fun4all/interfaces/SEvent.h</title>
<!-- Node1 -->
<g id="node1" class="node"><title>Node1</title>
<polygon fill="#bfbfbf" stroke="black" points="53.5,-137 53.5,-167 144.5,-167 144.5,-137 53.5,-137"/>
<text text-anchor="start" x="61.5" y="-155" font-family="FreeSans" font-size="10.00">fun4all/interfaces</text>
<text text-anchor="middle" x="99" y="-144" font-family="FreeSans" font-size="10.00">/SEvent.h</text>
</g>
<!-- Node2 -->
<g id="node2" class="node"><title>Node2</title>
<g id="a_node2"><a xlink:href="../../d4/d9a/SEvent_8C.html" target="_top" xlink:title="fun4all/interfaces\l/SEvent.C">
<polygon fill="none" stroke="black" points="-0.5,-69 -0.5,-99 90.5,-99 90.5,-69 -0.5,-69"/>
<text text-anchor="start" x="7.5" y="-87" font-family="FreeSans" font-size="10.00">fun4all/interfaces</text>
<text text-anchor="middle" x="45" y="-76" font-family="FreeSans" font-size="10.00">/SEvent.C</text>
</a>
</g>
</g>
<!-- Node1&#45;&gt;Node2 -->
<g id="edge1" class="edge"><title>Node1&#45;&gt;Node2</title>
<path fill="none" stroke="midnightblue" d="M80.9193,-128.901C72.9296,-119.136 63.7661,-107.936 56.6943,-99.2931"/>
<polygon fill="midnightblue" stroke="midnightblue" points="78.2415,-131.156 87.2828,-136.679 83.6592,-126.723 78.2415,-131.156"/>
</g>
<!-- Node3 -->
<g id="node3" class="node"><title>Node3</title>
<g id="a_node3"><a xlink:href="../../de/d46/SEvent__v1_8h.html" target="_top" xlink:title="fun4all/interfaces\l/SEvent_v1.h">
<polygon fill="none" stroke="black" points="108.5,-69 108.5,-99 199.5,-99 199.5,-69 108.5,-69"/>
<text text-anchor="start" x="116.5" y="-87" font-family="FreeSans" font-size="10.00">fun4all/interfaces</text>
<text text-anchor="middle" x="154" y="-76" font-family="FreeSans" font-size="10.00">/SEvent_v1.h</text>
</a>
</g>
</g>
<!-- Node1&#45;&gt;Node3 -->
<g id="edge2" class="edge"><title>Node1&#45;&gt;Node3</title>
<path fill="none" stroke="midnightblue" d="M117.416,-128.901C125.553,-119.136 134.886,-107.936 142.089,-99.2931"/>
<polygon fill="midnightblue" stroke="midnightblue" points="114.647,-126.756 110.934,-136.679 120.025,-131.237 114.647,-126.756"/>
</g>
<!-- Node4 -->
<g id="node4" class="node"><title>Node4</title>
<g id="a_node4"><a xlink:href="../../d3/d47/SEvent__v1_8C.html" target="_top" xlink:title="fun4all/interfaces\l/SEvent_v1.C">
<polygon fill="none" stroke="black" points="40.5,-1 40.5,-31 131.5,-31 131.5,-1 40.5,-1"/>
<text text-anchor="start" x="48.5" y="-19" font-family="FreeSans" font-size="10.00">fun4all/interfaces</text>
<text text-anchor="middle" x="86" y="-8" font-family="FreeSans" font-size="10.00">/SEvent_v1.C</text>
</a>
</g>
</g>
<!-- Node3&#45;&gt;Node4 -->
<g id="edge3" class="edge"><title>Node3&#45;&gt;Node4</title>
<path fill="none" stroke="midnightblue" d="M131.834,-61.4855C121.633,-51.5852 109.809,-40.1092 100.726,-31.2931"/>
<polygon fill="midnightblue" stroke="midnightblue" points="129.632,-64.2257 139.245,-68.679 134.507,-59.2027 129.632,-64.2257"/>
</g>
<!-- Node5 -->
<g id="node5" class="node"><title>Node5</title>
<g id="a_node5"><a xlink:href="../../dd/d12/ReadMySql_8C.html" target="_top" xlink:title="fun4all/modules/ReadMySql.C">
<polygon fill="none" stroke="black" points="150,-6.5 150,-25.5 296,-25.5 296,-6.5 150,-6.5"/>
<text text-anchor="middle" x="223" y="-13.5" font-family="FreeSans" font-size="10.00">fun4all/modules/ReadMySql.C</text>
</a>
</g>
</g>
<!-- Node3&#45;&gt;Node5 -->
<g id="edge4" class="edge"><title>Node3&#45;&gt;Node5</title>
<path fill="none" stroke="midnightblue" d="M176.467,-61.5094C189.136,-49.3918 204.279,-34.9072 213.77,-25.8283"/>
<polygon fill="midnightblue" stroke="midnightblue" points="173.779,-59.2375 168.972,-68.679 178.618,-64.296 173.779,-59.2375"/>
</g>
</g>
</svg>
