<?xml version="1.0" encoding="UTF-8" standalone="no"?>
<!DOCTYPE svg PUBLIC "-//W3C//DTD SVG 1.1//EN"
 "http://www.w3.org/Graphics/SVG/1.1/DTD/svg11.dtd">
<!-- Generated by graphviz version 2.36.0 (20140111.2315)
 -->
<!-- Title: Fun4AllDummyInputManager::setSyncManager Pages: 1 -->
<svg width="452pt" height="164pt"
 viewBox="0.00 0.00 452.00 164.00" xmlns="http://www.w3.org/2000/svg" xmlns:xlink="http://www.w3.org/1999/xlink">
<g id="graph0" class="graph" transform="scale(1 1) rotate(0) translate(4 160)">
<title>Fun4AllDummyInputManager::setSyncManager</title>
<!-- Node1 -->
<g id="node1" class="node"><title>Node1</title>
<polygon fill="#bfbfbf" stroke="black" points="0,-63 0,-93 142,-93 142,-63 0,-63"/>
<text text-anchor="start" x="8" y="-81" font-family="FreeSans" font-size="10.00">Fun4AllDummyInputManager</text>
<text text-anchor="middle" x="71" y="-70" font-family="FreeSans" font-size="10.00">::setSyncManager</text>
</g>
<!-- Node2 -->
<g id="node2" class="node"><title>Node2</title>
<g id="a_node2"><a xlink:href="../../dd/ded/classFun4AllSyncManager.html#accab39002c98d83f875d96631b5d78bb" target="_top" xlink:title="Fun4AllSyncManager\l::CurrentRun">
<polygon fill="none" stroke="black" points="178.5,-126 178.5,-156 287.5,-156 287.5,-126 178.5,-126"/>
<text text-anchor="start" x="186.5" y="-144" font-family="FreeSans" font-size="10.00">Fun4AllSyncManager</text>
<text text-anchor="middle" x="233" y="-133" font-family="FreeSans" font-size="10.00">::CurrentRun</text>
</a>
</g>
</g>
<!-- Node1&#45;&gt;Node2 -->
<g id="edge1" class="edge"><title>Node1&#45;&gt;Node2</title>
<path fill="none" stroke="midnightblue" d="M110.324,-93.0901C132.507,-101.824 160.621,-112.894 184.235,-122.192"/>
<polygon fill="midnightblue" stroke="midnightblue" points="183.125,-125.517 193.712,-125.924 185.689,-119.004 183.125,-125.517"/>
</g>
<!-- Node3 -->
<g id="node3" class="node"><title>Node3</title>
<g id="a_node3"><a xlink:href="../../d1/da8/classPHFlag.html#a07899067141a5f12333cc37183caddc8" target="_top" xlink:title="PHFlag::get_IntFlag">
<polygon fill="none" stroke="black" points="181.5,-87.5 181.5,-106.5 284.5,-106.5 284.5,-87.5 181.5,-87.5"/>
<text text-anchor="middle" x="233" y="-94.5" font-family="FreeSans" font-size="10.00">PHFlag::get_IntFlag</text>
</a>
</g>
</g>
<!-- Node1&#45;&gt;Node3 -->
<g id="edge2" class="edge"><title>Node1&#45;&gt;Node3</title>
<path fill="none" stroke="midnightblue" d="M142.178,-86.3337C151.798,-87.476 161.609,-88.6411 171.045,-89.7616"/>
<polygon fill="midnightblue" stroke="midnightblue" points="170.767,-93.2531 181.11,-90.9569 171.593,-86.302 170.767,-93.2531"/>
</g>
<!-- Node4 -->
<g id="node4" class="node"><title>Node4</title>
<g id="a_node4"><a xlink:href="../../d8/d14/classrecoConsts.html#ae69a5c29a7199ba16d0e537158618802" target="_top" xlink:title="recoConsts::instance">
<polygon fill="none" stroke="black" points="179.5,-49.5 179.5,-68.5 286.5,-68.5 286.5,-49.5 179.5,-49.5"/>
<text text-anchor="middle" x="233" y="-56.5" font-family="FreeSans" font-size="10.00">recoConsts::instance</text>
</a>
</g>
</g>
<!-- Node1&#45;&gt;Node4 -->
<g id="edge3" class="edge"><title>Node1&#45;&gt;Node4</title>
<path fill="none" stroke="midnightblue" d="M142.178,-69.6663C151.11,-68.6057 160.208,-67.5253 169.017,-66.4793"/>
<polygon fill="midnightblue" stroke="midnightblue" points="169.68,-69.9251 179.198,-65.2703 168.855,-62.974 169.68,-69.9251"/>
</g>
<!-- Node6 -->
<g id="node6" class="node"><title>Node6</title>
<g id="a_node6"><a xlink:href="../../d4/da9/classFun4AllInputManager.html#a5b0cdb689482c4143b7b22ca8a780c51" target="_top" xlink:title="Fun4AllInputManager\l::setSyncManager">
<polygon fill="none" stroke="black" points="178.5,-0 178.5,-30 287.5,-30 287.5,-0 178.5,-0"/>
<text text-anchor="start" x="186.5" y="-18" font-family="FreeSans" font-size="10.00">Fun4AllInputManager</text>
<text text-anchor="middle" x="233" y="-7" font-family="FreeSans" font-size="10.00">::setSyncManager</text>
</a>
</g>
</g>
<!-- Node1&#45;&gt;Node6 -->
<g id="edge5" class="edge"><title>Node1&#45;&gt;Node6</title>
<path fill="none" stroke="midnightblue" d="M110.324,-62.9099C132.507,-54.1755 160.621,-43.1057 184.235,-33.8076"/>
<polygon fill="midnightblue" stroke="midnightblue" points="185.689,-36.9964 193.712,-30.076 183.125,-30.4831 185.689,-36.9964"/>
</g>
<!-- Node5 -->
<g id="node5" class="node"><title>Node5</title>
<g id="a_node5"><a xlink:href="../../d8/d14/classrecoConsts.html#ae882d6adc62f783ec78114fe3dee3c24" target="_top" xlink:title="recoConsts::recoConsts">
<polygon fill="none" stroke="black" points="324,-49.5 324,-68.5 444,-68.5 444,-49.5 324,-49.5"/>
<text text-anchor="middle" x="384" y="-56.5" font-family="FreeSans" font-size="10.00">recoConsts::recoConsts</text>
</a>
</g>
</g>
<!-- Node4&#45;&gt;Node5 -->
<g id="edge4" class="edge"><title>Node4&#45;&gt;Node5</title>
<path fill="none" stroke="midnightblue" d="M286.532,-59C295.298,-59 304.51,-59 313.619,-59"/>
<polygon fill="midnightblue" stroke="midnightblue" points="313.83,-62.5001 323.83,-59 313.83,-55.5001 313.83,-62.5001"/>
</g>
</g>
</svg>
