<?xml version="1.0" encoding="UTF-8" standalone="no"?>
<!DOCTYPE svg PUBLIC "-//W3C//DTD SVG 1.1//EN"
 "http://www.w3.org/Graphics/SVG/1.1/DTD/svg11.dtd">
<!-- Generated by graphviz version 2.36.0 (20140111.2315)
 -->
<!-- Title: fun4all/fun4all/Fun4AllNoSyncDstInputManager.h Pages: 1 -->
<svg width="388pt" height="264pt"
 viewBox="0.00 0.00 387.71 264.00" xmlns="http://www.w3.org/2000/svg" xmlns:xlink="http://www.w3.org/1999/xlink">
<g id="graph0" class="graph" transform="scale(1 1) rotate(0) translate(4 260)">
<title>fun4all/fun4all/Fun4AllNoSyncDstInputManager.h</title>
<!-- Node1 -->
<g id="node1" class="node"><title>Node1</title>
<polygon fill="#bfbfbf" stroke="black" points="120.213,-225 120.213,-255 245.213,-255 245.213,-225 120.213,-225"/>
<text text-anchor="start" x="128.213" y="-243" font-family="FreeSans" font-size="10.00">fun4all/fun4all/Fun4AllNo</text>
<text text-anchor="middle" x="182.713" y="-232" font-family="FreeSans" font-size="10.00">SyncDstInputManager.h</text>
</g>
<!-- Node2 -->
<g id="node2" class="node"><title>Node2</title>
<g id="a_node2"><a xlink:href="../../dd/de7/Fun4AllDstInputManager_8h.html" target="_top" xlink:title="Fun4AllDstInputManager.h">
<polygon fill="none" stroke="black" points="27.2132,-168.5 27.2132,-187.5 158.213,-187.5 158.213,-168.5 27.2132,-168.5"/>
<text text-anchor="middle" x="92.7132" y="-175.5" font-family="FreeSans" font-size="10.00">Fun4AllDstInputManager.h</text>
</a>
</g>
</g>
<!-- Node1&#45;&gt;Node2 -->
<g id="edge1" class="edge"><title>Node1&#45;&gt;Node2</title>
<path fill="none" stroke="midnightblue" d="M161.384,-224.781C147.142,-215.286 128.478,-202.843 114.203,-193.327"/>
<polygon fill="midnightblue" stroke="midnightblue" points="115.809,-190.191 105.547,-187.556 111.926,-196.015 115.809,-190.191"/>
</g>
<!-- Node7 -->
<g id="node7" class="node"><title>Node7</title>
<g id="a_node7"><a xlink:href="../../da/dc1/Fun4AllReturnCodes_8h.html" target="_top" xlink:title="Fun4AllReturnCodes.h">
<polygon fill="none" stroke="black" points="266.213,-56.5 266.213,-75.5 379.213,-75.5 379.213,-56.5 266.213,-56.5"/>
<text text-anchor="middle" x="322.713" y="-63.5" font-family="FreeSans" font-size="10.00">Fun4AllReturnCodes.h</text>
</a>
</g>
</g>
<!-- Node1&#45;&gt;Node7 -->
<g id="edge12" class="edge"><title>Node1&#45;&gt;Node7</title>
<path fill="none" stroke="midnightblue" d="M194.17,-224.925C219.828,-193.402 281.8,-117.265 309.246,-83.5458"/>
<polygon fill="midnightblue" stroke="midnightblue" points="312.127,-85.5498 315.726,-75.5847 306.698,-81.1309 312.127,-85.5498"/>
</g>
<!-- Node3 -->
<g id="node3" class="node"><title>Node3</title>
<g id="a_node3"><a xlink:href="../../d1/de7/Fun4AllInputManager_8h.html" target="_top" xlink:title="Fun4AllInputManager.h">
<polygon fill="none" stroke="black" points="81.7132,-112.5 81.7132,-131.5 197.713,-131.5 197.713,-112.5 81.7132,-112.5"/>
<text text-anchor="middle" x="139.713" y="-119.5" font-family="FreeSans" font-size="10.00">Fun4AllInputManager.h</text>
</a>
</g>
</g>
<!-- Node2&#45;&gt;Node3 -->
<g id="edge2" class="edge"><title>Node2&#45;&gt;Node3</title>
<path fill="none" stroke="midnightblue" d="M100.474,-168.083C107.25,-160.298 117.256,-148.801 125.468,-139.367"/>
<polygon fill="midnightblue" stroke="midnightblue" points="128.171,-141.592 132.097,-131.751 122.891,-136.996 128.171,-141.592"/>
</g>
<!-- Node5 -->
<g id="node5" class="node"><title>Node5</title>
<polygon fill="none" stroke="#bfbfbf" points="119.213,-0.5 119.213,-19.5 160.213,-19.5 160.213,-0.5 119.213,-0.5"/>
<text text-anchor="middle" x="139.713" y="-7.5" font-family="FreeSans" font-size="10.00">string</text>
</g>
<!-- Node2&#45;&gt;Node5 -->
<g id="edge10" class="edge"><title>Node2&#45;&gt;Node5</title>
<path fill="none" stroke="midnightblue" d="M67.5868,-168.388C50.9093,-161.305 30.0689,-149.546 18.7132,-132 0.283114,-103.523 -7.89548,-83.6788 11.7132,-56 33.6384,-25.0513 78.6199,-15.232 108.981,-12.2061"/>
<polygon fill="midnightblue" stroke="midnightblue" points="109.361,-15.6868 119.048,-11.3956 108.8,-8.70941 109.361,-15.6868"/>
</g>
<!-- Node10 -->
<g id="node10" class="node"><title>Node10</title>
<polygon fill="none" stroke="#bfbfbf" points="28.2132,-112.5 28.2132,-131.5 63.2132,-131.5 63.2132,-112.5 28.2132,-112.5"/>
<text text-anchor="middle" x="45.7132" y="-119.5" font-family="FreeSans" font-size="10.00">map</text>
</g>
<!-- Node2&#45;&gt;Node10 -->
<g id="edge11" class="edge"><title>Node2&#45;&gt;Node10</title>
<path fill="none" stroke="midnightblue" d="M84.9521,-168.083C78.1764,-160.298 68.17,-148.801 59.9581,-139.367"/>
<polygon fill="midnightblue" stroke="midnightblue" points="62.5352,-136.996 53.3299,-131.751 57.2551,-141.592 62.5352,-136.996"/>
</g>
<!-- Node4 -->
<g id="node4" class="node"><title>Node4</title>
<g id="a_node4"><a xlink:href="../../d2/de7/Fun4AllBase_8h.html" target="_top" xlink:title="Fun4AllBase.h">
<polygon fill="none" stroke="black" points="167.713,-56.5 167.713,-75.5 247.713,-75.5 247.713,-56.5 167.713,-56.5"/>
<text text-anchor="middle" x="207.713" y="-63.5" font-family="FreeSans" font-size="10.00">Fun4AllBase.h</text>
</a>
</g>
</g>
<!-- Node3&#45;&gt;Node4 -->
<g id="edge3" class="edge"><title>Node3&#45;&gt;Node4</title>
<path fill="none" stroke="midnightblue" d="M150.639,-112.324C160.888,-104.185 176.434,-91.8395 188.714,-82.0874"/>
<polygon fill="midnightblue" stroke="midnightblue" points="190.934,-84.7937 196.589,-75.8339 186.581,-79.3119 190.934,-84.7937"/>
</g>
<!-- Node3&#45;&gt;Node5 -->
<g id="edge8" class="edge"><title>Node3&#45;&gt;Node5</title>
<path fill="none" stroke="midnightblue" d="M139.713,-112.368C139.713,-94.617 139.713,-53.6664 139.713,-29.5974"/>
<polygon fill="midnightblue" stroke="midnightblue" points="143.213,-29.5914 139.713,-19.5914 136.213,-29.5915 143.213,-29.5914"/>
</g>
<!-- Node3&#45;&gt;Node7 -->
<g id="edge6" class="edge"><title>Node3&#45;&gt;Node7</title>
<path fill="none" stroke="midnightblue" d="M168.71,-112.444C199.898,-103.241 249.643,-88.5617 284.121,-78.3879"/>
<polygon fill="midnightblue" stroke="midnightblue" points="285.251,-81.7036 293.852,-75.5164 283.27,-74.9898 285.251,-81.7036"/>
</g>
<!-- Node8 -->
<g id="node8" class="node"><title>Node8</title>
<polygon fill="none" stroke="#bfbfbf" points="21.2132,-56.5 21.2132,-75.5 50.2132,-75.5 50.2132,-56.5 21.2132,-56.5"/>
<text text-anchor="middle" x="35.7132" y="-63.5" font-family="FreeSans" font-size="10.00">list</text>
</g>
<!-- Node3&#45;&gt;Node8 -->
<g id="edge7" class="edge"><title>Node3&#45;&gt;Node8</title>
<path fill="none" stroke="midnightblue" d="M123.004,-112.324C105.812,-103.397 78.8754,-89.4112 59.4709,-79.3358"/>
<polygon fill="midnightblue" stroke="midnightblue" points="60.8519,-76.1092 50.3641,-74.6072 57.6262,-82.3216 60.8519,-76.1092"/>
</g>
<!-- Node9 -->
<g id="node9" class="node"><title>Node9</title>
<polygon fill="none" stroke="#bfbfbf" points="67.7132,-56.5 67.7132,-75.5 111.713,-75.5 111.713,-56.5 67.7132,-56.5"/>
<text text-anchor="middle" x="89.7132" y="-63.5" font-family="FreeSans" font-size="10.00">vector</text>
</g>
<!-- Node3&#45;&gt;Node9 -->
<g id="edge9" class="edge"><title>Node3&#45;&gt;Node9</title>
<path fill="none" stroke="midnightblue" d="M131.457,-112.083C124.249,-104.298 113.603,-92.8015 104.867,-83.3665"/>
<polygon fill="midnightblue" stroke="midnightblue" points="107.178,-80.7108 97.816,-75.7511 102.042,-85.4666 107.178,-80.7108"/>
</g>
<!-- Node4&#45;&gt;Node5 -->
<g id="edge4" class="edge"><title>Node4&#45;&gt;Node5</title>
<path fill="none" stroke="midnightblue" d="M196.788,-56.324C186.539,-48.1849 170.993,-35.8395 158.712,-26.0874"/>
<polygon fill="midnightblue" stroke="midnightblue" points="160.845,-23.3119 150.837,-19.8339 156.492,-28.7937 160.845,-23.3119"/>
</g>
<!-- Node6 -->
<g id="node6" class="node"><title>Node6</title>
<polygon fill="none" stroke="#bfbfbf" points="185.213,-0.5 185.213,-19.5 230.213,-19.5 230.213,-0.5 185.213,-0.5"/>
<text text-anchor="middle" x="207.713" y="-7.5" font-family="FreeSans" font-size="10.00">climits</text>
</g>
<!-- Node4&#45;&gt;Node6 -->
<g id="edge5" class="edge"><title>Node4&#45;&gt;Node6</title>
<path fill="none" stroke="midnightblue" d="M207.713,-56.083C207.713,-49.0059 207.713,-38.8611 207.713,-29.9865"/>
<polygon fill="midnightblue" stroke="midnightblue" points="211.213,-29.751 207.713,-19.7511 204.213,-29.7511 211.213,-29.751"/>
</g>
</g>
</svg>
