<?xml version="1.0" encoding="UTF-8" standalone="no"?>
<!DOCTYPE svg PUBLIC "-//W3C//DTD SVG 1.1//EN"
 "http://www.w3.org/Graphics/SVG/1.1/DTD/svg11.dtd">
<!-- Generated by graphviz version 2.36.0 (20140111.2315)
 -->
<!-- Title: fun4all/ffaobjects/FlagSavev1.h Pages: 1 -->
<svg width="343pt" height="208pt"
 viewBox="0.00 0.00 343.00 208.00" xmlns="http://www.w3.org/2000/svg" xmlns:xlink="http://www.w3.org/1999/xlink">
<g id="graph0" class="graph" transform="scale(1 1) rotate(0) translate(4 204)">
<title>fun4all/ffaobjects/FlagSavev1.h</title>
<!-- Node1 -->
<g id="node1" class="node"><title>Node1</title>
<polygon fill="#bfbfbf" stroke="black" points="191,-169 191,-199 281,-199 281,-169 191,-169"/>
<text text-anchor="start" x="199" y="-187" font-family="FreeSans" font-size="10.00">fun4all/ffaobjects</text>
<text text-anchor="middle" x="236" y="-176" font-family="FreeSans" font-size="10.00">/FlagSavev1.h</text>
</g>
<!-- Node2 -->
<g id="node2" class="node"><title>Node2</title>
<g id="a_node2"><a xlink:href="../../da/dd0/FlagSave_8h.html" target="_top" xlink:title="FlagSave.h">
<polygon fill="none" stroke="black" points="115.5,-112.5 115.5,-131.5 180.5,-131.5 180.5,-112.5 115.5,-112.5"/>
<text text-anchor="middle" x="148" y="-119.5" font-family="FreeSans" font-size="10.00">FlagSave.h</text>
</a>
</g>
</g>
<!-- Node1&#45;&gt;Node2 -->
<g id="edge1" class="edge"><title>Node1&#45;&gt;Node2</title>
<path fill="none" stroke="midnightblue" d="M215.145,-168.781C201.22,-159.286 182.97,-146.843 169.012,-137.327"/>
<polygon fill="midnightblue" stroke="midnightblue" points="170.782,-134.297 160.548,-131.556 166.839,-140.081 170.782,-134.297"/>
</g>
<!-- Node5 -->
<g id="node5" class="node"><title>Node5</title>
<polygon fill="none" stroke="#bfbfbf" points="121,-0.5 121,-19.5 175,-19.5 175,-0.5 121,-0.5"/>
<text text-anchor="middle" x="148" y="-7.5" font-family="FreeSans" font-size="10.00">iostream</text>
</g>
<!-- Node1&#45;&gt;Node5 -->
<g id="edge7" class="edge"><title>Node1&#45;&gt;Node5</title>
<path fill="none" stroke="midnightblue" d="M233.576,-168.718C228.93,-144.169 217.113,-93.0395 194,-56 187.027,-44.8248 176.719,-34.3979 167.627,-26.4005"/>
<polygon fill="midnightblue" stroke="midnightblue" points="169.66,-23.5369 159.751,-19.7873 165.159,-28.8979 169.66,-23.5369"/>
</g>
<!-- Node7 -->
<g id="node7" class="node"><title>Node7</title>
<polygon fill="none" stroke="#bfbfbf" points="241.5,-112.5 241.5,-131.5 276.5,-131.5 276.5,-112.5 241.5,-112.5"/>
<text text-anchor="middle" x="259" y="-119.5" font-family="FreeSans" font-size="10.00">map</text>
</g>
<!-- Node1&#45;&gt;Node7 -->
<g id="edge8" class="edge"><title>Node1&#45;&gt;Node7</title>
<path fill="none" stroke="midnightblue" d="M241.451,-168.781C244.621,-160.512 248.648,-150.006 252.044,-141.145"/>
<polygon fill="midnightblue" stroke="midnightblue" points="255.342,-142.321 255.653,-131.731 248.806,-139.815 255.342,-142.321"/>
</g>
<!-- Node8 -->
<g id="node8" class="node"><title>Node8</title>
<polygon fill="none" stroke="#bfbfbf" points="294.5,-112.5 294.5,-131.5 335.5,-131.5 335.5,-112.5 294.5,-112.5"/>
<text text-anchor="middle" x="315" y="-119.5" font-family="FreeSans" font-size="10.00">string</text>
</g>
<!-- Node1&#45;&gt;Node8 -->
<g id="edge9" class="edge"><title>Node1&#45;&gt;Node8</title>
<path fill="none" stroke="midnightblue" d="M254.722,-168.781C266.912,-159.523 282.792,-147.462 295.193,-138.044"/>
<polygon fill="midnightblue" stroke="midnightblue" points="297.658,-140.566 303.505,-131.731 293.424,-134.992 297.658,-140.566"/>
</g>
<!-- Node3 -->
<g id="node3" class="node"><title>Node3</title>
<g id="a_node3"><a xlink:href="../../df/d32/PHObject_8h.html" target="_top" xlink:title="phool/PHObject.h">
<polygon fill="none" stroke="black" points="-0.5,-56.5 -0.5,-75.5 92.5,-75.5 92.5,-56.5 -0.5,-56.5"/>
<text text-anchor="middle" x="46" y="-63.5" font-family="FreeSans" font-size="10.00">phool/PHObject.h</text>
</a>
</g>
</g>
<!-- Node2&#45;&gt;Node3 -->
<g id="edge2" class="edge"><title>Node2&#45;&gt;Node3</title>
<path fill="none" stroke="midnightblue" d="M131.612,-112.324C115.329,-103.703 90.1325,-90.3643 71.2837,-80.3855"/>
<polygon fill="midnightblue" stroke="midnightblue" points="72.8229,-77.2402 62.3474,-75.6545 69.5477,-83.4267 72.8229,-77.2402"/>
</g>
<!-- Node6 -->
<g id="node6" class="node"><title>Node6</title>
<g id="a_node6"><a xlink:href="../../d5/d6f/phool_8h.html" target="_top" xlink:title="phool/phool.h">
<polygon fill="none" stroke="black" points="111,-56.5 111,-75.5 185,-75.5 185,-56.5 111,-56.5"/>
<text text-anchor="middle" x="148" y="-63.5" font-family="FreeSans" font-size="10.00">phool/phool.h</text>
</a>
</g>
</g>
<!-- Node2&#45;&gt;Node6 -->
<g id="edge5" class="edge"><title>Node2&#45;&gt;Node6</title>
<path fill="none" stroke="midnightblue" d="M148,-112.083C148,-105.006 148,-94.8611 148,-85.9865"/>
<polygon fill="midnightblue" stroke="midnightblue" points="151.5,-85.751 148,-75.7511 144.5,-85.7511 151.5,-85.751"/>
</g>
<!-- Node4 -->
<g id="node4" class="node"><title>Node4</title>
<polygon fill="none" stroke="#bfbfbf" points="16.5,-0.5 16.5,-19.5 75.5,-19.5 75.5,-0.5 16.5,-0.5"/>
<text text-anchor="middle" x="46" y="-7.5" font-family="FreeSans" font-size="10.00">TObject.h</text>
</g>
<!-- Node3&#45;&gt;Node4 -->
<g id="edge3" class="edge"><title>Node3&#45;&gt;Node4</title>
<path fill="none" stroke="midnightblue" d="M46,-56.083C46,-49.0059 46,-38.8611 46,-29.9865"/>
<polygon fill="midnightblue" stroke="midnightblue" points="49.5001,-29.751 46,-19.7511 42.5001,-29.7511 49.5001,-29.751"/>
</g>
<!-- Node3&#45;&gt;Node5 -->
<g id="edge4" class="edge"><title>Node3&#45;&gt;Node5</title>
<path fill="none" stroke="midnightblue" d="M62.3881,-56.324C78.6713,-47.7034 103.867,-34.3643 122.716,-24.3855"/>
<polygon fill="midnightblue" stroke="midnightblue" points="124.452,-27.4267 131.653,-19.6545 121.177,-21.2402 124.452,-27.4267"/>
</g>
<!-- Node6&#45;&gt;Node5 -->
<g id="edge6" class="edge"><title>Node6&#45;&gt;Node5</title>
<path fill="none" stroke="midnightblue" d="M148,-56.083C148,-49.0059 148,-38.8611 148,-29.9865"/>
<polygon fill="midnightblue" stroke="midnightblue" points="151.5,-29.751 148,-19.7511 144.5,-29.7511 151.5,-29.751"/>
</g>
</g>
</svg>
