<?xml version="1.0" encoding="UTF-8" standalone="no"?>
<!DOCTYPE svg PUBLIC "-//W3C//DTD SVG 1.1//EN"
 "http://www.w3.org/Graphics/SVG/1.1/DTD/svg11.dtd">
<!-- Generated by graphviz version 2.36.0 (20140111.2315)
 -->
<!-- Title: fun4all/phool/PHNodeIOManager.h Pages: 1 -->
<svg width="205pt" height="196pt"
 viewBox="0.00 0.00 205.00 196.00" xmlns="http://www.w3.org/2000/svg" xmlns:xlink="http://www.w3.org/1999/xlink">
<g id="graph0" class="graph" transform="scale(1 1) rotate(0) translate(4 192)">
<title>fun4all/phool/PHNodeIOManager.h</title>
<!-- Node1 -->
<g id="node1" class="node"><title>Node1</title>
<polygon fill="#bfbfbf" stroke="black" points="30.5,-168.5 30.5,-187.5 197.5,-187.5 197.5,-168.5 30.5,-168.5"/>
<text text-anchor="middle" x="114" y="-175.5" font-family="FreeSans" font-size="10.00">fun4all/phool/PHNodeIOManager.h</text>
</g>
<!-- Node2 -->
<g id="node2" class="node"><title>Node2</title>
<g id="a_node2"><a xlink:href="../../d9/d53/PHIOManager_8h.html" target="_top" xlink:title="PHIOManager.h">
<polygon fill="none" stroke="black" points="0,-112.5 0,-131.5 86,-131.5 86,-112.5 0,-112.5"/>
<text text-anchor="middle" x="43" y="-119.5" font-family="FreeSans" font-size="10.00">PHIOManager.h</text>
</a>
</g>
</g>
<!-- Node1&#45;&gt;Node2 -->
<g id="edge1" class="edge"><title>Node1&#45;&gt;Node2</title>
<path fill="none" stroke="midnightblue" d="M102.593,-168.324C91.8912,-160.185 75.6593,-147.839 62.8372,-138.087"/>
<polygon fill="midnightblue" stroke="midnightblue" points="64.6932,-135.102 54.6149,-131.834 60.4556,-140.673 64.6932,-135.102"/>
</g>
<!-- Node5 -->
<g id="node5" class="node"><title>Node5</title>
<polygon fill="none" stroke="#bfbfbf" points="88.5,-56.5 88.5,-75.5 129.5,-75.5 129.5,-56.5 88.5,-56.5"/>
<text text-anchor="middle" x="109" y="-63.5" font-family="FreeSans" font-size="10.00">string</text>
</g>
<!-- Node1&#45;&gt;Node5 -->
<g id="edge5" class="edge"><title>Node1&#45;&gt;Node5</title>
<path fill="none" stroke="midnightblue" d="M113.608,-168.368C112.801,-150.617 110.939,-109.666 109.845,-85.5974"/>
<polygon fill="midnightblue" stroke="midnightblue" points="113.341,-85.4221 109.391,-75.5914 106.348,-85.7401 113.341,-85.4221"/>
</g>
<!-- Node6 -->
<g id="node6" class="node"><title>Node6</title>
<polygon fill="none" stroke="#bfbfbf" points="142.5,-112.5 142.5,-131.5 177.5,-131.5 177.5,-112.5 142.5,-112.5"/>
<text text-anchor="middle" x="160" y="-119.5" font-family="FreeSans" font-size="10.00">map</text>
</g>
<!-- Node1&#45;&gt;Node6 -->
<g id="edge6" class="edge"><title>Node1&#45;&gt;Node6</title>
<path fill="none" stroke="midnightblue" d="M121.596,-168.083C128.227,-160.298 138.021,-148.801 146.058,-139.367"/>
<polygon fill="midnightblue" stroke="midnightblue" points="148.725,-141.633 152.545,-131.751 143.396,-137.094 148.725,-141.633"/>
</g>
<!-- Node3 -->
<g id="node3" class="node"><title>Node3</title>
<g id="a_node3"><a xlink:href="../../d5/d6f/phool_8h.html" target="_top" xlink:title="phool.h">
<polygon fill="none" stroke="black" points="19.5,-56.5 19.5,-75.5 66.5,-75.5 66.5,-56.5 19.5,-56.5"/>
<text text-anchor="middle" x="43" y="-63.5" font-family="FreeSans" font-size="10.00">phool.h</text>
</a>
</g>
</g>
<!-- Node2&#45;&gt;Node3 -->
<g id="edge2" class="edge"><title>Node2&#45;&gt;Node3</title>
<path fill="none" stroke="midnightblue" d="M43,-112.083C43,-105.006 43,-94.8611 43,-85.9865"/>
<polygon fill="midnightblue" stroke="midnightblue" points="46.5001,-85.751 43,-75.7511 39.5001,-85.7511 46.5001,-85.751"/>
</g>
<!-- Node2&#45;&gt;Node5 -->
<g id="edge4" class="edge"><title>Node2&#45;&gt;Node5</title>
<path fill="none" stroke="midnightblue" d="M53.604,-112.324C63.4562,-104.263 78.3509,-92.0765 90.2151,-82.3695"/>
<polygon fill="midnightblue" stroke="midnightblue" points="92.6798,-84.8752 98.203,-75.8339 88.2471,-79.4575 92.6798,-84.8752"/>
</g>
<!-- Node4 -->
<g id="node4" class="node"><title>Node4</title>
<polygon fill="none" stroke="#bfbfbf" points="16,-0.5 16,-19.5 70,-19.5 70,-0.5 16,-0.5"/>
<text text-anchor="middle" x="43" y="-7.5" font-family="FreeSans" font-size="10.00">iostream</text>
</g>
<!-- Node3&#45;&gt;Node4 -->
<g id="edge3" class="edge"><title>Node3&#45;&gt;Node4</title>
<path fill="none" stroke="midnightblue" d="M43,-56.083C43,-49.0059 43,-38.8611 43,-29.9865"/>
<polygon fill="midnightblue" stroke="midnightblue" points="46.5001,-29.751 43,-19.7511 39.5001,-29.7511 46.5001,-29.751"/>
</g>
</g>
</svg>
