<?xml version="1.0" encoding="UTF-8" standalone="no"?>
<!DOCTYPE svg PUBLIC "-//W3C//DTD SVG 1.1//EN"
 "http://www.w3.org/Graphics/SVG/1.1/DTD/svg11.dtd">
<!-- Generated by graphviz version 2.36.0 (20140111.2315)
 -->
<!-- Title: Fun4AllSyncManager::ResetEvent Pages: 1 -->
<svg width="586pt" height="96pt"
 viewBox="0.00 0.00 586.00 96.00" xmlns="http://www.w3.org/2000/svg" xmlns:xlink="http://www.w3.org/1999/xlink">
<g id="graph0" class="graph" transform="scale(1 1) rotate(0) translate(4 92)">
<title>Fun4AllSyncManager::ResetEvent</title>
<!-- Node1 -->
<g id="node1" class="node"><title>Node1</title>
<polygon fill="#bfbfbf" stroke="black" points="0.5,-36 0.5,-66 109.5,-66 109.5,-36 0.5,-36"/>
<text text-anchor="start" x="8.5" y="-54" font-family="FreeSans" font-size="10.00">Fun4AllSyncManager</text>
<text text-anchor="middle" x="55" y="-43" font-family="FreeSans" font-size="10.00">::ResetEvent</text>
</g>
<!-- Node2 -->
<g id="node2" class="node"><title>Node2</title>
<g id="a_node2"><a xlink:href="../../da/d29/classFun4AllServer.html#a6a65a944dfb40966ace97d35ab1f7942" target="_top" xlink:title="Fun4AllServer::process\l_event">
<polygon fill="none" stroke="black" points="146.5,-36 146.5,-66 263.5,-66 263.5,-36 146.5,-36"/>
<text text-anchor="start" x="154.5" y="-54" font-family="FreeSans" font-size="10.00">Fun4AllServer::process</text>
<text text-anchor="middle" x="205" y="-43" font-family="FreeSans" font-size="10.00">_event</text>
</a>
</g>
</g>
<!-- Node1&#45;&gt;Node2 -->
<g id="edge1" class="edge"><title>Node1&#45;&gt;Node2</title>
<path fill="none" stroke="midnightblue" d="M120.04,-51C128.821,-51 137.793,-51 146.448,-51"/>
<polygon fill="midnightblue" stroke="midnightblue" points="119.85,-47.5001 109.85,-51 119.85,-54.5001 119.85,-47.5001"/>
</g>
<!-- Node3 -->
<g id="node3" class="node"><title>Node3</title>
<g id="a_node3"><a xlink:href="../../da/d29/classFun4AllServer.html#a94738b092fa009fcea45737d8ea41224" target="_top" xlink:title="Fun4AllServer::process\l_event">
<polygon fill="none" stroke="black" points="300.5,-58 300.5,-88 417.5,-88 417.5,-58 300.5,-58"/>
<text text-anchor="start" x="308.5" y="-76" font-family="FreeSans" font-size="10.00">Fun4AllServer::process</text>
<text text-anchor="middle" x="359" y="-65" font-family="FreeSans" font-size="10.00">_event</text>
</a>
</g>
</g>
<!-- Node2&#45;&gt;Node3 -->
<g id="edge2" class="edge"><title>Node2&#45;&gt;Node3</title>
<path fill="none" stroke="midnightblue" d="M274.072,-60.8525C282.817,-62.1183 291.704,-63.4045 300.263,-64.6433"/>
<polygon fill="midnightblue" stroke="midnightblue" points="274.297,-57.3486 263.898,-59.38 273.294,-64.2764 274.297,-57.3486"/>
</g>
<!-- Node4 -->
<g id="node4" class="node"><title>Node4</title>
<g id="a_node4"><a xlink:href="../../da/d29/classFun4AllServer.html#a11bbc8b2f53bc06e0b05ee202dd6372a" target="_top" xlink:title="run n events (0 means up to end of file) ">
<polygon fill="none" stroke="black" points="311,-19.5 311,-38.5 407,-38.5 407,-19.5 311,-19.5"/>
<text text-anchor="middle" x="359" y="-26.5" font-family="FreeSans" font-size="10.00">Fun4AllServer::run</text>
</a>
</g>
</g>
<!-- Node2&#45;&gt;Node4 -->
<g id="edge3" class="edge"><title>Node2&#45;&gt;Node4</title>
<path fill="none" stroke="midnightblue" d="M274.152,-41.1359C286.471,-39.3529 299.067,-37.5297 310.629,-35.8563"/>
<polygon fill="midnightblue" stroke="midnightblue" points="273.294,-37.7236 263.898,-42.62 274.297,-44.6514 273.294,-37.7236"/>
</g>
<!-- Node5 -->
<g id="node5" class="node"><title>Node5</title>
<g id="a_node5"><a xlink:href="../../d0/d46/Fun4__SimpleReadMySql_8C.html#a70381893748e3445abc30632beb256ce" target="_top" xlink:title="Fun4_SimpleReadMySql">
<polygon fill="none" stroke="black" points="454.5,-38.5 454.5,-57.5 577.5,-57.5 577.5,-38.5 454.5,-38.5"/>
<text text-anchor="middle" x="516" y="-45.5" font-family="FreeSans" font-size="10.00">Fun4_SimpleReadMySql</text>
</a>
</g>
</g>
<!-- Node4&#45;&gt;Node5 -->
<g id="edge4" class="edge"><title>Node4&#45;&gt;Node5</title>
<path fill="none" stroke="midnightblue" d="M417.328,-36.0273C429.441,-37.5121 442.26,-39.0835 454.487,-40.5823"/>
<polygon fill="midnightblue" stroke="midnightblue" points="417.699,-32.5467 407.347,-34.8039 416.847,-39.4947 417.699,-32.5467"/>
</g>
<!-- Node6 -->
<g id="node6" class="node"><title>Node6</title>
<g id="a_node6"><a xlink:href="../../d9/d8c/Fun4ReadMySql_8C.html#a729b39fa627147c63772f28c9be36b62" target="_top" xlink:title="Fun4ReadMySql">
<polygon fill="none" stroke="black" points="472,-0.5 472,-19.5 560,-19.5 560,-0.5 472,-0.5"/>
<text text-anchor="middle" x="516" y="-7.5" font-family="FreeSans" font-size="10.00">Fun4ReadMySql</text>
</a>
</g>
</g>
<!-- Node4&#45;&gt;Node6 -->
<g id="edge5" class="edge"><title>Node4&#45;&gt;Node6</title>
<path fill="none" stroke="midnightblue" d="M417.457,-21.9569C435.476,-19.7481 455.048,-17.349 471.898,-15.2835"/>
<polygon fill="midnightblue" stroke="midnightblue" points="416.847,-18.5054 407.347,-23.1961 417.699,-25.4533 416.847,-18.5054"/>
</g>
</g>
</svg>
