<?xml version="1.0" encoding="UTF-8" standalone="no"?>
<!DOCTYPE svg PUBLIC "-//W3C//DTD SVG 1.1//EN"
 "http://www.w3.org/Graphics/SVG/1.1/DTD/svg11.dtd">
<!-- Generated by graphviz version 2.36.0 (20140111.2315)
 -->
<!-- Title: Fun4AllSyncManager::registerInputManager Pages: 1 -->
<svg width="268pt" height="77pt"
 viewBox="0.00 0.00 268.00 77.00" xmlns="http://www.w3.org/2000/svg" xmlns:xlink="http://www.w3.org/1999/xlink">
<g id="graph0" class="graph" transform="scale(1 1) rotate(0) translate(4 73)">
<title>Fun4AllSyncManager::registerInputManager</title>
<!-- Node1 -->
<g id="node1" class="node"><title>Node1</title>
<polygon fill="#bfbfbf" stroke="black" points="0.5,-22 0.5,-52 113.5,-52 113.5,-22 0.5,-22"/>
<text text-anchor="start" x="8.5" y="-40" font-family="FreeSans" font-size="10.00">Fun4AllSyncManager</text>
<text text-anchor="middle" x="57" y="-29" font-family="FreeSans" font-size="10.00">::registerInputManager</text>
</g>
<!-- Node2 -->
<g id="node2" class="node"><title>Node2</title>
<g id="a_node2"><a xlink:href="../../d5/dec/classFun4AllBase.html#a41f9ac377743d046f590617fd6f4f0ed" target="_top" xlink:title="Returns the name of this module. ">
<polygon fill="none" stroke="black" points="153.5,-49.5 153.5,-68.5 256.5,-68.5 256.5,-49.5 153.5,-49.5"/>
<text text-anchor="middle" x="205" y="-56.5" font-family="FreeSans" font-size="10.00">Fun4AllBase::Name</text>
</a>
</g>
</g>
<!-- Node1&#45;&gt;Node2 -->
<g id="edge1" class="edge"><title>Node1&#45;&gt;Node2</title>
<path fill="none" stroke="midnightblue" d="M113.613,-45.38C123.302,-46.84 133.425,-48.3654 143.244,-49.8449"/>
<polygon fill="midnightblue" stroke="midnightblue" points="142.925,-53.3363 153.335,-51.3655 143.968,-46.4145 142.925,-53.3363"/>
</g>
<!-- Node3 -->
<g id="node3" class="node"><title>Node3</title>
<g id="a_node3"><a xlink:href="../../d4/da9/classFun4AllInputManager.html#a5b0cdb689482c4143b7b22ca8a780c51" target="_top" xlink:title="Fun4AllInputManager\l::setSyncManager">
<polygon fill="none" stroke="black" points="150.5,-0 150.5,-30 259.5,-30 259.5,-0 150.5,-0"/>
<text text-anchor="start" x="158.5" y="-18" font-family="FreeSans" font-size="10.00">Fun4AllInputManager</text>
<text text-anchor="middle" x="205" y="-7" font-family="FreeSans" font-size="10.00">::setSyncManager</text>
</a>
</g>
</g>
<!-- Node1&#45;&gt;Node3 -->
<g id="edge2" class="edge"><title>Node1&#45;&gt;Node3</title>
<path fill="none" stroke="midnightblue" d="M113.613,-28.62C122.395,-27.2966 131.534,-25.9195 140.48,-24.5715"/>
<polygon fill="midnightblue" stroke="midnightblue" points="141.102,-28.0174 150.469,-23.0663 140.059,-21.0955 141.102,-28.0174"/>
</g>
</g>
</svg>
