<?xml version="1.0" encoding="UTF-8" standalone="no"?>
<!DOCTYPE svg PUBLIC "-//W3C//DTD SVG 1.1//EN"
 "http://www.w3.org/Graphics/SVG/1.1/DTD/svg11.dtd">
<!-- Generated by graphviz version 2.36.0 (20140111.2315)
 -->
<!-- Title: Fun4AllSyncManager::CurrentEvent Pages: 1 -->
<svg width="296pt" height="66pt"
 viewBox="0.00 0.00 296.00 66.00" xmlns="http://www.w3.org/2000/svg" xmlns:xlink="http://www.w3.org/1999/xlink">
<g id="graph0" class="graph" transform="scale(1 1) rotate(0) translate(4 62)">
<title>Fun4AllSyncManager::CurrentEvent</title>
<!-- Node1 -->
<g id="node1" class="node"><title>Node1</title>
<polygon fill="#bfbfbf" stroke="black" points="0.5,-14 0.5,-44 109.5,-44 109.5,-14 0.5,-14"/>
<text text-anchor="start" x="8.5" y="-32" font-family="FreeSans" font-size="10.00">Fun4AllSyncManager</text>
<text text-anchor="middle" x="55" y="-21" font-family="FreeSans" font-size="10.00">::CurrentEvent</text>
</g>
<!-- Node2 -->
<g id="node2" class="node"><title>Node2</title>
<g id="a_node2"><a xlink:href="../../da/d29/classFun4AllServer.html#ac694f7821d6033f7734fa656ce7e38e0" target="_top" xlink:title="Fun4AllServer::EventNumber">
<polygon fill="none" stroke="black" points="146,-38.5 146,-57.5 288,-57.5 288,-38.5 146,-38.5"/>
<text text-anchor="middle" x="217" y="-45.5" font-family="FreeSans" font-size="10.00">Fun4AllServer::EventNumber</text>
</a>
</g>
</g>
<!-- Node1&#45;&gt;Node2 -->
<g id="edge1" class="edge"><title>Node1&#45;&gt;Node2</title>
<path fill="none" stroke="midnightblue" d="M109.723,-35.3796C118.166,-36.3822 127.048,-37.4369 135.931,-38.4918"/>
<polygon fill="midnightblue" stroke="midnightblue" points="135.595,-41.9764 145.938,-39.6801 136.421,-35.0253 135.595,-41.9764"/>
</g>
<!-- Node3 -->
<g id="node3" class="node"><title>Node3</title>
<g id="a_node3"><a xlink:href="../../da/d29/classFun4AllServer.html#a3e55156f91b2c94bb6c4ef33ffce587a" target="_top" xlink:title="Fun4AllServer::instance">
<polygon fill="none" stroke="black" points="157.5,-0.5 157.5,-19.5 276.5,-19.5 276.5,-0.5 157.5,-0.5"/>
<text text-anchor="middle" x="217" y="-7.5" font-family="FreeSans" font-size="10.00">Fun4AllServer::instance</text>
</a>
</g>
</g>
<!-- Node1&#45;&gt;Node3 -->
<g id="edge2" class="edge"><title>Node1&#45;&gt;Node3</title>
<path fill="none" stroke="midnightblue" d="M109.723,-22.6204C121.829,-21.1828 134.838,-19.6379 147.459,-18.1392"/>
<polygon fill="midnightblue" stroke="midnightblue" points="147.956,-21.605 157.473,-16.9501 147.13,-14.6538 147.956,-21.605"/>
</g>
</g>
</svg>
