<?xml version="1.0" encoding="UTF-8" standalone="no"?>
<!DOCTYPE svg PUBLIC "-//W3C//DTD SVG 1.1//EN"
 "http://www.w3.org/Graphics/SVG/1.1/DTD/svg11.dtd">
<!-- Generated by graphviz version 2.36.0 (20140111.2315)
 -->
<!-- Title: Fun4AllSyncManager::Print Pages: 1 -->
<svg width="718pt" height="97pt"
 viewBox="0.00 0.00 718.00 97.00" xmlns="http://www.w3.org/2000/svg" xmlns:xlink="http://www.w3.org/1999/xlink">
<g id="graph0" class="graph" transform="scale(1 1) rotate(0) translate(4 93)">
<title>Fun4AllSyncManager::Print</title>
<!-- Node1 -->
<g id="node1" class="node"><title>Node1</title>
<polygon fill="#bfbfbf" stroke="black" points="0.5,-23 0.5,-53 109.5,-53 109.5,-23 0.5,-23"/>
<text text-anchor="start" x="8.5" y="-41" font-family="FreeSans" font-size="10.00">Fun4AllSyncManager</text>
<text text-anchor="middle" x="55" y="-30" font-family="FreeSans" font-size="10.00">::Print</text>
</g>
<!-- Node2 -->
<g id="node2" class="node"><title>Node2</title>
<g id="a_node2"><a xlink:href="../../da/d29/classFun4AllServer.html#ae1b1a243ee1a67367c8da4ec3bdc003d" target="_top" xlink:title="Fun4AllServer::Print">
<polygon fill="none" stroke="black" points="149.5,-50.5 149.5,-69.5 252.5,-69.5 252.5,-50.5 149.5,-50.5"/>
<text text-anchor="middle" x="201" y="-57.5" font-family="FreeSans" font-size="10.00">Fun4AllServer::Print</text>
</a>
</g>
</g>
<!-- Node1&#45;&gt;Node2 -->
<g id="edge1" class="edge"><title>Node1&#45;&gt;Node2</title>
<path fill="none" stroke="midnightblue" d="M119.778,-47.7438C129.627,-49.2486 139.684,-50.7851 149.199,-52.2388"/>
<polygon fill="midnightblue" stroke="midnightblue" points="120.034,-44.2425 109.62,-46.192 118.977,-51.1622 120.034,-44.2425"/>
</g>
<!-- Node7 -->
<g id="node7" class="node"><title>Node7</title>
<g id="a_node7"><a xlink:href="../../dd/ded/classFun4AllSyncManager.html#a9b5874f83d4984e24572838d55513eb3" target="_top" xlink:title="skip n events (0 means up to the end of file). Skip means read, don&#39;t process. ">
<polygon fill="none" stroke="black" points="146.5,-1 146.5,-31 255.5,-31 255.5,-1 146.5,-1"/>
<text text-anchor="start" x="154.5" y="-19" font-family="FreeSans" font-size="10.00">Fun4AllSyncManager</text>
<text text-anchor="middle" x="201" y="-8" font-family="FreeSans" font-size="10.00">::skip</text>
</a>
</g>
</g>
<!-- Node1&#45;&gt;Node7 -->
<g id="edge6" class="edge"><title>Node1&#45;&gt;Node7</title>
<path fill="none" stroke="midnightblue" d="M119.593,-28.2844C128.519,-26.9207 137.619,-25.5305 146.335,-24.1988"/>
<polygon fill="midnightblue" stroke="midnightblue" points="118.977,-24.8378 109.62,-29.808 120.034,-31.7575 118.977,-24.8378"/>
</g>
<!-- Node3 -->
<g id="node3" class="node"><title>Node3</title>
<g id="a_node3"><a xlink:href="../../da/d29/classFun4AllServer.html#afcfc5583204cac58b4e66a2406187a18" target="_top" xlink:title="Fun4AllServer::BeginRun">
<polygon fill="none" stroke="black" points="292.5,-50.5 292.5,-69.5 417.5,-69.5 417.5,-50.5 292.5,-50.5"/>
<text text-anchor="middle" x="355" y="-57.5" font-family="FreeSans" font-size="10.00">Fun4AllServer::BeginRun</text>
</a>
</g>
</g>
<!-- Node2&#45;&gt;Node3 -->
<g id="edge2" class="edge"><title>Node2&#45;&gt;Node3</title>
<path fill="none" stroke="midnightblue" d="M262.617,-60C272.366,-60 282.467,-60 292.243,-60"/>
<polygon fill="midnightblue" stroke="midnightblue" points="262.614,-56.5001 252.614,-60 262.614,-63.5001 262.614,-56.5001"/>
</g>
<!-- Node4 -->
<g id="node4" class="node"><title>Node4</title>
<g id="a_node4"><a xlink:href="../../da/d29/classFun4AllServer.html#a11bbc8b2f53bc06e0b05ee202dd6372a" target="_top" xlink:title="run n events (0 means up to end of file) ">
<polygon fill="none" stroke="black" points="454,-50.5 454,-69.5 550,-69.5 550,-50.5 454,-50.5"/>
<text text-anchor="middle" x="502" y="-57.5" font-family="FreeSans" font-size="10.00">Fun4AllServer::run</text>
</a>
</g>
</g>
<!-- Node3&#45;&gt;Node4 -->
<g id="edge3" class="edge"><title>Node3&#45;&gt;Node4</title>
<path fill="none" stroke="midnightblue" d="M428.109,-60C436.823,-60 445.544,-60 453.769,-60"/>
<polygon fill="midnightblue" stroke="midnightblue" points="427.914,-56.5001 417.914,-60 427.914,-63.5001 427.914,-56.5001"/>
</g>
<!-- Node5 -->
<g id="node5" class="node"><title>Node5</title>
<g id="a_node5"><a xlink:href="../../d0/d46/Fun4__SimpleReadMySql_8C.html#a70381893748e3445abc30632beb256ce" target="_top" xlink:title="Fun4_SimpleReadMySql">
<polygon fill="none" stroke="black" points="586.5,-69.5 586.5,-88.5 709.5,-88.5 709.5,-69.5 586.5,-69.5"/>
<text text-anchor="middle" x="648" y="-76.5" font-family="FreeSans" font-size="10.00">Fun4_SimpleReadMySql</text>
</a>
</g>
</g>
<!-- Node4&#45;&gt;Node5 -->
<g id="edge4" class="edge"><title>Node4&#45;&gt;Node5</title>
<path fill="none" stroke="midnightblue" d="M560.109,-67.5352C568.736,-68.6735 577.66,-69.851 586.358,-70.9986"/>
<polygon fill="midnightblue" stroke="midnightblue" points="560.523,-64.0596 550.151,-66.2213 559.607,-70.9994 560.523,-64.0596"/>
</g>
<!-- Node6 -->
<g id="node6" class="node"><title>Node6</title>
<g id="a_node6"><a xlink:href="../../d9/d8c/Fun4ReadMySql_8C.html#a729b39fa627147c63772f28c9be36b62" target="_top" xlink:title="Fun4ReadMySql">
<polygon fill="none" stroke="black" points="604,-31.5 604,-50.5 692,-50.5 692,-31.5 604,-31.5"/>
<text text-anchor="middle" x="648" y="-38.5" font-family="FreeSans" font-size="10.00">Fun4ReadMySql</text>
</a>
</g>
</g>
<!-- Node4&#45;&gt;Node6 -->
<g id="edge5" class="edge"><title>Node4&#45;&gt;Node6</title>
<path fill="none" stroke="midnightblue" d="M560.457,-52.4189C574.854,-50.5193 590.061,-48.5128 603.643,-46.7208"/>
<polygon fill="midnightblue" stroke="midnightblue" points="559.607,-49.0006 550.151,-53.7787 560.523,-55.9404 559.607,-49.0006"/>
</g>
</g>
</svg>
