<?xml version="1.0" encoding="UTF-8" standalone="no"?>
<!DOCTYPE svg PUBLIC "-//W3C//DTD SVG 1.1//EN"
 "http://www.w3.org/Graphics/SVG/1.1/DTD/svg11.dtd">
<!-- Generated by graphviz version 2.36.0 (20140111.2315)
 -->
<!-- Title: Fun4AllSyncManager::ResetEvent Pages: 1 -->
<svg width="264pt" height="77pt"
 viewBox="0.00 0.00 264.00 77.00" xmlns="http://www.w3.org/2000/svg" xmlns:xlink="http://www.w3.org/1999/xlink">
<g id="graph0" class="graph" transform="scale(1 1) rotate(0) translate(4 73)">
<title>Fun4AllSyncManager::ResetEvent</title>
<!-- Node1 -->
<g id="node1" class="node"><title>Node1</title>
<polygon fill="#bfbfbf" stroke="black" points="0.5,-22 0.5,-52 109.5,-52 109.5,-22 0.5,-22"/>
<text text-anchor="start" x="8.5" y="-40" font-family="FreeSans" font-size="10.00">Fun4AllSyncManager</text>
<text text-anchor="middle" x="55" y="-29" font-family="FreeSans" font-size="10.00">::ResetEvent</text>
</g>
<!-- Node2 -->
<g id="node2" class="node"><title>Node2</title>
<g id="a_node2"><a xlink:href="../../d5/dec/classFun4AllBase.html#a41f9ac377743d046f590617fd6f4f0ed" target="_top" xlink:title="Returns the name of this module. ">
<polygon fill="none" stroke="black" points="149.5,-49.5 149.5,-68.5 252.5,-68.5 252.5,-49.5 149.5,-49.5"/>
<text text-anchor="middle" x="201" y="-56.5" font-family="FreeSans" font-size="10.00">Fun4AllBase::Name</text>
</a>
</g>
</g>
<!-- Node1&#45;&gt;Node2 -->
<g id="edge1" class="edge"><title>Node1&#45;&gt;Node2</title>
<path fill="none" stroke="midnightblue" d="M109.62,-45.192C119.235,-46.6608 129.318,-48.2013 139.119,-49.6987"/>
<polygon fill="midnightblue" stroke="midnightblue" points="138.785,-53.1883 149.199,-51.2388 139.843,-46.2686 138.785,-53.1883"/>
</g>
<!-- Node3 -->
<g id="node3" class="node"><title>Node3</title>
<g id="a_node3"><a xlink:href="../../d4/da9/classFun4AllInputManager.html#a01c946e063c464f497e7befbbe757f71" target="_top" xlink:title="Fun4AllInputManager\l::ResetEvent">
<polygon fill="none" stroke="black" points="146.5,-0 146.5,-30 255.5,-30 255.5,-0 146.5,-0"/>
<text text-anchor="start" x="154.5" y="-18" font-family="FreeSans" font-size="10.00">Fun4AllInputManager</text>
<text text-anchor="middle" x="201" y="-7" font-family="FreeSans" font-size="10.00">::ResetEvent</text>
</a>
</g>
</g>
<!-- Node1&#45;&gt;Node3 -->
<g id="edge2" class="edge"><title>Node1&#45;&gt;Node3</title>
<path fill="none" stroke="midnightblue" d="M109.62,-28.808C118.335,-27.4766 127.435,-26.0863 136.361,-24.7227"/>
<polygon fill="midnightblue" stroke="midnightblue" points="136.978,-28.169 146.335,-23.1988 135.921,-21.2493 136.978,-28.169"/>
</g>
</g>
</svg>
