<?xml version="1.0" encoding="UTF-8" standalone="no"?>
<!DOCTYPE svg PUBLIC "-//W3C//DTD SVG 1.1//EN"
 "http://www.w3.org/Graphics/SVG/1.1/DTD/svg11.dtd">
<!-- Generated by graphviz version 2.36.0 (20140111.2315)
 -->
<!-- Title: Fun4AllSyncManager::fileclose Pages: 1 -->
<svg width="264pt" height="77pt"
 viewBox="0.00 0.00 264.00 77.00" xmlns="http://www.w3.org/2000/svg" xmlns:xlink="http://www.w3.org/1999/xlink">
<g id="graph0" class="graph" transform="scale(1 1) rotate(0) translate(4 73)">
<title>Fun4AllSyncManager::fileclose</title>
<!-- Node1 -->
<g id="node1" class="node"><title>Node1</title>
<polygon fill="#bfbfbf" stroke="black" points="0.5,-17 0.5,-47 109.5,-47 109.5,-17 0.5,-17"/>
<text text-anchor="start" x="8.5" y="-35" font-family="FreeSans" font-size="10.00">Fun4AllSyncManager</text>
<text text-anchor="middle" x="55" y="-24" font-family="FreeSans" font-size="10.00">::fileclose</text>
</g>
<!-- Node2 -->
<g id="node2" class="node"><title>Node2</title>
<g id="a_node2"><a xlink:href="../../d4/da9/classFun4AllInputManager.html#a0343c1c3801d769b5d4a0f749f7858f3" target="_top" xlink:title="Fun4AllInputManager\l::fileclose">
<polygon fill="none" stroke="black" points="146.5,-39 146.5,-69 255.5,-69 255.5,-39 146.5,-39"/>
<text text-anchor="start" x="154.5" y="-57" font-family="FreeSans" font-size="10.00">Fun4AllInputManager</text>
<text text-anchor="middle" x="201" y="-46" font-family="FreeSans" font-size="10.00">::fileclose</text>
</a>
</g>
</g>
<!-- Node1&#45;&gt;Node2 -->
<g id="edge1" class="edge"><title>Node1&#45;&gt;Node2</title>
<path fill="none" stroke="midnightblue" d="M109.62,-40.192C118.335,-41.5234 127.435,-42.9137 136.361,-44.2773"/>
<polygon fill="midnightblue" stroke="midnightblue" points="135.921,-47.7507 146.335,-45.8012 136.978,-40.831 135.921,-47.7507"/>
</g>
<!-- Node3 -->
<g id="node3" class="node"><title>Node3</title>
<g id="a_node3"><a xlink:href="../../d5/dec/classFun4AllBase.html#a41f9ac377743d046f590617fd6f4f0ed" target="_top" xlink:title="Returns the name of this module. ">
<polygon fill="none" stroke="black" points="149.5,-0.5 149.5,-19.5 252.5,-19.5 252.5,-0.5 149.5,-0.5"/>
<text text-anchor="middle" x="201" y="-7.5" font-family="FreeSans" font-size="10.00">Fun4AllBase::Name</text>
</a>
</g>
</g>
<!-- Node1&#45;&gt;Node3 -->
<g id="edge2" class="edge"><title>Node1&#45;&gt;Node3</title>
<path fill="none" stroke="midnightblue" d="M109.62,-23.808C119.235,-22.3392 129.318,-20.7987 139.119,-19.3013"/>
<polygon fill="midnightblue" stroke="midnightblue" points="139.843,-22.7314 149.199,-17.7612 138.785,-15.8117 139.843,-22.7314"/>
</g>
</g>
</svg>
