<?xml version="1.0" encoding="UTF-8" standalone="no"?>
<!DOCTYPE svg PUBLIC "-//W3C//DTD SVG 1.1//EN"
 "http://www.w3.org/Graphics/SVG/1.1/DTD/svg11.dtd">
<!-- Generated by graphviz version 2.36.0 (20140111.2315)
 -->
<!-- Title: Fun4AllSyncManager::run Pages: 1 -->
<svg width="282pt" height="126pt"
 viewBox="0.00 0.00 282.00 126.00" xmlns="http://www.w3.org/2000/svg" xmlns:xlink="http://www.w3.org/1999/xlink">
<g id="graph0" class="graph" transform="scale(1 1) rotate(0) translate(4 122)">
<title>Fun4AllSyncManager::run</title>
<!-- Node1 -->
<g id="node1" class="node"><title>Node1</title>
<polygon fill="#bfbfbf" stroke="black" points="0.5,-49.5 0.5,-68.5 127.5,-68.5 127.5,-49.5 0.5,-49.5"/>
<text text-anchor="middle" x="64" y="-56.5" font-family="FreeSans" font-size="10.00">Fun4AllSyncManager::run</text>
</g>
<!-- Node2 -->
<g id="node2" class="node"><title>Node2</title>
<g id="a_node2"><a xlink:href="../../dd/ded/classFun4AllSyncManager.html#a8b1fa694987276a45bb6e602f8cb549b" target="_top" xlink:title="Fun4AllSyncManager\l::CheckSync">
<polygon fill="none" stroke="black" points="164.5,-88 164.5,-118 273.5,-118 273.5,-88 164.5,-88"/>
<text text-anchor="start" x="172.5" y="-106" font-family="FreeSans" font-size="10.00">Fun4AllSyncManager</text>
<text text-anchor="middle" x="219" y="-95" font-family="FreeSans" font-size="10.00">::CheckSync</text>
</a>
</g>
</g>
<!-- Node1&#45;&gt;Node2 -->
<g id="edge1" class="edge"><title>Node1&#45;&gt;Node2</title>
<path fill="none" stroke="midnightblue" d="M98.1987,-68.5473C115.04,-73.3906 136.057,-79.4346 155.764,-85.102"/>
<polygon fill="midnightblue" stroke="midnightblue" points="155.036,-88.5344 165.614,-87.9346 156.97,-81.8071 155.036,-88.5344"/>
</g>
<!-- Node3 -->
<g id="node3" class="node"><title>Node3</title>
<g id="a_node3"><a xlink:href="../../d5/dec/classFun4AllBase.html#a41f9ac377743d046f590617fd6f4f0ed" target="_top" xlink:title="Returns the name of this module. ">
<polygon fill="none" stroke="black" points="167.5,-49.5 167.5,-68.5 270.5,-68.5 270.5,-49.5 167.5,-49.5"/>
<text text-anchor="middle" x="219" y="-56.5" font-family="FreeSans" font-size="10.00">Fun4AllBase::Name</text>
</a>
</g>
</g>
<!-- Node1&#45;&gt;Node3 -->
<g id="edge2" class="edge"><title>Node1&#45;&gt;Node3</title>
<path fill="none" stroke="midnightblue" d="M127.672,-59C137.472,-59 147.585,-59 157.339,-59"/>
<polygon fill="midnightblue" stroke="midnightblue" points="157.345,-62.5001 167.345,-59 157.345,-55.5001 157.345,-62.5001"/>
</g>
<!-- Node4 -->
<g id="node4" class="node"><title>Node4</title>
<g id="a_node4"><a xlink:href="../../d4/da9/classFun4AllInputManager.html#ae839b3e0b4c87a929a7ba7710829ac44" target="_top" xlink:title="Fun4AllInputManager\l::RunNumber">
<polygon fill="none" stroke="black" points="164.5,-0 164.5,-30 273.5,-30 273.5,-0 164.5,-0"/>
<text text-anchor="start" x="172.5" y="-18" font-family="FreeSans" font-size="10.00">Fun4AllInputManager</text>
<text text-anchor="middle" x="219" y="-7" font-family="FreeSans" font-size="10.00">::RunNumber</text>
</a>
</g>
</g>
<!-- Node1&#45;&gt;Node4 -->
<g id="edge3" class="edge"><title>Node1&#45;&gt;Node4</title>
<path fill="none" stroke="midnightblue" d="M98.1987,-49.4527C115.04,-44.6094 136.057,-38.5654 155.764,-32.898"/>
<polygon fill="midnightblue" stroke="midnightblue" points="156.97,-36.1929 165.614,-30.0654 155.036,-29.4656 156.97,-36.1929"/>
</g>
</g>
</svg>
