<?xml version="1.0" encoding="UTF-8" standalone="no"?>
<!DOCTYPE svg PUBLIC "-//W3C//DTD SVG 1.1//EN"
 "http://www.w3.org/Graphics/SVG/1.1/DTD/svg11.dtd">
<!-- Generated by graphviz version 2.36.0 (20140111.2315)
 -->
<!-- Title: Fun4AllSyncManager::SegmentNumber Pages: 1 -->
<svg width="460pt" height="71pt"
 viewBox="0.00 0.00 460.00 71.00" xmlns="http://www.w3.org/2000/svg" xmlns:xlink="http://www.w3.org/1999/xlink">
<g id="graph0" class="graph" transform="scale(1 1) rotate(0) translate(4 67)">
<title>Fun4AllSyncManager::SegmentNumber</title>
<!-- Node1 -->
<g id="node1" class="node"><title>Node1</title>
<polygon fill="#bfbfbf" stroke="black" points="0.5,-19 0.5,-49 109.5,-49 109.5,-19 0.5,-19"/>
<text text-anchor="start" x="8.5" y="-37" font-family="FreeSans" font-size="10.00">Fun4AllSyncManager</text>
<text text-anchor="middle" x="55" y="-26" font-family="FreeSans" font-size="10.00">::SegmentNumber</text>
</g>
<!-- Node2 -->
<g id="node2" class="node"><title>Node2</title>
<g id="a_node2"><a xlink:href="../../da/dd8/classFun4AllPrdfInputManager.html#ac3f313ef5571ce32cd40799791e2ea56" target="_top" xlink:title="Fun4AllPrdfInputManager::run">
<polygon fill="none" stroke="black" points="151.5,-43.5 151.5,-62.5 296.5,-62.5 296.5,-43.5 151.5,-43.5"/>
<text text-anchor="middle" x="224" y="-50.5" font-family="FreeSans" font-size="10.00">Fun4AllPrdfInputManager::run</text>
</a>
</g>
</g>
<!-- Node1&#45;&gt;Node2 -->
<g id="edge1" class="edge"><title>Node1&#45;&gt;Node2</title>
<path fill="none" stroke="midnightblue" d="M119.89,-41.2689C130.186,-42.4404 140.905,-43.6598 151.369,-44.8503"/>
<polygon fill="midnightblue" stroke="midnightblue" points="120.091,-37.7693 109.759,-40.1163 119.299,-44.7244 120.091,-37.7693"/>
</g>
<!-- Node3 -->
<g id="node3" class="node"><title>Node3</title>
<g id="a_node3"><a xlink:href="../../da/d29/classFun4AllServer.html#a93e4cbf9cae3a4e5fa33ffc9dcc28eda" target="_top" xlink:title="Fun4AllServer::SegmentNumber">
<polygon fill="none" stroke="black" points="146,-5.5 146,-24.5 302,-24.5 302,-5.5 146,-5.5"/>
<text text-anchor="middle" x="224" y="-12.5" font-family="FreeSans" font-size="10.00">Fun4AllServer::SegmentNumber</text>
</a>
</g>
</g>
<!-- Node1&#45;&gt;Node3 -->
<g id="edge2" class="edge"><title>Node1&#45;&gt;Node3</title>
<path fill="none" stroke="midnightblue" d="M119.957,-26.7234C128.455,-25.7566 137.239,-24.7573 145.929,-23.7685"/>
<polygon fill="midnightblue" stroke="midnightblue" points="119.299,-23.2756 109.759,-27.8837 120.091,-30.2307 119.299,-23.2756"/>
</g>
<!-- Node4 -->
<g id="node4" class="node"><title>Node4</title>
<g id="a_node4"><a xlink:href="../../de/d50/classFun4AllFileOutStream.html#ae507d564a712c0e99c2fa80b9c239385" target="_top" xlink:title="Fun4AllFileOutStream\l::WriteEventOut">
<polygon fill="none" stroke="black" points="338.5,-0 338.5,-30 451.5,-30 451.5,-0 338.5,-0"/>
<text text-anchor="start" x="346.5" y="-18" font-family="FreeSans" font-size="10.00">Fun4AllFileOutStream</text>
<text text-anchor="middle" x="395" y="-7" font-family="FreeSans" font-size="10.00">::WriteEventOut</text>
</a>
</g>
</g>
<!-- Node3&#45;&gt;Node4 -->
<g id="edge3" class="edge"><title>Node3&#45;&gt;Node4</title>
<path fill="none" stroke="midnightblue" d="M312.105,-15C320.987,-15 329.83,-15 338.242,-15"/>
<polygon fill="midnightblue" stroke="midnightblue" points="312.082,-11.5001 302.082,-15 312.082,-18.5001 312.082,-11.5001"/>
</g>
</g>
</svg>
