<?xml version="1.0" encoding="UTF-8" standalone="no"?>
<!DOCTYPE svg PUBLIC "-//W3C//DTD SVG 1.1//EN"
 "http://www.w3.org/Graphics/SVG/1.1/DTD/svg11.dtd">
<!-- Generated by graphviz version 2.36.0 (20140111.2315)
 -->
<!-- Title: SubsysReco Pages: 1 -->
<svg width="102pt" height="224pt"
 viewBox="0.00 0.00 102.00 224.00" xmlns="http://www.w3.org/2000/svg" xmlns:xlink="http://www.w3.org/1999/xlink">
<g id="graph0" class="graph" transform="scale(1 1) rotate(0) translate(4 220)">
<title>SubsysReco</title>
<!-- Node1 -->
<g id="node1" class="node"><title>Node1</title>
<polygon fill="#bfbfbf" stroke="black" points="10.5,-0.5 10.5,-19.5 81.5,-19.5 81.5,-0.5 10.5,-0.5"/>
<text text-anchor="middle" x="46" y="-7.5" font-family="FreeSans" font-size="10.00">SubsysReco</text>
</g>
<!-- Node2 -->
<g id="node2" class="node"><title>Node2</title>
<g id="a_node2"><a xlink:href="../../d5/dec/classFun4AllBase.html" target="_top" xlink:title="Fun4AllBase">
<polygon fill="none" stroke="black" points="10,-58.5 10,-77.5 82,-77.5 82,-58.5 10,-58.5"/>
<text text-anchor="middle" x="46" y="-65.5" font-family="FreeSans" font-size="10.00">Fun4AllBase</text>
</a>
</g>
</g>
<!-- Node2&#45;&gt;Node1 -->
<g id="edge1" class="edge"><title>Node2&#45;&gt;Node1</title>
<path fill="none" stroke="midnightblue" d="M46,-47.953C46,-38.2875 46,-27.0312 46,-19.5052"/>
<polygon fill="midnightblue" stroke="midnightblue" points="42.5001,-48.25 46,-58.25 49.5001,-48.25 42.5001,-48.25"/>
</g>
<!-- Node3 -->
<g id="node3" class="node"><title>Node3</title>
<g id="a_node3"><a xlink:title="STL class. ">
<polygon fill="none" stroke="#bfbfbf" points="16.5,-126.5 16.5,-145.5 75.5,-145.5 75.5,-126.5 16.5,-126.5"/>
<text text-anchor="middle" x="46" y="-133.5" font-family="FreeSans" font-size="10.00">std::string</text>
</a>
</g>
</g>
<!-- Node3&#45;&gt;Node2 -->
<g id="edge2" class="edge"><title>Node3&#45;&gt;Node2</title>
<path fill="none" stroke="#9a32cd" stroke-dasharray="5,2" d="M46,-116.041C46,-103.472 46,-87.5631 46,-77.8411"/>
<polygon fill="#9a32cd" stroke="#9a32cd" points="42.5001,-116.372 46,-126.372 49.5001,-116.372 42.5001,-116.372"/>
<text text-anchor="middle" x="70" y="-99.5" font-family="FreeSans" font-size="10.00"> ThisName</text>
</g>
<!-- Node4 -->
<g id="node4" class="node"><title>Node4</title>
<g id="a_node4"><a xlink:title="STL class. ">
<polygon fill="none" stroke="#bfbfbf" points="-0.5,-185 -0.5,-215 92.5,-215 92.5,-185 -0.5,-185"/>
<text text-anchor="start" x="7.5" y="-203" font-family="FreeSans" font-size="10.00">std::basic_string&lt;</text>
<text text-anchor="middle" x="46" y="-192" font-family="FreeSans" font-size="10.00"> char &gt;</text>
</a>
</g>
</g>
<!-- Node4&#45;&gt;Node3 -->
<g id="edge3" class="edge"><title>Node4&#45;&gt;Node3</title>
<path fill="none" stroke="midnightblue" d="M46,-174.871C46,-164.663 46,-153.408 46,-145.842"/>
<polygon fill="midnightblue" stroke="midnightblue" points="42.5001,-174.931 46,-184.931 49.5001,-174.931 42.5001,-174.931"/>
</g>
</g>
</svg>
