<?xml version="1.0" encoding="UTF-8" standalone="no"?>
<!DOCTYPE svg PUBLIC "-//W3C//DTD SVG 1.1//EN"
 "http://www.w3.org/Graphics/SVG/1.1/DTD/svg11.dtd">
<!-- Generated by graphviz version 2.36.0 (20140111.2315)
 -->
<!-- Title: fun4all/fun4all/SyncObject.h Pages: 1 -->
<svg width="149pt" height="140pt"
 viewBox="0.00 0.00 149.00 140.00" xmlns="http://www.w3.org/2000/svg" xmlns:xlink="http://www.w3.org/1999/xlink">
<g id="graph0" class="graph" transform="scale(1 1) rotate(0) translate(4 136)">
<title>fun4all/fun4all/SyncObject.h</title>
<!-- Node1 -->
<g id="node1" class="node"><title>Node1</title>
<polygon fill="#bfbfbf" stroke="black" points="4.5,-112.5 4.5,-131.5 141.5,-131.5 141.5,-112.5 4.5,-112.5"/>
<text text-anchor="middle" x="73" y="-119.5" font-family="FreeSans" font-size="10.00">fun4all/fun4all/SyncObject.h</text>
</g>
<!-- Node2 -->
<g id="node2" class="node"><title>Node2</title>
<g id="a_node2"><a xlink:href="../../df/d32/PHObject_8h.html" target="_top" xlink:title="PHObject.h">
<polygon fill="none" stroke="black" points="8.5,-56.5 8.5,-75.5 75.5,-75.5 75.5,-56.5 8.5,-56.5"/>
<text text-anchor="middle" x="42" y="-63.5" font-family="FreeSans" font-size="10.00">PHObject.h</text>
</a>
</g>
</g>
<!-- Node1&#45;&gt;Node2 -->
<g id="edge1" class="edge"><title>Node1&#45;&gt;Node2</title>
<path fill="none" stroke="midnightblue" d="M67.881,-112.083C63.5925,-104.613 57.3418,-93.7244 52.0577,-84.5199"/>
<polygon fill="midnightblue" stroke="midnightblue" points="55.0379,-82.6811 47.0238,-75.7511 48.9671,-86.1662 55.0379,-82.6811"/>
</g>
<!-- Node4 -->
<g id="node4" class="node"><title>Node4</title>
<polygon fill="none" stroke="#bfbfbf" points="77,-0.5 77,-19.5 131,-19.5 131,-0.5 77,-0.5"/>
<text text-anchor="middle" x="104" y="-7.5" font-family="FreeSans" font-size="10.00">iostream</text>
</g>
<!-- Node1&#45;&gt;Node4 -->
<g id="edge4" class="edge"><title>Node1&#45;&gt;Node4</title>
<path fill="none" stroke="midnightblue" d="M75.4325,-112.368C80.4579,-94.5366 92.0804,-53.2953 98.8507,-29.2717"/>
<polygon fill="midnightblue" stroke="midnightblue" points="102.235,-30.1659 101.579,-19.5914 95.4974,-28.2671 102.235,-30.1659"/>
</g>
<!-- Node3 -->
<g id="node3" class="node"><title>Node3</title>
<polygon fill="none" stroke="#bfbfbf" points="-0.5,-0.5 -0.5,-19.5 58.5,-19.5 58.5,-0.5 -0.5,-0.5"/>
<text text-anchor="middle" x="29" y="-7.5" font-family="FreeSans" font-size="10.00">TObject.h</text>
</g>
<!-- Node2&#45;&gt;Node3 -->
<g id="edge2" class="edge"><title>Node2&#45;&gt;Node3</title>
<path fill="none" stroke="midnightblue" d="M39.8533,-56.083C38.1306,-48.9272 35.6529,-38.6353 33.4997,-29.6911"/>
<polygon fill="midnightblue" stroke="midnightblue" points="36.8501,-28.6541 31.1067,-19.7511 30.0446,-30.2925 36.8501,-28.6541"/>
</g>
<!-- Node2&#45;&gt;Node4 -->
<g id="edge3" class="edge"><title>Node2&#45;&gt;Node4</title>
<path fill="none" stroke="midnightblue" d="M51.9614,-56.324C61.1266,-48.3414 74.9372,-36.3128 86.0282,-26.6529"/>
<polygon fill="midnightblue" stroke="midnightblue" points="88.6153,-29.041 93.8574,-19.8339 84.0178,-23.7624 88.6153,-29.041"/>
</g>
</g>
</svg>
