<?xml version="1.0" encoding="UTF-8" standalone="no"?>
<!DOCTYPE svg PUBLIC "-//W3C//DTD SVG 1.1//EN"
 "http://www.w3.org/Graphics/SVG/1.1/DTD/svg11.dtd">
<!-- Generated by graphviz version 2.36.0 (20140111.2315)
 -->
<!-- Title: fun4all/fun4all/Fun4AllHistoBinDefs.h Pages: 1 -->
<svg width="460pt" height="108pt"
 viewBox="0.00 0.00 460.00 108.00" xmlns="http://www.w3.org/2000/svg" xmlns:xlink="http://www.w3.org/1999/xlink">
<g id="graph0" class="graph" transform="scale(1 1) rotate(0) translate(4 104)">
<title>fun4all/fun4all/Fun4AllHistoBinDefs.h</title>
<!-- Node1 -->
<g id="node1" class="node"><title>Node1</title>
<polygon fill="#bfbfbf" stroke="black" points="155,-69 155,-99 291,-99 291,-69 155,-69"/>
<text text-anchor="start" x="163" y="-87" font-family="FreeSans" font-size="10.00">fun4all/fun4all/Fun4AllHisto</text>
<text text-anchor="middle" x="223" y="-76" font-family="FreeSans" font-size="10.00">BinDefs.h</text>
</g>
<!-- Node2 -->
<g id="node2" class="node"><title>Node2</title>
<g id="a_node2"><a xlink:href="../../d3/d53/Fun4AllDstInputManager_8cc.html" target="_top" xlink:title="fun4all/fun4all/Fun4AllDst\lInputManager.cc">
<polygon fill="none" stroke="black" points="0,-1 0,-31 128,-31 128,-1 0,-1"/>
<text text-anchor="start" x="8" y="-19" font-family="FreeSans" font-size="10.00">fun4all/fun4all/Fun4AllDst</text>
<text text-anchor="middle" x="64" y="-8" font-family="FreeSans" font-size="10.00">InputManager.cc</text>
</a>
</g>
</g>
<!-- Node1&#45;&gt;Node2 -->
<g id="edge1" class="edge"><title>Node1&#45;&gt;Node2</title>
<path fill="none" stroke="midnightblue" d="M179.371,-64.8898C153.643,-54.2103 121.573,-40.8982 97.7798,-31.0218"/>
<polygon fill="midnightblue" stroke="midnightblue" points="178.313,-68.2401 188.891,-68.8413 180.996,-61.7749 178.313,-68.2401"/>
</g>
<!-- Node3 -->
<g id="node3" class="node"><title>Node3</title>
<g id="a_node3"><a xlink:href="../../d8/d7a/Fun4AllServer_8cc.html" target="_top" xlink:title="fun4all/fun4all/Fun4AllServer.cc">
<polygon fill="none" stroke="black" points="146,-6.5 146,-25.5 300,-25.5 300,-6.5 146,-6.5"/>
<text text-anchor="middle" x="223" y="-13.5" font-family="FreeSans" font-size="10.00">fun4all/fun4all/Fun4AllServer.cc</text>
</a>
</g>
</g>
<!-- Node1&#45;&gt;Node3 -->
<g id="edge2" class="edge"><title>Node1&#45;&gt;Node3</title>
<path fill="none" stroke="midnightblue" d="M223,-58.3764C223,-46.9711 223,-34.1364 223,-25.8283"/>
<polygon fill="midnightblue" stroke="midnightblue" points="219.5,-58.6789 223,-68.679 226.5,-58.679 219.5,-58.6789"/>
</g>
<!-- Node4 -->
<g id="node4" class="node"><title>Node4</title>
<g id="a_node4"><a xlink:href="../../df/d03/Fun4AllSyncManager_8cc.html" target="_top" xlink:title="fun4all/fun4all/Fun4AllSync\lManager.cc">
<polygon fill="none" stroke="black" points="318,-1 318,-31 452,-31 452,-1 318,-1"/>
<text text-anchor="start" x="326" y="-19" font-family="FreeSans" font-size="10.00">fun4all/fun4all/Fun4AllSync</text>
<text text-anchor="middle" x="385" y="-8" font-family="FreeSans" font-size="10.00">Manager.cc</text>
</a>
</g>
</g>
<!-- Node1&#45;&gt;Node4 -->
<g id="edge3" class="edge"><title>Node1&#45;&gt;Node4</title>
<path fill="none" stroke="midnightblue" d="M267.106,-65.0308C293.378,-54.3276 326.234,-40.9417 350.583,-31.0218"/>
<polygon fill="midnightblue" stroke="midnightblue" points="265.693,-61.827 257.753,-68.8413 268.335,-68.3096 265.693,-61.827"/>
</g>
</g>
</svg>
