<?xml version="1.0" encoding="UTF-8" standalone="no"?>
<!DOCTYPE svg PUBLIC "-//W3C//DTD SVG 1.1//EN"
 "http://www.w3.org/Graphics/SVG/1.1/DTD/svg11.dtd">
<!-- Generated by graphviz version 2.36.0 (20140111.2315)
 -->
<!-- Title: Fun4AllPrdfInputManager Pages: 1 -->
<svg width="1500pt" height="429pt"
 viewBox="0.00 0.00 1500.00 429.00" xmlns="http://www.w3.org/2000/svg" xmlns:xlink="http://www.w3.org/1999/xlink">
<g id="graph0" class="graph" transform="scale(1 1) rotate(0) translate(4 425)">
<title>Fun4AllPrdfInputManager</title>
<!-- Node1 -->
<g id="node1" class="node"><title>Node1</title>
<polygon fill="#bfbfbf" stroke="black" points="1156.5,-117.5 1156.5,-136.5 1283.5,-136.5 1283.5,-117.5 1156.5,-117.5"/>
<text text-anchor="middle" x="1220" y="-124.5" font-family="FreeSans" font-size="10.00">Fun4AllPrdfInputManager</text>
</g>
<!-- Node2 -->
<g id="node2" class="node"><title>Node2</title>
<g id="a_node2"><a xlink:href="../../d4/da9/classFun4AllInputManager.html" target="_top" xlink:title="Fun4AllInputManager">
<polygon fill="none" stroke="black" points="960.5,-252.5 960.5,-271.5 1069.5,-271.5 1069.5,-252.5 960.5,-252.5"/>
<text text-anchor="middle" x="1015" y="-259.5" font-family="FreeSans" font-size="10.00">Fun4AllInputManager</text>
</a>
</g>
</g>
<!-- Node2&#45;&gt;Node1 -->
<g id="edge1" class="edge"><title>Node2&#45;&gt;Node1</title>
<path fill="none" stroke="midnightblue" d="M1034.37,-245.558C1048.55,-233.216 1068.9,-216.237 1088,-203 1126.25,-176.488 1174.23,-150.306 1200.2,-136.671"/>
<polygon fill="midnightblue" stroke="midnightblue" points="1031.98,-242.993 1026.79,-252.226 1036.61,-248.248 1031.98,-242.993"/>
</g>
<!-- Node9 -->
<g id="node9" class="node"><title>Node9</title>
<polygon fill="none" stroke="#bfbfbf" points="1157.5,-247 1157.5,-277 1282.5,-277 1282.5,-247 1157.5,-247"/>
<text text-anchor="start" x="1165.5" y="-265" font-family="FreeSans" font-size="10.00">std::vector&lt; Fun4AllInput</text>
<text text-anchor="middle" x="1220" y="-254" font-family="FreeSans" font-size="10.00">Manager * &gt;</text>
</g>
<!-- Node2&#45;&gt;Node9 -->
<g id="edge11" class="edge"><title>Node2&#45;&gt;Node9</title>
<path fill="none" stroke="#9a32cd" stroke-dasharray="5,2" d="M1079.61,-262C1104.36,-262 1132.61,-262 1157.18,-262"/>
<polygon fill="#9a32cd" stroke="#9a32cd" points="1079.6,-258.5 1069.6,-262 1079.6,-265.5 1079.6,-258.5"/>
<text text-anchor="middle" x="1113" y="-265" font-family="FreeSans" font-size="10.00"> elements</text>
</g>
<!-- Node3 -->
<g id="node3" class="node"><title>Node3</title>
<g id="a_node3"><a xlink:href="../../d5/dec/classFun4AllBase.html" target="_top" xlink:title="Fun4AllBase">
<polygon fill="none" stroke="black" points="278,-269.5 278,-288.5 350,-288.5 350,-269.5 278,-269.5"/>
<text text-anchor="middle" x="314" y="-276.5" font-family="FreeSans" font-size="10.00">Fun4AllBase</text>
</a>
</g>
</g>
<!-- Node3&#45;&gt;Node2 -->
<g id="edge2" class="edge"><title>Node3&#45;&gt;Node2</title>
<path fill="none" stroke="midnightblue" d="M360.402,-277.896C484.255,-274.884 827.559,-266.534 960.475,-263.302"/>
<polygon fill="midnightblue" stroke="midnightblue" points="360.054,-274.403 350.143,-278.145 360.225,-281.401 360.054,-274.403"/>
</g>
<!-- Node7 -->
<g id="node7" class="node"><title>Node7</title>
<g id="a_node7"><a xlink:href="../../d0/d32/classSubsysReco.html" target="_top" xlink:title="SubsysReco">
<polygon fill="none" stroke="black" points="522.5,-294.5 522.5,-313.5 593.5,-313.5 593.5,-294.5 522.5,-294.5"/>
<text text-anchor="middle" x="558" y="-301.5" font-family="FreeSans" font-size="10.00">SubsysReco</text>
</a>
</g>
</g>
<!-- Node3&#45;&gt;Node7 -->
<g id="edge7" class="edge"><title>Node3&#45;&gt;Node7</title>
<path fill="none" stroke="midnightblue" d="M360.377,-283.688C407.299,-288.535 479.545,-295.999 522.161,-300.401"/>
<polygon fill="midnightblue" stroke="midnightblue" points="360.496,-280.181 350.189,-282.635 359.776,-287.144 360.496,-280.181"/>
</g>
<!-- Node8 -->
<g id="node8" class="node"><title>Node8</title>
<g id="a_node8"><a xlink:href="../../dd/ded/classFun4AllSyncManager.html" target="_top" xlink:title="Fun4AllSyncManager">
<polygon fill="none" stroke="black" points="1382.5,-207.5 1382.5,-226.5 1491.5,-226.5 1491.5,-207.5 1382.5,-207.5"/>
<text text-anchor="middle" x="1437" y="-214.5" font-family="FreeSans" font-size="10.00">Fun4AllSyncManager</text>
</a>
</g>
</g>
<!-- Node3&#45;&gt;Node8 -->
<g id="edge9" class="edge"><title>Node3&#45;&gt;Node8</title>
<path fill="none" stroke="midnightblue" d="M340.719,-293.304C349.206,-297.563 358.825,-301.912 368,-305 449.122,-332.307 471.405,-342 557,-342 557,-342 557,-342 1221,-342 1312.53,-342 1399.91,-256.276 1427.24,-226.809"/>
<polygon fill="midnightblue" stroke="midnightblue" points="342.188,-290.123 331.702,-288.606 338.953,-296.331 342.188,-290.123"/>
</g>
<!-- Node4 -->
<g id="node4" class="node"><title>Node4</title>
<g id="a_node4"><a xlink:title="STL class. ">
<polygon fill="none" stroke="#bfbfbf" points="132.5,-226.5 132.5,-245.5 191.5,-245.5 191.5,-226.5 132.5,-226.5"/>
<text text-anchor="middle" x="162" y="-233.5" font-family="FreeSans" font-size="10.00">std::string</text>
</a>
</g>
</g>
<!-- Node4&#45;&gt;Node1 -->
<g id="edge21" class="edge"><title>Node4&#45;&gt;Node1</title>
<path fill="none" stroke="#9a32cd" stroke-dasharray="5,2" d="M170.505,-216.792C178.174,-199.277 191.57,-173.663 210,-157 247.462,-123.128 262.495,-109 313,-109 313,-109 313,-109 914,-109 997.941,-109 1094.65,-115.878 1156.27,-121.131"/>
<polygon fill="#9a32cd" stroke="#9a32cd" points="167.077,-215.921 166.476,-226.498 173.542,-218.604 167.077,-215.921"/>
<text text-anchor="middle" x="675" y="-112" font-family="FreeSans" font-size="10.00"> topNodeName</text>
</g>
<!-- Node4&#45;&gt;Node2 -->
<g id="edge17" class="edge"><title>Node4&#45;&gt;Node2</title>
<path fill="none" stroke="#9a32cd" stroke-dasharray="5,2" d="M170.852,-254.868C189.195,-295.576 238.99,-388 313,-388 313,-388 313,-388 797,-388 889.356,-388 977.564,-301.59 1005.16,-271.887"/>
<polygon fill="#9a32cd" stroke="#9a32cd" points="173.979,-253.283 166.782,-245.508 167.56,-256.074 173.979,-253.283"/>
<text text-anchor="middle" x="558" y="-413" font-family="FreeSans" font-size="10.00"> topNodeName</text>
<text text-anchor="middle" x="558" y="-402" font-family="FreeSans" font-size="10.00">InputNode</text>
<text text-anchor="middle" x="558" y="-391" font-family="FreeSans" font-size="10.00">filename</text>
</g>
<!-- Node4&#45;&gt;Node3 -->
<g id="edge3" class="edge"><title>Node4&#45;&gt;Node3</title>
<path fill="none" stroke="#9a32cd" stroke-dasharray="5,2" d="M201.496,-248.435C204.369,-249.318 207.228,-250.181 210,-251 232.393,-257.614 257.694,-264.5 277.617,-269.788"/>
<polygon fill="#9a32cd" stroke="#9a32cd" points="202.36,-245.039 191.772,-245.401 200.275,-251.721 202.36,-245.039"/>
<text text-anchor="middle" x="235" y="-268" font-family="FreeSans" font-size="10.00"> ThisName</text>
</g>
<!-- Node14 -->
<g id="node14" class="node"><title>Node14</title>
<polygon fill="none" stroke="#bfbfbf" points="368,-222.5 368,-241.5 474,-241.5 474,-222.5 368,-222.5"/>
<text text-anchor="middle" x="421" y="-229.5" font-family="FreeSans" font-size="10.00">std::list&lt; std::string &gt;</text>
</g>
<!-- Node4&#45;&gt;Node14 -->
<g id="edge19" class="edge"><title>Node4&#45;&gt;Node14</title>
<path fill="none" stroke="#9a32cd" stroke-dasharray="5,2" d="M202.045,-235.392C246.242,-234.704 318.462,-233.58 367.552,-232.816"/>
<polygon fill="#9a32cd" stroke="#9a32cd" points="201.926,-231.894 191.982,-235.549 202.035,-238.893 201.926,-231.894"/>
<text text-anchor="middle" x="235" y="-239" font-family="FreeSans" font-size="10.00"> elements</text>
</g>
<!-- Node16 -->
<g id="node16" class="node"><title>Node16</title>
<g id="a_node16"><a xlink:href="../../dc/d82/classPHNode.html" target="_top" xlink:title="PHNode">
<polygon fill="none" stroke="black" points="287,-159.5 287,-178.5 341,-178.5 341,-159.5 287,-159.5"/>
<text text-anchor="middle" x="314" y="-166.5" font-family="FreeSans" font-size="10.00">PHNode</text>
</a>
</g>
</g>
<!-- Node4&#45;&gt;Node16 -->
<g id="edge25" class="edge"><title>Node4&#45;&gt;Node16</title>
<path fill="none" stroke="#9a32cd" stroke-dasharray="5,2" d="M170.739,-216.738C178.21,-201.004 191.176,-179.82 210,-170 233.782,-157.593 265.057,-159.382 286.879,-162.991"/>
<polygon fill="#9a32cd" stroke="#9a32cd" points="167.437,-215.552 166.616,-226.115 173.845,-218.37 167.437,-215.552"/>
<text text-anchor="middle" x="235" y="-206" font-family="FreeSans" font-size="10.00"> objecttype</text>
<text text-anchor="middle" x="235" y="-195" font-family="FreeSans" font-size="10.00">objectclass</text>
<text text-anchor="middle" x="235" y="-184" font-family="FreeSans" font-size="10.00">type</text>
<text text-anchor="middle" x="235" y="-173" font-family="FreeSans" font-size="10.00">name</text>
</g>
<!-- Node5 -->
<g id="node5" class="node"><title>Node5</title>
<g id="a_node5"><a xlink:title="STL class. ">
<polygon fill="none" stroke="#bfbfbf" points="0.5,-221 0.5,-251 93.5,-251 93.5,-221 0.5,-221"/>
<text text-anchor="start" x="8.5" y="-239" font-family="FreeSans" font-size="10.00">std::basic_string&lt;</text>
<text text-anchor="middle" x="47" y="-228" font-family="FreeSans" font-size="10.00"> char &gt;</text>
</a>
</g>
</g>
<!-- Node5&#45;&gt;Node4 -->
<g id="edge4" class="edge"><title>Node5&#45;&gt;Node4</title>
<path fill="none" stroke="midnightblue" d="M103.885,-236C113.778,-236 123.695,-236 132.425,-236"/>
<polygon fill="midnightblue" stroke="midnightblue" points="103.636,-232.5 93.6357,-236 103.636,-239.5 103.636,-232.5"/>
</g>
<!-- Node6 -->
<g id="node6" class="node"><title>Node6</title>
<polygon fill="none" stroke="#bfbfbf" points="726.5,-294.5 726.5,-313.5 865.5,-313.5 865.5,-294.5 726.5,-294.5"/>
<text text-anchor="middle" x="796" y="-301.5" font-family="FreeSans" font-size="10.00">std::vector&lt; SubsysReco * &gt;</text>
</g>
<!-- Node6&#45;&gt;Node2 -->
<g id="edge5" class="edge"><title>Node6&#45;&gt;Node2</title>
<path fill="none" stroke="#9a32cd" stroke-dasharray="5,2" d="M871.378,-292.875C894.116,-289.156 919.148,-284.74 942,-280 953.859,-277.54 966.717,-274.46 978.241,-271.547"/>
<polygon fill="#9a32cd" stroke="#9a32cd" points="870.763,-289.429 861.449,-294.479 871.88,-296.34 870.763,-289.429"/>
<text text-anchor="middle" x="913" y="-294" font-family="FreeSans" font-size="10.00"> Subsystems</text>
</g>
<!-- Node7&#45;&gt;Node6 -->
<g id="edge6" class="edge"><title>Node7&#45;&gt;Node6</title>
<path fill="none" stroke="#9a32cd" stroke-dasharray="5,2" d="M603.822,-304C638.369,-304 686.745,-304 726.188,-304"/>
<polygon fill="#9a32cd" stroke="#9a32cd" points="603.569,-300.5 593.569,-304 603.569,-307.5 603.569,-300.5"/>
<text text-anchor="middle" x="675" y="-307" font-family="FreeSans" font-size="10.00"> elements</text>
</g>
<!-- Node8&#45;&gt;Node2 -->
<g id="edge8" class="edge"><title>Node8&#45;&gt;Node2</title>
<path fill="none" stroke="#9a32cd" stroke-dasharray="5,2" d="M1371.98,-215.083C1315,-214.32 1229.54,-215.493 1156,-226 1117.12,-231.555 1073.46,-243.772 1045.39,-252.43"/>
<polygon fill="#9a32cd" stroke="#9a32cd" points="1372.23,-218.588 1382.28,-215.247 1372.34,-211.588 1372.23,-218.588"/>
<text text-anchor="middle" x="1220" y="-229" font-family="FreeSans" font-size="10.00"> mySyncManager</text>
</g>
<!-- Node9&#45;&gt;Node8 -->
<g id="edge10" class="edge"><title>Node9&#45;&gt;Node8</title>
<path fill="none" stroke="#9a32cd" stroke-dasharray="5,2" d="M1292.47,-247.042C1324.78,-240.279 1362,-232.488 1390.44,-226.535"/>
<polygon fill="#9a32cd" stroke="#9a32cd" points="1291.68,-243.63 1282.61,-249.105 1293.12,-250.482 1291.68,-243.63"/>
<text text-anchor="middle" x="1333" y="-248" font-family="FreeSans" font-size="10.00"> InManager</text>
</g>
<!-- Node10 -->
<g id="node10" class="node"><title>Node10</title>
<g id="a_node10"><a xlink:href="../../de/dbb/classSyncObject.html" target="_top" xlink:title="SyncObject">
<polygon fill="none" stroke="black" points="981.5,-51.5 981.5,-70.5 1048.5,-70.5 1048.5,-51.5 981.5,-51.5"/>
<text text-anchor="middle" x="1015" y="-58.5" font-family="FreeSans" font-size="10.00">SyncObject</text>
</a>
</g>
</g>
<!-- Node10&#45;&gt;Node1 -->
<g id="edge20" class="edge"><title>Node10&#45;&gt;Node1</title>
<path fill="none" stroke="#9a32cd" stroke-dasharray="5,2" d="M1058.68,-69.0113C1082.37,-73.9865 1112.17,-81.1268 1138,-90 1160.22,-97.6355 1184.61,-109.248 1200.76,-117.423"/>
<polygon fill="#9a32cd" stroke="#9a32cd" points="1059.1,-65.5244 1048.6,-66.9463 1057.69,-72.382 1059.1,-65.5244"/>
<text text-anchor="middle" x="1113" y="-93" font-family="FreeSans" font-size="10.00"> syncobject</text>
</g>
<!-- Node10&#45;&gt;Node8 -->
<g id="edge12" class="edge"><title>Node10&#45;&gt;Node8</title>
<path fill="none" stroke="#9a32cd" stroke-dasharray="5,2" d="M1058.54,-59.4823C1113.13,-59.1182 1209.67,-63.8992 1284,-97 1346.35,-124.764 1405.39,-183.952 1427.17,-207.269"/>
<polygon fill="#9a32cd" stroke="#9a32cd" points="1058.48,-55.9827 1048.52,-59.6106 1058.57,-62.9821 1058.48,-55.9827"/>
<text text-anchor="middle" x="1220" y="-100" font-family="FreeSans" font-size="10.00"> MasterSync</text>
</g>
<!-- Node11 -->
<g id="node11" class="node"><title>Node11</title>
<g id="a_node11"><a xlink:href="../../d9/d24/classPHObject.html" target="_top" xlink:title="PHObject">
<polygon fill="none" stroke="black" points="766.5,-51.5 766.5,-70.5 825.5,-70.5 825.5,-51.5 766.5,-51.5"/>
<text text-anchor="middle" x="796" y="-58.5" font-family="FreeSans" font-size="10.00">PHObject</text>
</a>
</g>
</g>
<!-- Node11&#45;&gt;Node10 -->
<g id="edge13" class="edge"><title>Node11&#45;&gt;Node10</title>
<path fill="none" stroke="midnightblue" d="M835.813,-55.6833C877.244,-53.6727 942.175,-53.7774 981.159,-55.9973"/>
<polygon fill="midnightblue" stroke="midnightblue" points="835.606,-52.1893 825.816,-56.24 835.995,-59.1785 835.606,-52.1893"/>
</g>
<!-- Node11&#45;&gt;Node10 -->
<g id="edge15" class="edge"><title>Node11&#45;&gt;Node10</title>
<path fill="none" stroke="midnightblue" d="M835.813,-66.3167C877.244,-68.3273 942.175,-68.2226 981.159,-66.0027"/>
<polygon fill="midnightblue" stroke="midnightblue" points="835.995,-62.8215 825.816,-65.76 835.606,-69.8107 835.995,-62.8215"/>
</g>
<!-- Node12 -->
<g id="node12" class="node"><title>Node12</title>
<polygon fill="none" stroke="#bfbfbf" points="532.5,-51.5 532.5,-70.5 583.5,-70.5 583.5,-51.5 532.5,-51.5"/>
<text text-anchor="middle" x="558" y="-58.5" font-family="FreeSans" font-size="10.00">TObject</text>
</g>
<!-- Node12&#45;&gt;Node11 -->
<g id="edge14" class="edge"><title>Node12&#45;&gt;Node11</title>
<path fill="none" stroke="midnightblue" d="M594.064,-61C640.83,-61 722.751,-61 766.139,-61"/>
<polygon fill="midnightblue" stroke="midnightblue" points="593.81,-57.5001 583.81,-61 593.81,-64.5001 593.81,-57.5001"/>
</g>
<!-- Node13 -->
<g id="node13" class="node"><title>Node13</title>
<polygon fill="none" stroke="#bfbfbf" points="1175.5,-0.5 1175.5,-19.5 1264.5,-19.5 1264.5,-0.5 1175.5,-0.5"/>
<text text-anchor="middle" x="1220" y="-7.5" font-family="FreeSans" font-size="10.00">std::vector&lt; int &gt;</text>
</g>
<!-- Node13&#45;&gt;Node8 -->
<g id="edge16" class="edge"><title>Node13&#45;&gt;Node8</title>
<path fill="none" stroke="#9a32cd" stroke-dasharray="5,2" d="M1274.66,-5.48244C1303.94,-5.832 1339.18,-11.1863 1364,-31 1421.91,-77.2266 1433.32,-176.143 1435.5,-207.356"/>
<polygon fill="#9a32cd" stroke="#9a32cd" points="1274.55,-1.98299 1264.58,-5.55201 1274.6,-8.98283 1274.55,-1.98299"/>
<text text-anchor="middle" x="1333" y="-34" font-family="FreeSans" font-size="10.00"> iretInManager</text>
</g>
<!-- Node14&#45;&gt;Node2 -->
<g id="edge18" class="edge"><title>Node14&#45;&gt;Node2</title>
<path fill="none" stroke="#9a32cd" stroke-dasharray="5,2" d="M484.392,-227.33C528.41,-224.276 588.779,-220.571 642,-219 671.321,-218.134 678.738,-216.954 708,-219 797.907,-225.286 901.595,-241.84 962.256,-252.478"/>
<polygon fill="#9a32cd" stroke="#9a32cd" points="484.144,-223.838 474.414,-228.03 484.634,-230.821 484.144,-223.838"/>
<text text-anchor="middle" x="675" y="-244" font-family="FreeSans" font-size="10.00"> filelist</text>
<text text-anchor="middle" x="675" y="-233" font-family="FreeSans" font-size="10.00">filelist_copy</text>
<text text-anchor="middle" x="675" y="-222" font-family="FreeSans" font-size="10.00">filelist_opened</text>
</g>
<!-- Node15 -->
<g id="node15" class="node"><title>Node15</title>
<g id="a_node15"><a xlink:href="../../d5/dca/classPHCompositeNode.html" target="_top" xlink:title="PHCompositeNode">
<polygon fill="none" stroke="black" points="745.5,-145.5 745.5,-164.5 846.5,-164.5 846.5,-145.5 745.5,-145.5"/>
<text text-anchor="middle" x="796" y="-152.5" font-family="FreeSans" font-size="10.00">PHCompositeNode</text>
</a>
</g>
</g>
<!-- Node15&#45;&gt;Node1 -->
<g id="edge22" class="edge"><title>Node15&#45;&gt;Node1</title>
<path fill="none" stroke="#9a32cd" stroke-dasharray="5,2" d="M856.961,-151.022C936.284,-145.758 1075.46,-136.524 1156.19,-131.168"/>
<polygon fill="#9a32cd" stroke="#9a32cd" points="856.396,-147.551 846.65,-151.706 856.86,-154.536 856.396,-147.551"/>
<text text-anchor="middle" x="1015" y="-147" font-family="FreeSans" font-size="10.00"> topNode</text>
</g>
<!-- Node16&#45;&gt;Node15 -->
<g id="edge23" class="edge"><title>Node16&#45;&gt;Node15</title>
<path fill="none" stroke="midnightblue" d="M351.681,-170.57C421.279,-173.16 577.24,-177.099 708,-167 720.162,-166.061 733.218,-164.537 745.423,-162.885"/>
<polygon fill="midnightblue" stroke="midnightblue" points="351.396,-167.057 341.269,-170.168 351.127,-174.051 351.396,-167.057"/>
</g>
<!-- Node16&#45;&gt;Node16 -->
<g id="edge24" class="edge"><title>Node16&#45;&gt;Node16</title>
<path fill="none" stroke="#9a32cd" stroke-dasharray="5,2" d="M299.636,-188.766C300.764,-193.497 305.552,-197 314,-197 327.863,-197 331.871,-187.565 326.022,-178.757"/>
<polygon fill="#9a32cd" stroke="#9a32cd" points="303.107,-189.292 301.978,-178.757 296.292,-187.697 303.107,-189.292"/>
<text text-anchor="middle" x="314" y="-200" font-family="FreeSans" font-size="10.00"> parent</text>
</g>
<!-- Node17 -->
<g id="node17" class="node"><title>Node17</title>
<g id="a_node17"><a xlink:href="../../d6/d86/classPHPointerList.html" target="_top" xlink:title="PHPointerList\&lt; PHNode \&gt;">
<polygon fill="none" stroke="black" points="492,-137.5 492,-156.5 624,-156.5 624,-137.5 492,-137.5"/>
<text text-anchor="middle" x="558" y="-144.5" font-family="FreeSans" font-size="10.00">PHPointerList&lt; PHNode &gt;</text>
</a>
</g>
</g>
<!-- Node16&#45;&gt;Node17 -->
<g id="edge27" class="edge"><title>Node16&#45;&gt;Node17</title>
<path fill="none" stroke="#9a32cd" stroke-dasharray="5,2" d="M351.031,-162.387C356.696,-161.49 362.497,-160.655 368,-160 408.988,-155.123 455.211,-151.903 491.685,-149.888"/>
<polygon fill="#9a32cd" stroke="#9a32cd" points="350.365,-158.949 341.074,-164.041 351.513,-165.855 350.365,-158.949"/>
<text text-anchor="middle" x="421" y="-163" font-family="FreeSans" font-size="10.00"> items</text>
</g>
<!-- Node17&#45;&gt;Node15 -->
<g id="edge26" class="edge"><title>Node17&#45;&gt;Node15</title>
<path fill="none" stroke="#9a32cd" stroke-dasharray="5,2" d="M634.191,-149.549C670.562,-150.782 713.211,-152.227 745.445,-153.32"/>
<polygon fill="#9a32cd" stroke="#9a32cd" points="634.226,-146.048 624.113,-149.207 633.988,-153.044 634.226,-146.048"/>
<text text-anchor="middle" x="675" y="-155" font-family="FreeSans" font-size="10.00"> subNodes</text>
</g>
</g>
</svg>
