<?xml version="1.0" encoding="UTF-8" standalone="no"?>
<!DOCTYPE svg PUBLIC "-//W3C//DTD SVG 1.1//EN"
 "http://www.w3.org/Graphics/SVG/1.1/DTD/svg11.dtd">
<!-- Generated by graphviz version 2.36.0 (20140111.2315)
 -->
<!-- Title: Fun4AllEventOutputManager Pages: 1 -->
<svg width="1028pt" height="168pt"
 viewBox="0.00 0.00 1028.00 167.90" xmlns="http://www.w3.org/2000/svg" xmlns:xlink="http://www.w3.org/1999/xlink">
<g id="graph0" class="graph" transform="scale(1 1) rotate(0) translate(4 163.902)">
<title>Fun4AllEventOutputManager</title>
<!-- Node1 -->
<g id="node1" class="node"><title>Node1</title>
<polygon fill="#bfbfbf" stroke="black" points="662.5,-74.4016 662.5,-93.4016 803.5,-93.4016 803.5,-74.4016 662.5,-74.4016"/>
<text text-anchor="middle" x="733" y="-81.4016" font-family="FreeSans" font-size="10.00">Fun4AllEventOutputManager</text>
</g>
<!-- Node8 -->
<g id="node8" class="node"><title>Node8</title>
<g id="a_node8"><a xlink:href="../../dc/dab/classFun4AllEventOutStream.html" target="_top" xlink:title="Fun4AllEventOutStream">
<polygon fill="none" stroke="black" points="898,-89.4016 898,-108.402 1020,-108.402 1020,-89.4016 898,-89.4016"/>
<text text-anchor="middle" x="959" y="-96.4016" font-family="FreeSans" font-size="10.00">Fun4AllEventOutStream</text>
</a>
</g>
</g>
<!-- Node1&#45;&gt;Node8 -->
<g id="edge11" class="edge"><title>Node1&#45;&gt;Node8</title>
<path fill="none" stroke="#9a32cd" stroke-dasharray="5,2" d="M813.716,-78.4106C835.282,-77.9742 858.58,-78.4621 880,-80.9016 894.637,-82.5685 910.525,-85.9411 924.12,-89.321"/>
<polygon fill="#9a32cd" stroke="#9a32cd" points="813.516,-74.9146 803.615,-78.6834 813.705,-81.9121 813.516,-74.9146"/>
<text text-anchor="middle" x="851" y="-83.9016" font-family="FreeSans" font-size="10.00"> mymanager</text>
</g>
<!-- Node2 -->
<g id="node2" class="node"><title>Node2</title>
<g id="a_node2"><a xlink:href="../../d8/d77/classFun4AllOutputManager.html" target="_top" xlink:title="Fun4AllOutputManager">
<polygon fill="none" stroke="black" points="508,-74.4016 508,-93.4016 624,-93.4016 624,-74.4016 508,-74.4016"/>
<text text-anchor="middle" x="566" y="-81.4016" font-family="FreeSans" font-size="10.00">Fun4AllOutputManager</text>
</a>
</g>
</g>
<!-- Node2&#45;&gt;Node1 -->
<g id="edge1" class="edge"><title>Node2&#45;&gt;Node1</title>
<path fill="none" stroke="midnightblue" d="M634.485,-83.9016C643.672,-83.9016 653.117,-83.9016 662.343,-83.9016"/>
<polygon fill="midnightblue" stroke="midnightblue" points="634.246,-80.4017 624.246,-83.9016 634.246,-87.4017 634.246,-80.4017"/>
</g>
<!-- Node3 -->
<g id="node3" class="node"><title>Node3</title>
<g id="a_node3"><a xlink:href="../../d5/dec/classFun4AllBase.html" target="_top" xlink:title="Fun4AllBase">
<polygon fill="none" stroke="black" points="300,-140.402 300,-159.402 372,-159.402 372,-140.402 300,-140.402"/>
<text text-anchor="middle" x="336" y="-147.402" font-family="FreeSans" font-size="10.00">Fun4AllBase</text>
</a>
</g>
</g>
<!-- Node3&#45;&gt;Node2 -->
<g id="edge2" class="edge"><title>Node3&#45;&gt;Node2</title>
<path fill="none" stroke="midnightblue" d="M382.105,-145.115C413.039,-140.998 454.709,-133.792 490,-121.902 511.579,-114.631 534.709,-102.111 549.487,-93.4384"/>
<polygon fill="midnightblue" stroke="midnightblue" points="381.528,-141.66 372.05,-146.395 382.412,-148.604 381.528,-141.66"/>
</g>
<!-- Node3&#45;&gt;Node8 -->
<g id="edge10" class="edge"><title>Node3&#45;&gt;Node8</title>
<path fill="none" stroke="midnightblue" d="M382.574,-149.029C413.011,-148.295 453.926,-147.016 490,-144.902 663.655,-134.724 707.4,-133.551 880,-111.902 887.901,-110.911 896.225,-109.701 904.376,-108.424"/>
<polygon fill="midnightblue" stroke="midnightblue" points="382.186,-145.537 372.27,-149.267 382.348,-152.535 382.186,-145.537"/>
</g>
<!-- Node4 -->
<g id="node4" class="node"><title>Node4</title>
<g id="a_node4"><a xlink:title="STL class. ">
<polygon fill="none" stroke="#bfbfbf" points="132.5,-73.4016 132.5,-92.4016 191.5,-92.4016 191.5,-73.4016 132.5,-73.4016"/>
<text text-anchor="middle" x="162" y="-80.4016" font-family="FreeSans" font-size="10.00">std::string</text>
</a>
</g>
</g>
<!-- Node4&#45;&gt;Node1 -->
<g id="edge13" class="edge"><title>Node4&#45;&gt;Node1</title>
<path fill="none" stroke="#9a32cd" stroke-dasharray="5,2" d="M180.165,-66.4594C200.913,-47.8757 237.821,-18.7948 276,-7.90156 327.287,6.73155 342.88,-3.1368 396,-7.90156 454.525,-13.1512 621.168,-55.1192 695.47,-74.3442"/>
<polygon fill="#9a32cd" stroke="#9a32cd" points="177.784,-63.8934 172.791,-73.238 182.522,-69.0467 177.784,-63.8934"/>
<text text-anchor="middle" x="452" y="-27.9016" font-family="FreeSans" font-size="10.00"> outfilerule</text>
</g>
<!-- Node4&#45;&gt;Node2 -->
<g id="edge6" class="edge"><title>Node4&#45;&gt;Node2</title>
<path fill="none" stroke="#9a32cd" stroke-dasharray="5,2" d="M201.895,-85.9978C263.191,-90.4205 385.995,-97.4328 490,-91.9016 495.754,-91.5956 501.745,-91.1584 507.722,-90.6443"/>
<polygon fill="#9a32cd" stroke="#9a32cd" points="202.121,-82.505 191.89,-85.2592 201.605,-89.486 202.121,-82.505"/>
<text text-anchor="middle" x="336" y="-96.9016" font-family="FreeSans" font-size="10.00"> outfilename</text>
</g>
<!-- Node4&#45;&gt;Node3 -->
<g id="edge3" class="edge"><title>Node4&#45;&gt;Node3</title>
<path fill="none" stroke="#9a32cd" stroke-dasharray="5,2" d="M177.913,-100.042C186.449,-108.788 197.858,-118.835 210,-124.902 238.311,-139.046 273.997,-145.189 299.984,-147.856"/>
<polygon fill="#9a32cd" stroke="#9a32cd" points="180.309,-97.4783 170.942,-92.5264 175.177,-102.238 180.309,-97.4783"/>
<text text-anchor="middle" x="234" y="-142.902" font-family="FreeSans" font-size="10.00"> ThisName</text>
</g>
<!-- Node7 -->
<g id="node7" class="node"><title>Node7</title>
<polygon fill="none" stroke="#bfbfbf" points="276,-17.4016 276,-36.4016 396,-36.4016 396,-17.4016 276,-17.4016"/>
<text text-anchor="middle" x="336" y="-24.4016" font-family="FreeSans" font-size="10.00">std::vector&lt; std::string &gt;</text>
</g>
<!-- Node4&#45;&gt;Node7 -->
<g id="edge8" class="edge"><title>Node4&#45;&gt;Node7</title>
<path fill="none" stroke="#9a32cd" stroke-dasharray="5,2" d="M201.37,-70.2865C223.232,-63.1116 251.142,-53.9738 276,-45.9016 285.519,-42.8106 295.908,-39.4579 305.279,-36.4416"/>
<polygon fill="#9a32cd" stroke="#9a32cd" points="200.192,-66.9892 191.783,-73.4341 202.376,-73.6399 200.192,-66.9892"/>
<text text-anchor="middle" x="234" y="-69.9016" font-family="FreeSans" font-size="10.00"> elements</text>
</g>
<!-- Node5 -->
<g id="node5" class="node"><title>Node5</title>
<g id="a_node5"><a xlink:title="STL class. ">
<polygon fill="none" stroke="#bfbfbf" points="0.5,-67.9016 0.5,-97.9016 93.5,-97.9016 93.5,-67.9016 0.5,-67.9016"/>
<text text-anchor="start" x="8.5" y="-85.9016" font-family="FreeSans" font-size="10.00">std::basic_string&lt;</text>
<text text-anchor="middle" x="47" y="-74.9016" font-family="FreeSans" font-size="10.00"> char &gt;</text>
</a>
</g>
</g>
<!-- Node5&#45;&gt;Node4 -->
<g id="edge4" class="edge"><title>Node5&#45;&gt;Node4</title>
<path fill="none" stroke="midnightblue" d="M103.885,-82.9016C113.778,-82.9016 123.695,-82.9016 132.425,-82.9016"/>
<polygon fill="midnightblue" stroke="midnightblue" points="103.636,-79.4017 93.6357,-82.9016 103.636,-86.4017 103.636,-79.4017"/>
</g>
<!-- Node6 -->
<g id="node6" class="node"><title>Node6</title>
<polygon fill="none" stroke="#bfbfbf" points="277.5,-55.4016 277.5,-74.4016 394.5,-74.4016 394.5,-55.4016 277.5,-55.4016"/>
<text text-anchor="middle" x="336" y="-62.4016" font-family="FreeSans" font-size="10.00">std::vector&lt; unsigned &gt;</text>
</g>
<!-- Node6&#45;&gt;Node2 -->
<g id="edge5" class="edge"><title>Node6&#45;&gt;Node2</title>
<path fill="none" stroke="#9a32cd" stroke-dasharray="5,2" d="M404.523,-70.5285C437.402,-73.2684 476.505,-76.527 507.88,-79.1415"/>
<polygon fill="#9a32cd" stroke="#9a32cd" points="404.79,-67.0387 394.534,-69.6961 404.209,-74.0145 404.79,-67.0387"/>
<text text-anchor="middle" x="452" y="-79.9016" font-family="FreeSans" font-size="10.00"> recomoduleindex</text>
</g>
<!-- Node7&#45;&gt;Node2 -->
<g id="edge7" class="edge"><title>Node7&#45;&gt;Node2</title>
<path fill="none" stroke="#9a32cd" stroke-dasharray="5,2" d="M405.978,-37.4082C432.48,-42.1125 462.87,-48.3254 490,-55.9016 507.938,-60.9108 527.646,-68.3476 542.357,-74.2982"/>
<polygon fill="#9a32cd" stroke="#9a32cd" points="406.477,-33.9426 396.026,-35.6793 405.279,-40.8393 406.477,-33.9426"/>
<text text-anchor="middle" x="452" y="-58.9016" font-family="FreeSans" font-size="10.00"> EventSelectors</text>
</g>
<!-- Node8&#45;&gt;Node1 -->
<g id="edge9" class="edge"><title>Node8&#45;&gt;Node1</title>
<path fill="none" stroke="#9a32cd" stroke-dasharray="5,2" d="M887.521,-97.3353C866.429,-96.5902 843.26,-95.498 822,-93.9016 816.02,-93.4525 809.82,-92.9082 803.605,-92.3081"/>
<polygon fill="#9a32cd" stroke="#9a32cd" points="887.579,-100.839 897.69,-97.6739 887.812,-93.843 887.579,-100.839"/>
<text text-anchor="middle" x="851" y="-99.9016" font-family="FreeSans" font-size="10.00"> outstream</text>
</g>
<!-- Node9 -->
<g id="node9" class="node"><title>Node9</title>
<polygon fill="none" stroke="#bfbfbf" points="682.5,-14.4016 682.5,-55.4016 783.5,-55.4016 783.5,-14.4016 682.5,-14.4016"/>
<text text-anchor="start" x="690.5" y="-43.4016" font-family="FreeSans" font-size="10.00">std::map&lt; int, boost</text>
<text text-anchor="start" x="690.5" y="-32.4016" font-family="FreeSans" font-size="10.00">::numeric::interval&lt;</text>
<text text-anchor="middle" x="733" y="-21.4016" font-family="FreeSans" font-size="10.00"> int &gt; &gt;</text>
</g>
<!-- Node9&#45;&gt;Node8 -->
<g id="edge12" class="edge"><title>Node9&#45;&gt;Node8</title>
<path fill="none" stroke="#9a32cd" stroke-dasharray="5,2" d="M793.873,-36.1382C820.787,-38.1385 852.591,-42.5406 880,-51.9016 905.285,-60.5372 931.179,-78.254 945.858,-89.2985"/>
<polygon fill="#9a32cd" stroke="#9a32cd" points="794.023,-32.6407 783.817,-35.4839 793.569,-39.6259 794.023,-32.6407"/>
<text text-anchor="middle" x="851" y="-65.9016" font-family="FreeSans" font-size="10.00"> addpktrange</text>
<text text-anchor="middle" x="851" y="-54.9016" font-family="FreeSans" font-size="10.00">droppktrange</text>
</g>
</g>
</svg>
