<?xml version="1.0" encoding="UTF-8" standalone="no"?>
<!DOCTYPE svg PUBLIC "-//W3C//DTD SVG 1.1//EN"
 "http://www.w3.org/Graphics/SVG/1.1/DTD/svg11.dtd">
<!-- Generated by graphviz version 2.36.0 (20140111.2315)
 -->
<!-- Title: fun4all/fun4all/Fun4AllBase.h Pages: 1 -->
<svg width="150pt" height="84pt"
 viewBox="0.00 0.00 150.00 84.00" xmlns="http://www.w3.org/2000/svg" xmlns:xlink="http://www.w3.org/1999/xlink">
<g id="graph0" class="graph" transform="scale(1 1) rotate(0) translate(4 80)">
<title>fun4all/fun4all/Fun4AllBase.h</title>
<!-- Node1 -->
<g id="node1" class="node"><title>Node1</title>
<polygon fill="#bfbfbf" stroke="black" points="-0.5,-56.5 -0.5,-75.5 142.5,-75.5 142.5,-56.5 -0.5,-56.5"/>
<text text-anchor="middle" x="71" y="-63.5" font-family="FreeSans" font-size="10.00">fun4all/fun4all/Fun4AllBase.h</text>
</g>
<!-- Node2 -->
<g id="node2" class="node"><title>Node2</title>
<polygon fill="none" stroke="#bfbfbf" points="20.5,-0.5 20.5,-19.5 61.5,-19.5 61.5,-0.5 20.5,-0.5"/>
<text text-anchor="middle" x="41" y="-7.5" font-family="FreeSans" font-size="10.00">string</text>
</g>
<!-- Node1&#45;&gt;Node2 -->
<g id="edge1" class="edge"><title>Node1&#45;&gt;Node2</title>
<path fill="none" stroke="midnightblue" d="M66.0461,-56.083C61.8959,-48.6127 55.8469,-37.7244 50.7333,-28.5199"/>
<polygon fill="midnightblue" stroke="midnightblue" points="53.7777,-26.7929 45.8617,-19.7511 47.6586,-30.1924 53.7777,-26.7929"/>
</g>
<!-- Node3 -->
<g id="node3" class="node"><title>Node3</title>
<polygon fill="none" stroke="#bfbfbf" points="79.5,-0.5 79.5,-19.5 124.5,-19.5 124.5,-0.5 79.5,-0.5"/>
<text text-anchor="middle" x="102" y="-7.5" font-family="FreeSans" font-size="10.00">climits</text>
</g>
<!-- Node1&#45;&gt;Node3 -->
<g id="edge2" class="edge"><title>Node1&#45;&gt;Node3</title>
<path fill="none" stroke="midnightblue" d="M76.119,-56.083C80.4075,-48.6127 86.6582,-37.7244 91.9423,-28.5199"/>
<polygon fill="midnightblue" stroke="midnightblue" points="95.0329,-30.1662 96.9762,-19.7511 88.9621,-26.6811 95.0329,-30.1662"/>
</g>
</g>
</svg>
