<?xml version="1.0" encoding="UTF-8" standalone="no"?>
<!DOCTYPE svg PUBLIC "-//W3C//DTD SVG 1.1//EN"
 "http://www.w3.org/Graphics/SVG/1.1/DTD/svg11.dtd">
<!-- Generated by graphviz version 2.36.0 (20140111.2315)
 -->
<!-- Title: SHit_v1 Pages: 1 -->
<svg width="66pt" height="196pt"
 viewBox="0.00 0.00 66.00 196.00" xmlns="http://www.w3.org/2000/svg" xmlns:xlink="http://www.w3.org/1999/xlink">
<g id="graph0" class="graph" transform="scale(1 1) rotate(0) translate(4 192)">
<title>SHit_v1</title>
<!-- Node1 -->
<g id="node1" class="node"><title>Node1</title>
<polygon fill="#bfbfbf" stroke="black" points="3,-0.5 3,-19.5 55,-19.5 55,-0.5 3,-0.5"/>
<text text-anchor="middle" x="29" y="-7.5" font-family="FreeSans" font-size="10.00">SHit_v1</text>
</g>
<!-- Node2 -->
<g id="node2" class="node"><title>Node2</title>
<g id="a_node2"><a xlink:href="../../d0/da1/classSHit.html" target="_top" xlink:title="SHit">
<polygon fill="none" stroke="black" points="11,-56.5 11,-75.5 47,-75.5 47,-56.5 11,-56.5"/>
<text text-anchor="middle" x="29" y="-63.5" font-family="FreeSans" font-size="10.00">SHit</text>
</a>
</g>
</g>
<!-- Node2&#45;&gt;Node1 -->
<g id="edge1" class="edge"><title>Node2&#45;&gt;Node1</title>
<path fill="none" stroke="midnightblue" d="M29,-45.8045C29,-36.9102 29,-26.7798 29,-19.7511"/>
<polygon fill="midnightblue" stroke="midnightblue" points="25.5001,-46.083 29,-56.083 32.5001,-46.083 25.5001,-46.083"/>
</g>
<!-- Node3 -->
<g id="node3" class="node"><title>Node3</title>
<g id="a_node3"><a xlink:href="../../d9/d24/classPHObject.html" target="_top" xlink:title="PHObject">
<polygon fill="none" stroke="black" points="-0.5,-112.5 -0.5,-131.5 58.5,-131.5 58.5,-112.5 -0.5,-112.5"/>
<text text-anchor="middle" x="29" y="-119.5" font-family="FreeSans" font-size="10.00">PHObject</text>
</a>
</g>
</g>
<!-- Node3&#45;&gt;Node2 -->
<g id="edge2" class="edge"><title>Node3&#45;&gt;Node2</title>
<path fill="none" stroke="midnightblue" d="M29,-101.805C29,-92.9102 29,-82.7798 29,-75.7511"/>
<polygon fill="midnightblue" stroke="midnightblue" points="25.5001,-102.083 29,-112.083 32.5001,-102.083 25.5001,-102.083"/>
</g>
<!-- Node4 -->
<g id="node4" class="node"><title>Node4</title>
<polygon fill="none" stroke="#bfbfbf" points="3.5,-168.5 3.5,-187.5 54.5,-187.5 54.5,-168.5 3.5,-168.5"/>
<text text-anchor="middle" x="29" y="-175.5" font-family="FreeSans" font-size="10.00">TObject</text>
</g>
<!-- Node4&#45;&gt;Node3 -->
<g id="edge3" class="edge"><title>Node4&#45;&gt;Node3</title>
<path fill="none" stroke="midnightblue" d="M29,-157.805C29,-148.91 29,-138.78 29,-131.751"/>
<polygon fill="midnightblue" stroke="midnightblue" points="25.5001,-158.083 29,-168.083 32.5001,-158.083 25.5001,-158.083"/>
</g>
</g>
</svg>
