<?xml version="1.0" encoding="UTF-8" standalone="no"?>
<!DOCTYPE svg PUBLIC "-//W3C//DTD SVG 1.1//EN"
 "http://www.w3.org/Graphics/SVG/1.1/DTD/svg11.dtd">
<!-- Generated by graphviz version 2.36.0 (20140111.2315)
 -->
<!-- Title: fun4all/phool/PHTypedNodeIterator.h Pages: 1 -->
<svg width="203pt" height="376pt"
 viewBox="0.00 0.00 203.00 376.00" xmlns="http://www.w3.org/2000/svg" xmlns:xlink="http://www.w3.org/1999/xlink">
<g id="graph0" class="graph" transform="scale(1 1) rotate(0) translate(4 372)">
<title>fun4all/phool/PHTypedNodeIterator.h</title>
<!-- Node1 -->
<g id="node1" class="node"><title>Node1</title>
<polygon fill="#bfbfbf" stroke="black" points="50.6,-337 50.6,-367 188.6,-367 188.6,-337 50.6,-337"/>
<text text-anchor="start" x="58.6" y="-355" font-family="FreeSans" font-size="10.00">fun4all/phool/PHTypedNode</text>
<text text-anchor="middle" x="119.6" y="-344" font-family="FreeSans" font-size="10.00">Iterator.h</text>
</g>
<!-- Node2 -->
<g id="node2" class="node"><title>Node2</title>
<g id="a_node2"><a xlink:href="../../d8/dfd/PHNodeIterator_8h.html" target="_top" xlink:title="PHNodeIterator.h">
<polygon fill="none" stroke="black" points="29.6,-280.5 29.6,-299.5 121.6,-299.5 121.6,-280.5 29.6,-280.5"/>
<text text-anchor="middle" x="75.6" y="-287.5" font-family="FreeSans" font-size="10.00">PHNodeIterator.h</text>
</a>
</g>
</g>
<!-- Node1&#45;&gt;Node2 -->
<g id="edge1" class="edge"><title>Node1&#45;&gt;Node2</title>
<path fill="none" stroke="midnightblue" d="M109.173,-336.781C102.845,-328.152 94.7314,-317.088 88.0657,-307.999"/>
<polygon fill="midnightblue" stroke="midnightblue" points="90.7385,-305.725 82.0024,-299.731 85.0937,-309.864 90.7385,-305.725"/>
</g>
<!-- Node10 -->
<g id="node10" class="node"><title>Node10</title>
<polygon fill="none" stroke="#bfbfbf" points="140.1,-280.5 140.1,-299.5 189.1,-299.5 189.1,-280.5 140.1,-280.5"/>
<text text-anchor="middle" x="164.6" y="-287.5" font-family="FreeSans" font-size="10.00">cstddef</text>
</g>
<!-- Node1&#45;&gt;Node10 -->
<g id="edge15" class="edge"><title>Node1&#45;&gt;Node10</title>
<path fill="none" stroke="midnightblue" d="M130.264,-336.781C136.736,-328.152 145.034,-317.088 151.851,-307.999"/>
<polygon fill="midnightblue" stroke="midnightblue" points="154.852,-309.831 158.052,-299.731 149.252,-305.631 154.852,-309.831"/>
</g>
<!-- Node3 -->
<g id="node3" class="node"><title>Node3</title>
<g id="a_node3"><a xlink:href="../../d5/d6f/phool_8h.html" target="_top" xlink:title="phool.h">
<polygon fill="none" stroke="black" points="11.1,-56.5 11.1,-75.5 58.1,-75.5 58.1,-56.5 11.1,-56.5"/>
<text text-anchor="middle" x="34.6" y="-63.5" font-family="FreeSans" font-size="10.00">phool.h</text>
</a>
</g>
</g>
<!-- Node2&#45;&gt;Node3 -->
<g id="edge2" class="edge"><title>Node2&#45;&gt;Node3</title>
<path fill="none" stroke="midnightblue" d="M54.7527,-280.427C40.0222,-273.129 21.3951,-261.091 12.6,-244 -14.5054,-191.329 11.183,-118.541 25.8998,-85.1112"/>
<polygon fill="midnightblue" stroke="midnightblue" points="29.2215,-86.2643 30.2116,-75.7159 22.8595,-83.3445 29.2215,-86.2643"/>
</g>
<!-- Node5 -->
<g id="node5" class="node"><title>Node5</title>
<g id="a_node5"><a xlink:href="../../d8/d30/PHCompositeNode_8h.html" target="_top" xlink:title="PHCompositeNode.h">
<polygon fill="none" stroke="black" points="21.6,-224.5 21.6,-243.5 129.6,-243.5 129.6,-224.5 21.6,-224.5"/>
<text text-anchor="middle" x="75.6" y="-231.5" font-family="FreeSans" font-size="10.00">PHCompositeNode.h</text>
</a>
</g>
</g>
<!-- Node2&#45;&gt;Node5 -->
<g id="edge4" class="edge"><title>Node2&#45;&gt;Node5</title>
<path fill="none" stroke="midnightblue" d="M75.6,-280.083C75.6,-273.006 75.6,-262.861 75.6,-253.986"/>
<polygon fill="midnightblue" stroke="midnightblue" points="79.1001,-253.751 75.6,-243.751 72.1001,-253.751 79.1001,-253.751"/>
</g>
<!-- Node9 -->
<g id="node9" class="node"><title>Node9</title>
<g id="a_node9"><a xlink:href="../../db/dd5/PHPointerList_8h.html" target="_top" xlink:title="PHPointerList.h">
<polygon fill="none" stroke="black" points="103.6,-168.5 103.6,-187.5 189.6,-187.5 189.6,-168.5 103.6,-168.5"/>
<text text-anchor="middle" x="146.6" y="-175.5" font-family="FreeSans" font-size="10.00">PHPointerList.h</text>
</a>
</g>
</g>
<!-- Node2&#45;&gt;Node9 -->
<g id="edge14" class="edge"><title>Node2&#45;&gt;Node9</title>
<path fill="none" stroke="midnightblue" d="M95.243,-280.404C109.75,-272.963 128.638,-260.751 138.6,-244 146.863,-230.105 148.415,-211.593 148.162,-197.879"/>
<polygon fill="midnightblue" stroke="midnightblue" points="151.647,-197.5 147.632,-187.695 144.657,-197.864 151.647,-197.5"/>
</g>
<!-- Node4 -->
<g id="node4" class="node"><title>Node4</title>
<polygon fill="none" stroke="#bfbfbf" points="94.6,-0.5 94.6,-19.5 148.6,-19.5 148.6,-0.5 94.6,-0.5"/>
<text text-anchor="middle" x="121.6" y="-7.5" font-family="FreeSans" font-size="10.00">iostream</text>
</g>
<!-- Node3&#45;&gt;Node4 -->
<g id="edge3" class="edge"><title>Node3&#45;&gt;Node4</title>
<path fill="none" stroke="midnightblue" d="M48.5781,-56.324C62.1497,-47.9002 82.9802,-34.9709 98.925,-25.0741"/>
<polygon fill="midnightblue" stroke="midnightblue" points="101.006,-27.9019 107.657,-19.6545 97.3145,-21.9544 101.006,-27.9019"/>
</g>
<!-- Node5&#45;&gt;Node3 -->
<g id="edge5" class="edge"><title>Node5&#45;&gt;Node3</title>
<path fill="none" stroke="midnightblue" d="M73.3957,-224.075C66.9419,-197.945 47.9894,-121.211 39.1883,-85.577"/>
<polygon fill="midnightblue" stroke="midnightblue" points="42.5121,-84.4371 36.7163,-75.5681 35.7163,-86.1156 42.5121,-84.4371"/>
</g>
<!-- Node6 -->
<g id="node6" class="node"><title>Node6</title>
<g id="a_node6"><a xlink:href="../../d3/d62/PHNode_8h.html" target="_top" xlink:title="PHNode.h">
<polygon fill="none" stroke="black" points="100.6,-112.5 100.6,-131.5 162.6,-131.5 162.6,-112.5 100.6,-112.5"/>
<text text-anchor="middle" x="131.6" y="-119.5" font-family="FreeSans" font-size="10.00">PHNode.h</text>
</a>
</g>
</g>
<!-- Node5&#45;&gt;Node6 -->
<g id="edge6" class="edge"><title>Node5&#45;&gt;Node6</title>
<path fill="none" stroke="midnightblue" d="M77.0145,-224.162C79.3347,-211.244 84.7102,-186.709 94.6,-168 100.201,-157.404 108.545,-146.975 115.892,-138.83"/>
<polygon fill="midnightblue" stroke="midnightblue" points="118.463,-141.204 122.768,-131.523 113.366,-136.407 118.463,-141.204"/>
</g>
<!-- Node5&#45;&gt;Node9 -->
<g id="edge10" class="edge"><title>Node5&#45;&gt;Node9</title>
<path fill="none" stroke="midnightblue" d="M87.0074,-224.324C97.7088,-216.185 113.941,-203.839 126.763,-194.087"/>
<polygon fill="midnightblue" stroke="midnightblue" points="129.144,-196.673 134.985,-187.834 124.907,-191.102 129.144,-196.673"/>
</g>
<!-- Node6&#45;&gt;Node3 -->
<g id="edge7" class="edge"><title>Node6&#45;&gt;Node3</title>
<path fill="none" stroke="midnightblue" d="M116.015,-112.324C100.601,-103.743 76.7878,-90.486 58.8903,-80.5224"/>
<polygon fill="midnightblue" stroke="midnightblue" points="60.5859,-77.4606 50.1461,-75.6545 57.181,-83.5767 60.5859,-77.4606"/>
</g>
<!-- Node7 -->
<g id="node7" class="node"><title>Node7</title>
<polygon fill="none" stroke="#bfbfbf" points="76.1,-56.5 76.1,-75.5 121.1,-75.5 121.1,-56.5 76.1,-56.5"/>
<text text-anchor="middle" x="98.6" y="-63.5" font-family="FreeSans" font-size="10.00">iosfwd</text>
</g>
<!-- Node6&#45;&gt;Node7 -->
<g id="edge8" class="edge"><title>Node6&#45;&gt;Node7</title>
<path fill="none" stroke="midnightblue" d="M126.151,-112.083C121.586,-104.613 114.932,-93.7244 109.307,-84.5199"/>
<polygon fill="midnightblue" stroke="midnightblue" points="112.149,-82.4588 103.948,-75.7511 106.176,-86.109 112.149,-82.4588"/>
</g>
<!-- Node8 -->
<g id="node8" class="node"><title>Node8</title>
<polygon fill="none" stroke="#bfbfbf" points="139.1,-56.5 139.1,-75.5 180.1,-75.5 180.1,-56.5 139.1,-56.5"/>
<text text-anchor="middle" x="159.6" y="-63.5" font-family="FreeSans" font-size="10.00">string</text>
</g>
<!-- Node6&#45;&gt;Node8 -->
<g id="edge9" class="edge"><title>Node6&#45;&gt;Node8</title>
<path fill="none" stroke="midnightblue" d="M136.224,-112.083C140.056,-104.691 145.624,-93.9533 150.365,-84.8111"/>
<polygon fill="midnightblue" stroke="midnightblue" points="153.566,-86.2398 155.062,-75.7511 147.352,-83.0175 153.566,-86.2398"/>
</g>
<!-- Node9&#45;&gt;Node3 -->
<g id="edge11" class="edge"><title>Node9&#45;&gt;Node3</title>
<path fill="none" stroke="midnightblue" d="M134.753,-168.221C123.283,-159.513 105.617,-145.546 91.6,-132 75.6637,-116.599 59.1483,-97.3403 48.0235,-83.7972"/>
<polygon fill="midnightblue" stroke="midnightblue" points="50.5703,-81.381 41.5516,-75.8209 45.1345,-85.7915 50.5703,-81.381"/>
</g>
<!-- Node9&#45;&gt;Node4 -->
<g id="edge13" class="edge"><title>Node9&#45;&gt;Node4</title>
<path fill="none" stroke="midnightblue" d="M154.238,-168.411C171.363,-148.06 209.727,-95.6391 188.6,-56 181.05,-41.8339 166.839,-31.3348 153.442,-24.0576"/>
<polygon fill="midnightblue" stroke="midnightblue" points="154.898,-20.8724 144.388,-19.5289 151.766,-27.1329 154.898,-20.8724"/>
</g>
<!-- Node9&#45;&gt;Node6 -->
<g id="edge12" class="edge"><title>Node9&#45;&gt;Node6</title>
<path fill="none" stroke="midnightblue" d="M144.123,-168.083C142.114,-160.849 139.214,-150.409 136.71,-141.397"/>
<polygon fill="midnightblue" stroke="midnightblue" points="140.08,-140.449 134.031,-131.751 133.335,-142.323 140.08,-140.449"/>
</g>
</g>
</svg>
