<?xml version="1.0" encoding="UTF-8" standalone="no"?>
<!DOCTYPE svg PUBLIC "-//W3C//DTD SVG 1.1//EN"
 "http://www.w3.org/Graphics/SVG/1.1/DTD/svg11.dtd">
<!-- Generated by graphviz version 2.36.0 (20140111.2315)
 -->
<!-- Title: fun4all/fun4all/Fun4AllHistoManager.h Pages: 1 -->
<svg width="1536pt" height="176pt"
 viewBox="0.00 0.00 1536.00 176.00" xmlns="http://www.w3.org/2000/svg" xmlns:xlink="http://www.w3.org/1999/xlink">
<g id="graph0" class="graph" transform="scale(1 1) rotate(0) translate(4 172)">
<title>fun4all/fun4all/Fun4AllHistoManager.h</title>
<!-- Node1 -->
<g id="node1" class="node"><title>Node1</title>
<polygon fill="#bfbfbf" stroke="black" points="751,-137 751,-167 887,-167 887,-137 751,-137"/>
<text text-anchor="start" x="759" y="-155" font-family="FreeSans" font-size="10.00">fun4all/fun4all/Fun4AllHisto</text>
<text text-anchor="middle" x="819" y="-144" font-family="FreeSans" font-size="10.00">Manager.h</text>
</g>
<!-- Node2 -->
<g id="node2" class="node"><title>Node2</title>
<g id="a_node2"><a xlink:href="../../dc/da2/Fun4AllServer_8h.html" target="_top" xlink:title="fun4all/fun4all/Fun4AllServer.h">
<polygon fill="none" stroke="black" points="664.5,-74.5 664.5,-93.5 813.5,-93.5 813.5,-74.5 664.5,-74.5"/>
<text text-anchor="middle" x="739" y="-81.5" font-family="FreeSans" font-size="10.00">fun4all/fun4all/Fun4AllServer.h</text>
</a>
</g>
</g>
<!-- Node1&#45;&gt;Node2 -->
<g id="edge1" class="edge"><title>Node1&#45;&gt;Node2</title>
<path fill="none" stroke="midnightblue" d="M793.779,-130.193C778.928,-117.94 760.913,-103.079 749.701,-93.8283"/>
<polygon fill="midnightblue" stroke="midnightblue" points="791.7,-133.015 801.641,-136.679 796.155,-127.615 791.7,-133.015"/>
</g>
<!-- Node13 -->
<g id="node13" class="node"><title>Node13</title>
<g id="a_node13"><a xlink:href="../../df/d24/Fun4AllHistoManager_8cc.html" target="_top" xlink:title="fun4all/fun4all/Fun4AllHisto\lManager.cc">
<polygon fill="none" stroke="black" points="832,-69 832,-99 968,-99 968,-69 832,-69"/>
<text text-anchor="start" x="840" y="-87" font-family="FreeSans" font-size="10.00">fun4all/fun4all/Fun4AllHisto</text>
<text text-anchor="middle" x="900" y="-76" font-family="FreeSans" font-size="10.00">Manager.cc</text>
</a>
</g>
</g>
<!-- Node1&#45;&gt;Node13 -->
<g id="edge12" class="edge"><title>Node1&#45;&gt;Node13</title>
<path fill="none" stroke="midnightblue" d="M844.393,-130.309C856.87,-120.143 871.581,-108.156 882.737,-99.0663"/>
<polygon fill="midnightblue" stroke="midnightblue" points="842.117,-127.649 836.576,-136.679 846.539,-133.076 842.117,-127.649"/>
</g>
<!-- Node3 -->
<g id="node3" class="node"><title>Node3</title>
<g id="a_node3"><a xlink:href="../../d3/d53/Fun4AllDstInputManager_8cc.html" target="_top" xlink:title="fun4all/fun4all/Fun4AllDst\lInputManager.cc">
<polygon fill="none" stroke="black" points="0,-1 0,-31 128,-31 128,-1 0,-1"/>
<text text-anchor="start" x="8" y="-19" font-family="FreeSans" font-size="10.00">fun4all/fun4all/Fun4AllDst</text>
<text text-anchor="middle" x="64" y="-8" font-family="FreeSans" font-size="10.00">InputManager.cc</text>
</a>
</g>
</g>
<!-- Node2&#45;&gt;Node3 -->
<g id="edge2" class="edge"><title>Node2&#45;&gt;Node3</title>
<path fill="none" stroke="midnightblue" d="M653.75,-78.9559C536.773,-72.6838 320.145,-58.4795 137,-32 134.055,-31.5742 131.05,-31.1038 128.019,-30.6003"/>
<polygon fill="midnightblue" stroke="midnightblue" points="653.894,-82.4683 664.066,-79.5022 654.265,-75.4781 653.894,-82.4683"/>
</g>
<!-- Node4 -->
<g id="node4" class="node"><title>Node4</title>
<g id="a_node4"><a xlink:href="../../d9/d74/Fun4AllDstOutputManager_8cc.html" target="_top" xlink:title="fun4all/fun4all/Fun4AllDst\lOutputManager.cc">
<polygon fill="none" stroke="black" points="146,-1 146,-31 274,-31 274,-1 146,-1"/>
<text text-anchor="start" x="154" y="-19" font-family="FreeSans" font-size="10.00">fun4all/fun4all/Fun4AllDst</text>
<text text-anchor="middle" x="210" y="-8" font-family="FreeSans" font-size="10.00">OutputManager.cc</text>
</a>
</g>
</g>
<!-- Node2&#45;&gt;Node4 -->
<g id="edge3" class="edge"><title>Node2&#45;&gt;Node4</title>
<path fill="none" stroke="midnightblue" d="M654.407,-75.8679C562.625,-67.5875 411.923,-52.4115 283,-32 280.061,-31.5347 277.06,-31.0318 274.034,-30.5021"/>
<polygon fill="midnightblue" stroke="midnightblue" points="654.204,-79.3636 664.476,-76.77 654.828,-72.3915 654.204,-79.3636"/>
</g>
<!-- Node5 -->
<g id="node5" class="node"><title>Node5</title>
<g id="a_node5"><a xlink:href="../../d6/dbe/Fun4AllEventOutputManager_8cc.html" target="_top" xlink:title="fun4all/fun4all/Fun4AllEvent\lOutputManager.cc">
<polygon fill="none" stroke="black" points="292.5,-1 292.5,-31 429.5,-31 429.5,-1 292.5,-1"/>
<text text-anchor="start" x="300.5" y="-19" font-family="FreeSans" font-size="10.00">fun4all/fun4all/Fun4AllEvent</text>
<text text-anchor="middle" x="361" y="-8" font-family="FreeSans" font-size="10.00">OutputManager.cc</text>
</a>
</g>
</g>
<!-- Node2&#45;&gt;Node5 -->
<g id="edge4" class="edge"><title>Node2&#45;&gt;Node5</title>
<path fill="none" stroke="midnightblue" d="M676.725,-72.8161C616.002,-62.7907 521.067,-46.8649 439,-32 436.015,-31.4593 432.967,-30.9007 429.888,-30.3314"/>
<polygon fill="midnightblue" stroke="midnightblue" points="676.476,-76.322 686.912,-74.4954 677.614,-69.4153 676.476,-76.322"/>
</g>
<!-- Node6 -->
<g id="node6" class="node"><title>Node6</title>
<g id="a_node6"><a xlink:href="../../d2/d3e/Fun4AllFileOutStream_8cc.html" target="_top" xlink:title="fun4all/fun4all/Fun4AllFile\lOutStream.cc">
<polygon fill="none" stroke="black" points="448,-1 448,-31 576,-31 576,-1 448,-1"/>
<text text-anchor="start" x="456" y="-19" font-family="FreeSans" font-size="10.00">fun4all/fun4all/Fun4AllFile</text>
<text text-anchor="middle" x="512" y="-8" font-family="FreeSans" font-size="10.00">OutStream.cc</text>
</a>
</g>
</g>
<!-- Node2&#45;&gt;Node6 -->
<g id="edge5" class="edge"><title>Node2&#45;&gt;Node6</title>
<path fill="none" stroke="midnightblue" d="M699.467,-71.5059C660.785,-60.2592 601.798,-43.1088 560.345,-31.0562"/>
<polygon fill="midnightblue" stroke="midnightblue" points="698.744,-74.9405 709.324,-74.3717 700.699,-68.2189 698.744,-74.9405"/>
</g>
<!-- Node7 -->
<g id="node7" class="node"><title>Node7</title>
<g id="a_node7"><a xlink:href="../../d0/d56/Fun4AllInputManager_8cc.html" target="_top" xlink:title="fun4all/fun4all/Fun4AllInput\lManager.cc">
<polygon fill="none" stroke="black" points="594,-1 594,-31 728,-31 728,-1 594,-1"/>
<text text-anchor="start" x="602" y="-19" font-family="FreeSans" font-size="10.00">fun4all/fun4all/Fun4AllInput</text>
<text text-anchor="middle" x="661" y="-8" font-family="FreeSans" font-size="10.00">Manager.cc</text>
</a>
</g>
</g>
<!-- Node2&#45;&gt;Node7 -->
<g id="edge6" class="edge"><title>Node2&#45;&gt;Node7</title>
<path fill="none" stroke="midnightblue" d="M720.98,-67.7524C707.955,-56.7313 690.485,-41.9489 677.76,-31.1815"/>
<polygon fill="midnightblue" stroke="midnightblue" points="718.908,-70.5841 728.803,-74.3717 723.43,-65.2403 718.908,-70.5841"/>
</g>
<!-- Node8 -->
<g id="node8" class="node"><title>Node8</title>
<g id="a_node8"><a xlink:href="../../db/dfa/Fun4AllOutputManager_8cc.html" target="_top" xlink:title="fun4all/fun4all/Fun4AllOutput\lManager.cc">
<polygon fill="none" stroke="black" points="746,-1 746,-31 888,-31 888,-1 746,-1"/>
<text text-anchor="start" x="754" y="-19" font-family="FreeSans" font-size="10.00">fun4all/fun4all/Fun4AllOutput</text>
<text text-anchor="middle" x="817" y="-8" font-family="FreeSans" font-size="10.00">Manager.cc</text>
</a>
</g>
</g>
<!-- Node2&#45;&gt;Node8 -->
<g id="edge7" class="edge"><title>Node2&#45;&gt;Node8</title>
<path fill="none" stroke="midnightblue" d="M757.02,-67.7524C770.045,-56.7313 787.515,-41.9489 800.24,-31.1815"/>
<polygon fill="midnightblue" stroke="midnightblue" points="754.57,-65.2403 749.197,-74.3717 759.092,-70.5841 754.57,-65.2403"/>
</g>
<!-- Node9 -->
<g id="node9" class="node"><title>Node9</title>
<g id="a_node9"><a xlink:href="../../da/d7b/Fun4AllPrdfInputManager_8cc.html" target="_top" xlink:title="fun4all/fun4all/Fun4AllPrdf\lInputManager.cc">
<polygon fill="none" stroke="black" points="906.5,-1 906.5,-31 1037.5,-31 1037.5,-1 906.5,-1"/>
<text text-anchor="start" x="914.5" y="-19" font-family="FreeSans" font-size="10.00">fun4all/fun4all/Fun4AllPrdf</text>
<text text-anchor="middle" x="972" y="-8" font-family="FreeSans" font-size="10.00">InputManager.cc</text>
</a>
</g>
</g>
<!-- Node2&#45;&gt;Node9 -->
<g id="edge8" class="edge"><title>Node2&#45;&gt;Node9</title>
<path fill="none" stroke="midnightblue" d="M779.325,-71.5776C819.024,-60.3322 879.738,-43.1344 922.377,-31.0562"/>
<polygon fill="midnightblue" stroke="midnightblue" points="778.128,-68.2787 769.461,-74.3717 780.036,-75.0137 778.128,-68.2787"/>
</g>
<!-- Node10 -->
<g id="node10" class="node"><title>Node10</title>
<g id="a_node10"><a xlink:href="../../db/d70/Fun4AllRolloverFileOutStream_8cc.html" target="_top" xlink:title="fun4all/fun4all/Fun4AllRollover\lFileOutStream.cc">
<polygon fill="none" stroke="black" points="1056,-1 1056,-31 1204,-31 1204,-1 1056,-1"/>
<text text-anchor="start" x="1064" y="-19" font-family="FreeSans" font-size="10.00">fun4all/fun4all/Fun4AllRollover</text>
<text text-anchor="middle" x="1130" y="-8" font-family="FreeSans" font-size="10.00">FileOutStream.cc</text>
</a>
</g>
</g>
<!-- Node2&#45;&gt;Node10 -->
<g id="edge9" class="edge"><title>Node2&#45;&gt;Node10</title>
<path fill="none" stroke="midnightblue" d="M796.102,-72.6714C805.098,-71.0822 814.299,-69.4791 823,-68 921.974,-51.1752 947.026,-48.8248 1046,-32 1049.21,-31.4538 1052.49,-30.8907 1055.81,-30.3177"/>
<polygon fill="midnightblue" stroke="midnightblue" points="795.303,-69.2584 786.069,-74.4525 796.526,-76.1507 795.303,-69.2584"/>
</g>
<!-- Node11 -->
<g id="node11" class="node"><title>Node11</title>
<g id="a_node11"><a xlink:href="../../d8/d7a/Fun4AllServer_8cc.html" target="_top" xlink:title="fun4all/fun4all/Fun4AllServer.cc">
<polygon fill="none" stroke="black" points="1222,-6.5 1222,-25.5 1376,-25.5 1376,-6.5 1222,-6.5"/>
<text text-anchor="middle" x="1299" y="-13.5" font-family="FreeSans" font-size="10.00">fun4all/fun4all/Fun4AllServer.cc</text>
</a>
</g>
</g>
<!-- Node2&#45;&gt;Node11 -->
<g id="edge10" class="edge"><title>Node2&#45;&gt;Node11</title>
<path fill="none" stroke="midnightblue" d="M792.78,-72.6996C802.801,-70.9785 813.201,-69.3248 823,-68 995.501,-44.6792 1040.45,-54.9734 1213,-32 1226.37,-30.2198 1240.84,-27.8644 1254.03,-25.5489"/>
<polygon fill="midnightblue" stroke="midnightblue" points="792.164,-69.2541 782.921,-74.4334 793.376,-76.1483 792.164,-69.2541"/>
</g>
<!-- Node12 -->
<g id="node12" class="node"><title>Node12</title>
<g id="a_node12"><a xlink:href="../../df/d03/Fun4AllSyncManager_8cc.html" target="_top" xlink:title="fun4all/fun4all/Fun4AllSync\lManager.cc">
<polygon fill="none" stroke="black" points="1394,-1 1394,-31 1528,-31 1528,-1 1394,-1"/>
<text text-anchor="start" x="1402" y="-19" font-family="FreeSans" font-size="10.00">fun4all/fun4all/Fun4AllSync</text>
<text text-anchor="middle" x="1461" y="-8" font-family="FreeSans" font-size="10.00">Manager.cc</text>
</a>
</g>
</g>
<!-- Node2&#45;&gt;Node12 -->
<g id="edge11" class="edge"><title>Node2&#45;&gt;Node12</title>
<path fill="none" stroke="midnightblue" d="M791.738,-72.646C802.072,-70.8824 812.852,-69.2271 823,-68 1071.48,-37.953 1136.8,-64.3013 1385,-32 1387.93,-31.6182 1390.93,-31.1912 1393.94,-30.7296"/>
<polygon fill="midnightblue" stroke="midnightblue" points="790.834,-69.2514 781.593,-74.4338 792.049,-76.1452 790.834,-69.2514"/>
</g>
</g>
</svg>
