<?xml version="1.0" encoding="UTF-8" standalone="no"?>
<!DOCTYPE svg PUBLIC "-//W3C//DTD SVG 1.1//EN"
 "http://www.w3.org/Graphics/SVG/1.1/DTD/svg11.dtd">
<!-- Generated by graphviz version 2.36.0 (20140111.2315)
 -->
<!-- Title: fun4all/ffaobjects/FlagSave.h Pages: 1 -->
<svg width="193pt" height="152pt"
 viewBox="0.00 0.00 193.00 152.00" xmlns="http://www.w3.org/2000/svg" xmlns:xlink="http://www.w3.org/1999/xlink">
<g id="graph0" class="graph" transform="scale(1 1) rotate(0) translate(4 148)">
<title>fun4all/ffaobjects/FlagSave.h</title>
<!-- Node1 -->
<g id="node1" class="node"><title>Node1</title>
<polygon fill="#bfbfbf" stroke="black" points="52,-113 52,-143 142,-143 142,-113 52,-113"/>
<text text-anchor="start" x="60" y="-131" font-family="FreeSans" font-size="10.00">fun4all/ffaobjects</text>
<text text-anchor="middle" x="97" y="-120" font-family="FreeSans" font-size="10.00">/FlagSave.h</text>
</g>
<!-- Node2 -->
<g id="node2" class="node"><title>Node2</title>
<g id="a_node2"><a xlink:href="../../df/d32/PHObject_8h.html" target="_top" xlink:title="phool/PHObject.h">
<polygon fill="none" stroke="black" points="-0.5,-56.5 -0.5,-75.5 92.5,-75.5 92.5,-56.5 -0.5,-56.5"/>
<text text-anchor="middle" x="46" y="-63.5" font-family="FreeSans" font-size="10.00">phool/PHObject.h</text>
</a>
</g>
</g>
<!-- Node1&#45;&gt;Node2 -->
<g id="edge1" class="edge"><title>Node1&#45;&gt;Node2</title>
<path fill="none" stroke="midnightblue" d="M84.9137,-112.781C77.4264,-103.972 67.7822,-92.6262 59.9682,-83.4332"/>
<polygon fill="midnightblue" stroke="midnightblue" points="62.5643,-81.0832 53.421,-75.7305 57.2307,-85.6167 62.5643,-81.0832"/>
</g>
<!-- Node5 -->
<g id="node5" class="node"><title>Node5</title>
<g id="a_node5"><a xlink:href="../../d5/d6f/phool_8h.html" target="_top" xlink:title="phool/phool.h">
<polygon fill="none" stroke="black" points="111,-56.5 111,-75.5 185,-75.5 185,-56.5 111,-56.5"/>
<text text-anchor="middle" x="148" y="-63.5" font-family="FreeSans" font-size="10.00">phool/phool.h</text>
</a>
</g>
</g>
<!-- Node1&#45;&gt;Node5 -->
<g id="edge4" class="edge"><title>Node1&#45;&gt;Node5</title>
<path fill="none" stroke="midnightblue" d="M109.086,-112.781C116.574,-103.972 126.218,-92.6262 134.032,-83.4332"/>
<polygon fill="midnightblue" stroke="midnightblue" points="136.769,-85.6167 140.579,-75.7305 131.436,-81.0832 136.769,-85.6167"/>
</g>
<!-- Node3 -->
<g id="node3" class="node"><title>Node3</title>
<polygon fill="none" stroke="#bfbfbf" points="16.5,-0.5 16.5,-19.5 75.5,-19.5 75.5,-0.5 16.5,-0.5"/>
<text text-anchor="middle" x="46" y="-7.5" font-family="FreeSans" font-size="10.00">TObject.h</text>
</g>
<!-- Node2&#45;&gt;Node3 -->
<g id="edge2" class="edge"><title>Node2&#45;&gt;Node3</title>
<path fill="none" stroke="midnightblue" d="M46,-56.083C46,-49.0059 46,-38.8611 46,-29.9865"/>
<polygon fill="midnightblue" stroke="midnightblue" points="49.5001,-29.751 46,-19.7511 42.5001,-29.7511 49.5001,-29.751"/>
</g>
<!-- Node4 -->
<g id="node4" class="node"><title>Node4</title>
<polygon fill="none" stroke="#bfbfbf" points="107,-0.5 107,-19.5 161,-19.5 161,-0.5 107,-0.5"/>
<text text-anchor="middle" x="134" y="-7.5" font-family="FreeSans" font-size="10.00">iostream</text>
</g>
<!-- Node2&#45;&gt;Node4 -->
<g id="edge3" class="edge"><title>Node2&#45;&gt;Node4</title>
<path fill="none" stroke="midnightblue" d="M60.1387,-56.324C73.8663,-47.9002 94.9363,-34.9709 111.064,-25.0741"/>
<polygon fill="midnightblue" stroke="midnightblue" points="113.204,-27.8678 119.896,-19.6545 109.543,-21.9016 113.204,-27.8678"/>
</g>
<!-- Node5&#45;&gt;Node4 -->
<g id="edge5" class="edge"><title>Node5&#45;&gt;Node4</title>
<path fill="none" stroke="midnightblue" d="M145.688,-56.083C143.833,-48.9272 141.165,-38.6353 138.846,-29.6911"/>
<polygon fill="midnightblue" stroke="midnightblue" points="142.166,-28.5527 136.269,-19.7511 135.391,-30.3094 142.166,-28.5527"/>
</g>
</g>
</svg>
