<?xml version="1.0" encoding="UTF-8" standalone="no"?>
<!DOCTYPE svg PUBLIC "-//W3C//DTD SVG 1.1//EN"
 "http://www.w3.org/Graphics/SVG/1.1/DTD/svg11.dtd">
<!-- Generated by graphviz version 2.36.0 (20140111.2315)
 -->
<!-- Title: boost::array::end Pages: 1 -->
<svg width="242pt" height="241pt"
 viewBox="0.00 0.00 242.00 241.00" xmlns="http://www.w3.org/2000/svg" xmlns:xlink="http://www.w3.org/1999/xlink">
<g id="graph0" class="graph" transform="scale(1 1) rotate(0) translate(4 237)">
<title>boost::array::end</title>
<!-- Node1 -->
<g id="node1" class="node"><title>Node1</title>
<polygon fill="#bfbfbf" stroke="black" points="0,-106.5 0,-125.5 86,-125.5 86,-106.5 0,-106.5"/>
<text text-anchor="middle" x="43" y="-113.5" font-family="FreeSans" font-size="10.00">boost::array::end</text>
</g>
<!-- Node2 -->
<g id="node2" class="node"><title>Node2</title>
<g id="a_node2"><a xlink:href="../../d1/d96/classboost_1_1array.html#ac42413695d5160cf0183e0bb7a655008" target="_top" xlink:title="boost::array::crbegin">
<polygon fill="none" stroke="black" points="127,-213.5 127,-232.5 229,-232.5 229,-213.5 127,-213.5"/>
<text text-anchor="middle" x="178" y="-220.5" font-family="FreeSans" font-size="10.00">boost::array::crbegin</text>
</a>
</g>
</g>
<!-- Node1&#45;&gt;Node2 -->
<g id="edge1" class="edge"><title>Node1&#45;&gt;Node2</title>
<path fill="none" stroke="midnightblue" d="M55.8604,-133.794C69.6599,-153.254 94.142,-184.172 122,-203 128.229,-207.21 135.453,-210.657 142.576,-213.431"/>
<polygon fill="midnightblue" stroke="midnightblue" points="58.6988,-131.745 50.1369,-125.504 52.9383,-135.722 58.6988,-131.745"/>
</g>
<!-- Node3 -->
<g id="node3" class="node"><title>Node3</title>
<g id="a_node3"><a xlink:href="../../d4/d6a/classboost_1_1array_3_01T_00_010_01_4.html#a29285828bf06bca0f82c56d7a8afff08" target="_top" xlink:title="boost::array\&lt; T, 0\l \&gt;::crbegin">
<polygon fill="none" stroke="black" points="132.5,-164 132.5,-194 223.5,-194 223.5,-164 132.5,-164"/>
<text text-anchor="start" x="140.5" y="-182" font-family="FreeSans" font-size="10.00">boost::array&lt; T, 0</text>
<text text-anchor="middle" x="178" y="-171" font-family="FreeSans" font-size="10.00"> &gt;::crbegin</text>
</a>
</g>
</g>
<!-- Node1&#45;&gt;Node3 -->
<g id="edge2" class="edge"><title>Node1&#45;&gt;Node3</title>
<path fill="none" stroke="midnightblue" d="M72.29,-130.008C87.059,-137.263 105.454,-146.211 122,-154 128.928,-157.261 136.377,-160.695 143.486,-163.939"/>
<polygon fill="midnightblue" stroke="midnightblue" points="73.6816,-126.792 63.1641,-125.513 70.5888,-133.071 73.6816,-126.792"/>
</g>
<!-- Node4 -->
<g id="node4" class="node"><title>Node4</title>
<g id="a_node4"><a xlink:href="../../d1/d96/classboost_1_1array.html#aee5d90d90a5fc39cf6bcfe71eadb2dfc" target="_top" xlink:title="boost::array::operator=">
<polygon fill="none" stroke="black" points="122,-125.5 122,-144.5 234,-144.5 234,-125.5 122,-125.5"/>
<text text-anchor="middle" x="178" y="-132.5" font-family="FreeSans" font-size="10.00">boost::array::operator=</text>
</a>
</g>
</g>
<!-- Node1&#45;&gt;Node4 -->
<g id="edge3" class="edge"><title>Node1&#45;&gt;Node4</title>
<path fill="none" stroke="midnightblue" d="M96.0836,-123.441C104.444,-124.635 113.124,-125.875 121.559,-127.08"/>
<polygon fill="midnightblue" stroke="midnightblue" points="96.4765,-119.961 86.082,-122.012 95.4865,-126.891 96.4765,-119.961"/>
</g>
<!-- Node5 -->
<g id="node5" class="node"><title>Node5</title>
<g id="a_node5"><a xlink:href="../../d4/da9/namespaceboost.html#a5052d3eb0b7262cf72d765f0ce814177" target="_top" xlink:title="boost::operator==">
<polygon fill="none" stroke="black" points="132,-87.5 132,-106.5 224,-106.5 224,-87.5 132,-87.5"/>
<text text-anchor="middle" x="178" y="-94.5" font-family="FreeSans" font-size="10.00">boost::operator==</text>
</a>
</g>
</g>
<!-- Node1&#45;&gt;Node5 -->
<g id="edge4" class="edge"><title>Node1&#45;&gt;Node5</title>
<path fill="none" stroke="midnightblue" d="M96.2549,-108.535C108.06,-106.849 120.494,-105.072 131.972,-103.433"/>
<polygon fill="midnightblue" stroke="midnightblue" points="95.4865,-105.109 86.082,-109.988 96.4765,-112.039 95.4865,-105.109"/>
</g>
<!-- Node6 -->
<g id="node6" class="node"><title>Node6</title>
<g id="a_node6"><a xlink:href="../../d1/d96/classboost_1_1array.html#a1f9885b0aeb526f689af81a6bdacf9ac" target="_top" xlink:title="boost::array::rbegin">
<polygon fill="none" stroke="black" points="129.5,-49.5 129.5,-68.5 226.5,-68.5 226.5,-49.5 129.5,-49.5"/>
<text text-anchor="middle" x="178" y="-56.5" font-family="FreeSans" font-size="10.00">boost::array::rbegin</text>
</a>
</g>
</g>
<!-- Node1&#45;&gt;Node6 -->
<g id="edge5" class="edge"><title>Node1&#45;&gt;Node6</title>
<path fill="none" stroke="midnightblue" d="M71.1129,-101.791C85.9463,-94.2722 104.764,-85.1451 122,-78 130.119,-74.6343 139.072,-71.3619 147.354,-68.508"/>
<polygon fill="midnightblue" stroke="midnightblue" points="69.3005,-98.7864 61.9972,-106.462 72.4929,-105.016 69.3005,-98.7864"/>
</g>
<!-- Node7 -->
<g id="node7" class="node"><title>Node7</title>
<g id="a_node7"><a xlink:href="../../d4/d6a/classboost_1_1array_3_01T_00_010_01_4.html#aef93715d23996a2b86ff5bd9f027d539" target="_top" xlink:title="boost::array\&lt; T, 0\l \&gt;::rbegin">
<polygon fill="none" stroke="black" points="132.5,-0 132.5,-30 223.5,-30 223.5,-0 132.5,-0"/>
<text text-anchor="start" x="140.5" y="-18" font-family="FreeSans" font-size="10.00">boost::array&lt; T, 0</text>
<text text-anchor="middle" x="178" y="-7" font-family="FreeSans" font-size="10.00"> &gt;::rbegin</text>
</a>
</g>
</g>
<!-- Node1&#45;&gt;Node7 -->
<g id="edge6" class="edge"><title>Node1&#45;&gt;Node7</title>
<path fill="none" stroke="midnightblue" d="M59.0657,-98.108C73.8031,-81.4403 97.5416,-56.7156 122,-40 127.282,-36.3899 133.17,-33.0808 139.075,-30.1342"/>
<polygon fill="midnightblue" stroke="midnightblue" points="56.1268,-96.155 52.2234,-106.005 61.4171,-100.739 56.1268,-96.155"/>
</g>
</g>
</svg>
