<?xml version="1.0" encoding="UTF-8" standalone="no"?>
<!DOCTYPE svg PUBLIC "-//W3C//DTD SVG 1.1//EN"
 "http://www.w3.org/Graphics/SVG/1.1/DTD/svg11.dtd">
<!-- Generated by graphviz version 2.36.0 (20140111.2315)
 -->
<!-- Title: boost::array::operator= Pages: 1 -->
<svg width="250pt" height="66pt"
 viewBox="0.00 0.00 250.00 66.00" xmlns="http://www.w3.org/2000/svg" xmlns:xlink="http://www.w3.org/1999/xlink">
<g id="graph0" class="graph" transform="scale(1 1) rotate(0) translate(4 62)">
<title>boost::array::operator=</title>
<!-- Node1 -->
<g id="node1" class="node"><title>Node1</title>
<polygon fill="#bfbfbf" stroke="black" points="0,-19.5 0,-38.5 112,-38.5 112,-19.5 0,-19.5"/>
<text text-anchor="middle" x="56" y="-26.5" font-family="FreeSans" font-size="10.00">boost::array::operator=</text>
</g>
<!-- Node2 -->
<g id="node2" class="node"><title>Node2</title>
<g id="a_node2"><a xlink:href="../../d1/d96/classboost_1_1array.html#a692b0cab4e768f391c6784c799ea61ab" target="_top" xlink:title="boost::array::begin">
<polygon fill="none" stroke="black" points="148,-38.5 148,-57.5 242,-57.5 242,-38.5 148,-38.5"/>
<text text-anchor="middle" x="195" y="-45.5" font-family="FreeSans" font-size="10.00">boost::array::begin</text>
</a>
</g>
</g>
<!-- Node1&#45;&gt;Node2 -->
<g id="edge1" class="edge"><title>Node1&#45;&gt;Node2</title>
<path fill="none" stroke="midnightblue" d="M112.328,-36.6733C120.67,-37.8302 129.283,-39.0246 137.646,-40.1845"/>
<polygon fill="midnightblue" stroke="midnightblue" points="137.302,-43.6702 147.688,-41.5772 138.264,-36.7366 137.302,-43.6702"/>
</g>
<!-- Node3 -->
<g id="node3" class="node"><title>Node3</title>
<g id="a_node3"><a xlink:href="../../d1/d96/classboost_1_1array.html#a7ceca2d1f87a5832e13db810b75b7a20" target="_top" xlink:title="boost::array::end">
<polygon fill="none" stroke="black" points="152,-0.5 152,-19.5 238,-19.5 238,-0.5 152,-0.5"/>
<text text-anchor="middle" x="195" y="-7.5" font-family="FreeSans" font-size="10.00">boost::array::end</text>
</a>
</g>
</g>
<!-- Node1&#45;&gt;Node3 -->
<g id="edge2" class="edge"><title>Node1&#45;&gt;Node3</title>
<path fill="none" stroke="midnightblue" d="M112.328,-21.3267C122.139,-19.9661 132.324,-18.5535 142.038,-17.2064"/>
<polygon fill="midnightblue" stroke="midnightblue" points="142.53,-20.6718 151.954,-15.8312 141.568,-13.7381 142.53,-20.6718"/>
</g>
</g>
</svg>
