<?xml version="1.0" encoding="UTF-8" standalone="no"?>
<!DOCTYPE svg PUBLIC "-//W3C//DTD SVG 1.1//EN"
 "http://www.w3.org/Graphics/SVG/1.1/DTD/svg11.dtd">
<!-- Generated by graphviz version 2.36.0 (20140111.2315)
 -->
<!-- Title: boost::array::at Pages: 1 -->
<svg width="370pt" height="28pt"
 viewBox="0.00 0.00 370.00 28.00" xmlns="http://www.w3.org/2000/svg" xmlns:xlink="http://www.w3.org/1999/xlink">
<g id="graph0" class="graph" transform="scale(1 1) rotate(0) translate(4 24)">
<title>boost::array::at</title>
<!-- Node1 -->
<g id="node1" class="node"><title>Node1</title>
<polygon fill="#bfbfbf" stroke="black" points="0.5,-0.5 0.5,-19.5 79.5,-19.5 79.5,-0.5 0.5,-0.5"/>
<text text-anchor="middle" x="40" y="-7.5" font-family="FreeSans" font-size="10.00">boost::array::at</text>
</g>
<!-- Node2 -->
<g id="node2" class="node"><title>Node2</title>
<g id="a_node2"><a xlink:href="../../d1/d96/classboost_1_1array.html#a1655c9d6521634ef0faae2fe907db5b3" target="_top" xlink:title="boost::array::rangecheck">
<polygon fill="none" stroke="black" points="116.5,-0.5 116.5,-19.5 237.5,-19.5 237.5,-0.5 116.5,-0.5"/>
<text text-anchor="middle" x="177" y="-7.5" font-family="FreeSans" font-size="10.00">boost::array::rangecheck</text>
</a>
</g>
</g>
<!-- Node1&#45;&gt;Node2 -->
<g id="edge1" class="edge"><title>Node1&#45;&gt;Node2</title>
<path fill="none" stroke="midnightblue" d="M79.6856,-10C88.0072,-10 97.0482,-10 106.146,-10"/>
<polygon fill="midnightblue" stroke="midnightblue" points="106.407,-13.5001 116.407,-10 106.407,-6.5001 106.407,-13.5001"/>
</g>
<!-- Node3 -->
<g id="node3" class="node"><title>Node3</title>
<g id="a_node3"><a xlink:href="../../d1/d96/classboost_1_1array.html#aaf4df5cfae58ef79c61cddcb80cad437" target="_top" xlink:title="boost::array::size">
<polygon fill="none" stroke="black" points="274,-0.5 274,-19.5 362,-19.5 362,-0.5 274,-0.5"/>
<text text-anchor="middle" x="318" y="-7.5" font-family="FreeSans" font-size="10.00">boost::array::size</text>
</a>
</g>
</g>
<!-- Node2&#45;&gt;Node3 -->
<g id="edge2" class="edge"><title>Node2&#45;&gt;Node3</title>
<path fill="none" stroke="midnightblue" d="M237.755,-10C246.334,-10 255.116,-10 263.562,-10"/>
<polygon fill="midnightblue" stroke="midnightblue" points="263.663,-13.5001 273.663,-10 263.663,-6.5001 263.663,-13.5001"/>
</g>
</g>
</svg>
