<?xml version="1.0" encoding="UTF-8" standalone="no"?>
<!DOCTYPE svg PUBLIC "-//W3C//DTD SVG 1.1//EN"
 "http://www.w3.org/Graphics/SVG/1.1/DTD/svg11.dtd">
<!-- Generated by graphviz version 2.36.0 (20140111.2315)
 -->
<!-- Title: boost::array::fill Pages: 1 -->
<svg width="218pt" height="66pt"
 viewBox="0.00 0.00 218.00 66.00" xmlns="http://www.w3.org/2000/svg" xmlns:xlink="http://www.w3.org/1999/xlink">
<g id="graph0" class="graph" transform="scale(1 1) rotate(0) translate(4 62)">
<title>boost::array::fill</title>
<!-- Node1 -->
<g id="node1" class="node"><title>Node1</title>
<polygon fill="#bfbfbf" stroke="black" points="0,-19.5 0,-38.5 80,-38.5 80,-19.5 0,-19.5"/>
<text text-anchor="middle" x="40" y="-26.5" font-family="FreeSans" font-size="10.00">boost::array::fill</text>
</g>
<!-- Node2 -->
<g id="node2" class="node"><title>Node2</title>
<g id="a_node2"><a xlink:href="../../d1/d96/classboost_1_1array.html#a692b0cab4e768f391c6784c799ea61ab" target="_top" xlink:title="boost::array::begin">
<polygon fill="none" stroke="black" points="116,-38.5 116,-57.5 210,-57.5 210,-38.5 116,-38.5"/>
<text text-anchor="middle" x="163" y="-45.5" font-family="FreeSans" font-size="10.00">boost::array::begin</text>
</a>
</g>
</g>
<!-- Node1&#45;&gt;Node2 -->
<g id="edge1" class="edge"><title>Node1&#45;&gt;Node2</title>
<path fill="none" stroke="midnightblue" d="M80.2852,-35.1688C88.4193,-36.446 97.1393,-37.8153 105.744,-39.1664"/>
<polygon fill="midnightblue" stroke="midnightblue" points="105.329,-42.644 115.751,-40.7377 106.415,-35.7288 105.329,-42.644"/>
</g>
<!-- Node3 -->
<g id="node3" class="node"><title>Node3</title>
<g id="a_node3"><a xlink:href="../../d1/d96/classboost_1_1array.html#aaf4df5cfae58ef79c61cddcb80cad437" target="_top" xlink:title="boost::array::size">
<polygon fill="none" stroke="black" points="119,-0.5 119,-19.5 207,-19.5 207,-0.5 119,-0.5"/>
<text text-anchor="middle" x="163" y="-7.5" font-family="FreeSans" font-size="10.00">boost::array::size</text>
</a>
</g>
</g>
<!-- Node1&#45;&gt;Node3 -->
<g id="edge2" class="edge"><title>Node1&#45;&gt;Node3</title>
<path fill="none" stroke="midnightblue" d="M80.2852,-22.8312C89.3056,-21.4148 99.0465,-19.8853 108.552,-18.3927"/>
<polygon fill="midnightblue" stroke="midnightblue" points="109.393,-21.8036 118.729,-16.7947 108.307,-14.8884 109.393,-21.8036"/>
</g>
</g>
</svg>
