<?xml version="1.0" encoding="UTF-8" standalone="no"?>
<!DOCTYPE svg PUBLIC "-//W3C//DTD SVG 1.1//EN"
 "http://www.w3.org/Graphics/SVG/1.1/DTD/svg11.dtd">
<!-- Generated by graphviz version 2.36.0 (20140111.2315)
 -->
<!-- Title: boost::array::begin Pages: 1 -->
<svg width="386pt" height="328pt"
 viewBox="0.00 0.00 386.00 328.00" xmlns="http://www.w3.org/2000/svg" xmlns:xlink="http://www.w3.org/1999/xlink">
<g id="graph0" class="graph" transform="scale(1 1) rotate(0) translate(4 324)">
<title>boost::array::begin</title>
<!-- Node1 -->
<g id="node1" class="node"><title>Node1</title>
<polygon fill="#bfbfbf" stroke="black" points="0,-144.5 0,-163.5 94,-163.5 94,-144.5 0,-144.5"/>
<text text-anchor="middle" x="47" y="-151.5" font-family="FreeSans" font-size="10.00">boost::array::begin</text>
</g>
<!-- Node2 -->
<g id="node2" class="node"><title>Node2</title>
<g id="a_node2"><a xlink:href="../../d1/d96/classboost_1_1array.html#a96e9739dfe8474380987f85151178d21" target="_top" xlink:title="boost::array::crend">
<polygon fill="none" stroke="black" points="138.5,-300.5 138.5,-319.5 233.5,-319.5 233.5,-300.5 138.5,-300.5"/>
<text text-anchor="middle" x="186" y="-307.5" font-family="FreeSans" font-size="10.00">boost::array::crend</text>
</a>
</g>
</g>
<!-- Node1&#45;&gt;Node2 -->
<g id="edge1" class="edge"><title>Node1&#45;&gt;Node2</title>
<path fill="none" stroke="midnightblue" d="M54.7738,-173.251C65.9939,-202.478 91.1286,-258.016 130,-290 135.257,-294.325 141.529,-297.756 147.926,-300.465"/>
<polygon fill="midnightblue" stroke="midnightblue" points="58.0185,-171.934 51.27,-163.766 51.4522,-174.36 58.0185,-171.934"/>
</g>
<!-- Node3 -->
<g id="node3" class="node"><title>Node3</title>
<g id="a_node3"><a xlink:href="../../d4/d6a/classboost_1_1array_3_01T_00_010_01_4.html#a74275457b742d147f6d717a7d2efc1d8" target="_top" xlink:title="boost::array\&lt; T, 0\l \&gt;::crend">
<polygon fill="none" stroke="black" points="140.5,-251 140.5,-281 231.5,-281 231.5,-251 140.5,-251"/>
<text text-anchor="start" x="148.5" y="-269" font-family="FreeSans" font-size="10.00">boost::array&lt; T, 0</text>
<text text-anchor="middle" x="186" y="-258" font-family="FreeSans" font-size="10.00"> &gt;::crend</text>
</a>
</g>
</g>
<!-- Node1&#45;&gt;Node3 -->
<g id="edge2" class="edge"><title>Node1&#45;&gt;Node3</title>
<path fill="none" stroke="midnightblue" d="M61.1888,-171.652C76.1667,-190.737 102.162,-221.093 130,-241 135.119,-244.661 140.86,-247.979 146.65,-250.914"/>
<polygon fill="midnightblue" stroke="midnightblue" points="63.8067,-169.314 54.9381,-163.518 58.2564,-173.58 63.8067,-169.314"/>
</g>
<!-- Node4 -->
<g id="node4" class="node"><title>Node4</title>
<g id="a_node4"><a xlink:href="../../d4/d6a/classboost_1_1array_3_01T_00_010_01_4.html#a7806326f23f292fdf8fa3350cb6e7038" target="_top" xlink:title="boost::array\&lt; T, 0\l \&gt;::end">
<polygon fill="none" stroke="black" points="140.5,-202 140.5,-232 231.5,-232 231.5,-202 140.5,-202"/>
<text text-anchor="start" x="148.5" y="-220" font-family="FreeSans" font-size="10.00">boost::array&lt; T, 0</text>
<text text-anchor="middle" x="186" y="-209" font-family="FreeSans" font-size="10.00"> &gt;::end</text>
</a>
</g>
</g>
<!-- Node1&#45;&gt;Node4 -->
<g id="edge3" class="edge"><title>Node1&#45;&gt;Node4</title>
<path fill="none" stroke="midnightblue" d="M77.6825,-167.819C93.2485,-175.05 112.64,-184.032 130,-192 137.054,-195.238 144.626,-198.692 151.826,-201.968"/>
<polygon fill="midnightblue" stroke="midnightblue" points="79.0808,-164.609 68.5373,-163.568 76.1302,-170.957 79.0808,-164.609"/>
</g>
<!-- Node5 -->
<g id="node5" class="node"><title>Node5</title>
<g id="a_node5"><a xlink:href="../../d1/d96/classboost_1_1array.html#a4dd92c3399a847641733637356b0c972" target="_top" xlink:title="boost::array::fill">
<polygon fill="none" stroke="black" points="146,-163.5 146,-182.5 226,-182.5 226,-163.5 146,-163.5"/>
<text text-anchor="middle" x="186" y="-170.5" font-family="FreeSans" font-size="10.00">boost::array::fill</text>
</a>
</g>
</g>
<!-- Node1&#45;&gt;Node5 -->
<g id="edge4" class="edge"><title>Node1&#45;&gt;Node5</title>
<path fill="none" stroke="midnightblue" d="M104.036,-161.771C118.04,-163.714 132.764,-165.756 145.758,-167.558"/>
<polygon fill="midnightblue" stroke="midnightblue" points="104.386,-158.287 94.0001,-160.38 103.425,-165.22 104.386,-158.287"/>
</g>
<!-- Node8 -->
<g id="node8" class="node"><title>Node8</title>
<g id="a_node8"><a xlink:href="../../d1/d96/classboost_1_1array.html#aee5d90d90a5fc39cf6bcfe71eadb2dfc" target="_top" xlink:title="boost::array::operator=">
<polygon fill="none" stroke="black" points="130,-125.5 130,-144.5 242,-144.5 242,-125.5 130,-125.5"/>
<text text-anchor="middle" x="186" y="-132.5" font-family="FreeSans" font-size="10.00">boost::array::operator=</text>
</a>
</g>
</g>
<!-- Node1&#45;&gt;Node8 -->
<g id="edge7" class="edge"><title>Node1&#45;&gt;Node8</title>
<path fill="none" stroke="midnightblue" d="M104.179,-146.209C112.66,-145.033 121.401,-143.82 129.86,-142.647"/>
<polygon fill="midnightblue" stroke="midnightblue" points="103.425,-142.78 94.0001,-147.62 104.386,-149.713 103.425,-142.78"/>
</g>
<!-- Node9 -->
<g id="node9" class="node"><title>Node9</title>
<g id="a_node9"><a xlink:href="../../d4/da9/namespaceboost.html#a5052d3eb0b7262cf72d765f0ce814177" target="_top" xlink:title="boost::operator==">
<polygon fill="none" stroke="black" points="140,-87.5 140,-106.5 232,-106.5 232,-87.5 140,-87.5"/>
<text text-anchor="middle" x="186" y="-94.5" font-family="FreeSans" font-size="10.00">boost::operator==</text>
</a>
</g>
</g>
<!-- Node1&#45;&gt;Node9 -->
<g id="edge8" class="edge"><title>Node1&#45;&gt;Node9</title>
<path fill="none" stroke="midnightblue" d="M76.4462,-139.953C92.083,-132.451 111.924,-123.289 130,-116 138.245,-112.675 147.321,-109.391 155.681,-106.513"/>
<polygon fill="midnightblue" stroke="midnightblue" points="74.7824,-136.87 67.3067,-144.377 77.8326,-143.17 74.7824,-136.87"/>
</g>
<!-- Node10 -->
<g id="node10" class="node"><title>Node10</title>
<g id="a_node10"><a xlink:href="../../d1/d96/classboost_1_1array.html#a33b762d7319eef06c90f23c4b23a61da" target="_top" xlink:title="boost::array::rend">
<polygon fill="none" stroke="black" points="141.5,-49.5 141.5,-68.5 230.5,-68.5 230.5,-49.5 141.5,-49.5"/>
<text text-anchor="middle" x="186" y="-56.5" font-family="FreeSans" font-size="10.00">boost::array::rend</text>
</a>
</g>
</g>
<!-- Node1&#45;&gt;Node10 -->
<g id="edge9" class="edge"><title>Node1&#45;&gt;Node10</title>
<path fill="none" stroke="midnightblue" d="M62.507,-136.914C77.7681,-119.89 103.246,-94.0383 130,-78 136.239,-74.2602 143.319,-71.121 150.273,-68.5406"/>
<polygon fill="midnightblue" stroke="midnightblue" points="59.8344,-134.653 55.875,-144.48 65.0985,-139.267 59.8344,-134.653"/>
</g>
<!-- Node11 -->
<g id="node11" class="node"><title>Node11</title>
<g id="a_node11"><a xlink:href="../../d4/d6a/classboost_1_1array_3_01T_00_010_01_4.html#a30e31bcb930534577c9436e9e797c1e9" target="_top" xlink:title="boost::array\&lt; T, 0\l \&gt;::rend">
<polygon fill="none" stroke="black" points="140.5,-0 140.5,-30 231.5,-30 231.5,-0 140.5,-0"/>
<text text-anchor="start" x="148.5" y="-18" font-family="FreeSans" font-size="10.00">boost::array&lt; T, 0</text>
<text text-anchor="middle" x="186" y="-7" font-family="FreeSans" font-size="10.00"> &gt;::rend</text>
</a>
</g>
</g>
<!-- Node1&#45;&gt;Node11 -->
<g id="edge10" class="edge"><title>Node1&#45;&gt;Node11</title>
<path fill="none" stroke="midnightblue" d="M57.3481,-135.44C70.5722,-110.781 96.8645,-67.1774 130,-40 134.542,-36.2751 139.728,-32.9835 145.06,-30.114"/>
<polygon fill="midnightblue" stroke="midnightblue" points="54.1644,-133.975 52.6427,-144.46 60.3708,-137.213 54.1644,-133.975"/>
</g>
<!-- Node6 -->
<g id="node6" class="node"><title>Node6</title>
<g id="a_node6"><a xlink:href="../../d1/d96/classboost_1_1array.html#a3df5174212f1ec0dbe3e01a685ad77e2" target="_top" xlink:title="boost::array::assign">
<polygon fill="none" stroke="black" points="278.5,-185.5 278.5,-204.5 377.5,-204.5 377.5,-185.5 278.5,-185.5"/>
<text text-anchor="middle" x="328" y="-192.5" font-family="FreeSans" font-size="10.00">boost::array::assign</text>
</a>
</g>
</g>
<!-- Node5&#45;&gt;Node6 -->
<g id="edge5" class="edge"><title>Node5&#45;&gt;Node6</title>
<path fill="none" stroke="midnightblue" d="M236.525,-180.783C250.144,-182.923 264.896,-185.241 278.458,-187.372"/>
<polygon fill="midnightblue" stroke="midnightblue" points="236.793,-177.282 226.37,-179.187 235.706,-184.197 236.793,-177.282"/>
</g>
<!-- Node7 -->
<g id="node7" class="node"><title>Node7</title>
<g id="a_node7"><a xlink:href="../../d4/d6a/classboost_1_1array_3_01T_00_010_01_4.html#a9960e06c3fe3469719723a55e8cc2cbe" target="_top" xlink:title="boost::array\&lt; T, 0\l \&gt;::assign">
<polygon fill="none" stroke="black" points="282.5,-136 282.5,-166 373.5,-166 373.5,-136 282.5,-136"/>
<text text-anchor="start" x="290.5" y="-154" font-family="FreeSans" font-size="10.00">boost::array&lt; T, 0</text>
<text text-anchor="middle" x="328" y="-143" font-family="FreeSans" font-size="10.00"> &gt;::assign</text>
</a>
</g>
</g>
<!-- Node5&#45;&gt;Node7 -->
<g id="edge6" class="edge"><title>Node5&#45;&gt;Node7</title>
<path fill="none" stroke="midnightblue" d="M236.445,-165.23C251.367,-162.885 267.657,-160.325 282.254,-158.031"/>
<polygon fill="midnightblue" stroke="midnightblue" points="235.706,-161.803 226.37,-166.813 236.793,-168.718 235.706,-161.803"/>
</g>
</g>
</svg>
