<?xml version="1.0" encoding="UTF-8" standalone="no"?>
<!DOCTYPE svg PUBLIC "-//W3C//DTD SVG 1.1//EN"
 "http://www.w3.org/Graphics/SVG/1.1/DTD/svg11.dtd">
<!-- Generated by graphviz version 2.36.0 (20140111.2315)
 -->
<!-- Title: boost::array::fill Pages: 1 -->
<svg width="224pt" height="77pt"
 viewBox="0.00 0.00 224.00 77.00" xmlns="http://www.w3.org/2000/svg" xmlns:xlink="http://www.w3.org/1999/xlink">
<g id="graph0" class="graph" transform="scale(1 1) rotate(0) translate(4 73)">
<title>boost::array::fill</title>
<!-- Node1 -->
<g id="node1" class="node"><title>Node1</title>
<polygon fill="#bfbfbf" stroke="black" points="0,-27.5 0,-46.5 80,-46.5 80,-27.5 0,-27.5"/>
<text text-anchor="middle" x="40" y="-34.5" font-family="FreeSans" font-size="10.00">boost::array::fill</text>
</g>
<!-- Node2 -->
<g id="node2" class="node"><title>Node2</title>
<g id="a_node2"><a xlink:href="../../d1/d96/classboost_1_1array.html#a3df5174212f1ec0dbe3e01a685ad77e2" target="_top" xlink:title="boost::array::assign">
<polygon fill="none" stroke="black" points="116.5,-49.5 116.5,-68.5 215.5,-68.5 215.5,-49.5 116.5,-49.5"/>
<text text-anchor="middle" x="166" y="-56.5" font-family="FreeSans" font-size="10.00">boost::array::assign</text>
</a>
</g>
</g>
<!-- Node1&#45;&gt;Node2 -->
<g id="edge1" class="edge"><title>Node1&#45;&gt;Node2</title>
<path fill="none" stroke="midnightblue" d="M90.1778,-45.7251C98.8206,-47.2585 107.811,-48.8535 116.437,-50.3839"/>
<polygon fill="midnightblue" stroke="midnightblue" points="90.6921,-42.2617 80.2344,-43.9609 89.4692,-49.1541 90.6921,-42.2617"/>
</g>
<!-- Node3 -->
<g id="node3" class="node"><title>Node3</title>
<g id="a_node3"><a xlink:href="../../d4/d6a/classboost_1_1array_3_01T_00_010_01_4.html#a9960e06c3fe3469719723a55e8cc2cbe" target="_top" xlink:title="boost::array\&lt; T, 0\l \&gt;::assign">
<polygon fill="none" stroke="black" points="120.5,-0 120.5,-30 211.5,-30 211.5,-0 120.5,-0"/>
<text text-anchor="start" x="128.5" y="-18" font-family="FreeSans" font-size="10.00">boost::array&lt; T, 0</text>
<text text-anchor="middle" x="166" y="-7" font-family="FreeSans" font-size="10.00"> &gt;::assign</text>
</a>
</g>
</g>
<!-- Node1&#45;&gt;Node3 -->
<g id="edge2" class="edge"><title>Node1&#45;&gt;Node3</title>
<path fill="none" stroke="midnightblue" d="M90.3658,-28.2416C100.288,-26.4812 110.66,-24.6409 120.408,-22.9114"/>
<polygon fill="midnightblue" stroke="midnightblue" points="89.4692,-24.8459 80.2344,-30.0391 90.6921,-31.7383 89.4692,-24.8459"/>
</g>
</g>
</svg>
