<?xml version="1.0" encoding="UTF-8" standalone="no"?>
<!DOCTYPE svg PUBLIC "-//W3C//DTD SVG 1.1//EN"
 "http://www.w3.org/Graphics/SVG/1.1/DTD/svg11.dtd">
<!-- Generated by graphviz version 2.36.0 (20140111.2315)
 -->
<!-- Title: boost::array::assign Pages: 1 -->
<svg width="354pt" height="66pt"
 viewBox="0.00 0.00 354.00 66.00" xmlns="http://www.w3.org/2000/svg" xmlns:xlink="http://www.w3.org/1999/xlink">
<g id="graph0" class="graph" transform="scale(1 1) rotate(0) translate(4 62)">
<title>boost::array::assign</title>
<!-- Node1 -->
<g id="node1" class="node"><title>Node1</title>
<polygon fill="#bfbfbf" stroke="black" points="0.5,-19.5 0.5,-38.5 99.5,-38.5 99.5,-19.5 0.5,-19.5"/>
<text text-anchor="middle" x="50" y="-26.5" font-family="FreeSans" font-size="10.00">boost::array::assign</text>
</g>
<!-- Node2 -->
<g id="node2" class="node"><title>Node2</title>
<g id="a_node2"><a xlink:href="../../d1/d96/classboost_1_1array.html#a4dd92c3399a847641733637356b0c972" target="_top" xlink:title="boost::array::fill">
<polygon fill="none" stroke="black" points="136,-19.5 136,-38.5 216,-38.5 216,-19.5 136,-19.5"/>
<text text-anchor="middle" x="176" y="-26.5" font-family="FreeSans" font-size="10.00">boost::array::fill</text>
</a>
</g>
</g>
<!-- Node1&#45;&gt;Node2 -->
<g id="edge1" class="edge"><title>Node1&#45;&gt;Node2</title>
<path fill="none" stroke="midnightblue" d="M99.6522,-29C108.142,-29 116.982,-29 125.495,-29"/>
<polygon fill="midnightblue" stroke="midnightblue" points="125.67,-32.5001 135.67,-29 125.67,-25.5001 125.67,-32.5001"/>
</g>
<!-- Node3 -->
<g id="node3" class="node"><title>Node3</title>
<g id="a_node3"><a xlink:href="../../d1/d96/classboost_1_1array.html#a692b0cab4e768f391c6784c799ea61ab" target="_top" xlink:title="boost::array::begin">
<polygon fill="none" stroke="black" points="252,-38.5 252,-57.5 346,-57.5 346,-38.5 252,-38.5"/>
<text text-anchor="middle" x="299" y="-45.5" font-family="FreeSans" font-size="10.00">boost::array::begin</text>
</a>
</g>
</g>
<!-- Node2&#45;&gt;Node3 -->
<g id="edge2" class="edge"><title>Node2&#45;&gt;Node3</title>
<path fill="none" stroke="midnightblue" d="M216.285,-35.1688C224.419,-36.446 233.139,-37.8153 241.744,-39.1664"/>
<polygon fill="midnightblue" stroke="midnightblue" points="241.329,-42.644 251.751,-40.7377 242.415,-35.7288 241.329,-42.644"/>
</g>
<!-- Node4 -->
<g id="node4" class="node"><title>Node4</title>
<g id="a_node4"><a xlink:href="../../d1/d96/classboost_1_1array.html#aaf4df5cfae58ef79c61cddcb80cad437" target="_top" xlink:title="boost::array::size">
<polygon fill="none" stroke="black" points="255,-0.5 255,-19.5 343,-19.5 343,-0.5 255,-0.5"/>
<text text-anchor="middle" x="299" y="-7.5" font-family="FreeSans" font-size="10.00">boost::array::size</text>
</a>
</g>
</g>
<!-- Node2&#45;&gt;Node4 -->
<g id="edge3" class="edge"><title>Node2&#45;&gt;Node4</title>
<path fill="none" stroke="midnightblue" d="M216.285,-22.8312C225.306,-21.4148 235.046,-19.8853 244.552,-18.3927"/>
<polygon fill="midnightblue" stroke="midnightblue" points="245.393,-21.8036 254.729,-16.7947 244.307,-14.8884 245.393,-21.8036"/>
</g>
</g>
</svg>
