<?xml version="1.0" encoding="UTF-8" standalone="no"?>
<!DOCTYPE svg PUBLIC "-//W3C//DTD SVG 1.1//EN"
 "http://www.w3.org/Graphics/SVG/1.1/DTD/svg11.dtd">
<!-- Generated by graphviz version 2.36.0 (20140111.2315)
 -->
<!-- Title: boost::array::swap Pages: 1 -->
<svg width="206pt" height="28pt"
 viewBox="0.00 0.00 206.00 28.00" xmlns="http://www.w3.org/2000/svg" xmlns:xlink="http://www.w3.org/1999/xlink">
<g id="graph0" class="graph" transform="scale(1 1) rotate(0) translate(4 24)">
<title>boost::array::swap</title>
<!-- Node1 -->
<g id="node1" class="node"><title>Node1</title>
<polygon fill="#bfbfbf" stroke="black" points="0,-0.5 0,-19.5 94,-19.5 94,-0.5 0,-0.5"/>
<text text-anchor="middle" x="47" y="-7.5" font-family="FreeSans" font-size="10.00">boost::array::swap</text>
</g>
<!-- Node2 -->
<g id="node2" class="node"><title>Node2</title>
<g id="a_node2"><a xlink:href="../../d4/da9/namespaceboost.html#a630945877437d477612e4419562161cc" target="_top" xlink:title="boost::swap">
<polygon fill="none" stroke="black" points="130,-0.5 130,-19.5 198,-19.5 198,-0.5 130,-0.5"/>
<text text-anchor="middle" x="164" y="-7.5" font-family="FreeSans" font-size="10.00">boost::swap</text>
</a>
</g>
</g>
<!-- Node1&#45;&gt;Node2 -->
<g id="edge1" class="edge"><title>Node1&#45;&gt;Node2</title>
<path fill="none" stroke="midnightblue" d="M94.1123,-3.36906C102.642,-3.18857 111.52,-3.21329 119.954,-3.44324"/>
<polygon fill="midnightblue" stroke="midnightblue" points="119.842,-6.94143 129.969,-3.8255 120.109,0.0534773 119.842,-6.94143"/>
</g>
<!-- Node2&#45;&gt;Node1 -->
<g id="edge2" class="edge"><title>Node2&#45;&gt;Node1</title>
<path fill="none" stroke="midnightblue" d="M129.969,-16.1745C121.939,-16.5757 113.126,-16.7671 104.35,-16.7488"/>
<polygon fill="midnightblue" stroke="midnightblue" points="104.152,-13.2464 94.1123,-16.6309 104.071,-20.2459 104.152,-13.2464"/>
</g>
</g>
</svg>
