<?xml version="1.0" encoding="UTF-8" standalone="no"?>
<!DOCTYPE svg PUBLIC "-//W3C//DTD SVG 1.1//EN"
 "http://www.w3.org/Graphics/SVG/1.1/DTD/svg11.dtd">
<!-- Generated by graphviz version 2.36.0 (20140111.2315)
 -->
<!-- Title: boost::array::size Pages: 1 -->
<svg width="390pt" height="116pt"
 viewBox="0.00 0.00 390.00 116.00" xmlns="http://www.w3.org/2000/svg" xmlns:xlink="http://www.w3.org/1999/xlink">
<g id="graph0" class="graph" transform="scale(1 1) rotate(0) translate(4 112)">
<title>boost::array::size</title>
<!-- Node1 -->
<g id="node1" class="node"><title>Node1</title>
<polygon fill="#bfbfbf" stroke="black" points="0,-23.5 0,-42.5 88,-42.5 88,-23.5 0,-23.5"/>
<text text-anchor="middle" x="44" y="-30.5" font-family="FreeSans" font-size="10.00">boost::array::size</text>
</g>
<!-- Node2 -->
<g id="node2" class="node"><title>Node2</title>
<g id="a_node2"><a xlink:href="../../d1/d96/classboost_1_1array.html#a4dd92c3399a847641733637356b0c972" target="_top" xlink:title="boost::array::fill">
<polygon fill="none" stroke="black" points="145,-44.5 145,-63.5 225,-63.5 225,-44.5 145,-44.5"/>
<text text-anchor="middle" x="185" y="-51.5" font-family="FreeSans" font-size="10.00">boost::array::fill</text>
</a>
</g>
</g>
<!-- Node1&#45;&gt;Node2 -->
<g id="edge1" class="edge"><title>Node1&#45;&gt;Node2</title>
<path fill="none" stroke="midnightblue" d="M98.1606,-41.0315C113.592,-43.3628 130.162,-45.8663 144.589,-48.0459"/>
<polygon fill="midnightblue" stroke="midnightblue" points="98.6292,-37.5626 88.2185,-39.5294 97.5834,-44.4841 98.6292,-37.5626"/>
</g>
<!-- Node5 -->
<g id="node5" class="node"><title>Node5</title>
<g id="a_node5"><a xlink:href="../../d1/d96/classboost_1_1array.html#a1655c9d6521634ef0faae2fe907db5b3" target="_top" xlink:title="boost::array::rangecheck">
<polygon fill="none" stroke="black" points="124.5,-3.5 124.5,-22.5 245.5,-22.5 245.5,-3.5 124.5,-3.5"/>
<text text-anchor="middle" x="185" y="-10.5" font-family="FreeSans" font-size="10.00">boost::array::rangecheck</text>
</a>
</g>
</g>
<!-- Node1&#45;&gt;Node5 -->
<g id="edge4" class="edge"><title>Node1&#45;&gt;Node5</title>
<path fill="none" stroke="midnightblue" d="M98.1333,-25.3549C106.748,-24.1155 115.717,-22.8248 124.472,-21.5652"/>
<polygon fill="midnightblue" stroke="midnightblue" points="97.6181,-21.8929 88.2185,-26.7815 98.6151,-28.8216 97.6181,-21.8929"/>
</g>
<!-- Node3 -->
<g id="node3" class="node"><title>Node3</title>
<g id="a_node3"><a xlink:href="../../d1/d96/classboost_1_1array.html#a3df5174212f1ec0dbe3e01a685ad77e2" target="_top" xlink:title="boost::array::assign">
<polygon fill="none" stroke="black" points="282.5,-88.5 282.5,-107.5 381.5,-107.5 381.5,-88.5 282.5,-88.5"/>
<text text-anchor="middle" x="332" y="-95.5" font-family="FreeSans" font-size="10.00">boost::array::assign</text>
</a>
</g>
</g>
<!-- Node2&#45;&gt;Node3 -->
<g id="edge2" class="edge"><title>Node2&#45;&gt;Node3</title>
<path fill="none" stroke="midnightblue" d="M227.287,-66.5285C250.27,-73.5027 278.426,-82.0465 299.599,-88.4713"/>
<polygon fill="midnightblue" stroke="midnightblue" points="228.048,-63.102 217.463,-63.5473 226.016,-69.8003 228.048,-63.102"/>
</g>
<!-- Node4 -->
<g id="node4" class="node"><title>Node4</title>
<g id="a_node4"><a xlink:href="../../d4/d6a/classboost_1_1array_3_01T_00_010_01_4.html#a9960e06c3fe3469719723a55e8cc2cbe" target="_top" xlink:title="boost::array\&lt; T, 0\l \&gt;::assign">
<polygon fill="none" stroke="black" points="286.5,-39 286.5,-69 377.5,-69 377.5,-39 286.5,-39"/>
<text text-anchor="start" x="294.5" y="-57" font-family="FreeSans" font-size="10.00">boost::array&lt; T, 0</text>
<text text-anchor="middle" x="332" y="-46" font-family="FreeSans" font-size="10.00"> &gt;::assign</text>
</a>
</g>
</g>
<!-- Node2&#45;&gt;Node4 -->
<g id="edge3" class="edge"><title>Node2&#45;&gt;Node4</title>
<path fill="none" stroke="midnightblue" d="M235.274,-54C251.823,-54 270.177,-54 286.35,-54"/>
<polygon fill="midnightblue" stroke="midnightblue" points="235.239,-50.5001 225.239,-54 235.239,-57.5001 235.239,-50.5001"/>
</g>
<!-- Node6 -->
<g id="node6" class="node"><title>Node6</title>
<g id="a_node6"><a xlink:href="../../d1/d96/classboost_1_1array.html#ab1d1b3cebca2a48519d249809c6963e5" target="_top" xlink:title="boost::array::at">
<polygon fill="none" stroke="black" points="292.5,-0.5 292.5,-19.5 371.5,-19.5 371.5,-0.5 292.5,-0.5"/>
<text text-anchor="middle" x="332" y="-7.5" font-family="FreeSans" font-size="10.00">boost::array::at</text>
</a>
</g>
</g>
<!-- Node5&#45;&gt;Node6 -->
<g id="edge5" class="edge"><title>Node5&#45;&gt;Node6</title>
<path fill="none" stroke="midnightblue" d="M255.867,-11.5545C268.467,-11.2938 281.174,-11.0309 292.461,-10.7974"/>
<polygon fill="midnightblue" stroke="midnightblue" points="255.74,-8.05626 245.814,-11.7625 255.884,-15.0548 255.74,-8.05626"/>
</g>
</g>
</svg>
