<?xml version="1.0" encoding="UTF-8" standalone="no"?>
<!DOCTYPE svg PUBLIC "-//W3C//DTD SVG 1.1//EN"
 "http://www.w3.org/Graphics/SVG/1.1/DTD/svg11.dtd">
<!-- Generated by graphviz version 2.36.0 (20140111.2315)
 -->
<!-- Title: fun4all/fun4all/SubsysReco.h Pages: 1 -->
<svg width="801pt" height="164pt"
 viewBox="0.00 0.00 801.00 164.00" xmlns="http://www.w3.org/2000/svg" xmlns:xlink="http://www.w3.org/1999/xlink">
<g id="graph0" class="graph" transform="scale(1 1) rotate(0) translate(4 160)">
<title>fun4all/fun4all/SubsysReco.h</title>
<!-- Node1 -->
<g id="node1" class="node"><title>Node1</title>
<polygon fill="#bfbfbf" stroke="black" points="327,-136.5 327,-155.5 469,-155.5 469,-136.5 327,-136.5"/>
<text text-anchor="middle" x="398" y="-143.5" font-family="FreeSans" font-size="10.00">fun4all/fun4all/SubsysReco.h</text>
</g>
<!-- Node2 -->
<g id="node2" class="node"><title>Node2</title>
<g id="a_node2"><a xlink:href="../../d0/d56/Fun4AllInputManager_8cc.html" target="_top" xlink:title="fun4all/fun4all/Fun4AllInput\lManager.cc">
<polygon fill="none" stroke="black" points="0,-69 0,-99 134,-99 134,-69 0,-69"/>
<text text-anchor="start" x="8" y="-87" font-family="FreeSans" font-size="10.00">fun4all/fun4all/Fun4AllInput</text>
<text text-anchor="middle" x="67" y="-76" font-family="FreeSans" font-size="10.00">Manager.cc</text>
</a>
</g>
</g>
<!-- Node1&#45;&gt;Node2 -->
<g id="edge1" class="edge"><title>Node1&#45;&gt;Node2</title>
<path fill="none" stroke="midnightblue" d="M337.624,-134.699C285.915,-125.792 209.492,-112.427 143,-100 140.092,-99.4564 137.122,-98.8955 134.123,-98.3242"/>
<polygon fill="midnightblue" stroke="midnightblue" points="337.178,-138.174 347.626,-136.419 338.364,-131.275 337.178,-138.174"/>
</g>
<!-- Node3 -->
<g id="node3" class="node"><title>Node3</title>
<g id="a_node3"><a xlink:href="../../d8/d7a/Fun4AllServer_8cc.html" target="_top" xlink:title="fun4all/fun4all/Fun4AllServer.cc">
<polygon fill="none" stroke="black" points="152,-74.5 152,-93.5 306,-93.5 306,-74.5 152,-74.5"/>
<text text-anchor="middle" x="229" y="-81.5" font-family="FreeSans" font-size="10.00">fun4all/fun4all/Fun4AllServer.cc</text>
</a>
</g>
</g>
<!-- Node1&#45;&gt;Node3 -->
<g id="edge2" class="edge"><title>Node1&#45;&gt;Node3</title>
<path fill="none" stroke="midnightblue" d="M364.151,-132.983C331.3,-121.32 282.263,-103.91 253.169,-93.5806"/>
<polygon fill="midnightblue" stroke="midnightblue" points="363.192,-136.356 373.786,-136.403 365.534,-129.759 363.192,-136.356"/>
</g>
<!-- Node4 -->
<g id="node4" class="node"><title>Node4</title>
<g id="a_node4"><a xlink:href="../../de/d98/SubsysReco_8cc.html" target="_top" xlink:title="fun4all/fun4all/SubsysReco.cc">
<polygon fill="none" stroke="black" points="324.5,-74.5 324.5,-93.5 471.5,-93.5 471.5,-74.5 324.5,-74.5"/>
<text text-anchor="middle" x="398" y="-81.5" font-family="FreeSans" font-size="10.00">fun4all/fun4all/SubsysReco.cc</text>
</a>
</g>
</g>
<!-- Node1&#45;&gt;Node4 -->
<g id="edge3" class="edge"><title>Node1&#45;&gt;Node4</title>
<path fill="none" stroke="midnightblue" d="M398,-126.16C398,-115.248 398,-102.04 398,-93.5806"/>
<polygon fill="midnightblue" stroke="midnightblue" points="394.5,-126.403 398,-136.403 401.5,-126.403 394.5,-126.403"/>
</g>
<!-- Node5 -->
<g id="node5" class="node"><title>Node5</title>
<g id="a_node5"><a xlink:href="../../d9/d40/ReadMySql_8h.html" target="_top" xlink:title="fun4all/modules/ReadMySql.h">
<polygon fill="none" stroke="black" points="489.5,-74.5 489.5,-93.5 634.5,-93.5 634.5,-74.5 489.5,-74.5"/>
<text text-anchor="middle" x="562" y="-81.5" font-family="FreeSans" font-size="10.00">fun4all/modules/ReadMySql.h</text>
</a>
</g>
</g>
<!-- Node1&#45;&gt;Node5 -->
<g id="edge4" class="edge"><title>Node1&#45;&gt;Node5</title>
<path fill="none" stroke="midnightblue" d="M431.261,-132.831C463.136,-121.17 510.434,-103.865 538.546,-93.5806"/>
<polygon fill="midnightblue" stroke="midnightblue" points="429.686,-129.681 421.497,-136.403 432.091,-136.255 429.686,-129.681"/>
</g>
<!-- Node7 -->
<g id="node7" class="node"><title>Node7</title>
<g id="a_node7"><a xlink:href="../../d4/dcb/SimpleReadMySql_8h.html" target="_top" xlink:title="fun4all/modules/SimpleRead\lMySql.h">
<polygon fill="none" stroke="black" points="653,-69 653,-99 793,-99 793,-69 653,-69"/>
<text text-anchor="start" x="661" y="-87" font-family="FreeSans" font-size="10.00">fun4all/modules/SimpleRead</text>
<text text-anchor="middle" x="723" y="-76" font-family="FreeSans" font-size="10.00">MySql.h</text>
</a>
</g>
</g>
<!-- Node1&#45;&gt;Node7 -->
<g id="edge6" class="edge"><title>Node1&#45;&gt;Node7</title>
<path fill="none" stroke="midnightblue" d="M454.884,-134.613C504.547,-125.531 578.557,-111.96 643,-100 646.196,-99.407 649.463,-98.7994 652.763,-98.1847"/>
<polygon fill="midnightblue" stroke="midnightblue" points="454.185,-131.183 444.978,-136.425 455.444,-138.069 454.185,-131.183"/>
</g>
<!-- Node6 -->
<g id="node6" class="node"><title>Node6</title>
<g id="a_node6"><a xlink:href="../../dd/d12/ReadMySql_8C.html" target="_top" xlink:title="fun4all/modules/ReadMySql.C">
<polygon fill="none" stroke="black" points="489,-6.5 489,-25.5 635,-25.5 635,-6.5 489,-6.5"/>
<text text-anchor="middle" x="562" y="-13.5" font-family="FreeSans" font-size="10.00">fun4all/modules/ReadMySql.C</text>
</a>
</g>
</g>
<!-- Node5&#45;&gt;Node6 -->
<g id="edge5" class="edge"><title>Node5&#45;&gt;Node6</title>
<path fill="none" stroke="midnightblue" d="M562,-64.0413C562,-51.4724 562,-35.5631 562,-25.8411"/>
<polygon fill="midnightblue" stroke="midnightblue" points="558.5,-64.3716 562,-74.3717 565.5,-64.3717 558.5,-64.3716"/>
</g>
<!-- Node8 -->
<g id="node8" class="node"><title>Node8</title>
<g id="a_node8"><a xlink:href="../../dd/d2f/SimpleReadMySql_8C.html" target="_top" xlink:title="fun4all/modules/SimpleRead\lMySql.C">
<polygon fill="none" stroke="black" points="653,-1 653,-31 793,-31 793,-1 653,-1"/>
<text text-anchor="start" x="661" y="-19" font-family="FreeSans" font-size="10.00">fun4all/modules/SimpleRead</text>
<text text-anchor="middle" x="723" y="-8" font-family="FreeSans" font-size="10.00">MySql.C</text>
</a>
</g>
</g>
<!-- Node7&#45;&gt;Node8 -->
<g id="edge7" class="edge"><title>Node7&#45;&gt;Node8</title>
<path fill="none" stroke="midnightblue" d="M723,-58.5322C723,-49.3606 723,-39.2449 723,-31.2931"/>
<polygon fill="midnightblue" stroke="midnightblue" points="719.5,-58.6789 723,-68.679 726.5,-58.679 719.5,-58.6789"/>
</g>
</g>
</svg>
