<?xml version="1.0" encoding="UTF-8" standalone="no"?>
<!DOCTYPE svg PUBLIC "-//W3C//DTD SVG 1.1//EN"
 "http://www.w3.org/Graphics/SVG/1.1/DTD/svg11.dtd">
<!-- Generated by graphviz version 2.36.0 (20140111.2315)
 -->
<!-- Title: Fun4AllPrdfInputManager::~Fun4AllPrdfInputManager Pages: 1 -->
<svg width="450pt" height="38pt"
 viewBox="0.00 0.00 450.00 38.00" xmlns="http://www.w3.org/2000/svg" xmlns:xlink="http://www.w3.org/1999/xlink">
<g id="graph0" class="graph" transform="scale(1 1) rotate(0) translate(4 34)">
<title>Fun4AllPrdfInputManager::~Fun4AllPrdfInputManager</title>
<!-- Node1 -->
<g id="node1" class="node"><title>Node1</title>
<polygon fill="#bfbfbf" stroke="black" points="0.5,-0 0.5,-30 137.5,-30 137.5,-0 0.5,-0"/>
<text text-anchor="start" x="8.5" y="-18" font-family="FreeSans" font-size="10.00">Fun4AllPrdfInputManager</text>
<text text-anchor="middle" x="69" y="-7" font-family="FreeSans" font-size="10.00">::~Fun4AllPrdfInputManager</text>
</g>
<!-- Node2 -->
<g id="node2" class="node"><title>Node2</title>
<g id="a_node2"><a xlink:href="../../da/dd8/classFun4AllPrdfInputManager.html#a678edaaccda7214183cc67f7a19e1925" target="_top" xlink:title="Fun4AllPrdfInputManager\l::fileclose">
<polygon fill="none" stroke="black" points="174.5,-0 174.5,-30 301.5,-30 301.5,-0 174.5,-0"/>
<text text-anchor="start" x="182.5" y="-18" font-family="FreeSans" font-size="10.00">Fun4AllPrdfInputManager</text>
<text text-anchor="middle" x="238" y="-7" font-family="FreeSans" font-size="10.00">::fileclose</text>
</a>
</g>
</g>
<!-- Node1&#45;&gt;Node2 -->
<g id="edge1" class="edge"><title>Node1&#45;&gt;Node2</title>
<path fill="none" stroke="midnightblue" d="M137.925,-15C146.558,-15 155.42,-15 164.126,-15"/>
<polygon fill="midnightblue" stroke="midnightblue" points="164.251,-18.5001 174.251,-15 164.251,-11.5001 164.251,-18.5001"/>
</g>
<!-- Node3 -->
<g id="node3" class="node"><title>Node3</title>
<g id="a_node3"><a xlink:href="../../d5/dec/classFun4AllBase.html#a41f9ac377743d046f590617fd6f4f0ed" target="_top" xlink:title="Returns the name of this module. ">
<polygon fill="none" stroke="black" points="338.5,-5.5 338.5,-24.5 441.5,-24.5 441.5,-5.5 338.5,-5.5"/>
<text text-anchor="middle" x="390" y="-12.5" font-family="FreeSans" font-size="10.00">Fun4AllBase::Name</text>
</a>
</g>
</g>
<!-- Node2&#45;&gt;Node3 -->
<g id="edge2" class="edge"><title>Node2&#45;&gt;Node3</title>
<path fill="none" stroke="midnightblue" d="M301.744,-15C310.515,-15 319.516,-15 328.249,-15"/>
<polygon fill="midnightblue" stroke="midnightblue" points="328.348,-18.5001 338.348,-15 328.348,-11.5001 328.348,-18.5001"/>
</g>
</g>
</svg>
