<?xml version="1.0" encoding="UTF-8" standalone="no"?>
<!DOCTYPE svg PUBLIC "-//W3C//DTD SVG 1.1//EN"
 "http://www.w3.org/Graphics/SVG/1.1/DTD/svg11.dtd">
<!-- Generated by graphviz version 2.36.0 (20140111.2315)
 -->
<!-- Title: Fun4AllPrdfInputManager::Print Pages: 1 -->
<svg width="422pt" height="38pt"
 viewBox="0.00 0.00 422.00 38.00" xmlns="http://www.w3.org/2000/svg" xmlns:xlink="http://www.w3.org/1999/xlink">
<g id="graph0" class="graph" transform="scale(1 1) rotate(0) translate(4 34)">
<title>Fun4AllPrdfInputManager::Print</title>
<!-- Node1 -->
<g id="node1" class="node"><title>Node1</title>
<polygon fill="#bfbfbf" stroke="black" points="0.5,-0 0.5,-30 127.5,-30 127.5,-0 0.5,-0"/>
<text text-anchor="start" x="8.5" y="-18" font-family="FreeSans" font-size="10.00">Fun4AllPrdfInputManager</text>
<text text-anchor="middle" x="64" y="-7" font-family="FreeSans" font-size="10.00">::Print</text>
</g>
<!-- Node2 -->
<g id="node2" class="node"><title>Node2</title>
<g id="a_node2"><a xlink:href="../../d4/da9/classFun4AllInputManager.html#a9497acf06b6422e1a5ecf8c794648624" target="_top" xlink:title="Fun4AllInputManager\l::Print">
<polygon fill="none" stroke="black" points="164.5,-0 164.5,-30 273.5,-30 273.5,-0 164.5,-0"/>
<text text-anchor="start" x="172.5" y="-18" font-family="FreeSans" font-size="10.00">Fun4AllInputManager</text>
<text text-anchor="middle" x="219" y="-7" font-family="FreeSans" font-size="10.00">::Print</text>
</a>
</g>
</g>
<!-- Node1&#45;&gt;Node2 -->
<g id="edge1" class="edge"><title>Node1&#45;&gt;Node2</title>
<path fill="none" stroke="midnightblue" d="M127.672,-15C136.451,-15 145.481,-15 154.279,-15"/>
<polygon fill="midnightblue" stroke="midnightblue" points="154.471,-18.5001 164.471,-15 154.471,-11.5001 154.471,-18.5001"/>
</g>
<!-- Node3 -->
<g id="node3" class="node"><title>Node3</title>
<g id="a_node3"><a xlink:href="../../d5/dec/classFun4AllBase.html#a41f9ac377743d046f590617fd6f4f0ed" target="_top" xlink:title="Returns the name of this module. ">
<polygon fill="none" stroke="black" points="310.5,-5.5 310.5,-24.5 413.5,-24.5 413.5,-5.5 310.5,-5.5"/>
<text text-anchor="middle" x="362" y="-12.5" font-family="FreeSans" font-size="10.00">Fun4AllBase::Name</text>
</a>
</g>
</g>
<!-- Node2&#45;&gt;Node3 -->
<g id="edge2" class="edge"><title>Node2&#45;&gt;Node3</title>
<path fill="none" stroke="midnightblue" d="M273.708,-15C282.323,-15 291.292,-15 300.06,-15"/>
<polygon fill="midnightblue" stroke="midnightblue" points="300.228,-18.5001 310.228,-15 300.228,-11.5001 300.228,-18.5001"/>
</g>
</g>
</svg>
