<?xml version="1.0" encoding="UTF-8" standalone="no"?>
<!DOCTYPE svg PUBLIC "-//W3C//DTD SVG 1.1//EN"
 "http://www.w3.org/Graphics/SVG/1.1/DTD/svg11.dtd">
<!-- Generated by graphviz version 2.36.0 (20140111.2315)
 -->
<!-- Title: Fun4AllPrdfInputManager::fileclose Pages: 1 -->
<svg width="656pt" height="175pt"
 viewBox="0.00 0.00 656.00 175.00" xmlns="http://www.w3.org/2000/svg" xmlns:xlink="http://www.w3.org/1999/xlink">
<g id="graph0" class="graph" transform="scale(1 1) rotate(0) translate(4 171)">
<title>Fun4AllPrdfInputManager::fileclose</title>
<!-- Node1 -->
<g id="node1" class="node"><title>Node1</title>
<polygon fill="#bfbfbf" stroke="black" points="0.5,-71 0.5,-101 127.5,-101 127.5,-71 0.5,-71"/>
<text text-anchor="start" x="8.5" y="-89" font-family="FreeSans" font-size="10.00">Fun4AllPrdfInputManager</text>
<text text-anchor="middle" x="64" y="-78" font-family="FreeSans" font-size="10.00">::fileclose</text>
</g>
<!-- Node2 -->
<g id="node2" class="node"><title>Node2</title>
<g id="a_node2"><a xlink:href="../../da/dd8/classFun4AllPrdfInputManager.html#af7c7687826ed9f7495f0837fbc7f3f1e" target="_top" xlink:title="Fun4AllPrdfInputManager\l::fileopen">
<polygon fill="none" stroke="black" points="169.5,-137 169.5,-167 296.5,-167 296.5,-137 169.5,-137"/>
<text text-anchor="start" x="177.5" y="-155" font-family="FreeSans" font-size="10.00">Fun4AllPrdfInputManager</text>
<text text-anchor="middle" x="233" y="-144" font-family="FreeSans" font-size="10.00">::fileopen</text>
</a>
</g>
</g>
<!-- Node1&#45;&gt;Node2 -->
<g id="edge1" class="edge"><title>Node1&#45;&gt;Node2</title>
<path fill="none" stroke="midnightblue" d="M112.867,-104.917C138.571,-115.076 169.821,-127.426 193.865,-136.929"/>
<polygon fill="midnightblue" stroke="midnightblue" points="113.9,-101.562 103.313,-101.142 111.327,-108.072 113.9,-101.562"/>
</g>
<!-- Node4 -->
<g id="node4" class="node"><title>Node4</title>
<g id="a_node4"><a xlink:href="../../da/dd8/classFun4AllPrdfInputManager.html#ac3f313ef5571ce32cd40799791e2ea56" target="_top" xlink:title="Fun4AllPrdfInputManager::run">
<polygon fill="none" stroke="black" points="502.5,-120.5 502.5,-139.5 647.5,-139.5 647.5,-120.5 502.5,-120.5"/>
<text text-anchor="middle" x="575" y="-127.5" font-family="FreeSans" font-size="10.00">Fun4AllPrdfInputManager::run</text>
</a>
</g>
</g>
<!-- Node1&#45;&gt;Node4 -->
<g id="edge5" class="edge"><title>Node1&#45;&gt;Node4</title>
<path fill="none" stroke="midnightblue" d="M137.686,-92.2833C234.714,-100.671 405.522,-115.436 502.133,-123.788"/>
<polygon fill="midnightblue" stroke="midnightblue" points="137.933,-88.7916 127.668,-91.4173 137.33,-95.7656 137.933,-88.7916"/>
</g>
<!-- Node5 -->
<g id="node5" class="node"><title>Node5</title>
<g id="a_node5"><a xlink:href="../../da/dd8/classFun4AllPrdfInputManager.html#a3bee0d21f2328a1165efb3f8ea7b9588" target="_top" xlink:title="Fun4AllPrdfInputManager\l::PushBackEvents">
<polygon fill="none" stroke="black" points="169.5,-49 169.5,-79 296.5,-79 296.5,-49 169.5,-49"/>
<text text-anchor="start" x="177.5" y="-67" font-family="FreeSans" font-size="10.00">Fun4AllPrdfInputManager</text>
<text text-anchor="middle" x="233" y="-56" font-family="FreeSans" font-size="10.00">::PushBackEvents</text>
</a>
</g>
</g>
<!-- Node1&#45;&gt;Node5 -->
<g id="edge4" class="edge"><title>Node1&#45;&gt;Node5</title>
<path fill="none" stroke="midnightblue" d="M137.661,-76.4279C148.191,-75.0407 158.955,-73.6228 169.267,-72.2642"/>
<polygon fill="midnightblue" stroke="midnightblue" points="137.117,-72.9692 127.66,-77.7454 138.031,-79.9093 137.117,-72.9692"/>
</g>
<!-- Node6 -->
<g id="node6" class="node"><title>Node6</title>
<g id="a_node6"><a xlink:href="../../da/dd8/classFun4AllPrdfInputManager.html#ae787481494b3799d06ad43f7cf15385e" target="_top" xlink:title="Fun4AllPrdfInputManager\l::~Fun4AllPrdfInputManager">
<polygon fill="none" stroke="black" points="164.5,-0 164.5,-30 301.5,-30 301.5,-0 164.5,-0"/>
<text text-anchor="start" x="172.5" y="-18" font-family="FreeSans" font-size="10.00">Fun4AllPrdfInputManager</text>
<text text-anchor="middle" x="233" y="-7" font-family="FreeSans" font-size="10.00">::~Fun4AllPrdfInputManager</text>
</a>
</g>
</g>
<!-- Node1&#45;&gt;Node6 -->
<g id="edge6" class="edge"><title>Node1&#45;&gt;Node6</title>
<path fill="none" stroke="midnightblue" d="M105.425,-66.296C123.236,-57.8542 144.506,-48.096 164,-40 172.131,-36.623 180.9,-33.2235 189.35,-30.0665"/>
<polygon fill="midnightblue" stroke="midnightblue" points="103.437,-63.3664 95.9187,-70.8315 106.451,-69.6841 103.437,-63.3664"/>
</g>
<!-- Node3 -->
<g id="node3" class="node"><title>Node3</title>
<g id="a_node3"><a xlink:href="../../da/dd8/classFun4AllPrdfInputManager.html#ad41dec5d04fecb25543013a8971a503c" target="_top" xlink:title="Fun4AllPrdfInputManager\l::OpenNextFile">
<polygon fill="none" stroke="black" points="338.5,-137 338.5,-167 465.5,-167 465.5,-137 338.5,-137"/>
<text text-anchor="start" x="346.5" y="-155" font-family="FreeSans" font-size="10.00">Fun4AllPrdfInputManager</text>
<text text-anchor="middle" x="402" y="-144" font-family="FreeSans" font-size="10.00">::OpenNextFile</text>
</a>
</g>
</g>
<!-- Node2&#45;&gt;Node3 -->
<g id="edge2" class="edge"><title>Node2&#45;&gt;Node3</title>
<path fill="none" stroke="midnightblue" d="M306.661,-152C317.191,-152 327.955,-152 338.267,-152"/>
<polygon fill="midnightblue" stroke="midnightblue" points="306.66,-148.5 296.66,-152 306.66,-155.5 306.66,-148.5"/>
</g>
<!-- Node3&#45;&gt;Node4 -->
<g id="edge3" class="edge"><title>Node3&#45;&gt;Node4</title>
<path fill="none" stroke="midnightblue" d="M475.885,-142.623C484.648,-141.496 493.592,-140.345 502.338,-139.22"/>
<polygon fill="midnightblue" stroke="midnightblue" points="475.175,-139.185 465.703,-143.933 476.068,-146.128 475.175,-139.185"/>
</g>
</g>
</svg>
