<?xml version="1.0" encoding="UTF-8" standalone="no"?>
<!DOCTYPE svg PUBLIC "-//W3C//DTD SVG 1.1//EN"
 "http://www.w3.org/Graphics/SVG/1.1/DTD/svg11.dtd">
<!-- Generated by graphviz version 2.36.0 (20140111.2315)
 -->
<!-- Title: Fun4AllPrdfInputManager::Fun4AllPrdfInputManager Pages: 1 -->
<svg width="470pt" height="198pt"
 viewBox="0.00 0.00 470.00 198.00" xmlns="http://www.w3.org/2000/svg" xmlns:xlink="http://www.w3.org/1999/xlink">
<g id="graph0" class="graph" transform="scale(1 1) rotate(0) translate(4 194)">
<title>Fun4AllPrdfInputManager::Fun4AllPrdfInputManager</title>
<!-- Node1 -->
<g id="node1" class="node"><title>Node1</title>
<polygon fill="#bfbfbf" stroke="black" points="0.5,-52 0.5,-82 131.5,-82 131.5,-52 0.5,-52"/>
<text text-anchor="start" x="8.5" y="-70" font-family="FreeSans" font-size="10.00">Fun4AllPrdfInputManager</text>
<text text-anchor="middle" x="66" y="-59" font-family="FreeSans" font-size="10.00">::Fun4AllPrdfInputManager</text>
</g>
<!-- Node2 -->
<g id="node2" class="node"><title>Node2</title>
<g id="a_node2"><a xlink:href="../../d5/dca/classPHCompositeNode.html#ac7dbf017614c324e218a001d729607bf" target="_top" xlink:title="PHCompositeNode::addNode">
<polygon fill="none" stroke="black" points="168,-132.5 168,-151.5 312,-151.5 312,-132.5 168,-132.5"/>
<text text-anchor="middle" x="240" y="-139.5" font-family="FreeSans" font-size="10.00">PHCompositeNode::addNode</text>
</a>
</g>
</g>
<!-- Node1&#45;&gt;Node2 -->
<g id="edge1" class="edge"><title>Node1&#45;&gt;Node2</title>
<path fill="none" stroke="midnightblue" d="M90.2658,-82.0592C110.232,-94.4466 140.114,-111.737 168,-123 173.901,-125.383 180.198,-127.559 186.512,-129.518"/>
<polygon fill="midnightblue" stroke="midnightblue" points="185.813,-132.961 196.394,-132.416 187.783,-126.243 185.813,-132.961"/>
</g>
<!-- Node6 -->
<g id="node6" class="node"><title>Node6</title>
<g id="a_node6"><a xlink:href="../../d5/d07/classPHNodeIterator.html#aea98bf8619af59b1212a94fb32106baa" target="_top" xlink:title="PHNodeIterator::findFirst">
<polygon fill="none" stroke="black" points="178,-76.5 178,-95.5 302,-95.5 302,-76.5 178,-76.5"/>
<text text-anchor="middle" x="240" y="-83.5" font-family="FreeSans" font-size="10.00">PHNodeIterator::findFirst</text>
</a>
</g>
</g>
<!-- Node1&#45;&gt;Node6 -->
<g id="edge5" class="edge"><title>Node1&#45;&gt;Node6</title>
<path fill="none" stroke="midnightblue" d="M131.536,-74.129C143.377,-75.437 155.798,-76.8091 167.82,-78.1371"/>
<polygon fill="midnightblue" stroke="midnightblue" points="167.48,-81.6207 177.804,-79.24 168.249,-74.6631 167.48,-81.6207"/>
</g>
<!-- Node8 -->
<g id="node8" class="node"><title>Node8</title>
<g id="a_node8"><a xlink:href="../../da/d29/classFun4AllServer.html#a3e55156f91b2c94bb6c4ef33ffce587a" target="_top" xlink:title="Fun4AllServer::instance">
<polygon fill="none" stroke="black" points="180.5,-38.5 180.5,-57.5 299.5,-57.5 299.5,-38.5 180.5,-38.5"/>
<text text-anchor="middle" x="240" y="-45.5" font-family="FreeSans" font-size="10.00">Fun4AllServer::instance</text>
</a>
</g>
</g>
<!-- Node1&#45;&gt;Node8 -->
<g id="edge9" class="edge"><title>Node1&#45;&gt;Node8</title>
<path fill="none" stroke="midnightblue" d="M131.536,-59.871C144.172,-58.4752 157.469,-57.0063 170.237,-55.5959"/>
<polygon fill="midnightblue" stroke="midnightblue" points="170.786,-59.0567 180.341,-54.4798 170.017,-52.099 170.786,-59.0567"/>
</g>
<!-- Node9 -->
<g id="node9" class="node"><title>Node9</title>
<g id="a_node9"><a xlink:href="../../da/d29/classFun4AllServer.html#abcaf6825367e5db292ff795237bdcf62" target="_top" xlink:title="Fun4AllServer::topNode">
<polygon fill="none" stroke="black" points="180.5,-0.5 180.5,-19.5 299.5,-19.5 299.5,-0.5 180.5,-0.5"/>
<text text-anchor="middle" x="240" y="-7.5" font-family="FreeSans" font-size="10.00">Fun4AllServer::topNode</text>
</a>
</g>
</g>
<!-- Node1&#45;&gt;Node9 -->
<g id="edge10" class="edge"><title>Node1&#45;&gt;Node9</title>
<path fill="none" stroke="midnightblue" d="M104.58,-51.8549C123.456,-44.5055 146.773,-35.8152 168,-29 175.265,-26.6675 183.01,-24.388 190.614,-22.264"/>
<polygon fill="midnightblue" stroke="midnightblue" points="191.753,-25.5813 200.477,-19.5701 189.908,-18.8287 191.753,-25.5813"/>
</g>
<!-- Node3 -->
<g id="node3" class="node"><title>Node3</title>
<g id="a_node3"><a xlink:href="../../dc/d82/classPHNode.html#aca3576f926a4401eddc3d88bf0ce0de3" target="_top" xlink:title="PHNode::getName">
<polygon fill="none" stroke="black" points="356,-94.5 356,-113.5 454,-113.5 454,-94.5 356,-94.5"/>
<text text-anchor="middle" x="405" y="-101.5" font-family="FreeSans" font-size="10.00">PHNode::getName</text>
</a>
</g>
</g>
<!-- Node2&#45;&gt;Node3 -->
<g id="edge2" class="edge"><title>Node2&#45;&gt;Node3</title>
<path fill="none" stroke="midnightblue" d="M282.132,-132.411C303.738,-127.374 330.409,-121.156 353.286,-115.823"/>
<polygon fill="midnightblue" stroke="midnightblue" points="354.22,-119.199 363.164,-113.52 352.63,-112.382 354.22,-119.199"/>
</g>
<!-- Node4 -->
<g id="node4" class="node"><title>Node4</title>
<g id="a_node4"><a xlink:href="../../dc/d82/classPHNode.html#adda2bd6cef2d5067bbe3016a990b7198" target="_top" xlink:title="PHNode::setParent">
<polygon fill="none" stroke="black" points="354.5,-170.5 354.5,-189.5 455.5,-189.5 455.5,-170.5 354.5,-170.5"/>
<text text-anchor="middle" x="405" y="-177.5" font-family="FreeSans" font-size="10.00">PHNode::setParent</text>
</a>
</g>
</g>
<!-- Node2&#45;&gt;Node4 -->
<g id="edge3" class="edge"><title>Node2&#45;&gt;Node4</title>
<path fill="none" stroke="midnightblue" d="M282.132,-151.589C303.738,-156.626 330.409,-162.844 353.286,-168.177"/>
<polygon fill="midnightblue" stroke="midnightblue" points="352.63,-171.618 363.164,-170.48 354.22,-164.801 352.63,-171.618"/>
</g>
<!-- Node5 -->
<g id="node5" class="node"><title>Node5</title>
<g id="a_node5"><a xlink:href="../../d6/d86/classPHPointerList.html#af5fc4e6958b5b90c57bfb497566f503c" target="_top" xlink:title="PHPointerList::append">
<polygon fill="none" stroke="black" points="348,-132.5 348,-151.5 462,-151.5 462,-132.5 348,-132.5"/>
<text text-anchor="middle" x="405" y="-139.5" font-family="FreeSans" font-size="10.00">PHPointerList::append</text>
</a>
</g>
</g>
<!-- Node2&#45;&gt;Node5 -->
<g id="edge4" class="edge"><title>Node2&#45;&gt;Node5</title>
<path fill="none" stroke="midnightblue" d="M312.02,-142C320.559,-142 329.254,-142 337.722,-142"/>
<polygon fill="midnightblue" stroke="midnightblue" points="337.912,-145.5 347.912,-142 337.912,-138.5 337.912,-145.5"/>
</g>
<!-- Node6&#45;&gt;Node3 -->
<g id="edge7" class="edge"><title>Node6&#45;&gt;Node3</title>
<path fill="none" stroke="midnightblue" d="M302.159,-92.7537C316.479,-94.3351 331.695,-96.0154 345.878,-97.5816"/>
<polygon fill="midnightblue" stroke="midnightblue" points="345.672,-101.08 355.996,-98.6989 346.441,-94.1224 345.672,-101.08"/>
</g>
<!-- Node6&#45;&gt;Node6 -->
<g id="edge8" class="edge"><title>Node6&#45;&gt;Node6</title>
<path fill="none" stroke="midnightblue" d="M214.723,-95.7571C202.426,-104.565 210.852,-114 240,-114 259.584,-114 269.814,-109.741 270.689,-104.275"/>
<polygon fill="midnightblue" stroke="midnightblue" points="273.594,-102.321 265.277,-95.7571 267.686,-106.075 273.594,-102.321"/>
</g>
<!-- Node7 -->
<g id="node7" class="node"><title>Node7</title>
<g id="a_node7"><a xlink:href="../../dc/d82/classPHNode.html#a4ab1f90aed955a652813bfe377087bda" target="_top" xlink:title="PHNode::getType">
<polygon fill="none" stroke="black" points="358.5,-56.5 358.5,-75.5 451.5,-75.5 451.5,-56.5 358.5,-56.5"/>
<text text-anchor="middle" x="405" y="-63.5" font-family="FreeSans" font-size="10.00">PHNode::getType</text>
</a>
</g>
</g>
<!-- Node6&#45;&gt;Node7 -->
<g id="edge6" class="edge"><title>Node6&#45;&gt;Node7</title>
<path fill="none" stroke="midnightblue" d="M302.159,-78.4958C317.279,-76.6406 333.397,-74.663 348.244,-72.8412"/>
<polygon fill="midnightblue" stroke="midnightblue" points="348.793,-76.3002 358.292,-71.6083 347.94,-69.3523 348.793,-76.3002"/>
</g>
</g>
</svg>
