<?xml version="1.0" encoding="UTF-8" standalone="no"?>
<!DOCTYPE svg PUBLIC "-//W3C//DTD SVG 1.1//EN"
 "http://www.w3.org/Graphics/SVG/1.1/DTD/svg11.dtd">
<!-- Generated by graphviz version 2.36.0 (20140111.2315)
 -->
<!-- Title: Fun4AllPrdfInputManager::ResetEvent Pages: 1 -->
<svg width="430pt" height="123pt"
 viewBox="0.00 0.00 430.00 123.00" xmlns="http://www.w3.org/2000/svg" xmlns:xlink="http://www.w3.org/1999/xlink">
<g id="graph0" class="graph" transform="scale(1 1) rotate(0) translate(4 119)">
<title>Fun4AllPrdfInputManager::ResetEvent</title>
<!-- Node1 -->
<g id="node1" class="node"><title>Node1</title>
<polygon fill="#bfbfbf" stroke="black" points="0.5,-33 0.5,-63 127.5,-63 127.5,-33 0.5,-33"/>
<text text-anchor="start" x="8.5" y="-51" font-family="FreeSans" font-size="10.00">Fun4AllPrdfInputManager</text>
<text text-anchor="middle" x="64" y="-40" font-family="FreeSans" font-size="10.00">::ResetEvent</text>
</g>
<!-- Node2 -->
<g id="node2" class="node"><title>Node2</title>
<g id="a_node2"><a xlink:href="../../d5/d07/classPHNodeIterator.html#aea98bf8619af59b1212a94fb32106baa" target="_top" xlink:title="PHNodeIterator::findFirst">
<polygon fill="none" stroke="black" points="164,-76.5 164,-95.5 288,-95.5 288,-76.5 164,-76.5"/>
<text text-anchor="middle" x="226" y="-83.5" font-family="FreeSans" font-size="10.00">PHNodeIterator::findFirst</text>
</a>
</g>
</g>
<!-- Node1&#45;&gt;Node2 -->
<g id="edge1" class="edge"><title>Node1&#45;&gt;Node2</title>
<path fill="none" stroke="midnightblue" d="M127.777,-62.9095C143.426,-66.6263 159.999,-70.5622 174.942,-74.1113"/>
<polygon fill="midnightblue" stroke="midnightblue" points="174.458,-77.5936 184.996,-76.4991 176.076,-70.783 174.458,-77.5936"/>
</g>
<!-- Node5 -->
<g id="node5" class="node"><title>Node5</title>
<g id="a_node5"><a xlink:href="../../de/dbb/classSyncObject.html#aa2a10b9b4a4b8e3987f9c62fb28bd9f8" target="_top" xlink:title="Clear Sync. ">
<polygon fill="none" stroke="black" points="177.5,-38.5 177.5,-57.5 274.5,-57.5 274.5,-38.5 177.5,-38.5"/>
<text text-anchor="middle" x="226" y="-45.5" font-family="FreeSans" font-size="10.00">SyncObject::Reset</text>
</a>
</g>
</g>
<!-- Node1&#45;&gt;Node5 -->
<g id="edge5" class="edge"><title>Node1&#45;&gt;Node5</title>
<path fill="none" stroke="midnightblue" d="M127.777,-48C140.764,-48 154.387,-48 167.187,-48"/>
<polygon fill="midnightblue" stroke="midnightblue" points="167.249,-51.5001 177.249,-48 167.249,-44.5001 167.249,-51.5001"/>
</g>
<!-- Node6 -->
<g id="node6" class="node"><title>Node6</title>
<g id="a_node6"><a xlink:href="../../d1/d3e/classPHDataNode.html#a5a258dc885b9c2c9730be5484752df26" target="_top" xlink:title="PHDataNode::setData">
<polygon fill="none" stroke="black" points="169.5,-0.5 169.5,-19.5 282.5,-19.5 282.5,-0.5 169.5,-0.5"/>
<text text-anchor="middle" x="226" y="-7.5" font-family="FreeSans" font-size="10.00">PHDataNode::setData</text>
</a>
</g>
</g>
<!-- Node1&#45;&gt;Node6 -->
<g id="edge6" class="edge"><title>Node1&#45;&gt;Node6</title>
<path fill="none" stroke="midnightblue" d="M127.777,-33.0905C143.426,-29.3737 159.999,-25.4378 174.942,-21.8887"/>
<polygon fill="midnightblue" stroke="midnightblue" points="176.076,-25.217 184.996,-19.5009 174.458,-18.4064 176.076,-25.217"/>
</g>
<!-- Node2&#45;&gt;Node2 -->
<g id="edge4" class="edge"><title>Node2&#45;&gt;Node2</title>
<path fill="none" stroke="midnightblue" d="M203.497,-95.7571C192.55,-104.565 200.051,-114 226,-114 243.029,-114 252.113,-109.937 253.253,-104.654"/>
<polygon fill="midnightblue" stroke="midnightblue" points="256.3,-102.93 248.503,-95.7571 250.125,-106.227 256.3,-102.93"/>
</g>
<!-- Node3 -->
<g id="node3" class="node"><title>Node3</title>
<g id="a_node3"><a xlink:href="../../dc/d82/classPHNode.html#a4ab1f90aed955a652813bfe377087bda" target="_top" xlink:title="PHNode::getType">
<polygon fill="none" stroke="black" points="326.5,-95.5 326.5,-114.5 419.5,-114.5 419.5,-95.5 326.5,-95.5"/>
<text text-anchor="middle" x="373" y="-102.5" font-family="FreeSans" font-size="10.00">PHNode::getType</text>
</a>
</g>
</g>
<!-- Node2&#45;&gt;Node3 -->
<g id="edge2" class="edge"><title>Node2&#45;&gt;Node3</title>
<path fill="none" stroke="midnightblue" d="M288.073,-94.0026C297.408,-95.2258 307.002,-96.483 316.215,-97.6902"/>
<polygon fill="midnightblue" stroke="midnightblue" points="316.051,-101.199 326.421,-99.0276 316.961,-94.2579 316.051,-101.199"/>
</g>
<!-- Node4 -->
<g id="node4" class="node"><title>Node4</title>
<g id="a_node4"><a xlink:href="../../dc/d82/classPHNode.html#aca3576f926a4401eddc3d88bf0ce0de3" target="_top" xlink:title="PHNode::getName">
<polygon fill="none" stroke="black" points="324,-57.5 324,-76.5 422,-76.5 422,-57.5 324,-57.5"/>
<text text-anchor="middle" x="373" y="-64.5" font-family="FreeSans" font-size="10.00">PHNode::getName</text>
</a>
</g>
</g>
<!-- Node2&#45;&gt;Node4 -->
<g id="edge3" class="edge"><title>Node2&#45;&gt;Node4</title>
<path fill="none" stroke="midnightblue" d="M288.073,-77.9974C296.547,-76.887 305.234,-75.7486 313.656,-74.645"/>
<polygon fill="midnightblue" stroke="midnightblue" points="314.305,-78.09 323.766,-73.3203 313.396,-71.1493 314.305,-78.09"/>
</g>
</g>
</svg>
