<?xml version="1.0" encoding="UTF-8" standalone="no"?>
<!DOCTYPE svg PUBLIC "-//W3C//DTD SVG 1.1//EN"
 "http://www.w3.org/Graphics/SVG/1.1/DTD/svg11.dtd">
<!-- Generated by graphviz version 2.36.0 (20140111.2315)
 -->
<!-- Title: Fun4AllPrdfInputManager::run Pages: 1 -->
<svg width="836pt" height="696pt"
 viewBox="0.00 0.00 836.00 695.96" xmlns="http://www.w3.org/2000/svg" xmlns:xlink="http://www.w3.org/1999/xlink">
<g id="graph0" class="graph" transform="scale(1 1) rotate(0) translate(4 691.961)">
<title>Fun4AllPrdfInputManager::run</title>
<!-- Node1 -->
<g id="node1" class="node"><title>Node1</title>
<polygon fill="#bfbfbf" stroke="black" points="0.5,-313.5 0.5,-332.5 145.5,-332.5 145.5,-313.5 0.5,-313.5"/>
<text text-anchor="middle" x="73" y="-320.5" font-family="FreeSans" font-size="10.00">Fun4AllPrdfInputManager::run</text>
</g>
<!-- Node2 -->
<g id="node2" class="node"><title>Node2</title>
<g id="a_node2"><a xlink:href="../../dd/ded/classFun4AllSyncManager.html#a8b09000694a12e572075bc5f9824b13f" target="_top" xlink:title="Fun4AllSyncManager\l::CurrentEvent">
<polygon fill="none" stroke="black" points="200.5,-586 200.5,-616 309.5,-616 309.5,-586 200.5,-586"/>
<text text-anchor="start" x="208.5" y="-604" font-family="FreeSans" font-size="10.00">Fun4AllSyncManager</text>
<text text-anchor="middle" x="255" y="-593" font-family="FreeSans" font-size="10.00">::CurrentEvent</text>
</a>
</g>
</g>
<!-- Node1&#45;&gt;Node2 -->
<g id="edge1" class="edge"><title>Node1&#45;&gt;Node2</title>
<path fill="none" stroke="midnightblue" d="M75.8485,-332.624C83.0953,-368 112.652,-492.54 182,-565 187.973,-571.241 195.259,-576.567 202.876,-581.056"/>
<polygon fill="midnightblue" stroke="midnightblue" points="201.45,-584.264 211.911,-585.946 204.782,-578.108 201.45,-584.264"/>
</g>
<!-- Node5 -->
<g id="node5" class="node"><title>Node5</title>
<g id="a_node5"><a xlink:href="../../de/dbb/classSyncObject.html#ad679d42aac1a409a94d2e535766dcebd" target="_top" xlink:title="set Event Counter ">
<polygon fill="none" stroke="black" points="190,-389.5 190,-408.5 320,-408.5 320,-389.5 190,-389.5"/>
<text text-anchor="middle" x="255" y="-396.5" font-family="FreeSans" font-size="10.00">SyncObject::EventCounter</text>
</a>
</g>
</g>
<!-- Node1&#45;&gt;Node5 -->
<g id="edge4" class="edge"><title>Node1&#45;&gt;Node5</title>
<path fill="none" stroke="midnightblue" d="M89.5649,-332.673C110.089,-345.082 147.631,-366.598 182,-380 188.231,-382.43 194.884,-384.654 201.534,-386.655"/>
<polygon fill="midnightblue" stroke="midnightblue" points="200.649,-390.042 211.226,-389.427 202.574,-383.312 200.649,-390.042"/>
</g>
<!-- Node6 -->
<g id="node6" class="node"><title>Node6</title>
<g id="a_node6"><a xlink:href="../../de/dbb/classSyncObject.html#aa650d97c0d3ace8ae7945f54224228ef" target="_top" xlink:title="set Event Number ">
<polygon fill="none" stroke="black" points="189.5,-351.5 189.5,-370.5 320.5,-370.5 320.5,-351.5 189.5,-351.5"/>
<text text-anchor="middle" x="255" y="-358.5" font-family="FreeSans" font-size="10.00">SyncObject::EventNumber</text>
</a>
</g>
</g>
<!-- Node1&#45;&gt;Node6 -->
<g id="edge5" class="edge"><title>Node1&#45;&gt;Node6</title>
<path fill="none" stroke="midnightblue" d="M119.422,-332.589C143.603,-337.694 173.527,-344.011 199.014,-349.392"/>
<polygon fill="midnightblue" stroke="midnightblue" points="198.398,-352.839 208.905,-351.48 199.844,-345.99 198.398,-352.839"/>
</g>
<!-- Node7 -->
<g id="node7" class="node"><title>Node7</title>
<g id="a_node7"><a xlink:href="../../da/dd8/classFun4AllPrdfInputManager.html#a678edaaccda7214183cc67f7a19e1925" target="_top" xlink:title="Fun4AllPrdfInputManager\l::fileclose">
<polygon fill="none" stroke="black" points="551.5,-417 551.5,-447 678.5,-447 678.5,-417 551.5,-417"/>
<text text-anchor="start" x="559.5" y="-435" font-family="FreeSans" font-size="10.00">Fun4AllPrdfInputManager</text>
<text text-anchor="middle" x="615" y="-424" font-family="FreeSans" font-size="10.00">::fileclose</text>
</a>
</g>
</g>
<!-- Node1&#45;&gt;Node7 -->
<g id="edge6" class="edge"><title>Node1&#45;&gt;Node7</title>
<path fill="none" stroke="midnightblue" d="M81.0397,-332.617C96.5623,-352.924 136.027,-399.802 182,-418 300.913,-465.071 452.965,-455.672 541.327,-444.13"/>
<polygon fill="midnightblue" stroke="midnightblue" points="541.813,-447.597 551.254,-442.789 540.876,-440.66 541.813,-447.597"/>
</g>
<!-- Node8 -->
<g id="node8" class="node"><title>Node8</title>
<g id="a_node8"><a xlink:href="../../d5/dec/classFun4AllBase.html#a41f9ac377743d046f590617fd6f4f0ed" target="_top" xlink:title="Returns the name of this module. ">
<polygon fill="none" stroke="black" points="724.5,-553.5 724.5,-572.5 827.5,-572.5 827.5,-553.5 724.5,-553.5"/>
<text text-anchor="middle" x="776" y="-560.5" font-family="FreeSans" font-size="10.00">Fun4AllBase::Name</text>
</a>
</g>
</g>
<!-- Node1&#45;&gt;Node8 -->
<g id="edge12" class="edge"><title>Node1&#45;&gt;Node8</title>
<path fill="none" stroke="midnightblue" d="M74.2002,-332.757C75.6337,-375.136 87.2977,-544.688 182,-625 352.813,-769.858 658.488,-625.565 749.043,-577.414"/>
<polygon fill="midnightblue" stroke="midnightblue" points="750.924,-580.377 758.068,-572.553 747.604,-574.214 750.924,-580.377"/>
</g>
<!-- Node9 -->
<g id="node9" class="node"><title>Node9</title>
<g id="a_node9"><a xlink:href="../../d5/d07/classPHNodeIterator.html#aea98bf8619af59b1212a94fb32106baa" target="_top" xlink:title="PHNodeIterator::findFirst">
<polygon fill="none" stroke="black" points="373,-310.5 373,-329.5 497,-329.5 497,-310.5 373,-310.5"/>
<text text-anchor="middle" x="435" y="-317.5" font-family="FreeSans" font-size="10.00">PHNodeIterator::findFirst</text>
</a>
</g>
</g>
<!-- Node1&#45;&gt;Node9 -->
<g id="edge8" class="edge"><title>Node1&#45;&gt;Node9</title>
<path fill="none" stroke="midnightblue" d="M145.555,-322.404C208.488,-321.879 299.619,-321.12 362.528,-320.596"/>
<polygon fill="midnightblue" stroke="midnightblue" points="362.792,-324.094 372.762,-320.51 362.733,-317.094 362.792,-324.094"/>
</g>
<!-- Node12 -->
<g id="node12" class="node"><title>Node12</title>
<g id="a_node12"><a xlink:href="../../da/dd8/classFun4AllPrdfInputManager.html#ad41dec5d04fecb25543013a8971a503c" target="_top" xlink:title="Fun4AllPrdfInputManager\l::OpenNextFile">
<polygon fill="none" stroke="black" points="191.5,-466 191.5,-496 318.5,-496 318.5,-466 191.5,-466"/>
<text text-anchor="start" x="199.5" y="-484" font-family="FreeSans" font-size="10.00">Fun4AllPrdfInputManager</text>
<text text-anchor="middle" x="255" y="-473" font-family="FreeSans" font-size="10.00">::OpenNextFile</text>
</a>
</g>
</g>
<!-- Node1&#45;&gt;Node12 -->
<g id="edge13" class="edge"><title>Node1&#45;&gt;Node12</title>
<path fill="none" stroke="midnightblue" d="M79.8485,-332.701C94.3761,-356.069 134.39,-416.114 182,-451 187.357,-454.926 193.305,-458.448 199.42,-461.578"/>
<polygon fill="midnightblue" stroke="midnightblue" points="197.916,-464.739 208.449,-465.884 200.929,-458.42 197.916,-464.739"/>
</g>
<!-- Node16 -->
<g id="node16" class="node"><title>Node16</title>
<g id="a_node16"><a xlink:href="../../dd/ded/classFun4AllSyncManager.html#aa33b47cb0501365049cb4b9a51ac591b" target="_top" xlink:title="Fun4AllSyncManager\l::PrdfEvents">
<polygon fill="none" stroke="black" points="200.5,-176 200.5,-206 309.5,-206 309.5,-176 200.5,-176"/>
<text text-anchor="start" x="208.5" y="-194" font-family="FreeSans" font-size="10.00">Fun4AllSyncManager</text>
<text text-anchor="middle" x="255" y="-183" font-family="FreeSans" font-size="10.00">::PrdfEvents</text>
</a>
</g>
</g>
<!-- Node1&#45;&gt;Node16 -->
<g id="edge18" class="edge"><title>Node1&#45;&gt;Node16</title>
<path fill="none" stroke="midnightblue" d="M82.0299,-313.353C98.8182,-293.693 139.602,-248.525 182,-221 188.091,-217.046 194.789,-213.432 201.573,-210.189"/>
<polygon fill="midnightblue" stroke="midnightblue" points="203.161,-213.312 210.828,-206 200.275,-206.935 203.161,-213.312"/>
</g>
<!-- Node17 -->
<g id="node17" class="node"><title>Node17</title>
<g id="a_node17"><a xlink:href="../../d4/da9/classFun4AllInputManager.html#a08fc36a2da8759e20f8e035afe5ef6e5" target="_top" xlink:title="Fun4AllInputManager\l::RejectEvent">
<polygon fill="none" stroke="black" points="200.5,-526 200.5,-556 309.5,-556 309.5,-526 200.5,-526"/>
<text text-anchor="start" x="208.5" y="-544" font-family="FreeSans" font-size="10.00">Fun4AllInputManager</text>
<text text-anchor="middle" x="255" y="-533" font-family="FreeSans" font-size="10.00">::RejectEvent</text>
</a>
</g>
</g>
<!-- Node1&#45;&gt;Node17 -->
<g id="edge19" class="edge"><title>Node1&#45;&gt;Node17</title>
<path fill="none" stroke="midnightblue" d="M77.4211,-332.579C88.3331,-361.946 124.978,-451.937 182,-505 188.687,-511.223 196.653,-516.614 204.808,-521.194"/>
<polygon fill="midnightblue" stroke="midnightblue" points="203.199,-524.302 213.681,-525.845 206.449,-518.102 203.199,-524.302"/>
</g>
<!-- Node19 -->
<g id="node19" class="node"><title>Node19</title>
<g id="a_node19"><a xlink:href="../../da/dd8/classFun4AllPrdfInputManager.html#a4d3e00664417e9198d9fab5d4c336f97" target="_top" xlink:title="Fun4AllPrdfInputManager\l::ResetEvent">
<polygon fill="none" stroke="black" points="191.5,-264 191.5,-294 318.5,-294 318.5,-264 191.5,-264"/>
<text text-anchor="start" x="199.5" y="-282" font-family="FreeSans" font-size="10.00">Fun4AllPrdfInputManager</text>
<text text-anchor="middle" x="255" y="-271" font-family="FreeSans" font-size="10.00">::ResetEvent</text>
</a>
</g>
</g>
<!-- Node1&#45;&gt;Node19 -->
<g id="edge23" class="edge"><title>Node1&#45;&gt;Node19</title>
<path fill="none" stroke="midnightblue" d="M113.057,-313.453C133.323,-308.499 158.728,-302.289 182.366,-296.51"/>
<polygon fill="midnightblue" stroke="midnightblue" points="183.486,-299.84 192.369,-294.065 181.824,-293.04 183.486,-299.84"/>
</g>
<!-- Node21 -->
<g id="node21" class="node"><title>Node21</title>
<g id="a_node21"><a xlink:href="../../d1/d3e/classPHDataNode.html#a5a258dc885b9c2c9730be5484752df26" target="_top" xlink:title="PHDataNode::setData">
<polygon fill="none" stroke="black" points="378.5,-228.5 378.5,-247.5 491.5,-247.5 491.5,-228.5 378.5,-228.5"/>
<text text-anchor="middle" x="435" y="-235.5" font-family="FreeSans" font-size="10.00">PHDataNode::setData</text>
</a>
</g>
</g>
<!-- Node1&#45;&gt;Node21 -->
<g id="edge30" class="edge"><title>Node1&#45;&gt;Node21</title>
<path fill="none" stroke="midnightblue" d="M85.0186,-313.389C103.556,-297.872 142.811,-267.754 182,-255 242.982,-235.153 316.532,-232.435 368.389,-233.751"/>
<polygon fill="midnightblue" stroke="midnightblue" points="368.356,-237.252 378.46,-234.065 368.574,-230.255 368.356,-237.252"/>
</g>
<!-- Node22 -->
<g id="node22" class="node"><title>Node22</title>
<g id="a_node22"><a xlink:href="../../de/dbb/classSyncObject.html#af1188def459d0ff933d71e37c7afc0c5" target="_top" xlink:title="set Run Number ">
<polygon fill="none" stroke="black" points="193.5,-137.5 193.5,-156.5 316.5,-156.5 316.5,-137.5 193.5,-137.5"/>
<text text-anchor="middle" x="255" y="-144.5" font-family="FreeSans" font-size="10.00">SyncObject::RunNumber</text>
</a>
</g>
</g>
<!-- Node1&#45;&gt;Node22 -->
<g id="edge27" class="edge"><title>Node1&#45;&gt;Node22</title>
<path fill="none" stroke="midnightblue" d="M77.9107,-313.19C89.4139,-285.626 125.892,-206.895 182,-167 185.449,-164.547 189.189,-162.395 193.089,-160.506"/>
<polygon fill="midnightblue" stroke="midnightblue" points="194.571,-163.679 202.418,-156.56 191.844,-157.232 194.571,-163.679"/>
</g>
<!-- Node23 -->
<g id="node23" class="node"><title>Node23</title>
<g id="a_node23"><a xlink:href="../../dd/ded/classFun4AllSyncManager.html#a93aacc6fad1df130cc850ae8c6449b7f" target="_top" xlink:title="Fun4AllSyncManager\l::SegmentNumber">
<polygon fill="none" stroke="black" points="200.5,-88 200.5,-118 309.5,-118 309.5,-88 200.5,-88"/>
<text text-anchor="start" x="208.5" y="-106" font-family="FreeSans" font-size="10.00">Fun4AllSyncManager</text>
<text text-anchor="middle" x="255" y="-95" font-family="FreeSans" font-size="10.00">::SegmentNumber</text>
</a>
</g>
</g>
<!-- Node1&#45;&gt;Node23 -->
<g id="edge28" class="edge"><title>Node1&#45;&gt;Node23</title>
<path fill="none" stroke="midnightblue" d="M76.6505,-313.282C85.7394,-281.762 118.637,-181.327 182,-128 184.904,-125.556 188.062,-123.345 191.379,-121.347"/>
<polygon fill="midnightblue" stroke="midnightblue" points="193.268,-124.308 200.471,-116.538 189.995,-118.12 193.268,-124.308"/>
</g>
<!-- Node24 -->
<g id="node24" class="node"><title>Node24</title>
<g id="a_node24"><a xlink:href="../../de/dbb/classSyncObject.html#a9e8ffb7e35744a8f46cc59b4cf8fa1ca" target="_top" xlink:title="set Segment Number ">
<polygon fill="none" stroke="black" points="182.5,-49.5 182.5,-68.5 327.5,-68.5 327.5,-49.5 182.5,-49.5"/>
<text text-anchor="middle" x="255" y="-56.5" font-family="FreeSans" font-size="10.00">SyncObject::SegmentNumber</text>
</a>
</g>
</g>
<!-- Node1&#45;&gt;Node24 -->
<g id="edge29" class="edge"><title>Node1&#45;&gt;Node24</title>
<path fill="none" stroke="midnightblue" d="M75.3049,-313.339C80.7712,-276.737 105.229,-145.324 182,-79 184.503,-76.8373 187.222,-74.907 190.089,-73.1843"/>
<polygon fill="midnightblue" stroke="midnightblue" points="191.742,-76.2702 199.066,-68.614 188.566,-70.0322 191.742,-76.2702"/>
</g>
<!-- Node25 -->
<g id="node25" class="node"><title>Node25</title>
<g id="a_node25"><a xlink:href="../../d4/da9/classFun4AllInputManager.html#af9bf7d76be5d2c0b10843ae734da9bbb" target="_top" xlink:title="Fun4AllInputManager\l::SetRunNumber">
<polygon fill="none" stroke="black" points="200.5,-0 200.5,-30 309.5,-30 309.5,-0 200.5,-0"/>
<text text-anchor="start" x="208.5" y="-18" font-family="FreeSans" font-size="10.00">Fun4AllInputManager</text>
<text text-anchor="middle" x="255" y="-7" font-family="FreeSans" font-size="10.00">::SetRunNumber</text>
</a>
</g>
</g>
<!-- Node1&#45;&gt;Node25 -->
<g id="edge31" class="edge"><title>Node1&#45;&gt;Node25</title>
<path fill="none" stroke="midnightblue" d="M74.8004,-313.385C78.6133,-273.723 98.3932,-121.106 182,-40 184.857,-37.2288 188.036,-34.7637 191.423,-32.571"/>
<polygon fill="midnightblue" stroke="midnightblue" points="193.182,-35.5972 200.203,-27.6624 189.766,-29.4872 193.182,-35.5972"/>
</g>
<!-- Node3 -->
<g id="node3" class="node"><title>Node3</title>
<g id="a_node3"><a xlink:href="../../da/d29/classFun4AllServer.html#a3e55156f91b2c94bb6c4ef33ffce587a" target="_top" xlink:title="Fun4AllServer::instance">
<polygon fill="none" stroke="black" points="375.5,-591.5 375.5,-610.5 494.5,-610.5 494.5,-591.5 375.5,-591.5"/>
<text text-anchor="middle" x="435" y="-598.5" font-family="FreeSans" font-size="10.00">Fun4AllServer::instance</text>
</a>
</g>
</g>
<!-- Node2&#45;&gt;Node3 -->
<g id="edge2" class="edge"><title>Node2&#45;&gt;Node3</title>
<path fill="none" stroke="midnightblue" d="M309.889,-601C327.329,-601 346.911,-601 365.276,-601"/>
<polygon fill="midnightblue" stroke="midnightblue" points="365.333,-604.5 375.333,-601 365.333,-597.5 365.333,-604.5"/>
</g>
<!-- Node4 -->
<g id="node4" class="node"><title>Node4</title>
<g id="a_node4"><a xlink:href="../../da/d29/classFun4AllServer.html#ac694f7821d6033f7734fa656ce7e38e0" target="_top" xlink:title="Fun4AllServer::EventNumber">
<polygon fill="none" stroke="black" points="364,-629.5 364,-648.5 506,-648.5 506,-629.5 364,-629.5"/>
<text text-anchor="middle" x="435" y="-636.5" font-family="FreeSans" font-size="10.00">Fun4AllServer::EventNumber</text>
</a>
</g>
</g>
<!-- Node2&#45;&gt;Node4 -->
<g id="edge3" class="edge"><title>Node2&#45;&gt;Node4</title>
<path fill="none" stroke="midnightblue" d="M309.889,-612.504C331.895,-617.202 357.312,-622.628 379.391,-627.342"/>
<polygon fill="midnightblue" stroke="midnightblue" points="378.767,-630.787 389.277,-629.452 380.228,-623.942 378.767,-630.787"/>
</g>
<!-- Node7&#45;&gt;Node8 -->
<g id="edge7" class="edge"><title>Node7&#45;&gt;Node8</title>
<path fill="none" stroke="midnightblue" d="M670.291,-447.161C676.519,-449.957 682.573,-453.216 688,-457 721.986,-480.696 749.968,-521.158 764.405,-544.642"/>
<polygon fill="midnightblue" stroke="midnightblue" points="761.443,-546.509 769.581,-553.294 767.45,-542.916 761.443,-546.509"/>
</g>
<!-- Node9&#45;&gt;Node9 -->
<g id="edge11" class="edge"><title>Node9&#45;&gt;Node9</title>
<path fill="none" stroke="midnightblue" d="M407.257,-329.757C393.76,-338.565 403.008,-348 435,-348 456.995,-348 468.239,-343.541 468.733,-337.891"/>
<polygon fill="midnightblue" stroke="midnightblue" points="471.491,-335.734 462.743,-329.757 465.854,-339.885 471.491,-335.734"/>
</g>
<!-- Node10 -->
<g id="node10" class="node"><title>Node10</title>
<g id="a_node10"><a xlink:href="../../dc/d82/classPHNode.html#a4ab1f90aed955a652813bfe377087bda" target="_top" xlink:title="PHNode::getType">
<polygon fill="none" stroke="black" points="568.5,-291.5 568.5,-310.5 661.5,-310.5 661.5,-291.5 568.5,-291.5"/>
<text text-anchor="middle" x="615" y="-298.5" font-family="FreeSans" font-size="10.00">PHNode::getType</text>
</a>
</g>
</g>
<!-- Node9&#45;&gt;Node10 -->
<g id="edge9" class="edge"><title>Node9&#45;&gt;Node10</title>
<path fill="none" stroke="midnightblue" d="M497.258,-313.461C517.034,-311.35 538.841,-309.023 558.202,-306.956"/>
<polygon fill="midnightblue" stroke="midnightblue" points="558.805,-310.412 568.377,-305.87 558.062,-303.451 558.805,-310.412"/>
</g>
<!-- Node11 -->
<g id="node11" class="node"><title>Node11</title>
<g id="a_node11"><a xlink:href="../../dc/d82/classPHNode.html#aca3576f926a4401eddc3d88bf0ce0de3" target="_top" xlink:title="PHNode::getName">
<polygon fill="none" stroke="black" points="566,-329.5 566,-348.5 664,-348.5 664,-329.5 566,-329.5"/>
<text text-anchor="middle" x="615" y="-336.5" font-family="FreeSans" font-size="10.00">PHNode::getName</text>
</a>
</g>
</g>
<!-- Node9&#45;&gt;Node11 -->
<g id="edge10" class="edge"><title>Node9&#45;&gt;Node11</title>
<path fill="none" stroke="midnightblue" d="M497.258,-326.539C516.179,-328.558 536.96,-330.777 555.678,-332.775"/>
<polygon fill="midnightblue" stroke="midnightblue" points="555.525,-336.278 565.84,-333.859 556.268,-329.318 555.525,-336.278"/>
</g>
<!-- Node13 -->
<g id="node13" class="node"><title>Node13</title>
<g id="a_node13"><a xlink:href="../../da/dd8/classFun4AllPrdfInputManager.html#af7c7687826ed9f7495f0837fbc7f3f1e" target="_top" xlink:title="Fun4AllPrdfInputManager\l::fileopen">
<polygon fill="none" stroke="black" points="371.5,-466 371.5,-496 498.5,-496 498.5,-466 371.5,-466"/>
<text text-anchor="start" x="379.5" y="-484" font-family="FreeSans" font-size="10.00">Fun4AllPrdfInputManager</text>
<text text-anchor="middle" x="435" y="-473" font-family="FreeSans" font-size="10.00">::fileopen</text>
</a>
</g>
</g>
<!-- Node12&#45;&gt;Node13 -->
<g id="edge14" class="edge"><title>Node12&#45;&gt;Node13</title>
<path fill="none" stroke="midnightblue" d="M318.506,-481C332.29,-481 347.007,-481 361.16,-481"/>
<polygon fill="midnightblue" stroke="midnightblue" points="361.344,-484.5 371.344,-481 361.344,-477.5 361.344,-484.5"/>
</g>
<!-- Node13&#45;&gt;Node7 -->
<g id="edge16" class="edge"><title>Node13&#45;&gt;Node7</title>
<path fill="none" stroke="midnightblue" d="M490.858,-465.899C509.386,-460.798 530.242,-455.057 549.45,-449.77"/>
<polygon fill="midnightblue" stroke="midnightblue" points="550.61,-453.08 559.323,-447.052 548.753,-446.331 550.61,-453.08"/>
</g>
<!-- Node14 -->
<g id="node14" class="node"><title>Node14</title>
<g id="a_node14"><a xlink:href="../../d4/da9/classFun4AllInputManager.html#a98ac3fb04956625a423ef41a3909ba27" target="_top" xlink:title="Fun4AllInputManager\l::AddToFileOpened">
<polygon fill="none" stroke="black" points="560.5,-466 560.5,-496 669.5,-496 669.5,-466 560.5,-466"/>
<text text-anchor="start" x="568.5" y="-484" font-family="FreeSans" font-size="10.00">Fun4AllInputManager</text>
<text text-anchor="middle" x="615" y="-473" font-family="FreeSans" font-size="10.00">::AddToFileOpened</text>
</a>
</g>
</g>
<!-- Node13&#45;&gt;Node14 -->
<g id="edge15" class="edge"><title>Node13&#45;&gt;Node14</title>
<path fill="none" stroke="midnightblue" d="M498.506,-481C515.18,-481 533.219,-481 549.974,-481"/>
<polygon fill="midnightblue" stroke="midnightblue" points="550.216,-484.5 560.216,-481 550.216,-477.5 550.216,-484.5"/>
</g>
<!-- Node15 -->
<g id="node15" class="node"><title>Node15</title>
<g id="a_node15"><a xlink:href="../../dd/d3e/namespaceFun4AllUtils.html#a6dfe352085d7f142c63a03003f9df963" target="_top" xlink:title="Fun4AllUtils::GetRunSegment">
<polygon fill="none" stroke="black" points="542,-515.5 542,-534.5 688,-534.5 688,-515.5 542,-515.5"/>
<text text-anchor="middle" x="615" y="-522.5" font-family="FreeSans" font-size="10.00">Fun4AllUtils::GetRunSegment</text>
</a>
</g>
</g>
<!-- Node13&#45;&gt;Node15 -->
<g id="edge17" class="edge"><title>Node13&#45;&gt;Node15</title>
<path fill="none" stroke="midnightblue" d="M496.76,-496.019C519.278,-501.586 544.487,-507.817 565.743,-513.071"/>
<polygon fill="midnightblue" stroke="midnightblue" points="564.97,-516.486 575.518,-515.488 566.65,-509.69 564.97,-516.486"/>
</g>
<!-- Node17&#45;&gt;Node3 -->
<g id="edge20" class="edge"><title>Node17&#45;&gt;Node3</title>
<path fill="none" stroke="midnightblue" d="M300.917,-556.141C330.269,-566.035 368.18,-578.813 396.026,-588.2"/>
<polygon fill="midnightblue" stroke="midnightblue" points="395.201,-591.615 405.795,-591.493 397.437,-584.982 395.201,-591.615"/>
</g>
<!-- Node17&#45;&gt;Node8 -->
<g id="edge21" class="edge"><title>Node17&#45;&gt;Node8</title>
<path fill="none" stroke="midnightblue" d="M309.587,-543.272C406.865,-547.395 611.885,-556.086 714.218,-560.423"/>
<polygon fill="midnightblue" stroke="midnightblue" points="714.25,-563.928 724.389,-560.855 714.547,-556.934 714.25,-563.928"/>
</g>
<!-- Node18 -->
<g id="node18" class="node"><title>Node18</title>
<g id="a_node18"><a xlink:href="../../da/d29/classFun4AllServer.html#abcaf6825367e5db292ff795237bdcf62" target="_top" xlink:title="Fun4AllServer::topNode">
<polygon fill="none" stroke="black" points="375.5,-515.5 375.5,-534.5 494.5,-534.5 494.5,-515.5 375.5,-515.5"/>
<text text-anchor="middle" x="435" y="-522.5" font-family="FreeSans" font-size="10.00">Fun4AllServer::topNode</text>
</a>
</g>
</g>
<!-- Node17&#45;&gt;Node18 -->
<g id="edge22" class="edge"><title>Node17&#45;&gt;Node18</title>
<path fill="none" stroke="midnightblue" d="M309.889,-536.156C327.329,-534.588 346.911,-532.828 365.276,-531.177"/>
<polygon fill="midnightblue" stroke="midnightblue" points="365.686,-534.655 375.333,-530.273 365.06,-527.683 365.686,-534.655"/>
</g>
<!-- Node19&#45;&gt;Node9 -->
<g id="edge24" class="edge"><title>Node19&#45;&gt;Node9</title>
<path fill="none" stroke="midnightblue" d="M318.506,-293.397C339.501,-298.233 362.661,-303.568 382.695,-308.183"/>
<polygon fill="midnightblue" stroke="midnightblue" points="382.026,-311.62 392.556,-310.454 383.597,-304.799 382.026,-311.62"/>
</g>
<!-- Node20 -->
<g id="node20" class="node"><title>Node20</title>
<g id="a_node20"><a xlink:href="../../de/dbb/classSyncObject.html#aa2a10b9b4a4b8e3987f9c62fb28bd9f8" target="_top" xlink:title="Clear Sync. ">
<polygon fill="none" stroke="black" points="386.5,-269.5 386.5,-288.5 483.5,-288.5 483.5,-269.5 386.5,-269.5"/>
<text text-anchor="middle" x="435" y="-276.5" font-family="FreeSans" font-size="10.00">SyncObject::Reset</text>
</a>
</g>
</g>
<!-- Node19&#45;&gt;Node20 -->
<g id="edge25" class="edge"><title>Node19&#45;&gt;Node20</title>
<path fill="none" stroke="midnightblue" d="M318.506,-279C337.27,-279 357.762,-279 376.207,-279"/>
<polygon fill="midnightblue" stroke="midnightblue" points="376.22,-282.5 386.22,-279 376.22,-275.5 376.22,-282.5"/>
</g>
<!-- Node19&#45;&gt;Node21 -->
<g id="edge26" class="edge"><title>Node19&#45;&gt;Node21</title>
<path fill="none" stroke="midnightblue" d="M318.506,-264.603C339.501,-259.767 362.661,-254.432 382.695,-249.817"/>
<polygon fill="midnightblue" stroke="midnightblue" points="383.597,-253.201 392.556,-247.546 382.026,-246.38 383.597,-253.201"/>
</g>
</g>
</svg>
