<?xml version="1.0" encoding="UTF-8" standalone="no"?>
<!DOCTYPE svg PUBLIC "-//W3C//DTD SVG 1.1//EN"
 "http://www.w3.org/Graphics/SVG/1.1/DTD/svg11.dtd">
<!-- Generated by graphviz version 2.36.0 (20140111.2315)
 -->
<!-- Title: Fun4AllPrdfInputManager::OpenNextFile Pages: 1 -->
<svg width="622pt" height="126pt"
 viewBox="0.00 0.00 622.00 126.00" xmlns="http://www.w3.org/2000/svg" xmlns:xlink="http://www.w3.org/1999/xlink">
<g id="graph0" class="graph" transform="scale(1 1) rotate(0) translate(4 122)">
<title>Fun4AllPrdfInputManager::OpenNextFile</title>
<!-- Node1 -->
<g id="node1" class="node"><title>Node1</title>
<polygon fill="#bfbfbf" stroke="black" points="0.5,-39 0.5,-69 127.5,-69 127.5,-39 0.5,-39"/>
<text text-anchor="start" x="8.5" y="-57" font-family="FreeSans" font-size="10.00">Fun4AllPrdfInputManager</text>
<text text-anchor="middle" x="64" y="-46" font-family="FreeSans" font-size="10.00">::OpenNextFile</text>
</g>
<!-- Node2 -->
<g id="node2" class="node"><title>Node2</title>
<g id="a_node2"><a xlink:href="../../da/dd8/classFun4AllPrdfInputManager.html#af7c7687826ed9f7495f0837fbc7f3f1e" target="_top" xlink:title="Fun4AllPrdfInputManager\l::fileopen">
<polygon fill="none" stroke="black" points="164.5,-39 164.5,-69 291.5,-69 291.5,-39 164.5,-39"/>
<text text-anchor="start" x="172.5" y="-57" font-family="FreeSans" font-size="10.00">Fun4AllPrdfInputManager</text>
<text text-anchor="middle" x="228" y="-46" font-family="FreeSans" font-size="10.00">::fileopen</text>
</a>
</g>
</g>
<!-- Node1&#45;&gt;Node2 -->
<g id="edge1" class="edge"><title>Node1&#45;&gt;Node2</title>
<path fill="none" stroke="midnightblue" d="M127.633,-54C136.273,-54 145.206,-54 154.012,-54"/>
<polygon fill="midnightblue" stroke="midnightblue" points="154.266,-57.5001 164.266,-54 154.266,-50.5001 154.266,-57.5001"/>
</g>
<!-- Node3 -->
<g id="node3" class="node"><title>Node3</title>
<g id="a_node3"><a xlink:href="../../d4/da9/classFun4AllInputManager.html#a98ac3fb04956625a423ef41a3909ba27" target="_top" xlink:title="Fun4AllInputManager\l::AddToFileOpened">
<polygon fill="none" stroke="black" points="346.5,-88 346.5,-118 455.5,-118 455.5,-88 346.5,-88"/>
<text text-anchor="start" x="354.5" y="-106" font-family="FreeSans" font-size="10.00">Fun4AllInputManager</text>
<text text-anchor="middle" x="401" y="-95" font-family="FreeSans" font-size="10.00">::AddToFileOpened</text>
</a>
</g>
</g>
<!-- Node2&#45;&gt;Node3 -->
<g id="edge2" class="edge"><title>Node2&#45;&gt;Node3</title>
<path fill="none" stroke="midnightblue" d="M281.701,-69.1014C299.419,-74.1785 319.352,-79.8902 337.734,-85.1577"/>
<polygon fill="midnightblue" stroke="midnightblue" points="336.896,-88.5583 347.473,-87.9484 338.824,-81.8291 336.896,-88.5583"/>
</g>
<!-- Node4 -->
<g id="node4" class="node"><title>Node4</title>
<g id="a_node4"><a xlink:href="../../da/dd8/classFun4AllPrdfInputManager.html#a678edaaccda7214183cc67f7a19e1925" target="_top" xlink:title="Fun4AllPrdfInputManager\l::fileclose">
<polygon fill="none" stroke="black" points="337.5,-39 337.5,-69 464.5,-69 464.5,-39 337.5,-39"/>
<text text-anchor="start" x="345.5" y="-57" font-family="FreeSans" font-size="10.00">Fun4AllPrdfInputManager</text>
<text text-anchor="middle" x="401" y="-46" font-family="FreeSans" font-size="10.00">::fileclose</text>
</a>
</g>
</g>
<!-- Node2&#45;&gt;Node4 -->
<g id="edge3" class="edge"><title>Node2&#45;&gt;Node4</title>
<path fill="none" stroke="midnightblue" d="M291.703,-54C303.204,-54 315.298,-54 327.068,-54"/>
<polygon fill="midnightblue" stroke="midnightblue" points="327.305,-57.5001 337.304,-54 327.304,-50.5001 327.305,-57.5001"/>
</g>
<!-- Node6 -->
<g id="node6" class="node"><title>Node6</title>
<g id="a_node6"><a xlink:href="../../dd/d3e/namespaceFun4AllUtils.html#a6dfe352085d7f142c63a03003f9df963" target="_top" xlink:title="Fun4AllUtils::GetRunSegment">
<polygon fill="none" stroke="black" points="328,-0.5 328,-19.5 474,-19.5 474,-0.5 328,-0.5"/>
<text text-anchor="middle" x="401" y="-7.5" font-family="FreeSans" font-size="10.00">Fun4AllUtils::GetRunSegment</text>
</a>
</g>
</g>
<!-- Node2&#45;&gt;Node6 -->
<g id="edge5" class="edge"><title>Node2&#45;&gt;Node6</title>
<path fill="none" stroke="midnightblue" d="M287.37,-38.9808C308.807,-33.4648 332.783,-27.2956 353.085,-22.0716"/>
<polygon fill="midnightblue" stroke="midnightblue" points="354.219,-25.394 363.031,-19.5124 352.475,-18.6148 354.219,-25.394"/>
</g>
<!-- Node5 -->
<g id="node5" class="node"><title>Node5</title>
<g id="a_node5"><a xlink:href="../../d5/dec/classFun4AllBase.html#a41f9ac377743d046f590617fd6f4f0ed" target="_top" xlink:title="Returns the name of this module. ">
<polygon fill="none" stroke="black" points="510.5,-44.5 510.5,-63.5 613.5,-63.5 613.5,-44.5 510.5,-44.5"/>
<text text-anchor="middle" x="562" y="-51.5" font-family="FreeSans" font-size="10.00">Fun4AllBase::Name</text>
</a>
</g>
</g>
<!-- Node4&#45;&gt;Node5 -->
<g id="edge4" class="edge"><title>Node4&#45;&gt;Node5</title>
<path fill="none" stroke="midnightblue" d="M464.841,-54C476.523,-54 488.707,-54 500.323,-54"/>
<polygon fill="midnightblue" stroke="midnightblue" points="500.357,-57.5001 510.357,-54 500.357,-50.5001 500.357,-57.5001"/>
</g>
</g>
</svg>
