<?xml version="1.0" encoding="UTF-8" standalone="no"?>
<!DOCTYPE svg PUBLIC "-//W3C//DTD SVG 1.1//EN"
 "http://www.w3.org/Graphics/SVG/1.1/DTD/svg11.dtd">
<!-- Generated by graphviz version 2.36.0 (20140111.2315)
 -->
<!-- Title: Fun4AllPrdfInputManager::fileopen Pages: 1 -->
<svg width="458pt" height="126pt"
 viewBox="0.00 0.00 458.00 126.00" xmlns="http://www.w3.org/2000/svg" xmlns:xlink="http://www.w3.org/1999/xlink">
<g id="graph0" class="graph" transform="scale(1 1) rotate(0) translate(4 122)">
<title>Fun4AllPrdfInputManager::fileopen</title>
<!-- Node1 -->
<g id="node1" class="node"><title>Node1</title>
<polygon fill="#bfbfbf" stroke="black" points="0.5,-39 0.5,-69 127.5,-69 127.5,-39 0.5,-39"/>
<text text-anchor="start" x="8.5" y="-57" font-family="FreeSans" font-size="10.00">Fun4AllPrdfInputManager</text>
<text text-anchor="middle" x="64" y="-46" font-family="FreeSans" font-size="10.00">::fileopen</text>
</g>
<!-- Node2 -->
<g id="node2" class="node"><title>Node2</title>
<g id="a_node2"><a xlink:href="../../d4/da9/classFun4AllInputManager.html#a98ac3fb04956625a423ef41a3909ba27" target="_top" xlink:title="Fun4AllInputManager\l::AddToFileOpened">
<polygon fill="none" stroke="black" points="182.5,-88 182.5,-118 291.5,-118 291.5,-88 182.5,-88"/>
<text text-anchor="start" x="190.5" y="-106" font-family="FreeSans" font-size="10.00">Fun4AllInputManager</text>
<text text-anchor="middle" x="237" y="-95" font-family="FreeSans" font-size="10.00">::AddToFileOpened</text>
</a>
</g>
</g>
<!-- Node1&#45;&gt;Node2 -->
<g id="edge1" class="edge"><title>Node1&#45;&gt;Node2</title>
<path fill="none" stroke="midnightblue" d="M117.701,-69.1014C135.419,-74.1785 155.352,-79.8902 173.734,-85.1577"/>
<polygon fill="midnightblue" stroke="midnightblue" points="172.896,-88.5583 183.473,-87.9484 174.824,-81.8291 172.896,-88.5583"/>
</g>
<!-- Node3 -->
<g id="node3" class="node"><title>Node3</title>
<g id="a_node3"><a xlink:href="../../da/dd8/classFun4AllPrdfInputManager.html#a678edaaccda7214183cc67f7a19e1925" target="_top" xlink:title="Fun4AllPrdfInputManager\l::fileclose">
<polygon fill="none" stroke="black" points="173.5,-39 173.5,-69 300.5,-69 300.5,-39 173.5,-39"/>
<text text-anchor="start" x="181.5" y="-57" font-family="FreeSans" font-size="10.00">Fun4AllPrdfInputManager</text>
<text text-anchor="middle" x="237" y="-46" font-family="FreeSans" font-size="10.00">::fileclose</text>
</a>
</g>
</g>
<!-- Node1&#45;&gt;Node3 -->
<g id="edge2" class="edge"><title>Node1&#45;&gt;Node3</title>
<path fill="none" stroke="midnightblue" d="M127.703,-54C139.204,-54 151.298,-54 163.068,-54"/>
<polygon fill="midnightblue" stroke="midnightblue" points="163.305,-57.5001 173.304,-54 163.304,-50.5001 163.305,-57.5001"/>
</g>
<!-- Node5 -->
<g id="node5" class="node"><title>Node5</title>
<g id="a_node5"><a xlink:href="../../dd/d3e/namespaceFun4AllUtils.html#a6dfe352085d7f142c63a03003f9df963" target="_top" xlink:title="Fun4AllUtils::GetRunSegment">
<polygon fill="none" stroke="black" points="164,-0.5 164,-19.5 310,-19.5 310,-0.5 164,-0.5"/>
<text text-anchor="middle" x="237" y="-7.5" font-family="FreeSans" font-size="10.00">Fun4AllUtils::GetRunSegment</text>
</a>
</g>
</g>
<!-- Node1&#45;&gt;Node5 -->
<g id="edge4" class="edge"><title>Node1&#45;&gt;Node5</title>
<path fill="none" stroke="midnightblue" d="M123.37,-38.9808C144.807,-33.4648 168.783,-27.2956 189.085,-22.0716"/>
<polygon fill="midnightblue" stroke="midnightblue" points="190.219,-25.394 199.031,-19.5124 188.475,-18.6148 190.219,-25.394"/>
</g>
<!-- Node4 -->
<g id="node4" class="node"><title>Node4</title>
<g id="a_node4"><a xlink:href="../../d5/dec/classFun4AllBase.html#a41f9ac377743d046f590617fd6f4f0ed" target="_top" xlink:title="Returns the name of this module. ">
<polygon fill="none" stroke="black" points="346.5,-44.5 346.5,-63.5 449.5,-63.5 449.5,-44.5 346.5,-44.5"/>
<text text-anchor="middle" x="398" y="-51.5" font-family="FreeSans" font-size="10.00">Fun4AllBase::Name</text>
</a>
</g>
</g>
<!-- Node3&#45;&gt;Node4 -->
<g id="edge3" class="edge"><title>Node3&#45;&gt;Node4</title>
<path fill="none" stroke="midnightblue" d="M300.841,-54C312.523,-54 324.707,-54 336.323,-54"/>
<polygon fill="midnightblue" stroke="midnightblue" points="336.357,-57.5001 346.357,-54 336.357,-50.5001 336.357,-57.5001"/>
</g>
</g>
</svg>
