<?xml version="1.0" encoding="UTF-8" standalone="no"?>
<!DOCTYPE svg PUBLIC "-//W3C//DTD SVG 1.1//EN"
 "http://www.w3.org/Graphics/SVG/1.1/DTD/svg11.dtd">
<!-- Generated by graphviz version 2.36.0 (20140111.2315)
 -->
<!-- Title: Fun4AllPrdfInputManager::SyncIt Pages: 1 -->
<svg width="448pt" height="85pt"
 viewBox="0.00 0.00 448.00 85.00" xmlns="http://www.w3.org/2000/svg" xmlns:xlink="http://www.w3.org/1999/xlink">
<g id="graph0" class="graph" transform="scale(1 1) rotate(0) translate(4 81)">
<title>Fun4AllPrdfInputManager::SyncIt</title>
<!-- Node1 -->
<g id="node1" class="node"><title>Node1</title>
<polygon fill="#bfbfbf" stroke="black" points="0.5,-14 0.5,-44 127.5,-44 127.5,-14 0.5,-14"/>
<text text-anchor="start" x="8.5" y="-32" font-family="FreeSans" font-size="10.00">Fun4AllPrdfInputManager</text>
<text text-anchor="middle" x="64" y="-21" font-family="FreeSans" font-size="10.00">::SyncIt</text>
</g>
<!-- Node2 -->
<g id="node2" class="node"><title>Node2</title>
<g id="a_node2"><a xlink:href="../../de/dbb/classSyncObject.html#ab8b7f5a87277828d6ea97d2ed3dd546d" target="_top" xlink:title="SyncObject::Different">
<polygon fill="none" stroke="black" points="164.5,-38.5 164.5,-57.5 271.5,-57.5 271.5,-38.5 164.5,-38.5"/>
<text text-anchor="middle" x="218" y="-45.5" font-family="FreeSans" font-size="10.00">SyncObject::Different</text>
</a>
</g>
</g>
<!-- Node1&#45;&gt;Node2 -->
<g id="edge1" class="edge"><title>Node1&#45;&gt;Node2</title>
<path fill="none" stroke="midnightblue" d="M127.702,-36.8377C136.401,-37.9251 145.34,-39.0425 154.044,-40.1304"/>
<polygon fill="midnightblue" stroke="midnightblue" points="153.768,-43.6231 164.124,-41.3906 154.636,-36.6772 153.768,-43.6231"/>
</g>
<!-- Node5 -->
<g id="node5" class="node"><title>Node5</title>
<g id="a_node5"><a xlink:href="../../d5/dec/classFun4AllBase.html#a41f9ac377743d046f590617fd6f4f0ed" target="_top" xlink:title="Returns the name of this module. ">
<polygon fill="none" stroke="black" points="166.5,-0.5 166.5,-19.5 269.5,-19.5 269.5,-0.5 166.5,-0.5"/>
<text text-anchor="middle" x="218" y="-7.5" font-family="FreeSans" font-size="10.00">Fun4AllBase::Name</text>
</a>
</g>
</g>
<!-- Node1&#45;&gt;Node5 -->
<g id="edge4" class="edge"><title>Node1&#45;&gt;Node5</title>
<path fill="none" stroke="midnightblue" d="M127.702,-21.1623C137.191,-19.9762 146.965,-18.7544 156.408,-17.574"/>
<polygon fill="midnightblue" stroke="midnightblue" points="157.006,-21.0265 166.495,-16.3131 156.138,-14.0806 157.006,-21.0265"/>
</g>
<!-- Node3 -->
<g id="node3" class="node"><title>Node3</title>
<g id="a_node3"><a xlink:href="../../de/dbb/classSyncObject.html#aa650d97c0d3ace8ae7945f54224228ef" target="_top" xlink:title="set Event Number ">
<polygon fill="none" stroke="black" points="308.5,-57.5 308.5,-76.5 439.5,-76.5 439.5,-57.5 308.5,-57.5"/>
<text text-anchor="middle" x="374" y="-64.5" font-family="FreeSans" font-size="10.00">SyncObject::EventNumber</text>
</a>
</g>
</g>
<!-- Node2&#45;&gt;Node3 -->
<g id="edge2" class="edge"><title>Node2&#45;&gt;Node3</title>
<path fill="none" stroke="midnightblue" d="M271.567,-54.4856C280.177,-55.5478 289.242,-56.6662 298.265,-57.7794"/>
<polygon fill="midnightblue" stroke="midnightblue" points="298.055,-61.28 308.408,-59.0309 298.912,-54.3327 298.055,-61.28"/>
</g>
<!-- Node4 -->
<g id="node4" class="node"><title>Node4</title>
<g id="a_node4"><a xlink:href="../../de/dbb/classSyncObject.html#af1188def459d0ff933d71e37c7afc0c5" target="_top" xlink:title="set Run Number ">
<polygon fill="none" stroke="black" points="312.5,-19.5 312.5,-38.5 435.5,-38.5 435.5,-19.5 312.5,-19.5"/>
<text text-anchor="middle" x="374" y="-26.5" font-family="FreeSans" font-size="10.00">SyncObject::RunNumber</text>
</a>
</g>
</g>
<!-- Node2&#45;&gt;Node4 -->
<g id="edge3" class="edge"><title>Node2&#45;&gt;Node4</title>
<path fill="none" stroke="midnightblue" d="M271.567,-41.5144C281.435,-40.2969 291.9,-39.0058 302.216,-37.7331"/>
<polygon fill="midnightblue" stroke="midnightblue" points="302.958,-41.1682 312.454,-36.47 302.1,-34.2209 302.958,-41.1682"/>
</g>
</g>
</svg>
