<?xml version="1.0" encoding="UTF-8" standalone="no"?>
<!DOCTYPE svg PUBLIC "-//W3C//DTD SVG 1.1//EN"
 "http://www.w3.org/Graphics/SVG/1.1/DTD/svg11.dtd">
<!-- Generated by graphviz version 2.36.0 (20140111.2315)
 -->
<!-- Title: fun4all/interfaces/SHitMap.C Pages: 1 -->
<svg width="278pt" height="264pt"
 viewBox="0.00 0.00 277.94 264.00" xmlns="http://www.w3.org/2000/svg" xmlns:xlink="http://www.w3.org/1999/xlink">
<g id="graph0" class="graph" transform="scale(1 1) rotate(0) translate(4 260)">
<title>fun4all/interfaces/SHitMap.C</title>
<!-- Node1 -->
<g id="node1" class="node"><title>Node1</title>
<polygon fill="#bfbfbf" stroke="black" points="80.4443,-225 80.4443,-255 171.444,-255 171.444,-225 80.4443,-225"/>
<text text-anchor="start" x="88.4443" y="-243" font-family="FreeSans" font-size="10.00">fun4all/interfaces</text>
<text text-anchor="middle" x="125.944" y="-232" font-family="FreeSans" font-size="10.00">/SHitMap.C</text>
</g>
<!-- Node2 -->
<g id="node2" class="node"><title>Node2</title>
<g id="a_node2"><a xlink:href="../../d1/de9/SHitMap_8h.html" target="_top" xlink:title="SHitMap.h">
<polygon fill="none" stroke="black" points="124.944,-168.5 124.944,-187.5 186.944,-187.5 186.944,-168.5 124.944,-168.5"/>
<text text-anchor="middle" x="155.944" y="-175.5" font-family="FreeSans" font-size="10.00">SHitMap.h</text>
</a>
</g>
</g>
<!-- Node1&#45;&gt;Node2 -->
<g id="edge1" class="edge"><title>Node1&#45;&gt;Node2</title>
<path fill="none" stroke="midnightblue" d="M133.054,-224.781C137.233,-216.422 142.556,-205.777 147.016,-196.856"/>
<polygon fill="midnightblue" stroke="midnightblue" points="150.237,-198.24 151.579,-187.731 143.976,-195.11 150.237,-198.24"/>
</g>
<!-- Node3 -->
<g id="node3" class="node"><title>Node3</title>
<g id="a_node3"><a xlink:href="../../d2/d2c/SHit_8h.html" target="_top" xlink:title="SHit.h">
<polygon fill="none" stroke="black" points="74.9443,-112.5 74.9443,-131.5 118.944,-131.5 118.944,-112.5 74.9443,-112.5"/>
<text text-anchor="middle" x="96.9443" y="-119.5" font-family="FreeSans" font-size="10.00">SHit.h</text>
</a>
</g>
</g>
<!-- Node1&#45;&gt;Node3 -->
<g id="edge12" class="edge"><title>Node1&#45;&gt;Node3</title>
<path fill="none" stroke="midnightblue" d="M122.388,-224.776C117.163,-203.876 107.405,-164.844 101.61,-141.664"/>
<polygon fill="midnightblue" stroke="midnightblue" points="104.942,-140.56 99.121,-131.707 98.1509,-142.257 104.942,-140.56"/>
</g>
<!-- Node2&#45;&gt;Node3 -->
<g id="edge2" class="edge"><title>Node2&#45;&gt;Node3</title>
<path fill="none" stroke="midnightblue" d="M146.465,-168.324C137.743,-160.341 124.601,-148.313 114.046,-138.653"/>
<polygon fill="midnightblue" stroke="midnightblue" points="116.336,-136.004 106.596,-131.834 111.61,-141.167 116.336,-136.004"/>
</g>
<!-- Node4 -->
<g id="node4" class="node"><title>Node4</title>
<g id="a_node4"><a xlink:href="../../df/d32/PHObject_8h.html" target="_top" xlink:title="phool/PHObject.h">
<polygon fill="none" stroke="black" points="177.444,-56.5 177.444,-75.5 270.444,-75.5 270.444,-56.5 177.444,-56.5"/>
<text text-anchor="middle" x="223.944" y="-63.5" font-family="FreeSans" font-size="10.00">phool/PHObject.h</text>
</a>
</g>
</g>
<!-- Node2&#45;&gt;Node4 -->
<g id="edge9" class="edge"><title>Node2&#45;&gt;Node4</title>
<path fill="none" stroke="midnightblue" d="M177.2,-168.473C192.269,-161.2 211.437,-149.171 220.944,-132 228.725,-117.948 228.788,-99.4534 227.306,-85.7864"/>
<polygon fill="midnightblue" stroke="midnightblue" points="230.734,-85.0382 225.834,-75.6449 223.807,-86.0441 230.734,-85.0382"/>
</g>
<!-- Node6 -->
<g id="node6" class="node"><title>Node6</title>
<polygon fill="none" stroke="#bfbfbf" points="121.944,-0.5 121.944,-19.5 175.944,-19.5 175.944,-0.5 121.944,-0.5"/>
<text text-anchor="middle" x="148.944" y="-7.5" font-family="FreeSans" font-size="10.00">iostream</text>
</g>
<!-- Node2&#45;&gt;Node6 -->
<g id="edge11" class="edge"><title>Node2&#45;&gt;Node6</title>
<path fill="none" stroke="midnightblue" d="M155.568,-168.075C154.466,-141.945 151.23,-65.2106 149.728,-29.577"/>
<polygon fill="midnightblue" stroke="midnightblue" points="153.224,-29.4117 149.306,-19.5681 146.23,-29.7067 153.224,-29.4117"/>
</g>
<!-- Node9 -->
<g id="node9" class="node"><title>Node9</title>
<polygon fill="none" stroke="#bfbfbf" points="177.444,-112.5 177.444,-131.5 212.444,-131.5 212.444,-112.5 177.444,-112.5"/>
<text text-anchor="middle" x="194.944" y="-119.5" font-family="FreeSans" font-size="10.00">map</text>
</g>
<!-- Node2&#45;&gt;Node9 -->
<g id="edge10" class="edge"><title>Node2&#45;&gt;Node9</title>
<path fill="none" stroke="midnightblue" d="M162.384,-168.083C167.893,-160.455 175.975,-149.264 182.709,-139.941"/>
<polygon fill="midnightblue" stroke="midnightblue" points="185.606,-141.907 188.624,-131.751 179.932,-137.809 185.606,-141.907"/>
</g>
<!-- Node3&#45;&gt;Node4 -->
<g id="edge3" class="edge"><title>Node3&#45;&gt;Node4</title>
<path fill="none" stroke="midnightblue" d="M117.068,-112.444C137.969,-103.557 170.879,-89.5632 194.66,-79.4514"/>
<polygon fill="midnightblue" stroke="midnightblue" points="196.082,-82.6504 203.915,-75.5164 193.343,-76.2085 196.082,-82.6504"/>
</g>
<!-- Node3&#45;&gt;Node6 -->
<g id="edge6" class="edge"><title>Node3&#45;&gt;Node6</title>
<path fill="none" stroke="midnightblue" d="M74.6945,-115.5C41.1024,-106.114 -16.4862,-85.1495 4.94427,-56 29.2683,-22.9147 77.8085,-13.476 111.781,-11.1295"/>
<polygon fill="midnightblue" stroke="midnightblue" points="112.007,-14.6226 121.813,-10.6107 111.645,-7.63194 112.007,-14.6226"/>
</g>
<!-- Node7 -->
<g id="node7" class="node"><title>Node7</title>
<polygon fill="none" stroke="#bfbfbf" points="73.4443,-56.5 73.4443,-75.5 120.444,-75.5 120.444,-56.5 73.4443,-56.5"/>
<text text-anchor="middle" x="96.9443" y="-63.5" font-family="FreeSans" font-size="10.00">limits.h</text>
</g>
<!-- Node3&#45;&gt;Node7 -->
<g id="edge7" class="edge"><title>Node3&#45;&gt;Node7</title>
<path fill="none" stroke="midnightblue" d="M96.9443,-112.083C96.9443,-105.006 96.9443,-94.8611 96.9443,-85.9865"/>
<polygon fill="midnightblue" stroke="midnightblue" points="100.444,-85.751 96.9443,-75.7511 93.4444,-85.7511 100.444,-85.751"/>
</g>
<!-- Node8 -->
<g id="node8" class="node"><title>Node8</title>
<polygon fill="none" stroke="#bfbfbf" points="14.4443,-56.5 14.4443,-75.5 55.4443,-75.5 55.4443,-56.5 14.4443,-56.5"/>
<text text-anchor="middle" x="34.9443" y="-63.5" font-family="FreeSans" font-size="10.00">string</text>
</g>
<!-- Node3&#45;&gt;Node8 -->
<g id="edge8" class="edge"><title>Node3&#45;&gt;Node8</title>
<path fill="none" stroke="midnightblue" d="M86.9829,-112.324C77.8177,-104.341 64.0071,-92.3128 52.9161,-82.6529"/>
<polygon fill="midnightblue" stroke="midnightblue" points="54.9265,-79.7624 45.0869,-75.8339 50.329,-85.041 54.9265,-79.7624"/>
</g>
<!-- Node5 -->
<g id="node5" class="node"><title>Node5</title>
<polygon fill="none" stroke="#bfbfbf" points="194.444,-0.5 194.444,-19.5 253.444,-19.5 253.444,-0.5 194.444,-0.5"/>
<text text-anchor="middle" x="223.944" y="-7.5" font-family="FreeSans" font-size="10.00">TObject.h</text>
</g>
<!-- Node4&#45;&gt;Node5 -->
<g id="edge4" class="edge"><title>Node4&#45;&gt;Node5</title>
<path fill="none" stroke="midnightblue" d="M223.944,-56.083C223.944,-49.0059 223.944,-38.8611 223.944,-29.9865"/>
<polygon fill="midnightblue" stroke="midnightblue" points="227.444,-29.751 223.944,-19.7511 220.444,-29.7511 227.444,-29.751"/>
</g>
<!-- Node4&#45;&gt;Node6 -->
<g id="edge5" class="edge"><title>Node4&#45;&gt;Node6</title>
<path fill="none" stroke="midnightblue" d="M211.894,-56.324C200.481,-48.1066 183.113,-35.6017 169.509,-25.8069"/>
<polygon fill="midnightblue" stroke="midnightblue" points="171.374,-22.8366 161.214,-19.8339 167.284,-28.5174 171.374,-22.8366"/>
</g>
</g>
</svg>
