<?xml version="1.0" encoding="UTF-8" standalone="no"?>
<!DOCTYPE svg PUBLIC "-//W3C//DTD SVG 1.1//EN"
 "http://www.w3.org/Graphics/SVG/1.1/DTD/svg11.dtd">
<!-- Generated by graphviz version 2.36.0 (20140111.2315)
 -->
<!-- Title: fun4all/interfaces/SEvent_v1.C Pages: 1 -->
<svg width="446pt" height="376pt"
 viewBox="0.00 0.00 446.00 376.00" xmlns="http://www.w3.org/2000/svg" xmlns:xlink="http://www.w3.org/1999/xlink">
<g id="graph0" class="graph" transform="scale(1 1) rotate(0) translate(4 372)">
<title>fun4all/interfaces/SEvent_v1.C</title>
<!-- Node1 -->
<g id="node1" class="node"><title>Node1</title>
<polygon fill="#bfbfbf" stroke="black" points="211.5,-337 211.5,-367 302.5,-367 302.5,-337 211.5,-337"/>
<text text-anchor="start" x="219.5" y="-355" font-family="FreeSans" font-size="10.00">fun4all/interfaces</text>
<text text-anchor="middle" x="257" y="-344" font-family="FreeSans" font-size="10.00">/SEvent_v1.C</text>
</g>
<!-- Node2 -->
<g id="node2" class="node"><title>Node2</title>
<g id="a_node2"><a xlink:href="../../de/d46/SEvent__v1_8h.html" target="_top" xlink:title="SEvent_v1.h">
<polygon fill="none" stroke="black" points="132.5,-280.5 132.5,-299.5 203.5,-299.5 203.5,-280.5 132.5,-280.5"/>
<text text-anchor="middle" x="168" y="-287.5" font-family="FreeSans" font-size="10.00">SEvent_v1.h</text>
</a>
</g>
</g>
<!-- Node1&#45;&gt;Node2 -->
<g id="edge1" class="edge"><title>Node1&#45;&gt;Node2</title>
<path fill="none" stroke="midnightblue" d="M235.908,-336.781C221.825,-327.286 203.368,-314.843 189.251,-305.327"/>
<polygon fill="midnightblue" stroke="midnightblue" points="190.939,-302.244 180.691,-299.556 187.026,-308.048 190.939,-302.244"/>
</g>
<!-- Node5 -->
<g id="node5" class="node"><title>Node5</title>
<g id="a_node5"><a xlink:href="../../d2/d2c/SHit_8h.html" target="_top" xlink:title="SHit.h">
<polygon fill="none" stroke="black" points="298,-112.5 298,-131.5 342,-131.5 342,-112.5 298,-112.5"/>
<text text-anchor="middle" x="320" y="-119.5" font-family="FreeSans" font-size="10.00">SHit.h</text>
</a>
</g>
</g>
<!-- Node1&#45;&gt;Node5 -->
<g id="edge21" class="edge"><title>Node1&#45;&gt;Node5</title>
<path fill="none" stroke="midnightblue" d="M260.941,-336.738C271.868,-297.193 302.549,-186.156 314.826,-141.724"/>
<polygon fill="midnightblue" stroke="midnightblue" points="318.238,-142.518 317.528,-131.947 311.491,-140.653 318.238,-142.518"/>
</g>
<!-- Node3 -->
<g id="node3" class="node"><title>Node3</title>
<g id="a_node3"><a xlink:href="../../db/d3d/SEvent_8h.html" target="_top" xlink:title="SEvent.h">
<polygon fill="none" stroke="black" points="107,-224.5 107,-243.5 163,-243.5 163,-224.5 107,-224.5"/>
<text text-anchor="middle" x="135" y="-231.5" font-family="FreeSans" font-size="10.00">SEvent.h</text>
</a>
</g>
</g>
<!-- Node2&#45;&gt;Node3 -->
<g id="edge2" class="edge"><title>Node2&#45;&gt;Node3</title>
<path fill="none" stroke="midnightblue" d="M162.551,-280.083C157.986,-272.613 151.332,-261.724 145.707,-252.52"/>
<polygon fill="midnightblue" stroke="midnightblue" points="148.549,-250.459 140.348,-243.751 142.576,-254.109 148.549,-250.459"/>
</g>
<!-- Node6 -->
<g id="node6" class="node"><title>Node6</title>
<g id="a_node6"><a xlink:href="../../df/d32/PHObject_8h.html" target="_top" xlink:title="phool/PHObject.h">
<polygon fill="none" stroke="black" points="182.5,-56.5 182.5,-75.5 275.5,-75.5 275.5,-56.5 182.5,-56.5"/>
<text text-anchor="middle" x="229" y="-63.5" font-family="FreeSans" font-size="10.00">phool/PHObject.h</text>
</a>
</g>
</g>
<!-- Node2&#45;&gt;Node6 -->
<g id="edge17" class="edge"><title>Node2&#45;&gt;Node6</title>
<path fill="none" stroke="midnightblue" d="M186.952,-280.427C201.22,-272.929 219.976,-260.631 230,-244 260.506,-193.387 256.615,-170.135 246,-112 244.312,-102.757 240.825,-92.9479 237.446,-84.8546"/>
<polygon fill="midnightblue" stroke="midnightblue" points="240.631,-83.4045 233.366,-75.6928 234.237,-86.2518 240.631,-83.4045"/>
</g>
<!-- Node8 -->
<g id="node8" class="node"><title>Node8</title>
<polygon fill="none" stroke="#bfbfbf" points="127,-0.5 127,-19.5 181,-19.5 181,-0.5 127,-0.5"/>
<text text-anchor="middle" x="154" y="-7.5" font-family="FreeSans" font-size="10.00">iostream</text>
</g>
<!-- Node2&#45;&gt;Node8 -->
<g id="edge19" class="edge"><title>Node2&#45;&gt;Node8</title>
<path fill="none" stroke="midnightblue" d="M132.372,-282.264C83.0566,-270.642 0,-241.753 0,-179 0,-179 0,-179 0,-121 0,-63.7264 71.4031,-33.4484 116.969,-19.9575"/>
<polygon fill="midnightblue" stroke="midnightblue" points="118.147,-23.262 126.822,-17.1801 116.248,-16.5245 118.147,-23.262"/>
</g>
<!-- Node11 -->
<g id="node11" class="node"><title>Node11</title>
<polygon fill="none" stroke="#bfbfbf" points="50.5,-112.5 50.5,-131.5 85.5,-131.5 85.5,-112.5 50.5,-112.5"/>
<text text-anchor="middle" x="68" y="-119.5" font-family="FreeSans" font-size="10.00">map</text>
</g>
<!-- Node2&#45;&gt;Node11 -->
<g id="edge18" class="edge"><title>Node2&#45;&gt;Node11</title>
<path fill="none" stroke="midnightblue" d="M146.482,-280.411C130.744,-273.041 110.109,-260.917 98,-244 75.7146,-212.866 69.9033,-166.98 68.4397,-141.598"/>
<polygon fill="midnightblue" stroke="midnightblue" points="71.9328,-141.355 68.0296,-131.505 64.9386,-141.639 71.9328,-141.355"/>
</g>
<!-- Node12 -->
<g id="node12" class="node"><title>Node12</title>
<polygon fill="none" stroke="#bfbfbf" points="181,-224.5 181,-243.5 221,-243.5 221,-224.5 181,-224.5"/>
<text text-anchor="middle" x="201" y="-231.5" font-family="FreeSans" font-size="10.00">limits</text>
</g>
<!-- Node2&#45;&gt;Node12 -->
<g id="edge20" class="edge"><title>Node2&#45;&gt;Node12</title>
<path fill="none" stroke="midnightblue" d="M173.449,-280.083C178.014,-272.613 184.668,-261.724 190.293,-252.52"/>
<polygon fill="midnightblue" stroke="midnightblue" points="193.424,-254.109 195.652,-243.751 187.451,-250.459 193.424,-254.109"/>
</g>
<!-- Node4 -->
<g id="node4" class="node"><title>Node4</title>
<g id="a_node4"><a xlink:href="../../d1/de9/SHitMap_8h.html" target="_top" xlink:title="SHitMap.h">
<polygon fill="none" stroke="black" points="142,-168.5 142,-187.5 204,-187.5 204,-168.5 142,-168.5"/>
<text text-anchor="middle" x="173" y="-175.5" font-family="FreeSans" font-size="10.00">SHitMap.h</text>
</a>
</g>
</g>
<!-- Node3&#45;&gt;Node4 -->
<g id="edge3" class="edge"><title>Node3&#45;&gt;Node4</title>
<path fill="none" stroke="midnightblue" d="M141.275,-224.083C146.642,-216.455 154.518,-205.264 161.079,-195.941"/>
<polygon fill="midnightblue" stroke="midnightblue" points="163.949,-197.943 166.842,-187.751 158.225,-193.915 163.949,-197.943"/>
</g>
<!-- Node3&#45;&gt;Node6 -->
<g id="edge14" class="edge"><title>Node3&#45;&gt;Node6</title>
<path fill="none" stroke="midnightblue" d="M161.412,-224.443C178.653,-217.436 200.099,-205.746 212,-188 232.902,-156.832 233.034,-110.959 231.12,-85.5881"/>
<polygon fill="midnightblue" stroke="midnightblue" points="234.592,-85.1255 230.164,-75.5004 227.623,-85.786 234.592,-85.1255"/>
</g>
<!-- Node3&#45;&gt;Node8 -->
<g id="edge16" class="edge"><title>Node3&#45;&gt;Node8</title>
<path fill="none" stroke="midnightblue" d="M134.503,-224.377C134.007,-215.322 133.281,-200.666 133,-188 132.803,-179.113 132.409,-176.869 133,-168 136.339,-117.857 145.612,-59.3007 150.645,-29.8933"/>
<polygon fill="midnightblue" stroke="midnightblue" points="154.134,-30.2635 152.402,-19.8111 147.237,-29.0619 154.134,-30.2635"/>
</g>
<!-- Node3&#45;&gt;Node11 -->
<g id="edge15" class="edge"><title>Node3&#45;&gt;Node11</title>
<path fill="none" stroke="midnightblue" d="M127.47,-224.425C119.973,-215.645 108.402,-201.423 100,-188 90.5216,-172.857 81.7106,-154.509 75.744,-141.174"/>
<polygon fill="midnightblue" stroke="midnightblue" points="78.8207,-139.473 71.6103,-131.711 72.406,-142.275 78.8207,-139.473"/>
</g>
<!-- Node4&#45;&gt;Node5 -->
<g id="edge4" class="edge"><title>Node4&#45;&gt;Node5</title>
<path fill="none" stroke="midnightblue" d="M196.293,-168.444C221.096,-159.332 260.511,-144.853 288.169,-134.693"/>
<polygon fill="midnightblue" stroke="midnightblue" points="289.599,-137.897 297.779,-131.163 287.185,-131.326 289.599,-137.897"/>
</g>
<!-- Node4&#45;&gt;Node6 -->
<g id="edge11" class="edge"><title>Node4&#45;&gt;Node6</title>
<path fill="none" stroke="midnightblue" d="M177.394,-168.368C186.554,-150.376 207.847,-108.55 220.026,-84.6267"/>
<polygon fill="midnightblue" stroke="midnightblue" points="223.208,-86.091 224.626,-75.5914 216.97,-82.9152 223.208,-86.091"/>
</g>
<!-- Node4&#45;&gt;Node8 -->
<g id="edge13" class="edge"><title>Node4&#45;&gt;Node8</title>
<path fill="none" stroke="midnightblue" d="M171.978,-168.075C168.988,-141.945 160.205,-65.2106 156.126,-29.577"/>
<polygon fill="midnightblue" stroke="midnightblue" points="159.595,-29.1052 154.981,-19.5681 152.641,-29.9013 159.595,-29.1052"/>
</g>
<!-- Node4&#45;&gt;Node11 -->
<g id="edge12" class="edge"><title>Node4&#45;&gt;Node11</title>
<path fill="none" stroke="midnightblue" d="M156.13,-168.324C139.291,-159.664 113.193,-146.242 93.762,-136.249"/>
<polygon fill="midnightblue" stroke="midnightblue" points="95.3218,-133.116 84.8282,-131.655 92.1204,-139.341 95.3218,-133.116"/>
</g>
<!-- Node5&#45;&gt;Node6 -->
<g id="edge5" class="edge"><title>Node5&#45;&gt;Node6</title>
<path fill="none" stroke="midnightblue" d="M305.379,-112.324C291.051,-103.822 268.987,-90.7288 252.251,-80.7975"/>
<polygon fill="midnightblue" stroke="midnightblue" points="253.97,-77.7478 243.584,-75.6545 250.398,-83.7677 253.97,-77.7478"/>
</g>
<!-- Node5&#45;&gt;Node8 -->
<g id="edge8" class="edge"><title>Node5&#45;&gt;Node8</title>
<path fill="none" stroke="midnightblue" d="M317.37,-112.092C312.817,-98.1714 302.168,-71.2751 284,-56 269.67,-43.9513 224.133,-29.7825 190.989,-20.6095"/>
<polygon fill="midnightblue" stroke="midnightblue" points="191.716,-17.1803 181.148,-17.9309 189.878,-23.9346 191.716,-17.1803"/>
</g>
<!-- Node9 -->
<g id="node9" class="node"><title>Node9</title>
<polygon fill="none" stroke="#bfbfbf" points="391.5,-56.5 391.5,-75.5 438.5,-75.5 438.5,-56.5 391.5,-56.5"/>
<text text-anchor="middle" x="415" y="-63.5" font-family="FreeSans" font-size="10.00">limits.h</text>
</g>
<!-- Node5&#45;&gt;Node9 -->
<g id="edge9" class="edge"><title>Node5&#45;&gt;Node9</title>
<path fill="none" stroke="midnightblue" d="M335.263,-112.324C350.221,-103.822 373.255,-90.7288 390.727,-80.7975"/>
<polygon fill="midnightblue" stroke="midnightblue" points="392.81,-83.639 399.774,-75.6545 389.351,-77.5534 392.81,-83.639"/>
</g>
<!-- Node10 -->
<g id="node10" class="node"><title>Node10</title>
<polygon fill="none" stroke="#bfbfbf" points="332.5,-56.5 332.5,-75.5 373.5,-75.5 373.5,-56.5 332.5,-56.5"/>
<text text-anchor="middle" x="353" y="-63.5" font-family="FreeSans" font-size="10.00">string</text>
</g>
<!-- Node5&#45;&gt;Node10 -->
<g id="edge10" class="edge"><title>Node5&#45;&gt;Node10</title>
<path fill="none" stroke="midnightblue" d="M325.449,-112.083C330.014,-104.613 336.668,-93.7244 342.293,-84.5199"/>
<polygon fill="midnightblue" stroke="midnightblue" points="345.424,-86.109 347.652,-75.7511 339.451,-82.4588 345.424,-86.109"/>
</g>
<!-- Node7 -->
<g id="node7" class="node"><title>Node7</title>
<polygon fill="none" stroke="#bfbfbf" points="199.5,-0.5 199.5,-19.5 258.5,-19.5 258.5,-0.5 199.5,-0.5"/>
<text text-anchor="middle" x="229" y="-7.5" font-family="FreeSans" font-size="10.00">TObject.h</text>
</g>
<!-- Node6&#45;&gt;Node7 -->
<g id="edge6" class="edge"><title>Node6&#45;&gt;Node7</title>
<path fill="none" stroke="midnightblue" d="M229,-56.083C229,-49.0059 229,-38.8611 229,-29.9865"/>
<polygon fill="midnightblue" stroke="midnightblue" points="232.5,-29.751 229,-19.7511 225.5,-29.7511 232.5,-29.751"/>
</g>
<!-- Node6&#45;&gt;Node8 -->
<g id="edge7" class="edge"><title>Node6&#45;&gt;Node8</title>
<path fill="none" stroke="midnightblue" d="M216.95,-56.324C205.537,-48.1066 188.169,-35.6017 174.565,-25.8069"/>
<polygon fill="midnightblue" stroke="midnightblue" points="176.43,-22.8366 166.269,-19.8339 172.34,-28.5174 176.43,-22.8366"/>
</g>
</g>
</svg>
