<?xml version="1.0" encoding="UTF-8" standalone="no"?>
<!DOCTYPE svg PUBLIC "-//W3C//DTD SVG 1.1//EN"
 "http://www.w3.org/Graphics/SVG/1.1/DTD/svg11.dtd">
<!-- Generated by graphviz version 2.36.0 (20140111.2315)
 -->
<!-- Title: fun4all/ffaobjects/EventHeaderv1.cc Pages: 1 -->
<svg width="200pt" height="264pt"
 viewBox="0.00 0.00 200.00 264.00" xmlns="http://www.w3.org/2000/svg" xmlns:xlink="http://www.w3.org/1999/xlink">
<g id="graph0" class="graph" transform="scale(1 1) rotate(0) translate(4 260)">
<title>fun4all/ffaobjects/EventHeaderv1.cc</title>
<!-- Node1 -->
<g id="node1" class="node"><title>Node1</title>
<polygon fill="#bfbfbf" stroke="black" points="93.5,-225 93.5,-255 192.5,-255 192.5,-225 93.5,-225"/>
<text text-anchor="start" x="101.5" y="-243" font-family="FreeSans" font-size="10.00">fun4all/ffaobjects</text>
<text text-anchor="middle" x="143" y="-232" font-family="FreeSans" font-size="10.00">/EventHeaderv1.cc</text>
</g>
<!-- Node2 -->
<g id="node2" class="node"><title>Node2</title>
<g id="a_node2"><a xlink:href="../../d0/db4/EventHeaderv1_8h.html" target="_top" xlink:title="EventHeaderv1.h">
<polygon fill="none" stroke="black" points="60.5,-168.5 60.5,-187.5 151.5,-187.5 151.5,-168.5 60.5,-168.5"/>
<text text-anchor="middle" x="106" y="-175.5" font-family="FreeSans" font-size="10.00">EventHeaderv1.h</text>
</a>
</g>
</g>
<!-- Node1&#45;&gt;Node2 -->
<g id="edge1" class="edge"><title>Node1&#45;&gt;Node2</title>
<path fill="none" stroke="midnightblue" d="M134.232,-224.781C128.966,-216.242 122.23,-205.318 116.658,-196.283"/>
<polygon fill="midnightblue" stroke="midnightblue" points="119.612,-194.405 111.384,-187.731 113.654,-198.079 119.612,-194.405"/>
</g>
<!-- Node6 -->
<g id="node6" class="node"><title>Node6</title>
<polygon fill="none" stroke="#bfbfbf" points="123,-0.5 123,-19.5 177,-19.5 177,-0.5 123,-0.5"/>
<text text-anchor="middle" x="150" y="-7.5" font-family="FreeSans" font-size="10.00">iostream</text>
</g>
<!-- Node1&#45;&gt;Node6 -->
<g id="edge7" class="edge"><title>Node1&#45;&gt;Node6</title>
<path fill="none" stroke="midnightblue" d="M149.191,-224.586C153.158,-214.54 157.937,-200.713 160,-188 169.397,-130.091 166.402,-114.316 160,-56 159.027,-47.1398 157.008,-37.4716 155.037,-29.3755"/>
<polygon fill="midnightblue" stroke="midnightblue" points="158.383,-28.333 152.482,-19.5332 151.607,-30.0919 158.383,-28.333"/>
</g>
<!-- Node3 -->
<g id="node3" class="node"><title>Node3</title>
<g id="a_node3"><a xlink:href="../../d5/d61/EventHeader_8h.html" target="_top" xlink:title="EventHeader.h">
<polygon fill="none" stroke="black" points="66,-112.5 66,-131.5 146,-131.5 146,-112.5 66,-112.5"/>
<text text-anchor="middle" x="106" y="-119.5" font-family="FreeSans" font-size="10.00">EventHeader.h</text>
</a>
</g>
</g>
<!-- Node2&#45;&gt;Node3 -->
<g id="edge2" class="edge"><title>Node2&#45;&gt;Node3</title>
<path fill="none" stroke="midnightblue" d="M106,-168.083C106,-161.006 106,-150.861 106,-141.986"/>
<polygon fill="midnightblue" stroke="midnightblue" points="109.5,-141.751 106,-131.751 102.5,-141.751 109.5,-141.751"/>
</g>
<!-- Node4 -->
<g id="node4" class="node"><title>Node4</title>
<g id="a_node4"><a xlink:href="../../df/d32/PHObject_8h.html" target="_top" xlink:title="phool/PHObject.h">
<polygon fill="none" stroke="black" points="-0.5,-56.5 -0.5,-75.5 92.5,-75.5 92.5,-56.5 -0.5,-56.5"/>
<text text-anchor="middle" x="46" y="-63.5" font-family="FreeSans" font-size="10.00">phool/PHObject.h</text>
</a>
</g>
</g>
<!-- Node3&#45;&gt;Node4 -->
<g id="edge3" class="edge"><title>Node3&#45;&gt;Node4</title>
<path fill="none" stroke="midnightblue" d="M96.36,-112.324C87.4904,-104.341 74.1253,-92.3128 63.3921,-82.6529"/>
<polygon fill="midnightblue" stroke="midnightblue" points="65.5898,-79.922 55.8154,-75.8339 60.907,-85.1251 65.5898,-79.922"/>
</g>
<!-- Node7 -->
<g id="node7" class="node"><title>Node7</title>
<polygon fill="none" stroke="#bfbfbf" points="110.5,-56.5 110.5,-75.5 151.5,-75.5 151.5,-56.5 110.5,-56.5"/>
<text text-anchor="middle" x="131" y="-63.5" font-family="FreeSans" font-size="10.00">ctime</text>
</g>
<!-- Node3&#45;&gt;Node7 -->
<g id="edge6" class="edge"><title>Node3&#45;&gt;Node7</title>
<path fill="none" stroke="midnightblue" d="M110.128,-112.083C113.514,-104.77 118.416,-94.1814 122.619,-85.1034"/>
<polygon fill="midnightblue" stroke="midnightblue" points="125.923,-86.2962 126.949,-75.7511 119.571,-83.3553 125.923,-86.2962"/>
</g>
<!-- Node5 -->
<g id="node5" class="node"><title>Node5</title>
<polygon fill="none" stroke="#bfbfbf" points="16.5,-0.5 16.5,-19.5 75.5,-19.5 75.5,-0.5 16.5,-0.5"/>
<text text-anchor="middle" x="46" y="-7.5" font-family="FreeSans" font-size="10.00">TObject.h</text>
</g>
<!-- Node4&#45;&gt;Node5 -->
<g id="edge4" class="edge"><title>Node4&#45;&gt;Node5</title>
<path fill="none" stroke="midnightblue" d="M46,-56.083C46,-49.0059 46,-38.8611 46,-29.9865"/>
<polygon fill="midnightblue" stroke="midnightblue" points="49.5001,-29.751 46,-19.7511 42.5001,-29.7511 49.5001,-29.751"/>
</g>
<!-- Node4&#45;&gt;Node6 -->
<g id="edge5" class="edge"><title>Node4&#45;&gt;Node6</title>
<path fill="none" stroke="midnightblue" d="M62.7094,-56.324C79.3119,-47.7034 105.002,-34.3643 124.22,-24.3855"/>
<polygon fill="midnightblue" stroke="midnightblue" points="126.07,-27.3689 133.332,-19.6545 122.844,-21.1565 126.07,-27.3689"/>
</g>
</g>
</svg>
