<?xml version="1.0" encoding="UTF-8" standalone="no"?>
<!DOCTYPE svg PUBLIC "-//W3C//DTD SVG 1.1//EN"
 "http://www.w3.org/Graphics/SVG/1.1/DTD/svg11.dtd">
<!-- Generated by graphviz version 2.36.0 (20140111.2315)
 -->
<!-- Title: SyncObject Pages: 1 -->
<svg width="74pt" height="140pt"
 viewBox="0.00 0.00 74.00 140.00" xmlns="http://www.w3.org/2000/svg" xmlns:xlink="http://www.w3.org/1999/xlink">
<g id="graph0" class="graph" transform="scale(1 1) rotate(0) translate(4 136)">
<title>SyncObject</title>
<!-- Node1 -->
<g id="node1" class="node"><title>Node1</title>
<polygon fill="#bfbfbf" stroke="black" points="-0.5,-0.5 -0.5,-19.5 66.5,-19.5 66.5,-0.5 -0.5,-0.5"/>
<text text-anchor="middle" x="33" y="-7.5" font-family="FreeSans" font-size="10.00">SyncObject</text>
</g>
<!-- Node2 -->
<g id="node2" class="node"><title>Node2</title>
<g id="a_node2"><a xlink:href="../../d9/d24/classPHObject.html" target="_top" xlink:title="PHObject">
<polygon fill="none" stroke="black" points="3.5,-56.5 3.5,-75.5 62.5,-75.5 62.5,-56.5 3.5,-56.5"/>
<text text-anchor="middle" x="33" y="-63.5" font-family="FreeSans" font-size="10.00">PHObject</text>
</a>
</g>
</g>
<!-- Node2&#45;&gt;Node1 -->
<g id="edge1" class="edge"><title>Node2&#45;&gt;Node1</title>
<path fill="none" stroke="midnightblue" d="M26.5276,-46.1005C25.8956,-37.1357 26.3427,-26.8579 27.869,-19.7511"/>
<polygon fill="midnightblue" stroke="midnightblue" points="23.0658,-46.6216 27.8337,-56.083 30.0067,-45.7134 23.0658,-46.6216"/>
</g>
<!-- Node2&#45;&gt;Node1 -->
<g id="edge3" class="edge"><title>Node2&#45;&gt;Node1</title>
<path fill="none" stroke="midnightblue" d="M39.4724,-46.1005C40.1044,-37.1357 39.6573,-26.8579 38.131,-19.7511"/>
<polygon fill="midnightblue" stroke="midnightblue" points="35.9933,-45.7134 38.1663,-56.083 42.9342,-46.6216 35.9933,-45.7134"/>
</g>
<!-- Node3 -->
<g id="node3" class="node"><title>Node3</title>
<polygon fill="none" stroke="#bfbfbf" points="7.5,-112.5 7.5,-131.5 58.5,-131.5 58.5,-112.5 7.5,-112.5"/>
<text text-anchor="middle" x="33" y="-119.5" font-family="FreeSans" font-size="10.00">TObject</text>
</g>
<!-- Node3&#45;&gt;Node2 -->
<g id="edge2" class="edge"><title>Node3&#45;&gt;Node2</title>
<path fill="none" stroke="midnightblue" d="M33,-101.805C33,-92.9102 33,-82.7798 33,-75.7511"/>
<polygon fill="midnightblue" stroke="midnightblue" points="29.5001,-102.083 33,-112.083 36.5001,-102.083 29.5001,-102.083"/>
</g>
</g>
</svg>
