<?xml version="1.0" encoding="UTF-8" standalone="no"?>
<!DOCTYPE svg PUBLIC "-//W3C//DTD SVG 1.1//EN"
 "http://www.w3.org/Graphics/SVG/1.1/DTD/svg11.dtd">
<!-- Generated by graphviz version 2.36.0 (20140111.2315)
 -->
<!-- Title: fun4all/ffaobjects/SyncObject.h Pages: 1 -->
<svg width="156pt" height="152pt"
 viewBox="0.00 0.00 156.00 152.00" xmlns="http://www.w3.org/2000/svg" xmlns:xlink="http://www.w3.org/1999/xlink">
<g id="graph0" class="graph" transform="scale(1 1) rotate(0) translate(4 148)">
<title>fun4all/ffaobjects/SyncObject.h</title>
<!-- Node1 -->
<g id="node1" class="node"><title>Node1</title>
<polygon fill="#bfbfbf" stroke="black" points="38,-113 38,-143 128,-143 128,-113 38,-113"/>
<text text-anchor="start" x="46" y="-131" font-family="FreeSans" font-size="10.00">fun4all/ffaobjects</text>
<text text-anchor="middle" x="83" y="-120" font-family="FreeSans" font-size="10.00">/SyncObject.h</text>
</g>
<!-- Node2 -->
<g id="node2" class="node"><title>Node2</title>
<g id="a_node2"><a xlink:href="../../df/d32/PHObject_8h.html" target="_top" xlink:title="phool/PHObject.h">
<polygon fill="none" stroke="black" points="-0.5,-56.5 -0.5,-75.5 92.5,-75.5 92.5,-56.5 -0.5,-56.5"/>
<text text-anchor="middle" x="46" y="-63.5" font-family="FreeSans" font-size="10.00">phool/PHObject.h</text>
</a>
</g>
</g>
<!-- Node1&#45;&gt;Node2 -->
<g id="edge1" class="edge"><title>Node1&#45;&gt;Node2</title>
<path fill="none" stroke="midnightblue" d="M74.2315,-112.781C68.9658,-104.242 62.2297,-93.3184 56.6581,-84.2834"/>
<polygon fill="midnightblue" stroke="midnightblue" points="59.6119,-82.4051 51.3838,-75.7305 53.6537,-86.0794 59.6119,-82.4051"/>
</g>
<!-- Node4 -->
<g id="node4" class="node"><title>Node4</title>
<polygon fill="none" stroke="#bfbfbf" points="94,-0.5 94,-19.5 148,-19.5 148,-0.5 94,-0.5"/>
<text text-anchor="middle" x="121" y="-7.5" font-family="FreeSans" font-size="10.00">iostream</text>
</g>
<!-- Node1&#45;&gt;Node4 -->
<g id="edge4" class="edge"><title>Node1&#45;&gt;Node4</title>
<path fill="none" stroke="midnightblue" d="M88.1995,-112.764C91.8818,-102.565 96.8787,-88.4825 101,-76 106.148,-60.4089 111.604,-42.5762 115.515,-29.5378"/>
<polygon fill="midnightblue" stroke="midnightblue" points="118.895,-30.4507 118.396,-19.8676 112.187,-28.452 118.895,-30.4507"/>
</g>
<!-- Node3 -->
<g id="node3" class="node"><title>Node3</title>
<polygon fill="none" stroke="#bfbfbf" points="16.5,-0.5 16.5,-19.5 75.5,-19.5 75.5,-0.5 16.5,-0.5"/>
<text text-anchor="middle" x="46" y="-7.5" font-family="FreeSans" font-size="10.00">TObject.h</text>
</g>
<!-- Node2&#45;&gt;Node3 -->
<g id="edge2" class="edge"><title>Node2&#45;&gt;Node3</title>
<path fill="none" stroke="midnightblue" d="M46,-56.083C46,-49.0059 46,-38.8611 46,-29.9865"/>
<polygon fill="midnightblue" stroke="midnightblue" points="49.5001,-29.751 46,-19.7511 42.5001,-29.7511 49.5001,-29.751"/>
</g>
<!-- Node2&#45;&gt;Node4 -->
<g id="edge3" class="edge"><title>Node2&#45;&gt;Node4</title>
<path fill="none" stroke="midnightblue" d="M58.05,-56.324C69.4631,-48.1066 86.831,-35.6017 100.435,-25.8069"/>
<polygon fill="midnightblue" stroke="midnightblue" points="102.66,-28.5174 108.731,-19.8339 98.5703,-22.8366 102.66,-28.5174"/>
</g>
</g>
</svg>
