<?xml version="1.0" encoding="UTF-8" standalone="no"?>
<!DOCTYPE svg PUBLIC "-//W3C//DTD SVG 1.1//EN"
 "http://www.w3.org/Graphics/SVG/1.1/DTD/svg11.dtd">
<!-- Generated by graphviz version 2.36.0 (20140111.2315)
 -->
<!-- Title: fun4all/phool/PHTimer.cc Pages: 1 -->
<svg width="409pt" height="140pt"
 viewBox="0.00 0.00 409.00 140.00" xmlns="http://www.w3.org/2000/svg" xmlns:xlink="http://www.w3.org/1999/xlink">
<g id="graph0" class="graph" transform="scale(1 1) rotate(0) translate(4 136)">
<title>fun4all/phool/PHTimer.cc</title>
<!-- Node1 -->
<g id="node1" class="node"><title>Node1</title>
<polygon fill="#bfbfbf" stroke="black" points="170,-112.5 170,-131.5 296,-131.5 296,-112.5 170,-112.5"/>
<text text-anchor="middle" x="233" y="-119.5" font-family="FreeSans" font-size="10.00">fun4all/phool/PHTimer.cc</text>
</g>
<!-- Node2 -->
<g id="node2" class="node"><title>Node2</title>
<g id="a_node2"><a xlink:href="../../dc/d26/PHTimer_8h.html" target="_top" xlink:title="high precision timer ">
<polygon fill="none" stroke="black" points="66.5,-56.5 66.5,-75.5 129.5,-75.5 129.5,-56.5 66.5,-56.5"/>
<text text-anchor="middle" x="98" y="-63.5" font-family="FreeSans" font-size="10.00">PHTimer.h</text>
</a>
</g>
</g>
<!-- Node1&#45;&gt;Node2 -->
<g id="edge1" class="edge"><title>Node1&#45;&gt;Node2</title>
<path fill="none" stroke="midnightblue" d="M211.609,-112.444C189.293,-103.517 154.097,-89.4387 128.792,-79.3168"/>
<polygon fill="midnightblue" stroke="midnightblue" points="129.876,-75.9807 119.291,-75.5164 127.276,-82.4801 129.876,-75.9807"/>
</g>
<!-- Node6 -->
<g id="node6" class="node"><title>Node6</title>
<polygon fill="none" stroke="#bfbfbf" points="148,-56.5 148,-75.5 192,-75.5 192,-56.5 148,-56.5"/>
<text text-anchor="middle" x="170" y="-63.5" font-family="FreeSans" font-size="10.00">cmath</text>
</g>
<!-- Node1&#45;&gt;Node6 -->
<g id="edge5" class="edge"><title>Node1&#45;&gt;Node6</title>
<path fill="none" stroke="midnightblue" d="M222.878,-112.324C213.474,-104.263 199.256,-92.0765 187.931,-82.3695"/>
<polygon fill="midnightblue" stroke="midnightblue" points="190.177,-79.6844 180.306,-75.8339 185.621,-84.9993 190.177,-79.6844"/>
</g>
<!-- Node7 -->
<g id="node7" class="node"><title>Node7</title>
<polygon fill="none" stroke="#bfbfbf" points="210.5,-56.5 210.5,-75.5 255.5,-75.5 255.5,-56.5 210.5,-56.5"/>
<text text-anchor="middle" x="233" y="-63.5" font-family="FreeSans" font-size="10.00">climits</text>
</g>
<!-- Node1&#45;&gt;Node7 -->
<g id="edge6" class="edge"><title>Node1&#45;&gt;Node7</title>
<path fill="none" stroke="midnightblue" d="M233,-112.083C233,-105.006 233,-94.8611 233,-85.9865"/>
<polygon fill="midnightblue" stroke="midnightblue" points="236.5,-85.751 233,-75.7511 229.5,-85.7511 236.5,-85.751"/>
</g>
<!-- Node8 -->
<g id="node8" class="node"><title>Node8</title>
<polygon fill="none" stroke="#bfbfbf" points="273.5,-56.5 273.5,-75.5 332.5,-75.5 332.5,-56.5 273.5,-56.5"/>
<text text-anchor="middle" x="303" y="-63.5" font-family="FreeSans" font-size="10.00">stdexcept</text>
</g>
<!-- Node1&#45;&gt;Node8 -->
<g id="edge7" class="edge"><title>Node1&#45;&gt;Node8</title>
<path fill="none" stroke="midnightblue" d="M244.247,-112.324C254.797,-104.185 270.801,-91.8395 283.442,-82.0874"/>
<polygon fill="midnightblue" stroke="midnightblue" points="285.769,-84.7132 291.549,-75.8339 281.493,-79.1707 285.769,-84.7132"/>
</g>
<!-- Node9 -->
<g id="node9" class="node"><title>Node9</title>
<polygon fill="none" stroke="#bfbfbf" points="351,-56.5 351,-75.5 401,-75.5 401,-56.5 351,-56.5"/>
<text text-anchor="middle" x="376" y="-63.5" font-family="FreeSans" font-size="10.00">fstream</text>
</g>
<!-- Node1&#45;&gt;Node9 -->
<g id="edge8" class="edge"><title>Node1&#45;&gt;Node9</title>
<path fill="none" stroke="midnightblue" d="M255.659,-112.444C279.402,-103.478 316.909,-89.314 343.738,-79.1827"/>
<polygon fill="midnightblue" stroke="midnightblue" points="345.329,-82.3235 353.447,-75.5164 342.856,-75.7749 345.329,-82.3235"/>
</g>
<!-- Node3 -->
<g id="node3" class="node"><title>Node3</title>
<polygon fill="none" stroke="#bfbfbf" points="0,-0.5 0,-19.5 54,-19.5 54,-0.5 0,-0.5"/>
<text text-anchor="middle" x="27" y="-7.5" font-family="FreeSans" font-size="10.00">iostream</text>
</g>
<!-- Node2&#45;&gt;Node3 -->
<g id="edge2" class="edge"><title>Node2&#45;&gt;Node3</title>
<path fill="none" stroke="midnightblue" d="M86.5926,-56.324C75.8912,-48.1849 59.6593,-35.8395 46.8372,-26.0874"/>
<polygon fill="midnightblue" stroke="midnightblue" points="48.6932,-23.1018 38.6149,-19.8339 44.4556,-28.6734 48.6932,-23.1018"/>
</g>
<!-- Node4 -->
<g id="node4" class="node"><title>Node4</title>
<polygon fill="none" stroke="#bfbfbf" points="72,-0.5 72,-19.5 124,-19.5 124,-0.5 72,-0.5"/>
<text text-anchor="middle" x="98" y="-7.5" font-family="FreeSans" font-size="10.00">sstream</text>
</g>
<!-- Node2&#45;&gt;Node4 -->
<g id="edge3" class="edge"><title>Node2&#45;&gt;Node4</title>
<path fill="none" stroke="midnightblue" d="M98,-56.083C98,-49.0059 98,-38.8611 98,-29.9865"/>
<polygon fill="midnightblue" stroke="midnightblue" points="101.5,-29.751 98,-19.7511 94.5001,-29.7511 101.5,-29.751"/>
</g>
<!-- Node5 -->
<g id="node5" class="node"><title>Node5</title>
<polygon fill="none" stroke="#bfbfbf" points="142,-0.5 142,-19.5 192,-19.5 192,-0.5 142,-0.5"/>
<text text-anchor="middle" x="167" y="-7.5" font-family="FreeSans" font-size="10.00">unistd.h</text>
</g>
<!-- Node2&#45;&gt;Node5 -->
<g id="edge4" class="edge"><title>Node2&#45;&gt;Node5</title>
<path fill="none" stroke="midnightblue" d="M109.086,-56.324C119.486,-48.1849 135.261,-35.8395 147.722,-26.0874"/>
<polygon fill="midnightblue" stroke="midnightblue" points="149.994,-28.7533 155.712,-19.8339 145.68,-23.2407 149.994,-28.7533"/>
</g>
</g>
</svg>
