<?xml version="1.0" encoding="UTF-8" standalone="no"?>
<!DOCTYPE svg PUBLIC "-//W3C//DTD SVG 1.1//EN"
 "http://www.w3.org/Graphics/SVG/1.1/DTD/svg11.dtd">
<!-- Generated by graphviz version 2.36.0 (20140111.2315)
 -->
<!-- Title: SyncObject::EventCounter Pages: 1 -->
<svg width="320pt" height="192pt"
 viewBox="0.00 0.00 320.00 192.00" xmlns="http://www.w3.org/2000/svg" xmlns:xlink="http://www.w3.org/1999/xlink">
<g id="graph0" class="graph" transform="scale(1 1) rotate(0) translate(4 188)">
<title>SyncObject::EventCounter</title>
<!-- Node1 -->
<g id="node1" class="node"><title>Node1</title>
<polygon fill="#bfbfbf" stroke="black" points="0,-82.5 0,-101.5 130,-101.5 130,-82.5 0,-82.5"/>
<text text-anchor="middle" x="65" y="-89.5" font-family="FreeSans" font-size="10.00">SyncObject::EventCounter</text>
</g>
<!-- Node2 -->
<g id="node2" class="node"><title>Node2</title>
<g id="a_node2"><a xlink:href="../../de/dbb/classSyncObject.html#ac50302647ba257a27e4ab9d8f051e80b" target="_top" xlink:title="SyncObject::operator=">
<polygon fill="none" stroke="black" points="182.5,-164.5 182.5,-183.5 295.5,-183.5 295.5,-164.5 182.5,-164.5"/>
<text text-anchor="middle" x="239" y="-171.5" font-family="FreeSans" font-size="10.00">SyncObject::operator=</text>
</a>
</g>
</g>
<!-- Node1&#45;&gt;Node2 -->
<g id="edge1" class="edge"><title>Node1&#45;&gt;Node2</title>
<path fill="none" stroke="midnightblue" d="M86.7085,-107.698C106.237,-121.839 136.79,-142.301 166,-155 174.536,-158.711 183.966,-161.838 193.112,-164.415"/>
<polygon fill="midnightblue" stroke="midnightblue" points="88.6844,-104.806 78.5564,-101.696 84.5341,-110.443 88.6844,-104.806"/>
</g>
<!-- Node3 -->
<g id="node3" class="node"><title>Node3</title>
<g id="a_node3"><a xlink:href="../../da/dd8/classFun4AllPrdfInputManager.html#ac3f313ef5571ce32cd40799791e2ea56" target="_top" xlink:title="Fun4AllPrdfInputManager::run">
<polygon fill="none" stroke="black" points="166.5,-126.5 166.5,-145.5 311.5,-145.5 311.5,-126.5 166.5,-126.5"/>
<text text-anchor="middle" x="239" y="-133.5" font-family="FreeSans" font-size="10.00">Fun4AllPrdfInputManager::run</text>
</a>
</g>
</g>
<!-- Node1&#45;&gt;Node3 -->
<g id="edge2" class="edge"><title>Node1&#45;&gt;Node3</title>
<path fill="none" stroke="midnightblue" d="M113.15,-104.062C140.736,-111.118 175.073,-119.902 200.751,-126.471"/>
<polygon fill="midnightblue" stroke="midnightblue" points="113.877,-100.635 103.321,-101.547 112.142,-107.417 113.877,-100.635"/>
</g>
<!-- Node4 -->
<g id="node4" class="node"><title>Node4</title>
<g id="a_node4"><a xlink:href="../../d7/d0b/classFun4AllDstInputManager.html#a0244c2edbaa2350038304b09f352c2d0" target="_top" xlink:title="Fun4AllDstInputManager\l::SyncIt">
<polygon fill="none" stroke="black" points="177,-77 177,-107 301,-107 301,-77 177,-77"/>
<text text-anchor="start" x="185" y="-95" font-family="FreeSans" font-size="10.00">Fun4AllDstInputManager</text>
<text text-anchor="middle" x="239" y="-84" font-family="FreeSans" font-size="10.00">::SyncIt</text>
</a>
</g>
</g>
<!-- Node1&#45;&gt;Node4 -->
<g id="edge3" class="edge"><title>Node1&#45;&gt;Node4</title>
<path fill="none" stroke="midnightblue" d="M140.195,-92C152.394,-92 164.916,-92 176.754,-92"/>
<polygon fill="midnightblue" stroke="midnightblue" points="140.046,-88.5001 130.046,-92 140.046,-95.5001 140.046,-88.5001"/>
</g>
<!-- Node5 -->
<g id="node5" class="node"><title>Node5</title>
<g id="a_node5"><a xlink:href="../../d9/d30/classSyncObjectv1.html#a2245d3fdc81016f61743942040ed6e73" target="_top" xlink:title="SyncObjectv1::SyncObjectv1">
<polygon fill="none" stroke="black" points="167.5,-38.5 167.5,-57.5 310.5,-57.5 310.5,-38.5 167.5,-38.5"/>
<text text-anchor="middle" x="239" y="-45.5" font-family="FreeSans" font-size="10.00">SyncObjectv1::SyncObjectv1</text>
</a>
</g>
</g>
<!-- Node1&#45;&gt;Node5 -->
<g id="edge4" class="edge"><title>Node1&#45;&gt;Node5</title>
<path fill="none" stroke="midnightblue" d="M113.15,-79.9383C140.736,-72.8815 175.073,-64.0976 200.751,-57.5287"/>
<polygon fill="midnightblue" stroke="midnightblue" points="112.142,-76.5834 103.321,-82.4527 113.877,-83.3651 112.142,-76.5834"/>
</g>
<!-- Node6 -->
<g id="node6" class="node"><title>Node6</title>
<g id="a_node6"><a xlink:href="../../df/da3/classSyncObjectv2.html#afea1066fd155ae592e1515c8c49fb2cc" target="_top" xlink:title="SyncObjectv2::SyncObjectv2">
<polygon fill="none" stroke="black" points="167.5,-0.5 167.5,-19.5 310.5,-19.5 310.5,-0.5 167.5,-0.5"/>
<text text-anchor="middle" x="239" y="-7.5" font-family="FreeSans" font-size="10.00">SyncObjectv2::SyncObjectv2</text>
</a>
</g>
</g>
<!-- Node1&#45;&gt;Node6 -->
<g id="edge5" class="edge"><title>Node1&#45;&gt;Node6</title>
<path fill="none" stroke="midnightblue" d="M86.7085,-76.3023C106.237,-62.1607 136.79,-41.699 166,-29 174.536,-25.2889 183.966,-22.1623 193.112,-19.5851"/>
<polygon fill="midnightblue" stroke="midnightblue" points="84.5341,-73.5569 78.5564,-82.3044 88.6844,-79.1938 84.5341,-73.5569"/>
</g>
</g>
</svg>
