<?xml version="1.0" encoding="UTF-8" standalone="no"?>
<!DOCTYPE svg PUBLIC "-//W3C//DTD SVG 1.1//EN"
 "http://www.w3.org/Graphics/SVG/1.1/DTD/svg11.dtd">
<!-- Generated by graphviz version 2.36.0 (20140111.2315)
 -->
<!-- Title: SyncObject::Different Pages: 1 -->
<svg width="284pt" height="66pt"
 viewBox="0.00 0.00 284.00 66.00" xmlns="http://www.w3.org/2000/svg" xmlns:xlink="http://www.w3.org/1999/xlink">
<g id="graph0" class="graph" transform="scale(1 1) rotate(0) translate(4 62)">
<title>SyncObject::Different</title>
<!-- Node1 -->
<g id="node1" class="node"><title>Node1</title>
<polygon fill="#bfbfbf" stroke="black" points="0.5,-19.5 0.5,-38.5 107.5,-38.5 107.5,-19.5 0.5,-19.5"/>
<text text-anchor="middle" x="54" y="-26.5" font-family="FreeSans" font-size="10.00">SyncObject::Different</text>
</g>
<!-- Node2 -->
<g id="node2" class="node"><title>Node2</title>
<g id="a_node2"><a xlink:href="../../de/dbb/classSyncObject.html#aa650d97c0d3ace8ae7945f54224228ef" target="_top" xlink:title="set Event Number ">
<polygon fill="none" stroke="black" points="144.5,-38.5 144.5,-57.5 275.5,-57.5 275.5,-38.5 144.5,-38.5"/>
<text text-anchor="middle" x="210" y="-45.5" font-family="FreeSans" font-size="10.00">SyncObject::EventNumber</text>
</a>
</g>
</g>
<!-- Node1&#45;&gt;Node2 -->
<g id="edge1" class="edge"><title>Node1&#45;&gt;Node2</title>
<path fill="none" stroke="midnightblue" d="M107.567,-35.4856C116.177,-36.5478 125.242,-37.6662 134.265,-38.7794"/>
<polygon fill="midnightblue" stroke="midnightblue" points="134.055,-42.28 144.408,-40.0309 134.912,-35.3327 134.055,-42.28"/>
</g>
<!-- Node3 -->
<g id="node3" class="node"><title>Node3</title>
<g id="a_node3"><a xlink:href="../../de/dbb/classSyncObject.html#af1188def459d0ff933d71e37c7afc0c5" target="_top" xlink:title="set Run Number ">
<polygon fill="none" stroke="black" points="148.5,-0.5 148.5,-19.5 271.5,-19.5 271.5,-0.5 148.5,-0.5"/>
<text text-anchor="middle" x="210" y="-7.5" font-family="FreeSans" font-size="10.00">SyncObject::RunNumber</text>
</a>
</g>
</g>
<!-- Node1&#45;&gt;Node3 -->
<g id="edge2" class="edge"><title>Node1&#45;&gt;Node3</title>
<path fill="none" stroke="midnightblue" d="M107.567,-22.5144C117.435,-21.2969 127.9,-20.0058 138.216,-18.7331"/>
<polygon fill="midnightblue" stroke="midnightblue" points="138.958,-22.1682 148.454,-17.47 138.1,-15.2209 138.958,-22.1682"/>
</g>
</g>
</svg>
