<?xml version="1.0" encoding="UTF-8" standalone="no"?>
<!DOCTYPE svg PUBLIC "-//W3C//DTD SVG 1.1//EN"
 "http://www.w3.org/Graphics/SVG/1.1/DTD/svg11.dtd">
<!-- Generated by graphviz version 2.36.0 (20140111.2315)
 -->
<!-- Title: SyncObject::EventNumber Pages: 1 -->
<svg width="486pt" height="223pt"
 viewBox="0.00 0.00 486.00 223.00" xmlns="http://www.w3.org/2000/svg" xmlns:xlink="http://www.w3.org/1999/xlink">
<g id="graph0" class="graph" transform="scale(1 1) rotate(0) translate(4 219)">
<title>SyncObject::EventNumber</title>
<!-- Node1 -->
<g id="node1" class="node"><title>Node1</title>
<polygon fill="#bfbfbf" stroke="black" points="0.5,-95.5 0.5,-114.5 131.5,-114.5 131.5,-95.5 0.5,-95.5"/>
<text text-anchor="middle" x="66" y="-102.5" font-family="FreeSans" font-size="10.00">SyncObject::EventNumber</text>
</g>
<!-- Node2 -->
<g id="node2" class="node"><title>Node2</title>
<g id="a_node2"><a xlink:href="../../de/dbb/classSyncObject.html#ab8b7f5a87277828d6ea97d2ed3dd546d" target="_top" xlink:title="SyncObject::Different">
<polygon fill="none" stroke="black" points="187.5,-152.5 187.5,-171.5 294.5,-171.5 294.5,-152.5 187.5,-152.5"/>
<text text-anchor="middle" x="241" y="-159.5" font-family="FreeSans" font-size="10.00">SyncObject::Different</text>
</a>
</g>
</g>
<!-- Node1&#45;&gt;Node2 -->
<g id="edge1" class="edge"><title>Node1&#45;&gt;Node2</title>
<path fill="none" stroke="midnightblue" d="M99.8291,-118.321C119.441,-126.034 144.945,-135.642 168,-143 178.592,-146.38 190.193,-149.634 200.929,-152.464"/>
<polygon fill="midnightblue" stroke="midnightblue" points="101.02,-115.028 90.4338,-114.593 98.4383,-121.534 101.02,-115.028"/>
</g>
<!-- Node3 -->
<g id="node3" class="node"><title>Node3</title>
<g id="a_node3"><a xlink:href="../../d7/d0b/classFun4AllDstInputManager.html#a0244c2edbaa2350038304b09f352c2d0" target="_top" xlink:title="Fun4AllDstInputManager\l::SyncIt">
<polygon fill="none" stroke="black" points="352,-185 352,-215 476,-215 476,-185 352,-185"/>
<text text-anchor="start" x="360" y="-203" font-family="FreeSans" font-size="10.00">Fun4AllDstInputManager</text>
<text text-anchor="middle" x="414" y="-192" font-family="FreeSans" font-size="10.00">::SyncIt</text>
</a>
</g>
</g>
<!-- Node1&#45;&gt;Node3 -->
<g id="edge6" class="edge"><title>Node1&#45;&gt;Node3</title>
<path fill="none" stroke="midnightblue" d="M82.9535,-121.719C101.475,-139.907 133.872,-168.106 168,-181 227.564,-203.504 300.951,-206.226 351.797,-204.583"/>
<polygon fill="midnightblue" stroke="midnightblue" points="85.4287,-119.245 75.9007,-114.611 80.4597,-124.175 85.4287,-119.245"/>
</g>
<!-- Node5 -->
<g id="node5" class="node"><title>Node5</title>
<g id="a_node5"><a xlink:href="../../de/dbb/classSyncObject.html#ac50302647ba257a27e4ab9d8f051e80b" target="_top" xlink:title="SyncObject::operator=">
<polygon fill="none" stroke="black" points="184.5,-114.5 184.5,-133.5 297.5,-133.5 297.5,-114.5 184.5,-114.5"/>
<text text-anchor="middle" x="241" y="-121.5" font-family="FreeSans" font-size="10.00">SyncObject::operator=</text>
</a>
</g>
</g>
<!-- Node1&#45;&gt;Node5 -->
<g id="edge4" class="edge"><title>Node1&#45;&gt;Node5</title>
<path fill="none" stroke="midnightblue" d="M142.141,-113.252C156.321,-114.81 170.916,-116.413 184.365,-117.89"/>
<polygon fill="midnightblue" stroke="midnightblue" points="142.233,-109.742 131.911,-112.129 141.469,-116.7 142.233,-109.742"/>
</g>
<!-- Node6 -->
<g id="node6" class="node"><title>Node6</title>
<g id="a_node6"><a xlink:href="../../da/dd8/classFun4AllPrdfInputManager.html#ac3f313ef5571ce32cd40799791e2ea56" target="_top" xlink:title="Fun4AllPrdfInputManager::run">
<polygon fill="none" stroke="black" points="168.5,-76.5 168.5,-95.5 313.5,-95.5 313.5,-76.5 168.5,-76.5"/>
<text text-anchor="middle" x="241" y="-83.5" font-family="FreeSans" font-size="10.00">Fun4AllPrdfInputManager::run</text>
</a>
</g>
</g>
<!-- Node1&#45;&gt;Node6 -->
<g id="edge5" class="edge"><title>Node1&#45;&gt;Node6</title>
<path fill="none" stroke="midnightblue" d="M142.058,-96.7566C150.783,-95.7984 159.665,-94.8229 168.342,-93.8699"/>
<polygon fill="midnightblue" stroke="midnightblue" points="141.469,-93.3002 131.911,-97.871 142.233,-100.258 141.469,-93.3002"/>
</g>
<!-- Node7 -->
<g id="node7" class="node"><title>Node7</title>
<g id="a_node7"><a xlink:href="../../d9/d30/classSyncObjectv1.html#a2245d3fdc81016f61743942040ed6e73" target="_top" xlink:title="SyncObjectv1::SyncObjectv1">
<polygon fill="none" stroke="black" points="169.5,-38.5 169.5,-57.5 312.5,-57.5 312.5,-38.5 169.5,-38.5"/>
<text text-anchor="middle" x="241" y="-45.5" font-family="FreeSans" font-size="10.00">SyncObjectv1::SyncObjectv1</text>
</a>
</g>
</g>
<!-- Node1&#45;&gt;Node7 -->
<g id="edge7" class="edge"><title>Node1&#45;&gt;Node7</title>
<path fill="none" stroke="midnightblue" d="M99.8291,-91.6794C119.441,-83.9657 144.945,-74.358 168,-67 178.592,-63.6197 190.193,-60.3663 200.929,-57.536"/>
<polygon fill="midnightblue" stroke="midnightblue" points="98.4383,-88.4657 90.4338,-95.4068 101.02,-94.9723 98.4383,-88.4657"/>
</g>
<!-- Node8 -->
<g id="node8" class="node"><title>Node8</title>
<g id="a_node8"><a xlink:href="../../df/da3/classSyncObjectv2.html#afea1066fd155ae592e1515c8c49fb2cc" target="_top" xlink:title="SyncObjectv2::SyncObjectv2">
<polygon fill="none" stroke="black" points="169.5,-0.5 169.5,-19.5 312.5,-19.5 312.5,-0.5 169.5,-0.5"/>
<text text-anchor="middle" x="241" y="-7.5" font-family="FreeSans" font-size="10.00">SyncObjectv2::SyncObjectv2</text>
</a>
</g>
</g>
<!-- Node1&#45;&gt;Node8 -->
<g id="edge8" class="edge"><title>Node1&#45;&gt;Node8</title>
<path fill="none" stroke="midnightblue" d="M84.598,-88.3437C103.711,-71.1172 135.836,-44.5981 168,-29 175.794,-25.2204 184.439,-22.1178 192.958,-19.5966"/>
<polygon fill="midnightblue" stroke="midnightblue" points="82.0057,-85.9723 77.0097,-95.3153 86.7416,-91.1271 82.0057,-85.9723"/>
</g>
<!-- Node2&#45;&gt;Node3 -->
<g id="edge2" class="edge"><title>Node2&#45;&gt;Node3</title>
<path fill="none" stroke="midnightblue" d="M295.145,-173.81C313.088,-177.797 333.262,-182.28 351.778,-186.395"/>
<polygon fill="midnightblue" stroke="midnightblue" points="295.672,-170.342 285.151,-171.589 294.153,-177.175 295.672,-170.342"/>
</g>
<!-- Node4 -->
<g id="node4" class="node"><title>Node4</title>
<g id="a_node4"><a xlink:href="../../da/dd8/classFun4AllPrdfInputManager.html#afb3dee1362f4ec5ce8646b746076248a" target="_top" xlink:title="Fun4AllPrdfInputManager\l::SyncIt">
<polygon fill="none" stroke="black" points="350.5,-136 350.5,-166 477.5,-166 477.5,-136 350.5,-136"/>
<text text-anchor="start" x="358.5" y="-154" font-family="FreeSans" font-size="10.00">Fun4AllPrdfInputManager</text>
<text text-anchor="middle" x="414" y="-143" font-family="FreeSans" font-size="10.00">::SyncIt</text>
</a>
</g>
</g>
<!-- Node2&#45;&gt;Node4 -->
<g id="edge3" class="edge"><title>Node2&#45;&gt;Node4</title>
<path fill="none" stroke="midnightblue" d="M304.787,-157.961C319.618,-157.007 335.431,-155.99 350.26,-155.036"/>
<polygon fill="midnightblue" stroke="midnightblue" points="304.456,-154.475 294.701,-158.61 304.905,-161.461 304.456,-154.475"/>
</g>
</g>
</svg>
