<?xml version="1.0" encoding="UTF-8" standalone="no"?>
<!DOCTYPE svg PUBLIC "-//W3C//DTD SVG 1.1//EN"
 "http://www.w3.org/Graphics/SVG/1.1/DTD/svg11.dtd">
<!-- Generated by graphviz version 2.36.0 (20140111.2315)
 -->
<!-- Title: SyncObject::RunNumber Pages: 1 -->
<svg width="478pt" height="223pt"
 viewBox="0.00 0.00 478.00 223.00" xmlns="http://www.w3.org/2000/svg" xmlns:xlink="http://www.w3.org/1999/xlink">
<g id="graph0" class="graph" transform="scale(1 1) rotate(0) translate(4 219)">
<title>SyncObject::RunNumber</title>
<!-- Node1 -->
<g id="node1" class="node"><title>Node1</title>
<polygon fill="#bfbfbf" stroke="black" points="0.5,-95.5 0.5,-114.5 123.5,-114.5 123.5,-95.5 0.5,-95.5"/>
<text text-anchor="middle" x="62" y="-102.5" font-family="FreeSans" font-size="10.00">SyncObject::RunNumber</text>
</g>
<!-- Node2 -->
<g id="node2" class="node"><title>Node2</title>
<g id="a_node2"><a xlink:href="../../de/dbb/classSyncObject.html#ab8b7f5a87277828d6ea97d2ed3dd546d" target="_top" xlink:title="SyncObject::Different">
<polygon fill="none" stroke="black" points="179.5,-152.5 179.5,-171.5 286.5,-171.5 286.5,-152.5 179.5,-152.5"/>
<text text-anchor="middle" x="233" y="-159.5" font-family="FreeSans" font-size="10.00">SyncObject::Different</text>
</a>
</g>
</g>
<!-- Node1&#45;&gt;Node2 -->
<g id="edge1" class="edge"><title>Node1&#45;&gt;Node2</title>
<path fill="none" stroke="midnightblue" d="M94.738,-118.504C113.521,-126.225 137.893,-135.779 160,-143 170.446,-146.412 181.892,-149.652 192.524,-152.46"/>
<polygon fill="midnightblue" stroke="midnightblue" points="96.0441,-115.256 85.4664,-114.655 93.3603,-121.721 96.0441,-115.256"/>
</g>
<!-- Node3 -->
<g id="node3" class="node"><title>Node3</title>
<g id="a_node3"><a xlink:href="../../d7/d0b/classFun4AllDstInputManager.html#a0244c2edbaa2350038304b09f352c2d0" target="_top" xlink:title="Fun4AllDstInputManager\l::SyncIt">
<polygon fill="none" stroke="black" points="344,-185 344,-215 468,-215 468,-185 344,-185"/>
<text text-anchor="start" x="352" y="-203" font-family="FreeSans" font-size="10.00">Fun4AllDstInputManager</text>
<text text-anchor="middle" x="406" y="-192" font-family="FreeSans" font-size="10.00">::SyncIt</text>
</a>
</g>
</g>
<!-- Node1&#45;&gt;Node3 -->
<g id="edge6" class="edge"><title>Node1&#45;&gt;Node3</title>
<path fill="none" stroke="midnightblue" d="M78.6613,-122.209C96.4033,-140.409 127.149,-168.22 160,-181 219.441,-204.123 293.011,-206.719 343.936,-204.877"/>
<polygon fill="midnightblue" stroke="midnightblue" points="80.8821,-119.464 71.4637,-114.611 75.8004,-124.278 80.8821,-119.464"/>
</g>
<!-- Node5 -->
<g id="node5" class="node"><title>Node5</title>
<g id="a_node5"><a xlink:href="../../de/dbb/classSyncObject.html#ac50302647ba257a27e4ab9d8f051e80b" target="_top" xlink:title="SyncObject::operator=">
<polygon fill="none" stroke="black" points="176.5,-114.5 176.5,-133.5 289.5,-133.5 289.5,-114.5 176.5,-114.5"/>
<text text-anchor="middle" x="233" y="-121.5" font-family="FreeSans" font-size="10.00">SyncObject::operator=</text>
</a>
</g>
</g>
<!-- Node1&#45;&gt;Node5 -->
<g id="edge4" class="edge"><title>Node1&#45;&gt;Node5</title>
<path fill="none" stroke="midnightblue" d="M133.778,-112.957C148.006,-114.557 162.768,-116.216 176.391,-117.748"/>
<polygon fill="midnightblue" stroke="midnightblue" points="133.864,-109.445 123.536,-111.806 133.082,-116.401 133.864,-109.445"/>
</g>
<!-- Node6 -->
<g id="node6" class="node"><title>Node6</title>
<g id="a_node6"><a xlink:href="../../da/dd8/classFun4AllPrdfInputManager.html#ac3f313ef5571ce32cd40799791e2ea56" target="_top" xlink:title="Fun4AllPrdfInputManager::run">
<polygon fill="none" stroke="black" points="160.5,-76.5 160.5,-95.5 305.5,-95.5 305.5,-76.5 160.5,-76.5"/>
<text text-anchor="middle" x="233" y="-83.5" font-family="FreeSans" font-size="10.00">Fun4AllPrdfInputManager::run</text>
</a>
</g>
</g>
<!-- Node1&#45;&gt;Node6 -->
<g id="edge5" class="edge"><title>Node1&#45;&gt;Node6</title>
<path fill="none" stroke="midnightblue" d="M133.746,-97.0463C142.544,-96.0572 151.546,-95.0451 160.357,-94.0545"/>
<polygon fill="midnightblue" stroke="midnightblue" points="133.082,-93.5988 123.536,-98.1942 133.864,-100.555 133.082,-93.5988"/>
</g>
<!-- Node7 -->
<g id="node7" class="node"><title>Node7</title>
<g id="a_node7"><a xlink:href="../../d9/d30/classSyncObjectv1.html#a2245d3fdc81016f61743942040ed6e73" target="_top" xlink:title="SyncObjectv1::SyncObjectv1">
<polygon fill="none" stroke="black" points="161.5,-38.5 161.5,-57.5 304.5,-57.5 304.5,-38.5 161.5,-38.5"/>
<text text-anchor="middle" x="233" y="-45.5" font-family="FreeSans" font-size="10.00">SyncObjectv1::SyncObjectv1</text>
</a>
</g>
</g>
<!-- Node1&#45;&gt;Node7 -->
<g id="edge7" class="edge"><title>Node1&#45;&gt;Node7</title>
<path fill="none" stroke="midnightblue" d="M94.738,-91.4964C113.521,-83.7747 137.893,-74.2206 160,-67 170.446,-63.5883 181.892,-60.3475 192.524,-57.5403"/>
<polygon fill="midnightblue" stroke="midnightblue" points="93.3603,-88.2787 85.4664,-95.3453 96.0441,-94.7437 93.3603,-88.2787"/>
</g>
<!-- Node8 -->
<g id="node8" class="node"><title>Node8</title>
<g id="a_node8"><a xlink:href="../../df/da3/classSyncObjectv2.html#afea1066fd155ae592e1515c8c49fb2cc" target="_top" xlink:title="SyncObjectv2::SyncObjectv2">
<polygon fill="none" stroke="black" points="161.5,-0.5 161.5,-19.5 304.5,-19.5 304.5,-0.5 161.5,-0.5"/>
<text text-anchor="middle" x="233" y="-7.5" font-family="FreeSans" font-size="10.00">SyncObjectv2::SyncObjectv2</text>
</a>
</g>
</g>
<!-- Node1&#45;&gt;Node8 -->
<g id="edge8" class="edge"><title>Node1&#45;&gt;Node8</title>
<path fill="none" stroke="midnightblue" d="M80.0217,-88.0768C98.3029,-70.8167 128.934,-44.4424 160,-29 167.641,-25.2021 176.127,-22.0996 184.516,-19.5864"/>
<polygon fill="midnightblue" stroke="midnightblue" points="77.3052,-85.8339 72.534,-95.2937 82.163,-90.874 77.3052,-85.8339"/>
</g>
<!-- Node2&#45;&gt;Node3 -->
<g id="edge2" class="edge"><title>Node2&#45;&gt;Node3</title>
<path fill="none" stroke="midnightblue" d="M287.145,-173.81C305.088,-177.797 325.262,-182.28 343.778,-186.395"/>
<polygon fill="midnightblue" stroke="midnightblue" points="287.672,-170.342 277.151,-171.589 286.153,-177.175 287.672,-170.342"/>
</g>
<!-- Node4 -->
<g id="node4" class="node"><title>Node4</title>
<g id="a_node4"><a xlink:href="../../da/dd8/classFun4AllPrdfInputManager.html#afb3dee1362f4ec5ce8646b746076248a" target="_top" xlink:title="Fun4AllPrdfInputManager\l::SyncIt">
<polygon fill="none" stroke="black" points="342.5,-136 342.5,-166 469.5,-166 469.5,-136 342.5,-136"/>
<text text-anchor="start" x="350.5" y="-154" font-family="FreeSans" font-size="10.00">Fun4AllPrdfInputManager</text>
<text text-anchor="middle" x="406" y="-143" font-family="FreeSans" font-size="10.00">::SyncIt</text>
</a>
</g>
</g>
<!-- Node2&#45;&gt;Node4 -->
<g id="edge3" class="edge"><title>Node2&#45;&gt;Node4</title>
<path fill="none" stroke="midnightblue" d="M296.787,-157.961C311.618,-157.007 327.431,-155.99 342.26,-155.036"/>
<polygon fill="midnightblue" stroke="midnightblue" points="296.456,-154.475 286.701,-158.61 296.905,-161.461 296.456,-154.475"/>
</g>
</g>
</svg>
