<?xml version="1.0" encoding="UTF-8" standalone="no"?>
<!DOCTYPE svg PUBLIC "-//W3C//DTD SVG 1.1//EN"
 "http://www.w3.org/Graphics/SVG/1.1/DTD/svg11.dtd">
<!-- Generated by graphviz version 2.36.0 (20140111.2315)
 -->
<!-- Title: SyncObject::clone Pages: 1 -->
<svg width="268pt" height="87pt"
 viewBox="0.00 0.00 268.00 87.00" xmlns="http://www.w3.org/2000/svg" xmlns:xlink="http://www.w3.org/1999/xlink">
<g id="graph0" class="graph" transform="scale(1 1) rotate(0) translate(4 83)">
<title>SyncObject::clone</title>
<!-- Node1 -->
<g id="node1" class="node"><title>Node1</title>
<polygon fill="#bfbfbf" stroke="black" points="0.5,-29.5 0.5,-48.5 95.5,-48.5 95.5,-29.5 0.5,-29.5"/>
<text text-anchor="middle" x="48" y="-36.5" font-family="FreeSans" font-size="10.00">SyncObject::clone</text>
</g>
<!-- Node2 -->
<g id="node2" class="node"><title>Node2</title>
<g id="a_node2"><a xlink:href="../../d7/d0b/classFun4AllDstInputManager.html#adb0f421b2cc0607f784ac46314bb5346" target="_top" xlink:title="Fun4AllDstInputManager\l::GetSyncObject">
<polygon fill="none" stroke="black" points="134,-49 134,-79 258,-79 258,-49 134,-49"/>
<text text-anchor="start" x="142" y="-67" font-family="FreeSans" font-size="10.00">Fun4AllDstInputManager</text>
<text text-anchor="middle" x="196" y="-56" font-family="FreeSans" font-size="10.00">::GetSyncObject</text>
</a>
</g>
</g>
<!-- Node1&#45;&gt;Node2 -->
<g id="edge1" class="edge"><title>Node1&#45;&gt;Node2</title>
<path fill="none" stroke="midnightblue" d="M105.515,-48.6773C114.821,-50.2707 124.503,-51.9286 133.914,-53.5401"/>
<polygon fill="midnightblue" stroke="midnightblue" points="106.044,-45.2169 95.5967,-46.9789 104.863,-52.1165 106.044,-45.2169"/>
</g>
<!-- Node3 -->
<g id="node3" class="node"><title>Node3</title>
<g id="a_node3"><a xlink:href="../../da/dd8/classFun4AllPrdfInputManager.html#a8a294c21f908f8f6c2e43697167212a4" target="_top" xlink:title="Fun4AllPrdfInputManager\l::GetSyncObject">
<polygon fill="none" stroke="black" points="132.5,-0 132.5,-30 259.5,-30 259.5,-0 132.5,-0"/>
<text text-anchor="start" x="140.5" y="-18" font-family="FreeSans" font-size="10.00">Fun4AllPrdfInputManager</text>
<text text-anchor="middle" x="196" y="-7" font-family="FreeSans" font-size="10.00">::GetSyncObject</text>
</a>
</g>
</g>
<!-- Node1&#45;&gt;Node3 -->
<g id="edge2" class="edge"><title>Node1&#45;&gt;Node3</title>
<path fill="none" stroke="midnightblue" d="M105.67,-29.6844C114.407,-28.2482 123.473,-26.7579 132.332,-25.3017"/>
<polygon fill="midnightblue" stroke="midnightblue" points="104.897,-26.2645 95.5967,-31.3403 106.032,-33.1718 104.897,-26.2645"/>
</g>
</g>
</svg>
