<?xml version="1.0" encoding="UTF-8" standalone="no"?>
<!DOCTYPE svg PUBLIC "-//W3C//DTD SVG 1.1//EN"
 "http://www.w3.org/Graphics/SVG/1.1/DTD/svg11.dtd">
<!-- Generated by graphviz version 2.36.0 (20140111.2315)
 -->
<!-- Title: SyncObject::operator= Pages: 1 -->
<svg width="304pt" height="142pt"
 viewBox="0.00 0.00 304.00 142.00" xmlns="http://www.w3.org/2000/svg" xmlns:xlink="http://www.w3.org/1999/xlink">
<g id="graph0" class="graph" transform="scale(1 1) rotate(0) translate(4 138)">
<title>SyncObject::operator=</title>
<!-- Node1 -->
<g id="node1" class="node"><title>Node1</title>
<polygon fill="#bfbfbf" stroke="black" points="0.5,-57.5 0.5,-76.5 113.5,-76.5 113.5,-57.5 0.5,-57.5"/>
<text text-anchor="middle" x="57" y="-64.5" font-family="FreeSans" font-size="10.00">SyncObject::operator=</text>
</g>
<!-- Node2 -->
<g id="node2" class="node"><title>Node2</title>
<g id="a_node2"><a xlink:href="../../de/dbb/classSyncObject.html#ad679d42aac1a409a94d2e535766dcebd" target="_top" xlink:title="set Event Counter ">
<polygon fill="none" stroke="black" points="158,-114.5 158,-133.5 288,-133.5 288,-114.5 158,-114.5"/>
<text text-anchor="middle" x="223" y="-121.5" font-family="FreeSans" font-size="10.00">SyncObject::EventCounter</text>
</a>
</g>
</g>
<!-- Node1&#45;&gt;Node2 -->
<g id="edge1" class="edge"><title>Node1&#45;&gt;Node2</title>
<path fill="none" stroke="midnightblue" d="M78.889,-76.568C97.3405,-84.7918 125.107,-96.6163 150,-105 157.156,-107.41 164.794,-109.709 172.322,-111.823"/>
<polygon fill="midnightblue" stroke="midnightblue" points="171.537,-115.237 182.106,-114.488 173.378,-108.483 171.537,-115.237"/>
</g>
<!-- Node3 -->
<g id="node3" class="node"><title>Node3</title>
<g id="a_node3"><a xlink:href="../../de/dbb/classSyncObject.html#aa650d97c0d3ace8ae7945f54224228ef" target="_top" xlink:title="set Event Number ">
<polygon fill="none" stroke="black" points="157.5,-76.5 157.5,-95.5 288.5,-95.5 288.5,-76.5 157.5,-76.5"/>
<text text-anchor="middle" x="223" y="-83.5" font-family="FreeSans" font-size="10.00">SyncObject::EventNumber</text>
</a>
</g>
</g>
<!-- Node1&#45;&gt;Node3 -->
<g id="edge2" class="edge"><title>Node1&#45;&gt;Node3</title>
<path fill="none" stroke="midnightblue" d="M113.523,-73.4325C124.447,-74.6982 136.074,-76.0452 147.505,-77.3695"/>
<polygon fill="midnightblue" stroke="midnightblue" points="147.141,-80.8506 157.477,-78.5248 147.946,-73.8971 147.141,-80.8506"/>
</g>
<!-- Node4 -->
<g id="node4" class="node"><title>Node4</title>
<g id="a_node4"><a xlink:href="../../de/dbb/classSyncObject.html#af1188def459d0ff933d71e37c7afc0c5" target="_top" xlink:title="set Run Number ">
<polygon fill="none" stroke="black" points="161.5,-38.5 161.5,-57.5 284.5,-57.5 284.5,-38.5 161.5,-38.5"/>
<text text-anchor="middle" x="223" y="-45.5" font-family="FreeSans" font-size="10.00">SyncObject::RunNumber</text>
</a>
</g>
</g>
<!-- Node1&#45;&gt;Node4 -->
<g id="edge3" class="edge"><title>Node1&#45;&gt;Node4</title>
<path fill="none" stroke="midnightblue" d="M113.523,-60.5675C125.695,-59.1573 138.738,-57.6462 151.411,-56.178"/>
<polygon fill="midnightblue" stroke="midnightblue" points="151.94,-59.6402 161.471,-55.0125 151.135,-52.6867 151.94,-59.6402"/>
</g>
<!-- Node5 -->
<g id="node5" class="node"><title>Node5</title>
<g id="a_node5"><a xlink:href="../../de/dbb/classSyncObject.html#a9e8ffb7e35744a8f46cc59b4cf8fa1ca" target="_top" xlink:title="set Segment Number ">
<polygon fill="none" stroke="black" points="150.5,-0.5 150.5,-19.5 295.5,-19.5 295.5,-0.5 150.5,-0.5"/>
<text text-anchor="middle" x="223" y="-7.5" font-family="FreeSans" font-size="10.00">SyncObject::SegmentNumber</text>
</a>
</g>
</g>
<!-- Node1&#45;&gt;Node5 -->
<g id="edge4" class="edge"><title>Node1&#45;&gt;Node5</title>
<path fill="none" stroke="midnightblue" d="M78.889,-57.432C97.3405,-49.2082 125.107,-37.3837 150,-29 157.156,-26.59 164.794,-24.2908 172.322,-22.1771"/>
<polygon fill="midnightblue" stroke="midnightblue" points="173.378,-25.5173 182.106,-19.5117 171.537,-18.7634 173.378,-25.5173"/>
</g>
</g>
</svg>
