<?xml version="1.0" encoding="UTF-8" standalone="no"?>
<!DOCTYPE svg PUBLIC "-//W3C//DTD SVG 1.1//EN"
 "http://www.w3.org/Graphics/SVG/1.1/DTD/svg11.dtd">
<!-- Generated by graphviz version 2.36.0 (20140111.2315)
 -->
<!-- Title: SyncObject::SegmentNumber Pages: 1 -->
<svg width="336pt" height="154pt"
 viewBox="0.00 0.00 336.00 154.00" xmlns="http://www.w3.org/2000/svg" xmlns:xlink="http://www.w3.org/1999/xlink">
<g id="graph0" class="graph" transform="scale(1 1) rotate(0) translate(4 150)">
<title>SyncObject::SegmentNumber</title>
<!-- Node1 -->
<g id="node1" class="node"><title>Node1</title>
<polygon fill="#bfbfbf" stroke="black" points="0.5,-66.5 0.5,-85.5 145.5,-85.5 145.5,-66.5 0.5,-66.5"/>
<text text-anchor="middle" x="73" y="-73.5" font-family="FreeSans" font-size="10.00">SyncObject::SegmentNumber</text>
</g>
<!-- Node2 -->
<g id="node2" class="node"><title>Node2</title>
<g id="a_node2"><a xlink:href="../../de/dbb/classSyncObject.html#ac50302647ba257a27e4ab9d8f051e80b" target="_top" xlink:title="SyncObject::operator=">
<polygon fill="none" stroke="black" points="198.5,-126.5 198.5,-145.5 311.5,-145.5 311.5,-126.5 198.5,-126.5"/>
<text text-anchor="middle" x="255" y="-133.5" font-family="FreeSans" font-size="10.00">SyncObject::operator=</text>
</a>
</g>
</g>
<!-- Node1&#45;&gt;Node2 -->
<g id="edge1" class="edge"><title>Node1&#45;&gt;Node2</title>
<path fill="none" stroke="midnightblue" d="M106.451,-89.3393C127.734,-97.8335 156.282,-108.75 182,-117 192.587,-120.396 204.186,-123.655 214.923,-126.485"/>
<polygon fill="midnightblue" stroke="midnightblue" points="107.51,-85.9926 96.9264,-85.506 104.897,-92.4865 107.51,-85.9926"/>
</g>
<!-- Node3 -->
<g id="node3" class="node"><title>Node3</title>
<g id="a_node3"><a xlink:href="../../da/dd8/classFun4AllPrdfInputManager.html#ac3f313ef5571ce32cd40799791e2ea56" target="_top" xlink:title="Fun4AllPrdfInputManager::run">
<polygon fill="none" stroke="black" points="182.5,-88.5 182.5,-107.5 327.5,-107.5 327.5,-88.5 182.5,-88.5"/>
<text text-anchor="middle" x="255" y="-95.5" font-family="FreeSans" font-size="10.00">Fun4AllPrdfInputManager::run</text>
</a>
</g>
</g>
<!-- Node1&#45;&gt;Node3 -->
<g id="edge2" class="edge"><title>Node1&#45;&gt;Node3</title>
<path fill="none" stroke="midnightblue" d="M155.634,-85.9775C164.528,-87.0646 173.532,-88.165 182.295,-89.236"/>
<polygon fill="midnightblue" stroke="midnightblue" points="156.009,-82.4973 145.658,-84.7582 155.159,-89.4456 156.009,-82.4973"/>
</g>
<!-- Node4 -->
<g id="node4" class="node"><title>Node4</title>
<g id="a_node4"><a xlink:href="../../d7/d0b/classFun4AllDstInputManager.html#a0244c2edbaa2350038304b09f352c2d0" target="_top" xlink:title="Fun4AllDstInputManager\l::SyncIt">
<polygon fill="none" stroke="black" points="193,-39 193,-69 317,-69 317,-39 193,-39"/>
<text text-anchor="start" x="201" y="-57" font-family="FreeSans" font-size="10.00">Fun4AllDstInputManager</text>
<text text-anchor="middle" x="255" y="-46" font-family="FreeSans" font-size="10.00">::SyncIt</text>
</a>
</g>
</g>
<!-- Node1&#45;&gt;Node4 -->
<g id="edge3" class="edge"><title>Node1&#45;&gt;Node4</title>
<path fill="none" stroke="midnightblue" d="M155.606,-66.0259C168.092,-64.4999 180.795,-62.9473 192.743,-61.4869"/>
<polygon fill="midnightblue" stroke="midnightblue" points="155.159,-62.5544 145.658,-67.2418 156.009,-69.5027 155.159,-62.5544"/>
</g>
<!-- Node5 -->
<g id="node5" class="node"><title>Node5</title>
<g id="a_node5"><a xlink:href="../../df/da3/classSyncObjectv2.html#afea1066fd155ae592e1515c8c49fb2cc" target="_top" xlink:title="SyncObjectv2::SyncObjectv2">
<polygon fill="none" stroke="black" points="183.5,-0.5 183.5,-19.5 326.5,-19.5 326.5,-0.5 183.5,-0.5"/>
<text text-anchor="middle" x="255" y="-7.5" font-family="FreeSans" font-size="10.00">SyncObjectv2::SyncObjectv2</text>
</a>
</g>
</g>
<!-- Node1&#45;&gt;Node5 -->
<g id="edge4" class="edge"><title>Node1&#45;&gt;Node5</title>
<path fill="none" stroke="midnightblue" d="M103.619,-62.1337C125.09,-52.3914 154.978,-39.4615 182,-30 192.898,-26.1843 204.92,-22.6044 215.968,-19.5576"/>
<polygon fill="midnightblue" stroke="midnightblue" points="102.021,-59.0157 94.3866,-66.3616 104.936,-65.3801 102.021,-59.0157"/>
</g>
</g>
</svg>
