<?xml version="1.0" encoding="UTF-8" standalone="no"?>
<!DOCTYPE svg PUBLIC "-//W3C//DTD SVG 1.1//EN"
 "http://www.w3.org/Graphics/SVG/1.1/DTD/svg11.dtd">
<!-- Generated by graphviz version 2.36.0 (20140111.2315)
 -->
<!-- Title: SyncObject::Different Pages: 1 -->
<svg width="280pt" height="87pt"
 viewBox="0.00 0.00 280.00 87.00" xmlns="http://www.w3.org/2000/svg" xmlns:xlink="http://www.w3.org/1999/xlink">
<g id="graph0" class="graph" transform="scale(1 1) rotate(0) translate(4 83)">
<title>SyncObject::Different</title>
<!-- Node1 -->
<g id="node1" class="node"><title>Node1</title>
<polygon fill="#bfbfbf" stroke="black" points="0.5,-29.5 0.5,-48.5 107.5,-48.5 107.5,-29.5 0.5,-29.5"/>
<text text-anchor="middle" x="54" y="-36.5" font-family="FreeSans" font-size="10.00">SyncObject::Different</text>
</g>
<!-- Node2 -->
<g id="node2" class="node"><title>Node2</title>
<g id="a_node2"><a xlink:href="../../d7/d0b/classFun4AllDstInputManager.html#a0244c2edbaa2350038304b09f352c2d0" target="_top" xlink:title="Fun4AllDstInputManager\l::SyncIt">
<polygon fill="none" stroke="black" points="146,-49 146,-79 270,-79 270,-49 146,-49"/>
<text text-anchor="start" x="154" y="-67" font-family="FreeSans" font-size="10.00">Fun4AllDstInputManager</text>
<text text-anchor="middle" x="208" y="-56" font-family="FreeSans" font-size="10.00">::SyncIt</text>
</a>
</g>
</g>
<!-- Node1&#45;&gt;Node2 -->
<g id="edge1" class="edge"><title>Node1&#45;&gt;Node2</title>
<path fill="none" stroke="midnightblue" d="M117.668,-49.3073C126.946,-50.8333 136.498,-52.4043 145.746,-53.9254"/>
<polygon fill="midnightblue" stroke="midnightblue" points="118.171,-45.843 107.736,-47.6736 117.035,-52.7502 118.171,-45.843"/>
</g>
<!-- Node3 -->
<g id="node3" class="node"><title>Node3</title>
<g id="a_node3"><a xlink:href="../../da/dd8/classFun4AllPrdfInputManager.html#afb3dee1362f4ec5ce8646b746076248a" target="_top" xlink:title="Fun4AllPrdfInputManager\l::SyncIt">
<polygon fill="none" stroke="black" points="144.5,-0 144.5,-30 271.5,-30 271.5,-0 144.5,-0"/>
<text text-anchor="start" x="152.5" y="-18" font-family="FreeSans" font-size="10.00">Fun4AllPrdfInputManager</text>
<text text-anchor="middle" x="208" y="-7" font-family="FreeSans" font-size="10.00">::SyncIt</text>
</a>
</g>
</g>
<!-- Node1&#45;&gt;Node3 -->
<g id="edge2" class="edge"><title>Node1&#45;&gt;Node3</title>
<path fill="none" stroke="midnightblue" d="M117.888,-29.0703C126.655,-27.686 135.662,-26.2639 144.423,-24.8805"/>
<polygon fill="midnightblue" stroke="midnightblue" points="117.067,-25.6564 107.736,-30.6733 118.159,-32.5708 117.067,-25.6564"/>
</g>
</g>
</svg>
