<?xml version="1.0" encoding="UTF-8" standalone="no"?>
<!DOCTYPE svg PUBLIC "-//W3C//DTD SVG 1.1//EN"
 "http://www.w3.org/Graphics/SVG/1.1/DTD/svg11.dtd">
<!-- Generated by graphviz version 2.36.0 (20140111.2315)
 -->
<!-- Title: SyncObject::Reset Pages: 1 -->
<svg width="452pt" height="38pt"
 viewBox="0.00 0.00 452.00 38.00" xmlns="http://www.w3.org/2000/svg" xmlns:xlink="http://www.w3.org/1999/xlink">
<g id="graph0" class="graph" transform="scale(1 1) rotate(0) translate(4 34)">
<title>SyncObject::Reset</title>
<!-- Node1 -->
<g id="node1" class="node"><title>Node1</title>
<polygon fill="#bfbfbf" stroke="black" points="0.5,-5.5 0.5,-24.5 97.5,-24.5 97.5,-5.5 0.5,-5.5"/>
<text text-anchor="middle" x="49" y="-12.5" font-family="FreeSans" font-size="10.00">SyncObject::Reset</text>
</g>
<!-- Node2 -->
<g id="node2" class="node"><title>Node2</title>
<g id="a_node2"><a xlink:href="../../da/dd8/classFun4AllPrdfInputManager.html#a4d3e00664417e9198d9fab5d4c336f97" target="_top" xlink:title="Fun4AllPrdfInputManager\l::ResetEvent">
<polygon fill="none" stroke="black" points="134.5,-0 134.5,-30 261.5,-30 261.5,-0 134.5,-0"/>
<text text-anchor="start" x="142.5" y="-18" font-family="FreeSans" font-size="10.00">Fun4AllPrdfInputManager</text>
<text text-anchor="middle" x="198" y="-7" font-family="FreeSans" font-size="10.00">::ResetEvent</text>
</a>
</g>
</g>
<!-- Node1&#45;&gt;Node2 -->
<g id="edge1" class="edge"><title>Node1&#45;&gt;Node2</title>
<path fill="none" stroke="midnightblue" d="M107.763,-15C116.459,-15 125.464,-15 134.258,-15"/>
<polygon fill="midnightblue" stroke="midnightblue" points="107.727,-11.5001 97.7267,-15 107.727,-18.5001 107.727,-11.5001"/>
</g>
<!-- Node3 -->
<g id="node3" class="node"><title>Node3</title>
<g id="a_node3"><a xlink:href="../../da/dd8/classFun4AllPrdfInputManager.html#ac3f313ef5571ce32cd40799791e2ea56" target="_top" xlink:title="Fun4AllPrdfInputManager::run">
<polygon fill="none" stroke="black" points="298.5,-5.5 298.5,-24.5 443.5,-24.5 443.5,-5.5 298.5,-5.5"/>
<text text-anchor="middle" x="371" y="-12.5" font-family="FreeSans" font-size="10.00">Fun4AllPrdfInputManager::run</text>
</a>
</g>
</g>
<!-- Node2&#45;&gt;Node3 -->
<g id="edge2" class="edge"><title>Node2&#45;&gt;Node3</title>
<path fill="none" stroke="midnightblue" d="M271.885,-15C280.648,-15 289.592,-15 298.338,-15"/>
<polygon fill="midnightblue" stroke="midnightblue" points="271.703,-11.5001 261.703,-15 271.703,-18.5001 271.703,-11.5001"/>
</g>
</g>
</svg>
