<?xml version="1.0" encoding="UTF-8" standalone="no"?>
<!DOCTYPE svg PUBLIC "-//W3C//DTD SVG 1.1//EN"
 "http://www.w3.org/Graphics/SVG/1.1/DTD/svg11.dtd">
<!-- Generated by graphviz version 2.36.0 (20140111.2315)
 -->
<!-- Title: PHCompositeNode Pages: 1 -->
<svg width="198pt" height="334pt"
 viewBox="0.00 0.00 198.00 334.00" xmlns="http://www.w3.org/2000/svg" xmlns:xlink="http://www.w3.org/1999/xlink">
<g id="graph0" class="graph" transform="scale(1 1) rotate(0) translate(4 330)">
<title>PHCompositeNode</title>
<!-- Node1 -->
<g id="node1" class="node"><title>Node1</title>
<polygon fill="#bfbfbf" stroke="black" points="10.5,-0.5 10.5,-19.5 111.5,-19.5 111.5,-0.5 10.5,-0.5"/>
<text text-anchor="middle" x="61" y="-7.5" font-family="FreeSans" font-size="10.00">PHCompositeNode</text>
</g>
<!-- Node2 -->
<g id="node2" class="node"><title>Node2</title>
<g id="a_node2"><a xlink:href="../../dc/d82/classPHNode.html" target="_top" xlink:title="PHNode">
<polygon fill="none" stroke="black" points="19,-136.5 19,-155.5 73,-155.5 73,-136.5 19,-136.5"/>
<text text-anchor="middle" x="46" y="-143.5" font-family="FreeSans" font-size="10.00">PHNode</text>
</a>
</g>
</g>
<!-- Node2&#45;&gt;Node1 -->
<g id="edge1" class="edge"><title>Node2&#45;&gt;Node1</title>
<path fill="none" stroke="midnightblue" d="M45.8515,-126.011C45.9422,-110.382 46.5629,-87.6787 49,-68 51.1378,-50.7379 55.8199,-30.9411 58.6624,-19.8079"/>
<polygon fill="midnightblue" stroke="midnightblue" points="42.3519,-126.42 45.8642,-136.416 49.3519,-126.412 42.3519,-126.42"/>
</g>
<!-- Node2&#45;&gt;Node2 -->
<g id="edge2" class="edge"><title>Node2&#45;&gt;Node2</title>
<path fill="none" stroke="#9a32cd" stroke-dasharray="5,2" d="M83.5105,-151.495C88.0382,-150.502 91,-148.671 91,-146 91,-141.617 83.0239,-139.494 73.2408,-139.631"/>
<polygon fill="#9a32cd" stroke="#9a32cd" points="82.9079,-148.033 73.2408,-152.369 83.5016,-155.008 82.9079,-148.033"/>
<text text-anchor="middle" x="106" y="-143.5" font-family="FreeSans" font-size="10.00"> parent</text>
</g>
<!-- Node5 -->
<g id="node5" class="node"><title>Node5</title>
<g id="a_node5"><a xlink:href="../../d6/d86/classPHPointerList.html" target="_top" xlink:title="PHPointerList\&lt; PHNode \&gt;">
<polygon fill="none" stroke="black" points="58,-68.5 58,-87.5 190,-87.5 190,-68.5 58,-68.5"/>
<text text-anchor="middle" x="124" y="-75.5" font-family="FreeSans" font-size="10.00">PHPointerList&lt; PHNode &gt;</text>
</a>
</g>
</g>
<!-- Node2&#45;&gt;Node5 -->
<g id="edge6" class="edge"><title>Node2&#45;&gt;Node5</title>
<path fill="none" stroke="#9a32cd" stroke-dasharray="5,2" d="M63.9939,-129.774C79.3466,-116.784 100.889,-98.5551 113.551,-87.8411"/>
<polygon fill="#9a32cd" stroke="#9a32cd" points="61.5702,-127.24 56.1971,-136.372 66.0918,-132.584 61.5702,-127.24"/>
<text text-anchor="middle" x="104.5" y="-109.5" font-family="FreeSans" font-size="10.00"> items</text>
</g>
<!-- Node3 -->
<g id="node3" class="node"><title>Node3</title>
<g id="a_node3"><a xlink:title="STL class. ">
<polygon fill="none" stroke="#bfbfbf" points="16.5,-236.5 16.5,-255.5 75.5,-255.5 75.5,-236.5 16.5,-236.5"/>
<text text-anchor="middle" x="46" y="-243.5" font-family="FreeSans" font-size="10.00">std::string</text>
</a>
</g>
</g>
<!-- Node3&#45;&gt;Node2 -->
<g id="edge3" class="edge"><title>Node3&#45;&gt;Node2</title>
<path fill="none" stroke="#9a32cd" stroke-dasharray="5,2" d="M46,-226.22C46,-204.951 46,-171.22 46,-155.537"/>
<polygon fill="#9a32cd" stroke="#9a32cd" points="42.5001,-226.303 46,-236.303 49.5001,-226.303 42.5001,-226.303"/>
<text text-anchor="middle" x="71" y="-210" font-family="FreeSans" font-size="10.00"> objecttype</text>
<text text-anchor="middle" x="71" y="-199" font-family="FreeSans" font-size="10.00">objectclass</text>
<text text-anchor="middle" x="71" y="-188" font-family="FreeSans" font-size="10.00">type</text>
<text text-anchor="middle" x="71" y="-177" font-family="FreeSans" font-size="10.00">name</text>
</g>
<!-- Node4 -->
<g id="node4" class="node"><title>Node4</title>
<g id="a_node4"><a xlink:title="STL class. ">
<polygon fill="none" stroke="#bfbfbf" points="-0.5,-295 -0.5,-325 92.5,-325 92.5,-295 -0.5,-295"/>
<text text-anchor="start" x="7.5" y="-313" font-family="FreeSans" font-size="10.00">std::basic_string&lt;</text>
<text text-anchor="middle" x="46" y="-302" font-family="FreeSans" font-size="10.00"> char &gt;</text>
</a>
</g>
</g>
<!-- Node4&#45;&gt;Node3 -->
<g id="edge4" class="edge"><title>Node4&#45;&gt;Node3</title>
<path fill="none" stroke="midnightblue" d="M46,-284.871C46,-274.663 46,-263.408 46,-255.842"/>
<polygon fill="midnightblue" stroke="midnightblue" points="42.5001,-284.931 46,-294.931 49.5001,-284.931 42.5001,-284.931"/>
</g>
<!-- Node5&#45;&gt;Node1 -->
<g id="edge5" class="edge"><title>Node5&#45;&gt;Node1</title>
<path fill="none" stroke="#9a32cd" stroke-dasharray="5,2" d="M108.773,-61.0474C96.4243,-48.1111 79.4769,-30.3567 69.4393,-19.8411"/>
<polygon fill="#9a32cd" stroke="#9a32cd" points="106.327,-63.5547 115.764,-68.3717 111.391,-58.7214 106.327,-63.5547"/>
<text text-anchor="middle" x="121.5" y="-41.5" font-family="FreeSans" font-size="10.00"> subNodes</text>
</g>
</g>
</svg>
