<?xml version="1.0" encoding="UTF-8" standalone="no"?>
<!DOCTYPE svg PUBLIC "-//W3C//DTD SVG 1.1//EN"
 "http://www.w3.org/Graphics/SVG/1.1/DTD/svg11.dtd">
<!-- Generated by graphviz version 2.36.0 (20140111.2315)
 -->
<!-- Title: SEvent::set_spill_id Pages: 1 -->
<svg width="404pt" height="38pt"
 viewBox="0.00 0.00 404.00 38.00" xmlns="http://www.w3.org/2000/svg" xmlns:xlink="http://www.w3.org/1999/xlink">
<g id="graph0" class="graph" transform="scale(1 1) rotate(0) translate(4 34)">
<title>SEvent::set_spill_id</title>
<!-- Node1 -->
<g id="node1" class="node"><title>Node1</title>
<polygon fill="#bfbfbf" stroke="black" points="0.5,-5.5 0.5,-24.5 101.5,-24.5 101.5,-5.5 0.5,-5.5"/>
<text text-anchor="middle" x="51" y="-12.5" font-family="FreeSans" font-size="10.00">SEvent::set_spill_id</text>
</g>
<!-- Node2 -->
<g id="node2" class="node"><title>Node2</title>
<g id="a_node2"><a xlink:href="../../db/dda/classReadMySql.html#a3eea7821034734e2f01e451734055a3d" target="_top" xlink:title="ReadMySql::FillSEvent">
<polygon fill="none" stroke="black" points="138.5,-5.5 138.5,-24.5 253.5,-24.5 253.5,-5.5 138.5,-5.5"/>
<text text-anchor="middle" x="196" y="-12.5" font-family="FreeSans" font-size="10.00">ReadMySql::FillSEvent</text>
</a>
</g>
</g>
<!-- Node1&#45;&gt;Node2 -->
<g id="edge1" class="edge"><title>Node1&#45;&gt;Node2</title>
<path fill="none" stroke="midnightblue" d="M111.726,-15C120.463,-15 129.441,-15 138.118,-15"/>
<polygon fill="midnightblue" stroke="midnightblue" points="111.613,-11.5001 101.613,-15 111.613,-18.5001 111.613,-11.5001"/>
</g>
<!-- Node3 -->
<g id="node3" class="node"><title>Node3</title>
<g id="a_node3"><a xlink:href="../../db/dda/classReadMySql.html#aef5367b1b70eb7b88d513750e78fc872" target="_top" xlink:title="ReadMySql::process\l_event">
<polygon fill="none" stroke="black" points="290.5,-0 290.5,-30 395.5,-30 395.5,-0 290.5,-0"/>
<text text-anchor="start" x="298.5" y="-18" font-family="FreeSans" font-size="10.00">ReadMySql::process</text>
<text text-anchor="middle" x="343" y="-7" font-family="FreeSans" font-size="10.00">_event</text>
</a>
</g>
</g>
<!-- Node2&#45;&gt;Node3 -->
<g id="edge2" class="edge"><title>Node2&#45;&gt;Node3</title>
<path fill="none" stroke="midnightblue" d="M264.179,-15C273.011,-15 281.948,-15 290.464,-15"/>
<polygon fill="midnightblue" stroke="midnightblue" points="263.892,-11.5001 253.892,-15 263.892,-18.5001 263.892,-11.5001"/>
</g>
</g>
</svg>
