<?xml version="1.0" encoding="UTF-8" standalone="no"?>
<!DOCTYPE svg PUBLIC "-//W3C//DTD SVG 1.1//EN"
 "http://www.w3.org/Graphics/SVG/1.1/DTD/svg11.dtd">
<!-- Generated by graphviz version 2.36.0 (20140111.2315)
 -->
<!-- Title: fun4all/fun4all/PHTFileServer.cxx Pages: 1 -->
<svg width="317pt" height="140pt"
 viewBox="0.00 0.00 317.00 140.00" xmlns="http://www.w3.org/2000/svg" xmlns:xlink="http://www.w3.org/1999/xlink">
<g id="graph0" class="graph" transform="scale(1 1) rotate(0) translate(4 136)">
<title>fun4all/fun4all/PHTFileServer.cxx</title>
<!-- Node1 -->
<g id="node1" class="node"><title>Node1</title>
<polygon fill="#bfbfbf" stroke="black" points="-0.5,-112.5 -0.5,-131.5 160.5,-131.5 160.5,-112.5 -0.5,-112.5"/>
<text text-anchor="middle" x="80" y="-119.5" font-family="FreeSans" font-size="10.00">fun4all/fun4all/PHTFileServer.cxx</text>
</g>
<!-- Node2 -->
<g id="node2" class="node"><title>Node2</title>
<polygon fill="none" stroke="#bfbfbf" points="4,-0.5 4,-19.5 56,-19.5 56,-0.5 4,-0.5"/>
<text text-anchor="middle" x="30" y="-7.5" font-family="FreeSans" font-size="10.00">sstream</text>
</g>
<!-- Node1&#45;&gt;Node2 -->
<g id="edge1" class="edge"><title>Node1&#45;&gt;Node2</title>
<path fill="none" stroke="midnightblue" d="M69.9467,-112.442C60.8588,-104.105 47.8821,-90.5856 41,-76 34.2007,-61.5897 31.5434,-43.6294 30.534,-30.242"/>
<polygon fill="midnightblue" stroke="midnightblue" points="34.0096,-29.6688 30.0084,-19.8586 27.0185,-30.0228 34.0096,-29.6688"/>
</g>
<!-- Node3 -->
<g id="node3" class="node"><title>Node3</title>
<polygon fill="none" stroke="#bfbfbf" points="50.5,-56.5 50.5,-75.5 109.5,-75.5 109.5,-56.5 50.5,-56.5"/>
<text text-anchor="middle" x="80" y="-63.5" font-family="FreeSans" font-size="10.00">stdexcept</text>
</g>
<!-- Node1&#45;&gt;Node3 -->
<g id="edge2" class="edge"><title>Node1&#45;&gt;Node3</title>
<path fill="none" stroke="midnightblue" d="M80,-112.083C80,-105.006 80,-94.8611 80,-85.9865"/>
<polygon fill="midnightblue" stroke="midnightblue" points="83.5001,-85.751 80,-75.7511 76.5001,-85.7511 83.5001,-85.751"/>
</g>
<!-- Node4 -->
<g id="node4" class="node"><title>Node4</title>
<g id="a_node4"><a xlink:href="../../d6/de6/PHTFileServer_8h.html" target="_top" xlink:title="TFile clean handling. ">
<polygon fill="none" stroke="black" points="127.5,-56.5 127.5,-75.5 216.5,-75.5 216.5,-56.5 127.5,-56.5"/>
<text text-anchor="middle" x="172" y="-63.5" font-family="FreeSans" font-size="10.00">PHTFileServer.h</text>
</a>
</g>
</g>
<!-- Node1&#45;&gt;Node4 -->
<g id="edge3" class="edge"><title>Node1&#45;&gt;Node4</title>
<path fill="none" stroke="midnightblue" d="M94.7814,-112.324C109.267,-103.822 131.573,-90.7288 148.493,-80.7975"/>
<polygon fill="midnightblue" stroke="midnightblue" points="150.403,-83.735 157.255,-75.6545 146.859,-77.6981 150.403,-83.735"/>
</g>
<!-- Node4&#45;&gt;Node2 -->
<g id="edge6" class="edge"><title>Node4&#45;&gt;Node2</title>
<path fill="none" stroke="midnightblue" d="M149.5,-56.4435C125.923,-47.4776 88.6776,-33.314 62.036,-23.1827"/>
<polygon fill="midnightblue" stroke="midnightblue" points="62.9861,-19.7995 52.3951,-19.5164 60.4979,-26.3424 62.9861,-19.7995"/>
</g>
<!-- Node5 -->
<g id="node5" class="node"><title>Node5</title>
<polygon fill="none" stroke="#bfbfbf" points="78,-0.5 78,-19.5 132,-19.5 132,-0.5 78,-0.5"/>
<text text-anchor="middle" x="105" y="-7.5" font-family="FreeSans" font-size="10.00">iostream</text>
</g>
<!-- Node4&#45;&gt;Node5 -->
<g id="edge4" class="edge"><title>Node4&#45;&gt;Node5</title>
<path fill="none" stroke="midnightblue" d="M161.235,-56.324C151.234,-48.2631 136.113,-36.0765 124.07,-26.3695"/>
<polygon fill="midnightblue" stroke="midnightblue" points="125.943,-23.3841 115.961,-19.8339 121.55,-28.8343 125.943,-23.3841"/>
</g>
<!-- Node6 -->
<g id="node6" class="node"><title>Node6</title>
<polygon fill="none" stroke="#bfbfbf" points="150.5,-0.5 150.5,-19.5 185.5,-19.5 185.5,-0.5 150.5,-0.5"/>
<text text-anchor="middle" x="168" y="-7.5" font-family="FreeSans" font-size="10.00">map</text>
</g>
<!-- Node4&#45;&gt;Node6 -->
<g id="edge5" class="edge"><title>Node4&#45;&gt;Node6</title>
<path fill="none" stroke="midnightblue" d="M171.339,-56.083C170.815,-49.0059 170.064,-38.8611 169.406,-29.9865"/>
<polygon fill="midnightblue" stroke="midnightblue" points="172.877,-29.4652 168.648,-19.7511 165.897,-29.9823 172.877,-29.4652"/>
</g>
<!-- Node7 -->
<g id="node7" class="node"><title>Node7</title>
<polygon fill="none" stroke="#bfbfbf" points="203.5,-0.5 203.5,-19.5 244.5,-19.5 244.5,-0.5 203.5,-0.5"/>
<text text-anchor="middle" x="224" y="-7.5" font-family="FreeSans" font-size="10.00">string</text>
</g>
<!-- Node4&#45;&gt;Node7 -->
<g id="edge7" class="edge"><title>Node4&#45;&gt;Node7</title>
<path fill="none" stroke="midnightblue" d="M180.587,-56.083C188.159,-48.2195 199.378,-36.5688 208.514,-27.0813"/>
<polygon fill="midnightblue" stroke="midnightblue" points="211.158,-29.3821 215.573,-19.7511 206.115,-24.5266 211.158,-29.3821"/>
</g>
<!-- Node8 -->
<g id="node8" class="node"><title>Node8</title>
<polygon fill="none" stroke="#bfbfbf" points="263,-0.5 263,-19.5 309,-19.5 309,-0.5 263,-0.5"/>
<text text-anchor="middle" x="286" y="-7.5" font-family="FreeSans" font-size="10.00">TFile.h</text>
</g>
<!-- Node4&#45;&gt;Node8 -->
<g id="edge8" class="edge"><title>Node4&#45;&gt;Node8</title>
<path fill="none" stroke="midnightblue" d="M190.064,-56.4435C208.575,-47.6751 237.581,-33.9355 258.855,-23.8579"/>
<polygon fill="midnightblue" stroke="midnightblue" points="260.482,-26.9604 268.021,-19.5164 257.485,-20.6343 260.482,-26.9604"/>
</g>
</g>
</svg>
