<?xml version="1.0" encoding="UTF-8" standalone="no"?>
<!DOCTYPE svg PUBLIC "-//W3C//DTD SVG 1.1//EN"
 "http://www.w3.org/Graphics/SVG/1.1/DTD/svg11.dtd">
<!-- Generated by graphviz version 2.36.0 (20140111.2315)
 -->
<!-- Title: fun4all/interfaces/SEvent.h Pages: 1 -->
<svg width="341pt" height="264pt"
 viewBox="0.00 0.00 340.88 264.00" xmlns="http://www.w3.org/2000/svg" xmlns:xlink="http://www.w3.org/1999/xlink">
<g id="graph0" class="graph" transform="scale(1 1) rotate(0) translate(4 260)">
<title>fun4all/interfaces/SEvent.h</title>
<!-- Node1 -->
<g id="node1" class="node"><title>Node1</title>
<polygon fill="#bfbfbf" stroke="black" points="227.5,-225 227.5,-255 318.5,-255 318.5,-225 227.5,-225"/>
<text text-anchor="start" x="235.5" y="-243" font-family="FreeSans" font-size="10.00">fun4all/interfaces</text>
<text text-anchor="middle" x="273" y="-232" font-family="FreeSans" font-size="10.00">/SEvent.h</text>
</g>
<!-- Node2 -->
<g id="node2" class="node"><title>Node2</title>
<g id="a_node2"><a xlink:href="../../d1/de9/SHitMap_8h.html" target="_top" xlink:title="SHitMap.h">
<polygon fill="none" stroke="black" points="213,-168.5 213,-187.5 275,-187.5 275,-168.5 213,-168.5"/>
<text text-anchor="middle" x="244" y="-175.5" font-family="FreeSans" font-size="10.00">SHitMap.h</text>
</a>
</g>
</g>
<!-- Node1&#45;&gt;Node2 -->
<g id="edge1" class="edge"><title>Node1&#45;&gt;Node2</title>
<path fill="none" stroke="midnightblue" d="M266.127,-224.781C262.087,-216.422 256.942,-205.777 252.631,-196.856"/>
<polygon fill="midnightblue" stroke="midnightblue" points="255.723,-195.211 248.22,-187.731 249.42,-198.257 255.723,-195.211"/>
</g>
<!-- Node4 -->
<g id="node4" class="node"><title>Node4</title>
<g id="a_node4"><a xlink:href="../../df/d32/PHObject_8h.html" target="_top" xlink:title="phool/PHObject.h">
<polygon fill="none" stroke="black" points="-0.5,-56.5 -0.5,-75.5 92.5,-75.5 92.5,-56.5 -0.5,-56.5"/>
<text text-anchor="middle" x="46" y="-63.5" font-family="FreeSans" font-size="10.00">phool/PHObject.h</text>
</a>
</g>
</g>
<!-- Node1&#45;&gt;Node4 -->
<g id="edge12" class="edge"><title>Node1&#45;&gt;Node4</title>
<path fill="none" stroke="midnightblue" d="M246.707,-224.945C212.566,-206.088 151.918,-170.488 106,-132 88.4281,-117.271 70.9451,-97.6147 59.4236,-83.7873"/>
<polygon fill="midnightblue" stroke="midnightblue" points="61.8119,-81.1789 52.7723,-75.6529 56.3929,-85.61 61.8119,-81.1789"/>
</g>
<!-- Node6 -->
<g id="node6" class="node"><title>Node6</title>
<polygon fill="none" stroke="#bfbfbf" points="175,-0.5 175,-19.5 229,-19.5 229,-0.5 175,-0.5"/>
<text text-anchor="middle" x="202" y="-7.5" font-family="FreeSans" font-size="10.00">iostream</text>
</g>
<!-- Node1&#45;&gt;Node6 -->
<g id="edge14" class="edge"><title>Node1&#45;&gt;Node6</title>
<path fill="none" stroke="midnightblue" d="M287.052,-224.779C308.214,-201.559 344.249,-153.89 329,-112 313.193,-68.5783 265.502,-39.335 233.276,-23.9277"/>
<polygon fill="midnightblue" stroke="midnightblue" points="234.372,-20.5798 223.823,-19.5899 231.452,-26.9419 234.372,-20.5798"/>
</g>
<!-- Node9 -->
<g id="node9" class="node"><title>Node9</title>
<polygon fill="none" stroke="#bfbfbf" points="285.5,-112.5 285.5,-131.5 320.5,-131.5 320.5,-112.5 285.5,-112.5"/>
<text text-anchor="middle" x="303" y="-119.5" font-family="FreeSans" font-size="10.00">map</text>
</g>
<!-- Node1&#45;&gt;Node9 -->
<g id="edge13" class="edge"><title>Node1&#45;&gt;Node9</title>
<path fill="none" stroke="midnightblue" d="M276.679,-224.776C282.084,-203.876 292.178,-164.844 298.173,-141.664"/>
<polygon fill="midnightblue" stroke="midnightblue" points="301.633,-142.265 300.748,-131.707 294.856,-140.512 301.633,-142.265"/>
</g>
<!-- Node3 -->
<g id="node3" class="node"><title>Node3</title>
<g id="a_node3"><a xlink:href="../../d2/d2c/SHit_8h.html" target="_top" xlink:title="SHit.h">
<polygon fill="none" stroke="black" points="151,-112.5 151,-131.5 195,-131.5 195,-112.5 151,-112.5"/>
<text text-anchor="middle" x="173" y="-119.5" font-family="FreeSans" font-size="10.00">SHit.h</text>
</a>
</g>
</g>
<!-- Node2&#45;&gt;Node3 -->
<g id="edge2" class="edge"><title>Node2&#45;&gt;Node3</title>
<path fill="none" stroke="midnightblue" d="M232.593,-168.324C221.891,-160.185 205.659,-147.839 192.837,-138.087"/>
<polygon fill="midnightblue" stroke="midnightblue" points="194.693,-135.102 184.615,-131.834 190.456,-140.673 194.693,-135.102"/>
</g>
<!-- Node2&#45;&gt;Node4 -->
<g id="edge9" class="edge"><title>Node2&#45;&gt;Node4</title>
<path fill="none" stroke="midnightblue" d="M221.562,-168.456C200.517,-160.13 168.42,-146.617 142,-132 114.329,-116.691 84.4624,-95.6894 65.5186,-81.7494"/>
<polygon fill="midnightblue" stroke="midnightblue" points="67.5056,-78.8654 57.3921,-75.7084 63.3294,-84.4833 67.5056,-78.8654"/>
</g>
<!-- Node2&#45;&gt;Node6 -->
<g id="edge11" class="edge"><title>Node2&#45;&gt;Node6</title>
<path fill="none" stroke="midnightblue" d="M248.902,-168.235C259.789,-147.502 283.535,-94.3173 264,-56 257,-42.2698 243.634,-31.7496 231.1,-24.3465"/>
<polygon fill="midnightblue" stroke="midnightblue" points="232.678,-21.2204 222.223,-19.5055 229.326,-27.366 232.678,-21.2204"/>
</g>
<!-- Node2&#45;&gt;Node9 -->
<g id="edge10" class="edge"><title>Node2&#45;&gt;Node9</title>
<path fill="none" stroke="midnightblue" d="M253.479,-168.324C262.201,-160.341 275.343,-148.313 285.898,-138.653"/>
<polygon fill="midnightblue" stroke="midnightblue" points="288.334,-141.167 293.348,-131.834 283.608,-136.004 288.334,-141.167"/>
</g>
<!-- Node3&#45;&gt;Node4 -->
<g id="edge3" class="edge"><title>Node3&#45;&gt;Node4</title>
<path fill="none" stroke="midnightblue" d="M152.876,-112.444C131.976,-103.557 99.0653,-89.5632 75.2839,-79.4514"/>
<polygon fill="midnightblue" stroke="midnightblue" points="76.6016,-76.2085 66.0294,-75.5164 73.8625,-82.6504 76.6016,-76.2085"/>
</g>
<!-- Node3&#45;&gt;Node6 -->
<g id="edge6" class="edge"><title>Node3&#45;&gt;Node6</title>
<path fill="none" stroke="midnightblue" d="M162.827,-112.164C149.719,-99.6547 129.768,-76.0695 140,-56 147,-42.2698 160.366,-31.7496 172.9,-24.3465"/>
<polygon fill="midnightblue" stroke="midnightblue" points="174.674,-27.366 181.777,-19.5055 171.322,-21.2204 174.674,-27.366"/>
</g>
<!-- Node7 -->
<g id="node7" class="node"><title>Node7</title>
<polygon fill="none" stroke="#bfbfbf" points="149.5,-56.5 149.5,-75.5 196.5,-75.5 196.5,-56.5 149.5,-56.5"/>
<text text-anchor="middle" x="173" y="-63.5" font-family="FreeSans" font-size="10.00">limits.h</text>
</g>
<!-- Node3&#45;&gt;Node7 -->
<g id="edge7" class="edge"><title>Node3&#45;&gt;Node7</title>
<path fill="none" stroke="midnightblue" d="M173,-112.083C173,-105.006 173,-94.8611 173,-85.9865"/>
<polygon fill="midnightblue" stroke="midnightblue" points="176.5,-85.751 173,-75.7511 169.5,-85.7511 176.5,-85.751"/>
</g>
<!-- Node8 -->
<g id="node8" class="node"><title>Node8</title>
<polygon fill="none" stroke="#bfbfbf" points="214.5,-56.5 214.5,-75.5 255.5,-75.5 255.5,-56.5 214.5,-56.5"/>
<text text-anchor="middle" x="235" y="-63.5" font-family="FreeSans" font-size="10.00">string</text>
</g>
<!-- Node3&#45;&gt;Node8 -->
<g id="edge8" class="edge"><title>Node3&#45;&gt;Node8</title>
<path fill="none" stroke="midnightblue" d="M182.961,-112.324C192.127,-104.341 205.937,-92.3128 217.028,-82.6529"/>
<polygon fill="midnightblue" stroke="midnightblue" points="219.615,-85.041 224.857,-75.8339 215.018,-79.7624 219.615,-85.041"/>
</g>
<!-- Node5 -->
<g id="node5" class="node"><title>Node5</title>
<polygon fill="none" stroke="#bfbfbf" points="16.5,-0.5 16.5,-19.5 75.5,-19.5 75.5,-0.5 16.5,-0.5"/>
<text text-anchor="middle" x="46" y="-7.5" font-family="FreeSans" font-size="10.00">TObject.h</text>
</g>
<!-- Node4&#45;&gt;Node5 -->
<g id="edge4" class="edge"><title>Node4&#45;&gt;Node5</title>
<path fill="none" stroke="midnightblue" d="M46,-56.083C46,-49.0059 46,-38.8611 46,-29.9865"/>
<polygon fill="midnightblue" stroke="midnightblue" points="49.5001,-29.751 46,-19.7511 42.5001,-29.7511 49.5001,-29.751"/>
</g>
<!-- Node4&#45;&gt;Node6 -->
<g id="edge5" class="edge"><title>Node4&#45;&gt;Node6</title>
<path fill="none" stroke="midnightblue" d="M70.7187,-56.4435C96.8485,-47.3986 138.259,-33.064 167.576,-22.9158"/>
<polygon fill="midnightblue" stroke="midnightblue" points="169.092,-26.0951 177.397,-19.5164 166.802,-19.4801 169.092,-26.0951"/>
</g>
</g>
</svg>
