<?xml version="1.0" encoding="UTF-8" standalone="no"?>
<!DOCTYPE svg PUBLIC "-//W3C//DTD SVG 1.1//EN"
 "http://www.w3.org/Graphics/SVG/1.1/DTD/svg11.dtd">
<!-- Generated by graphviz version 2.36.0 (20140111.2315)
 -->
<!-- Title: fun4all/phool/PHDataNode.h Pages: 1 -->
<svg width="1262pt" height="220pt"
 viewBox="0.00 0.00 1262.00 220.00" xmlns="http://www.w3.org/2000/svg" xmlns:xlink="http://www.w3.org/1999/xlink">
<g id="graph0" class="graph" transform="scale(1 1) rotate(0) translate(4 216)">
<title>fun4all/phool/PHDataNode.h</title>
<!-- Node1 -->
<g id="node1" class="node"><title>Node1</title>
<polygon fill="#bfbfbf" stroke="black" points="348,-192.5 348,-211.5 488,-211.5 488,-192.5 348,-192.5"/>
<text text-anchor="middle" x="418" y="-199.5" font-family="FreeSans" font-size="10.00">fun4all/phool/PHDataNode.h</text>
</g>
<!-- Node2 -->
<g id="node2" class="node"><title>Node2</title>
<g id="a_node2"><a xlink:href="../../da/d7b/Fun4AllPrdfInputManager_8cc.html" target="_top" xlink:title="fun4all/fun4all/Fun4AllPrdf\lInputManager.cc">
<polygon fill="none" stroke="black" points="-0.5,-1 -0.5,-31 130.5,-31 130.5,-1 -0.5,-1"/>
<text text-anchor="start" x="7.5" y="-19" font-family="FreeSans" font-size="10.00">fun4all/fun4all/Fun4AllPrdf</text>
<text text-anchor="middle" x="65" y="-8" font-family="FreeSans" font-size="10.00">InputManager.cc</text>
</a>
</g>
</g>
<!-- Node1&#45;&gt;Node2 -->
<g id="edge1" class="edge"><title>Node1&#45;&gt;Node2</title>
<path fill="none" stroke="midnightblue" d="M392.338,-187.624C327.628,-153.894 158.255,-65.6091 92.0631,-31.1065"/>
<polygon fill="midnightblue" stroke="midnightblue" points="390.962,-190.853 401.448,-192.372 394.198,-184.646 390.962,-190.853"/>
</g>
<!-- Node3 -->
<g id="node3" class="node"><title>Node3</title>
<g id="a_node3"><a xlink:href="../../d8/d7a/Fun4AllServer_8cc.html" target="_top" xlink:title="fun4all/fun4all/Fun4AllServer.cc">
<polygon fill="none" stroke="black" points="149,-6.5 149,-25.5 303,-25.5 303,-6.5 149,-6.5"/>
<text text-anchor="middle" x="226" y="-13.5" font-family="FreeSans" font-size="10.00">fun4all/fun4all/Fun4AllServer.cc</text>
</a>
</g>
</g>
<!-- Node1&#45;&gt;Node3 -->
<g id="edge2" class="edge"><title>Node1&#45;&gt;Node3</title>
<path fill="none" stroke="midnightblue" d="M401.614,-185.297C362.667,-147.972 265.548,-54.9001 235.207,-25.8234"/>
<polygon fill="midnightblue" stroke="midnightblue" points="399.355,-187.98 408.997,-192.372 404.199,-182.926 399.355,-187.98"/>
</g>
<!-- Node4 -->
<g id="node4" class="node"><title>Node4</title>
<g id="a_node4"><a xlink:href="../../d3/d79/PHIODataNode_8h.html" target="_top" xlink:title="fun4all/phool/PHIODataNode.h">
<polygon fill="none" stroke="black" points="621,-136.5 621,-155.5 771,-155.5 771,-136.5 621,-136.5"/>
<text text-anchor="middle" x="696" y="-143.5" font-family="FreeSans" font-size="10.00">fun4all/phool/PHIODataNode.h</text>
</a>
</g>
</g>
<!-- Node1&#45;&gt;Node4 -->
<g id="edge3" class="edge"><title>Node1&#45;&gt;Node4</title>
<path fill="none" stroke="midnightblue" d="M472.192,-190.473C524.732,-180.268 603.439,-164.979 652.156,-155.516"/>
<polygon fill="midnightblue" stroke="midnightblue" points="471.199,-187.101 462.05,-192.444 472.534,-193.972 471.199,-187.101"/>
</g>
<!-- Node9 -->
<g id="node9" class="node"><title>Node9</title>
<g id="a_node9"><a xlink:href="../../dd/dd4/getClass_8h.html" target="_top" xlink:title="fun4all/phool/getClass.h">
<polygon fill="none" stroke="black" points="358,-74.5 358,-93.5 478,-93.5 478,-74.5 358,-74.5"/>
<text text-anchor="middle" x="418" y="-81.5" font-family="FreeSans" font-size="10.00">fun4all/phool/getClass.h</text>
</a>
</g>
</g>
<!-- Node1&#45;&gt;Node9 -->
<g id="edge18" class="edge"><title>Node1&#45;&gt;Node9</title>
<path fill="none" stroke="midnightblue" d="M418,-182.025C418,-156.464 418,-112.041 418,-93.5048"/>
<polygon fill="midnightblue" stroke="midnightblue" points="414.5,-182.281 418,-192.281 421.5,-182.281 414.5,-182.281"/>
</g>
<!-- Node13 -->
<g id="node13" class="node"><title>Node13</title>
<g id="a_node13"><a xlink:href="../../dc/d01/PHNodeReset_8cc.html" target="_top" xlink:title="fun4all/phool/PHNodeReset.cc">
<polygon fill="none" stroke="black" points="1104,-74.5 1104,-93.5 1254,-93.5 1254,-74.5 1104,-74.5"/>
<text text-anchor="middle" x="1179" y="-81.5" font-family="FreeSans" font-size="10.00">fun4all/phool/PHNodeReset.cc</text>
</a>
</g>
</g>
<!-- Node1&#45;&gt;Node13 -->
<g id="edge19" class="edge"><title>Node1&#45;&gt;Node13</title>
<path fill="none" stroke="midnightblue" d="M498.107,-192.216C571.37,-183.897 682.672,-170.543 779,-156 909.064,-136.364 1061.91,-107.656 1135.32,-93.5158"/>
<polygon fill="midnightblue" stroke="midnightblue" points="497.571,-188.754 488.027,-193.356 498.357,-195.71 497.571,-188.754"/>
</g>
<!-- Node5 -->
<g id="node5" class="node"><title>Node5</title>
<g id="a_node5"><a xlink:href="../../d3/d53/Fun4AllDstInputManager_8cc.html" target="_top" xlink:title="fun4all/fun4all/Fun4AllDst\lInputManager.cc">
<polygon fill="none" stroke="black" points="477,-1 477,-31 605,-31 605,-1 477,-1"/>
<text text-anchor="start" x="485" y="-19" font-family="FreeSans" font-size="10.00">fun4all/fun4all/Fun4AllDst</text>
<text text-anchor="middle" x="541" y="-8" font-family="FreeSans" font-size="10.00">InputManager.cc</text>
</a>
</g>
</g>
<!-- Node4&#45;&gt;Node5 -->
<g id="edge4" class="edge"><title>Node4&#45;&gt;Node5</title>
<path fill="none" stroke="midnightblue" d="M622.456,-134.712C581.891,-127.367 537.293,-115.947 525,-100 509.5,-79.8932 522.256,-49.0575 532.157,-31.1761"/>
<polygon fill="midnightblue" stroke="midnightblue" points="621.935,-138.174 632.388,-136.446 623.139,-131.278 621.935,-138.174"/>
</g>
<!-- Node6 -->
<g id="node6" class="node"><title>Node6</title>
<g id="a_node6"><a xlink:href="../../df/d03/Fun4AllSyncManager_8cc.html" target="_top" xlink:title="fun4all/fun4all/Fun4AllSync\lManager.cc">
<polygon fill="none" stroke="black" points="534,-69 534,-99 668,-99 668,-69 534,-69"/>
<text text-anchor="start" x="542" y="-87" font-family="FreeSans" font-size="10.00">fun4all/fun4all/Fun4AllSync</text>
<text text-anchor="middle" x="601" y="-76" font-family="FreeSans" font-size="10.00">Manager.cc</text>
</a>
</g>
</g>
<!-- Node4&#45;&gt;Node6 -->
<g id="edge5" class="edge"><title>Node4&#45;&gt;Node6</title>
<path fill="none" stroke="midnightblue" d="M673.66,-130.891C658.508,-121.321 638.553,-108.718 623.39,-99.1408"/>
<polygon fill="midnightblue" stroke="midnightblue" points="672.065,-134.023 682.389,-136.403 675.803,-128.104 672.065,-134.023"/>
</g>
<!-- Node7 -->
<g id="node7" class="node"><title>Node7</title>
<g id="a_node7"><a xlink:href="../../dd/d12/ReadMySql_8C.html" target="_top" xlink:title="fun4all/modules/ReadMySql.C">
<polygon fill="none" stroke="black" points="623,-6.5 623,-25.5 769,-25.5 769,-6.5 623,-6.5"/>
<text text-anchor="middle" x="696" y="-13.5" font-family="FreeSans" font-size="10.00">fun4all/modules/ReadMySql.C</text>
</a>
</g>
</g>
<!-- Node4&#45;&gt;Node7 -->
<g id="edge6" class="edge"><title>Node4&#45;&gt;Node7</title>
<path fill="none" stroke="midnightblue" d="M696,-126.029C696,-97.8026 696,-45.8923 696,-25.5224"/>
<polygon fill="midnightblue" stroke="midnightblue" points="692.5,-126.202 696,-136.202 699.5,-126.202 692.5,-126.202"/>
</g>
<!-- Node8 -->
<g id="node8" class="node"><title>Node8</title>
<g id="a_node8"><a xlink:href="../../dd/d2f/SimpleReadMySql_8C.html" target="_top" xlink:title="fun4all/modules/SimpleRead\lMySql.C">
<polygon fill="none" stroke="black" points="787,-1 787,-31 927,-31 927,-1 787,-1"/>
<text text-anchor="start" x="795" y="-19" font-family="FreeSans" font-size="10.00">fun4all/modules/SimpleRead</text>
<text text-anchor="middle" x="857" y="-8" font-family="FreeSans" font-size="10.00">MySql.C</text>
</a>
</g>
</g>
<!-- Node4&#45;&gt;Node8 -->
<g id="edge7" class="edge"><title>Node4&#45;&gt;Node8</title>
<path fill="none" stroke="midnightblue" d="M705.631,-127.45C715.653,-110.478 732.706,-84.9116 753,-68 772.079,-52.1007 796.954,-39.6724 817.592,-31.0665"/>
<polygon fill="midnightblue" stroke="midnightblue" points="702.487,-125.899 700.572,-136.319 708.567,-129.367 702.487,-125.899"/>
</g>
<!-- Node4&#45;&gt;Node9 -->
<g id="edge8" class="edge"><title>Node4&#45;&gt;Node9</title>
<path fill="none" stroke="midnightblue" d="M646.427,-134.301C592.398,-122.64 507.046,-104.219 457.399,-93.5034"/>
<polygon fill="midnightblue" stroke="midnightblue" points="645.951,-137.779 656.465,-136.467 647.428,-130.936 645.951,-137.779"/>
</g>
<!-- Node11 -->
<g id="node11" class="node"><title>Node11</title>
<g id="a_node11"><a xlink:href="../../d7/d95/PHDataNodeIterator_8h.html" target="_top" xlink:title="fun4all/phool/PHDataNode\lIterator.h">
<polygon fill="none" stroke="black" points="762,-69 762,-99 894,-99 894,-69 762,-69"/>
<text text-anchor="start" x="770" y="-87" font-family="FreeSans" font-size="10.00">fun4all/phool/PHDataNode</text>
<text text-anchor="middle" x="828" y="-76" font-family="FreeSans" font-size="10.00">Iterator.h</text>
</a>
</g>
</g>
<!-- Node4&#45;&gt;Node11 -->
<g id="edge15" class="edge"><title>Node4&#45;&gt;Node11</title>
<path fill="none" stroke="midnightblue" d="M724.14,-132.209C745.576,-122.465 775.064,-109.062 797.144,-99.0253"/>
<polygon fill="midnightblue" stroke="midnightblue" points="722.568,-129.079 714.912,-136.403 725.464,-135.452 722.568,-129.079"/>
</g>
<!-- Node12 -->
<g id="node12" class="node"><title>Node12</title>
<g id="a_node12"><a xlink:href="../../d7/d32/PHNodeIOManager_8cc.html" target="_top" xlink:title="fun4all/phool/PHNodeIOManager.cc">
<polygon fill="none" stroke="black" points="912.5,-74.5 912.5,-93.5 1085.5,-93.5 1085.5,-74.5 912.5,-74.5"/>
<text text-anchor="middle" x="999" y="-81.5" font-family="FreeSans" font-size="10.00">fun4all/phool/PHNodeIOManager.cc</text>
</a>
</g>
</g>
<!-- Node4&#45;&gt;Node12 -->
<g id="edge16" class="edge"><title>Node4&#45;&gt;Node12</title>
<path fill="none" stroke="midnightblue" d="M748.934,-134.518C807.756,-122.87 901.609,-104.285 956.058,-93.5034"/>
<polygon fill="midnightblue" stroke="midnightblue" points="748.22,-131.091 739.091,-136.467 749.58,-137.958 748.22,-131.091"/>
</g>
<!-- Node4&#45;&gt;Node13 -->
<g id="edge17" class="edge"><title>Node4&#45;&gt;Node13</title>
<path fill="none" stroke="midnightblue" d="M781.483,-136.884C862.212,-128.854 986.587,-115.535 1094,-100 1106.9,-98.1339 1120.85,-95.8038 1133.65,-93.5406"/>
<polygon fill="midnightblue" stroke="midnightblue" points="780.975,-133.417 771.368,-137.886 781.665,-140.383 780.975,-133.417"/>
</g>
<!-- Node9&#45;&gt;Node2 -->
<g id="edge11" class="edge"><title>Node9&#45;&gt;Node2</title>
<path fill="none" stroke="midnightblue" d="M360.111,-72.6579C303.842,-62.5396 215.991,-46.5686 140,-32 137.001,-31.425 133.935,-30.8322 130.838,-30.2295"/>
<polygon fill="midnightblue" stroke="midnightblue" points="359.779,-76.1542 370.24,-74.4774 361.017,-69.2644 359.779,-76.1542"/>
</g>
<!-- Node9&#45;&gt;Node3 -->
<g id="edge12" class="edge"><title>Node9&#45;&gt;Node3</title>
<path fill="none" stroke="midnightblue" d="M383.216,-71.0432C344.981,-57.8998 284.517,-37.1153 250.803,-25.5259"/>
<polygon fill="midnightblue" stroke="midnightblue" points="382.305,-74.4307 392.899,-74.3717 384.58,-67.8109 382.305,-74.4307"/>
</g>
<!-- Node9&#45;&gt;Node5 -->
<g id="edge9" class="edge"><title>Node9&#45;&gt;Node5</title>
<path fill="none" stroke="midnightblue" d="M442.966,-69.6034C463.782,-58.4338 493.358,-42.5642 514.571,-31.1815"/>
<polygon fill="midnightblue" stroke="midnightblue" points="441.237,-66.5594 434.08,-74.3717 444.547,-72.7275 441.237,-66.5594"/>
</g>
<!-- Node9&#45;&gt;Node7 -->
<g id="edge13" class="edge"><title>Node9&#45;&gt;Node7</title>
<path fill="none" stroke="midnightblue" d="M463.888,-72.1057C518.87,-59.0525 609.835,-37.4565 660.005,-25.5455"/>
<polygon fill="midnightblue" stroke="midnightblue" points="462.98,-68.724 454.059,-74.4393 464.597,-75.5347 462.98,-68.724"/>
</g>
<!-- Node9&#45;&gt;Node8 -->
<g id="edge14" class="edge"><title>Node9&#45;&gt;Node8</title>
<path fill="none" stroke="midnightblue" d="M488.104,-73.1548C588.788,-59.0024 763.87,-34.341 778,-32 780.892,-31.5208 783.842,-31.0193 786.819,-30.5024"/>
<polygon fill="midnightblue" stroke="midnightblue" points="487.418,-69.7166 478.003,-74.5744 488.393,-76.6485 487.418,-69.7166"/>
</g>
<!-- Node10 -->
<g id="node10" class="node"><title>Node10</title>
<g id="a_node10"><a xlink:href="../../d6/dbe/Fun4AllEventOutputManager_8cc.html" target="_top" xlink:title="fun4all/fun4all/Fun4AllEvent\lOutputManager.cc">
<polygon fill="none" stroke="black" points="321.5,-1 321.5,-31 458.5,-31 458.5,-1 321.5,-1"/>
<text text-anchor="start" x="329.5" y="-19" font-family="FreeSans" font-size="10.00">fun4all/fun4all/Fun4AllEvent</text>
<text text-anchor="middle" x="390" y="-8" font-family="FreeSans" font-size="10.00">OutputManager.cc</text>
</a>
</g>
</g>
<!-- Node9&#45;&gt;Node10 -->
<g id="edge10" class="edge"><title>Node9&#45;&gt;Node10</title>
<path fill="none" stroke="midnightblue" d="M410.296,-64.8404C405.793,-54.2266 400.193,-41.026 396.016,-31.1815"/>
<polygon fill="midnightblue" stroke="midnightblue" points="407.212,-66.5328 414.339,-74.3717 413.656,-63.7989 407.212,-66.5328"/>
</g>
</g>
</svg>
