<?xml version="1.0" encoding="UTF-8" standalone="no"?>
<!DOCTYPE svg PUBLIC "-//W3C//DTD SVG 1.1//EN"
 "http://www.w3.org/Graphics/SVG/1.1/DTD/svg11.dtd">
<!-- Generated by graphviz version 2.36.0 (20140111.2315)
 -->
<!-- Title: PHNodeIterator::findFirst Pages: 1 -->
<svg width="426pt" height="89pt"
 viewBox="0.00 0.00 426.00 89.18" xmlns="http://www.w3.org/2000/svg" xmlns:xlink="http://www.w3.org/1999/xlink">
<g id="graph0" class="graph" transform="scale(1 1) rotate(0) translate(4 85.1832)">
<title>PHNodeIterator::findFirst</title>
<!-- Node1 -->
<g id="node1" class="node"><title>Node1</title>
<polygon fill="#bfbfbf" stroke="black" points="0,-28.5 0,-47.5 124,-47.5 124,-28.5 0,-28.5"/>
<text text-anchor="middle" x="62" y="-35.5" font-family="FreeSans" font-size="10.00">PHNodeIterator::findFirst</text>
</g>
<!-- Node2 -->
<g id="node2" class="node"><title>Node2</title>
<g id="a_node2"><a xlink:href="../../d5/d07/classPHNodeIterator.html#aea98bf8619af59b1212a94fb32106baa" target="_top" xlink:title="PHNodeIterator::findFirst">
<polygon fill="none" stroke="black" points="160,-28.5 160,-47.5 284,-47.5 284,-28.5 160,-28.5"/>
<text text-anchor="middle" x="222" y="-35.5" font-family="FreeSans" font-size="10.00">PHNodeIterator::findFirst</text>
</a>
</g>
</g>
<!-- Node1&#45;&gt;Node2 -->
<g id="edge1" class="edge"><title>Node1&#45;&gt;Node2</title>
<path fill="none" stroke="midnightblue" d="M124.087,-38C132.513,-38 141.226,-38 149.815,-38"/>
<polygon fill="midnightblue" stroke="midnightblue" points="149.815,-41.5001 159.815,-38 149.815,-34.5001 149.815,-41.5001"/>
</g>
<!-- Node3 -->
<g id="node3" class="node"><title>Node3</title>
<g id="a_node3"><a xlink:href="../../dc/d82/classPHNode.html#aca3576f926a4401eddc3d88bf0ce0de3" target="_top" xlink:title="PHNode::getName">
<polygon fill="none" stroke="black" points="320,-47.5 320,-66.5 418,-66.5 418,-47.5 320,-47.5"/>
<text text-anchor="middle" x="369" y="-54.5" font-family="FreeSans" font-size="10.00">PHNode::getName</text>
</a>
</g>
</g>
<!-- Node1&#45;&gt;Node3 -->
<g id="edge5" class="edge"><title>Node1&#45;&gt;Node3</title>
<path fill="none" stroke="midnightblue" d="M81.7267,-47.5026C100.839,-56.6278 131.639,-69.7746 160,-75 214.199,-84.986 229.196,-80.806 284,-75 296.282,-73.6988 309.408,-71.3559 321.547,-68.7813"/>
<polygon fill="midnightblue" stroke="midnightblue" points="322.465,-72.1629 331.471,-66.582 320.95,-65.3287 322.465,-72.1629"/>
</g>
<!-- Node4 -->
<g id="node4" class="node"><title>Node4</title>
<g id="a_node4"><a xlink:href="../../dc/d82/classPHNode.html#a4ab1f90aed955a652813bfe377087bda" target="_top" xlink:title="PHNode::getType">
<polygon fill="none" stroke="black" points="322.5,-0.5 322.5,-19.5 415.5,-19.5 415.5,-0.5 322.5,-0.5"/>
<text text-anchor="middle" x="369" y="-7.5" font-family="FreeSans" font-size="10.00">PHNode::getType</text>
</a>
</g>
</g>
<!-- Node1&#45;&gt;Node4 -->
<g id="edge6" class="edge"><title>Node1&#45;&gt;Node4</title>
<path fill="none" stroke="midnightblue" d="M104.322,-28.4854C121.457,-24.9115 141.596,-21.188 160,-19 211.395,-12.8896 270.372,-10.7991 312.369,-10.1431"/>
<polygon fill="midnightblue" stroke="midnightblue" points="312.445,-13.6425 322.397,-10.0087 312.351,-6.64316 312.445,-13.6425"/>
</g>
<!-- Node2&#45;&gt;Node2 -->
<g id="edge2" class="edge"><title>Node2&#45;&gt;Node2</title>
<path fill="none" stroke="midnightblue" d="M199.497,-47.7571C188.55,-56.5653 196.051,-66 222,-66 239.029,-66 248.113,-61.9368 249.253,-56.6539"/>
<polygon fill="midnightblue" stroke="midnightblue" points="252.3,-54.9303 244.503,-47.7571 246.125,-58.227 252.3,-54.9303"/>
</g>
<!-- Node2&#45;&gt;Node3 -->
<g id="edge3" class="edge"><title>Node2&#45;&gt;Node3</title>
<path fill="none" stroke="midnightblue" d="M284.073,-46.0026C292.547,-47.113 301.234,-48.2514 309.656,-49.355"/>
<polygon fill="midnightblue" stroke="midnightblue" points="309.396,-52.8507 319.766,-50.6797 310.305,-45.91 309.396,-52.8507"/>
</g>
<!-- Node2&#45;&gt;Node4 -->
<g id="edge4" class="edge"><title>Node2&#45;&gt;Node4</title>
<path fill="none" stroke="midnightblue" d="M272.495,-28.4423C285.309,-25.9679 299.193,-23.2869 312.301,-20.7557"/>
<polygon fill="midnightblue" stroke="midnightblue" points="312.988,-24.1878 322.143,-18.8552 311.661,-17.3147 312.988,-24.1878"/>
</g>
</g>
</svg>
