<?xml version="1.0" encoding="UTF-8" standalone="no"?>
<!DOCTYPE svg PUBLIC "-//W3C//DTD SVG 1.1//EN"
 "http://www.w3.org/Graphics/SVG/1.1/DTD/svg11.dtd">
<!-- Generated by graphviz version 2.36.0 (20140111.2315)
 -->
<!-- Title: PHNodeIterator::findFirst Pages: 1 -->
<svg width="266pt" height="66pt"
 viewBox="0.00 0.00 266.00 66.00" xmlns="http://www.w3.org/2000/svg" xmlns:xlink="http://www.w3.org/1999/xlink">
<g id="graph0" class="graph" transform="scale(1 1) rotate(0) translate(4 62)">
<title>PHNodeIterator::findFirst</title>
<!-- Node1 -->
<g id="node1" class="node"><title>Node1</title>
<polygon fill="#bfbfbf" stroke="black" points="0,-19.5 0,-38.5 124,-38.5 124,-19.5 0,-19.5"/>
<text text-anchor="middle" x="62" y="-26.5" font-family="FreeSans" font-size="10.00">PHNodeIterator::findFirst</text>
</g>
<!-- Node1&#45;&gt;Node1 -->
<g id="edge1" class="edge"><title>Node1&#45;&gt;Node1</title>
<path fill="none" stroke="midnightblue" d="M39.4972,-38.7571C28.5498,-47.5653 36.0508,-57 62,-57 79.0292,-57 88.1133,-52.9368 89.2525,-47.6539"/>
<polygon fill="midnightblue" stroke="midnightblue" points="92.2999,-45.9303 84.5028,-38.7571 86.1248,-49.227 92.2999,-45.9303"/>
</g>
<!-- Node2 -->
<g id="node2" class="node"><title>Node2</title>
<g id="a_node2"><a xlink:href="../../dc/d82/classPHNode.html#aca3576f926a4401eddc3d88bf0ce0de3" target="_top" xlink:title="PHNode::getName">
<polygon fill="none" stroke="black" points="160,-38.5 160,-57.5 258,-57.5 258,-38.5 160,-38.5"/>
<text text-anchor="middle" x="209" y="-45.5" font-family="FreeSans" font-size="10.00">PHNode::getName</text>
</a>
</g>
</g>
<!-- Node1&#45;&gt;Node2 -->
<g id="edge2" class="edge"><title>Node1&#45;&gt;Node2</title>
<path fill="none" stroke="midnightblue" d="M124.073,-37.0026C132.547,-38.113 141.234,-39.2514 149.656,-40.355"/>
<polygon fill="midnightblue" stroke="midnightblue" points="149.396,-43.8507 159.766,-41.6797 150.305,-36.91 149.396,-43.8507"/>
</g>
<!-- Node3 -->
<g id="node3" class="node"><title>Node3</title>
<g id="a_node3"><a xlink:href="../../dc/d82/classPHNode.html#a4ab1f90aed955a652813bfe377087bda" target="_top" xlink:title="PHNode::getType">
<polygon fill="none" stroke="black" points="162.5,-0.5 162.5,-19.5 255.5,-19.5 255.5,-0.5 162.5,-0.5"/>
<text text-anchor="middle" x="209" y="-7.5" font-family="FreeSans" font-size="10.00">PHNode::getType</text>
</a>
</g>
</g>
<!-- Node1&#45;&gt;Node3 -->
<g id="edge3" class="edge"><title>Node1&#45;&gt;Node3</title>
<path fill="none" stroke="midnightblue" d="M124.073,-20.9974C133.408,-19.7742 143.002,-18.517 152.215,-17.3098"/>
<polygon fill="midnightblue" stroke="midnightblue" points="152.961,-20.7421 162.421,-15.9724 152.051,-13.8014 152.961,-20.7421"/>
</g>
</g>
</svg>
