<?xml version="1.0" encoding="UTF-8" standalone="no"?>
<!DOCTYPE svg PUBLIC "-//W3C//DTD SVG 1.1//EN"
 "http://www.w3.org/Graphics/SVG/1.1/DTD/svg11.dtd">
<!-- Generated by graphviz version 2.36.0 (20140111.2315)
 -->
<!-- Title: PHNodeIterator::addNode Pages: 1 -->
<svg width="1148pt" height="136pt"
 viewBox="0.00 0.00 1148.00 135.80" xmlns="http://www.w3.org/2000/svg" xmlns:xlink="http://www.w3.org/1999/xlink">
<g id="graph0" class="graph" transform="scale(1 1) rotate(0) translate(4 131.803)">
<title>PHNodeIterator::addNode</title>
<!-- Node1 -->
<g id="node1" class="node"><title>Node1</title>
<polygon fill="#bfbfbf" stroke="black" points="0,-78.3025 0,-97.3025 128,-97.3025 128,-78.3025 0,-78.3025"/>
<text text-anchor="middle" x="64" y="-85.3025" font-family="FreeSans" font-size="10.00">PHNodeIterator::addNode</text>
</g>
<!-- Node2 -->
<g id="node2" class="node"><title>Node2</title>
<g id="a_node2"><a xlink:href="../../d7/ddf/classPHDataNodeIterator.html#ada64e599ccfdcb102d9fb539225bab14" target="_top" xlink:title="PHDataNodeIterator\l::AddIODataNode">
<polygon fill="none" stroke="black" points="189.5,-97.8025 189.5,-127.803 294.5,-127.803 294.5,-97.8025 189.5,-97.8025"/>
<text text-anchor="start" x="197.5" y="-115.803" font-family="FreeSans" font-size="10.00">PHDataNodeIterator</text>
<text text-anchor="middle" x="242" y="-104.803" font-family="FreeSans" font-size="10.00">::AddIODataNode</text>
</a>
</g>
</g>
<!-- Node1&#45;&gt;Node2 -->
<g id="edge1" class="edge"><title>Node1&#45;&gt;Node2</title>
<path fill="none" stroke="midnightblue" d="M138.079,-98.1831C155.314,-100.631 173.336,-103.191 189.395,-105.472"/>
<polygon fill="midnightblue" stroke="midnightblue" points="138.436,-94.6987 128.043,-96.7575 137.451,-101.629 138.436,-94.6987"/>
</g>
<!-- Node3 -->
<g id="node3" class="node"><title>Node3</title>
<g id="a_node3"><a xlink:href="../../d7/d4d/classPHNodeIOManager.html#a3882997324989c7dd04e9f6b728af7db" target="_top" xlink:title="PHNodeIOManager::reconstruct\lNodeTree">
<polygon fill="none" stroke="black" points="164.5,-48.8025 164.5,-78.8025 319.5,-78.8025 319.5,-48.8025 164.5,-48.8025"/>
<text text-anchor="start" x="172.5" y="-66.8025" font-family="FreeSans" font-size="10.00">PHNodeIOManager::reconstruct</text>
<text text-anchor="middle" x="242" y="-55.8025" font-family="FreeSans" font-size="10.00">NodeTree</text>
</a>
</g>
</g>
<!-- Node1&#45;&gt;Node3 -->
<g id="edge2" class="edge"><title>Node1&#45;&gt;Node3</title>
<path fill="none" stroke="midnightblue" d="M138.079,-77.8372C146.723,-76.6584 155.566,-75.4527 164.259,-74.2672"/>
<polygon fill="midnightblue" stroke="midnightblue" points="137.478,-74.3866 128.043,-79.2058 138.424,-81.3224 137.478,-74.3866"/>
</g>
<!-- Node4 -->
<g id="node4" class="node"><title>Node4</title>
<g id="a_node4"><a xlink:href="../../d7/d4d/classPHNodeIOManager.html#a92da4bff2438e94d469011b7720f286f" target="_top" xlink:title="PHNodeIOManager::read">
<polygon fill="none" stroke="black" points="356.5,-54.3025 356.5,-73.3025 481.5,-73.3025 481.5,-54.3025 356.5,-54.3025"/>
<text text-anchor="middle" x="419" y="-61.3025" font-family="FreeSans" font-size="10.00">PHNodeIOManager::read</text>
</a>
</g>
</g>
<!-- Node3&#45;&gt;Node4 -->
<g id="edge3" class="edge"><title>Node3&#45;&gt;Node4</title>
<path fill="none" stroke="midnightblue" d="M329.659,-63.8025C338.676,-63.8025 347.706,-63.8025 356.364,-63.8025"/>
<polygon fill="midnightblue" stroke="midnightblue" points="329.503,-60.3026 319.503,-63.8025 329.503,-67.3026 329.503,-60.3026"/>
</g>
<!-- Node5 -->
<g id="node5" class="node"><title>Node5</title>
<g id="a_node5"><a xlink:href="../../d7/d0b/classFun4AllDstInputManager.html#a4d32eadb9f77d41387656b87377ef14f" target="_top" xlink:title="Fun4AllDstInputManager\l::fileopen">
<polygon fill="none" stroke="black" points="518,-26.8025 518,-56.8025 642,-56.8025 642,-26.8025 518,-26.8025"/>
<text text-anchor="start" x="526" y="-44.8025" font-family="FreeSans" font-size="10.00">Fun4AllDstInputManager</text>
<text text-anchor="middle" x="580" y="-33.8025" font-family="FreeSans" font-size="10.00">::fileopen</text>
</a>
</g>
</g>
<!-- Node4&#45;&gt;Node5 -->
<g id="edge4" class="edge"><title>Node4&#45;&gt;Node5</title>
<path fill="none" stroke="midnightblue" d="M491.965,-53.8451C500.582,-52.6529 509.318,-51.4441 517.763,-50.2756"/>
<polygon fill="midnightblue" stroke="midnightblue" points="491.355,-50.3961 481.929,-55.2338 492.314,-57.33 491.355,-50.3961"/>
</g>
<!-- Node7 -->
<g id="node7" class="node"><title>Node7</title>
<g id="a_node7"><a xlink:href="../../d7/d0b/classFun4AllDstInputManager.html#ade26017b627e0e1f1ec0dec62ac7fd52" target="_top" xlink:title="Fun4AllDstInputManager\l::ReadNextEventSyncObject">
<polygon fill="none" stroke="black" points="839.5,-26.8025 839.5,-56.8025 978.5,-56.8025 978.5,-26.8025 839.5,-26.8025"/>
<text text-anchor="start" x="847.5" y="-44.8025" font-family="FreeSans" font-size="10.00">Fun4AllDstInputManager</text>
<text text-anchor="middle" x="909" y="-33.8025" font-family="FreeSans" font-size="10.00">::ReadNextEventSyncObject</text>
</a>
</g>
</g>
<!-- Node4&#45;&gt;Node7 -->
<g id="edge9" class="edge"><title>Node4&#45;&gt;Node7</title>
<path fill="none" stroke="midnightblue" d="M443.142,-49.0287C462.341,-37.6987 490.803,-22.987 518,-16.8025 641.08,11.1854 676.623,-2.21761 802,-16.8025 819.466,-18.8344 838.231,-22.6893 855.047,-26.7745"/>
<polygon fill="midnightblue" stroke="midnightblue" points="441.242,-46.0878 434.507,-54.2669 444.873,-52.0727 441.242,-46.0878"/>
</g>
<!-- Node8 -->
<g id="node8" class="node"><title>Node8</title>
<g id="a_node8"><a xlink:href="../../d7/d0b/classFun4AllDstInputManager.html#a0244c2edbaa2350038304b09f352c2d0" target="_top" xlink:title="Fun4AllDstInputManager\l::SyncIt">
<polygon fill="none" stroke="black" points="1016,-67.8025 1016,-97.8025 1140,-97.8025 1140,-67.8025 1016,-67.8025"/>
<text text-anchor="start" x="1024" y="-85.8025" font-family="FreeSans" font-size="10.00">Fun4AllDstInputManager</text>
<text text-anchor="middle" x="1078" y="-74.8025" font-family="FreeSans" font-size="10.00">::SyncIt</text>
</a>
</g>
</g>
<!-- Node4&#45;&gt;Node8 -->
<g id="edge11" class="edge"><title>Node4&#45;&gt;Node8</title>
<path fill="none" stroke="midnightblue" d="M465.895,-75.7143C482.237,-79.5272 500.841,-83.3833 518,-85.8025 721.494,-114.493 775.77,-127.672 980,-104.803 993.214,-103.323 1007.25,-100.743 1020.43,-97.8586"/>
<polygon fill="midnightblue" stroke="midnightblue" points="466.584,-72.2807 456.045,-73.359 464.957,-79.0887 466.584,-72.2807"/>
</g>
<!-- Node9 -->
<g id="node9" class="node"><title>Node9</title>
<g id="a_node9"><a xlink:href="../../d7/d0b/classFun4AllDstInputManager.html#aeafa0248f9050c13fdae1bcb93336d7a" target="_top" xlink:title="Fun4AllDstInputManager::run">
<polygon fill="none" stroke="black" points="838,-76.3025 838,-95.3025 980,-95.3025 980,-76.3025 838,-76.3025"/>
<text text-anchor="middle" x="909" y="-83.3025" font-family="FreeSans" font-size="10.00">Fun4AllDstInputManager::run</text>
</a>
</g>
</g>
<!-- Node4&#45;&gt;Node9 -->
<g id="edge10" class="edge"><title>Node4&#45;&gt;Node9</title>
<path fill="none" stroke="midnightblue" d="M491.961,-67.0467C584.866,-71.235 745.511,-78.4772 837.633,-82.6302"/>
<polygon fill="midnightblue" stroke="midnightblue" points="491.953,-63.5428 481.806,-66.5888 491.638,-70.5357 491.953,-63.5428"/>
</g>
<!-- Node6 -->
<g id="node6" class="node"><title>Node6</title>
<g id="a_node6"><a xlink:href="../../d7/d0b/classFun4AllDstInputManager.html#ae4e92b95ae50ab72856d06c99b043496" target="_top" xlink:title="Fun4AllDstInputManager\l::OpenNextFile">
<polygon fill="none" stroke="black" points="678,-26.8025 678,-56.8025 802,-56.8025 802,-26.8025 678,-26.8025"/>
<text text-anchor="start" x="686" y="-44.8025" font-family="FreeSans" font-size="10.00">Fun4AllDstInputManager</text>
<text text-anchor="middle" x="740" y="-33.8025" font-family="FreeSans" font-size="10.00">::OpenNextFile</text>
</a>
</g>
</g>
<!-- Node5&#45;&gt;Node6 -->
<g id="edge5" class="edge"><title>Node5&#45;&gt;Node6</title>
<path fill="none" stroke="midnightblue" d="M652.366,-41.8025C660.863,-41.8025 669.478,-41.8025 677.815,-41.8025"/>
<polygon fill="midnightblue" stroke="midnightblue" points="652.087,-38.3026 642.087,-41.8025 652.087,-45.3026 652.087,-38.3026"/>
</g>
<!-- Node6&#45;&gt;Node7 -->
<g id="edge6" class="edge"><title>Node6&#45;&gt;Node7</title>
<path fill="none" stroke="midnightblue" d="M812.291,-41.8025C821.291,-41.8025 830.483,-41.8025 839.438,-41.8025"/>
<polygon fill="midnightblue" stroke="midnightblue" points="812.236,-38.3026 802.236,-41.8025 812.236,-45.3026 812.236,-38.3026"/>
</g>
<!-- Node6&#45;&gt;Node9 -->
<g id="edge8" class="edge"><title>Node6&#45;&gt;Node9</title>
<path fill="none" stroke="midnightblue" d="M807.874,-59.4219C829.642,-65.1573 852.981,-71.3066 871.646,-76.2242"/>
<polygon fill="midnightblue" stroke="midnightblue" points="808.567,-55.9851 798.005,-56.8218 806.783,-62.7541 808.567,-55.9851"/>
</g>
<!-- Node7&#45;&gt;Node8 -->
<g id="edge7" class="edge"><title>Node7&#45;&gt;Node8</title>
<path fill="none" stroke="midnightblue" d="M981.233,-59.291C992.728,-62.113 1004.54,-65.0128 1015.77,-67.7703"/>
<polygon fill="midnightblue" stroke="midnightblue" points="981.782,-55.8219 971.236,-56.8366 980.113,-62.62 981.782,-55.8219"/>
</g>
</g>
</svg>
