<?xml version="1.0" encoding="UTF-8" standalone="no"?>
<!DOCTYPE svg PUBLIC "-//W3C//DTD SVG 1.1//EN"
 "http://www.w3.org/Graphics/SVG/1.1/DTD/svg11.dtd">
<!-- Generated by graphviz version 2.36.0 (20140111.2315)
 -->
<!-- Title: PHNodeIterator::print Pages: 1 -->
<svg width="724pt" height="115pt"
 viewBox="0.00 0.00 724.00 115.00" xmlns="http://www.w3.org/2000/svg" xmlns:xlink="http://www.w3.org/1999/xlink">
<g id="graph0" class="graph" transform="scale(1 1) rotate(0) translate(4 111)">
<title>PHNodeIterator::print</title>
<!-- Node1 -->
<g id="node1" class="node"><title>Node1</title>
<polygon fill="#bfbfbf" stroke="black" points="0,-65.5 0,-84.5 108,-84.5 108,-65.5 0,-65.5"/>
<text text-anchor="middle" x="54" y="-72.5" font-family="FreeSans" font-size="10.00">PHNodeIterator::print</text>
</g>
<!-- Node2 -->
<g id="node2" class="node"><title>Node2</title>
<g id="a_node2"><a xlink:href="../../da/d29/classFun4AllServer.html#ae1b1a243ee1a67367c8da4ec3bdc003d" target="_top" xlink:title="Fun4AllServer::Print">
<polygon fill="none" stroke="black" points="151.5,-87.5 151.5,-106.5 254.5,-106.5 254.5,-87.5 151.5,-87.5"/>
<text text-anchor="middle" x="203" y="-94.5" font-family="FreeSans" font-size="10.00">Fun4AllServer::Print</text>
</a>
</g>
</g>
<!-- Node1&#45;&gt;Node2 -->
<g id="edge1" class="edge"><title>Node1&#45;&gt;Node2</title>
<path fill="none" stroke="midnightblue" d="M118.167,-84.4535C129.292,-86.1185 140.74,-87.8318 151.462,-89.4365"/>
<polygon fill="midnightblue" stroke="midnightblue" points="118.478,-80.9613 108.07,-82.9425 117.442,-87.8842 118.478,-80.9613"/>
</g>
<!-- Node7 -->
<g id="node7" class="node"><title>Node7</title>
<g id="a_node7"><a xlink:href="../../da/d29/classFun4AllServer.html#a6a65a944dfb40966ace97d35ab1f7942" target="_top" xlink:title="Fun4AllServer::process\l_event">
<polygon fill="none" stroke="black" points="144.5,-38 144.5,-68 261.5,-68 261.5,-38 144.5,-38"/>
<text text-anchor="start" x="152.5" y="-56" font-family="FreeSans" font-size="10.00">Fun4AllServer::process</text>
<text text-anchor="middle" x="203" y="-45" font-family="FreeSans" font-size="10.00">_event</text>
</a>
</g>
</g>
<!-- Node1&#45;&gt;Node7 -->
<g id="edge6" class="edge"><title>Node1&#45;&gt;Node7</title>
<path fill="none" stroke="midnightblue" d="M118.143,-65.55C126.826,-64.2505 135.706,-62.9216 144.284,-61.6378"/>
<polygon fill="midnightblue" stroke="midnightblue" points="117.442,-62.1158 108.07,-67.0575 118.478,-69.0387 117.442,-62.1158"/>
</g>
<!-- Node3 -->
<g id="node3" class="node"><title>Node3</title>
<g id="a_node3"><a xlink:href="../../da/d29/classFun4AllServer.html#afcfc5583204cac58b4e66a2406187a18" target="_top" xlink:title="Fun4AllServer::BeginRun">
<polygon fill="none" stroke="black" points="298.5,-87.5 298.5,-106.5 423.5,-106.5 423.5,-87.5 298.5,-87.5"/>
<text text-anchor="middle" x="361" y="-94.5" font-family="FreeSans" font-size="10.00">Fun4AllServer::BeginRun</text>
</a>
</g>
</g>
<!-- Node2&#45;&gt;Node3 -->
<g id="edge2" class="edge"><title>Node2&#45;&gt;Node3</title>
<path fill="none" stroke="midnightblue" d="M264.663,-97C275.748,-97 287.325,-97 298.437,-97"/>
<polygon fill="midnightblue" stroke="midnightblue" points="264.649,-93.5001 254.649,-97 264.649,-100.5 264.649,-93.5001"/>
</g>
<!-- Node4 -->
<g id="node4" class="node"><title>Node4</title>
<g id="a_node4"><a xlink:href="../../da/d29/classFun4AllServer.html#a11bbc8b2f53bc06e0b05ee202dd6372a" target="_top" xlink:title="run n events (0 means up to end of file) ">
<polygon fill="none" stroke="black" points="460,-68.5 460,-87.5 556,-87.5 556,-68.5 460,-68.5"/>
<text text-anchor="middle" x="508" y="-75.5" font-family="FreeSans" font-size="10.00">Fun4AllServer::run</text>
</a>
</g>
</g>
<!-- Node3&#45;&gt;Node4 -->
<g id="edge3" class="edge"><title>Node3&#45;&gt;Node4</title>
<path fill="none" stroke="midnightblue" d="M434.109,-87.5512C442.823,-86.4094 451.544,-85.2667 459.769,-84.1889"/>
<polygon fill="midnightblue" stroke="midnightblue" points="433.374,-84.1175 423.914,-88.8872 434.284,-91.0582 433.374,-84.1175"/>
</g>
<!-- Node5 -->
<g id="node5" class="node"><title>Node5</title>
<g id="a_node5"><a xlink:href="../../d0/d46/Fun4__SimpleReadMySql_8C.html#a70381893748e3445abc30632beb256ce" target="_top" xlink:title="Fun4_SimpleReadMySql">
<polygon fill="none" stroke="black" points="592.5,-87.5 592.5,-106.5 715.5,-106.5 715.5,-87.5 592.5,-87.5"/>
<text text-anchor="middle" x="654" y="-94.5" font-family="FreeSans" font-size="10.00">Fun4_SimpleReadMySql</text>
</a>
</g>
</g>
<!-- Node4&#45;&gt;Node5 -->
<g id="edge4" class="edge"><title>Node4&#45;&gt;Node5</title>
<path fill="none" stroke="midnightblue" d="M566.109,-85.5352C574.736,-86.6735 583.66,-87.851 592.358,-88.9986"/>
<polygon fill="midnightblue" stroke="midnightblue" points="566.523,-82.0596 556.151,-84.2213 565.607,-88.9994 566.523,-82.0596"/>
</g>
<!-- Node6 -->
<g id="node6" class="node"><title>Node6</title>
<g id="a_node6"><a xlink:href="../../d9/d8c/Fun4ReadMySql_8C.html#a729b39fa627147c63772f28c9be36b62" target="_top" xlink:title="Fun4ReadMySql">
<polygon fill="none" stroke="black" points="610,-49.5 610,-68.5 698,-68.5 698,-49.5 610,-49.5"/>
<text text-anchor="middle" x="654" y="-56.5" font-family="FreeSans" font-size="10.00">Fun4ReadMySql</text>
</a>
</g>
</g>
<!-- Node4&#45;&gt;Node6 -->
<g id="edge5" class="edge"><title>Node4&#45;&gt;Node6</title>
<path fill="none" stroke="midnightblue" d="M566.457,-70.4189C580.854,-68.5193 596.061,-66.5128 609.643,-64.7208"/>
<polygon fill="midnightblue" stroke="midnightblue" points="565.607,-67.0006 556.151,-71.7787 566.523,-73.9404 565.607,-67.0006"/>
</g>
<!-- Node7&#45;&gt;Node4 -->
<g id="edge8" class="edge"><title>Node7&#45;&gt;Node4</title>
<path fill="none" stroke="midnightblue" d="M271.754,-58.5903C329.003,-63.3138 409.515,-69.9567 459.946,-74.1176"/>
<polygon fill="midnightblue" stroke="midnightblue" points="271.959,-55.0954 261.705,-57.7612 271.383,-62.0717 271.959,-55.0954"/>
</g>
<!-- Node8 -->
<g id="node8" class="node"><title>Node8</title>
<g id="a_node8"><a xlink:href="../../da/d29/classFun4AllServer.html#a94738b092fa009fcea45737d8ea41224" target="_top" xlink:title="Fun4AllServer::process\l_event">
<polygon fill="none" stroke="black" points="302.5,-0 302.5,-30 419.5,-30 419.5,-0 302.5,-0"/>
<text text-anchor="start" x="310.5" y="-18" font-family="FreeSans" font-size="10.00">Fun4AllServer::process</text>
<text text-anchor="middle" x="361" y="-7" font-family="FreeSans" font-size="10.00">_event</text>
</a>
</g>
</g>
<!-- Node7&#45;&gt;Node8 -->
<g id="edge7" class="edge"><title>Node7&#45;&gt;Node8</title>
<path fill="none" stroke="midnightblue" d="M271.419,-36.5775C281.718,-34.0688 292.267,-31.499 302.331,-29.0475"/>
<polygon fill="midnightblue" stroke="midnightblue" points="270.533,-33.1908 261.645,-38.9582 272.19,-39.992 270.533,-33.1908"/>
</g>
</g>
</svg>
