<?xml version="1.0" encoding="UTF-8" standalone="no"?>
<!DOCTYPE svg PUBLIC "-//W3C//DTD SVG 1.1//EN"
 "http://www.w3.org/Graphics/SVG/1.1/DTD/svg11.dtd">
<!-- Generated by graphviz version 2.36.0 (20140111.2315)
 -->
<!-- Title: PHNodeIterator::ls Pages: 1 -->
<svg width="950pt" height="136pt"
 viewBox="0.00 0.00 950.00 136.00" xmlns="http://www.w3.org/2000/svg" xmlns:xlink="http://www.w3.org/1999/xlink">
<g id="graph0" class="graph" transform="scale(1 1) rotate(0) translate(4 132)">
<title>PHNodeIterator::ls</title>
<!-- Node1 -->
<g id="node1" class="node"><title>Node1</title>
<polygon fill="#bfbfbf" stroke="black" points="0.5,-54.5 0.5,-73.5 97.5,-73.5 97.5,-54.5 0.5,-54.5"/>
<text text-anchor="middle" x="49" y="-61.5" font-family="FreeSans" font-size="10.00">PHNodeIterator::ls</text>
</g>
<!-- Node2 -->
<g id="node2" class="node"><title>Node2</title>
<g id="a_node2"><a xlink:href="../../da/d29/classFun4AllServer.html#a3654ebdcb099bcc5c820df6d4952663c" target="_top" xlink:title="Fun4AllServer::CountOutNodes\lRecursive">
<polygon fill="none" stroke="black" points="134,-98 134,-128 286,-128 286,-98 134,-98"/>
<text text-anchor="start" x="142" y="-116" font-family="FreeSans" font-size="10.00">Fun4AllServer::CountOutNodes</text>
<text text-anchor="middle" x="210" y="-105" font-family="FreeSans" font-size="10.00">Recursive</text>
</a>
</g>
</g>
<!-- Node1&#45;&gt;Node2 -->
<g id="edge1" class="edge"><title>Node1&#45;&gt;Node2</title>
<path fill="none" stroke="midnightblue" d="M90.6995,-76.5426C111.886,-83.0719 137.944,-91.1024 160.207,-97.963"/>
<polygon fill="midnightblue" stroke="midnightblue" points="91.6215,-73.1644 81.0343,-73.564 89.5599,-79.8539 91.6215,-73.1644"/>
</g>
<!-- Node9 -->
<g id="node9" class="node"><title>Node9</title>
<g id="a_node9"><a xlink:href="../../da/d29/classFun4AllServer.html#ac9e5b55796d46d41f6f0ec9e3422959a" target="_top" xlink:title="Fun4AllServer::MakeNodes\lPersistent">
<polygon fill="none" stroke="black" points="142.5,-49 142.5,-79 277.5,-79 277.5,-49 142.5,-49"/>
<text text-anchor="start" x="150.5" y="-67" font-family="FreeSans" font-size="10.00">Fun4AllServer::MakeNodes</text>
<text text-anchor="middle" x="210" y="-56" font-family="FreeSans" font-size="10.00">Persistent</text>
</a>
</g>
</g>
<!-- Node1&#45;&gt;Node9 -->
<g id="edge8" class="edge"><title>Node1&#45;&gt;Node9</title>
<path fill="none" stroke="midnightblue" d="M107.777,-64C118.965,-64 130.775,-64 142.223,-64"/>
<polygon fill="midnightblue" stroke="midnightblue" points="107.705,-60.5001 97.7052,-64 107.705,-67.5001 107.705,-60.5001"/>
</g>
<!-- Node11 -->
<g id="node11" class="node"><title>Node11</title>
<g id="a_node11"><a xlink:href="../../da/d29/classFun4AllServer.html#a92c6fe0e0c19c48d2b1f9d0f63c12bbe" target="_top" xlink:title="Fun4AllServer::MakeNodes\lTransient">
<polygon fill="none" stroke="black" points="142.5,-0 142.5,-30 277.5,-30 277.5,-0 142.5,-0"/>
<text text-anchor="start" x="150.5" y="-18" font-family="FreeSans" font-size="10.00">Fun4AllServer::MakeNodes</text>
<text text-anchor="middle" x="210" y="-7" font-family="FreeSans" font-size="10.00">Transient</text>
</a>
</g>
</g>
<!-- Node1&#45;&gt;Node11 -->
<g id="edge10" class="edge"><title>Node1&#45;&gt;Node11</title>
<path fill="none" stroke="midnightblue" d="M90.6995,-51.4574C111.886,-44.9281 137.944,-36.8976 160.207,-30.037"/>
<polygon fill="midnightblue" stroke="midnightblue" points="89.5599,-48.1461 81.0343,-54.436 91.6215,-54.8356 89.5599,-48.1461"/>
</g>
<!-- Node3 -->
<g id="node3" class="node"><title>Node3</title>
<g id="a_node3"><a xlink:href="../../da/d29/classFun4AllServer.html#a6f3f13c3a8b5c29457e694ba910296aa" target="_top" xlink:title="Fun4AllServer::CountOutNodes">
<polygon fill="none" stroke="black" points="322,-101.5 322,-120.5 474,-120.5 474,-101.5 322,-101.5"/>
<text text-anchor="middle" x="398" y="-108.5" font-family="FreeSans" font-size="10.00">Fun4AllServer::CountOutNodes</text>
</a>
</g>
</g>
<!-- Node2&#45;&gt;Node3 -->
<g id="edge2" class="edge"><title>Node2&#45;&gt;Node3</title>
<path fill="none" stroke="midnightblue" d="M296.147,-112.084C304.742,-111.992 313.426,-111.899 321.905,-111.807"/>
<polygon fill="midnightblue" stroke="midnightblue" points="296.079,-108.585 286.117,-112.192 296.154,-115.584 296.079,-108.585"/>
</g>
<!-- Node4 -->
<g id="node4" class="node"><title>Node4</title>
<g id="a_node4"><a xlink:href="../../da/d29/classFun4AllServer.html#a6a65a944dfb40966ace97d35ab1f7942" target="_top" xlink:title="Fun4AllServer::process\l_event">
<polygon fill="none" stroke="black" points="510.5,-48 510.5,-78 627.5,-78 627.5,-48 510.5,-48"/>
<text text-anchor="start" x="518.5" y="-66" font-family="FreeSans" font-size="10.00">Fun4AllServer::process</text>
<text text-anchor="middle" x="569" y="-55" font-family="FreeSans" font-size="10.00">_event</text>
</a>
</g>
</g>
<!-- Node3&#45;&gt;Node4 -->
<g id="edge3" class="edge"><title>Node3&#45;&gt;Node4</title>
<path fill="none" stroke="midnightblue" d="M442.567,-98.6261C464.659,-92.3514 491.673,-84.6787 514.966,-78.063"/>
<polygon fill="midnightblue" stroke="midnightblue" points="441.457,-95.3028 432.793,-101.402 443.369,-102.036 441.457,-95.3028"/>
</g>
<!-- Node5 -->
<g id="node5" class="node"><title>Node5</title>
<g id="a_node5"><a xlink:href="../../da/d29/classFun4AllServer.html#a94738b092fa009fcea45737d8ea41224" target="_top" xlink:title="Fun4AllServer::process\l_event">
<polygon fill="none" stroke="black" points="664.5,-70 664.5,-100 781.5,-100 781.5,-70 664.5,-70"/>
<text text-anchor="start" x="672.5" y="-88" font-family="FreeSans" font-size="10.00">Fun4AllServer::process</text>
<text text-anchor="middle" x="723" y="-77" font-family="FreeSans" font-size="10.00">_event</text>
</a>
</g>
</g>
<!-- Node4&#45;&gt;Node5 -->
<g id="edge4" class="edge"><title>Node4&#45;&gt;Node5</title>
<path fill="none" stroke="midnightblue" d="M638.072,-72.8525C646.817,-74.1183 655.704,-75.4045 664.263,-76.6433"/>
<polygon fill="midnightblue" stroke="midnightblue" points="638.297,-69.3486 627.898,-71.38 637.294,-76.2764 638.297,-69.3486"/>
</g>
<!-- Node6 -->
<g id="node6" class="node"><title>Node6</title>
<g id="a_node6"><a xlink:href="../../da/d29/classFun4AllServer.html#a11bbc8b2f53bc06e0b05ee202dd6372a" target="_top" xlink:title="run n events (0 means up to end of file) ">
<polygon fill="none" stroke="black" points="675,-31.5 675,-50.5 771,-50.5 771,-31.5 675,-31.5"/>
<text text-anchor="middle" x="723" y="-38.5" font-family="FreeSans" font-size="10.00">Fun4AllServer::run</text>
</a>
</g>
</g>
<!-- Node4&#45;&gt;Node6 -->
<g id="edge5" class="edge"><title>Node4&#45;&gt;Node6</title>
<path fill="none" stroke="midnightblue" d="M638.152,-53.1359C650.471,-51.3529 663.067,-49.5297 674.629,-47.8563"/>
<polygon fill="midnightblue" stroke="midnightblue" points="637.294,-49.7236 627.898,-54.62 638.297,-56.6514 637.294,-49.7236"/>
</g>
<!-- Node7 -->
<g id="node7" class="node"><title>Node7</title>
<g id="a_node7"><a xlink:href="../../d0/d46/Fun4__SimpleReadMySql_8C.html#a70381893748e3445abc30632beb256ce" target="_top" xlink:title="Fun4_SimpleReadMySql">
<polygon fill="none" stroke="black" points="818.5,-50.5 818.5,-69.5 941.5,-69.5 941.5,-50.5 818.5,-50.5"/>
<text text-anchor="middle" x="880" y="-57.5" font-family="FreeSans" font-size="10.00">Fun4_SimpleReadMySql</text>
</a>
</g>
</g>
<!-- Node6&#45;&gt;Node7 -->
<g id="edge6" class="edge"><title>Node6&#45;&gt;Node7</title>
<path fill="none" stroke="midnightblue" d="M781.328,-48.0273C793.441,-49.5121 806.26,-51.0835 818.487,-52.5823"/>
<polygon fill="midnightblue" stroke="midnightblue" points="781.699,-44.5467 771.347,-46.8039 780.847,-51.4947 781.699,-44.5467"/>
</g>
<!-- Node8 -->
<g id="node8" class="node"><title>Node8</title>
<g id="a_node8"><a xlink:href="../../d9/d8c/Fun4ReadMySql_8C.html#a729b39fa627147c63772f28c9be36b62" target="_top" xlink:title="Fun4ReadMySql">
<polygon fill="none" stroke="black" points="836,-12.5 836,-31.5 924,-31.5 924,-12.5 836,-12.5"/>
<text text-anchor="middle" x="880" y="-19.5" font-family="FreeSans" font-size="10.00">Fun4ReadMySql</text>
</a>
</g>
</g>
<!-- Node6&#45;&gt;Node8 -->
<g id="edge7" class="edge"><title>Node6&#45;&gt;Node8</title>
<path fill="none" stroke="midnightblue" d="M781.457,-33.9569C799.476,-31.7481 819.048,-29.349 835.898,-27.2835"/>
<polygon fill="midnightblue" stroke="midnightblue" points="780.847,-30.5054 771.347,-35.1961 781.699,-37.4533 780.847,-30.5054"/>
</g>
<!-- Node10 -->
<g id="node10" class="node"><title>Node10</title>
<g id="a_node10"><a xlink:href="../../da/daa/classFun4AllDstOutputManager.html#aa4b5b519c6db1540d03007c8c21436fc" target="_top" xlink:title="write starting from given node ">
<polygon fill="none" stroke="black" points="332.5,-47 332.5,-77 463.5,-77 463.5,-47 332.5,-47"/>
<text text-anchor="start" x="340.5" y="-65" font-family="FreeSans" font-size="10.00">Fun4AllDstOutputManager</text>
<text text-anchor="middle" x="398" y="-54" font-family="FreeSans" font-size="10.00">::Write</text>
</a>
</g>
</g>
<!-- Node9&#45;&gt;Node10 -->
<g id="edge9" class="edge"><title>Node9&#45;&gt;Node10</title>
<path fill="none" stroke="midnightblue" d="M287.781,-63.1744C302.609,-63.015 318.005,-62.8494 332.398,-62.6946"/>
<polygon fill="midnightblue" stroke="midnightblue" points="287.587,-59.6762 277.625,-63.2836 287.662,-66.6758 287.587,-59.6762"/>
</g>
<!-- Node11&#45;&gt;Node4 -->
<g id="edge11" class="edge"><title>Node11&#45;&gt;Node4</title>
<path fill="none" stroke="midnightblue" d="M287.93,-17.6561C340.629,-20.3972 411.944,-25.9221 474,-37 489.169,-39.7078 505.431,-43.7758 520.093,-47.8949"/>
<polygon fill="midnightblue" stroke="midnightblue" points="287.809,-14.1458 277.647,-17.1442 287.46,-21.1372 287.809,-14.1458"/>
</g>
<!-- Node11&#45;&gt;Node10 -->
<g id="edge12" class="edge"><title>Node11&#45;&gt;Node10</title>
<path fill="none" stroke="midnightblue" d="M280.091,-32.4585C298.975,-37.2302 319.269,-42.3584 337.563,-46.981"/>
<polygon fill="midnightblue" stroke="midnightblue" points="280.916,-29.0569 270.363,-30.0003 279.201,-35.8436 280.916,-29.0569"/>
</g>
</g>
</svg>
