<?xml version="1.0" encoding="UTF-8" standalone="no"?>
<!DOCTYPE svg PUBLIC "-//W3C//DTD SVG 1.1//EN"
 "http://www.w3.org/Graphics/SVG/1.1/DTD/svg11.dtd">
<!-- Generated by graphviz version 2.36.0 (20140111.2315)
 -->
<!-- Title: PHNodeIterator::cd Pages: 1 -->
<svg width="246pt" height="104pt"
 viewBox="0.00 0.00 246.00 104.00" xmlns="http://www.w3.org/2000/svg" xmlns:xlink="http://www.w3.org/1999/xlink">
<g id="graph0" class="graph" transform="scale(1 1) rotate(0) translate(4 100)">
<title>PHNodeIterator::cd</title>
<!-- Node1 -->
<g id="node1" class="node"><title>Node1</title>
<polygon fill="#bfbfbf" stroke="black" points="0,-38.5 0,-57.5 100,-57.5 100,-38.5 0,-38.5"/>
<text text-anchor="middle" x="50" y="-45.5" font-family="FreeSans" font-size="10.00">PHNodeIterator::cd</text>
</g>
<!-- Node2 -->
<g id="node2" class="node"><title>Node2</title>
<g id="a_node2"><a xlink:href="../../dc/d82/classPHNode.html#aca3576f926a4401eddc3d88bf0ce0de3" target="_top" xlink:title="PHNode::getName">
<polygon fill="none" stroke="black" points="138,-76.5 138,-95.5 236,-95.5 236,-76.5 138,-76.5"/>
<text text-anchor="middle" x="187" y="-83.5" font-family="FreeSans" font-size="10.00">PHNode::getName</text>
</a>
</g>
</g>
<!-- Node1&#45;&gt;Node2 -->
<g id="edge1" class="edge"><title>Node1&#45;&gt;Node2</title>
<path fill="none" stroke="midnightblue" d="M85.0662,-57.589C102.413,-62.4719 123.702,-68.4643 142.249,-73.685"/>
<polygon fill="midnightblue" stroke="midnightblue" points="141.37,-77.0735 151.945,-76.4141 143.267,-70.3354 141.37,-77.0735"/>
</g>
<!-- Node3 -->
<g id="node3" class="node"><title>Node3</title>
<g id="a_node3"><a xlink:href="../../dc/d82/classPHNode.html#a5c15cb20d02290b69eb4d7f6051c9722" target="_top" xlink:title="PHNode::getParent">
<polygon fill="none" stroke="black" points="136.5,-38.5 136.5,-57.5 237.5,-57.5 237.5,-38.5 136.5,-38.5"/>
<text text-anchor="middle" x="187" y="-45.5" font-family="FreeSans" font-size="10.00">PHNode::getParent</text>
</a>
</g>
</g>
<!-- Node1&#45;&gt;Node3 -->
<g id="edge2" class="edge"><title>Node1&#45;&gt;Node3</title>
<path fill="none" stroke="midnightblue" d="M100.12,-48C108.573,-48 117.443,-48 126.141,-48"/>
<polygon fill="midnightblue" stroke="midnightblue" points="126.237,-51.5001 136.237,-48 126.237,-44.5001 126.237,-51.5001"/>
</g>
<!-- Node4 -->
<g id="node4" class="node"><title>Node4</title>
<g id="a_node4"><a xlink:href="../../dc/d82/classPHNode.html#a4ab1f90aed955a652813bfe377087bda" target="_top" xlink:title="PHNode::getType">
<polygon fill="none" stroke="black" points="140.5,-0.5 140.5,-19.5 233.5,-19.5 233.5,-0.5 140.5,-0.5"/>
<text text-anchor="middle" x="187" y="-7.5" font-family="FreeSans" font-size="10.00">PHNode::getType</text>
</a>
</g>
</g>
<!-- Node1&#45;&gt;Node4 -->
<g id="edge3" class="edge"><title>Node1&#45;&gt;Node4</title>
<path fill="none" stroke="midnightblue" d="M85.0662,-38.411C102.413,-33.5281 123.702,-27.5357 142.249,-22.315"/>
<polygon fill="midnightblue" stroke="midnightblue" points="143.267,-25.6646 151.945,-19.5859 141.37,-18.9265 143.267,-25.6646"/>
</g>
</g>
</svg>
