<?xml version="1.0" encoding="UTF-8" standalone="no"?>
<!DOCTYPE svg PUBLIC "-//W3C//DTD SVG 1.1//EN"
 "http://www.w3.org/Graphics/SVG/1.1/DTD/svg11.dtd">
<!-- Generated by graphviz version 2.36.0 (20140111.2315)
 -->
<!-- Title: PHNodeIterator::ls Pages: 1 -->
<svg width="256pt" height="66pt"
 viewBox="0.00 0.00 256.00 66.00" xmlns="http://www.w3.org/2000/svg" xmlns:xlink="http://www.w3.org/1999/xlink">
<g id="graph0" class="graph" transform="scale(1 1) rotate(0) translate(4 62)">
<title>PHNodeIterator::ls</title>
<!-- Node1 -->
<g id="node1" class="node"><title>Node1</title>
<polygon fill="#bfbfbf" stroke="black" points="0.5,-19.5 0.5,-38.5 97.5,-38.5 97.5,-19.5 0.5,-19.5"/>
<text text-anchor="middle" x="49" y="-26.5" font-family="FreeSans" font-size="10.00">PHNodeIterator::ls</text>
</g>
<!-- Node2 -->
<g id="node2" class="node"><title>Node2</title>
<g id="a_node2"><a xlink:href="../../d6/d86/classPHPointerList.html#af5fc4e6958b5b90c57bfb497566f503c" target="_top" xlink:title="PHPointerList::append">
<polygon fill="none" stroke="black" points="134,-38.5 134,-57.5 248,-57.5 248,-38.5 134,-38.5"/>
<text text-anchor="middle" x="191" y="-45.5" font-family="FreeSans" font-size="10.00">PHPointerList::append</text>
</a>
</g>
</g>
<!-- Node1&#45;&gt;Node2 -->
<g id="edge1" class="edge"><title>Node1&#45;&gt;Node2</title>
<path fill="none" stroke="midnightblue" d="M97.7885,-35.4856C106.101,-36.6137 114.879,-37.8051 123.584,-38.9864"/>
<polygon fill="midnightblue" stroke="midnightblue" points="123.356,-42.4875 133.736,-40.3641 124.297,-35.551 123.356,-42.4875"/>
</g>
<!-- Node3 -->
<g id="node3" class="node"><title>Node3</title>
<g id="a_node3"><a xlink:href="../../d6/d86/classPHPointerList.html#a560c9339d74f28f604d07dcb10a2e0be" target="_top" xlink:title="PHPointerList::clear">
<polygon fill="none" stroke="black" points="139,-0.5 139,-19.5 243,-19.5 243,-0.5 139,-0.5"/>
<text text-anchor="middle" x="191" y="-7.5" font-family="FreeSans" font-size="10.00">PHPointerList::clear</text>
</a>
</g>
</g>
<!-- Node1&#45;&gt;Node3 -->
<g id="edge2" class="edge"><title>Node1&#45;&gt;Node3</title>
<path fill="none" stroke="midnightblue" d="M97.7885,-22.5144C107.65,-21.176 118.169,-19.7485 128.441,-18.3545"/>
<polygon fill="midnightblue" stroke="midnightblue" points="129.159,-21.7892 138.597,-16.9761 128.218,-14.8528 129.159,-21.7892"/>
</g>
</g>
</svg>
