<?xml version="1.0" encoding="UTF-8" standalone="no"?>
<!DOCTYPE svg PUBLIC "-//W3C//DTD SVG 1.1//EN"
 "http://www.w3.org/Graphics/SVG/1.1/DTD/svg11.dtd">
<!-- Generated by graphviz version 2.36.0 (20140111.2315)
 -->
<!-- Title: PHNodeIterator::forEach Pages: 1 -->
<svg width="786pt" height="107pt"
 viewBox="0.00 0.00 786.00 107.00" xmlns="http://www.w3.org/2000/svg" xmlns:xlink="http://www.w3.org/1999/xlink">
<g id="graph0" class="graph" transform="scale(1 1) rotate(0) translate(4 103)">
<title>PHNodeIterator::forEach</title>
<!-- Node1 -->
<g id="node1" class="node"><title>Node1</title>
<polygon fill="#bfbfbf" stroke="black" points="0,-60.5 0,-79.5 122,-79.5 122,-60.5 0,-60.5"/>
<text text-anchor="middle" x="61" y="-67.5" font-family="FreeSans" font-size="10.00">PHNodeIterator::forEach</text>
</g>
<!-- Node1&#45;&gt;Node1 -->
<g id="edge2" class="edge"><title>Node1&#45;&gt;Node1</title>
<path fill="none" stroke="midnightblue" d="M28.8144,-88.2746C29.732,-93.741 40.4606,-98 61,-98 91.5703,-98 100.407,-88.5653 87.5102,-79.7571"/>
<polygon fill="midnightblue" stroke="midnightblue" points="31.8574,-90.0197 34.4898,-79.7571 26.0321,-86.1381 31.8574,-90.0197"/>
</g>
<!-- Node2 -->
<g id="node2" class="node"><title>Node2</title>
<g id="a_node2"><a xlink:href="../../d5/d07/classPHNodeIterator.html#a07cdbcfd300706ffa96c5b5860b35c43" target="_top" xlink:title="PHNodeIterator::for_each">
<polygon fill="none" stroke="black" points="170.5,-79.5 170.5,-98.5 297.5,-98.5 297.5,-79.5 170.5,-79.5"/>
<text text-anchor="middle" x="234" y="-86.5" font-family="FreeSans" font-size="10.00">PHNodeIterator::for_each</text>
</a>
</g>
</g>
<!-- Node1&#45;&gt;Node2 -->
<g id="edge1" class="edge"><title>Node1&#45;&gt;Node2</title>
<path fill="none" stroke="midnightblue" d="M132.287,-77.8097C144.905,-79.2117 157.979,-80.6644 170.363,-82.0404"/>
<polygon fill="midnightblue" stroke="midnightblue" points="132.614,-74.3245 122.288,-76.6987 131.84,-81.2817 132.614,-74.3245"/>
</g>
<!-- Node3 -->
<g id="node3" class="node"><title>Node3</title>
<g id="a_node3"><a xlink:href="../../da/d29/classFun4AllServer.html#ab2479a9a3e45d51118e308597acd5228" target="_top" xlink:title="Fun4AllServer::ResetNodeTree">
<polygon fill="none" stroke="black" points="158.5,-41.5 158.5,-60.5 309.5,-60.5 309.5,-41.5 158.5,-41.5"/>
<text text-anchor="middle" x="234" y="-48.5" font-family="FreeSans" font-size="10.00">Fun4AllServer::ResetNodeTree</text>
</a>
</g>
</g>
<!-- Node1&#45;&gt;Node3 -->
<g id="edge3" class="edge"><title>Node1&#45;&gt;Node3</title>
<path fill="none" stroke="midnightblue" d="M132.246,-62.1949C140.83,-61.2412 149.625,-60.2638 158.272,-59.3031"/>
<polygon fill="midnightblue" stroke="midnightblue" points="131.84,-58.7183 122.288,-63.3013 132.614,-65.6755 131.84,-58.7183"/>
</g>
<!-- Node4 -->
<g id="node4" class="node"><title>Node4</title>
<g id="a_node4"><a xlink:href="../../da/d29/classFun4AllServer.html#a6a65a944dfb40966ace97d35ab1f7942" target="_top" xlink:title="Fun4AllServer::process\l_event">
<polygon fill="none" stroke="black" points="346.5,-58 346.5,-88 463.5,-88 463.5,-58 346.5,-58"/>
<text text-anchor="start" x="354.5" y="-76" font-family="FreeSans" font-size="10.00">Fun4AllServer::process</text>
<text text-anchor="middle" x="405" y="-65" font-family="FreeSans" font-size="10.00">_event</text>
</a>
</g>
</g>
<!-- Node3&#45;&gt;Node4 -->
<g id="edge4" class="edge"><title>Node3&#45;&gt;Node4</title>
<path fill="none" stroke="midnightblue" d="M318.361,-61.8517C327.804,-63.081 337.267,-64.3128 346.276,-65.4857"/>
<polygon fill="midnightblue" stroke="midnightblue" points="318.511,-58.3418 308.143,-60.5216 317.607,-65.2833 318.511,-58.3418"/>
</g>
<!-- Node6 -->
<g id="node6" class="node"><title>Node6</title>
<g id="a_node6"><a xlink:href="../../da/d29/classFun4AllServer.html#a11bbc8b2f53bc06e0b05ee202dd6372a" target="_top" xlink:title="run n events (0 means up to end of file) ">
<polygon fill="none" stroke="black" points="511,-19.5 511,-38.5 607,-38.5 607,-19.5 511,-19.5"/>
<text text-anchor="middle" x="559" y="-26.5" font-family="FreeSans" font-size="10.00">Fun4AllServer::run</text>
</a>
</g>
</g>
<!-- Node3&#45;&gt;Node6 -->
<g id="edge9" class="edge"><title>Node3&#45;&gt;Node6</title>
<path fill="none" stroke="midnightblue" d="M319.518,-45.2433C380.574,-41.0848 460.79,-35.6211 510.869,-32.2102"/>
<polygon fill="midnightblue" stroke="midnightblue" points="319.247,-41.7536 309.508,-45.9251 319.723,-48.7374 319.247,-41.7536"/>
</g>
<!-- Node5 -->
<g id="node5" class="node"><title>Node5</title>
<g id="a_node5"><a xlink:href="../../da/d29/classFun4AllServer.html#a94738b092fa009fcea45737d8ea41224" target="_top" xlink:title="Fun4AllServer::process\l_event">
<polygon fill="none" stroke="black" points="500.5,-58 500.5,-88 617.5,-88 617.5,-58 500.5,-58"/>
<text text-anchor="start" x="508.5" y="-76" font-family="FreeSans" font-size="10.00">Fun4AllServer::process</text>
<text text-anchor="middle" x="559" y="-65" font-family="FreeSans" font-size="10.00">_event</text>
</a>
</g>
</g>
<!-- Node4&#45;&gt;Node5 -->
<g id="edge5" class="edge"><title>Node4&#45;&gt;Node5</title>
<path fill="none" stroke="midnightblue" d="M474.072,-73C482.817,-73 491.704,-73 500.263,-73"/>
<polygon fill="midnightblue" stroke="midnightblue" points="473.898,-69.5001 463.898,-73 473.898,-76.5001 473.898,-69.5001"/>
</g>
<!-- Node4&#45;&gt;Node6 -->
<g id="edge6" class="edge"><title>Node4&#45;&gt;Node6</title>
<path fill="none" stroke="midnightblue" d="M467.671,-55.1479C487.253,-49.4793 508.153,-43.4295 524.911,-38.5783"/>
<polygon fill="midnightblue" stroke="midnightblue" points="466.517,-51.8381 457.885,-57.9808 468.464,-58.5621 466.517,-51.8381"/>
</g>
<!-- Node7 -->
<g id="node7" class="node"><title>Node7</title>
<g id="a_node7"><a xlink:href="../../d0/d46/Fun4__SimpleReadMySql_8C.html#a70381893748e3445abc30632beb256ce" target="_top" xlink:title="Fun4_SimpleReadMySql">
<polygon fill="none" stroke="black" points="654.5,-38.5 654.5,-57.5 777.5,-57.5 777.5,-38.5 654.5,-38.5"/>
<text text-anchor="middle" x="716" y="-45.5" font-family="FreeSans" font-size="10.00">Fun4_SimpleReadMySql</text>
</a>
</g>
</g>
<!-- Node6&#45;&gt;Node7 -->
<g id="edge7" class="edge"><title>Node6&#45;&gt;Node7</title>
<path fill="none" stroke="midnightblue" d="M617.328,-36.0273C629.441,-37.5121 642.26,-39.0835 654.487,-40.5823"/>
<polygon fill="midnightblue" stroke="midnightblue" points="617.699,-32.5467 607.347,-34.8039 616.847,-39.4947 617.699,-32.5467"/>
</g>
<!-- Node8 -->
<g id="node8" class="node"><title>Node8</title>
<g id="a_node8"><a xlink:href="../../d9/d8c/Fun4ReadMySql_8C.html#a729b39fa627147c63772f28c9be36b62" target="_top" xlink:title="Fun4ReadMySql">
<polygon fill="none" stroke="black" points="672,-0.5 672,-19.5 760,-19.5 760,-0.5 672,-0.5"/>
<text text-anchor="middle" x="716" y="-7.5" font-family="FreeSans" font-size="10.00">Fun4ReadMySql</text>
</a>
</g>
</g>
<!-- Node6&#45;&gt;Node8 -->
<g id="edge8" class="edge"><title>Node6&#45;&gt;Node8</title>
<path fill="none" stroke="midnightblue" d="M617.457,-21.9569C635.476,-19.7481 655.048,-17.349 671.898,-15.2835"/>
<polygon fill="midnightblue" stroke="midnightblue" points="616.847,-18.5054 607.347,-23.1961 617.699,-25.4533 616.847,-18.5054"/>
</g>
</g>
</svg>
