<?xml version="1.0" encoding="UTF-8" standalone="no"?>
<!DOCTYPE svg PUBLIC "-//W3C//DTD SVG 1.1//EN"
 "http://www.w3.org/Graphics/SVG/1.1/DTD/svg11.dtd">
<!-- Generated by graphviz version 2.36.0 (20140111.2315)
 -->
<!-- Title: PHNodeIterator::findFirst Pages: 1 -->
<svg width="1164pt" height="573pt"
 viewBox="0.00 0.00 1164.00 573.01" xmlns="http://www.w3.org/2000/svg" xmlns:xlink="http://www.w3.org/1999/xlink">
<g id="graph0" class="graph" transform="scale(1 1) rotate(0) translate(4 569.011)">
<title>PHNodeIterator::findFirst</title>
<!-- Node1 -->
<g id="node1" class="node"><title>Node1</title>
<polygon fill="#bfbfbf" stroke="black" points="0,-263.5 0,-282.5 124,-282.5 124,-263.5 0,-263.5"/>
<text text-anchor="middle" x="62" y="-270.5" font-family="FreeSans" font-size="10.00">PHNodeIterator::findFirst</text>
</g>
<!-- Node1&#45;&gt;Node1 -->
<g id="edge4" class="edge"><title>Node1&#45;&gt;Node1</title>
<path fill="none" stroke="midnightblue" d="M29.0166,-290.891C29.4997,-296.541 40.4941,-301 62,-301 93.2812,-301 102.323,-291.565 89.1267,-282.757"/>
<polygon fill="midnightblue" stroke="midnightblue" points="31.8706,-292.917 34.8733,-282.757 26.1898,-288.827 31.8706,-292.917"/>
</g>
<!-- Node2 -->
<g id="node2" class="node"><title>Node2</title>
<g id="a_node2"><a xlink:href="../../da/d29/classFun4AllServer.html#ab7263450319ca1d5029209fde26a7af8" target="_top" xlink:title="Fun4AllServer::End">
<polygon fill="none" stroke="black" points="375.5,-537.5 375.5,-556.5 474.5,-556.5 474.5,-537.5 375.5,-537.5"/>
<text text-anchor="middle" x="425" y="-544.5" font-family="FreeSans" font-size="10.00">Fun4AllServer::End</text>
</a>
</g>
</g>
<!-- Node1&#45;&gt;Node2 -->
<g id="edge1" class="edge"><title>Node1&#45;&gt;Node2</title>
<path fill="none" stroke="midnightblue" d="M63.8196,-292.959C67.0243,-342.152 82.7576,-469.393 160,-527 224.849,-575.364 325.312,-566.681 381.768,-556.53"/>
<polygon fill="midnightblue" stroke="midnightblue" points="67.3003,-292.505 63.2652,-282.709 60.3105,-292.883 67.3003,-292.505"/>
</g>
<!-- Node5 -->
<g id="node5" class="node"><title>Node5</title>
<g id="a_node5"><a xlink:href="../../d7/ddf/classPHDataNodeIterator.html#ae27304781fe696bd4aec95829c076cfc" target="_top" xlink:title="PHDataNodeIterator\l::FindIODataNode">
<polygon fill="none" stroke="black" points="185.5,-439 185.5,-469 290.5,-469 290.5,-439 185.5,-439"/>
<text text-anchor="start" x="193.5" y="-457" font-family="FreeSans" font-size="10.00">PHDataNodeIterator</text>
<text text-anchor="middle" x="238" y="-446" font-family="FreeSans" font-size="10.00">::FindIODataNode</text>
</a>
</g>
</g>
<!-- Node1&#45;&gt;Node5 -->
<g id="edge5" class="edge"><title>Node1&#45;&gt;Node5</title>
<path fill="none" stroke="midnightblue" d="M69.9492,-292.469C82.6797,-325.394 112.847,-392.084 160,-429 167.415,-434.805 176.223,-439.284 185.187,-442.733"/>
<polygon fill="midnightblue" stroke="midnightblue" points="73.0754,-290.835 66.301,-282.689 66.5169,-293.282 73.0754,-290.835"/>
</g>
<!-- Node6 -->
<g id="node6" class="node"><title>Node6</title>
<g id="a_node6"><a xlink:href="../../da/dd8/classFun4AllPrdfInputManager.html#a36fdaca3254cbb07a00af64b10488385" target="_top" xlink:title="Fun4AllPrdfInputManager\l::Fun4AllPrdfInputManager">
<polygon fill="none" stroke="black" points="172.5,-390 172.5,-420 303.5,-420 303.5,-390 172.5,-390"/>
<text text-anchor="start" x="180.5" y="-408" font-family="FreeSans" font-size="10.00">Fun4AllPrdfInputManager</text>
<text text-anchor="middle" x="238" y="-397" font-family="FreeSans" font-size="10.00">::Fun4AllPrdfInputManager</text>
</a>
</g>
</g>
<!-- Node1&#45;&gt;Node6 -->
<g id="edge6" class="edge"><title>Node1&#45;&gt;Node6</title>
<path fill="none" stroke="midnightblue" d="M74.7316,-290.924C91.1105,-314.597 123.014,-356.076 160,-380 165.901,-383.817 172.434,-387.096 179.127,-389.903"/>
<polygon fill="midnightblue" stroke="midnightblue" points="77.5526,-288.848 69.0541,-282.521 71.7523,-292.767 77.5526,-288.848"/>
</g>
<!-- Node7 -->
<g id="node7" class="node"><title>Node7</title>
<g id="a_node7"><a xlink:href="../../da/dc3/namespacefindNode.html#af4793f47e215cb6b0d51e0a9303a4382" target="_top" xlink:title="findNode::getClass">
<polygon fill="none" stroke="black" points="189,-351.5 189,-370.5 287,-370.5 287,-351.5 189,-351.5"/>
<text text-anchor="middle" x="238" y="-358.5" font-family="FreeSans" font-size="10.00">findNode::getClass</text>
</a>
</g>
</g>
<!-- Node1&#45;&gt;Node7 -->
<g id="edge7" class="edge"><title>Node1&#45;&gt;Node7</title>
<path fill="none" stroke="midnightblue" d="M81.5469,-289.072C100.201,-304.464 130.371,-327.312 160,-341 169.153,-345.228 179.347,-348.672 189.244,-351.434"/>
<polygon fill="midnightblue" stroke="midnightblue" points="83.7363,-286.34 73.8295,-282.584 79.232,-291.698 83.7363,-286.34"/>
</g>
<!-- Node8 -->
<g id="node8" class="node"><title>Node8</title>
<g id="a_node8"><a xlink:href="../../da/d29/classFun4AllServer.html#ac42fd391b795d9605811abb9394c2011" target="_top" xlink:title="Fun4AllServer::getNode">
<polygon fill="none" stroke="black" points="365.5,-263.5 365.5,-282.5 484.5,-282.5 484.5,-263.5 365.5,-263.5"/>
<text text-anchor="middle" x="425" y="-270.5" font-family="FreeSans" font-size="10.00">Fun4AllServer::getNode</text>
</a>
</g>
</g>
<!-- Node1&#45;&gt;Node8 -->
<g id="edge8" class="edge"><title>Node1&#45;&gt;Node8</title>
<path fill="none" stroke="midnightblue" d="M134.388,-273C202.031,-273 302.398,-273 365.457,-273"/>
<polygon fill="midnightblue" stroke="midnightblue" points="134.239,-269.5 124.239,-273 134.239,-276.5 134.239,-269.5"/>
</g>
<!-- Node14 -->
<g id="node14" class="node"><title>Node14</title>
<g id="a_node14"><a xlink:href="../../d6/dc8/classFun4AllPrdfOutputManager.html#a1d891012ff50062628d053f825426c80" target="_top" xlink:title="PRDF node initialization [class specific method]. ">
<polygon fill="none" stroke="black" points="171,-214 171,-244 305,-244 305,-214 171,-214"/>
<text text-anchor="start" x="179" y="-232" font-family="FreeSans" font-size="10.00">Fun4AllPrdfOutputManager</text>
<text text-anchor="middle" x="238" y="-221" font-family="FreeSans" font-size="10.00">::InitPrdfNode</text>
</a>
</g>
</g>
<!-- Node1&#45;&gt;Node14 -->
<g id="edge14" class="edge"><title>Node1&#45;&gt;Node14</title>
<path fill="none" stroke="midnightblue" d="M110.558,-260.974C131.197,-255.755 155.593,-249.586 177.423,-244.065"/>
<polygon fill="midnightblue" stroke="midnightblue" points="109.592,-257.608 100.755,-263.453 111.308,-264.394 109.592,-257.608"/>
</g>
<!-- Node15 -->
<g id="node15" class="node"><title>Node15</title>
<g id="a_node15"><a xlink:href="../../d0/d68/classSimpleReadMySql.html#a650a5f65ee1634450425061b781ec942" target="_top" xlink:title="SimpleReadMySql::MakeNodes">
<polygon fill="none" stroke="black" points="161.5,-175.5 161.5,-194.5 314.5,-194.5 314.5,-175.5 161.5,-175.5"/>
<text text-anchor="middle" x="238" y="-182.5" font-family="FreeSans" font-size="10.00">SimpleReadMySql::MakeNodes</text>
</a>
</g>
</g>
<!-- Node1&#45;&gt;Node15 -->
<g id="edge15" class="edge"><title>Node1&#45;&gt;Node15</title>
<path fill="none" stroke="midnightblue" d="M81.5469,-256.928C100.201,-241.536 130.371,-218.688 160,-205 169.153,-200.772 179.347,-197.328 189.244,-194.566"/>
<polygon fill="midnightblue" stroke="midnightblue" points="79.232,-254.302 73.8295,-263.416 83.7363,-259.66 79.232,-254.302"/>
</g>
<!-- Node17 -->
<g id="node17" class="node"><title>Node17</title>
<g id="a_node17"><a xlink:href="../../db/dda/classReadMySql.html#a893da68c47d48aaa94b6a6befdb4ab85" target="_top" xlink:title="ReadMySql::MakeNodes">
<polygon fill="none" stroke="black" points="176.5,-137.5 176.5,-156.5 299.5,-156.5 299.5,-137.5 176.5,-137.5"/>
<text text-anchor="middle" x="238" y="-144.5" font-family="FreeSans" font-size="10.00">ReadMySql::MakeNodes</text>
</a>
</g>
</g>
<!-- Node1&#45;&gt;Node17 -->
<g id="edge17" class="edge"><title>Node1&#45;&gt;Node17</title>
<path fill="none" stroke="midnightblue" d="M74.4843,-254.678C90.5851,-230.558 122.177,-188.577 160,-166 166.503,-162.118 173.765,-159.028 181.161,-156.567"/>
<polygon fill="midnightblue" stroke="midnightblue" points="71.4268,-252.96 68.9131,-263.252 77.2965,-256.774 71.4268,-252.96"/>
</g>
<!-- Node19 -->
<g id="node19" class="node"><title>Node19</title>
<g id="a_node19"><a xlink:href="../../da/d29/classFun4AllServer.html#a6a65a944dfb40966ace97d35ab1f7942" target="_top" xlink:title="Fun4AllServer::process\l_event">
<polygon fill="none" stroke="black" points="179.5,-488 179.5,-518 296.5,-518 296.5,-488 179.5,-488"/>
<text text-anchor="start" x="187.5" y="-506" font-family="FreeSans" font-size="10.00">Fun4AllServer::process</text>
<text text-anchor="middle" x="238" y="-495" font-family="FreeSans" font-size="10.00">_event</text>
</a>
</g>
</g>
<!-- Node1&#45;&gt;Node19 -->
<g id="edge19" class="edge"><title>Node1&#45;&gt;Node19</title>
<path fill="none" stroke="midnightblue" d="M66.8659,-292.779C75.8385,-333.445 101.898,-426.897 160,-478 165.699,-483.012 172.42,-487.023 179.478,-490.23"/>
<polygon fill="midnightblue" stroke="midnightblue" points="70.2494,-291.86 64.7759,-282.788 63.3978,-293.293 70.2494,-291.86"/>
</g>
<!-- Node22 -->
<g id="node22" class="node"><title>Node22</title>
<g id="a_node22"><a xlink:href="../../d7/d4d/classPHNodeIOManager.html#a3882997324989c7dd04e9f6b728af7db" target="_top" xlink:title="PHNodeIOManager::reconstruct\lNodeTree">
<polygon fill="none" stroke="black" points="160.5,-302 160.5,-332 315.5,-332 315.5,-302 160.5,-302"/>
<text text-anchor="start" x="168.5" y="-320" font-family="FreeSans" font-size="10.00">PHNodeIOManager::reconstruct</text>
<text text-anchor="middle" x="238" y="-309" font-family="FreeSans" font-size="10.00">NodeTree</text>
</a>
</g>
</g>
<!-- Node1&#45;&gt;Node22 -->
<g id="edge24" class="edge"><title>Node1&#45;&gt;Node22</title>
<path fill="none" stroke="midnightblue" d="M110.558,-285.026C131.197,-290.245 155.593,-296.414 177.423,-301.935"/>
<polygon fill="midnightblue" stroke="midnightblue" points="111.308,-281.606 100.755,-282.547 109.592,-288.392 111.308,-281.606"/>
</g>
<!-- Node24 -->
<g id="node24" class="node"><title>Node24</title>
<g id="a_node24"><a xlink:href="../../da/dd8/classFun4AllPrdfInputManager.html#a4d3e00664417e9198d9fab5d4c336f97" target="_top" xlink:title="Fun4AllPrdfInputManager\l::ResetEvent">
<polygon fill="none" stroke="black" points="174.5,-88 174.5,-118 301.5,-118 301.5,-88 174.5,-88"/>
<text text-anchor="start" x="182.5" y="-106" font-family="FreeSans" font-size="10.00">Fun4AllPrdfInputManager</text>
<text text-anchor="middle" x="238" y="-95" font-family="FreeSans" font-size="10.00">::ResetEvent</text>
</a>
</g>
</g>
<!-- Node1&#45;&gt;Node24 -->
<g id="edge30" class="edge"><title>Node1&#45;&gt;Node24</title>
<path fill="none" stroke="midnightblue" d="M70.7186,-254.016C84.2315,-223.114 115.076,-161.979 160,-128 165.044,-124.185 170.694,-120.938 176.582,-118.178"/>
<polygon fill="midnightblue" stroke="midnightblue" points="67.4832,-252.68 66.8051,-263.254 73.9287,-255.411 67.4832,-252.68"/>
</g>
<!-- Node25 -->
<g id="node25" class="node"><title>Node25</title>
<g id="a_node25"><a xlink:href="../../da/dd8/classFun4AllPrdfInputManager.html#ac3f313ef5571ce32cd40799791e2ea56" target="_top" xlink:title="Fun4AllPrdfInputManager::run">
<polygon fill="none" stroke="black" points="352.5,-71.5 352.5,-90.5 497.5,-90.5 497.5,-71.5 352.5,-71.5"/>
<text text-anchor="middle" x="425" y="-78.5" font-family="FreeSans" font-size="10.00">Fun4AllPrdfInputManager::run</text>
</a>
</g>
</g>
<!-- Node1&#45;&gt;Node25 -->
<g id="edge32" class="edge"><title>Node1&#45;&gt;Node25</title>
<path fill="none" stroke="midnightblue" d="M65.9771,-253.325C73.3682,-212.276 96.7566,-118.087 160,-79 233.885,-33.3368 343.043,-56.3724 394.769,-71.4214"/>
<polygon fill="midnightblue" stroke="midnightblue" points="62.4891,-252.964 64.2969,-263.403 69.3938,-254.115 62.4891,-252.964"/>
</g>
<!-- Node26 -->
<g id="node26" class="node"><title>Node26</title>
<g id="a_node26"><a xlink:href="../../da/daa/classFun4AllDstOutputManager.html#aa4b5b519c6db1540d03007c8c21436fc" target="_top" xlink:title="write starting from given node ">
<polygon fill="none" stroke="black" points="172.5,-0 172.5,-30 303.5,-30 303.5,-0 172.5,-0"/>
<text text-anchor="start" x="180.5" y="-18" font-family="FreeSans" font-size="10.00">Fun4AllDstOutputManager</text>
<text text-anchor="middle" x="238" y="-7" font-family="FreeSans" font-size="10.00">::Write</text>
</a>
</g>
</g>
<!-- Node1&#45;&gt;Node26 -->
<g id="edge33" class="edge"><title>Node1&#45;&gt;Node26</title>
<path fill="none" stroke="midnightblue" d="M66.0718,-253.395C73.8673,-209.966 98.3543,-104.78 160,-45 166.283,-38.9075 173.943,-34.0151 181.968,-30.0968"/>
<polygon fill="midnightblue" stroke="midnightblue" points="62.6198,-252.818 64.402,-263.262 69.5217,-253.986 62.6198,-252.818"/>
</g>
<!-- Node3 -->
<g id="node3" class="node"><title>Node3</title>
<g id="a_node3"><a xlink:href="../../d0/d46/Fun4__SimpleReadMySql_8C.html#a70381893748e3445abc30632beb256ce" target="_top" xlink:title="Fun4_SimpleReadMySql">
<polygon fill="none" stroke="black" points="534.5,-537.5 534.5,-556.5 657.5,-556.5 657.5,-537.5 534.5,-537.5"/>
<text text-anchor="middle" x="596" y="-544.5" font-family="FreeSans" font-size="10.00">Fun4_SimpleReadMySql</text>
</a>
</g>
</g>
<!-- Node2&#45;&gt;Node3 -->
<g id="edge2" class="edge"><title>Node2&#45;&gt;Node3</title>
<path fill="none" stroke="midnightblue" d="M485.11,-547C501.006,-547 518.222,-547 534.207,-547"/>
<polygon fill="midnightblue" stroke="midnightblue" points="484.882,-543.5 474.882,-547 484.882,-550.5 484.882,-543.5"/>
</g>
<!-- Node4 -->
<g id="node4" class="node"><title>Node4</title>
<g id="a_node4"><a xlink:href="../../d9/d8c/Fun4ReadMySql_8C.html#a729b39fa627147c63772f28c9be36b62" target="_top" xlink:title="Fun4ReadMySql">
<polygon fill="none" stroke="black" points="552,-499.5 552,-518.5 640,-518.5 640,-499.5 552,-499.5"/>
<text text-anchor="middle" x="596" y="-506.5" font-family="FreeSans" font-size="10.00">Fun4ReadMySql</text>
</a>
</g>
</g>
<!-- Node2&#45;&gt;Node4 -->
<g id="edge3" class="edge"><title>Node2&#45;&gt;Node4</title>
<path fill="none" stroke="midnightblue" d="M478.587,-535.176C502.413,-529.818 530.207,-523.569 552.661,-518.52"/>
<polygon fill="midnightblue" stroke="midnightblue" points="477.634,-531.802 468.646,-537.411 479.17,-538.632 477.634,-531.802"/>
</g>
<!-- Node9 -->
<g id="node9" class="node"><title>Node9</title>
<g id="a_node9"><a xlink:href="../../d7/d0b/classFun4AllDstInputManager.html#a4d32eadb9f77d41387656b87377ef14f" target="_top" xlink:title="Fun4AllDstInputManager\l::fileopen">
<polygon fill="none" stroke="black" points="534,-258 534,-288 658,-288 658,-258 534,-258"/>
<text text-anchor="start" x="542" y="-276" font-family="FreeSans" font-size="10.00">Fun4AllDstInputManager</text>
<text text-anchor="middle" x="596" y="-265" font-family="FreeSans" font-size="10.00">::fileopen</text>
</a>
</g>
</g>
<!-- Node8&#45;&gt;Node9 -->
<g id="edge9" class="edge"><title>Node8&#45;&gt;Node9</title>
<path fill="none" stroke="midnightblue" d="M494.865,-273C507.789,-273 521.218,-273 533.885,-273"/>
<polygon fill="midnightblue" stroke="midnightblue" points="494.634,-269.5 484.634,-273 494.634,-276.5 494.634,-269.5"/>
</g>
<!-- Node10 -->
<g id="node10" class="node"><title>Node10</title>
<g id="a_node10"><a xlink:href="../../d7/d0b/classFun4AllDstInputManager.html#ae4e92b95ae50ab72856d06c99b043496" target="_top" xlink:title="Fun4AllDstInputManager\l::OpenNextFile">
<polygon fill="none" stroke="black" points="694,-258 694,-288 818,-288 818,-258 694,-258"/>
<text text-anchor="start" x="702" y="-276" font-family="FreeSans" font-size="10.00">Fun4AllDstInputManager</text>
<text text-anchor="middle" x="756" y="-265" font-family="FreeSans" font-size="10.00">::OpenNextFile</text>
</a>
</g>
</g>
<!-- Node9&#45;&gt;Node10 -->
<g id="edge10" class="edge"><title>Node9&#45;&gt;Node10</title>
<path fill="none" stroke="midnightblue" d="M668.366,-273C676.863,-273 685.478,-273 693.815,-273"/>
<polygon fill="midnightblue" stroke="midnightblue" points="668.087,-269.5 658.087,-273 668.087,-276.5 668.087,-269.5"/>
</g>
<!-- Node11 -->
<g id="node11" class="node"><title>Node11</title>
<g id="a_node11"><a xlink:href="../../d7/d0b/classFun4AllDstInputManager.html#ade26017b627e0e1f1ec0dec62ac7fd52" target="_top" xlink:title="Fun4AllDstInputManager\l::ReadNextEventSyncObject">
<polygon fill="none" stroke="black" points="855.5,-296 855.5,-326 994.5,-326 994.5,-296 855.5,-296"/>
<text text-anchor="start" x="863.5" y="-314" font-family="FreeSans" font-size="10.00">Fun4AllDstInputManager</text>
<text text-anchor="middle" x="925" y="-303" font-family="FreeSans" font-size="10.00">::ReadNextEventSyncObject</text>
</a>
</g>
</g>
<!-- Node10&#45;&gt;Node11 -->
<g id="edge11" class="edge"><title>Node10&#45;&gt;Node11</title>
<path fill="none" stroke="midnightblue" d="M828.064,-289.17C837.993,-291.429 848.161,-293.743 857.992,-295.98"/>
<polygon fill="midnightblue" stroke="midnightblue" points="828.764,-285.74 818.236,-286.934 827.211,-292.566 828.764,-285.74"/>
</g>
<!-- Node13 -->
<g id="node13" class="node"><title>Node13</title>
<g id="a_node13"><a xlink:href="../../d7/d0b/classFun4AllDstInputManager.html#aeafa0248f9050c13fdae1bcb93336d7a" target="_top" xlink:title="Fun4AllDstInputManager::run">
<polygon fill="none" stroke="black" points="854,-345.5 854,-364.5 996,-364.5 996,-345.5 854,-345.5"/>
<text text-anchor="middle" x="925" y="-352.5" font-family="FreeSans" font-size="10.00">Fun4AllDstInputManager::run</text>
</a>
</g>
</g>
<!-- Node10&#45;&gt;Node13 -->
<g id="edge13" class="edge"><title>Node10&#45;&gt;Node13</title>
<path fill="none" stroke="midnightblue" d="M785.176,-294.125C803.897,-307.357 829.462,-323.938 854,-335 863.103,-339.103 873.253,-342.579 882.939,-345.423"/>
<polygon fill="midnightblue" stroke="midnightblue" points="786.991,-291.119 776.828,-288.125 782.906,-296.803 786.991,-291.119"/>
</g>
<!-- Node12 -->
<g id="node12" class="node"><title>Node12</title>
<g id="a_node12"><a xlink:href="../../d7/d0b/classFun4AllDstInputManager.html#a0244c2edbaa2350038304b09f352c2d0" target="_top" xlink:title="Fun4AllDstInputManager\l::SyncIt">
<polygon fill="none" stroke="black" points="1032,-337 1032,-367 1156,-367 1156,-337 1032,-337"/>
<text text-anchor="start" x="1040" y="-355" font-family="FreeSans" font-size="10.00">Fun4AllDstInputManager</text>
<text text-anchor="middle" x="1094" y="-344" font-family="FreeSans" font-size="10.00">::SyncIt</text>
</a>
</g>
</g>
<!-- Node11&#45;&gt;Node12 -->
<g id="edge12" class="edge"><title>Node11&#45;&gt;Node12</title>
<path fill="none" stroke="midnightblue" d="M997.233,-328.488C1008.73,-331.31 1020.54,-334.21 1031.77,-336.968"/>
<polygon fill="midnightblue" stroke="midnightblue" points="997.782,-325.019 987.236,-326.034 996.113,-331.817 997.782,-325.019"/>
</g>
<!-- Node16 -->
<g id="node16" class="node"><title>Node16</title>
<g id="a_node16"><a xlink:href="../../d0/d68/classSimpleReadMySql.html#ace02cda93f92690611b99f9bb06a677c" target="_top" xlink:title="SimpleReadMySql::InitRun">
<polygon fill="none" stroke="black" points="359.5,-175.5 359.5,-194.5 490.5,-194.5 490.5,-175.5 359.5,-175.5"/>
<text text-anchor="middle" x="425" y="-182.5" font-family="FreeSans" font-size="10.00">SimpleReadMySql::InitRun</text>
</a>
</g>
</g>
<!-- Node15&#45;&gt;Node16 -->
<g id="edge16" class="edge"><title>Node15&#45;&gt;Node16</title>
<path fill="none" stroke="midnightblue" d="M324.707,-185C336.37,-185 348.177,-185 359.383,-185"/>
<polygon fill="midnightblue" stroke="midnightblue" points="324.513,-181.5 314.513,-185 324.513,-188.5 324.513,-181.5"/>
</g>
<!-- Node18 -->
<g id="node18" class="node"><title>Node18</title>
<g id="a_node18"><a xlink:href="../../db/dda/classReadMySql.html#ab73b7895d9b3e258b58f31b66b93a827" target="_top" xlink:title="ReadMySql::InitRun">
<polygon fill="none" stroke="black" points="374.5,-137.5 374.5,-156.5 475.5,-156.5 475.5,-137.5 374.5,-137.5"/>
<text text-anchor="middle" x="425" y="-144.5" font-family="FreeSans" font-size="10.00">ReadMySql::InitRun</text>
</a>
</g>
</g>
<!-- Node17&#45;&gt;Node18 -->
<g id="edge18" class="edge"><title>Node17&#45;&gt;Node18</title>
<path fill="none" stroke="midnightblue" d="M309.684,-147C331.267,-147 354.53,-147 374.401,-147"/>
<polygon fill="midnightblue" stroke="midnightblue" points="309.576,-143.5 299.576,-147 309.576,-150.5 309.576,-143.5"/>
</g>
<!-- Node20 -->
<g id="node20" class="node"><title>Node20</title>
<g id="a_node20"><a xlink:href="../../da/d29/classFun4AllServer.html#a94738b092fa009fcea45737d8ea41224" target="_top" xlink:title="Fun4AllServer::process\l_event">
<polygon fill="none" stroke="black" points="366.5,-450 366.5,-480 483.5,-480 483.5,-450 366.5,-450"/>
<text text-anchor="start" x="374.5" y="-468" font-family="FreeSans" font-size="10.00">Fun4AllServer::process</text>
<text text-anchor="middle" x="425" y="-457" font-family="FreeSans" font-size="10.00">_event</text>
</a>
</g>
</g>
<!-- Node19&#45;&gt;Node20 -->
<g id="edge20" class="edge"><title>Node19&#45;&gt;Node20</title>
<path fill="none" stroke="midnightblue" d="M306.58,-489.119C326.135,-485.102 347.296,-480.755 366.196,-476.873"/>
<polygon fill="midnightblue" stroke="midnightblue" points="305.612,-485.744 296.521,-491.185 307.021,-492.601 305.612,-485.744"/>
</g>
<!-- Node21 -->
<g id="node21" class="node"><title>Node21</title>
<g id="a_node21"><a xlink:href="../../da/d29/classFun4AllServer.html#a11bbc8b2f53bc06e0b05ee202dd6372a" target="_top" xlink:title="run n events (0 means up to end of file) ">
<polygon fill="none" stroke="black" points="377,-499.5 377,-518.5 473,-518.5 473,-499.5 377,-499.5"/>
<text text-anchor="middle" x="425" y="-506.5" font-family="FreeSans" font-size="10.00">Fun4AllServer::run</text>
</a>
</g>
</g>
<!-- Node19&#45;&gt;Node21 -->
<g id="edge21" class="edge"><title>Node19&#45;&gt;Node21</title>
<path fill="none" stroke="midnightblue" d="M306.679,-505.195C329.943,-505.95 355.469,-506.777 376.754,-507.468"/>
<polygon fill="midnightblue" stroke="midnightblue" points="306.629,-501.692 296.521,-504.866 306.402,-508.688 306.629,-501.692"/>
</g>
<!-- Node21&#45;&gt;Node3 -->
<g id="edge22" class="edge"><title>Node21&#45;&gt;Node3</title>
<path fill="none" stroke="midnightblue" d="M478.587,-520.824C502.413,-526.182 530.207,-532.431 552.661,-537.48"/>
<polygon fill="midnightblue" stroke="midnightblue" points="479.17,-517.368 468.646,-518.589 477.634,-524.198 479.17,-517.368"/>
</g>
<!-- Node21&#45;&gt;Node4 -->
<g id="edge23" class="edge"><title>Node21&#45;&gt;Node4</title>
<path fill="none" stroke="midnightblue" d="M483.178,-509C505.665,-509 531.046,-509 551.936,-509"/>
<polygon fill="midnightblue" stroke="midnightblue" points="483.076,-505.5 473.076,-509 483.076,-512.5 483.076,-505.5"/>
</g>
<!-- Node23 -->
<g id="node23" class="node"><title>Node23</title>
<g id="a_node23"><a xlink:href="../../d7/d4d/classPHNodeIOManager.html#a92da4bff2438e94d469011b7720f286f" target="_top" xlink:title="PHNodeIOManager::read">
<polygon fill="none" stroke="black" points="362.5,-307.5 362.5,-326.5 487.5,-326.5 487.5,-307.5 362.5,-307.5"/>
<text text-anchor="middle" x="425" y="-314.5" font-family="FreeSans" font-size="10.00">PHNodeIOManager::read</text>
</a>
</g>
</g>
<!-- Node22&#45;&gt;Node23 -->
<g id="edge25" class="edge"><title>Node22&#45;&gt;Node23</title>
<path fill="none" stroke="midnightblue" d="M325.894,-317C338.23,-317 350.7,-317 362.421,-317"/>
<polygon fill="midnightblue" stroke="midnightblue" points="325.582,-313.5 315.582,-317 325.582,-320.5 325.582,-313.5"/>
</g>
<!-- Node23&#45;&gt;Node9 -->
<g id="edge26" class="edge"><title>Node23&#45;&gt;Node9</title>
<path fill="none" stroke="midnightblue" d="M472.465,-304.903C492.453,-299.699 516.029,-293.561 537.135,-288.065"/>
<polygon fill="midnightblue" stroke="midnightblue" points="471.466,-301.546 462.67,-307.453 473.23,-308.32 471.466,-301.546"/>
</g>
<!-- Node23&#45;&gt;Node11 -->
<g id="edge27" class="edge"><title>Node23&#45;&gt;Node11</title>
<path fill="none" stroke="midnightblue" d="M497.72,-316.136C593.334,-314.984 761.395,-312.959 855.401,-311.826"/>
<polygon fill="midnightblue" stroke="midnightblue" points="497.521,-312.638 487.564,-316.258 497.606,-319.637 497.521,-312.638"/>
</g>
<!-- Node23&#45;&gt;Node12 -->
<g id="edge29" class="edge"><title>Node23&#45;&gt;Node12</title>
<path fill="none" stroke="midnightblue" d="M465.75,-329.462C485.992,-335.349 511.103,-341.956 534,-346 736.575,-381.776 791.568,-396.892 996,-374 1009.21,-372.52 1023.25,-369.94 1036.43,-367.056"/>
<polygon fill="midnightblue" stroke="midnightblue" points="466.524,-326.041 455.942,-326.555 464.535,-332.752 466.524,-326.041"/>
</g>
<!-- Node23&#45;&gt;Node13 -->
<g id="edge28" class="edge"><title>Node23&#45;&gt;Node13</title>
<path fill="none" stroke="midnightblue" d="M497.715,-324.633C509.82,-325.827 522.263,-326.996 534,-328 645.748,-337.557 775.733,-346.026 853.847,-350.829"/>
<polygon fill="midnightblue" stroke="midnightblue" points="497.948,-321.139 487.649,-323.627 497.252,-328.104 497.948,-321.139"/>
</g>
<!-- Node24&#45;&gt;Node25 -->
<g id="edge31" class="edge"><title>Node24&#45;&gt;Node25</title>
<path fill="none" stroke="midnightblue" d="M311.685,-94.3564C325.001,-92.7728 338.893,-91.1208 352.185,-89.5402"/>
<polygon fill="midnightblue" stroke="midnightblue" points="311.149,-90.8953 301.633,-95.5518 311.976,-97.8464 311.149,-90.8953"/>
</g>
</g>
</svg>
