<?xml version="1.0" encoding="UTF-8" standalone="no"?>
<!DOCTYPE svg PUBLIC "-//W3C//DTD SVG 1.1//EN"
 "http://www.w3.org/Graphics/SVG/1.1/DTD/svg11.dtd">
<!-- Generated by graphviz version 2.36.0 (20140111.2315)
 -->
<!-- Title: PHNodeIterator::print Pages: 1 -->
<svg width="390pt" height="28pt"
 viewBox="0.00 0.00 390.00 28.00" xmlns="http://www.w3.org/2000/svg" xmlns:xlink="http://www.w3.org/1999/xlink">
<g id="graph0" class="graph" transform="scale(1 1) rotate(0) translate(4 24)">
<title>PHNodeIterator::print</title>
<!-- Node1 -->
<g id="node1" class="node"><title>Node1</title>
<polygon fill="#bfbfbf" stroke="black" points="0,-0.5 0,-19.5 108,-19.5 108,-0.5 0,-0.5"/>
<text text-anchor="middle" x="54" y="-7.5" font-family="FreeSans" font-size="10.00">PHNodeIterator::print</text>
</g>
<!-- Node2 -->
<g id="node2" class="node"><title>Node2</title>
<g id="a_node2"><a xlink:href="../../d5/dca/classPHCompositeNode.html#a6a3a273adbb9f7ec652b5227212a6b2d" target="_top" xlink:title="PHCompositeNode::print">
<polygon fill="none" stroke="black" points="144,-0.5 144,-19.5 268,-19.5 268,-0.5 144,-0.5"/>
<text text-anchor="middle" x="206" y="-7.5" font-family="FreeSans" font-size="10.00">PHCompositeNode::print</text>
</a>
</g>
</g>
<!-- Node1&#45;&gt;Node2 -->
<g id="edge1" class="edge"><title>Node1&#45;&gt;Node2</title>
<path fill="none" stroke="midnightblue" d="M108.307,-10C116.599,-10 125.277,-10 133.888,-10"/>
<polygon fill="midnightblue" stroke="midnightblue" points="133.937,-13.5001 143.937,-10 133.937,-6.5001 133.937,-13.5001"/>
</g>
<!-- Node3 -->
<g id="node3" class="node"><title>Node3</title>
<g id="a_node3"><a xlink:href="../../dc/d82/classPHNode.html#a3c79c7edb338e7d3bb86460f931793fa" target="_top" xlink:title="PHNode::print">
<polygon fill="none" stroke="black" points="304.5,-0.5 304.5,-19.5 381.5,-19.5 381.5,-0.5 304.5,-0.5"/>
<text text-anchor="middle" x="343" y="-7.5" font-family="FreeSans" font-size="10.00">PHNode::print</text>
</a>
</g>
</g>
<!-- Node2&#45;&gt;Node3 -->
<g id="edge2" class="edge"><title>Node2&#45;&gt;Node3</title>
<path fill="none" stroke="midnightblue" d="M268.18,-10C276.909,-10 285.781,-10 294.204,-10"/>
<polygon fill="midnightblue" stroke="midnightblue" points="294.215,-13.5001 304.215,-10 294.215,-6.5001 294.215,-13.5001"/>
</g>
</g>
</svg>
