<?xml version="1.0" encoding="UTF-8" standalone="no"?>
<!DOCTYPE svg PUBLIC "-//W3C//DTD SVG 1.1//EN"
 "http://www.w3.org/Graphics/SVG/1.1/DTD/svg11.dtd">
<!-- Generated by graphviz version 2.36.0 (20140111.2315)
 -->
<!-- Title: PHNodeIterator::cd Pages: 1 -->
<svg width="1120pt" height="230pt"
 viewBox="0.00 0.00 1120.00 230.48" xmlns="http://www.w3.org/2000/svg" xmlns:xlink="http://www.w3.org/1999/xlink">
<g id="graph0" class="graph" transform="scale(1 1) rotate(0) translate(4 226.478)">
<title>PHNodeIterator::cd</title>
<!-- Node1 -->
<g id="node1" class="node"><title>Node1</title>
<polygon fill="#bfbfbf" stroke="black" points="0,-85.5 0,-104.5 100,-104.5 100,-85.5 0,-85.5"/>
<text text-anchor="middle" x="50" y="-92.5" font-family="FreeSans" font-size="10.00">PHNodeIterator::cd</text>
</g>
<!-- Node2 -->
<g id="node2" class="node"><title>Node2</title>
<g id="a_node2"><a xlink:href="../../d7/d4d/classPHNodeIOManager.html#a3882997324989c7dd04e9f6b728af7db" target="_top" xlink:title="PHNodeIOManager::reconstruct\lNodeTree">
<polygon fill="none" stroke="black" points="136.5,-107 136.5,-137 291.5,-137 291.5,-107 136.5,-107"/>
<text text-anchor="start" x="144.5" y="-125" font-family="FreeSans" font-size="10.00">PHNodeIOManager::reconstruct</text>
<text text-anchor="middle" x="214" y="-114" font-family="FreeSans" font-size="10.00">NodeTree</text>
</a>
</g>
</g>
<!-- Node1&#45;&gt;Node2 -->
<g id="edge1" class="edge"><title>Node1&#45;&gt;Node2</title>
<path fill="none" stroke="midnightblue" d="M109.925,-104.821C118.503,-106.251 127.439,-107.74 136.306,-109.218"/>
<polygon fill="midnightblue" stroke="midnightblue" points="110.484,-101.366 100.045,-103.174 109.333,-108.271 110.484,-101.366"/>
</g>
<!-- Node9 -->
<g id="node9" class="node"><title>Node9</title>
<g id="a_node9"><a xlink:href="../../da/d29/classFun4AllServer.html#ab2479a9a3e45d51118e308597acd5228" target="_top" xlink:title="Fun4AllServer::ResetNodeTree">
<polygon fill="none" stroke="black" points="138.5,-59.5 138.5,-78.5 289.5,-78.5 289.5,-59.5 138.5,-59.5"/>
<text text-anchor="middle" x="214" y="-66.5" font-family="FreeSans" font-size="10.00">Fun4AllServer::ResetNodeTree</text>
</a>
</g>
</g>
<!-- Node1&#45;&gt;Node9 -->
<g id="edge11" class="edge"><title>Node1&#45;&gt;Node9</title>
<path fill="none" stroke="midnightblue" d="M110.146,-85.5075C124.288,-83.2377 139.391,-80.8137 153.548,-78.5417"/>
<polygon fill="midnightblue" stroke="midnightblue" points="109.364,-82.0881 100.045,-87.1286 110.473,-88.9996 109.364,-82.0881"/>
</g>
<!-- Node3 -->
<g id="node3" class="node"><title>Node3</title>
<g id="a_node3"><a xlink:href="../../d7/d4d/classPHNodeIOManager.html#a92da4bff2438e94d469011b7720f286f" target="_top" xlink:title="PHNodeIOManager::read">
<polygon fill="none" stroke="black" points="328.5,-131.5 328.5,-150.5 453.5,-150.5 453.5,-131.5 328.5,-131.5"/>
<text text-anchor="middle" x="391" y="-138.5" font-family="FreeSans" font-size="10.00">PHNodeIOManager::read</text>
</a>
</g>
</g>
<!-- Node2&#45;&gt;Node3 -->
<g id="edge2" class="edge"><title>Node2&#45;&gt;Node3</title>
<path fill="none" stroke="midnightblue" d="M301.659,-131.409C310.676,-132.388 319.706,-133.368 328.364,-134.308"/>
<polygon fill="midnightblue" stroke="midnightblue" points="301.822,-127.906 291.503,-130.306 301.067,-134.865 301.822,-127.906"/>
</g>
<!-- Node4 -->
<g id="node4" class="node"><title>Node4</title>
<g id="a_node4"><a xlink:href="../../d7/d0b/classFun4AllDstInputManager.html#a4d32eadb9f77d41387656b87377ef14f" target="_top" xlink:title="Fun4AllDstInputManager\l::fileopen">
<polygon fill="none" stroke="black" points="490,-126 490,-156 614,-156 614,-126 490,-126"/>
<text text-anchor="start" x="498" y="-144" font-family="FreeSans" font-size="10.00">Fun4AllDstInputManager</text>
<text text-anchor="middle" x="552" y="-133" font-family="FreeSans" font-size="10.00">::fileopen</text>
</a>
</g>
</g>
<!-- Node3&#45;&gt;Node4 -->
<g id="edge3" class="edge"><title>Node3&#45;&gt;Node4</title>
<path fill="none" stroke="midnightblue" d="M463.965,-141C472.582,-141 481.318,-141 489.763,-141"/>
<polygon fill="midnightblue" stroke="midnightblue" points="463.929,-137.5 453.929,-141 463.929,-144.5 463.929,-137.5"/>
</g>
<!-- Node6 -->
<g id="node6" class="node"><title>Node6</title>
<g id="a_node6"><a xlink:href="../../d7/d0b/classFun4AllDstInputManager.html#ade26017b627e0e1f1ec0dec62ac7fd52" target="_top" xlink:title="Fun4AllDstInputManager\l::ReadNextEventSyncObject">
<polygon fill="none" stroke="black" points="811.5,-126 811.5,-156 950.5,-156 950.5,-126 811.5,-126"/>
<text text-anchor="start" x="819.5" y="-144" font-family="FreeSans" font-size="10.00">Fun4AllDstInputManager</text>
<text text-anchor="middle" x="881" y="-133" font-family="FreeSans" font-size="10.00">::ReadNextEventSyncObject</text>
</a>
</g>
</g>
<!-- Node3&#45;&gt;Node6 -->
<g id="edge8" class="edge"><title>Node3&#45;&gt;Node6</title>
<path fill="none" stroke="midnightblue" d="M432.837,-128.675C450.272,-124.022 470.956,-119.298 490,-117 615.313,-101.879 648.559,-102.977 774,-117 790.502,-118.845 808.184,-122.257 824.285,-125.942"/>
<polygon fill="midnightblue" stroke="midnightblue" points="431.695,-125.359 422.983,-131.388 433.553,-132.108 431.695,-125.359"/>
</g>
<!-- Node7 -->
<g id="node7" class="node"><title>Node7</title>
<g id="a_node7"><a xlink:href="../../d7/d0b/classFun4AllDstInputManager.html#a0244c2edbaa2350038304b09f352c2d0" target="_top" xlink:title="Fun4AllDstInputManager\l::SyncIt">
<polygon fill="none" stroke="black" points="988,-167 988,-197 1112,-197 1112,-167 988,-167"/>
<text text-anchor="start" x="996" y="-185" font-family="FreeSans" font-size="10.00">Fun4AllDstInputManager</text>
<text text-anchor="middle" x="1050" y="-174" font-family="FreeSans" font-size="10.00">::SyncIt</text>
</a>
</g>
</g>
<!-- Node3&#45;&gt;Node7 -->
<g id="edge10" class="edge"><title>Node3&#45;&gt;Node7</title>
<path fill="none" stroke="midnightblue" d="M417.359,-155.394C436.635,-165.577 464.154,-178.529 490,-185 689.354,-234.911 747.77,-226.87 952,-204 965.214,-202.52 979.254,-199.94 992.428,-197.056"/>
<polygon fill="midnightblue" stroke="midnightblue" points="418.804,-152.196 408.343,-150.514 415.472,-158.352 418.804,-152.196"/>
</g>
<!-- Node8 -->
<g id="node8" class="node"><title>Node8</title>
<g id="a_node8"><a xlink:href="../../d7/d0b/classFun4AllDstInputManager.html#aeafa0248f9050c13fdae1bcb93336d7a" target="_top" xlink:title="Fun4AllDstInputManager::run">
<polygon fill="none" stroke="black" points="810,-175.5 810,-194.5 952,-194.5 952,-175.5 810,-175.5"/>
<text text-anchor="middle" x="881" y="-182.5" font-family="FreeSans" font-size="10.00">Fun4AllDstInputManager::run</text>
</a>
</g>
</g>
<!-- Node3&#45;&gt;Node8 -->
<g id="edge9" class="edge"><title>Node3&#45;&gt;Node8</title>
<path fill="none" stroke="midnightblue" d="M434.104,-153.161C451.293,-157.64 471.456,-162.279 490,-165 601.016,-181.291 731.489,-184.877 809.864,-185.377"/>
<polygon fill="midnightblue" stroke="midnightblue" points="434.927,-149.758 424.362,-150.559 433.12,-156.521 434.927,-149.758"/>
</g>
<!-- Node5 -->
<g id="node5" class="node"><title>Node5</title>
<g id="a_node5"><a xlink:href="../../d7/d0b/classFun4AllDstInputManager.html#ae4e92b95ae50ab72856d06c99b043496" target="_top" xlink:title="Fun4AllDstInputManager\l::OpenNextFile">
<polygon fill="none" stroke="black" points="650,-126 650,-156 774,-156 774,-126 650,-126"/>
<text text-anchor="start" x="658" y="-144" font-family="FreeSans" font-size="10.00">Fun4AllDstInputManager</text>
<text text-anchor="middle" x="712" y="-133" font-family="FreeSans" font-size="10.00">::OpenNextFile</text>
</a>
</g>
</g>
<!-- Node4&#45;&gt;Node5 -->
<g id="edge4" class="edge"><title>Node4&#45;&gt;Node5</title>
<path fill="none" stroke="midnightblue" d="M624.366,-141C632.863,-141 641.478,-141 649.815,-141"/>
<polygon fill="midnightblue" stroke="midnightblue" points="624.087,-137.5 614.087,-141 624.087,-144.5 624.087,-137.5"/>
</g>
<!-- Node5&#45;&gt;Node6 -->
<g id="edge5" class="edge"><title>Node5&#45;&gt;Node6</title>
<path fill="none" stroke="midnightblue" d="M784.291,-141C793.291,-141 802.483,-141 811.438,-141"/>
<polygon fill="midnightblue" stroke="midnightblue" points="784.236,-137.5 774.236,-141 784.236,-144.5 784.236,-137.5"/>
</g>
<!-- Node5&#45;&gt;Node8 -->
<g id="edge7" class="edge"><title>Node5&#45;&gt;Node8</title>
<path fill="none" stroke="midnightblue" d="M779.874,-158.619C801.642,-164.355 824.981,-170.504 843.646,-175.422"/>
<polygon fill="midnightblue" stroke="midnightblue" points="780.567,-155.183 770.005,-156.019 778.783,-161.952 780.567,-155.183"/>
</g>
<!-- Node6&#45;&gt;Node7 -->
<g id="edge6" class="edge"><title>Node6&#45;&gt;Node7</title>
<path fill="none" stroke="midnightblue" d="M953.233,-158.488C964.728,-161.31 976.539,-164.21 987.771,-166.968"/>
<polygon fill="midnightblue" stroke="midnightblue" points="953.782,-155.019 943.236,-156.034 952.113,-161.817 953.782,-155.019"/>
</g>
<!-- Node10 -->
<g id="node10" class="node"><title>Node10</title>
<g id="a_node10"><a xlink:href="../../da/d29/classFun4AllServer.html#a6a65a944dfb40966ace97d35ab1f7942" target="_top" xlink:title="Fun4AllServer::process\l_event">
<polygon fill="none" stroke="black" points="332.5,-10 332.5,-40 449.5,-40 449.5,-10 332.5,-10"/>
<text text-anchor="start" x="340.5" y="-28" font-family="FreeSans" font-size="10.00">Fun4AllServer::process</text>
<text text-anchor="middle" x="391" y="-17" font-family="FreeSans" font-size="10.00">_event</text>
</a>
</g>
</g>
<!-- Node9&#45;&gt;Node10 -->
<g id="edge12" class="edge"><title>Node9&#45;&gt;Node10</title>
<path fill="none" stroke="midnightblue" d="M262.858,-56.9672C284.365,-51.5596 309.924,-45.1334 332.466,-39.4658"/>
<polygon fill="midnightblue" stroke="midnightblue" points="261.817,-53.6198 252.972,-59.4527 263.524,-60.4085 261.817,-53.6198"/>
</g>
<!-- Node12 -->
<g id="node12" class="node"><title>Node12</title>
<g id="a_node12"><a xlink:href="../../da/d29/classFun4AllServer.html#a11bbc8b2f53bc06e0b05ee202dd6372a" target="_top" xlink:title="run n events (0 means up to end of file) ">
<polygon fill="none" stroke="black" points="504,-49.5 504,-68.5 600,-68.5 600,-49.5 504,-49.5"/>
<text text-anchor="middle" x="552" y="-56.5" font-family="FreeSans" font-size="10.00">Fun4AllServer::run</text>
</a>
</g>
</g>
<!-- Node9&#45;&gt;Node12 -->
<g id="edge17" class="edge"><title>Node9&#45;&gt;Node12</title>
<path fill="none" stroke="midnightblue" d="M299.73,-66.4783C364.266,-64.5576 450.745,-61.9838 503.583,-60.4112"/>
<polygon fill="midnightblue" stroke="midnightblue" points="299.461,-62.9846 289.569,-66.7807 299.669,-69.9815 299.461,-62.9846"/>
</g>
<!-- Node11 -->
<g id="node11" class="node"><title>Node11</title>
<g id="a_node11"><a xlink:href="../../da/d29/classFun4AllServer.html#a94738b092fa009fcea45737d8ea41224" target="_top" xlink:title="Fun4AllServer::process\l_event">
<polygon fill="none" stroke="black" points="493.5,-0 493.5,-30 610.5,-30 610.5,-0 493.5,-0"/>
<text text-anchor="start" x="501.5" y="-18" font-family="FreeSans" font-size="10.00">Fun4AllServer::process</text>
<text text-anchor="middle" x="552" y="-7" font-family="FreeSans" font-size="10.00">_event</text>
</a>
</g>
</g>
<!-- Node10&#45;&gt;Node11 -->
<g id="edge13" class="edge"><title>Node10&#45;&gt;Node11</title>
<path fill="none" stroke="midnightblue" d="M459.98,-20.7245C471.131,-20.0232 482.591,-19.3025 493.457,-18.6191"/>
<polygon fill="midnightblue" stroke="midnightblue" points="459.613,-17.2406 449.852,-21.3615 460.052,-24.2268 459.613,-17.2406"/>
</g>
<!-- Node10&#45;&gt;Node12 -->
<g id="edge14" class="edge"><title>Node10&#45;&gt;Node12</title>
<path fill="none" stroke="midnightblue" d="M460.044,-39.5504C475.727,-42.9039 492.017,-46.3873 506.404,-49.4637"/>
<polygon fill="midnightblue" stroke="midnightblue" points="460.363,-36.0395 449.852,-37.371 458.899,-42.8848 460.363,-36.0395"/>
</g>
<!-- Node13 -->
<g id="node13" class="node"><title>Node13</title>
<g id="a_node13"><a xlink:href="../../d0/d46/Fun4__SimpleReadMySql_8C.html#a70381893748e3445abc30632beb256ce" target="_top" xlink:title="Fun4_SimpleReadMySql">
<polygon fill="none" stroke="black" points="650.5,-49.5 650.5,-68.5 773.5,-68.5 773.5,-49.5 650.5,-49.5"/>
<text text-anchor="middle" x="712" y="-56.5" font-family="FreeSans" font-size="10.00">Fun4_SimpleReadMySql</text>
</a>
</g>
</g>
<!-- Node12&#45;&gt;Node13 -->
<g id="edge15" class="edge"><title>Node12&#45;&gt;Node13</title>
<path fill="none" stroke="midnightblue" d="M610.594,-59C623.557,-59 637.353,-59 650.434,-59"/>
<polygon fill="midnightblue" stroke="midnightblue" points="610.405,-55.5001 600.405,-59 610.405,-62.5001 610.405,-55.5001"/>
</g>
<!-- Node14 -->
<g id="node14" class="node"><title>Node14</title>
<g id="a_node14"><a xlink:href="../../d9/d8c/Fun4ReadMySql_8C.html#a729b39fa627147c63772f28c9be36b62" target="_top" xlink:title="Fun4ReadMySql">
<polygon fill="none" stroke="black" points="668,-11.5 668,-30.5 756,-30.5 756,-11.5 668,-11.5"/>
<text text-anchor="middle" x="712" y="-18.5" font-family="FreeSans" font-size="10.00">Fun4ReadMySql</text>
</a>
</g>
</g>
<!-- Node12&#45;&gt;Node14 -->
<g id="edge16" class="edge"><title>Node12&#45;&gt;Node14</title>
<path fill="none" stroke="midnightblue" d="M602.762,-47.032C624.903,-41.7069 650.612,-35.5238 671.417,-30.5201"/>
<polygon fill="midnightblue" stroke="midnightblue" points="601.774,-43.6696 592.87,-49.411 603.411,-50.4755 601.774,-43.6696"/>
</g>
</g>
</svg>
