<?xml version="1.0" encoding="UTF-8" standalone="no"?>
<!DOCTYPE svg PUBLIC "-//W3C//DTD SVG 1.1//EN"
 "http://www.w3.org/Graphics/SVG/1.1/DTD/svg11.dtd">
<!-- Generated by graphviz version 2.36.0 (20140111.2315)
 -->
<!-- Title: PHNodeIterator::for_each Pages: 1 -->
<svg width="424pt" height="46pt"
 viewBox="0.00 0.00 424.00 46.00" xmlns="http://www.w3.org/2000/svg" xmlns:xlink="http://www.w3.org/1999/xlink">
<g id="graph0" class="graph" transform="scale(1 1) rotate(0) translate(4 42)">
<title>PHNodeIterator::for_each</title>
<!-- Node1 -->
<g id="node1" class="node"><title>Node1</title>
<polygon fill="#bfbfbf" stroke="black" points="0.5,-0.5 0.5,-19.5 127.5,-19.5 127.5,-0.5 0.5,-0.5"/>
<text text-anchor="middle" x="64" y="-7.5" font-family="FreeSans" font-size="10.00">PHNodeIterator::for_each</text>
</g>
<!-- Node2 -->
<g id="node2" class="node"><title>Node2</title>
<g id="a_node2"><a xlink:href="../../d5/d07/classPHNodeIterator.html#afeaefab44bf0ab15a439926205924f19" target="_top" xlink:title="PHNodeIterator::forEach">
<polygon fill="none" stroke="black" points="164,-0.5 164,-19.5 286,-19.5 286,-0.5 164,-0.5"/>
<text text-anchor="middle" x="225" y="-7.5" font-family="FreeSans" font-size="10.00">PHNodeIterator::forEach</text>
</a>
</g>
</g>
<!-- Node1&#45;&gt;Node2 -->
<g id="edge1" class="edge"><title>Node1&#45;&gt;Node2</title>
<path fill="none" stroke="midnightblue" d="M127.841,-10C136.388,-10 145.205,-10 153.871,-10"/>
<polygon fill="midnightblue" stroke="midnightblue" points="153.949,-13.5001 163.949,-10 153.949,-6.5001 153.949,-13.5001"/>
</g>
<!-- Node2&#45;&gt;Node2 -->
<g id="edge3" class="edge"><title>Node2&#45;&gt;Node2</title>
<path fill="none" stroke="midnightblue" d="M202.805,-19.7571C192.008,-28.5653 199.406,-38 225,-38 241.796,-38 250.756,-33.9368 251.879,-28.6539"/>
<polygon fill="midnightblue" stroke="midnightblue" points="254.951,-26.9747 247.195,-19.7571 248.757,-30.2361 254.951,-26.9747"/>
</g>
<!-- Node3 -->
<g id="node3" class="node"><title>Node3</title>
<g id="a_node3"><a xlink:href="../../dc/d82/classPHNode.html#a4ab1f90aed955a652813bfe377087bda" target="_top" xlink:title="PHNode::getType">
<polygon fill="none" stroke="black" points="322.5,-0.5 322.5,-19.5 415.5,-19.5 415.5,-0.5 322.5,-0.5"/>
<text text-anchor="middle" x="369" y="-7.5" font-family="FreeSans" font-size="10.00">PHNode::getType</text>
</a>
</g>
</g>
<!-- Node2&#45;&gt;Node3 -->
<g id="edge2" class="edge"><title>Node2&#45;&gt;Node3</title>
<path fill="none" stroke="midnightblue" d="M286.221,-10C294.819,-10 303.633,-10 312.143,-10"/>
<polygon fill="midnightblue" stroke="midnightblue" points="312.338,-13.5001 322.338,-10 312.338,-6.5001 312.338,-13.5001"/>
</g>
</g>
</svg>
