<?xml version="1.0" encoding="UTF-8" standalone="no"?>
<!DOCTYPE svg PUBLIC "-//W3C//DTD SVG 1.1//EN"
 "http://www.w3.org/Graphics/SVG/1.1/DTD/svg11.dtd">
<!-- Generated by graphviz version 2.36.0 (20140111.2315)
 -->
<!-- Title: PHNodeIterator::forEach Pages: 1 -->
<svg width="260pt" height="46pt"
 viewBox="0.00 0.00 260.00 46.00" xmlns="http://www.w3.org/2000/svg" xmlns:xlink="http://www.w3.org/1999/xlink">
<g id="graph0" class="graph" transform="scale(1 1) rotate(0) translate(4 42)">
<title>PHNodeIterator::forEach</title>
<!-- Node1 -->
<g id="node1" class="node"><title>Node1</title>
<polygon fill="#bfbfbf" stroke="black" points="0,-0.5 0,-19.5 122,-19.5 122,-0.5 0,-0.5"/>
<text text-anchor="middle" x="61" y="-7.5" font-family="FreeSans" font-size="10.00">PHNodeIterator::forEach</text>
</g>
<!-- Node1&#45;&gt;Node1 -->
<g id="edge1" class="edge"><title>Node1&#45;&gt;Node1</title>
<path fill="none" stroke="midnightblue" d="M38.8054,-19.7571C28.0081,-28.5653 35.4062,-38 61,-38 77.7959,-38 86.7556,-33.9368 87.8792,-28.6539"/>
<polygon fill="midnightblue" stroke="midnightblue" points="90.9506,-26.9747 83.1946,-19.7571 84.7567,-30.2361 90.9506,-26.9747"/>
</g>
<!-- Node2 -->
<g id="node2" class="node"><title>Node2</title>
<g id="a_node2"><a xlink:href="../../dc/d82/classPHNode.html#a4ab1f90aed955a652813bfe377087bda" target="_top" xlink:title="PHNode::getType">
<polygon fill="none" stroke="black" points="158.5,-0.5 158.5,-19.5 251.5,-19.5 251.5,-0.5 158.5,-0.5"/>
<text text-anchor="middle" x="205" y="-7.5" font-family="FreeSans" font-size="10.00">PHNode::getType</text>
</a>
</g>
</g>
<!-- Node1&#45;&gt;Node2 -->
<g id="edge2" class="edge"><title>Node1&#45;&gt;Node2</title>
<path fill="none" stroke="midnightblue" d="M122.221,-10C130.819,-10 139.633,-10 148.143,-10"/>
<polygon fill="midnightblue" stroke="midnightblue" points="148.338,-13.5001 158.338,-10 148.338,-6.5001 148.338,-13.5001"/>
</g>
</g>
</svg>
