<?xml version="1.0" encoding="UTF-8" standalone="no"?>
<!DOCTYPE svg PUBLIC "-//W3C//DTD SVG 1.1//EN"
 "http://www.w3.org/Graphics/SVG/1.1/DTD/svg11.dtd">
<!-- Generated by graphviz version 2.36.0 (20140111.2315)
 -->
<!-- Title: fun4all/fun4all/Fun4AllBase.cc Pages: 1 -->
<svg width="174pt" height="140pt"
 viewBox="0.00 0.00 174.00 140.00" xmlns="http://www.w3.org/2000/svg" xmlns:xlink="http://www.w3.org/1999/xlink">
<g id="graph0" class="graph" transform="scale(1 1) rotate(0) translate(4 136)">
<title>fun4all/fun4all/Fun4AllBase.cc</title>
<!-- Node1 -->
<g id="node1" class="node"><title>Node1</title>
<polygon fill="#bfbfbf" stroke="black" points="18,-112.5 18,-131.5 166,-131.5 166,-112.5 18,-112.5"/>
<text text-anchor="middle" x="92" y="-119.5" font-family="FreeSans" font-size="10.00">fun4all/fun4all/Fun4AllBase.cc</text>
</g>
<!-- Node2 -->
<g id="node2" class="node"><title>Node2</title>
<g id="a_node2"><a xlink:href="../../d2/de7/Fun4AllBase_8h.html" target="_top" xlink:title="Fun4AllBase.h">
<polygon fill="none" stroke="black" points="10,-56.5 10,-75.5 90,-75.5 90,-56.5 10,-56.5"/>
<text text-anchor="middle" x="50" y="-63.5" font-family="FreeSans" font-size="10.00">Fun4AllBase.h</text>
</a>
</g>
</g>
<!-- Node1&#45;&gt;Node2 -->
<g id="edge1" class="edge"><title>Node1&#45;&gt;Node2</title>
<path fill="none" stroke="midnightblue" d="M85.0646,-112.083C79.0708,-104.377 70.2482,-93.0333 62.9524,-83.6531"/>
<polygon fill="midnightblue" stroke="midnightblue" points="65.7086,-81.4958 56.8064,-75.7511 60.1831,-85.7934 65.7086,-81.4958"/>
</g>
<!-- Node5 -->
<g id="node5" class="node"><title>Node5</title>
<polygon fill="none" stroke="#bfbfbf" points="108,-56.5 108,-75.5 162,-75.5 162,-56.5 108,-56.5"/>
<text text-anchor="middle" x="135" y="-63.5" font-family="FreeSans" font-size="10.00">iostream</text>
</g>
<!-- Node1&#45;&gt;Node5 -->
<g id="edge4" class="edge"><title>Node1&#45;&gt;Node5</title>
<path fill="none" stroke="midnightblue" d="M99.1006,-112.083C105.237,-104.377 114.27,-93.0333 121.739,-83.6531"/>
<polygon fill="midnightblue" stroke="midnightblue" points="124.54,-85.7542 128.032,-75.7511 119.064,-81.3936 124.54,-85.7542"/>
</g>
<!-- Node3 -->
<g id="node3" class="node"><title>Node3</title>
<polygon fill="none" stroke="#bfbfbf" points="-0.5,-0.5 -0.5,-19.5 40.5,-19.5 40.5,-0.5 -0.5,-0.5"/>
<text text-anchor="middle" x="20" y="-7.5" font-family="FreeSans" font-size="10.00">string</text>
</g>
<!-- Node2&#45;&gt;Node3 -->
<g id="edge2" class="edge"><title>Node2&#45;&gt;Node3</title>
<path fill="none" stroke="midnightblue" d="M45.0461,-56.083C40.8959,-48.6127 34.8469,-37.7244 29.7333,-28.5199"/>
<polygon fill="midnightblue" stroke="midnightblue" points="32.7777,-26.7929 24.8617,-19.7511 26.6586,-30.1924 32.7777,-26.7929"/>
</g>
<!-- Node4 -->
<g id="node4" class="node"><title>Node4</title>
<polygon fill="none" stroke="#bfbfbf" points="58.5,-0.5 58.5,-19.5 103.5,-19.5 103.5,-0.5 58.5,-0.5"/>
<text text-anchor="middle" x="81" y="-7.5" font-family="FreeSans" font-size="10.00">climits</text>
</g>
<!-- Node2&#45;&gt;Node4 -->
<g id="edge3" class="edge"><title>Node2&#45;&gt;Node4</title>
<path fill="none" stroke="midnightblue" d="M55.119,-56.083C59.4075,-48.6127 65.6582,-37.7244 70.9423,-28.5199"/>
<polygon fill="midnightblue" stroke="midnightblue" points="74.0329,-30.1662 75.9762,-19.7511 67.9621,-26.6811 74.0329,-30.1662"/>
</g>
</g>
</svg>
