<?xml version="1.0" encoding="UTF-8" standalone="no"?>
<!DOCTYPE svg PUBLIC "-//W3C//DTD SVG 1.1//EN"
 "http://www.w3.org/Graphics/SVG/1.1/DTD/svg11.dtd">
<!-- Generated by graphviz version 2.36.0 (20140111.2315)
 -->
<!-- Title: PHIODataNode&lt; T &gt; Pages: 1 -->
<svg width="283pt" height="324pt"
 viewBox="0.00 0.00 283.00 324.00" xmlns="http://www.w3.org/2000/svg" xmlns:xlink="http://www.w3.org/1999/xlink">
<g id="graph0" class="graph" transform="scale(1 1) rotate(0) translate(4 320)">
<title>PHIODataNode&lt; T &gt;</title>
<!-- Node1 -->
<g id="node1" class="node"><title>Node1</title>
<polygon fill="#bfbfbf" stroke="black" points="112.5,-0.5 112.5,-19.5 219.5,-19.5 219.5,-0.5 112.5,-0.5"/>
<text text-anchor="middle" x="166" y="-7.5" font-family="FreeSans" font-size="10.00">PHIODataNode&lt; T &gt;</text>
</g>
<!-- Node2 -->
<g id="node2" class="node"><title>Node2</title>
<g id="a_node2"><a xlink:href="../../d1/d3e/classPHDataNode.html" target="_top" xlink:title="PHDataNode\&lt; T \&gt;">
<polygon fill="none" stroke="black" points="117.5,-58.5 117.5,-77.5 214.5,-77.5 214.5,-58.5 117.5,-58.5"/>
<text text-anchor="middle" x="166" y="-65.5" font-family="FreeSans" font-size="10.00">PHDataNode&lt; T &gt;</text>
</a>
</g>
</g>
<!-- Node2&#45;&gt;Node1 -->
<g id="edge1" class="edge"><title>Node2&#45;&gt;Node1</title>
<path fill="none" stroke="midnightblue" d="M166,-47.953C166,-38.2875 166,-27.0312 166,-19.5052"/>
<polygon fill="midnightblue" stroke="midnightblue" points="162.5,-48.25 166,-58.25 169.5,-48.25 162.5,-48.25"/>
</g>
<!-- Node3 -->
<g id="node3" class="node"><title>Node3</title>
<g id="a_node3"><a xlink:href="../../dc/d82/classPHNode.html" target="_top" xlink:title="PHNode">
<polygon fill="none" stroke="black" points="19,-126.5 19,-145.5 73,-145.5 73,-126.5 19,-126.5"/>
<text text-anchor="middle" x="46" y="-133.5" font-family="FreeSans" font-size="10.00">PHNode</text>
</a>
</g>
</g>
<!-- Node3&#45;&gt;Node2 -->
<g id="edge2" class="edge"><title>Node3&#45;&gt;Node2</title>
<path fill="none" stroke="midnightblue" d="M70.5184,-121.515C94.406,-108.377 130.003,-88.7981 150.308,-77.6305"/>
<polygon fill="midnightblue" stroke="midnightblue" points="68.7633,-118.486 61.6879,-126.372 72.1368,-124.619 68.7633,-118.486"/>
</g>
<!-- Node3&#45;&gt;Node3 -->
<g id="edge3" class="edge"><title>Node3&#45;&gt;Node3</title>
<path fill="none" stroke="#9a32cd" stroke-dasharray="5,2" d="M83.5105,-141.495C88.0382,-140.502 91,-138.671 91,-136 91,-131.617 83.0239,-129.494 73.2408,-129.631"/>
<polygon fill="#9a32cd" stroke="#9a32cd" points="82.9079,-138.033 73.2408,-142.369 83.5016,-145.008 82.9079,-138.033"/>
<text text-anchor="middle" x="106" y="-133.5" font-family="FreeSans" font-size="10.00"> parent</text>
</g>
<!-- Node4 -->
<g id="node4" class="node"><title>Node4</title>
<g id="a_node4"><a xlink:title="STL class. ">
<polygon fill="none" stroke="#bfbfbf" points="16.5,-226.5 16.5,-245.5 75.5,-245.5 75.5,-226.5 16.5,-226.5"/>
<text text-anchor="middle" x="46" y="-233.5" font-family="FreeSans" font-size="10.00">std::string</text>
</a>
</g>
</g>
<!-- Node4&#45;&gt;Node3 -->
<g id="edge4" class="edge"><title>Node4&#45;&gt;Node3</title>
<path fill="none" stroke="#9a32cd" stroke-dasharray="5,2" d="M46,-216.22C46,-194.951 46,-161.22 46,-145.537"/>
<polygon fill="#9a32cd" stroke="#9a32cd" points="42.5001,-216.303 46,-226.303 49.5001,-216.303 42.5001,-216.303"/>
<text text-anchor="middle" x="71" y="-200" font-family="FreeSans" font-size="10.00"> objecttype</text>
<text text-anchor="middle" x="71" y="-189" font-family="FreeSans" font-size="10.00">objectclass</text>
<text text-anchor="middle" x="71" y="-178" font-family="FreeSans" font-size="10.00">type</text>
<text text-anchor="middle" x="71" y="-167" font-family="FreeSans" font-size="10.00">name</text>
</g>
<!-- Node5 -->
<g id="node5" class="node"><title>Node5</title>
<g id="a_node5"><a xlink:title="STL class. ">
<polygon fill="none" stroke="#bfbfbf" points="-0.5,-285 -0.5,-315 92.5,-315 92.5,-285 -0.5,-285"/>
<text text-anchor="start" x="7.5" y="-303" font-family="FreeSans" font-size="10.00">std::basic_string&lt;</text>
<text text-anchor="middle" x="46" y="-292" font-family="FreeSans" font-size="10.00"> char &gt;</text>
</a>
</g>
</g>
<!-- Node5&#45;&gt;Node4 -->
<g id="edge5" class="edge"><title>Node5&#45;&gt;Node4</title>
<path fill="none" stroke="midnightblue" d="M46,-274.871C46,-264.663 46,-253.408 46,-245.842"/>
<polygon fill="midnightblue" stroke="midnightblue" points="42.5001,-274.931 46,-284.931 49.5001,-274.931 42.5001,-274.931"/>
</g>
<!-- Node6 -->
<g id="node6" class="node"><title>Node6</title>
<g id="a_node6"><a xlink:href="../../dc/dd3/unionPHDataNode_1_1tobjcast.html" target="_top" xlink:title="PHDataNode\&lt; T \&gt;::tobjcast">
<polygon fill="none" stroke="black" points="139,-126.5 139,-145.5 275,-145.5 275,-126.5 139,-126.5"/>
<text text-anchor="middle" x="207" y="-133.5" font-family="FreeSans" font-size="10.00">PHDataNode&lt; T &gt;::tobjcast</text>
</a>
</g>
</g>
<!-- Node6&#45;&gt;Node2 -->
<g id="edge6" class="edge"><title>Node6&#45;&gt;Node2</title>
<path fill="none" stroke="#9a32cd" stroke-dasharray="5,2" d="M196.168,-117.563C188.228,-104.781 177.778,-87.9599 171.492,-77.8411"/>
<polygon fill="#9a32cd" stroke="#9a32cd" points="193.39,-119.724 201.64,-126.372 199.336,-116.03 193.39,-119.724"/>
<text text-anchor="middle" x="201" y="-99.5" font-family="FreeSans" font-size="10.00"> data</text>
</g>
</g>
</svg>
