<?xml version="1.0" encoding="UTF-8" standalone="no"?>
<!DOCTYPE svg PUBLIC "-//W3C//DTD SVG 1.1//EN"
 "http://www.w3.org/Graphics/SVG/1.1/DTD/svg11.dtd">
<!-- Generated by graphviz version 2.36.0 (20140111.2315)
 -->
<!-- Title: fun4all/phool/PHNode.cc Pages: 1 -->
<svg width="278pt" height="196pt"
 viewBox="0.00 0.00 278.00 196.00" xmlns="http://www.w3.org/2000/svg" xmlns:xlink="http://www.w3.org/1999/xlink">
<g id="graph0" class="graph" transform="scale(1 1) rotate(0) translate(4 192)">
<title>fun4all/phool/PHNode.cc</title>
<!-- Node1 -->
<g id="node1" class="node"><title>Node1</title>
<polygon fill="#bfbfbf" stroke="black" points="134.5,-168.5 134.5,-187.5 259.5,-187.5 259.5,-168.5 134.5,-168.5"/>
<text text-anchor="middle" x="197" y="-175.5" font-family="FreeSans" font-size="10.00">fun4all/phool/PHNode.cc</text>
</g>
<!-- Node2 -->
<g id="node2" class="node"><title>Node2</title>
<g id="a_node2"><a xlink:href="../../d3/d62/PHNode_8h.html" target="_top" xlink:title="PHNode.h">
<polygon fill="none" stroke="black" points="82,-112.5 82,-131.5 144,-131.5 144,-112.5 82,-112.5"/>
<text text-anchor="middle" x="113" y="-119.5" font-family="FreeSans" font-size="10.00">PHNode.h</text>
</a>
</g>
</g>
<!-- Node1&#45;&gt;Node2 -->
<g id="edge1" class="edge"><title>Node1&#45;&gt;Node2</title>
<path fill="none" stroke="midnightblue" d="M183.504,-168.324C170.4,-159.9 150.288,-146.971 134.893,-137.074"/>
<polygon fill="midnightblue" stroke="midnightblue" points="136.767,-134.118 126.463,-131.655 132.982,-140.006 136.767,-134.118"/>
</g>
<!-- Node4 -->
<g id="node4" class="node"><title>Node4</title>
<polygon fill="none" stroke="#bfbfbf" points="83,-0.5 83,-19.5 137,-19.5 137,-0.5 83,-0.5"/>
<text text-anchor="middle" x="110" y="-7.5" font-family="FreeSans" font-size="10.00">iostream</text>
</g>
<!-- Node1&#45;&gt;Node4 -->
<g id="edge7" class="edge"><title>Node1&#45;&gt;Node4</title>
<path fill="none" stroke="midnightblue" d="M197.79,-168.263C199.258,-147.137 200.382,-92.3523 177,-56 168.131,-42.2118 153.374,-31.6274 139.964,-24.1984"/>
<polygon fill="midnightblue" stroke="midnightblue" points="141.475,-21.0394 130.984,-19.5587 138.261,-27.2584 141.475,-21.0394"/>
</g>
<!-- Node7 -->
<g id="node7" class="node"><title>Node7</title>
<polygon fill="none" stroke="#bfbfbf" points="225.5,-112.5 225.5,-131.5 270.5,-131.5 270.5,-112.5 225.5,-112.5"/>
<text text-anchor="middle" x="248" y="-119.5" font-family="FreeSans" font-size="10.00">cstdlib</text>
</g>
<!-- Node1&#45;&gt;Node7 -->
<g id="edge6" class="edge"><title>Node1&#45;&gt;Node7</title>
<path fill="none" stroke="midnightblue" d="M205.422,-168.083C212.848,-160.22 223.852,-148.569 232.812,-139.081"/>
<polygon fill="midnightblue" stroke="midnightblue" points="235.413,-141.424 239.735,-131.751 230.324,-136.618 235.413,-141.424"/>
</g>
<!-- Node3 -->
<g id="node3" class="node"><title>Node3</title>
<g id="a_node3"><a xlink:href="../../d5/d6f/phool_8h.html" target="_top" xlink:title="phool.h">
<polygon fill="none" stroke="black" points="-0.5,-56.5 -0.5,-75.5 46.5,-75.5 46.5,-56.5 -0.5,-56.5"/>
<text text-anchor="middle" x="23" y="-63.5" font-family="FreeSans" font-size="10.00">phool.h</text>
</a>
</g>
</g>
<!-- Node2&#45;&gt;Node3 -->
<g id="edge2" class="edge"><title>Node2&#45;&gt;Node3</title>
<path fill="none" stroke="midnightblue" d="M98.5399,-112.324C84.5004,-103.9 62.9515,-90.9709 46.4569,-81.0741"/>
<polygon fill="midnightblue" stroke="midnightblue" points="47.7999,-77.7983 37.4242,-75.6545 44.1984,-83.8007 47.7999,-77.7983"/>
</g>
<!-- Node5 -->
<g id="node5" class="node"><title>Node5</title>
<polygon fill="none" stroke="#bfbfbf" points="64.5,-56.5 64.5,-75.5 109.5,-75.5 109.5,-56.5 64.5,-56.5"/>
<text text-anchor="middle" x="87" y="-63.5" font-family="FreeSans" font-size="10.00">iosfwd</text>
</g>
<!-- Node2&#45;&gt;Node5 -->
<g id="edge4" class="edge"><title>Node2&#45;&gt;Node5</title>
<path fill="none" stroke="midnightblue" d="M108.707,-112.083C105.148,-104.691 99.9775,-93.9533 95.5757,-84.8111"/>
<polygon fill="midnightblue" stroke="midnightblue" points="98.7052,-83.2427 91.2135,-75.7511 92.3982,-86.2795 98.7052,-83.2427"/>
</g>
<!-- Node6 -->
<g id="node6" class="node"><title>Node6</title>
<polygon fill="none" stroke="#bfbfbf" points="127.5,-56.5 127.5,-75.5 168.5,-75.5 168.5,-56.5 127.5,-56.5"/>
<text text-anchor="middle" x="148" y="-63.5" font-family="FreeSans" font-size="10.00">string</text>
</g>
<!-- Node2&#45;&gt;Node6 -->
<g id="edge5" class="edge"><title>Node2&#45;&gt;Node6</title>
<path fill="none" stroke="midnightblue" d="M118.78,-112.083C123.672,-104.534 130.827,-93.4948 136.833,-84.2298"/>
<polygon fill="midnightblue" stroke="midnightblue" points="139.826,-86.0463 142.328,-75.7511 133.952,-82.239 139.826,-86.0463"/>
</g>
<!-- Node3&#45;&gt;Node4 -->
<g id="edge3" class="edge"><title>Node3&#45;&gt;Node4</title>
<path fill="none" stroke="midnightblue" d="M36.9781,-56.324C50.5496,-47.9002 71.3802,-34.9709 87.325,-25.0741"/>
<polygon fill="midnightblue" stroke="midnightblue" points="89.406,-27.9019 96.0566,-19.6545 85.7144,-21.9544 89.406,-27.9019"/>
</g>
</g>
</svg>
