<?xml version="1.0" encoding="UTF-8" standalone="no"?>
<!DOCTYPE svg PUBLIC "-//W3C//DTD SVG 1.1//EN"
 "http://www.w3.org/Graphics/SVG/1.1/DTD/svg11.dtd">
<!-- Generated by graphviz version 2.36.0 (20140111.2315)
 -->
<!-- Title: fun4all/ffaobjects/SyncObjectv2.h Pages: 1 -->
<svg width="249pt" height="108pt"
 viewBox="0.00 0.00 249.00 108.00" xmlns="http://www.w3.org/2000/svg" xmlns:xlink="http://www.w3.org/1999/xlink">
<g id="graph0" class="graph" transform="scale(1 1) rotate(0) translate(4 104)">
<title>fun4all/ffaobjects/SyncObjectv2.h</title>
<!-- Node1 -->
<g id="node1" class="node"><title>Node1</title>
<polygon fill="#bfbfbf" stroke="black" points="66,-69 66,-99 156,-99 156,-69 66,-69"/>
<text text-anchor="start" x="74" y="-87" font-family="FreeSans" font-size="10.00">fun4all/ffaobjects</text>
<text text-anchor="middle" x="111" y="-76" font-family="FreeSans" font-size="10.00">/SyncObjectv2.h</text>
</g>
<!-- Node2 -->
<g id="node2" class="node"><title>Node2</title>
<g id="a_node2"><a xlink:href="../../d5/dfb/SyncObjectv2_8cc.html" target="_top" xlink:title="fun4all/ffaobjects\l/SyncObjectv2.cc">
<polygon fill="none" stroke="black" points="-0.5,-1 -0.5,-31 92.5,-31 92.5,-1 -0.5,-1"/>
<text text-anchor="start" x="7.5" y="-19" font-family="FreeSans" font-size="10.00">fun4all/ffaobjects</text>
<text text-anchor="middle" x="46" y="-8" font-family="FreeSans" font-size="10.00">/SyncObjectv2.cc</text>
</a>
</g>
</g>
<!-- Node1&#45;&gt;Node2 -->
<g id="edge1" class="edge"><title>Node1&#45;&gt;Node2</title>
<path fill="none" stroke="midnightblue" d="M89.8115,-61.4855C80.0612,-51.5852 68.759,-40.1092 60.0765,-31.2931"/>
<polygon fill="midnightblue" stroke="midnightblue" points="87.3853,-64.01 96.896,-68.679 92.3728,-59.0982 87.3853,-64.01"/>
</g>
<!-- Node3 -->
<g id="node3" class="node"><title>Node3</title>
<g id="a_node3"><a xlink:href="../../da/d7b/Fun4AllPrdfInputManager_8cc.html" target="_top" xlink:title="fun4all/fun4all/Fun4AllPrdf\lInputManager.cc">
<polygon fill="none" stroke="black" points="110.5,-1 110.5,-31 241.5,-31 241.5,-1 110.5,-1"/>
<text text-anchor="start" x="118.5" y="-19" font-family="FreeSans" font-size="10.00">fun4all/fun4all/Fun4AllPrdf</text>
<text text-anchor="middle" x="176" y="-8" font-family="FreeSans" font-size="10.00">InputManager.cc</text>
</a>
</g>
</g>
<!-- Node1&#45;&gt;Node3 -->
<g id="edge2" class="edge"><title>Node1&#45;&gt;Node3</title>
<path fill="none" stroke="midnightblue" d="M132.189,-61.4855C141.939,-51.5852 153.241,-40.1092 161.923,-31.2931"/>
<polygon fill="midnightblue" stroke="midnightblue" points="129.627,-59.0982 125.104,-68.679 134.615,-64.01 129.627,-59.0982"/>
</g>
</g>
</svg>
