<?xml version="1.0" encoding="UTF-8" standalone="no"?>
<!DOCTYPE svg PUBLIC "-//W3C//DTD SVG 1.1//EN"
 "http://www.w3.org/Graphics/SVG/1.1/DTD/svg11.dtd">
<!-- Generated by graphviz version 2.36.0 (20140111.2315)
 -->
<!-- Title: Fun4AllEventOutputManager::AddPacket Pages: 1 -->
<svg width="466pt" height="38pt"
 viewBox="0.00 0.00 466.00 38.00" xmlns="http://www.w3.org/2000/svg" xmlns:xlink="http://www.w3.org/1999/xlink">
<g id="graph0" class="graph" transform="scale(1 1) rotate(0) translate(4 34)">
<title>Fun4AllEventOutputManager::AddPacket</title>
<!-- Node1 -->
<g id="node1" class="node"><title>Node1</title>
<polygon fill="#bfbfbf" stroke="black" points="0.5,-0 0.5,-30 141.5,-30 141.5,-0 0.5,-0"/>
<text text-anchor="start" x="8.5" y="-18" font-family="FreeSans" font-size="10.00">Fun4AllEventOutputManager</text>
<text text-anchor="middle" x="71" y="-7" font-family="FreeSans" font-size="10.00">::AddPacket</text>
</g>
<!-- Node2 -->
<g id="node2" class="node"><title>Node2</title>
<g id="a_node2"><a xlink:href="../../dc/dab/classFun4AllEventOutStream.html#a85c89498e10d6b503f6be6bd0c645ff3" target="_top" xlink:title="Fun4AllEventOutStream\l::AddPacket">
<polygon fill="none" stroke="black" points="178,-0 178,-30 300,-30 300,-0 178,-0"/>
<text text-anchor="start" x="186" y="-18" font-family="FreeSans" font-size="10.00">Fun4AllEventOutStream</text>
<text text-anchor="middle" x="239" y="-7" font-family="FreeSans" font-size="10.00">::AddPacket</text>
</a>
</g>
</g>
<!-- Node1&#45;&gt;Node2 -->
<g id="edge1" class="edge"><title>Node1&#45;&gt;Node2</title>
<path fill="none" stroke="midnightblue" d="M141.918,-15C150.422,-15 159.114,-15 167.625,-15"/>
<polygon fill="midnightblue" stroke="midnightblue" points="167.891,-18.5001 177.891,-15 167.891,-11.5001 167.891,-18.5001"/>
</g>
<!-- Node3 -->
<g id="node3" class="node"><title>Node3</title>
<g id="a_node3"><a xlink:href="../../dc/dab/classFun4AllEventOutStream.html#a5febb05c51c28dacf95c16f34178fe5f" target="_top" xlink:title="Fun4AllEventOutStream\l::AddPacketRange">
<polygon fill="none" stroke="black" points="336,-0 336,-30 458,-30 458,-0 336,-0"/>
<text text-anchor="start" x="344" y="-18" font-family="FreeSans" font-size="10.00">Fun4AllEventOutStream</text>
<text text-anchor="middle" x="397" y="-7" font-family="FreeSans" font-size="10.00">::AddPacketRange</text>
</a>
</g>
</g>
<!-- Node2&#45;&gt;Node3 -->
<g id="edge2" class="edge"><title>Node2&#45;&gt;Node3</title>
<path fill="none" stroke="midnightblue" d="M300.314,-15C308.604,-15 317.175,-15 325.626,-15"/>
<polygon fill="midnightblue" stroke="midnightblue" points="325.847,-18.5001 335.847,-15 325.847,-11.5001 325.847,-18.5001"/>
</g>
</g>
</svg>
