<?xml version="1.0" encoding="UTF-8" standalone="no"?>
<!DOCTYPE svg PUBLIC "-//W3C//DTD SVG 1.1//EN"
 "http://www.w3.org/Graphics/SVG/1.1/DTD/svg11.dtd">
<!-- Generated by graphviz version 2.36.0 (20140111.2315)
 -->
<!-- Title: Fun4AllEventOutputManager::Write Pages: 1 -->
<svg width="466pt" height="139pt"
 viewBox="0.00 0.00 466.00 139.00" xmlns="http://www.w3.org/2000/svg" xmlns:xlink="http://www.w3.org/1999/xlink">
<g id="graph0" class="graph" transform="scale(1 1) rotate(0) translate(4 135)">
<title>Fun4AllEventOutputManager::Write</title>
<!-- Node1 -->
<g id="node1" class="node"><title>Node1</title>
<polygon fill="#bfbfbf" stroke="black" points="0.5,-68 0.5,-98 141.5,-98 141.5,-68 0.5,-68"/>
<text text-anchor="start" x="8.5" y="-86" font-family="FreeSans" font-size="10.00">Fun4AllEventOutputManager</text>
<text text-anchor="middle" x="71" y="-75" font-family="FreeSans" font-size="10.00">::Write</text>
</g>
<!-- Node2 -->
<g id="node2" class="node"><title>Node2</title>
<g id="a_node2"><a xlink:href="../../da/d29/classFun4AllServer.html#a3e55156f91b2c94bb6c4ef33ffce587a" target="_top" xlink:title="Fun4AllServer::instance">
<polygon fill="none" stroke="black" points="179.5,-111.5 179.5,-130.5 298.5,-130.5 298.5,-111.5 179.5,-111.5"/>
<text text-anchor="middle" x="239" y="-118.5" font-family="FreeSans" font-size="10.00">Fun4AllServer::instance</text>
</a>
</g>
</g>
<!-- Node1&#45;&gt;Node2 -->
<g id="edge1" class="edge"><title>Node1&#45;&gt;Node2</title>
<path fill="none" stroke="midnightblue" d="M137.608,-98.0186C153.814,-101.728 170.946,-105.65 186.381,-109.184"/>
<polygon fill="midnightblue" stroke="midnightblue" points="185.723,-112.623 196.252,-111.443 187.285,-105.8 185.723,-112.623"/>
</g>
<!-- Node3 -->
<g id="node3" class="node"><title>Node3</title>
<g id="a_node3"><a xlink:href="../../da/d29/classFun4AllServer.html#abcaf6825367e5db292ff795237bdcf62" target="_top" xlink:title="Fun4AllServer::topNode">
<polygon fill="none" stroke="black" points="179.5,-73.5 179.5,-92.5 298.5,-92.5 298.5,-73.5 179.5,-73.5"/>
<text text-anchor="middle" x="239" y="-80.5" font-family="FreeSans" font-size="10.00">Fun4AllServer::topNode</text>
</a>
</g>
</g>
<!-- Node1&#45;&gt;Node3 -->
<g id="edge2" class="edge"><title>Node1&#45;&gt;Node3</title>
<path fill="none" stroke="midnightblue" d="M141.918,-83C150.995,-83 160.287,-83 169.343,-83"/>
<polygon fill="midnightblue" stroke="midnightblue" points="169.445,-86.5001 179.445,-83 169.444,-79.5001 169.445,-86.5001"/>
</g>
<!-- Node4 -->
<g id="node4" class="node"><title>Node4</title>
<g id="a_node4"><a xlink:href="../../dc/dab/classFun4AllEventOutStream.html#ac3f5579ceba1f3acdf722be550d6f374" target="_top" xlink:title="Fun4AllEventOutStream\l::WriteEvent">
<polygon fill="none" stroke="black" points="178,-24 178,-54 300,-54 300,-24 178,-24"/>
<text text-anchor="start" x="186" y="-42" font-family="FreeSans" font-size="10.00">Fun4AllEventOutStream</text>
<text text-anchor="middle" x="239" y="-31" font-family="FreeSans" font-size="10.00">::WriteEvent</text>
</a>
</g>
</g>
<!-- Node1&#45;&gt;Node4 -->
<g id="edge3" class="edge"><title>Node1&#45;&gt;Node4</title>
<path fill="none" stroke="midnightblue" d="M128.663,-67.9808C142.476,-64.3196 157.374,-60.3706 171.595,-56.6013"/>
<polygon fill="midnightblue" stroke="midnightblue" points="172.541,-59.9716 181.31,-54.0262 170.747,-53.2052 172.541,-59.9716"/>
</g>
<!-- Node5 -->
<g id="node5" class="node"><title>Node5</title>
<g id="a_node5"><a xlink:href="../../dc/dab/classFun4AllEventOutStream.html#aad9c9a83ec0bb14a7a2c19e7dcac664f" target="_top" xlink:title="Fun4AllEventOutStream\l::WriteEventOut">
<polygon fill="none" stroke="black" points="336,-49 336,-79 458,-79 458,-49 336,-49"/>
<text text-anchor="start" x="344" y="-67" font-family="FreeSans" font-size="10.00">Fun4AllEventOutStream</text>
<text text-anchor="middle" x="397" y="-56" font-family="FreeSans" font-size="10.00">::WriteEventOut</text>
</a>
</g>
</g>
<!-- Node4&#45;&gt;Node5 -->
<g id="edge4" class="edge"><title>Node4&#45;&gt;Node5</title>
<path fill="none" stroke="midnightblue" d="M300.314,-48.6657C308.695,-50.0088 317.363,-51.398 325.904,-52.7667"/>
<polygon fill="midnightblue" stroke="midnightblue" points="325.419,-56.2335 335.847,-54.3601 326.527,-49.3217 325.419,-56.2335"/>
</g>
<!-- Node6 -->
<g id="node6" class="node"><title>Node6</title>
<g id="a_node6"><a xlink:href="../../dc/dab/classFun4AllEventOutStream.html#a726413b4e49772e8392c444a8789f48a" target="_top" xlink:title="Fun4AllEventOutStream\l::resize_evtbuf">
<polygon fill="none" stroke="black" points="336,-0 336,-30 458,-30 458,-0 336,-0"/>
<text text-anchor="start" x="344" y="-18" font-family="FreeSans" font-size="10.00">Fun4AllEventOutStream</text>
<text text-anchor="middle" x="397" y="-7" font-family="FreeSans" font-size="10.00">::resize_evtbuf</text>
</a>
</g>
</g>
<!-- Node4&#45;&gt;Node6 -->
<g id="edge5" class="edge"><title>Node4&#45;&gt;Node6</title>
<path fill="none" stroke="midnightblue" d="M300.314,-29.721C308.695,-28.4316 317.363,-27.098 325.904,-25.784"/>
<polygon fill="midnightblue" stroke="midnightblue" points="326.495,-29.2343 335.847,-24.2543 325.431,-22.3157 326.495,-29.2343"/>
</g>
</g>
</svg>
