<?xml version="1.0" encoding="UTF-8" standalone="no"?>
<!DOCTYPE svg PUBLIC "-//W3C//DTD SVG 1.1//EN"
 "http://www.w3.org/Graphics/SVG/1.1/DTD/svg11.dtd">
<!-- Generated by graphviz version 2.36.0 (20140111.2315)
 -->
<!-- Title: fun4all/ffaobjects/EventHeader.h Pages: 1 -->
<svg width="179pt" height="152pt"
 viewBox="0.00 0.00 179.00 152.00" xmlns="http://www.w3.org/2000/svg" xmlns:xlink="http://www.w3.org/1999/xlink">
<g id="graph0" class="graph" transform="scale(1 1) rotate(0) translate(4 148)">
<title>fun4all/ffaobjects/EventHeader.h</title>
<!-- Node1 -->
<g id="node1" class="node"><title>Node1</title>
<polygon fill="#bfbfbf" stroke="black" points="63,-113 63,-143 153,-143 153,-113 63,-113"/>
<text text-anchor="start" x="71" y="-131" font-family="FreeSans" font-size="10.00">fun4all/ffaobjects</text>
<text text-anchor="middle" x="108" y="-120" font-family="FreeSans" font-size="10.00">/EventHeader.h</text>
</g>
<!-- Node2 -->
<g id="node2" class="node"><title>Node2</title>
<g id="a_node2"><a xlink:href="../../df/d32/PHObject_8h.html" target="_top" xlink:title="phool/PHObject.h">
<polygon fill="none" stroke="black" points="19.5,-56.5 19.5,-75.5 112.5,-75.5 112.5,-56.5 19.5,-56.5"/>
<text text-anchor="middle" x="66" y="-63.5" font-family="FreeSans" font-size="10.00">phool/PHObject.h</text>
</a>
</g>
</g>
<!-- Node1&#45;&gt;Node2 -->
<g id="edge1" class="edge"><title>Node1&#45;&gt;Node2</title>
<path fill="none" stroke="midnightblue" d="M98.0466,-112.781C92.0064,-104.152 84.2617,-93.0882 77.8991,-83.9987"/>
<polygon fill="midnightblue" stroke="midnightblue" points="80.7134,-81.9157 72.1114,-75.7305 74.9787,-85.93 80.7134,-81.9157"/>
</g>
<!-- Node5 -->
<g id="node5" class="node"><title>Node5</title>
<polygon fill="none" stroke="#bfbfbf" points="130.5,-56.5 130.5,-75.5 171.5,-75.5 171.5,-56.5 130.5,-56.5"/>
<text text-anchor="middle" x="151" y="-63.5" font-family="FreeSans" font-size="10.00">ctime</text>
</g>
<!-- Node1&#45;&gt;Node5 -->
<g id="edge4" class="edge"><title>Node1&#45;&gt;Node5</title>
<path fill="none" stroke="midnightblue" d="M118.19,-112.781C124.374,-104.152 132.303,-93.0882 138.818,-83.9987"/>
<polygon fill="midnightblue" stroke="midnightblue" points="141.763,-85.8976 144.743,-75.7305 136.073,-81.8199 141.763,-85.8976"/>
</g>
<!-- Node3 -->
<g id="node3" class="node"><title>Node3</title>
<polygon fill="none" stroke="#bfbfbf" points="-0.5,-0.5 -0.5,-19.5 58.5,-19.5 58.5,-0.5 -0.5,-0.5"/>
<text text-anchor="middle" x="29" y="-7.5" font-family="FreeSans" font-size="10.00">TObject.h</text>
</g>
<!-- Node2&#45;&gt;Node3 -->
<g id="edge2" class="edge"><title>Node2&#45;&gt;Node3</title>
<path fill="none" stroke="midnightblue" d="M59.8902,-56.083C54.7178,-48.5341 47.1539,-37.4948 40.8056,-28.2298"/>
<polygon fill="midnightblue" stroke="midnightblue" points="43.5357,-26.0221 34.9961,-19.7511 37.7612,-29.9787 43.5357,-26.0221"/>
</g>
<!-- Node4 -->
<g id="node4" class="node"><title>Node4</title>
<polygon fill="none" stroke="#bfbfbf" points="77,-0.5 77,-19.5 131,-19.5 131,-0.5 77,-0.5"/>
<text text-anchor="middle" x="104" y="-7.5" font-family="FreeSans" font-size="10.00">iostream</text>
</g>
<!-- Node2&#45;&gt;Node4 -->
<g id="edge3" class="edge"><title>Node2&#45;&gt;Node4</title>
<path fill="none" stroke="midnightblue" d="M72.2749,-56.083C77.6425,-48.4554 85.5176,-37.2645 92.0787,-27.9408"/>
<polygon fill="midnightblue" stroke="midnightblue" points="94.9492,-29.9434 97.8418,-19.7511 89.2245,-25.9149 94.9492,-29.9434"/>
</g>
</g>
</svg>
