<?xml version="1.0" encoding="UTF-8" standalone="no"?>
<!DOCTYPE svg PUBLIC "-//W3C//DTD SVG 1.1//EN"
 "http://www.w3.org/Graphics/SVG/1.1/DTD/svg11.dtd">
<!-- Generated by graphviz version 2.36.0 (20140111.2315)
 -->
<!-- Title: fun4all/ffaobjects/EventHeaderv1.h Pages: 1 -->
<svg width="179pt" height="208pt"
 viewBox="0.00 0.00 179.00 208.00" xmlns="http://www.w3.org/2000/svg" xmlns:xlink="http://www.w3.org/1999/xlink">
<g id="graph0" class="graph" transform="scale(1 1) rotate(0) translate(4 204)">
<title>fun4all/ffaobjects/EventHeaderv1.h</title>
<!-- Node1 -->
<g id="node1" class="node"><title>Node1</title>
<polygon fill="#bfbfbf" stroke="black" points="61,-169 61,-199 155,-199 155,-169 61,-169"/>
<text text-anchor="start" x="69" y="-187" font-family="FreeSans" font-size="10.00">fun4all/ffaobjects</text>
<text text-anchor="middle" x="108" y="-176" font-family="FreeSans" font-size="10.00">/EventHeaderv1.h</text>
</g>
<!-- Node2 -->
<g id="node2" class="node"><title>Node2</title>
<g id="a_node2"><a xlink:href="../../d5/d61/EventHeader_8h.html" target="_top" xlink:title="EventHeader.h">
<polygon fill="none" stroke="black" points="68,-112.5 68,-131.5 148,-131.5 148,-112.5 68,-112.5"/>
<text text-anchor="middle" x="108" y="-119.5" font-family="FreeSans" font-size="10.00">EventHeader.h</text>
</a>
</g>
</g>
<!-- Node1&#45;&gt;Node2 -->
<g id="edge1" class="edge"><title>Node1&#45;&gt;Node2</title>
<path fill="none" stroke="midnightblue" d="M108,-168.781C108,-160.781 108,-150.689 108,-142.017"/>
<polygon fill="midnightblue" stroke="midnightblue" points="111.5,-141.73 108,-131.731 104.5,-141.731 111.5,-141.73"/>
</g>
<!-- Node3 -->
<g id="node3" class="node"><title>Node3</title>
<g id="a_node3"><a xlink:href="../../df/d32/PHObject_8h.html" target="_top" xlink:title="phool/PHObject.h">
<polygon fill="none" stroke="black" points="19.5,-56.5 19.5,-75.5 112.5,-75.5 112.5,-56.5 19.5,-56.5"/>
<text text-anchor="middle" x="66" y="-63.5" font-family="FreeSans" font-size="10.00">phool/PHObject.h</text>
</a>
</g>
</g>
<!-- Node2&#45;&gt;Node3 -->
<g id="edge2" class="edge"><title>Node2&#45;&gt;Node3</title>
<path fill="none" stroke="midnightblue" d="M101.065,-112.083C95.0708,-104.377 86.2482,-93.0333 78.9524,-83.6531"/>
<polygon fill="midnightblue" stroke="midnightblue" points="81.7086,-81.4958 72.8064,-75.7511 76.1831,-85.7934 81.7086,-81.4958"/>
</g>
<!-- Node6 -->
<g id="node6" class="node"><title>Node6</title>
<polygon fill="none" stroke="#bfbfbf" points="130.5,-56.5 130.5,-75.5 171.5,-75.5 171.5,-56.5 130.5,-56.5"/>
<text text-anchor="middle" x="151" y="-63.5" font-family="FreeSans" font-size="10.00">ctime</text>
</g>
<!-- Node2&#45;&gt;Node6 -->
<g id="edge5" class="edge"><title>Node2&#45;&gt;Node6</title>
<path fill="none" stroke="midnightblue" d="M115.101,-112.083C121.237,-104.377 130.27,-93.0333 137.739,-83.6531"/>
<polygon fill="midnightblue" stroke="midnightblue" points="140.54,-85.7542 144.032,-75.7511 135.064,-81.3936 140.54,-85.7542"/>
</g>
<!-- Node4 -->
<g id="node4" class="node"><title>Node4</title>
<polygon fill="none" stroke="#bfbfbf" points="-0.5,-0.5 -0.5,-19.5 58.5,-19.5 58.5,-0.5 -0.5,-0.5"/>
<text text-anchor="middle" x="29" y="-7.5" font-family="FreeSans" font-size="10.00">TObject.h</text>
</g>
<!-- Node3&#45;&gt;Node4 -->
<g id="edge3" class="edge"><title>Node3&#45;&gt;Node4</title>
<path fill="none" stroke="midnightblue" d="M59.8902,-56.083C54.7178,-48.5341 47.1539,-37.4948 40.8056,-28.2298"/>
<polygon fill="midnightblue" stroke="midnightblue" points="43.5357,-26.0221 34.9961,-19.7511 37.7612,-29.9787 43.5357,-26.0221"/>
</g>
<!-- Node5 -->
<g id="node5" class="node"><title>Node5</title>
<polygon fill="none" stroke="#bfbfbf" points="77,-0.5 77,-19.5 131,-19.5 131,-0.5 77,-0.5"/>
<text text-anchor="middle" x="104" y="-7.5" font-family="FreeSans" font-size="10.00">iostream</text>
</g>
<!-- Node3&#45;&gt;Node5 -->
<g id="edge4" class="edge"><title>Node3&#45;&gt;Node5</title>
<path fill="none" stroke="midnightblue" d="M72.2749,-56.083C77.6425,-48.4554 85.5176,-37.2645 92.0787,-27.9408"/>
<polygon fill="midnightblue" stroke="midnightblue" points="94.9492,-29.9434 97.8418,-19.7511 89.2245,-25.9149 94.9492,-29.9434"/>
</g>
</g>
</svg>
