<?xml version="1.0" encoding="UTF-8" standalone="no"?>
<!DOCTYPE svg PUBLIC "-//W3C//DTD SVG 1.1//EN"
 "http://www.w3.org/Graphics/SVG/1.1/DTD/svg11.dtd">
<!-- Generated by graphviz version 2.36.0 (20140111.2315)
 -->
<!-- Title: Fun4AllUtils::GetRunSegment Pages: 1 -->
<svg width="664pt" height="38pt"
 viewBox="0.00 0.00 664.00 38.00" xmlns="http://www.w3.org/2000/svg" xmlns:xlink="http://www.w3.org/1999/xlink">
<g id="graph0" class="graph" transform="scale(1 1) rotate(0) translate(4 34)">
<title>Fun4AllUtils::GetRunSegment</title>
<!-- Node1 -->
<g id="node1" class="node"><title>Node1</title>
<polygon fill="#bfbfbf" stroke="black" points="0,-5.5 0,-24.5 146,-24.5 146,-5.5 0,-5.5"/>
<text text-anchor="middle" x="73" y="-12.5" font-family="FreeSans" font-size="10.00">Fun4AllUtils::GetRunSegment</text>
</g>
<!-- Node2 -->
<g id="node2" class="node"><title>Node2</title>
<g id="a_node2"><a xlink:href="../../da/dd8/classFun4AllPrdfInputManager.html#af7c7687826ed9f7495f0837fbc7f3f1e" target="_top" xlink:title="Fun4AllPrdfInputManager\l::fileopen">
<polygon fill="none" stroke="black" points="182.5,-0 182.5,-30 309.5,-30 309.5,-0 182.5,-0"/>
<text text-anchor="start" x="190.5" y="-18" font-family="FreeSans" font-size="10.00">Fun4AllPrdfInputManager</text>
<text text-anchor="middle" x="246" y="-7" font-family="FreeSans" font-size="10.00">::fileopen</text>
</a>
</g>
</g>
<!-- Node1&#45;&gt;Node2 -->
<g id="edge1" class="edge"><title>Node1&#45;&gt;Node2</title>
<path fill="none" stroke="midnightblue" d="M156.254,-15C165.006,-15 173.803,-15 182.278,-15"/>
<polygon fill="midnightblue" stroke="midnightblue" points="156.024,-11.5001 146.024,-15 156.024,-18.5001 156.024,-11.5001"/>
</g>
<!-- Node3 -->
<g id="node3" class="node"><title>Node3</title>
<g id="a_node3"><a xlink:href="../../da/dd8/classFun4AllPrdfInputManager.html#ad41dec5d04fecb25543013a8971a503c" target="_top" xlink:title="Fun4AllPrdfInputManager\l::OpenNextFile">
<polygon fill="none" stroke="black" points="346.5,-0 346.5,-30 473.5,-30 473.5,-0 346.5,-0"/>
<text text-anchor="start" x="354.5" y="-18" font-family="FreeSans" font-size="10.00">Fun4AllPrdfInputManager</text>
<text text-anchor="middle" x="410" y="-7" font-family="FreeSans" font-size="10.00">::OpenNextFile</text>
</a>
</g>
</g>
<!-- Node2&#45;&gt;Node3 -->
<g id="edge2" class="edge"><title>Node2&#45;&gt;Node3</title>
<path fill="none" stroke="midnightblue" d="M319.885,-15C328.69,-15 337.624,-15 346.266,-15"/>
<polygon fill="midnightblue" stroke="midnightblue" points="319.633,-11.5001 309.633,-15 319.633,-18.5001 319.633,-11.5001"/>
</g>
<!-- Node4 -->
<g id="node4" class="node"><title>Node4</title>
<g id="a_node4"><a xlink:href="../../da/dd8/classFun4AllPrdfInputManager.html#ac3f313ef5571ce32cd40799791e2ea56" target="_top" xlink:title="Fun4AllPrdfInputManager::run">
<polygon fill="none" stroke="black" points="510.5,-5.5 510.5,-24.5 655.5,-24.5 655.5,-5.5 510.5,-5.5"/>
<text text-anchor="middle" x="583" y="-12.5" font-family="FreeSans" font-size="10.00">Fun4AllPrdfInputManager::run</text>
</a>
</g>
</g>
<!-- Node3&#45;&gt;Node4 -->
<g id="edge3" class="edge"><title>Node3&#45;&gt;Node4</title>
<path fill="none" stroke="midnightblue" d="M483.885,-15C492.648,-15 501.592,-15 510.338,-15"/>
<polygon fill="midnightblue" stroke="midnightblue" points="483.703,-11.5001 473.703,-15 483.703,-18.5001 483.703,-11.5001"/>
</g>
</g>
</svg>
