<?xml version="1.0" encoding="UTF-8" standalone="no"?>
<!DOCTYPE svg PUBLIC "-//W3C//DTD SVG 1.1//EN"
 "http://www.w3.org/Graphics/SVG/1.1/DTD/svg11.dtd">
<!-- Generated by graphviz version 2.36.0 (20140111.2315)
 -->
<!-- Title: PHDataNodeIterator::AddIODataNode Pages: 1 -->
<svg width="608pt" height="104pt"
 viewBox="0.00 0.00 608.00 104.00" xmlns="http://www.w3.org/2000/svg" xmlns:xlink="http://www.w3.org/1999/xlink">
<g id="graph0" class="graph" transform="scale(1 1) rotate(0) translate(4 100)">
<title>PHDataNodeIterator::AddIODataNode</title>
<!-- Node1 -->
<g id="node1" class="node"><title>Node1</title>
<polygon fill="#bfbfbf" stroke="black" points="0.5,-33 0.5,-63 105.5,-63 105.5,-33 0.5,-33"/>
<text text-anchor="start" x="8.5" y="-51" font-family="FreeSans" font-size="10.00">PHDataNodeIterator</text>
<text text-anchor="middle" x="53" y="-40" font-family="FreeSans" font-size="10.00">::AddIODataNode</text>
</g>
<!-- Node2 -->
<g id="node2" class="node"><title>Node2</title>
<g id="a_node2"><a xlink:href="../../d5/d07/classPHNodeIterator.html#a2c183a75c6a6784f38ff15b6163eb7ee" target="_top" xlink:title="PHNodeIterator::addNode">
<polygon fill="none" stroke="black" points="142,-38.5 142,-57.5 270,-57.5 270,-38.5 142,-38.5"/>
<text text-anchor="middle" x="206" y="-45.5" font-family="FreeSans" font-size="10.00">PHNodeIterator::addNode</text>
</a>
</g>
</g>
<!-- Node1&#45;&gt;Node2 -->
<g id="edge1" class="edge"><title>Node1&#45;&gt;Node2</title>
<path fill="none" stroke="midnightblue" d="M105.543,-48C114.048,-48 123.004,-48 131.916,-48"/>
<polygon fill="midnightblue" stroke="midnightblue" points="131.932,-51.5001 141.932,-48 131.932,-44.5001 131.932,-51.5001"/>
</g>
<!-- Node3 -->
<g id="node3" class="node"><title>Node3</title>
<g id="a_node3"><a xlink:href="../../d5/dca/classPHCompositeNode.html#ac7dbf017614c324e218a001d729607bf" target="_top" xlink:title="PHCompositeNode::addNode">
<polygon fill="none" stroke="black" points="306,-38.5 306,-57.5 450,-57.5 450,-38.5 306,-38.5"/>
<text text-anchor="middle" x="378" y="-45.5" font-family="FreeSans" font-size="10.00">PHCompositeNode::addNode</text>
</a>
</g>
</g>
<!-- Node2&#45;&gt;Node3 -->
<g id="edge2" class="edge"><title>Node2&#45;&gt;Node3</title>
<path fill="none" stroke="midnightblue" d="M270.302,-48C278.647,-48 287.292,-48 295.884,-48"/>
<polygon fill="midnightblue" stroke="midnightblue" points="295.924,-51.5001 305.924,-48 295.924,-44.5001 295.924,-51.5001"/>
</g>
<!-- Node4 -->
<g id="node4" class="node"><title>Node4</title>
<g id="a_node4"><a xlink:href="../../d6/d86/classPHPointerList.html#af5fc4e6958b5b90c57bfb497566f503c" target="_top" xlink:title="PHPointerList::append">
<polygon fill="none" stroke="black" points="486,-76.5 486,-95.5 600,-95.5 600,-76.5 486,-76.5"/>
<text text-anchor="middle" x="543" y="-83.5" font-family="FreeSans" font-size="10.00">PHPointerList::append</text>
</a>
</g>
</g>
<!-- Node3&#45;&gt;Node4 -->
<g id="edge3" class="edge"><title>Node3&#45;&gt;Node4</title>
<path fill="none" stroke="midnightblue" d="M420.132,-57.589C441.738,-62.6261 468.409,-68.8438 491.286,-74.1771"/>
<polygon fill="midnightblue" stroke="midnightblue" points="490.63,-77.6181 501.164,-76.4799 492.22,-70.8009 490.63,-77.6181"/>
</g>
<!-- Node5 -->
<g id="node5" class="node"><title>Node5</title>
<g id="a_node5"><a xlink:href="../../dc/d82/classPHNode.html#aca3576f926a4401eddc3d88bf0ce0de3" target="_top" xlink:title="PHNode::getName">
<polygon fill="none" stroke="black" points="494,-38.5 494,-57.5 592,-57.5 592,-38.5 494,-38.5"/>
<text text-anchor="middle" x="543" y="-45.5" font-family="FreeSans" font-size="10.00">PHNode::getName</text>
</a>
</g>
</g>
<!-- Node3&#45;&gt;Node5 -->
<g id="edge4" class="edge"><title>Node3&#45;&gt;Node5</title>
<path fill="none" stroke="midnightblue" d="M450.02,-48C461.202,-48 472.652,-48 483.509,-48"/>
<polygon fill="midnightblue" stroke="midnightblue" points="483.708,-51.5001 493.708,-48 483.708,-44.5001 483.708,-51.5001"/>
</g>
<!-- Node6 -->
<g id="node6" class="node"><title>Node6</title>
<g id="a_node6"><a xlink:href="../../dc/d82/classPHNode.html#adda2bd6cef2d5067bbe3016a990b7198" target="_top" xlink:title="PHNode::setParent">
<polygon fill="none" stroke="black" points="492.5,-0.5 492.5,-19.5 593.5,-19.5 593.5,-0.5 492.5,-0.5"/>
<text text-anchor="middle" x="543" y="-7.5" font-family="FreeSans" font-size="10.00">PHNode::setParent</text>
</a>
</g>
</g>
<!-- Node3&#45;&gt;Node6 -->
<g id="edge5" class="edge"><title>Node3&#45;&gt;Node6</title>
<path fill="none" stroke="midnightblue" d="M420.132,-38.411C441.738,-33.3739 468.409,-27.1562 491.286,-21.8229"/>
<polygon fill="midnightblue" stroke="midnightblue" points="492.22,-25.1991 501.164,-19.5201 490.63,-18.3819 492.22,-25.1991"/>
</g>
</g>
</svg>
