<?xml version="1.0" encoding="UTF-8" standalone="no"?>
<!DOCTYPE svg PUBLIC "-//W3C//DTD SVG 1.1//EN"
 "http://www.w3.org/Graphics/SVG/1.1/DTD/svg11.dtd">
<!-- Generated by graphviz version 2.36.0 (20140111.2315)
 -->
<!-- Title: PHDataNodeIterator::FindIODataNode Pages: 1 -->
<svg width="408pt" height="66pt"
 viewBox="0.00 0.00 408.00 66.00" xmlns="http://www.w3.org/2000/svg" xmlns:xlink="http://www.w3.org/1999/xlink">
<g id="graph0" class="graph" transform="scale(1 1) rotate(0) translate(4 62)">
<title>PHDataNodeIterator::FindIODataNode</title>
<!-- Node1 -->
<g id="node1" class="node"><title>Node1</title>
<polygon fill="#bfbfbf" stroke="black" points="0.5,-14 0.5,-44 105.5,-44 105.5,-14 0.5,-14"/>
<text text-anchor="start" x="8.5" y="-32" font-family="FreeSans" font-size="10.00">PHDataNodeIterator</text>
<text text-anchor="middle" x="53" y="-21" font-family="FreeSans" font-size="10.00">::FindIODataNode</text>
</g>
<!-- Node2 -->
<g id="node2" class="node"><title>Node2</title>
<g id="a_node2"><a xlink:href="../../d5/d07/classPHNodeIterator.html#aea98bf8619af59b1212a94fb32106baa" target="_top" xlink:title="PHNodeIterator::findFirst">
<polygon fill="none" stroke="black" points="142,-19.5 142,-38.5 266,-38.5 266,-19.5 142,-19.5"/>
<text text-anchor="middle" x="204" y="-26.5" font-family="FreeSans" font-size="10.00">PHNodeIterator::findFirst</text>
</a>
</g>
</g>
<!-- Node1&#45;&gt;Node2 -->
<g id="edge1" class="edge"><title>Node1&#45;&gt;Node2</title>
<path fill="none" stroke="midnightblue" d="M105.695,-29C114.092,-29 122.917,-29 131.684,-29"/>
<polygon fill="midnightblue" stroke="midnightblue" points="131.918,-32.5001 141.918,-29 131.918,-25.5001 131.918,-32.5001"/>
</g>
<!-- Node2&#45;&gt;Node2 -->
<g id="edge4" class="edge"><title>Node2&#45;&gt;Node2</title>
<path fill="none" stroke="midnightblue" d="M181.497,-38.7571C170.55,-47.5653 178.051,-57 204,-57 221.029,-57 230.113,-52.9368 231.253,-47.6539"/>
<polygon fill="midnightblue" stroke="midnightblue" points="234.3,-45.9303 226.503,-38.7571 228.125,-49.227 234.3,-45.9303"/>
</g>
<!-- Node3 -->
<g id="node3" class="node"><title>Node3</title>
<g id="a_node3"><a xlink:href="../../dc/d82/classPHNode.html#a4ab1f90aed955a652813bfe377087bda" target="_top" xlink:title="PHNode::getType">
<polygon fill="none" stroke="black" points="304.5,-38.5 304.5,-57.5 397.5,-57.5 397.5,-38.5 304.5,-38.5"/>
<text text-anchor="middle" x="351" y="-45.5" font-family="FreeSans" font-size="10.00">PHNode::getType</text>
</a>
</g>
</g>
<!-- Node2&#45;&gt;Node3 -->
<g id="edge2" class="edge"><title>Node2&#45;&gt;Node3</title>
<path fill="none" stroke="midnightblue" d="M266.073,-37.0026C275.408,-38.2258 285.002,-39.483 294.215,-40.6902"/>
<polygon fill="midnightblue" stroke="midnightblue" points="294.051,-44.1986 304.421,-42.0276 294.961,-37.2579 294.051,-44.1986"/>
</g>
<!-- Node4 -->
<g id="node4" class="node"><title>Node4</title>
<g id="a_node4"><a xlink:href="../../dc/d82/classPHNode.html#aca3576f926a4401eddc3d88bf0ce0de3" target="_top" xlink:title="PHNode::getName">
<polygon fill="none" stroke="black" points="302,-0.5 302,-19.5 400,-19.5 400,-0.5 302,-0.5"/>
<text text-anchor="middle" x="351" y="-7.5" font-family="FreeSans" font-size="10.00">PHNode::getName</text>
</a>
</g>
</g>
<!-- Node2&#45;&gt;Node4 -->
<g id="edge3" class="edge"><title>Node2&#45;&gt;Node4</title>
<path fill="none" stroke="midnightblue" d="M266.073,-20.9974C274.547,-19.887 283.234,-18.7486 291.656,-17.645"/>
<polygon fill="midnightblue" stroke="midnightblue" points="292.305,-21.09 301.766,-16.3203 291.396,-14.1493 292.305,-21.09"/>
</g>
</g>
</svg>
