<?xml version="1.0" encoding="UTF-8" standalone="no"?>
<!DOCTYPE svg PUBLIC "-//W3C//DTD SVG 1.1//EN"
 "http://www.w3.org/Graphics/SVG/1.1/DTD/svg11.dtd">
<!-- Generated by graphviz version 2.36.0 (20140111.2315)
 -->
<!-- Title: fun4all/ffaobjects/FlagSave.h Pages: 1 -->
<svg width="206pt" height="176pt"
 viewBox="0.00 0.00 206.00 176.00" xmlns="http://www.w3.org/2000/svg" xmlns:xlink="http://www.w3.org/1999/xlink">
<g id="graph0" class="graph" transform="scale(1 1) rotate(0) translate(4 172)">
<title>fun4all/ffaobjects/FlagSave.h</title>
<!-- Node1 -->
<g id="node1" class="node"><title>Node1</title>
<polygon fill="#bfbfbf" stroke="black" points="54,-137 54,-167 144,-167 144,-137 54,-137"/>
<text text-anchor="start" x="62" y="-155" font-family="FreeSans" font-size="10.00">fun4all/ffaobjects</text>
<text text-anchor="middle" x="99" y="-144" font-family="FreeSans" font-size="10.00">/FlagSave.h</text>
</g>
<!-- Node2 -->
<g id="node2" class="node"><title>Node2</title>
<g id="a_node2"><a xlink:href="../../da/d62/FlagSave_8cc.html" target="_top" xlink:title="fun4all/ffaobjects\l/FlagSave.cc">
<polygon fill="none" stroke="black" points="0,-69 0,-99 90,-99 90,-69 0,-69"/>
<text text-anchor="start" x="8" y="-87" font-family="FreeSans" font-size="10.00">fun4all/ffaobjects</text>
<text text-anchor="middle" x="45" y="-76" font-family="FreeSans" font-size="10.00">/FlagSave.cc</text>
</a>
</g>
</g>
<!-- Node1&#45;&gt;Node2 -->
<g id="edge1" class="edge"><title>Node1&#45;&gt;Node2</title>
<path fill="none" stroke="midnightblue" d="M80.9193,-128.901C72.9296,-119.136 63.7661,-107.936 56.6943,-99.2931"/>
<polygon fill="midnightblue" stroke="midnightblue" points="78.2415,-131.156 87.2828,-136.679 83.6592,-126.723 78.2415,-131.156"/>
</g>
<!-- Node3 -->
<g id="node3" class="node"><title>Node3</title>
<g id="a_node3"><a xlink:href="../../dd/d5e/FlagSavev1_8h.html" target="_top" xlink:title="fun4all/ffaobjects\l/FlagSavev1.h">
<polygon fill="none" stroke="black" points="108,-69 108,-99 198,-99 198,-69 108,-69"/>
<text text-anchor="start" x="116" y="-87" font-family="FreeSans" font-size="10.00">fun4all/ffaobjects</text>
<text text-anchor="middle" x="153" y="-76" font-family="FreeSans" font-size="10.00">/FlagSavev1.h</text>
</a>
</g>
</g>
<!-- Node1&#45;&gt;Node3 -->
<g id="edge2" class="edge"><title>Node1&#45;&gt;Node3</title>
<path fill="none" stroke="midnightblue" d="M117.081,-128.901C125.07,-119.136 134.234,-107.936 141.306,-99.2931"/>
<polygon fill="midnightblue" stroke="midnightblue" points="114.341,-126.723 110.717,-136.679 119.758,-131.156 114.341,-126.723"/>
</g>
<!-- Node4 -->
<g id="node4" class="node"><title>Node4</title>
<g id="a_node4"><a xlink:href="../../d1/d32/FlagSavev1_8cc.html" target="_top" xlink:title="fun4all/ffaobjects\l/FlagSavev1.cc">
<polygon fill="none" stroke="black" points="108,-1 108,-31 198,-31 198,-1 108,-1"/>
<text text-anchor="start" x="116" y="-19" font-family="FreeSans" font-size="10.00">fun4all/ffaobjects</text>
<text text-anchor="middle" x="153" y="-8" font-family="FreeSans" font-size="10.00">/FlagSavev1.cc</text>
</a>
</g>
</g>
<!-- Node3&#45;&gt;Node4 -->
<g id="edge3" class="edge"><title>Node3&#45;&gt;Node4</title>
<path fill="none" stroke="midnightblue" d="M153,-58.5322C153,-49.3606 153,-39.2449 153,-31.2931"/>
<polygon fill="midnightblue" stroke="midnightblue" points="149.5,-58.6789 153,-68.679 156.5,-58.679 149.5,-58.6789"/>
</g>
</g>
</svg>
