<?xml version="1.0" encoding="UTF-8" standalone="no"?>
<!DOCTYPE svg PUBLIC "-//W3C//DTD SVG 1.1//EN"
 "http://www.w3.org/Graphics/SVG/1.1/DTD/svg11.dtd">
<!-- Generated by graphviz version 2.36.0 (20140111.2315)
 -->
<!-- Title: fun4all/phool/PHRandomSeed.cc Pages: 1 -->
<svg width="793pt" height="196pt"
 viewBox="0.00 0.00 793.00 196.00" xmlns="http://www.w3.org/2000/svg" xmlns:xlink="http://www.w3.org/1999/xlink">
<g id="graph0" class="graph" transform="scale(1 1) rotate(0) translate(4 192)">
<title>fun4all/phool/PHRandomSeed.cc</title>
<!-- Node1 -->
<g id="node1" class="node"><title>Node1</title>
<polygon fill="#bfbfbf" stroke="black" points="357,-168.5 357,-187.5 517,-187.5 517,-168.5 357,-168.5"/>
<text text-anchor="middle" x="437" y="-175.5" font-family="FreeSans" font-size="10.00">fun4all/phool/PHRandomSeed.cc</text>
</g>
<!-- Node2 -->
<g id="node2" class="node"><title>Node2</title>
<g id="a_node2"><a xlink:href="../../de/dea/PHRandomSeed_8h.html" target="_top" xlink:title="PHRandomSeed.h">
<polygon fill="none" stroke="black" points="-0.5,-112.5 -0.5,-131.5 96.5,-131.5 96.5,-112.5 -0.5,-112.5"/>
<text text-anchor="middle" x="48" y="-119.5" font-family="FreeSans" font-size="10.00">PHRandomSeed.h</text>
</a>
</g>
</g>
<!-- Node1&#45;&gt;Node2 -->
<g id="edge1" class="edge"><title>Node1&#45;&gt;Node2</title>
<path fill="none" stroke="midnightblue" d="M374.491,-168.461C308.858,-159.474 202.657,-144.873 111,-132 109.708,-131.818 108.4,-131.635 107.082,-131.449"/>
<polygon fill="midnightblue" stroke="midnightblue" points="107.227,-127.935 96.8358,-130 106.247,-134.866 107.227,-127.935"/>
</g>
<!-- Node3 -->
<g id="node3" class="node"><title>Node3</title>
<polygon fill="none" stroke="#bfbfbf" points="58.5,-56.5 58.5,-75.5 107.5,-75.5 107.5,-56.5 58.5,-56.5"/>
<text text-anchor="middle" x="83" y="-63.5" font-family="FreeSans" font-size="10.00">random</text>
</g>
<!-- Node1&#45;&gt;Node3 -->
<g id="edge10" class="edge"><title>Node1&#45;&gt;Node3</title>
<path fill="none" stroke="midnightblue" d="M356.876,-170.595C283.151,-163.647 179.973,-150.946 144,-132 122.909,-120.892 105.115,-99.6192 94.2855,-84.4353"/>
<polygon fill="midnightblue" stroke="midnightblue" points="97.0006,-82.2043 88.4757,-75.9132 91.2167,-86.1474 97.0006,-82.2043"/>
</g>
<!-- Node4 -->
<g id="node4" class="node"><title>Node4</title>
<g id="a_node4"><a xlink:href="../../d2/dcb/recoConsts_8h.html" target="_top" xlink:title="recoConsts.h">
<polygon fill="none" stroke="black" points="153,-112.5 153,-131.5 227,-131.5 227,-112.5 153,-112.5"/>
<text text-anchor="middle" x="190" y="-119.5" font-family="FreeSans" font-size="10.00">recoConsts.h</text>
</a>
</g>
</g>
<!-- Node1&#45;&gt;Node4 -->
<g id="edge3" class="edge"><title>Node1&#45;&gt;Node4</title>
<path fill="none" stroke="midnightblue" d="M397.862,-168.444C354.267,-158.913 283.806,-143.508 237.193,-133.318"/>
<polygon fill="midnightblue" stroke="midnightblue" points="237.855,-129.88 227.338,-131.163 236.36,-136.718 237.855,-129.88"/>
</g>
<!-- Node8 -->
<g id="node8" class="node"><title>Node8</title>
<polygon fill="none" stroke="#bfbfbf" points="245,-112.5 245,-131.5 327,-131.5 327,-112.5 245,-112.5"/>
<text text-anchor="middle" x="286" y="-119.5" font-family="FreeSans" font-size="10.00">gsl/gsl_const.h</text>
</g>
<!-- Node1&#45;&gt;Node8 -->
<g id="edge7" class="edge"><title>Node1&#45;&gt;Node8</title>
<path fill="none" stroke="midnightblue" d="M413.074,-168.444C387.781,-159.399 347.698,-145.064 319.32,-134.916"/>
<polygon fill="midnightblue" stroke="midnightblue" points="320.409,-131.588 309.814,-131.516 318.052,-138.179 320.409,-131.588"/>
</g>
<!-- Node9 -->
<g id="node9" class="node"><title>Node9</title>
<polygon fill="none" stroke="#bfbfbf" points="345.5,-112.5 345.5,-131.5 432.5,-131.5 432.5,-112.5 345.5,-112.5"/>
<text text-anchor="middle" x="389" y="-119.5" font-family="FreeSans" font-size="10.00">gsl/gsl_randist.h</text>
</g>
<!-- Node1&#45;&gt;Node9 -->
<g id="edge8" class="edge"><title>Node1&#45;&gt;Node9</title>
<path fill="none" stroke="midnightblue" d="M429.074,-168.083C422.154,-160.298 411.935,-148.801 403.548,-139.367"/>
<polygon fill="midnightblue" stroke="midnightblue" points="406.038,-136.9 396.779,-131.751 400.806,-141.55 406.038,-136.9"/>
</g>
<!-- Node10 -->
<g id="node10" class="node"><title>Node10</title>
<polygon fill="none" stroke="#bfbfbf" points="450.5,-112.5 450.5,-131.5 521.5,-131.5 521.5,-112.5 450.5,-112.5"/>
<text text-anchor="middle" x="486" y="-119.5" font-family="FreeSans" font-size="10.00">gsl/gsl_rng.h</text>
</g>
<!-- Node1&#45;&gt;Node10 -->
<g id="edge9" class="edge"><title>Node1&#45;&gt;Node10</title>
<path fill="none" stroke="midnightblue" d="M445.091,-168.083C452.155,-160.298 462.588,-148.801 471.149,-139.367"/>
<polygon fill="midnightblue" stroke="midnightblue" points="473.931,-141.509 478.059,-131.751 468.747,-136.805 473.931,-141.509"/>
</g>
<!-- Node11 -->
<g id="node11" class="node"><title>Node11</title>
<polygon fill="none" stroke="#bfbfbf" points="539.5,-112.5 539.5,-131.5 588.5,-131.5 588.5,-112.5 539.5,-112.5"/>
<text text-anchor="middle" x="564" y="-119.5" font-family="FreeSans" font-size="10.00">cassert</text>
</g>
<!-- Node1&#45;&gt;Node11 -->
<g id="edge11" class="edge"><title>Node1&#45;&gt;Node11</title>
<path fill="none" stroke="midnightblue" d="M457.124,-168.444C478.024,-159.557 510.935,-145.563 534.716,-135.451"/>
<polygon fill="midnightblue" stroke="midnightblue" points="536.138,-138.65 543.971,-131.516 533.398,-132.208 536.138,-138.65"/>
</g>
<!-- Node12 -->
<g id="node12" class="node"><title>Node12</title>
<polygon fill="none" stroke="#bfbfbf" points="606.5,-112.5 606.5,-131.5 649.5,-131.5 649.5,-112.5 606.5,-112.5"/>
<text text-anchor="middle" x="628" y="-119.5" font-family="FreeSans" font-size="10.00">cstdio</text>
</g>
<!-- Node1&#45;&gt;Node12 -->
<g id="edge12" class="edge"><title>Node1&#45;&gt;Node12</title>
<path fill="none" stroke="midnightblue" d="M467.695,-168.449C497.969,-159.998 545.813,-146.593 596.496,-132.127"/>
<polygon fill="midnightblue" stroke="midnightblue" points="597.673,-135.43 606.326,-129.317 595.75,-128.7 597.673,-135.43"/>
</g>
<!-- Node13 -->
<g id="node13" class="node"><title>Node13</title>
<polygon fill="none" stroke="#bfbfbf" points="667.5,-112.5 667.5,-131.5 712.5,-131.5 712.5,-112.5 667.5,-112.5"/>
<text text-anchor="middle" x="690" y="-119.5" font-family="FreeSans" font-size="10.00">cstdlib</text>
</g>
<!-- Node1&#45;&gt;Node13 -->
<g id="edge13" class="edge"><title>Node1&#45;&gt;Node13</title>
<path fill="none" stroke="midnightblue" d="M484.213,-168.425C526.918,-160.436 591.73,-147.735 657.237,-132.039"/>
<polygon fill="midnightblue" stroke="midnightblue" points="658.431,-135.351 667.328,-129.598 656.786,-128.547 658.431,-135.351"/>
</g>
<!-- Node14 -->
<g id="node14" class="node"><title>Node14</title>
<polygon fill="none" stroke="#bfbfbf" points="731,-112.5 731,-131.5 785,-131.5 785,-112.5 731,-112.5"/>
<text text-anchor="middle" x="758" y="-119.5" font-family="FreeSans" font-size="10.00">iostream</text>
</g>
<!-- Node1&#45;&gt;Node14 -->
<g id="edge14" class="edge"><title>Node1&#45;&gt;Node14</title>
<path fill="none" stroke="midnightblue" d="M500.149,-168.499C557.876,-160.371 645.5,-147.138 721,-132 721.101,-131.98 721.203,-131.959 721.304,-131.939"/>
<polygon fill="midnightblue" stroke="midnightblue" points="721.947,-135.381 730.979,-129.842 720.464,-128.54 721.947,-135.381"/>
</g>
<!-- Node2&#45;&gt;Node3 -->
<g id="edge2" class="edge"><title>Node2&#45;&gt;Node3</title>
<path fill="none" stroke="midnightblue" d="M53.7795,-112.083C58.6724,-104.534 65.8274,-93.4948 71.8326,-84.2298"/>
<polygon fill="midnightblue" stroke="midnightblue" points="74.826,-86.0463 77.328,-75.7511 68.952,-82.239 74.826,-86.0463"/>
</g>
<!-- Node5 -->
<g id="node5" class="node"><title>Node5</title>
<g id="a_node5"><a xlink:href="../../d0/d11/PHFlag_8h.html" target="_top" xlink:title="PHFlag.h">
<polygon fill="none" stroke="black" points="161.5,-56.5 161.5,-75.5 218.5,-75.5 218.5,-56.5 161.5,-56.5"/>
<text text-anchor="middle" x="190" y="-63.5" font-family="FreeSans" font-size="10.00">PHFlag.h</text>
</a>
</g>
</g>
<!-- Node4&#45;&gt;Node5 -->
<g id="edge4" class="edge"><title>Node4&#45;&gt;Node5</title>
<path fill="none" stroke="midnightblue" d="M190,-112.083C190,-105.006 190,-94.8611 190,-85.9865"/>
<polygon fill="midnightblue" stroke="midnightblue" points="193.5,-85.751 190,-75.7511 186.5,-85.7511 193.5,-85.751"/>
</g>
<!-- Node6 -->
<g id="node6" class="node"><title>Node6</title>
<polygon fill="none" stroke="#bfbfbf" points="144.5,-0.5 144.5,-19.5 179.5,-19.5 179.5,-0.5 144.5,-0.5"/>
<text text-anchor="middle" x="162" y="-7.5" font-family="FreeSans" font-size="10.00">map</text>
</g>
<!-- Node5&#45;&gt;Node6 -->
<g id="edge5" class="edge"><title>Node5&#45;&gt;Node6</title>
<path fill="none" stroke="midnightblue" d="M185.376,-56.083C181.544,-48.6913 175.976,-37.9533 171.235,-28.8111"/>
<polygon fill="midnightblue" stroke="midnightblue" points="174.248,-27.0175 166.538,-19.7511 168.034,-30.2398 174.248,-27.0175"/>
</g>
<!-- Node7 -->
<g id="node7" class="node"><title>Node7</title>
<polygon fill="none" stroke="#bfbfbf" points="197.5,-0.5 197.5,-19.5 238.5,-19.5 238.5,-0.5 197.5,-0.5"/>
<text text-anchor="middle" x="218" y="-7.5" font-family="FreeSans" font-size="10.00">string</text>
</g>
<!-- Node5&#45;&gt;Node7 -->
<g id="edge6" class="edge"><title>Node5&#45;&gt;Node7</title>
<path fill="none" stroke="midnightblue" d="M194.624,-56.083C198.456,-48.6913 204.024,-37.9533 208.765,-28.8111"/>
<polygon fill="midnightblue" stroke="midnightblue" points="211.966,-30.2398 213.462,-19.7511 205.752,-27.0175 211.966,-30.2398"/>
</g>
</g>
</svg>
