<?xml version="1.0" encoding="UTF-8" standalone="no"?>
<!DOCTYPE svg PUBLIC "-//W3C//DTD SVG 1.1//EN"
 "http://www.w3.org/Graphics/SVG/1.1/DTD/svg11.dtd">
<!-- Generated by graphviz version 2.36.0 (20140111.2315)
 -->
<!-- Title: Fun4AllBase::Verbosity Pages: 1 -->
<svg width="286pt" height="66pt"
 viewBox="0.00 0.00 286.00 66.00" xmlns="http://www.w3.org/2000/svg" xmlns:xlink="http://www.w3.org/1999/xlink">
<g id="graph0" class="graph" transform="scale(1 1) rotate(0) translate(4 62)">
<title>Fun4AllBase::Verbosity</title>
<!-- Node1 -->
<g id="node1" class="node"><title>Node1</title>
<polygon fill="#bfbfbf" stroke="black" points="0.5,-19.5 0.5,-38.5 117.5,-38.5 117.5,-19.5 0.5,-19.5"/>
<text text-anchor="middle" x="59" y="-26.5" font-family="FreeSans" font-size="10.00">Fun4AllBase::Verbosity</text>
</g>
<!-- Node2 -->
<g id="node2" class="node"><title>Node2</title>
<g id="a_node2"><a xlink:href="../../d0/d46/Fun4__SimpleReadMySql_8C.html#a70381893748e3445abc30632beb256ce" target="_top" xlink:title="Fun4_SimpleReadMySql">
<polygon fill="none" stroke="black" points="154.5,-38.5 154.5,-57.5 277.5,-57.5 277.5,-38.5 154.5,-38.5"/>
<text text-anchor="middle" x="216" y="-45.5" font-family="FreeSans" font-size="10.00">Fun4_SimpleReadMySql</text>
</a>
</g>
</g>
<!-- Node1&#45;&gt;Node2 -->
<g id="edge1" class="edge"><title>Node1&#45;&gt;Node2</title>
<path fill="none" stroke="midnightblue" d="M127.656,-37.2933C136.549,-38.3834 145.617,-39.495 154.383,-40.5695"/>
<polygon fill="midnightblue" stroke="midnightblue" points="128.068,-33.8177 117.716,-36.0749 127.216,-40.7657 128.068,-33.8177"/>
</g>
<!-- Node3 -->
<g id="node3" class="node"><title>Node3</title>
<g id="a_node3"><a xlink:href="../../d9/d8c/Fun4ReadMySql_8C.html#a729b39fa627147c63772f28c9be36b62" target="_top" xlink:title="Fun4ReadMySql">
<polygon fill="none" stroke="black" points="172,-0.5 172,-19.5 260,-19.5 260,-0.5 172,-0.5"/>
<text text-anchor="middle" x="216" y="-7.5" font-family="FreeSans" font-size="10.00">Fun4ReadMySql</text>
</a>
</g>
</g>
<!-- Node1&#45;&gt;Node3 -->
<g id="edge2" class="edge"><title>Node1&#45;&gt;Node3</title>
<path fill="none" stroke="midnightblue" d="M127.918,-20.6745C142.805,-18.8497 158.17,-16.9662 171.772,-15.2989"/>
<polygon fill="midnightblue" stroke="midnightblue" points="127.216,-17.2343 117.716,-21.9251 128.068,-24.1823 127.216,-17.2343"/>
</g>
</g>
</svg>
