<?xml version="1.0" encoding="UTF-8" standalone="no"?>
<!DOCTYPE svg PUBLIC "-//W3C//DTD SVG 1.1//EN"
 "http://www.w3.org/Graphics/SVG/1.1/DTD/svg11.dtd">
<!-- Generated by graphviz version 2.36.0 (20140111.2315)
 -->
<!-- Title: Fun4AllBase::Verbosity Pages: 1 -->
<svg width="298pt" height="164pt"
 viewBox="0.00 0.00 298.00 164.00" xmlns="http://www.w3.org/2000/svg" xmlns:xlink="http://www.w3.org/1999/xlink">
<g id="graph0" class="graph" transform="scale(1 1) rotate(0) translate(4 160)">
<title>Fun4AllBase::Verbosity</title>
<!-- Node1 -->
<g id="node1" class="node"><title>Node1</title>
<polygon fill="#bfbfbf" stroke="black" points="0.5,-68.5 0.5,-87.5 117.5,-87.5 117.5,-68.5 0.5,-68.5"/>
<text text-anchor="middle" x="59" y="-75.5" font-family="FreeSans" font-size="10.00">Fun4AllBase::Verbosity</text>
</g>
<!-- Node2 -->
<g id="node2" class="node"><title>Node2</title>
<g id="a_node2"><a xlink:href="../../d3/d96/classFun4AllHistoManager.html#af6d83f298ef12faa3d70434f7909a60d" target="_top" xlink:title="Fun4AllHistoManager\l::getHisto">
<polygon fill="none" stroke="black" points="167,-126 167,-156 277,-156 277,-126 167,-126"/>
<text text-anchor="start" x="175" y="-144" font-family="FreeSans" font-size="10.00">Fun4AllHistoManager</text>
<text text-anchor="middle" x="222" y="-133" font-family="FreeSans" font-size="10.00">::getHisto</text>
</a>
</g>
</g>
<!-- Node1&#45;&gt;Node2 -->
<g id="edge1" class="edge"><title>Node1&#45;&gt;Node2</title>
<path fill="none" stroke="midnightblue" d="M92.5951,-91.429C110.645,-98.8018 133.512,-108.038 154,-116 162.448,-119.283 171.526,-122.726 180.187,-125.972"/>
<polygon fill="midnightblue" stroke="midnightblue" points="93.6892,-88.095 83.1087,-87.5446 91.0367,-94.573 93.6892,-88.095"/>
</g>
<!-- Node3 -->
<g id="node3" class="node"><title>Node3</title>
<g id="a_node3"><a xlink:href="../../d0/d68/classSimpleReadMySql.html#ace02cda93f92690611b99f9bb06a677c" target="_top" xlink:title="SimpleReadMySql::InitRun">
<polygon fill="none" stroke="black" points="156.5,-87.5 156.5,-106.5 287.5,-106.5 287.5,-87.5 156.5,-87.5"/>
<text text-anchor="middle" x="222" y="-94.5" font-family="FreeSans" font-size="10.00">SimpleReadMySql::InitRun</text>
</a>
</g>
</g>
<!-- Node1&#45;&gt;Node3 -->
<g id="edge2" class="edge"><title>Node1&#45;&gt;Node3</title>
<path fill="none" stroke="midnightblue" d="M127.809,-86.0023C137.264,-87.1181 146.957,-88.2621 156.351,-89.3707"/>
<polygon fill="midnightblue" stroke="midnightblue" points="128.011,-82.502 117.67,-84.8058 127.191,-89.4537 128.011,-82.502"/>
</g>
<!-- Node4 -->
<g id="node4" class="node"><title>Node4</title>
<g id="a_node4"><a xlink:href="../../db/dda/classReadMySql.html#ab73b7895d9b3e258b58f31b66b93a827" target="_top" xlink:title="ReadMySql::InitRun">
<polygon fill="none" stroke="black" points="171.5,-49.5 171.5,-68.5 272.5,-68.5 272.5,-49.5 171.5,-49.5"/>
<text text-anchor="middle" x="222" y="-56.5" font-family="FreeSans" font-size="10.00">ReadMySql::InitRun</text>
</a>
</g>
</g>
<!-- Node1&#45;&gt;Node4 -->
<g id="edge3" class="edge"><title>Node1&#45;&gt;Node4</title>
<path fill="none" stroke="midnightblue" d="M127.709,-70.0094C142.381,-68.278 157.634,-66.4779 171.452,-64.8473"/>
<polygon fill="midnightblue" stroke="midnightblue" points="127.191,-66.5463 117.67,-71.1942 128.011,-73.498 127.191,-66.5463"/>
</g>
<!-- Node5 -->
<g id="node5" class="node"><title>Node5</title>
<g id="a_node5"><a xlink:href="../../d0/d68/classSimpleReadMySql.html#a80b8383438a4d0c279abec571ba39f84" target="_top" xlink:title="SimpleReadMySql::process\l_event">
<polygon fill="none" stroke="black" points="154.5,-0 154.5,-30 289.5,-30 289.5,-0 154.5,-0"/>
<text text-anchor="start" x="162.5" y="-18" font-family="FreeSans" font-size="10.00">SimpleReadMySql::process</text>
<text text-anchor="middle" x="222" y="-7" font-family="FreeSans" font-size="10.00">_event</text>
</a>
</g>
</g>
<!-- Node1&#45;&gt;Node5 -->
<g id="edge4" class="edge"><title>Node1&#45;&gt;Node5</title>
<path fill="none" stroke="midnightblue" d="M92.5951,-64.571C110.645,-57.1982 133.512,-47.9621 154,-40 162.448,-36.7171 171.526,-33.2736 180.187,-30.0281"/>
<polygon fill="midnightblue" stroke="midnightblue" points="91.0367,-61.427 83.1087,-68.4554 93.6892,-67.905 91.0367,-61.427"/>
</g>
</g>
</svg>
