<?xml version="1.0" encoding="UTF-8" standalone="no"?>
<!DOCTYPE svg PUBLIC "-//W3C//DTD SVG 1.1//EN"
 "http://www.w3.org/Graphics/SVG/1.1/DTD/svg11.dtd">
<!-- Generated by graphviz version 2.36.0 (20140111.2315)
 -->
<!-- Title: fun4all/phool/PHCompositeNode.h Pages: 1 -->
<svg width="258pt" height="264pt"
 viewBox="0.00 0.00 258.00 264.00" xmlns="http://www.w3.org/2000/svg" xmlns:xlink="http://www.w3.org/1999/xlink">
<g id="graph0" class="graph" transform="scale(1 1) rotate(0) translate(4 260)">
<title>fun4all/phool/PHCompositeNode.h</title>
<!-- Node1 -->
<g id="node1" class="node"><title>Node1</title>
<polygon fill="#bfbfbf" stroke="black" points="68.5,-225 68.5,-255 203.5,-255 203.5,-225 68.5,-225"/>
<text text-anchor="start" x="76.5" y="-243" font-family="FreeSans" font-size="10.00">fun4all/phool/PHComposite</text>
<text text-anchor="middle" x="136" y="-232" font-family="FreeSans" font-size="10.00">Node.h</text>
</g>
<!-- Node2 -->
<g id="node2" class="node"><title>Node2</title>
<g id="a_node2"><a xlink:href="../../d5/d6f/phool_8h.html" target="_top" xlink:title="phool.h">
<polygon fill="none" stroke="black" points="131.5,-56.5 131.5,-75.5 178.5,-75.5 178.5,-56.5 131.5,-56.5"/>
<text text-anchor="middle" x="155" y="-63.5" font-family="FreeSans" font-size="10.00">phool.h</text>
</a>
</g>
</g>
<!-- Node1&#45;&gt;Node2 -->
<g id="edge1" class="edge"><title>Node1&#45;&gt;Node2</title>
<path fill="none" stroke="midnightblue" d="M137.555,-224.925C140.963,-194.073 149.092,-120.484 152.928,-85.7549"/>
<polygon fill="midnightblue" stroke="midnightblue" points="156.432,-85.9085 154.052,-75.5847 149.475,-85.1399 156.432,-85.9085"/>
</g>
<!-- Node4 -->
<g id="node4" class="node"><title>Node4</title>
<g id="a_node4"><a xlink:href="../../d3/d62/PHNode_8h.html" target="_top" xlink:title="PHNode.h">
<polygon fill="none" stroke="black" points="46,-112.5 46,-131.5 108,-131.5 108,-112.5 46,-112.5"/>
<text text-anchor="middle" x="77" y="-119.5" font-family="FreeSans" font-size="10.00">PHNode.h</text>
</a>
</g>
</g>
<!-- Node1&#45;&gt;Node4 -->
<g id="edge3" class="edge"><title>Node1&#45;&gt;Node4</title>
<path fill="none" stroke="midnightblue" d="M128.765,-224.776C117.99,-203.591 97.7394,-163.776 86.015,-140.724"/>
<polygon fill="midnightblue" stroke="midnightblue" points="89.0818,-139.034 81.4286,-131.707 82.8424,-142.207 89.0818,-139.034"/>
</g>
<!-- Node7 -->
<g id="node7" class="node"><title>Node7</title>
<g id="a_node7"><a xlink:href="../../db/dd5/PHPointerList_8h.html" target="_top" xlink:title="PHPointerList.h">
<polygon fill="none" stroke="black" points="164,-168.5 164,-187.5 250,-187.5 250,-168.5 164,-168.5"/>
<text text-anchor="middle" x="207" y="-175.5" font-family="FreeSans" font-size="10.00">PHPointerList.h</text>
</a>
</g>
</g>
<!-- Node1&#45;&gt;Node7 -->
<g id="edge7" class="edge"><title>Node1&#45;&gt;Node7</title>
<path fill="none" stroke="midnightblue" d="M152.826,-224.781C163.675,-215.613 177.777,-203.696 188.873,-194.319"/>
<polygon fill="midnightblue" stroke="midnightblue" points="191.29,-196.858 196.669,-187.731 186.772,-191.512 191.29,-196.858"/>
</g>
<!-- Node3 -->
<g id="node3" class="node"><title>Node3</title>
<polygon fill="none" stroke="#bfbfbf" points="156,-0.5 156,-19.5 210,-19.5 210,-0.5 156,-0.5"/>
<text text-anchor="middle" x="183" y="-7.5" font-family="FreeSans" font-size="10.00">iostream</text>
</g>
<!-- Node2&#45;&gt;Node3 -->
<g id="edge2" class="edge"><title>Node2&#45;&gt;Node3</title>
<path fill="none" stroke="midnightblue" d="M159.624,-56.083C163.456,-48.6913 169.024,-37.9533 173.765,-28.8111"/>
<polygon fill="midnightblue" stroke="midnightblue" points="176.966,-30.2398 178.462,-19.7511 170.752,-27.0175 176.966,-30.2398"/>
</g>
<!-- Node4&#45;&gt;Node2 -->
<g id="edge4" class="edge"><title>Node4&#45;&gt;Node2</title>
<path fill="none" stroke="midnightblue" d="M89.532,-112.324C101.586,-103.979 120.027,-91.2122 134.269,-81.3524"/>
<polygon fill="midnightblue" stroke="midnightblue" points="136.269,-84.2243 142.499,-75.6545 132.285,-78.469 136.269,-84.2243"/>
</g>
<!-- Node5 -->
<g id="node5" class="node"><title>Node5</title>
<polygon fill="none" stroke="#bfbfbf" points="-0.5,-56.5 -0.5,-75.5 44.5,-75.5 44.5,-56.5 -0.5,-56.5"/>
<text text-anchor="middle" x="22" y="-63.5" font-family="FreeSans" font-size="10.00">iosfwd</text>
</g>
<!-- Node4&#45;&gt;Node5 -->
<g id="edge5" class="edge"><title>Node4&#45;&gt;Node5</title>
<path fill="none" stroke="midnightblue" d="M67.9179,-112.083C59.8287,-104.141 47.8046,-92.3354 38.0898,-82.7973"/>
<polygon fill="midnightblue" stroke="midnightblue" points="40.5009,-80.2595 30.9131,-75.7511 35.5967,-85.2545 40.5009,-80.2595"/>
</g>
<!-- Node6 -->
<g id="node6" class="node"><title>Node6</title>
<polygon fill="none" stroke="#bfbfbf" points="62.5,-56.5 62.5,-75.5 103.5,-75.5 103.5,-56.5 62.5,-56.5"/>
<text text-anchor="middle" x="83" y="-63.5" font-family="FreeSans" font-size="10.00">string</text>
</g>
<!-- Node4&#45;&gt;Node6 -->
<g id="edge6" class="edge"><title>Node4&#45;&gt;Node6</title>
<path fill="none" stroke="midnightblue" d="M77.9908,-112.083C78.7859,-104.927 79.9294,-94.6353 80.9232,-85.6911"/>
<polygon fill="midnightblue" stroke="midnightblue" points="84.4018,-86.0765 82.0277,-75.7511 77.4447,-85.3034 84.4018,-86.0765"/>
</g>
<!-- Node7&#45;&gt;Node2 -->
<g id="edge8" class="edge"><title>Node7&#45;&gt;Node2</title>
<path fill="none" stroke="midnightblue" d="M202.92,-168.368C194.452,-150.456 174.818,-108.923 163.485,-84.9482"/>
<polygon fill="midnightblue" stroke="midnightblue" points="166.5,-83.1363 159.061,-75.5914 160.171,-86.128 166.5,-83.1363"/>
</g>
<!-- Node7&#45;&gt;Node3 -->
<g id="edge10" class="edge"><title>Node7&#45;&gt;Node3</title>
<path fill="none" stroke="midnightblue" d="M205.71,-168.075C201.932,-141.945 190.838,-65.2106 185.686,-29.577"/>
<polygon fill="midnightblue" stroke="midnightblue" points="189.134,-28.9644 184.239,-19.5681 182.206,-29.9661 189.134,-28.9644"/>
</g>
<!-- Node7&#45;&gt;Node4 -->
<g id="edge9" class="edge"><title>Node7&#45;&gt;Node4</title>
<path fill="none" stroke="midnightblue" d="M186.401,-168.444C165.007,-159.557 131.319,-145.563 106.976,-135.451"/>
<polygon fill="midnightblue" stroke="midnightblue" points="108.08,-132.12 97.5025,-131.516 105.395,-138.585 108.08,-132.12"/>
</g>
</g>
</svg>
