<?xml version="1.0" encoding="UTF-8" standalone="no"?>
<!DOCTYPE svg PUBLIC "-//W3C//DTD SVG 1.1//EN"
 "http://www.w3.org/Graphics/SVG/1.1/DTD/svg11.dtd">
<!-- Generated by graphviz version 2.36.0 (20140111.2315)
 -->
<!-- Title: fun4all/phool/PHFlag.h Pages: 1 -->
<svg width="122pt" height="84pt"
 viewBox="0.00 0.00 122.00 84.00" xmlns="http://www.w3.org/2000/svg" xmlns:xlink="http://www.w3.org/1999/xlink">
<g id="graph0" class="graph" transform="scale(1 1) rotate(0) translate(4 80)">
<title>fun4all/phool/PHFlag.h</title>
<!-- Node1 -->
<g id="node1" class="node"><title>Node1</title>
<polygon fill="#bfbfbf" stroke="black" points="-0.5,-56.5 -0.5,-75.5 114.5,-75.5 114.5,-56.5 -0.5,-56.5"/>
<text text-anchor="middle" x="57" y="-63.5" font-family="FreeSans" font-size="10.00">fun4all/phool/PHFlag.h</text>
</g>
<!-- Node2 -->
<g id="node2" class="node"><title>Node2</title>
<polygon fill="none" stroke="#bfbfbf" points="11.5,-0.5 11.5,-19.5 46.5,-19.5 46.5,-0.5 11.5,-0.5"/>
<text text-anchor="middle" x="29" y="-7.5" font-family="FreeSans" font-size="10.00">map</text>
</g>
<!-- Node1&#45;&gt;Node2 -->
<g id="edge1" class="edge"><title>Node1&#45;&gt;Node2</title>
<path fill="none" stroke="midnightblue" d="M52.3764,-56.083C48.5437,-48.6913 42.9758,-37.9533 38.2354,-28.8111"/>
<polygon fill="midnightblue" stroke="midnightblue" points="41.248,-27.0175 33.5376,-19.7511 35.0337,-30.2398 41.248,-27.0175"/>
</g>
<!-- Node3 -->
<g id="node3" class="node"><title>Node3</title>
<polygon fill="none" stroke="#bfbfbf" points="64.5,-0.5 64.5,-19.5 105.5,-19.5 105.5,-0.5 64.5,-0.5"/>
<text text-anchor="middle" x="85" y="-7.5" font-family="FreeSans" font-size="10.00">string</text>
</g>
<!-- Node1&#45;&gt;Node3 -->
<g id="edge2" class="edge"><title>Node1&#45;&gt;Node3</title>
<path fill="none" stroke="midnightblue" d="M61.6236,-56.083C65.4563,-48.6913 71.0242,-37.9533 75.7646,-28.8111"/>
<polygon fill="midnightblue" stroke="midnightblue" points="78.9663,-30.2398 80.4624,-19.7511 72.752,-27.0175 78.9663,-30.2398"/>
</g>
</g>
</svg>
