<?xml version="1.0" encoding="UTF-8" standalone="no"?>
<!DOCTYPE svg PUBLIC "-//W3C//DTD SVG 1.1//EN"
 "http://www.w3.org/Graphics/SVG/1.1/DTD/svg11.dtd">
<!-- Generated by graphviz version 2.36.0 (20140111.2315)
 -->
<!-- Title: fun4all/fun4all/Fun4AllHistoManager.cc Pages: 1 -->
<svg width="1076pt" height="208pt"
 viewBox="0.00 0.00 1076.00 208.00" xmlns="http://www.w3.org/2000/svg" xmlns:xlink="http://www.w3.org/1999/xlink">
<g id="graph0" class="graph" transform="scale(1 1) rotate(0) translate(4 204)">
<title>fun4all/fun4all/Fun4AllHistoManager.cc</title>
<!-- Node1 -->
<g id="node1" class="node"><title>Node1</title>
<polygon fill="#bfbfbf" stroke="black" points="518,-169 518,-199 654,-199 654,-169 518,-169"/>
<text text-anchor="start" x="526" y="-187" font-family="FreeSans" font-size="10.00">fun4all/fun4all/Fun4AllHisto</text>
<text text-anchor="middle" x="586" y="-176" font-family="FreeSans" font-size="10.00">Manager.cc</text>
</g>
<!-- Node2 -->
<g id="node2" class="node"><title>Node2</title>
<g id="a_node2"><a xlink:href="../../d0/d59/Fun4AllHistoManager_8h.html" target="_top" xlink:title="Fun4AllHistoManager.h">
<polygon fill="none" stroke="black" points="234,-112.5 234,-131.5 352,-131.5 352,-112.5 234,-112.5"/>
<text text-anchor="middle" x="293" y="-119.5" font-family="FreeSans" font-size="10.00">Fun4AllHistoManager.h</text>
</a>
</g>
</g>
<!-- Node1&#45;&gt;Node2 -->
<g id="edge1" class="edge"><title>Node1&#45;&gt;Node2</title>
<path fill="none" stroke="midnightblue" d="M517.674,-169.008C464.788,-158.178 392.679,-143.412 344.565,-133.559"/>
<polygon fill="midnightblue" stroke="midnightblue" points="345.177,-130.112 334.678,-131.535 343.772,-136.97 345.177,-130.112"/>
</g>
<!-- Node6 -->
<g id="node6" class="node"><title>Node6</title>
<polygon fill="none" stroke="#bfbfbf" points="380,-56.5 380,-75.5 434,-75.5 434,-56.5 380,-56.5"/>
<text text-anchor="middle" x="407" y="-63.5" font-family="FreeSans" font-size="10.00">iostream</text>
</g>
<!-- Node1&#45;&gt;Node6 -->
<g id="edge24" class="edge"><title>Node1&#45;&gt;Node6</title>
<path fill="none" stroke="midnightblue" d="M556.6,-168.81C537.458,-159.187 512.199,-145.757 491,-132 467.027,-116.443 441.293,-95.899 424.717,-82.1082"/>
<polygon fill="midnightblue" stroke="midnightblue" points="426.849,-79.3281 416.942,-75.5743 422.346,-84.6872 426.849,-79.3281"/>
</g>
<!-- Node8 -->
<g id="node8" class="node"><title>Node8</title>
<g id="a_node8"><a xlink:href="../../d7/d5f/TDirectoryHelper_8h.html" target="_top" xlink:title="TDirectoryHelper.h">
<polygon fill="none" stroke="black" points="118.5,-112.5 118.5,-131.5 215.5,-131.5 215.5,-112.5 118.5,-112.5"/>
<text text-anchor="middle" x="167" y="-119.5" font-family="FreeSans" font-size="10.00">TDirectoryHelper.h</text>
</a>
</g>
</g>
<!-- Node1&#45;&gt;Node8 -->
<g id="edge8" class="edge"><title>Node1&#45;&gt;Node8</title>
<path fill="none" stroke="midnightblue" d="M517.76,-173.641C447.34,-163.919 334.018,-148.097 225.842,-132.108"/>
<polygon fill="midnightblue" stroke="midnightblue" points="226.132,-128.613 215.727,-130.61 225.106,-135.537 226.132,-128.613"/>
</g>
<!-- Node10 -->
<g id="node10" class="node"><title>Node10</title>
<g id="a_node10"><a xlink:href="../../d5/d6f/phool_8h.html" target="_top" xlink:title="phool/phool.h">
<polygon fill="none" stroke="black" points="370,-112.5 370,-131.5 444,-131.5 444,-112.5 370,-112.5"/>
<text text-anchor="middle" x="407" y="-119.5" font-family="FreeSans" font-size="10.00">phool/phool.h</text>
</a>
</g>
</g>
<!-- Node1&#45;&gt;Node10 -->
<g id="edge11" class="edge"><title>Node1&#45;&gt;Node10</title>
<path fill="none" stroke="midnightblue" d="M544.032,-168.933C513.067,-158.553 471.406,-144.589 442.178,-134.792"/>
<polygon fill="midnightblue" stroke="midnightblue" points="442.99,-131.372 432.396,-131.513 440.765,-138.009 442.99,-131.372"/>
</g>
<!-- Node11 -->
<g id="node11" class="node"><title>Node11</title>
<g id="a_node11"><a xlink:href="../../d2/dcb/recoConsts_8h.html" target="_top" xlink:title="phool/recoConsts.h">
<polygon fill="none" stroke="black" points="0,-112.5 0,-131.5 100,-131.5 100,-112.5 0,-112.5"/>
<text text-anchor="middle" x="50" y="-119.5" font-family="FreeSans" font-size="10.00">phool/recoConsts.h</text>
</a>
</g>
</g>
<!-- Node1&#45;&gt;Node11 -->
<g id="edge13" class="edge"><title>Node1&#45;&gt;Node11</title>
<path fill="none" stroke="midnightblue" d="M517.955,-176.693C427.3,-168.075 261.673,-151.577 110.15,-132.1"/>
<polygon fill="midnightblue" stroke="midnightblue" points="110.557,-128.624 100.19,-130.813 109.659,-135.566 110.557,-128.624"/>
</g>
<!-- Node13 -->
<g id="node13" class="node"><title>Node13</title>
<polygon fill="none" stroke="#bfbfbf" points="500,-112.5 500,-131.5 546,-131.5 546,-112.5 500,-112.5"/>
<text text-anchor="middle" x="523" y="-119.5" font-family="FreeSans" font-size="10.00">TFile.h</text>
</g>
<!-- Node1&#45;&gt;Node13 -->
<g id="edge17" class="edge"><title>Node1&#45;&gt;Node13</title>
<path fill="none" stroke="midnightblue" d="M571.07,-168.781C561.632,-159.792 549.42,-148.162 539.667,-138.873"/>
<polygon fill="midnightblue" stroke="midnightblue" points="541.822,-136.093 532.167,-131.731 536.995,-141.162 541.822,-136.093"/>
</g>
<!-- Node14 -->
<g id="node14" class="node"><title>Node14</title>
<polygon fill="none" stroke="#bfbfbf" points="564.5,-112.5 564.5,-131.5 607.5,-131.5 607.5,-112.5 564.5,-112.5"/>
<text text-anchor="middle" x="586" y="-119.5" font-family="FreeSans" font-size="10.00">TH1.h</text>
</g>
<!-- Node1&#45;&gt;Node14 -->
<g id="edge18" class="edge"><title>Node1&#45;&gt;Node14</title>
<path fill="none" stroke="midnightblue" d="M586,-168.781C586,-160.781 586,-150.689 586,-142.017"/>
<polygon fill="midnightblue" stroke="midnightblue" points="589.5,-141.73 586,-131.731 582.5,-141.731 589.5,-141.73"/>
</g>
<!-- Node15 -->
<g id="node15" class="node"><title>Node15</title>
<polygon fill="none" stroke="#bfbfbf" points="626,-112.5 626,-131.5 690,-131.5 690,-112.5 626,-112.5"/>
<text text-anchor="middle" x="658" y="-119.5" font-family="FreeSans" font-size="10.00">RVersion.h</text>
</g>
<!-- Node1&#45;&gt;Node15 -->
<g id="edge19" class="edge"><title>Node1&#45;&gt;Node15</title>
<path fill="none" stroke="midnightblue" d="M603.063,-168.781C614.065,-159.613 628.365,-147.696 639.618,-138.319"/>
<polygon fill="midnightblue" stroke="midnightblue" points="642.082,-140.821 647.523,-131.731 637.6,-135.444 642.082,-140.821"/>
</g>
<!-- Node16 -->
<g id="node16" class="node"><title>Node16</title>
<polygon fill="none" stroke="#bfbfbf" points="708,-112.5 708,-131.5 782,-131.5 782,-112.5 708,-112.5"/>
<text text-anchor="middle" x="745" y="-119.5" font-family="FreeSans" font-size="10.00">THnSparse.h</text>
</g>
<!-- Node1&#45;&gt;Node16 -->
<g id="edge20" class="edge"><title>Node1&#45;&gt;Node16</title>
<path fill="none" stroke="midnightblue" d="M623.278,-168.933C650.463,-158.674 686.926,-144.915 712.837,-135.137"/>
<polygon fill="midnightblue" stroke="midnightblue" points="714.09,-138.405 722.21,-131.6 711.618,-131.856 714.09,-138.405"/>
</g>
<!-- Node17 -->
<g id="node17" class="node"><title>Node17</title>
<polygon fill="none" stroke="#bfbfbf" points="800,-112.5 800,-131.5 862,-131.5 862,-112.5 800,-112.5"/>
<text text-anchor="middle" x="831" y="-119.5" font-family="FreeSans" font-size="10.00">TNamed.h</text>
</g>
<!-- Node1&#45;&gt;Node17 -->
<g id="edge21" class="edge"><title>Node1&#45;&gt;Node17</title>
<path fill="none" stroke="midnightblue" d="M643.442,-168.933C688.425,-157.916 749.895,-142.862 790.012,-133.038"/>
<polygon fill="midnightblue" stroke="midnightblue" points="790.848,-136.437 799.729,-130.658 789.183,-129.638 790.848,-136.437"/>
</g>
<!-- Node18 -->
<g id="node18" class="node"><title>Node18</title>
<polygon fill="none" stroke="#bfbfbf" points="880,-112.5 880,-131.5 930,-131.5 930,-112.5 880,-112.5"/>
<text text-anchor="middle" x="905" y="-119.5" font-family="FreeSans" font-size="10.00">TTree.h</text>
</g>
<!-- Node1&#45;&gt;Node18 -->
<g id="edge22" class="edge"><title>Node1&#45;&gt;Node18</title>
<path fill="none" stroke="midnightblue" d="M654.279,-172.196C711.981,-162.717 796.706,-147.982 870,-132 870.1,-131.978 870.199,-131.956 870.299,-131.935"/>
<polygon fill="midnightblue" stroke="midnightblue" points="870.875,-135.394 879.818,-129.713 869.284,-128.577 870.875,-135.394"/>
</g>
<!-- Node19 -->
<g id="node19" class="node"><title>Node19</title>
<polygon fill="none" stroke="#bfbfbf" points="948,-112.5 948,-131.5 998,-131.5 998,-112.5 948,-112.5"/>
<text text-anchor="middle" x="973" y="-119.5" font-family="FreeSans" font-size="10.00">iomanip</text>
</g>
<!-- Node1&#45;&gt;Node19 -->
<g id="edge23" class="edge"><title>Node1&#45;&gt;Node19</title>
<path fill="none" stroke="midnightblue" d="M654.073,-175.527C723.228,-167.402 833.55,-152.977 937.761,-132.055"/>
<polygon fill="midnightblue" stroke="midnightblue" points="938.722,-135.431 947.825,-130.01 937.329,-128.571 938.722,-135.431"/>
</g>
<!-- Node20 -->
<g id="node20" class="node"><title>Node20</title>
<polygon fill="none" stroke="#bfbfbf" points="1016,-112.5 1016,-131.5 1068,-131.5 1068,-112.5 1016,-112.5"/>
<text text-anchor="middle" x="1042" y="-119.5" font-family="FreeSans" font-size="10.00">sstream</text>
</g>
<!-- Node1&#45;&gt;Node20 -->
<g id="edge25" class="edge"><title>Node1&#45;&gt;Node20</title>
<path fill="none" stroke="midnightblue" d="M654.232,-177.507C735.729,-170.326 876.275,-155.981 1005.62,-132.045"/>
<polygon fill="midnightblue" stroke="midnightblue" points="1006.53,-135.437 1015.71,-130.155 1005.24,-128.557 1006.53,-135.437"/>
</g>
<!-- Node3 -->
<g id="node3" class="node"><title>Node3</title>
<g id="a_node3"><a xlink:href="../../d2/de7/Fun4AllBase_8h.html" target="_top" xlink:title="Fun4AllBase.h">
<polygon fill="none" stroke="black" points="277,-56.5 277,-75.5 357,-75.5 357,-56.5 277,-56.5"/>
<text text-anchor="middle" x="317" y="-63.5" font-family="FreeSans" font-size="10.00">Fun4AllBase.h</text>
</a>
</g>
</g>
<!-- Node2&#45;&gt;Node3 -->
<g id="edge2" class="edge"><title>Node2&#45;&gt;Node3</title>
<path fill="none" stroke="midnightblue" d="M296.963,-112.083C300.213,-104.77 304.919,-94.1814 308.954,-85.1034"/>
<polygon fill="midnightblue" stroke="midnightblue" points="312.248,-86.3107 313.111,-75.7511 305.851,-83.4677 312.248,-86.3107"/>
</g>
<!-- Node4 -->
<g id="node4" class="node"><title>Node4</title>
<polygon fill="none" stroke="#bfbfbf" points="209.5,-0.5 209.5,-19.5 250.5,-19.5 250.5,-0.5 209.5,-0.5"/>
<text text-anchor="middle" x="230" y="-7.5" font-family="FreeSans" font-size="10.00">string</text>
</g>
<!-- Node2&#45;&gt;Node4 -->
<g id="edge7" class="edge"><title>Node2&#45;&gt;Node4</title>
<path fill="none" stroke="midnightblue" d="M288.056,-112.368C277.706,-94.2957 253.583,-52.1764 239.912,-28.3074"/>
<polygon fill="midnightblue" stroke="midnightblue" points="242.928,-26.5295 234.921,-19.5914 236.853,-30.0085 242.928,-26.5295"/>
</g>
<!-- Node2&#45;&gt;Node6 -->
<g id="edge5" class="edge"><title>Node2&#45;&gt;Node6</title>
<path fill="none" stroke="midnightblue" d="M311.064,-112.444C329.575,-103.675 358.581,-89.9355 379.855,-79.8579"/>
<polygon fill="midnightblue" stroke="midnightblue" points="381.482,-82.9604 389.021,-75.5164 378.485,-76.6343 381.482,-82.9604"/>
</g>
<!-- Node7 -->
<g id="node7" class="node"><title>Node7</title>
<polygon fill="none" stroke="#bfbfbf" points="106.5,-0.5 106.5,-19.5 141.5,-19.5 141.5,-0.5 106.5,-0.5"/>
<text text-anchor="middle" x="124" y="-7.5" font-family="FreeSans" font-size="10.00">map</text>
</g>
<!-- Node2&#45;&gt;Node7 -->
<g id="edge6" class="edge"><title>Node2&#45;&gt;Node7</title>
<path fill="none" stroke="midnightblue" d="M279.739,-112.368C250.738,-93.4924 181.437,-48.385 145.873,-25.2367"/>
<polygon fill="midnightblue" stroke="midnightblue" points="147.49,-22.1132 137.2,-19.5914 143.671,-27.9799 147.49,-22.1132"/>
</g>
<!-- Node3&#45;&gt;Node4 -->
<g id="edge3" class="edge"><title>Node3&#45;&gt;Node4</title>
<path fill="none" stroke="midnightblue" d="M303.022,-56.324C289.45,-47.9002 268.62,-34.9709 252.675,-25.0741"/>
<polygon fill="midnightblue" stroke="midnightblue" points="254.286,-21.9544 243.943,-19.6545 250.594,-27.9019 254.286,-21.9544"/>
</g>
<!-- Node5 -->
<g id="node5" class="node"><title>Node5</title>
<polygon fill="none" stroke="#bfbfbf" points="294.5,-0.5 294.5,-19.5 339.5,-19.5 339.5,-0.5 294.5,-0.5"/>
<text text-anchor="middle" x="317" y="-7.5" font-family="FreeSans" font-size="10.00">climits</text>
</g>
<!-- Node3&#45;&gt;Node5 -->
<g id="edge4" class="edge"><title>Node3&#45;&gt;Node5</title>
<path fill="none" stroke="midnightblue" d="M317,-56.083C317,-49.0059 317,-38.8611 317,-29.9865"/>
<polygon fill="midnightblue" stroke="midnightblue" points="320.5,-29.751 317,-19.7511 313.5,-29.7511 320.5,-29.751"/>
</g>
<!-- Node8&#45;&gt;Node4 -->
<g id="edge9" class="edge"><title>Node8&#45;&gt;Node4</title>
<path fill="none" stroke="midnightblue" d="M171.944,-112.368C182.294,-94.2957 206.417,-52.1764 220.088,-28.3074"/>
<polygon fill="midnightblue" stroke="midnightblue" points="223.147,-30.0085 225.079,-19.5914 217.072,-26.5295 223.147,-30.0085"/>
</g>
<!-- Node9 -->
<g id="node9" class="node"><title>Node9</title>
<polygon fill="none" stroke="#bfbfbf" points="101,-56.5 101,-75.5 145,-75.5 145,-56.5 101,-56.5"/>
<text text-anchor="middle" x="123" y="-63.5" font-family="FreeSans" font-size="10.00">vector</text>
</g>
<!-- Node8&#45;&gt;Node9 -->
<g id="edge10" class="edge"><title>Node8&#45;&gt;Node9</title>
<path fill="none" stroke="midnightblue" d="M159.734,-112.083C153.455,-104.377 144.212,-93.0333 136.569,-83.6531"/>
<polygon fill="midnightblue" stroke="midnightblue" points="139.161,-81.2926 130.131,-75.7511 133.734,-85.7143 139.161,-81.2926"/>
</g>
<!-- Node10&#45;&gt;Node6 -->
<g id="edge12" class="edge"><title>Node10&#45;&gt;Node6</title>
<path fill="none" stroke="midnightblue" d="M407,-112.083C407,-105.006 407,-94.8611 407,-85.9865"/>
<polygon fill="midnightblue" stroke="midnightblue" points="410.5,-85.751 407,-75.7511 403.5,-85.7511 410.5,-85.751"/>
</g>
<!-- Node12 -->
<g id="node12" class="node"><title>Node12</title>
<g id="a_node12"><a xlink:href="../../d0/d11/PHFlag_8h.html" target="_top" xlink:title="PHFlag.h">
<polygon fill="none" stroke="black" points="25.5,-56.5 25.5,-75.5 82.5,-75.5 82.5,-56.5 25.5,-56.5"/>
<text text-anchor="middle" x="54" y="-63.5" font-family="FreeSans" font-size="10.00">PHFlag.h</text>
</a>
</g>
</g>
<!-- Node11&#45;&gt;Node12 -->
<g id="edge14" class="edge"><title>Node11&#45;&gt;Node12</title>
<path fill="none" stroke="midnightblue" d="M50.6605,-112.083C51.1848,-105.006 51.9362,-94.8611 52.5936,-85.9865"/>
<polygon fill="midnightblue" stroke="midnightblue" points="56.1034,-85.9823 53.3518,-75.7511 49.1225,-85.4652 56.1034,-85.9823"/>
</g>
<!-- Node12&#45;&gt;Node4 -->
<g id="edge16" class="edge"><title>Node12&#45;&gt;Node4</title>
<path fill="none" stroke="midnightblue" d="M81.8877,-56.4435C114.038,-46.5794 166.692,-30.424 199.792,-20.2685"/>
<polygon fill="midnightblue" stroke="midnightblue" points="200.858,-23.6023 209.392,-17.323 198.805,-16.9102 200.858,-23.6023"/>
</g>
<!-- Node12&#45;&gt;Node7 -->
<g id="edge15" class="edge"><title>Node12&#45;&gt;Node7</title>
<path fill="none" stroke="midnightblue" d="M65.2467,-56.324C75.7974,-48.1849 91.8007,-35.8395 104.442,-26.0874"/>
<polygon fill="midnightblue" stroke="midnightblue" points="106.769,-28.7132 112.549,-19.8339 102.493,-23.1707 106.769,-28.7132"/>
</g>
</g>
</svg>
