<?xml version="1.0" encoding="UTF-8" standalone="no"?>
<!DOCTYPE svg PUBLIC "-//W3C//DTD SVG 1.1//EN"
 "http://www.w3.org/Graphics/SVG/1.1/DTD/svg11.dtd">
<!-- Generated by graphviz version 2.36.0 (20140111.2315)
 -->
<!-- Title: fun4all/phool/PHPointerList.h Pages: 1 -->
<svg width="224pt" height="196pt"
 viewBox="0.00 0.00 224.00 196.00" xmlns="http://www.w3.org/2000/svg" xmlns:xlink="http://www.w3.org/1999/xlink">
<g id="graph0" class="graph" transform="scale(1 1) rotate(0) translate(4 192)">
<title>fun4all/phool/PHPointerList.h</title>
<!-- Node1 -->
<g id="node1" class="node"><title>Node1</title>
<polygon fill="#bfbfbf" stroke="black" points="-0.5,-168.5 -0.5,-187.5 142.5,-187.5 142.5,-168.5 -0.5,-168.5"/>
<text text-anchor="middle" x="71" y="-175.5" font-family="FreeSans" font-size="10.00">fun4all/phool/PHPointerList.h</text>
</g>
<!-- Node2 -->
<g id="node2" class="node"><title>Node2</title>
<g id="a_node2"><a xlink:href="../../d5/d6f/phool_8h.html" target="_top" xlink:title="phool.h">
<polygon fill="none" stroke="black" points="47.5,-56.5 47.5,-75.5 94.5,-75.5 94.5,-56.5 47.5,-56.5"/>
<text text-anchor="middle" x="71" y="-63.5" font-family="FreeSans" font-size="10.00">phool.h</text>
</a>
</g>
</g>
<!-- Node1&#45;&gt;Node2 -->
<g id="edge1" class="edge"><title>Node1&#45;&gt;Node2</title>
<path fill="none" stroke="midnightblue" d="M71,-168.368C71,-150.617 71,-109.666 71,-85.5974"/>
<polygon fill="midnightblue" stroke="midnightblue" points="74.5001,-85.5914 71,-75.5914 67.5001,-85.5915 74.5001,-85.5914"/>
</g>
<!-- Node3 -->
<g id="node3" class="node"><title>Node3</title>
<polygon fill="none" stroke="#bfbfbf" points="18,-0.5 18,-19.5 72,-19.5 72,-0.5 18,-0.5"/>
<text text-anchor="middle" x="45" y="-7.5" font-family="FreeSans" font-size="10.00">iostream</text>
</g>
<!-- Node1&#45;&gt;Node3 -->
<g id="edge7" class="edge"><title>Node1&#45;&gt;Node3</title>
<path fill="none" stroke="midnightblue" d="M67.1209,-168.316C59.677,-151.121 43.6273,-111.342 38,-76 36.6023,-67.2217 37.3148,-64.8624 38,-56 38.6788,-47.2204 40.0919,-37.5626 41.4719,-29.4526"/>
<polygon fill="midnightblue" stroke="midnightblue" points="44.9215,-30.0446 43.2611,-19.5806 38.0337,-28.7961 44.9215,-30.0446"/>
</g>
<!-- Node4 -->
<g id="node4" class="node"><title>Node4</title>
<g id="a_node4"><a xlink:href="../../d3/d62/PHNode_8h.html" target="_top" xlink:title="PHNode.h">
<polygon fill="none" stroke="black" points="101,-112.5 101,-131.5 163,-131.5 163,-112.5 101,-112.5"/>
<text text-anchor="middle" x="132" y="-119.5" font-family="FreeSans" font-size="10.00">PHNode.h</text>
</a>
</g>
</g>
<!-- Node1&#45;&gt;Node4 -->
<g id="edge3" class="edge"><title>Node1&#45;&gt;Node4</title>
<path fill="none" stroke="midnightblue" d="M80.8007,-168.324C89.8181,-160.341 103.406,-148.313 114.318,-138.653"/>
<polygon fill="midnightblue" stroke="midnightblue" points="116.853,-141.083 122.021,-131.834 112.213,-135.842 116.853,-141.083"/>
</g>
<!-- Node2&#45;&gt;Node3 -->
<g id="edge2" class="edge"><title>Node2&#45;&gt;Node3</title>
<path fill="none" stroke="midnightblue" d="M66.7066,-56.083C63.1477,-48.6913 57.9775,-37.9533 53.5757,-28.8111"/>
<polygon fill="midnightblue" stroke="midnightblue" points="56.7052,-27.2427 49.2135,-19.7511 50.3982,-30.2795 56.7052,-27.2427"/>
</g>
<!-- Node4&#45;&gt;Node2 -->
<g id="edge4" class="edge"><title>Node4&#45;&gt;Node2</title>
<path fill="none" stroke="midnightblue" d="M122.199,-112.324C113.182,-104.341 99.594,-92.3128 88.682,-82.6529"/>
<polygon fill="midnightblue" stroke="midnightblue" points="90.7866,-79.8416 80.979,-75.8339 86.1467,-85.083 90.7866,-79.8416"/>
</g>
<!-- Node5 -->
<g id="node5" class="node"><title>Node5</title>
<polygon fill="none" stroke="#bfbfbf" points="112.5,-56.5 112.5,-75.5 157.5,-75.5 157.5,-56.5 112.5,-56.5"/>
<text text-anchor="middle" x="135" y="-63.5" font-family="FreeSans" font-size="10.00">iosfwd</text>
</g>
<!-- Node4&#45;&gt;Node5 -->
<g id="edge5" class="edge"><title>Node4&#45;&gt;Node5</title>
<path fill="none" stroke="midnightblue" d="M132.495,-112.083C132.889,-105.006 133.452,-94.8611 133.945,-85.9865"/>
<polygon fill="midnightblue" stroke="midnightblue" points="137.454,-85.9299 134.514,-75.7511 130.464,-85.5415 137.454,-85.9299"/>
</g>
<!-- Node6 -->
<g id="node6" class="node"><title>Node6</title>
<polygon fill="none" stroke="#bfbfbf" points="175.5,-56.5 175.5,-75.5 216.5,-75.5 216.5,-56.5 175.5,-56.5"/>
<text text-anchor="middle" x="196" y="-63.5" font-family="FreeSans" font-size="10.00">string</text>
</g>
<!-- Node4&#45;&gt;Node6 -->
<g id="edge6" class="edge"><title>Node4&#45;&gt;Node6</title>
<path fill="none" stroke="midnightblue" d="M142.283,-112.324C151.836,-104.263 166.28,-92.0765 177.784,-82.3695"/>
<polygon fill="midnightblue" stroke="midnightblue" points="180.144,-84.9577 185.53,-75.8339 175.63,-79.6076 180.144,-84.9577"/>
</g>
</g>
</svg>
