<?xml version="1.0" encoding="UTF-8" standalone="no"?>
<!DOCTYPE svg PUBLIC "-//W3C//DTD SVG 1.1//EN"
 "http://www.w3.org/Graphics/SVG/1.1/DTD/svg11.dtd">
<!-- Generated by graphviz version 2.36.0 (20140111.2315)
 -->
<!-- Title: Fun4AllNoSyncDstInputManager::NoSyncPushBackEvents Pages: 1 -->
<svg width="518pt" height="66pt"
 viewBox="0.00 0.00 518.00 66.00" xmlns="http://www.w3.org/2000/svg" xmlns:xlink="http://www.w3.org/1999/xlink">
<g id="graph0" class="graph" transform="scale(1 1) rotate(0) translate(4 62)">
<title>Fun4AllNoSyncDstInputManager::NoSyncPushBackEvents</title>
<!-- Node1 -->
<g id="node1" class="node"><title>Node1</title>
<polygon fill="#bfbfbf" stroke="black" points="0,-14 0,-44 158,-44 158,-14 0,-14"/>
<text text-anchor="start" x="8" y="-32" font-family="FreeSans" font-size="10.00">Fun4AllNoSyncDstInputManager</text>
<text text-anchor="middle" x="79" y="-21" font-family="FreeSans" font-size="10.00">::NoSyncPushBackEvents</text>
</g>
<!-- Node2 -->
<g id="node2" class="node"><title>Node2</title>
<g id="a_node2"><a xlink:href="../../d7/d0b/classFun4AllDstInputManager.html#a8245204030490e70ef8658cf1b6794d5" target="_top" xlink:title="Fun4AllDstInputManager\l::PushBackEvents">
<polygon fill="none" stroke="black" points="194,-14 194,-44 318,-44 318,-14 194,-14"/>
<text text-anchor="start" x="202" y="-32" font-family="FreeSans" font-size="10.00">Fun4AllDstInputManager</text>
<text text-anchor="middle" x="256" y="-21" font-family="FreeSans" font-size="10.00">::PushBackEvents</text>
</a>
</g>
</g>
<!-- Node1&#45;&gt;Node2 -->
<g id="edge1" class="edge"><title>Node1&#45;&gt;Node2</title>
<path fill="none" stroke="midnightblue" d="M158.032,-29C166.585,-29 175.261,-29 183.726,-29"/>
<polygon fill="midnightblue" stroke="midnightblue" points="183.926,-32.5001 193.926,-29 183.926,-25.5001 183.926,-32.5001"/>
</g>
<!-- Node3 -->
<g id="node3" class="node"><title>Node3</title>
<g id="a_node3"><a xlink:href="../../d0/d36/classPHIOManager.html#aea7d5c3333137f593ad4cfc8f9c30466" target="_top" xlink:title="PHIOManager::getEventNumber">
<polygon fill="none" stroke="black" points="354,-38.5 354,-57.5 510,-57.5 510,-38.5 354,-38.5"/>
<text text-anchor="middle" x="432" y="-45.5" font-family="FreeSans" font-size="10.00">PHIOManager::getEventNumber</text>
</a>
</g>
</g>
<!-- Node2&#45;&gt;Node3 -->
<g id="edge2" class="edge"><title>Node2&#45;&gt;Node3</title>
<path fill="none" stroke="midnightblue" d="M318.346,-35.6987C326.574,-36.5971 335.138,-37.5323 343.706,-38.4679"/>
<polygon fill="midnightblue" stroke="midnightblue" points="343.425,-41.9579 353.746,-39.5642 344.185,-34.9993 343.425,-41.9579"/>
</g>
<!-- Node4 -->
<g id="node4" class="node"><title>Node4</title>
<g id="a_node4"><a xlink:href="../../d0/d36/classPHIOManager.html#aee0b0ab22284ccb71cdcc57d392c7432" target="_top" xlink:title="PHIOManager::setEventNumber">
<polygon fill="none" stroke="black" points="354,-0.5 354,-19.5 510,-19.5 510,-0.5 354,-0.5"/>
<text text-anchor="middle" x="432" y="-7.5" font-family="FreeSans" font-size="10.00">PHIOManager::setEventNumber</text>
</a>
</g>
</g>
<!-- Node2&#45;&gt;Node4 -->
<g id="edge3" class="edge"><title>Node2&#45;&gt;Node4</title>
<path fill="none" stroke="midnightblue" d="M318.346,-22.3013C326.574,-21.4029 335.138,-20.4677 343.706,-19.5321"/>
<polygon fill="midnightblue" stroke="midnightblue" points="344.185,-23.0007 353.746,-18.4358 343.425,-16.0421 344.185,-23.0007"/>
</g>
</g>
</svg>
