<?xml version="1.0" encoding="UTF-8" standalone="no"?>
<!DOCTYPE svg PUBLIC "-//W3C//DTD SVG 1.1//EN"
 "http://www.w3.org/Graphics/SVG/1.1/DTD/svg11.dtd">
<!-- Generated by graphviz version 2.36.0 (20140111.2315)
 -->
<!-- Title: FlagSave Pages: 1 -->
<svg width="76pt" height="196pt"
 viewBox="0.00 0.00 76.00 196.00" xmlns="http://www.w3.org/2000/svg" xmlns:xlink="http://www.w3.org/1999/xlink">
<g id="graph0" class="graph" transform="scale(1 1) rotate(0) translate(4 192)">
<title>FlagSave</title>
<!-- Node1 -->
<g id="node1" class="node"><title>Node1</title>
<polygon fill="#bfbfbf" stroke="black" points="5,-56.5 5,-75.5 63,-75.5 63,-56.5 5,-56.5"/>
<text text-anchor="middle" x="34" y="-63.5" font-family="FreeSans" font-size="10.00">FlagSave</text>
</g>
<!-- Node4 -->
<g id="node4" class="node"><title>Node4</title>
<g id="a_node4"><a xlink:href="../../da/db3/classFlagSavev1.html" target="_top" xlink:title="FlagSavev1">
<polygon fill="none" stroke="black" points="0,-0.5 0,-19.5 68,-19.5 68,-0.5 0,-0.5"/>
<text text-anchor="middle" x="34" y="-7.5" font-family="FreeSans" font-size="10.00">FlagSavev1</text>
</a>
</g>
</g>
<!-- Node1&#45;&gt;Node4 -->
<g id="edge3" class="edge"><title>Node1&#45;&gt;Node4</title>
<path fill="none" stroke="midnightblue" d="M34,-45.8045C34,-36.9102 34,-26.7798 34,-19.7511"/>
<polygon fill="midnightblue" stroke="midnightblue" points="30.5001,-46.083 34,-56.083 37.5001,-46.083 30.5001,-46.083"/>
</g>
<!-- Node2 -->
<g id="node2" class="node"><title>Node2</title>
<g id="a_node2"><a xlink:href="../../d9/d24/classPHObject.html" target="_top" xlink:title="PHObject">
<polygon fill="none" stroke="black" points="4.5,-112.5 4.5,-131.5 63.5,-131.5 63.5,-112.5 4.5,-112.5"/>
<text text-anchor="middle" x="34" y="-119.5" font-family="FreeSans" font-size="10.00">PHObject</text>
</a>
</g>
</g>
<!-- Node2&#45;&gt;Node1 -->
<g id="edge1" class="edge"><title>Node2&#45;&gt;Node1</title>
<path fill="none" stroke="midnightblue" d="M34,-101.805C34,-92.9102 34,-82.7798 34,-75.7511"/>
<polygon fill="midnightblue" stroke="midnightblue" points="30.5001,-102.083 34,-112.083 37.5001,-102.083 30.5001,-102.083"/>
</g>
<!-- Node3 -->
<g id="node3" class="node"><title>Node3</title>
<polygon fill="none" stroke="#bfbfbf" points="8.5,-168.5 8.5,-187.5 59.5,-187.5 59.5,-168.5 8.5,-168.5"/>
<text text-anchor="middle" x="34" y="-175.5" font-family="FreeSans" font-size="10.00">TObject</text>
</g>
<!-- Node3&#45;&gt;Node2 -->
<g id="edge2" class="edge"><title>Node3&#45;&gt;Node2</title>
<path fill="none" stroke="midnightblue" d="M34,-157.805C34,-148.91 34,-138.78 34,-131.751"/>
<polygon fill="midnightblue" stroke="midnightblue" points="30.5001,-158.083 34,-168.083 37.5001,-158.083 30.5001,-158.083"/>
</g>
</g>
</svg>
