<?xml version="1.0" encoding="UTF-8" standalone="no"?>
<!DOCTYPE svg PUBLIC "-//W3C//DTD SVG 1.1//EN"
 "http://www.w3.org/Graphics/SVG/1.1/DTD/svg11.dtd">
<!-- Generated by graphviz version 2.36.0 (20140111.2315)
 -->
<!-- Title: fun4all/fun4all/Fun4AllPrdfOutputManager.cc Pages: 1 -->
<svg width="751pt" height="376pt"
 viewBox="0.00 0.00 750.59 376.00" xmlns="http://www.w3.org/2000/svg" xmlns:xlink="http://www.w3.org/1999/xlink">
<g id="graph0" class="graph" transform="scale(1 1) rotate(0) translate(4 372)">
<title>fun4all/fun4all/Fun4AllPrdfOutputManager.cc</title>
<!-- Node1 -->
<g id="node1" class="node"><title>Node1</title>
<polygon fill="#bfbfbf" stroke="black" points="304.088,-337 304.088,-367 435.088,-367 435.088,-337 304.088,-337"/>
<text text-anchor="start" x="312.088" y="-355" font-family="FreeSans" font-size="10.00">fun4all/fun4all/Fun4AllPrdf</text>
<text text-anchor="middle" x="369.588" y="-344" font-family="FreeSans" font-size="10.00">OutputManager.cc</text>
</g>
<!-- Node2 -->
<g id="node2" class="node"><title>Node2</title>
<g id="a_node2"><a xlink:href="../../d0/d7a/Fun4AllPrdfOutputManager_8h.html" target="_top" xlink:title="Fun4AllPrdfOutputManager.h">
<polygon fill="none" stroke="black" points="19.5878,-224.5 19.5878,-243.5 161.588,-243.5 161.588,-224.5 19.5878,-224.5"/>
<text text-anchor="middle" x="90.5878" y="-231.5" font-family="FreeSans" font-size="10.00">Fun4AllPrdfOutputManager.h</text>
</a>
</g>
</g>
<!-- Node1&#45;&gt;Node2 -->
<g id="edge1" class="edge"><title>Node1&#45;&gt;Node2</title>
<path fill="none" stroke="midnightblue" d="M303.968,-340.465C265.267,-332.636 216.099,-319.817 175.588,-300 149.156,-287.07 122.893,-265.258 106.708,-250.504"/>
<polygon fill="midnightblue" stroke="midnightblue" points="108.916,-247.777 99.216,-243.516 104.142,-252.896 108.916,-247.777"/>
</g>
<!-- Node5 -->
<g id="node5" class="node"><title>Node5</title>
<polygon fill="none" stroke="#bfbfbf" points="157.088,-56.5 157.088,-75.5 198.088,-75.5 198.088,-56.5 157.088,-56.5"/>
<text text-anchor="middle" x="177.588" y="-63.5" font-family="FreeSans" font-size="10.00">string</text>
</g>
<!-- Node1&#45;&gt;Node5 -->
<g id="edge30" class="edge"><title>Node1&#45;&gt;Node5</title>
<path fill="none" stroke="midnightblue" d="M306.698,-336.895C285.055,-329.216 262.331,-317.554 246.588,-300 226.493,-277.593 227.588,-265.098 227.588,-235 227.588,-235 227.588,-235 227.588,-177 227.588,-141.184 205.348,-104.214 190.533,-83.5601"/>
<polygon fill="midnightblue" stroke="midnightblue" points="193.322,-81.4456 184.54,-75.5193 187.71,-85.6289 193.322,-81.4456"/>
</g>
<!-- Node7 -->
<g id="node7" class="node"><title>Node7</title>
<polygon fill="none" stroke="#bfbfbf" points="155.588,-112.5 155.588,-131.5 199.588,-131.5 199.588,-112.5 155.588,-112.5"/>
<text text-anchor="middle" x="177.588" y="-119.5" font-family="FreeSans" font-size="10.00">vector</text>
</g>
<!-- Node1&#45;&gt;Node7 -->
<g id="edge31" class="edge"><title>Node1&#45;&gt;Node7</title>
<path fill="none" stroke="midnightblue" d="M303.936,-344.809C272.329,-338.439 236.427,-325.637 213.588,-300 173.483,-254.982 173.313,-177.746 175.714,-142.079"/>
<polygon fill="midnightblue" stroke="midnightblue" points="179.237,-141.938 176.572,-131.683 172.261,-141.361 179.237,-141.938"/>
</g>
<!-- Node8 -->
<g id="node8" class="node"><title>Node8</title>
<g id="a_node8"><a xlink:href="../../d2/dcb/recoConsts_8h.html" target="_top" xlink:title="phool/recoConsts.h">
<polygon fill="none" stroke="black" points="255.588,-280.5 255.588,-299.5 355.588,-299.5 355.588,-280.5 255.588,-280.5"/>
<text text-anchor="middle" x="305.588" y="-287.5" font-family="FreeSans" font-size="10.00">phool/recoConsts.h</text>
</a>
</g>
</g>
<!-- Node1&#45;&gt;Node8 -->
<g id="edge9" class="edge"><title>Node1&#45;&gt;Node8</title>
<path fill="none" stroke="midnightblue" d="M354.421,-336.781C344.737,-327.703 332.179,-315.929 322.223,-306.595"/>
<polygon fill="midnightblue" stroke="midnightblue" points="324.59,-304.017 314.9,-299.731 319.802,-309.123 324.59,-304.017"/>
</g>
<!-- Node11 -->
<g id="node11" class="node"><title>Node11</title>
<g id="a_node11"><a xlink:href="../../d8/dfd/PHNodeIterator_8h.html" target="_top" xlink:title="phool/PHNodeIterator.h">
<polygon fill="none" stroke="black" points="374.088,-280.5 374.088,-299.5 493.088,-299.5 493.088,-280.5 374.088,-280.5"/>
<text text-anchor="middle" x="433.588" y="-287.5" font-family="FreeSans" font-size="10.00">phool/PHNodeIterator.h</text>
</a>
</g>
</g>
<!-- Node1&#45;&gt;Node11 -->
<g id="edge13" class="edge"><title>Node1&#45;&gt;Node11</title>
<path fill="none" stroke="midnightblue" d="M384.755,-336.781C394.438,-327.703 406.997,-315.929 416.953,-306.595"/>
<polygon fill="midnightblue" stroke="midnightblue" points="419.374,-309.123 424.275,-299.731 414.586,-304.017 419.374,-309.123"/>
</g>
<!-- Node13 -->
<g id="node13" class="node"><title>Node13</title>
<polygon fill="none" stroke="#bfbfbf" points="465.588,-0.5 465.588,-19.5 519.588,-19.5 519.588,-0.5 465.588,-0.5"/>
<text text-anchor="middle" x="492.588" y="-7.5" font-family="FreeSans" font-size="10.00">iostream</text>
</g>
<!-- Node1&#45;&gt;Node13 -->
<g id="edge29" class="edge"><title>Node1&#45;&gt;Node13</title>
<path fill="none" stroke="midnightblue" d="M435.275,-343.51C498.823,-332.179 585.588,-304.063 585.588,-235 585.588,-235 585.588,-235 585.588,-121 585.588,-78.3108 544.237,-43.6429 516.681,-25.2801"/>
<polygon fill="midnightblue" stroke="midnightblue" points="518.254,-22.1316 507.945,-19.6897 514.482,-28.0278 518.254,-22.1316"/>
</g>
<!-- Node14 -->
<g id="node14" class="node"><title>Node14</title>
<g id="a_node14"><a xlink:href="../../d8/d30/PHCompositeNode_8h.html" target="_top" xlink:title="PHCompositeNode.h">
<polygon fill="none" stroke="black" points="411.588,-224.5 411.588,-243.5 519.588,-243.5 519.588,-224.5 411.588,-224.5"/>
<text text-anchor="middle" x="465.588" y="-231.5" font-family="FreeSans" font-size="10.00">PHCompositeNode.h</text>
</a>
</g>
</g>
<!-- Node1&#45;&gt;Node14 -->
<g id="edge27" class="edge"><title>Node1&#45;&gt;Node14</title>
<path fill="none" stroke="midnightblue" d="M435.195,-341.711C460.266,-334.61 486.444,-322.086 501.588,-300 512.667,-283.842 497.93,-263.978 484.109,-250.493"/>
<polygon fill="midnightblue" stroke="midnightblue" points="486.439,-247.881 476.694,-243.721 481.718,-253.05 486.439,-247.881"/>
</g>
<!-- Node18 -->
<g id="node18" class="node"><title>Node18</title>
<polygon fill="none" stroke="#bfbfbf" points="614.088,-280.5 614.088,-299.5 743.088,-299.5 743.088,-280.5 614.088,-280.5"/>
<text text-anchor="middle" x="678.588" y="-287.5" font-family="FreeSans" font-size="10.00">phool/PHRawOManager.h</text>
</g>
<!-- Node1&#45;&gt;Node18 -->
<g id="edge28" class="edge"><title>Node1&#45;&gt;Node18</title>
<path fill="none" stroke="midnightblue" d="M435.119,-338.276C491.539,-327.32 571.97,-311.702 624.713,-301.461"/>
<polygon fill="midnightblue" stroke="midnightblue" points="625.402,-304.893 634.552,-299.551 624.068,-298.021 625.402,-304.893"/>
</g>
<!-- Node3 -->
<g id="node3" class="node"><title>Node3</title>
<g id="a_node3"><a xlink:href="../../de/df8/Fun4AllOutputManager_8h.html" target="_top" xlink:title="Fun4AllOutputManager.h">
<polygon fill="none" stroke="black" points="33.5878,-168.5 33.5878,-187.5 157.588,-187.5 157.588,-168.5 33.5878,-168.5"/>
<text text-anchor="middle" x="95.5878" y="-175.5" font-family="FreeSans" font-size="10.00">Fun4AllOutputManager.h</text>
</a>
</g>
</g>
<!-- Node2&#45;&gt;Node3 -->
<g id="edge2" class="edge"><title>Node2&#45;&gt;Node3</title>
<path fill="none" stroke="midnightblue" d="M91.4135,-224.083C92.0688,-217.006 93.0081,-206.861 93.8298,-197.986"/>
<polygon fill="midnightblue" stroke="midnightblue" points="97.3406,-198.031 94.7775,-187.751 90.3704,-197.386 97.3406,-198.031"/>
</g>
<!-- Node2&#45;&gt;Node5 -->
<g id="edge8" class="edge"><title>Node2&#45;&gt;Node5</title>
<path fill="none" stroke="midnightblue" d="M70.9155,-224.416C56.004,-216.912 36.1651,-204.611 24.5878,-188 4.94929,-159.822 -10.3015,-139.263 10.5878,-112 27.0797,-90.4759 103.423,-76.9244 146.958,-70.8094"/>
<polygon fill="midnightblue" stroke="midnightblue" points="147.567,-74.2591 157.006,-69.4482 146.627,-67.3224 147.567,-74.2591"/>
</g>
<!-- Node4 -->
<g id="node4" class="node"><title>Node4</title>
<g id="a_node4"><a xlink:href="../../d2/de7/Fun4AllBase_8h.html" target="_top" xlink:title="Fun4AllBase.h">
<polygon fill="none" stroke="black" points="19.5878,-112.5 19.5878,-131.5 99.5878,-131.5 99.5878,-112.5 19.5878,-112.5"/>
<text text-anchor="middle" x="59.5878" y="-119.5" font-family="FreeSans" font-size="10.00">Fun4AllBase.h</text>
</a>
</g>
</g>
<!-- Node3&#45;&gt;Node4 -->
<g id="edge3" class="edge"><title>Node3&#45;&gt;Node4</title>
<path fill="none" stroke="midnightblue" d="M89.6431,-168.083C84.6105,-160.534 77.251,-149.495 71.0743,-140.23"/>
<polygon fill="midnightblue" stroke="midnightblue" points="73.8811,-138.13 65.4219,-131.751 68.0567,-142.013 73.8811,-138.13"/>
</g>
<!-- Node3&#45;&gt;Node5 -->
<g id="edge7" class="edge"><title>Node3&#45;&gt;Node5</title>
<path fill="none" stroke="midnightblue" d="M102.022,-168.368C115.614,-150.135 147.452,-107.426 165.157,-83.6752"/>
<polygon fill="midnightblue" stroke="midnightblue" points="168.013,-85.7007 171.183,-75.5914 162.4,-81.5171 168.013,-85.7007"/>
</g>
<!-- Node3&#45;&gt;Node7 -->
<g id="edge6" class="edge"><title>Node3&#45;&gt;Node7</title>
<path fill="none" stroke="midnightblue" d="M108.763,-168.324C121.435,-159.979 140.821,-147.212 155.793,-137.352"/>
<polygon fill="midnightblue" stroke="midnightblue" points="158.019,-140.078 164.446,-131.655 154.169,-134.231 158.019,-140.078"/>
</g>
<!-- Node4&#45;&gt;Node5 -->
<g id="edge4" class="edge"><title>Node4&#45;&gt;Node5</title>
<path fill="none" stroke="midnightblue" d="M78.2853,-112.444C97.5323,-103.636 127.74,-89.8116 149.788,-79.722"/>
<polygon fill="midnightblue" stroke="midnightblue" points="151.341,-82.8603 158.978,-75.5164 148.428,-76.4951 151.341,-82.8603"/>
</g>
<!-- Node6 -->
<g id="node6" class="node"><title>Node6</title>
<polygon fill="none" stroke="#bfbfbf" points="37.0878,-56.5 37.0878,-75.5 82.0878,-75.5 82.0878,-56.5 37.0878,-56.5"/>
<text text-anchor="middle" x="59.5878" y="-63.5" font-family="FreeSans" font-size="10.00">climits</text>
</g>
<!-- Node4&#45;&gt;Node6 -->
<g id="edge5" class="edge"><title>Node4&#45;&gt;Node6</title>
<path fill="none" stroke="midnightblue" d="M59.5878,-112.083C59.5878,-105.006 59.5878,-94.8611 59.5878,-85.9865"/>
<polygon fill="midnightblue" stroke="midnightblue" points="63.0879,-85.751 59.5878,-75.7511 56.0879,-85.7511 63.0879,-85.751"/>
</g>
<!-- Node9 -->
<g id="node9" class="node"><title>Node9</title>
<g id="a_node9"><a xlink:href="../../d0/d11/PHFlag_8h.html" target="_top" xlink:title="PHFlag.h">
<polygon fill="none" stroke="black" points="277.088,-224.5 277.088,-243.5 334.088,-243.5 334.088,-224.5 277.088,-224.5"/>
<text text-anchor="middle" x="305.588" y="-231.5" font-family="FreeSans" font-size="10.00">PHFlag.h</text>
</a>
</g>
</g>
<!-- Node8&#45;&gt;Node9 -->
<g id="edge10" class="edge"><title>Node8&#45;&gt;Node9</title>
<path fill="none" stroke="midnightblue" d="M305.588,-280.083C305.588,-273.006 305.588,-262.861 305.588,-253.986"/>
<polygon fill="midnightblue" stroke="midnightblue" points="309.088,-253.751 305.588,-243.751 302.088,-253.751 309.088,-253.751"/>
</g>
<!-- Node9&#45;&gt;Node5 -->
<g id="edge12" class="edge"><title>Node9&#45;&gt;Node5</title>
<path fill="none" stroke="midnightblue" d="M306.649,-224.078C307.795,-211.054 308.415,-186.39 299.588,-168 279.833,-126.842 234.386,-96.5871 204.882,-80.4051"/>
<polygon fill="midnightblue" stroke="midnightblue" points="206.39,-77.2432 195.915,-75.6497 203.11,-83.4273 206.39,-77.2432"/>
</g>
<!-- Node10 -->
<g id="node10" class="node"><title>Node10</title>
<polygon fill="none" stroke="#bfbfbf" points="256.088,-168.5 256.088,-187.5 291.088,-187.5 291.088,-168.5 256.088,-168.5"/>
<text text-anchor="middle" x="273.588" y="-175.5" font-family="FreeSans" font-size="10.00">map</text>
</g>
<!-- Node9&#45;&gt;Node10 -->
<g id="edge11" class="edge"><title>Node9&#45;&gt;Node10</title>
<path fill="none" stroke="midnightblue" d="M300.304,-224.083C295.877,-216.613 289.425,-205.724 283.97,-196.52"/>
<polygon fill="midnightblue" stroke="midnightblue" points="286.883,-194.57 278.774,-187.751 280.861,-198.138 286.883,-194.57"/>
</g>
<!-- Node12 -->
<g id="node12" class="node"><title>Node12</title>
<g id="a_node12"><a xlink:href="../../d5/d6f/phool_8h.html" target="_top" xlink:title="phool.h">
<polygon fill="none" stroke="black" points="469.088,-56.5 469.088,-75.5 516.088,-75.5 516.088,-56.5 469.088,-56.5"/>
<text text-anchor="middle" x="492.588" y="-63.5" font-family="FreeSans" font-size="10.00">phool.h</text>
</a>
</g>
</g>
<!-- Node11&#45;&gt;Node12 -->
<g id="edge14" class="edge"><title>Node11&#45;&gt;Node12</title>
<path fill="none" stroke="midnightblue" d="M474.639,-280.383C494.548,-273.916 516.682,-262.814 528.588,-244 561.096,-192.63 523.724,-117.558 503.667,-84.1419"/>
<polygon fill="midnightblue" stroke="midnightblue" points="506.566,-82.1756 498.317,-75.5266 500.619,-85.8683 506.566,-82.1756"/>
</g>
<!-- Node11&#45;&gt;Node14 -->
<g id="edge16" class="edge"><title>Node11&#45;&gt;Node14</title>
<path fill="none" stroke="midnightblue" d="M438.872,-280.083C443.299,-272.613 449.751,-261.724 455.206,-252.52"/>
<polygon fill="midnightblue" stroke="midnightblue" points="458.315,-254.138 460.402,-243.751 452.293,-250.57 458.315,-254.138"/>
</g>
<!-- Node17 -->
<g id="node17" class="node"><title>Node17</title>
<g id="a_node17"><a xlink:href="../../db/dd5/PHPointerList_8h.html" target="_top" xlink:title="PHPointerList.h">
<polygon fill="none" stroke="black" points="351.588,-168.5 351.588,-187.5 437.588,-187.5 437.588,-168.5 351.588,-168.5"/>
<text text-anchor="middle" x="394.588" y="-175.5" font-family="FreeSans" font-size="10.00">PHPointerList.h</text>
</a>
</g>
</g>
<!-- Node11&#45;&gt;Node17 -->
<g id="edge26" class="edge"><title>Node11&#45;&gt;Node17</title>
<path fill="none" stroke="midnightblue" d="M425.776,-280.426C418.47,-271.87 407.908,-258.013 402.588,-244 396.97,-229.202 395.096,-211.275 394.556,-198"/>
<polygon fill="midnightblue" stroke="midnightblue" points="398.05,-197.659 394.364,-187.726 391.051,-197.79 398.05,-197.659"/>
</g>
<!-- Node12&#45;&gt;Node13 -->
<g id="edge15" class="edge"><title>Node12&#45;&gt;Node13</title>
<path fill="none" stroke="midnightblue" d="M492.588,-56.083C492.588,-49.0059 492.588,-38.8611 492.588,-29.9865"/>
<polygon fill="midnightblue" stroke="midnightblue" points="496.088,-29.751 492.588,-19.7511 489.088,-29.7511 496.088,-29.751"/>
</g>
<!-- Node14&#45;&gt;Node12 -->
<g id="edge17" class="edge"><title>Node14&#45;&gt;Node12</title>
<path fill="none" stroke="midnightblue" d="M467.039,-224.075C471.289,-197.945 483.77,-121.211 489.566,-85.577"/>
<polygon fill="midnightblue" stroke="midnightblue" points="493.043,-86.0003 491.194,-75.5681 486.134,-84.8765 493.043,-86.0003"/>
</g>
<!-- Node15 -->
<g id="node15" class="node"><title>Node15</title>
<g id="a_node15"><a xlink:href="../../d3/d62/PHNode_8h.html" target="_top" xlink:title="PHNode.h">
<polygon fill="none" stroke="black" points="381.588,-112.5 381.588,-131.5 443.588,-131.5 443.588,-112.5 381.588,-112.5"/>
<text text-anchor="middle" x="412.588" y="-119.5" font-family="FreeSans" font-size="10.00">PHNode.h</text>
</a>
</g>
</g>
<!-- Node14&#45;&gt;Node15 -->
<g id="edge18" class="edge"><title>Node14&#45;&gt;Node15</title>
<path fill="none" stroke="midnightblue" d="M464.071,-224.215C461.624,-211.362 456.091,-186.909 446.588,-168 441.432,-157.741 433.865,-147.438 427.178,-139.284"/>
<polygon fill="midnightblue" stroke="midnightblue" points="429.821,-136.99 420.666,-131.657 424.498,-141.535 429.821,-136.99"/>
</g>
<!-- Node14&#45;&gt;Node17 -->
<g id="edge22" class="edge"><title>Node14&#45;&gt;Node17</title>
<path fill="none" stroke="midnightblue" d="M454.18,-224.324C443.479,-216.185 427.247,-203.839 414.425,-194.087"/>
<polygon fill="midnightblue" stroke="midnightblue" points="416.281,-191.102 406.203,-187.834 412.043,-196.673 416.281,-191.102"/>
</g>
<!-- Node15&#45;&gt;Node5 -->
<g id="edge21" class="edge"><title>Node15&#45;&gt;Node5</title>
<path fill="none" stroke="midnightblue" d="M381.382,-113.829C336.187,-103.444 253.033,-84.3363 208.183,-74.0305"/>
<polygon fill="midnightblue" stroke="midnightblue" points="208.705,-70.5591 198.175,-71.7306 207.137,-77.3813 208.705,-70.5591"/>
</g>
<!-- Node15&#45;&gt;Node12 -->
<g id="edge19" class="edge"><title>Node15&#45;&gt;Node12</title>
<path fill="none" stroke="midnightblue" d="M425.441,-112.324C437.804,-103.979 456.718,-91.2122 471.325,-81.3524"/>
<polygon fill="midnightblue" stroke="midnightblue" points="473.436,-84.1503 479.766,-75.6545 469.52,-78.3483 473.436,-84.1503"/>
</g>
<!-- Node16 -->
<g id="node16" class="node"><title>Node16</title>
<polygon fill="none" stroke="#bfbfbf" points="390.088,-56.5 390.088,-75.5 435.088,-75.5 435.088,-56.5 390.088,-56.5"/>
<text text-anchor="middle" x="412.588" y="-63.5" font-family="FreeSans" font-size="10.00">iosfwd</text>
</g>
<!-- Node15&#45;&gt;Node16 -->
<g id="edge20" class="edge"><title>Node15&#45;&gt;Node16</title>
<path fill="none" stroke="midnightblue" d="M412.588,-112.083C412.588,-105.006 412.588,-94.8611 412.588,-85.9865"/>
<polygon fill="midnightblue" stroke="midnightblue" points="416.088,-85.751 412.588,-75.7511 409.088,-85.7511 416.088,-85.751"/>
</g>
<!-- Node17&#45;&gt;Node12 -->
<g id="edge23" class="edge"><title>Node17&#45;&gt;Node12</title>
<path fill="none" stroke="midnightblue" d="M407.864,-168.458C420.144,-160.134 438.433,-146.622 451.588,-132 464.657,-117.474 476.191,-98.2947 483.669,-84.5407"/>
<polygon fill="midnightblue" stroke="midnightblue" points="486.8,-86.1076 488.362,-75.6285 480.606,-82.8462 486.8,-86.1076"/>
</g>
<!-- Node17&#45;&gt;Node13 -->
<g id="edge25" class="edge"><title>Node17&#45;&gt;Node13</title>
<path fill="none" stroke="midnightblue" d="M388.95,-168.481C383.534,-159.745 375.724,-145.556 372.588,-132 367.644,-110.63 378.527,-58.6259 380.588,-56 398.665,-32.9617 430.381,-21.6664 455.458,-16.1586"/>
<polygon fill="midnightblue" stroke="midnightblue" points="456.261,-19.5678 465.393,-14.196 454.904,-12.7005 456.261,-19.5678"/>
</g>
<!-- Node17&#45;&gt;Node15 -->
<g id="edge24" class="edge"><title>Node17&#45;&gt;Node15</title>
<path fill="none" stroke="midnightblue" d="M397.56,-168.083C399.972,-160.849 403.452,-150.409 406.456,-141.397"/>
<polygon fill="midnightblue" stroke="midnightblue" points="409.829,-142.345 409.671,-131.751 403.188,-140.131 409.829,-142.345"/>
</g>
</g>
</svg>
