<?xml version="1.0" encoding="UTF-8" standalone="no"?>
<!DOCTYPE svg PUBLIC "-//W3C//DTD SVG 1.1//EN"
 "http://www.w3.org/Graphics/SVG/1.1/DTD/svg11.dtd">
<!-- Generated by graphviz version 2.36.0 (20140111.2315)
 -->
<!-- Title: fun4all/phool/PHPointerListIterator.h Pages: 1 -->
<svg width="488pt" height="108pt"
 viewBox="0.00 0.00 488.00 108.00" xmlns="http://www.w3.org/2000/svg" xmlns:xlink="http://www.w3.org/1999/xlink">
<g id="graph0" class="graph" transform="scale(1 1) rotate(0) translate(4 104)">
<title>fun4all/phool/PHPointerListIterator.h</title>
<!-- Node1 -->
<g id="node1" class="node"><title>Node1</title>
<polygon fill="#bfbfbf" stroke="black" points="172,-69 172,-99 308,-99 308,-69 172,-69"/>
<text text-anchor="start" x="180" y="-87" font-family="FreeSans" font-size="10.00">fun4all/phool/PHPointerList</text>
<text text-anchor="middle" x="240" y="-76" font-family="FreeSans" font-size="10.00">Iterator.h</text>
</g>
<!-- Node2 -->
<g id="node2" class="node"><title>Node2</title>
<g id="a_node2"><a xlink:href="../../d8/d7a/Fun4AllServer_8cc.html" target="_top" xlink:title="fun4all/fun4all/Fun4AllServer.cc">
<polygon fill="none" stroke="black" points="0,-6.5 0,-25.5 154,-25.5 154,-6.5 0,-6.5"/>
<text text-anchor="middle" x="77" y="-13.5" font-family="FreeSans" font-size="10.00">fun4all/fun4all/Fun4AllServer.cc</text>
</a>
</g>
</g>
<!-- Node1&#45;&gt;Node2 -->
<g id="edge1" class="edge"><title>Node1&#45;&gt;Node2</title>
<path fill="none" stroke="midnightblue" d="M195.57,-65.0098C164.012,-52.2318 123.031,-35.6384 98.4416,-25.6819"/>
<polygon fill="midnightblue" stroke="midnightblue" points="194.45,-68.3323 205.032,-68.8413 197.077,-61.844 194.45,-68.3323"/>
</g>
<!-- Node3 -->
<g id="node3" class="node"><title>Node3</title>
<g id="a_node3"><a xlink:href="../../df/d01/PHCompositeNode_8cc.html" target="_top" xlink:title="fun4all/phool/PHComposite\lNode.cc">
<polygon fill="none" stroke="black" points="172.5,-1 172.5,-31 307.5,-31 307.5,-1 172.5,-1"/>
<text text-anchor="start" x="180.5" y="-19" font-family="FreeSans" font-size="10.00">fun4all/phool/PHComposite</text>
<text text-anchor="middle" x="240" y="-8" font-family="FreeSans" font-size="10.00">Node.cc</text>
</a>
</g>
</g>
<!-- Node1&#45;&gt;Node3 -->
<g id="edge2" class="edge"><title>Node1&#45;&gt;Node3</title>
<path fill="none" stroke="midnightblue" d="M240,-58.5322C240,-49.3606 240,-39.2449 240,-31.2931"/>
<polygon fill="midnightblue" stroke="midnightblue" points="236.5,-58.6789 240,-68.679 243.5,-58.679 236.5,-58.6789"/>
</g>
<!-- Node4 -->
<g id="node4" class="node"><title>Node4</title>
<g id="a_node4"><a xlink:href="../../d0/d41/PHNodeIterator_8cc.html" target="_top" xlink:title="fun4all/phool/PHNodeIterator.cc">
<polygon fill="none" stroke="black" points="325.5,-6.5 325.5,-25.5 480.5,-25.5 480.5,-6.5 325.5,-6.5"/>
<text text-anchor="middle" x="403" y="-13.5" font-family="FreeSans" font-size="10.00">fun4all/phool/PHNodeIterator.cc</text>
</a>
</g>
</g>
<!-- Node1&#45;&gt;Node4 -->
<g id="edge3" class="edge"><title>Node1&#45;&gt;Node4</title>
<path fill="none" stroke="midnightblue" d="M284.43,-65.0098C315.988,-52.2318 356.969,-35.6384 381.558,-25.6819"/>
<polygon fill="midnightblue" stroke="midnightblue" points="282.923,-61.844 274.968,-68.8413 285.55,-68.3323 282.923,-61.844"/>
</g>
</g>
</svg>
