<?xml version="1.0" encoding="UTF-8" standalone="no"?>
<!DOCTYPE svg PUBLIC "-//W3C//DTD SVG 1.1//EN"
 "http://www.w3.org/Graphics/SVG/1.1/DTD/svg11.dtd">
<!-- Generated by graphviz version 2.36.0 (20140111.2315)
 -->
<!-- Title: fun4all/ffaobjects/SyncObjectv1.cc Pages: 1 -->
<svg width="180pt" height="264pt"
 viewBox="0.00 0.00 180.00 264.00" xmlns="http://www.w3.org/2000/svg" xmlns:xlink="http://www.w3.org/1999/xlink">
<g id="graph0" class="graph" transform="scale(1 1) rotate(0) translate(4 260)">
<title>fun4all/ffaobjects/SyncObjectv1.cc</title>
<!-- Node1 -->
<g id="node1" class="node"><title>Node1</title>
<polygon fill="#bfbfbf" stroke="black" points="79.5,-225 79.5,-255 172.5,-255 172.5,-225 79.5,-225"/>
<text text-anchor="start" x="87.5" y="-243" font-family="FreeSans" font-size="10.00">fun4all/ffaobjects</text>
<text text-anchor="middle" x="126" y="-232" font-family="FreeSans" font-size="10.00">/SyncObjectv1.cc</text>
</g>
<!-- Node2 -->
<g id="node2" class="node"><title>Node2</title>
<g id="a_node2"><a xlink:href="../../d6/df7/SyncObjectv1_8h.html" target="_top" xlink:title="SyncObjectv1.h">
<polygon fill="none" stroke="black" points="83.5,-168.5 83.5,-187.5 168.5,-187.5 168.5,-168.5 83.5,-168.5"/>
<text text-anchor="middle" x="126" y="-175.5" font-family="FreeSans" font-size="10.00">SyncObjectv1.h</text>
</a>
</g>
</g>
<!-- Node1&#45;&gt;Node2 -->
<g id="edge1" class="edge"><title>Node1&#45;&gt;Node2</title>
<path fill="none" stroke="midnightblue" d="M126,-224.781C126,-216.781 126,-206.689 126,-198.017"/>
<polygon fill="midnightblue" stroke="midnightblue" points="129.5,-197.73 126,-187.731 122.5,-197.731 129.5,-197.73"/>
</g>
<!-- Node3 -->
<g id="node3" class="node"><title>Node3</title>
<g id="a_node3"><a xlink:href="../../da/de1/ffaobjects_2SyncObject_8h.html" target="_top" xlink:title="SyncObject.h">
<polygon fill="none" stroke="black" points="57,-112.5 57,-131.5 131,-131.5 131,-112.5 57,-112.5"/>
<text text-anchor="middle" x="94" y="-119.5" font-family="FreeSans" font-size="10.00">SyncObject.h</text>
</a>
</g>
</g>
<!-- Node2&#45;&gt;Node3 -->
<g id="edge2" class="edge"><title>Node2&#45;&gt;Node3</title>
<path fill="none" stroke="midnightblue" d="M120.716,-168.083C116.289,-160.613 109.837,-149.724 104.382,-140.52"/>
<polygon fill="midnightblue" stroke="midnightblue" points="107.295,-138.57 99.1858,-131.751 101.273,-142.138 107.295,-138.57"/>
</g>
<!-- Node6 -->
<g id="node6" class="node"><title>Node6</title>
<polygon fill="none" stroke="#bfbfbf" points="94,-0.5 94,-19.5 148,-19.5 148,-0.5 94,-0.5"/>
<text text-anchor="middle" x="121" y="-7.5" font-family="FreeSans" font-size="10.00">iostream</text>
</g>
<!-- Node2&#45;&gt;Node6 -->
<g id="edge7" class="edge"><title>Node2&#45;&gt;Node6</title>
<path fill="none" stroke="midnightblue" d="M129.6,-168.222C133.056,-159.285 138.033,-144.942 140,-132 145.543,-95.521 134.843,-52.903 127.372,-29.2276"/>
<polygon fill="midnightblue" stroke="midnightblue" points="130.617,-27.8914 124.143,-19.5041 123.973,-30.0976 130.617,-27.8914"/>
</g>
<!-- Node4 -->
<g id="node4" class="node"><title>Node4</title>
<g id="a_node4"><a xlink:href="../../df/d32/PHObject_8h.html" target="_top" xlink:title="phool/PHObject.h">
<polygon fill="none" stroke="black" points="-0.5,-56.5 -0.5,-75.5 92.5,-75.5 92.5,-56.5 -0.5,-56.5"/>
<text text-anchor="middle" x="46" y="-63.5" font-family="FreeSans" font-size="10.00">phool/PHObject.h</text>
</a>
</g>
</g>
<!-- Node3&#45;&gt;Node4 -->
<g id="edge3" class="edge"><title>Node3&#45;&gt;Node4</title>
<path fill="none" stroke="midnightblue" d="M86.0738,-112.083C79.1539,-104.298 68.9346,-92.8015 60.548,-83.3665"/>
<polygon fill="midnightblue" stroke="midnightblue" points="63.0383,-80.8999 53.7787,-75.7511 57.8065,-85.5505 63.0383,-80.8999"/>
</g>
<!-- Node3&#45;&gt;Node6 -->
<g id="edge6" class="edge"><title>Node3&#45;&gt;Node6</title>
<path fill="none" stroke="midnightblue" d="M96.1186,-112.368C100.476,-94.617 110.527,-53.6664 116.435,-29.5974"/>
<polygon fill="midnightblue" stroke="midnightblue" points="119.906,-30.1375 118.891,-19.5914 113.108,-28.4688 119.906,-30.1375"/>
</g>
<!-- Node5 -->
<g id="node5" class="node"><title>Node5</title>
<polygon fill="none" stroke="#bfbfbf" points="16.5,-0.5 16.5,-19.5 75.5,-19.5 75.5,-0.5 16.5,-0.5"/>
<text text-anchor="middle" x="46" y="-7.5" font-family="FreeSans" font-size="10.00">TObject.h</text>
</g>
<!-- Node4&#45;&gt;Node5 -->
<g id="edge4" class="edge"><title>Node4&#45;&gt;Node5</title>
<path fill="none" stroke="midnightblue" d="M46,-56.083C46,-49.0059 46,-38.8611 46,-29.9865"/>
<polygon fill="midnightblue" stroke="midnightblue" points="49.5001,-29.751 46,-19.7511 42.5001,-29.7511 49.5001,-29.751"/>
</g>
<!-- Node4&#45;&gt;Node6 -->
<g id="edge5" class="edge"><title>Node4&#45;&gt;Node6</title>
<path fill="none" stroke="midnightblue" d="M58.05,-56.324C69.4631,-48.1066 86.831,-35.6017 100.435,-25.8069"/>
<polygon fill="midnightblue" stroke="midnightblue" points="102.66,-28.5174 108.731,-19.8339 98.5703,-22.8366 102.66,-28.5174"/>
</g>
</g>
</svg>
