<?xml version="1.0" encoding="UTF-8" standalone="no"?>
<!DOCTYPE svg PUBLIC "-//W3C//DTD SVG 1.1//EN"
 "http://www.w3.org/Graphics/SVG/1.1/DTD/svg11.dtd">
<!-- Generated by graphviz version 2.36.0 (20140111.2315)
 -->
<!-- Title: SubsysReco::Init Pages: 1 -->
<svg width="458pt" height="96pt"
 viewBox="0.00 0.00 458.00 96.00" xmlns="http://www.w3.org/2000/svg" xmlns:xlink="http://www.w3.org/1999/xlink">
<g id="graph0" class="graph" transform="scale(1 1) rotate(0) translate(4 92)">
<title>SubsysReco::Init</title>
<!-- Node1 -->
<g id="node1" class="node"><title>Node1</title>
<polygon fill="#bfbfbf" stroke="black" points="0.5,-41.5 0.5,-60.5 89.5,-60.5 89.5,-41.5 0.5,-41.5"/>
<text text-anchor="middle" x="45" y="-48.5" font-family="FreeSans" font-size="10.00">SubsysReco::Init</text>
</g>
<!-- Node2 -->
<g id="node2" class="node"><title>Node2</title>
<g id="a_node2"><a xlink:href="../../d4/da9/classFun4AllInputManager.html#ac1910d048e912d51287df1e4f8579888" target="_top" xlink:title="Fun4AllInputManager\l::registerSubsystem">
<polygon fill="none" stroke="black" points="153.5,-58 153.5,-88 262.5,-88 262.5,-58 153.5,-58"/>
<text text-anchor="start" x="161.5" y="-76" font-family="FreeSans" font-size="10.00">Fun4AllInputManager</text>
<text text-anchor="middle" x="208" y="-65" font-family="FreeSans" font-size="10.00">::registerSubsystem</text>
</a>
</g>
</g>
<!-- Node1&#45;&gt;Node2 -->
<g id="edge1" class="edge"><title>Node1&#45;&gt;Node2</title>
<path fill="none" stroke="midnightblue" d="M99.5145,-58.3125C116.824,-60.6778 136.016,-63.3003 153.336,-65.667"/>
<polygon fill="midnightblue" stroke="midnightblue" points="99.9507,-54.8397 89.5689,-56.9535 99.003,-61.7753 99.9507,-54.8397"/>
</g>
<!-- Node3 -->
<g id="node3" class="node"><title>Node3</title>
<g id="a_node3"><a xlink:href="../../da/d29/classFun4AllServer.html#a0a9947db0ede1e55622001eb7515f8c0" target="_top" xlink:title="Fun4AllServer::registerSubsystem">
<polygon fill="none" stroke="black" points="126,-19.5 126,-38.5 290,-38.5 290,-19.5 126,-19.5"/>
<text text-anchor="middle" x="208" y="-26.5" font-family="FreeSans" font-size="10.00">Fun4AllServer::registerSubsystem</text>
</a>
</g>
</g>
<!-- Node1&#45;&gt;Node3 -->
<g id="edge2" class="edge"><title>Node1&#45;&gt;Node3</title>
<path fill="none" stroke="midnightblue" d="M99.4984,-43.6897C111.611,-42.0345 124.647,-40.2533 137.318,-38.5218"/>
<polygon fill="midnightblue" stroke="midnightblue" points="99.003,-40.2247 89.5689,-45.0465 99.9507,-47.1603 99.003,-40.2247"/>
</g>
<!-- Node4 -->
<g id="node4" class="node"><title>Node4</title>
<g id="a_node4"><a xlink:href="../../d0/d46/Fun4__SimpleReadMySql_8C.html#a70381893748e3445abc30632beb256ce" target="_top" xlink:title="Fun4_SimpleReadMySql">
<polygon fill="none" stroke="black" points="326.5,-38.5 326.5,-57.5 449.5,-57.5 449.5,-38.5 326.5,-38.5"/>
<text text-anchor="middle" x="388" y="-45.5" font-family="FreeSans" font-size="10.00">Fun4_SimpleReadMySql</text>
</a>
</g>
</g>
<!-- Node3&#45;&gt;Node4 -->
<g id="edge3" class="edge"><title>Node3&#45;&gt;Node4</title>
<path fill="none" stroke="midnightblue" d="M300.216,-38.7365C309.104,-39.6853 317.963,-40.6309 326.437,-41.5355"/>
<polygon fill="midnightblue" stroke="midnightblue" points="300.502,-35.2472 290.187,-37.666 299.759,-42.2077 300.502,-35.2472"/>
</g>
<!-- Node5 -->
<g id="node5" class="node"><title>Node5</title>
<g id="a_node5"><a xlink:href="../../d9/d8c/Fun4ReadMySql_8C.html#a729b39fa627147c63772f28c9be36b62" target="_top" xlink:title="Fun4ReadMySql">
<polygon fill="none" stroke="black" points="344,-0.5 344,-19.5 432,-19.5 432,-0.5 344,-0.5"/>
<text text-anchor="middle" x="388" y="-7.5" font-family="FreeSans" font-size="10.00">Fun4ReadMySql</text>
</a>
</g>
</g>
<!-- Node3&#45;&gt;Node5 -->
<g id="edge4" class="edge"><title>Node3&#45;&gt;Node5</title>
<path fill="none" stroke="midnightblue" d="M300.196,-19.2656C315.438,-17.6387 330.594,-16.0209 343.874,-14.6033"/>
<polygon fill="midnightblue" stroke="midnightblue" points="299.759,-15.7923 290.187,-20.334 300.502,-22.7528 299.759,-15.7923"/>
</g>
</g>
</svg>
