<?xml version="1.0" encoding="UTF-8" standalone="no"?>
<!DOCTYPE svg PUBLIC "-//W3C//DTD SVG 1.1//EN"
 "http://www.w3.org/Graphics/SVG/1.1/DTD/svg11.dtd">
<!-- Generated by graphviz version 2.36.0 (20140111.2315)
 -->
<!-- Title: fun4all Pages: 1 -->
<svg width="238pt" height="292pt"
 viewBox="0.00 0.00 238.00 292.00" xmlns="http://www.w3.org/2000/svg" xmlns:xlink="http://www.w3.org/1999/xlink">
<g id="graph0" class="graph" transform="scale(1 1) rotate(0) translate(4 288)">
<title>fun4all</title>
<g id="clust1" class="cluster"><title>clusterdir_815485e03fd1def4bf9fe465fa7b12e6</title>
<g id="a_clust1"><a xlink:href="dir_815485e03fd1def4bf9fe465fa7b12e6.html" target="_top">
<polygon fill="#eeeeff" stroke="black" points="8,-8 8,-276 222,-276 222,-8 8,-8"/>
</a>
</g>
</g>
<!-- dir_815485e03fd1def4bf9fe465fa7b12e6 -->
<g id="node1" class="node"><title>dir_815485e03fd1def4bf9fe465fa7b12e6</title>
<text text-anchor="middle" x="187" y="-247.5" font-family="FreeSans" font-size="10.00">fun4all</text>
</g>
<!-- dir_8618530b6d550d2fd3f0a0ed1956ccfd -->
<g id="node2" class="node"><title>dir_8618530b6d550d2fd3f0a0ed1956ccfd</title>
<g id="a_node2"><a xlink:href="dir_8618530b6d550d2fd3f0a0ed1956ccfd.html" target="_top" xlink:title="ffaobjects">
<polygon fill="white" stroke="black" points="75.25,-124 16.75,-124 16.75,-88 75.25,-88 75.25,-124"/>
<text text-anchor="middle" x="46" y="-103.5" font-family="FreeSans" font-size="10.00">ffaobjects</text>
</a>
</g>
</g>
<!-- dir_fbb18bb95b402f74720afe62f95284a4 -->
<g id="node7" class="node"><title>dir_fbb18bb95b402f74720afe62f95284a4</title>
<g id="a_node7"><a xlink:href="dir_fbb18bb95b402f74720afe62f95284a4.html" target="_top" xlink:title="phool">
<polygon fill="white" stroke="black" points="146,-52 92,-52 92,-16 146,-16 146,-52"/>
<text text-anchor="middle" x="119" y="-31.5" font-family="FreeSans" font-size="10.00">phool</text>
</a>
</g>
</g>
<!-- dir_8618530b6d550d2fd3f0a0ed1956ccfd&#45;&gt;dir_fbb18bb95b402f74720afe62f95284a4 -->
<g id="edge3" class="edge"><title>dir_8618530b6d550d2fd3f0a0ed1956ccfd&#45;&gt;dir_fbb18bb95b402f74720afe62f95284a4</title>
<path fill="none" stroke="black" d="M64.0449,-87.6966C73.0619,-79.0503 84.1179,-68.4486 93.9432,-59.027"/>
<polygon fill="black" stroke="black" points="96.3672,-61.5518 101.163,-52.1043 91.5223,-56.4993 96.3672,-61.5518"/>
<g id="a_edge3&#45;headlabel"><a xlink:href="dir_000002_000007.html" target="_top" xlink:title="8">
<text text-anchor="middle" x="95.7378" y="-63.589" font-family="FreeSans" font-size="10.00">8</text>
</a>
</g>
</g>
<!-- dir_c3bebc4b1050503cbabe3862945fad86 -->
<g id="node3" class="node"><title>dir_c3bebc4b1050503cbabe3862945fad86</title>
<g id="a_node3"><a xlink:href="dir_c3bebc4b1050503cbabe3862945fad86.html" target="_top" xlink:title="fun4all">
<polygon fill="white" stroke="black" points="73,-196 19,-196 19,-160 73,-160 73,-196"/>
<text text-anchor="middle" x="46" y="-175.5" font-family="FreeSans" font-size="10.00">fun4all</text>
</a>
</g>
</g>
<!-- dir_c3bebc4b1050503cbabe3862945fad86&#45;&gt;dir_8618530b6d550d2fd3f0a0ed1956ccfd -->
<g id="edge1" class="edge"><title>dir_c3bebc4b1050503cbabe3862945fad86&#45;&gt;dir_8618530b6d550d2fd3f0a0ed1956ccfd</title>
<path fill="none" stroke="black" d="M46,-159.697C46,-151.983 46,-142.712 46,-134.112"/>
<polygon fill="black" stroke="black" points="49.5001,-134.104 46,-124.104 42.5001,-134.104 49.5001,-134.104"/>
<g id="a_edge1&#45;headlabel"><a xlink:href="dir_000003_000002.html" target="_top" xlink:title="7">
<text text-anchor="middle" x="52.3393" y="-135.199" font-family="FreeSans" font-size="10.00">7</text>
</a>
</g>
</g>
<!-- dir_c3bebc4b1050503cbabe3862945fad86&#45;&gt;dir_fbb18bb95b402f74720afe62f95284a4 -->
<g id="edge2" class="edge"><title>dir_c3bebc4b1050503cbabe3862945fad86&#45;&gt;dir_fbb18bb95b402f74720afe62f95284a4</title>
<path fill="none" stroke="black" d="M60.1701,-159.573C67.8692,-149.566 77.1812,-136.531 84,-124 94.864,-104.036 104.117,-79.9732 110.376,-61.9044"/>
<polygon fill="black" stroke="black" points="113.739,-62.8855 113.62,-52.2913 107.106,-60.6471 113.739,-62.8855"/>
<g id="a_edge2&#45;headlabel"><a xlink:href="dir_000003_000007.html" target="_top" xlink:title="41">
<text text-anchor="middle" x="115.28" y="-64.6992" font-family="FreeSans" font-size="10.00">41</text>
</a>
</g>
</g>
<!-- dir_1ea84eac01cfcc64e4a073cb1d939fc0 -->
<g id="node4" class="node"><title>dir_1ea84eac01cfcc64e4a073cb1d939fc0</title>
<g id="a_node4"><a xlink:href="dir_1ea84eac01cfcc64e4a073cb1d939fc0.html" target="_top" xlink:title="interfaces">
<polygon fill="white" stroke="black" points="173.25,-124 114.75,-124 114.75,-88 173.25,-88 173.25,-124"/>
<text text-anchor="middle" x="144" y="-103.5" font-family="FreeSans" font-size="10.00">interfaces</text>
</a>
</g>
</g>
<!-- dir_1ea84eac01cfcc64e4a073cb1d939fc0&#45;&gt;dir_fbb18bb95b402f74720afe62f95284a4 -->
<g id="edge7" class="edge"><title>dir_1ea84eac01cfcc64e4a073cb1d939fc0&#45;&gt;dir_fbb18bb95b402f74720afe62f95284a4</title>
<path fill="none" stroke="black" d="M137.82,-87.6966C135.005,-79.8132 131.609,-70.3042 128.481,-61.5464"/>
<polygon fill="black" stroke="black" points="131.768,-60.3446 125.109,-52.1043 125.176,-62.699 131.768,-60.3446"/>
<g id="a_edge7&#45;headlabel"><a xlink:href="dir_000004_000007.html" target="_top" xlink:title="6">
<text text-anchor="middle" x="135.651" y="-60.2748" font-family="FreeSans" font-size="10.00">6</text>
</a>
</g>
</g>
<!-- dir_3dfd615d09cbfe3e461c61d929e6d5de -->
<g id="node5" class="node"><title>dir_3dfd615d09cbfe3e461c61d929e6d5de</title>
<g id="a_node5"><a xlink:href="dir_3dfd615d09cbfe3e461c61d929e6d5de.html" target="_top" xlink:title="macros">
<polygon fill="white" stroke="black" points="142,-268 88,-268 88,-232 142,-232 142,-268"/>
<text text-anchor="middle" x="115" y="-247.5" font-family="FreeSans" font-size="10.00">macros</text>
</a>
</g>
</g>
<!-- dir_565d743263e8063ecab0d911556a4373 -->
<g id="node6" class="node"><title>dir_565d743263e8063ecab0d911556a4373</title>
<g id="a_node6"><a xlink:href="dir_565d743263e8063ecab0d911556a4373.html" target="_top" xlink:title="modules">
<polygon fill="white" stroke="black" points="70,-268 16,-268 16,-232 70,-232 70,-268"/>
<text text-anchor="middle" x="43" y="-247.5" font-family="FreeSans" font-size="10.00">modules</text>
</a>
</g>
</g>
<!-- dir_565d743263e8063ecab0d911556a4373&#45;&gt;dir_c3bebc4b1050503cbabe3862945fad86 -->
<g id="edge4" class="edge"><title>dir_565d743263e8063ecab0d911556a4373&#45;&gt;dir_c3bebc4b1050503cbabe3862945fad86</title>
<path fill="none" stroke="black" d="M43.7416,-231.697C44.0722,-223.983 44.4695,-214.712 44.838,-206.112"/>
<polygon fill="black" stroke="black" points="48.3355,-206.245 45.267,-196.104 41.3419,-205.945 48.3355,-206.245"/>
<g id="a_edge4&#45;headlabel"><a xlink:href="dir_000006_000003.html" target="_top" xlink:title="4">
<text text-anchor="middle" x="51.0183" y="-207.458" font-family="FreeSans" font-size="10.00">4</text>
</a>
</g>
</g>
<!-- dir_565d743263e8063ecab0d911556a4373&#45;&gt;dir_1ea84eac01cfcc64e4a073cb1d939fc0 -->
<g id="edge5" class="edge"><title>dir_565d743263e8063ecab0d911556a4373&#45;&gt;dir_1ea84eac01cfcc64e4a073cb1d939fc0</title>
<path fill="none" stroke="black" d="M55.7593,-231.896C63.4317,-221.554 73.3537,-208.075 82,-196 97.1241,-174.879 113.952,-150.676 126.256,-132.847"/>
<polygon fill="black" stroke="black" points="129.454,-134.375 132.245,-124.154 123.689,-130.403 129.454,-134.375"/>
<g id="a_edge5&#45;headlabel"><a xlink:href="dir_000006_000004.html" target="_top" xlink:title="7">
<text text-anchor="middle" x="129.752" y="-136.446" font-family="FreeSans" font-size="10.00">7</text>
</a>
</g>
</g>
<!-- dir_565d743263e8063ecab0d911556a4373&#45;&gt;dir_fbb18bb95b402f74720afe62f95284a4 -->
<g id="edge6" class="edge"><title>dir_565d743263e8063ecab0d911556a4373&#45;&gt;dir_fbb18bb95b402f74720afe62f95284a4</title>
<path fill="none" stroke="black" d="M70.1529,-234.274C103.703,-214.34 159.147,-175.285 182,-124 188.512,-109.385 188.753,-102.505 182,-88 176.039,-75.196 165.294,-64.3801 154.346,-55.9252"/>
<polygon fill="black" stroke="black" points="156.171,-52.9266 146.01,-49.926 152.082,-58.6082 156.171,-52.9266"/>
<g id="a_edge6&#45;headlabel"><a xlink:href="dir_000006_000007.html" target="_top" xlink:title="6">
<text text-anchor="middle" x="160.747" y="-50.2218" font-family="FreeSans" font-size="10.00">6</text>
</a>
</g>
</g>
</g>
</svg>
