<?xml version="1.0" encoding="UTF-8" standalone="no"?>
<!DOCTYPE svg PUBLIC "-//W3C//DTD SVG 1.1//EN"
 "http://www.w3.org/Graphics/SVG/1.1/DTD/svg11.dtd">
<!-- Generated by graphviz version 2.36.0 (20140111.2315)
 -->
<!-- Title: fun4all/modules Pages: 1 -->
<svg width="153pt" height="223pt"
 viewBox="0.00 0.00 153.00 223.00" xmlns="http://www.w3.org/2000/svg" xmlns:xlink="http://www.w3.org/1999/xlink">
<g id="graph0" class="graph" transform="scale(1 1) rotate(0) translate(4 219)">
<title>fun4all/modules</title>
<g id="clust1" class="cluster"><title>clusterdir_815485e03fd1def4bf9fe465fa7b12e6</title>
<g id="a_clust1"><a xlink:href="dir_815485e03fd1def4bf9fe465fa7b12e6.html" target="_top" xlink:title="fun4all">
<polygon fill="#ddddee" stroke="black" points="67,-136 67,-207 137,-207 137,-136 67,-136"/>
<text text-anchor="middle" x="102" y="-195" font-family="FreeSans" font-size="10.00">fun4all</text>
</a>
</g>
</g>
<!-- dir_565d743263e8063ecab0d911556a4373 -->
<g id="node1" class="node"><title>dir_565d743263e8063ecab0d911556a4373</title>
<g id="a_node1"><a xlink:href="dir_565d743263e8063ecab0d911556a4373.html" target="_top" xlink:title="modules">
<polygon fill="#eeeeff" stroke="black" points="129,-180 75,-180 75,-144 129,-144 129,-180"/>
<text text-anchor="middle" x="102" y="-159.5" font-family="FreeSans" font-size="10.00">modules</text>
</a>
</g>
</g>
<!-- dir_c3bebc4b1050503cbabe3862945fad86 -->
<g id="node2" class="node"><title>dir_c3bebc4b1050503cbabe3862945fad86</title>
<g id="a_node2"><a xlink:href="dir_c3bebc4b1050503cbabe3862945fad86.html" target="_top" xlink:title="fun4all">
<polygon fill="none" stroke="black" points="54,-108 0,-108 0,-72 54,-72 54,-108"/>
<text text-anchor="middle" x="27" y="-87.5" font-family="FreeSans" font-size="10.00">fun4all</text>
</a>
</g>
</g>
<!-- dir_565d743263e8063ecab0d911556a4373&#45;&gt;dir_c3bebc4b1050503cbabe3862945fad86 -->
<g id="edge2" class="edge"><title>dir_565d743263e8063ecab0d911556a4373&#45;&gt;dir_c3bebc4b1050503cbabe3862945fad86</title>
<path fill="none" stroke="black" d="M83.4607,-143.697C74.1967,-135.05 62.8377,-124.449 52.7433,-115.027"/>
<polygon fill="black" stroke="black" points="55.0248,-112.369 45.3261,-108.104 50.2485,-117.486 55.0248,-112.369"/>
<g id="a_edge2&#45;headlabel"><a xlink:href="dir_000006_000003.html" target="_top" xlink:title="4">
<text text-anchor="middle" x="59.5899" y="-110.246" font-family="FreeSans" font-size="10.00">4</text>
</a>
</g>
</g>
<!-- dir_1ea84eac01cfcc64e4a073cb1d939fc0 -->
<g id="node3" class="node"><title>dir_1ea84eac01cfcc64e4a073cb1d939fc0</title>
<g id="a_node3"><a xlink:href="dir_1ea84eac01cfcc64e4a073cb1d939fc0.html" target="_top" xlink:title="interfaces">
<polygon fill="none" stroke="black" points="131.25,-108 72.75,-108 72.75,-72 131.25,-72 131.25,-108"/>
<text text-anchor="middle" x="102" y="-87.5" font-family="FreeSans" font-size="10.00">interfaces</text>
</a>
</g>
</g>
<!-- dir_565d743263e8063ecab0d911556a4373&#45;&gt;dir_1ea84eac01cfcc64e4a073cb1d939fc0 -->
<g id="edge3" class="edge"><title>dir_565d743263e8063ecab0d911556a4373&#45;&gt;dir_1ea84eac01cfcc64e4a073cb1d939fc0</title>
<path fill="none" stroke="black" d="M102,-143.697C102,-135.983 102,-126.712 102,-118.112"/>
<polygon fill="black" stroke="black" points="105.5,-118.104 102,-108.104 98.5001,-118.104 105.5,-118.104"/>
<g id="a_edge3&#45;headlabel"><a xlink:href="dir_000006_000004.html" target="_top" xlink:title="7">
<text text-anchor="middle" x="108.339" y="-119.199" font-family="FreeSans" font-size="10.00">7</text>
</a>
</g>
</g>
<!-- dir_fbb18bb95b402f74720afe62f95284a4 -->
<g id="node4" class="node"><title>dir_fbb18bb95b402f74720afe62f95284a4</title>
<g id="a_node4"><a xlink:href="dir_fbb18bb95b402f74720afe62f95284a4.html" target="_top" xlink:title="phool">
<polygon fill="none" stroke="black" points="129,-36 75,-36 75,-0 129,-0 129,-36"/>
<text text-anchor="middle" x="102" y="-15.5" font-family="FreeSans" font-size="10.00">phool</text>
</a>
</g>
</g>
<!-- dir_565d743263e8063ecab0d911556a4373&#45;&gt;dir_fbb18bb95b402f74720afe62f95284a4 -->
<g id="edge4" class="edge"><title>dir_565d743263e8063ecab0d911556a4373&#45;&gt;dir_fbb18bb95b402f74720afe62f95284a4</title>
<path fill="none" stroke="black" d="M118.463,-143.919C126.654,-134.218 135.704,-121.366 140,-108 144.896,-92.7676 144.896,-87.2324 140,-72 136.811,-62.0801 131.004,-52.4429 124.873,-44.1672"/>
<polygon fill="black" stroke="black" points="127.418,-41.7434 118.463,-36.0811 121.933,-46.0919 127.418,-41.7434"/>
<g id="a_edge4&#45;headlabel"><a xlink:href="dir_000006_000007.html" target="_top" xlink:title="6">
<text text-anchor="middle" x="131.876" y="-40.2966" font-family="FreeSans" font-size="10.00">6</text>
</a>
</g>
</g>
<!-- dir_c3bebc4b1050503cbabe3862945fad86&#45;&gt;dir_fbb18bb95b402f74720afe62f95284a4 -->
<g id="edge1" class="edge"><title>dir_c3bebc4b1050503cbabe3862945fad86&#45;&gt;dir_fbb18bb95b402f74720afe62f95284a4</title>
<path fill="none" stroke="black" d="M45.5393,-71.6966C54.8033,-63.0503 66.1623,-52.4486 76.2567,-43.027"/>
<polygon fill="black" stroke="black" points="78.7515,-45.4863 83.6739,-36.1043 73.9752,-40.3688 78.7515,-45.4863"/>
<g id="a_edge1&#45;headlabel"><a xlink:href="dir_000003_000007.html" target="_top" xlink:title="41">
<text text-anchor="middle" x="78.0609" y="-47.5145" font-family="FreeSans" font-size="10.00">41</text>
</a>
</g>
</g>
<!-- dir_1ea84eac01cfcc64e4a073cb1d939fc0&#45;&gt;dir_fbb18bb95b402f74720afe62f95284a4 -->
<g id="edge5" class="edge"><title>dir_1ea84eac01cfcc64e4a073cb1d939fc0&#45;&gt;dir_fbb18bb95b402f74720afe62f95284a4</title>
<path fill="none" stroke="black" d="M102,-71.6966C102,-63.9827 102,-54.7125 102,-46.1124"/>
<polygon fill="black" stroke="black" points="105.5,-46.1043 102,-36.1043 98.5001,-46.1044 105.5,-46.1043"/>
<g id="a_edge5&#45;headlabel"><a xlink:href="dir_000004_000007.html" target="_top" xlink:title="6">
<text text-anchor="middle" x="108.339" y="-47.199" font-family="FreeSans" font-size="10.00">6</text>
</a>
</g>
</g>
</g>
</svg>
