<?xml version="1.0" encoding="UTF-8" standalone="no"?>
<!DOCTYPE svg PUBLIC "-//W3C//DTD SVG 1.1//EN"
 "http://www.w3.org/Graphics/SVG/1.1/DTD/svg11.dtd">
<!-- Generated by graphviz version 2.36.0 (20140111.2315)
 -->
<!-- Title: fun4all/fun4all Pages: 1 -->
<svg width="109pt" height="223pt"
 viewBox="0.00 0.00 109.00 223.00" xmlns="http://www.w3.org/2000/svg" xmlns:xlink="http://www.w3.org/1999/xlink">
<g id="graph0" class="graph" transform="scale(1 1) rotate(0) translate(4 219)">
<title>fun4all/fun4all</title>
<g id="clust1" class="cluster"><title>clusterdir_815485e03fd1def4bf9fe465fa7b12e6</title>
<g id="a_clust1"><a xlink:href="dir_815485e03fd1def4bf9fe465fa7b12e6.html" target="_top" xlink:title="fun4all">
<polygon fill="#ddddee" stroke="black" points="23,-136 23,-207 93,-207 93,-136 23,-136"/>
<text text-anchor="middle" x="58" y="-195" font-family="FreeSans" font-size="10.00">fun4all</text>
</a>
</g>
</g>
<!-- dir_c3bebc4b1050503cbabe3862945fad86 -->
<g id="node1" class="node"><title>dir_c3bebc4b1050503cbabe3862945fad86</title>
<g id="a_node1"><a xlink:href="dir_c3bebc4b1050503cbabe3862945fad86.html" target="_top" xlink:title="fun4all">
<polygon fill="#eeeeff" stroke="black" points="85,-180 31,-180 31,-144 85,-144 85,-180"/>
<text text-anchor="middle" x="58" y="-159.5" font-family="FreeSans" font-size="10.00">fun4all</text>
</a>
</g>
</g>
<!-- dir_8618530b6d550d2fd3f0a0ed1956ccfd -->
<g id="node2" class="node"><title>dir_8618530b6d550d2fd3f0a0ed1956ccfd</title>
<g id="a_node2"><a xlink:href="dir_8618530b6d550d2fd3f0a0ed1956ccfd.html" target="_top" xlink:title="ffaobjects">
<polygon fill="none" stroke="black" points="58.25,-108 -0.25,-108 -0.25,-72 58.25,-72 58.25,-108"/>
<text text-anchor="middle" x="29" y="-87.5" font-family="FreeSans" font-size="10.00">ffaobjects</text>
</a>
</g>
</g>
<!-- dir_c3bebc4b1050503cbabe3862945fad86&#45;&gt;dir_8618530b6d550d2fd3f0a0ed1956ccfd -->
<g id="edge1" class="edge"><title>dir_c3bebc4b1050503cbabe3862945fad86&#45;&gt;dir_8618530b6d550d2fd3f0a0ed1956ccfd</title>
<path fill="none" stroke="black" d="M50.8315,-143.697C47.5655,-135.813 43.626,-126.304 39.9978,-117.546"/>
<polygon fill="black" stroke="black" points="43.147,-116.003 36.0861,-108.104 36.68,-118.683 43.147,-116.003"/>
<g id="a_edge1&#45;headlabel"><a xlink:href="dir_000003_000002.html" target="_top" xlink:title="7">
<text text-anchor="middle" x="47.1459" y="-115.738" font-family="FreeSans" font-size="10.00">7</text>
</a>
</g>
</g>
<!-- dir_fbb18bb95b402f74720afe62f95284a4 -->
<g id="node3" class="node"><title>dir_fbb18bb95b402f74720afe62f95284a4</title>
<g id="a_node3"><a xlink:href="dir_fbb18bb95b402f74720afe62f95284a4.html" target="_top" xlink:title="phool">
<polygon fill="none" stroke="black" points="85,-36 31,-36 31,-0 85,-0 85,-36"/>
<text text-anchor="middle" x="58" y="-15.5" font-family="FreeSans" font-size="10.00">phool</text>
</a>
</g>
</g>
<!-- dir_c3bebc4b1050503cbabe3862945fad86&#45;&gt;dir_fbb18bb95b402f74720afe62f95284a4 -->
<g id="edge2" class="edge"><title>dir_c3bebc4b1050503cbabe3862945fad86&#45;&gt;dir_fbb18bb95b402f74720afe62f95284a4</title>
<path fill="none" stroke="black" d="M61.6538,-143.908C63.6758,-133.569 65.9808,-120.09 67,-108 68.3441,-92.0566 68.3441,-87.9434 67,-72 66.2834,-63.4991 64.9311,-54.3119 63.4884,-46.0122"/>
<polygon fill="black" stroke="black" points="66.9142,-45.2892 61.6538,-36.0925 60.0309,-46.5623 66.9142,-45.2892"/>
<g id="a_edge2&#45;headlabel"><a xlink:href="dir_000003_000007.html" target="_top" xlink:title="41">
<text text-anchor="middle" x="70.3597" y="-45.8075" font-family="FreeSans" font-size="10.00">41</text>
</a>
</g>
</g>
<!-- dir_8618530b6d550d2fd3f0a0ed1956ccfd&#45;&gt;dir_fbb18bb95b402f74720afe62f95284a4 -->
<g id="edge3" class="edge"><title>dir_8618530b6d550d2fd3f0a0ed1956ccfd&#45;&gt;dir_fbb18bb95b402f74720afe62f95284a4</title>
<path fill="none" stroke="black" d="M36.1685,-71.6966C39.4345,-63.8132 43.374,-54.3042 47.0022,-45.5464"/>
<polygon fill="black" stroke="black" points="50.32,-46.6825 50.9139,-36.1043 43.853,-44.0033 50.32,-46.6825"/>
<g id="a_edge3&#45;headlabel"><a xlink:href="dir_000002_000007.html" target="_top" xlink:title="8">
<text text-anchor="middle" x="51.5673" y="-48.5901" font-family="FreeSans" font-size="10.00">8</text>
</a>
</g>
</g>
</g>
</svg>
