<?xml version="1.0" encoding="UTF-8" standalone="no"?>
<!DOCTYPE svg PUBLIC "-//W3C//DTD SVG 1.1//EN"
 "http://www.w3.org/Graphics/SVG/1.1/DTD/svg11.dtd">
<!-- Generated by graphviz version 2.36.0 (20140111.2315)
 -->
<!-- Title: Graph Legend Pages: 1 -->
<svg width="511pt" height="164pt"
 viewBox="0.00 0.00 511.00 164.00" xmlns="http://www.w3.org/2000/svg" xmlns:xlink="http://www.w3.org/1999/xlink">
<g id="graph0" class="graph" transform="scale(1 1) rotate(0) translate(4 160)">
<title>Graph Legend</title>
<!-- Node9 -->
<g id="node1" class="node"><title>Node9</title>
<polygon fill="#bfbfbf" stroke="black" points="293,-19.5 239,-19.5 239,-0.5 293,-0.5 293,-19.5"/>
<text text-anchor="middle" x="266" y="-7.5" font-family="FreeSans" font-size="10.00">Inherited</text>
</g>
<!-- Node10 -->
<g id="node2" class="node"><title>Node10</title>
<g id="a_node2"><a xlink:href="$classPublicBase.html" xlink:title="PublicBase">
<polygon fill="none" stroke="black" points="66,-87.5 0,-87.5 0,-68.5 66,-68.5 66,-87.5"/>
<text text-anchor="middle" x="33" y="-75.5" font-family="FreeSans" font-size="10.00">PublicBase</text>
</a>
</g>
</g>
<!-- Node10&#45;&gt;Node9 -->
<g id="edge1" class="edge"><title>Node10&#45;&gt;Node9</title>
<path fill="none" stroke="midnightblue" d="M73.0833,-65.6459C120.433,-52.2334 197.919,-30.2847 238.791,-18.7073"/>
<polygon fill="midnightblue" stroke="midnightblue" points="72.1282,-62.2787 63.4607,-68.3717 74.036,-69.0137 72.1282,-62.2787"/>
</g>
<!-- Node11 -->
<g id="node3" class="node"><title>Node11</title>
<g id="a_node3"><a xlink:href="$classTruncated.html" xlink:title="Truncated">
<polygon fill="none" stroke="red" points="62.5,-155.5 3.5,-155.5 3.5,-136.5 62.5,-136.5 62.5,-155.5"/>
<text text-anchor="middle" x="33" y="-143.5" font-family="FreeSans" font-size="10.00">Truncated</text>
</a>
</g>
</g>
<!-- Node11&#45;&gt;Node10 -->
<g id="edge2" class="edge"><title>Node11&#45;&gt;Node10</title>
<path fill="none" stroke="midnightblue" d="M33,-126.041C33,-113.472 33,-97.5631 33,-87.8411"/>
<polygon fill="midnightblue" stroke="midnightblue" points="29.5001,-126.372 33,-136.372 36.5001,-126.372 29.5001,-126.372"/>
</g>
<!-- Node13 -->
<g id="node4" class="node"><title>Node13</title>
<g id="a_node4"><a xlink:href="$classProtectedBase.html" xlink:title="ProtectedBase">
<polygon fill="none" stroke="black" points="165.25,-87.5 84.75,-87.5 84.75,-68.5 165.25,-68.5 165.25,-87.5"/>
<text text-anchor="middle" x="125" y="-75.5" font-family="FreeSans" font-size="10.00">ProtectedBase</text>
</a>
</g>
</g>
<!-- Node13&#45;&gt;Node9 -->
<g id="edge3" class="edge"><title>Node13&#45;&gt;Node9</title>
<path fill="none" stroke="darkgreen" d="M152.699,-64.0346C180.763,-50.898 223.387,-30.9463 247.562,-19.6305"/>
<polygon fill="darkgreen" stroke="darkgreen" points="151.006,-60.9623 143.433,-68.3717 153.974,-67.3021 151.006,-60.9623"/>
</g>
<!-- Node14 -->
<g id="node5" class="node"><title>Node14</title>
<g id="a_node5"><a xlink:href="$classPrivateBase.html" xlink:title="PrivateBase">
<polygon fill="none" stroke="black" points="254,-87.5 184,-87.5 184,-68.5 254,-68.5 254,-87.5"/>
<text text-anchor="middle" x="219" y="-75.5" font-family="FreeSans" font-size="10.00">PrivateBase</text>
</a>
</g>
</g>
<!-- Node14&#45;&gt;Node9 -->
<g id="edge4" class="edge"><title>Node14&#45;&gt;Node9</title>
<path fill="none" stroke="#8b1a1a" d="M231.15,-59.9377C240.284,-47.112 252.428,-30.0591 259.704,-19.8411"/>
<polygon fill="#8b1a1a" stroke="#8b1a1a" points="228.094,-58.1957 225.144,-68.3717 233.796,-62.2562 228.094,-58.1957"/>
</g>
<!-- Node15 -->
<g id="node6" class="node"><title>Node15</title>
<polygon fill="none" stroke="#bfbfbf" points="355.25,-87.5 272.75,-87.5 272.75,-68.5 355.25,-68.5 355.25,-87.5"/>
<text text-anchor="middle" x="314" y="-75.5" font-family="FreeSans" font-size="10.00">Undocumented</text>
</g>
<!-- Node15&#45;&gt;Node9 -->
<g id="edge5" class="edge"><title>Node15&#45;&gt;Node9</title>
<path fill="none" stroke="midnightblue" d="M301.591,-59.9377C292.263,-47.112 279.861,-30.0591 272.43,-19.8411"/>
<polygon fill="midnightblue" stroke="midnightblue" points="299.012,-62.3429 307.725,-68.3717 304.674,-58.2257 299.012,-62.3429"/>
</g>
<!-- Node16 -->
<g id="node7" class="node"><title>Node16</title>
<g id="a_node7"><a xlink:href="$classTempl.html" xlink:title="Templ&lt; int &gt;">
<polygon fill="none" stroke="black" points="444.25,-87.5 373.75,-87.5 373.75,-68.5 444.25,-68.5 444.25,-87.5"/>
<text text-anchor="middle" x="409" y="-75.5" font-family="FreeSans" font-size="10.00">Templ&lt; int &gt;</text>
</a>
</g>
</g>
<!-- Node16&#45;&gt;Node9 -->
<g id="edge6" class="edge"><title>Node16&#45;&gt;Node9</title>
<path fill="none" stroke="midnightblue" d="M380.908,-64.0346C352.446,-50.898 309.217,-30.9463 284.699,-19.6305"/>
<polygon fill="midnightblue" stroke="midnightblue" points="379.759,-67.3589 390.305,-68.3717 382.692,-61.0032 379.759,-67.3589"/>
</g>
<!-- Node17 -->
<g id="node8" class="node"><title>Node17</title>
<g id="a_node8"><a xlink:href="$classTempl.html" xlink:title="Templ&lt; T &gt;">
<polygon fill="none" stroke="black" points="442,-155.5 376,-155.5 376,-136.5 442,-136.5 442,-155.5"/>
<text text-anchor="middle" x="409" y="-143.5" font-family="FreeSans" font-size="10.00">Templ&lt; T &gt;</text>
</a>
</g>
</g>
<!-- Node17&#45;&gt;Node16 -->
<g id="edge7" class="edge"><title>Node17&#45;&gt;Node16</title>
<path fill="none" stroke="orange" stroke-dasharray="5,2" d="M409,-126.041C409,-113.472 409,-97.5631 409,-87.8411"/>
<polygon fill="orange" stroke="orange" points="405.5,-126.372 409,-136.372 412.5,-126.372 405.5,-126.372"/>
<text text-anchor="middle" x="423" y="-109.5" font-family="FreeSans" font-size="10.00">&lt; int &gt;</text>
</g>
<!-- Node18 -->
<g id="node9" class="node"><title>Node18</title>
<g id="a_node9"><a xlink:href="$classUsed.html" xlink:title="Used">
<polygon fill="none" stroke="black" points="503,-87.5 463,-87.5 463,-68.5 503,-68.5 503,-87.5"/>
<text text-anchor="middle" x="483" y="-75.5" font-family="FreeSans" font-size="10.00">Used</text>
</a>
</g>
</g>
<!-- Node18&#45;&gt;Node9 -->
<g id="edge8" class="edge"><title>Node18&#45;&gt;Node9</title>
<path fill="none" stroke="#9a32cd" stroke-dasharray="5,2" d="M453.244,-67.9497C410.883,-55.0659 333.819,-31.627 293.017,-19.2172"/>
<polygon fill="#9a32cd" stroke="#9a32cd" points="452.388,-71.3478 462.974,-70.9092 454.425,-64.6507 452.388,-71.3478"/>
<text text-anchor="middle" x="424" y="-41.5" font-family="FreeSans" font-size="10.00">m_usedClass</text>
</g>
</g>
</svg>
