<?xml version="1.0" encoding="UTF-8" standalone="no"?>
<!DOCTYPE svg PUBLIC "-//W3C//DTD SVG 1.1//EN"
 "http://www.w3.org/Graphics/SVG/1.1/DTD/svg11.dtd">
<!-- Generated by graphviz version 2.36.0 (20140111.2315)
 -->
<!-- Title: Graphical Class Hierarchy Pages: 1 -->
<svg width="610pt" height="332pt"
 viewBox="0.00 0.00 610.00 332.00" xmlns="http://www.w3.org/2000/svg" xmlns:xlink="http://www.w3.org/1999/xlink">
<g id="graph0" class="graph" transform="scale(1 1) rotate(0) translate(4 328)">
<title>Graphical Class Hierarchy</title>
<!-- Node1 -->
<g id="node1" class="node"><title>Node1</title>
<g id="a_node1"><a xlink:href="d5/dec/classFun4AllBase.html" target="_top" xlink:title="Fun4AllBase">
<polygon fill="none" stroke="black" points="0,-152.5 0,-171.5 72,-171.5 72,-152.5 0,-152.5"/>
<text text-anchor="middle" x="36" y="-159.5" font-family="FreeSans" font-size="10.00">Fun4AllBase</text>
</a>
</g>
</g>
<!-- Node2 -->
<g id="node2" class="node"><title>Node2</title>
<g id="a_node2"><a xlink:href="dc/dab/classFun4AllEventOutStream.html" target="_top" xlink:title="Fun4AllEventOutStream">
<polygon fill="none" stroke="black" points="108,-285.5 108,-304.5 230,-304.5 230,-285.5 108,-285.5"/>
<text text-anchor="middle" x="169" y="-292.5" font-family="FreeSans" font-size="10.00">Fun4AllEventOutStream</text>
</a>
</g>
</g>
<!-- Node1&#45;&gt;Node2 -->
<g id="edge1" class="edge"><title>Node1&#45;&gt;Node2</title>
<path fill="none" stroke="midnightblue" d="M47.7151,-180.135C60.3438,-200.486 82.8233,-233.697 108,-257 120.397,-268.474 136.709,-278.551 149.195,-285.439"/>
<polygon fill="midnightblue" stroke="midnightblue" points="50.6676,-178.254 42.4847,-171.524 44.6848,-181.888 50.6676,-178.254"/>
</g>
<!-- Node5 -->
<g id="node5" class="node"><title>Node5</title>
<g id="a_node5"><a xlink:href="d3/d96/classFun4AllHistoManager.html" target="_top" xlink:title="Fun4AllHistoManager">
<polygon fill="none" stroke="black" points="114,-228.5 114,-247.5 224,-247.5 224,-228.5 114,-228.5"/>
<text text-anchor="middle" x="169" y="-235.5" font-family="FreeSans" font-size="10.00">Fun4AllHistoManager</text>
</a>
</g>
</g>
<!-- Node1&#45;&gt;Node5 -->
<g id="edge4" class="edge"><title>Node1&#45;&gt;Node5</title>
<path fill="none" stroke="midnightblue" d="M54.3289,-178.99C67.9504,-191.542 87.9198,-208.249 108,-219 114.936,-222.713 122.716,-225.841 130.317,-228.418"/>
<polygon fill="midnightblue" stroke="midnightblue" points="56.3954,-176.127 46.7236,-171.802 51.5871,-181.215 56.3954,-176.127"/>
</g>
<!-- Node6 -->
<g id="node6" class="node"><title>Node6</title>
<g id="a_node6"><a xlink:href="d4/da9/classFun4AllInputManager.html" target="_top" xlink:title="Fun4AllInputManager">
<polygon fill="none" stroke="black" points="114.5,-190.5 114.5,-209.5 223.5,-209.5 223.5,-190.5 114.5,-190.5"/>
<text text-anchor="middle" x="169" y="-197.5" font-family="FreeSans" font-size="10.00">Fun4AllInputManager</text>
</a>
</g>
</g>
<!-- Node1&#45;&gt;Node6 -->
<g id="edge5" class="edge"><title>Node1&#45;&gt;Node6</title>
<path fill="none" stroke="midnightblue" d="M79.7148,-174.391C97.6547,-179.594 118.2,-185.554 134.954,-190.414"/>
<polygon fill="midnightblue" stroke="midnightblue" points="80.636,-171.014 70.0568,-171.589 78.6858,-177.736 80.636,-171.014"/>
</g>
<!-- Node11 -->
<g id="node11" class="node"><title>Node11</title>
<g id="a_node11"><a xlink:href="d8/d77/classFun4AllOutputManager.html" target="_top" xlink:title="Fun4AllOutputManager">
<polygon fill="none" stroke="black" points="111,-152.5 111,-171.5 227,-171.5 227,-152.5 111,-152.5"/>
<text text-anchor="middle" x="169" y="-159.5" font-family="FreeSans" font-size="10.00">Fun4AllOutputManager</text>
</a>
</g>
</g>
<!-- Node1&#45;&gt;Node11 -->
<g id="edge10" class="edge"><title>Node1&#45;&gt;Node11</title>
<path fill="none" stroke="midnightblue" d="M82.2076,-162C91.418,-162 101.222,-162 110.787,-162"/>
<polygon fill="midnightblue" stroke="midnightblue" points="82.1056,-158.5 72.1056,-162 82.1056,-165.5 82.1056,-158.5"/>
</g>
<!-- Node15 -->
<g id="node15" class="node"><title>Node15</title>
<g id="a_node15"><a xlink:href="da/d29/classFun4AllServer.html" target="_top" xlink:title="Fun4AllServer">
<polygon fill="none" stroke="black" points="130,-114.5 130,-133.5 208,-133.5 208,-114.5 130,-114.5"/>
<text text-anchor="middle" x="169" y="-121.5" font-family="FreeSans" font-size="10.00">Fun4AllServer</text>
</a>
</g>
</g>
<!-- Node1&#45;&gt;Node15 -->
<g id="edge14" class="edge"><title>Node1&#45;&gt;Node15</title>
<path fill="none" stroke="midnightblue" d="M79.7148,-149.609C97.6547,-144.406 118.2,-138.446 134.954,-133.586"/>
<polygon fill="midnightblue" stroke="midnightblue" points="78.6858,-146.264 70.0568,-152.411 80.636,-152.986 78.6858,-146.264"/>
</g>
<!-- Node16 -->
<g id="node16" class="node"><title>Node16</title>
<g id="a_node16"><a xlink:href="dd/ded/classFun4AllSyncManager.html" target="_top" xlink:title="Fun4AllSyncManager">
<polygon fill="none" stroke="black" points="114.5,-76.5 114.5,-95.5 223.5,-95.5 223.5,-76.5 114.5,-76.5"/>
<text text-anchor="middle" x="169" y="-83.5" font-family="FreeSans" font-size="10.00">Fun4AllSyncManager</text>
</a>
</g>
</g>
<!-- Node1&#45;&gt;Node16 -->
<g id="edge15" class="edge"><title>Node1&#45;&gt;Node16</title>
<path fill="none" stroke="midnightblue" d="M54.3289,-145.01C67.9504,-132.458 87.9198,-115.751 108,-105 114.936,-101.287 122.716,-98.1592 130.317,-95.5817"/>
<polygon fill="midnightblue" stroke="midnightblue" points="51.5871,-142.785 46.7236,-152.198 56.3954,-147.873 51.5871,-142.785"/>
</g>
<!-- Node17 -->
<g id="node17" class="node"><title>Node17</title>
<g id="a_node17"><a xlink:href="d0/d32/classSubsysReco.html" target="_top" xlink:title="SubsysReco">
<polygon fill="none" stroke="black" points="133.5,-38.5 133.5,-57.5 204.5,-57.5 204.5,-38.5 133.5,-38.5"/>
<text text-anchor="middle" x="169" y="-45.5" font-family="FreeSans" font-size="10.00">SubsysReco</text>
</a>
</g>
</g>
<!-- Node1&#45;&gt;Node17 -->
<g id="edge16" class="edge"><title>Node1&#45;&gt;Node17</title>
<path fill="none" stroke="midnightblue" d="M46.335,-143.274C57.9494,-121.829 79.7459,-87.0784 108,-67 115.482,-61.6834 124.513,-57.8101 133.272,-55.0054"/>
<polygon fill="midnightblue" stroke="midnightblue" points="43.122,-141.866 41.5978,-152.35 49.3276,-145.105 43.122,-141.866"/>
</g>
<!-- Node3 -->
<g id="node3" class="node"><title>Node3</title>
<g id="a_node3"><a xlink:href="de/d50/classFun4AllFileOutStream.html" target="_top" xlink:title="Fun4AllFileOutStream">
<polygon fill="none" stroke="black" points="280.5,-304.5 280.5,-323.5 393.5,-323.5 393.5,-304.5 280.5,-304.5"/>
<text text-anchor="middle" x="337" y="-311.5" font-family="FreeSans" font-size="10.00">Fun4AllFileOutStream</text>
</a>
</g>
</g>
<!-- Node2&#45;&gt;Node3 -->
<g id="edge2" class="edge"><title>Node2&#45;&gt;Node3</title>
<path fill="none" stroke="midnightblue" d="M240.474,-303.066C253.792,-304.591 267.551,-306.165 280.335,-307.629"/>
<polygon fill="midnightblue" stroke="midnightblue" points="240.733,-299.573 230.399,-301.913 239.936,-306.528 240.733,-299.573"/>
</g>
<!-- Node4 -->
<g id="node4" class="node"><title>Node4</title>
<g id="a_node4"><a xlink:href="d0/dbe/classFun4AllRolloverFileOutStream.html" target="_top" xlink:title="Fun4AllRolloverFileOutStream">
<polygon fill="none" stroke="black" points="449,-304.5 449,-323.5 597,-323.5 597,-304.5 449,-304.5"/>
<text text-anchor="middle" x="523" y="-311.5" font-family="FreeSans" font-size="10.00">Fun4AllRolloverFileOutStream</text>
</a>
</g>
</g>
<!-- Node3&#45;&gt;Node4 -->
<g id="edge3" class="edge"><title>Node3&#45;&gt;Node4</title>
<path fill="none" stroke="midnightblue" d="M404.081,-314C418.589,-314 434.034,-314 448.803,-314"/>
<polygon fill="midnightblue" stroke="midnightblue" points="403.705,-310.5 393.705,-314 403.705,-317.5 403.705,-310.5"/>
</g>
<!-- Node7 -->
<g id="node7" class="node"><title>Node7</title>
<g id="a_node7"><a xlink:href="d7/d0b/classFun4AllDstInputManager.html" target="_top" xlink:title="Fun4AllDstInputManager">
<polygon fill="none" stroke="black" points="275,-266.5 275,-285.5 399,-285.5 399,-266.5 275,-266.5"/>
<text text-anchor="middle" x="337" y="-273.5" font-family="FreeSans" font-size="10.00">Fun4AllDstInputManager</text>
</a>
</g>
</g>
<!-- Node6&#45;&gt;Node7 -->
<g id="edge6" class="edge"><title>Node6&#45;&gt;Node7</title>
<path fill="none" stroke="midnightblue" d="M219.359,-213.339C223.065,-215.026 226.658,-216.907 230,-219 249.717,-231.349 246.031,-245.064 266,-257 272.485,-260.876 279.776,-263.979 287.138,-266.459"/>
<polygon fill="midnightblue" stroke="midnightblue" points="220.575,-210.055 209.992,-209.537 217.942,-216.541 220.575,-210.055"/>
</g>
<!-- Node9 -->
<g id="node9" class="node"><title>Node9</title>
<g id="a_node9"><a xlink:href="df/d43/classFun4AllDummyInputManager.html" target="_top" xlink:title="Fun4AllDummyInputManager">
<polygon fill="none" stroke="black" points="266,-228.5 266,-247.5 408,-247.5 408,-228.5 266,-228.5"/>
<text text-anchor="middle" x="337" y="-235.5" font-family="FreeSans" font-size="10.00">Fun4AllDummyInputManager</text>
</a>
</g>
</g>
<!-- Node6&#45;&gt;Node9 -->
<g id="edge8" class="edge"><title>Node6&#45;&gt;Node9</title>
<path fill="none" stroke="midnightblue" d="M221.653,-211.824C245.056,-217.182 272.357,-223.431 294.412,-228.48"/>
<polygon fill="midnightblue" stroke="midnightblue" points="222.418,-208.409 211.889,-209.589 220.856,-215.232 222.418,-208.409"/>
</g>
<!-- Node10 -->
<g id="node10" class="node"><title>Node10</title>
<g id="a_node10"><a xlink:href="da/dd8/classFun4AllPrdfInputManager.html" target="_top" xlink:title="Fun4AllPrdfInputManager">
<polygon fill="none" stroke="black" points="273.5,-190.5 273.5,-209.5 400.5,-209.5 400.5,-190.5 273.5,-190.5"/>
<text text-anchor="middle" x="337" y="-197.5" font-family="FreeSans" font-size="10.00">Fun4AllPrdfInputManager</text>
</a>
</g>
</g>
<!-- Node6&#45;&gt;Node10 -->
<g id="edge9" class="edge"><title>Node6&#45;&gt;Node10</title>
<path fill="none" stroke="midnightblue" d="M234.09,-200C247.006,-200 260.567,-200 273.43,-200"/>
<polygon fill="midnightblue" stroke="midnightblue" points="233.895,-196.5 223.895,-200 233.895,-203.5 233.895,-196.5"/>
</g>
<!-- Node8 -->
<g id="node8" class="node"><title>Node8</title>
<g id="a_node8"><a xlink:href="dd/df1/classFun4AllNoSyncDstInputManager.html" target="_top" xlink:title="Fun4AllNoSyncDstInputManager">
<polygon fill="none" stroke="black" points="444,-266.5 444,-285.5 602,-285.5 602,-266.5 444,-266.5"/>
<text text-anchor="middle" x="523" y="-273.5" font-family="FreeSans" font-size="10.00">Fun4AllNoSyncDstInputManager</text>
</a>
</g>
</g>
<!-- Node7&#45;&gt;Node8 -->
<g id="edge7" class="edge"><title>Node7&#45;&gt;Node8</title>
<path fill="none" stroke="midnightblue" d="M409.257,-276C420.568,-276 432.321,-276 443.782,-276"/>
<polygon fill="midnightblue" stroke="midnightblue" points="409.014,-272.5 399.014,-276 409.014,-279.5 409.014,-272.5"/>
</g>
<!-- Node12 -->
<g id="node12" class="node"><title>Node12</title>
<g id="a_node12"><a xlink:href="da/daa/classFun4AllDstOutputManager.html" target="_top" xlink:title="Fun4AllDstOutputManager">
<polygon fill="none" stroke="black" points="271.5,-152.5 271.5,-171.5 402.5,-171.5 402.5,-152.5 271.5,-152.5"/>
<text text-anchor="middle" x="337" y="-159.5" font-family="FreeSans" font-size="10.00">Fun4AllDstOutputManager</text>
</a>
</g>
</g>
<!-- Node11&#45;&gt;Node12 -->
<g id="edge11" class="edge"><title>Node11&#45;&gt;Node12</title>
<path fill="none" stroke="midnightblue" d="M237.313,-162C248.552,-162 260.189,-162 271.36,-162"/>
<polygon fill="midnightblue" stroke="midnightblue" points="237.128,-158.5 227.128,-162 237.128,-165.5 237.128,-158.5"/>
</g>
<!-- Node13 -->
<g id="node13" class="node"><title>Node13</title>
<g id="a_node13"><a xlink:href="d2/d4a/classFun4AllEventOutputManager.html" target="_top" xlink:title="Fun4AllEventOutputManager">
<polygon fill="none" stroke="black" points="266.5,-114.5 266.5,-133.5 407.5,-133.5 407.5,-114.5 266.5,-114.5"/>
<text text-anchor="middle" x="337" y="-121.5" font-family="FreeSans" font-size="10.00">Fun4AllEventOutputManager</text>
</a>
</g>
</g>
<!-- Node11&#45;&gt;Node13 -->
<g id="edge12" class="edge"><title>Node11&#45;&gt;Node13</title>
<path fill="none" stroke="midnightblue" d="M221.653,-150.176C245.056,-144.818 272.357,-138.569 294.412,-133.52"/>
<polygon fill="midnightblue" stroke="midnightblue" points="220.856,-146.768 211.889,-152.411 222.418,-153.591 220.856,-146.768"/>
</g>
<!-- Node14 -->
<g id="node14" class="node"><title>Node14</title>
<g id="a_node14"><a xlink:href="d6/dc8/classFun4AllPrdfOutputManager.html" target="_top" xlink:title="Fun4AllPrdfOutputManager">
<polygon fill="none" stroke="black" points="270,-76.5 270,-95.5 404,-95.5 404,-76.5 270,-76.5"/>
<text text-anchor="middle" x="337" y="-83.5" font-family="FreeSans" font-size="10.00">Fun4AllPrdfOutputManager</text>
</a>
</g>
</g>
<!-- Node11&#45;&gt;Node14 -->
<g id="edge13" class="edge"><title>Node11&#45;&gt;Node14</title>
<path fill="none" stroke="midnightblue" d="M219.359,-148.661C223.065,-146.974 226.658,-145.093 230,-143 249.717,-130.651 246.031,-116.936 266,-105 272.485,-101.124 279.776,-98.0207 287.138,-95.5414"/>
<polygon fill="midnightblue" stroke="midnightblue" points="217.942,-145.459 209.992,-152.463 220.575,-151.945 217.942,-145.459"/>
</g>
<!-- Node18 -->
<g id="node18" class="node"><title>Node18</title>
<g id="a_node18"><a xlink:href="db/dda/classReadMySql.html" target="_top" xlink:title="ReadMySql">
<polygon fill="none" stroke="black" points="304,-38.5 304,-57.5 370,-57.5 370,-38.5 304,-38.5"/>
<text text-anchor="middle" x="337" y="-45.5" font-family="FreeSans" font-size="10.00">ReadMySql</text>
</a>
</g>
</g>
<!-- Node17&#45;&gt;Node18 -->
<g id="edge17" class="edge"><title>Node17&#45;&gt;Node18</title>
<path fill="none" stroke="midnightblue" d="M215.15,-48C243.19,-48 278.564,-48 303.781,-48"/>
<polygon fill="midnightblue" stroke="midnightblue" points="214.799,-44.5001 204.799,-48 214.799,-51.5001 214.799,-44.5001"/>
</g>
<!-- Node19 -->
<g id="node19" class="node"><title>Node19</title>
<g id="a_node19"><a xlink:href="d0/d68/classSimpleReadMySql.html" target="_top" xlink:title="SimpleReadMySql">
<polygon fill="none" stroke="black" points="289,-0.5 289,-19.5 385,-19.5 385,-0.5 289,-0.5"/>
<text text-anchor="middle" x="337" y="-7.5" font-family="FreeSans" font-size="10.00">SimpleReadMySql</text>
</a>
</g>
</g>
<!-- Node17&#45;&gt;Node19 -->
<g id="edge18" class="edge"><title>Node17&#45;&gt;Node19</title>
<path fill="none" stroke="midnightblue" d="M214.694,-37.7687C239.519,-32.086 270.2,-25.0626 294.495,-19.5011"/>
<polygon fill="midnightblue" stroke="midnightblue" points="213.766,-34.3907 204.799,-40.034 215.328,-41.2142 213.766,-34.3907"/>
</g>
</g>
</svg>
