<?xml version="1.0" encoding="UTF-8" standalone="no"?>
<!DOCTYPE svg PUBLIC "-//W3C//DTD SVG 1.1//EN"
 "http://www.w3.org/Graphics/SVG/1.1/DTD/svg11.dtd">
<!-- Generated by graphviz version 2.36.0 (20140111.2315)
 -->
<!-- Title: Graphical Class Hierarchy Pages: 1 -->
<svg width="264pt" height="66pt"
 viewBox="0.00 0.00 264.00 66.00" xmlns="http://www.w3.org/2000/svg" xmlns:xlink="http://www.w3.org/1999/xlink">
<g id="graph0" class="graph" transform="scale(1 1) rotate(0) translate(4 62)">
<title>Graphical Class Hierarchy</title>
<!-- Node1 -->
<g id="node1" class="node"><title>Node1</title>
<g id="a_node1"><a xlink:href="d5/d07/classPHNodeIterator.html" target="_top" xlink:title="PHNodeIterator">
<polygon fill="none" stroke="black" points="0.5,-19.5 0.5,-38.5 85.5,-38.5 85.5,-19.5 0.5,-19.5"/>
<text text-anchor="middle" x="43" y="-26.5" font-family="FreeSans" font-size="10.00">PHNodeIterator</text>
</a>
</g>
</g>
<!-- Node2 -->
<g id="node2" class="node"><title>Node2</title>
<g id="a_node2"><a xlink:href="d7/ddf/classPHDataNodeIterator.html" target="_top" xlink:title="PHDataNodeIterator">
<polygon fill="none" stroke="black" points="136.5,-38.5 136.5,-57.5 241.5,-57.5 241.5,-38.5 136.5,-38.5"/>
<text text-anchor="middle" x="189" y="-45.5" font-family="FreeSans" font-size="10.00">PHDataNodeIterator</text>
</a>
</g>
</g>
<!-- Node1&#45;&gt;Node2 -->
<g id="edge1" class="edge"><title>Node1&#45;&gt;Node2</title>
<path fill="none" stroke="midnightblue" d="M95.5829,-35.8061C108.873,-37.5596 123.175,-39.4466 136.462,-41.1999"/>
<polygon fill="midnightblue" stroke="midnightblue" points="96.0227,-32.3339 85.6508,-34.4956 95.107,-39.2737 96.0227,-32.3339"/>
</g>
<!-- Node3 -->
<g id="node3" class="node"><title>Node3</title>
<g id="a_node3"><a xlink:href="df/d76/classPHTypedNodeIterator.html" target="_top" xlink:title="PHTypedNodeIterator\&lt; T \&gt;">
<polygon fill="none" stroke="black" points="122,-0.5 122,-19.5 256,-19.5 256,-0.5 122,-0.5"/>
<text text-anchor="middle" x="189" y="-7.5" font-family="FreeSans" font-size="10.00">PHTypedNodeIterator&lt; T &gt;</text>
</a>
</g>
</g>
<!-- Node1&#45;&gt;Node3 -->
<g id="edge2" class="edge"><title>Node1&#45;&gt;Node3</title>
<path fill="none" stroke="midnightblue" d="M95.718,-22.1761C104.165,-21.0616 113.017,-19.8936 121.756,-18.7406"/>
<polygon fill="midnightblue" stroke="midnightblue" points="95.107,-18.7263 85.6508,-23.5044 96.0227,-25.6661 95.107,-18.7263"/>
</g>
</g>
</svg>
