<?xml version="1.0" encoding="UTF-8" standalone="no"?>
<!DOCTYPE svg PUBLIC "-//W3C//DTD SVG 1.1//EN"
 "http://www.w3.org/Graphics/SVG/1.1/DTD/svg11.dtd">
<!-- Generated by graphviz version 2.36.0 (20140111.2315)
 -->
<!-- Title: Graphical Class Hierarchy Pages: 1 -->
<svg width="344pt" height="66pt"
 viewBox="0.00 0.00 344.00 66.00" xmlns="http://www.w3.org/2000/svg" xmlns:xlink="http://www.w3.org/1999/xlink">
<g id="graph0" class="graph" transform="scale(1 1) rotate(0) translate(4 62)">
<title>Graphical Class Hierarchy</title>
<!-- Node1 -->
<g id="node1" class="node"><title>Node1</title>
<g id="a_node1"><a xlink:href="dc/d82/classPHNode.html" target="_top" xlink:title="PHNode">
<polygon fill="none" stroke="black" points="0,-19.5 0,-38.5 54,-38.5 54,-19.5 0,-19.5"/>
<text text-anchor="middle" x="27" y="-26.5" font-family="FreeSans" font-size="10.00">PHNode</text>
</a>
</g>
</g>
<!-- Node2 -->
<g id="node2" class="node"><title>Node2</title>
<g id="a_node2"><a xlink:href="d5/dca/classPHCompositeNode.html" target="_top" xlink:title="PHCompositeNode">
<polygon fill="none" stroke="black" points="90.5,-38.5 90.5,-57.5 191.5,-57.5 191.5,-38.5 90.5,-38.5"/>
<text text-anchor="middle" x="141" y="-45.5" font-family="FreeSans" font-size="10.00">PHCompositeNode</text>
</a>
</g>
</g>
<!-- Node1&#45;&gt;Node2 -->
<g id="edge1" class="edge"><title>Node1&#45;&gt;Node2</title>
<path fill="none" stroke="midnightblue" d="M64.2965,-35.1574C72.5479,-36.5572 81.4533,-38.068 90.1579,-39.5446"/>
<polygon fill="midnightblue" stroke="midnightblue" points="64.7036,-31.6766 54.259,-33.4547 63.5327,-38.578 64.7036,-31.6766"/>
</g>
<!-- Node3 -->
<g id="node3" class="node"><title>Node3</title>
<g id="a_node3"><a xlink:href="d1/d3e/classPHDataNode.html" target="_top" xlink:title="PHDataNode\&lt; T \&gt;">
<polygon fill="none" stroke="black" points="92.5,-0.5 92.5,-19.5 189.5,-19.5 189.5,-0.5 92.5,-0.5"/>
<text text-anchor="middle" x="141" y="-7.5" font-family="FreeSans" font-size="10.00">PHDataNode&lt; T &gt;</text>
</a>
</g>
</g>
<!-- Node1&#45;&gt;Node3 -->
<g id="edge2" class="edge"><title>Node1&#45;&gt;Node3</title>
<path fill="none" stroke="midnightblue" d="M64.3429,-22.8347C73.2884,-21.3171 83.0004,-19.6696 92.3903,-18.0767"/>
<polygon fill="midnightblue" stroke="midnightblue" points="63.5328,-19.422 54.259,-24.5453 64.7036,-26.3234 63.5328,-19.422"/>
</g>
<!-- Node4 -->
<g id="node4" class="node"><title>Node4</title>
<g id="a_node4"><a xlink:href="d9/dde/classPHIODataNode.html" target="_top" xlink:title="PHIODataNode\&lt; T \&gt;">
<polygon fill="none" stroke="black" points="228.5,-0.5 228.5,-19.5 335.5,-19.5 335.5,-0.5 228.5,-0.5"/>
<text text-anchor="middle" x="282" y="-7.5" font-family="FreeSans" font-size="10.00">PHIODataNode&lt; T &gt;</text>
</a>
</g>
</g>
<!-- Node3&#45;&gt;Node4 -->
<g id="edge3" class="edge"><title>Node3&#45;&gt;Node4</title>
<path fill="none" stroke="midnightblue" d="M199.906,-10C209.324,-10 219.033,-10 228.317,-10"/>
<polygon fill="midnightblue" stroke="midnightblue" points="199.836,-6.5001 189.836,-10 199.836,-13.5001 199.836,-6.5001"/>
</g>
</g>
</svg>
