<?xml version="1.0" encoding="UTF-8" standalone="no"?>
<!DOCTYPE svg PUBLIC "-//W3C//DTD SVG 1.1//EN"
 "http://www.w3.org/Graphics/SVG/1.1/DTD/svg11.dtd">
<!-- Generated by graphviz version 2.36.0 (20140111.2315)
 -->
<!-- Title: Graphical Class Hierarchy Pages: 1 -->
<svg width="508pt" height="294pt"
 viewBox="0.00 0.00 508.00 294.00" xmlns="http://www.w3.org/2000/svg" xmlns:xlink="http://www.w3.org/1999/xlink">
<g id="graph0" class="graph" transform="scale(1 1) rotate(0) translate(4 290)">
<title>Graphical Class Hierarchy</title>
<!-- Node1 -->
<g id="node1" class="node"><title>Node1</title>
<polygon fill="none" stroke="#bfbfbf" points="0.5,-133.5 0.5,-152.5 51.5,-152.5 51.5,-133.5 0.5,-133.5"/>
<text text-anchor="middle" x="26" y="-140.5" font-family="FreeSans" font-size="10.00">TObject</text>
</g>
<!-- Node2 -->
<g id="node2" class="node"><title>Node2</title>
<g id="a_node2"><a xlink:href="d9/d24/classPHObject.html" target="_top" xlink:title="PHObject">
<polygon fill="none" stroke="black" points="88.5,-133.5 88.5,-152.5 147.5,-152.5 147.5,-133.5 88.5,-133.5"/>
<text text-anchor="middle" x="118" y="-140.5" font-family="FreeSans" font-size="10.00">PHObject</text>
</a>
</g>
</g>
<!-- Node1&#45;&gt;Node2 -->
<g id="edge1" class="edge"><title>Node1&#45;&gt;Node2</title>
<path fill="none" stroke="midnightblue" d="M61.5998,-143C70.4192,-143 79.8024,-143 88.2915,-143"/>
<polygon fill="midnightblue" stroke="midnightblue" points="61.5929,-139.5 51.5929,-143 61.5929,-146.5 61.5929,-139.5"/>
</g>
<!-- Node3 -->
<g id="node3" class="node"><title>Node3</title>
<g id="a_node3"><a xlink:href="d8/db2/classEventHeader.html" target="_top" xlink:title="base class for EventHeaders ">
<polygon fill="none" stroke="black" points="188.5,-266.5 188.5,-285.5 261.5,-285.5 261.5,-266.5 188.5,-266.5"/>
<text text-anchor="middle" x="225" y="-273.5" font-family="FreeSans" font-size="10.00">EventHeader</text>
</a>
</g>
</g>
<!-- Node2&#45;&gt;Node3 -->
<g id="edge2" class="edge"><title>Node2&#45;&gt;Node3</title>
<path fill="none" stroke="midnightblue" d="M125.754,-162.203C135.306,-186.953 154.904,-230.002 184,-257 188.058,-260.765 192.997,-263.915 198.001,-266.499"/>
<polygon fill="midnightblue" stroke="midnightblue" points="128.928,-160.694 122.175,-152.529 122.363,-163.123 128.928,-160.694"/>
</g>
<!-- Node5 -->
<g id="node5" class="node"><title>Node5</title>
<g id="a_node5"><a xlink:href="d3/da3/classFlagSave.html" target="_top" xlink:title="FlagSave">
<polygon fill="none" stroke="black" points="196,-228.5 196,-247.5 254,-247.5 254,-228.5 196,-228.5"/>
<text text-anchor="middle" x="225" y="-235.5" font-family="FreeSans" font-size="10.00">FlagSave</text>
</a>
</g>
</g>
<!-- Node2&#45;&gt;Node5 -->
<g id="edge4" class="edge"><title>Node2&#45;&gt;Node5</title>
<path fill="none" stroke="midnightblue" d="M130.947,-160.893C142.827,-177.62 162.364,-202.438 184,-219 188.64,-222.552 194.05,-225.669 199.364,-228.297"/>
<polygon fill="midnightblue" stroke="midnightblue" points="133.736,-158.772 125.17,-152.537 127.978,-162.753 133.736,-158.772"/>
</g>
<!-- Node7 -->
<g id="node7" class="node"><title>Node7</title>
<g id="a_node7"><a xlink:href="da/dc2/classPHTimeStamp.html" target="_top" xlink:title="PHTimeStamp">
<polygon fill="none" stroke="black" points="184.5,-190.5 184.5,-209.5 265.5,-209.5 265.5,-190.5 184.5,-190.5"/>
<text text-anchor="middle" x="225" y="-197.5" font-family="FreeSans" font-size="10.00">PHTimeStamp</text>
</a>
</g>
</g>
<!-- Node2&#45;&gt;Node7 -->
<g id="edge6" class="edge"><title>Node2&#45;&gt;Node7</title>
<path fill="none" stroke="midnightblue" d="M143.188,-157.804C155.303,-165.048 170.278,-173.747 184,-181 190.117,-184.233 196.877,-187.542 203.072,-190.472"/>
<polygon fill="midnightblue" stroke="midnightblue" points="144.92,-154.762 134.549,-152.596 141.306,-160.756 144.92,-154.762"/>
</g>
<!-- Node8 -->
<g id="node8" class="node"><title>Node8</title>
<g id="a_node8"><a xlink:href="df/d35/classRunHeader.html" target="_top" xlink:title="RunHeader">
<polygon fill="none" stroke="black" points="192.5,-152.5 192.5,-171.5 257.5,-171.5 257.5,-152.5 192.5,-152.5"/>
<text text-anchor="middle" x="225" y="-159.5" font-family="FreeSans" font-size="10.00">RunHeader</text>
</a>
</g>
</g>
<!-- Node2&#45;&gt;Node8 -->
<g id="edge7" class="edge"><title>Node2&#45;&gt;Node8</title>
<path fill="none" stroke="midnightblue" d="M157.82,-150.025C169.205,-152.085 181.512,-154.312 192.39,-156.28"/>
<polygon fill="midnightblue" stroke="midnightblue" points="158.155,-146.528 147.692,-148.192 156.909,-153.417 158.155,-146.528"/>
</g>
<!-- Node10 -->
<g id="node10" class="node"><title>Node10</title>
<g id="a_node10"><a xlink:href="d8/dfc/classSEvent.html" target="_top" xlink:title="SEvent">
<polygon fill="none" stroke="black" points="201,-114.5 201,-133.5 249,-133.5 249,-114.5 201,-114.5"/>
<text text-anchor="middle" x="225" y="-121.5" font-family="FreeSans" font-size="10.00">SEvent</text>
</a>
</g>
</g>
<!-- Node2&#45;&gt;Node10 -->
<g id="edge9" class="edge"><title>Node2&#45;&gt;Node10</title>
<path fill="none" stroke="midnightblue" d="M157.912,-135.959C172.403,-133.337 188.377,-130.446 200.99,-128.164"/>
<polygon fill="midnightblue" stroke="midnightblue" points="156.909,-132.583 147.692,-137.808 158.155,-139.472 156.909,-132.583"/>
</g>
<!-- Node12 -->
<g id="node12" class="node"><title>Node12</title>
<g id="a_node12"><a xlink:href="d0/da1/classSHit.html" target="_top" xlink:title="SHit">
<polygon fill="none" stroke="black" points="207,-76.5 207,-95.5 243,-95.5 243,-76.5 207,-76.5"/>
<text text-anchor="middle" x="225" y="-83.5" font-family="FreeSans" font-size="10.00">SHit</text>
</a>
</g>
</g>
<!-- Node2&#45;&gt;Node12 -->
<g id="edge11" class="edge"><title>Node2&#45;&gt;Node12</title>
<path fill="none" stroke="midnightblue" d="M143.188,-128.196C155.303,-120.952 170.278,-112.253 184,-105 191.341,-101.12 199.607,-97.1321 206.711,-93.8179"/>
<polygon fill="midnightblue" stroke="midnightblue" points="141.306,-125.244 134.549,-133.404 144.92,-131.238 141.306,-125.244"/>
</g>
<!-- Node14 -->
<g id="node14" class="node"><title>Node14</title>
<g id="a_node14"><a xlink:href="d9/d05/classSHitMap.html" target="_top" xlink:title="SHitMap">
<polygon fill="none" stroke="black" points="197.5,-38.5 197.5,-57.5 252.5,-57.5 252.5,-38.5 197.5,-38.5"/>
<text text-anchor="middle" x="225" y="-45.5" font-family="FreeSans" font-size="10.00">SHitMap</text>
</a>
</g>
</g>
<!-- Node2&#45;&gt;Node14 -->
<g id="edge13" class="edge"><title>Node2&#45;&gt;Node14</title>
<path fill="none" stroke="midnightblue" d="M130.947,-125.107C142.827,-108.38 162.364,-83.5624 184,-67 188.64,-63.4484 194.05,-60.331 199.364,-57.703"/>
<polygon fill="midnightblue" stroke="midnightblue" points="127.978,-123.247 125.17,-133.463 133.736,-127.228 127.978,-123.247"/>
</g>
<!-- Node16 -->
<g id="node16" class="node"><title>Node16</title>
<g id="a_node16"><a xlink:href="de/dbb/classSyncObject.html" target="_top" xlink:title="SyncObject">
<polygon fill="none" stroke="black" points="191.5,-0.5 191.5,-19.5 258.5,-19.5 258.5,-0.5 191.5,-0.5"/>
<text text-anchor="middle" x="225" y="-7.5" font-family="FreeSans" font-size="10.00">SyncObject</text>
</a>
</g>
</g>
<!-- Node2&#45;&gt;Node16 -->
<g id="edge15" class="edge"><title>Node2&#45;&gt;Node16</title>
<path fill="none" stroke="midnightblue" d="M125.754,-123.797C135.306,-99.0471 154.904,-55.998 184,-29 188.058,-25.2349 192.997,-22.0847 198.001,-19.5014"/>
<polygon fill="midnightblue" stroke="midnightblue" points="122.363,-122.877 122.175,-133.471 128.928,-125.306 122.363,-122.877"/>
</g>
<!-- Node4 -->
<g id="node4" class="node"><title>Node4</title>
<g id="a_node4"><a xlink:href="d0/d76/classEventHeaderv1.html" target="_top" xlink:title="simple event header with ID and time ">
<polygon fill="none" stroke="black" points="302.5,-266.5 302.5,-285.5 385.5,-285.5 385.5,-266.5 302.5,-266.5"/>
<text text-anchor="middle" x="344" y="-273.5" font-family="FreeSans" font-size="10.00">EventHeaderv1</text>
</a>
</g>
</g>
<!-- Node3&#45;&gt;Node4 -->
<g id="edge3" class="edge"><title>Node3&#45;&gt;Node4</title>
<path fill="none" stroke="midnightblue" d="M271.905,-276C281.888,-276 292.385,-276 302.156,-276"/>
<polygon fill="midnightblue" stroke="midnightblue" points="271.74,-272.5 261.74,-276 271.74,-279.5 271.74,-272.5"/>
</g>
<!-- Node6 -->
<g id="node6" class="node"><title>Node6</title>
<g id="a_node6"><a xlink:href="da/db3/classFlagSavev1.html" target="_top" xlink:title="FlagSavev1">
<polygon fill="none" stroke="black" points="310,-228.5 310,-247.5 378,-247.5 378,-228.5 310,-228.5"/>
<text text-anchor="middle" x="344" y="-235.5" font-family="FreeSans" font-size="10.00">FlagSavev1</text>
</a>
</g>
</g>
<!-- Node5&#45;&gt;Node6 -->
<g id="edge5" class="edge"><title>Node5&#45;&gt;Node6</title>
<path fill="none" stroke="midnightblue" d="M264.316,-238C279.005,-238 295.629,-238 309.8,-238"/>
<polygon fill="midnightblue" stroke="midnightblue" points="264.024,-234.5 254.024,-238 264.024,-241.5 264.024,-234.5"/>
</g>
<!-- Node9 -->
<g id="node9" class="node"><title>Node9</title>
<g id="a_node9"><a xlink:href="d4/d0f/classRunHeaderv1.html" target="_top" xlink:title="RunHeaderv1">
<polygon fill="none" stroke="black" points="306,-152.5 306,-171.5 382,-171.5 382,-152.5 306,-152.5"/>
<text text-anchor="middle" x="344" y="-159.5" font-family="FreeSans" font-size="10.00">RunHeaderv1</text>
</a>
</g>
</g>
<!-- Node8&#45;&gt;Node9 -->
<g id="edge8" class="edge"><title>Node8&#45;&gt;Node9</title>
<path fill="none" stroke="midnightblue" d="M267.802,-162C280.248,-162 293.795,-162 305.918,-162"/>
<polygon fill="midnightblue" stroke="midnightblue" points="267.662,-158.5 257.662,-162 267.662,-165.5 267.662,-158.5"/>
</g>
<!-- Node11 -->
<g id="node11" class="node"><title>Node11</title>
<g id="a_node11"><a xlink:href="d3/da3/classSEvent__v1.html" target="_top" xlink:title="SEvent_v1">
<polygon fill="none" stroke="black" points="312,-114.5 312,-133.5 376,-133.5 376,-114.5 312,-114.5"/>
<text text-anchor="middle" x="344" y="-121.5" font-family="FreeSans" font-size="10.00">SEvent_v1</text>
</a>
</g>
</g>
<!-- Node10&#45;&gt;Node11 -->
<g id="edge10" class="edge"><title>Node10&#45;&gt;Node11</title>
<path fill="none" stroke="midnightblue" d="M259.428,-124C275.952,-124 295.768,-124 311.956,-124"/>
<polygon fill="midnightblue" stroke="midnightblue" points="259.115,-120.5 249.115,-124 259.115,-127.5 259.115,-120.5"/>
</g>
<!-- Node13 -->
<g id="node13" class="node"><title>Node13</title>
<g id="a_node13"><a xlink:href="d2/de1/classSHit__v1.html" target="_top" xlink:title="SHit_v1">
<polygon fill="none" stroke="black" points="318,-76.5 318,-95.5 370,-95.5 370,-76.5 318,-76.5"/>
<text text-anchor="middle" x="344" y="-83.5" font-family="FreeSans" font-size="10.00">SHit_v1</text>
</a>
</g>
</g>
<!-- Node12&#45;&gt;Node13 -->
<g id="edge12" class="edge"><title>Node12&#45;&gt;Node13</title>
<path fill="none" stroke="midnightblue" d="M253.078,-86C272.577,-86 298.701,-86 317.765,-86"/>
<polygon fill="midnightblue" stroke="midnightblue" points="253.013,-82.5001 243.013,-86 253.013,-89.5001 253.013,-82.5001"/>
</g>
<!-- Node15 -->
<g id="node15" class="node"><title>Node15</title>
<g id="a_node15"><a xlink:href="de/d92/classSHitMap__v1.html" target="_top" xlink:title="SHitMap_v1">
<polygon fill="none" stroke="black" points="308.5,-38.5 308.5,-57.5 379.5,-57.5 379.5,-38.5 308.5,-38.5"/>
<text text-anchor="middle" x="344" y="-45.5" font-family="FreeSans" font-size="10.00">SHitMap_v1</text>
</a>
</g>
</g>
<!-- Node14&#45;&gt;Node15 -->
<g id="edge14" class="edge"><title>Node14&#45;&gt;Node15</title>
<path fill="none" stroke="midnightblue" d="M262.682,-48C277.192,-48 293.791,-48 308.119,-48"/>
<polygon fill="midnightblue" stroke="midnightblue" points="262.549,-44.5001 252.549,-48 262.549,-51.5001 262.549,-44.5001"/>
</g>
<!-- Node17 -->
<g id="node17" class="node"><title>Node17</title>
<g id="a_node17"><a xlink:href="d9/d30/classSyncObjectv1.html" target="_top" xlink:title="SyncObjectv1">
<polygon fill="none" stroke="black" points="305.5,-0.5 305.5,-19.5 382.5,-19.5 382.5,-0.5 305.5,-0.5"/>
<text text-anchor="middle" x="344" y="-7.5" font-family="FreeSans" font-size="10.00">SyncObjectv1</text>
</a>
</g>
</g>
<!-- Node16&#45;&gt;Node17 -->
<g id="edge16" class="edge"><title>Node16&#45;&gt;Node17</title>
<path fill="none" stroke="midnightblue" d="M268.779,-10C280.711,-10 293.585,-10 305.208,-10"/>
<polygon fill="midnightblue" stroke="midnightblue" points="268.591,-6.5001 258.591,-10 268.591,-13.5001 268.591,-6.5001"/>
</g>
<!-- Node18 -->
<g id="node18" class="node"><title>Node18</title>
<g id="a_node18"><a xlink:href="df/da3/classSyncObjectv2.html" target="_top" xlink:title="SyncObjectv2">
<polygon fill="none" stroke="black" points="422.5,-0.5 422.5,-19.5 499.5,-19.5 499.5,-0.5 422.5,-0.5"/>
<text text-anchor="middle" x="461" y="-7.5" font-family="FreeSans" font-size="10.00">SyncObjectv2</text>
</a>
</g>
</g>
<!-- Node17&#45;&gt;Node18 -->
<g id="edge17" class="edge"><title>Node17&#45;&gt;Node18</title>
<path fill="none" stroke="midnightblue" d="M392.728,-10C402.578,-10 412.823,-10 422.26,-10"/>
<polygon fill="midnightblue" stroke="midnightblue" points="392.655,-6.5001 382.655,-10 392.655,-13.5001 392.655,-6.5001"/>
</g>
</g>
</svg>
