<?xml version="1.0" encoding="UTF-8" standalone="no"?>
<!DOCTYPE svg PUBLIC "-//W3C//DTD SVG 1.1//EN"
 "http://www.w3.org/Graphics/SVG/1.1/DTD/svg11.dtd">
<!-- Generated by graphviz version 2.36.0 (20140111.2315)
 -->
<!-- Title: fun4all/interfaces/SHit_v1.C Pages: 1 -->
<svg width="305pt" height="264pt"
 viewBox="0.00 0.00 305.00 264.00" xmlns="http://www.w3.org/2000/svg" xmlns:xlink="http://www.w3.org/1999/xlink">
<g id="graph0" class="graph" transform="scale(1 1) rotate(0) translate(4 260)">
<title>fun4all/interfaces/SHit_v1.C</title>
<!-- Node1 -->
<g id="node1" class="node"><title>Node1</title>
<polygon fill="#bfbfbf" stroke="black" points="169.5,-225 169.5,-255 260.5,-255 260.5,-225 169.5,-225"/>
<text text-anchor="start" x="177.5" y="-243" font-family="FreeSans" font-size="10.00">fun4all/interfaces</text>
<text text-anchor="middle" x="215" y="-232" font-family="FreeSans" font-size="10.00">/SHit_v1.C</text>
</g>
<!-- Node2 -->
<g id="node2" class="node"><title>Node2</title>
<g id="a_node2"><a xlink:href="../../d0/d11/SHit__v1_8h.html" target="_top" xlink:title="SHit_v1.h">
<polygon fill="none" stroke="black" points="117.5,-168.5 117.5,-187.5 176.5,-187.5 176.5,-168.5 117.5,-168.5"/>
<text text-anchor="middle" x="147" y="-175.5" font-family="FreeSans" font-size="10.00">SHit_v1.h</text>
</a>
</g>
</g>
<!-- Node1&#45;&gt;Node2 -->
<g id="edge1" class="edge"><title>Node1&#45;&gt;Node2</title>
<path fill="none" stroke="midnightblue" d="M198.885,-224.781C188.596,-215.703 175.253,-203.929 164.674,-194.595"/>
<polygon fill="midnightblue" stroke="midnightblue" points="166.709,-191.722 156.895,-187.731 162.077,-196.971 166.709,-191.722"/>
</g>
<!-- Node9 -->
<g id="node9" class="node"><title>Node9</title>
<polygon fill="none" stroke="#bfbfbf" points="195,-168.5 195,-187.5 235,-187.5 235,-168.5 195,-168.5"/>
<text text-anchor="middle" x="215" y="-175.5" font-family="FreeSans" font-size="10.00">limits</text>
</g>
<!-- Node1&#45;&gt;Node9 -->
<g id="edge11" class="edge"><title>Node1&#45;&gt;Node9</title>
<path fill="none" stroke="midnightblue" d="M215,-224.781C215,-216.781 215,-206.689 215,-198.017"/>
<polygon fill="midnightblue" stroke="midnightblue" points="218.5,-197.73 215,-187.731 211.5,-197.731 218.5,-197.73"/>
</g>
<!-- Node10 -->
<g id="node10" class="node"><title>Node10</title>
<polygon fill="none" stroke="#bfbfbf" points="253,-168.5 253,-187.5 297,-187.5 297,-168.5 253,-168.5"/>
<text text-anchor="middle" x="275" y="-175.5" font-family="FreeSans" font-size="10.00">cmath</text>
</g>
<!-- Node1&#45;&gt;Node10 -->
<g id="edge12" class="edge"><title>Node1&#45;&gt;Node10</title>
<path fill="none" stroke="midnightblue" d="M229.219,-224.781C238.208,-215.792 249.838,-204.162 259.127,-194.873"/>
<polygon fill="midnightblue" stroke="midnightblue" points="261.673,-197.277 266.269,-187.731 256.723,-192.327 261.673,-197.277"/>
</g>
<!-- Node3 -->
<g id="node3" class="node"><title>Node3</title>
<g id="a_node3"><a xlink:href="../../d2/d2c/SHit_8h.html" target="_top" xlink:title="SHit.h">
<polygon fill="none" stroke="black" points="125,-112.5 125,-131.5 169,-131.5 169,-112.5 125,-112.5"/>
<text text-anchor="middle" x="147" y="-119.5" font-family="FreeSans" font-size="10.00">SHit.h</text>
</a>
</g>
</g>
<!-- Node2&#45;&gt;Node3 -->
<g id="edge2" class="edge"><title>Node2&#45;&gt;Node3</title>
<path fill="none" stroke="midnightblue" d="M147,-168.083C147,-161.006 147,-150.861 147,-141.986"/>
<polygon fill="midnightblue" stroke="midnightblue" points="150.5,-141.751 147,-131.751 143.5,-141.751 150.5,-141.751"/>
</g>
<!-- Node4 -->
<g id="node4" class="node"><title>Node4</title>
<g id="a_node4"><a xlink:href="../../df/d32/PHObject_8h.html" target="_top" xlink:title="phool/PHObject.h">
<polygon fill="none" stroke="black" points="-0.5,-56.5 -0.5,-75.5 92.5,-75.5 92.5,-56.5 -0.5,-56.5"/>
<text text-anchor="middle" x="46" y="-63.5" font-family="FreeSans" font-size="10.00">phool/PHObject.h</text>
</a>
</g>
</g>
<!-- Node2&#45;&gt;Node4 -->
<g id="edge9" class="edge"><title>Node2&#45;&gt;Node4</title>
<path fill="none" stroke="midnightblue" d="M139.075,-168.368C122.186,-149.974 82.4254,-106.671 60.7385,-83.0519"/>
<polygon fill="midnightblue" stroke="midnightblue" points="63.2299,-80.5903 53.8885,-75.5914 58.0737,-85.3246 63.2299,-80.5903"/>
</g>
<!-- Node6 -->
<g id="node6" class="node"><title>Node6</title>
<polygon fill="none" stroke="#bfbfbf" points="94,-0.5 94,-19.5 148,-19.5 148,-0.5 94,-0.5"/>
<text text-anchor="middle" x="121" y="-7.5" font-family="FreeSans" font-size="10.00">iostream</text>
</g>
<!-- Node2&#45;&gt;Node6 -->
<g id="edge10" class="edge"><title>Node2&#45;&gt;Node6</title>
<path fill="none" stroke="midnightblue" d="M167.566,-168.365C209.518,-149.521 298.225,-102.65 264,-56 240.036,-23.3364 192.347,-13.7571 158.643,-11.266"/>
<polygon fill="midnightblue" stroke="midnightblue" points="158.419,-7.74816 148.24,-10.686 158.029,-14.7373 158.419,-7.74816"/>
</g>
<!-- Node3&#45;&gt;Node4 -->
<g id="edge3" class="edge"><title>Node3&#45;&gt;Node4</title>
<path fill="none" stroke="midnightblue" d="M130.773,-112.324C114.649,-103.703 89.6998,-90.3643 71.0359,-80.3855"/>
<polygon fill="midnightblue" stroke="midnightblue" points="72.6561,-77.283 62.1871,-75.6545 69.3556,-83.456 72.6561,-77.283"/>
</g>
<!-- Node3&#45;&gt;Node6 -->
<g id="edge6" class="edge"><title>Node3&#45;&gt;Node6</title>
<path fill="none" stroke="midnightblue" d="M144.96,-112.368C140.764,-94.617 131.085,-53.6664 125.396,-29.5974"/>
<polygon fill="midnightblue" stroke="midnightblue" points="128.737,-28.5182 123.031,-19.5914 121.925,-30.1284 128.737,-28.5182"/>
</g>
<!-- Node7 -->
<g id="node7" class="node"><title>Node7</title>
<polygon fill="none" stroke="#bfbfbf" points="149.5,-56.5 149.5,-75.5 196.5,-75.5 196.5,-56.5 149.5,-56.5"/>
<text text-anchor="middle" x="173" y="-63.5" font-family="FreeSans" font-size="10.00">limits.h</text>
</g>
<!-- Node3&#45;&gt;Node7 -->
<g id="edge7" class="edge"><title>Node3&#45;&gt;Node7</title>
<path fill="none" stroke="midnightblue" d="M151.293,-112.083C154.852,-104.691 160.022,-93.9533 164.424,-84.8111"/>
<polygon fill="midnightblue" stroke="midnightblue" points="167.602,-86.2795 168.787,-75.7511 161.295,-83.2427 167.602,-86.2795"/>
</g>
<!-- Node8 -->
<g id="node8" class="node"><title>Node8</title>
<polygon fill="none" stroke="#bfbfbf" points="214.5,-56.5 214.5,-75.5 255.5,-75.5 255.5,-56.5 214.5,-56.5"/>
<text text-anchor="middle" x="235" y="-63.5" font-family="FreeSans" font-size="10.00">string</text>
</g>
<!-- Node3&#45;&gt;Node8 -->
<g id="edge8" class="edge"><title>Node3&#45;&gt;Node8</title>
<path fill="none" stroke="midnightblue" d="M161.139,-112.324C174.866,-103.9 195.936,-90.9709 212.064,-81.0741"/>
<polygon fill="midnightblue" stroke="midnightblue" points="214.204,-83.8678 220.896,-75.6545 210.543,-77.9016 214.204,-83.8678"/>
</g>
<!-- Node5 -->
<g id="node5" class="node"><title>Node5</title>
<polygon fill="none" stroke="#bfbfbf" points="16.5,-0.5 16.5,-19.5 75.5,-19.5 75.5,-0.5 16.5,-0.5"/>
<text text-anchor="middle" x="46" y="-7.5" font-family="FreeSans" font-size="10.00">TObject.h</text>
</g>
<!-- Node4&#45;&gt;Node5 -->
<g id="edge4" class="edge"><title>Node4&#45;&gt;Node5</title>
<path fill="none" stroke="midnightblue" d="M46,-56.083C46,-49.0059 46,-38.8611 46,-29.9865"/>
<polygon fill="midnightblue" stroke="midnightblue" points="49.5001,-29.751 46,-19.7511 42.5001,-29.7511 49.5001,-29.751"/>
</g>
<!-- Node4&#45;&gt;Node6 -->
<g id="edge5" class="edge"><title>Node4&#45;&gt;Node6</title>
<path fill="none" stroke="midnightblue" d="M58.05,-56.324C69.4631,-48.1066 86.831,-35.6017 100.435,-25.8069"/>
<polygon fill="midnightblue" stroke="midnightblue" points="102.66,-28.5174 108.731,-19.8339 98.5703,-22.8366 102.66,-28.5174"/>
</g>
</g>
</svg>
