<?xml version="1.0" encoding="UTF-8" standalone="no"?>
<!DOCTYPE svg PUBLIC "-//W3C//DTD SVG 1.1//EN"
 "http://www.w3.org/Graphics/SVG/1.1/DTD/svg11.dtd">
<!-- Generated by graphviz version 2.36.0 (20140111.2315)
 -->
<!-- Title: fun4all/fun4all/Fun4AllEventOutputManager.cc Pages: 1 -->
<svg width="1935pt" height="544pt"
 viewBox="0.00 0.00 1935.00 544.00" xmlns="http://www.w3.org/2000/svg" xmlns:xlink="http://www.w3.org/1999/xlink">
<g id="graph0" class="graph" transform="scale(1 1) rotate(0) translate(4 540)">
<title>fun4all/fun4all/Fun4AllEventOutputManager.cc</title>
<!-- Node1 -->
<g id="node1" class="node"><title>Node1</title>
<polygon fill="#bfbfbf" stroke="black" points="946.5,-505 946.5,-535 1083.5,-535 1083.5,-505 946.5,-505"/>
<text text-anchor="start" x="954.5" y="-523" font-family="FreeSans" font-size="10.00">fun4all/fun4all/Fun4AllEvent</text>
<text text-anchor="middle" x="1015" y="-512" font-family="FreeSans" font-size="10.00">OutputManager.cc</text>
</g>
<!-- Node2 -->
<g id="node2" class="node"><title>Node2</title>
<g id="a_node2"><a xlink:href="../../da/d34/Fun4AllEventOutputManager_8h.html" target="_top" xlink:title="Fun4AllEventOutputManager.h">
<polygon fill="none" stroke="black" points="936.5,-280.5 936.5,-299.5 1085.5,-299.5 1085.5,-280.5 936.5,-280.5"/>
<text text-anchor="middle" x="1011" y="-287.5" font-family="FreeSans" font-size="10.00">Fun4AllEventOutputManager.h</text>
</a>
</g>
</g>
<!-- Node1&#45;&gt;Node2 -->
<g id="edge1" class="edge"><title>Node1&#45;&gt;Node2</title>
<path fill="none" stroke="midnightblue" d="M1014.75,-504.738C1014.06,-465.277 1012.12,-354.626 1011.33,-310.007"/>
<polygon fill="midnightblue" stroke="midnightblue" points="1014.83,-309.884 1011.16,-299.947 1007.83,-310.007 1014.83,-309.884"/>
</g>
<!-- Node5 -->
<g id="node5" class="node"><title>Node5</title>
<polygon fill="none" stroke="#bfbfbf" points="1073.5,-56.5 1073.5,-75.5 1114.5,-75.5 1114.5,-56.5 1073.5,-56.5"/>
<text text-anchor="middle" x="1094" y="-63.5" font-family="FreeSans" font-size="10.00">string</text>
</g>
<!-- Node1&#45;&gt;Node5 -->
<g id="edge77" class="edge"><title>Node1&#45;&gt;Node5</title>
<path fill="none" stroke="midnightblue" d="M1038.97,-504.875C1067.99,-485.763 1113,-448.741 1113,-403 1113,-403 1113,-403 1113,-177 1113,-144.489 1104.84,-107.35 1099.22,-85.6103"/>
<polygon fill="midnightblue" stroke="midnightblue" points="1102.54,-84.498 1096.56,-75.7514 1095.78,-86.3175 1102.54,-84.498"/>
</g>
<!-- Node7 -->
<g id="node7" class="node"><title>Node7</title>
<polygon fill="none" stroke="#bfbfbf" points="426,-168.5 426,-187.5 470,-187.5 470,-168.5 426,-168.5"/>
<text text-anchor="middle" x="448" y="-175.5" font-family="FreeSans" font-size="10.00">vector</text>
</g>
<!-- Node1&#45;&gt;Node7 -->
<g id="edge78" class="edge"><title>Node1&#45;&gt;Node7</title>
<path fill="none" stroke="midnightblue" d="M946.471,-514.016C828.6,-503.543 600,-474.07 600,-403 600,-403 600,-403 600,-289 600,-258.565 519.01,-213.951 475.268,-192.075"/>
<polygon fill="midnightblue" stroke="midnightblue" points="476.55,-188.804 466.033,-187.517 473.452,-195.081 476.55,-188.804"/>
</g>
<!-- Node8 -->
<g id="node8" class="node"><title>Node8</title>
<g id="a_node8"><a xlink:href="../../dc/da2/Fun4AllServer_8h.html" target="_top" xlink:title="Fun4AllServer.h">
<polygon fill="none" stroke="black" points="336,-224.5 336,-243.5 422,-243.5 422,-224.5 336,-224.5"/>
<text text-anchor="middle" x="379" y="-231.5" font-family="FreeSans" font-size="10.00">Fun4AllServer.h</text>
</a>
</g>
</g>
<!-- Node1&#45;&gt;Node8 -->
<g id="edge9" class="edge"><title>Node1&#45;&gt;Node8</title>
<path fill="none" stroke="midnightblue" d="M946.465,-513.157C786.505,-498.601 402,-457.901 402,-403 402,-403 402,-403 402,-345 402,-312.12 392.032,-274.86 385.221,-253.235"/>
<polygon fill="midnightblue" stroke="midnightblue" points="388.54,-252.125 382.102,-243.711 381.888,-254.303 388.54,-252.125"/>
</g>
<!-- Node10 -->
<g id="node10" class="node"><title>Node10</title>
<polygon fill="none" stroke="#bfbfbf" points="953,-0.5 953,-19.5 1007,-19.5 1007,-0.5 953,-0.5"/>
<text text-anchor="middle" x="980" y="-7.5" font-family="FreeSans" font-size="10.00">iostream</text>
</g>
<!-- Node1&#45;&gt;Node10 -->
<g id="edge76" class="edge"><title>Node1&#45;&gt;Node10</title>
<path fill="none" stroke="midnightblue" d="M1083.57,-516.228C1226.67,-510.013 1552.79,-493.479 1661,-468 1736.11,-450.314 1822,-480.167 1822,-403 1822,-403 1822,-403 1822,-121 1822,-69.8406 1775.4,-72.5831 1727,-56 1593.57,-10.2811 1149.14,-9.74367 1017.22,-10.635"/>
<polygon fill="midnightblue" stroke="midnightblue" points="1017.18,-7.1351 1007.21,-10.7097 1017.23,-14.1349 1017.18,-7.1351"/>
</g>
<!-- Node15 -->
<g id="node15" class="node"><title>Node15</title>
<g id="a_node15"><a xlink:href="../../d4/d07/Fun4AllEventOutStream_8h.html" target="_top" xlink:title="Fun4AllEventOutStream.h">
<polygon fill="none" stroke="black" points="653.5,-168.5 653.5,-187.5 782.5,-187.5 782.5,-168.5 653.5,-168.5"/>
<text text-anchor="middle" x="718" y="-175.5" font-family="FreeSans" font-size="10.00">Fun4AllEventOutStream.h</text>
</a>
</g>
</g>
<!-- Node1&#45;&gt;Node15 -->
<g id="edge24" class="edge"><title>Node1&#45;&gt;Node15</title>
<path fill="none" stroke="midnightblue" d="M946.489,-506.444C858.778,-488.378 718,-451.782 718,-403 718,-403 718,-403 718,-289 718,-256.948 718,-219.643 718,-197.749"/>
<polygon fill="midnightblue" stroke="midnightblue" points="721.5,-197.558 718,-187.558 714.5,-197.558 721.5,-197.558"/>
</g>
<!-- Node20 -->
<g id="node20" class="node"><title>Node20</title>
<g id="a_node20"><a xlink:href="../../d8/d07/Fun4AllRolloverFileOutStream_8h.html" target="_top" xlink:title="Fun4AllRolloverFileOutStream.h">
<polygon fill="none" stroke="black" points="831.5,-392.5 831.5,-411.5 986.5,-411.5 986.5,-392.5 831.5,-392.5"/>
<text text-anchor="middle" x="909" y="-399.5" font-family="FreeSans" font-size="10.00">Fun4AllRolloverFileOutStream.h</text>
</a>
</g>
</g>
<!-- Node1&#45;&gt;Node20 -->
<g id="edge32" class="edge"><title>Node1&#45;&gt;Node20</title>
<path fill="none" stroke="midnightblue" d="M1002,-504.776C982.209,-483.116 944.621,-441.981 923.803,-419.2"/>
<polygon fill="midnightblue" stroke="midnightblue" points="926.286,-416.728 916.956,-411.707 921.118,-421.45 926.286,-416.728"/>
</g>
<!-- Node22 -->
<g id="node22" class="node"><title>Node22</title>
<g id="a_node22"><a xlink:href="../../dd/dd4/getClass_8h.html" target="_top" xlink:title="phool/getClass.h">
<polygon fill="none" stroke="black" points="1563.5,-448.5 1563.5,-467.5 1652.5,-467.5 1652.5,-448.5 1563.5,-448.5"/>
<text text-anchor="middle" x="1608" y="-455.5" font-family="FreeSans" font-size="10.00">phool/getClass.h</text>
</a>
</g>
</g>
<!-- Node1&#45;&gt;Node22 -->
<g id="edge38" class="edge"><title>Node1&#45;&gt;Node22</title>
<path fill="none" stroke="midnightblue" d="M1083.6,-512.059C1202.48,-500.031 1444.43,-475.55 1553.05,-464.559"/>
<polygon fill="midnightblue" stroke="midnightblue" points="1553.54,-468.028 1563.14,-463.539 1552.84,-461.063 1553.54,-468.028"/>
</g>
<!-- Node37 -->
<g id="node37" class="node"><title>Node37</title>
<polygon fill="none" stroke="#bfbfbf" points="1850.5,-448.5 1850.5,-467.5 1927.5,-467.5 1927.5,-448.5 1850.5,-448.5"/>
<text text-anchor="middle" x="1889" y="-455.5" font-family="FreeSans" font-size="10.00">Event/Event.h</text>
</g>
<!-- Node1&#45;&gt;Node37 -->
<g id="edge75" class="edge"><title>Node1&#45;&gt;Node37</title>
<path fill="none" stroke="midnightblue" d="M1083.6,-517.199C1224.83,-512.95 1558.12,-500.132 1836,-468 1837.3,-467.849 1838.62,-467.688 1839.96,-467.518"/>
<polygon fill="midnightblue" stroke="midnightblue" points="1840.87,-470.924 1850.28,-466.063 1839.89,-463.992 1840.87,-470.924"/>
</g>
<!-- Node3 -->
<g id="node3" class="node"><title>Node3</title>
<g id="a_node3"><a xlink:href="../../de/df8/Fun4AllOutputManager_8h.html" target="_top" xlink:title="Fun4AllOutputManager.h">
<polygon fill="none" stroke="black" points="746,-224.5 746,-243.5 870,-243.5 870,-224.5 746,-224.5"/>
<text text-anchor="middle" x="808" y="-231.5" font-family="FreeSans" font-size="10.00">Fun4AllOutputManager.h</text>
</a>
</g>
</g>
<!-- Node2&#45;&gt;Node3 -->
<g id="edge2" class="edge"><title>Node2&#45;&gt;Node3</title>
<path fill="none" stroke="midnightblue" d="M978.834,-280.444C943.941,-271.162 888.107,-256.309 849.829,-246.127"/>
<polygon fill="midnightblue" stroke="midnightblue" points="850.579,-242.705 840.015,-243.516 848.78,-249.47 850.579,-242.705"/>
</g>
<!-- Node2&#45;&gt;Node5 -->
<g id="edge8" class="edge"><title>Node2&#45;&gt;Node5</title>
<path fill="none" stroke="midnightblue" d="M1014.25,-280.297C1026.52,-247.494 1070.12,-130.884 1087.13,-85.3774"/>
<polygon fill="midnightblue" stroke="midnightblue" points="1090.45,-86.4762 1090.68,-75.8837 1083.9,-84.0248 1090.45,-86.4762"/>
</g>
<!-- Node4 -->
<g id="node4" class="node"><title>Node4</title>
<g id="a_node4"><a xlink:href="../../d2/de7/Fun4AllBase_8h.html" target="_top" xlink:title="Fun4AllBase.h">
<polygon fill="none" stroke="black" points="290,-112.5 290,-131.5 370,-131.5 370,-112.5 290,-112.5"/>
<text text-anchor="middle" x="330" y="-119.5" font-family="FreeSans" font-size="10.00">Fun4AllBase.h</text>
</a>
</g>
</g>
<!-- Node3&#45;&gt;Node4 -->
<g id="edge3" class="edge"><title>Node3&#45;&gt;Node4</title>
<path fill="none" stroke="midnightblue" d="M745.837,-228.103C687.168,-222.344 597.227,-210.559 522,-188 501.424,-181.83 498.097,-175.585 478,-168 442.897,-154.751 402.03,-142.561 372.145,-134.22"/>
<polygon fill="midnightblue" stroke="midnightblue" points="373.026,-130.832 362.455,-131.543 371.162,-137.579 373.026,-130.832"/>
</g>
<!-- Node3&#45;&gt;Node5 -->
<g id="edge7" class="edge"><title>Node3&#45;&gt;Node5</title>
<path fill="none" stroke="midnightblue" d="M841.567,-224.5C868.353,-216.972 906.336,-204.598 937,-188 938.889,-186.977 1033.45,-113.854 1074.89,-81.7914"/>
<polygon fill="midnightblue" stroke="midnightblue" points="1077.11,-84.5017 1082.87,-75.6136 1072.82,-78.9657 1077.11,-84.5017"/>
</g>
<!-- Node3&#45;&gt;Node7 -->
<g id="edge6" class="edge"><title>Node3&#45;&gt;Node7</title>
<path fill="none" stroke="midnightblue" d="M745.864,-226.371C680.4,-218.92 574.457,-205.537 484,-188 482.719,-187.752 481.416,-187.486 480.101,-187.208"/>
<polygon fill="midnightblue" stroke="midnightblue" points="480.53,-183.716 470.001,-184.897 478.968,-190.54 480.53,-183.716"/>
</g>
<!-- Node4&#45;&gt;Node5 -->
<g id="edge4" class="edge"><title>Node4&#45;&gt;Node5</title>
<path fill="none" stroke="midnightblue" d="M370.052,-113.243C373.073,-112.781 376.081,-112.359 379,-112 642.56,-79.6179 963.805,-69.9494 1063.21,-67.6316"/>
<polygon fill="midnightblue" stroke="midnightblue" points="1063.52,-71.1255 1073.44,-67.4011 1063.37,-64.1273 1063.52,-71.1255"/>
</g>
<!-- Node6 -->
<g id="node6" class="node"><title>Node6</title>
<polygon fill="none" stroke="#bfbfbf" points="307.5,-56.5 307.5,-75.5 352.5,-75.5 352.5,-56.5 307.5,-56.5"/>
<text text-anchor="middle" x="330" y="-63.5" font-family="FreeSans" font-size="10.00">climits</text>
</g>
<!-- Node4&#45;&gt;Node6 -->
<g id="edge5" class="edge"><title>Node4&#45;&gt;Node6</title>
<path fill="none" stroke="midnightblue" d="M330,-112.083C330,-105.006 330,-94.8611 330,-85.9865"/>
<polygon fill="midnightblue" stroke="midnightblue" points="333.5,-85.751 330,-75.7511 326.5,-85.7511 333.5,-85.751"/>
</g>
<!-- Node8&#45;&gt;Node4 -->
<g id="edge10" class="edge"><title>Node8&#45;&gt;Node4</title>
<path fill="none" stroke="midnightblue" d="M375.155,-224.368C367.176,-206.456 348.675,-164.923 337.995,-140.948"/>
<polygon fill="midnightblue" stroke="midnightblue" points="341.093,-139.302 333.827,-131.591 334.699,-142.15 341.093,-139.302"/>
</g>
<!-- Node8&#45;&gt;Node5 -->
<g id="edge22" class="edge"><title>Node8&#45;&gt;Node5</title>
<path fill="none" stroke="midnightblue" d="M422.001,-231.809C497.604,-228.942 658.86,-219.365 791,-188 860.237,-171.566 874.903,-158.363 941,-132 984.54,-114.634 1034.42,-93.1389 1065.07,-79.7448"/>
<polygon fill="midnightblue" stroke="midnightblue" points="1066.56,-82.9145 1074.31,-75.6962 1063.75,-76.5026 1066.56,-82.9145"/>
</g>
<!-- Node8&#45;&gt;Node7 -->
<g id="edge23" class="edge"><title>Node8&#45;&gt;Node7</title>
<path fill="none" stroke="midnightblue" d="M390.086,-224.324C400.486,-216.185 416.261,-203.839 428.722,-194.087"/>
<polygon fill="midnightblue" stroke="midnightblue" points="430.994,-196.753 436.712,-187.834 426.68,-191.241 430.994,-196.753"/>
</g>
<!-- Node9 -->
<g id="node9" class="node"><title>Node9</title>
<g id="a_node9"><a xlink:href="../../d0/d59/Fun4AllHistoManager_8h.html" target="_top" xlink:title="Fun4AllHistoManager.h">
<polygon fill="none" stroke="black" points="214,-168.5 214,-187.5 332,-187.5 332,-168.5 214,-168.5"/>
<text text-anchor="middle" x="273" y="-175.5" font-family="FreeSans" font-size="10.00">Fun4AllHistoManager.h</text>
</a>
</g>
</g>
<!-- Node8&#45;&gt;Node9 -->
<g id="edge11" class="edge"><title>Node8&#45;&gt;Node9</title>
<path fill="none" stroke="midnightblue" d="M361.969,-224.324C344.97,-215.664 318.624,-202.242 299.007,-192.249"/>
<polygon fill="midnightblue" stroke="midnightblue" points="300.488,-189.075 289.988,-187.655 297.31,-195.312 300.488,-189.075"/>
</g>
<!-- Node8&#45;&gt;Node10 -->
<g id="edge20" class="edge"><title>Node8&#45;&gt;Node10</title>
<path fill="none" stroke="midnightblue" d="M335.9,-227.876C289.723,-221.397 220.903,-208.539 205,-188 168.503,-140.863 127.734,-143.971 272,-56 329.456,-20.964 804.843,-12.9521 942.679,-11.3579"/>
<polygon fill="midnightblue" stroke="midnightblue" points="942.79,-14.857 952.751,-11.246 942.712,-7.85738 942.79,-14.857"/>
</g>
<!-- Node11 -->
<g id="node11" class="node"><title>Node11</title>
<polygon fill="none" stroke="#bfbfbf" points="388.5,-112.5 388.5,-131.5 423.5,-131.5 423.5,-112.5 388.5,-112.5"/>
<text text-anchor="middle" x="406" y="-119.5" font-family="FreeSans" font-size="10.00">map</text>
</g>
<!-- Node8&#45;&gt;Node11 -->
<g id="edge21" class="edge"><title>Node8&#45;&gt;Node11</title>
<path fill="none" stroke="midnightblue" d="M381.119,-224.368C385.476,-206.617 395.527,-165.666 401.435,-141.597"/>
<polygon fill="midnightblue" stroke="midnightblue" points="404.906,-142.137 403.891,-131.591 398.108,-140.469 404.906,-142.137"/>
</g>
<!-- Node12 -->
<g id="node12" class="node"><title>Node12</title>
<g id="a_node12"><a xlink:href="../../dc/d26/PHTimer_8h.html" target="_top" xlink:title="high precision timer ">
<polygon fill="none" stroke="black" points="59.5,-168.5 59.5,-187.5 148.5,-187.5 148.5,-168.5 59.5,-168.5"/>
<text text-anchor="middle" x="104" y="-175.5" font-family="FreeSans" font-size="10.00">phool/PHTimer.h</text>
</a>
</g>
</g>
<!-- Node8&#45;&gt;Node12 -->
<g id="edge16" class="edge"><title>Node8&#45;&gt;Node12</title>
<path fill="none" stroke="midnightblue" d="M335.729,-224.503C287.515,-215.036 209.52,-199.72 157.511,-189.508"/>
<polygon fill="midnightblue" stroke="midnightblue" points="157.96,-186.029 147.473,-187.536 156.611,-192.898 157.96,-186.029"/>
</g>
<!-- Node9&#45;&gt;Node4 -->
<g id="edge12" class="edge"><title>Node9&#45;&gt;Node4</title>
<path fill="none" stroke="midnightblue" d="M282.158,-168.324C290.501,-160.42 303.032,-148.548 313.177,-138.938"/>
<polygon fill="midnightblue" stroke="midnightblue" points="315.823,-141.252 320.675,-131.834 311.009,-136.171 315.823,-141.252"/>
</g>
<!-- Node9&#45;&gt;Node5 -->
<g id="edge15" class="edge"><title>Node9&#45;&gt;Node5</title>
<path fill="none" stroke="midnightblue" d="M271.002,-168.318C268.329,-154.212 265.552,-126.443 281,-112 310.088,-84.8032 917.999,-70.617 1063.1,-67.6108"/>
<polygon fill="midnightblue" stroke="midnightblue" points="1063.18,-71.1099 1073.11,-67.4061 1063.04,-64.1114 1063.18,-71.1099"/>
</g>
<!-- Node9&#45;&gt;Node10 -->
<g id="edge13" class="edge"><title>Node9&#45;&gt;Node10</title>
<path fill="none" stroke="midnightblue" d="M271.509,-168.407C270.024,-159.376 267.846,-144.74 267,-132 264.584,-95.6004 267.2,-75.5488 298,-56 352.563,-21.3684 808.142,-13.0909 942.712,-11.3929"/>
<polygon fill="midnightblue" stroke="midnightblue" points="942.968,-14.8902 952.925,-11.2691 942.883,-7.8907 942.968,-14.8902"/>
</g>
<!-- Node9&#45;&gt;Node11 -->
<g id="edge14" class="edge"><title>Node9&#45;&gt;Node11</title>
<path fill="none" stroke="midnightblue" d="M294.074,-168.444C317.094,-159.097 354.026,-144.102 379.117,-133.915"/>
<polygon fill="midnightblue" stroke="midnightblue" points="380.474,-137.142 388.422,-130.137 377.84,-130.656 380.474,-137.142"/>
</g>
<!-- Node12&#45;&gt;Node10 -->
<g id="edge17" class="edge"><title>Node12&#45;&gt;Node10</title>
<path fill="none" stroke="midnightblue" d="M108.835,-168.332C124.258,-140.694 171.316,-56.4261 172,-56 237.939,-14.915 793.141,-11.2327 942.904,-10.9909"/>
<polygon fill="midnightblue" stroke="midnightblue" points="942.979,-14.4909 952.974,-10.979 942.97,-7.49092 942.979,-14.4909"/>
</g>
<!-- Node13 -->
<g id="node13" class="node"><title>Node13</title>
<polygon fill="none" stroke="#bfbfbf" points="0,-112.5 0,-131.5 52,-131.5 52,-112.5 0,-112.5"/>
<text text-anchor="middle" x="26" y="-119.5" font-family="FreeSans" font-size="10.00">sstream</text>
</g>
<!-- Node12&#45;&gt;Node13 -->
<g id="edge18" class="edge"><title>Node12&#45;&gt;Node13</title>
<path fill="none" stroke="midnightblue" d="M91.468,-168.324C79.4141,-159.979 60.9732,-147.212 46.7313,-137.352"/>
<polygon fill="midnightblue" stroke="midnightblue" points="48.7151,-134.469 38.5009,-131.655 44.7306,-140.224 48.7151,-134.469"/>
</g>
<!-- Node14 -->
<g id="node14" class="node"><title>Node14</title>
<polygon fill="none" stroke="#bfbfbf" points="70,-112.5 70,-131.5 120,-131.5 120,-112.5 70,-112.5"/>
<text text-anchor="middle" x="95" y="-119.5" font-family="FreeSans" font-size="10.00">unistd.h</text>
</g>
<!-- Node12&#45;&gt;Node14 -->
<g id="edge19" class="edge"><title>Node12&#45;&gt;Node14</title>
<path fill="none" stroke="midnightblue" d="M102.514,-168.083C101.321,-160.927 99.6059,-150.635 98.1152,-141.691"/>
<polygon fill="midnightblue" stroke="midnightblue" points="101.555,-141.04 96.4585,-131.751 94.6502,-142.19 101.555,-141.04"/>
</g>
<!-- Node15&#45;&gt;Node4 -->
<g id="edge25" class="edge"><title>Node15&#45;&gt;Node4</title>
<path fill="none" stroke="midnightblue" d="M653.189,-169.368C587.062,-161.361 481.238,-147.943 380.163,-132.119"/>
<polygon fill="midnightblue" stroke="midnightblue" points="380.507,-128.63 370.084,-130.53 379.417,-135.544 380.507,-128.63"/>
</g>
<!-- Node15&#45;&gt;Node5 -->
<g id="edge31" class="edge"><title>Node15&#45;&gt;Node5</title>
<path fill="none" stroke="midnightblue" d="M729.802,-168.437C751.99,-152.492 799.363,-119.207 818,-112 902.549,-79.304 1010.59,-70.3638 1062.88,-67.9195"/>
<polygon fill="midnightblue" stroke="midnightblue" points="1063.31,-71.4044 1073.16,-67.4904 1063.02,-64.4105 1063.31,-71.4044"/>
</g>
<!-- Node15&#45;&gt;Node11 -->
<g id="edge29" class="edge"><title>Node15&#45;&gt;Node11</title>
<path fill="none" stroke="midnightblue" d="M668.563,-168.444C602.172,-156.953 486.456,-136.925 433.671,-127.789"/>
<polygon fill="midnightblue" stroke="midnightblue" points="434.144,-124.319 423.694,-126.062 432.951,-131.217 434.144,-124.319"/>
</g>
<!-- Node16 -->
<g id="node16" class="node"><title>Node16</title>
<polygon fill="none" stroke="#bfbfbf" points="827,-112.5 827,-131.5 933,-131.5 933,-112.5 827,-112.5"/>
<text text-anchor="middle" x="880" y="-119.5" font-family="FreeSans" font-size="10.00">Event/phenixTypes.h</text>
</g>
<!-- Node15&#45;&gt;Node16 -->
<g id="edge26" class="edge"><title>Node15&#45;&gt;Node16</title>
<path fill="none" stroke="midnightblue" d="M743.669,-168.444C770.923,-159.359 814.184,-144.939 844.651,-134.783"/>
<polygon fill="midnightblue" stroke="midnightblue" points="846.071,-137.999 854.451,-131.516 843.857,-131.358 846.071,-137.999"/>
</g>
<!-- Node17 -->
<g id="node17" class="node"><title>Node17</title>
<polygon fill="none" stroke="#bfbfbf" points="480.5,-112.5 480.5,-131.5 573.5,-131.5 573.5,-112.5 480.5,-112.5"/>
<text text-anchor="middle" x="527" y="-119.5" font-family="FreeSans" font-size="10.00">boost/version.hpp</text>
</g>
<!-- Node15&#45;&gt;Node17 -->
<g id="edge27" class="edge"><title>Node15&#45;&gt;Node17</title>
<path fill="none" stroke="midnightblue" d="M687.735,-168.444C655.045,-159.201 602.818,-144.436 566.817,-134.257"/>
<polygon fill="midnightblue" stroke="midnightblue" points="567.698,-130.869 557.123,-131.516 565.794,-137.605 567.698,-130.869"/>
</g>
<!-- Node18 -->
<g id="node18" class="node"><title>Node18</title>
<polygon fill="none" stroke="#bfbfbf" points="591.5,-112.5 591.5,-131.5 722.5,-131.5 722.5,-112.5 591.5,-112.5"/>
<text text-anchor="middle" x="657" y="-119.5" font-family="FreeSans" font-size="10.00">boost/numeric/interval.hpp</text>
</g>
<!-- Node15&#45;&gt;Node18 -->
<g id="edge28" class="edge"><title>Node15&#45;&gt;Node18</title>
<path fill="none" stroke="midnightblue" d="M708.199,-168.324C699.182,-160.341 685.594,-148.313 674.682,-138.653"/>
<polygon fill="midnightblue" stroke="midnightblue" points="676.787,-135.842 666.979,-131.834 672.147,-141.083 676.787,-135.842"/>
</g>
<!-- Node19 -->
<g id="node19" class="node"><title>Node19</title>
<polygon fill="none" stroke="#bfbfbf" points="741,-112.5 741,-131.5 771,-131.5 771,-112.5 741,-112.5"/>
<text text-anchor="middle" x="756" y="-119.5" font-family="FreeSans" font-size="10.00">set</text>
</g>
<!-- Node15&#45;&gt;Node19 -->
<g id="edge30" class="edge"><title>Node15&#45;&gt;Node19</title>
<path fill="none" stroke="midnightblue" d="M724.275,-168.083C729.642,-160.455 737.518,-149.264 744.079,-139.941"/>
<polygon fill="midnightblue" stroke="midnightblue" points="746.949,-141.943 749.842,-131.751 741.225,-137.915 746.949,-141.943"/>
</g>
<!-- Node21 -->
<g id="node21" class="node"><title>Node21</title>
<g id="a_node21"><a xlink:href="../../df/d18/Fun4AllFileOutStream_8h.html" target="_top" xlink:title="Fun4AllFileOutStream.h">
<polygon fill="none" stroke="black" points="888,-224.5 888,-243.5 1008,-243.5 1008,-224.5 888,-224.5"/>
<text text-anchor="middle" x="948" y="-231.5" font-family="FreeSans" font-size="10.00">Fun4AllFileOutStream.h</text>
</a>
</g>
</g>
<!-- Node20&#45;&gt;Node21 -->
<g id="edge33" class="edge"><title>Node20&#45;&gt;Node21</title>
<path fill="none" stroke="midnightblue" d="M909.433,-392.305C910.621,-372.158 914.705,-320.88 927,-280 929.824,-270.609 934.285,-260.679 938.37,-252.543"/>
<polygon fill="midnightblue" stroke="midnightblue" points="941.481,-254.146 943.032,-243.665 935.284,-250.892 941.481,-254.146"/>
</g>
<!-- Node21&#45;&gt;Node5 -->
<g id="edge36" class="edge"><title>Node21&#45;&gt;Node5</title>
<path fill="none" stroke="midnightblue" d="M955.85,-224.075C979.329,-197.38 1049.26,-117.865 1079.64,-83.3218"/>
<polygon fill="midnightblue" stroke="midnightblue" points="1082.49,-85.3886 1086.46,-75.5681 1077.23,-80.7656 1082.49,-85.3886"/>
</g>
<!-- Node21&#45;&gt;Node10 -->
<g id="edge37" class="edge"><title>Node21&#45;&gt;Node10</title>
<path fill="none" stroke="midnightblue" d="M887.66,-224.617C805.834,-213.165 667.182,-193.428 644,-188 604.656,-178.788 494.77,-164.678 471,-132 465.771,-124.812 465.359,-118.87 471,-112 531.099,-38.8041 835.806,-17.7122 942.798,-12.5111"/>
<polygon fill="midnightblue" stroke="midnightblue" points="942.987,-16.0062 952.812,-12.043 942.66,-9.01383 942.987,-16.0062"/>
</g>
<!-- Node21&#45;&gt;Node15 -->
<g id="edge34" class="edge"><title>Node21&#45;&gt;Node15</title>
<path fill="none" stroke="midnightblue" d="M911.556,-224.444C871.601,-215.063 807.413,-199.993 764.015,-189.804"/>
<polygon fill="midnightblue" stroke="midnightblue" points="764.809,-186.395 754.274,-187.516 763.209,-193.21 764.809,-186.395"/>
</g>
<!-- Node21&#45;&gt;Node16 -->
<g id="edge35" class="edge"><title>Node21&#45;&gt;Node16</title>
<path fill="none" stroke="midnightblue" d="M942.664,-224.368C931.492,-206.296 905.455,-164.176 890.699,-140.307"/>
<polygon fill="midnightblue" stroke="midnightblue" points="893.546,-138.257 885.311,-131.591 887.592,-141.938 893.546,-138.257"/>
</g>
<!-- Node22&#45;&gt;Node5 -->
<g id="edge74" class="edge"><title>Node22&#45;&gt;Node5</title>
<path fill="none" stroke="midnightblue" d="M1609.19,-448.268C1611.65,-426.677 1614.94,-370.071 1588,-336 1562.3,-303.498 1530.64,-329.947 1502,-300 1440.49,-235.673 1502.46,-167.654 1433,-112 1385.86,-74.2279 1199.46,-68.0719 1124.98,-67.1356"/>
<polygon fill="midnightblue" stroke="midnightblue" points="1124.87,-63.6344 1114.84,-67.0322 1124.8,-70.634 1124.87,-63.6344"/>
</g>
<!-- Node23 -->
<g id="node23" class="node"><title>Node23</title>
<g id="a_node23"><a xlink:href="../../d8/dfd/PHNodeIterator_8h.html" target="_top" xlink:title="PHNodeIterator.h">
<polygon fill="none" stroke="black" points="1511,-280.5 1511,-299.5 1603,-299.5 1603,-280.5 1511,-280.5"/>
<text text-anchor="middle" x="1557" y="-287.5" font-family="FreeSans" font-size="10.00">PHNodeIterator.h</text>
</a>
</g>
</g>
<!-- Node22&#45;&gt;Node23 -->
<g id="edge39" class="edge"><title>Node22&#45;&gt;Node23</title>
<path fill="none" stroke="midnightblue" d="M1612.11,-448.478C1621.45,-427.83 1641.92,-374.025 1622,-336 1614.72,-322.108 1600.99,-311.652 1588.02,-304.333"/>
<polygon fill="midnightblue" stroke="midnightblue" points="1589.3,-301.053 1578.81,-299.553 1586.07,-307.266 1589.3,-301.053"/>
</g>
<!-- Node26 -->
<g id="node26" class="node"><title>Node26</title>
<g id="a_node26"><a xlink:href="../../d3/d62/PHNode_8h.html" target="_top" xlink:title="PHNode.h">
<polygon fill="none" stroke="black" points="1635,-112.5 1635,-131.5 1697,-131.5 1697,-112.5 1635,-112.5"/>
<text text-anchor="middle" x="1666" y="-119.5" font-family="FreeSans" font-size="10.00">PHNode.h</text>
</a>
</g>
</g>
<!-- Node22&#45;&gt;Node26 -->
<g id="edge72" class="edge"><title>Node22&#45;&gt;Node26</title>
<path fill="none" stroke="midnightblue" d="M1652.87,-449.156C1705.01,-437.162 1784,-408.796 1784,-347 1784,-347 1784,-347 1784,-233 1784,-185.512 1732.23,-152.674 1697.28,-135.912"/>
<polygon fill="midnightblue" stroke="midnightblue" points="1698.47,-132.608 1687.92,-131.612 1695.54,-138.968 1698.47,-132.608"/>
</g>
<!-- Node29 -->
<g id="node29" class="node"><title>Node29</title>
<g id="a_node29"><a xlink:href="../../d3/d79/PHIODataNode_8h.html" target="_top" xlink:title="PHIODataNode.h">
<polygon fill="none" stroke="black" points="1353,-392.5 1353,-411.5 1445,-411.5 1445,-392.5 1353,-392.5"/>
<text text-anchor="middle" x="1399" y="-399.5" font-family="FreeSans" font-size="10.00">PHIODataNode.h</text>
</a>
</g>
</g>
<!-- Node22&#45;&gt;Node29 -->
<g id="edge53" class="edge"><title>Node22&#45;&gt;Node29</title>
<path fill="none" stroke="midnightblue" d="M1574.88,-448.444C1538.88,-439.142 1481.23,-424.246 1441.81,-414.062"/>
<polygon fill="midnightblue" stroke="midnightblue" points="1442.52,-410.629 1431.96,-411.516 1440.77,-417.407 1442.52,-410.629"/>
</g>
<!-- Node30 -->
<g id="node30" class="node"><title>Node30</title>
<g id="a_node30"><a xlink:href="../../dd/d9b/PHDataNode_8h.html" target="_top" xlink:title="PHDataNode.h">
<polygon fill="none" stroke="black" points="1674,-336.5 1674,-355.5 1756,-355.5 1756,-336.5 1674,-336.5"/>
<text text-anchor="middle" x="1715" y="-343.5" font-family="FreeSans" font-size="10.00">PHDataNode.h</text>
</a>
</g>
</g>
<!-- Node22&#45;&gt;Node30 -->
<g id="edge71" class="edge"><title>Node22&#45;&gt;Node30</title>
<path fill="none" stroke="midnightblue" d="M1618.79,-448.492C1629.61,-439.765 1646.57,-425.582 1660,-412 1675.35,-396.48 1691.29,-377.24 1702.03,-363.733"/>
<polygon fill="midnightblue" stroke="midnightblue" points="1704.85,-365.807 1708.28,-355.783 1699.35,-361.481 1704.85,-365.807"/>
</g>
<!-- Node36 -->
<g id="node36" class="node"><title>Node36</title>
<polygon fill="none" stroke="#bfbfbf" points="1520.5,-336.5 1520.5,-355.5 1579.5,-355.5 1579.5,-336.5 1520.5,-336.5"/>
<text text-anchor="middle" x="1550" y="-343.5" font-family="FreeSans" font-size="10.00">TObject.h</text>
</g>
<!-- Node22&#45;&gt;Node36 -->
<g id="edge73" class="edge"><title>Node22&#45;&gt;Node36</title>
<path fill="none" stroke="midnightblue" d="M1603.45,-448.368C1593.96,-430.376 1571.91,-388.55 1559.29,-364.627"/>
<polygon fill="midnightblue" stroke="midnightblue" points="1562.29,-362.805 1554.53,-355.591 1556.1,-366.07 1562.29,-362.805"/>
</g>
<!-- Node24 -->
<g id="node24" class="node"><title>Node24</title>
<g id="a_node24"><a xlink:href="../../d5/d6f/phool_8h.html" target="_top" xlink:title="phool.h">
<polygon fill="none" stroke="black" points="1485.5,-56.5 1485.5,-75.5 1532.5,-75.5 1532.5,-56.5 1485.5,-56.5"/>
<text text-anchor="middle" x="1509" y="-63.5" font-family="FreeSans" font-size="10.00">phool.h</text>
</a>
</g>
</g>
<!-- Node23&#45;&gt;Node24 -->
<g id="edge40" class="edge"><title>Node23&#45;&gt;Node24</title>
<path fill="none" stroke="midnightblue" d="M1553.73,-280.312C1545.06,-256.823 1521.5,-189.919 1512,-132 1509.48,-116.653 1508.8,-99.0139 1508.72,-85.9867"/>
<polygon fill="midnightblue" stroke="midnightblue" points="1512.22,-85.9141 1508.76,-75.8993 1505.22,-85.8844 1512.22,-85.9141"/>
</g>
<!-- Node25 -->
<g id="node25" class="node"><title>Node25</title>
<g id="a_node25"><a xlink:href="../../d8/d30/PHCompositeNode_8h.html" target="_top" xlink:title="PHCompositeNode.h">
<polygon fill="none" stroke="black" points="1564,-224.5 1564,-243.5 1672,-243.5 1672,-224.5 1564,-224.5"/>
<text text-anchor="middle" x="1618" y="-231.5" font-family="FreeSans" font-size="10.00">PHCompositeNode.h</text>
</a>
</g>
</g>
<!-- Node23&#45;&gt;Node25 -->
<g id="edge42" class="edge"><title>Node23&#45;&gt;Node25</title>
<path fill="none" stroke="midnightblue" d="M1566.8,-280.324C1575.82,-272.341 1589.41,-260.313 1600.32,-250.653"/>
<polygon fill="midnightblue" stroke="midnightblue" points="1602.85,-253.083 1608.02,-243.834 1598.21,-247.842 1602.85,-253.083"/>
</g>
<!-- Node28 -->
<g id="node28" class="node"><title>Node28</title>
<g id="a_node28"><a xlink:href="../../db/dd5/PHPointerList_8h.html" target="_top" xlink:title="PHPointerList.h">
<polygon fill="none" stroke="black" points="1556,-168.5 1556,-187.5 1642,-187.5 1642,-168.5 1556,-168.5"/>
<text text-anchor="middle" x="1599" y="-175.5" font-family="FreeSans" font-size="10.00">PHPointerList.h</text>
</a>
</g>
</g>
<!-- Node23&#45;&gt;Node28 -->
<g id="edge52" class="edge"><title>Node23&#45;&gt;Node28</title>
<path fill="none" stroke="midnightblue" d="M1554.55,-280.191C1551.43,-267.309 1547.33,-242.819 1555,-224 1559.8,-212.225 1569.33,-201.856 1578.29,-194.049"/>
<polygon fill="midnightblue" stroke="midnightblue" points="1580.65,-196.645 1586.22,-187.631 1576.25,-191.205 1580.65,-196.645"/>
</g>
<!-- Node24&#45;&gt;Node10 -->
<g id="edge41" class="edge"><title>Node24&#45;&gt;Node10</title>
<path fill="none" stroke="midnightblue" d="M1485.24,-62.5748C1401.46,-54.0221 1119.32,-25.2221 1017.25,-14.8026"/>
<polygon fill="midnightblue" stroke="midnightblue" points="1017.41,-11.3009 1007.11,-13.7672 1016.7,-18.2647 1017.41,-11.3009"/>
</g>
<!-- Node25&#45;&gt;Node24 -->
<g id="edge43" class="edge"><title>Node25&#45;&gt;Node24</title>
<path fill="none" stroke="midnightblue" d="M1596.8,-224.42C1580.96,-216.988 1559.89,-204.78 1547,-188 1523.27,-157.111 1514.19,-111.131 1510.84,-85.668"/>
<polygon fill="midnightblue" stroke="midnightblue" points="1514.3,-85.0745 1509.68,-75.5402 1507.35,-85.8748 1514.3,-85.0745"/>
</g>
<!-- Node25&#45;&gt;Node26 -->
<g id="edge44" class="edge"><title>Node25&#45;&gt;Node26</title>
<path fill="none" stroke="midnightblue" d="M1626,-224.383C1633.55,-215.795 1644.62,-201.915 1651,-188 1657.79,-173.195 1661.64,-155.041 1663.74,-141.686"/>
<polygon fill="midnightblue" stroke="midnightblue" points="1667.21,-142.16 1665.12,-131.774 1660.27,-141.199 1667.21,-142.16"/>
</g>
<!-- Node25&#45;&gt;Node28 -->
<g id="edge48" class="edge"><title>Node25&#45;&gt;Node28</title>
<path fill="none" stroke="midnightblue" d="M1614.86,-224.083C1612.32,-216.849 1608.64,-206.409 1605.47,-197.397"/>
<polygon fill="midnightblue" stroke="midnightblue" points="1608.7,-196.023 1602.08,-187.751 1602.1,-198.346 1608.7,-196.023"/>
</g>
<!-- Node26&#45;&gt;Node5 -->
<g id="edge47" class="edge"><title>Node26&#45;&gt;Node5</title>
<path fill="none" stroke="midnightblue" d="M1634.84,-118.058C1534.97,-108.63 1223.6,-79.2347 1124.57,-69.8857"/>
<polygon fill="midnightblue" stroke="midnightblue" points="1124.89,-66.401 1114.61,-68.9455 1124.24,-73.37 1124.89,-66.401"/>
</g>
<!-- Node26&#45;&gt;Node24 -->
<g id="edge45" class="edge"><title>Node26&#45;&gt;Node24</title>
<path fill="none" stroke="midnightblue" d="M1641.12,-112.444C1614.4,-103.252 1571.8,-88.5987 1542.22,-78.4265"/>
<polygon fill="midnightblue" stroke="midnightblue" points="1543.33,-75.1058 1532.73,-75.1629 1541.05,-81.7252 1543.33,-75.1058"/>
</g>
<!-- Node27 -->
<g id="node27" class="node"><title>Node27</title>
<polygon fill="none" stroke="#bfbfbf" points="1643.5,-56.5 1643.5,-75.5 1688.5,-75.5 1688.5,-56.5 1643.5,-56.5"/>
<text text-anchor="middle" x="1666" y="-63.5" font-family="FreeSans" font-size="10.00">iosfwd</text>
</g>
<!-- Node26&#45;&gt;Node27 -->
<g id="edge46" class="edge"><title>Node26&#45;&gt;Node27</title>
<path fill="none" stroke="midnightblue" d="M1666,-112.083C1666,-105.006 1666,-94.8611 1666,-85.9865"/>
<polygon fill="midnightblue" stroke="midnightblue" points="1669.5,-85.751 1666,-75.7511 1662.5,-85.7511 1669.5,-85.751"/>
</g>
<!-- Node28&#45;&gt;Node10 -->
<g id="edge51" class="edge"><title>Node28&#45;&gt;Node10</title>
<path fill="none" stroke="midnightblue" d="M1597.81,-168.394C1594.15,-145.548 1580.78,-83.2595 1541,-56 1497.92,-26.4777 1135.52,-14.8802 1017.2,-11.8587"/>
<polygon fill="midnightblue" stroke="midnightblue" points="1017.25,-8.35904 1007.17,-11.6083 1017.08,-15.3569 1017.25,-8.35904"/>
</g>
<!-- Node28&#45;&gt;Node24 -->
<g id="edge49" class="edge"><title>Node28&#45;&gt;Node24</title>
<path fill="none" stroke="midnightblue" d="M1591.94,-168.368C1576.95,-150.055 1541.77,-107.049 1522.39,-83.3624"/>
<polygon fill="midnightblue" stroke="midnightblue" points="1525.07,-81.1147 1516.03,-75.5914 1519.65,-85.5474 1525.07,-81.1147"/>
</g>
<!-- Node28&#45;&gt;Node26 -->
<g id="edge50" class="edge"><title>Node28&#45;&gt;Node26</title>
<path fill="none" stroke="midnightblue" d="M1609.76,-168.324C1619.77,-160.263 1634.89,-148.077 1646.93,-138.369"/>
<polygon fill="midnightblue" stroke="midnightblue" points="1649.45,-140.834 1655.04,-131.834 1645.06,-135.384 1649.45,-140.834"/>
</g>
<!-- Node29&#45;&gt;Node5 -->
<g id="edge70" class="edge"><title>Node29&#45;&gt;Node5</title>
<path fill="none" stroke="midnightblue" d="M1386.19,-392.388C1363.12,-375.742 1317,-336.734 1317,-291 1317,-291 1317,-291 1317,-233 1317,-167.279 1286.47,-148.776 1232,-112 1199.08,-89.7703 1154.37,-77.8544 1124.88,-71.9795"/>
<polygon fill="midnightblue" stroke="midnightblue" points="1125.23,-68.4836 1114.75,-70.0805 1123.94,-75.3636 1125.23,-68.4836"/>
</g>
<!-- Node29&#45;&gt;Node30 -->
<g id="edge54" class="edge"><title>Node29&#45;&gt;Node30</title>
<path fill="none" stroke="midnightblue" d="M1445.29,-393.09C1503.47,-383.148 1603.01,-366.137 1663.53,-355.795"/>
<polygon fill="midnightblue" stroke="midnightblue" points="1664.36,-359.205 1673.63,-354.07 1663.18,-352.305 1664.36,-359.205"/>
</g>
<!-- Node31 -->
<g id="node31" class="node"><title>Node31</title>
<g id="a_node31"><a xlink:href="../../d9/d53/PHIOManager_8h.html" target="_top" xlink:title="PHIOManager.h">
<polygon fill="none" stroke="black" points="1338,-112.5 1338,-131.5 1424,-131.5 1424,-112.5 1338,-112.5"/>
<text text-anchor="middle" x="1381" y="-119.5" font-family="FreeSans" font-size="10.00">PHIOManager.h</text>
</a>
</g>
</g>
<!-- Node29&#45;&gt;Node31 -->
<g id="edge57" class="edge"><title>Node29&#45;&gt;Node31</title>
<path fill="none" stroke="midnightblue" d="M1392.88,-392.349C1380.79,-374.377 1355,-331.314 1355,-291 1355,-291 1355,-291 1355,-233 1355,-199.929 1366.27,-162.729 1373.97,-141.168"/>
<polygon fill="midnightblue" stroke="midnightblue" points="1377.29,-142.268 1377.49,-131.675 1370.73,-139.831 1377.29,-142.268"/>
</g>
<!-- Node32 -->
<g id="node32" class="node"><title>Node32</title>
<g id="a_node32"><a xlink:href="../../dd/de7/PHNodeIOManager_8h.html" target="_top" xlink:title="PHNodeIOManager.h">
<polygon fill="none" stroke="black" points="1141,-168.5 1141,-187.5 1251,-187.5 1251,-168.5 1141,-168.5"/>
<text text-anchor="middle" x="1196" y="-175.5" font-family="FreeSans" font-size="10.00">PHNodeIOManager.h</text>
</a>
</g>
</g>
<!-- Node29&#45;&gt;Node32 -->
<g id="edge60" class="edge"><title>Node29&#45;&gt;Node32</title>
<path fill="none" stroke="midnightblue" d="M1352.72,-395.836C1304.02,-389.388 1231.97,-376.622 1214,-356 1174.82,-311.032 1184.5,-233.195 1191.63,-197.661"/>
<polygon fill="midnightblue" stroke="midnightblue" points="1195.09,-198.22 1193.79,-187.705 1188.25,-196.737 1195.09,-198.22"/>
</g>
<!-- Node33 -->
<g id="node33" class="node"><title>Node33</title>
<g id="a_node33"><a xlink:href="../../db/d17/PHTypedNodeIterator_8h.html" target="_top" xlink:title="PHTypedNodeIterator.h">
<polygon fill="none" stroke="black" points="1383.5,-336.5 1383.5,-355.5 1502.5,-355.5 1502.5,-336.5 1383.5,-336.5"/>
<text text-anchor="middle" x="1443" y="-343.5" font-family="FreeSans" font-size="10.00">PHTypedNodeIterator.h</text>
</a>
</g>
</g>
<!-- Node29&#45;&gt;Node33 -->
<g id="edge64" class="edge"><title>Node29&#45;&gt;Node33</title>
<path fill="none" stroke="midnightblue" d="M1406.27,-392.083C1412.54,-384.377 1421.79,-373.033 1429.43,-363.653"/>
<polygon fill="midnightblue" stroke="midnightblue" points="1432.27,-365.714 1435.87,-355.751 1426.84,-361.293 1432.27,-365.714"/>
</g>
<!-- Node35 -->
<g id="node35" class="node"><title>Node35</title>
<g id="a_node35"><a xlink:href="../../de/da7/phooldefs_8h.html" target="_top" xlink:title="phooldefs.h">
<polygon fill="none" stroke="black" points="1223,-336.5 1223,-355.5 1289,-355.5 1289,-336.5 1223,-336.5"/>
<text text-anchor="middle" x="1256" y="-343.5" font-family="FreeSans" font-size="10.00">phooldefs.h</text>
</a>
</g>
</g>
<!-- Node29&#45;&gt;Node35 -->
<g id="edge67" class="edge"><title>Node29&#45;&gt;Node35</title>
<path fill="none" stroke="midnightblue" d="M1376.34,-392.444C1352.6,-383.478 1315.09,-369.314 1288.26,-359.183"/>
<polygon fill="midnightblue" stroke="midnightblue" points="1289.14,-355.775 1278.55,-355.516 1286.67,-362.324 1289.14,-355.775"/>
</g>
<!-- Node29&#45;&gt;Node36 -->
<g id="edge69" class="edge"><title>Node29&#45;&gt;Node36</title>
<path fill="none" stroke="midnightblue" d="M1422.93,-392.444C1448.22,-383.399 1488.3,-369.064 1516.68,-358.916"/>
<polygon fill="midnightblue" stroke="midnightblue" points="1517.95,-362.179 1526.19,-355.516 1515.59,-355.588 1517.95,-362.179"/>
</g>
<!-- Node30&#45;&gt;Node10 -->
<g id="edge56" class="edge"><title>Node30&#45;&gt;Node10</title>
<path fill="none" stroke="midnightblue" d="M1719.18,-336.393C1727.64,-318.156 1746,-274.087 1746,-235 1746,-235 1746,-235 1746,-121 1746,-84.8221 1728.86,-73.1461 1697,-56 1636.92,-23.666 1155.78,-13.7309 1017.21,-11.5262"/>
<polygon fill="midnightblue" stroke="midnightblue" points="1017.15,-8.02486 1007.1,-11.3694 1017.04,-15.024 1017.15,-8.02486"/>
</g>
<!-- Node30&#45;&gt;Node26 -->
<g id="edge55" class="edge"><title>Node30&#45;&gt;Node26</title>
<path fill="none" stroke="midnightblue" d="M1713.08,-336.297C1705.85,-303.563 1680.21,-187.375 1670.12,-141.666"/>
<polygon fill="midnightblue" stroke="midnightblue" points="1673.53,-140.894 1667.96,-131.884 1666.7,-142.403 1673.53,-140.894"/>
</g>
<!-- Node31&#45;&gt;Node5 -->
<g id="edge59" class="edge"><title>Node31&#45;&gt;Node5</title>
<path fill="none" stroke="midnightblue" d="M1337.72,-112.857C1279.1,-101.827 1175.9,-82.4099 1124.66,-72.7681"/>
<polygon fill="midnightblue" stroke="midnightblue" points="1125.02,-69.275 1114.54,-70.8655 1123.72,-76.1543 1125.02,-69.275"/>
</g>
<!-- Node31&#45;&gt;Node24 -->
<g id="edge58" class="edge"><title>Node31&#45;&gt;Node24</title>
<path fill="none" stroke="midnightblue" d="M1401.28,-112.444C1422.35,-103.557 1455.52,-89.5632 1479.49,-79.4514"/>
<polygon fill="midnightblue" stroke="midnightblue" points="1480.96,-82.6283 1488.81,-75.5164 1478.24,-76.1787 1480.96,-82.6283"/>
</g>
<!-- Node32&#45;&gt;Node5 -->
<g id="edge62" class="edge"><title>Node32&#45;&gt;Node5</title>
<path fill="none" stroke="midnightblue" d="M1188,-168.368C1170.94,-149.974 1130.79,-106.671 1108.88,-83.0519"/>
<polygon fill="midnightblue" stroke="midnightblue" points="1111.33,-80.5443 1101.97,-75.5914 1106.2,-85.3039 1111.33,-80.5443"/>
</g>
<!-- Node32&#45;&gt;Node11 -->
<g id="edge63" class="edge"><title>Node32&#45;&gt;Node11</title>
<path fill="none" stroke="midnightblue" d="M1140.86,-175.001C1019.54,-170.292 720.397,-156.97 471,-132 458.676,-130.766 445.096,-128.957 433.55,-127.284"/>
<polygon fill="midnightblue" stroke="midnightblue" points="434.019,-123.815 423.613,-125.806 432.989,-130.739 434.019,-123.815"/>
</g>
<!-- Node32&#45;&gt;Node31 -->
<g id="edge61" class="edge"><title>Node32&#45;&gt;Node31</title>
<path fill="none" stroke="midnightblue" d="M1225.31,-168.444C1256.84,-159.241 1307.13,-144.562 1341.99,-134.388"/>
<polygon fill="midnightblue" stroke="midnightblue" points="1343.2,-137.678 1351.82,-131.516 1341.24,-130.959 1343.2,-137.678"/>
</g>
<!-- Node33&#45;&gt;Node23 -->
<g id="edge65" class="edge"><title>Node33&#45;&gt;Node23</title>
<path fill="none" stroke="midnightblue" d="M1461.06,-336.444C1479.57,-327.675 1508.58,-313.935 1529.86,-303.858"/>
<polygon fill="midnightblue" stroke="midnightblue" points="1531.48,-306.96 1539.02,-299.516 1528.49,-300.634 1531.48,-306.96"/>
</g>
<!-- Node34 -->
<g id="node34" class="node"><title>Node34</title>
<polygon fill="none" stroke="#bfbfbf" points="1405.5,-280.5 1405.5,-299.5 1454.5,-299.5 1454.5,-280.5 1405.5,-280.5"/>
<text text-anchor="middle" x="1430" y="-287.5" font-family="FreeSans" font-size="10.00">cstddef</text>
</g>
<!-- Node33&#45;&gt;Node34 -->
<g id="edge66" class="edge"><title>Node33&#45;&gt;Node34</title>
<path fill="none" stroke="midnightblue" d="M1440.85,-336.083C1439.13,-328.927 1436.65,-318.635 1434.5,-309.691"/>
<polygon fill="midnightblue" stroke="midnightblue" points="1437.85,-308.654 1432.11,-299.751 1431.04,-310.293 1437.85,-308.654"/>
</g>
<!-- Node35&#45;&gt;Node5 -->
<g id="edge68" class="edge"><title>Node35&#45;&gt;Node5</title>
<path fill="none" stroke="midnightblue" d="M1259.14,-336.145C1268.23,-308.911 1291.93,-224.803 1260,-168 1230.96,-116.33 1163.58,-88.0089 1124.18,-75.326"/>
<polygon fill="midnightblue" stroke="midnightblue" points="1125.15,-71.9644 1114.56,-72.3643 1123.09,-78.654 1125.15,-71.9644"/>
</g>
</g>
</svg>
