<?xml version="1.0" encoding="UTF-8" standalone="no"?>
<!DOCTYPE svg PUBLIC "-//W3C//DTD SVG 1.1//EN"
 "http://www.w3.org/Graphics/SVG/1.1/DTD/svg11.dtd">
<!-- Generated by graphviz version 2.36.0 (20140111.2315)
 -->
<!-- Title: PHDataNode&lt; T &gt; Pages: 1 -->
<svg width="283pt" height="266pt"
 viewBox="0.00 0.00 283.00 266.00" xmlns="http://www.w3.org/2000/svg" xmlns:xlink="http://www.w3.org/1999/xlink">
<g id="graph0" class="graph" transform="scale(1 1) rotate(0) translate(4 262)">
<title>PHDataNode&lt; T &gt;</title>
<!-- Node1 -->
<g id="node1" class="node"><title>Node1</title>
<polygon fill="#bfbfbf" stroke="black" points="117.5,-0.5 117.5,-19.5 214.5,-19.5 214.5,-0.5 117.5,-0.5"/>
<text text-anchor="middle" x="166" y="-7.5" font-family="FreeSans" font-size="10.00">PHDataNode&lt; T &gt;</text>
</g>
<!-- Node2 -->
<g id="node2" class="node"><title>Node2</title>
<g id="a_node2"><a xlink:href="../../dc/d82/classPHNode.html" target="_top" xlink:title="PHNode">
<polygon fill="none" stroke="black" points="19,-68.5 19,-87.5 73,-87.5 73,-68.5 19,-68.5"/>
<text text-anchor="middle" x="46" y="-75.5" font-family="FreeSans" font-size="10.00">PHNode</text>
</a>
</g>
</g>
<!-- Node2&#45;&gt;Node1 -->
<g id="edge1" class="edge"><title>Node2&#45;&gt;Node1</title>
<path fill="none" stroke="midnightblue" d="M70.5184,-63.5149C94.406,-50.3767 130.003,-30.7981 150.308,-19.6305"/>
<polygon fill="midnightblue" stroke="midnightblue" points="68.7633,-60.4857 61.6879,-68.3717 72.1368,-66.6192 68.7633,-60.4857"/>
</g>
<!-- Node2&#45;&gt;Node2 -->
<g id="edge2" class="edge"><title>Node2&#45;&gt;Node2</title>
<path fill="none" stroke="#9a32cd" stroke-dasharray="5,2" d="M83.5105,-83.4948C88.0382,-82.5024 91,-80.6708 91,-78 91,-73.6172 83.0239,-71.4943 73.2408,-71.6312"/>
<polygon fill="#9a32cd" stroke="#9a32cd" points="82.9079,-80.0333 73.2408,-84.3688 83.5016,-87.0081 82.9079,-80.0333"/>
<text text-anchor="middle" x="106" y="-75.5" font-family="FreeSans" font-size="10.00"> parent</text>
</g>
<!-- Node3 -->
<g id="node3" class="node"><title>Node3</title>
<g id="a_node3"><a xlink:title="STL class. ">
<polygon fill="none" stroke="#bfbfbf" points="16.5,-168.5 16.5,-187.5 75.5,-187.5 75.5,-168.5 16.5,-168.5"/>
<text text-anchor="middle" x="46" y="-175.5" font-family="FreeSans" font-size="10.00">std::string</text>
</a>
</g>
</g>
<!-- Node3&#45;&gt;Node2 -->
<g id="edge3" class="edge"><title>Node3&#45;&gt;Node2</title>
<path fill="none" stroke="#9a32cd" stroke-dasharray="5,2" d="M46,-158.22C46,-136.951 46,-103.22 46,-87.5374"/>
<polygon fill="#9a32cd" stroke="#9a32cd" points="42.5001,-158.303 46,-168.303 49.5001,-158.303 42.5001,-158.303"/>
<text text-anchor="middle" x="71" y="-142" font-family="FreeSans" font-size="10.00"> objecttype</text>
<text text-anchor="middle" x="71" y="-131" font-family="FreeSans" font-size="10.00">objectclass</text>
<text text-anchor="middle" x="71" y="-120" font-family="FreeSans" font-size="10.00">type</text>
<text text-anchor="middle" x="71" y="-109" font-family="FreeSans" font-size="10.00">name</text>
</g>
<!-- Node4 -->
<g id="node4" class="node"><title>Node4</title>
<g id="a_node4"><a xlink:title="STL class. ">
<polygon fill="none" stroke="#bfbfbf" points="-0.5,-227 -0.5,-257 92.5,-257 92.5,-227 -0.5,-227"/>
<text text-anchor="start" x="7.5" y="-245" font-family="FreeSans" font-size="10.00">std::basic_string&lt;</text>
<text text-anchor="middle" x="46" y="-234" font-family="FreeSans" font-size="10.00"> char &gt;</text>
</a>
</g>
</g>
<!-- Node4&#45;&gt;Node3 -->
<g id="edge4" class="edge"><title>Node4&#45;&gt;Node3</title>
<path fill="none" stroke="midnightblue" d="M46,-216.871C46,-206.663 46,-195.408 46,-187.842"/>
<polygon fill="midnightblue" stroke="midnightblue" points="42.5001,-216.931 46,-226.931 49.5001,-216.931 42.5001,-216.931"/>
</g>
<!-- Node5 -->
<g id="node5" class="node"><title>Node5</title>
<g id="a_node5"><a xlink:href="../../dc/dd3/unionPHDataNode_1_1tobjcast.html" target="_top" xlink:title="PHDataNode\&lt; T \&gt;::tobjcast">
<polygon fill="none" stroke="black" points="139,-68.5 139,-87.5 275,-87.5 275,-68.5 139,-68.5"/>
<text text-anchor="middle" x="207" y="-75.5" font-family="FreeSans" font-size="10.00">PHDataNode&lt; T &gt;::tobjcast</text>
</a>
</g>
</g>
<!-- Node5&#45;&gt;Node1 -->
<g id="edge5" class="edge"><title>Node5&#45;&gt;Node1</title>
<path fill="none" stroke="#9a32cd" stroke-dasharray="5,2" d="M196.168,-59.563C188.228,-46.7815 177.778,-29.9599 171.492,-19.8411"/>
<polygon fill="#9a32cd" stroke="#9a32cd" points="193.39,-61.7241 201.64,-68.3717 199.336,-58.0303 193.39,-61.7241"/>
<text text-anchor="middle" x="201" y="-41.5" font-family="FreeSans" font-size="10.00"> data</text>
</g>
</g>
</svg>
