<?xml version="1.0" encoding="UTF-8" standalone="no"?>
<!DOCTYPE svg PUBLIC "-//W3C//DTD SVG 1.1//EN"
 "http://www.w3.org/Graphics/SVG/1.1/DTD/svg11.dtd">
<!-- Generated by graphviz version 2.36.0 (20140111.2315)
 -->
<!-- Title: Fun4AllEventOutStream::DropPacketRange Pages: 1 -->
<svg width="486pt" height="87pt"
 viewBox="0.00 0.00 486.00 87.00" xmlns="http://www.w3.org/2000/svg" xmlns:xlink="http://www.w3.org/1999/xlink">
<g id="graph0" class="graph" transform="scale(1 1) rotate(0) translate(4 83)">
<title>Fun4AllEventOutStream::DropPacketRange</title>
<!-- Node1 -->
<g id="node1" class="node"><title>Node1</title>
<polygon fill="#bfbfbf" stroke="black" points="0,-24 0,-54 122,-54 122,-24 0,-24"/>
<text text-anchor="start" x="8" y="-42" font-family="FreeSans" font-size="10.00">Fun4AllEventOutStream</text>
<text text-anchor="middle" x="61" y="-31" font-family="FreeSans" font-size="10.00">::DropPacketRange</text>
</g>
<!-- Node2 -->
<g id="node2" class="node"><title>Node2</title>
<g id="a_node2"><a xlink:href="../../dc/dab/classFun4AllEventOutStream.html#a9a3916f44aa23694827b9badbba92bd9" target="_top" xlink:title="Fun4AllEventOutStream\l::DropPacket">
<polygon fill="none" stroke="black" points="168,-49 168,-79 290,-79 290,-49 168,-49"/>
<text text-anchor="start" x="176" y="-67" font-family="FreeSans" font-size="10.00">Fun4AllEventOutStream</text>
<text text-anchor="middle" x="229" y="-56" font-family="FreeSans" font-size="10.00">::DropPacket</text>
</a>
</g>
</g>
<!-- Node1&#45;&gt;Node2 -->
<g id="edge1" class="edge"><title>Node1&#45;&gt;Node2</title>
<path fill="none" stroke="midnightblue" d="M132.617,-49.6351C144.371,-51.4052 156.463,-53.2264 167.924,-54.9523"/>
<polygon fill="midnightblue" stroke="midnightblue" points="132.809,-46.1246 122.399,-48.0963 131.767,-53.0466 132.809,-46.1246"/>
</g>
<!-- Node4 -->
<g id="node4" class="node"><title>Node4</title>
<g id="a_node4"><a xlink:href="../../d2/d4a/classFun4AllEventOutputManager.html#a9ba5514375f351891f23257a6dc3efea" target="_top" xlink:title="Fun4AllEventOutputManager\l::DropPacketRange">
<polygon fill="none" stroke="black" points="158.5,-0 158.5,-30 299.5,-30 299.5,-0 158.5,-0"/>
<text text-anchor="start" x="166.5" y="-18" font-family="FreeSans" font-size="10.00">Fun4AllEventOutputManager</text>
<text text-anchor="middle" x="229" y="-7" font-family="FreeSans" font-size="10.00">::DropPacketRange</text>
</a>
</g>
</g>
<!-- Node1&#45;&gt;Node4 -->
<g id="edge3" class="edge"><title>Node1&#45;&gt;Node4</title>
<path fill="none" stroke="midnightblue" d="M132.385,-28.8238C140.984,-27.5807 149.767,-26.3108 158.355,-25.0692"/>
<polygon fill="midnightblue" stroke="midnightblue" points="131.796,-25.3726 122.399,-30.2676 132.797,-32.3006 131.796,-25.3726"/>
</g>
<!-- Node3 -->
<g id="node3" class="node"><title>Node3</title>
<g id="a_node3"><a xlink:href="../../d2/d4a/classFun4AllEventOutputManager.html#a3c12f858e61f2c9e1cb7d3994e51975e" target="_top" xlink:title="Fun4AllEventOutputManager\l::DropPacket">
<polygon fill="none" stroke="black" points="336.5,-49 336.5,-79 477.5,-79 477.5,-49 336.5,-49"/>
<text text-anchor="start" x="344.5" y="-67" font-family="FreeSans" font-size="10.00">Fun4AllEventOutputManager</text>
<text text-anchor="middle" x="407" y="-56" font-family="FreeSans" font-size="10.00">::DropPacket</text>
</a>
</g>
</g>
<!-- Node2&#45;&gt;Node3 -->
<g id="edge2" class="edge"><title>Node2&#45;&gt;Node3</title>
<path fill="none" stroke="midnightblue" d="M300.391,-64C312.285,-64 324.626,-64 336.497,-64"/>
<polygon fill="midnightblue" stroke="midnightblue" points="300.077,-60.5001 290.077,-64 300.077,-67.5001 300.077,-60.5001"/>
</g>
</g>
</svg>
