<?xml version="1.0" encoding="UTF-8" standalone="no"?>
<!DOCTYPE svg PUBLIC "-//W3C//DTD SVG 1.1//EN"
 "http://www.w3.org/Graphics/SVG/1.1/DTD/svg11.dtd">
<!-- Generated by graphviz version 2.36.0 (20140111.2315)
 -->
<!-- Title: Fun4AllEventOutStream::WriteEventOut Pages: 1 -->
<svg width="466pt" height="38pt"
 viewBox="0.00 0.00 466.00 38.00" xmlns="http://www.w3.org/2000/svg" xmlns:xlink="http://www.w3.org/1999/xlink">
<g id="graph0" class="graph" transform="scale(1 1) rotate(0) translate(4 34)">
<title>Fun4AllEventOutStream::WriteEventOut</title>
<!-- Node1 -->
<g id="node1" class="node"><title>Node1</title>
<polygon fill="#bfbfbf" stroke="black" points="0,-0 0,-30 122,-30 122,-0 0,-0"/>
<text text-anchor="start" x="8" y="-18" font-family="FreeSans" font-size="10.00">Fun4AllEventOutStream</text>
<text text-anchor="middle" x="61" y="-7" font-family="FreeSans" font-size="10.00">::WriteEventOut</text>
</g>
<!-- Node2 -->
<g id="node2" class="node"><title>Node2</title>
<g id="a_node2"><a xlink:href="../../dc/dab/classFun4AllEventOutStream.html#ac3f5579ceba1f3acdf722be550d6f374" target="_top" xlink:title="Fun4AllEventOutStream\l::WriteEvent">
<polygon fill="none" stroke="black" points="158,-0 158,-30 280,-30 280,-0 158,-0"/>
<text text-anchor="start" x="166" y="-18" font-family="FreeSans" font-size="10.00">Fun4AllEventOutStream</text>
<text text-anchor="middle" x="219" y="-7" font-family="FreeSans" font-size="10.00">::WriteEvent</text>
</a>
</g>
</g>
<!-- Node1&#45;&gt;Node2 -->
<g id="edge1" class="edge"><title>Node1&#45;&gt;Node2</title>
<path fill="none" stroke="midnightblue" d="M132.538,-15C140.99,-15 149.56,-15 157.847,-15"/>
<polygon fill="midnightblue" stroke="midnightblue" points="132.314,-11.5001 122.314,-15 132.314,-18.5001 132.314,-11.5001"/>
</g>
<!-- Node3 -->
<g id="node3" class="node"><title>Node3</title>
<g id="a_node3"><a xlink:href="../../d2/d4a/classFun4AllEventOutputManager.html#a07d37e34714c5e9cc5dab9c2898ad8a4" target="_top" xlink:title="write starting from given node ">
<polygon fill="none" stroke="black" points="316.5,-0 316.5,-30 457.5,-30 457.5,-0 316.5,-0"/>
<text text-anchor="start" x="324.5" y="-18" font-family="FreeSans" font-size="10.00">Fun4AllEventOutputManager</text>
<text text-anchor="middle" x="387" y="-7" font-family="FreeSans" font-size="10.00">::Write</text>
</a>
</g>
</g>
<!-- Node2&#45;&gt;Node3 -->
<g id="edge2" class="edge"><title>Node2&#45;&gt;Node3</title>
<path fill="none" stroke="midnightblue" d="M290.666,-15C299.175,-15 307.86,-15 316.355,-15"/>
<polygon fill="midnightblue" stroke="midnightblue" points="290.399,-11.5001 280.399,-15 290.399,-18.5001 290.399,-11.5001"/>
</g>
</g>
</svg>
