<?xml version="1.0" encoding="UTF-8" standalone="no"?>
<!DOCTYPE svg PUBLIC "-//W3C//DTD SVG 1.1//EN"
 "http://www.w3.org/Graphics/SVG/1.1/DTD/svg11.dtd">
<!-- Generated by graphviz version 2.36.0 (20140111.2315)
 -->
<!-- Title: Fun4AllEventOutStream::WriteEvent Pages: 1 -->
<svg width="288pt" height="87pt"
 viewBox="0.00 0.00 288.00 87.00" xmlns="http://www.w3.org/2000/svg" xmlns:xlink="http://www.w3.org/1999/xlink">
<g id="graph0" class="graph" transform="scale(1 1) rotate(0) translate(4 83)">
<title>Fun4AllEventOutStream::WriteEvent</title>
<!-- Node1 -->
<g id="node1" class="node"><title>Node1</title>
<polygon fill="#bfbfbf" stroke="black" points="0,-24 0,-54 122,-54 122,-24 0,-24"/>
<text text-anchor="start" x="8" y="-42" font-family="FreeSans" font-size="10.00">Fun4AllEventOutStream</text>
<text text-anchor="middle" x="61" y="-31" font-family="FreeSans" font-size="10.00">::WriteEvent</text>
</g>
<!-- Node2 -->
<g id="node2" class="node"><title>Node2</title>
<g id="a_node2"><a xlink:href="../../dc/dab/classFun4AllEventOutStream.html#a726413b4e49772e8392c444a8789f48a" target="_top" xlink:title="Fun4AllEventOutStream\l::resize_evtbuf">
<polygon fill="none" stroke="black" points="158,-49 158,-79 280,-79 280,-49 158,-49"/>
<text text-anchor="start" x="166" y="-67" font-family="FreeSans" font-size="10.00">Fun4AllEventOutStream</text>
<text text-anchor="middle" x="219" y="-56" font-family="FreeSans" font-size="10.00">::resize_evtbuf</text>
</a>
</g>
</g>
<!-- Node1&#45;&gt;Node2 -->
<g id="edge1" class="edge"><title>Node1&#45;&gt;Node2</title>
<path fill="none" stroke="midnightblue" d="M122.314,-48.6657C130.695,-50.0088 139.363,-51.398 147.904,-52.7667"/>
<polygon fill="midnightblue" stroke="midnightblue" points="147.419,-56.2335 157.847,-54.3601 148.527,-49.3217 147.419,-56.2335"/>
</g>
<!-- Node3 -->
<g id="node3" class="node"><title>Node3</title>
<g id="a_node3"><a xlink:href="../../dc/dab/classFun4AllEventOutStream.html#aad9c9a83ec0bb14a7a2c19e7dcac664f" target="_top" xlink:title="Fun4AllEventOutStream\l::WriteEventOut">
<polygon fill="none" stroke="black" points="158,-0 158,-30 280,-30 280,-0 158,-0"/>
<text text-anchor="start" x="166" y="-18" font-family="FreeSans" font-size="10.00">Fun4AllEventOutStream</text>
<text text-anchor="middle" x="219" y="-7" font-family="FreeSans" font-size="10.00">::WriteEventOut</text>
</a>
</g>
</g>
<!-- Node1&#45;&gt;Node3 -->
<g id="edge2" class="edge"><title>Node1&#45;&gt;Node3</title>
<path fill="none" stroke="midnightblue" d="M122.314,-29.721C130.695,-28.4316 139.363,-27.098 147.904,-25.784"/>
<polygon fill="midnightblue" stroke="midnightblue" points="148.495,-29.2343 157.847,-24.2543 147.431,-22.3157 148.495,-29.2343"/>
</g>
</g>
</svg>
