<?xml version="1.0" encoding="UTF-8" standalone="no"?>
<!DOCTYPE svg PUBLIC "-//W3C//DTD SVG 1.1//EN"
 "http://www.w3.org/Graphics/SVG/1.1/DTD/svg11.dtd">
<!-- Generated by graphviz version 2.36.0 (20140111.2315)
 -->
<!-- Title: Fun4AllPrdfOutputManager Pages: 1 -->
<svg width="1050pt" height="218pt"
 viewBox="0.00 0.00 1050.00 218.00" xmlns="http://www.w3.org/2000/svg" xmlns:xlink="http://www.w3.org/1999/xlink">
<g id="graph0" class="graph" transform="scale(1 1) rotate(0) translate(4 214)">
<title>Fun4AllPrdfOutputManager</title>
<!-- Node1 -->
<g id="node1" class="node"><title>Node1</title>
<polygon fill="#bfbfbf" stroke="black" points="908,-73.5 908,-92.5 1042,-92.5 1042,-73.5 908,-73.5"/>
<text text-anchor="middle" x="975" y="-80.5" font-family="FreeSans" font-size="10.00">Fun4AllPrdfOutputManager</text>
</g>
<!-- Node2 -->
<g id="node2" class="node"><title>Node2</title>
<g id="a_node2"><a xlink:href="../../d8/d77/classFun4AllOutputManager.html" target="_top" xlink:title="Fun4AllOutputManager">
<polygon fill="none" stroke="black" points="518,-113.5 518,-132.5 634,-132.5 634,-113.5 518,-113.5"/>
<text text-anchor="middle" x="576" y="-120.5" font-family="FreeSans" font-size="10.00">Fun4AllOutputManager</text>
</a>
</g>
</g>
<!-- Node2&#45;&gt;Node1 -->
<g id="edge1" class="edge"><title>Node2&#45;&gt;Node1</title>
<path fill="none" stroke="midnightblue" d="M644.376,-116.211C717.866,-108.807 834.742,-97.031 907.775,-89.6725"/>
<polygon fill="midnightblue" stroke="midnightblue" points="643.902,-112.741 634.303,-117.226 644.604,-119.706 643.902,-112.741"/>
</g>
<!-- Node3 -->
<g id="node3" class="node"><title>Node3</title>
<g id="a_node3"><a xlink:href="../../d5/dec/classFun4AllBase.html" target="_top" xlink:title="Fun4AllBase">
<polygon fill="none" stroke="black" points="302,-67.5 302,-86.5 374,-86.5 374,-67.5 302,-67.5"/>
<text text-anchor="middle" x="338" y="-74.5" font-family="FreeSans" font-size="10.00">Fun4AllBase</text>
</a>
</g>
</g>
<!-- Node3&#45;&gt;Node2 -->
<g id="edge2" class="edge"><title>Node3&#45;&gt;Node2</title>
<path fill="none" stroke="midnightblue" d="M383.982,-85.7677C424.647,-93.6939 484.374,-105.336 526.185,-113.485"/>
<polygon fill="midnightblue" stroke="midnightblue" points="384.562,-82.3149 374.077,-83.837 383.222,-89.1856 384.562,-82.3149"/>
</g>
<!-- Node4 -->
<g id="node4" class="node"><title>Node4</title>
<g id="a_node4"><a xlink:title="STL class. ">
<polygon fill="none" stroke="#bfbfbf" points="132.5,-100.5 132.5,-119.5 191.5,-119.5 191.5,-100.5 132.5,-100.5"/>
<text text-anchor="middle" x="162" y="-107.5" font-family="FreeSans" font-size="10.00">std::string</text>
</a>
</g>
</g>
<!-- Node4&#45;&gt;Node2 -->
<g id="edge6" class="edge"><title>Node4&#45;&gt;Node2</title>
<path fill="none" stroke="#9a32cd" stroke-dasharray="5,2" d="M201.767,-111.223C274.686,-113.524 432.567,-118.506 517.75,-121.194"/>
<polygon fill="#9a32cd" stroke="#9a32cd" points="201.749,-107.721 191.644,-110.904 201.529,-114.718 201.749,-107.721"/>
<text text-anchor="middle" x="338" y="-120" font-family="FreeSans" font-size="10.00"> outfilename</text>
</g>
<!-- Node4&#45;&gt;Node3 -->
<g id="edge3" class="edge"><title>Node4&#45;&gt;Node3</title>
<path fill="none" stroke="#9a32cd" stroke-dasharray="5,2" d="M201.475,-99.8911C204.353,-99.2225 207.218,-98.5839 210,-98 240.838,-91.5261 276.233,-85.813 301.81,-81.9866"/>
<polygon fill="#9a32cd" stroke="#9a32cd" points="200.639,-96.4924 191.741,-102.244 202.284,-103.296 200.639,-96.4924"/>
<text text-anchor="middle" x="235" y="-101" font-family="FreeSans" font-size="10.00"> ThisName</text>
</g>
<!-- Node7 -->
<g id="node7" class="node"><title>Node7</title>
<polygon fill="none" stroke="#bfbfbf" points="278,-190.5 278,-209.5 398,-209.5 398,-190.5 278,-190.5"/>
<text text-anchor="middle" x="338" y="-197.5" font-family="FreeSans" font-size="10.00">std::vector&lt; std::string &gt;</text>
</g>
<!-- Node4&#45;&gt;Node7 -->
<g id="edge8" class="edge"><title>Node4&#45;&gt;Node7</title>
<path fill="none" stroke="#9a32cd" stroke-dasharray="5,2" d="M184.653,-125.583C207.13,-141.218 243.733,-165.188 278,-181 285.719,-184.562 294.293,-187.735 302.458,-190.42"/>
<polygon fill="#9a32cd" stroke="#9a32cd" points="186.401,-122.534 176.209,-119.639 182.371,-128.257 186.401,-122.534"/>
<text text-anchor="middle" x="235" y="-174" font-family="FreeSans" font-size="10.00"> elements</text>
</g>
<!-- Node9 -->
<g id="node9" class="node"><title>Node9</title>
<g id="a_node9"><a xlink:href="../../dc/d82/classPHNode.html" target="_top" xlink:title="PHNode">
<polygon fill="none" stroke="black" points="311,-0.5 311,-19.5 365,-19.5 365,-0.5 311,-0.5"/>
<text text-anchor="middle" x="338" y="-7.5" font-family="FreeSans" font-size="10.00">PHNode</text>
</a>
</g>
</g>
<!-- Node4&#45;&gt;Node9 -->
<g id="edge12" class="edge"><title>Node4&#45;&gt;Node9</title>
<path fill="none" stroke="#9a32cd" stroke-dasharray="5,2" d="M171.073,-90.6636C178.753,-74.6594 191.837,-52.5797 210,-40 240.358,-18.9742 283.544,-12.5611 310.915,-10.6765"/>
<polygon fill="#9a32cd" stroke="#9a32cd" points="167.72,-89.5869 166.808,-100.142 174.103,-92.4595 167.72,-89.5869"/>
<text text-anchor="middle" x="235" y="-76" font-family="FreeSans" font-size="10.00"> objecttype</text>
<text text-anchor="middle" x="235" y="-65" font-family="FreeSans" font-size="10.00">objectclass</text>
<text text-anchor="middle" x="235" y="-54" font-family="FreeSans" font-size="10.00">type</text>
<text text-anchor="middle" x="235" y="-43" font-family="FreeSans" font-size="10.00">name</text>
</g>
<!-- Node5 -->
<g id="node5" class="node"><title>Node5</title>
<g id="a_node5"><a xlink:title="STL class. ">
<polygon fill="none" stroke="#bfbfbf" points="0.5,-95 0.5,-125 93.5,-125 93.5,-95 0.5,-95"/>
<text text-anchor="start" x="8.5" y="-113" font-family="FreeSans" font-size="10.00">std::basic_string&lt;</text>
<text text-anchor="middle" x="47" y="-102" font-family="FreeSans" font-size="10.00"> char &gt;</text>
</a>
</g>
</g>
<!-- Node5&#45;&gt;Node4 -->
<g id="edge4" class="edge"><title>Node5&#45;&gt;Node4</title>
<path fill="none" stroke="midnightblue" d="M103.885,-110C113.778,-110 123.695,-110 132.425,-110"/>
<polygon fill="midnightblue" stroke="midnightblue" points="103.636,-106.5 93.6357,-110 103.636,-113.5 103.636,-106.5"/>
</g>
<!-- Node6 -->
<g id="node6" class="node"><title>Node6</title>
<polygon fill="none" stroke="#bfbfbf" points="279.5,-152.5 279.5,-171.5 396.5,-171.5 396.5,-152.5 279.5,-152.5"/>
<text text-anchor="middle" x="338" y="-159.5" font-family="FreeSans" font-size="10.00">std::vector&lt; unsigned &gt;</text>
</g>
<!-- Node6&#45;&gt;Node2 -->
<g id="edge5" class="edge"><title>Node6&#45;&gt;Node2</title>
<path fill="none" stroke="#9a32cd" stroke-dasharray="5,2" d="M406.741,-151.008C433.328,-146.674 464.101,-141.632 492,-137 500.65,-135.564 509.804,-134.032 518.751,-132.528"/>
<polygon fill="#9a32cd" stroke="#9a32cd" points="406.078,-147.57 396.771,-152.632 407.203,-154.479 406.078,-147.57"/>
<text text-anchor="middle" x="454" y="-152" font-family="FreeSans" font-size="10.00"> recomoduleindex</text>
</g>
<!-- Node7&#45;&gt;Node2 -->
<g id="edge7" class="edge"><title>Node7&#45;&gt;Node2</title>
<path fill="none" stroke="#9a32cd" stroke-dasharray="5,2" d="M402.97,-188.345C430.752,-182.419 463.411,-174.273 492,-164 515.898,-155.413 541.913,-141.808 558.329,-132.65"/>
<polygon fill="#9a32cd" stroke="#9a32cd" points="402.048,-184.962 392.972,-190.428 403.475,-191.815 402.048,-184.962"/>
<text text-anchor="middle" x="454" y="-188" font-family="FreeSans" font-size="10.00"> EventSelectors</text>
</g>
<!-- Node8 -->
<g id="node8" class="node"><title>Node8</title>
<g id="a_node8"><a xlink:href="../../d5/dca/classPHCompositeNode.html" target="_top" xlink:title="PHCompositeNode">
<polygon fill="none" stroke="black" points="726.5,-38.5 726.5,-57.5 827.5,-57.5 827.5,-38.5 726.5,-38.5"/>
<text text-anchor="middle" x="777" y="-45.5" font-family="FreeSans" font-size="10.00">PHCompositeNode</text>
</a>
</g>
</g>
<!-- Node8&#45;&gt;Node1 -->
<g id="edge9" class="edge"><title>Node8&#45;&gt;Node1</title>
<path fill="none" stroke="#9a32cd" stroke-dasharray="5,2" d="M837.605,-58.6437C864.033,-63.3631 894.887,-68.8727 920.558,-73.4569"/>
<polygon fill="#9a32cd" stroke="#9a32cd" points="838.172,-55.1897 827.712,-56.8772 836.941,-62.0807 838.172,-55.1897"/>
<text text-anchor="middle" x="868" y="-70" font-family="FreeSans" font-size="10.00"> prdfNode</text>
</g>
<!-- Node9&#45;&gt;Node8 -->
<g id="edge10" class="edge"><title>Node9&#45;&gt;Node8</title>
<path fill="none" stroke="midnightblue" d="M375.714,-11.3747C432.785,-13.7207 546.189,-19.2186 642,-29 670.05,-31.8637 701.247,-36.2174 726.476,-40.0351"/>
<polygon fill="midnightblue" stroke="midnightblue" points="375.534,-7.86472 365.401,-10.9601 375.252,-14.8591 375.534,-7.86472"/>
</g>
<!-- Node9&#45;&gt;Node9 -->
<g id="edge11" class="edge"><title>Node9&#45;&gt;Node9</title>
<path fill="none" stroke="#9a32cd" stroke-dasharray="5,2" d="M319.112,-29.4C320.373,-34.3146 326.669,-38 338,-38 356.129,-38 361.369,-28.5653 353.721,-19.7571"/>
<polygon fill="#9a32cd" stroke="#9a32cd" points="322.484,-30.3499 322.279,-19.7571 315.833,-28.1658 322.484,-30.3499"/>
<text text-anchor="middle" x="338" y="-41" font-family="FreeSans" font-size="10.00"> parent</text>
</g>
<!-- Node10 -->
<g id="node10" class="node"><title>Node10</title>
<g id="a_node10"><a xlink:href="../../d6/d86/classPHPointerList.html" target="_top" xlink:title="PHPointerList\&lt; PHNode \&gt;">
<polygon fill="none" stroke="black" points="510,-38.5 510,-57.5 642,-57.5 642,-38.5 510,-38.5"/>
<text text-anchor="middle" x="576" y="-45.5" font-family="FreeSans" font-size="10.00">PHPointerList&lt; PHNode &gt;</text>
</a>
</g>
</g>
<!-- Node9&#45;&gt;Node10 -->
<g id="edge14" class="edge"><title>Node9&#45;&gt;Node10</title>
<path fill="none" stroke="#9a32cd" stroke-dasharray="5,2" d="M374.943,-16.1548C387.881,-18.3474 402.591,-20.814 416,-23 448.13,-28.238 483.945,-33.886 513.437,-38.4861"/>
<polygon fill="#9a32cd" stroke="#9a32cd" points="375.451,-12.6911 365.006,-14.4658 374.278,-19.5921 375.451,-12.6911"/>
<text text-anchor="middle" x="454" y="-38" font-family="FreeSans" font-size="10.00"> items</text>
</g>
<!-- Node10&#45;&gt;Node8 -->
<g id="edge13" class="edge"><title>Node10&#45;&gt;Node8</title>
<path fill="none" stroke="#9a32cd" stroke-dasharray="5,2" d="M652.282,-48C677.11,-48 704.079,-48 726.481,-48"/>
<polygon fill="#9a32cd" stroke="#9a32cd" points="652.16,-44.5001 642.16,-48 652.16,-51.5001 652.16,-44.5001"/>
<text text-anchor="middle" x="684" y="-51" font-family="FreeSans" font-size="10.00"> subNodes</text>
</g>
</g>
</svg>
