<?xml version="1.0" encoding="UTF-8" standalone="no"?>
<!DOCTYPE svg PUBLIC "-//W3C//DTD SVG 1.1//EN"
 "http://www.w3.org/Graphics/SVG/1.1/DTD/svg11.dtd">
<!-- Generated by graphviz version 2.36.0 (20140111.2315)
 -->
<!-- Title: fun4all/fun4all/Fun4AllSyncManager.h Pages: 1 -->
<svg width="774pt" height="108pt"
 viewBox="0.00 0.00 774.00 108.00" xmlns="http://www.w3.org/2000/svg" xmlns:xlink="http://www.w3.org/1999/xlink">
<g id="graph0" class="graph" transform="scale(1 1) rotate(0) translate(4 104)">
<title>fun4all/fun4all/Fun4AllSyncManager.h</title>
<!-- Node1 -->
<g id="node1" class="node"><title>Node1</title>
<polygon fill="#bfbfbf" stroke="black" points="309,-69 309,-99 443,-99 443,-69 309,-69"/>
<text text-anchor="start" x="317" y="-87" font-family="FreeSans" font-size="10.00">fun4all/fun4all/Fun4AllSync</text>
<text text-anchor="middle" x="376" y="-76" font-family="FreeSans" font-size="10.00">Manager.h</text>
</g>
<!-- Node2 -->
<g id="node2" class="node"><title>Node2</title>
<g id="a_node2"><a xlink:href="../../d3/d53/Fun4AllDstInputManager_8cc.html" target="_top" xlink:title="fun4all/fun4all/Fun4AllDst\lInputManager.cc">
<polygon fill="none" stroke="black" points="0,-1 0,-31 128,-31 128,-1 0,-1"/>
<text text-anchor="start" x="8" y="-19" font-family="FreeSans" font-size="10.00">fun4all/fun4all/Fun4AllDst</text>
<text text-anchor="middle" x="64" y="-8" font-family="FreeSans" font-size="10.00">InputManager.cc</text>
</a>
</g>
</g>
<!-- Node1&#45;&gt;Node2 -->
<g id="edge1" class="edge"><title>Node1&#45;&gt;Node2</title>
<path fill="none" stroke="midnightblue" d="M299.49,-66.8153C246.863,-55.6826 177.766,-41.0658 128.047,-30.5483"/>
<polygon fill="midnightblue" stroke="midnightblue" points="298.943,-70.2769 309.451,-68.9223 300.392,-63.4284 298.943,-70.2769"/>
</g>
<!-- Node3 -->
<g id="node3" class="node"><title>Node3</title>
<g id="a_node3"><a xlink:href="../../dd/dec/Fun4AllDummyInputManager_8cc.html" target="_top" xlink:title="fun4all/fun4all/Fun4AllDummy\lInputManager.cc">
<polygon fill="none" stroke="black" points="146,-1 146,-31 292,-31 292,-1 146,-1"/>
<text text-anchor="start" x="154" y="-19" font-family="FreeSans" font-size="10.00">fun4all/fun4all/Fun4AllDummy</text>
<text text-anchor="middle" x="219" y="-8" font-family="FreeSans" font-size="10.00">InputManager.cc</text>
</a>
</g>
</g>
<!-- Node1&#45;&gt;Node3 -->
<g id="edge2" class="edge"><title>Node1&#45;&gt;Node3</title>
<path fill="none" stroke="midnightblue" d="M332.92,-64.8898C307.515,-54.2103 275.849,-40.8982 252.355,-31.0218"/>
<polygon fill="midnightblue" stroke="midnightblue" points="331.745,-68.1925 342.32,-68.8413 334.457,-61.7395 331.745,-68.1925"/>
</g>
<!-- Node4 -->
<g id="node4" class="node"><title>Node4</title>
<g id="a_node4"><a xlink:href="../../da/d7b/Fun4AllPrdfInputManager_8cc.html" target="_top" xlink:title="fun4all/fun4all/Fun4AllPrdf\lInputManager.cc">
<polygon fill="none" stroke="black" points="310.5,-1 310.5,-31 441.5,-31 441.5,-1 310.5,-1"/>
<text text-anchor="start" x="318.5" y="-19" font-family="FreeSans" font-size="10.00">fun4all/fun4all/Fun4AllPrdf</text>
<text text-anchor="middle" x="376" y="-8" font-family="FreeSans" font-size="10.00">InputManager.cc</text>
</a>
</g>
</g>
<!-- Node1&#45;&gt;Node4 -->
<g id="edge3" class="edge"><title>Node1&#45;&gt;Node4</title>
<path fill="none" stroke="midnightblue" d="M376,-58.5322C376,-49.3606 376,-39.2449 376,-31.2931"/>
<polygon fill="midnightblue" stroke="midnightblue" points="372.5,-58.6789 376,-68.679 379.5,-58.679 372.5,-58.6789"/>
</g>
<!-- Node5 -->
<g id="node5" class="node"><title>Node5</title>
<g id="a_node5"><a xlink:href="../../d8/d7a/Fun4AllServer_8cc.html" target="_top" xlink:title="fun4all/fun4all/Fun4AllServer.cc">
<polygon fill="none" stroke="black" points="460,-6.5 460,-25.5 614,-25.5 614,-6.5 460,-6.5"/>
<text text-anchor="middle" x="537" y="-13.5" font-family="FreeSans" font-size="10.00">fun4all/fun4all/Fun4AllServer.cc</text>
</a>
</g>
</g>
<!-- Node1&#45;&gt;Node5 -->
<g id="edge4" class="edge"><title>Node1&#45;&gt;Node5</title>
<path fill="none" stroke="midnightblue" d="M419.885,-65.0098C451.056,-52.2318 491.534,-35.6384 515.821,-25.6819"/>
<polygon fill="midnightblue" stroke="midnightblue" points="418.464,-61.8098 410.539,-68.8413 421.119,-68.2867 418.464,-61.8098"/>
</g>
<!-- Node6 -->
<g id="node6" class="node"><title>Node6</title>
<g id="a_node6"><a xlink:href="../../df/d03/Fun4AllSyncManager_8cc.html" target="_top" xlink:title="fun4all/fun4all/Fun4AllSync\lManager.cc">
<polygon fill="none" stroke="black" points="632,-1 632,-31 766,-31 766,-1 632,-1"/>
<text text-anchor="start" x="640" y="-19" font-family="FreeSans" font-size="10.00">fun4all/fun4all/Fun4AllSync</text>
<text text-anchor="middle" x="699" y="-8" font-family="FreeSans" font-size="10.00">Manager.cc</text>
</a>
</g>
</g>
<!-- Node1&#45;&gt;Node6 -->
<g id="edge5" class="edge"><title>Node1&#45;&gt;Node6</title>
<path fill="none" stroke="midnightblue" d="M453.26,-67.2132C507.652,-56.099 579.749,-41.3671 631.768,-30.7377"/>
<polygon fill="midnightblue" stroke="midnightblue" points="452.415,-63.8134 443.318,-69.2446 453.816,-70.6717 452.415,-63.8134"/>
</g>
</g>
</svg>
