<?xml version="1.0" encoding="UTF-8" standalone="no"?>
<!DOCTYPE svg PUBLIC "-//W3C//DTD SVG 1.1//EN"
 "http://www.w3.org/Graphics/SVG/1.1/DTD/svg11.dtd">
<!-- Generated by graphviz version 2.36.0 (20140111.2315)
 -->
<!-- Title: PHNodeIterator Pages: 1 -->
<svg width="219pt" height="402pt"
 viewBox="0.00 0.00 219.00 402.00" xmlns="http://www.w3.org/2000/svg" xmlns:xlink="http://www.w3.org/1999/xlink">
<g id="graph0" class="graph" transform="scale(1 1) rotate(0) translate(4 398)">
<title>PHNodeIterator</title>
<!-- Node1 -->
<g id="node1" class="node"><title>Node1</title>
<polygon fill="#bfbfbf" stroke="black" points="30.5,-0.5 30.5,-19.5 115.5,-19.5 115.5,-0.5 30.5,-0.5"/>
<text text-anchor="middle" x="73" y="-7.5" font-family="FreeSans" font-size="10.00">PHNodeIterator</text>
</g>
<!-- Node2 -->
<g id="node2" class="node"><title>Node2</title>
<g id="a_node2"><a xlink:href="../../d6/d86/classPHPointerList.html" target="_top" xlink:title="PHPointerList\&lt; PHNode \&gt;">
<polygon fill="none" stroke="black" points="0,-136.5 0,-155.5 132,-155.5 132,-136.5 0,-136.5"/>
<text text-anchor="middle" x="66" y="-143.5" font-family="FreeSans" font-size="10.00">PHPointerList&lt; PHNode &gt;</text>
</a>
</g>
</g>
<!-- Node2&#45;&gt;Node1 -->
<g id="edge1" class="edge"><title>Node2&#45;&gt;Node1</title>
<path fill="none" stroke="#9a32cd" stroke-dasharray="5,2" d="M54.5587,-127.088C46.0671,-111.58 36.7904,-88.4827 42,-68 46.7203,-49.4409 58.8418,-30.3948 66.4532,-19.6927"/>
<polygon fill="#9a32cd" stroke="#9a32cd" points="51.7685,-129.246 59.8655,-136.079 57.7968,-125.688 51.7685,-129.246"/>
<text text-anchor="middle" x="71" y="-75.5" font-family="FreeSans" font-size="10.00"> subNodeList</text>
</g>
<!-- Node6 -->
<g id="node6" class="node"><title>Node6</title>
<g id="a_node6"><a xlink:href="../../d5/dca/classPHCompositeNode.html" target="_top" xlink:title="PHCompositeNode">
<polygon fill="none" stroke="black" points="109.5,-68.5 109.5,-87.5 210.5,-87.5 210.5,-68.5 109.5,-68.5"/>
<text text-anchor="middle" x="160" y="-75.5" font-family="FreeSans" font-size="10.00">PHCompositeNode</text>
</a>
</g>
</g>
<!-- Node2&#45;&gt;Node6 -->
<g id="edge8" class="edge"><title>Node2&#45;&gt;Node6</title>
<path fill="none" stroke="#9a32cd" stroke-dasharray="5,2" d="M77.574,-128.103C83.3461,-120.604 90.8347,-112.113 99,-106 109.476,-98.1571 122.589,-91.9773 133.97,-87.5206"/>
<polygon fill="#9a32cd" stroke="#9a32cd" points="74.7009,-126.102 71.6487,-136.248 80.3617,-130.22 74.7009,-126.102"/>
<text text-anchor="middle" x="122.5" y="-109.5" font-family="FreeSans" font-size="10.00"> subNodes</text>
</g>
<!-- Node3 -->
<g id="node3" class="node"><title>Node3</title>
<g id="a_node3"><a xlink:href="../../dc/d82/classPHNode.html" target="_top" xlink:title="PHNode">
<polygon fill="none" stroke="black" points="109,-204.5 109,-223.5 163,-223.5 163,-204.5 109,-204.5"/>
<text text-anchor="middle" x="136" y="-211.5" font-family="FreeSans" font-size="10.00">PHNode</text>
</a>
</g>
</g>
<!-- Node3&#45;&gt;Node2 -->
<g id="edge2" class="edge"><title>Node3&#45;&gt;Node2</title>
<path fill="none" stroke="#9a32cd" stroke-dasharray="5,2" d="M119.468,-197.412C105.716,-184.447 86.6351,-166.456 75.3769,-155.841"/>
<polygon fill="#9a32cd" stroke="#9a32cd" points="117.172,-200.058 126.849,-204.372 121.974,-194.965 117.172,-200.058"/>
<text text-anchor="middle" x="121.5" y="-177.5" font-family="FreeSans" font-size="10.00"> items</text>
</g>
<!-- Node3&#45;&gt;Node3 -->
<g id="edge3" class="edge"><title>Node3&#45;&gt;Node3</title>
<path fill="none" stroke="#9a32cd" stroke-dasharray="5,2" d="M173.51,-219.495C178.038,-218.502 181,-216.671 181,-214 181,-209.617 173.024,-207.494 163.241,-207.631"/>
<polygon fill="#9a32cd" stroke="#9a32cd" points="172.908,-216.033 163.241,-220.369 173.502,-223.008 172.908,-216.033"/>
<text text-anchor="middle" x="196" y="-211.5" font-family="FreeSans" font-size="10.00"> parent</text>
</g>
<!-- Node3&#45;&gt;Node6 -->
<g id="edge7" class="edge"><title>Node3&#45;&gt;Node6</title>
<path fill="none" stroke="midnightblue" d="M139.405,-193.992C144.683,-164.523 154.629,-108.986 158.451,-87.6503"/>
<polygon fill="midnightblue" stroke="midnightblue" points="135.893,-193.747 137.575,-204.208 142.783,-194.982 135.893,-193.747"/>
</g>
<!-- Node4 -->
<g id="node4" class="node"><title>Node4</title>
<g id="a_node4"><a xlink:title="STL class. ">
<polygon fill="none" stroke="#bfbfbf" points="106.5,-304.5 106.5,-323.5 165.5,-323.5 165.5,-304.5 106.5,-304.5"/>
<text text-anchor="middle" x="136" y="-311.5" font-family="FreeSans" font-size="10.00">std::string</text>
</a>
</g>
</g>
<!-- Node4&#45;&gt;Node3 -->
<g id="edge4" class="edge"><title>Node4&#45;&gt;Node3</title>
<path fill="none" stroke="#9a32cd" stroke-dasharray="5,2" d="M136,-294.22C136,-272.951 136,-239.22 136,-223.537"/>
<polygon fill="#9a32cd" stroke="#9a32cd" points="132.5,-294.303 136,-304.303 139.5,-294.303 132.5,-294.303"/>
<text text-anchor="middle" x="161" y="-278" font-family="FreeSans" font-size="10.00"> objecttype</text>
<text text-anchor="middle" x="161" y="-267" font-family="FreeSans" font-size="10.00">objectclass</text>
<text text-anchor="middle" x="161" y="-256" font-family="FreeSans" font-size="10.00">type</text>
<text text-anchor="middle" x="161" y="-245" font-family="FreeSans" font-size="10.00">name</text>
</g>
<!-- Node5 -->
<g id="node5" class="node"><title>Node5</title>
<g id="a_node5"><a xlink:title="STL class. ">
<polygon fill="none" stroke="#bfbfbf" points="89.5,-363 89.5,-393 182.5,-393 182.5,-363 89.5,-363"/>
<text text-anchor="start" x="97.5" y="-381" font-family="FreeSans" font-size="10.00">std::basic_string&lt;</text>
<text text-anchor="middle" x="136" y="-370" font-family="FreeSans" font-size="10.00"> char &gt;</text>
</a>
</g>
</g>
<!-- Node5&#45;&gt;Node4 -->
<g id="edge5" class="edge"><title>Node5&#45;&gt;Node4</title>
<path fill="none" stroke="midnightblue" d="M136,-352.871C136,-342.663 136,-331.408 136,-323.842"/>
<polygon fill="midnightblue" stroke="midnightblue" points="132.5,-352.931 136,-362.931 139.5,-352.931 132.5,-352.931"/>
</g>
<!-- Node6&#45;&gt;Node1 -->
<g id="edge6" class="edge"><title>Node6&#45;&gt;Node1</title>
<path fill="none" stroke="#9a32cd" stroke-dasharray="5,2" d="M140.354,-62.0961C123.092,-49.0012 98.5764,-30.4028 84.3765,-19.6305"/>
<polygon fill="#9a32cd" stroke="#9a32cd" points="138.544,-65.1162 148.626,-68.3717 142.775,-59.5393 138.544,-65.1162"/>
<text text-anchor="middle" x="153" y="-41.5" font-family="FreeSans" font-size="10.00"> currentNode</text>
</g>
</g>
</svg>
