<?xml version="1.0" encoding="UTF-8" standalone="no"?>
<!DOCTYPE svg PUBLIC "-//W3C//DTD SVG 1.1//EN"
 "http://www.w3.org/Graphics/SVG/1.1/DTD/svg11.dtd">
<!-- Generated by graphviz version 2.36.0 (20140111.2315)
 -->
<!-- Title: fun4all/phool/recoConsts.h Pages: 1 -->
<svg width="1410pt" height="96pt"
 viewBox="0.00 0.00 1410.00 96.00" xmlns="http://www.w3.org/2000/svg" xmlns:xlink="http://www.w3.org/1999/xlink">
<g id="graph0" class="graph" transform="scale(1 1) rotate(0) translate(4 92)">
<title>fun4all/phool/recoConsts.h</title>
<!-- Node1 -->
<g id="node1" class="node"><title>Node1</title>
<polygon fill="#bfbfbf" stroke="black" points="613.5,-68.5 613.5,-87.5 744.5,-87.5 744.5,-68.5 613.5,-68.5"/>
<text text-anchor="middle" x="679" y="-75.5" font-family="FreeSans" font-size="10.00">fun4all/phool/recoConsts.h</text>
</g>
<!-- Node2 -->
<g id="node2" class="node"><title>Node2</title>
<g id="a_node2"><a xlink:href="../../d3/d53/Fun4AllDstInputManager_8cc.html" target="_top" xlink:title="fun4all/fun4all/Fun4AllDst\lInputManager.cc">
<polygon fill="none" stroke="black" points="0,-1 0,-31 128,-31 128,-1 0,-1"/>
<text text-anchor="start" x="8" y="-19" font-family="FreeSans" font-size="10.00">fun4all/fun4all/Fun4AllDst</text>
<text text-anchor="middle" x="64" y="-8" font-family="FreeSans" font-size="10.00">InputManager.cc</text>
</a>
</g>
</g>
<!-- Node1&#45;&gt;Node2 -->
<g id="edge1" class="edge"><title>Node1&#45;&gt;Node2</title>
<path fill="none" stroke="midnightblue" d="M603.024,-73.5685C497.889,-68.1664 302.295,-55.757 137,-32 134.054,-31.5766 131.049,-31.1083 128.018,-30.6064"/>
<polygon fill="midnightblue" stroke="midnightblue" points="603.057,-77.0746 613.221,-74.085 603.411,-70.0836 603.057,-77.0746"/>
</g>
<!-- Node3 -->
<g id="node3" class="node"><title>Node3</title>
<g id="a_node3"><a xlink:href="../../dd/dec/Fun4AllDummyInputManager_8cc.html" target="_top" xlink:title="fun4all/fun4all/Fun4AllDummy\lInputManager.cc">
<polygon fill="none" stroke="black" points="146,-1 146,-31 292,-31 292,-1 146,-1"/>
<text text-anchor="start" x="154" y="-19" font-family="FreeSans" font-size="10.00">fun4all/fun4all/Fun4AllDummy</text>
<text text-anchor="middle" x="219" y="-8" font-family="FreeSans" font-size="10.00">InputManager.cc</text>
</a>
</g>
</g>
<!-- Node1&#45;&gt;Node3 -->
<g id="edge2" class="edge"><title>Node1&#45;&gt;Node3</title>
<path fill="none" stroke="midnightblue" d="M603.257,-69.3888C526.808,-61.3766 405.444,-47.754 301,-32 298.138,-31.5683 295.223,-31.1125 292.28,-30.639"/>
<polygon fill="midnightblue" stroke="midnightblue" points="602.968,-72.8776 613.277,-70.4338 603.694,-65.9153 602.968,-72.8776"/>
</g>
<!-- Node4 -->
<g id="node4" class="node"><title>Node4</title>
<g id="a_node4"><a xlink:href="../../df/d24/Fun4AllHistoManager_8cc.html" target="_top" xlink:title="fun4all/fun4all/Fun4AllHisto\lManager.cc">
<polygon fill="none" stroke="black" points="310,-1 310,-31 446,-31 446,-1 310,-1"/>
<text text-anchor="start" x="318" y="-19" font-family="FreeSans" font-size="10.00">fun4all/fun4all/Fun4AllHisto</text>
<text text-anchor="middle" x="378" y="-8" font-family="FreeSans" font-size="10.00">Manager.cc</text>
</a>
</g>
</g>
<!-- Node1&#45;&gt;Node4 -->
<g id="edge3" class="edge"><title>Node1&#45;&gt;Node4</title>
<path fill="none" stroke="midnightblue" d="M626.23,-66.4811C576.2,-56.5083 500.783,-41.4749 446.21,-30.5966"/>
<polygon fill="midnightblue" stroke="midnightblue" points="625.702,-69.9447 636.194,-68.4672 627.071,-63.0797 625.702,-69.9447"/>
</g>
<!-- Node5 -->
<g id="node5" class="node"><title>Node5</title>
<g id="a_node5"><a xlink:href="../../da/d7b/Fun4AllPrdfInputManager_8cc.html" target="_top" xlink:title="fun4all/fun4all/Fun4AllPrdf\lInputManager.cc">
<polygon fill="none" stroke="black" points="464.5,-1 464.5,-31 595.5,-31 595.5,-1 464.5,-1"/>
<text text-anchor="start" x="472.5" y="-19" font-family="FreeSans" font-size="10.00">fun4all/fun4all/Fun4AllPrdf</text>
<text text-anchor="middle" x="530" y="-8" font-family="FreeSans" font-size="10.00">InputManager.cc</text>
</a>
</g>
</g>
<!-- Node1&#45;&gt;Node5 -->
<g id="edge4" class="edge"><title>Node1&#45;&gt;Node5</title>
<path fill="none" stroke="midnightblue" d="M648.212,-64.6023C623.94,-54.8283 590.09,-41.1972 564.83,-31.0253"/>
<polygon fill="midnightblue" stroke="midnightblue" points="647.068,-67.9147 657.652,-68.4035 649.683,-61.4214 647.068,-67.9147"/>
</g>
<!-- Node6 -->
<g id="node6" class="node"><title>Node6</title>
<g id="a_node6"><a xlink:href="../../d8/d3b/Fun4AllPrdfOutputManager_8cc.html" target="_top" xlink:title="fun4all/fun4all/Fun4AllPrdf\lOutputManager.cc">
<polygon fill="none" stroke="black" points="613.5,-1 613.5,-31 744.5,-31 744.5,-1 613.5,-1"/>
<text text-anchor="start" x="621.5" y="-19" font-family="FreeSans" font-size="10.00">fun4all/fun4all/Fun4AllPrdf</text>
<text text-anchor="middle" x="679" y="-8" font-family="FreeSans" font-size="10.00">OutputManager.cc</text>
</a>
</g>
</g>
<!-- Node1&#45;&gt;Node6 -->
<g id="edge5" class="edge"><title>Node1&#45;&gt;Node6</title>
<path fill="none" stroke="midnightblue" d="M679,-58.3707C679,-49.5849 679,-39.2721 679,-31.1408"/>
<polygon fill="midnightblue" stroke="midnightblue" points="675.5,-58.4034 679,-68.4035 682.5,-58.4035 675.5,-58.4034"/>
</g>
<!-- Node7 -->
<g id="node7" class="node"><title>Node7</title>
<g id="a_node7"><a xlink:href="../../d8/d7a/Fun4AllServer_8cc.html" target="_top" xlink:title="fun4all/fun4all/Fun4AllServer.cc">
<polygon fill="none" stroke="black" points="763,-6.5 763,-25.5 917,-25.5 917,-6.5 763,-6.5"/>
<text text-anchor="middle" x="840" y="-13.5" font-family="FreeSans" font-size="10.00">fun4all/fun4all/Fun4AllServer.cc</text>
</a>
</g>
</g>
<!-- Node1&#45;&gt;Node7 -->
<g id="edge6" class="edge"><title>Node1&#45;&gt;Node7</title>
<path fill="none" stroke="midnightblue" d="M711.652,-64.8315C742.945,-53.1697 789.378,-35.8655 816.975,-25.5806"/>
<polygon fill="midnightblue" stroke="midnightblue" points="710.216,-61.6316 702.067,-68.4035 712.66,-68.191 710.216,-61.6316"/>
</g>
<!-- Node8 -->
<g id="node8" class="node"><title>Node8</title>
<g id="a_node8"><a xlink:href="../../df/d03/Fun4AllSyncManager_8cc.html" target="_top" xlink:title="fun4all/fun4all/Fun4AllSync\lManager.cc">
<polygon fill="none" stroke="black" points="935,-1 935,-31 1069,-31 1069,-1 935,-1"/>
<text text-anchor="start" x="943" y="-19" font-family="FreeSans" font-size="10.00">fun4all/fun4all/Fun4AllSync</text>
<text text-anchor="middle" x="1002" y="-8" font-family="FreeSans" font-size="10.00">Manager.cc</text>
</a>
</g>
</g>
<!-- Node1&#45;&gt;Node8 -->
<g id="edge7" class="edge"><title>Node1&#45;&gt;Node8</title>
<path fill="none" stroke="midnightblue" d="M736.846,-66.7083C786.931,-57.7384 861.298,-44.2784 926,-32 928.907,-31.4484 931.875,-30.8808 934.874,-30.304"/>
<polygon fill="midnightblue" stroke="midnightblue" points="736.079,-63.29 726.851,-68.4965 737.311,-70.1806 736.079,-63.29"/>
</g>
<!-- Node9 -->
<g id="node9" class="node"><title>Node9</title>
<g id="a_node9"><a xlink:href="../../d4/d30/PHRandomSeed_8cc.html" target="_top" xlink:title="fun4all/phool/PHRandomSeed.cc">
<polygon fill="none" stroke="black" points="1087,-6.5 1087,-25.5 1247,-25.5 1247,-6.5 1087,-6.5"/>
<text text-anchor="middle" x="1167" y="-13.5" font-family="FreeSans" font-size="10.00">fun4all/phool/PHRandomSeed.cc</text>
</a>
</g>
</g>
<!-- Node1&#45;&gt;Node9 -->
<g id="edge8" class="edge"><title>Node1&#45;&gt;Node9</title>
<path fill="none" stroke="midnightblue" d="M754.833,-69.6932C835.214,-61.657 965.791,-47.7714 1078,-32 1091.34,-30.1244 1105.77,-27.8161 1119.04,-25.5776"/>
<polygon fill="midnightblue" stroke="midnightblue" points="754.405,-66.2184 744.801,-70.6919 755.098,-73.184 754.405,-66.2184"/>
</g>
<!-- Node10 -->
<g id="node10" class="node"><title>Node10</title>
<g id="a_node10"><a xlink:href="../../d7/df1/recoConsts_8cc.html" target="_top" xlink:title="fun4all/phool/recoConsts.cc">
<polygon fill="none" stroke="black" points="1265.5,-6.5 1265.5,-25.5 1402.5,-25.5 1402.5,-6.5 1265.5,-6.5"/>
<text text-anchor="middle" x="1334" y="-13.5" font-family="FreeSans" font-size="10.00">fun4all/phool/recoConsts.cc</text>
</a>
</g>
</g>
<!-- Node1&#45;&gt;Node10 -->
<g id="edge9" class="edge"><title>Node1&#45;&gt;Node10</title>
<path fill="none" stroke="midnightblue" d="M754.635,-73.8097C865.161,-68.5349 1077.12,-56.0986 1256,-32 1268.44,-30.3246 1281.89,-27.945 1294.06,-25.5734"/>
<polygon fill="midnightblue" stroke="midnightblue" points="754.408,-70.3164 744.584,-74.2829 754.737,-77.3086 754.408,-70.3164"/>
</g>
</g>
</svg>
