<?xml version="1.0" encoding="UTF-8" standalone="no"?>
<!DOCTYPE svg PUBLIC "-//W3C//DTD SVG 1.1//EN"
 "http://www.w3.org/Graphics/SVG/1.1/DTD/svg11.dtd">
<!-- Generated by graphviz version 2.36.0 (20140111.2315)
 -->
<!-- Title: Fun4AllFileOutStream::WriteEventOut Pages: 1 -->
<svg width="460pt" height="71pt"
 viewBox="0.00 0.00 460.00 71.00" xmlns="http://www.w3.org/2000/svg" xmlns:xlink="http://www.w3.org/1999/xlink">
<g id="graph0" class="graph" transform="scale(1 1) rotate(0) translate(4 67)">
<title>Fun4AllFileOutStream::WriteEventOut</title>
<!-- Node1 -->
<g id="node1" class="node"><title>Node1</title>
<polygon fill="#bfbfbf" stroke="black" points="0.5,-19 0.5,-49 113.5,-49 113.5,-19 0.5,-19"/>
<text text-anchor="start" x="8.5" y="-37" font-family="FreeSans" font-size="10.00">Fun4AllFileOutStream</text>
<text text-anchor="middle" x="57" y="-26" font-family="FreeSans" font-size="10.00">::WriteEventOut</text>
</g>
<!-- Node2 -->
<g id="node2" class="node"><title>Node2</title>
<g id="a_node2"><a xlink:href="../../da/d29/classFun4AllServer.html#a3e55156f91b2c94bb6c4ef33ffce587a" target="_top" xlink:title="Fun4AllServer::instance">
<polygon fill="none" stroke="black" points="168.5,-43.5 168.5,-62.5 287.5,-62.5 287.5,-43.5 168.5,-43.5"/>
<text text-anchor="middle" x="228" y="-50.5" font-family="FreeSans" font-size="10.00">Fun4AllServer::instance</text>
</a>
</g>
</g>
<!-- Node1&#45;&gt;Node2 -->
<g id="edge1" class="edge"><title>Node1&#45;&gt;Node2</title>
<path fill="none" stroke="midnightblue" d="M113.805,-40.274C128.023,-41.8724 143.47,-43.609 158.25,-45.2708"/>
<polygon fill="midnightblue" stroke="midnightblue" points="158.025,-48.7674 168.353,-46.4066 158.807,-41.8112 158.025,-48.7674"/>
</g>
<!-- Node3 -->
<g id="node3" class="node"><title>Node3</title>
<g id="a_node3"><a xlink:href="../../da/d29/classFun4AllServer.html#a93e4cbf9cae3a4e5fa33ffc9dcc28eda" target="_top" xlink:title="Fun4AllServer::SegmentNumber">
<polygon fill="none" stroke="black" points="150,-5.5 150,-24.5 306,-24.5 306,-5.5 150,-5.5"/>
<text text-anchor="middle" x="228" y="-12.5" font-family="FreeSans" font-size="10.00">Fun4AllServer::SegmentNumber</text>
</a>
</g>
</g>
<!-- Node1&#45;&gt;Node3 -->
<g id="edge2" class="edge"><title>Node1&#45;&gt;Node3</title>
<path fill="none" stroke="midnightblue" d="M113.805,-27.726C122.188,-26.7836 130.998,-25.7931 139.847,-24.7983"/>
<polygon fill="midnightblue" stroke="midnightblue" points="140.287,-28.2709 149.833,-23.6755 139.505,-21.3148 140.287,-28.2709"/>
</g>
<!-- Node4 -->
<g id="node4" class="node"><title>Node4</title>
<g id="a_node4"><a xlink:href="../../dd/ded/classFun4AllSyncManager.html#a93aacc6fad1df130cc850ae8c6449b7f" target="_top" xlink:title="Fun4AllSyncManager\l::SegmentNumber">
<polygon fill="none" stroke="black" points="342.5,-0 342.5,-30 451.5,-30 451.5,-0 342.5,-0"/>
<text text-anchor="start" x="350.5" y="-18" font-family="FreeSans" font-size="10.00">Fun4AllSyncManager</text>
<text text-anchor="middle" x="397" y="-7" font-family="FreeSans" font-size="10.00">::SegmentNumber</text>
</a>
</g>
</g>
<!-- Node3&#45;&gt;Node4 -->
<g id="edge3" class="edge"><title>Node3&#45;&gt;Node4</title>
<path fill="none" stroke="midnightblue" d="M306.145,-15C314.773,-15 323.492,-15 331.93,-15"/>
<polygon fill="midnightblue" stroke="midnightblue" points="332.059,-18.5001 342.059,-15 332.059,-11.5001 332.059,-18.5001"/>
</g>
</g>
</svg>
