<?xml version="1.0" encoding="UTF-8" standalone="no"?>
<!DOCTYPE svg PUBLIC "-//W3C//DTD SVG 1.1//EN"
 "http://www.w3.org/Graphics/SVG/1.1/DTD/svg11.dtd">
<!-- Generated by graphviz version 2.36.0 (20140111.2315)
 -->
<!-- Title: boost::shared_ptr::swap Pages: 1 -->
<svg width="444pt" height="158pt"
 viewBox="0.00 0.00 444.00 158.00" xmlns="http://www.w3.org/2000/svg" xmlns:xlink="http://www.w3.org/1999/xlink">
<g id="graph0" class="graph" transform="scale(1 1) rotate(0) translate(4 154)">
<title>boost::shared_ptr::swap</title>
<!-- Node1 -->
<g id="node1" class="node"><title>Node1</title>
<polygon fill="#bfbfbf" stroke="black" points="0.5,-38.5 0.5,-57.5 119.5,-57.5 119.5,-38.5 0.5,-38.5"/>
<text text-anchor="middle" x="60" y="-45.5" font-family="FreeSans" font-size="10.00">boost::shared_ptr::swap</text>
</g>
<!-- Node2 -->
<g id="node2" class="node"><title>Node2</title>
<g id="a_node2"><a xlink:href="../../d4/da9/namespaceboost.html#a8940021c293d75b997d0a2fd57fb97f4" target="_top" xlink:title="boost::atomic_compare\l_exchange">
<polygon fill="none" stroke="black" points="158.5,-117 158.5,-147 275.5,-147 275.5,-117 158.5,-117"/>
<text text-anchor="start" x="166.5" y="-135" font-family="FreeSans" font-size="10.00">boost::atomic_compare</text>
<text text-anchor="middle" x="217" y="-124" font-family="FreeSans" font-size="10.00">_exchange</text>
</a>
</g>
</g>
<!-- Node1&#45;&gt;Node2 -->
<g id="edge1" class="edge"><title>Node1&#45;&gt;Node2</title>
<path fill="none" stroke="midnightblue" d="M84.3916,-63.0891C103.355,-75.063 130.95,-91.9068 156,-105 163.896,-109.127 172.551,-113.246 180.768,-116.978"/>
<polygon fill="midnightblue" stroke="midnightblue" points="86.1407,-60.0536 75.8244,-57.6399 82.3838,-65.9601 86.1407,-60.0536"/>
</g>
<!-- Node4 -->
<g id="node4" class="node"><title>Node4</title>
<g id="a_node4"><a xlink:href="../../d4/da9/namespaceboost.html#a6d367cd4931325d822c116faf5d8b6a5" target="_top" xlink:title="boost::atomic_exchange">
<polygon fill="none" stroke="black" points="156.5,-76.5 156.5,-95.5 277.5,-95.5 277.5,-76.5 156.5,-76.5"/>
<text text-anchor="middle" x="217" y="-83.5" font-family="FreeSans" font-size="10.00">boost::atomic_exchange</text>
</a>
</g>
</g>
<!-- Node1&#45;&gt;Node4 -->
<g id="edge3" class="edge"><title>Node1&#45;&gt;Node4</title>
<path fill="none" stroke="midnightblue" d="M110.111,-60.04C131.765,-65.3488 156.85,-71.4988 177.168,-76.4799"/>
<polygon fill="midnightblue" stroke="midnightblue" points="110.659,-56.5708 100.113,-57.589 108.992,-63.3695 110.659,-56.5708"/>
</g>
<!-- Node6 -->
<g id="node6" class="node"><title>Node6</title>
<g id="a_node6"><a xlink:href="../../d4/da9/namespaceboost.html#a8ad2de7e358794f915f6324942ff57d7" target="_top" xlink:title="boost::atomic_store">
<polygon fill="none" stroke="black" points="166.5,-38.5 166.5,-57.5 267.5,-57.5 267.5,-38.5 166.5,-38.5"/>
<text text-anchor="middle" x="217" y="-45.5" font-family="FreeSans" font-size="10.00">boost::atomic_store</text>
</a>
</g>
</g>
<!-- Node1&#45;&gt;Node6 -->
<g id="edge5" class="edge"><title>Node1&#45;&gt;Node6</title>
<path fill="none" stroke="midnightblue" d="M129.851,-48C142.171,-48 154.786,-48 166.431,-48"/>
<polygon fill="midnightblue" stroke="midnightblue" points="129.599,-44.5001 119.599,-48 129.599,-51.5001 129.599,-44.5001"/>
</g>
<!-- Node8 -->
<g id="node8" class="node"><title>Node8</title>
<g id="a_node8"><a xlink:href="../../d4/da9/namespaceboost.html#a51f2976f1c5b8cf202f9b843361c56d0" target="_top" xlink:title="boost::swap">
<polygon fill="none" stroke="black" points="183,-0.5 183,-19.5 251,-19.5 251,-0.5 183,-0.5"/>
<text text-anchor="middle" x="217" y="-7.5" font-family="FreeSans" font-size="10.00">boost::swap</text>
</a>
</g>
</g>
<!-- Node1&#45;&gt;Node8 -->
<g id="edge7" class="edge"><title>Node1&#45;&gt;Node8</title>
<path fill="none" stroke="midnightblue" d="M90.7472,-35.2579C117.096,-27.1342 155.513,-17.6483 182.843,-12.4768"/>
<polygon fill="midnightblue" stroke="midnightblue" points="89.3958,-32.0158 80.9462,-38.4076 91.5376,-38.6801 89.3958,-32.0158"/>
</g>
<!-- Node3 -->
<g id="node3" class="node"><title>Node3</title>
<g id="a_node3"><a xlink:href="../../d4/da9/namespaceboost.html#a469f2906c0424b86520ecf5d00d6aa1f" target="_top" xlink:title="boost::atomic_compare\l_exchange_explicit">
<polygon fill="none" stroke="black" points="316.5,-120 316.5,-150 433.5,-150 433.5,-120 316.5,-120"/>
<text text-anchor="start" x="324.5" y="-138" font-family="FreeSans" font-size="10.00">boost::atomic_compare</text>
<text text-anchor="middle" x="375" y="-127" font-family="FreeSans" font-size="10.00">_exchange_explicit</text>
</a>
</g>
</g>
<!-- Node2&#45;&gt;Node3 -->
<g id="edge2" class="edge"><title>Node2&#45;&gt;Node3</title>
<path fill="none" stroke="midnightblue" d="M285.737,-133.303C295.935,-133.499 306.371,-133.699 316.331,-133.891"/>
<polygon fill="midnightblue" stroke="midnightblue" points="285.711,-129.802 275.645,-133.109 285.576,-136.8 285.711,-129.802"/>
</g>
<!-- Node5 -->
<g id="node5" class="node"><title>Node5</title>
<g id="a_node5"><a xlink:href="../../d4/da9/namespaceboost.html#a7ec0dbdf68fd610df03b2336c97c0a9d" target="_top" xlink:title="boost::atomic_exchange\l_explicit">
<polygon fill="none" stroke="black" points="314.5,-71 314.5,-101 435.5,-101 435.5,-71 314.5,-71"/>
<text text-anchor="start" x="322.5" y="-89" font-family="FreeSans" font-size="10.00">boost::atomic_exchange</text>
<text text-anchor="middle" x="375" y="-78" font-family="FreeSans" font-size="10.00">_explicit</text>
</a>
</g>
</g>
<!-- Node4&#45;&gt;Node5 -->
<g id="edge4" class="edge"><title>Node4&#45;&gt;Node5</title>
<path fill="none" stroke="midnightblue" d="M288.06,-86C296.819,-86 305.712,-86 314.293,-86"/>
<polygon fill="midnightblue" stroke="midnightblue" points="287.868,-82.5001 277.868,-86 287.867,-89.5001 287.868,-82.5001"/>
</g>
<!-- Node7 -->
<g id="node7" class="node"><title>Node7</title>
<g id="a_node7"><a xlink:href="../../d4/da9/namespaceboost.html#a4502baaa62095798a53105d9455aa791" target="_top" xlink:title="boost::atomic_store\l_explicit">
<polygon fill="none" stroke="black" points="324.5,-22 324.5,-52 425.5,-52 425.5,-22 324.5,-22"/>
<text text-anchor="start" x="332.5" y="-40" font-family="FreeSans" font-size="10.00">boost::atomic_store</text>
<text text-anchor="middle" x="375" y="-29" font-family="FreeSans" font-size="10.00">_explicit</text>
</a>
</g>
</g>
<!-- Node6&#45;&gt;Node7 -->
<g id="edge6" class="edge"><title>Node6&#45;&gt;Node7</title>
<path fill="none" stroke="midnightblue" d="M278.186,-43.7561C293.473,-42.6782 309.724,-41.5323 324.417,-40.4962"/>
<polygon fill="midnightblue" stroke="midnightblue" points="277.517,-40.2945 267.788,-44.4893 278.01,-47.2771 277.517,-40.2945"/>
</g>
<!-- Node8&#45;&gt;Node1 -->
<g id="edge8" class="edge"><title>Node8&#45;&gt;Node1</title>
<path fill="none" stroke="midnightblue" d="M186.45,-22.6813C167.563,-28.5128 142.417,-35.0548 119.599,-40.2021"/>
<polygon fill="midnightblue" stroke="midnightblue" points="187.528,-26.0111 195.977,-19.6182 185.386,-19.3471 187.528,-26.0111"/>
</g>
</g>
</svg>
