<?xml version="1.0" encoding="UTF-8" standalone="no"?>
<!DOCTYPE svg PUBLIC "-//W3C//DTD SVG 1.1//EN"
 "http://www.w3.org/Graphics/SVG/1.1/DTD/svg11.dtd">
<!-- Generated by graphviz version 2.36.0 (20140111.2315)
 -->
<!-- Title: boost::shared_ptr::_internal_equiv Pages: 1 -->
<svg width="412pt" height="38pt"
 viewBox="0.00 0.00 412.00 38.00" xmlns="http://www.w3.org/2000/svg" xmlns:xlink="http://www.w3.org/1999/xlink">
<g id="graph0" class="graph" transform="scale(1 1) rotate(0) translate(4 34)">
<title>boost::shared_ptr::_internal_equiv</title>
<!-- Node1 -->
<g id="node1" class="node"><title>Node1</title>
<polygon fill="#bfbfbf" stroke="black" points="0.5,-0 0.5,-30 95.5,-30 95.5,-0 0.5,-0"/>
<text text-anchor="start" x="8.5" y="-18" font-family="FreeSans" font-size="10.00">boost::shared_ptr::</text>
<text text-anchor="middle" x="48" y="-7" font-family="FreeSans" font-size="10.00">_internal_equiv</text>
</g>
<!-- Node2 -->
<g id="node2" class="node"><title>Node2</title>
<g id="a_node2"><a xlink:href="../../d4/da9/namespaceboost.html#a8940021c293d75b997d0a2fd57fb97f4" target="_top" xlink:title="boost::atomic_compare\l_exchange">
<polygon fill="none" stroke="black" points="132.5,-0 132.5,-30 249.5,-30 249.5,-0 132.5,-0"/>
<text text-anchor="start" x="140.5" y="-18" font-family="FreeSans" font-size="10.00">boost::atomic_compare</text>
<text text-anchor="middle" x="191" y="-7" font-family="FreeSans" font-size="10.00">_exchange</text>
</a>
</g>
</g>
<!-- Node1&#45;&gt;Node2 -->
<g id="edge1" class="edge"><title>Node1&#45;&gt;Node2</title>
<path fill="none" stroke="midnightblue" d="M105.715,-15C114.511,-15 123.606,-15 132.422,-15"/>
<polygon fill="midnightblue" stroke="midnightblue" points="105.559,-11.5001 95.5594,-15 105.559,-18.5001 105.559,-11.5001"/>
</g>
<!-- Node3 -->
<g id="node3" class="node"><title>Node3</title>
<g id="a_node3"><a xlink:href="../../d4/da9/namespaceboost.html#a469f2906c0424b86520ecf5d00d6aa1f" target="_top" xlink:title="boost::atomic_compare\l_exchange_explicit">
<polygon fill="none" stroke="black" points="286.5,-0 286.5,-30 403.5,-30 403.5,-0 286.5,-0"/>
<text text-anchor="start" x="294.5" y="-18" font-family="FreeSans" font-size="10.00">boost::atomic_compare</text>
<text text-anchor="middle" x="345" y="-7" font-family="FreeSans" font-size="10.00">_exchange_explicit</text>
</a>
</g>
</g>
<!-- Node2&#45;&gt;Node3 -->
<g id="edge2" class="edge"><title>Node2&#45;&gt;Node3</title>
<path fill="none" stroke="midnightblue" d="M260.072,-15C268.817,-15 277.704,-15 286.263,-15"/>
<polygon fill="midnightblue" stroke="midnightblue" points="259.898,-11.5001 249.898,-15 259.898,-18.5001 259.898,-11.5001"/>
</g>
</g>
</svg>
