<?xml version="1.0" encoding="UTF-8" standalone="no"?>
<!DOCTYPE svg PUBLIC "-//W3C//DTD SVG 1.1//EN"
 "http://www.w3.org/Graphics/SVG/1.1/DTD/svg11.dtd">
<!-- Generated by graphviz version 2.36.0 (20140111.2315)
 -->
<!-- Title: boost::shared_ptr::get Pages: 1 -->
<svg width="286pt" height="267pt"
 viewBox="0.00 0.00 286.00 267.00" xmlns="http://www.w3.org/2000/svg" xmlns:xlink="http://www.w3.org/1999/xlink">
<g id="graph0" class="graph" transform="scale(1 1) rotate(0) translate(4 263)">
<title>boost::shared_ptr::get</title>
<!-- Node1 -->
<g id="node1" class="node"><title>Node1</title>
<polygon fill="#bfbfbf" stroke="black" points="0.5,-125.5 0.5,-144.5 109.5,-144.5 109.5,-125.5 0.5,-125.5"/>
<text text-anchor="middle" x="55" y="-132.5" font-family="FreeSans" font-size="10.00">boost::shared_ptr::get</text>
</g>
<!-- Node2 -->
<g id="node2" class="node"><title>Node2</title>
<g id="a_node2"><a xlink:href="../../d7/d41/classPHTimeServer_1_1timer.html#aba13655a0c8fa125f844a144a749a1ba" target="_top" xlink:title="PHTimeServer::timer::get">
<polygon fill="none" stroke="black" points="149.5,-239.5 149.5,-258.5 274.5,-258.5 274.5,-239.5 149.5,-239.5"/>
<text text-anchor="middle" x="212" y="-246.5" font-family="FreeSans" font-size="10.00">PHTimeServer::timer::get</text>
</a>
</g>
</g>
<!-- Node1&#45;&gt;Node2 -->
<g id="edge1" class="edge"><title>Node1&#45;&gt;Node2</title>
<path fill="none" stroke="midnightblue" d="M68.3154,-152.907C83.9553,-174.319 112.92,-209.791 146,-230 152.321,-233.861 159.467,-236.973 166.65,-239.47"/>
<polygon fill="midnightblue" stroke="midnightblue" points="71.1066,-150.793 62.4552,-144.677 65.4044,-154.853 71.1066,-150.793"/>
</g>
<!-- Node3 -->
<g id="node3" class="node"><title>Node3</title>
<g id="a_node3"><a xlink:href="../../d4/da9/namespaceboost.html#a4be51a051db8f2b55c8c07a5c7b73067" target="_top" xlink:title="boost::get_pointer">
<polygon fill="none" stroke="black" points="165.5,-201.5 165.5,-220.5 258.5,-220.5 258.5,-201.5 165.5,-201.5"/>
<text text-anchor="middle" x="212" y="-208.5" font-family="FreeSans" font-size="10.00">boost::get_pointer</text>
</a>
</g>
</g>
<!-- Node1&#45;&gt;Node3 -->
<g id="edge2" class="edge"><title>Node1&#45;&gt;Node3</title>
<path fill="none" stroke="midnightblue" d="M76.8557,-150.595C94.5112,-163.198 120.884,-180.649 146,-192 154.142,-195.68 163.179,-198.849 171.861,-201.487"/>
<polygon fill="midnightblue" stroke="midnightblue" points="78.6184,-147.55 68.4705,-144.505 74.5047,-153.213 78.6184,-147.55"/>
</g>
<!-- Node4 -->
<g id="node4" class="node"><title>Node4</title>
<g id="a_node4"><a xlink:href="../../d4/da9/namespaceboost.html#a5bca099a20885bd9e4431a1717c1f155" target="_top" xlink:title="boost::hash_value">
<polygon fill="none" stroke="black" points="164.5,-163.5 164.5,-182.5 259.5,-182.5 259.5,-163.5 164.5,-163.5"/>
<text text-anchor="middle" x="212" y="-170.5" font-family="FreeSans" font-size="10.00">boost::hash_value</text>
</a>
</g>
</g>
<!-- Node1&#45;&gt;Node4 -->
<g id="edge3" class="edge"><title>Node1&#45;&gt;Node4</title>
<path fill="none" stroke="midnightblue" d="M105.111,-147.04C126.765,-152.349 151.85,-158.499 172.168,-163.48"/>
<polygon fill="midnightblue" stroke="midnightblue" points="105.659,-143.571 95.113,-144.589 103.992,-150.37 105.659,-143.571"/>
</g>
<!-- Node5 -->
<g id="node5" class="node"><title>Node5</title>
<g id="a_node5"><a xlink:href="../../d4/da9/namespaceboost.html#a482e32417a7039a3f008f08402183073" target="_top" xlink:title="boost::operator!=">
<polygon fill="none" stroke="black" points="167.5,-125.5 167.5,-144.5 256.5,-144.5 256.5,-125.5 167.5,-125.5"/>
<text text-anchor="middle" x="212" y="-132.5" font-family="FreeSans" font-size="10.00">boost::operator!=</text>
</a>
</g>
</g>
<!-- Node1&#45;&gt;Node5 -->
<g id="edge4" class="edge"><title>Node1&#45;&gt;Node5</title>
<path fill="none" stroke="midnightblue" d="M120.081,-135C135.976,-135 152.647,-135 167.311,-135"/>
<polygon fill="midnightblue" stroke="midnightblue" points="119.777,-131.5 109.776,-135 119.776,-138.5 119.777,-131.5"/>
</g>
<!-- Node6 -->
<g id="node6" class="node"><title>Node6</title>
<g id="a_node6"><a xlink:href="../../d4/da9/namespaceboost.html#ae634c47469bc449ed15aa57d4ed22040" target="_top" xlink:title="boost::operator\&lt;\&lt;">
<polygon fill="none" stroke="black" points="166,-87.5 166,-106.5 258,-106.5 258,-87.5 166,-87.5"/>
<text text-anchor="middle" x="212" y="-94.5" font-family="FreeSans" font-size="10.00">boost::operator&lt;&lt;</text>
</a>
</g>
</g>
<!-- Node1&#45;&gt;Node6 -->
<g id="edge5" class="edge"><title>Node1&#45;&gt;Node6</title>
<path fill="none" stroke="midnightblue" d="M105.111,-122.96C126.765,-117.651 151.85,-111.501 172.168,-106.52"/>
<polygon fill="midnightblue" stroke="midnightblue" points="103.992,-119.63 95.113,-125.411 105.659,-126.429 103.992,-119.63"/>
</g>
<!-- Node7 -->
<g id="node7" class="node"><title>Node7</title>
<g id="a_node7"><a xlink:href="../../d4/da9/namespaceboost.html#a0d13c95d2b025c1b69ce9a0f9af8be1d" target="_top" xlink:title="boost::operator==">
<polygon fill="none" stroke="black" points="166,-49.5 166,-68.5 258,-68.5 258,-49.5 166,-49.5"/>
<text text-anchor="middle" x="212" y="-56.5" font-family="FreeSans" font-size="10.00">boost::operator==</text>
</a>
</g>
</g>
<!-- Node1&#45;&gt;Node7 -->
<g id="edge6" class="edge"><title>Node1&#45;&gt;Node7</title>
<path fill="none" stroke="midnightblue" d="M76.8557,-119.405C94.5112,-106.802 120.884,-89.3513 146,-78 154.142,-74.3201 163.179,-71.1505 171.861,-68.5127"/>
<polygon fill="midnightblue" stroke="midnightblue" points="74.5047,-116.787 68.4705,-125.495 78.6184,-122.45 74.5047,-116.787"/>
</g>
<!-- Node8 -->
<g id="node8" class="node"><title>Node8</title>
<g id="a_node8"><a xlink:href="../../d4/da9/namespaceboost.html#ad558828fcc0bfae3bc9498888419693b" target="_top" xlink:title="boost::shared_polymorphic\l_downcast">
<polygon fill="none" stroke="black" points="146.5,-0 146.5,-30 277.5,-30 277.5,-0 146.5,-0"/>
<text text-anchor="start" x="154.5" y="-18" font-family="FreeSans" font-size="10.00">boost::shared_polymorphic</text>
<text text-anchor="middle" x="212" y="-7" font-family="FreeSans" font-size="10.00">_downcast</text>
</a>
</g>
</g>
<!-- Node1&#45;&gt;Node8 -->
<g id="edge7" class="edge"><title>Node1&#45;&gt;Node8</title>
<path fill="none" stroke="midnightblue" d="M68.85,-117.22C84.8322,-96.2235 113.95,-61.45 146,-40 151.627,-36.2342 157.902,-32.9196 164.273,-30.0391"/>
<polygon fill="midnightblue" stroke="midnightblue" points="66.0012,-115.186 62.8344,-125.296 71.615,-119.367 66.0012,-115.186"/>
</g>
</g>
</svg>
