<?xml version="1.0" encoding="UTF-8" standalone="no"?>
<!DOCTYPE svg PUBLIC "-//W3C//DTD SVG 1.1//EN"
 "http://www.w3.org/Graphics/SVG/1.1/DTD/svg11.dtd">
<!-- Generated by graphviz version 2.36.0 (20140111.2315)
 -->
<!-- Title: fun4all/fun4all/Fun4AllSyncManager.cc Pages: 1 -->
<svg width="1768pt" height="488pt"
 viewBox="0.00 0.00 1768.00 488.00" xmlns="http://www.w3.org/2000/svg" xmlns:xlink="http://www.w3.org/1999/xlink">
<g id="graph0" class="graph" transform="scale(1 1) rotate(0) translate(4 484)">
<title>fun4all/fun4all/Fun4AllSyncManager.cc</title>
<!-- Node1 -->
<g id="node1" class="node"><title>Node1</title>
<polygon fill="#bfbfbf" stroke="black" points="937,-449 937,-479 1071,-479 1071,-449 937,-449"/>
<text text-anchor="start" x="945" y="-467" font-family="FreeSans" font-size="10.00">fun4all/fun4all/Fun4AllSync</text>
<text text-anchor="middle" x="1004" y="-456" font-family="FreeSans" font-size="10.00">Manager.cc</text>
</g>
<!-- Node2 -->
<g id="node2" class="node"><title>Node2</title>
<g id="a_node2"><a xlink:href="../../d9/ddf/Fun4AllSyncManager_8h.html" target="_top" xlink:title="Fun4AllSyncManager.h">
<polygon fill="none" stroke="black" points="25,-224.5 25,-243.5 141,-243.5 141,-224.5 25,-224.5"/>
<text text-anchor="middle" x="83" y="-231.5" font-family="FreeSans" font-size="10.00">Fun4AllSyncManager.h</text>
</a>
</g>
</g>
<!-- Node1&#45;&gt;Node2 -->
<g id="edge1" class="edge"><title>Node1&#45;&gt;Node2</title>
<path fill="none" stroke="midnightblue" d="M936.703,-462.725C749.659,-461.428 233.124,-454.038 170,-412 114.213,-374.848 92.873,-291.023 85.9184,-253.624"/>
<polygon fill="midnightblue" stroke="midnightblue" points="89.341,-252.875 84.1997,-243.611 82.4419,-254.059 89.341,-252.875"/>
</g>
<!-- Node4 -->
<g id="node4" class="node"><title>Node4</title>
<polygon fill="none" stroke="#bfbfbf" points="864.5,-56.5 864.5,-75.5 905.5,-75.5 905.5,-56.5 864.5,-56.5"/>
<text text-anchor="middle" x="885" y="-63.5" font-family="FreeSans" font-size="10.00">string</text>
</g>
<!-- Node1&#45;&gt;Node4 -->
<g id="edge77" class="edge"><title>Node1&#45;&gt;Node4</title>
<path fill="none" stroke="midnightblue" d="M997.805,-448.992C980.383,-409.045 930.501,-290.815 904,-188 894.832,-152.432 889.386,-109.774 886.813,-85.7868"/>
<polygon fill="midnightblue" stroke="midnightblue" points="890.273,-85.2177 885.777,-75.6242 883.309,-85.9277 890.273,-85.2177"/>
</g>
<!-- Node7 -->
<g id="node7" class="node"><title>Node7</title>
<polygon fill="none" stroke="#bfbfbf" points="86,-168.5 86,-187.5 130,-187.5 130,-168.5 86,-168.5"/>
<text text-anchor="middle" x="108" y="-175.5" font-family="FreeSans" font-size="10.00">vector</text>
</g>
<!-- Node1&#45;&gt;Node7 -->
<g id="edge78" class="edge"><title>Node1&#45;&gt;Node7</title>
<path fill="none" stroke="midnightblue" d="M936.896,-460.538C741.056,-452.467 184,-422.843 184,-347 184,-347 184,-347 184,-289 184,-249.276 150.036,-213.504 127.518,-194.154"/>
<polygon fill="midnightblue" stroke="midnightblue" points="129.482,-191.236 119.543,-187.567 125.024,-196.634 129.482,-191.236"/>
</g>
<!-- Node8 -->
<g id="node8" class="node"><title>Node8</title>
<g id="a_node8"><a xlink:href="../../d1/de7/Fun4AllInputManager_8h.html" target="_top" xlink:title="Fun4AllInputManager.h">
<polygon fill="none" stroke="black" points="227,-224.5 227,-243.5 343,-243.5 343,-224.5 227,-224.5"/>
<text text-anchor="middle" x="285" y="-231.5" font-family="FreeSans" font-size="10.00">Fun4AllInputManager.h</text>
</a>
</g>
</g>
<!-- Node1&#45;&gt;Node8 -->
<g id="edge7" class="edge"><title>Node1&#45;&gt;Node8</title>
<path fill="none" stroke="midnightblue" d="M936.867,-457.915C869.736,-451.591 764.088,-438.255 676,-412 530.567,-368.653 369.067,-282.251 309.11,-248.734"/>
<polygon fill="midnightblue" stroke="midnightblue" points="310.493,-245.496 300.061,-243.645 307.061,-251.598 310.493,-245.496"/>
</g>
<!-- Node11 -->
<g id="node11" class="node"><title>Node11</title>
<g id="a_node11"><a xlink:href="../../d0/d60/Fun4AllHistoBinDefs_8h.html" target="_top" xlink:title="Fun4AllHistoBinDefs.h">
<polygon fill="none" stroke="black" points="716.5,-392.5 716.5,-411.5 831.5,-411.5 831.5,-392.5 716.5,-392.5"/>
<text text-anchor="middle" x="774" y="-399.5" font-family="FreeSans" font-size="10.00">Fun4AllHistoBinDefs.h</text>
</a>
</g>
</g>
<!-- Node1&#45;&gt;Node11 -->
<g id="edge13" class="edge"><title>Node1&#45;&gt;Node11</title>
<path fill="none" stroke="midnightblue" d="M950.075,-448.933C909.418,-438.326 854.413,-423.977 816.764,-414.156"/>
<polygon fill="midnightblue" stroke="midnightblue" points="817.192,-410.65 806.632,-411.513 815.425,-417.424 817.192,-410.65"/>
</g>
<!-- Node12 -->
<g id="node12" class="node"><title>Node12</title>
<g id="a_node12"><a xlink:href="../../dc/da2/Fun4AllServer_8h.html" target="_top" xlink:title="Fun4AllServer.h">
<polygon fill="none" stroke="black" points="523,-224.5 523,-243.5 609,-243.5 609,-224.5 523,-224.5"/>
<text text-anchor="middle" x="566" y="-231.5" font-family="FreeSans" font-size="10.00">Fun4AllServer.h</text>
</a>
</g>
</g>
<!-- Node1&#45;&gt;Node12 -->
<g id="edge14" class="edge"><title>Node1&#45;&gt;Node12</title>
<path fill="none" stroke="midnightblue" d="M936.924,-457.063C861.604,-449.433 744.939,-434.438 707,-412 640.544,-372.696 593.027,-289.428 574.535,-252.858"/>
<polygon fill="midnightblue" stroke="midnightblue" points="577.658,-251.279 570.097,-243.857 571.38,-254.374 577.658,-251.279"/>
</g>
<!-- Node19 -->
<g id="node19" class="node"><title>Node19</title>
<g id="a_node19"><a xlink:href="../../d2/dcb/recoConsts_8h.html" target="_top" xlink:title="phool/recoConsts.h">
<polygon fill="none" stroke="black" points="770,-280.5 770,-299.5 870,-299.5 870,-280.5 770,-280.5"/>
<text text-anchor="middle" x="820" y="-287.5" font-family="FreeSans" font-size="10.00">phool/recoConsts.h</text>
</a>
</g>
</g>
<!-- Node1&#45;&gt;Node19 -->
<g id="edge29" class="edge"><title>Node1&#45;&gt;Node19</title>
<path fill="none" stroke="midnightblue" d="M950.228,-448.919C927.747,-440.952 902.587,-429.076 884,-412 852.609,-383.16 833.787,-335.33 825.332,-309.281"/>
<polygon fill="midnightblue" stroke="midnightblue" points="828.629,-308.093 822.337,-299.569 821.94,-310.156 828.629,-308.093"/>
</g>
<!-- Node21 -->
<g id="node21" class="node"><title>Node21</title>
<g id="a_node21"><a xlink:href="../../da/d61/RunHeader_8h.html" target="_top" xlink:title="ffaobjects/RunHeader.h">
<polygon fill="none" stroke="black" points="1260,-392.5 1260,-411.5 1378,-411.5 1378,-392.5 1260,-392.5"/>
<text text-anchor="middle" x="1319" y="-399.5" font-family="FreeSans" font-size="10.00">ffaobjects/RunHeader.h</text>
</a>
</g>
</g>
<!-- Node1&#45;&gt;Node21 -->
<g id="edge33" class="edge"><title>Node1&#45;&gt;Node21</title>
<path fill="none" stroke="midnightblue" d="M1071.19,-450.202C1128.73,-439.241 1210.57,-423.653 1264.22,-413.435"/>
<polygon fill="midnightblue" stroke="midnightblue" points="1265.05,-416.839 1274.22,-411.529 1263.74,-409.962 1265.05,-416.839"/>
</g>
<!-- Node25 -->
<g id="node25" class="node"><title>Node25</title>
<g id="a_node25"><a xlink:href="../../da/de1/ffaobjects_2SyncObject_8h.html" target="_top" xlink:title="ffaobjects/SyncObject.h">
<polygon fill="none" stroke="black" points="1396.5,-392.5 1396.5,-411.5 1515.5,-411.5 1515.5,-392.5 1396.5,-392.5"/>
<text text-anchor="middle" x="1456" y="-399.5" font-family="FreeSans" font-size="10.00">ffaobjects/SyncObject.h</text>
</a>
</g>
</g>
<!-- Node1&#45;&gt;Node25 -->
<g id="edge39" class="edge"><title>Node1&#45;&gt;Node25</title>
<path fill="none" stroke="midnightblue" d="M1071.18,-454.082C1155.78,-442.852 1300.42,-423.652 1386.23,-412.261"/>
<polygon fill="midnightblue" stroke="midnightblue" points="1386.94,-415.698 1396.39,-410.912 1386.02,-408.759 1386.94,-415.698"/>
</g>
<!-- Node26 -->
<g id="node26" class="node"><title>Node26</title>
<g id="a_node26"><a xlink:href="../../d3/d79/PHIODataNode_8h.html" target="_top" xlink:title="phool/PHIODataNode.h">
<polygon fill="none" stroke="black" points="1037.5,-392.5 1037.5,-411.5 1156.5,-411.5 1156.5,-392.5 1037.5,-392.5"/>
<text text-anchor="middle" x="1097" y="-399.5" font-family="FreeSans" font-size="10.00">phool/PHIODataNode.h</text>
</a>
</g>
</g>
<!-- Node1&#45;&gt;Node26 -->
<g id="edge42" class="edge"><title>Node1&#45;&gt;Node26</title>
<path fill="none" stroke="midnightblue" d="M1026.04,-448.781C1040.9,-439.196 1060.41,-426.606 1075.21,-417.056"/>
<polygon fill="midnightblue" stroke="midnightblue" points="1077.23,-419.918 1083.74,-411.556 1073.44,-414.036 1077.23,-419.918"/>
</g>
<!-- Node33 -->
<g id="node33" class="node"><title>Node33</title>
<g id="a_node33"><a xlink:href="../../db/d17/PHTypedNodeIterator_8h.html" target="_top" xlink:title="PHTypedNodeIterator.h">
<polygon fill="none" stroke="black" points="1193.5,-336.5 1193.5,-355.5 1312.5,-355.5 1312.5,-336.5 1193.5,-336.5"/>
<text text-anchor="middle" x="1253" y="-343.5" font-family="FreeSans" font-size="10.00">PHTypedNodeIterator.h</text>
</a>
</g>
</g>
<!-- Node1&#45;&gt;Node33 -->
<g id="edge73" class="edge"><title>Node1&#45;&gt;Node33</title>
<path fill="none" stroke="midnightblue" d="M1064.34,-448.959C1095.39,-440.49 1133.26,-428.181 1165,-412 1191.51,-398.483 1218.54,-377.162 1235.51,-362.654"/>
<polygon fill="midnightblue" stroke="midnightblue" points="1238.18,-364.974 1243.42,-355.766 1233.58,-359.696 1238.18,-364.974"/>
</g>
<!-- Node39 -->
<g id="node39" class="node"><title>Node39</title>
<polygon fill="none" stroke="#bfbfbf" points="1534,-392.5 1534,-411.5 1628,-411.5 1628,-392.5 1534,-392.5"/>
<text text-anchor="middle" x="1581" y="-399.5" font-family="FreeSans" font-size="10.00">boost/foreach.hpp</text>
</g>
<!-- Node1&#45;&gt;Node39 -->
<g id="edge74" class="edge"><title>Node1&#45;&gt;Node39</title>
<path fill="none" stroke="midnightblue" d="M1071.04,-457.694C1168.29,-449.716 1354.37,-433.393 1523.66,-411.966"/>
<polygon fill="midnightblue" stroke="midnightblue" points="1524.28,-415.415 1533.75,-410.679 1523.39,-408.472 1524.28,-415.415"/>
</g>
<!-- Node40 -->
<g id="node40" class="node"><title>Node40</title>
<polygon fill="none" stroke="#bfbfbf" points="1646.5,-392.5 1646.5,-411.5 1691.5,-411.5 1691.5,-392.5 1646.5,-392.5"/>
<text text-anchor="middle" x="1669" y="-399.5" font-family="FreeSans" font-size="10.00">cstdlib</text>
</g>
<!-- Node1&#45;&gt;Node40 -->
<g id="edge75" class="edge"><title>Node1&#45;&gt;Node40</title>
<path fill="none" stroke="midnightblue" d="M1071.07,-461.854C1185.42,-458.969 1425.33,-448.876 1636.37,-411.73"/>
<polygon fill="midnightblue" stroke="midnightblue" points="1637.17,-415.143 1646.4,-409.941 1635.94,-408.252 1637.17,-415.143"/>
</g>
<!-- Node41 -->
<g id="node41" class="node"><title>Node41</title>
<polygon fill="none" stroke="#bfbfbf" points="1709.5,-392.5 1709.5,-411.5 1760.5,-411.5 1760.5,-392.5 1709.5,-392.5"/>
<text text-anchor="middle" x="1735" y="-399.5" font-family="FreeSans" font-size="10.00">memory</text>
</g>
<!-- Node1&#45;&gt;Node41 -->
<g id="edge76" class="edge"><title>Node1&#45;&gt;Node41</title>
<path fill="none" stroke="midnightblue" d="M1071.17,-462.054C1194.11,-459.455 1463.57,-449.749 1699.36,-411.773"/>
<polygon fill="midnightblue" stroke="midnightblue" points="1700.19,-415.183 1709.5,-410.119 1699.06,-408.274 1700.19,-415.183"/>
</g>
<!-- Node3 -->
<g id="node3" class="node"><title>Node3</title>
<g id="a_node3"><a xlink:href="../../d2/de7/Fun4AllBase_8h.html" target="_top" xlink:title="Fun4AllBase.h">
<polygon fill="none" stroke="black" points="237,-112.5 237,-131.5 317,-131.5 317,-112.5 237,-112.5"/>
<text text-anchor="middle" x="277" y="-119.5" font-family="FreeSans" font-size="10.00">Fun4AllBase.h</text>
</a>
</g>
</g>
<!-- Node2&#45;&gt;Node3 -->
<g id="edge2" class="edge"><title>Node2&#45;&gt;Node3</title>
<path fill="none" stroke="midnightblue" d="M78.752,-224.331C72.7723,-210.738 63.9738,-184.283 77,-168 95.3944,-145.007 173.567,-132.937 226.556,-127.276"/>
<polygon fill="midnightblue" stroke="midnightblue" points="227.201,-130.729 236.793,-126.228 226.488,-123.765 227.201,-130.729"/>
</g>
<!-- Node6 -->
<g id="node6" class="node"><title>Node6</title>
<polygon fill="none" stroke="#bfbfbf" points="0,-168.5 0,-187.5 30,-187.5 30,-168.5 0,-168.5"/>
<text text-anchor="middle" x="15" y="-175.5" font-family="FreeSans" font-size="10.00">set</text>
</g>
<!-- Node2&#45;&gt;Node6 -->
<g id="edge5" class="edge"><title>Node2&#45;&gt;Node6</title>
<path fill="none" stroke="midnightblue" d="M72.0746,-224.324C61.8254,-216.185 46.2794,-203.839 33.999,-194.087"/>
<polygon fill="midnightblue" stroke="midnightblue" points="36.1319,-191.312 26.1242,-187.834 31.7787,-196.794 36.1319,-191.312"/>
</g>
<!-- Node2&#45;&gt;Node7 -->
<g id="edge6" class="edge"><title>Node2&#45;&gt;Node7</title>
<path fill="none" stroke="midnightblue" d="M87.1282,-224.083C90.5139,-216.77 95.416,-206.181 99.6188,-197.103"/>
<polygon fill="midnightblue" stroke="midnightblue" points="102.923,-198.296 103.949,-187.751 96.5711,-195.355 102.923,-198.296"/>
</g>
<!-- Node3&#45;&gt;Node4 -->
<g id="edge3" class="edge"><title>Node3&#45;&gt;Node4</title>
<path fill="none" stroke="midnightblue" d="M317.268,-116.691C331.969,-115.156 348.732,-113.449 364,-112 549.972,-94.3506 773.57,-76.0017 854.168,-69.4798"/>
<polygon fill="midnightblue" stroke="midnightblue" points="854.457,-72.9679 864.143,-68.6739 853.893,-65.9906 854.457,-72.9679"/>
</g>
<!-- Node5 -->
<g id="node5" class="node"><title>Node5</title>
<polygon fill="none" stroke="#bfbfbf" points="254.5,-56.5 254.5,-75.5 299.5,-75.5 299.5,-56.5 254.5,-56.5"/>
<text text-anchor="middle" x="277" y="-63.5" font-family="FreeSans" font-size="10.00">climits</text>
</g>
<!-- Node3&#45;&gt;Node5 -->
<g id="edge4" class="edge"><title>Node3&#45;&gt;Node5</title>
<path fill="none" stroke="midnightblue" d="M277,-112.083C277,-105.006 277,-94.8611 277,-85.9865"/>
<polygon fill="midnightblue" stroke="midnightblue" points="280.5,-85.751 277,-75.7511 273.5,-85.7511 280.5,-85.751"/>
</g>
<!-- Node8&#45;&gt;Node3 -->
<g id="edge8" class="edge"><title>Node8&#45;&gt;Node3</title>
<path fill="none" stroke="midnightblue" d="M233.47,-224.44C212.267,-218.104 189.732,-207.098 177,-188 160.065,-162.597 195.81,-144.894 229.171,-134.448"/>
<polygon fill="midnightblue" stroke="midnightblue" points="230.328,-137.755 238.927,-131.566 228.345,-131.042 230.328,-137.755"/>
</g>
<!-- Node8&#45;&gt;Node4 -->
<g id="edge11" class="edge"><title>Node8&#45;&gt;Node4</title>
<path fill="none" stroke="midnightblue" d="M339.843,-224.425C383.923,-216.854 447.151,-204.46 501,-188 586.401,-161.896 601.839,-138.875 687,-112 745.201,-93.633 815.237,-79.5276 854.483,-72.3199"/>
<polygon fill="midnightblue" stroke="midnightblue" points="855.251,-75.7378 864.468,-70.5134 854.005,-68.8496 855.251,-75.7378"/>
</g>
<!-- Node8&#45;&gt;Node7 -->
<g id="edge12" class="edge"><title>Node8&#45;&gt;Node7</title>
<path fill="none" stroke="midnightblue" d="M256.954,-224.444C225.063,-214.714 173.111,-198.864 139.755,-188.688"/>
<polygon fill="midnightblue" stroke="midnightblue" points="140.629,-185.296 130.043,-185.725 138.587,-191.991 140.629,-185.296"/>
</g>
<!-- Node9 -->
<g id="node9" class="node"><title>Node9</title>
<g id="a_node9"><a xlink:href="../../da/dc1/Fun4AllReturnCodes_8h.html" target="_top" xlink:title="Fun4AllReturnCodes.h">
<polygon fill="none" stroke="black" points="233.5,-168.5 233.5,-187.5 346.5,-187.5 346.5,-168.5 233.5,-168.5"/>
<text text-anchor="middle" x="290" y="-175.5" font-family="FreeSans" font-size="10.00">Fun4AllReturnCodes.h</text>
</a>
</g>
</g>
<!-- Node8&#45;&gt;Node9 -->
<g id="edge9" class="edge"><title>Node8&#45;&gt;Node9</title>
<path fill="none" stroke="midnightblue" d="M285.826,-224.083C286.481,-217.006 287.42,-206.861 288.242,-197.986"/>
<polygon fill="midnightblue" stroke="midnightblue" points="291.753,-198.031 289.19,-187.751 284.783,-197.386 291.753,-198.031"/>
</g>
<!-- Node10 -->
<g id="node10" class="node"><title>Node10</title>
<polygon fill="none" stroke="#bfbfbf" points="186.5,-168.5 186.5,-187.5 215.5,-187.5 215.5,-168.5 186.5,-168.5"/>
<text text-anchor="middle" x="201" y="-175.5" font-family="FreeSans" font-size="10.00">list</text>
</g>
<!-- Node8&#45;&gt;Node10 -->
<g id="edge10" class="edge"><title>Node8&#45;&gt;Node10</title>
<path fill="none" stroke="midnightblue" d="M271.504,-224.324C258.4,-215.9 238.288,-202.971 222.893,-193.074"/>
<polygon fill="midnightblue" stroke="midnightblue" points="224.767,-190.118 214.463,-187.655 220.982,-196.006 224.767,-190.118"/>
</g>
<!-- Node12&#45;&gt;Node3 -->
<g id="edge15" class="edge"><title>Node12&#45;&gt;Node3</title>
<path fill="none" stroke="midnightblue" d="M522.988,-224.887C487.604,-217.474 436.541,-205.065 394,-188 384.472,-184.178 332.345,-154.659 300.972,-136.741"/>
<polygon fill="midnightblue" stroke="midnightblue" points="302.391,-133.521 291.972,-131.595 298.916,-139.597 302.391,-133.521"/>
</g>
<!-- Node12&#45;&gt;Node4 -->
<g id="edge27" class="edge"><title>Node12&#45;&gt;Node4</title>
<path fill="none" stroke="midnightblue" d="M609.132,-228.442C640.96,-223.189 683.807,-211.949 714,-188 744.579,-163.745 727.979,-136.942 758,-112 785.919,-88.8035 826.655,-77.1942 854.411,-71.6479"/>
<polygon fill="midnightblue" stroke="midnightblue" points="855.163,-75.0682 864.359,-69.8075 853.889,-68.185 855.163,-75.0682"/>
</g>
<!-- Node12&#45;&gt;Node7 -->
<g id="edge28" class="edge"><title>Node12&#45;&gt;Node7</title>
<path fill="none" stroke="midnightblue" d="M522.803,-228.21C450.986,-220.201 302.506,-203.444 177,-188 164.974,-186.52 151.78,-184.818 140.179,-183.296"/>
<polygon fill="midnightblue" stroke="midnightblue" points="140.425,-179.798 130.053,-181.959 139.509,-186.738 140.425,-179.798"/>
</g>
<!-- Node13 -->
<g id="node13" class="node"><title>Node13</title>
<g id="a_node13"><a xlink:href="../../d0/d59/Fun4AllHistoManager_8h.html" target="_top" xlink:title="Fun4AllHistoManager.h">
<polygon fill="none" stroke="black" points="587,-168.5 587,-187.5 705,-187.5 705,-168.5 587,-168.5"/>
<text text-anchor="middle" x="646" y="-175.5" font-family="FreeSans" font-size="10.00">Fun4AllHistoManager.h</text>
</a>
</g>
</g>
<!-- Node12&#45;&gt;Node13 -->
<g id="edge16" class="edge"><title>Node12&#45;&gt;Node13</title>
<path fill="none" stroke="midnightblue" d="M578.853,-224.324C591.216,-215.979 610.13,-203.212 624.737,-193.352"/>
<polygon fill="midnightblue" stroke="midnightblue" points="626.848,-196.15 633.179,-187.655 622.932,-190.348 626.848,-196.15"/>
</g>
<!-- Node14 -->
<g id="node14" class="node"><title>Node14</title>
<polygon fill="none" stroke="#bfbfbf" points="1273,-0.5 1273,-19.5 1327,-19.5 1327,-0.5 1273,-0.5"/>
<text text-anchor="middle" x="1300" y="-7.5" font-family="FreeSans" font-size="10.00">iostream</text>
</g>
<!-- Node12&#45;&gt;Node14 -->
<g id="edge25" class="edge"><title>Node12&#45;&gt;Node14</title>
<path fill="none" stroke="midnightblue" d="M565.53,-224.206C565.25,-210.908 566.437,-185.392 578,-168 628.3,-92.3445 663.071,-85.4975 749,-56 844.43,-23.2407 1154.76,-13.938 1262.64,-11.6592"/>
<polygon fill="midnightblue" stroke="midnightblue" points="1262.8,-15.1567 1272.73,-11.4543 1262.66,-8.15815 1262.8,-15.1567"/>
</g>
<!-- Node15 -->
<g id="node15" class="node"><title>Node15</title>
<polygon fill="none" stroke="#bfbfbf" points="767.5,-112.5 767.5,-131.5 802.5,-131.5 802.5,-112.5 767.5,-112.5"/>
<text text-anchor="middle" x="785" y="-119.5" font-family="FreeSans" font-size="10.00">map</text>
</g>
<!-- Node12&#45;&gt;Node15 -->
<g id="edge26" class="edge"><title>Node12&#45;&gt;Node15</title>
<path fill="none" stroke="midnightblue" d="M609.149,-231.593C648.573,-228.299 706.695,-218.179 747,-188 762.661,-176.273 772.999,-156.04 778.884,-141.256"/>
<polygon fill="midnightblue" stroke="midnightblue" points="782.248,-142.247 782.396,-131.653 775.674,-139.843 782.248,-142.247"/>
</g>
<!-- Node16 -->
<g id="node16" class="node"><title>Node16</title>
<g id="a_node16"><a xlink:href="../../dc/d26/PHTimer_8h.html" target="_top" xlink:title="high precision timer ">
<polygon fill="none" stroke="black" points="403.5,-168.5 403.5,-187.5 492.5,-187.5 492.5,-168.5 403.5,-168.5"/>
<text text-anchor="middle" x="448" y="-175.5" font-family="FreeSans" font-size="10.00">phool/PHTimer.h</text>
</a>
</g>
</g>
<!-- Node12&#45;&gt;Node16 -->
<g id="edge21" class="edge"><title>Node12&#45;&gt;Node16</title>
<path fill="none" stroke="midnightblue" d="M547.303,-224.444C528.056,-215.636 497.848,-201.812 475.8,-191.722"/>
<polygon fill="midnightblue" stroke="midnightblue" points="477.16,-188.495 466.61,-187.516 474.247,-194.86 477.16,-188.495"/>
</g>
<!-- Node13&#45;&gt;Node3 -->
<g id="edge17" class="edge"><title>Node13&#45;&gt;Node3</title>
<path fill="none" stroke="midnightblue" d="M587.531,-168.444C515.721,-157.935 395.121,-140.286 327.28,-130.358"/>
<polygon fill="midnightblue" stroke="midnightblue" points="327.664,-126.877 317.263,-128.892 326.651,-133.803 327.664,-126.877"/>
</g>
<!-- Node13&#45;&gt;Node4 -->
<g id="edge20" class="edge"><title>Node13&#45;&gt;Node4</title>
<path fill="none" stroke="midnightblue" d="M653.163,-168.448C665.284,-154.529 691.242,-127.024 719,-112 762.788,-88.2993 819.962,-76.3817 854.506,-70.9527"/>
<polygon fill="midnightblue" stroke="midnightblue" points="855.084,-74.4053 864.46,-69.4703 854.053,-67.4816 855.084,-74.4053"/>
</g>
<!-- Node13&#45;&gt;Node14 -->
<g id="edge18" class="edge"><title>Node13&#45;&gt;Node14</title>
<path fill="none" stroke="midnightblue" d="M649.321,-168.062C654.952,-154.099 667.68,-127.147 687,-112 748.939,-63.4399 778.044,-72.5044 855,-56 1003.83,-24.08 1185.66,-14.6587 1262.68,-11.9964"/>
<polygon fill="midnightblue" stroke="midnightblue" points="1262.96,-15.4893 1272.84,-11.6639 1262.73,-8.49301 1262.96,-15.4893"/>
</g>
<!-- Node13&#45;&gt;Node15 -->
<g id="edge19" class="edge"><title>Node13&#45;&gt;Node15</title>
<path fill="none" stroke="midnightblue" d="M668.025,-168.444C692.462,-158.95 731.898,-143.63 758.13,-133.439"/>
<polygon fill="midnightblue" stroke="midnightblue" points="759.425,-136.69 767.479,-129.807 756.89,-130.165 759.425,-136.69"/>
</g>
<!-- Node16&#45;&gt;Node14 -->
<g id="edge22" class="edge"><title>Node16&#45;&gt;Node14</title>
<path fill="none" stroke="midnightblue" d="M419.131,-168.405C388.42,-157.705 346.488,-137.665 364,-112 402.471,-55.6193 440.316,-70.56 507,-56 653.909,-23.9235 1126.05,-13.8406 1262.65,-11.5579"/>
<polygon fill="midnightblue" stroke="midnightblue" points="1263.06,-15.0518 1273,-11.3893 1262.94,-8.05276 1263.06,-15.0518"/>
</g>
<!-- Node17 -->
<g id="node17" class="node"><title>Node17</title>
<polygon fill="none" stroke="#bfbfbf" points="373,-112.5 373,-131.5 425,-131.5 425,-112.5 373,-112.5"/>
<text text-anchor="middle" x="399" y="-119.5" font-family="FreeSans" font-size="10.00">sstream</text>
</g>
<!-- Node16&#45;&gt;Node17 -->
<g id="edge23" class="edge"><title>Node16&#45;&gt;Node17</title>
<path fill="none" stroke="midnightblue" d="M439.909,-168.083C432.845,-160.298 422.412,-148.801 413.851,-139.367"/>
<polygon fill="midnightblue" stroke="midnightblue" points="416.253,-136.805 406.941,-131.751 411.069,-141.509 416.253,-136.805"/>
</g>
<!-- Node18 -->
<g id="node18" class="node"><title>Node18</title>
<polygon fill="none" stroke="#bfbfbf" points="443,-112.5 443,-131.5 493,-131.5 493,-112.5 443,-112.5"/>
<text text-anchor="middle" x="468" y="-119.5" font-family="FreeSans" font-size="10.00">unistd.h</text>
</g>
<!-- Node16&#45;&gt;Node18 -->
<g id="edge24" class="edge"><title>Node16&#45;&gt;Node18</title>
<path fill="none" stroke="midnightblue" d="M451.303,-168.083C453.982,-160.849 457.849,-150.409 461.186,-141.397"/>
<polygon fill="midnightblue" stroke="midnightblue" points="464.568,-142.344 464.759,-131.751 458.004,-139.913 464.568,-142.344"/>
</g>
<!-- Node20 -->
<g id="node20" class="node"><title>Node20</title>
<g id="a_node20"><a xlink:href="../../d0/d11/PHFlag_8h.html" target="_top" xlink:title="PHFlag.h">
<polygon fill="none" stroke="black" points="799.5,-168.5 799.5,-187.5 856.5,-187.5 856.5,-168.5 799.5,-168.5"/>
<text text-anchor="middle" x="828" y="-175.5" font-family="FreeSans" font-size="10.00">PHFlag.h</text>
</a>
</g>
</g>
<!-- Node19&#45;&gt;Node20 -->
<g id="edge30" class="edge"><title>Node19&#45;&gt;Node20</title>
<path fill="none" stroke="midnightblue" d="M820.628,-280.368C821.919,-262.617 824.897,-221.666 826.647,-197.597"/>
<polygon fill="midnightblue" stroke="midnightblue" points="830.141,-197.819 827.375,-187.591 823.159,-197.311 830.141,-197.819"/>
</g>
<!-- Node20&#45;&gt;Node4 -->
<g id="edge32" class="edge"><title>Node20&#45;&gt;Node4</title>
<path fill="none" stroke="midnightblue" d="M832.473,-168.368C841.796,-150.376 863.469,-108.55 875.866,-84.6267"/>
<polygon fill="midnightblue" stroke="midnightblue" points="879.055,-86.0805 880.548,-75.5914 872.84,-82.8599 879.055,-86.0805"/>
</g>
<!-- Node20&#45;&gt;Node15 -->
<g id="edge31" class="edge"><title>Node20&#45;&gt;Node15</title>
<path fill="none" stroke="midnightblue" d="M820.899,-168.083C814.763,-160.377 805.73,-149.033 798.261,-139.653"/>
<polygon fill="midnightblue" stroke="midnightblue" points="800.936,-137.394 791.968,-131.751 795.46,-141.754 800.936,-137.394"/>
</g>
<!-- Node21&#45;&gt;Node14 -->
<g id="edge38" class="edge"><title>Node21&#45;&gt;Node14</title>
<path fill="none" stroke="midnightblue" d="M1355.84,-392.437C1376.98,-385.767 1402.51,-374.451 1419,-356 1447.97,-323.594 1482.99,-210.304 1473,-168 1460.21,-113.836 1458.2,-93.4095 1417,-56 1394.62,-35.6852 1362.1,-24.1686 1337.01,-17.8827"/>
<polygon fill="midnightblue" stroke="midnightblue" points="1337.65,-14.4373 1327.12,-15.5731 1336.06,-21.2542 1337.65,-14.4373"/>
</g>
<!-- Node22 -->
<g id="node22" class="node"><title>Node22</title>
<g id="a_node22"><a xlink:href="../../df/d32/PHObject_8h.html" target="_top" xlink:title="phool/PHObject.h">
<polygon fill="none" stroke="black" points="1467.5,-336.5 1467.5,-355.5 1560.5,-355.5 1560.5,-336.5 1467.5,-336.5"/>
<text text-anchor="middle" x="1514" y="-343.5" font-family="FreeSans" font-size="10.00">phool/PHObject.h</text>
</a>
</g>
</g>
<!-- Node21&#45;&gt;Node22 -->
<g id="edge34" class="edge"><title>Node21&#45;&gt;Node22</title>
<path fill="none" stroke="midnightblue" d="M1349.9,-392.444C1383.27,-383.201 1436.59,-368.436 1473.35,-358.257"/>
<polygon fill="midnightblue" stroke="midnightblue" points="1474.54,-361.558 1483.25,-355.516 1472.67,-354.812 1474.54,-361.558"/>
</g>
<!-- Node24 -->
<g id="node24" class="node"><title>Node24</title>
<polygon fill="none" stroke="#bfbfbf" points="1369.5,-336.5 1369.5,-355.5 1410.5,-355.5 1410.5,-336.5 1369.5,-336.5"/>
<text text-anchor="middle" x="1390" y="-343.5" font-family="FreeSans" font-size="10.00">ctime</text>
</g>
<!-- Node21&#45;&gt;Node24 -->
<g id="edge37" class="edge"><title>Node21&#45;&gt;Node24</title>
<path fill="none" stroke="midnightblue" d="M1330.41,-392.324C1341.11,-384.185 1357.34,-371.839 1370.16,-362.087"/>
<polygon fill="midnightblue" stroke="midnightblue" points="1372.54,-364.673 1378.39,-355.834 1368.31,-359.102 1372.54,-364.673"/>
</g>
<!-- Node22&#45;&gt;Node14 -->
<g id="edge36" class="edge"><title>Node22&#45;&gt;Node14</title>
<path fill="none" stroke="midnightblue" d="M1519.7,-336.288C1530.97,-318.205 1555,-274.946 1555,-235 1555,-235 1555,-235 1555,-121 1555,-27.4456 1408.5,-12.5169 1337.58,-10.7709"/>
<polygon fill="midnightblue" stroke="midnightblue" points="1337.35,-7.26651 1327.29,-10.5974 1337.23,-14.2655 1337.35,-7.26651"/>
</g>
<!-- Node23 -->
<g id="node23" class="node"><title>Node23</title>
<polygon fill="none" stroke="#bfbfbf" points="1467.5,-280.5 1467.5,-299.5 1526.5,-299.5 1526.5,-280.5 1467.5,-280.5"/>
<text text-anchor="middle" x="1497" y="-287.5" font-family="FreeSans" font-size="10.00">TObject.h</text>
</g>
<!-- Node22&#45;&gt;Node23 -->
<g id="edge35" class="edge"><title>Node22&#45;&gt;Node23</title>
<path fill="none" stroke="midnightblue" d="M1511.19,-336.083C1508.92,-328.849 1505.63,-318.409 1502.79,-309.397"/>
<polygon fill="midnightblue" stroke="midnightblue" points="1506.1,-308.239 1499.75,-299.751 1499.42,-310.341 1506.1,-308.239"/>
</g>
<!-- Node25&#45;&gt;Node14 -->
<g id="edge41" class="edge"><title>Node25&#45;&gt;Node14</title>
<path fill="none" stroke="midnightblue" d="M1500.29,-392.477C1523.42,-385.981 1550.65,-374.823 1569,-356 1590.5,-333.951 1593,-321.795 1593,-291 1593,-291 1593,-291 1593,-121 1593,-85.0879 1575.46,-75.0208 1545,-56 1510.91,-34.7162 1397.2,-20.6193 1337.44,-14.4912"/>
<polygon fill="midnightblue" stroke="midnightblue" points="1337.58,-10.9884 1327.28,-13.4738 1336.89,-17.9535 1337.58,-10.9884"/>
</g>
<!-- Node25&#45;&gt;Node22 -->
<g id="edge40" class="edge"><title>Node25&#45;&gt;Node22</title>
<path fill="none" stroke="midnightblue" d="M1465.32,-392.324C1473.89,-384.341 1486.81,-372.313 1497.19,-362.653"/>
<polygon fill="midnightblue" stroke="midnightblue" points="1499.58,-365.21 1504.51,-355.834 1494.81,-360.086 1499.58,-365.21"/>
</g>
<!-- Node26&#45;&gt;Node4 -->
<g id="edge72" class="edge"><title>Node26&#45;&gt;Node4</title>
<path fill="none" stroke="midnightblue" d="M1070.79,-392.414C1054.15,-385.445 1033.94,-373.809 1024,-356 983.232,-282.978 1070.95,-242.01 1032,-168 1007.42,-121.287 950.391,-92.0005 915.029,-77.6455"/>
<polygon fill="midnightblue" stroke="midnightblue" points="916.263,-74.3699 905.674,-73.9905 913.715,-80.8899 916.263,-74.3699"/>
</g>
<!-- Node26&#45;&gt;Node23 -->
<g id="edge71" class="edge"><title>Node26&#45;&gt;Node23</title>
<path fill="none" stroke="midnightblue" d="M1156.67,-393.583C1202.5,-386.802 1266.89,-374.901 1321,-356 1339.39,-349.576 1342.02,-343.507 1360,-336 1392.2,-322.553 1429.95,-310.409 1457.66,-302.135"/>
<polygon fill="midnightblue" stroke="midnightblue" points="1458.78,-305.453 1467.38,-299.267 1456.8,-298.739 1458.78,-305.453"/>
</g>
<!-- Node27 -->
<g id="node27" class="node"><title>Node27</title>
<g id="a_node27"><a xlink:href="../../dd/d9b/PHDataNode_8h.html" target="_top" xlink:title="PHDataNode.h">
<polygon fill="none" stroke="black" points="1155,-168.5 1155,-187.5 1237,-187.5 1237,-168.5 1155,-168.5"/>
<text text-anchor="middle" x="1196" y="-175.5" font-family="FreeSans" font-size="10.00">PHDataNode.h</text>
</a>
</g>
</g>
<!-- Node26&#45;&gt;Node27 -->
<g id="edge43" class="edge"><title>Node26&#45;&gt;Node27</title>
<path fill="none" stroke="midnightblue" d="M1107.9,-392.467C1117.84,-384.148 1132.27,-370.64 1141,-356 1172.25,-303.588 1187.39,-231.697 1193.13,-197.949"/>
<polygon fill="midnightblue" stroke="midnightblue" points="1196.65,-198.126 1194.78,-187.696 1189.73,-197.013 1196.65,-198.126"/>
</g>
<!-- Node31 -->
<g id="node31" class="node"><title>Node31</title>
<g id="a_node31"><a xlink:href="../../d9/d53/PHIOManager_8h.html" target="_top" xlink:title="PHIOManager.h">
<polygon fill="none" stroke="black" points="1113,-112.5 1113,-131.5 1199,-131.5 1199,-112.5 1113,-112.5"/>
<text text-anchor="middle" x="1156" y="-119.5" font-family="FreeSans" font-size="10.00">PHIOManager.h</text>
</a>
</g>
</g>
<!-- Node26&#45;&gt;Node31 -->
<g id="edge50" class="edge"><title>Node26&#45;&gt;Node31</title>
<path fill="none" stroke="midnightblue" d="M1101.05,-392.379C1109.23,-374.114 1127,-329.996 1127,-291 1127,-291 1127,-291 1127,-233 1127,-199.716 1139.57,-162.584 1148.16,-141.094"/>
<polygon fill="midnightblue" stroke="midnightblue" points="1151.48,-142.213 1152.09,-131.635 1145.02,-139.525 1151.48,-142.213"/>
</g>
<!-- Node32 -->
<g id="node32" class="node"><title>Node32</title>
<g id="a_node32"><a xlink:href="../../dd/de7/PHNodeIOManager_8h.html" target="_top" xlink:title="PHNodeIOManager.h">
<polygon fill="none" stroke="black" points="913,-168.5 913,-187.5 1023,-187.5 1023,-168.5 913,-168.5"/>
<text text-anchor="middle" x="968" y="-175.5" font-family="FreeSans" font-size="10.00">PHNodeIOManager.h</text>
</a>
</g>
</g>
<!-- Node26&#45;&gt;Node32 -->
<g id="edge53" class="edge"><title>Node26&#45;&gt;Node32</title>
<path fill="none" stroke="midnightblue" d="M1051.05,-392.493C1029.5,-386.099 1005.44,-375.03 991,-356 955.147,-308.766 960.044,-233.242 964.802,-198.118"/>
<polygon fill="midnightblue" stroke="midnightblue" points="968.319,-198.264 966.351,-187.854 961.398,-197.22 968.319,-198.264"/>
</g>
<!-- Node26&#45;&gt;Node33 -->
<g id="edge57" class="edge"><title>Node26&#45;&gt;Node33</title>
<path fill="none" stroke="midnightblue" d="M1121.72,-392.444C1147.85,-383.399 1189.26,-369.064 1218.58,-358.916"/>
<polygon fill="midnightblue" stroke="midnightblue" points="1220.09,-362.095 1228.4,-355.516 1217.8,-355.48 1220.09,-362.095"/>
</g>
<!-- Node38 -->
<g id="node38" class="node"><title>Node38</title>
<g id="a_node38"><a xlink:href="../../de/da7/phooldefs_8h.html" target="_top" xlink:title="phooldefs.h">
<polygon fill="none" stroke="black" points="1033,-336.5 1033,-355.5 1099,-355.5 1099,-336.5 1033,-336.5"/>
<text text-anchor="middle" x="1066" y="-343.5" font-family="FreeSans" font-size="10.00">phooldefs.h</text>
</a>
</g>
</g>
<!-- Node26&#45;&gt;Node38 -->
<g id="edge69" class="edge"><title>Node26&#45;&gt;Node38</title>
<path fill="none" stroke="midnightblue" d="M1091.88,-392.083C1087.59,-384.613 1081.34,-373.724 1076.06,-364.52"/>
<polygon fill="midnightblue" stroke="midnightblue" points="1079.04,-362.681 1071.02,-355.751 1072.97,-366.166 1079.04,-362.681"/>
</g>
<!-- Node27&#45;&gt;Node14 -->
<g id="edge49" class="edge"><title>Node27&#45;&gt;Node14</title>
<path fill="none" stroke="midnightblue" d="M1200.7,-168.309C1211.67,-148.169 1240.1,-96.9046 1267,-56 1273.25,-46.4887 1280.72,-36.2285 1286.97,-27.9106"/>
<polygon fill="midnightblue" stroke="midnightblue" points="1289.89,-29.8534 1293.15,-19.7744 1284.31,-25.617 1289.89,-29.8534"/>
</g>
<!-- Node28 -->
<g id="node28" class="node"><title>Node28</title>
<g id="a_node28"><a xlink:href="../../d3/d62/PHNode_8h.html" target="_top" xlink:title="PHNode.h">
<polygon fill="none" stroke="black" points="1331,-112.5 1331,-131.5 1393,-131.5 1393,-112.5 1331,-112.5"/>
<text text-anchor="middle" x="1362" y="-119.5" font-family="FreeSans" font-size="10.00">PHNode.h</text>
</a>
</g>
</g>
<!-- Node27&#45;&gt;Node28 -->
<g id="edge44" class="edge"><title>Node27&#45;&gt;Node28</title>
<path fill="none" stroke="midnightblue" d="M1222.3,-168.444C1250.35,-159.32 1294.94,-144.813 1326.18,-134.651"/>
<polygon fill="midnightblue" stroke="midnightblue" points="1327.39,-137.938 1335.82,-131.516 1325.23,-131.282 1327.39,-137.938"/>
</g>
<!-- Node28&#45;&gt;Node4 -->
<g id="edge48" class="edge"><title>Node28&#45;&gt;Node4</title>
<path fill="none" stroke="midnightblue" d="M1330.7,-117.457C1244.04,-107.646 1001.69,-80.2097 915.72,-70.4777"/>
<polygon fill="midnightblue" stroke="midnightblue" points="915.903,-66.9762 905.573,-69.329 915.115,-73.9317 915.903,-66.9762"/>
</g>
<!-- Node29 -->
<g id="node29" class="node"><title>Node29</title>
<g id="a_node29"><a xlink:href="../../d5/d6f/phool_8h.html" target="_top" xlink:title="phool.h">
<polygon fill="none" stroke="black" points="1276.5,-56.5 1276.5,-75.5 1323.5,-75.5 1323.5,-56.5 1276.5,-56.5"/>
<text text-anchor="middle" x="1300" y="-63.5" font-family="FreeSans" font-size="10.00">phool.h</text>
</a>
</g>
</g>
<!-- Node28&#45;&gt;Node29 -->
<g id="edge45" class="edge"><title>Node28&#45;&gt;Node29</title>
<path fill="none" stroke="midnightblue" d="M1352.04,-112.324C1342.87,-104.341 1329.06,-92.3128 1317.97,-82.6529"/>
<polygon fill="midnightblue" stroke="midnightblue" points="1319.98,-79.7624 1310.14,-75.8339 1315.38,-85.041 1319.98,-79.7624"/>
</g>
<!-- Node30 -->
<g id="node30" class="node"><title>Node30</title>
<polygon fill="none" stroke="#bfbfbf" points="1341.5,-56.5 1341.5,-75.5 1386.5,-75.5 1386.5,-56.5 1341.5,-56.5"/>
<text text-anchor="middle" x="1364" y="-63.5" font-family="FreeSans" font-size="10.00">iosfwd</text>
</g>
<!-- Node28&#45;&gt;Node30 -->
<g id="edge47" class="edge"><title>Node28&#45;&gt;Node30</title>
<path fill="none" stroke="midnightblue" d="M1362.33,-112.083C1362.59,-105.006 1362.97,-94.8611 1363.3,-85.9865"/>
<polygon fill="midnightblue" stroke="midnightblue" points="1366.8,-85.8738 1363.68,-75.7511 1359.81,-85.6147 1366.8,-85.8738"/>
</g>
<!-- Node29&#45;&gt;Node14 -->
<g id="edge46" class="edge"><title>Node29&#45;&gt;Node14</title>
<path fill="none" stroke="midnightblue" d="M1300,-56.083C1300,-49.0059 1300,-38.8611 1300,-29.9865"/>
<polygon fill="midnightblue" stroke="midnightblue" points="1303.5,-29.751 1300,-19.7511 1296.5,-29.7511 1303.5,-29.751"/>
</g>
<!-- Node31&#45;&gt;Node4 -->
<g id="edge52" class="edge"><title>Node31&#45;&gt;Node4</title>
<path fill="none" stroke="midnightblue" d="M1113.06,-112.444C1058,-101.472 963.875,-82.7168 915.573,-73.092"/>
<polygon fill="midnightblue" stroke="midnightblue" points="916.205,-69.6492 905.714,-71.1274 914.837,-76.5142 916.205,-69.6492"/>
</g>
<!-- Node31&#45;&gt;Node29 -->
<g id="edge51" class="edge"><title>Node31&#45;&gt;Node29</title>
<path fill="none" stroke="midnightblue" d="M1178.82,-112.444C1202.83,-103.438 1240.83,-89.1891 1267.87,-79.049"/>
<polygon fill="midnightblue" stroke="midnightblue" points="1269.16,-82.3049 1277.29,-75.5164 1266.7,-75.7506 1269.16,-82.3049"/>
</g>
<!-- Node32&#45;&gt;Node4 -->
<g id="edge55" class="edge"><title>Node32&#45;&gt;Node4</title>
<path fill="none" stroke="midnightblue" d="M961.487,-168.368C947.729,-150.135 915.503,-107.426 897.582,-83.6752"/>
<polygon fill="midnightblue" stroke="midnightblue" points="900.3,-81.4659 891.483,-75.5914 894.712,-85.6821 900.3,-81.4659"/>
</g>
<!-- Node32&#45;&gt;Node15 -->
<g id="edge56" class="edge"><title>Node32&#45;&gt;Node15</title>
<path fill="none" stroke="midnightblue" d="M939.003,-168.444C904.296,-158.202 846.606,-141.179 812.552,-131.13"/>
<polygon fill="midnightblue" stroke="midnightblue" points="813.376,-127.724 802.794,-128.251 811.394,-134.438 813.376,-127.724"/>
</g>
<!-- Node32&#45;&gt;Node31 -->
<g id="edge54" class="edge"><title>Node32&#45;&gt;Node31</title>
<path fill="none" stroke="midnightblue" d="M997.789,-168.444C1029.83,-159.241 1080.93,-144.562 1116.35,-134.388"/>
<polygon fill="midnightblue" stroke="midnightblue" points="1117.71,-137.641 1126.35,-131.516 1115.77,-130.913 1117.71,-137.641"/>
</g>
<!-- Node34 -->
<g id="node34" class="node"><title>Node34</title>
<g id="a_node34"><a xlink:href="../../d8/dfd/PHNodeIterator_8h.html" target="_top" xlink:title="PHNodeIterator.h">
<polygon fill="none" stroke="black" points="1299,-280.5 1299,-299.5 1391,-299.5 1391,-280.5 1299,-280.5"/>
<text text-anchor="middle" x="1345" y="-287.5" font-family="FreeSans" font-size="10.00">PHNodeIterator.h</text>
</a>
</g>
</g>
<!-- Node33&#45;&gt;Node34 -->
<g id="edge58" class="edge"><title>Node33&#45;&gt;Node34</title>
<path fill="none" stroke="midnightblue" d="M1267.78,-336.324C1282.27,-327.822 1304.57,-314.729 1321.49,-304.797"/>
<polygon fill="midnightblue" stroke="midnightblue" points="1323.4,-307.735 1330.26,-299.655 1319.86,-301.698 1323.4,-307.735"/>
</g>
<!-- Node37 -->
<g id="node37" class="node"><title>Node37</title>
<polygon fill="none" stroke="#bfbfbf" points="1228.5,-280.5 1228.5,-299.5 1277.5,-299.5 1277.5,-280.5 1228.5,-280.5"/>
<text text-anchor="middle" x="1253" y="-287.5" font-family="FreeSans" font-size="10.00">cstddef</text>
</g>
<!-- Node33&#45;&gt;Node37 -->
<g id="edge68" class="edge"><title>Node33&#45;&gt;Node37</title>
<path fill="none" stroke="midnightblue" d="M1253,-336.083C1253,-329.006 1253,-318.861 1253,-309.986"/>
<polygon fill="midnightblue" stroke="midnightblue" points="1256.5,-309.751 1253,-299.751 1249.5,-309.751 1256.5,-309.751"/>
</g>
<!-- Node34&#45;&gt;Node29 -->
<g id="edge59" class="edge"><title>Node34&#45;&gt;Node29</title>
<path fill="none" stroke="midnightblue" d="M1325.09,-280.41C1310.78,-273.04 1292.54,-260.916 1284,-244 1257.4,-191.313 1279.49,-118.532 1292.35,-85.108"/>
<polygon fill="midnightblue" stroke="midnightblue" points="1295.65,-86.2979 1296.13,-75.7142 1289.15,-83.6849 1295.65,-86.2979"/>
</g>
<!-- Node35 -->
<g id="node35" class="node"><title>Node35</title>
<g id="a_node35"><a xlink:href="../../d8/d30/PHCompositeNode_8h.html" target="_top" xlink:title="PHCompositeNode.h">
<polygon fill="none" stroke="black" points="1293,-224.5 1293,-243.5 1401,-243.5 1401,-224.5 1293,-224.5"/>
<text text-anchor="middle" x="1347" y="-231.5" font-family="FreeSans" font-size="10.00">PHCompositeNode.h</text>
</a>
</g>
</g>
<!-- Node34&#45;&gt;Node35 -->
<g id="edge60" class="edge"><title>Node34&#45;&gt;Node35</title>
<path fill="none" stroke="midnightblue" d="M1345.33,-280.083C1345.59,-273.006 1345.97,-262.861 1346.3,-253.986"/>
<polygon fill="midnightblue" stroke="midnightblue" points="1349.8,-253.874 1346.68,-243.751 1342.81,-253.615 1349.8,-253.874"/>
</g>
<!-- Node36 -->
<g id="node36" class="node"><title>Node36</title>
<g id="a_node36"><a xlink:href="../../db/dd5/PHPointerList_8h.html" target="_top" xlink:title="PHPointerList.h">
<polygon fill="none" stroke="black" points="1378,-168.5 1378,-187.5 1464,-187.5 1464,-168.5 1378,-168.5"/>
<text text-anchor="middle" x="1421" y="-175.5" font-family="FreeSans" font-size="10.00">PHPointerList.h</text>
</a>
</g>
</g>
<!-- Node34&#45;&gt;Node36 -->
<g id="edge67" class="edge"><title>Node34&#45;&gt;Node36</title>
<path fill="none" stroke="midnightblue" d="M1365.04,-280.428C1379.89,-273 1399.32,-260.793 1410,-244 1418.73,-230.268 1421.16,-211.738 1421.59,-197.976"/>
<polygon fill="midnightblue" stroke="midnightblue" points="1425.09,-197.743 1421.58,-187.748 1418.09,-197.752 1425.09,-197.743"/>
</g>
<!-- Node35&#45;&gt;Node28 -->
<g id="edge62" class="edge"><title>Node35&#45;&gt;Node28</title>
<path fill="none" stroke="midnightblue" d="M1348.18,-224.368C1350.6,-206.617 1356.18,-165.666 1359.46,-141.597"/>
<polygon fill="midnightblue" stroke="midnightblue" points="1362.95,-141.973 1360.83,-131.591 1356.01,-141.027 1362.95,-141.973"/>
</g>
<!-- Node35&#45;&gt;Node29 -->
<g id="edge61" class="edge"><title>Node35&#45;&gt;Node29</title>
<path fill="none" stroke="midnightblue" d="M1344.47,-224.075C1337.07,-197.945 1315.35,-121.211 1305.26,-85.577"/>
<polygon fill="midnightblue" stroke="midnightblue" points="1308.52,-84.2364 1302.43,-75.5681 1301.78,-86.1434 1308.52,-84.2364"/>
</g>
<!-- Node35&#45;&gt;Node36 -->
<g id="edge63" class="edge"><title>Node35&#45;&gt;Node36</title>
<path fill="none" stroke="midnightblue" d="M1358.89,-224.324C1370.15,-216.107 1387.29,-203.602 1400.71,-193.807"/>
<polygon fill="midnightblue" stroke="midnightblue" points="1402.88,-196.556 1408.89,-187.834 1398.75,-190.901 1402.88,-196.556"/>
</g>
<!-- Node36&#45;&gt;Node14 -->
<g id="edge66" class="edge"><title>Node36&#45;&gt;Node14</title>
<path fill="none" stroke="midnightblue" d="M1422.16,-168.46C1423.6,-155.912 1425.38,-131.835 1421,-112 1415.08,-85.2049 1414.33,-75.478 1395,-56 1379.02,-39.8943 1356.15,-28.8185 1336.86,-21.6857"/>
<polygon fill="midnightblue" stroke="midnightblue" points="1337.75,-18.2885 1327.15,-18.3093 1335.45,-24.9 1337.75,-18.2885"/>
</g>
<!-- Node36&#45;&gt;Node28 -->
<g id="edge65" class="edge"><title>Node36&#45;&gt;Node28</title>
<path fill="none" stroke="midnightblue" d="M1411.52,-168.324C1402.8,-160.341 1389.66,-148.313 1379.1,-138.653"/>
<polygon fill="midnightblue" stroke="midnightblue" points="1381.39,-136.004 1371.65,-131.834 1376.67,-141.167 1381.39,-136.004"/>
</g>
<!-- Node36&#45;&gt;Node29 -->
<g id="edge64" class="edge"><title>Node36&#45;&gt;Node29</title>
<path fill="none" stroke="midnightblue" d="M1420.56,-168.326C1419.44,-154.725 1415.41,-128.26 1401,-112 1391.52,-101.298 1358.87,-87.8137 1333.23,-78.4087"/>
<polygon fill="midnightblue" stroke="midnightblue" points="1334.4,-75.1112 1323.81,-75.0182 1332.03,-81.6976 1334.4,-75.1112"/>
</g>
<!-- Node38&#45;&gt;Node4 -->
<g id="edge70" class="edge"><title>Node38&#45;&gt;Node4</title>
<path fill="none" stroke="midnightblue" d="M1069.28,-336.067C1081.08,-302.174 1117.8,-180.006 1061,-112 1042.56,-89.9274 961.069,-76.4654 915.721,-70.548"/>
<polygon fill="midnightblue" stroke="midnightblue" points="915.921,-67.0457 905.563,-69.2697 915.047,-73.9909 915.921,-67.0457"/>
</g>
</g>
</svg>
