<?xml version="1.0" encoding="UTF-8" standalone="no"?>
<!DOCTYPE svg PUBLIC "-//W3C//DTD SVG 1.1//EN"
 "http://www.w3.org/Graphics/SVG/1.1/DTD/svg11.dtd">
<!-- Generated by graphviz version 2.36.0 (20140111.2315)
 -->
<!-- Title: fun4all/phool/PHNodeIterator.cc Pages: 1 -->
<svg width="650pt" height="364pt"
 viewBox="0.00 0.00 650.00 364.00" xmlns="http://www.w3.org/2000/svg" xmlns:xlink="http://www.w3.org/1999/xlink">
<g id="graph0" class="graph" transform="scale(1 1) rotate(0) translate(4 360)">
<title>fun4all/phool/PHNodeIterator.cc</title>
<!-- Node1 -->
<g id="node1" class="node"><title>Node1</title>
<polygon fill="#bfbfbf" stroke="black" points="224.5,-336.5 224.5,-355.5 379.5,-355.5 379.5,-336.5 224.5,-336.5"/>
<text text-anchor="middle" x="302" y="-343.5" font-family="FreeSans" font-size="10.00">fun4all/phool/PHNodeIterator.cc</text>
</g>
<!-- Node2 -->
<g id="node2" class="node"><title>Node2</title>
<g id="a_node2"><a xlink:href="../../d8/dfd/PHNodeIterator_8h.html" target="_top" xlink:title="PHNodeIterator.h">
<polygon fill="none" stroke="black" points="97,-280.5 97,-299.5 189,-299.5 189,-280.5 97,-280.5"/>
<text text-anchor="middle" x="143" y="-287.5" font-family="FreeSans" font-size="10.00">PHNodeIterator.h</text>
</a>
</g>
</g>
<!-- Node1&#45;&gt;Node2 -->
<g id="edge1" class="edge"><title>Node1&#45;&gt;Node2</title>
<path fill="none" stroke="midnightblue" d="M276.806,-336.444C250.057,-327.359 207.597,-312.939 177.695,-302.783"/>
<polygon fill="midnightblue" stroke="midnightblue" points="178.671,-299.418 168.076,-299.516 176.419,-306.046 178.671,-299.418"/>
</g>
<!-- Node4 -->
<g id="node4" class="node"><title>Node4</title>
<polygon fill="none" stroke="#bfbfbf" points="70,-0.5 70,-19.5 124,-19.5 124,-0.5 70,-0.5"/>
<text text-anchor="middle" x="97" y="-7.5" font-family="FreeSans" font-size="10.00">iostream</text>
</g>
<!-- Node1&#45;&gt;Node4 -->
<g id="edge21" class="edge"><title>Node1&#45;&gt;Node4</title>
<path fill="none" stroke="midnightblue" d="M224.497,-336.854C182.711,-330.475 131.039,-319.309 88,-300 43.6367,-280.097 0,-283.624 0,-235 0,-235 0,-235 0,-121 0,-77.3471 43.5054,-42.8276 72.2443,-24.7868"/>
<polygon fill="midnightblue" stroke="midnightblue" points="74.2262,-27.6789 80.9824,-19.5177 70.6115,-21.6844 74.2262,-27.6789"/>
</g>
<!-- Node10 -->
<g id="node10" class="node"><title>Node10</title>
<g id="a_node10"><a xlink:href="../../d4/d4f/PHPointerListIterator_8h.html" target="_top" xlink:title="PHPointerListIterator.h">
<polygon fill="none" stroke="black" points="230,-224.5 230,-243.5 346,-243.5 346,-224.5 230,-224.5"/>
<text text-anchor="middle" x="288" y="-231.5" font-family="FreeSans" font-size="10.00">PHPointerListIterator.h</text>
</a>
</g>
</g>
<!-- Node1&#45;&gt;Node10 -->
<g id="edge15" class="edge"><title>Node1&#45;&gt;Node10</title>
<path fill="none" stroke="midnightblue" d="M298.4,-336.222C294.944,-327.285 289.967,-312.942 288,-300 285.666,-284.64 285.842,-267.003 286.504,-253.979"/>
<polygon fill="midnightblue" stroke="midnightblue" points="290.003,-254.101 287.16,-243.895 283.018,-253.647 290.003,-254.101"/>
</g>
<!-- Node11 -->
<g id="node11" class="node"><title>Node11</title>
<g id="a_node11"><a xlink:href="../../d0/d82/PHNodeOperation_8h.html" target="_top" xlink:title="PHNodeOperation.h">
<polygon fill="none" stroke="black" points="330,-280.5 330,-299.5 434,-299.5 434,-280.5 330,-280.5"/>
<text text-anchor="middle" x="382" y="-287.5" font-family="FreeSans" font-size="10.00">PHNodeOperation.h</text>
</a>
</g>
</g>
<!-- Node1&#45;&gt;Node11 -->
<g id="edge17" class="edge"><title>Node1&#45;&gt;Node11</title>
<path fill="none" stroke="midnightblue" d="M314.853,-336.324C327.216,-327.979 346.13,-315.212 360.737,-305.352"/>
<polygon fill="midnightblue" stroke="midnightblue" points="362.848,-308.15 369.179,-299.655 358.932,-302.348 362.848,-308.15"/>
</g>
<!-- Node12 -->
<g id="node12" class="node"><title>Node12</title>
<g id="a_node12"><a xlink:href="../../de/da7/phooldefs_8h.html" target="_top" xlink:title="phooldefs.h">
<polygon fill="none" stroke="black" points="364,-224.5 364,-243.5 430,-243.5 430,-224.5 364,-224.5"/>
<text text-anchor="middle" x="397" y="-231.5" font-family="FreeSans" font-size="10.00">phooldefs.h</text>
</a>
</g>
</g>
<!-- Node1&#45;&gt;Node12 -->
<g id="edge18" class="edge"><title>Node1&#45;&gt;Node12</title>
<path fill="none" stroke="midnightblue" d="M302.555,-336.083C303.809,-322.623 307.876,-296.9 321,-280 331.955,-265.893 348.676,-255.307 363.647,-247.958"/>
<polygon fill="midnightblue" stroke="midnightblue" points="365.528,-250.946 373.155,-243.592 362.606,-244.585 365.528,-250.946"/>
</g>
<!-- Node13 -->
<g id="node13" class="node"><title>Node13</title>
<polygon fill="none" stroke="#bfbfbf" points="452,-280.5 452,-299.5 580,-299.5 580,-280.5 452,-280.5"/>
<text text-anchor="middle" x="516" y="-287.5" font-family="FreeSans" font-size="10.00">boost/algorithm/string.hpp</text>
</g>
<!-- Node1&#45;&gt;Node13 -->
<g id="edge20" class="edge"><title>Node1&#45;&gt;Node13</title>
<path fill="none" stroke="midnightblue" d="M335.909,-336.444C372.849,-327.122 432.054,-312.183 472.418,-301.997"/>
<polygon fill="midnightblue" stroke="midnightblue" points="473.41,-305.357 482.25,-299.516 471.697,-298.57 473.41,-305.357"/>
</g>
<!-- Node14 -->
<g id="node14" class="node"><title>Node14</title>
<polygon fill="none" stroke="#bfbfbf" points="598,-280.5 598,-299.5 642,-299.5 642,-280.5 598,-280.5"/>
<text text-anchor="middle" x="620" y="-287.5" font-family="FreeSans" font-size="10.00">vector</text>
</g>
<!-- Node1&#45;&gt;Node14 -->
<g id="edge22" class="edge"><title>Node1&#45;&gt;Node14</title>
<path fill="none" stroke="midnightblue" d="M372.647,-336.468C428.634,-329.124 508.976,-317.295 587.653,-300.07"/>
<polygon fill="midnightblue" stroke="midnightblue" points="588.733,-303.416 597.736,-297.831 587.215,-296.582 588.733,-303.416"/>
</g>
<!-- Node3 -->
<g id="node3" class="node"><title>Node3</title>
<g id="a_node3"><a xlink:href="../../d5/d6f/phool_8h.html" target="_top" xlink:title="phool.h">
<polygon fill="none" stroke="black" points="73.5,-56.5 73.5,-75.5 120.5,-75.5 120.5,-56.5 73.5,-56.5"/>
<text text-anchor="middle" x="97" y="-63.5" font-family="FreeSans" font-size="10.00">phool.h</text>
</a>
</g>
</g>
<!-- Node2&#45;&gt;Node3 -->
<g id="edge2" class="edge"><title>Node2&#45;&gt;Node3</title>
<path fill="none" stroke="midnightblue" d="M108.816,-280.493C90.0067,-273.877 68.2574,-262.596 57,-244 25.5197,-191.998 64.2182,-117.833 85.1886,-84.4565"/>
<polygon fill="midnightblue" stroke="midnightblue" points="88.283,-86.1179 90.796,-75.8254 82.413,-82.3043 88.283,-86.1179"/>
</g>
<!-- Node5 -->
<g id="node5" class="node"><title>Node5</title>
<g id="a_node5"><a xlink:href="../../d8/d30/PHCompositeNode_8h.html" target="_top" xlink:title="PHCompositeNode.h">
<polygon fill="none" stroke="black" points="66,-224.5 66,-243.5 174,-243.5 174,-224.5 66,-224.5"/>
<text text-anchor="middle" x="120" y="-231.5" font-family="FreeSans" font-size="10.00">PHCompositeNode.h</text>
</a>
</g>
</g>
<!-- Node2&#45;&gt;Node5 -->
<g id="edge4" class="edge"><title>Node2&#45;&gt;Node5</title>
<path fill="none" stroke="midnightblue" d="M139.202,-280.083C136.087,-272.77 131.577,-262.181 127.711,-253.103"/>
<polygon fill="midnightblue" stroke="midnightblue" points="130.866,-251.58 123.727,-243.751 124.426,-254.323 130.866,-251.58"/>
</g>
<!-- Node9 -->
<g id="node9" class="node"><title>Node9</title>
<g id="a_node9"><a xlink:href="../../db/dd5/PHPointerList_8h.html" target="_top" xlink:title="PHPointerList.h">
<polygon fill="none" stroke="black" points="156,-168.5 156,-187.5 242,-187.5 242,-168.5 156,-168.5"/>
<text text-anchor="middle" x="199" y="-175.5" font-family="FreeSans" font-size="10.00">PHPointerList.h</text>
</a>
</g>
</g>
<!-- Node2&#45;&gt;Node9 -->
<g id="edge14" class="edge"><title>Node2&#45;&gt;Node9</title>
<path fill="none" stroke="midnightblue" d="M153.069,-280.372C162.219,-271.986 175.412,-258.433 183,-244 190.605,-229.534 194.683,-211.347 196.814,-197.893"/>
<polygon fill="midnightblue" stroke="midnightblue" points="200.294,-198.271 198.181,-187.889 193.359,-197.323 200.294,-198.271"/>
</g>
<!-- Node3&#45;&gt;Node4 -->
<g id="edge3" class="edge"><title>Node3&#45;&gt;Node4</title>
<path fill="none" stroke="midnightblue" d="M97,-56.083C97,-49.0059 97,-38.8611 97,-29.9865"/>
<polygon fill="midnightblue" stroke="midnightblue" points="100.5,-29.751 97,-19.7511 93.5001,-29.7511 100.5,-29.751"/>
</g>
<!-- Node5&#45;&gt;Node3 -->
<g id="edge5" class="edge"><title>Node5&#45;&gt;Node3</title>
<path fill="none" stroke="midnightblue" d="M118.763,-224.075C115.143,-197.945 104.511,-121.211 99.5739,-85.577"/>
<polygon fill="midnightblue" stroke="midnightblue" points="103.027,-84.9931 98.1871,-75.5681 96.0928,-85.9539 103.027,-84.9931"/>
</g>
<!-- Node6 -->
<g id="node6" class="node"><title>Node6</title>
<g id="a_node6"><a xlink:href="../../d3/d62/PHNode_8h.html" target="_top" xlink:title="PHNode.h">
<polygon fill="none" stroke="black" points="147,-112.5 147,-131.5 209,-131.5 209,-112.5 147,-112.5"/>
<text text-anchor="middle" x="178" y="-119.5" font-family="FreeSans" font-size="10.00">PHNode.h</text>
</a>
</g>
</g>
<!-- Node5&#45;&gt;Node6 -->
<g id="edge6" class="edge"><title>Node5&#45;&gt;Node6</title>
<path fill="none" stroke="midnightblue" d="M122.946,-224.323C127.408,-211.606 136.485,-187.319 147,-168 152.329,-158.209 159.297,-147.926 165.277,-139.665"/>
<polygon fill="midnightblue" stroke="midnightblue" points="168.103,-141.73 171.253,-131.614 162.482,-137.557 168.103,-141.73"/>
</g>
<!-- Node5&#45;&gt;Node9 -->
<g id="edge10" class="edge"><title>Node5&#45;&gt;Node9</title>
<path fill="none" stroke="midnightblue" d="M132.693,-224.324C144.901,-215.979 163.578,-203.212 178.003,-193.352"/>
<polygon fill="midnightblue" stroke="midnightblue" points="180.058,-196.187 186.339,-187.655 176.108,-190.408 180.058,-196.187"/>
</g>
<!-- Node6&#45;&gt;Node3 -->
<g id="edge7" class="edge"><title>Node6&#45;&gt;Node3</title>
<path fill="none" stroke="midnightblue" d="M164.986,-112.324C152.468,-103.979 133.318,-91.2122 118.529,-81.3524"/>
<polygon fill="midnightblue" stroke="midnightblue" points="120.244,-78.2894 109.982,-75.6545 116.361,-84.1137 120.244,-78.2894"/>
</g>
<!-- Node7 -->
<g id="node7" class="node"><title>Node7</title>
<polygon fill="none" stroke="#bfbfbf" points="155.5,-56.5 155.5,-75.5 200.5,-75.5 200.5,-56.5 155.5,-56.5"/>
<text text-anchor="middle" x="178" y="-63.5" font-family="FreeSans" font-size="10.00">iosfwd</text>
</g>
<!-- Node6&#45;&gt;Node7 -->
<g id="edge8" class="edge"><title>Node6&#45;&gt;Node7</title>
<path fill="none" stroke="midnightblue" d="M178,-112.083C178,-105.006 178,-94.8611 178,-85.9865"/>
<polygon fill="midnightblue" stroke="midnightblue" points="181.5,-85.751 178,-75.7511 174.5,-85.7511 181.5,-85.751"/>
</g>
<!-- Node8 -->
<g id="node8" class="node"><title>Node8</title>
<polygon fill="none" stroke="#bfbfbf" points="293.5,-56.5 293.5,-75.5 334.5,-75.5 334.5,-56.5 293.5,-56.5"/>
<text text-anchor="middle" x="314" y="-63.5" font-family="FreeSans" font-size="10.00">string</text>
</g>
<!-- Node6&#45;&gt;Node8 -->
<g id="edge9" class="edge"><title>Node6&#45;&gt;Node8</title>
<path fill="none" stroke="midnightblue" d="M199.55,-112.444C222.296,-103.412 258.324,-89.1067 283.875,-78.9612"/>
<polygon fill="midnightblue" stroke="midnightblue" points="285.439,-82.1063 293.441,-75.1629 282.856,-75.6004 285.439,-82.1063"/>
</g>
<!-- Node9&#45;&gt;Node3 -->
<g id="edge11" class="edge"><title>Node9&#45;&gt;Node3</title>
<path fill="none" stroke="midnightblue" d="M184.493,-168.49C171.321,-160.285 151.889,-146.939 138,-132 124.696,-117.689 113.195,-98.4792 105.789,-84.6591"/>
<polygon fill="midnightblue" stroke="midnightblue" points="108.856,-82.9697 101.152,-75.6957 102.638,-86.1859 108.856,-82.9697"/>
</g>
<!-- Node9&#45;&gt;Node4 -->
<g id="edge13" class="edge"><title>Node9&#45;&gt;Node4</title>
<path fill="none" stroke="midnightblue" d="M203.621,-168.339C208.059,-159.493 214.454,-145.22 217,-132 221.279,-109.782 209.179,-56.2275 209,-56 190.922,-32.9617 159.207,-21.6664 134.129,-16.1586"/>
<polygon fill="midnightblue" stroke="midnightblue" points="134.684,-12.7005 124.195,-14.196 133.327,-19.5678 134.684,-12.7005"/>
</g>
<!-- Node9&#45;&gt;Node6 -->
<g id="edge12" class="edge"><title>Node9&#45;&gt;Node6</title>
<path fill="none" stroke="midnightblue" d="M195.532,-168.083C192.688,-160.77 188.571,-150.181 185.04,-141.103"/>
<polygon fill="midnightblue" stroke="midnightblue" points="188.29,-139.803 181.403,-131.751 181.766,-142.34 188.29,-139.803"/>
</g>
<!-- Node10&#45;&gt;Node9 -->
<g id="edge16" class="edge"><title>Node10&#45;&gt;Node9</title>
<path fill="none" stroke="midnightblue" d="M273.701,-224.324C259.817,-215.9 238.508,-202.971 222.196,-193.074"/>
<polygon fill="midnightblue" stroke="midnightblue" points="223.629,-189.85 213.264,-187.655 219.998,-195.834 223.629,-189.85"/>
</g>
<!-- Node12&#45;&gt;Node8 -->
<g id="edge19" class="edge"><title>Node12&#45;&gt;Node8</title>
<path fill="none" stroke="midnightblue" d="M392.538,-224.075C379.36,-197.719 340.439,-119.878 322.83,-84.6608"/>
<polygon fill="midnightblue" stroke="midnightblue" points="325.887,-82.9471 318.284,-75.5681 319.626,-86.0777 325.887,-82.9471"/>
</g>
</g>
</svg>
