<?xml version="1.0" encoding="UTF-8" standalone="no"?>
<!DOCTYPE svg PUBLIC "-//W3C//DTD SVG 1.1//EN"
 "http://www.w3.org/Graphics/SVG/1.1/DTD/svg11.dtd">
<!-- Generated by graphviz version 2.36.0 (20140111.2315)
 -->
<!-- Title: fun4all/fun4all/Fun4AllDummyInputManager.cc Pages: 1 -->
<svg width="485pt" height="264pt"
 viewBox="0.00 0.00 485.00 264.00" xmlns="http://www.w3.org/2000/svg" xmlns:xlink="http://www.w3.org/1999/xlink">
<g id="graph0" class="graph" transform="scale(1 1) rotate(0) translate(4 260)">
<title>fun4all/fun4all/Fun4AllDummyInputManager.cc</title>
<!-- Node1 -->
<g id="node1" class="node"><title>Node1</title>
<polygon fill="#bfbfbf" stroke="black" points="204,-225 204,-255 350,-255 350,-225 204,-225"/>
<text text-anchor="start" x="212" y="-243" font-family="FreeSans" font-size="10.00">fun4all/fun4all/Fun4AllDummy</text>
<text text-anchor="middle" x="277" y="-232" font-family="FreeSans" font-size="10.00">InputManager.cc</text>
</g>
<!-- Node2 -->
<g id="node2" class="node"><title>Node2</title>
<g id="a_node2"><a xlink:href="../../d8/d8f/Fun4AllDummyInputManager_8h.html" target="_top" xlink:title="Fun4AllDummyInputManager.h">
<polygon fill="none" stroke="black" points="151.5,-168.5 151.5,-187.5 300.5,-187.5 300.5,-168.5 151.5,-168.5"/>
<text text-anchor="middle" x="226" y="-175.5" font-family="FreeSans" font-size="10.00">Fun4AllDummyInputManager.h</text>
</a>
</g>
</g>
<!-- Node1&#45;&gt;Node2 -->
<g id="edge1" class="edge"><title>Node1&#45;&gt;Node2</title>
<path fill="none" stroke="midnightblue" d="M264.914,-224.781C257.426,-215.972 247.782,-204.626 239.968,-195.433"/>
<polygon fill="midnightblue" stroke="midnightblue" points="242.564,-193.083 233.421,-187.731 237.231,-197.617 242.564,-193.083"/>
</g>
<!-- Node10 -->
<g id="node10" class="node"><title>Node10</title>
<g id="a_node10"><a xlink:href="../../d9/ddf/Fun4AllSyncManager_8h.html" target="_top" xlink:title="Fun4AllSyncManager.h">
<polygon fill="none" stroke="black" points="334,-112.5 334,-131.5 450,-131.5 450,-112.5 334,-112.5"/>
<text text-anchor="middle" x="392" y="-119.5" font-family="FreeSans" font-size="10.00">Fun4AllSyncManager.h</text>
</a>
</g>
</g>
<!-- Node1&#45;&gt;Node10 -->
<g id="edge11" class="edge"><title>Node1&#45;&gt;Node10</title>
<path fill="none" stroke="midnightblue" d="M290.916,-224.826C305.021,-210.474 327.486,-187.653 347,-168 356.656,-158.276 367.518,-147.411 376.152,-138.794"/>
<polygon fill="midnightblue" stroke="midnightblue" points="378.747,-141.149 383.355,-131.609 373.803,-136.193 378.747,-141.149"/>
</g>
<!-- Node12 -->
<g id="node12" class="node"><title>Node12</title>
<g id="a_node12"><a xlink:href="../../d2/dcb/recoConsts_8h.html" target="_top" xlink:title="phool/recoConsts.h">
<polygon fill="none" stroke="black" points="0,-168.5 0,-187.5 100,-187.5 100,-168.5 0,-168.5"/>
<text text-anchor="middle" x="50" y="-175.5" font-family="FreeSans" font-size="10.00">phool/recoConsts.h</text>
</a>
</g>
</g>
<!-- Node1&#45;&gt;Node12 -->
<g id="edge15" class="edge"><title>Node1&#45;&gt;Node12</title>
<path fill="none" stroke="midnightblue" d="M223.779,-224.933C183.652,-214.326 129.364,-199.977 92.2064,-190.156"/>
<polygon fill="midnightblue" stroke="midnightblue" points="92.7688,-186.684 82.2064,-187.513 90.9799,-193.452 92.7688,-186.684"/>
</g>
<!-- Node15 -->
<g id="node15" class="node"><title>Node15</title>
<polygon fill="none" stroke="#bfbfbf" points="356,-168.5 356,-187.5 410,-187.5 410,-168.5 356,-168.5"/>
<text text-anchor="middle" x="383" y="-175.5" font-family="FreeSans" font-size="10.00">iostream</text>
</g>
<!-- Node1&#45;&gt;Node15 -->
<g id="edge19" class="edge"><title>Node1&#45;&gt;Node15</title>
<path fill="none" stroke="midnightblue" d="M301.852,-224.933C319.097,-215.171 341.942,-202.24 358.999,-192.586"/>
<polygon fill="midnightblue" stroke="midnightblue" points="360.828,-195.572 367.807,-187.6 357.38,-189.48 360.828,-195.572"/>
</g>
<!-- Node3 -->
<g id="node3" class="node"><title>Node3</title>
<g id="a_node3"><a xlink:href="../../d1/de7/Fun4AllInputManager_8h.html" target="_top" xlink:title="Fun4AllInputManager.h">
<polygon fill="none" stroke="black" points="185,-112.5 185,-131.5 301,-131.5 301,-112.5 185,-112.5"/>
<text text-anchor="middle" x="243" y="-119.5" font-family="FreeSans" font-size="10.00">Fun4AllInputManager.h</text>
</a>
</g>
</g>
<!-- Node2&#45;&gt;Node3 -->
<g id="edge2" class="edge"><title>Node2&#45;&gt;Node3</title>
<path fill="none" stroke="midnightblue" d="M228.807,-168.083C231.085,-160.849 234.371,-150.409 237.208,-141.397"/>
<polygon fill="midnightblue" stroke="midnightblue" points="240.581,-142.341 240.245,-131.751 233.904,-140.239 240.581,-142.341"/>
</g>
<!-- Node7 -->
<g id="node7" class="node"><title>Node7</title>
<g id="a_node7"><a xlink:href="../../da/dc1/Fun4AllReturnCodes_8h.html" target="_top" xlink:title="Fun4AllReturnCodes.h">
<polygon fill="none" stroke="black" points="69.5,-56.5 69.5,-75.5 182.5,-75.5 182.5,-56.5 69.5,-56.5"/>
<text text-anchor="middle" x="126" y="-63.5" font-family="FreeSans" font-size="10.00">Fun4AllReturnCodes.h</text>
</a>
</g>
</g>
<!-- Node2&#45;&gt;Node7 -->
<g id="edge10" class="edge"><title>Node2&#45;&gt;Node7</title>
<path fill="none" stroke="midnightblue" d="M215.139,-168.218C204.643,-159.509 188.535,-145.541 176,-132 161.855,-116.72 147.553,-97.6845 137.89,-84.1714"/>
<polygon fill="midnightblue" stroke="midnightblue" points="140.622,-81.9711 132.001,-75.8124 134.899,-86.003 140.622,-81.9711"/>
</g>
<!-- Node4 -->
<g id="node4" class="node"><title>Node4</title>
<g id="a_node4"><a xlink:href="../../d2/de7/Fun4AllBase_8h.html" target="_top" xlink:title="Fun4AllBase.h">
<polygon fill="none" stroke="black" points="287,-56.5 287,-75.5 367,-75.5 367,-56.5 287,-56.5"/>
<text text-anchor="middle" x="327" y="-63.5" font-family="FreeSans" font-size="10.00">Fun4AllBase.h</text>
</a>
</g>
</g>
<!-- Node3&#45;&gt;Node4 -->
<g id="edge3" class="edge"><title>Node3&#45;&gt;Node4</title>
<path fill="none" stroke="midnightblue" d="M256.496,-112.324C269.6,-103.9 289.712,-90.9709 305.107,-81.0741"/>
<polygon fill="midnightblue" stroke="midnightblue" points="307.018,-84.0063 313.537,-75.6545 303.233,-78.118 307.018,-84.0063"/>
</g>
<!-- Node5 -->
<g id="node5" class="node"><title>Node5</title>
<polygon fill="none" stroke="#bfbfbf" points="190.5,-0.5 190.5,-19.5 231.5,-19.5 231.5,-0.5 190.5,-0.5"/>
<text text-anchor="middle" x="211" y="-7.5" font-family="FreeSans" font-size="10.00">string</text>
</g>
<!-- Node3&#45;&gt;Node5 -->
<g id="edge8" class="edge"><title>Node3&#45;&gt;Node5</title>
<path fill="none" stroke="midnightblue" d="M240.489,-112.368C235.302,-94.5366 223.304,-53.2953 216.315,-29.2717"/>
<polygon fill="midnightblue" stroke="midnightblue" points="219.653,-28.2157 213.499,-19.5914 212.932,-30.1711 219.653,-28.2157"/>
</g>
<!-- Node3&#45;&gt;Node7 -->
<g id="edge6" class="edge"><title>Node3&#45;&gt;Node7</title>
<path fill="none" stroke="midnightblue" d="M224.461,-112.444C205.377,-103.636 175.425,-89.8116 153.564,-79.722"/>
<polygon fill="midnightblue" stroke="midnightblue" points="154.999,-76.5292 144.452,-75.5164 152.065,-82.8849 154.999,-76.5292"/>
</g>
<!-- Node8 -->
<g id="node8" class="node"><title>Node8</title>
<polygon fill="none" stroke="#bfbfbf" points="239.5,-56.5 239.5,-75.5 268.5,-75.5 268.5,-56.5 239.5,-56.5"/>
<text text-anchor="middle" x="254" y="-63.5" font-family="FreeSans" font-size="10.00">list</text>
</g>
<!-- Node3&#45;&gt;Node8 -->
<g id="edge7" class="edge"><title>Node3&#45;&gt;Node8</title>
<path fill="none" stroke="midnightblue" d="M244.816,-112.083C246.274,-104.927 248.371,-94.6353 250.193,-85.6911"/>
<polygon fill="midnightblue" stroke="midnightblue" points="253.651,-86.2485 252.217,-75.7511 246.792,-84.8512 253.651,-86.2485"/>
</g>
<!-- Node9 -->
<g id="node9" class="node"><title>Node9</title>
<polygon fill="none" stroke="#bfbfbf" points="385,-56.5 385,-75.5 429,-75.5 429,-56.5 385,-56.5"/>
<text text-anchor="middle" x="407" y="-63.5" font-family="FreeSans" font-size="10.00">vector</text>
</g>
<!-- Node3&#45;&gt;Node9 -->
<g id="edge9" class="edge"><title>Node3&#45;&gt;Node9</title>
<path fill="none" stroke="midnightblue" d="M268.986,-112.444C297.712,-102.985 344.005,-87.7421 374.956,-77.551"/>
<polygon fill="midnightblue" stroke="midnightblue" points="376.413,-80.7562 384.817,-74.3042 374.224,-74.1073 376.413,-80.7562"/>
</g>
<!-- Node4&#45;&gt;Node5 -->
<g id="edge4" class="edge"><title>Node4&#45;&gt;Node5</title>
<path fill="none" stroke="midnightblue" d="M308.619,-56.4435C289.784,-47.6751 260.269,-33.9355 238.621,-23.8579"/>
<polygon fill="midnightblue" stroke="midnightblue" points="239.838,-20.5637 229.295,-19.5164 236.883,-26.9098 239.838,-20.5637"/>
</g>
<!-- Node6 -->
<g id="node6" class="node"><title>Node6</title>
<polygon fill="none" stroke="#bfbfbf" points="304.5,-0.5 304.5,-19.5 349.5,-19.5 349.5,-0.5 304.5,-0.5"/>
<text text-anchor="middle" x="327" y="-7.5" font-family="FreeSans" font-size="10.00">climits</text>
</g>
<!-- Node4&#45;&gt;Node6 -->
<g id="edge5" class="edge"><title>Node4&#45;&gt;Node6</title>
<path fill="none" stroke="midnightblue" d="M327,-56.083C327,-49.0059 327,-38.8611 327,-29.9865"/>
<polygon fill="midnightblue" stroke="midnightblue" points="330.5,-29.751 327,-19.7511 323.5,-29.7511 330.5,-29.751"/>
</g>
<!-- Node10&#45;&gt;Node4 -->
<g id="edge12" class="edge"><title>Node10&#45;&gt;Node4</title>
<path fill="none" stroke="midnightblue" d="M381.557,-112.324C371.854,-104.263 357.185,-92.0765 345.5,-82.3695"/>
<polygon fill="midnightblue" stroke="midnightblue" points="347.562,-79.532 337.633,-75.8339 343.089,-84.9163 347.562,-79.532"/>
</g>
<!-- Node10&#45;&gt;Node9 -->
<g id="edge14" class="edge"><title>Node10&#45;&gt;Node9</title>
<path fill="none" stroke="midnightblue" d="M394.477,-112.083C396.486,-104.849 399.386,-94.4087 401.89,-85.3968"/>
<polygon fill="midnightblue" stroke="midnightblue" points="405.265,-86.323 404.569,-75.7511 398.52,-84.4495 405.265,-86.323"/>
</g>
<!-- Node11 -->
<g id="node11" class="node"><title>Node11</title>
<polygon fill="none" stroke="#bfbfbf" points="447,-56.5 447,-75.5 477,-75.5 477,-56.5 447,-56.5"/>
<text text-anchor="middle" x="462" y="-63.5" font-family="FreeSans" font-size="10.00">set</text>
</g>
<!-- Node10&#45;&gt;Node11 -->
<g id="edge13" class="edge"><title>Node10&#45;&gt;Node11</title>
<path fill="none" stroke="midnightblue" d="M403.247,-112.324C413.797,-104.185 429.801,-91.8395 442.442,-82.0874"/>
<polygon fill="midnightblue" stroke="midnightblue" points="444.769,-84.7132 450.549,-75.8339 440.493,-79.1707 444.769,-84.7132"/>
</g>
<!-- Node13 -->
<g id="node13" class="node"><title>Node13</title>
<g id="a_node13"><a xlink:href="../../d0/d11/PHFlag_8h.html" target="_top" xlink:title="PHFlag.h">
<polygon fill="none" stroke="black" points="5.5,-112.5 5.5,-131.5 62.5,-131.5 62.5,-112.5 5.5,-112.5"/>
<text text-anchor="middle" x="34" y="-119.5" font-family="FreeSans" font-size="10.00">PHFlag.h</text>
</a>
</g>
</g>
<!-- Node12&#45;&gt;Node13 -->
<g id="edge16" class="edge"><title>Node12&#45;&gt;Node13</title>
<path fill="none" stroke="midnightblue" d="M47.3579,-168.083C45.2144,-160.849 42.1211,-150.409 39.4509,-141.397"/>
<polygon fill="midnightblue" stroke="midnightblue" points="42.7897,-140.345 36.5929,-131.751 36.0781,-142.333 42.7897,-140.345"/>
</g>
<!-- Node13&#45;&gt;Node5 -->
<g id="edge18" class="edge"><title>Node13&#45;&gt;Node5</title>
<path fill="none" stroke="midnightblue" d="M25.0444,-112.192C12.5937,-98.876 -6.92943,-73.337 7,-56 28.3665,-29.4066 128.489,-17.5974 180.084,-13.2046"/>
<polygon fill="midnightblue" stroke="midnightblue" points="180.626,-16.6722 190.311,-12.3771 180.061,-9.69504 180.626,-16.6722"/>
</g>
<!-- Node14 -->
<g id="node14" class="node"><title>Node14</title>
<polygon fill="none" stroke="#bfbfbf" points="16.5,-56.5 16.5,-75.5 51.5,-75.5 51.5,-56.5 16.5,-56.5"/>
<text text-anchor="middle" x="34" y="-63.5" font-family="FreeSans" font-size="10.00">map</text>
</g>
<!-- Node13&#45;&gt;Node14 -->
<g id="edge17" class="edge"><title>Node13&#45;&gt;Node14</title>
<path fill="none" stroke="midnightblue" d="M34,-112.083C34,-105.006 34,-94.8611 34,-85.9865"/>
<polygon fill="midnightblue" stroke="midnightblue" points="37.5001,-85.751 34,-75.7511 30.5001,-85.7511 37.5001,-85.751"/>
</g>
</g>
</svg>
