<?xml version="1.0" encoding="UTF-8" standalone="no"?>
<!DOCTYPE svg PUBLIC "-//W3C//DTD SVG 1.1//EN"
 "http://www.w3.org/Graphics/SVG/1.1/DTD/svg11.dtd">
<!-- Generated by graphviz version 2.36.0 (20140111.2315)
 -->
<!-- Title: fun4all/fun4all/Fun4AllDstInputManager.cc Pages: 1 -->
<svg width="2025pt" height="544pt"
 viewBox="0.00 0.00 2025.00 544.00" xmlns="http://www.w3.org/2000/svg" xmlns:xlink="http://www.w3.org/1999/xlink">
<g id="graph0" class="graph" transform="scale(1 1) rotate(0) translate(4 540)">
<title>fun4all/fun4all/Fun4AllDstInputManager.cc</title>
<!-- Node1 -->
<g id="node1" class="node"><title>Node1</title>
<polygon fill="#bfbfbf" stroke="black" points="1125,-505 1125,-535 1253,-535 1253,-505 1125,-505"/>
<text text-anchor="start" x="1133" y="-523" font-family="FreeSans" font-size="10.00">fun4all/fun4all/Fun4AllDst</text>
<text text-anchor="middle" x="1189" y="-512" font-family="FreeSans" font-size="10.00">InputManager.cc</text>
</g>
<!-- Node2 -->
<g id="node2" class="node"><title>Node2</title>
<g id="a_node2"><a xlink:href="../../dc/da2/Fun4AllServer_8h.html" target="_top" xlink:title="Fun4AllServer.h">
<polygon fill="none" stroke="black" points="372,-224.5 372,-243.5 458,-243.5 458,-224.5 372,-224.5"/>
<text text-anchor="middle" x="415" y="-231.5" font-family="FreeSans" font-size="10.00">Fun4AllServer.h</text>
</a>
</g>
</g>
<!-- Node1&#45;&gt;Node2 -->
<g id="edge1" class="edge"><title>Node1&#45;&gt;Node2</title>
<path fill="none" stroke="midnightblue" d="M1124.77,-519.147C986.815,-518.592 666.789,-512.395 569,-468 531.222,-450.85 502,-444.488 502,-403 502,-403 502,-403 502,-345 502,-303.4 463.248,-268.331 437.47,-249.605"/>
<polygon fill="midnightblue" stroke="midnightblue" points="439.182,-246.531 428.978,-243.679 435.176,-252.272 439.182,-246.531"/>
</g>
<!-- Node13 -->
<g id="node13" class="node"><title>Node13</title>
<g id="a_node13"><a xlink:href="../../dd/de7/Fun4AllDstInputManager_8h.html" target="_top" xlink:title="Fun4AllDstInputManager.h">
<polygon fill="none" stroke="black" points="727.5,-224.5 727.5,-243.5 858.5,-243.5 858.5,-224.5 727.5,-224.5"/>
<text text-anchor="middle" x="793" y="-231.5" font-family="FreeSans" font-size="10.00">Fun4AllDstInputManager.h</text>
</a>
</g>
</g>
<!-- Node1&#45;&gt;Node13 -->
<g id="edge18" class="edge"><title>Node1&#45;&gt;Node13</title>
<path fill="none" stroke="midnightblue" d="M1124.82,-513.443C1013.18,-501.99 795,-470.919 795,-403 795,-403 795,-403 795,-345 795,-312.943 794.14,-275.639 793.548,-253.747"/>
<polygon fill="midnightblue" stroke="midnightblue" points="797.041,-253.454 793.261,-243.557 790.044,-253.651 797.041,-253.454"/>
</g>
<!-- Node15 -->
<g id="node15" class="node"><title>Node15</title>
<g id="a_node15"><a xlink:href="../../da/dc1/Fun4AllReturnCodes_8h.html" target="_top" xlink:title="Fun4AllReturnCodes.h">
<polygon fill="none" stroke="black" points="573.5,-112.5 573.5,-131.5 686.5,-131.5 686.5,-112.5 573.5,-112.5"/>
<text text-anchor="middle" x="630" y="-119.5" font-family="FreeSans" font-size="10.00">Fun4AllReturnCodes.h</text>
</a>
</g>
</g>
<!-- Node1&#45;&gt;Node15 -->
<g id="edge32" class="edge"><title>Node1&#45;&gt;Node15</title>
<path fill="none" stroke="midnightblue" d="M1124.8,-518.773C999.022,-517.399 725.187,-509.563 642,-468 607.099,-450.562 583,-442.015 583,-403 583,-403 583,-403 583,-233 583,-197.702 603.718,-160.786 617.644,-139.96"/>
<polygon fill="midnightblue" stroke="midnightblue" points="620.63,-141.796 623.465,-131.587 614.883,-137.8 620.63,-141.796"/>
</g>
<!-- Node17 -->
<g id="node17" class="node"><title>Node17</title>
<g id="a_node17"><a xlink:href="../../d0/d60/Fun4AllHistoBinDefs_8h.html" target="_top" xlink:title="Fun4AllHistoBinDefs.h">
<polygon fill="none" stroke="black" points="651.5,-448.5 651.5,-467.5 766.5,-467.5 766.5,-448.5 651.5,-448.5"/>
<text text-anchor="middle" x="709" y="-455.5" font-family="FreeSans" font-size="10.00">Fun4AllHistoBinDefs.h</text>
</a>
</g>
</g>
<!-- Node1&#45;&gt;Node17 -->
<g id="edge27" class="edge"><title>Node1&#45;&gt;Node17</title>
<path fill="none" stroke="midnightblue" d="M1124.76,-510.97C1034.15,-499.644 869.544,-479.068 776.956,-467.494"/>
<polygon fill="midnightblue" stroke="midnightblue" points="777.211,-463.999 766.854,-466.232 776.343,-470.945 777.211,-463.999"/>
</g>
<!-- Node18 -->
<g id="node18" class="node"><title>Node18</title>
<g id="a_node18"><a xlink:href="../../d9/ddf/Fun4AllSyncManager_8h.html" target="_top" xlink:title="Fun4AllSyncManager.h">
<polygon fill="none" stroke="black" points="151,-168.5 151,-187.5 267,-187.5 267,-168.5 151,-168.5"/>
<text text-anchor="middle" x="209" y="-175.5" font-family="FreeSans" font-size="10.00">Fun4AllSyncManager.h</text>
</a>
</g>
</g>
<!-- Node1&#45;&gt;Node18 -->
<g id="edge28" class="edge"><title>Node1&#45;&gt;Node18</title>
<path fill="none" stroke="midnightblue" d="M1124.8,-517.785C913.785,-512.951 255,-490.827 255,-403 255,-403 255,-403 255,-289 255,-253.817 234.722,-216.863 221.093,-195.999"/>
<polygon fill="midnightblue" stroke="midnightblue" points="223.91,-193.916 215.396,-187.609 218.119,-197.848 223.91,-193.916"/>
</g>
<!-- Node20 -->
<g id="node20" class="node"><title>Node20</title>
<g id="a_node20"><a xlink:href="../../da/d61/RunHeader_8h.html" target="_top" xlink:title="ffaobjects/RunHeader.h">
<polygon fill="none" stroke="black" points="1568,-448.5 1568,-467.5 1686,-467.5 1686,-448.5 1568,-448.5"/>
<text text-anchor="middle" x="1627" y="-455.5" font-family="FreeSans" font-size="10.00">ffaobjects/RunHeader.h</text>
</a>
</g>
</g>
<!-- Node1&#45;&gt;Node20 -->
<g id="edge33" class="edge"><title>Node1&#45;&gt;Node20</title>
<path fill="none" stroke="midnightblue" d="M1253.16,-510.211C1334.56,-499.06 1474.39,-479.905 1558.02,-468.449"/>
<polygon fill="midnightblue" stroke="midnightblue" points="1558.5,-471.916 1567.94,-467.091 1557.55,-464.98 1558.5,-471.916"/>
</g>
<!-- Node24 -->
<g id="node24" class="node"><title>Node24</title>
<g id="a_node24"><a xlink:href="../../da/de1/ffaobjects_2SyncObject_8h.html" target="_top" xlink:title="ffaobjects/SyncObject.h">
<polygon fill="none" stroke="black" points="1704.5,-448.5 1704.5,-467.5 1823.5,-467.5 1823.5,-448.5 1704.5,-448.5"/>
<text text-anchor="middle" x="1764" y="-455.5" font-family="FreeSans" font-size="10.00">ffaobjects/SyncObject.h</text>
</a>
</g>
</g>
<!-- Node1&#45;&gt;Node24 -->
<g id="edge39" class="edge"><title>Node1&#45;&gt;Node24</title>
<path fill="none" stroke="midnightblue" d="M1253.36,-513.121C1347.58,-504.38 1528.84,-487.054 1693.83,-468.104"/>
<polygon fill="midnightblue" stroke="midnightblue" points="1694.64,-471.535 1704.17,-466.912 1693.84,-464.581 1694.64,-471.535"/>
</g>
<!-- Node25 -->
<g id="node25" class="node"><title>Node25</title>
<g id="a_node25"><a xlink:href="../../d5/d94/SyncDefs_8h.html" target="_top" xlink:title="ffaobjects/SyncDefs.h">
<polygon fill="none" stroke="black" points="1091.5,-448.5 1091.5,-467.5 1202.5,-467.5 1202.5,-448.5 1091.5,-448.5"/>
<text text-anchor="middle" x="1147" y="-455.5" font-family="FreeSans" font-size="10.00">ffaobjects/SyncDefs.h</text>
</a>
</g>
</g>
<!-- Node1&#45;&gt;Node25 -->
<g id="edge42" class="edge"><title>Node1&#45;&gt;Node25</title>
<path fill="none" stroke="midnightblue" d="M1179.05,-504.781C1173.01,-496.152 1165.26,-485.088 1158.9,-475.999"/>
<polygon fill="midnightblue" stroke="midnightblue" points="1161.71,-473.916 1153.11,-467.731 1155.98,-477.93 1161.71,-473.916"/>
</g>
<!-- Node26 -->
<g id="node26" class="node"><title>Node26</title>
<g id="a_node26"><a xlink:href="../../dd/dd4/getClass_8h.html" target="_top" xlink:title="phool/getClass.h">
<polygon fill="none" stroke="black" points="1356.5,-448.5 1356.5,-467.5 1445.5,-467.5 1445.5,-448.5 1356.5,-448.5"/>
<text text-anchor="middle" x="1401" y="-455.5" font-family="FreeSans" font-size="10.00">phool/getClass.h</text>
</a>
</g>
</g>
<!-- Node1&#45;&gt;Node26 -->
<g id="edge43" class="edge"><title>Node1&#45;&gt;Node26</title>
<path fill="none" stroke="midnightblue" d="M1238.7,-504.933C1276.02,-494.372 1326.45,-480.1 1361.14,-470.282"/>
<polygon fill="midnightblue" stroke="midnightblue" points="1362.25,-473.604 1370.92,-467.513 1360.35,-466.868 1362.25,-473.604"/>
</g>
<!-- Node29 -->
<g id="node29" class="node"><title>Node29</title>
<g id="a_node29"><a xlink:href="../../d8/d30/PHCompositeNode_8h.html" target="_top" xlink:title="PHCompositeNode.h">
<polygon fill="none" stroke="black" points="1363,-224.5 1363,-243.5 1471,-243.5 1471,-224.5 1363,-224.5"/>
<text text-anchor="middle" x="1417" y="-231.5" font-family="FreeSans" font-size="10.00">PHCompositeNode.h</text>
</a>
</g>
</g>
<!-- Node1&#45;&gt;Node29 -->
<g id="edge80" class="edge"><title>Node1&#45;&gt;Node29</title>
<path fill="none" stroke="midnightblue" d="M1253.18,-513.779C1321.61,-506.999 1424.19,-492.967 1454,-468 1501.3,-428.385 1527.59,-389.581 1497,-336 1481.39,-308.662 1455.33,-324.85 1436,-300 1425.63,-286.672 1420.92,-267.843 1418.78,-253.878"/>
<polygon fill="midnightblue" stroke="midnightblue" points="1422.25,-253.417 1417.55,-243.92 1415.3,-254.272 1422.25,-253.417"/>
</g>
<!-- Node33 -->
<g id="node33" class="node"><title>Node33</title>
<g id="a_node33"><a xlink:href="../../d3/d79/PHIODataNode_8h.html" target="_top" xlink:title="PHIODataNode.h">
<polygon fill="none" stroke="black" points="1185,-392.5 1185,-411.5 1277,-411.5 1277,-392.5 1185,-392.5"/>
<text text-anchor="middle" x="1231" y="-399.5" font-family="FreeSans" font-size="10.00">PHIODataNode.h</text>
</a>
</g>
</g>
<!-- Node1&#45;&gt;Node33 -->
<g id="edge81" class="edge"><title>Node1&#45;&gt;Node33</title>
<path fill="none" stroke="midnightblue" d="M1195.58,-504.879C1200.19,-494.733 1206.33,-480.668 1211,-468 1216.74,-452.42 1222.21,-434.343 1225.97,-421.213"/>
<polygon fill="midnightblue" stroke="midnightblue" points="1229.36,-422.086 1228.7,-411.512 1222.62,-420.19 1229.36,-422.086"/>
</g>
<!-- Node36 -->
<g id="node36" class="node"><title>Node36</title>
<g id="a_node36"><a xlink:href="../../dd/de7/PHNodeIOManager_8h.html" target="_top" xlink:title="PHNodeIOManager.h">
<polygon fill="none" stroke="black" points="935,-168.5 935,-187.5 1045,-187.5 1045,-168.5 935,-168.5"/>
<text text-anchor="middle" x="990" y="-175.5" font-family="FreeSans" font-size="10.00">PHNodeIOManager.h</text>
</a>
</g>
</g>
<!-- Node1&#45;&gt;Node36 -->
<g id="edge82" class="edge"><title>Node1&#45;&gt;Node36</title>
<path fill="none" stroke="midnightblue" d="M1124.91,-514.792C1054.42,-506.277 951,-480.568 951,-403 951,-403 951,-403 951,-289 951,-254.716 968.037,-217.698 979.59,-196.537"/>
<polygon fill="midnightblue" stroke="midnightblue" points="982.685,-198.175 984.577,-187.75 976.597,-194.72 982.685,-198.175"/>
</g>
<!-- Node40 -->
<g id="node40" class="node"><title>Node40</title>
<g id="a_node40"><a xlink:href="../../d2/dcb/recoConsts_8h.html" target="_top" xlink:title="phool/recoConsts.h">
<polygon fill="none" stroke="black" points="823,-392.5 823,-411.5 923,-411.5 923,-392.5 823,-392.5"/>
<text text-anchor="middle" x="873" y="-399.5" font-family="FreeSans" font-size="10.00">phool/recoConsts.h</text>
</a>
</g>
</g>
<!-- Node1&#45;&gt;Node40 -->
<g id="edge83" class="edge"><title>Node1&#45;&gt;Node40</title>
<path fill="none" stroke="midnightblue" d="M1124.91,-516.366C1071.76,-511.837 995.677,-499.783 937,-468 915.551,-456.382 896.743,-435.213 885.164,-420.193"/>
<polygon fill="midnightblue" stroke="midnightblue" points="887.694,-417.728 878.929,-411.775 882.069,-421.894 887.694,-417.728"/>
</g>
<!-- Node42 -->
<g id="node42" class="node"><title>Node42</title>
<polygon fill="none" stroke="#bfbfbf" points="1841.5,-448.5 1841.5,-467.5 1884.5,-467.5 1884.5,-448.5 1841.5,-448.5"/>
<text text-anchor="middle" x="1863" y="-455.5" font-family="FreeSans" font-size="10.00">TH1.h</text>
</g>
<!-- Node1&#45;&gt;Node42 -->
<g id="edge87" class="edge"><title>Node1&#45;&gt;Node42</title>
<path fill="none" stroke="midnightblue" d="M1253.44,-518.209C1368.13,-515.862 1615.08,-506.558 1831.5,-467.677"/>
<polygon fill="midnightblue" stroke="midnightblue" points="1832.24,-471.098 1841.45,-465.863 1830.99,-464.212 1832.24,-471.098"/>
</g>
<!-- Node43 -->
<g id="node43" class="node"><title>Node43</title>
<polygon fill="none" stroke="#bfbfbf" points="1902.5,-448.5 1902.5,-467.5 1947.5,-467.5 1947.5,-448.5 1902.5,-448.5"/>
<text text-anchor="middle" x="1925" y="-455.5" font-family="FreeSans" font-size="10.00">cstdlib</text>
</g>
<!-- Node1&#45;&gt;Node43 -->
<g id="edge88" class="edge"><title>Node1&#45;&gt;Node43</title>
<path fill="none" stroke="midnightblue" d="M1253.11,-518.667C1375.77,-517.096 1652.04,-509.046 1892.43,-467.703"/>
<polygon fill="midnightblue" stroke="midnightblue" points="1893.15,-471.129 1902.4,-465.964 1891.95,-464.233 1893.15,-471.129"/>
</g>
<!-- Node44 -->
<g id="node44" class="node"><title>Node44</title>
<polygon fill="none" stroke="#bfbfbf" points="1965.5,-448.5 1965.5,-467.5 2016.5,-467.5 2016.5,-448.5 1965.5,-448.5"/>
<text text-anchor="middle" x="1991" y="-455.5" font-family="FreeSans" font-size="10.00">memory</text>
</g>
<!-- Node1&#45;&gt;Node44 -->
<g id="edge89" class="edge"><title>Node1&#45;&gt;Node44</title>
<path fill="none" stroke="midnightblue" d="M1253.09,-518.735C1383.66,-517.332 1689.83,-509.625 1954.91,-467.853"/>
<polygon fill="midnightblue" stroke="midnightblue" points="1955.8,-471.257 1965.12,-466.225 1954.69,-464.344 1955.8,-471.257"/>
</g>
<!-- Node3 -->
<g id="node3" class="node"><title>Node3</title>
<g id="a_node3"><a xlink:href="../../d2/de7/Fun4AllBase_8h.html" target="_top" xlink:title="Fun4AllBase.h">
<polygon fill="none" stroke="black" points="361,-112.5 361,-131.5 441,-131.5 441,-112.5 361,-112.5"/>
<text text-anchor="middle" x="401" y="-119.5" font-family="FreeSans" font-size="10.00">Fun4AllBase.h</text>
</a>
</g>
</g>
<!-- Node2&#45;&gt;Node3 -->
<g id="edge2" class="edge"><title>Node2&#45;&gt;Node3</title>
<path fill="none" stroke="midnightblue" d="M408.371,-224.275C402.235,-215.607 393.542,-201.669 390,-188 385.963,-172.42 389.68,-154.343 393.851,-141.213"/>
<polygon fill="midnightblue" stroke="midnightblue" points="397.248,-142.107 397.301,-131.512 390.653,-139.761 397.248,-142.107"/>
</g>
<!-- Node4 -->
<g id="node4" class="node"><title>Node4</title>
<polygon fill="none" stroke="#bfbfbf" points="944.5,-56.5 944.5,-75.5 985.5,-75.5 985.5,-56.5 944.5,-56.5"/>
<text text-anchor="middle" x="965" y="-63.5" font-family="FreeSans" font-size="10.00">string</text>
</g>
<!-- Node2&#45;&gt;Node4 -->
<g id="edge16" class="edge"><title>Node2&#45;&gt;Node4</title>
<path fill="none" stroke="midnightblue" d="M454.507,-224.44C477.618,-217.755 506.074,-206.421 526,-188 553.731,-162.365 533.034,-133.617 564,-112 623.708,-70.3178 850.88,-66.6576 934.16,-66.7541"/>
<polygon fill="midnightblue" stroke="midnightblue" points="934.244,-70.2543 944.255,-66.7856 934.266,-63.2543 934.244,-70.2543"/>
</g>
<!-- Node6 -->
<g id="node6" class="node"><title>Node6</title>
<g id="a_node6"><a xlink:href="../../d0/d59/Fun4AllHistoManager_8h.html" target="_top" xlink:title="Fun4AllHistoManager.h">
<polygon fill="none" stroke="black" points="399,-168.5 399,-187.5 517,-187.5 517,-168.5 399,-168.5"/>
<text text-anchor="middle" x="458" y="-175.5" font-family="FreeSans" font-size="10.00">Fun4AllHistoManager.h</text>
</a>
</g>
</g>
<!-- Node2&#45;&gt;Node6 -->
<g id="edge5" class="edge"><title>Node2&#45;&gt;Node6</title>
<path fill="none" stroke="midnightblue" d="M422.101,-224.083C428.237,-216.377 437.27,-205.033 444.739,-195.653"/>
<polygon fill="midnightblue" stroke="midnightblue" points="447.54,-197.754 451.032,-187.751 442.064,-193.394 447.54,-197.754"/>
</g>
<!-- Node7 -->
<g id="node7" class="node"><title>Node7</title>
<polygon fill="none" stroke="#bfbfbf" points="1381,-0.5 1381,-19.5 1435,-19.5 1435,-0.5 1381,-0.5"/>
<text text-anchor="middle" x="1408" y="-7.5" font-family="FreeSans" font-size="10.00">iostream</text>
</g>
<!-- Node2&#45;&gt;Node7 -->
<g id="edge14" class="edge"><title>Node2&#45;&gt;Node7</title>
<path fill="none" stroke="midnightblue" d="M407.114,-224.396C392.658,-207.953 362.44,-170.281 352,-132 342.893,-98.6071 341.65,-77.2126 369,-56 409.348,-24.707 1189.88,-13.5785 1370.78,-11.4142"/>
<polygon fill="midnightblue" stroke="midnightblue" points="1370.91,-14.9131 1380.87,-11.2955 1370.83,-7.91356 1370.91,-14.9131"/>
</g>
<!-- Node8 -->
<g id="node8" class="node"><title>Node8</title>
<polygon fill="none" stroke="#bfbfbf" points="790.5,-112.5 790.5,-131.5 825.5,-131.5 825.5,-112.5 790.5,-112.5"/>
<text text-anchor="middle" x="808" y="-119.5" font-family="FreeSans" font-size="10.00">map</text>
</g>
<!-- Node2&#45;&gt;Node8 -->
<g id="edge15" class="edge"><title>Node2&#45;&gt;Node8</title>
<path fill="none" stroke="midnightblue" d="M458.197,-230.034C533.792,-224.334 686.635,-210.392 735,-188 759.167,-176.811 781.138,-154.913 794.523,-139.64"/>
<polygon fill="midnightblue" stroke="midnightblue" points="797.245,-141.841 801.035,-131.947 791.903,-137.319 797.245,-141.841"/>
</g>
<!-- Node9 -->
<g id="node9" class="node"><title>Node9</title>
<g id="a_node9"><a xlink:href="../../dc/d26/PHTimer_8h.html" target="_top" xlink:title="high precision timer ">
<polygon fill="none" stroke="black" points="44.5,-168.5 44.5,-187.5 133.5,-187.5 133.5,-168.5 44.5,-168.5"/>
<text text-anchor="middle" x="89" y="-175.5" font-family="FreeSans" font-size="10.00">phool/PHTimer.h</text>
</a>
</g>
</g>
<!-- Node2&#45;&gt;Node9 -->
<g id="edge10" class="edge"><title>Node2&#45;&gt;Node9</title>
<path fill="none" stroke="midnightblue" d="M371.962,-225.972C320.156,-217.497 230.239,-202.742 143.538,-188.252"/>
<polygon fill="midnightblue" stroke="midnightblue" points="143.971,-184.775 133.53,-186.578 142.816,-191.68 143.971,-184.775"/>
</g>
<!-- Node12 -->
<g id="node12" class="node"><title>Node12</title>
<polygon fill="none" stroke="#bfbfbf" points="261,-112.5 261,-131.5 305,-131.5 305,-112.5 261,-112.5"/>
<text text-anchor="middle" x="283" y="-119.5" font-family="FreeSans" font-size="10.00">vector</text>
</g>
<!-- Node2&#45;&gt;Node12 -->
<g id="edge17" class="edge"><title>Node2&#45;&gt;Node12</title>
<path fill="none" stroke="midnightblue" d="M385.326,-224.494C364.772,-217.406 337.826,-205.597 319,-188 305.182,-175.084 295.383,-155.64 289.532,-141.384"/>
<polygon fill="midnightblue" stroke="midnightblue" points="292.665,-139.778 285.826,-131.686 286.127,-142.277 292.665,-139.778"/>
</g>
<!-- Node3&#45;&gt;Node4 -->
<g id="edge3" class="edge"><title>Node3&#45;&gt;Node4</title>
<path fill="none" stroke="midnightblue" d="M441.303,-117.036C457.384,-115.46 476.067,-113.635 493,-112 659.34,-95.9345 858.694,-77.0495 934.089,-69.9204"/>
<polygon fill="midnightblue" stroke="midnightblue" points="934.669,-73.3813 944.295,-68.9556 934.01,-66.4124 934.669,-73.3813"/>
</g>
<!-- Node5 -->
<g id="node5" class="node"><title>Node5</title>
<polygon fill="none" stroke="#bfbfbf" points="378.5,-56.5 378.5,-75.5 423.5,-75.5 423.5,-56.5 378.5,-56.5"/>
<text text-anchor="middle" x="401" y="-63.5" font-family="FreeSans" font-size="10.00">climits</text>
</g>
<!-- Node3&#45;&gt;Node5 -->
<g id="edge4" class="edge"><title>Node3&#45;&gt;Node5</title>
<path fill="none" stroke="midnightblue" d="M401,-112.083C401,-105.006 401,-94.8611 401,-85.9865"/>
<polygon fill="midnightblue" stroke="midnightblue" points="404.5,-85.751 401,-75.7511 397.5,-85.7511 404.5,-85.751"/>
</g>
<!-- Node6&#45;&gt;Node3 -->
<g id="edge6" class="edge"><title>Node6&#45;&gt;Node3</title>
<path fill="none" stroke="midnightblue" d="M448.842,-168.324C440.499,-160.42 427.968,-148.548 417.823,-138.938"/>
<polygon fill="midnightblue" stroke="midnightblue" points="419.991,-136.171 410.325,-131.834 415.177,-141.252 419.991,-136.171"/>
</g>
<!-- Node6&#45;&gt;Node4 -->
<g id="edge9" class="edge"><title>Node6&#45;&gt;Node4</title>
<path fill="none" stroke="midnightblue" d="M464.537,-168.403C476.124,-153.895 501.81,-124.875 531,-112 603.531,-80.0086 847.559,-70.2487 934.181,-67.7524"/>
<polygon fill="midnightblue" stroke="midnightblue" points="934.506,-71.2448 944.405,-67.4708 934.313,-64.2475 934.506,-71.2448"/>
</g>
<!-- Node6&#45;&gt;Node7 -->
<g id="edge7" class="edge"><title>Node6&#45;&gt;Node7</title>
<path fill="none" stroke="midnightblue" d="M460.692,-168.076C465.561,-153.624 477.295,-125.368 498,-112 645.692,-16.646 1217.52,-10.6681 1370.29,-10.8054"/>
<polygon fill="midnightblue" stroke="midnightblue" points="1370.55,-14.3057 1380.56,-10.8247 1370.56,-7.30576 1370.55,-14.3057"/>
</g>
<!-- Node6&#45;&gt;Node8 -->
<g id="edge8" class="edge"><title>Node6&#45;&gt;Node8</title>
<path fill="none" stroke="midnightblue" d="M513.459,-168.444C589.333,-156.737 722.636,-136.171 780.217,-127.287"/>
<polygon fill="midnightblue" stroke="midnightblue" points="781.021,-130.704 790.371,-125.72 779.954,-123.786 781.021,-130.704"/>
</g>
<!-- Node9&#45;&gt;Node7 -->
<g id="edge11" class="edge"><title>Node9&#45;&gt;Node7</title>
<path fill="none" stroke="midnightblue" d="M100.102,-168.33C131.899,-144.157 226.945,-76.4477 319,-56 525.736,-10.079 1203.49,-10.0582 1370.54,-10.7779"/>
<polygon fill="midnightblue" stroke="midnightblue" points="1370.78,-14.2789 1380.79,-10.8259 1370.81,-7.27901 1370.78,-14.2789"/>
</g>
<!-- Node10 -->
<g id="node10" class="node"><title>Node10</title>
<polygon fill="none" stroke="#bfbfbf" points="0,-112.5 0,-131.5 52,-131.5 52,-112.5 0,-112.5"/>
<text text-anchor="middle" x="26" y="-119.5" font-family="FreeSans" font-size="10.00">sstream</text>
</g>
<!-- Node9&#45;&gt;Node10 -->
<g id="edge12" class="edge"><title>Node9&#45;&gt;Node10</title>
<path fill="none" stroke="midnightblue" d="M78.878,-168.324C69.4736,-160.263 55.2559,-148.077 43.931,-138.369"/>
<polygon fill="midnightblue" stroke="midnightblue" points="46.1766,-135.684 36.3062,-131.834 41.621,-140.999 46.1766,-135.684"/>
</g>
<!-- Node11 -->
<g id="node11" class="node"><title>Node11</title>
<polygon fill="none" stroke="#bfbfbf" points="70,-112.5 70,-131.5 120,-131.5 120,-112.5 70,-112.5"/>
<text text-anchor="middle" x="95" y="-119.5" font-family="FreeSans" font-size="10.00">unistd.h</text>
</g>
<!-- Node9&#45;&gt;Node11 -->
<g id="edge13" class="edge"><title>Node9&#45;&gt;Node11</title>
<path fill="none" stroke="midnightblue" d="M89.9908,-168.083C90.7859,-160.927 91.9294,-150.635 92.9232,-141.691"/>
<polygon fill="midnightblue" stroke="midnightblue" points="96.4018,-142.076 94.0277,-131.751 89.4447,-141.303 96.4018,-142.076"/>
</g>
<!-- Node13&#45;&gt;Node4 -->
<g id="edge25" class="edge"><title>Node13&#45;&gt;Node4</title>
<path fill="none" stroke="midnightblue" d="M800.039,-224.268C810.482,-211.482 830.904,-187.111 850,-168 882.285,-135.691 923.061,-101.234 946.371,-82.0806"/>
<polygon fill="midnightblue" stroke="midnightblue" points="948.591,-84.7864 954.12,-75.7487 944.162,-79.3658 948.591,-84.7864"/>
</g>
<!-- Node13&#45;&gt;Node8 -->
<g id="edge26" class="edge"><title>Node13&#45;&gt;Node8</title>
<path fill="none" stroke="midnightblue" d="M794.177,-224.368C796.598,-206.617 802.182,-165.666 805.464,-141.597"/>
<polygon fill="midnightblue" stroke="midnightblue" points="808.945,-141.973 806.828,-131.591 802.009,-141.027 808.945,-141.973"/>
</g>
<!-- Node14 -->
<g id="node14" class="node"><title>Node14</title>
<g id="a_node14"><a xlink:href="../../d1/de7/Fun4AllInputManager_8h.html" target="_top" xlink:title="Fun4AllInputManager.h">
<polygon fill="none" stroke="black" points="611,-168.5 611,-187.5 727,-187.5 727,-168.5 611,-168.5"/>
<text text-anchor="middle" x="669" y="-175.5" font-family="FreeSans" font-size="10.00">Fun4AllInputManager.h</text>
</a>
</g>
</g>
<!-- Node13&#45;&gt;Node14 -->
<g id="edge19" class="edge"><title>Node13&#45;&gt;Node14</title>
<path fill="none" stroke="midnightblue" d="M773.352,-224.444C753.035,-215.596 721.097,-201.687 697.902,-191.586"/>
<polygon fill="midnightblue" stroke="midnightblue" points="699.122,-188.3 688.556,-187.516 696.327,-194.718 699.122,-188.3"/>
</g>
<!-- Node14&#45;&gt;Node3 -->
<g id="edge20" class="edge"><title>Node14&#45;&gt;Node3</title>
<path fill="none" stroke="midnightblue" d="M626.535,-168.444C578.896,-158.845 501.692,-143.289 451.131,-133.101"/>
<polygon fill="midnightblue" stroke="midnightblue" points="451.573,-129.62 441.078,-131.075 450.19,-136.482 451.573,-129.62"/>
</g>
<!-- Node14&#45;&gt;Node4 -->
<g id="edge23" class="edge"><title>Node14&#45;&gt;Node4</title>
<path fill="none" stroke="midnightblue" d="M682.746,-168.355C707.99,-152.594 760.98,-120.063 781,-112 832.781,-91.1466 896.79,-78.1631 934.045,-71.7812"/>
<polygon fill="midnightblue" stroke="midnightblue" points="934.968,-75.176 944.258,-70.0831 933.82,-68.2708 934.968,-75.176"/>
</g>
<!-- Node14&#45;&gt;Node12 -->
<g id="edge24" class="edge"><title>Node14&#45;&gt;Node12</title>
<path fill="none" stroke="midnightblue" d="M610.794,-168.857C528.399,-157.33 380.537,-136.645 315.361,-127.527"/>
<polygon fill="midnightblue" stroke="midnightblue" points="315.659,-124.035 305.271,-126.116 314.689,-130.967 315.659,-124.035"/>
</g>
<!-- Node14&#45;&gt;Node15 -->
<g id="edge21" class="edge"><title>Node14&#45;&gt;Node15</title>
<path fill="none" stroke="midnightblue" d="M662.56,-168.083C657.051,-160.455 648.969,-149.264 642.235,-139.941"/>
<polygon fill="midnightblue" stroke="midnightblue" points="645.013,-137.809 636.32,-131.751 639.338,-141.907 645.013,-137.809"/>
</g>
<!-- Node16 -->
<g id="node16" class="node"><title>Node16</title>
<polygon fill="none" stroke="#bfbfbf" points="704.5,-112.5 704.5,-131.5 733.5,-131.5 733.5,-112.5 704.5,-112.5"/>
<text text-anchor="middle" x="719" y="-119.5" font-family="FreeSans" font-size="10.00">list</text>
</g>
<!-- Node14&#45;&gt;Node16 -->
<g id="edge22" class="edge"><title>Node14&#45;&gt;Node16</title>
<path fill="none" stroke="midnightblue" d="M677.256,-168.083C684.465,-160.298 695.11,-148.801 703.846,-139.367"/>
<polygon fill="midnightblue" stroke="midnightblue" points="706.671,-141.467 710.897,-131.751 701.535,-136.711 706.671,-141.467"/>
</g>
<!-- Node18&#45;&gt;Node3 -->
<g id="edge29" class="edge"><title>Node18&#45;&gt;Node3</title>
<path fill="none" stroke="midnightblue" d="M239.423,-168.444C272.285,-159.201 324.785,-144.436 360.974,-134.257"/>
<polygon fill="midnightblue" stroke="midnightblue" points="362.04,-137.593 370.719,-131.516 360.145,-130.855 362.04,-137.593"/>
</g>
<!-- Node18&#45;&gt;Node12 -->
<g id="edge31" class="edge"><title>Node18&#45;&gt;Node12</title>
<path fill="none" stroke="midnightblue" d="M220.889,-168.324C232.15,-160.107 249.287,-147.602 262.709,-137.807"/>
<polygon fill="midnightblue" stroke="midnightblue" points="264.88,-140.556 270.894,-131.834 260.753,-134.901 264.88,-140.556"/>
</g>
<!-- Node19 -->
<g id="node19" class="node"><title>Node19</title>
<polygon fill="none" stroke="#bfbfbf" points="194,-112.5 194,-131.5 224,-131.5 224,-112.5 194,-112.5"/>
<text text-anchor="middle" x="209" y="-119.5" font-family="FreeSans" font-size="10.00">set</text>
</g>
<!-- Node18&#45;&gt;Node19 -->
<g id="edge30" class="edge"><title>Node18&#45;&gt;Node19</title>
<path fill="none" stroke="midnightblue" d="M209,-168.083C209,-161.006 209,-150.861 209,-141.986"/>
<polygon fill="midnightblue" stroke="midnightblue" points="212.5,-141.751 209,-131.751 205.5,-141.751 212.5,-141.751"/>
</g>
<!-- Node20&#45;&gt;Node7 -->
<g id="edge38" class="edge"><title>Node20&#45;&gt;Node7</title>
<path fill="none" stroke="midnightblue" d="M1633.81,-448.458C1647.28,-430.688 1676,-387.976 1676,-347 1676,-347 1676,-347 1676,-121 1676,-22.4896 1519.12,-10.3284 1445.41,-10.0505"/>
<polygon fill="midnightblue" stroke="midnightblue" points="1445.16,-6.55133 1435.17,-10.0869 1445.18,-13.5513 1445.16,-6.55133"/>
</g>
<!-- Node21 -->
<g id="node21" class="node"><title>Node21</title>
<g id="a_node21"><a xlink:href="../../df/d32/PHObject_8h.html" target="_top" xlink:title="phool/PHObject.h">
<polygon fill="none" stroke="black" points="1704.5,-392.5 1704.5,-411.5 1797.5,-411.5 1797.5,-392.5 1704.5,-392.5"/>
<text text-anchor="middle" x="1751" y="-399.5" font-family="FreeSans" font-size="10.00">phool/PHObject.h</text>
</a>
</g>
</g>
<!-- Node20&#45;&gt;Node21 -->
<g id="edge34" class="edge"><title>Node20&#45;&gt;Node21</title>
<path fill="none" stroke="midnightblue" d="M1646.65,-448.444C1666.96,-439.596 1698.9,-425.687 1722.1,-415.586"/>
<polygon fill="midnightblue" stroke="midnightblue" points="1723.67,-418.718 1731.44,-411.516 1720.88,-412.3 1723.67,-418.718"/>
</g>
<!-- Node23 -->
<g id="node23" class="node"><title>Node23</title>
<polygon fill="none" stroke="#bfbfbf" points="1606.5,-392.5 1606.5,-411.5 1647.5,-411.5 1647.5,-392.5 1606.5,-392.5"/>
<text text-anchor="middle" x="1627" y="-399.5" font-family="FreeSans" font-size="10.00">ctime</text>
</g>
<!-- Node20&#45;&gt;Node23 -->
<g id="edge37" class="edge"><title>Node20&#45;&gt;Node23</title>
<path fill="none" stroke="midnightblue" d="M1627,-448.083C1627,-441.006 1627,-430.861 1627,-421.986"/>
<polygon fill="midnightblue" stroke="midnightblue" points="1630.5,-421.751 1627,-411.751 1623.5,-421.751 1630.5,-421.751"/>
</g>
<!-- Node21&#45;&gt;Node7 -->
<g id="edge36" class="edge"><title>Node21&#45;&gt;Node7</title>
<path fill="none" stroke="midnightblue" d="M1748.44,-392.249C1743.25,-373.738 1732,-329.179 1732,-291 1732,-291 1732,-291 1732,-121 1732,-86.6051 1718.81,-74.7826 1690,-56 1650.28,-30.1084 1512.5,-17.7863 1445.35,-13.2102"/>
<polygon fill="midnightblue" stroke="midnightblue" points="1445.42,-9.707 1435.21,-12.5414 1444.96,-16.6918 1445.42,-9.707"/>
</g>
<!-- Node22 -->
<g id="node22" class="node"><title>Node22</title>
<polygon fill="none" stroke="#bfbfbf" points="1429.5,-336.5 1429.5,-355.5 1488.5,-355.5 1488.5,-336.5 1429.5,-336.5"/>
<text text-anchor="middle" x="1459" y="-343.5" font-family="FreeSans" font-size="10.00">TObject.h</text>
</g>
<!-- Node21&#45;&gt;Node22 -->
<g id="edge35" class="edge"><title>Node21&#45;&gt;Node22</title>
<path fill="none" stroke="midnightblue" d="M1704.73,-392.444C1647.89,-381.933 1552.43,-364.278 1498.75,-354.352"/>
<polygon fill="midnightblue" stroke="midnightblue" points="1499.07,-350.851 1488.6,-352.474 1497.79,-357.734 1499.07,-350.851"/>
</g>
<!-- Node24&#45;&gt;Node7 -->
<g id="edge41" class="edge"><title>Node24&#45;&gt;Node7</title>
<path fill="none" stroke="midnightblue" d="M1774.4,-448.37C1783.88,-439.982 1797.65,-426.428 1806,-412 1821.14,-385.841 1826,-377.225 1826,-347 1826,-347 1826,-347 1826,-121 1826,-42.6361 1547.77,-18.9212 1445.3,-12.8446"/>
<polygon fill="midnightblue" stroke="midnightblue" points="1445.29,-9.33809 1435.1,-12.264 1444.89,-16.3268 1445.29,-9.33809"/>
</g>
<!-- Node24&#45;&gt;Node21 -->
<g id="edge40" class="edge"><title>Node24&#45;&gt;Node21</title>
<path fill="none" stroke="midnightblue" d="M1761.85,-448.083C1760.13,-440.927 1757.65,-430.635 1755.5,-421.691"/>
<polygon fill="midnightblue" stroke="midnightblue" points="1758.85,-420.654 1753.11,-411.751 1752.04,-422.293 1758.85,-420.654"/>
</g>
<!-- Node26&#45;&gt;Node4 -->
<g id="edge79" class="edge"><title>Node26&#45;&gt;Node4</title>
<path fill="none" stroke="midnightblue" d="M1356.32,-451.465C1268.83,-439.553 1080.39,-408.256 1046,-356 1000.03,-286.139 1083.55,-246.236 1054,-168 1040.22,-131.521 1006.6,-99.6886 984.849,-81.9424"/>
<polygon fill="midnightblue" stroke="midnightblue" points="986.903,-79.1049 976.89,-75.642 982.558,-84.5932 986.903,-79.1049"/>
</g>
<!-- Node26&#45;&gt;Node22 -->
<g id="edge78" class="edge"><title>Node26&#45;&gt;Node22</title>
<path fill="none" stroke="midnightblue" d="M1405.55,-448.368C1415.04,-430.376 1437.09,-388.55 1449.71,-364.627"/>
<polygon fill="midnightblue" stroke="midnightblue" points="1452.9,-366.07 1454.47,-355.591 1446.71,-362.805 1452.9,-366.07"/>
</g>
<!-- Node27 -->
<g id="node27" class="node"><title>Node27</title>
<g id="a_node27"><a xlink:href="../../d8/dfd/PHNodeIterator_8h.html" target="_top" xlink:title="PHNodeIterator.h">
<polygon fill="none" stroke="black" points="1293,-280.5 1293,-299.5 1385,-299.5 1385,-280.5 1293,-280.5"/>
<text text-anchor="middle" x="1339" y="-287.5" font-family="FreeSans" font-size="10.00">PHNodeIterator.h</text>
</a>
</g>
</g>
<!-- Node26&#45;&gt;Node27 -->
<g id="edge44" class="edge"><title>Node26&#45;&gt;Node27</title>
<path fill="none" stroke="midnightblue" d="M1397.67,-448.075C1387.87,-421.832 1359,-344.545 1345.77,-309.117"/>
<polygon fill="midnightblue" stroke="midnightblue" points="1348.98,-307.711 1342.2,-299.568 1342.42,-310.161 1348.98,-307.711"/>
</g>
<!-- Node30 -->
<g id="node30" class="node"><title>Node30</title>
<g id="a_node30"><a xlink:href="../../d3/d62/PHNode_8h.html" target="_top" xlink:title="PHNode.h">
<polygon fill="none" stroke="black" points="1440,-112.5 1440,-131.5 1502,-131.5 1502,-112.5 1440,-112.5"/>
<text text-anchor="middle" x="1471" y="-119.5" font-family="FreeSans" font-size="10.00">PHNode.h</text>
</a>
</g>
</g>
<!-- Node26&#45;&gt;Node30 -->
<g id="edge77" class="edge"><title>Node26&#45;&gt;Node30</title>
<path fill="none" stroke="midnightblue" d="M1422.64,-448.471C1439.94,-440.852 1464.02,-428.37 1481,-412 1526.38,-368.246 1555,-354.038 1555,-291 1555,-291 1555,-291 1555,-233 1555,-191.731 1517.19,-156.325 1492.31,-137.49"/>
<polygon fill="midnightblue" stroke="midnightblue" points="1494.27,-134.592 1484.12,-131.537 1490.15,-140.251 1494.27,-134.592"/>
</g>
<!-- Node26&#45;&gt;Node33 -->
<g id="edge58" class="edge"><title>Node26&#45;&gt;Node33</title>
<path fill="none" stroke="midnightblue" d="M1374.06,-448.444C1345.34,-439.32 1299.67,-424.813 1267.68,-414.651"/>
<polygon fill="midnightblue" stroke="midnightblue" points="1268.4,-411.208 1257.81,-411.516 1266.28,-417.88 1268.4,-411.208"/>
</g>
<!-- Node34 -->
<g id="node34" class="node"><title>Node34</title>
<g id="a_node34"><a xlink:href="../../dd/d9b/PHDataNode_8h.html" target="_top" xlink:title="PHDataNode.h">
<polygon fill="none" stroke="black" points="1445,-280.5 1445,-299.5 1527,-299.5 1527,-280.5 1445,-280.5"/>
<text text-anchor="middle" x="1486" y="-287.5" font-family="FreeSans" font-size="10.00">PHDataNode.h</text>
</a>
</g>
</g>
<!-- Node26&#45;&gt;Node34 -->
<g id="edge76" class="edge"><title>Node26&#45;&gt;Node34</title>
<path fill="none" stroke="midnightblue" d="M1414.16,-448.351C1436.29,-432.917 1480.18,-398.254 1497,-356 1503.01,-340.898 1498.97,-322.545 1494.17,-309.198"/>
<polygon fill="midnightblue" stroke="midnightblue" points="1497.34,-307.685 1490.35,-299.724 1490.85,-310.307 1497.34,-307.685"/>
</g>
<!-- Node28 -->
<g id="node28" class="node"><title>Node28</title>
<g id="a_node28"><a xlink:href="../../d5/d6f/phool_8h.html" target="_top" xlink:title="phool.h">
<polygon fill="none" stroke="black" points="1320.5,-56.5 1320.5,-75.5 1367.5,-75.5 1367.5,-56.5 1320.5,-56.5"/>
<text text-anchor="middle" x="1344" y="-63.5" font-family="FreeSans" font-size="10.00">phool.h</text>
</a>
</g>
</g>
<!-- Node27&#45;&gt;Node28 -->
<g id="edge45" class="edge"><title>Node27&#45;&gt;Node28</title>
<path fill="none" stroke="midnightblue" d="M1337.93,-280.492C1334.91,-254.91 1326.92,-176.477 1334,-112 1334.97,-103.14 1336.99,-93.4716 1338.96,-85.3755"/>
<polygon fill="midnightblue" stroke="midnightblue" points="1342.39,-86.0919 1341.52,-75.5332 1335.62,-84.333 1342.39,-86.0919"/>
</g>
<!-- Node27&#45;&gt;Node29 -->
<g id="edge47" class="edge"><title>Node27&#45;&gt;Node29</title>
<path fill="none" stroke="midnightblue" d="M1351.53,-280.324C1363.59,-271.979 1382.03,-259.212 1396.27,-249.352"/>
<polygon fill="midnightblue" stroke="midnightblue" points="1398.27,-252.224 1404.5,-243.655 1394.28,-246.469 1398.27,-252.224"/>
</g>
<!-- Node32 -->
<g id="node32" class="node"><title>Node32</title>
<g id="a_node32"><a xlink:href="../../db/dd5/PHPointerList_8h.html" target="_top" xlink:title="PHPointerList.h">
<polygon fill="none" stroke="black" points="1360,-168.5 1360,-187.5 1446,-187.5 1446,-168.5 1360,-168.5"/>
<text text-anchor="middle" x="1403" y="-175.5" font-family="FreeSans" font-size="10.00">PHPointerList.h</text>
</a>
</g>
</g>
<!-- Node27&#45;&gt;Node32 -->
<g id="edge57" class="edge"><title>Node27&#45;&gt;Node32</title>
<path fill="none" stroke="midnightblue" d="M1339.38,-280.412C1340.29,-267.383 1343.39,-242.214 1354,-224 1360.83,-212.266 1371.72,-201.819 1381.5,-193.952"/>
<polygon fill="midnightblue" stroke="midnightblue" points="1383.84,-196.573 1389.68,-187.735 1379.61,-191 1383.84,-196.573"/>
</g>
<!-- Node28&#45;&gt;Node7 -->
<g id="edge46" class="edge"><title>Node28&#45;&gt;Node7</title>
<path fill="none" stroke="midnightblue" d="M1354.28,-56.324C1363.84,-48.2631 1378.28,-36.0765 1389.78,-26.3695"/>
<polygon fill="midnightblue" stroke="midnightblue" points="1392.14,-28.9577 1397.53,-19.8339 1387.63,-23.6076 1392.14,-28.9577"/>
</g>
<!-- Node29&#45;&gt;Node28 -->
<g id="edge48" class="edge"><title>Node29&#45;&gt;Node28</title>
<path fill="none" stroke="midnightblue" d="M1395.16,-224.372C1379.95,-217.109 1360.7,-205.138 1351,-188 1332.75,-155.764 1336.29,-110.645 1340.28,-85.6052"/>
<polygon fill="midnightblue" stroke="midnightblue" points="1343.75,-86.0923 1342.07,-75.6315 1336.86,-84.8566 1343.75,-86.0923"/>
</g>
<!-- Node29&#45;&gt;Node30 -->
<g id="edge49" class="edge"><title>Node29&#45;&gt;Node30</title>
<path fill="none" stroke="midnightblue" d="M1426.55,-224.271C1435.23,-215.814 1447.76,-202.212 1455,-188 1462.42,-173.439 1466.52,-155.261 1468.7,-141.834"/>
<polygon fill="midnightblue" stroke="midnightblue" points="1472.18,-142.25 1470.12,-131.857 1465.25,-141.265 1472.18,-142.25"/>
</g>
<!-- Node29&#45;&gt;Node32 -->
<g id="edge53" class="edge"><title>Node29&#45;&gt;Node32</title>
<path fill="none" stroke="midnightblue" d="M1414.69,-224.083C1412.83,-216.927 1410.16,-206.635 1407.85,-197.691"/>
<polygon fill="midnightblue" stroke="midnightblue" points="1411.17,-196.553 1405.27,-187.751 1404.39,-198.309 1411.17,-196.553"/>
</g>
<!-- Node30&#45;&gt;Node4 -->
<g id="edge52" class="edge"><title>Node30&#45;&gt;Node4</title>
<path fill="none" stroke="midnightblue" d="M1439.73,-117.663C1348.94,-107.974 1086.05,-79.918 995.823,-70.2894"/>
<polygon fill="midnightblue" stroke="midnightblue" points="996.014,-66.7901 985.699,-69.209 995.272,-73.7505 996.014,-66.7901"/>
</g>
<!-- Node30&#45;&gt;Node28 -->
<g id="edge50" class="edge"><title>Node30&#45;&gt;Node28</title>
<path fill="none" stroke="midnightblue" d="M1450.88,-112.444C1429.98,-103.557 1397.07,-89.5632 1373.28,-79.4514"/>
<polygon fill="midnightblue" stroke="midnightblue" points="1374.6,-76.2085 1364.03,-75.5164 1371.86,-82.6504 1374.6,-76.2085"/>
</g>
<!-- Node31 -->
<g id="node31" class="node"><title>Node31</title>
<polygon fill="none" stroke="#bfbfbf" points="1448.5,-56.5 1448.5,-75.5 1493.5,-75.5 1493.5,-56.5 1448.5,-56.5"/>
<text text-anchor="middle" x="1471" y="-63.5" font-family="FreeSans" font-size="10.00">iosfwd</text>
</g>
<!-- Node30&#45;&gt;Node31 -->
<g id="edge51" class="edge"><title>Node30&#45;&gt;Node31</title>
<path fill="none" stroke="midnightblue" d="M1471,-112.083C1471,-105.006 1471,-94.8611 1471,-85.9865"/>
<polygon fill="midnightblue" stroke="midnightblue" points="1474.5,-85.751 1471,-75.7511 1467.5,-85.7511 1474.5,-85.751"/>
</g>
<!-- Node32&#45;&gt;Node7 -->
<g id="edge56" class="edge"><title>Node32&#45;&gt;Node7</title>
<path fill="none" stroke="midnightblue" d="M1403.27,-168.075C1404.06,-141.945 1406.37,-65.2106 1407.44,-29.577"/>
<polygon fill="midnightblue" stroke="midnightblue" points="1410.94,-29.669 1407.74,-19.5681 1403.94,-29.4582 1410.94,-29.669"/>
</g>
<!-- Node32&#45;&gt;Node28 -->
<g id="edge54" class="edge"><title>Node32&#45;&gt;Node28</title>
<path fill="none" stroke="midnightblue" d="M1398.37,-168.368C1388.72,-150.376 1366.29,-108.55 1353.45,-84.6267"/>
<polygon fill="midnightblue" stroke="midnightblue" points="1356.42,-82.7495 1348.61,-75.5914 1350.25,-86.0582 1356.42,-82.7495"/>
</g>
<!-- Node32&#45;&gt;Node30 -->
<g id="edge55" class="edge"><title>Node32&#45;&gt;Node30</title>
<path fill="none" stroke="midnightblue" d="M1413.93,-168.324C1424.17,-160.185 1439.72,-147.839 1452,-138.087"/>
<polygon fill="midnightblue" stroke="midnightblue" points="1454.22,-140.794 1459.88,-131.834 1449.87,-135.312 1454.22,-140.794"/>
</g>
<!-- Node33&#45;&gt;Node4 -->
<g id="edge75" class="edge"><title>Node33&#45;&gt;Node4</title>
<path fill="none" stroke="midnightblue" d="M1218.19,-392.388C1195.12,-375.742 1149,-336.734 1149,-291 1149,-291 1149,-291 1149,-177 1149,-106.492 1048.23,-80.0991 995.84,-71.1417"/>
<polygon fill="midnightblue" stroke="midnightblue" points="996.176,-67.6511 985.749,-69.5299 995.072,-74.5634 996.176,-67.6511"/>
</g>
<!-- Node33&#45;&gt;Node22 -->
<g id="edge74" class="edge"><title>Node33&#45;&gt;Node22</title>
<path fill="none" stroke="midnightblue" d="M1267.13,-392.444C1308.63,-382.615 1376.5,-366.539 1419.41,-356.377"/>
<polygon fill="midnightblue" stroke="midnightblue" points="1420.29,-359.764 1429.22,-354.054 1418.68,-352.953 1420.29,-359.764"/>
</g>
<!-- Node33&#45;&gt;Node34 -->
<g id="edge59" class="edge"><title>Node33&#45;&gt;Node34</title>
<path fill="none" stroke="midnightblue" d="M1253.01,-392.492C1275.68,-383.649 1311.98,-369.273 1343,-356 1383.37,-338.725 1429.53,-317.467 1458.22,-304.07"/>
<polygon fill="midnightblue" stroke="midnightblue" points="1460.03,-307.088 1467.61,-299.679 1457.06,-300.748 1460.03,-307.088"/>
</g>
<!-- Node35 -->
<g id="node35" class="node"><title>Node35</title>
<g id="a_node35"><a xlink:href="../../d9/d53/PHIOManager_8h.html" target="_top" xlink:title="PHIOManager.h">
<polygon fill="none" stroke="black" points="1177,-112.5 1177,-131.5 1263,-131.5 1263,-112.5 1177,-112.5"/>
<text text-anchor="middle" x="1220" y="-119.5" font-family="FreeSans" font-size="10.00">PHIOManager.h</text>
</a>
</g>
</g>
<!-- Node33&#45;&gt;Node35 -->
<g id="edge62" class="edge"><title>Node33&#45;&gt;Node35</title>
<path fill="none" stroke="midnightblue" d="M1224.88,-392.349C1212.79,-374.377 1187,-331.314 1187,-291 1187,-291 1187,-291 1187,-233 1187,-199.245 1201.43,-162.028 1211.21,-140.691"/>
<polygon fill="midnightblue" stroke="midnightblue" points="1214.41,-142.11 1215.55,-131.576 1208.09,-139.099 1214.41,-142.11"/>
</g>
<!-- Node33&#45;&gt;Node36 -->
<g id="edge65" class="edge"><title>Node33&#45;&gt;Node36</title>
<path fill="none" stroke="midnightblue" d="M1184.61,-394.977C1136.59,-387.849 1065.87,-374.562 1046,-356 1000.31,-313.31 991.71,-233.672 990.224,-197.603"/>
<polygon fill="midnightblue" stroke="midnightblue" points="993.72,-197.428 989.953,-187.525 986.723,-197.616 993.72,-197.428"/>
</g>
<!-- Node37 -->
<g id="node37" class="node"><title>Node37</title>
<g id="a_node37"><a xlink:href="../../db/d17/PHTypedNodeIterator_8h.html" target="_top" xlink:title="PHTypedNodeIterator.h">
<polygon fill="none" stroke="black" points="1215.5,-336.5 1215.5,-355.5 1334.5,-355.5 1334.5,-336.5 1215.5,-336.5"/>
<text text-anchor="middle" x="1275" y="-343.5" font-family="FreeSans" font-size="10.00">PHTypedNodeIterator.h</text>
</a>
</g>
</g>
<!-- Node33&#45;&gt;Node37 -->
<g id="edge69" class="edge"><title>Node33&#45;&gt;Node37</title>
<path fill="none" stroke="midnightblue" d="M1238.27,-392.083C1244.54,-384.377 1253.79,-373.033 1261.43,-363.653"/>
<polygon fill="midnightblue" stroke="midnightblue" points="1264.27,-365.714 1267.87,-355.751 1258.84,-361.293 1264.27,-365.714"/>
</g>
<!-- Node39 -->
<g id="node39" class="node"><title>Node39</title>
<g id="a_node39"><a xlink:href="../../de/da7/phooldefs_8h.html" target="_top" xlink:title="phooldefs.h">
<polygon fill="none" stroke="black" points="1055,-336.5 1055,-355.5 1121,-355.5 1121,-336.5 1055,-336.5"/>
<text text-anchor="middle" x="1088" y="-343.5" font-family="FreeSans" font-size="10.00">phooldefs.h</text>
</a>
</g>
</g>
<!-- Node33&#45;&gt;Node39 -->
<g id="edge72" class="edge"><title>Node33&#45;&gt;Node39</title>
<path fill="none" stroke="midnightblue" d="M1208.34,-392.444C1184.6,-383.478 1147.09,-369.314 1120.26,-359.183"/>
<polygon fill="midnightblue" stroke="midnightblue" points="1121.14,-355.775 1110.55,-355.516 1118.67,-362.324 1121.14,-355.775"/>
</g>
<!-- Node34&#45;&gt;Node7 -->
<g id="edge61" class="edge"><title>Node34&#45;&gt;Node7</title>
<path fill="none" stroke="midnightblue" d="M1504.64,-280.441C1535.29,-264.932 1593,-229.087 1593,-179 1593,-179 1593,-179 1593,-121 1593,-52.8977 1499.23,-26.0107 1445.21,-16.1714"/>
<polygon fill="midnightblue" stroke="midnightblue" points="1445.74,-12.7118 1435.3,-14.475 1444.56,-19.6115 1445.74,-12.7118"/>
</g>
<!-- Node34&#45;&gt;Node30 -->
<g id="edge60" class="edge"><title>Node34&#45;&gt;Node30</title>
<path fill="none" stroke="midnightblue" d="M1485.19,-280.075C1482.83,-253.945 1475.9,-177.211 1472.68,-141.577"/>
<polygon fill="midnightblue" stroke="midnightblue" points="1476.16,-141.213 1471.77,-131.568 1469.19,-141.843 1476.16,-141.213"/>
</g>
<!-- Node35&#45;&gt;Node4 -->
<g id="edge64" class="edge"><title>Node35&#45;&gt;Node4</title>
<path fill="none" stroke="midnightblue" d="M1179.59,-112.444C1128.52,-101.628 1041.74,-83.2498 995.737,-73.509"/>
<polygon fill="midnightblue" stroke="midnightblue" points="996.275,-70.0453 985.766,-71.3976 994.824,-76.8934 996.275,-70.0453"/>
</g>
<!-- Node35&#45;&gt;Node28 -->
<g id="edge63" class="edge"><title>Node35&#45;&gt;Node28</title>
<path fill="none" stroke="midnightblue" d="M1239.65,-112.444C1259.96,-103.596 1291.9,-89.6875 1315.1,-79.5865"/>
<polygon fill="midnightblue" stroke="midnightblue" points="1316.67,-82.7181 1324.44,-75.5164 1313.88,-76.3002 1316.67,-82.7181"/>
</g>
<!-- Node36&#45;&gt;Node4 -->
<g id="edge67" class="edge"><title>Node36&#45;&gt;Node4</title>
<path fill="none" stroke="midnightblue" d="M988.038,-168.368C984.004,-150.617 974.697,-109.666 969.227,-85.5974"/>
<polygon fill="midnightblue" stroke="midnightblue" points="972.582,-84.567 966.953,-75.5914 965.756,-86.1185 972.582,-84.567"/>
</g>
<!-- Node36&#45;&gt;Node8 -->
<g id="edge68" class="edge"><title>Node36&#45;&gt;Node8</title>
<path fill="none" stroke="midnightblue" d="M961.162,-168.444C926.644,-158.202 869.27,-141.179 835.401,-131.13"/>
<polygon fill="midnightblue" stroke="midnightblue" points="836.279,-127.74 825.697,-128.251 834.288,-134.451 836.279,-127.74"/>
</g>
<!-- Node36&#45;&gt;Node35 -->
<g id="edge66" class="edge"><title>Node36&#45;&gt;Node35</title>
<path fill="none" stroke="midnightblue" d="M1026.44,-168.444C1066.4,-159.063 1130.59,-143.993 1173.98,-133.804"/>
<polygon fill="midnightblue" stroke="midnightblue" points="1174.79,-137.21 1183.73,-131.516 1173.19,-130.395 1174.79,-137.21"/>
</g>
<!-- Node37&#45;&gt;Node27 -->
<g id="edge70" class="edge"><title>Node37&#45;&gt;Node27</title>
<path fill="none" stroke="midnightblue" d="M1285.28,-336.324C1294.84,-328.263 1309.28,-316.077 1320.78,-306.369"/>
<polygon fill="midnightblue" stroke="midnightblue" points="1323.14,-308.958 1328.53,-299.834 1318.63,-303.608 1323.14,-308.958"/>
</g>
<!-- Node38 -->
<g id="node38" class="node"><title>Node38</title>
<polygon fill="none" stroke="#bfbfbf" points="1225.5,-280.5 1225.5,-299.5 1274.5,-299.5 1274.5,-280.5 1225.5,-280.5"/>
<text text-anchor="middle" x="1250" y="-287.5" font-family="FreeSans" font-size="10.00">cstddef</text>
</g>
<!-- Node37&#45;&gt;Node38 -->
<g id="edge71" class="edge"><title>Node37&#45;&gt;Node38</title>
<path fill="none" stroke="midnightblue" d="M1270.87,-336.083C1267.49,-328.77 1262.58,-318.181 1258.38,-309.103"/>
<polygon fill="midnightblue" stroke="midnightblue" points="1261.43,-307.355 1254.05,-299.751 1255.08,-310.296 1261.43,-307.355"/>
</g>
<!-- Node39&#45;&gt;Node4 -->
<g id="edge73" class="edge"><title>Node39&#45;&gt;Node4</title>
<path fill="none" stroke="midnightblue" d="M1091.1,-336.289C1097.38,-317.856 1111,-273.435 1111,-235 1111,-235 1111,-235 1111,-177 1111,-146.205 1108.78,-133.772 1087,-112 1062.33,-87.3421 1023.01,-76.0568 995.698,-70.9841"/>
<polygon fill="midnightblue" stroke="midnightblue" points="995.962,-67.4795 985.521,-69.2756 994.803,-74.3829 995.962,-67.4795"/>
</g>
<!-- Node41 -->
<g id="node41" class="node"><title>Node41</title>
<g id="a_node41"><a xlink:href="../../d0/d11/PHFlag_8h.html" target="_top" xlink:title="PHFlag.h">
<polygon fill="none" stroke="black" points="859.5,-168.5 859.5,-187.5 916.5,-187.5 916.5,-168.5 859.5,-168.5"/>
<text text-anchor="middle" x="888" y="-175.5" font-family="FreeSans" font-size="10.00">PHFlag.h</text>
</a>
</g>
</g>
<!-- Node40&#45;&gt;Node41 -->
<g id="edge84" class="edge"><title>Node40&#45;&gt;Node41</title>
<path fill="none" stroke="midnightblue" d="M873.588,-392.297C875.795,-359.633 883.617,-243.866 886.719,-197.957"/>
<polygon fill="midnightblue" stroke="midnightblue" points="890.218,-198.097 887.4,-187.884 883.233,-197.625 890.218,-198.097"/>
</g>
<!-- Node41&#45;&gt;Node4 -->
<g id="edge86" class="edge"><title>Node41&#45;&gt;Node4</title>
<path fill="none" stroke="midnightblue" d="M894.042,-168.368C906.749,-150.215 936.439,-107.802 953.107,-83.9902"/>
<polygon fill="midnightblue" stroke="midnightblue" points="956.119,-85.7909 958.986,-75.5914 950.384,-81.7766 956.119,-85.7909"/>
</g>
<!-- Node41&#45;&gt;Node8 -->
<g id="edge85" class="edge"><title>Node41&#45;&gt;Node8</title>
<path fill="none" stroke="midnightblue" d="M875.147,-168.324C862.784,-159.979 843.87,-147.212 829.263,-137.352"/>
<polygon fill="midnightblue" stroke="midnightblue" points="831.068,-134.348 820.821,-131.655 827.152,-140.15 831.068,-134.348"/>
</g>
</g>
</svg>
