<?xml version="1.0" encoding="UTF-8" standalone="no"?>
<!DOCTYPE svg PUBLIC "-//W3C//DTD SVG 1.1//EN"
 "http://www.w3.org/Graphics/SVG/1.1/DTD/svg11.dtd">
<!-- Generated by graphviz version 2.36.0 (20140111.2315)
 -->
<!-- Title: Fun4AllInputManager Pages: 1 -->
<svg width="454pt" height="196pt"
 viewBox="0.00 0.00 454.00 196.00" xmlns="http://www.w3.org/2000/svg" xmlns:xlink="http://www.w3.org/1999/xlink">
<g id="graph0" class="graph" transform="scale(1 1) rotate(0) translate(4 192)">
<title>Fun4AllInputManager</title>
<!-- Node1 -->
<g id="node1" class="node"><title>Node1</title>
<polygon fill="#bfbfbf" stroke="black" points="175.5,-112.5 175.5,-131.5 284.5,-131.5 284.5,-112.5 175.5,-112.5"/>
<text text-anchor="middle" x="230" y="-119.5" font-family="FreeSans" font-size="10.00">Fun4AllInputManager</text>
</g>
<!-- Node3 -->
<g id="node3" class="node"><title>Node3</title>
<g id="a_node3"><a xlink:href="../../d7/d0b/classFun4AllDstInputManager.html" target="_top" xlink:title="Fun4AllDstInputManager">
<polygon fill="none" stroke="black" points="17,-56.5 17,-75.5 141,-75.5 141,-56.5 17,-56.5"/>
<text text-anchor="middle" x="79" y="-63.5" font-family="FreeSans" font-size="10.00">Fun4AllDstInputManager</text>
</a>
</g>
</g>
<!-- Node1&#45;&gt;Node3 -->
<g id="edge2" class="edge"><title>Node1&#45;&gt;Node3</title>
<path fill="none" stroke="midnightblue" d="M196.554,-109.039C168.142,-98.8786 128.063,-84.5457 102.814,-75.5164"/>
<polygon fill="midnightblue" stroke="midnightblue" points="195.479,-112.372 206.074,-112.444 197.836,-105.781 195.479,-112.372"/>
</g>
<!-- Node5 -->
<g id="node5" class="node"><title>Node5</title>
<g id="a_node5"><a xlink:href="../../df/d43/classFun4AllDummyInputManager.html" target="_top" xlink:title="Fun4AllDummyInputManager">
<polygon fill="none" stroke="black" points="159,-56.5 159,-75.5 301,-75.5 301,-56.5 159,-56.5"/>
<text text-anchor="middle" x="230" y="-63.5" font-family="FreeSans" font-size="10.00">Fun4AllDummyInputManager</text>
</a>
</g>
</g>
<!-- Node1&#45;&gt;Node5 -->
<g id="edge4" class="edge"><title>Node1&#45;&gt;Node5</title>
<path fill="none" stroke="midnightblue" d="M230,-101.805C230,-92.9102 230,-82.7798 230,-75.7511"/>
<polygon fill="midnightblue" stroke="midnightblue" points="226.5,-102.083 230,-112.083 233.5,-102.083 226.5,-102.083"/>
</g>
<!-- Node6 -->
<g id="node6" class="node"><title>Node6</title>
<g id="a_node6"><a xlink:href="../../da/dd8/classFun4AllPrdfInputManager.html" target="_top" xlink:title="Fun4AllPrdfInputManager">
<polygon fill="none" stroke="black" points="319.5,-56.5 319.5,-75.5 446.5,-75.5 446.5,-56.5 319.5,-56.5"/>
<text text-anchor="middle" x="383" y="-63.5" font-family="FreeSans" font-size="10.00">Fun4AllPrdfInputManager</text>
</a>
</g>
</g>
<!-- Node1&#45;&gt;Node6 -->
<g id="edge5" class="edge"><title>Node1&#45;&gt;Node6</title>
<path fill="none" stroke="midnightblue" d="M263.889,-109.039C292.677,-98.8786 333.287,-84.5457 358.87,-75.5164"/>
<polygon fill="midnightblue" stroke="midnightblue" points="262.508,-105.815 254.243,-112.444 264.838,-112.416 262.508,-105.815"/>
</g>
<!-- Node2 -->
<g id="node2" class="node"><title>Node2</title>
<g id="a_node2"><a xlink:href="../../d5/dec/classFun4AllBase.html" target="_top" xlink:title="Fun4AllBase">
<polygon fill="none" stroke="black" points="194,-168.5 194,-187.5 266,-187.5 266,-168.5 194,-168.5"/>
<text text-anchor="middle" x="230" y="-175.5" font-family="FreeSans" font-size="10.00">Fun4AllBase</text>
</a>
</g>
</g>
<!-- Node2&#45;&gt;Node1 -->
<g id="edge1" class="edge"><title>Node2&#45;&gt;Node1</title>
<path fill="none" stroke="midnightblue" d="M230,-157.805C230,-148.91 230,-138.78 230,-131.751"/>
<polygon fill="midnightblue" stroke="midnightblue" points="226.5,-158.083 230,-168.083 233.5,-158.083 226.5,-158.083"/>
</g>
<!-- Node4 -->
<g id="node4" class="node"><title>Node4</title>
<g id="a_node4"><a xlink:href="../../dd/df1/classFun4AllNoSyncDstInputManager.html" target="_top" xlink:title="Fun4AllNoSyncDstInputManager">
<polygon fill="none" stroke="black" points="0,-0.5 0,-19.5 158,-19.5 158,-0.5 0,-0.5"/>
<text text-anchor="middle" x="79" y="-7.5" font-family="FreeSans" font-size="10.00">Fun4AllNoSyncDstInputManager</text>
</a>
</g>
</g>
<!-- Node3&#45;&gt;Node4 -->
<g id="edge3" class="edge"><title>Node3&#45;&gt;Node4</title>
<path fill="none" stroke="midnightblue" d="M79,-45.8045C79,-36.9102 79,-26.7798 79,-19.7511"/>
<polygon fill="midnightblue" stroke="midnightblue" points="75.5001,-46.083 79,-56.083 82.5001,-46.083 75.5001,-46.083"/>
</g>
</g>
</svg>
