<?xml version="1.0" encoding="UTF-8" standalone="no"?>
<!DOCTYPE svg PUBLIC "-//W3C//DTD SVG 1.1//EN"
 "http://www.w3.org/Graphics/SVG/1.1/DTD/svg11.dtd">
<!-- Generated by graphviz version 2.36.0 (20140111.2315)
 -->
<!-- Title: PHTimer::Frequency::period Pages: 1 -->
<svg width="632pt" height="66pt"
 viewBox="0.00 0.00 632.00 66.00" xmlns="http://www.w3.org/2000/svg" xmlns:xlink="http://www.w3.org/1999/xlink">
<g id="graph0" class="graph" transform="scale(1 1) rotate(0) translate(4 62)">
<title>PHTimer::Frequency::period</title>
<!-- Node1 -->
<g id="node1" class="node"><title>Node1</title>
<polygon fill="#bfbfbf" stroke="black" points="0.5,-14 0.5,-44 105.5,-44 105.5,-14 0.5,-14"/>
<text text-anchor="start" x="8.5" y="-32" font-family="FreeSans" font-size="10.00">PHTimer::Frequency</text>
<text text-anchor="middle" x="53" y="-21" font-family="FreeSans" font-size="10.00">::period</text>
</g>
<!-- Node2 -->
<g id="node2" class="node"><title>Node2</title>
<g id="a_node2"><a xlink:href="../../d0/d5e/classPHTimer.html#aa75ff2c27aba40e7ef0a934f9a3355c2" target="_top" xlink:title="returns difference between to time ">
<polygon fill="none" stroke="black" points="142.5,-19.5 142.5,-38.5 263.5,-38.5 263.5,-19.5 142.5,-19.5"/>
<text text-anchor="middle" x="203" y="-26.5" font-family="FreeSans" font-size="10.00">PHTimer::get_difference</text>
</a>
</g>
</g>
<!-- Node1&#45;&gt;Node2 -->
<g id="edge1" class="edge"><title>Node1&#45;&gt;Node2</title>
<path fill="none" stroke="midnightblue" d="M115.918,-29C124.686,-29 133.687,-29 142.409,-29"/>
<polygon fill="midnightblue" stroke="midnightblue" points="115.763,-25.5001 105.763,-29 115.763,-32.5001 115.763,-25.5001"/>
</g>
<!-- Node3 -->
<g id="node3" class="node"><title>Node3</title>
<g id="a_node3"><a xlink:href="../../d0/d5e/classPHTimer.html#a976738876ad978116fdc4549a3765685" target="_top" xlink:title="retrieve elapsed value since last restart (in ms) ">
<polygon fill="none" stroke="black" points="300,-19.5 300,-38.5 394,-38.5 394,-19.5 300,-19.5"/>
<text text-anchor="middle" x="347" y="-26.5" font-family="FreeSans" font-size="10.00">PHTimer::elapsed</text>
</a>
</g>
</g>
<!-- Node2&#45;&gt;Node3 -->
<g id="edge2" class="edge"><title>Node2&#45;&gt;Node3</title>
<path fill="none" stroke="midnightblue" d="M273.986,-29C282.689,-29 291.413,-29 299.634,-29"/>
<polygon fill="midnightblue" stroke="midnightblue" points="273.809,-25.5001 263.809,-29 273.809,-32.5001 273.809,-25.5001"/>
</g>
<!-- Node4 -->
<g id="node4" class="node"><title>Node4</title>
<g id="a_node4"><a xlink:href="../../d0/d5e/classPHTimer.html#a888198bd40c6e112b820d6b78406e3aa" target="_top" xlink:title="Dump elapsed time to provided ostream. ">
<polygon fill="none" stroke="black" points="430.5,-38.5 430.5,-57.5 509.5,-57.5 509.5,-38.5 430.5,-38.5"/>
<text text-anchor="middle" x="470" y="-45.5" font-family="FreeSans" font-size="10.00">PHTimer::print</text>
</a>
</g>
</g>
<!-- Node3&#45;&gt;Node4 -->
<g id="edge3" class="edge"><title>Node3&#45;&gt;Node4</title>
<path fill="none" stroke="midnightblue" d="M403.978,-37.79C412.821,-39.1785 421.793,-40.5873 430.134,-41.897"/>
<polygon fill="midnightblue" stroke="midnightblue" points="404.512,-34.331 394.09,-36.2373 403.426,-41.2462 404.512,-34.331"/>
</g>
<!-- Node6 -->
<g id="node6" class="node"><title>Node6</title>
<g id="a_node6"><a xlink:href="../../d0/d5e/classPHTimer.html#adce6f9a85834e59bd154b9c624ee4e41" target="_top" xlink:title="stops the counter ">
<polygon fill="none" stroke="black" points="430.5,-0.5 430.5,-19.5 509.5,-19.5 509.5,-0.5 430.5,-0.5"/>
<text text-anchor="middle" x="470" y="-7.5" font-family="FreeSans" font-size="10.00">PHTimer::stop</text>
</a>
</g>
</g>
<!-- Node3&#45;&gt;Node6 -->
<g id="edge5" class="edge"><title>Node3&#45;&gt;Node6</title>
<path fill="none" stroke="midnightblue" d="M403.978,-20.21C412.821,-18.8215 421.793,-17.4127 430.134,-16.103"/>
<polygon fill="midnightblue" stroke="midnightblue" points="403.426,-16.7538 394.09,-21.7627 404.512,-23.669 403.426,-16.7538"/>
</g>
<!-- Node5 -->
<g id="node5" class="node"><title>Node5</title>
<g id="a_node5"><a xlink:href="../../d0/d5e/classPHTimer.html#a01cc1f85cc7a3303d38cb5a7a2f0a749" target="_top" xlink:title="test PHTimer for a given amount of time (in ms) ">
<polygon fill="none" stroke="black" points="546.5,-38.5 546.5,-57.5 623.5,-57.5 623.5,-38.5 546.5,-38.5"/>
<text text-anchor="middle" x="585" y="-45.5" font-family="FreeSans" font-size="10.00">PHTimer::test</text>
</a>
</g>
</g>
<!-- Node4&#45;&gt;Node5 -->
<g id="edge4" class="edge"><title>Node4&#45;&gt;Node5</title>
<path fill="none" stroke="midnightblue" d="M519.833,-48C528.72,-48 537.865,-48 546.367,-48"/>
<polygon fill="midnightblue" stroke="midnightblue" points="519.572,-44.5001 509.572,-48 519.572,-51.5001 519.572,-44.5001"/>
</g>
</g>
</svg>
