<?xml version="1.0" encoding="UTF-8" standalone="no"?>
<!DOCTYPE svg PUBLIC "-//W3C//DTD SVG 1.1//EN"
 "http://www.w3.org/Graphics/SVG/1.1/DTD/svg11.dtd">
<!-- Generated by graphviz version 2.36.0 (20140111.2315)
 -->
<!-- Title: fun4all/fun4all/Fun4AllSyncManager.h Pages: 1 -->
<svg width="208pt" height="152pt"
 viewBox="0.00 0.00 208.00 152.00" xmlns="http://www.w3.org/2000/svg" xmlns:xlink="http://www.w3.org/1999/xlink">
<g id="graph0" class="graph" transform="scale(1 1) rotate(0) translate(4 148)">
<title>fun4all/fun4all/Fun4AllSyncManager.h</title>
<!-- Node1 -->
<g id="node1" class="node"><title>Node1</title>
<polygon fill="#bfbfbf" stroke="black" points="56,-113 56,-143 190,-143 190,-113 56,-113"/>
<text text-anchor="start" x="64" y="-131" font-family="FreeSans" font-size="10.00">fun4all/fun4all/Fun4AllSync</text>
<text text-anchor="middle" x="123" y="-120" font-family="FreeSans" font-size="10.00">Manager.h</text>
</g>
<!-- Node2 -->
<g id="node2" class="node"><title>Node2</title>
<g id="a_node2"><a xlink:href="../../d2/de7/Fun4AllBase_8h.html" target="_top" xlink:title="Fun4AllBase.h">
<polygon fill="none" stroke="black" points="10,-56.5 10,-75.5 90,-75.5 90,-56.5 10,-56.5"/>
<text text-anchor="middle" x="50" y="-63.5" font-family="FreeSans" font-size="10.00">Fun4AllBase.h</text>
</a>
</g>
</g>
<!-- Node1&#45;&gt;Node2 -->
<g id="edge1" class="edge"><title>Node1&#45;&gt;Node2</title>
<path fill="none" stroke="midnightblue" d="M105.7,-112.781C94.5455,-103.613 80.0465,-91.6957 68.6376,-82.3186"/>
<polygon fill="midnightblue" stroke="midnightblue" points="70.57,-79.3763 60.6221,-75.7305 66.1252,-84.7841 70.57,-79.3763"/>
</g>
<!-- Node5 -->
<g id="node5" class="node"><title>Node5</title>
<polygon fill="none" stroke="#bfbfbf" points="108,-56.5 108,-75.5 138,-75.5 138,-56.5 108,-56.5"/>
<text text-anchor="middle" x="123" y="-63.5" font-family="FreeSans" font-size="10.00">set</text>
</g>
<!-- Node1&#45;&gt;Node5 -->
<g id="edge4" class="edge"><title>Node1&#45;&gt;Node5</title>
<path fill="none" stroke="midnightblue" d="M123,-112.781C123,-104.781 123,-94.6887 123,-86.0168"/>
<polygon fill="midnightblue" stroke="midnightblue" points="126.5,-85.7305 123,-75.7305 119.5,-85.7306 126.5,-85.7305"/>
</g>
<!-- Node6 -->
<g id="node6" class="node"><title>Node6</title>
<polygon fill="none" stroke="#bfbfbf" points="156,-56.5 156,-75.5 200,-75.5 200,-56.5 156,-56.5"/>
<text text-anchor="middle" x="178" y="-63.5" font-family="FreeSans" font-size="10.00">vector</text>
</g>
<!-- Node1&#45;&gt;Node6 -->
<g id="edge5" class="edge"><title>Node1&#45;&gt;Node6</title>
<path fill="none" stroke="midnightblue" d="M136.034,-112.781C144.191,-103.882 154.722,-92.3943 163.194,-83.1524"/>
<polygon fill="midnightblue" stroke="midnightblue" points="165.82,-85.4671 169.997,-75.7305 160.66,-80.7371 165.82,-85.4671"/>
</g>
<!-- Node3 -->
<g id="node3" class="node"><title>Node3</title>
<polygon fill="none" stroke="#bfbfbf" points="-0.5,-0.5 -0.5,-19.5 40.5,-19.5 40.5,-0.5 -0.5,-0.5"/>
<text text-anchor="middle" x="20" y="-7.5" font-family="FreeSans" font-size="10.00">string</text>
</g>
<!-- Node2&#45;&gt;Node3 -->
<g id="edge2" class="edge"><title>Node2&#45;&gt;Node3</title>
<path fill="none" stroke="midnightblue" d="M45.0461,-56.083C40.8959,-48.6127 34.8469,-37.7244 29.7333,-28.5199"/>
<polygon fill="midnightblue" stroke="midnightblue" points="32.7777,-26.7929 24.8617,-19.7511 26.6586,-30.1924 32.7777,-26.7929"/>
</g>
<!-- Node4 -->
<g id="node4" class="node"><title>Node4</title>
<polygon fill="none" stroke="#bfbfbf" points="58.5,-0.5 58.5,-19.5 103.5,-19.5 103.5,-0.5 58.5,-0.5"/>
<text text-anchor="middle" x="81" y="-7.5" font-family="FreeSans" font-size="10.00">climits</text>
</g>
<!-- Node2&#45;&gt;Node4 -->
<g id="edge3" class="edge"><title>Node2&#45;&gt;Node4</title>
<path fill="none" stroke="midnightblue" d="M55.119,-56.083C59.4075,-48.6127 65.6582,-37.7244 70.9423,-28.5199"/>
<polygon fill="midnightblue" stroke="midnightblue" points="74.0329,-30.1662 75.9762,-19.7511 67.9621,-26.6811 74.0329,-30.1662"/>
</g>
</g>
</svg>
