<?xml version="1.0" encoding="UTF-8" standalone="no"?>
<!DOCTYPE svg PUBLIC "-//W3C//DTD SVG 1.1//EN"
 "http://www.w3.org/Graphics/SVG/1.1/DTD/svg11.dtd">
<!-- Generated by graphviz version 2.36.0 (20140111.2315)
 -->
<!-- Title: fun4all/phool/PHNode.h Pages: 1 -->
<svg width="1756pt" height="480pt"
 viewBox="0.00 0.00 1756.00 480.00" xmlns="http://www.w3.org/2000/svg" xmlns:xlink="http://www.w3.org/1999/xlink">
<g id="graph0" class="graph" transform="scale(1 1) rotate(0) translate(4 476)">
<title>fun4all/phool/PHNode.h</title>
<!-- Node1 -->
<g id="node1" class="node"><title>Node1</title>
<polygon fill="#bfbfbf" stroke="black" points="1012.5,-452.5 1012.5,-471.5 1131.5,-471.5 1131.5,-452.5 1012.5,-452.5"/>
<text text-anchor="middle" x="1072" y="-459.5" font-family="FreeSans" font-size="10.00">fun4all/phool/PHNode.h</text>
</g>
<!-- Node2 -->
<g id="node2" class="node"><title>Node2</title>
<g id="a_node2"><a xlink:href="../../d9/d74/Fun4AllDstOutputManager_8cc.html" target="_top" xlink:title="fun4all/fun4all/Fun4AllDst\lOutputManager.cc">
<polygon fill="none" stroke="black" points="28,-193 28,-223 156,-223 156,-193 28,-193"/>
<text text-anchor="start" x="36" y="-211" font-family="FreeSans" font-size="10.00">fun4all/fun4all/Fun4AllDst</text>
<text text-anchor="middle" x="92" y="-200" font-family="FreeSans" font-size="10.00">OutputManager.cc</text>
</a>
</g>
</g>
<!-- Node1&#45;&gt;Node2 -->
<g id="edge1" class="edge"><title>Node1&#45;&gt;Node2</title>
<path fill="none" stroke="midnightblue" d="M1002.16,-457.869C796.485,-448.046 203.241,-415.161 137,-360 95.3792,-325.341 91.2213,-253.966 91.4737,-223.403"/>
<polygon fill="midnightblue" stroke="midnightblue" points="1002.09,-461.37 1012.24,-458.347 1002.42,-454.378 1002.09,-461.37"/>
</g>
<!-- Node3 -->
<g id="node3" class="node"><title>Node3</title>
<g id="a_node3"><a xlink:href="../../d8/d30/PHCompositeNode_8h.html" target="_top" xlink:title="fun4all/phool/PHComposite\lNode.h">
<polygon fill="none" stroke="black" points="844.5,-329 844.5,-359 979.5,-359 979.5,-329 844.5,-329"/>
<text text-anchor="start" x="852.5" y="-347" font-family="FreeSans" font-size="10.00">fun4all/phool/PHComposite</text>
<text text-anchor="middle" x="912" y="-336" font-family="FreeSans" font-size="10.00">Node.h</text>
</a>
</g>
</g>
<!-- Node1&#45;&gt;Node3 -->
<g id="edge2" class="edge"><title>Node1&#45;&gt;Node3</title>
<path fill="none" stroke="midnightblue" d="M1051.96,-446.467C1021.05,-424.061 962.139,-381.35 931.54,-359.167"/>
<polygon fill="midnightblue" stroke="midnightblue" points="1050.08,-449.434 1060.23,-452.47 1054.19,-443.767 1050.08,-449.434"/>
</g>
<!-- Node11 -->
<g id="node11" class="node"><title>Node11</title>
<g id="a_node11"><a xlink:href="../../dd/dd4/getClass_8h.html" target="_top" xlink:title="fun4all/phool/getClass.h">
<polygon fill="none" stroke="black" points="1352,-74.5 1352,-93.5 1472,-93.5 1472,-74.5 1352,-74.5"/>
<text text-anchor="middle" x="1412" y="-81.5" font-family="FreeSans" font-size="10.00">fun4all/phool/getClass.h</text>
</a>
</g>
</g>
<!-- Node1&#45;&gt;Node11 -->
<g id="edge50" class="edge"><title>Node1&#45;&gt;Node11</title>
<path fill="none" stroke="midnightblue" d="M1142.12,-459.965C1284.69,-455.956 1595,-436.699 1595,-345 1595,-345 1595,-345 1595,-275 1595,-181.343 1478.22,-116.074 1431.24,-93.6033"/>
<polygon fill="midnightblue" stroke="midnightblue" points="1141.64,-456.476 1131.74,-460.238 1141.83,-463.474 1141.64,-456.476"/>
</g>
<!-- Node21 -->
<g id="node21" class="node"><title>Node21</title>
<g id="a_node21"><a xlink:href="../../db/dd5/PHPointerList_8h.html" target="_top" xlink:title="fun4all/phool/PHPointerList.h">
<polygon fill="none" stroke="black" points="730.5,-396.5 730.5,-415.5 873.5,-415.5 873.5,-396.5 730.5,-396.5"/>
<text text-anchor="middle" x="802" y="-403.5" font-family="FreeSans" font-size="10.00">fun4all/phool/PHPointerList.h</text>
</a>
</g>
</g>
<!-- Node1&#45;&gt;Node21 -->
<g id="edge37" class="edge"><title>Node1&#45;&gt;Node21</title>
<path fill="none" stroke="midnightblue" d="M1019.37,-450.473C968.339,-440.268 891.897,-424.979 844.582,-415.516"/>
<polygon fill="midnightblue" stroke="midnightblue" points="1018.73,-453.914 1029.22,-452.444 1020.1,-447.05 1018.73,-453.914"/>
</g>
<!-- Node23 -->
<g id="node23" class="node"><title>Node23</title>
<g id="a_node23"><a xlink:href="../../dd/d9b/PHDataNode_8h.html" target="_top" xlink:title="fun4all/phool/PHDataNode.h">
<polygon fill="none" stroke="black" points="1085,-198.5 1085,-217.5 1225,-217.5 1225,-198.5 1085,-198.5"/>
<text text-anchor="middle" x="1155" y="-205.5" font-family="FreeSans" font-size="10.00">fun4all/phool/PHDataNode.h</text>
</a>
</g>
</g>
<!-- Node1&#45;&gt;Node23 -->
<g id="edge44" class="edge"><title>Node1&#45;&gt;Node23</title>
<path fill="none" stroke="midnightblue" d="M1078,-442.789C1094.52,-392.612 1140.28,-253.691 1152.15,-217.638"/>
<polygon fill="midnightblue" stroke="midnightblue" points="1074.66,-441.733 1074.86,-452.326 1081.31,-443.922 1074.66,-441.733"/>
</g>
<!-- Node24 -->
<g id="node24" class="node"><title>Node24</title>
<g id="a_node24"><a xlink:href="../../db/d2f/PHNode_8cc.html" target="_top" xlink:title="fun4all/phool/PHNode.cc">
<polygon fill="none" stroke="black" points="1623.5,-396.5 1623.5,-415.5 1748.5,-415.5 1748.5,-396.5 1623.5,-396.5"/>
<text text-anchor="middle" x="1686" y="-403.5" font-family="FreeSans" font-size="10.00">fun4all/phool/PHNode.cc</text>
</a>
</g>
</g>
<!-- Node1&#45;&gt;Node24 -->
<g id="edge51" class="edge"><title>Node1&#45;&gt;Node24</title>
<path fill="none" stroke="midnightblue" d="M1141.88,-455.878C1244.41,-448.197 1441.6,-432.792 1609,-416 1613.69,-415.53 1618.53,-415.02 1623.4,-414.49"/>
<polygon fill="midnightblue" stroke="midnightblue" points="1141.37,-452.407 1131.66,-456.642 1141.89,-459.387 1141.37,-452.407"/>
</g>
<!-- Node4 -->
<g id="node4" class="node"><title>Node4</title>
<g id="a_node4"><a xlink:href="../../d3/d53/Fun4AllDstInputManager_8cc.html" target="_top" xlink:title="fun4all/fun4all/Fun4AllDst\lInputManager.cc">
<polygon fill="none" stroke="black" points="1206,-1 1206,-31 1334,-31 1334,-1 1206,-1"/>
<text text-anchor="start" x="1214" y="-19" font-family="FreeSans" font-size="10.00">fun4all/fun4all/Fun4AllDst</text>
<text text-anchor="middle" x="1270" y="-8" font-family="FreeSans" font-size="10.00">InputManager.cc</text>
</a>
</g>
</g>
<!-- Node3&#45;&gt;Node4 -->
<g id="edge3" class="edge"><title>Node3&#45;&gt;Node4</title>
<path fill="none" stroke="midnightblue" d="M989.746,-336.88C1119.08,-321.956 1374.59,-271.173 1480,-100 1487.46,-87.8897 1488.79,-79.1805 1480,-68 1475.36,-62.092 1394.24,-43.5963 1334.21,-30.5872"/>
<polygon fill="midnightblue" stroke="midnightblue" points="989.075,-333.433 979.522,-338.015 989.847,-340.39 989.075,-333.433"/>
</g>
<!-- Node5 -->
<g id="node5" class="node"><title>Node5</title>
<g id="a_node5"><a xlink:href="../../da/d7b/Fun4AllPrdfInputManager_8cc.html" target="_top" xlink:title="fun4all/fun4all/Fun4AllPrdf\lInputManager.cc">
<polygon fill="none" stroke="black" points="1507.5,-1 1507.5,-31 1638.5,-31 1638.5,-1 1507.5,-1"/>
<text text-anchor="start" x="1515.5" y="-19" font-family="FreeSans" font-size="10.00">fun4all/fun4all/Fun4AllPrdf</text>
<text text-anchor="middle" x="1573" y="-8" font-family="FreeSans" font-size="10.00">InputManager.cc</text>
</a>
</g>
</g>
<!-- Node3&#45;&gt;Node5 -->
<g id="edge4" class="edge"><title>Node3&#45;&gt;Node5</title>
<path fill="none" stroke="midnightblue" d="M989.829,-338.805C1060.86,-333.276 1168,-320.629 1257,-292 1319.82,-271.791 1335.15,-262.144 1389,-224 1469.83,-166.75 1539.72,-67.5996 1563.93,-31.053"/>
<polygon fill="midnightblue" stroke="midnightblue" points="989.329,-335.333 979.618,-339.57 989.852,-342.313 989.329,-335.333"/>
</g>
<!-- Node6 -->
<g id="node6" class="node"><title>Node6</title>
<g id="a_node6"><a xlink:href="../../d8/d3b/Fun4AllPrdfOutputManager_8cc.html" target="_top" xlink:title="fun4all/fun4all/Fun4AllPrdf\lOutputManager.cc">
<polygon fill="none" stroke="black" points="846.5,-193 846.5,-223 977.5,-223 977.5,-193 846.5,-193"/>
<text text-anchor="start" x="854.5" y="-211" font-family="FreeSans" font-size="10.00">fun4all/fun4all/Fun4AllPrdf</text>
<text text-anchor="middle" x="912" y="-200" font-family="FreeSans" font-size="10.00">OutputManager.cc</text>
</a>
</g>
</g>
<!-- Node3&#45;&gt;Node6 -->
<g id="edge5" class="edge"><title>Node3&#45;&gt;Node6</title>
<path fill="none" stroke="midnightblue" d="M912,-318.524C912,-290.619 912,-245.94 912,-223.237"/>
<polygon fill="midnightblue" stroke="midnightblue" points="908.5,-318.66 912,-328.66 915.5,-318.66 908.5,-318.66"/>
</g>
<!-- Node7 -->
<g id="node7" class="node"><title>Node7</title>
<g id="a_node7"><a xlink:href="../../d8/d7a/Fun4AllServer_8cc.html" target="_top" xlink:title="fun4all/fun4all/Fun4AllServer.cc">
<polygon fill="none" stroke="black" points="357,-6.5 357,-25.5 511,-25.5 511,-6.5 357,-6.5"/>
<text text-anchor="middle" x="434" y="-13.5" font-family="FreeSans" font-size="10.00">fun4all/fun4all/Fun4AllServer.cc</text>
</a>
</g>
</g>
<!-- Node3&#45;&gt;Node7 -->
<g id="edge6" class="edge"><title>Node3&#45;&gt;Node7</title>
<path fill="none" stroke="midnightblue" d="M834.105,-340.307C681.52,-332.903 358,-305.792 358,-209 358,-209 358,-209 358,-145 358,-93.5701 403.924,-44.7519 424.375,-25.5623"/>
<polygon fill="midnightblue" stroke="midnightblue" points="834.193,-343.815 844.346,-340.787 834.521,-336.823 834.193,-343.815"/>
</g>
<!-- Node8 -->
<g id="node8" class="node"><title>Node8</title>
<g id="a_node8"><a xlink:href="../../d8/dfd/PHNodeIterator_8h.html" target="_top" xlink:title="fun4all/phool/PHNodeIterator.h">
<polygon fill="none" stroke="black" points="619,-266.5 619,-285.5 769,-285.5 769,-266.5 619,-266.5"/>
<text text-anchor="middle" x="694" y="-273.5" font-family="FreeSans" font-size="10.00">fun4all/phool/PHNodeIterator.h</text>
</a>
</g>
</g>
<!-- Node3&#45;&gt;Node8 -->
<g id="edge7" class="edge"><title>Node3&#45;&gt;Node8</title>
<path fill="none" stroke="midnightblue" d="M855.77,-325.976C812.936,-313.008 755.773,-295.702 722.121,-285.514"/>
<polygon fill="midnightblue" stroke="midnightblue" points="854.916,-329.374 865.501,-328.922 856.944,-322.675 854.916,-329.374"/>
</g>
<!-- Node17 -->
<g id="node17" class="node"><title>Node17</title>
<g id="a_node17"><a xlink:href="../../d7/d32/PHNodeIOManager_8cc.html" target="_top" xlink:title="fun4all/phool/PHNodeIOManager.cc">
<polygon fill="none" stroke="black" points="878.5,-74.5 878.5,-93.5 1051.5,-93.5 1051.5,-74.5 878.5,-74.5"/>
<text text-anchor="middle" x="965" y="-81.5" font-family="FreeSans" font-size="10.00">fun4all/phool/PHNodeIOManager.cc</text>
</a>
</g>
</g>
<!-- Node3&#45;&gt;Node17 -->
<g id="edge36" class="edge"><title>Node3&#45;&gt;Node17</title>
<path fill="none" stroke="midnightblue" d="M931.038,-320.972C949.205,-298.375 975.337,-261.338 986,-224 999.738,-175.891 978.008,-115.698 968.804,-93.6239"/>
<polygon fill="midnightblue" stroke="midnightblue" points="928.168,-318.952 924.514,-328.897 933.572,-323.401 928.168,-318.952"/>
</g>
<!-- Node20 -->
<g id="node20" class="node"><title>Node20</title>
<g id="a_node20"><a xlink:href="../../df/d01/PHCompositeNode_8cc.html" target="_top" xlink:title="fun4all/phool/PHComposite\lNode.cc">
<polygon fill="none" stroke="black" points="194.5,-261 194.5,-291 329.5,-291 329.5,-261 194.5,-261"/>
<text text-anchor="start" x="202.5" y="-279" font-family="FreeSans" font-size="10.00">fun4all/phool/PHComposite</text>
<text text-anchor="middle" x="262" y="-268" font-family="FreeSans" font-size="10.00">Node.cc</text>
</a>
</g>
</g>
<!-- Node3&#45;&gt;Node20 -->
<g id="edge35" class="edge"><title>Node3&#45;&gt;Node20</title>
<path fill="none" stroke="midnightblue" d="M834.143,-338.271C724.473,-331.095 518.395,-315.73 344,-292 339.411,-291.376 334.688,-290.673 329.937,-289.921"/>
<polygon fill="midnightblue" stroke="midnightblue" points="834.245,-341.784 844.451,-338.939 834.698,-334.799 834.245,-341.784"/>
</g>
<!-- Node8&#45;&gt;Node2 -->
<g id="edge8" class="edge"><title>Node8&#45;&gt;Node2</title>
<path fill="none" stroke="midnightblue" d="M608.578,-269.577C503.713,-262.274 320.626,-247.423 165,-224 162.057,-223.557 159.054,-223.073 156.025,-222.558"/>
<polygon fill="midnightblue" stroke="midnightblue" points="608.573,-273.085 618.79,-270.282 609.055,-266.102 608.573,-273.085"/>
</g>
<!-- Node8&#45;&gt;Node6 -->
<g id="edge9" class="edge"><title>Node8&#45;&gt;Node6</title>
<path fill="none" stroke="midnightblue" d="M732.441,-263.362C769.595,-252.113 825.931,-235.057 865.572,-223.056"/>
<polygon fill="midnightblue" stroke="midnightblue" points="731.056,-260.124 722.5,-266.372 733.085,-266.824 731.056,-260.124"/>
</g>
<!-- Node8&#45;&gt;Node7 -->
<g id="edge10" class="edge"><title>Node8&#45;&gt;Node7</title>
<path fill="none" stroke="midnightblue" d="M608.416,-270.725C537.17,-265.16 443.692,-252.508 420,-224 370.043,-163.886 414.838,-56.9502 429.646,-25.7633"/>
<polygon fill="midnightblue" stroke="midnightblue" points="608.522,-274.242 618.755,-271.495 609.043,-267.261 608.522,-274.242"/>
</g>
<!-- Node9 -->
<g id="node9" class="node"><title>Node9</title>
<g id="a_node9"><a xlink:href="../../dd/d12/ReadMySql_8C.html" target="_top" xlink:title="fun4all/modules/ReadMySql.C">
<polygon fill="none" stroke="black" points="884,-6.5 884,-25.5 1030,-25.5 1030,-6.5 884,-6.5"/>
<text text-anchor="middle" x="957" y="-13.5" font-family="FreeSans" font-size="10.00">fun4all/modules/ReadMySql.C</text>
</a>
</g>
</g>
<!-- Node8&#45;&gt;Node9 -->
<g id="edge11" class="edge"><title>Node8&#45;&gt;Node9</title>
<path fill="none" stroke="midnightblue" d="M608.615,-267.807C580.244,-260.863 551.466,-247.899 534,-224 493.09,-168.022 488.002,-119.877 534,-68 556.758,-42.3332 768.635,-27.0852 883.606,-20.6335"/>
<polygon fill="midnightblue" stroke="midnightblue" points="608.094,-271.276 618.614,-270.02 609.606,-264.441 608.094,-271.276"/>
</g>
<!-- Node10 -->
<g id="node10" class="node"><title>Node10</title>
<g id="a_node10"><a xlink:href="../../dd/d2f/SimpleReadMySql_8C.html" target="_top" xlink:title="fun4all/modules/SimpleRead\lMySql.C">
<polygon fill="none" stroke="black" points="1048,-1 1048,-31 1188,-31 1188,-1 1048,-1"/>
<text text-anchor="start" x="1056" y="-19" font-family="FreeSans" font-size="10.00">fun4all/modules/SimpleRead</text>
<text text-anchor="middle" x="1118" y="-8" font-family="FreeSans" font-size="10.00">MySql.C</text>
</a>
</g>
</g>
<!-- Node8&#45;&gt;Node10 -->
<g id="edge12" class="edge"><title>Node8&#45;&gt;Node10</title>
<path fill="none" stroke="midnightblue" d="M625.821,-263.525C603.268,-256.133 580.507,-243.979 567,-224 528.169,-166.561 519.875,-118.856 567,-68 602.749,-29.4202 986.86,-38.9165 1039,-32 1041.91,-31.6145 1044.87,-31.1913 1047.85,-30.7392"/>
<polygon fill="midnightblue" stroke="midnightblue" points="624.862,-266.892 635.446,-266.411 626.873,-260.187 624.862,-266.892"/>
</g>
<!-- Node8&#45;&gt;Node11 -->
<g id="edge13" class="edge"><title>Node8&#45;&gt;Node11</title>
<path fill="none" stroke="midnightblue" d="M723.834,-262.291C744.905,-252.826 773.465,-238.994 797,-224 816.201,-211.767 815.963,-200.705 837,-192 971.692,-136.262 1019.96,-184.085 1163,-156 1246.59,-139.588 1342.87,-108.569 1387.24,-93.5615"/>
<polygon fill="midnightblue" stroke="midnightblue" points="722.166,-259.201 714.436,-266.447 724.997,-265.603 722.166,-259.201"/>
</g>
<!-- Node13 -->
<g id="node13" class="node"><title>Node13</title>
<g id="a_node13"><a xlink:href="../../db/d17/PHTypedNodeIterator_8h.html" target="_top" xlink:title="fun4all/phool/PHTypedNode\lIterator.h">
<polygon fill="none" stroke="black" points="576,-193 576,-223 714,-223 714,-193 576,-193"/>
<text text-anchor="start" x="584" y="-211" font-family="FreeSans" font-size="10.00">fun4all/phool/PHTypedNode</text>
<text text-anchor="middle" x="645" y="-200" font-family="FreeSans" font-size="10.00">Iterator.h</text>
</a>
</g>
</g>
<!-- Node8&#45;&gt;Node13 -->
<g id="edge20" class="edge"><title>Node8&#45;&gt;Node13</title>
<path fill="none" stroke="midnightblue" d="M681.493,-258.153C673.459,-247.333 663.142,-233.436 655.529,-223.181"/>
<polygon fill="midnightblue" stroke="midnightblue" points="678.823,-260.429 687.594,-266.372 684.443,-256.256 678.823,-260.429"/>
</g>
<!-- Node16 -->
<g id="node16" class="node"><title>Node16</title>
<g id="a_node16"><a xlink:href="../../d7/d95/PHDataNodeIterator_8h.html" target="_top" xlink:title="fun4all/phool/PHDataNode\lIterator.h">
<polygon fill="none" stroke="black" points="728,-69 728,-99 860,-99 860,-69 728,-69"/>
<text text-anchor="start" x="736" y="-87" font-family="FreeSans" font-size="10.00">fun4all/phool/PHDataNode</text>
<text text-anchor="middle" x="794" y="-76" font-family="FreeSans" font-size="10.00">Iterator.h</text>
</a>
</g>
</g>
<!-- Node8&#45;&gt;Node16 -->
<g id="edge32" class="edge"><title>Node8&#45;&gt;Node16</title>
<path fill="none" stroke="midnightblue" d="M704.204,-257.682C709.889,-247.881 717.008,-235.349 723,-224 743.324,-185.505 745.964,-174.645 766,-136 772.509,-123.446 780.273,-109.37 785.972,-99.1916"/>
<polygon fill="midnightblue" stroke="midnightblue" points="701.117,-256.029 699.092,-266.428 707.16,-259.561 701.117,-256.029"/>
</g>
<!-- Node8&#45;&gt;Node17 -->
<g id="edge33" class="edge"><title>Node8&#45;&gt;Node17</title>
<path fill="none" stroke="midnightblue" d="M713.168,-259.986C734.915,-243.082 771.575,-214.977 804,-192 857.671,-153.968 923.534,-111.451 951.458,-93.6104"/>
<polygon fill="midnightblue" stroke="midnightblue" points="710.814,-257.384 705.079,-266.292 715.118,-262.904 710.814,-257.384"/>
</g>
<!-- Node19 -->
<g id="node19" class="node"><title>Node19</title>
<g id="a_node19"><a xlink:href="../../d0/d41/PHNodeIterator_8cc.html" target="_top" xlink:title="fun4all/phool/PHNodeIterator.cc">
<polygon fill="none" stroke="black" points="174.5,-198.5 174.5,-217.5 329.5,-217.5 329.5,-198.5 174.5,-198.5"/>
<text text-anchor="middle" x="252" y="-205.5" font-family="FreeSans" font-size="10.00">fun4all/phool/PHNodeIterator.cc</text>
</a>
</g>
</g>
<!-- Node8&#45;&gt;Node19 -->
<g id="edge34" class="edge"><title>Node8&#45;&gt;Node19</title>
<path fill="none" stroke="midnightblue" d="M626.671,-264.946C539.956,-251.998 390.734,-229.716 309.229,-217.546"/>
<polygon fill="midnightblue" stroke="midnightblue" points="626.262,-268.424 636.669,-266.439 627.296,-261.501 626.262,-268.424"/>
</g>
<!-- Node11&#45;&gt;Node4 -->
<g id="edge14" class="edge"><title>Node11&#45;&gt;Node4</title>
<path fill="none" stroke="midnightblue" d="M1384.11,-70.0389C1359.95,-58.8088 1325.07,-42.5959 1300.24,-31.0562"/>
<polygon fill="midnightblue" stroke="midnightblue" points="1382.89,-73.3307 1393.44,-74.3717 1385.84,-66.9828 1382.89,-73.3307"/>
</g>
<!-- Node11&#45;&gt;Node5 -->
<g id="edge16" class="edge"><title>Node11&#45;&gt;Node5</title>
<path fill="none" stroke="midnightblue" d="M1442.53,-70.4854C1469.96,-59.242 1510.19,-42.7498 1538.71,-31.0562"/>
<polygon fill="midnightblue" stroke="midnightblue" points="1440.97,-67.3401 1433.05,-74.3717 1443.63,-73.817 1440.97,-67.3401"/>
</g>
<!-- Node11&#45;&gt;Node7 -->
<g id="edge17" class="edge"><title>Node11&#45;&gt;Node7</title>
<path fill="none" stroke="midnightblue" d="M1367.31,-72.3453C1358.94,-70.6573 1350.23,-69.1064 1342,-68 1182.29,-46.535 699.979,-26.8756 511.068,-19.7896"/>
<polygon fill="midnightblue" stroke="midnightblue" points="1366.79,-75.8127 1377.29,-74.4516 1368.23,-68.9634 1366.79,-75.8127"/>
</g>
<!-- Node11&#45;&gt;Node9 -->
<g id="edge18" class="edge"><title>Node11&#45;&gt;Node9</title>
<path fill="none" stroke="midnightblue" d="M1365.64,-72.4343C1357.78,-70.823 1349.67,-69.275 1342,-68 1208.22,-45.7685 1173.1,-52.2112 1039,-32 1026.55,-30.1235 1013.09,-27.79 1000.75,-25.5269"/>
<polygon fill="midnightblue" stroke="midnightblue" points="1364.92,-75.8594 1375.43,-74.4933 1366.36,-69.0094 1364.92,-75.8594"/>
</g>
<!-- Node11&#45;&gt;Node10 -->
<g id="edge19" class="edge"><title>Node11&#45;&gt;Node10</title>
<path fill="none" stroke="midnightblue" d="M1363.95,-72.2126C1313.9,-60.9785 1235.31,-43.334 1180.47,-31.0247"/>
<polygon fill="midnightblue" stroke="midnightblue" points="1363.34,-75.6639 1373.87,-74.4393 1364.88,-68.8338 1363.34,-75.6639"/>
</g>
<!-- Node12 -->
<g id="node12" class="node"><title>Node12</title>
<g id="a_node12"><a xlink:href="../../d6/dbe/Fun4AllEventOutputManager_8cc.html" target="_top" xlink:title="fun4all/fun4all/Fun4AllEvent\lOutputManager.cc">
<polygon fill="none" stroke="black" points="1352.5,-1 1352.5,-31 1489.5,-31 1489.5,-1 1352.5,-1"/>
<text text-anchor="start" x="1360.5" y="-19" font-family="FreeSans" font-size="10.00">fun4all/fun4all/Fun4AllEvent</text>
<text text-anchor="middle" x="1421" y="-8" font-family="FreeSans" font-size="10.00">OutputManager.cc</text>
</a>
</g>
</g>
<!-- Node11&#45;&gt;Node12 -->
<g id="edge15" class="edge"><title>Node11&#45;&gt;Node12</title>
<path fill="none" stroke="midnightblue" d="M1414.57,-64.1737C1416,-53.6781 1417.75,-40.8209 1419.07,-31.1815"/>
<polygon fill="midnightblue" stroke="midnightblue" points="1411.06,-63.9904 1413.18,-74.3717 1418,-64.9363 1411.06,-63.9904"/>
</g>
<!-- Node13&#45;&gt;Node7 -->
<g id="edge21" class="edge"><title>Node13&#45;&gt;Node7</title>
<path fill="none" stroke="midnightblue" d="M611.948,-187.426C580.199,-167.707 531.893,-135.225 496,-100 471.481,-75.9376 449.036,-41.5784 439.219,-25.6816"/>
<polygon fill="midnightblue" stroke="midnightblue" points="610.484,-190.635 620.837,-192.883 614.146,-184.669 610.484,-190.635"/>
</g>
<!-- Node14 -->
<g id="node14" class="node"><title>Node14</title>
<g id="a_node14"><a xlink:href="../../df/d03/Fun4AllSyncManager_8cc.html" target="_top" xlink:title="fun4all/fun4all/Fun4AllSync\lManager.cc">
<polygon fill="none" stroke="black" points="576,-69 576,-99 710,-99 710,-69 576,-69"/>
<text text-anchor="start" x="584" y="-87" font-family="FreeSans" font-size="10.00">fun4all/fun4all/Fun4AllSync</text>
<text text-anchor="middle" x="643" y="-76" font-family="FreeSans" font-size="10.00">Manager.cc</text>
</a>
</g>
</g>
<!-- Node13&#45;&gt;Node14 -->
<g id="edge22" class="edge"><title>Node13&#45;&gt;Node14</title>
<path fill="none" stroke="midnightblue" d="M644.596,-182.355C644.186,-157.318 643.564,-119.417 643.231,-99.0787"/>
<polygon fill="midnightblue" stroke="midnightblue" points="641.099,-182.585 644.763,-192.526 648.098,-182.47 641.099,-182.585"/>
</g>
<!-- Node15 -->
<g id="node15" class="node"><title>Node15</title>
<g id="a_node15"><a xlink:href="../../d3/d79/PHIODataNode_8h.html" target="_top" xlink:title="fun4all/phool/PHIODataNode.h">
<polygon fill="none" stroke="black" points="1005,-136.5 1005,-155.5 1155,-155.5 1155,-136.5 1005,-136.5"/>
<text text-anchor="middle" x="1080" y="-143.5" font-family="FreeSans" font-size="10.00">fun4all/phool/PHIODataNode.h</text>
</a>
</g>
</g>
<!-- Node13&#45;&gt;Node15 -->
<g id="edge23" class="edge"><title>Node13&#45;&gt;Node15</title>
<path fill="none" stroke="midnightblue" d="M724.481,-196.037C809.068,-184.37 941.111,-166.157 1018.23,-155.52"/>
<polygon fill="midnightblue" stroke="midnightblue" points="723.836,-192.593 714.408,-197.426 724.793,-199.527 723.836,-192.593"/>
</g>
<!-- Node15&#45;&gt;Node4 -->
<g id="edge24" class="edge"><title>Node15&#45;&gt;Node4</title>
<path fill="none" stroke="midnightblue" d="M1097.08,-129.494C1115.54,-113.15 1146.18,-87.1677 1175,-68 1196.04,-54.0051 1221.31,-40.5878 1240.5,-31.0307"/>
<polygon fill="midnightblue" stroke="midnightblue" points="1094.63,-126.991 1089.51,-136.266 1099.3,-132.208 1094.63,-126.991"/>
</g>
<!-- Node15&#45;&gt;Node9 -->
<g id="edge26" class="edge"><title>Node15&#45;&gt;Node9</title>
<path fill="none" stroke="midnightblue" d="M1079.41,-126.053C1077.95,-109.136 1073.45,-84.5445 1060,-68 1042.38,-46.3235 1013.23,-33.103 990.425,-25.5726"/>
<polygon fill="midnightblue" stroke="midnightblue" points="1075.93,-126.563 1080,-136.345 1082.92,-126.161 1075.93,-126.563"/>
</g>
<!-- Node15&#45;&gt;Node10 -->
<g id="edge27" class="edge"><title>Node15&#45;&gt;Node10</title>
<path fill="none" stroke="midnightblue" d="M1085.76,-126.774C1088.32,-118.598 1091.35,-108.827 1094,-100 1101.24,-75.8634 1109.32,-47.661 1114.01,-31.1239"/>
<polygon fill="midnightblue" stroke="midnightblue" points="1082.4,-125.799 1082.74,-136.389 1089.08,-127.901 1082.4,-125.799"/>
</g>
<!-- Node15&#45;&gt;Node11 -->
<g id="edge28" class="edge"><title>Node15&#45;&gt;Node11</title>
<path fill="none" stroke="midnightblue" d="M1143.52,-134.839C1196.66,-126.159 1274.42,-113.039 1342,-100 1352.25,-98.0222 1363.31,-95.7273 1373.55,-93.5364"/>
<polygon fill="midnightblue" stroke="midnightblue" points="1142.86,-131.399 1133.56,-136.461 1143.99,-138.308 1142.86,-131.399"/>
</g>
<!-- Node15&#45;&gt;Node14 -->
<g id="edge25" class="edge"><title>Node15&#45;&gt;Node14</title>
<path fill="none" stroke="midnightblue" d="M994.657,-136.087C921.354,-128.019 812.95,-115.108 719,-100 716.079,-99.5303 713.098,-99.0305 710.09,-98.5093"/>
<polygon fill="midnightblue" stroke="midnightblue" points="994.441,-139.584 1004.76,-137.193 995.203,-132.625 994.441,-139.584"/>
</g>
<!-- Node15&#45;&gt;Node16 -->
<g id="edge29" class="edge"><title>Node15&#45;&gt;Node16</title>
<path fill="none" stroke="midnightblue" d="M1029.35,-134.374C982.228,-124.488 911.731,-109.699 860.178,-98.8835"/>
<polygon fill="midnightblue" stroke="midnightblue" points="1028.82,-137.839 1039.33,-136.467 1030.26,-130.988 1028.82,-137.839"/>
</g>
<!-- Node15&#45;&gt;Node17 -->
<g id="edge30" class="edge"><title>Node15&#45;&gt;Node17</title>
<path fill="none" stroke="midnightblue" d="M1054.62,-131.756C1032.33,-120.127 1000.56,-103.554 981.446,-93.5806"/>
<polygon fill="midnightblue" stroke="midnightblue" points="1053.04,-134.881 1063.52,-136.403 1056.28,-128.675 1053.04,-134.881"/>
</g>
<!-- Node18 -->
<g id="node18" class="node"><title>Node18</title>
<g id="a_node18"><a xlink:href="../../dc/d01/PHNodeReset_8cc.html" target="_top" xlink:title="fun4all/phool/PHNodeReset.cc">
<polygon fill="none" stroke="black" points="1184,-74.5 1184,-93.5 1334,-93.5 1334,-74.5 1184,-74.5"/>
<text text-anchor="middle" x="1259" y="-81.5" font-family="FreeSans" font-size="10.00">fun4all/phool/PHNodeReset.cc</text>
</a>
</g>
</g>
<!-- Node15&#45;&gt;Node18 -->
<g id="edge31" class="edge"><title>Node15&#45;&gt;Node18</title>
<path fill="none" stroke="midnightblue" d="M1115.4,-133.133C1150.2,-121.47 1202.45,-103.955 1233.4,-93.5806"/>
<polygon fill="midnightblue" stroke="midnightblue" points="1114.02,-129.907 1105.65,-136.403 1116.24,-136.544 1114.02,-129.907"/>
</g>
<!-- Node21&#45;&gt;Node3 -->
<g id="edge38" class="edge"><title>Node21&#45;&gt;Node3</title>
<path fill="none" stroke="midnightblue" d="M826.88,-391.429C844.538,-381.797 868.186,-368.898 886.075,-359.141"/>
<polygon fill="midnightblue" stroke="midnightblue" points="824.863,-388.542 817.76,-396.403 828.215,-394.688 824.863,-388.542"/>
</g>
<!-- Node21&#45;&gt;Node8 -->
<g id="edge39" class="edge"><title>Node21&#45;&gt;Node8</title>
<path fill="none" stroke="midnightblue" d="M787.855,-388.235C764.532,-360.594 718.836,-306.436 701.191,-285.522"/>
<polygon fill="midnightblue" stroke="midnightblue" points="785.453,-390.816 794.577,-396.202 790.803,-386.302 785.453,-390.816"/>
</g>
<!-- Node22 -->
<g id="node22" class="node"><title>Node22</title>
<g id="a_node22"><a xlink:href="../../d4/d4f/PHPointerListIterator_8h.html" target="_top" xlink:title="fun4all/phool/PHPointerList\lIterator.h">
<polygon fill="none" stroke="black" points="146,-329 146,-359 282,-359 282,-329 146,-329"/>
<text text-anchor="start" x="154" y="-347" font-family="FreeSans" font-size="10.00">fun4all/phool/PHPointerList</text>
<text text-anchor="middle" x="214" y="-336" font-family="FreeSans" font-size="10.00">Iterator.h</text>
</a>
</g>
</g>
<!-- Node21&#45;&gt;Node22 -->
<g id="edge40" class="edge"><title>Node21&#45;&gt;Node22</title>
<path fill="none" stroke="midnightblue" d="M720.534,-396.687C603.844,-384.78 391.209,-363.083 282.29,-351.968"/>
<polygon fill="midnightblue" stroke="midnightblue" points="720.184,-400.17 730.488,-397.703 720.894,-393.206 720.184,-400.17"/>
</g>
<!-- Node22&#45;&gt;Node7 -->
<g id="edge41" class="edge"><title>Node22&#45;&gt;Node7</title>
<path fill="none" stroke="midnightblue" d="M136.303,-327.489C75.0841,-310.211 0,-275.471 0,-209 0,-209 0,-209 0,-145 0,-71.452 232.195,-37.0151 356.91,-23.8231"/>
<polygon fill="midnightblue" stroke="midnightblue" points="135.428,-330.878 145.995,-330.114 137.258,-324.121 135.428,-330.878"/>
</g>
<!-- Node22&#45;&gt;Node19 -->
<g id="edge43" class="edge"><title>Node22&#45;&gt;Node19</title>
<path fill="none" stroke="midnightblue" d="M196.581,-320.519C185.624,-303.466 175.246,-279.683 185,-260 194.866,-240.091 216.636,-225.844 232.696,-217.555"/>
<polygon fill="midnightblue" stroke="midnightblue" points="193.706,-322.515 202.26,-328.766 199.471,-318.545 193.706,-322.515"/>
</g>
<!-- Node22&#45;&gt;Node20 -->
<g id="edge42" class="edge"><title>Node22&#45;&gt;Node20</title>
<path fill="none" stroke="midnightblue" d="M230.499,-320.314C237.499,-310.689 245.445,-299.763 251.605,-291.293"/>
<polygon fill="midnightblue" stroke="midnightblue" points="227.466,-318.533 224.415,-328.679 233.128,-322.65 227.466,-318.533"/>
</g>
<!-- Node23&#45;&gt;Node5 -->
<g id="edge45" class="edge"><title>Node23&#45;&gt;Node5</title>
<path fill="none" stroke="midnightblue" d="M1209.07,-196.351C1275.96,-181.615 1391.79,-150.901 1480,-100 1512.62,-81.1806 1543.86,-49.5999 1560.53,-31.2994"/>
<polygon fill="midnightblue" stroke="midnightblue" points="1208.2,-192.959 1199.17,-198.495 1209.68,-199.8 1208.2,-192.959"/>
</g>
<!-- Node23&#45;&gt;Node7 -->
<g id="edge46" class="edge"><title>Node23&#45;&gt;Node7</title>
<path fill="none" stroke="midnightblue" d="M1080.95,-197.073C944.767,-178.233 659.998,-135.96 567,-100 517.497,-80.8588 466.24,-42.7201 444.624,-25.6315"/>
<polygon fill="midnightblue" stroke="midnightblue" points="1080.51,-200.545 1090.89,-198.443 1081.46,-193.61 1080.51,-200.545"/>
</g>
<!-- Node23&#45;&gt;Node11 -->
<g id="edge48" class="edge"><title>Node23&#45;&gt;Node11</title>
<path fill="none" stroke="midnightblue" d="M1182.15,-194.111C1234.81,-169.112 1349.55,-114.647 1393.95,-93.5693"/>
<polygon fill="midnightblue" stroke="midnightblue" points="1180.6,-190.971 1173.07,-198.421 1183.61,-197.295 1180.6,-190.971"/>
</g>
<!-- Node23&#45;&gt;Node15 -->
<g id="edge47" class="edge"><title>Node23&#45;&gt;Node15</title>
<path fill="none" stroke="midnightblue" d="M1136.06,-191.846C1121.71,-180.371 1102.52,-165.02 1090.73,-155.581"/>
<polygon fill="midnightblue" stroke="midnightblue" points="1134.26,-194.89 1144.25,-198.403 1138.63,-189.423 1134.26,-194.89"/>
</g>
<!-- Node23&#45;&gt;Node18 -->
<g id="edge49" class="edge"><title>Node23&#45;&gt;Node18</title>
<path fill="none" stroke="midnightblue" d="M1169.24,-190.298C1191.66,-163.993 1234.42,-113.839 1251.59,-93.6944"/>
<polygon fill="midnightblue" stroke="midnightblue" points="1166.3,-188.345 1162.48,-198.226 1171.63,-192.886 1166.3,-188.345"/>
</g>
</g>
</svg>
