<?xml version="1.0" encoding="UTF-8" standalone="no"?>
<!DOCTYPE svg PUBLIC "-//W3C//DTD SVG 1.1//EN"
 "http://www.w3.org/Graphics/SVG/1.1/DTD/svg11.dtd">
<!-- Generated by graphviz version 2.36.0 (20140111.2315)
 -->
<!-- Title: Fun4AllHistoManager Pages: 1 -->
<svg width="266pt" height="246pt"
 viewBox="0.00 0.00 266.30 246.00" xmlns="http://www.w3.org/2000/svg" xmlns:xlink="http://www.w3.org/1999/xlink">
<g id="graph0" class="graph" transform="scale(1 1) rotate(0) translate(4 242)">
<title>Fun4AllHistoManager</title>
<!-- Node1 -->
<g id="node1" class="node"><title>Node1</title>
<polygon fill="#bfbfbf" stroke="black" points="47.2978,-0.5 47.2978,-19.5 157.298,-19.5 157.298,-0.5 47.2978,-0.5"/>
<text text-anchor="middle" x="102.298" y="-7.5" font-family="FreeSans" font-size="10.00">Fun4AllHistoManager</text>
</g>
<!-- Node2 -->
<g id="node2" class="node"><title>Node2</title>
<g id="a_node2"><a xlink:href="../../d5/dec/classFun4AllBase.html" target="_top" xlink:title="Fun4AllBase">
<polygon fill="none" stroke="black" points="66.2978,-74.5 66.2978,-93.5 138.298,-93.5 138.298,-74.5 66.2978,-74.5"/>
<text text-anchor="middle" x="102.298" y="-81.5" font-family="FreeSans" font-size="10.00">Fun4AllBase</text>
</a>
</g>
</g>
<!-- Node2&#45;&gt;Node1 -->
<g id="edge1" class="edge"><title>Node2&#45;&gt;Node1</title>
<path fill="none" stroke="midnightblue" d="M102.298,-64.1562C102.298,-49.7123 102.298,-30.4594 102.298,-19.531"/>
<polygon fill="midnightblue" stroke="midnightblue" points="98.7979,-64.4579 102.298,-74.4579 105.798,-64.4579 98.7979,-64.4579"/>
</g>
<!-- Node3 -->
<g id="node3" class="node"><title>Node3</title>
<g id="a_node3"><a xlink:title="STL class. ">
<polygon fill="none" stroke="#bfbfbf" points="72.7978,-148.5 72.7978,-167.5 131.798,-167.5 131.798,-148.5 72.7978,-148.5"/>
<text text-anchor="middle" x="102.298" y="-155.5" font-family="FreeSans" font-size="10.00">std::string</text>
</a>
</g>
</g>
<!-- Node3&#45;&gt;Node1 -->
<g id="edge4" class="edge"><title>Node3&#45;&gt;Node1</title>
<path fill="none" stroke="#9a32cd" stroke-dasharray="5,2" d="M63.2814,-144.846C42.0959,-136.026 17.7489,-121.758 5.29785,-100 -1.76595,-87.656 -1.76595,-80.344 5.29785,-68 19.5588,-43.079 49.4255,-27.9837 72.2734,-19.6471"/>
<polygon fill="#9a32cd" stroke="#9a32cd" points="62.1501,-148.161 72.7387,-148.522 64.6862,-141.637 62.1501,-148.161"/>
<text text-anchor="middle" x="31.2978" y="-81.5" font-family="FreeSans" font-size="10.00"> outfilename</text>
</g>
<!-- Node3&#45;&gt;Node2 -->
<g id="edge2" class="edge"><title>Node3&#45;&gt;Node2</title>
<path fill="none" stroke="#9a32cd" stroke-dasharray="5,2" d="M102.298,-138.156C102.298,-123.712 102.298,-104.459 102.298,-93.531"/>
<polygon fill="#9a32cd" stroke="#9a32cd" points="98.7979,-138.458 102.298,-148.458 105.798,-138.458 98.7979,-138.458"/>
<text text-anchor="middle" x="126.298" y="-121.5" font-family="FreeSans" font-size="10.00"> ThisName</text>
</g>
<!-- Node5 -->
<g id="node5" class="node"><title>Node5</title>
<polygon fill="none" stroke="#bfbfbf" points="156.298,-69 156.298,-99 258.298,-99 258.298,-69 156.298,-69"/>
<text text-anchor="start" x="164.298" y="-87" font-family="FreeSans" font-size="10.00">std::map&lt; const std</text>
<text text-anchor="middle" x="207.298" y="-76" font-family="FreeSans" font-size="10.00">::string, TNamed * &gt;</text>
</g>
<!-- Node3&#45;&gt;Node5 -->
<g id="edge6" class="edge"><title>Node3&#45;&gt;Node5</title>
<path fill="none" stroke="#9a32cd" stroke-dasharray="5,2" d="M130.185,-143.982C138.183,-139.862 146.772,-135.055 154.298,-130 167.926,-120.847 182.032,-108.719 192.262,-99.3601"/>
<polygon fill="#9a32cd" stroke="#9a32cd" points="128.554,-140.884 121.164,-148.477 131.676,-147.15 128.554,-140.884"/>
<text text-anchor="middle" x="180.798" y="-121.5" font-family="FreeSans" font-size="10.00"> keys</text>
</g>
<!-- Node4 -->
<g id="node4" class="node"><title>Node4</title>
<g id="a_node4"><a xlink:title="STL class. ">
<polygon fill="none" stroke="#bfbfbf" points="55.7978,-207 55.7978,-237 148.798,-237 148.798,-207 55.7978,-207"/>
<text text-anchor="start" x="63.7978" y="-225" font-family="FreeSans" font-size="10.00">std::basic_string&lt;</text>
<text text-anchor="middle" x="102.298" y="-214" font-family="FreeSans" font-size="10.00"> char &gt;</text>
</a>
</g>
</g>
<!-- Node4&#45;&gt;Node3 -->
<g id="edge3" class="edge"><title>Node4&#45;&gt;Node3</title>
<path fill="none" stroke="midnightblue" d="M102.298,-196.871C102.298,-186.663 102.298,-175.408 102.298,-167.842"/>
<polygon fill="midnightblue" stroke="midnightblue" points="98.7979,-196.931 102.298,-206.931 105.798,-196.931 98.7979,-196.931"/>
</g>
<!-- Node5&#45;&gt;Node1 -->
<g id="edge5" class="edge"><title>Node5&#45;&gt;Node1</title>
<path fill="none" stroke="#9a32cd" stroke-dasharray="5,2" d="M178.307,-63.1205C157.471,-48.8333 130.41,-30.277 114.835,-19.5972"/>
<polygon fill="#9a32cd" stroke="#9a32cd" points="176.577,-66.178 186.804,-68.9468 180.536,-60.4049 176.577,-66.178"/>
<text text-anchor="middle" x="170.298" y="-41.5" font-family="FreeSans" font-size="10.00"> Histo</text>
</g>
</g>
</svg>
