<?xml version="1.0" encoding="UTF-8" standalone="no"?>
<!DOCTYPE svg PUBLIC "-//W3C//DTD SVG 1.1//EN"
 "http://www.w3.org/Graphics/SVG/1.1/DTD/svg11.dtd">
<!-- Generated by graphviz version 2.36.0 (20140111.2315)
 -->
<!-- Title: fun4all/ffaobjects/SyncObject.cc Pages: 1 -->
<svg width="269pt" height="208pt"
 viewBox="0.00 0.00 269.00 208.00" xmlns="http://www.w3.org/2000/svg" xmlns:xlink="http://www.w3.org/1999/xlink">
<g id="graph0" class="graph" transform="scale(1 1) rotate(0) translate(4 204)">
<title>fun4all/ffaobjects/SyncObject.cc</title>
<!-- Node1 -->
<g id="node1" class="node"><title>Node1</title>
<polygon fill="#bfbfbf" stroke="black" points="114,-169 114,-199 204,-199 204,-169 114,-169"/>
<text text-anchor="start" x="122" y="-187" font-family="FreeSans" font-size="10.00">fun4all/ffaobjects</text>
<text text-anchor="middle" x="159" y="-176" font-family="FreeSans" font-size="10.00">/SyncObject.cc</text>
</g>
<!-- Node2 -->
<g id="node2" class="node"><title>Node2</title>
<g id="a_node2"><a xlink:href="../../da/de1/ffaobjects_2SyncObject_8h.html" target="_top" xlink:title="SyncObject.h">
<polygon fill="none" stroke="black" points="57,-112.5 57,-131.5 131,-131.5 131,-112.5 57,-112.5"/>
<text text-anchor="middle" x="94" y="-119.5" font-family="FreeSans" font-size="10.00">SyncObject.h</text>
</a>
</g>
</g>
<!-- Node1&#45;&gt;Node2 -->
<g id="edge1" class="edge"><title>Node1&#45;&gt;Node2</title>
<path fill="none" stroke="midnightblue" d="M143.596,-168.781C133.761,-159.703 121.007,-147.929 110.895,-138.595"/>
<polygon fill="midnightblue" stroke="midnightblue" points="113.18,-135.942 103.458,-131.731 108.432,-141.085 113.18,-135.942"/>
</g>
<!-- Node5 -->
<g id="node5" class="node"><title>Node5</title>
<polygon fill="none" stroke="#bfbfbf" points="113,-0.5 113,-19.5 167,-19.5 167,-0.5 113,-0.5"/>
<text text-anchor="middle" x="140" y="-7.5" font-family="FreeSans" font-size="10.00">iostream</text>
</g>
<!-- Node1&#45;&gt;Node5 -->
<g id="edge8" class="edge"><title>Node1&#45;&gt;Node5</title>
<path fill="none" stroke="midnightblue" d="M157.445,-168.925C154.037,-138.073 145.908,-64.4842 142.072,-29.7549"/>
<polygon fill="midnightblue" stroke="midnightblue" points="145.525,-29.1399 140.948,-19.5847 138.568,-29.9085 145.525,-29.1399"/>
</g>
<!-- Node6 -->
<g id="node6" class="node"><title>Node6</title>
<g id="a_node6"><a xlink:href="../../d5/d6f/phool_8h.html" target="_top" xlink:title="phool/phool.h">
<polygon fill="none" stroke="black" points="187,-56.5 187,-75.5 261,-75.5 261,-56.5 187,-56.5"/>
<text text-anchor="middle" x="224" y="-63.5" font-family="FreeSans" font-size="10.00">phool/phool.h</text>
</a>
</g>
</g>
<!-- Node1&#45;&gt;Node6 -->
<g id="edge6" class="edge"><title>Node1&#45;&gt;Node6</title>
<path fill="none" stroke="midnightblue" d="M166.97,-168.776C178.841,-147.591 201.152,-107.776 214.068,-84.7245"/>
<polygon fill="midnightblue" stroke="midnightblue" points="217.286,-86.1417 219.121,-75.707 211.179,-82.7198 217.286,-86.1417"/>
</g>
<!-- Node3 -->
<g id="node3" class="node"><title>Node3</title>
<g id="a_node3"><a xlink:href="../../df/d32/PHObject_8h.html" target="_top" xlink:title="phool/PHObject.h">
<polygon fill="none" stroke="black" points="-0.5,-56.5 -0.5,-75.5 92.5,-75.5 92.5,-56.5 -0.5,-56.5"/>
<text text-anchor="middle" x="46" y="-63.5" font-family="FreeSans" font-size="10.00">phool/PHObject.h</text>
</a>
</g>
</g>
<!-- Node2&#45;&gt;Node3 -->
<g id="edge2" class="edge"><title>Node2&#45;&gt;Node3</title>
<path fill="none" stroke="midnightblue" d="M86.0738,-112.083C79.1539,-104.298 68.9346,-92.8015 60.548,-83.3665"/>
<polygon fill="midnightblue" stroke="midnightblue" points="63.0383,-80.8999 53.7787,-75.7511 57.8065,-85.5505 63.0383,-80.8999"/>
</g>
<!-- Node2&#45;&gt;Node5 -->
<g id="edge5" class="edge"><title>Node2&#45;&gt;Node5</title>
<path fill="none" stroke="midnightblue" d="M97.6095,-112.368C105.1,-94.4563 122.468,-52.9233 132.494,-28.9482"/>
<polygon fill="midnightblue" stroke="midnightblue" points="135.778,-30.1676 136.407,-19.5914 129.32,-27.4669 135.778,-30.1676"/>
</g>
<!-- Node4 -->
<g id="node4" class="node"><title>Node4</title>
<polygon fill="none" stroke="#bfbfbf" points="16.5,-0.5 16.5,-19.5 75.5,-19.5 75.5,-0.5 16.5,-0.5"/>
<text text-anchor="middle" x="46" y="-7.5" font-family="FreeSans" font-size="10.00">TObject.h</text>
</g>
<!-- Node3&#45;&gt;Node4 -->
<g id="edge3" class="edge"><title>Node3&#45;&gt;Node4</title>
<path fill="none" stroke="midnightblue" d="M46,-56.083C46,-49.0059 46,-38.8611 46,-29.9865"/>
<polygon fill="midnightblue" stroke="midnightblue" points="49.5001,-29.751 46,-19.7511 42.5001,-29.7511 49.5001,-29.751"/>
</g>
<!-- Node3&#45;&gt;Node5 -->
<g id="edge4" class="edge"><title>Node3&#45;&gt;Node5</title>
<path fill="none" stroke="midnightblue" d="M61.1027,-56.324C75.9033,-47.8215 98.6942,-34.7288 115.982,-24.7975"/>
<polygon fill="midnightblue" stroke="midnightblue" points="118.007,-27.6707 124.935,-19.6545 114.52,-21.6009 118.007,-27.6707"/>
</g>
<!-- Node6&#45;&gt;Node5 -->
<g id="edge7" class="edge"><title>Node6&#45;&gt;Node5</title>
<path fill="none" stroke="midnightblue" d="M210.504,-56.324C197.4,-47.9002 177.288,-34.9709 161.893,-25.0741"/>
<polygon fill="midnightblue" stroke="midnightblue" points="163.767,-22.118 153.463,-19.6545 159.982,-28.0063 163.767,-22.118"/>
</g>
</g>
</svg>
