<?xml version="1.0" encoding="UTF-8" standalone="no"?>
<!DOCTYPE svg PUBLIC "-//W3C//DTD SVG 1.1//EN"
 "http://www.w3.org/Graphics/SVG/1.1/DTD/svg11.dtd">
<!-- Generated by graphviz version 2.36.0 (20140111.2315)
 -->
<!-- Title: fun4all/ffaobjects/SyncObject.h Pages: 1 -->
<svg width="504pt" height="244pt"
 viewBox="0.00 0.00 504.00 244.00" xmlns="http://www.w3.org/2000/svg" xmlns:xlink="http://www.w3.org/1999/xlink">
<g id="graph0" class="graph" transform="scale(1 1) rotate(0) translate(4 240)">
<title>fun4all/ffaobjects/SyncObject.h</title>
<!-- Node1 -->
<g id="node1" class="node"><title>Node1</title>
<polygon fill="#bfbfbf" stroke="black" points="171,-205 171,-235 261,-235 261,-205 171,-205"/>
<text text-anchor="start" x="179" y="-223" font-family="FreeSans" font-size="10.00">fun4all/ffaobjects</text>
<text text-anchor="middle" x="216" y="-212" font-family="FreeSans" font-size="10.00">/SyncObject.h</text>
</g>
<!-- Node2 -->
<g id="node2" class="node"><title>Node2</title>
<g id="a_node2"><a xlink:href="../../d0/d24/ffaobjects_2SyncObject_8cc.html" target="_top" xlink:title="fun4all/ffaobjects\l/SyncObject.cc">
<polygon fill="none" stroke="black" points="0,-137 0,-167 90,-167 90,-137 0,-137"/>
<text text-anchor="start" x="8" y="-155" font-family="FreeSans" font-size="10.00">fun4all/ffaobjects</text>
<text text-anchor="middle" x="45" y="-144" font-family="FreeSans" font-size="10.00">/SyncObject.cc</text>
</a>
</g>
</g>
<!-- Node1&#45;&gt;Node2 -->
<g id="edge1" class="edge"><title>Node1&#45;&gt;Node2</title>
<path fill="none" stroke="midnightblue" d="M169.808,-201.171C142.017,-190.445 107.143,-176.985 81.3293,-167.022"/>
<polygon fill="midnightblue" stroke="midnightblue" points="168.727,-204.506 179.316,-204.841 171.247,-197.975 168.727,-204.506"/>
</g>
<!-- Node3 -->
<g id="node3" class="node"><title>Node3</title>
<g id="a_node3"><a xlink:href="../../d6/df7/SyncObjectv1_8h.html" target="_top" xlink:title="fun4all/ffaobjects\l/SyncObjectv1.h">
<polygon fill="none" stroke="black" points="108,-137 108,-167 198,-167 198,-137 108,-137"/>
<text text-anchor="start" x="116" y="-155" font-family="FreeSans" font-size="10.00">fun4all/ffaobjects</text>
<text text-anchor="middle" x="153" y="-144" font-family="FreeSans" font-size="10.00">/SyncObjectv1.h</text>
</a>
</g>
</g>
<!-- Node1&#45;&gt;Node3 -->
<g id="edge2" class="edge"><title>Node1&#45;&gt;Node3</title>
<path fill="none" stroke="midnightblue" d="M195.185,-197.194C185.799,-187.36 174.976,-176.023 166.643,-167.293"/>
<polygon fill="midnightblue" stroke="midnightblue" points="192.893,-199.862 202.33,-204.679 197.957,-195.029 192.893,-199.862"/>
</g>
<!-- Node8 -->
<g id="node8" class="node"><title>Node8</title>
<g id="a_node8"><a xlink:href="../../d3/d53/Fun4AllDstInputManager_8cc.html" target="_top" xlink:title="fun4all/fun4all/Fun4AllDst\lInputManager.cc">
<polygon fill="none" stroke="black" points="216,-137 216,-167 344,-167 344,-137 216,-137"/>
<text text-anchor="start" x="224" y="-155" font-family="FreeSans" font-size="10.00">fun4all/fun4all/Fun4AllDst</text>
<text text-anchor="middle" x="280" y="-144" font-family="FreeSans" font-size="10.00">InputManager.cc</text>
</a>
</g>
</g>
<!-- Node1&#45;&gt;Node8 -->
<g id="edge7" class="edge"><title>Node1&#45;&gt;Node8</title>
<path fill="none" stroke="midnightblue" d="M236.863,-197.485C246.463,-187.585 257.591,-176.109 266.14,-167.293"/>
<polygon fill="midnightblue" stroke="midnightblue" points="234.336,-195.063 229.887,-204.679 239.361,-199.936 234.336,-195.063"/>
</g>
<!-- Node9 -->
<g id="node9" class="node"><title>Node9</title>
<g id="a_node9"><a xlink:href="../../df/d03/Fun4AllSyncManager_8cc.html" target="_top" xlink:title="fun4all/fun4all/Fun4AllSync\lManager.cc">
<polygon fill="none" stroke="black" points="362,-137 362,-167 496,-167 496,-137 362,-137"/>
<text text-anchor="start" x="370" y="-155" font-family="FreeSans" font-size="10.00">fun4all/fun4all/Fun4AllSync</text>
<text text-anchor="middle" x="429" y="-144" font-family="FreeSans" font-size="10.00">Manager.cc</text>
</a>
</g>
</g>
<!-- Node1&#45;&gt;Node9 -->
<g id="edge8" class="edge"><title>Node1&#45;&gt;Node9</title>
<path fill="none" stroke="midnightblue" d="M270.756,-202.033C305.725,-191.198 350.526,-177.316 383.527,-167.09"/>
<polygon fill="midnightblue" stroke="midnightblue" points="269.688,-198.7 261.172,-205.003 271.76,-205.386 269.688,-198.7"/>
</g>
<!-- Node4 -->
<g id="node4" class="node"><title>Node4</title>
<g id="a_node4"><a xlink:href="../../dc/df5/SyncObjectv1_8cc.html" target="_top" xlink:title="fun4all/ffaobjects\l/SyncObjectv1.cc">
<polygon fill="none" stroke="black" points="51.5,-69 51.5,-99 144.5,-99 144.5,-69 51.5,-69"/>
<text text-anchor="start" x="59.5" y="-87" font-family="FreeSans" font-size="10.00">fun4all/ffaobjects</text>
<text text-anchor="middle" x="98" y="-76" font-family="FreeSans" font-size="10.00">/SyncObjectv1.cc</text>
</a>
</g>
</g>
<!-- Node3&#45;&gt;Node4 -->
<g id="edge3" class="edge"><title>Node3&#45;&gt;Node4</title>
<path fill="none" stroke="midnightblue" d="M134.584,-128.901C126.447,-119.136 117.114,-107.936 109.911,-99.2931"/>
<polygon fill="midnightblue" stroke="midnightblue" points="131.975,-131.237 141.066,-136.679 137.353,-126.756 131.975,-131.237"/>
</g>
<!-- Node5 -->
<g id="node5" class="node"><title>Node5</title>
<g id="a_node5"><a xlink:href="../../dc/d4b/SyncObjectv2_8h.html" target="_top" xlink:title="fun4all/ffaobjects\l/SyncObjectv2.h">
<polygon fill="none" stroke="black" points="163,-69 163,-99 253,-99 253,-69 163,-69"/>
<text text-anchor="start" x="171" y="-87" font-family="FreeSans" font-size="10.00">fun4all/ffaobjects</text>
<text text-anchor="middle" x="208" y="-76" font-family="FreeSans" font-size="10.00">/SyncObjectv2.h</text>
</a>
</g>
</g>
<!-- Node3&#45;&gt;Node5 -->
<g id="edge4" class="edge"><title>Node3&#45;&gt;Node5</title>
<path fill="none" stroke="midnightblue" d="M171.416,-128.901C179.553,-119.136 188.886,-107.936 196.089,-99.2931"/>
<polygon fill="midnightblue" stroke="midnightblue" points="168.647,-126.756 164.934,-136.679 174.025,-131.237 168.647,-126.756"/>
</g>
<!-- Node6 -->
<g id="node6" class="node"><title>Node6</title>
<g id="a_node6"><a xlink:href="../../d5/dfb/SyncObjectv2_8cc.html" target="_top" xlink:title="fun4all/ffaobjects\l/SyncObjectv2.cc">
<polygon fill="none" stroke="black" points="96.5,-1 96.5,-31 189.5,-31 189.5,-1 96.5,-1"/>
<text text-anchor="start" x="104.5" y="-19" font-family="FreeSans" font-size="10.00">fun4all/ffaobjects</text>
<text text-anchor="middle" x="143" y="-8" font-family="FreeSans" font-size="10.00">/SyncObjectv2.cc</text>
</a>
</g>
</g>
<!-- Node5&#45;&gt;Node6 -->
<g id="edge5" class="edge"><title>Node5&#45;&gt;Node6</title>
<path fill="none" stroke="midnightblue" d="M186.811,-61.4855C177.061,-51.5852 165.759,-40.1092 157.077,-31.2931"/>
<polygon fill="midnightblue" stroke="midnightblue" points="184.385,-64.01 193.896,-68.679 189.373,-59.0982 184.385,-64.01"/>
</g>
<!-- Node7 -->
<g id="node7" class="node"><title>Node7</title>
<g id="a_node7"><a xlink:href="../../da/d7b/Fun4AllPrdfInputManager_8cc.html" target="_top" xlink:title="fun4all/fun4all/Fun4AllPrdf\lInputManager.cc">
<polygon fill="none" stroke="black" points="207.5,-1 207.5,-31 338.5,-31 338.5,-1 207.5,-1"/>
<text text-anchor="start" x="215.5" y="-19" font-family="FreeSans" font-size="10.00">fun4all/fun4all/Fun4AllPrdf</text>
<text text-anchor="middle" x="273" y="-8" font-family="FreeSans" font-size="10.00">InputManager.cc</text>
</a>
</g>
</g>
<!-- Node5&#45;&gt;Node7 -->
<g id="edge6" class="edge"><title>Node5&#45;&gt;Node7</title>
<path fill="none" stroke="midnightblue" d="M229.189,-61.4855C238.939,-51.5852 250.241,-40.1092 258.923,-31.2931"/>
<polygon fill="midnightblue" stroke="midnightblue" points="226.627,-59.0982 222.104,-68.679 231.615,-64.01 226.627,-59.0982"/>
</g>
</g>
</svg>
