<?xml version="1.0" encoding="UTF-8" standalone="no"?>
<!DOCTYPE svg PUBLIC "-//W3C//DTD SVG 1.1//EN"
 "http://www.w3.org/Graphics/SVG/1.1/DTD/svg11.dtd">
<!-- Generated by graphviz version 2.36.0 (20140111.2315)
 -->
<!-- Title: fun4all/phool/PHCompositeNode.cc Pages: 1 -->
<svg width="330pt" height="320pt"
 viewBox="0.00 0.00 330.00 320.00" xmlns="http://www.w3.org/2000/svg" xmlns:xlink="http://www.w3.org/1999/xlink">
<g id="graph0" class="graph" transform="scale(1 1) rotate(0) translate(4 316)">
<title>fun4all/phool/PHCompositeNode.cc</title>
<!-- Node1 -->
<g id="node1" class="node"><title>Node1</title>
<polygon fill="#bfbfbf" stroke="black" points="25.5,-281 25.5,-311 160.5,-311 160.5,-281 25.5,-281"/>
<text text-anchor="start" x="33.5" y="-299" font-family="FreeSans" font-size="10.00">fun4all/phool/PHComposite</text>
<text text-anchor="middle" x="93" y="-288" font-family="FreeSans" font-size="10.00">Node.cc</text>
</g>
<!-- Node2 -->
<g id="node2" class="node"><title>Node2</title>
<g id="a_node2"><a xlink:href="../../d8/d30/PHCompositeNode_8h.html" target="_top" xlink:title="PHCompositeNode.h">
<polygon fill="none" stroke="black" points="80,-224.5 80,-243.5 188,-243.5 188,-224.5 80,-224.5"/>
<text text-anchor="middle" x="134" y="-231.5" font-family="FreeSans" font-size="10.00">PHCompositeNode.h</text>
</a>
</g>
</g>
<!-- Node1&#45;&gt;Node2 -->
<g id="edge1" class="edge"><title>Node1&#45;&gt;Node2</title>
<path fill="none" stroke="midnightblue" d="M102.716,-280.781C108.613,-272.152 116.173,-261.088 122.384,-251.999"/>
<polygon fill="midnightblue" stroke="midnightblue" points="125.282,-253.962 128.034,-243.731 119.502,-250.012 125.282,-253.962"/>
</g>
<!-- Node4 -->
<g id="node4" class="node"><title>Node4</title>
<polygon fill="none" stroke="#bfbfbf" points="153,-0.5 153,-19.5 207,-19.5 207,-0.5 153,-0.5"/>
<text text-anchor="middle" x="180" y="-7.5" font-family="FreeSans" font-size="10.00">iostream</text>
</g>
<!-- Node1&#45;&gt;Node4 -->
<g id="edge16" class="edge"><title>Node1&#45;&gt;Node4</title>
<path fill="none" stroke="midnightblue" d="M70.4873,-280.744C42.9637,-261.361 0,-223.913 0,-179 0,-179 0,-179 0,-121 0,-90.048 2.20751,-76.941 25,-56 57.3503,-26.2775 108.212,-16.0827 142.777,-12.645"/>
<polygon fill="midnightblue" stroke="midnightblue" points="143.275,-16.1154 152.943,-11.7809 142.682,-9.14051 143.275,-16.1154"/>
</g>
<!-- Node9 -->
<g id="node9" class="node"><title>Node9</title>
<g id="a_node9"><a xlink:href="../../d4/d4f/PHPointerListIterator_8h.html" target="_top" xlink:title="PHPointerListIterator.h">
<polygon fill="none" stroke="black" points="206,-224.5 206,-243.5 322,-243.5 322,-224.5 206,-224.5"/>
<text text-anchor="middle" x="264" y="-231.5" font-family="FreeSans" font-size="10.00">PHPointerListIterator.h</text>
</a>
</g>
</g>
<!-- Node1&#45;&gt;Node9 -->
<g id="edge12" class="edge"><title>Node1&#45;&gt;Node9</title>
<path fill="none" stroke="midnightblue" d="M133.092,-280.933C162.545,-270.598 202.125,-256.711 230.028,-246.92"/>
<polygon fill="midnightblue" stroke="midnightblue" points="231.462,-250.126 239.739,-243.513 229.144,-243.521 231.462,-250.126"/>
</g>
<!-- Node10 -->
<g id="node10" class="node"><title>Node10</title>
<g id="a_node10"><a xlink:href="../../de/da7/phooldefs_8h.html" target="_top" xlink:title="phooldefs.h">
<polygon fill="none" stroke="black" points="28,-168.5 28,-187.5 94,-187.5 94,-168.5 28,-168.5"/>
<text text-anchor="middle" x="61" y="-175.5" font-family="FreeSans" font-size="10.00">phooldefs.h</text>
</a>
</g>
</g>
<!-- Node1&#45;&gt;Node10 -->
<g id="edge14" class="edge"><title>Node1&#45;&gt;Node10</title>
<path fill="none" stroke="midnightblue" d="M85.6301,-280.634C80.7826,-270.61 74.6769,-256.789 71,-244 66.608,-228.724 64.0355,-210.839 62.6024,-197.701"/>
<polygon fill="midnightblue" stroke="midnightblue" points="66.0682,-197.178 61.6193,-187.562 59.1009,-197.854 66.0682,-197.178"/>
</g>
<!-- Node3 -->
<g id="node3" class="node"><title>Node3</title>
<g id="a_node3"><a xlink:href="../../d5/d6f/phool_8h.html" target="_top" xlink:title="phool.h">
<polygon fill="none" stroke="black" points="156.5,-56.5 156.5,-75.5 203.5,-75.5 203.5,-56.5 156.5,-56.5"/>
<text text-anchor="middle" x="180" y="-63.5" font-family="FreeSans" font-size="10.00">phool.h</text>
</a>
</g>
</g>
<!-- Node2&#45;&gt;Node3 -->
<g id="edge2" class="edge"><title>Node2&#45;&gt;Node3</title>
<path fill="none" stroke="midnightblue" d="M136.473,-224.075C143.714,-197.945 164.978,-121.211 174.852,-85.577"/>
<polygon fill="midnightblue" stroke="midnightblue" points="178.328,-86.1396 177.626,-75.5681 171.582,-84.2703 178.328,-86.1396"/>
</g>
<!-- Node5 -->
<g id="node5" class="node"><title>Node5</title>
<g id="a_node5"><a xlink:href="../../d3/d62/PHNode_8h.html" target="_top" xlink:title="PHNode.h">
<polygon fill="none" stroke="black" points="84,-112.5 84,-131.5 146,-131.5 146,-112.5 84,-112.5"/>
<text text-anchor="middle" x="115" y="-119.5" font-family="FreeSans" font-size="10.00">PHNode.h</text>
</a>
</g>
</g>
<!-- Node2&#45;&gt;Node5 -->
<g id="edge4" class="edge"><title>Node2&#45;&gt;Node5</title>
<path fill="none" stroke="midnightblue" d="M132.509,-224.368C129.443,-206.617 122.37,-165.666 118.212,-141.597"/>
<polygon fill="midnightblue" stroke="midnightblue" points="121.635,-140.85 116.484,-131.591 114.737,-142.041 121.635,-140.85"/>
</g>
<!-- Node8 -->
<g id="node8" class="node"><title>Node8</title>
<g id="a_node8"><a xlink:href="../../db/dd5/PHPointerList_8h.html" target="_top" xlink:title="PHPointerList.h">
<polygon fill="none" stroke="black" points="202,-168.5 202,-187.5 288,-187.5 288,-168.5 202,-168.5"/>
<text text-anchor="middle" x="245" y="-175.5" font-family="FreeSans" font-size="10.00">PHPointerList.h</text>
</a>
</g>
</g>
<!-- Node2&#45;&gt;Node8 -->
<g id="edge8" class="edge"><title>Node2&#45;&gt;Node8</title>
<path fill="none" stroke="midnightblue" d="M151.834,-224.324C169.716,-215.625 197.475,-202.12 218.046,-192.113"/>
<polygon fill="midnightblue" stroke="midnightblue" points="219.749,-195.177 227.21,-187.655 216.687,-188.882 219.749,-195.177"/>
</g>
<!-- Node3&#45;&gt;Node4 -->
<g id="edge3" class="edge"><title>Node3&#45;&gt;Node4</title>
<path fill="none" stroke="midnightblue" d="M180,-56.083C180,-49.0059 180,-38.8611 180,-29.9865"/>
<polygon fill="midnightblue" stroke="midnightblue" points="183.5,-29.751 180,-19.7511 176.5,-29.7511 183.5,-29.751"/>
</g>
<!-- Node5&#45;&gt;Node3 -->
<g id="edge5" class="edge"><title>Node5&#45;&gt;Node3</title>
<path fill="none" stroke="midnightblue" d="M125.443,-112.324C135.146,-104.263 149.815,-92.0765 161.5,-82.3695"/>
<polygon fill="midnightblue" stroke="midnightblue" points="163.911,-84.9163 169.367,-75.8339 159.438,-79.532 163.911,-84.9163"/>
</g>
<!-- Node6 -->
<g id="node6" class="node"><title>Node6</title>
<polygon fill="none" stroke="#bfbfbf" points="93.5,-56.5 93.5,-75.5 138.5,-75.5 138.5,-56.5 93.5,-56.5"/>
<text text-anchor="middle" x="116" y="-63.5" font-family="FreeSans" font-size="10.00">iosfwd</text>
</g>
<!-- Node5&#45;&gt;Node6 -->
<g id="edge6" class="edge"><title>Node5&#45;&gt;Node6</title>
<path fill="none" stroke="midnightblue" d="M115.165,-112.083C115.296,-105.006 115.484,-94.8611 115.648,-85.9865"/>
<polygon fill="midnightblue" stroke="midnightblue" points="119.152,-85.8142 115.838,-75.7511 112.153,-85.6845 119.152,-85.8142"/>
</g>
<!-- Node7 -->
<g id="node7" class="node"><title>Node7</title>
<polygon fill="none" stroke="#bfbfbf" points="34.5,-56.5 34.5,-75.5 75.5,-75.5 75.5,-56.5 34.5,-56.5"/>
<text text-anchor="middle" x="55" y="-63.5" font-family="FreeSans" font-size="10.00">string</text>
</g>
<!-- Node5&#45;&gt;Node7 -->
<g id="edge7" class="edge"><title>Node5&#45;&gt;Node7</title>
<path fill="none" stroke="midnightblue" d="M105.36,-112.324C96.4904,-104.341 83.1253,-92.3128 72.3921,-82.6529"/>
<polygon fill="midnightblue" stroke="midnightblue" points="74.5898,-79.922 64.8154,-75.8339 69.907,-85.1251 74.5898,-79.922"/>
</g>
<!-- Node8&#45;&gt;Node3 -->
<g id="edge9" class="edge"><title>Node8&#45;&gt;Node3</title>
<path fill="none" stroke="midnightblue" d="M239.9,-168.368C229.22,-150.296 204.332,-108.176 190.227,-84.3074"/>
<polygon fill="midnightblue" stroke="midnightblue" points="193.177,-82.4201 185.077,-75.5914 187.151,-85.9813 193.177,-82.4201"/>
</g>
<!-- Node8&#45;&gt;Node4 -->
<g id="edge11" class="edge"><title>Node8&#45;&gt;Node4</title>
<path fill="none" stroke="midnightblue" d="M243.727,-168.426C240.487,-148.108 230.822,-95.7532 212,-56 207.24,-45.9467 200.221,-35.7621 193.969,-27.6306"/>
<polygon fill="midnightblue" stroke="midnightblue" points="196.612,-25.3324 187.628,-19.7162 191.149,-29.709 196.612,-25.3324"/>
</g>
<!-- Node8&#45;&gt;Node5 -->
<g id="edge10" class="edge"><title>Node8&#45;&gt;Node5</title>
<path fill="none" stroke="midnightblue" d="M224.401,-168.444C203.007,-159.557 169.319,-145.563 144.976,-135.451"/>
<polygon fill="midnightblue" stroke="midnightblue" points="146.08,-132.12 135.503,-131.516 143.395,-138.585 146.08,-132.12"/>
</g>
<!-- Node9&#45;&gt;Node8 -->
<g id="edge13" class="edge"><title>Node9&#45;&gt;Node8</title>
<path fill="none" stroke="midnightblue" d="M260.863,-224.083C258.317,-216.849 254.644,-206.409 251.473,-197.397"/>
<polygon fill="midnightblue" stroke="midnightblue" points="254.7,-196.023 248.079,-187.751 248.097,-198.346 254.7,-196.023"/>
</g>
<!-- Node10&#45;&gt;Node7 -->
<g id="edge15" class="edge"><title>Node10&#45;&gt;Node7</title>
<path fill="none" stroke="midnightblue" d="M60.5292,-168.368C59.5609,-150.617 57.3273,-109.666 56.0144,-85.5974"/>
<polygon fill="midnightblue" stroke="midnightblue" points="59.5082,-85.3859 55.4686,-75.5914 52.5186,-85.7672 59.5082,-85.3859"/>
</g>
</g>
</svg>
