<?xml version="1.0" encoding="UTF-8" standalone="no"?>
<!DOCTYPE svg PUBLIC "-//W3C//DTD SVG 1.1//EN"
 "http://www.w3.org/Graphics/SVG/1.1/DTD/svg11.dtd">
<!-- Generated by graphviz version 2.36.0 (20140111.2315)
 -->
<!-- Title: PHFlag::FlagExist Pages: 1 -->
<svg width="442pt" height="183pt"
 viewBox="0.00 0.00 442.00 183.00" xmlns="http://www.w3.org/2000/svg" xmlns:xlink="http://www.w3.org/1999/xlink">
<g id="graph0" class="graph" transform="scale(1 1) rotate(0) translate(4 179)">
<title>PHFlag::FlagExist</title>
<!-- Node1 -->
<g id="node1" class="node"><title>Node1</title>
<polygon fill="#bfbfbf" stroke="black" points="0,-79.5 0,-98.5 94,-98.5 94,-79.5 0,-79.5"/>
<text text-anchor="middle" x="47" y="-86.5" font-family="FreeSans" font-size="10.00">PHFlag::FlagExist</text>
</g>
<!-- Node2 -->
<g id="node2" class="node"><title>Node2</title>
<g id="a_node2"><a xlink:href="../../d3/d96/classFun4AllHistoManager.html#a61c2043c62739de451de3f9287832a08" target="_top" xlink:title="Fun4AllHistoManager\l::dumpHistos">
<polygon fill="none" stroke="black" points="142,-145 142,-175 252,-175 252,-145 142,-145"/>
<text text-anchor="start" x="150" y="-163" font-family="FreeSans" font-size="10.00">Fun4AllHistoManager</text>
<text text-anchor="middle" x="197" y="-152" font-family="FreeSans" font-size="10.00">::dumpHistos</text>
</a>
</g>
</g>
<!-- Node1&#45;&gt;Node2 -->
<g id="edge1" class="edge"><title>Node1&#45;&gt;Node2</title>
<path fill="none" stroke="midnightblue" d="M72.1065,-103.78C88.1843,-113.321 109.969,-125.651 130,-135 137.439,-138.472 145.505,-141.839 153.36,-144.918"/>
<polygon fill="midnightblue" stroke="midnightblue" points="73.7314,-100.673 63.356,-98.528 70.1291,-106.675 73.7314,-100.673"/>
</g>
<!-- Node3 -->
<g id="node3" class="node"><title>Node3</title>
<g id="a_node3"><a xlink:href="../../d6/dc8/classFun4AllPrdfOutputManager.html#a34a327859dafb50190588e6393d8ec2b" target="_top" xlink:title="Fun4AllPrdfOutputManager\l::InitPrdfManager">
<polygon fill="none" stroke="black" points="130,-96 130,-126 264,-126 264,-96 130,-96"/>
<text text-anchor="start" x="138" y="-114" font-family="FreeSans" font-size="10.00">Fun4AllPrdfOutputManager</text>
<text text-anchor="middle" x="197" y="-103" font-family="FreeSans" font-size="10.00">::InitPrdfManager</text>
</a>
</g>
</g>
<!-- Node1&#45;&gt;Node3 -->
<g id="edge2" class="edge"><title>Node1&#45;&gt;Node3</title>
<path fill="none" stroke="midnightblue" d="M104.105,-97.3399C112.535,-98.593 121.295,-99.8951 129.91,-101.176"/>
<polygon fill="midnightblue" stroke="midnightblue" points="104.423,-93.8488 94.0168,-95.8403 103.394,-100.773 104.423,-93.8488"/>
</g>
<!-- Node5 -->
<g id="node5" class="node"><title>Node5</title>
<g id="a_node5"><a xlink:href="../../dd/d1f/classPHRandomSeed.html#a2bde8781fe8b52f6f01d4160139f4f55" target="_top" xlink:title="PHRandomSeed::InitSeed">
<polygon fill="none" stroke="black" points="132,-57.5 132,-76.5 262,-76.5 262,-57.5 132,-57.5"/>
<text text-anchor="middle" x="197" y="-64.5" font-family="FreeSans" font-size="10.00">PHRandomSeed::InitSeed</text>
</a>
</g>
</g>
<!-- Node1&#45;&gt;Node5 -->
<g id="edge4" class="edge"><title>Node1&#45;&gt;Node5</title>
<path fill="none" stroke="midnightblue" d="M104.129,-80.6564C113.26,-79.2992 122.777,-77.8846 132.077,-76.5021"/>
<polygon fill="midnightblue" stroke="midnightblue" points="103.394,-77.2273 94.0168,-82.1597 104.423,-84.1512 103.394,-77.2273"/>
</g>
<!-- Node6 -->
<g id="node6" class="node"><title>Node6</title>
<g id="a_node6"><a xlink:href="../../da/d29/classFun4AllServer.html#a11bbc8b2f53bc06e0b05ee202dd6372a" target="_top" xlink:title="run n events (0 means up to end of file) ">
<polygon fill="none" stroke="black" points="149,-19.5 149,-38.5 245,-38.5 245,-19.5 149,-19.5"/>
<text text-anchor="middle" x="197" y="-26.5" font-family="FreeSans" font-size="10.00">Fun4AllServer::run</text>
</a>
</g>
</g>
<!-- Node1&#45;&gt;Node6 -->
<g id="edge5" class="edge"><title>Node1&#45;&gt;Node6</title>
<path fill="none" stroke="midnightblue" d="M74.0244,-74.4489C89.8742,-65.9782 110.721,-55.5213 130,-48 138.998,-44.4897 148.909,-41.2986 158.255,-38.5762"/>
<polygon fill="midnightblue" stroke="midnightblue" points="71.9798,-71.5763 64.8602,-79.4224 75.3188,-77.7286 71.9798,-71.5763"/>
</g>
<!-- Node4 -->
<g id="node4" class="node"><title>Node4</title>
<g id="a_node4"><a xlink:href="../../d6/dc8/classFun4AllPrdfOutputManager.html#a6aaed7e9b0b32a481661fde72ff44fa2" target="_top" xlink:title="event write method (startNode argument is ignored. prdfNode is always used) ">
<polygon fill="none" stroke="black" points="300,-96 300,-126 434,-126 434,-96 300,-96"/>
<text text-anchor="start" x="308" y="-114" font-family="FreeSans" font-size="10.00">Fun4AllPrdfOutputManager</text>
<text text-anchor="middle" x="367" y="-103" font-family="FreeSans" font-size="10.00">::Write</text>
</a>
</g>
</g>
<!-- Node3&#45;&gt;Node4 -->
<g id="edge3" class="edge"><title>Node3&#45;&gt;Node4</title>
<path fill="none" stroke="midnightblue" d="M274.595,-111C283.013,-111 291.532,-111 299.809,-111"/>
<polygon fill="midnightblue" stroke="midnightblue" points="274.398,-107.5 264.398,-111 274.398,-114.5 274.398,-107.5"/>
</g>
<!-- Node7 -->
<g id="node7" class="node"><title>Node7</title>
<g id="a_node7"><a xlink:href="../../d0/d46/Fun4__SimpleReadMySql_8C.html#a70381893748e3445abc30632beb256ce" target="_top" xlink:title="Fun4_SimpleReadMySql">
<polygon fill="none" stroke="black" points="305.5,-38.5 305.5,-57.5 428.5,-57.5 428.5,-38.5 305.5,-38.5"/>
<text text-anchor="middle" x="367" y="-45.5" font-family="FreeSans" font-size="10.00">Fun4_SimpleReadMySql</text>
</a>
</g>
</g>
<!-- Node6&#45;&gt;Node7 -->
<g id="edge6" class="edge"><title>Node6&#45;&gt;Node7</title>
<path fill="none" stroke="midnightblue" d="M255.552,-35.5089C271.595,-37.3232 289.071,-39.2996 305.289,-41.1338"/>
<polygon fill="midnightblue" stroke="midnightblue" points="255.574,-31.9892 245.244,-34.3431 254.788,-38.9448 255.574,-31.9892"/>
</g>
<!-- Node8 -->
<g id="node8" class="node"><title>Node8</title>
<g id="a_node8"><a xlink:href="../../d9/d8c/Fun4ReadMySql_8C.html#a729b39fa627147c63772f28c9be36b62" target="_top" xlink:title="Fun4ReadMySql">
<polygon fill="none" stroke="black" points="323,-0.5 323,-19.5 411,-19.5 411,-0.5 323,-0.5"/>
<text text-anchor="middle" x="367" y="-7.5" font-family="FreeSans" font-size="10.00">Fun4ReadMySql</text>
</a>
</g>
</g>
<!-- Node6&#45;&gt;Node8 -->
<g id="edge7" class="edge"><title>Node6&#45;&gt;Node8</title>
<path fill="none" stroke="midnightblue" d="M255.197,-22.5313C277.338,-20.0273 302.255,-17.2093 322.844,-14.8807"/>
<polygon fill="midnightblue" stroke="midnightblue" points="254.788,-19.0552 245.244,-23.6569 255.574,-26.0108 254.788,-19.0552"/>
</g>
</g>
</svg>
