<?xml version="1.0" encoding="UTF-8" standalone="no"?>
<!DOCTYPE svg PUBLIC "-//W3C//DTD SVG 1.1//EN"
 "http://www.w3.org/Graphics/SVG/1.1/DTD/svg11.dtd">
<!-- Generated by graphviz version 2.36.0 (20140111.2315)
 -->
<!-- Title: PHFlag::set_IntFlag Pages: 1 -->
<svg width="584pt" height="85pt"
 viewBox="0.00 0.00 584.00 85.00" xmlns="http://www.w3.org/2000/svg" xmlns:xlink="http://www.w3.org/1999/xlink">
<g id="graph0" class="graph" transform="scale(1 1) rotate(0) translate(4 81)">
<title>PHFlag::set_IntFlag</title>
<!-- Node1 -->
<g id="node1" class="node"><title>Node1</title>
<polygon fill="#bfbfbf" stroke="black" points="0.5,-38.5 0.5,-57.5 103.5,-57.5 103.5,-38.5 0.5,-38.5"/>
<text text-anchor="middle" x="52" y="-45.5" font-family="FreeSans" font-size="10.00">PHFlag::set_IntFlag</text>
</g>
<!-- Node2 -->
<g id="node2" class="node"><title>Node2</title>
<g id="a_node2"><a xlink:href="../../da/db3/classFlagSavev1.html#a4984f65c063fd570012bbcbc9f3cbaf3" target="_top" xlink:title="FlagSavev1::PutIntToPHFlag">
<polygon fill="none" stroke="black" points="140.5,-57.5 140.5,-76.5 283.5,-76.5 283.5,-57.5 140.5,-57.5"/>
<text text-anchor="middle" x="212" y="-64.5" font-family="FreeSans" font-size="10.00">FlagSavev1::PutIntToPHFlag</text>
</a>
</g>
</g>
<!-- Node1&#45;&gt;Node2 -->
<g id="edge1" class="edge"><title>Node1&#45;&gt;Node2</title>
<path fill="none" stroke="midnightblue" d="M113.876,-55.3206C122.551,-56.3637 131.533,-57.4439 140.374,-58.507"/>
<polygon fill="midnightblue" stroke="midnightblue" points="114.208,-51.8354 103.862,-54.1163 113.372,-58.7853 114.208,-51.8354"/>
</g>
<!-- Node3 -->
<g id="node3" class="node"><title>Node3</title>
<g id="a_node3"><a xlink:href="../../da/d29/classFun4AllServer.html#af1002b9170308da078c0e14a5ac4b514" target="_top" xlink:title="Fun4AllServer::setRun">
<polygon fill="none" stroke="black" points="155.5,-19.5 155.5,-38.5 268.5,-38.5 268.5,-19.5 155.5,-19.5"/>
<text text-anchor="middle" x="212" y="-26.5" font-family="FreeSans" font-size="10.00">Fun4AllServer::setRun</text>
</a>
</g>
</g>
<!-- Node1&#45;&gt;Node3 -->
<g id="edge2" class="edge"><title>Node1&#45;&gt;Node3</title>
<path fill="none" stroke="midnightblue" d="M114.069,-40.6562C127.645,-39.0237 141.966,-37.3015 155.312,-35.6966"/>
<polygon fill="midnightblue" stroke="midnightblue" points="113.372,-37.2147 103.862,-41.8837 114.208,-44.1646 113.372,-37.2147"/>
</g>
<!-- Node4 -->
<g id="node4" class="node"><title>Node4</title>
<g id="a_node4"><a xlink:href="../../da/d29/classFun4AllServer.html#a11bbc8b2f53bc06e0b05ee202dd6372a" target="_top" xlink:title="run n events (0 means up to end of file) ">
<polygon fill="none" stroke="black" points="320,-19.5 320,-38.5 416,-38.5 416,-19.5 320,-19.5"/>
<text text-anchor="middle" x="368" y="-26.5" font-family="FreeSans" font-size="10.00">Fun4AllServer::run</text>
</a>
</g>
</g>
<!-- Node3&#45;&gt;Node4 -->
<g id="edge3" class="edge"><title>Node3&#45;&gt;Node4</title>
<path fill="none" stroke="midnightblue" d="M278.934,-29C292.611,-29 306.764,-29 319.617,-29"/>
<polygon fill="midnightblue" stroke="midnightblue" points="278.598,-25.5001 268.598,-29 278.598,-32.5001 278.598,-25.5001"/>
</g>
<!-- Node5 -->
<g id="node5" class="node"><title>Node5</title>
<g id="a_node5"><a xlink:href="../../d0/d46/Fun4__SimpleReadMySql_8C.html#a70381893748e3445abc30632beb256ce" target="_top" xlink:title="Fun4_SimpleReadMySql">
<polygon fill="none" stroke="black" points="452.5,-38.5 452.5,-57.5 575.5,-57.5 575.5,-38.5 452.5,-38.5"/>
<text text-anchor="middle" x="514" y="-45.5" font-family="FreeSans" font-size="10.00">Fun4_SimpleReadMySql</text>
</a>
</g>
</g>
<!-- Node4&#45;&gt;Node5 -->
<g id="edge4" class="edge"><title>Node4&#45;&gt;Node5</title>
<path fill="none" stroke="midnightblue" d="M426.109,-36.5352C434.736,-37.6735 443.66,-38.851 452.358,-39.9986"/>
<polygon fill="midnightblue" stroke="midnightblue" points="426.523,-33.0596 416.151,-35.2213 425.607,-39.9994 426.523,-33.0596"/>
</g>
<!-- Node6 -->
<g id="node6" class="node"><title>Node6</title>
<g id="a_node6"><a xlink:href="../../d9/d8c/Fun4ReadMySql_8C.html#a729b39fa627147c63772f28c9be36b62" target="_top" xlink:title="Fun4ReadMySql">
<polygon fill="none" stroke="black" points="470,-0.5 470,-19.5 558,-19.5 558,-0.5 470,-0.5"/>
<text text-anchor="middle" x="514" y="-7.5" font-family="FreeSans" font-size="10.00">Fun4ReadMySql</text>
</a>
</g>
</g>
<!-- Node4&#45;&gt;Node6 -->
<g id="edge5" class="edge"><title>Node4&#45;&gt;Node6</title>
<path fill="none" stroke="midnightblue" d="M426.457,-21.4189C440.854,-19.5193 456.061,-17.5128 469.643,-15.7208"/>
<polygon fill="midnightblue" stroke="midnightblue" points="425.607,-18.0006 416.151,-22.7787 426.523,-24.9404 425.607,-18.0006"/>
</g>
</g>
</svg>
