<?xml version="1.0" encoding="UTF-8" standalone="no"?>
<!DOCTYPE svg PUBLIC "-//W3C//DTD SVG 1.1//EN"
 "http://www.w3.org/Graphics/SVG/1.1/DTD/svg11.dtd">
<!-- Generated by graphviz version 2.36.0 (20140111.2315)
 -->
<!-- Title: PHFlag::get_IntFlag Pages: 1 -->
<svg width="460pt" height="252pt"
 viewBox="0.00 0.00 460.00 252.00" xmlns="http://www.w3.org/2000/svg" xmlns:xlink="http://www.w3.org/1999/xlink">
<g id="graph0" class="graph" transform="scale(1 1) rotate(0) translate(4 248)">
<title>PHFlag::get_IntFlag</title>
<!-- Node1 -->
<g id="node1" class="node"><title>Node1</title>
<polygon fill="#bfbfbf" stroke="black" points="0.5,-115.5 0.5,-134.5 103.5,-134.5 103.5,-115.5 0.5,-115.5"/>
<text text-anchor="middle" x="52" y="-122.5" font-family="FreeSans" font-size="10.00">PHFlag::get_IntFlag</text>
</g>
<!-- Node2 -->
<g id="node2" class="node"><title>Node2</title>
<g id="a_node2"><a xlink:href="../../d3/d96/classFun4AllHistoManager.html#a61c2043c62739de451de3f9287832a08" target="_top" xlink:title="Fun4AllHistoManager\l::dumpHistos">
<polygon fill="none" stroke="black" points="156,-214 156,-244 266,-244 266,-214 156,-214"/>
<text text-anchor="start" x="164" y="-232" font-family="FreeSans" font-size="10.00">Fun4AllHistoManager</text>
<text text-anchor="middle" x="211" y="-221" font-family="FreeSans" font-size="10.00">::dumpHistos</text>
</a>
</g>
</g>
<!-- Node1&#45;&gt;Node2 -->
<g id="edge1" class="edge"><title>Node1&#45;&gt;Node2</title>
<path fill="none" stroke="midnightblue" d="M68.2419,-142.4C84.4915,-160.029 111.73,-187.049 140,-204 146.198,-207.716 153.034,-211.003 159.932,-213.87"/>
<polygon fill="midnightblue" stroke="midnightblue" points="70.4888,-139.666 61.1912,-134.586 65.2916,-144.355 70.4888,-139.666"/>
</g>
<!-- Node3 -->
<g id="node3" class="node"><title>Node3</title>
<g id="a_node3"><a xlink:href="../../da/d29/classFun4AllServer.html#ab7263450319ca1d5029209fde26a7af8" target="_top" xlink:title="Fun4AllServer::End">
<polygon fill="none" stroke="black" points="161.5,-175.5 161.5,-194.5 260.5,-194.5 260.5,-175.5 161.5,-175.5"/>
<text text-anchor="middle" x="211" y="-182.5" font-family="FreeSans" font-size="10.00">Fun4AllServer::End</text>
</a>
</g>
</g>
<!-- Node1&#45;&gt;Node3 -->
<g id="edge2" class="edge"><title>Node1&#45;&gt;Node3</title>
<path fill="none" stroke="midnightblue" d="M80.1954,-139.328C97.0902,-147.846 119.435,-158.43 140,-166 149.572,-169.524 160.095,-172.72 170.008,-175.442"/>
<polygon fill="midnightblue" stroke="midnightblue" points="81.4292,-136.027 70.9324,-134.589 78.2414,-142.259 81.4292,-136.027"/>
</g>
<!-- Node6 -->
<g id="node6" class="node"><title>Node6</title>
<g id="a_node6"><a xlink:href="../../d6/dc8/classFun4AllPrdfOutputManager.html#a34a327859dafb50190588e6393d8ec2b" target="_top" xlink:title="Fun4AllPrdfOutputManager\l::InitPrdfManager">
<polygon fill="none" stroke="black" points="144,-88 144,-118 278,-118 278,-88 144,-88"/>
<text text-anchor="start" x="152" y="-106" font-family="FreeSans" font-size="10.00">Fun4AllPrdfOutputManager</text>
<text text-anchor="middle" x="211" y="-95" font-family="FreeSans" font-size="10.00">::InitPrdfManager</text>
</a>
</g>
</g>
<!-- Node1&#45;&gt;Node6 -->
<g id="edge5" class="edge"><title>Node1&#45;&gt;Node6</title>
<path fill="none" stroke="midnightblue" d="M113.654,-116.501C123.525,-115.117 133.794,-113.679 143.789,-112.278"/>
<polygon fill="midnightblue" stroke="midnightblue" points="112.958,-113.064 103.54,-117.918 113.929,-119.996 112.958,-113.064"/>
</g>
<!-- Node8 -->
<g id="node8" class="node"><title>Node8</title>
<g id="a_node8"><a xlink:href="../../dd/d1f/classPHRandomSeed.html#a2bde8781fe8b52f6f01d4160139f4f55" target="_top" xlink:title="PHRandomSeed::InitSeed">
<polygon fill="none" stroke="black" points="146,-49.5 146,-68.5 276,-68.5 276,-49.5 146,-49.5"/>
<text text-anchor="middle" x="211" y="-56.5" font-family="FreeSans" font-size="10.00">PHRandomSeed::InitSeed</text>
</a>
</g>
</g>
<!-- Node1&#45;&gt;Node8 -->
<g id="edge7" class="edge"><title>Node1&#45;&gt;Node8</title>
<path fill="none" stroke="midnightblue" d="M77.3303,-110.377C94.4242,-100.545 118.065,-87.8206 140,-79 149.85,-75.039 160.773,-71.5241 171.004,-68.589"/>
<polygon fill="midnightblue" stroke="midnightblue" points="75.4307,-107.433 68.5597,-115.498 78.9603,-113.478 75.4307,-107.433"/>
</g>
<!-- Node9 -->
<g id="node9" class="node"><title>Node9</title>
<g id="a_node9"><a xlink:href="../../da/d29/classFun4AllServer.html#a11bbc8b2f53bc06e0b05ee202dd6372a" target="_top" xlink:title="run n events (0 means up to end of file) ">
<polygon fill="none" stroke="black" points="163,-137.5 163,-156.5 259,-156.5 259,-137.5 163,-137.5"/>
<text text-anchor="middle" x="211" y="-144.5" font-family="FreeSans" font-size="10.00">Fun4AllServer::run</text>
</a>
</g>
</g>
<!-- Node1&#45;&gt;Node9 -->
<g id="edge8" class="edge"><title>Node1&#45;&gt;Node9</title>
<path fill="none" stroke="midnightblue" d="M113.535,-133.483C129.857,-135.77 147.275,-138.211 162.755,-140.38"/>
<polygon fill="midnightblue" stroke="midnightblue" points="113.929,-130.004 103.54,-132.082 112.958,-136.936 113.929,-130.004"/>
</g>
<!-- Node10 -->
<g id="node10" class="node"><title>Node10</title>
<g id="a_node10"><a xlink:href="../../df/d43/classFun4AllDummyInputManager.html#a3863cb07576f56e8e514ae272b322679" target="_top" xlink:title="Fun4AllDummyInputManager\l::setSyncManager">
<polygon fill="none" stroke="black" points="140,-0 140,-30 282,-30 282,-0 140,-0"/>
<text text-anchor="start" x="148" y="-18" font-family="FreeSans" font-size="10.00">Fun4AllDummyInputManager</text>
<text text-anchor="middle" x="211" y="-7" font-family="FreeSans" font-size="10.00">::setSyncManager</text>
</a>
</g>
</g>
<!-- Node1&#45;&gt;Node10 -->
<g id="edge11" class="edge"><title>Node1&#45;&gt;Node10</title>
<path fill="none" stroke="midnightblue" d="M66.7802,-107.63C82.6387,-88.665 110.337,-58.5311 140,-40 146.019,-36.2395 152.683,-32.941 159.437,-30.0794"/>
<polygon fill="midnightblue" stroke="midnightblue" points="63.9847,-105.52 60.3624,-115.476 69.403,-109.952 63.9847,-105.52"/>
</g>
<!-- Node4 -->
<g id="node4" class="node"><title>Node4</title>
<g id="a_node4"><a xlink:href="../../d0/d46/Fun4__SimpleReadMySql_8C.html#a70381893748e3445abc30632beb256ce" target="_top" xlink:title="Fun4_SimpleReadMySql">
<polygon fill="none" stroke="black" points="323.5,-137.5 323.5,-156.5 446.5,-156.5 446.5,-137.5 323.5,-137.5"/>
<text text-anchor="middle" x="385" y="-144.5" font-family="FreeSans" font-size="10.00">Fun4_SimpleReadMySql</text>
</a>
</g>
</g>
<!-- Node3&#45;&gt;Node4 -->
<g id="edge3" class="edge"><title>Node3&#45;&gt;Node4</title>
<path fill="none" stroke="midnightblue" d="M265.196,-173.247C289.517,-167.874 317.955,-161.591 340.909,-156.52"/>
<polygon fill="midnightblue" stroke="midnightblue" points="264.412,-169.836 255.403,-175.411 265.922,-176.671 264.412,-169.836"/>
</g>
<!-- Node5 -->
<g id="node5" class="node"><title>Node5</title>
<g id="a_node5"><a xlink:href="../../d9/d8c/Fun4ReadMySql_8C.html#a729b39fa627147c63772f28c9be36b62" target="_top" xlink:title="Fun4ReadMySql">
<polygon fill="none" stroke="black" points="341,-175.5 341,-194.5 429,-194.5 429,-175.5 341,-175.5"/>
<text text-anchor="middle" x="385" y="-182.5" font-family="FreeSans" font-size="10.00">Fun4ReadMySql</text>
</a>
</g>
</g>
<!-- Node3&#45;&gt;Node5 -->
<g id="edge4" class="edge"><title>Node3&#45;&gt;Node5</title>
<path fill="none" stroke="midnightblue" d="M271.132,-185C294.051,-185 319.799,-185 340.909,-185"/>
<polygon fill="midnightblue" stroke="midnightblue" points="270.828,-181.5 260.828,-185 270.828,-188.5 270.828,-181.5"/>
</g>
<!-- Node7 -->
<g id="node7" class="node"><title>Node7</title>
<g id="a_node7"><a xlink:href="../../d6/dc8/classFun4AllPrdfOutputManager.html#a6aaed7e9b0b32a481661fde72ff44fa2" target="_top" xlink:title="event write method (startNode argument is ignored. prdfNode is always used) ">
<polygon fill="none" stroke="black" points="318,-88 318,-118 452,-118 452,-88 318,-88"/>
<text text-anchor="start" x="326" y="-106" font-family="FreeSans" font-size="10.00">Fun4AllPrdfOutputManager</text>
<text text-anchor="middle" x="385" y="-95" font-family="FreeSans" font-size="10.00">::Write</text>
</a>
</g>
</g>
<!-- Node6&#45;&gt;Node7 -->
<g id="edge6" class="edge"><title>Node6&#45;&gt;Node7</title>
<path fill="none" stroke="midnightblue" d="M288.227,-103C298.116,-103 308.179,-103 317.885,-103"/>
<polygon fill="midnightblue" stroke="midnightblue" points="288.008,-99.5001 278.008,-103 288.008,-106.5 288.008,-99.5001"/>
</g>
<!-- Node9&#45;&gt;Node4 -->
<g id="edge9" class="edge"><title>Node9&#45;&gt;Node4</title>
<path fill="none" stroke="midnightblue" d="M269.934,-147C287.159,-147 306.072,-147 323.458,-147"/>
<polygon fill="midnightblue" stroke="midnightblue" points="269.455,-143.5 259.455,-147 269.455,-150.5 269.455,-143.5"/>
</g>
<!-- Node9&#45;&gt;Node5 -->
<g id="edge10" class="edge"><title>Node9&#45;&gt;Node5</title>
<path fill="none" stroke="midnightblue" d="M265.196,-158.753C289.517,-164.126 317.955,-170.409 340.909,-175.48"/>
<polygon fill="midnightblue" stroke="midnightblue" points="265.922,-155.329 255.403,-156.589 264.412,-162.164 265.922,-155.329"/>
</g>
</g>
</svg>
