<?xml version="1.0" encoding="UTF-8" standalone="no"?>
<!DOCTYPE svg PUBLIC "-//W3C//DTD SVG 1.1//EN"
 "http://www.w3.org/Graphics/SVG/1.1/DTD/svg11.dtd">
<!-- Generated by graphviz version 2.36.0 (20140111.2315)
 -->
<!-- Title: PHNodeIterator Pages: 1 -->
<svg width="265pt" height="84pt"
 viewBox="0.00 0.00 265.00 84.00" xmlns="http://www.w3.org/2000/svg" xmlns:xlink="http://www.w3.org/1999/xlink">
<g id="graph0" class="graph" transform="scale(1 1) rotate(0) translate(4 80)">
<title>PHNodeIterator</title>
<!-- Node1 -->
<g id="node1" class="node"><title>Node1</title>
<polygon fill="#bfbfbf" stroke="black" points="78.5,-56.5 78.5,-75.5 163.5,-75.5 163.5,-56.5 78.5,-56.5"/>
<text text-anchor="middle" x="121" y="-63.5" font-family="FreeSans" font-size="10.00">PHNodeIterator</text>
</g>
<!-- Node2 -->
<g id="node2" class="node"><title>Node2</title>
<g id="a_node2"><a xlink:href="../../d7/ddf/classPHDataNodeIterator.html" target="_top" xlink:title="PHDataNodeIterator">
<polygon fill="none" stroke="black" points="-0.5,-0.5 -0.5,-19.5 104.5,-19.5 104.5,-0.5 -0.5,-0.5"/>
<text text-anchor="middle" x="52" y="-7.5" font-family="FreeSans" font-size="10.00">PHDataNodeIterator</text>
</a>
</g>
</g>
<!-- Node1&#45;&gt;Node2 -->
<g id="edge1" class="edge"><title>Node1&#45;&gt;Node2</title>
<path fill="none" stroke="midnightblue" d="M101.962,-50.1008C89.5442,-40.3824 73.7566,-28.0269 63.2878,-19.8339"/>
<polygon fill="midnightblue" stroke="midnightblue" points="99.8818,-52.9171 109.914,-56.324 104.196,-47.4046 99.8818,-52.9171"/>
</g>
<!-- Node3 -->
<g id="node3" class="node"><title>Node3</title>
<g id="a_node3"><a xlink:href="../../df/d76/classPHTypedNodeIterator.html" target="_top" xlink:title="PHTypedNodeIterator\&lt; T \&gt;">
<polygon fill="none" stroke="black" points="123,-0.5 123,-19.5 257,-19.5 257,-0.5 123,-0.5"/>
<text text-anchor="middle" x="190" y="-7.5" font-family="FreeSans" font-size="10.00">PHTypedNodeIterator&lt; T &gt;</text>
</a>
</g>
</g>
<!-- Node1&#45;&gt;Node3 -->
<g id="edge2" class="edge"><title>Node1&#45;&gt;Node3</title>
<path fill="none" stroke="midnightblue" d="M140.038,-50.1008C152.456,-40.3824 168.243,-28.0269 178.712,-19.8339"/>
<polygon fill="midnightblue" stroke="midnightblue" points="137.804,-47.4046 132.086,-56.324 142.118,-52.9171 137.804,-47.4046"/>
</g>
</g>
</svg>
