<?xml version="1.0" encoding="UTF-8" standalone="no"?>
<!DOCTYPE svg PUBLIC "-//W3C//DTD SVG 1.1//EN"
 "http://www.w3.org/Graphics/SVG/1.1/DTD/svg11.dtd">
<!-- Generated by graphviz version 2.36.0 (20140111.2315)
 -->
<!-- Title: SyncObjectv1::SyncObjectv1 Pages: 1 -->
<svg width="320pt" height="104pt"
 viewBox="0.00 0.00 320.00 104.00" xmlns="http://www.w3.org/2000/svg" xmlns:xlink="http://www.w3.org/1999/xlink">
<g id="graph0" class="graph" transform="scale(1 1) rotate(0) translate(4 100)">
<title>SyncObjectv1::SyncObjectv1</title>
<!-- Node1 -->
<g id="node1" class="node"><title>Node1</title>
<polygon fill="#bfbfbf" stroke="black" points="0.5,-38.5 0.5,-57.5 143.5,-57.5 143.5,-38.5 0.5,-38.5"/>
<text text-anchor="middle" x="72" y="-45.5" font-family="FreeSans" font-size="10.00">SyncObjectv1::SyncObjectv1</text>
</g>
<!-- Node2 -->
<g id="node2" class="node"><title>Node2</title>
<g id="a_node2"><a xlink:href="../../de/dbb/classSyncObject.html#ad679d42aac1a409a94d2e535766dcebd" target="_top" xlink:title="set Event Counter ">
<polygon fill="none" stroke="black" points="181,-76.5 181,-95.5 311,-95.5 311,-76.5 181,-76.5"/>
<text text-anchor="middle" x="246" y="-83.5" font-family="FreeSans" font-size="10.00">SyncObject::EventCounter</text>
</a>
</g>
</g>
<!-- Node1&#45;&gt;Node2 -->
<g id="edge1" class="edge"><title>Node1&#45;&gt;Node2</title>
<path fill="none" stroke="midnightblue" d="M116.403,-57.589C139.407,-62.6713 167.851,-68.9554 192.134,-74.3203"/>
<polygon fill="midnightblue" stroke="midnightblue" points="191.39,-77.7402 201.909,-76.4799 192.9,-70.905 191.39,-77.7402"/>
</g>
<!-- Node3 -->
<g id="node3" class="node"><title>Node3</title>
<g id="a_node3"><a xlink:href="../../de/dbb/classSyncObject.html#aa650d97c0d3ace8ae7945f54224228ef" target="_top" xlink:title="set Event Number ">
<polygon fill="none" stroke="black" points="180.5,-38.5 180.5,-57.5 311.5,-57.5 311.5,-38.5 180.5,-38.5"/>
<text text-anchor="middle" x="246" y="-45.5" font-family="FreeSans" font-size="10.00">SyncObject::EventNumber</text>
</a>
</g>
</g>
<!-- Node1&#45;&gt;Node3 -->
<g id="edge2" class="edge"><title>Node1&#45;&gt;Node3</title>
<path fill="none" stroke="midnightblue" d="M143.952,-48C152.599,-48 161.454,-48 170.155,-48"/>
<polygon fill="midnightblue" stroke="midnightblue" points="170.277,-51.5001 180.277,-48 170.277,-44.5001 170.277,-51.5001"/>
</g>
<!-- Node4 -->
<g id="node4" class="node"><title>Node4</title>
<g id="a_node4"><a xlink:href="../../de/dbb/classSyncObject.html#af1188def459d0ff933d71e37c7afc0c5" target="_top" xlink:title="set Run Number ">
<polygon fill="none" stroke="black" points="184.5,-0.5 184.5,-19.5 307.5,-19.5 307.5,-0.5 184.5,-0.5"/>
<text text-anchor="middle" x="246" y="-7.5" font-family="FreeSans" font-size="10.00">SyncObject::RunNumber</text>
</a>
</g>
</g>
<!-- Node1&#45;&gt;Node4 -->
<g id="edge3" class="edge"><title>Node1&#45;&gt;Node4</title>
<path fill="none" stroke="midnightblue" d="M116.403,-38.411C139.407,-33.3287 167.851,-27.0446 192.134,-21.6797"/>
<polygon fill="midnightblue" stroke="midnightblue" points="192.9,-25.095 201.909,-19.5201 191.39,-18.2598 192.9,-25.095"/>
</g>
</g>
</svg>
