<?xml version="1.0" encoding="UTF-8" standalone="no"?>
<!DOCTYPE svg PUBLIC "-//W3C//DTD SVG 1.1//EN"
 "http://www.w3.org/Graphics/SVG/1.1/DTD/svg11.dtd">
<!-- Generated by graphviz version 2.36.0 (20140111.2315)
 -->
<!-- Title: fun4all/phool/PHObject.h Pages: 1 -->
<svg width="2580pt" height="368pt"
 viewBox="0.00 0.00 2580.00 368.00" xmlns="http://www.w3.org/2000/svg" xmlns:xlink="http://www.w3.org/1999/xlink">
<g id="graph0" class="graph" transform="scale(1 1) rotate(0) translate(4 364)">
<title>fun4all/phool/PHObject.h</title>
<!-- Node1 -->
<g id="node1" class="node"><title>Node1</title>
<polygon fill="#bfbfbf" stroke="black" points="1674.5,-340.5 1674.5,-359.5 1799.5,-359.5 1799.5,-340.5 1674.5,-340.5"/>
<text text-anchor="middle" x="1737" y="-347.5" font-family="FreeSans" font-size="10.00">fun4all/phool/PHObject.h</text>
</g>
<!-- Node2 -->
<g id="node2" class="node"><title>Node2</title>
<g id="a_node2"><a xlink:href="../../d5/d61/EventHeader_8h.html" target="_top" xlink:title="fun4all/ffaobjects\l/EventHeader.h">
<polygon fill="none" stroke="black" points="110,-273 110,-303 200,-303 200,-273 110,-273"/>
<text text-anchor="start" x="118" y="-291" font-family="FreeSans" font-size="10.00">fun4all/ffaobjects</text>
<text text-anchor="middle" x="155" y="-280" font-family="FreeSans" font-size="10.00">/EventHeader.h</text>
</a>
</g>
</g>
<!-- Node1&#45;&gt;Node2 -->
<g id="edge1" class="edge"><title>Node1&#45;&gt;Node2</title>
<path fill="none" stroke="midnightblue" d="M1664.14,-348.217C1454.81,-345.637 833.642,-335.673 319,-304 278.763,-301.524 233.098,-297.225 200.191,-293.862"/>
<polygon fill="midnightblue" stroke="midnightblue" points="1664.35,-351.719 1674.39,-348.341 1664.43,-344.72 1664.35,-351.719"/>
</g>
<!-- Node6 -->
<g id="node6" class="node"><title>Node6</title>
<g id="a_node6"><a xlink:href="../../da/dd0/FlagSave_8h.html" target="_top" xlink:title="fun4all/ffaobjects\l/FlagSave.h">
<polygon fill="none" stroke="black" points="328,-273 328,-303 418,-303 418,-273 328,-273"/>
<text text-anchor="start" x="336" y="-291" font-family="FreeSans" font-size="10.00">fun4all/ffaobjects</text>
<text text-anchor="middle" x="373" y="-280" font-family="FreeSans" font-size="10.00">/FlagSave.h</text>
</a>
</g>
</g>
<!-- Node1&#45;&gt;Node6 -->
<g id="edge5" class="edge"><title>Node1&#45;&gt;Node6</title>
<path fill="none" stroke="midnightblue" d="M1664.34,-346.277C1490.03,-339.681 1034.35,-322.053 654,-304 570.797,-300.051 473.778,-294.708 418.253,-291.58"/>
<polygon fill="midnightblue" stroke="midnightblue" points="1664.3,-349.778 1674.42,-346.658 1664.56,-342.783 1664.3,-349.778"/>
</g>
<!-- Node10 -->
<g id="node10" class="node"><title>Node10</title>
<g id="a_node10"><a xlink:href="../../da/d61/RunHeader_8h.html" target="_top" xlink:title="fun4all/ffaobjects\l/RunHeader.h">
<polygon fill="none" stroke="black" points="663,-273 663,-303 753,-303 753,-273 663,-273"/>
<text text-anchor="start" x="671" y="-291" font-family="FreeSans" font-size="10.00">fun4all/ffaobjects</text>
<text text-anchor="middle" x="708" y="-280" font-family="FreeSans" font-size="10.00">/RunHeader.h</text>
</a>
</g>
</g>
<!-- Node1&#45;&gt;Node10 -->
<g id="edge9" class="edge"><title>Node1&#45;&gt;Node10</title>
<path fill="none" stroke="midnightblue" d="M1664.11,-344.75C1464.8,-333.128 914.906,-301.064 753.253,-291.639"/>
<polygon fill="midnightblue" stroke="midnightblue" points="1663.99,-348.249 1674.18,-345.337 1664.4,-341.261 1663.99,-348.249"/>
</g>
<!-- Node17 -->
<g id="node17" class="node"><title>Node17</title>
<g id="a_node17"><a xlink:href="../../da/de1/ffaobjects_2SyncObject_8h.html" target="_top" xlink:title="fun4all/ffaobjects\l/SyncObject.h">
<polygon fill="none" stroke="black" points="988,-273 988,-303 1078,-303 1078,-273 988,-273"/>
<text text-anchor="start" x="996" y="-291" font-family="FreeSans" font-size="10.00">fun4all/ffaobjects</text>
<text text-anchor="middle" x="1033" y="-280" font-family="FreeSans" font-size="10.00">/SyncObject.h</text>
</a>
</g>
</g>
<!-- Node1&#45;&gt;Node17 -->
<g id="edge16" class="edge"><title>Node1&#45;&gt;Node17</title>
<path fill="none" stroke="midnightblue" d="M1664.07,-342.784C1518.8,-330.403 1197.1,-302.986 1078.26,-292.858"/>
<polygon fill="midnightblue" stroke="midnightblue" points="1663.95,-346.287 1674.22,-343.649 1664.55,-339.312 1663.95,-346.287"/>
</g>
<!-- Node23 -->
<g id="node23" class="node"><title>Node23</title>
<g id="a_node23"><a xlink:href="../../d8/d7a/Fun4AllServer_8cc.html" target="_top" xlink:title="fun4all/fun4all/Fun4AllServer.cc">
<polygon fill="none" stroke="black" points="1204,-210.5 1204,-229.5 1358,-229.5 1358,-210.5 1204,-210.5"/>
<text text-anchor="middle" x="1281" y="-217.5" font-family="FreeSans" font-size="10.00">fun4all/fun4all/Fun4AllServer.cc</text>
</a>
</g>
</g>
<!-- Node1&#45;&gt;Node23 -->
<g id="edge25" class="edge"><title>Node1&#45;&gt;Node23</title>
<path fill="none" stroke="midnightblue" d="M1664.09,-345.391C1572.35,-339.938 1420.68,-327.629 1370,-304 1332.47,-286.502 1300.24,-247.145 1287.19,-229.657"/>
<polygon fill="midnightblue" stroke="midnightblue" points="1663.95,-348.889 1674.14,-345.976 1664.36,-341.901 1663.95,-348.889"/>
</g>
<!-- Node24 -->
<g id="node24" class="node"><title>Node24</title>
<g id="a_node24"><a xlink:href="../../d0/dd4/fun4all_2SyncObject_8h.html" target="_top" xlink:title="fun4all/fun4all/SyncObject.h">
<polygon fill="none" stroke="black" points="1551.5,-278.5 1551.5,-297.5 1688.5,-297.5 1688.5,-278.5 1551.5,-278.5"/>
<text text-anchor="middle" x="1620" y="-285.5" font-family="FreeSans" font-size="10.00">fun4all/fun4all/SyncObject.h</text>
</a>
</g>
</g>
<!-- Node1&#45;&gt;Node24 -->
<g id="edge26" class="edge"><title>Node1&#45;&gt;Node24</title>
<path fill="none" stroke="midnightblue" d="M1711.17,-335.756C1688.5,-324.127 1656.18,-307.554 1636.73,-297.581"/>
<polygon fill="midnightblue" stroke="midnightblue" points="1709.74,-338.955 1720.24,-340.403 1712.94,-332.726 1709.74,-338.955"/>
</g>
<!-- Node26 -->
<g id="node26" class="node"><title>Node26</title>
<g id="a_node26"><a xlink:href="../../d2/d2c/SHit_8h.html" target="_top" xlink:title="fun4all/interfaces\l/SHit.h">
<polygon fill="none" stroke="black" points="1934.5,-273 1934.5,-303 2025.5,-303 2025.5,-273 1934.5,-273"/>
<text text-anchor="start" x="1942.5" y="-291" font-family="FreeSans" font-size="10.00">fun4all/interfaces</text>
<text text-anchor="middle" x="1980" y="-280" font-family="FreeSans" font-size="10.00">/SHit.h</text>
</a>
</g>
</g>
<!-- Node1&#45;&gt;Node26 -->
<g id="edge28" class="edge"><title>Node1&#45;&gt;Node26</title>
<path fill="none" stroke="midnightblue" d="M1781.27,-338.069C1824.67,-327.354 1890.51,-311.095 1934.37,-300.266"/>
<polygon fill="midnightblue" stroke="midnightblue" points="1780.43,-334.672 1771.56,-340.467 1782.11,-341.468 1780.43,-334.672"/>
</g>
<!-- Node27 -->
<g id="node27" class="node"><title>Node27</title>
<g id="a_node27"><a xlink:href="../../d1/de9/SHitMap_8h.html" target="_top" xlink:title="fun4all/interfaces\l/SHitMap.h">
<polygon fill="none" stroke="black" points="1822.5,-205 1822.5,-235 1913.5,-235 1913.5,-205 1822.5,-205"/>
<text text-anchor="start" x="1830.5" y="-223" font-family="FreeSans" font-size="10.00">fun4all/interfaces</text>
<text text-anchor="middle" x="1868" y="-212" font-family="FreeSans" font-size="10.00">/SHitMap.h</text>
</a>
</g>
</g>
<!-- Node1&#45;&gt;Node27 -->
<g id="edge51" class="edge"><title>Node1&#45;&gt;Node27</title>
<path fill="none" stroke="midnightblue" d="M1763.14,-335.626C1777.33,-327.611 1794.66,-316.55 1808,-304 1830.27,-283.045 1849.7,-252.781 1860.05,-235.176"/>
<polygon fill="midnightblue" stroke="midnightblue" points="1761.43,-332.571 1754.33,-340.438 1764.79,-338.713 1761.43,-332.571"/>
</g>
<!-- Node28 -->
<g id="node28" class="node"><title>Node28</title>
<g id="a_node28"><a xlink:href="../../db/d3d/SEvent_8h.html" target="_top" xlink:title="fun4all/interfaces\l/SEvent.h">
<polygon fill="none" stroke="black" points="1638.5,-137 1638.5,-167 1729.5,-167 1729.5,-137 1638.5,-137"/>
<text text-anchor="start" x="1646.5" y="-155" font-family="FreeSans" font-size="10.00">fun4all/interfaces</text>
<text text-anchor="middle" x="1684" y="-144" font-family="FreeSans" font-size="10.00">/SEvent.h</text>
</a>
</g>
</g>
<!-- Node1&#45;&gt;Node28 -->
<g id="edge52" class="edge"><title>Node1&#45;&gt;Node28</title>
<path fill="none" stroke="midnightblue" d="M1732.11,-330.705C1724.75,-303.196 1710.38,-249.546 1698,-204 1694.63,-191.595 1690.76,-177.506 1687.94,-167.284"/>
<polygon fill="midnightblue" stroke="midnightblue" points="1728.77,-331.74 1734.73,-340.497 1735.53,-329.933 1728.77,-331.74"/>
</g>
<!-- Node30 -->
<g id="node30" class="node"><title>Node30</title>
<g id="a_node30"><a xlink:href="../../de/d46/SEvent__v1_8h.html" target="_top" xlink:title="fun4all/interfaces\l/SEvent_v1.h">
<polygon fill="none" stroke="black" points="1751.5,-69 1751.5,-99 1842.5,-99 1842.5,-69 1751.5,-69"/>
<text text-anchor="start" x="1759.5" y="-87" font-family="FreeSans" font-size="10.00">fun4all/interfaces</text>
<text text-anchor="middle" x="1797" y="-76" font-family="FreeSans" font-size="10.00">/SEvent_v1.h</text>
</a>
</g>
</g>
<!-- Node1&#45;&gt;Node30 -->
<g id="edge53" class="edge"><title>Node1&#45;&gt;Node30</title>
<path fill="none" stroke="midnightblue" d="M1739.95,-330.501C1746.05,-293.323 1761.07,-207.026 1780,-136 1783.37,-123.374 1788.13,-109.305 1791.76,-99.1476"/>
<polygon fill="midnightblue" stroke="midnightblue" points="1736.49,-329.96 1738.35,-340.39 1743.4,-331.078 1736.49,-329.96"/>
</g>
<!-- Node34 -->
<g id="node34" class="node"><title>Node34</title>
<g id="a_node34"><a xlink:href="../../d3/d56/SHitMap__v1_8h.html" target="_top" xlink:title="fun4all/interfaces\l/SHitMap_v1.h">
<polygon fill="none" stroke="black" points="1789.5,-137 1789.5,-167 1880.5,-167 1880.5,-137 1789.5,-137"/>
<text text-anchor="start" x="1797.5" y="-155" font-family="FreeSans" font-size="10.00">fun4all/interfaces</text>
<text text-anchor="middle" x="1835" y="-144" font-family="FreeSans" font-size="10.00">/SHitMap_v1.h</text>
</a>
</g>
</g>
<!-- Node1&#45;&gt;Node34 -->
<g id="edge55" class="edge"><title>Node1&#45;&gt;Node34</title>
<path fill="none" stroke="midnightblue" d="M1750.56,-332.415C1756.93,-324.173 1764.35,-313.882 1770,-304 1794.01,-262.002 1793.86,-248.433 1813,-204 1818.34,-191.601 1824.42,-177.511 1828.83,-167.287"/>
<polygon fill="midnightblue" stroke="midnightblue" points="1747.67,-330.43 1744.2,-340.439 1753.15,-334.782 1747.67,-330.43"/>
</g>
<!-- Node38 -->
<g id="node38" class="node"><title>Node38</title>
<g id="a_node38"><a xlink:href="../../d0/d11/SHit__v1_8h.html" target="_top" xlink:title="fun4all/interfaces\l/SHit_v1.h">
<polygon fill="none" stroke="black" points="2270.5,-205 2270.5,-235 2361.5,-235 2361.5,-205 2270.5,-205"/>
<text text-anchor="start" x="2278.5" y="-223" font-family="FreeSans" font-size="10.00">fun4all/interfaces</text>
<text text-anchor="middle" x="2316" y="-212" font-family="FreeSans" font-size="10.00">/SHit_v1.h</text>
</a>
</g>
</g>
<!-- Node1&#45;&gt;Node38 -->
<g id="edge54" class="edge"><title>Node1&#45;&gt;Node38</title>
<path fill="none" stroke="midnightblue" d="M1809.78,-348.651C1871.83,-345.903 1962.13,-335.989 2034,-304 2054.48,-294.883 2052.72,-281.564 2073,-272 2147.97,-236.642 2175.1,-254.058 2256,-236 2260.61,-234.971 2265.41,-233.852 2270.19,-232.706"/>
<polygon fill="midnightblue" stroke="midnightblue" points="1809.54,-345.158 1799.69,-349.046 1809.82,-352.152 1809.54,-345.158"/>
</g>
<!-- Node40 -->
<g id="node40" class="node"><title>Node40</title>
<g id="a_node40"><a xlink:href="../../d7/d32/PHNodeIOManager_8cc.html" target="_top" xlink:title="fun4all/phool/PHNodeIOManager.cc">
<polygon fill="none" stroke="black" points="2082.5,-278.5 2082.5,-297.5 2255.5,-297.5 2255.5,-278.5 2082.5,-278.5"/>
<text text-anchor="middle" x="2169" y="-285.5" font-family="FreeSans" font-size="10.00">fun4all/phool/PHNodeIOManager.cc</text>
</a>
</g>
</g>
<!-- Node1&#45;&gt;Node40 -->
<g id="edge56" class="edge"><title>Node1&#45;&gt;Node40</title>
<path fill="none" stroke="midnightblue" d="M1809.61,-339.39C1876.7,-330.449 1979.12,-316.641 2068,-304 2082.39,-301.953 2097.93,-299.679 2112.39,-297.532"/>
<polygon fill="midnightblue" stroke="midnightblue" points="1809.01,-335.938 1799.56,-340.728 1809.94,-342.877 1809.01,-335.938"/>
</g>
<!-- Node41 -->
<g id="node41" class="node"><title>Node41</title>
<g id="a_node41"><a xlink:href="../../dc/d01/PHNodeReset_8cc.html" target="_top" xlink:title="fun4all/phool/PHNodeReset.cc">
<polygon fill="none" stroke="black" points="2274,-278.5 2274,-297.5 2424,-297.5 2424,-278.5 2274,-278.5"/>
<text text-anchor="middle" x="2349" y="-285.5" font-family="FreeSans" font-size="10.00">fun4all/phool/PHNodeReset.cc</text>
</a>
</g>
</g>
<!-- Node1&#45;&gt;Node41 -->
<g id="edge57" class="edge"><title>Node1&#45;&gt;Node41</title>
<path fill="none" stroke="midnightblue" d="M1809.84,-344.848C1911.73,-338.57 2102.47,-325.106 2264,-304 2277.37,-302.253 2291.85,-299.88 2305,-297.538"/>
<polygon fill="midnightblue" stroke="midnightblue" points="1809.43,-341.367 1799.66,-345.47 1809.86,-348.354 1809.43,-341.367"/>
</g>
<!-- Node42 -->
<g id="node42" class="node"><title>Node42</title>
<g id="a_node42"><a xlink:href="../../d4/d2b/PHObject_8cc.html" target="_top" xlink:title="fun4all/phool/PHObject.cc">
<polygon fill="none" stroke="black" points="2442,-278.5 2442,-297.5 2572,-297.5 2572,-278.5 2442,-278.5"/>
<text text-anchor="middle" x="2507" y="-285.5" font-family="FreeSans" font-size="10.00">fun4all/phool/PHObject.cc</text>
</a>
</g>
</g>
<!-- Node1&#45;&gt;Node42 -->
<g id="edge58" class="edge"><title>Node1&#45;&gt;Node42</title>
<path fill="none" stroke="midnightblue" d="M1809.93,-347.459C1936.86,-344.069 2206.38,-333.732 2432,-304 2444.24,-302.387 2457.49,-299.966 2469.39,-297.537"/>
<polygon fill="midnightblue" stroke="midnightblue" points="1809.48,-343.97 1799.57,-347.729 1809.66,-350.968 1809.48,-343.97"/>
</g>
<!-- Node43 -->
<g id="node43" class="node"><title>Node43</title>
<g id="a_node43"><a xlink:href="../../da/d32/PHTimeStamp_8h.html" target="_top" xlink:title="fun4all/phool/PHTimeStamp.h">
<polygon fill="none" stroke="black" points="1379,-278.5 1379,-297.5 1525,-297.5 1525,-278.5 1379,-278.5"/>
<text text-anchor="middle" x="1452" y="-285.5" font-family="FreeSans" font-size="10.00">fun4all/phool/PHTimeStamp.h</text>
</a>
</g>
</g>
<!-- Node1&#45;&gt;Node43 -->
<g id="edge59" class="edge"><title>Node1&#45;&gt;Node43</title>
<path fill="none" stroke="midnightblue" d="M1686.52,-338.373C1631.15,-326.717 1543.39,-308.241 1492.39,-297.503"/>
<polygon fill="midnightblue" stroke="midnightblue" points="1685.96,-341.832 1696.47,-340.467 1687.4,-334.982 1685.96,-341.832"/>
</g>
<!-- Node3 -->
<g id="node3" class="node"><title>Node3</title>
<g id="a_node3"><a xlink:href="../../d9/d79/EventHeader_8cc.html" target="_top" xlink:title="fun4all/ffaobjects\l/EventHeader.cc">
<polygon fill="none" stroke="black" points="0,-205 0,-235 90,-235 90,-205 0,-205"/>
<text text-anchor="start" x="8" y="-223" font-family="FreeSans" font-size="10.00">fun4all/ffaobjects</text>
<text text-anchor="middle" x="45" y="-212" font-family="FreeSans" font-size="10.00">/EventHeader.cc</text>
</a>
</g>
</g>
<!-- Node2&#45;&gt;Node3 -->
<g id="edge2" class="edge"><title>Node2&#45;&gt;Node3</title>
<path fill="none" stroke="midnightblue" d="M122.71,-267.626C105.361,-257.217 84.3549,-244.613 68.5587,-235.135"/>
<polygon fill="midnightblue" stroke="midnightblue" points="121.027,-270.698 131.402,-272.841 124.628,-264.695 121.027,-270.698"/>
</g>
<!-- Node4 -->
<g id="node4" class="node"><title>Node4</title>
<g id="a_node4"><a xlink:href="../../d0/db4/EventHeaderv1_8h.html" target="_top" xlink:title="fun4all/ffaobjects\l/EventHeaderv1.h">
<polygon fill="none" stroke="black" points="108,-205 108,-235 202,-235 202,-205 108,-205"/>
<text text-anchor="start" x="116" y="-223" font-family="FreeSans" font-size="10.00">fun4all/ffaobjects</text>
<text text-anchor="middle" x="155" y="-212" font-family="FreeSans" font-size="10.00">/EventHeaderv1.h</text>
</a>
</g>
</g>
<!-- Node2&#45;&gt;Node4 -->
<g id="edge3" class="edge"><title>Node2&#45;&gt;Node4</title>
<path fill="none" stroke="midnightblue" d="M155,-262.532C155,-253.361 155,-243.245 155,-235.293"/>
<polygon fill="midnightblue" stroke="midnightblue" points="151.5,-262.679 155,-272.679 158.5,-262.679 151.5,-262.679"/>
</g>
<!-- Node5 -->
<g id="node5" class="node"><title>Node5</title>
<g id="a_node5"><a xlink:href="../../da/d01/EventHeaderv1_8cc.html" target="_top" xlink:title="fun4all/ffaobjects\l/EventHeaderv1.cc">
<polygon fill="none" stroke="black" points="105.5,-137 105.5,-167 204.5,-167 204.5,-137 105.5,-137"/>
<text text-anchor="start" x="113.5" y="-155" font-family="FreeSans" font-size="10.00">fun4all/ffaobjects</text>
<text text-anchor="middle" x="155" y="-144" font-family="FreeSans" font-size="10.00">/EventHeaderv1.cc</text>
</a>
</g>
</g>
<!-- Node4&#45;&gt;Node5 -->
<g id="edge4" class="edge"><title>Node4&#45;&gt;Node5</title>
<path fill="none" stroke="midnightblue" d="M155,-194.532C155,-185.361 155,-175.245 155,-167.293"/>
<polygon fill="midnightblue" stroke="midnightblue" points="151.5,-194.679 155,-204.679 158.5,-194.679 151.5,-194.679"/>
</g>
<!-- Node7 -->
<g id="node7" class="node"><title>Node7</title>
<g id="a_node7"><a xlink:href="../../da/d62/FlagSave_8cc.html" target="_top" xlink:title="fun4all/ffaobjects\l/FlagSave.cc">
<polygon fill="none" stroke="black" points="220,-205 220,-235 310,-235 310,-205 220,-205"/>
<text text-anchor="start" x="228" y="-223" font-family="FreeSans" font-size="10.00">fun4all/ffaobjects</text>
<text text-anchor="middle" x="265" y="-212" font-family="FreeSans" font-size="10.00">/FlagSave.cc</text>
</a>
</g>
</g>
<!-- Node6&#45;&gt;Node7 -->
<g id="edge6" class="edge"><title>Node6&#45;&gt;Node7</title>
<path fill="none" stroke="midnightblue" d="M341.297,-267.626C324.264,-257.217 303.639,-244.613 288.13,-235.135"/>
<polygon fill="midnightblue" stroke="midnightblue" points="339.473,-270.613 349.831,-272.841 343.124,-264.64 339.473,-270.613"/>
</g>
<!-- Node8 -->
<g id="node8" class="node"><title>Node8</title>
<g id="a_node8"><a xlink:href="../../dd/d5e/FlagSavev1_8h.html" target="_top" xlink:title="fun4all/ffaobjects\l/FlagSavev1.h">
<polygon fill="none" stroke="black" points="328,-205 328,-235 418,-235 418,-205 328,-205"/>
<text text-anchor="start" x="336" y="-223" font-family="FreeSans" font-size="10.00">fun4all/ffaobjects</text>
<text text-anchor="middle" x="373" y="-212" font-family="FreeSans" font-size="10.00">/FlagSavev1.h</text>
</a>
</g>
</g>
<!-- Node6&#45;&gt;Node8 -->
<g id="edge7" class="edge"><title>Node6&#45;&gt;Node8</title>
<path fill="none" stroke="midnightblue" d="M373,-262.532C373,-253.361 373,-243.245 373,-235.293"/>
<polygon fill="midnightblue" stroke="midnightblue" points="369.5,-262.679 373,-272.679 376.5,-262.679 369.5,-262.679"/>
</g>
<!-- Node9 -->
<g id="node9" class="node"><title>Node9</title>
<g id="a_node9"><a xlink:href="../../d1/d32/FlagSavev1_8cc.html" target="_top" xlink:title="fun4all/ffaobjects\l/FlagSavev1.cc">
<polygon fill="none" stroke="black" points="328,-137 328,-167 418,-167 418,-137 328,-137"/>
<text text-anchor="start" x="336" y="-155" font-family="FreeSans" font-size="10.00">fun4all/ffaobjects</text>
<text text-anchor="middle" x="373" y="-144" font-family="FreeSans" font-size="10.00">/FlagSavev1.cc</text>
</a>
</g>
</g>
<!-- Node8&#45;&gt;Node9 -->
<g id="edge8" class="edge"><title>Node8&#45;&gt;Node9</title>
<path fill="none" stroke="midnightblue" d="M373,-194.532C373,-185.361 373,-175.245 373,-167.293"/>
<polygon fill="midnightblue" stroke="midnightblue" points="369.5,-194.679 373,-204.679 376.5,-194.679 369.5,-194.679"/>
</g>
<!-- Node11 -->
<g id="node11" class="node"><title>Node11</title>
<g id="a_node11"><a xlink:href="../../d8/d8a/RunHeader_8cc.html" target="_top" xlink:title="fun4all/ffaobjects\l/RunHeader.cc">
<polygon fill="none" stroke="black" points="436,-205 436,-235 526,-235 526,-205 436,-205"/>
<text text-anchor="start" x="444" y="-223" font-family="FreeSans" font-size="10.00">fun4all/ffaobjects</text>
<text text-anchor="middle" x="481" y="-212" font-family="FreeSans" font-size="10.00">/RunHeader.cc</text>
</a>
</g>
</g>
<!-- Node10&#45;&gt;Node11 -->
<g id="edge10" class="edge"><title>Node10&#45;&gt;Node11</title>
<path fill="none" stroke="midnightblue" d="M653.269,-271.087C614.313,-259.761 562.603,-244.726 526.034,-234.094"/>
<polygon fill="midnightblue" stroke="midnightblue" points="652.301,-274.45 662.881,-273.882 654.256,-267.729 652.301,-274.45"/>
</g>
<!-- Node12 -->
<g id="node12" class="node"><title>Node12</title>
<g id="a_node12"><a xlink:href="../../db/dca/RunHeaderv1_8h.html" target="_top" xlink:title="fun4all/ffaobjects\l/RunHeaderv1.h">
<polygon fill="none" stroke="black" points="544,-205 544,-235 634,-235 634,-205 544,-205"/>
<text text-anchor="start" x="552" y="-223" font-family="FreeSans" font-size="10.00">fun4all/ffaobjects</text>
<text text-anchor="middle" x="589" y="-212" font-family="FreeSans" font-size="10.00">/RunHeaderv1.h</text>
</a>
</g>
</g>
<!-- Node10&#45;&gt;Node12 -->
<g id="edge11" class="edge"><title>Node10&#45;&gt;Node12</title>
<path fill="none" stroke="midnightblue" d="M673.584,-267.912C654.717,-257.448 631.732,-244.7 614.486,-235.135"/>
<polygon fill="midnightblue" stroke="midnightblue" points="672.029,-271.052 682.472,-272.841 675.424,-264.93 672.029,-271.052"/>
</g>
<!-- Node14 -->
<g id="node14" class="node"><title>Node14</title>
<g id="a_node14"><a xlink:href="../../d3/d53/Fun4AllDstInputManager_8cc.html" target="_top" xlink:title="fun4all/fun4all/Fun4AllDst\lInputManager.cc">
<polygon fill="none" stroke="black" points="690,-205 690,-235 818,-235 818,-205 690,-205"/>
<text text-anchor="start" x="698" y="-223" font-family="FreeSans" font-size="10.00">fun4all/fun4all/Fun4AllDst</text>
<text text-anchor="middle" x="754" y="-212" font-family="FreeSans" font-size="10.00">InputManager.cc</text>
</a>
</g>
</g>
<!-- Node10&#45;&gt;Node14 -->
<g id="edge13" class="edge"><title>Node10&#45;&gt;Node14</title>
<path fill="none" stroke="midnightblue" d="M723.812,-264.314C730.52,-254.689 738.135,-243.763 744.038,-235.293"/>
<polygon fill="midnightblue" stroke="midnightblue" points="720.828,-262.474 717.981,-272.679 726.571,-266.476 720.828,-262.474"/>
</g>
<!-- Node15 -->
<g id="node15" class="node"><title>Node15</title>
<g id="a_node15"><a xlink:href="../../da/d7b/Fun4AllPrdfInputManager_8cc.html" target="_top" xlink:title="fun4all/fun4all/Fun4AllPrdf\lInputManager.cc">
<polygon fill="none" stroke="black" points="656.5,-69 656.5,-99 787.5,-99 787.5,-69 656.5,-69"/>
<text text-anchor="start" x="664.5" y="-87" font-family="FreeSans" font-size="10.00">fun4all/fun4all/Fun4AllPrdf</text>
<text text-anchor="middle" x="722" y="-76" font-family="FreeSans" font-size="10.00">InputManager.cc</text>
</a>
</g>
</g>
<!-- Node10&#45;&gt;Node15 -->
<g id="edge14" class="edge"><title>Node10&#45;&gt;Node15</title>
<path fill="none" stroke="midnightblue" d="M692.661,-263.796C687.953,-255.397 683.386,-245.608 681,-236 668.428,-185.382 697.776,-125.754 713.236,-99.1029"/>
<polygon fill="midnightblue" stroke="midnightblue" points="689.793,-265.818 697.929,-272.604 695.8,-262.225 689.793,-265.818"/>
</g>
<!-- Node16 -->
<g id="node16" class="node"><title>Node16</title>
<g id="a_node16"><a xlink:href="../../df/d03/Fun4AllSyncManager_8cc.html" target="_top" xlink:title="fun4all/fun4all/Fun4AllSync\lManager.cc">
<polygon fill="none" stroke="black" points="836,-205 836,-235 970,-235 970,-205 836,-205"/>
<text text-anchor="start" x="844" y="-223" font-family="FreeSans" font-size="10.00">fun4all/fun4all/Fun4AllSync</text>
<text text-anchor="middle" x="903" y="-212" font-family="FreeSans" font-size="10.00">Manager.cc</text>
</a>
</g>
</g>
<!-- Node10&#45;&gt;Node16 -->
<g id="edge15" class="edge"><title>Node10&#45;&gt;Node16</title>
<path fill="none" stroke="midnightblue" d="M759.434,-269.592C791.323,-258.798 831.749,-245.116 861.572,-235.022"/>
<polygon fill="midnightblue" stroke="midnightblue" points="758.182,-266.32 749.832,-272.841 760.427,-272.951 758.182,-266.32"/>
</g>
<!-- Node13 -->
<g id="node13" class="node"><title>Node13</title>
<g id="a_node13"><a xlink:href="../../d2/d6e/RunHeaderv1_8cc.html" target="_top" xlink:title="fun4all/ffaobjects\l/RunHeaderv1.cc">
<polygon fill="none" stroke="black" points="542,-137 542,-167 634,-167 634,-137 542,-137"/>
<text text-anchor="start" x="550" y="-155" font-family="FreeSans" font-size="10.00">fun4all/ffaobjects</text>
<text text-anchor="middle" x="588" y="-144" font-family="FreeSans" font-size="10.00">/RunHeaderv1.cc</text>
</a>
</g>
</g>
<!-- Node12&#45;&gt;Node13 -->
<g id="edge12" class="edge"><title>Node12&#45;&gt;Node13</title>
<path fill="none" stroke="midnightblue" d="M588.629,-194.532C588.49,-185.361 588.337,-175.245 588.217,-167.293"/>
<polygon fill="midnightblue" stroke="midnightblue" points="585.132,-194.733 588.783,-204.679 592.131,-194.627 585.132,-194.733"/>
</g>
<!-- Node17&#45;&gt;Node14 -->
<g id="edge23" class="edge"><title>Node17&#45;&gt;Node14</title>
<path fill="none" stroke="midnightblue" d="M978.068,-274.005C930.603,-262.777 862.158,-246.586 813.426,-235.058"/>
<polygon fill="midnightblue" stroke="midnightblue" points="977.327,-277.426 987.864,-276.323 978.938,-270.614 977.327,-277.426"/>
</g>
<!-- Node17&#45;&gt;Node16 -->
<g id="edge24" class="edge"><title>Node17&#45;&gt;Node16</title>
<path fill="none" stroke="midnightblue" d="M995.963,-268.197C975.249,-257.68 949.853,-244.787 930.842,-235.135"/>
<polygon fill="midnightblue" stroke="midnightblue" points="994.611,-271.435 1005.11,-272.841 997.78,-265.194 994.611,-271.435"/>
</g>
<!-- Node18 -->
<g id="node18" class="node"><title>Node18</title>
<g id="a_node18"><a xlink:href="../../d0/d24/ffaobjects_2SyncObject_8cc.html" target="_top" xlink:title="fun4all/ffaobjects\l/SyncObject.cc">
<polygon fill="none" stroke="black" points="988,-205 988,-235 1078,-235 1078,-205 988,-205"/>
<text text-anchor="start" x="996" y="-223" font-family="FreeSans" font-size="10.00">fun4all/ffaobjects</text>
<text text-anchor="middle" x="1033" y="-212" font-family="FreeSans" font-size="10.00">/SyncObject.cc</text>
</a>
</g>
</g>
<!-- Node17&#45;&gt;Node18 -->
<g id="edge17" class="edge"><title>Node17&#45;&gt;Node18</title>
<path fill="none" stroke="midnightblue" d="M1033,-262.532C1033,-253.361 1033,-243.245 1033,-235.293"/>
<polygon fill="midnightblue" stroke="midnightblue" points="1029.5,-262.679 1033,-272.679 1036.5,-262.679 1029.5,-262.679"/>
</g>
<!-- Node19 -->
<g id="node19" class="node"><title>Node19</title>
<g id="a_node19"><a xlink:href="../../d6/df7/SyncObjectv1_8h.html" target="_top" xlink:title="fun4all/ffaobjects\l/SyncObjectv1.h">
<polygon fill="none" stroke="black" points="1096,-205 1096,-235 1186,-235 1186,-205 1096,-205"/>
<text text-anchor="start" x="1104" y="-223" font-family="FreeSans" font-size="10.00">fun4all/ffaobjects</text>
<text text-anchor="middle" x="1141" y="-212" font-family="FreeSans" font-size="10.00">/SyncObjectv1.h</text>
</a>
</g>
</g>
<!-- Node17&#45;&gt;Node19 -->
<g id="edge18" class="edge"><title>Node17&#45;&gt;Node19</title>
<path fill="none" stroke="midnightblue" d="M1064.7,-267.626C1081.74,-257.217 1102.36,-244.613 1117.87,-235.135"/>
<polygon fill="midnightblue" stroke="midnightblue" points="1062.88,-264.64 1056.17,-272.841 1066.53,-270.613 1062.88,-264.64"/>
</g>
<!-- Node20 -->
<g id="node20" class="node"><title>Node20</title>
<g id="a_node20"><a xlink:href="../../dc/df5/SyncObjectv1_8cc.html" target="_top" xlink:title="fun4all/ffaobjects\l/SyncObjectv1.cc">
<polygon fill="none" stroke="black" points="1094.5,-137 1094.5,-167 1187.5,-167 1187.5,-137 1094.5,-137"/>
<text text-anchor="start" x="1102.5" y="-155" font-family="FreeSans" font-size="10.00">fun4all/ffaobjects</text>
<text text-anchor="middle" x="1141" y="-144" font-family="FreeSans" font-size="10.00">/SyncObjectv1.cc</text>
</a>
</g>
</g>
<!-- Node19&#45;&gt;Node20 -->
<g id="edge19" class="edge"><title>Node19&#45;&gt;Node20</title>
<path fill="none" stroke="midnightblue" d="M1141,-194.532C1141,-185.361 1141,-175.245 1141,-167.293"/>
<polygon fill="midnightblue" stroke="midnightblue" points="1137.5,-194.679 1141,-204.679 1144.5,-194.679 1137.5,-194.679"/>
</g>
<!-- Node21 -->
<g id="node21" class="node"><title>Node21</title>
<g id="a_node21"><a xlink:href="../../dc/d4b/SyncObjectv2_8h.html" target="_top" xlink:title="fun4all/ffaobjects\l/SyncObjectv2.h">
<polygon fill="none" stroke="black" points="926,-137 926,-167 1016,-167 1016,-137 926,-137"/>
<text text-anchor="start" x="934" y="-155" font-family="FreeSans" font-size="10.00">fun4all/ffaobjects</text>
<text text-anchor="middle" x="971" y="-144" font-family="FreeSans" font-size="10.00">/SyncObjectv2.h</text>
</a>
</g>
</g>
<!-- Node19&#45;&gt;Node21 -->
<g id="edge20" class="edge"><title>Node19&#45;&gt;Node21</title>
<path fill="none" stroke="midnightblue" d="M1095.08,-201.171C1067.45,-190.445 1032.78,-176.985 1007.12,-167.022"/>
<polygon fill="midnightblue" stroke="midnightblue" points="1093.94,-204.485 1104.53,-204.841 1096.48,-197.959 1093.94,-204.485"/>
</g>
<!-- Node21&#45;&gt;Node15 -->
<g id="edge22" class="edge"><title>Node21&#45;&gt;Node15</title>
<path fill="none" stroke="midnightblue" d="M916.12,-136.453C874.104,-125.317 816.497,-110.047 774.965,-99.0389"/>
<polygon fill="midnightblue" stroke="midnightblue" points="915.345,-139.869 925.908,-139.048 917.139,-133.103 915.345,-139.869"/>
</g>
<!-- Node22 -->
<g id="node22" class="node"><title>Node22</title>
<g id="a_node22"><a xlink:href="../../d5/dfb/SyncObjectv2_8cc.html" target="_top" xlink:title="fun4all/ffaobjects\l/SyncObjectv2.cc">
<polygon fill="none" stroke="black" points="924.5,-69 924.5,-99 1017.5,-99 1017.5,-69 924.5,-69"/>
<text text-anchor="start" x="932.5" y="-87" font-family="FreeSans" font-size="10.00">fun4all/ffaobjects</text>
<text text-anchor="middle" x="971" y="-76" font-family="FreeSans" font-size="10.00">/SyncObjectv2.cc</text>
</a>
</g>
</g>
<!-- Node21&#45;&gt;Node22 -->
<g id="edge21" class="edge"><title>Node21&#45;&gt;Node22</title>
<path fill="none" stroke="midnightblue" d="M971,-126.532C971,-117.361 971,-107.245 971,-99.2931"/>
<polygon fill="midnightblue" stroke="midnightblue" points="967.5,-126.679 971,-136.679 974.5,-126.679 967.5,-126.679"/>
</g>
<!-- Node25 -->
<g id="node25" class="node"><title>Node25</title>
<g id="a_node25"><a xlink:href="../../d1/df7/fun4all_2SyncObject_8cc.html" target="_top" xlink:title="fun4all/fun4all/SyncObject.cc">
<polygon fill="none" stroke="black" points="1546.5,-210.5 1546.5,-229.5 1689.5,-229.5 1689.5,-210.5 1546.5,-210.5"/>
<text text-anchor="middle" x="1618" y="-217.5" font-family="FreeSans" font-size="10.00">fun4all/fun4all/SyncObject.cc</text>
</a>
</g>
</g>
<!-- Node24&#45;&gt;Node25 -->
<g id="edge27" class="edge"><title>Node24&#45;&gt;Node25</title>
<path fill="none" stroke="midnightblue" d="M1619.43,-268.041C1619.04,-255.472 1618.56,-239.563 1618.27,-229.841"/>
<polygon fill="midnightblue" stroke="midnightblue" points="1615.94,-268.482 1619.74,-278.372 1622.93,-268.27 1615.94,-268.482"/>
</g>
<!-- Node26&#45;&gt;Node27 -->
<g id="edge29" class="edge"><title>Node26&#45;&gt;Node27</title>
<path fill="none" stroke="midnightblue" d="M1947.12,-267.626C1929.46,-257.217 1908.07,-244.613 1891.99,-235.135"/>
<polygon fill="midnightblue" stroke="midnightblue" points="1945.58,-270.78 1955.97,-272.841 1949.13,-264.749 1945.58,-270.78"/>
</g>
<!-- Node31 -->
<g id="node31" class="node"><title>Node31</title>
<g id="a_node31"><a xlink:href="../../d3/d47/SEvent__v1_8C.html" target="_top" xlink:title="fun4all/interfaces\l/SEvent_v1.C">
<polygon fill="none" stroke="black" points="1828.5,-1 1828.5,-31 1919.5,-31 1919.5,-1 1828.5,-1"/>
<text text-anchor="start" x="1836.5" y="-19" font-family="FreeSans" font-size="10.00">fun4all/interfaces</text>
<text text-anchor="middle" x="1874" y="-8" font-family="FreeSans" font-size="10.00">/SEvent_v1.C</text>
</a>
</g>
</g>
<!-- Node26&#45;&gt;Node31 -->
<g id="edge40" class="edge"><title>Node26&#45;&gt;Node31</title>
<path fill="none" stroke="midnightblue" d="M1998.72,-264.797C2004.76,-256.326 2010.74,-246.233 2014,-236 2036.69,-164.843 2061.1,-128.994 2018,-68 1995.88,-36.7028 1952.85,-24.4882 1919.57,-19.7853"/>
<polygon fill="midnightblue" stroke="midnightblue" points="1995.77,-262.895 1992.51,-272.976 2001.34,-267.128 1995.77,-262.895"/>
</g>
<!-- Node32 -->
<g id="node32" class="node"><title>Node32</title>
<g id="a_node32"><a xlink:href="../../dd/d12/ReadMySql_8C.html" target="_top" xlink:title="fun4all/modules/ReadMySql.C">
<polygon fill="none" stroke="black" points="2093,-6.5 2093,-25.5 2239,-25.5 2239,-6.5 2093,-6.5"/>
<text text-anchor="middle" x="2166" y="-13.5" font-family="FreeSans" font-size="10.00">fun4all/modules/ReadMySql.C</text>
</a>
</g>
</g>
<!-- Node26&#45;&gt;Node32 -->
<g id="edge49" class="edge"><title>Node26&#45;&gt;Node32</title>
<path fill="none" stroke="midnightblue" d="M2035.69,-270.912C2118.33,-255.22 2168.43,-300.068 2222,-236 2269.9,-178.718 2253.48,-136.165 2223,-68 2214.54,-49.0894 2195.23,-34.2878 2181.43,-25.6097"/>
<polygon fill="midnightblue" stroke="midnightblue" points="2034.76,-267.534 2025.72,-273.071 2036.24,-274.375 2034.76,-267.534"/>
</g>
<!-- Node33 -->
<g id="node33" class="node"><title>Node33</title>
<g id="a_node33"><a xlink:href="../../dd/d9c/SHitMap_8C.html" target="_top" xlink:title="fun4all/interfaces\l/SHitMap.C">
<polygon fill="none" stroke="black" points="1898.5,-137 1898.5,-167 1989.5,-167 1989.5,-137 1898.5,-137"/>
<text text-anchor="start" x="1906.5" y="-155" font-family="FreeSans" font-size="10.00">fun4all/interfaces</text>
<text text-anchor="middle" x="1944" y="-144" font-family="FreeSans" font-size="10.00">/SHitMap.C</text>
</a>
</g>
</g>
<!-- Node26&#45;&gt;Node33 -->
<g id="edge46" class="edge"><title>Node26&#45;&gt;Node33</title>
<path fill="none" stroke="midnightblue" d="M1973.52,-262.894C1966.03,-235.015 1953.95,-190.04 1947.82,-167.237"/>
<polygon fill="midnightblue" stroke="midnightblue" points="1970.17,-263.91 1976.15,-272.66 1976.93,-262.094 1970.17,-263.91"/>
</g>
<!-- Node26&#45;&gt;Node34 -->
<g id="edge47" class="edge"><title>Node26&#45;&gt;Node34</title>
<path fill="none" stroke="midnightblue" d="M1967.52,-263.829C1957.06,-245.948 1940.85,-221.407 1922,-204 1905.53,-188.797 1883.78,-176.047 1866.15,-167.098"/>
<polygon fill="midnightblue" stroke="midnightblue" points="1964.73,-266.017 1972.71,-272.989 1970.82,-262.564 1964.73,-266.017"/>
</g>
<!-- Node35 -->
<g id="node35" class="node"><title>Node35</title>
<g id="a_node35"><a xlink:href="../../db/d6c/SHitMap__v1_8C.html" target="_top" xlink:title="fun4all/interfaces\l/SHitMap_v1.C">
<polygon fill="none" stroke="black" points="1918.5,-69 1918.5,-99 2009.5,-99 2009.5,-69 1918.5,-69"/>
<text text-anchor="start" x="1926.5" y="-87" font-family="FreeSans" font-size="10.00">fun4all/interfaces</text>
<text text-anchor="middle" x="1964" y="-76" font-family="FreeSans" font-size="10.00">/SHitMap_v1.C</text>
</a>
</g>
</g>
<!-- Node26&#45;&gt;Node35 -->
<g id="edge48" class="edge"><title>Node26&#45;&gt;Node35</title>
<path fill="none" stroke="midnightblue" d="M1988.68,-263.273C1998.41,-233.084 2011.21,-179.624 1998,-136 1993.87,-122.352 1984.75,-109.019 1976.99,-99.4097"/>
<polygon fill="midnightblue" stroke="midnightblue" points="1985.31,-262.332 1985.42,-272.927 1991.94,-264.576 1985.31,-262.332"/>
</g>
<!-- Node36 -->
<g id="node36" class="node"><title>Node36</title>
<g id="a_node36"><a xlink:href="../../dd/d2f/SimpleReadMySql_8C.html" target="_top" xlink:title="fun4all/modules/SimpleRead\lMySql.C">
<polygon fill="none" stroke="black" points="2074,-69 2074,-99 2214,-99 2214,-69 2074,-69"/>
<text text-anchor="start" x="2082" y="-87" font-family="FreeSans" font-size="10.00">fun4all/modules/SimpleRead</text>
<text text-anchor="middle" x="2144" y="-76" font-family="FreeSans" font-size="10.00">MySql.C</text>
</a>
</g>
</g>
<!-- Node26&#45;&gt;Node36 -->
<g id="edge50" class="edge"><title>Node26&#45;&gt;Node36</title>
<path fill="none" stroke="midnightblue" d="M2024.89,-268.311C2040.61,-260.137 2057.44,-249.333 2070,-236 2109.23,-194.346 2131.77,-127.961 2140.18,-99.1315"/>
<polygon fill="midnightblue" stroke="midnightblue" points="2023.21,-265.237 2015.81,-272.818 2026.33,-271.507 2023.21,-265.237"/>
</g>
<!-- Node37 -->
<g id="node37" class="node"><title>Node37</title>
<g id="a_node37"><a xlink:href="../../d1/d3b/SHit_8C.html" target="_top" xlink:title="fun4all/interfaces\l/SHit.C">
<polygon fill="none" stroke="black" points="2122.5,-205 2122.5,-235 2213.5,-235 2213.5,-205 2122.5,-205"/>
<text text-anchor="start" x="2130.5" y="-223" font-family="FreeSans" font-size="10.00">fun4all/interfaces</text>
<text text-anchor="middle" x="2168" y="-212" font-family="FreeSans" font-size="10.00">/SHit.C</text>
</a>
</g>
</g>
<!-- Node26&#45;&gt;Node37 -->
<g id="edge41" class="edge"><title>Node26&#45;&gt;Node37</title>
<path fill="none" stroke="midnightblue" d="M2029.99,-269.452C2060.67,-258.68 2099.43,-245.072 2128.06,-235.022"/>
<polygon fill="midnightblue" stroke="midnightblue" points="2028.61,-266.226 2020.33,-272.841 2030.93,-272.831 2028.61,-266.226"/>
</g>
<!-- Node26&#45;&gt;Node38 -->
<g id="edge42" class="edge"><title>Node26&#45;&gt;Node38</title>
<path fill="none" stroke="midnightblue" d="M2035.62,-272.933C2037.09,-272.612 2038.55,-272.301 2040,-272 2135.29,-252.182 2160.71,-255.818 2256,-236 2260.63,-235.038 2265.43,-233.964 2270.22,-232.844"/>
<polygon fill="midnightblue" stroke="midnightblue" points="2034.76,-269.538 2025.78,-275.156 2036.3,-276.366 2034.76,-269.538"/>
</g>
<!-- Node27&#45;&gt;Node28 -->
<g id="edge30" class="edge"><title>Node27&#45;&gt;Node28</title>
<path fill="none" stroke="midnightblue" d="M1819.08,-201.452C1789.05,-190.68 1751.11,-177.072 1723.09,-167.022"/>
<polygon fill="midnightblue" stroke="midnightblue" points="1817.93,-204.759 1828.53,-204.841 1820.3,-198.17 1817.93,-204.759"/>
</g>
<!-- Node27&#45;&gt;Node33 -->
<g id="edge35" class="edge"><title>Node27&#45;&gt;Node33</title>
<path fill="none" stroke="midnightblue" d="M1892.16,-198.018C1903.8,-187.915 1917.43,-176.07 1927.8,-167.066"/>
<polygon fill="midnightblue" stroke="midnightblue" points="1889.75,-195.479 1884.49,-204.679 1894.34,-200.765 1889.75,-195.479"/>
</g>
<!-- Node27&#45;&gt;Node34 -->
<g id="edge36" class="edge"><title>Node27&#45;&gt;Node34</title>
<path fill="none" stroke="midnightblue" d="M1856.36,-195.723C1851.62,-186.244 1846.3,-175.591 1842.15,-167.293"/>
<polygon fill="midnightblue" stroke="midnightblue" points="1853.24,-197.3 1860.84,-204.679 1859.5,-194.169 1853.24,-197.3"/>
</g>
<!-- Node29 -->
<g id="node29" class="node"><title>Node29</title>
<g id="a_node29"><a xlink:href="../../d4/d9a/SEvent_8C.html" target="_top" xlink:title="fun4all/interfaces\l/SEvent.C">
<polygon fill="none" stroke="black" points="1638.5,-69 1638.5,-99 1729.5,-99 1729.5,-69 1638.5,-69"/>
<text text-anchor="start" x="1646.5" y="-87" font-family="FreeSans" font-size="10.00">fun4all/interfaces</text>
<text text-anchor="middle" x="1684" y="-76" font-family="FreeSans" font-size="10.00">/SEvent.C</text>
</a>
</g>
</g>
<!-- Node28&#45;&gt;Node29 -->
<g id="edge31" class="edge"><title>Node28&#45;&gt;Node29</title>
<path fill="none" stroke="midnightblue" d="M1684,-126.532C1684,-117.361 1684,-107.245 1684,-99.2931"/>
<polygon fill="midnightblue" stroke="midnightblue" points="1680.5,-126.679 1684,-136.679 1687.5,-126.679 1680.5,-126.679"/>
</g>
<!-- Node28&#45;&gt;Node30 -->
<g id="edge32" class="edge"><title>Node28&#45;&gt;Node30</title>
<path fill="none" stroke="midnightblue" d="M1717.17,-131.626C1734.99,-121.217 1756.57,-108.613 1772.8,-99.1352"/>
<polygon fill="midnightblue" stroke="midnightblue" points="1715.11,-128.776 1708.24,-136.841 1718.64,-134.82 1715.11,-128.776"/>
</g>
<!-- Node30&#45;&gt;Node31 -->
<g id="edge33" class="edge"><title>Node30&#45;&gt;Node31</title>
<path fill="none" stroke="midnightblue" d="M1821.48,-62.0184C1833.27,-51.9145 1847.09,-40.0696 1857.59,-31.0663"/>
<polygon fill="midnightblue" stroke="midnightblue" points="1819.02,-59.5136 1813.71,-68.679 1823.58,-64.8284 1819.02,-59.5136"/>
</g>
<!-- Node30&#45;&gt;Node32 -->
<g id="edge34" class="edge"><title>Node30&#45;&gt;Node32</title>
<path fill="none" stroke="midnightblue" d="M1852.5,-69.5645C1855.03,-69.0214 1857.54,-68.497 1860,-68 1945.78,-50.6602 2045.96,-34.7845 2107.69,-25.5009"/>
<polygon fill="midnightblue" stroke="midnightblue" points="1851.69,-66.1587 1842.68,-71.7343 1853.2,-72.9937 1851.69,-66.1587"/>
</g>
<!-- Node34&#45;&gt;Node32 -->
<g id="edge38" class="edge"><title>Node34&#45;&gt;Node32</title>
<path fill="none" stroke="midnightblue" d="M1849.12,-128.221C1862.23,-109.071 1883.53,-82.5561 1909,-68 1965.47,-35.7196 2039.05,-23.5891 2092.99,-19.1696"/>
<polygon fill="midnightblue" stroke="midnightblue" points="1846.12,-126.417 1843.52,-136.689 1851.96,-130.277 1846.12,-126.417"/>
</g>
<!-- Node34&#45;&gt;Node35 -->
<g id="edge37" class="edge"><title>Node34&#45;&gt;Node35</title>
<path fill="none" stroke="midnightblue" d="M1871.75,-132.197C1892.31,-121.68 1917.51,-108.787 1936.37,-99.1352"/>
<polygon fill="midnightblue" stroke="midnightblue" points="1869.98,-129.171 1862.67,-136.841 1873.17,-135.402 1869.98,-129.171"/>
</g>
<!-- Node34&#45;&gt;Node36 -->
<g id="edge39" class="edge"><title>Node34&#45;&gt;Node36</title>
<path fill="none" stroke="midnightblue" d="M1890.53,-135.721C1957.79,-119.872 2024.9,-106.71 2073.89,-97.5847"/>
<polygon fill="midnightblue" stroke="midnightblue" points="1889.52,-132.361 1880.6,-138.078 1891.14,-139.172 1889.52,-132.361"/>
</g>
<!-- Node38&#45;&gt;Node32 -->
<g id="edge44" class="edge"><title>Node38&#45;&gt;Node32</title>
<path fill="none" stroke="midnightblue" d="M2311.65,-194.996C2304.76,-162.827 2288.63,-105.452 2256,-68 2238.3,-47.6892 2210.45,-33.6707 2190.41,-25.5438"/>
<polygon fill="midnightblue" stroke="midnightblue" points="2308.23,-195.763 2313.64,-204.874 2315.1,-194.379 2308.23,-195.763"/>
</g>
<!-- Node38&#45;&gt;Node36 -->
<g id="edge45" class="edge"><title>Node38&#45;&gt;Node36</title>
<path fill="none" stroke="midnightblue" d="M2289.99,-198.733C2254.73,-171.27 2192.69,-122.934 2162.1,-99.0994"/>
<polygon fill="midnightblue" stroke="midnightblue" points="2287.88,-201.528 2297.92,-204.913 2292.18,-196.006 2287.88,-201.528"/>
</g>
<!-- Node39 -->
<g id="node39" class="node"><title>Node39</title>
<g id="a_node39"><a xlink:href="../../da/dc5/SHit__v1_8C.html" target="_top" xlink:title="fun4all/interfaces\l/SHit_v1.C">
<polygon fill="none" stroke="black" points="2346.5,-137 2346.5,-167 2437.5,-167 2437.5,-137 2346.5,-137"/>
<text text-anchor="start" x="2354.5" y="-155" font-family="FreeSans" font-size="10.00">fun4all/interfaces</text>
<text text-anchor="middle" x="2392" y="-144" font-family="FreeSans" font-size="10.00">/SHit_v1.C</text>
</a>
</g>
</g>
<!-- Node38&#45;&gt;Node39 -->
<g id="edge43" class="edge"><title>Node38&#45;&gt;Node39</title>
<path fill="none" stroke="midnightblue" d="M2340.16,-198.018C2351.8,-187.915 2365.43,-176.07 2375.8,-167.066"/>
<polygon fill="midnightblue" stroke="midnightblue" points="2337.75,-195.479 2332.49,-204.679 2342.34,-200.765 2337.75,-195.479"/>
</g>
<!-- Node43&#45;&gt;Node23 -->
<g id="edge60" class="edge"><title>Node43&#45;&gt;Node23</title>
<path fill="none" stroke="midnightblue" d="M1420.15,-274.706C1386.05,-261.547 1332.86,-241.017 1303.09,-229.526"/>
<polygon fill="midnightblue" stroke="midnightblue" points="1419.06,-278.036 1429.64,-278.372 1421.58,-271.506 1419.06,-278.036"/>
</g>
<!-- Node44 -->
<g id="node44" class="node"><title>Node44</title>
<g id="a_node44"><a xlink:href="../../d0/d61/PHTimeStamp_8cc.html" target="_top" xlink:title="fun4all/phool/PHTimeStamp.cc">
<polygon fill="none" stroke="black" points="1376,-210.5 1376,-229.5 1528,-229.5 1528,-210.5 1376,-210.5"/>
<text text-anchor="middle" x="1452" y="-217.5" font-family="FreeSans" font-size="10.00">fun4all/phool/PHTimeStamp.cc</text>
</a>
</g>
</g>
<!-- Node43&#45;&gt;Node44 -->
<g id="edge61" class="edge"><title>Node43&#45;&gt;Node44</title>
<path fill="none" stroke="midnightblue" d="M1452,-268.041C1452,-255.472 1452,-239.563 1452,-229.841"/>
<polygon fill="midnightblue" stroke="midnightblue" points="1448.5,-268.372 1452,-278.372 1455.5,-268.372 1448.5,-268.372"/>
</g>
</g>
</svg>
