<?xml version="1.0" encoding="UTF-8" standalone="no"?>
<!DOCTYPE svg PUBLIC "-//W3C//DTD SVG 1.1//EN"
 "http://www.w3.org/Graphics/SVG/1.1/DTD/svg11.dtd">
<!-- Generated by graphviz version 2.36.0 (20140111.2315)
 -->
<!-- Title: PHTimer Pages: 1 -->
<svg width="333pt" height="176pt"
 viewBox="0.00 0.00 333.00 176.00" xmlns="http://www.w3.org/2000/svg" xmlns:xlink="http://www.w3.org/1999/xlink">
<g id="graph0" class="graph" transform="scale(1 1) rotate(0) translate(4 172)">
<title>PHTimer</title>
<!-- Node1 -->
<g id="node1" class="node"><title>Node1</title>
<polygon fill="#bfbfbf" stroke="black" points="151,-0.5 151,-19.5 207,-19.5 207,-0.5 151,-0.5"/>
<text text-anchor="middle" x="179" y="-7.5" font-family="FreeSans" font-size="10.00">PHTimer</text>
</g>
<!-- Node2 -->
<g id="node2" class="node"><title>Node2</title>
<g id="a_node2"><a xlink:href="../../dc/d23/structPHTimer_1_1time__struct.html" target="_top" xlink:title="used to store high precision time using two integers ">
<polygon fill="none" stroke="black" points="-0.5,-78.5 -0.5,-97.5 108.5,-97.5 108.5,-78.5 -0.5,-78.5"/>
<text text-anchor="middle" x="54" y="-85.5" font-family="FreeSans" font-size="10.00">PHTimer::time_struct</text>
</a>
</g>
</g>
<!-- Node2&#45;&gt;Node1 -->
<g id="edge1" class="edge"><title>Node2&#45;&gt;Node1</title>
<path fill="none" stroke="#9a32cd" stroke-dasharray="5,2" d="M73.2398,-72.3214C87.0102,-62.1199 106.188,-48.521 124,-38 135.54,-31.1836 149.044,-24.5364 159.783,-19.5431"/>
<polygon fill="#9a32cd" stroke="#9a32cd" points="70.9423,-69.6694 65.0403,-78.4681 75.1411,-75.2703 70.9423,-69.6694"/>
<text text-anchor="middle" x="149.5" y="-52" font-family="FreeSans" font-size="10.00"> _stop_time</text>
<text text-anchor="middle" x="149.5" y="-41" font-family="FreeSans" font-size="10.00">_start_time</text>
</g>
<!-- Node3 -->
<g id="node3" class="node"><title>Node3</title>
<g id="a_node3"><a xlink:href="../../d2/db1/classPHTimer_1_1Frequency.html" target="_top" xlink:title="internal frequency read from cpu information file ">
<polygon fill="none" stroke="black" points="126.5,-78.5 126.5,-97.5 231.5,-97.5 231.5,-78.5 126.5,-78.5"/>
<text text-anchor="middle" x="179" y="-85.5" font-family="FreeSans" font-size="10.00">PHTimer::Frequency</text>
</a>
</g>
</g>
<!-- Node3&#45;&gt;Node1 -->
<g id="edge2" class="edge"><title>Node3&#45;&gt;Node1</title>
<path fill="none" stroke="#9a32cd" stroke-dasharray="5,2" d="M179,-68.2239C179,-52.6974 179,-31.3582 179,-19.6165"/>
<polygon fill="#9a32cd" stroke="#9a32cd" points="175.5,-68.2818 179,-78.2818 182.5,-68.2819 175.5,-68.2818"/>
<text text-anchor="middle" x="204" y="-46.5" font-family="FreeSans" font-size="10.00"> _frequency</text>
</g>
<!-- Node4 -->
<g id="node4" class="node"><title>Node4</title>
<g id="a_node4"><a xlink:title="STL class. ">
<polygon fill="none" stroke="#bfbfbf" points="249.5,-78.5 249.5,-97.5 308.5,-97.5 308.5,-78.5 249.5,-78.5"/>
<text text-anchor="middle" x="279" y="-85.5" font-family="FreeSans" font-size="10.00">std::string</text>
</a>
</g>
</g>
<!-- Node4&#45;&gt;Node1 -->
<g id="edge3" class="edge"><title>Node4&#45;&gt;Node1</title>
<path fill="none" stroke="#9a32cd" stroke-dasharray="5,2" d="M265.929,-70.3126C257.341,-60.0988 245.427,-47.2584 233,-38 222.998,-30.5481 210.626,-24.19 200.249,-19.519"/>
<polygon fill="#9a32cd" stroke="#9a32cd" points="263.272,-72.5924 272.299,-78.1381 268.701,-68.1731 263.272,-72.5924"/>
<text text-anchor="middle" x="271" y="-46.5" font-family="FreeSans" font-size="10.00"> _name</text>
</g>
<!-- Node5 -->
<g id="node5" class="node"><title>Node5</title>
<g id="a_node5"><a xlink:title="STL class. ">
<polygon fill="none" stroke="#bfbfbf" points="232.5,-137 232.5,-167 325.5,-167 325.5,-137 232.5,-137"/>
<text text-anchor="start" x="240.5" y="-155" font-family="FreeSans" font-size="10.00">std::basic_string&lt;</text>
<text text-anchor="middle" x="279" y="-144" font-family="FreeSans" font-size="10.00"> char &gt;</text>
</a>
</g>
</g>
<!-- Node5&#45;&gt;Node4 -->
<g id="edge4" class="edge"><title>Node5&#45;&gt;Node4</title>
<path fill="none" stroke="midnightblue" d="M279,-126.871C279,-116.663 279,-105.408 279,-97.8419"/>
<polygon fill="midnightblue" stroke="midnightblue" points="275.5,-126.931 279,-136.931 282.5,-126.931 275.5,-126.931"/>
</g>
</g>
</svg>
