<?xml version="1.0" encoding="UTF-8" standalone="no"?>
<!DOCTYPE svg PUBLIC "-//W3C//DTD SVG 1.1//EN"
 "http://www.w3.org/Graphics/SVG/1.1/DTD/svg11.dtd">
<!-- Generated by graphviz version 2.36.0 (20140111.2315)
 -->
<!-- Title: Fun4AllDstInputManager::setBranches Pages: 1 -->
<svg width="490pt" height="115pt"
 viewBox="0.00 0.00 490.00 115.00" xmlns="http://www.w3.org/2000/svg" xmlns:xlink="http://www.w3.org/1999/xlink">
<g id="graph0" class="graph" transform="scale(1 1) rotate(0) translate(4 111)">
<title>Fun4AllDstInputManager::setBranches</title>
<!-- Node1 -->
<g id="node1" class="node"><title>Node1</title>
<polygon fill="#bfbfbf" stroke="black" points="0,-44 0,-74 124,-74 124,-44 0,-44"/>
<text text-anchor="start" x="8" y="-62" font-family="FreeSans" font-size="10.00">Fun4AllDstInputManager</text>
<text text-anchor="middle" x="62" y="-51" font-family="FreeSans" font-size="10.00">::setBranches</text>
</g>
<!-- Node2 -->
<g id="node2" class="node"><title>Node2</title>
<g id="a_node2"><a xlink:href="../../d5/dec/classFun4AllBase.html#a41f9ac377743d046f590617fd6f4f0ed" target="_top" xlink:title="Returns the name of this module. ">
<polygon fill="none" stroke="black" points="170.5,-87.5 170.5,-106.5 273.5,-106.5 273.5,-87.5 170.5,-87.5"/>
<text text-anchor="middle" x="222" y="-94.5" font-family="FreeSans" font-size="10.00">Fun4AllBase::Name</text>
</a>
</g>
</g>
<!-- Node1&#45;&gt;Node2 -->
<g id="edge1" class="edge"><title>Node1&#45;&gt;Node2</title>
<path fill="none" stroke="midnightblue" d="M124.087,-73.6918C139.609,-77.425 156.106,-81.3925 171.004,-84.9756"/>
<polygon fill="midnightblue" stroke="midnightblue" points="170.49,-88.4517 181.031,-87.3872 172.127,-81.6458 170.49,-88.4517"/>
</g>
<!-- Node3 -->
<g id="node3" class="node"><title>Node3</title>
<g id="a_node3"><a xlink:href="../../d7/d4d/classPHNodeIOManager.html#a7f701a7b25803133c586853f87454a3a" target="_top" xlink:title="PHNodeIOManager::selectObject\lToRead">
<polygon fill="none" stroke="black" points="320.5,-22 320.5,-52 481.5,-52 481.5,-22 320.5,-22"/>
<text text-anchor="start" x="328.5" y="-40" font-family="FreeSans" font-size="10.00">PHNodeIOManager::selectObject</text>
<text text-anchor="middle" x="401" y="-29" font-family="FreeSans" font-size="10.00">ToRead</text>
</a>
</g>
</g>
<!-- Node1&#45;&gt;Node3 -->
<g id="edge2" class="edge"><title>Node1&#45;&gt;Node3</title>
<path fill="none" stroke="midnightblue" d="M124.028,-55.016C176.026,-51.6214 251.459,-46.6971 310.324,-42.8542"/>
<polygon fill="midnightblue" stroke="midnightblue" points="310.615,-46.3428 320.366,-42.1987 310.159,-39.3576 310.615,-46.3428"/>
</g>
<!-- Node4 -->
<g id="node4" class="node"><title>Node4</title>
<g id="a_node4"><a xlink:href="../../d7/d0b/classFun4AllDstInputManager.html#a22bc575e2e8b3b72e67523a694acbf22" target="_top" xlink:title="Fun4AllDstInputManager\l::setSyncBranches">
<polygon fill="none" stroke="black" points="160,-0 160,-30 284,-30 284,-0 160,-0"/>
<text text-anchor="start" x="168" y="-18" font-family="FreeSans" font-size="10.00">Fun4AllDstInputManager</text>
<text text-anchor="middle" x="222" y="-7" font-family="FreeSans" font-size="10.00">::setSyncBranches</text>
</a>
</g>
</g>
<!-- Node1&#45;&gt;Node4 -->
<g id="edge3" class="edge"><title>Node1&#45;&gt;Node4</title>
<path fill="none" stroke="midnightblue" d="M116.933,-43.9808C129.953,-40.3548 143.987,-36.4466 157.405,-32.7101"/>
<polygon fill="midnightblue" stroke="midnightblue" points="158.348,-36.0807 167.042,-30.0262 156.47,-29.3373 158.348,-36.0807"/>
</g>
<!-- Node4&#45;&gt;Node3 -->
<g id="edge4" class="edge"><title>Node4&#45;&gt;Node3</title>
<path fill="none" stroke="midnightblue" d="M284.409,-22.6328C292.734,-23.6675 301.413,-24.7462 310.109,-25.8272"/>
<polygon fill="midnightblue" stroke="midnightblue" points="309.951,-29.3343 320.307,-27.0946 310.815,-22.3878 309.951,-29.3343"/>
</g>
</g>
</svg>
