<?xml version="1.0" encoding="UTF-8" standalone="no"?>
<!DOCTYPE svg PUBLIC "-//W3C//DTD SVG 1.1//EN"
 "http://www.w3.org/Graphics/SVG/1.1/DTD/svg11.dtd">
<!-- Generated by graphviz version 2.36.0 (20140111.2315)
 -->
<!-- Title: Fun4AllDstInputManager::SyncIt Pages: 1 -->
<svg width="1644pt" height="862pt"
 viewBox="0.00 0.00 1644.00 861.97" xmlns="http://www.w3.org/2000/svg" xmlns:xlink="http://www.w3.org/1999/xlink">
<g id="graph0" class="graph" transform="scale(1 1) rotate(0) translate(4 857.971)">
<title>Fun4AllDstInputManager::SyncIt</title>
<!-- Node1 -->
<g id="node1" class="node"><title>Node1</title>
<polygon fill="#bfbfbf" stroke="black" points="0,-635 0,-665 124,-665 124,-635 0,-635"/>
<text text-anchor="start" x="8" y="-653" font-family="FreeSans" font-size="10.00">Fun4AllDstInputManager</text>
<text text-anchor="middle" x="62" y="-642" font-family="FreeSans" font-size="10.00">::SyncIt</text>
</g>
<!-- Node2 -->
<g id="node2" class="node"><title>Node2</title>
<g id="a_node2"><a xlink:href="../../de/dbb/classSyncObject.html#ab8b7f5a87277828d6ea97d2ed3dd546d" target="_top" xlink:title="SyncObject::Different">
<polygon fill="none" stroke="black" points="179.5,-798.5 179.5,-817.5 286.5,-817.5 286.5,-798.5 179.5,-798.5"/>
<text text-anchor="middle" x="233" y="-805.5" font-family="FreeSans" font-size="10.00">SyncObject::Different</text>
</a>
</g>
</g>
<!-- Node1&#45;&gt;Node2 -->
<g id="edge1" class="edge"><title>Node1&#45;&gt;Node2</title>
<path fill="none" stroke="midnightblue" d="M70.031,-665.254C83.5454,-692.93 115.773,-751.551 160,-784 165.843,-788.287 172.499,-791.84 179.348,-794.776"/>
<polygon fill="midnightblue" stroke="midnightblue" points="178.161,-798.069 188.75,-798.408 180.684,-791.539 178.161,-798.069"/>
</g>
<!-- Node3 -->
<g id="node3" class="node"><title>Node3</title>
<g id="a_node3"><a xlink:href="../../de/dbb/classSyncObject.html#aa650d97c0d3ace8ae7945f54224228ef" target="_top" xlink:title="set Event Number ">
<polygon fill="none" stroke="black" points="362.5,-817.5 362.5,-836.5 493.5,-836.5 493.5,-817.5 362.5,-817.5"/>
<text text-anchor="middle" x="428" y="-824.5" font-family="FreeSans" font-size="10.00">SyncObject::EventNumber</text>
</a>
</g>
</g>
<!-- Node1&#45;&gt;Node3 -->
<g id="edge5" class="edge"><title>Node1&#45;&gt;Node3</title>
<path fill="none" stroke="midnightblue" d="M65.9393,-665.222C73.7885,-701.136 98.9474,-790.839 160,-827 230.399,-868.697 330.654,-852.894 386.124,-839.06"/>
<polygon fill="midnightblue" stroke="midnightblue" points="387.141,-842.412 395.943,-836.514 385.385,-835.636 387.141,-842.412"/>
</g>
<!-- Node4 -->
<g id="node4" class="node"><title>Node4</title>
<g id="a_node4"><a xlink:href="../../de/dbb/classSyncObject.html#af1188def459d0ff933d71e37c7afc0c5" target="_top" xlink:title="set Run Number ">
<polygon fill="none" stroke="black" points="366.5,-770.5 366.5,-789.5 489.5,-789.5 489.5,-770.5 366.5,-770.5"/>
<text text-anchor="middle" x="428" y="-777.5" font-family="FreeSans" font-size="10.00">SyncObject::RunNumber</text>
</a>
</g>
</g>
<!-- Node1&#45;&gt;Node4 -->
<g id="edge61" class="edge"><title>Node1&#45;&gt;Node4</title>
<path fill="none" stroke="midnightblue" d="M72.4242,-665.166C87.662,-688.195 120.073,-731.372 160,-751 221.452,-781.209 300.267,-786.302 356.299,-785.154"/>
<polygon fill="midnightblue" stroke="midnightblue" points="356.588,-788.647 366.487,-784.871 356.394,-781.65 356.588,-788.647"/>
</g>
<!-- Node5 -->
<g id="node5" class="node"><title>Node5</title>
<g id="a_node5"><a xlink:href="../../de/dbb/classSyncObject.html#ad679d42aac1a409a94d2e535766dcebd" target="_top" xlink:title="set Event Counter ">
<polygon fill="none" stroke="black" points="168,-722.5 168,-741.5 298,-741.5 298,-722.5 168,-722.5"/>
<text text-anchor="middle" x="233" y="-729.5" font-family="FreeSans" font-size="10.00">SyncObject::EventCounter</text>
</a>
</g>
</g>
<!-- Node1&#45;&gt;Node5 -->
<g id="edge4" class="edge"><title>Node1&#45;&gt;Node5</title>
<path fill="none" stroke="midnightblue" d="M84.9789,-665.03C104.164,-677.682 133.073,-695.64 160,-708 169.065,-712.161 179.065,-715.96 188.655,-719.247"/>
<polygon fill="midnightblue" stroke="midnightblue" points="187.849,-722.667 198.442,-722.481 190.045,-716.02 187.849,-722.667"/>
</g>
<!-- Node6 -->
<g id="node6" class="node"><title>Node6</title>
<g id="a_node6"><a xlink:href="../../d7/d0b/classFun4AllDstInputManager.html#acc1f41cde35bb897b779bea7fb452e78" target="_top" xlink:title="Fun4AllDstInputManager\l::fileclose">
<polygon fill="none" stroke="black" points="774,-635 774,-665 898,-665 898,-635 774,-635"/>
<text text-anchor="start" x="782" y="-653" font-family="FreeSans" font-size="10.00">Fun4AllDstInputManager</text>
<text text-anchor="middle" x="836" y="-642" font-family="FreeSans" font-size="10.00">::fileclose</text>
</a>
</g>
</g>
<!-- Node1&#45;&gt;Node6 -->
<g id="edge6" class="edge"><title>Node1&#45;&gt;Node6</title>
<path fill="none" stroke="midnightblue" d="M79.6781,-634.779C97.8735,-619.296 128.617,-596.297 160,-587 177.597,-581.787 472.23,-584.864 514,-589 600.806,-597.596 699.148,-617.875 763.847,-632.7"/>
<polygon fill="midnightblue" stroke="midnightblue" points="763.404,-636.189 773.935,-635.029 764.979,-629.369 763.404,-636.189"/>
</g>
<!-- Node7 -->
<g id="node7" class="node"><title>Node7</title>
<g id="a_node7"><a xlink:href="../../d5/dec/classFun4AllBase.html#a41f9ac377743d046f590617fd6f4f0ed" target="_top" xlink:title="Returns the name of this module. ">
<polygon fill="none" stroke="black" points="978.5,-640.5 978.5,-659.5 1081.5,-659.5 1081.5,-640.5 978.5,-640.5"/>
<text text-anchor="middle" x="1030" y="-647.5" font-family="FreeSans" font-size="10.00">Fun4AllBase::Name</text>
</a>
</g>
</g>
<!-- Node1&#45;&gt;Node7 -->
<g id="edge9" class="edge"><title>Node1&#45;&gt;Node7</title>
<path fill="none" stroke="midnightblue" d="M116.797,-665.013C130.77,-668.442 145.868,-671.739 160,-674 277.504,-692.801 308.001,-694 427,-694 427,-694 427,-694 636,-694 760.762,-694 792.464,-691.446 916,-674 937.405,-670.977 960.818,-666.245 980.753,-661.779"/>
<polygon fill="midnightblue" stroke="midnightblue" points="981.562,-665.184 990.533,-659.548 980.005,-658.36 981.562,-665.184"/>
</g>
<!-- Node8 -->
<g id="node8" class="node"><title>Node8</title>
<g id="a_node8"><a xlink:href="../../de/dbb/classSyncObject.html#acd53115d581ec604b83ca0041ed7ccf4" target="_top" xlink:title="SyncObject::identify">
<polygon fill="none" stroke="black" points="182,-596.5 182,-615.5 284,-615.5 284,-596.5 182,-596.5"/>
<text text-anchor="middle" x="233" y="-603.5" font-family="FreeSans" font-size="10.00">SyncObject::identify</text>
</a>
</g>
</g>
<!-- Node1&#45;&gt;Node8 -->
<g id="edge8" class="edge"><title>Node1&#45;&gt;Node8</title>
<path fill="none" stroke="midnightblue" d="M120.688,-634.981C141.874,-629.465 165.569,-623.296 185.634,-618.072"/>
<polygon fill="midnightblue" stroke="midnightblue" points="186.668,-621.419 195.464,-615.512 184.904,-614.645 186.668,-621.419"/>
</g>
<!-- Node9 -->
<g id="node9" class="node"><title>Node9</title>
<g id="a_node9"><a xlink:href="../../d7/d0b/classFun4AllDstInputManager.html#a8245204030490e70ef8658cf1b6794d5" target="_top" xlink:title="Fun4AllDstInputManager\l::PushBackEvents">
<polygon fill="none" stroke="black" points="171,-635 171,-665 295,-665 295,-635 171,-635"/>
<text text-anchor="start" x="179" y="-653" font-family="FreeSans" font-size="10.00">Fun4AllDstInputManager</text>
<text text-anchor="middle" x="233" y="-642" font-family="FreeSans" font-size="10.00">::PushBackEvents</text>
</a>
</g>
</g>
<!-- Node1&#45;&gt;Node9 -->
<g id="edge10" class="edge"><title>Node1&#45;&gt;Node9</title>
<path fill="none" stroke="midnightblue" d="M124.013,-650C135.905,-650 148.472,-650 160.663,-650"/>
<polygon fill="midnightblue" stroke="midnightblue" points="160.793,-653.5 170.793,-650 160.793,-646.5 160.793,-653.5"/>
</g>
<!-- Node12 -->
<g id="node12" class="node"><title>Node12</title>
<g id="a_node12"><a xlink:href="../../d7/d4d/classPHNodeIOManager.html#a92da4bff2438e94d469011b7720f286f" target="_top" xlink:title="PHNodeIOManager::read">
<polygon fill="none" stroke="black" points="773.5,-220.5 773.5,-239.5 898.5,-239.5 898.5,-220.5 773.5,-220.5"/>
<text text-anchor="middle" x="836" y="-227.5" font-family="FreeSans" font-size="10.00">PHNodeIOManager::read</text>
</a>
</g>
</g>
<!-- Node1&#45;&gt;Node12 -->
<g id="edge13" class="edge"><title>Node1&#45;&gt;Node12</title>
<path fill="none" stroke="midnightblue" d="M68.7865,-634.995C81.4558,-603.621 114.217,-530.021 160,-482 326.732,-307.116 626.16,-252.674 763.102,-236.485"/>
<polygon fill="midnightblue" stroke="midnightblue" points="763.538,-239.958 773.073,-235.34 762.739,-233.004 763.538,-239.958"/>
</g>
<!-- Node28 -->
<g id="node28" class="node"><title>Node28</title>
<g id="a_node28"><a xlink:href="../../d7/d0b/classFun4AllDstInputManager.html#ade26017b627e0e1f1ec0dec62ac7fd52" target="_top" xlink:title="Fun4AllDstInputManager\l::ReadNextEventSyncObject">
<polygon fill="none" stroke="black" points="163.5,-492 163.5,-522 302.5,-522 302.5,-492 163.5,-492"/>
<text text-anchor="start" x="171.5" y="-510" font-family="FreeSans" font-size="10.00">Fun4AllDstInputManager</text>
<text text-anchor="middle" x="233" y="-499" font-family="FreeSans" font-size="10.00">::ReadNextEventSyncObject</text>
</a>
</g>
</g>
<!-- Node1&#45;&gt;Node28 -->
<g id="edge33" class="edge"><title>Node1&#45;&gt;Node28</title>
<path fill="none" stroke="midnightblue" d="M76.6082,-634.733C94.6401,-614.941 127.925,-579.899 160,-554 171.682,-544.567 185.3,-535.291 197.528,-527.505"/>
<polygon fill="midnightblue" stroke="midnightblue" points="199.518,-530.388 206.139,-522.117 195.805,-524.454 199.518,-530.388"/>
</g>
<!-- Node45 -->
<g id="node45" class="node"><title>Node45</title>
<g id="a_node45"><a xlink:href="../../de/dbb/classSyncObject.html#a9e8ffb7e35744a8f46cc59b4cf8fa1ca" target="_top" xlink:title="set Segment Number ">
<polygon fill="none" stroke="black" points="160.5,-281.5 160.5,-300.5 305.5,-300.5 305.5,-281.5 160.5,-281.5"/>
<text text-anchor="middle" x="233" y="-288.5" font-family="FreeSans" font-size="10.00">SyncObject::SegmentNumber</text>
</a>
</g>
</g>
<!-- Node1&#45;&gt;Node45 -->
<g id="edge62" class="edge"><title>Node1&#45;&gt;Node45</title>
<path fill="none" stroke="midnightblue" d="M62.7276,-634.927C62.627,-582.962 69.3844,-409.306 160,-315 163.823,-311.021 168.322,-307.702 173.173,-304.933"/>
<polygon fill="midnightblue" stroke="midnightblue" points="174.764,-308.051 182.215,-300.52 171.694,-301.761 174.764,-308.051"/>
</g>
<!-- Node2&#45;&gt;Node3 -->
<g id="edge2" class="edge"><title>Node2&#45;&gt;Node3</title>
<path fill="none" stroke="midnightblue" d="M286.738,-813.192C306.875,-815.174 330.238,-817.474 352.052,-819.622"/>
<polygon fill="midnightblue" stroke="midnightblue" points="351.986,-823.132 362.281,-820.629 352.672,-816.166 351.986,-823.132"/>
</g>
<!-- Node2&#45;&gt;Node4 -->
<g id="edge3" class="edge"><title>Node2&#45;&gt;Node4</title>
<path fill="none" stroke="midnightblue" d="M286.738,-800.349C308.224,-797.232 333.382,-793.582 356.414,-790.241"/>
<polygon fill="midnightblue" stroke="midnightblue" points="357.086,-793.68 366.48,-788.78 356.081,-786.752 357.086,-793.68"/>
</g>
<!-- Node6&#45;&gt;Node7 -->
<g id="edge7" class="edge"><title>Node6&#45;&gt;Node7</title>
<path fill="none" stroke="midnightblue" d="M898.014,-650C920.486,-650 945.922,-650 968.361,-650"/>
<polygon fill="midnightblue" stroke="midnightblue" points="968.439,-653.5 978.439,-650 968.439,-646.5 968.439,-653.5"/>
</g>
<!-- Node10 -->
<g id="node10" class="node"><title>Node10</title>
<g id="a_node10"><a xlink:href="../../d0/d36/classPHIOManager.html#aea7d5c3333137f593ad4cfc8f9c30466" target="_top" xlink:title="PHIOManager::getEventNumber">
<polygon fill="none" stroke="black" points="350,-637.5 350,-656.5 506,-656.5 506,-637.5 350,-637.5"/>
<text text-anchor="middle" x="428" y="-644.5" font-family="FreeSans" font-size="10.00">PHIOManager::getEventNumber</text>
</a>
</g>
</g>
<!-- Node9&#45;&gt;Node10 -->
<g id="edge11" class="edge"><title>Node9&#45;&gt;Node10</title>
<path fill="none" stroke="midnightblue" d="M295.066,-649.051C309.154,-648.832 324.411,-648.595 339.381,-648.362"/>
<polygon fill="midnightblue" stroke="midnightblue" points="339.737,-651.857 349.681,-648.202 339.628,-644.858 339.737,-651.857"/>
</g>
<!-- Node11 -->
<g id="node11" class="node"><title>Node11</title>
<g id="a_node11"><a xlink:href="../../d0/d36/classPHIOManager.html#aee0b0ab22284ccb71cdcc57d392c7432" target="_top" xlink:title="PHIOManager::setEventNumber">
<polygon fill="none" stroke="black" points="350,-598.5 350,-617.5 506,-617.5 506,-598.5 350,-598.5"/>
<text text-anchor="middle" x="428" y="-605.5" font-family="FreeSans" font-size="10.00">PHIOManager::setEventNumber</text>
</a>
</g>
</g>
<!-- Node9&#45;&gt;Node11 -->
<g id="edge12" class="edge"><title>Node9&#45;&gt;Node11</title>
<path fill="none" stroke="midnightblue" d="M295.066,-636.711C320.094,-631.265 348.814,-625.015 373.054,-619.739"/>
<polygon fill="midnightblue" stroke="midnightblue" points="374.118,-623.09 383.145,-617.544 372.629,-616.25 374.118,-623.09"/>
</g>
<!-- Node13 -->
<g id="node13" class="node"><title>Node13</title>
<g id="a_node13"><a xlink:href="../../d7/d4d/classPHNodeIOManager.html#a3882997324989c7dd04e9f6b728af7db" target="_top" xlink:title="PHNodeIOManager::reconstruct\lNodeTree">
<polygon fill="none" stroke="black" points="952.5,-121 952.5,-151 1107.5,-151 1107.5,-121 952.5,-121"/>
<text text-anchor="start" x="960.5" y="-139" font-family="FreeSans" font-size="10.00">PHNodeIOManager::reconstruct</text>
<text text-anchor="middle" x="1030" y="-128" font-family="FreeSans" font-size="10.00">NodeTree</text>
</a>
</g>
</g>
<!-- Node12&#45;&gt;Node13 -->
<g id="edge14" class="edge"><title>Node12&#45;&gt;Node13</title>
<path fill="none" stroke="midnightblue" d="M856.467,-220.469C887.423,-205.314 948.508,-175.408 989.056,-155.556"/>
<polygon fill="midnightblue" stroke="midnightblue" points="990.691,-158.652 998.134,-151.112 987.613,-152.365 990.691,-158.652"/>
</g>
<!-- Node26 -->
<g id="node26" class="node"><title>Node26</title>
<g id="a_node26"><a xlink:href="../../d7/d4d/classPHNodeIOManager.html#a78c3103ae5561ab423517d5ebb880a38" target="_top" xlink:title="PHNodeIOManager::readEvent\lFromFile">
<polygon fill="none" stroke="black" points="955,-209 955,-239 1105,-239 1105,-209 955,-209"/>
<text text-anchor="start" x="963" y="-227" font-family="FreeSans" font-size="10.00">PHNodeIOManager::readEvent</text>
<text text-anchor="middle" x="1030" y="-216" font-family="FreeSans" font-size="10.00">FromFile</text>
</a>
</g>
</g>
<!-- Node12&#45;&gt;Node26 -->
<g id="edge31" class="edge"><title>Node12&#45;&gt;Node26</title>
<path fill="none" stroke="midnightblue" d="M898.542,-228.077C913.208,-227.618 929.112,-227.122 944.606,-226.637"/>
<polygon fill="midnightblue" stroke="midnightblue" points="944.826,-230.132 954.711,-226.322 944.607,-223.136 944.826,-230.132"/>
</g>
<!-- Node14 -->
<g id="node14" class="node"><title>Node14</title>
<g id="a_node14"><a xlink:href="../../d5/d07/classPHNodeIterator.html#a4cfa0490b6522394b13723c7db38a3a6" target="_top" xlink:title="PHNodeIterator::cd">
<polygon fill="none" stroke="black" points="1175,-126.5 1175,-145.5 1275,-145.5 1275,-126.5 1175,-126.5"/>
<text text-anchor="middle" x="1225" y="-133.5" font-family="FreeSans" font-size="10.00">PHNodeIterator::cd</text>
</a>
</g>
</g>
<!-- Node13&#45;&gt;Node14 -->
<g id="edge15" class="edge"><title>Node13&#45;&gt;Node14</title>
<path fill="none" stroke="midnightblue" d="M1107.56,-136C1126.56,-136 1146.64,-136 1164.68,-136"/>
<polygon fill="midnightblue" stroke="midnightblue" points="1164.75,-139.5 1174.75,-136 1164.75,-132.5 1164.75,-139.5"/>
</g>
<!-- Node18 -->
<g id="node18" class="node"><title>Node18</title>
<g id="a_node18"><a xlink:href="../../d5/d07/classPHNodeIterator.html#a2c183a75c6a6784f38ff15b6163eb7ee" target="_top" xlink:title="PHNodeIterator::addNode">
<polygon fill="none" stroke="black" points="1161,-220.5 1161,-239.5 1289,-239.5 1289,-220.5 1161,-220.5"/>
<text text-anchor="middle" x="1225" y="-227.5" font-family="FreeSans" font-size="10.00">PHNodeIterator::addNode</text>
</a>
</g>
</g>
<!-- Node13&#45;&gt;Node18 -->
<g id="edge19" class="edge"><title>Node13&#45;&gt;Node18</title>
<path fill="none" stroke="midnightblue" d="M1049.4,-151.214C1070.83,-168.196 1107.93,-195.342 1144,-211 1149.76,-213.499 1155.9,-215.701 1162.12,-217.633"/>
<polygon fill="midnightblue" stroke="midnightblue" points="1161.34,-221.051 1171.92,-220.451 1163.27,-214.323 1161.34,-221.051"/>
</g>
<!-- Node22 -->
<g id="node22" class="node"><title>Node22</title>
<g id="a_node22"><a xlink:href="../../d7/d4d/classPHNodeIOManager.html#a8be36f2013dddcf8026b0aeb9177dc7c" target="_top" xlink:title="PHNodeIOManager::getBranch\lClassName">
<polygon fill="none" stroke="black" points="1149.5,-77 1149.5,-107 1300.5,-107 1300.5,-77 1149.5,-77"/>
<text text-anchor="start" x="1157.5" y="-95" font-family="FreeSans" font-size="10.00">PHNodeIOManager::getBranch</text>
<text text-anchor="middle" x="1225" y="-84" font-family="FreeSans" font-size="10.00">ClassName</text>
</a>
</g>
</g>
<!-- Node13&#45;&gt;Node22 -->
<g id="edge24" class="edge"><title>Node13&#45;&gt;Node22</title>
<path fill="none" stroke="midnightblue" d="M1096.88,-120.981C1113.4,-117.214 1131.26,-113.143 1148.22,-109.276"/>
<polygon fill="midnightblue" stroke="midnightblue" points="1149.12,-112.661 1158.09,-107.026 1147.56,-105.837 1149.12,-112.661"/>
</g>
<!-- Node23 -->
<g id="node23" class="node"><title>Node23</title>
<g id="a_node23"><a xlink:href="../../d5/d07/classPHNodeIterator.html#aea98bf8619af59b1212a94fb32106baa" target="_top" xlink:title="PHNodeIterator::findFirst">
<polygon fill="none" stroke="black" points="1163,-164.5 1163,-183.5 1287,-183.5 1287,-164.5 1163,-164.5"/>
<text text-anchor="middle" x="1225" y="-171.5" font-family="FreeSans" font-size="10.00">PHNodeIterator::findFirst</text>
</a>
</g>
</g>
<!-- Node13&#45;&gt;Node23 -->
<g id="edge25" class="edge"><title>Node13&#45;&gt;Node23</title>
<path fill="none" stroke="midnightblue" d="M1107.28,-151.019C1126.75,-154.852 1147.37,-158.912 1165.77,-162.535"/>
<polygon fill="midnightblue" stroke="midnightblue" points="1165.26,-166.001 1175.75,-164.499 1166.61,-159.133 1165.26,-166.001"/>
</g>
<!-- Node24 -->
<g id="node24" class="node"><title>Node24</title>
<g id="a_node24"><a xlink:href="../../d1/d3e/classPHDataNode.html#a1f3b856fd3ce165047be8aa97f4ab9f3" target="_top" xlink:title="PHDataNode::getData">
<polygon fill="none" stroke="black" points="1168.5,-38.5 1168.5,-57.5 1281.5,-57.5 1281.5,-38.5 1168.5,-38.5"/>
<text text-anchor="middle" x="1225" y="-45.5" font-family="FreeSans" font-size="10.00">PHDataNode::getData</text>
</a>
</g>
</g>
<!-- Node13&#45;&gt;Node24 -->
<g id="edge29" class="edge"><title>Node13&#45;&gt;Node24</title>
<path fill="none" stroke="midnightblue" d="M1051.19,-120.947C1073.02,-105.34 1109.36,-81.2685 1144,-67 1150.12,-64.4798 1156.65,-62.2492 1163.23,-60.2861"/>
<polygon fill="midnightblue" stroke="midnightblue" points="1164.19,-63.6532 1172.88,-57.5986 1162.31,-56.9098 1164.19,-63.6532"/>
</g>
<!-- Node25 -->
<g id="node25" class="node"><title>Node25</title>
<g id="a_node25"><a xlink:href="../../dc/d82/classPHNode.html#a5efaced7ccd6df01fc40abbb07dfe61d" target="_top" xlink:title="PHNode::setObjectType">
<polygon fill="none" stroke="black" points="1164,-0.5 1164,-19.5 1286,-19.5 1286,-0.5 1164,-0.5"/>
<text text-anchor="middle" x="1225" y="-7.5" font-family="FreeSans" font-size="10.00">PHNode::setObjectType</text>
</a>
</g>
</g>
<!-- Node13&#45;&gt;Node25 -->
<g id="edge30" class="edge"><title>Node13&#45;&gt;Node25</title>
<path fill="none" stroke="midnightblue" d="M1042.41,-120.98C1061.03,-97.5759 1100.27,-52.6436 1144,-29 1148.25,-26.7022 1152.77,-24.6799 1157.43,-22.9004"/>
<polygon fill="midnightblue" stroke="midnightblue" points="1158.78,-26.1346 1167.11,-19.5782 1156.51,-19.5136 1158.78,-26.1346"/>
</g>
<!-- Node15 -->
<g id="node15" class="node"><title>Node15</title>
<g id="a_node15"><a xlink:href="../../dc/d82/classPHNode.html#a5c15cb20d02290b69eb4d7f6051c9722" target="_top" xlink:title="PHNode::getParent">
<polygon fill="none" stroke="black" points="1363.5,-88.5 1363.5,-107.5 1464.5,-107.5 1464.5,-88.5 1363.5,-88.5"/>
<text text-anchor="middle" x="1414" y="-95.5" font-family="FreeSans" font-size="10.00">PHNode::getParent</text>
</a>
</g>
</g>
<!-- Node14&#45;&gt;Node15 -->
<g id="edge16" class="edge"><title>Node14&#45;&gt;Node15</title>
<path fill="none" stroke="midnightblue" d="M1273.19,-126.411C1298.42,-121.284 1329.67,-114.933 1356.23,-109.537"/>
<polygon fill="midnightblue" stroke="midnightblue" points="1357.05,-112.941 1366.15,-107.52 1355.65,-106.082 1357.05,-112.941"/>
</g>
<!-- Node16 -->
<g id="node16" class="node"><title>Node16</title>
<g id="a_node16"><a xlink:href="../../dc/d82/classPHNode.html#a4ab1f90aed955a652813bfe377087bda" target="_top" xlink:title="PHNode::getType">
<polygon fill="none" stroke="black" points="1367.5,-164.5 1367.5,-183.5 1460.5,-183.5 1460.5,-164.5 1367.5,-164.5"/>
<text text-anchor="middle" x="1414" y="-171.5" font-family="FreeSans" font-size="10.00">PHNode::getType</text>
</a>
</g>
</g>
<!-- Node14&#45;&gt;Node16 -->
<g id="edge17" class="edge"><title>Node14&#45;&gt;Node16</title>
<path fill="none" stroke="midnightblue" d="M1273.19,-145.589C1298.8,-150.794 1330.63,-157.261 1357.44,-162.709"/>
<polygon fill="midnightblue" stroke="midnightblue" points="1356.94,-166.181 1367.44,-164.742 1358.34,-159.321 1356.94,-166.181"/>
</g>
<!-- Node17 -->
<g id="node17" class="node"><title>Node17</title>
<g id="a_node17"><a xlink:href="../../dc/d82/classPHNode.html#aca3576f926a4401eddc3d88bf0ce0de3" target="_top" xlink:title="PHNode::getName">
<polygon fill="none" stroke="black" points="1530,-202.5 1530,-221.5 1628,-221.5 1628,-202.5 1530,-202.5"/>
<text text-anchor="middle" x="1579" y="-209.5" font-family="FreeSans" font-size="10.00">PHNode::getName</text>
</a>
</g>
</g>
<!-- Node14&#45;&gt;Node17 -->
<g id="edge18" class="edge"><title>Node14&#45;&gt;Node17</title>
<path fill="none" stroke="midnightblue" d="M1275.25,-132.72C1328.55,-130.734 1415.4,-132.088 1486,-155 1513.24,-163.841 1540.66,-182.362 1558.39,-195.901"/>
<polygon fill="midnightblue" stroke="midnightblue" points="1556.69,-199.023 1566.72,-202.45 1561.02,-193.519 1556.69,-199.023"/>
</g>
<!-- Node19 -->
<g id="node19" class="node"><title>Node19</title>
<g id="a_node19"><a xlink:href="../../d5/dca/classPHCompositeNode.html#ac7dbf017614c324e218a001d729607bf" target="_top" xlink:title="PHCompositeNode::addNode">
<polygon fill="none" stroke="black" points="1342,-240.5 1342,-259.5 1486,-259.5 1486,-240.5 1342,-240.5"/>
<text text-anchor="middle" x="1414" y="-247.5" font-family="FreeSans" font-size="10.00">PHCompositeNode::addNode</text>
</a>
</g>
</g>
<!-- Node18&#45;&gt;Node19 -->
<g id="edge20" class="edge"><title>Node18&#45;&gt;Node19</title>
<path fill="none" stroke="midnightblue" d="M1289.05,-236.743C1302.7,-238.203 1317.32,-239.767 1331.57,-241.291"/>
<polygon fill="midnightblue" stroke="midnightblue" points="1331.54,-244.807 1341.85,-242.391 1332.28,-237.847 1331.54,-244.807"/>
</g>
<!-- Node19&#45;&gt;Node17 -->
<g id="edge21" class="edge"><title>Node19&#45;&gt;Node17</title>
<path fill="none" stroke="midnightblue" d="M1456.13,-240.411C1477.74,-235.374 1504.41,-229.156 1527.29,-223.823"/>
<polygon fill="midnightblue" stroke="midnightblue" points="1528.22,-227.199 1537.16,-221.52 1526.63,-220.382 1528.22,-227.199"/>
</g>
<!-- Node20 -->
<g id="node20" class="node"><title>Node20</title>
<g id="a_node20"><a xlink:href="../../dc/d82/classPHNode.html#adda2bd6cef2d5067bbe3016a990b7198" target="_top" xlink:title="PHNode::setParent">
<polygon fill="none" stroke="black" points="1528.5,-240.5 1528.5,-259.5 1629.5,-259.5 1629.5,-240.5 1528.5,-240.5"/>
<text text-anchor="middle" x="1579" y="-247.5" font-family="FreeSans" font-size="10.00">PHNode::setParent</text>
</a>
</g>
</g>
<!-- Node19&#45;&gt;Node20 -->
<g id="edge22" class="edge"><title>Node19&#45;&gt;Node20</title>
<path fill="none" stroke="midnightblue" d="M1486.02,-250C1496.7,-250 1507.63,-250 1518.05,-250"/>
<polygon fill="midnightblue" stroke="midnightblue" points="1518.27,-253.5 1528.27,-250 1518.27,-246.5 1518.27,-253.5"/>
</g>
<!-- Node21 -->
<g id="node21" class="node"><title>Node21</title>
<g id="a_node21"><a xlink:href="../../d6/d86/classPHPointerList.html#af5fc4e6958b5b90c57bfb497566f503c" target="_top" xlink:title="PHPointerList::append">
<polygon fill="none" stroke="black" points="1522,-278.5 1522,-297.5 1636,-297.5 1636,-278.5 1522,-278.5"/>
<text text-anchor="middle" x="1579" y="-285.5" font-family="FreeSans" font-size="10.00">PHPointerList::append</text>
</a>
</g>
</g>
<!-- Node19&#45;&gt;Node21 -->
<g id="edge23" class="edge"><title>Node19&#45;&gt;Node21</title>
<path fill="none" stroke="midnightblue" d="M1456.13,-259.589C1477.74,-264.626 1504.41,-270.844 1527.29,-276.177"/>
<polygon fill="midnightblue" stroke="midnightblue" points="1526.63,-279.618 1537.16,-278.48 1528.22,-272.801 1526.63,-279.618"/>
</g>
<!-- Node23&#45;&gt;Node16 -->
<g id="edge26" class="edge"><title>Node23&#45;&gt;Node16</title>
<path fill="none" stroke="midnightblue" d="M1287.23,-174C1309.76,-174 1335.14,-174 1357.17,-174"/>
<polygon fill="midnightblue" stroke="midnightblue" points="1357.36,-177.5 1367.36,-174 1357.36,-170.5 1357.36,-177.5"/>
</g>
<!-- Node23&#45;&gt;Node17 -->
<g id="edge27" class="edge"><title>Node23&#45;&gt;Node17</title>
<path fill="none" stroke="midnightblue" d="M1278.42,-183.521C1298.28,-186.883 1321.14,-190.456 1342,-193 1402.44,-200.37 1471.95,-205.573 1519.8,-208.648"/>
<polygon fill="midnightblue" stroke="midnightblue" points="1519.77,-212.153 1529.97,-209.291 1520.21,-205.167 1519.77,-212.153"/>
</g>
<!-- Node23&#45;&gt;Node23 -->
<g id="edge28" class="edge"><title>Node23&#45;&gt;Node23</title>
<path fill="none" stroke="midnightblue" d="M1196.02,-183.757C1181.93,-192.565 1191.59,-202 1225,-202 1247.97,-202 1259.72,-197.541 1260.23,-191.891"/>
<polygon fill="midnightblue" stroke="midnightblue" points="1262.85,-189.55 1253.98,-183.757 1257.3,-193.818 1262.85,-189.55"/>
</g>
<!-- Node27 -->
<g id="node27" class="node"><title>Node27</title>
<g id="a_node27"><a xlink:href="../../d5/d88/PHMessage_8cc.html#a04070e856fed35b20952495249e0357f" target="_top" xlink:title="PHMessage">
<polygon fill="none" stroke="black" points="1189.5,-258.5 1189.5,-277.5 1260.5,-277.5 1260.5,-258.5 1189.5,-258.5"/>
<text text-anchor="middle" x="1225" y="-265.5" font-family="FreeSans" font-size="10.00">PHMessage</text>
</a>
</g>
</g>
<!-- Node26&#45;&gt;Node27 -->
<g id="edge32" class="edge"><title>Node26&#45;&gt;Node27</title>
<path fill="none" stroke="midnightblue" d="M1096.88,-239.019C1124.02,-245.206 1154.76,-252.214 1179.21,-257.789"/>
<polygon fill="midnightblue" stroke="midnightblue" points="1178.75,-261.273 1189.28,-260.084 1180.3,-254.448 1178.75,-261.273"/>
</g>
<!-- Node28&#45;&gt;Node6 -->
<g id="edge34" class="edge"><title>Node28&#45;&gt;Node6</title>
<path fill="none" stroke="midnightblue" d="M302.796,-498.165C420.912,-484.524 655.783,-464.553 720,-512 762.393,-543.323 718.693,-587.765 756,-625 758.705,-627.699 761.698,-630.108 764.892,-632.256"/>
<polygon fill="midnightblue" stroke="midnightblue" points="763.341,-635.402 773.753,-637.359 766.834,-629.336 763.341,-635.402"/>
</g>
<!-- Node28&#45;&gt;Node10 -->
<g id="edge37" class="edge"><title>Node28&#45;&gt;Node10</title>
<path fill="none" stroke="midnightblue" d="M247.664,-522.19C276.698,-554.464 341.906,-626.945 342,-627 346.452,-629.636 351.227,-631.924 356.16,-633.911"/>
<polygon fill="midnightblue" stroke="midnightblue" points="355.205,-637.286 365.799,-637.372 357.57,-630.698 355.205,-637.286"/>
</g>
<!-- Node28&#45;&gt;Node11 -->
<g id="edge60" class="edge"><title>Node28&#45;&gt;Node11</title>
<path fill="none" stroke="midnightblue" d="M262.894,-522.121C299.865,-541.468 363.443,-574.74 399.654,-593.689"/>
<polygon fill="midnightblue" stroke="midnightblue" points="398.184,-596.87 408.667,-598.406 401.43,-590.668 398.184,-596.87"/>
</g>
<!-- Node28&#45;&gt;Node12 -->
<g id="edge57" class="edge"><title>Node28&#45;&gt;Node12</title>
<path fill="none" stroke="midnightblue" d="M243.453,-491.817C259.997,-466.71 296.78,-417.031 342,-394 493.059,-317.065 587.081,-448.215 720,-343 755.077,-315.234 722.382,-278.517 756,-249 758.544,-246.766 761.305,-244.784 764.221,-243.027"/>
<polygon fill="midnightblue" stroke="midnightblue" points="766.025,-246.037 773.367,-238.399 762.864,-239.791 766.025,-246.037"/>
</g>
<!-- Node29 -->
<g id="node29" class="node"><title>Node29</title>
<g id="a_node29"><a xlink:href="../../d7/d4d/classPHNodeIOManager.html#aecc6cb5d504ebfcf073084cc4dc79634" target="_top" xlink:title="PHNodeIOManager::GetBranchMap">
<polygon fill="none" stroke="black" points="342,-521.5 342,-540.5 514,-540.5 514,-521.5 342,-521.5"/>
<text text-anchor="middle" x="428" y="-528.5" font-family="FreeSans" font-size="10.00">PHNodeIOManager::GetBranchMap</text>
</a>
</g>
</g>
<!-- Node28&#45;&gt;Node29 -->
<g id="edge35" class="edge"><title>Node28&#45;&gt;Node29</title>
<path fill="none" stroke="midnightblue" d="M302.588,-515.529C314.813,-517.049 327.693,-518.651 340.344,-520.224"/>
<polygon fill="midnightblue" stroke="midnightblue" points="340.069,-523.717 350.425,-521.478 340.933,-516.77 340.069,-523.717"/>
</g>
<!-- Node31 -->
<g id="node31" class="node"><title>Node31</title>
<g id="a_node31"><a xlink:href="../../d7/d0b/classFun4AllDstInputManager.html#ae4e92b95ae50ab72856d06c99b043496" target="_top" xlink:title="Fun4AllDstInputManager\l::OpenNextFile">
<polygon fill="none" stroke="black" points="366,-434 366,-464 490,-464 490,-434 366,-434"/>
<text text-anchor="start" x="374" y="-452" font-family="FreeSans" font-size="10.00">Fun4AllDstInputManager</text>
<text text-anchor="middle" x="428" y="-441" font-family="FreeSans" font-size="10.00">::OpenNextFile</text>
</a>
</g>
</g>
<!-- Node28&#45;&gt;Node31 -->
<g id="edge38" class="edge"><title>Node28&#45;&gt;Node31</title>
<path fill="none" stroke="midnightblue" d="M283.953,-491.988C309.419,-484.335 340.57,-474.974 367.294,-466.943"/>
<polygon fill="midnightblue" stroke="midnightblue" points="368.352,-470.28 376.921,-464.05 366.337,-463.576 368.352,-470.28"/>
</g>
<!-- Node44 -->
<g id="node44" class="node"><title>Node44</title>
<g id="a_node44"><a xlink:href="../../d7/d4d/classPHNodeIOManager.html#a46838c856432158c96650747545e0645" target="_top" xlink:title="PHNodeIOManager::readSpecific">
<polygon fill="none" stroke="black" points="555,-395.5 555,-414.5 715,-414.5 715,-395.5 555,-395.5"/>
<text text-anchor="middle" x="635" y="-402.5" font-family="FreeSans" font-size="10.00">PHNodeIOManager::readSpecific</text>
</a>
</g>
</g>
<!-- Node28&#45;&gt;Node44 -->
<g id="edge58" class="edge"><title>Node28&#45;&gt;Node44</title>
<path fill="none" stroke="midnightblue" d="M247.963,-491.71C267.024,-472.014 303.271,-438.583 342,-424 406.83,-399.589 485.444,-395.793 544.763,-397.576"/>
<polygon fill="midnightblue" stroke="midnightblue" points="544.739,-401.078 554.858,-397.939 544.99,-394.082 544.739,-401.078"/>
</g>
<!-- Node30 -->
<g id="node30" class="node"><title>Node30</title>
<g id="a_node30"><a xlink:href="../../d7/d4d/classPHNodeIOManager.html#a30f1ed446167baeafca6e05b5fe25ed9" target="_top" xlink:title="PHNodeIOManager::FillBranchMap">
<polygon fill="none" stroke="black" points="550.5,-521.5 550.5,-540.5 719.5,-540.5 719.5,-521.5 550.5,-521.5"/>
<text text-anchor="middle" x="635" y="-528.5" font-family="FreeSans" font-size="10.00">PHNodeIOManager::FillBranchMap</text>
</a>
</g>
</g>
<!-- Node29&#45;&gt;Node30 -->
<g id="edge36" class="edge"><title>Node29&#45;&gt;Node30</title>
<path fill="none" stroke="midnightblue" d="M514.158,-531C522.776,-531 531.563,-531 540.265,-531"/>
<polygon fill="midnightblue" stroke="midnightblue" points="540.426,-534.5 550.426,-531 540.426,-527.5 540.426,-534.5"/>
</g>
<!-- Node32 -->
<g id="node32" class="node"><title>Node32</title>
<g id="a_node32"><a xlink:href="../../d7/d0b/classFun4AllDstInputManager.html#a4d32eadb9f77d41387656b87377ef14f" target="_top" xlink:title="Fun4AllDstInputManager\l::fileopen">
<polygon fill="none" stroke="black" points="573,-434 573,-464 697,-464 697,-434 573,-434"/>
<text text-anchor="start" x="581" y="-452" font-family="FreeSans" font-size="10.00">Fun4AllDstInputManager</text>
<text text-anchor="middle" x="635" y="-441" font-family="FreeSans" font-size="10.00">::fileopen</text>
</a>
</g>
</g>
<!-- Node31&#45;&gt;Node32 -->
<g id="edge39" class="edge"><title>Node31&#45;&gt;Node32</title>
<path fill="none" stroke="midnightblue" d="M490.229,-449C512.942,-449 538.9,-449 562.453,-449"/>
<polygon fill="midnightblue" stroke="midnightblue" points="562.732,-452.5 572.732,-449 562.732,-445.5 562.732,-452.5"/>
</g>
<!-- Node32&#45;&gt;Node6 -->
<g id="edge41" class="edge"><title>Node32&#45;&gt;Node6</title>
<path fill="none" stroke="midnightblue" d="M697.366,-462.705C705.848,-466.796 713.771,-472.106 720,-479 764.805,-528.589 710.296,-576.238 756,-625 758.744,-627.927 761.827,-630.514 765.144,-632.798"/>
<polygon fill="midnightblue" stroke="midnightblue" points="763.412,-635.84 773.809,-637.879 766.953,-629.802 763.412,-635.84"/>
</g>
<!-- Node32&#45;&gt;Node12 -->
<g id="edge50" class="edge"><title>Node32&#45;&gt;Node12</title>
<path fill="none" stroke="midnightblue" d="M697.099,-438.958C705.615,-435.371 713.619,-430.529 720,-424 762.501,-380.509 722.38,-342.67 756,-292 769.216,-272.082 790.935,-255.716 808.258,-244.81"/>
<polygon fill="midnightblue" stroke="midnightblue" points="810.103,-247.784 816.848,-239.614 806.48,-241.795 810.103,-247.784"/>
</g>
<!-- Node33 -->
<g id="node33" class="node"><title>Node33</title>
<g id="a_node33"><a xlink:href="../../d4/da9/classFun4AllInputManager.html#a98ac3fb04956625a423ef41a3909ba27" target="_top" xlink:title="Fun4AllInputManager\l::AddToFileOpened">
<polygon fill="none" stroke="black" points="781.5,-498 781.5,-528 890.5,-528 890.5,-498 781.5,-498"/>
<text text-anchor="start" x="789.5" y="-516" font-family="FreeSans" font-size="10.00">Fun4AllInputManager</text>
<text text-anchor="middle" x="836" y="-505" font-family="FreeSans" font-size="10.00">::AddToFileOpened</text>
</a>
</g>
</g>
<!-- Node32&#45;&gt;Node33 -->
<g id="edge40" class="edge"><title>Node32&#45;&gt;Node33</title>
<path fill="none" stroke="midnightblue" d="M682.13,-464.085C704.432,-471.354 731.594,-480.173 756,-488 762.969,-490.235 770.288,-492.569 777.543,-494.875"/>
<polygon fill="midnightblue" stroke="midnightblue" points="776.767,-498.3 787.357,-497.989 778.884,-491.628 776.767,-498.3"/>
</g>
<!-- Node34 -->
<g id="node34" class="node"><title>Node34</title>
<g id="a_node34"><a xlink:href="../../df/d35/classRunHeader.html#a73da574a4faeef5c0797024e8a7a534f" target="_top" xlink:title="get Run Number ">
<polygon fill="none" stroke="black" points="766,-410.5 766,-429.5 906,-429.5 906,-410.5 766,-410.5"/>
<text text-anchor="middle" x="836" y="-417.5" font-family="FreeSans" font-size="10.00">RunHeader::get_RunNumber</text>
</a>
</g>
</g>
<!-- Node32&#45;&gt;Node34 -->
<g id="edge42" class="edge"><title>Node32&#45;&gt;Node34</title>
<path fill="none" stroke="midnightblue" d="M697.059,-440.102C716.794,-437.226 738.914,-434.003 759.562,-430.993"/>
<polygon fill="midnightblue" stroke="midnightblue" points="760.173,-434.441 769.564,-429.536 759.164,-427.515 760.173,-434.441"/>
</g>
<!-- Node35 -->
<g id="node35" class="node"><title>Node35</title>
<g id="a_node35"><a xlink:href="../../da/d29/classFun4AllServer.html#ac42fd391b795d9605811abb9394c2011" target="_top" xlink:title="Fun4AllServer::getNode">
<polygon fill="none" stroke="black" points="970.5,-296.5 970.5,-315.5 1089.5,-315.5 1089.5,-296.5 970.5,-296.5"/>
<text text-anchor="middle" x="1030" y="-303.5" font-family="FreeSans" font-size="10.00">Fun4AllServer::getNode</text>
</a>
</g>
</g>
<!-- Node32&#45;&gt;Node35 -->
<g id="edge43" class="edge"><title>Node32&#45;&gt;Node35</title>
<path fill="none" stroke="midnightblue" d="M697.064,-438.308C705.482,-434.803 713.466,-430.156 720,-424 754.076,-391.894 718.608,-353.176 756,-325 820.564,-276.349 919.909,-283.978 979.275,-294.565"/>
<polygon fill="midnightblue" stroke="midnightblue" points="978.688,-298.016 989.162,-296.422 979.98,-291.136 978.688,-298.016"/>
</g>
<!-- Node37 -->
<g id="node37" class="node"><title>Node37</title>
<g id="a_node37"><a xlink:href="../../da/d29/classFun4AllServer.html#a3e55156f91b2c94bb6c4ef33ffce587a" target="_top" xlink:title="Fun4AllServer::instance">
<polygon fill="none" stroke="black" points="776.5,-372.5 776.5,-391.5 895.5,-391.5 895.5,-372.5 776.5,-372.5"/>
<text text-anchor="middle" x="836" y="-379.5" font-family="FreeSans" font-size="10.00">Fun4AllServer::instance</text>
</a>
</g>
</g>
<!-- Node32&#45;&gt;Node37 -->
<g id="edge47" class="edge"><title>Node32&#45;&gt;Node37</title>
<path fill="none" stroke="midnightblue" d="M694.615,-433.855C703.274,-430.96 711.974,-427.67 720,-424 737.267,-416.104 738.529,-408.434 756,-401 761.878,-398.499 768.148,-396.289 774.487,-394.344"/>
<polygon fill="midnightblue" stroke="midnightblue" points="775.802,-397.609 784.461,-391.503 773.884,-390.876 775.802,-397.609"/>
</g>
<!-- Node38 -->
<g id="node38" class="node"><title>Node38</title>
<g id="a_node38"><a xlink:href="../../d7/d4d/classPHNodeIOManager.html#a7fcd787c0049e4476b2534299b801b47" target="_top" xlink:title="PHNodeIOManager::isFunctional">
<polygon fill="none" stroke="black" points="756.5,-334.5 756.5,-353.5 915.5,-353.5 915.5,-334.5 756.5,-334.5"/>
<text text-anchor="middle" x="836" y="-341.5" font-family="FreeSans" font-size="10.00">PHNodeIOManager::isFunctional</text>
</a>
</g>
</g>
<!-- Node32&#45;&gt;Node38 -->
<g id="edge48" class="edge"><title>Node32&#45;&gt;Node38</title>
<path fill="none" stroke="midnightblue" d="M697.408,-436.674C705.491,-433.395 713.287,-429.247 720,-424 744.802,-404.613 730.69,-381.72 756,-363 758.527,-361.131 761.213,-359.443 764.01,-357.92"/>
<polygon fill="midnightblue" stroke="midnightblue" points="765.692,-360.997 773.267,-353.59 762.726,-354.656 765.692,-360.997"/>
</g>
<!-- Node39 -->
<g id="node39" class="node"><title>Node39</title>
<g id="a_node39"><a xlink:href="../../d7/d4d/classPHNodeIOManager.html#a2be363482604b6f51d9335d75b72a8ff" target="_top" xlink:title="PHNodeIOManager::print">
<polygon fill="none" stroke="black" points="773.5,-596.5 773.5,-615.5 898.5,-615.5 898.5,-596.5 773.5,-596.5"/>
<text text-anchor="middle" x="836" y="-603.5" font-family="FreeSans" font-size="10.00">PHNodeIOManager::print</text>
</a>
</g>
</g>
<!-- Node32&#45;&gt;Node39 -->
<g id="edge49" class="edge"><title>Node32&#45;&gt;Node39</title>
<path fill="none" stroke="midnightblue" d="M697.301,-463.371C705.688,-467.372 713.6,-472.48 720,-479 755.15,-514.805 719.188,-551.905 756,-586 758.491,-588.307 761.21,-590.358 764.091,-592.179"/>
<polygon fill="midnightblue" stroke="midnightblue" points="762.683,-595.394 773.158,-596.985 765.961,-589.209 762.683,-595.394"/>
</g>
<!-- Node40 -->
<g id="node40" class="node"><title>Node40</title>
<g id="a_node40"><a xlink:href="../../d7/d0b/classFun4AllDstInputManager.html#ae18b1ca89168aab89e6a9b867951f8ce" target="_top" xlink:title="Fun4AllDstInputManager\l::setBranches">
<polygon fill="none" stroke="black" points="774,-449 774,-479 898,-479 898,-449 774,-449"/>
<text text-anchor="start" x="782" y="-467" font-family="FreeSans" font-size="10.00">Fun4AllDstInputManager</text>
<text text-anchor="middle" x="836" y="-456" font-family="FreeSans" font-size="10.00">::setBranches</text>
</a>
</g>
</g>
<!-- Node32&#45;&gt;Node40 -->
<g id="edge51" class="edge"><title>Node32&#45;&gt;Node40</title>
<path fill="none" stroke="midnightblue" d="M697.059,-453.602C718.067,-455.186 741.778,-456.973 763.539,-458.614"/>
<polygon fill="midnightblue" stroke="midnightblue" points="763.479,-462.119 773.714,-459.38 764.005,-455.139 763.479,-462.119"/>
</g>
<!-- Node43 -->
<g id="node43" class="node"><title>Node43</title>
<g id="a_node43"><a xlink:href="../../d4/da9/classFun4AllInputManager.html#af9bf7d76be5d2c0b10843ae734da9bbb" target="_top" xlink:title="Fun4AllInputManager\l::SetRunNumber">
<polygon fill="none" stroke="black" points="781.5,-547 781.5,-577 890.5,-577 890.5,-547 781.5,-547"/>
<text text-anchor="start" x="789.5" y="-565" font-family="FreeSans" font-size="10.00">Fun4AllInputManager</text>
<text text-anchor="middle" x="836" y="-554" font-family="FreeSans" font-size="10.00">::SetRunNumber</text>
</a>
</g>
</g>
<!-- Node32&#45;&gt;Node43 -->
<g id="edge56" class="edge"><title>Node32&#45;&gt;Node43</title>
<path fill="none" stroke="midnightblue" d="M694.735,-464.183C703.75,-468.1 712.529,-472.969 720,-479 743.607,-498.058 732.049,-518.377 756,-537 760.919,-540.825 766.435,-544.071 772.205,-546.824"/>
<polygon fill="midnightblue" stroke="midnightblue" points="770.86,-550.056 781.432,-550.759 773.606,-543.617 770.86,-550.056"/>
</g>
<!-- Node35&#45;&gt;Node19 -->
<g id="edge46" class="edge"><title>Node35&#45;&gt;Node19</title>
<path fill="none" stroke="midnightblue" d="M1089.54,-306.402C1145.63,-305.746 1232.38,-301.997 1306,-287 1332.1,-281.683 1360.56,-271.624 1381.56,-263.336"/>
<polygon fill="midnightblue" stroke="midnightblue" points="1382.97,-266.541 1390.94,-259.557 1380.35,-260.048 1382.97,-266.541"/>
</g>
<!-- Node35&#45;&gt;Node23 -->
<g id="edge45" class="edge"><title>Node35&#45;&gt;Node23</title>
<path fill="none" stroke="midnightblue" d="M1045.13,-296.345C1060.97,-285.302 1087.16,-266.368 1108,-248 1125.21,-232.831 1125.28,-224.259 1144,-211 1157.29,-201.588 1173.36,-193.606 1187.6,-187.492"/>
<polygon fill="midnightblue" stroke="midnightblue" points="1189.2,-190.617 1197.11,-183.564 1186.53,-184.148 1189.2,-190.617"/>
</g>
<!-- Node36 -->
<g id="node36" class="node"><title>Node36</title>
<g id="a_node36"><a xlink:href="../../da/d29/classFun4AllServer.html#abcaf6825367e5db292ff795237bdcf62" target="_top" xlink:title="Fun4AllServer::topNode">
<polygon fill="none" stroke="black" points="1165.5,-334.5 1165.5,-353.5 1284.5,-353.5 1284.5,-334.5 1165.5,-334.5"/>
<text text-anchor="middle" x="1225" y="-341.5" font-family="FreeSans" font-size="10.00">Fun4AllServer::topNode</text>
</a>
</g>
</g>
<!-- Node35&#45;&gt;Node36 -->
<g id="edge44" class="edge"><title>Node35&#45;&gt;Node36</title>
<path fill="none" stroke="midnightblue" d="M1079.7,-315.589C1105.86,-320.739 1138.28,-327.123 1165.77,-332.534"/>
<polygon fill="midnightblue" stroke="midnightblue" points="1165.16,-335.982 1175.65,-334.48 1166.51,-329.114 1165.16,-335.982"/>
</g>
<!-- Node40&#45;&gt;Node7 -->
<g id="edge52" class="edge"><title>Node40&#45;&gt;Node7</title>
<path fill="none" stroke="midnightblue" d="M898.091,-477.952C904.438,-480.725 910.55,-484.04 916,-488 968.796,-526.36 1005.54,-597.216 1020.93,-631.052"/>
<polygon fill="midnightblue" stroke="midnightblue" points="1017.76,-632.557 1025.01,-640.288 1024.17,-629.727 1017.76,-632.557"/>
</g>
<!-- Node41 -->
<g id="node41" class="node"><title>Node41</title>
<g id="a_node41"><a xlink:href="../../d7/d4d/classPHNodeIOManager.html#a7f701a7b25803133c586853f87454a3a" target="_top" xlink:title="PHNodeIOManager::selectObject\lToRead">
<polygon fill="none" stroke="black" points="1144.5,-449 1144.5,-479 1305.5,-479 1305.5,-449 1144.5,-449"/>
<text text-anchor="start" x="1152.5" y="-467" font-family="FreeSans" font-size="10.00">PHNodeIOManager::selectObject</text>
<text text-anchor="middle" x="1225" y="-456" font-family="FreeSans" font-size="10.00">ToRead</text>
</a>
</g>
</g>
<!-- Node40&#45;&gt;Node41 -->
<g id="edge53" class="edge"><title>Node40&#45;&gt;Node41</title>
<path fill="none" stroke="midnightblue" d="M898.172,-465.261C915.565,-465.566 934.528,-465.848 952,-466 1021.33,-466.603 1038.67,-466.598 1108,-466 1116.56,-465.926 1125.48,-465.822 1134.39,-465.699"/>
<polygon fill="midnightblue" stroke="midnightblue" points="1134.49,-469.198 1144.44,-465.553 1134.39,-462.199 1134.49,-469.198"/>
</g>
<!-- Node42 -->
<g id="node42" class="node"><title>Node42</title>
<g id="a_node42"><a xlink:href="../../d7/d0b/classFun4AllDstInputManager.html#a22bc575e2e8b3b72e67523a694acbf22" target="_top" xlink:title="Fun4AllDstInputManager\l::setSyncBranches">
<polygon fill="none" stroke="black" points="968,-427 968,-457 1092,-457 1092,-427 968,-427"/>
<text text-anchor="start" x="976" y="-445" font-family="FreeSans" font-size="10.00">Fun4AllDstInputManager</text>
<text text-anchor="middle" x="1030" y="-434" font-family="FreeSans" font-size="10.00">::setSyncBranches</text>
</a>
</g>
</g>
<!-- Node40&#45;&gt;Node42 -->
<g id="edge54" class="edge"><title>Node40&#45;&gt;Node42</title>
<path fill="none" stroke="midnightblue" d="M898.014,-457.009C916.996,-454.834 938.091,-452.417 957.71,-450.169"/>
<polygon fill="midnightblue" stroke="midnightblue" points="958.279,-453.626 967.815,-449.011 957.482,-446.672 958.279,-453.626"/>
</g>
<!-- Node42&#45;&gt;Node41 -->
<g id="edge55" class="edge"><title>Node42&#45;&gt;Node41</title>
<path fill="none" stroke="midnightblue" d="M1092.07,-448.961C1105.4,-450.48 1119.77,-452.119 1133.96,-453.737"/>
<polygon fill="midnightblue" stroke="midnightblue" points="1133.91,-457.254 1144.25,-454.909 1134.71,-450.299 1133.91,-457.254"/>
</g>
<!-- Node44&#45;&gt;Node27 -->
<g id="edge59" class="edge"><title>Node44&#45;&gt;Node27</title>
<path fill="none" stroke="midnightblue" d="M696.165,-395.398C704.904,-391.955 713.221,-387.296 720,-381 753.998,-349.421 718.381,-310.164 756,-283 822.585,-234.92 1075.62,-253.394 1179.29,-263.314"/>
<polygon fill="midnightblue" stroke="midnightblue" points="1179.14,-266.815 1189.43,-264.302 1179.82,-259.848 1179.14,-266.815"/>
</g>
</g>
</svg>
