<?xml version="1.0" encoding="UTF-8" standalone="no"?>
<!DOCTYPE svg PUBLIC "-//W3C//DTD SVG 1.1//EN"
 "http://www.w3.org/Graphics/SVG/1.1/DTD/svg11.dtd">
<!-- Generated by graphviz version 2.36.0 (20140111.2315)
 -->
<!-- Title: Fun4AllDstInputManager::PushBackEvents Pages: 1 -->
<svg width="326pt" height="87pt"
 viewBox="0.00 0.00 326.00 87.00" xmlns="http://www.w3.org/2000/svg" xmlns:xlink="http://www.w3.org/1999/xlink">
<g id="graph0" class="graph" transform="scale(1 1) rotate(0) translate(4 83)">
<title>Fun4AllDstInputManager::PushBackEvents</title>
<!-- Node1 -->
<g id="node1" class="node"><title>Node1</title>
<polygon fill="#bfbfbf" stroke="black" points="0,-24 0,-54 124,-54 124,-24 0,-24"/>
<text text-anchor="start" x="8" y="-42" font-family="FreeSans" font-size="10.00">Fun4AllDstInputManager</text>
<text text-anchor="middle" x="62" y="-31" font-family="FreeSans" font-size="10.00">::PushBackEvents</text>
</g>
<!-- Node2 -->
<g id="node2" class="node"><title>Node2</title>
<g id="a_node2"><a xlink:href="../../dd/df1/classFun4AllNoSyncDstInputManager.html#a1bbc8ee6a94e265a5790e2ff5c365650" target="_top" xlink:title="Fun4AllNoSyncDstInputManager\l::NoSyncPushBackEvents">
<polygon fill="none" stroke="black" points="160,-49 160,-79 318,-79 318,-49 160,-49"/>
<text text-anchor="start" x="168" y="-67" font-family="FreeSans" font-size="10.00">Fun4AllNoSyncDstInputManager</text>
<text text-anchor="middle" x="239" y="-56" font-family="FreeSans" font-size="10.00">::NoSyncPushBackEvents</text>
</a>
</g>
</g>
<!-- Node1&#45;&gt;Node2 -->
<g id="edge1" class="edge"><title>Node1&#45;&gt;Node2</title>
<path fill="none" stroke="midnightblue" d="M134.353,-49.1933C142.774,-50.3963 151.401,-51.6288 159.909,-52.8441"/>
<polygon fill="midnightblue" stroke="midnightblue" points="134.601,-45.6933 124.207,-47.7438 133.611,-52.6229 134.601,-45.6933"/>
</g>
<!-- Node3 -->
<g id="node3" class="node"><title>Node3</title>
<g id="a_node3"><a xlink:href="../../d7/d0b/classFun4AllDstInputManager.html#a0244c2edbaa2350038304b09f352c2d0" target="_top" xlink:title="Fun4AllDstInputManager\l::SyncIt">
<polygon fill="none" stroke="black" points="177,-0 177,-30 301,-30 301,-0 177,-0"/>
<text text-anchor="start" x="185" y="-18" font-family="FreeSans" font-size="10.00">Fun4AllDstInputManager</text>
<text text-anchor="middle" x="239" y="-7" font-family="FreeSans" font-size="10.00">::SyncIt</text>
</a>
</g>
</g>
<!-- Node1&#45;&gt;Node3 -->
<g id="edge2" class="edge"><title>Node1&#45;&gt;Node3</title>
<path fill="none" stroke="midnightblue" d="M134.344,-29.2157C148.437,-27.283 163.108,-25.2708 176.828,-23.3893"/>
<polygon fill="midnightblue" stroke="midnightblue" points="133.638,-25.7796 124.207,-30.606 134.589,-32.7147 133.638,-25.7796"/>
</g>
</g>
</svg>
