<?xml version="1.0" encoding="UTF-8" standalone="no"?>
<!DOCTYPE svg PUBLIC "-//W3C//DTD SVG 1.1//EN"
 "http://www.w3.org/Graphics/SVG/1.1/DTD/svg11.dtd">
<!-- Generated by graphviz version 2.36.0 (20140111.2315)
 -->
<!-- Title: Fun4AllDstInputManager::fileclose Pages: 1 -->
<svg width="790pt" height="125pt"
 viewBox="0.00 0.00 790.00 125.21" xmlns="http://www.w3.org/2000/svg" xmlns:xlink="http://www.w3.org/1999/xlink">
<g id="graph0" class="graph" transform="scale(1 1) rotate(0) translate(4 121.206)">
<title>Fun4AllDstInputManager::fileclose</title>
<!-- Node1 -->
<g id="node1" class="node"><title>Node1</title>
<polygon fill="#bfbfbf" stroke="black" points="0,-48.9105 0,-78.9105 124,-78.9105 124,-48.9105 0,-48.9105"/>
<text text-anchor="start" x="8" y="-66.9105" font-family="FreeSans" font-size="10.00">Fun4AllDstInputManager</text>
<text text-anchor="middle" x="62" y="-55.9105" font-family="FreeSans" font-size="10.00">::fileclose</text>
</g>
<!-- Node2 -->
<g id="node2" class="node"><title>Node2</title>
<g id="a_node2"><a xlink:href="../../d7/d0b/classFun4AllDstInputManager.html#a4d32eadb9f77d41387656b87377ef14f" target="_top" xlink:title="Fun4AllDstInputManager\l::fileopen">
<polygon fill="none" stroke="black" points="160,-26.9105 160,-56.9105 284,-56.9105 284,-26.9105 160,-26.9105"/>
<text text-anchor="start" x="168" y="-44.9105" font-family="FreeSans" font-size="10.00">Fun4AllDstInputManager</text>
<text text-anchor="middle" x="222" y="-33.9105" font-family="FreeSans" font-size="10.00">::fileopen</text>
</a>
</g>
</g>
<!-- Node1&#45;&gt;Node2 -->
<g id="edge1" class="edge"><title>Node1&#45;&gt;Node2</title>
<path fill="none" stroke="midnightblue" d="M134.086,-54.0125C142.673,-52.8168 151.387,-51.6035 159.815,-50.4299"/>
<polygon fill="midnightblue" stroke="midnightblue" points="133.509,-50.559 124.087,-55.4047 134.474,-57.4921 133.509,-50.559"/>
</g>
<!-- Node4 -->
<g id="node4" class="node"><title>Node4</title>
<g id="a_node4"><a xlink:href="../../d7/d0b/classFun4AllDstInputManager.html#aeafa0248f9050c13fdae1bcb93336d7a" target="_top" xlink:title="Fun4AllDstInputManager::run">
<polygon fill="none" stroke="black" points="480,-76.4105 480,-95.4105 622,-95.4105 622,-76.4105 480,-76.4105"/>
<text text-anchor="middle" x="551" y="-83.4105" font-family="FreeSans" font-size="10.00">Fun4AllDstInputManager::run</text>
</a>
</g>
</g>
<!-- Node1&#45;&gt;Node4 -->
<g id="edge7" class="edge"><title>Node1&#45;&gt;Node4</title>
<path fill="none" stroke="midnightblue" d="M134.304,-67.1316C226.886,-71.314 387.489,-78.5692 479.617,-82.731"/>
<polygon fill="midnightblue" stroke="midnightblue" points="134.334,-63.6295 124.186,-66.6746 134.018,-70.6224 134.334,-63.6295"/>
</g>
<!-- Node5 -->
<g id="node5" class="node"><title>Node5</title>
<g id="a_node5"><a xlink:href="../../d7/d0b/classFun4AllDstInputManager.html#ade26017b627e0e1f1ec0dec62ac7fd52" target="_top" xlink:title="Fun4AllDstInputManager\l::ReadNextEventSyncObject">
<polygon fill="none" stroke="black" points="481.5,-26.9105 481.5,-56.9105 620.5,-56.9105 620.5,-26.9105 481.5,-26.9105"/>
<text text-anchor="start" x="489.5" y="-44.9105" font-family="FreeSans" font-size="10.00">Fun4AllDstInputManager</text>
<text text-anchor="middle" x="551" y="-33.9105" font-family="FreeSans" font-size="10.00">::ReadNextEventSyncObject</text>
</a>
</g>
</g>
<!-- Node1&#45;&gt;Node5 -->
<g id="edge6" class="edge"><title>Node1&#45;&gt;Node5</title>
<path fill="none" stroke="midnightblue" d="M95.5897,-43.53C113.795,-33.3496 137.324,-22.1148 160,-16.9105 283.024,11.3243 318.623,-2.3256 444,-16.9105 461.466,-18.9424 480.231,-22.7973 497.047,-26.8825"/>
<polygon fill="midnightblue" stroke="midnightblue" points="93.5027,-40.6931 86.5875,-48.72 96.999,-46.7574 93.5027,-40.6931"/>
</g>
<!-- Node6 -->
<g id="node6" class="node"><title>Node6</title>
<g id="a_node6"><a xlink:href="../../d7/d0b/classFun4AllDstInputManager.html#a0244c2edbaa2350038304b09f352c2d0" target="_top" xlink:title="Fun4AllDstInputManager\l::SyncIt">
<polygon fill="none" stroke="black" points="658,-67.9105 658,-97.9105 782,-97.9105 782,-67.9105 658,-67.9105"/>
<text text-anchor="start" x="666" y="-85.9105" font-family="FreeSans" font-size="10.00">Fun4AllDstInputManager</text>
<text text-anchor="middle" x="720" y="-74.9105" font-family="FreeSans" font-size="10.00">::SyncIt</text>
</a>
</g>
</g>
<!-- Node1&#45;&gt;Node6 -->
<g id="edge8" class="edge"><title>Node1&#45;&gt;Node6</title>
<path fill="none" stroke="midnightblue" d="M132.222,-81.0563C141.517,-82.9334 150.96,-84.6259 160,-85.9105 363.463,-114.825 417.77,-127.78 622,-104.911 635.214,-103.431 649.254,-100.851 662.428,-97.9666"/>
<polygon fill="midnightblue" stroke="midnightblue" points="132.726,-77.5859 122.22,-78.9576 131.289,-84.4367 132.726,-77.5859"/>
</g>
<!-- Node3 -->
<g id="node3" class="node"><title>Node3</title>
<g id="a_node3"><a xlink:href="../../d7/d0b/classFun4AllDstInputManager.html#ae4e92b95ae50ab72856d06c99b043496" target="_top" xlink:title="Fun4AllDstInputManager\l::OpenNextFile">
<polygon fill="none" stroke="black" points="320,-26.9105 320,-56.9105 444,-56.9105 444,-26.9105 320,-26.9105"/>
<text text-anchor="start" x="328" y="-44.9105" font-family="FreeSans" font-size="10.00">Fun4AllDstInputManager</text>
<text text-anchor="middle" x="382" y="-33.9105" font-family="FreeSans" font-size="10.00">::OpenNextFile</text>
</a>
</g>
</g>
<!-- Node2&#45;&gt;Node3 -->
<g id="edge2" class="edge"><title>Node2&#45;&gt;Node3</title>
<path fill="none" stroke="midnightblue" d="M294.366,-41.9105C302.863,-41.9105 311.478,-41.9105 319.815,-41.9105"/>
<polygon fill="midnightblue" stroke="midnightblue" points="294.087,-38.4106 284.087,-41.9105 294.087,-45.4106 294.087,-38.4106"/>
</g>
<!-- Node3&#45;&gt;Node4 -->
<g id="edge3" class="edge"><title>Node3&#45;&gt;Node4</title>
<path fill="none" stroke="midnightblue" d="M449.874,-59.5299C471.642,-65.2652 494.981,-71.4146 513.646,-76.3322"/>
<polygon fill="midnightblue" stroke="midnightblue" points="450.567,-56.0931 440.005,-56.9298 448.783,-62.8621 450.567,-56.0931"/>
</g>
<!-- Node3&#45;&gt;Node5 -->
<g id="edge4" class="edge"><title>Node3&#45;&gt;Node5</title>
<path fill="none" stroke="midnightblue" d="M454.291,-41.9105C463.291,-41.9105 472.483,-41.9105 481.438,-41.9105"/>
<polygon fill="midnightblue" stroke="midnightblue" points="454.236,-38.4106 444.236,-41.9105 454.236,-45.4106 454.236,-38.4106"/>
</g>
<!-- Node5&#45;&gt;Node6 -->
<g id="edge5" class="edge"><title>Node5&#45;&gt;Node6</title>
<path fill="none" stroke="midnightblue" d="M623.233,-59.399C634.728,-62.221 646.539,-65.1208 657.771,-67.8783"/>
<polygon fill="midnightblue" stroke="midnightblue" points="623.782,-55.9299 613.236,-56.9446 622.113,-62.728 623.782,-55.9299"/>
</g>
</g>
</svg>
