<?xml version="1.0" encoding="UTF-8" standalone="no"?>
<!DOCTYPE svg PUBLIC "-//W3C//DTD SVG 1.1//EN"
 "http://www.w3.org/Graphics/SVG/1.1/DTD/svg11.dtd">
<!-- Generated by graphviz version 2.36.0 (20140111.2315)
 -->
<!-- Title: Fun4AllDstInputManager::fileopen Pages: 1 -->
<svg width="1048pt" height="480pt"
 viewBox="0.00 0.00 1048.00 480.00" xmlns="http://www.w3.org/2000/svg" xmlns:xlink="http://www.w3.org/1999/xlink">
<g id="graph0" class="graph" transform="scale(1 1) rotate(0) translate(4 476)">
<title>Fun4AllDstInputManager::fileopen</title>
<!-- Node1 -->
<g id="node1" class="node"><title>Node1</title>
<polygon fill="#bfbfbf" stroke="black" points="0,-199 0,-229 124,-229 124,-199 0,-199"/>
<text text-anchor="start" x="8" y="-217" font-family="FreeSans" font-size="10.00">Fun4AllDstInputManager</text>
<text text-anchor="middle" x="62" y="-206" font-family="FreeSans" font-size="10.00">::fileopen</text>
</g>
<!-- Node2 -->
<g id="node2" class="node"><title>Node2</title>
<g id="a_node2"><a xlink:href="../../d4/da9/classFun4AllInputManager.html#a98ac3fb04956625a423ef41a3909ba27" target="_top" xlink:title="Fun4AllInputManager\l::AddToFileOpened">
<polygon fill="none" stroke="black" points="185.5,-376 185.5,-406 294.5,-406 294.5,-376 185.5,-376"/>
<text text-anchor="start" x="193.5" y="-394" font-family="FreeSans" font-size="10.00">Fun4AllInputManager</text>
<text text-anchor="middle" x="240" y="-383" font-family="FreeSans" font-size="10.00">::AddToFileOpened</text>
</a>
</g>
</g>
<!-- Node1&#45;&gt;Node2 -->
<g id="edge1" class="edge"><title>Node1&#45;&gt;Node2</title>
<path fill="none" stroke="midnightblue" d="M69.1652,-229.166C81.8675,-258.621 113.698,-323.922 160,-361 164.96,-364.972 170.503,-368.459 176.29,-371.51"/>
<polygon fill="midnightblue" stroke="midnightblue" points="175.006,-374.777 185.535,-375.956 178.039,-368.468 175.006,-374.777"/>
</g>
<!-- Node3 -->
<g id="node3" class="node"><title>Node3</title>
<g id="a_node3"><a xlink:href="../../d7/d0b/classFun4AllDstInputManager.html#acc1f41cde35bb897b779bea7fb452e78" target="_top" xlink:title="Fun4AllDstInputManager\l::fileclose">
<polygon fill="none" stroke="black" points="178,-98 178,-128 302,-128 302,-98 178,-98"/>
<text text-anchor="start" x="186" y="-116" font-family="FreeSans" font-size="10.00">Fun4AllDstInputManager</text>
<text text-anchor="middle" x="240" y="-105" font-family="FreeSans" font-size="10.00">::fileclose</text>
</a>
</g>
</g>
<!-- Node1&#45;&gt;Node3 -->
<g id="edge2" class="edge"><title>Node1&#45;&gt;Node3</title>
<path fill="none" stroke="midnightblue" d="M78.5626,-198.876C96.7509,-181.935 128.402,-154.674 160,-138 164.23,-135.768 168.695,-133.694 173.26,-131.774"/>
<polygon fill="midnightblue" stroke="midnightblue" points="174.707,-134.966 182.733,-128.05 172.146,-128.452 174.707,-134.966"/>
</g>
<!-- Node5 -->
<g id="node5" class="node"><title>Node5</title>
<g id="a_node5"><a xlink:href="../../df/d35/classRunHeader.html#a73da574a4faeef5c0797024e8a7a534f" target="_top" xlink:title="get Run Number ">
<polygon fill="none" stroke="black" points="170,-299.5 170,-318.5 310,-318.5 310,-299.5 170,-299.5"/>
<text text-anchor="middle" x="240" y="-306.5" font-family="FreeSans" font-size="10.00">RunHeader::get_RunNumber</text>
</a>
</g>
</g>
<!-- Node1&#45;&gt;Node5 -->
<g id="edge4" class="edge"><title>Node1&#45;&gt;Node5</title>
<path fill="none" stroke="midnightblue" d="M78.0349,-229.222C95.9792,-246.515 127.642,-274.357 160,-290 165.001,-292.418 170.332,-294.541 175.774,-296.403"/>
<polygon fill="midnightblue" stroke="midnightblue" points="175.053,-299.845 185.641,-299.481 177.137,-293.162 175.053,-299.845"/>
</g>
<!-- Node6 -->
<g id="node6" class="node"><title>Node6</title>
<g id="a_node6"><a xlink:href="../../da/d29/classFun4AllServer.html#ac42fd391b795d9605811abb9394c2011" target="_top" xlink:title="Fun4AllServer::getNode">
<polygon fill="none" stroke="black" points="374.5,-340.5 374.5,-359.5 493.5,-359.5 493.5,-340.5 374.5,-340.5"/>
<text text-anchor="middle" x="434" y="-347.5" font-family="FreeSans" font-size="10.00">Fun4AllServer::getNode</text>
</a>
</g>
</g>
<!-- Node1&#45;&gt;Node6 -->
<g id="edge5" class="edge"><title>Node1&#45;&gt;Node6</title>
<path fill="none" stroke="midnightblue" d="M70.6909,-229.145C84.5839,-254.693 116.511,-305.739 160,-328 223.587,-360.549 306.559,-362.472 364.266,-358.505"/>
<polygon fill="midnightblue" stroke="midnightblue" points="364.673,-361.985 374.377,-357.733 364.14,-355.005 364.673,-361.985"/>
</g>
<!-- Node14 -->
<g id="node14" class="node"><title>Node14</title>
<g id="a_node14"><a xlink:href="../../da/d29/classFun4AllServer.html#a3e55156f91b2c94bb6c4ef33ffce587a" target="_top" xlink:title="Fun4AllServer::instance">
<polygon fill="none" stroke="black" points="180.5,-223.5 180.5,-242.5 299.5,-242.5 299.5,-223.5 180.5,-223.5"/>
<text text-anchor="middle" x="240" y="-230.5" font-family="FreeSans" font-size="10.00">Fun4AllServer::instance</text>
</a>
</g>
</g>
<!-- Node1&#45;&gt;Node14 -->
<g id="edge15" class="edge"><title>Node1&#45;&gt;Node14</title>
<path fill="none" stroke="midnightblue" d="M124.062,-220.592C138.905,-222.194 154.88,-223.919 170.059,-225.558"/>
<polygon fill="midnightblue" stroke="midnightblue" points="170.1,-229.082 180.417,-226.676 170.851,-222.123 170.1,-229.082"/>
</g>
<!-- Node15 -->
<g id="node15" class="node"><title>Node15</title>
<g id="a_node15"><a xlink:href="../../d7/d4d/classPHNodeIOManager.html#a7fcd787c0049e4476b2534299b801b47" target="_top" xlink:title="PHNodeIOManager::isFunctional">
<polygon fill="none" stroke="black" points="160.5,-185.5 160.5,-204.5 319.5,-204.5 319.5,-185.5 160.5,-185.5"/>
<text text-anchor="middle" x="240" y="-192.5" font-family="FreeSans" font-size="10.00">PHNodeIOManager::isFunctional</text>
</a>
</g>
</g>
<!-- Node1&#45;&gt;Node15 -->
<g id="edge16" class="edge"><title>Node1&#45;&gt;Node15</title>
<path fill="none" stroke="midnightblue" d="M124.062,-207.408C132.574,-206.489 141.458,-205.53 150.351,-204.57"/>
<polygon fill="midnightblue" stroke="midnightblue" points="150.81,-208.041 160.376,-203.488 150.058,-201.081 150.81,-208.041"/>
</g>
<!-- Node16 -->
<g id="node16" class="node"><title>Node16</title>
<g id="a_node16"><a xlink:href="../../d7/d4d/classPHNodeIOManager.html#a2be363482604b6f51d9335d75b72a8ff" target="_top" xlink:title="PHNodeIOManager::print">
<polygon fill="none" stroke="black" points="177.5,-147.5 177.5,-166.5 302.5,-166.5 302.5,-147.5 177.5,-147.5"/>
<text text-anchor="middle" x="240" y="-154.5" font-family="FreeSans" font-size="10.00">PHNodeIOManager::print</text>
</a>
</g>
</g>
<!-- Node1&#45;&gt;Node16 -->
<g id="edge17" class="edge"><title>Node1&#45;&gt;Node16</title>
<path fill="none" stroke="midnightblue" d="M98.0578,-198.92C116.312,-191.414 139.124,-182.566 160,-176 167.845,-173.533 176.213,-171.204 184.461,-169.079"/>
<polygon fill="midnightblue" stroke="midnightblue" points="185.563,-172.411 194.417,-166.591 183.866,-165.62 185.563,-172.411"/>
</g>
<!-- Node17 -->
<g id="node17" class="node"><title>Node17</title>
<g id="a_node17"><a xlink:href="../../d7/d4d/classPHNodeIOManager.html#a92da4bff2438e94d469011b7720f286f" target="_top" xlink:title="PHNodeIOManager::read">
<polygon fill="none" stroke="black" points="177.5,-261.5 177.5,-280.5 302.5,-280.5 302.5,-261.5 177.5,-261.5"/>
<text text-anchor="middle" x="240" y="-268.5" font-family="FreeSans" font-size="10.00">PHNodeIOManager::read</text>
</a>
</g>
</g>
<!-- Node1&#45;&gt;Node17 -->
<g id="edge18" class="edge"><title>Node1&#45;&gt;Node17</title>
<path fill="none" stroke="midnightblue" d="M98.0578,-229.08C116.312,-236.586 139.124,-245.434 160,-252 167.845,-254.467 176.213,-256.796 184.461,-258.921"/>
<polygon fill="midnightblue" stroke="midnightblue" points="183.866,-262.38 194.417,-261.409 185.563,-255.589 183.866,-262.38"/>
</g>
<!-- Node27 -->
<g id="node27" class="node"><title>Node27</title>
<g id="a_node27"><a xlink:href="../../d7/d0b/classFun4AllDstInputManager.html#ae18b1ca89168aab89e6a9b867951f8ce" target="_top" xlink:title="Fun4AllDstInputManager\l::setBranches">
<polygon fill="none" stroke="black" points="178,-49 178,-79 302,-79 302,-49 178,-49"/>
<text text-anchor="start" x="186" y="-67" font-family="FreeSans" font-size="10.00">Fun4AllDstInputManager</text>
<text text-anchor="middle" x="240" y="-56" font-family="FreeSans" font-size="10.00">::setBranches</text>
</a>
</g>
</g>
<!-- Node1&#45;&gt;Node27 -->
<g id="edge32" class="edge"><title>Node1&#45;&gt;Node27</title>
<path fill="none" stroke="midnightblue" d="M70.6351,-198.722C84.6633,-172.207 117.08,-117.668 160,-88 162.712,-86.1253 165.574,-84.3938 168.538,-82.7948"/>
<polygon fill="midnightblue" stroke="midnightblue" points="170.197,-85.8805 177.685,-78.3849 167.157,-79.575 170.197,-85.8805"/>
</g>
<!-- Node30 -->
<g id="node30" class="node"><title>Node30</title>
<g id="a_node30"><a xlink:href="../../d4/da9/classFun4AllInputManager.html#af9bf7d76be5d2c0b10843ae734da9bbb" target="_top" xlink:title="Fun4AllInputManager\l::SetRunNumber">
<polygon fill="none" stroke="black" points="185.5,-0 185.5,-30 294.5,-30 294.5,-0 185.5,-0"/>
<text text-anchor="start" x="193.5" y="-18" font-family="FreeSans" font-size="10.00">Fun4AllInputManager</text>
<text text-anchor="middle" x="240" y="-7" font-family="FreeSans" font-size="10.00">::SetRunNumber</text>
</a>
</g>
</g>
<!-- Node1&#45;&gt;Node30 -->
<g id="edge37" class="edge"><title>Node1&#45;&gt;Node30</title>
<path fill="none" stroke="midnightblue" d="M67.1379,-198.811C77.1579,-164.919 105.97,-82.6741 160,-39 164.713,-35.19 170.025,-31.9839 175.608,-29.286"/>
<polygon fill="midnightblue" stroke="midnightblue" points="177.369,-32.3408 185.204,-25.2088 174.631,-25.8983 177.369,-32.3408"/>
</g>
<!-- Node4 -->
<g id="node4" class="node"><title>Node4</title>
<g id="a_node4"><a xlink:href="../../d5/dec/classFun4AllBase.html#a41f9ac377743d046f590617fd6f4f0ed" target="_top" xlink:title="Returns the name of this module. ">
<polygon fill="none" stroke="black" points="382.5,-100.5 382.5,-119.5 485.5,-119.5 485.5,-100.5 382.5,-100.5"/>
<text text-anchor="middle" x="434" y="-107.5" font-family="FreeSans" font-size="10.00">Fun4AllBase::Name</text>
</a>
</g>
</g>
<!-- Node3&#45;&gt;Node4 -->
<g id="edge3" class="edge"><title>Node3&#45;&gt;Node4</title>
<path fill="none" stroke="midnightblue" d="M302.014,-112.047C324.486,-111.696 349.922,-111.298 372.361,-110.947"/>
<polygon fill="midnightblue" stroke="midnightblue" points="372.494,-114.446 382.439,-110.79 372.385,-107.447 372.494,-114.446"/>
</g>
<!-- Node7 -->
<g id="node7" class="node"><title>Node7</title>
<g id="a_node7"><a xlink:href="../../da/d29/classFun4AllServer.html#abcaf6825367e5db292ff795237bdcf62" target="_top" xlink:title="Fun4AllServer::topNode">
<polygon fill="none" stroke="black" points="569.5,-452.5 569.5,-471.5 688.5,-471.5 688.5,-452.5 569.5,-452.5"/>
<text text-anchor="middle" x="629" y="-459.5" font-family="FreeSans" font-size="10.00">Fun4AllServer::topNode</text>
</a>
</g>
</g>
<!-- Node6&#45;&gt;Node7 -->
<g id="edge6" class="edge"><title>Node6&#45;&gt;Node7</title>
<path fill="none" stroke="midnightblue" d="M444.702,-359.644C463.227,-377.55 505.578,-416.1 548,-438 556.702,-442.492 566.381,-446.285 575.915,-449.434"/>
<polygon fill="midnightblue" stroke="midnightblue" points="575.164,-452.866 585.752,-452.485 577.238,-446.18 575.164,-452.866"/>
</g>
<!-- Node8 -->
<g id="node8" class="node"><title>Node8</title>
<g id="a_node8"><a xlink:href="../../d5/d07/classPHNodeIterator.html#aea98bf8619af59b1212a94fb32106baa" target="_top" xlink:title="PHNodeIterator::findFirst">
<polygon fill="none" stroke="black" points="567,-320.5 567,-339.5 691,-339.5 691,-320.5 567,-320.5"/>
<text text-anchor="middle" x="629" y="-327.5" font-family="FreeSans" font-size="10.00">PHNodeIterator::findFirst</text>
</a>
</g>
</g>
<!-- Node6&#45;&gt;Node8 -->
<g id="edge7" class="edge"><title>Node6&#45;&gt;Node8</title>
<path fill="none" stroke="midnightblue" d="M493.692,-343.918C513.611,-341.854 536.083,-339.525 556.865,-337.371"/>
<polygon fill="midnightblue" stroke="midnightblue" points="557.327,-340.842 566.913,-336.33 556.606,-333.88 557.327,-340.842"/>
</g>
<!-- Node11 -->
<g id="node11" class="node"><title>Node11</title>
<g id="a_node11"><a xlink:href="../../d5/dca/classPHCompositeNode.html#ac7dbf017614c324e218a001d729607bf" target="_top" xlink:title="PHCompositeNode::addNode">
<polygon fill="none" stroke="black" points="746,-376.5 746,-395.5 890,-395.5 890,-376.5 746,-376.5"/>
<text text-anchor="middle" x="818" y="-383.5" font-family="FreeSans" font-size="10.00">PHCompositeNode::addNode</text>
</a>
</g>
</g>
<!-- Node6&#45;&gt;Node11 -->
<g id="edge11" class="edge"><title>Node6&#45;&gt;Node11</title>
<path fill="none" stroke="midnightblue" d="M449.19,-359.554C469.86,-372.834 509.942,-396.23 548,-405 624.076,-422.531 715.179,-409.162 769.453,-397.71"/>
<polygon fill="midnightblue" stroke="midnightblue" points="770.448,-401.075 779.474,-395.528 768.959,-394.235 770.448,-401.075"/>
</g>
<!-- Node8&#45;&gt;Node8 -->
<g id="edge10" class="edge"><title>Node8&#45;&gt;Node8</title>
<path fill="none" stroke="midnightblue" d="M600.024,-339.757C585.927,-348.565 595.586,-358 629,-358 651.972,-358 663.716,-353.541 664.232,-347.891"/>
<polygon fill="midnightblue" stroke="midnightblue" points="666.847,-345.55 657.976,-339.757 661.298,-349.818 666.847,-345.55"/>
</g>
<!-- Node9 -->
<g id="node9" class="node"><title>Node9</title>
<g id="a_node9"><a xlink:href="../../dc/d82/classPHNode.html#a4ab1f90aed955a652813bfe377087bda" target="_top" xlink:title="PHNode::getType">
<polygon fill="none" stroke="black" points="771.5,-269.5 771.5,-288.5 864.5,-288.5 864.5,-269.5 771.5,-269.5"/>
<text text-anchor="middle" x="818" y="-276.5" font-family="FreeSans" font-size="10.00">PHNode::getType</text>
</a>
</g>
</g>
<!-- Node8&#45;&gt;Node9 -->
<g id="edge8" class="edge"><title>Node8&#45;&gt;Node9</title>
<path fill="none" stroke="midnightblue" d="M672.049,-320.492C684.32,-317.588 697.728,-314.289 710,-311 732.27,-305.031 756.937,-297.703 776.969,-291.566"/>
<polygon fill="midnightblue" stroke="midnightblue" points="778.166,-294.86 786.692,-288.57 776.105,-288.17 778.166,-294.86"/>
</g>
<!-- Node10 -->
<g id="node10" class="node"><title>Node10</title>
<g id="a_node10"><a xlink:href="../../dc/d82/classPHNode.html#aca3576f926a4401eddc3d88bf0ce0de3" target="_top" xlink:title="PHNode::getName">
<polygon fill="none" stroke="black" points="934,-320.5 934,-339.5 1032,-339.5 1032,-320.5 934,-320.5"/>
<text text-anchor="middle" x="983" y="-327.5" font-family="FreeSans" font-size="10.00">PHNode::getName</text>
</a>
</g>
</g>
<!-- Node8&#45;&gt;Node10 -->
<g id="edge9" class="edge"><title>Node8&#45;&gt;Node10</title>
<path fill="none" stroke="midnightblue" d="M691.314,-330C756.619,-330 859.237,-330 923.461,-330"/>
<polygon fill="midnightblue" stroke="midnightblue" points="923.817,-333.5 933.817,-330 923.817,-326.5 923.817,-333.5"/>
</g>
<!-- Node11&#45;&gt;Node10 -->
<g id="edge12" class="edge"><title>Node11&#45;&gt;Node10</title>
<path fill="none" stroke="midnightblue" d="M847.021,-376.373C874.008,-367.102 915.002,-353.018 944.731,-342.804"/>
<polygon fill="midnightblue" stroke="midnightblue" points="946.025,-346.06 954.345,-339.501 943.75,-339.44 946.025,-346.06"/>
</g>
<!-- Node12 -->
<g id="node12" class="node"><title>Node12</title>
<g id="a_node12"><a xlink:href="../../dc/d82/classPHNode.html#adda2bd6cef2d5067bbe3016a990b7198" target="_top" xlink:title="PHNode::setParent">
<polygon fill="none" stroke="black" points="932.5,-367.5 932.5,-386.5 1033.5,-386.5 1033.5,-367.5 932.5,-367.5"/>
<text text-anchor="middle" x="983" y="-374.5" font-family="FreeSans" font-size="10.00">PHNode::setParent</text>
</a>
</g>
</g>
<!-- Node11&#45;&gt;Node12 -->
<g id="edge13" class="edge"><title>Node11&#45;&gt;Node12</title>
<path fill="none" stroke="midnightblue" d="M890.02,-382.079C900.701,-381.489 911.626,-380.886 922.045,-380.31"/>
<polygon fill="midnightblue" stroke="midnightblue" points="922.476,-383.792 932.268,-379.746 922.09,-376.803 922.476,-383.792"/>
</g>
<!-- Node13 -->
<g id="node13" class="node"><title>Node13</title>
<g id="a_node13"><a xlink:href="../../d6/d86/classPHPointerList.html#af5fc4e6958b5b90c57bfb497566f503c" target="_top" xlink:title="PHPointerList::append">
<polygon fill="none" stroke="black" points="926,-405.5 926,-424.5 1040,-424.5 1040,-405.5 926,-405.5"/>
<text text-anchor="middle" x="983" y="-412.5" font-family="FreeSans" font-size="10.00">PHPointerList::append</text>
</a>
</g>
</g>
<!-- Node11&#45;&gt;Node13 -->
<g id="edge14" class="edge"><title>Node11&#45;&gt;Node13</title>
<path fill="none" stroke="midnightblue" d="M872.824,-395.576C887.365,-398.163 903.241,-400.988 918.269,-403.661"/>
<polygon fill="midnightblue" stroke="midnightblue" points="918.052,-407.178 928.51,-405.483 919.278,-400.286 918.052,-407.178"/>
</g>
<!-- Node18 -->
<g id="node18" class="node"><title>Node18</title>
<g id="a_node18"><a xlink:href="../../d7/d4d/classPHNodeIOManager.html#a3882997324989c7dd04e9f6b728af7db" target="_top" xlink:title="PHNodeIOManager::reconstruct\lNodeTree">
<polygon fill="none" stroke="black" points="356.5,-256 356.5,-286 511.5,-286 511.5,-256 356.5,-256"/>
<text text-anchor="start" x="364.5" y="-274" font-family="FreeSans" font-size="10.00">PHNodeIOManager::reconstruct</text>
<text text-anchor="middle" x="434" y="-263" font-family="FreeSans" font-size="10.00">NodeTree</text>
</a>
</g>
</g>
<!-- Node17&#45;&gt;Node18 -->
<g id="edge19" class="edge"><title>Node17&#45;&gt;Node18</title>
<path fill="none" stroke="midnightblue" d="M302.542,-271C316.445,-271 331.459,-271 346.183,-271"/>
<polygon fill="midnightblue" stroke="midnightblue" points="346.313,-274.5 356.312,-271 346.312,-267.5 346.313,-274.5"/>
</g>
<!-- Node25 -->
<g id="node25" class="node"><title>Node25</title>
<g id="a_node25"><a xlink:href="../../d7/d4d/classPHNodeIOManager.html#a78c3103ae5561ab423517d5ebb880a38" target="_top" xlink:title="PHNodeIOManager::readEvent\lFromFile">
<polygon fill="none" stroke="black" points="359,-172 359,-202 509,-202 509,-172 359,-172"/>
<text text-anchor="start" x="367" y="-190" font-family="FreeSans" font-size="10.00">PHNodeIOManager::readEvent</text>
<text text-anchor="middle" x="434" y="-179" font-family="FreeSans" font-size="10.00">FromFile</text>
</a>
</g>
</g>
<!-- Node17&#45;&gt;Node25 -->
<g id="edge30" class="edge"><title>Node17&#45;&gt;Node25</title>
<path fill="none" stroke="midnightblue" d="M290.144,-261.488C300.187,-258.905 310.564,-255.758 320,-252 349.383,-240.298 380.359,-222.002 402.434,-207.799"/>
<polygon fill="midnightblue" stroke="midnightblue" points="404.564,-210.588 411.023,-202.189 400.737,-204.727 404.564,-210.588"/>
</g>
<!-- Node18&#45;&gt;Node8 -->
<g id="edge27" class="edge"><title>Node18&#45;&gt;Node8</title>
<path fill="none" stroke="midnightblue" d="M474.145,-286.02C495.742,-294.012 523.148,-303.673 548,-311 556.456,-313.493 565.488,-315.889 574.326,-318.09"/>
<polygon fill="midnightblue" stroke="midnightblue" points="573.637,-321.524 584.181,-320.486 575.291,-314.722 573.637,-321.524"/>
</g>
<!-- Node19 -->
<g id="node19" class="node"><title>Node19</title>
<g id="a_node19"><a xlink:href="../../d5/d07/classPHNodeIterator.html#a4cfa0490b6522394b13723c7db38a3a6" target="_top" xlink:title="PHNodeIterator::cd">
<polygon fill="none" stroke="black" points="579,-156.5 579,-175.5 679,-175.5 679,-156.5 579,-156.5"/>
<text text-anchor="middle" x="629" y="-163.5" font-family="FreeSans" font-size="10.00">PHNodeIterator::cd</text>
</a>
</g>
</g>
<!-- Node18&#45;&gt;Node19 -->
<g id="edge20" class="edge"><title>Node18&#45;&gt;Node19</title>
<path fill="none" stroke="midnightblue" d="M454.564,-255.776C485.515,-231.739 542.819,-187.451 548,-185 554.565,-181.894 561.68,-179.273 568.868,-177.065"/>
<polygon fill="midnightblue" stroke="midnightblue" points="569.991,-180.385 578.668,-174.306 568.094,-173.647 569.991,-180.385"/>
</g>
<!-- Node21 -->
<g id="node21" class="node"><title>Node21</title>
<g id="a_node21"><a xlink:href="../../d5/d07/classPHNodeIterator.html#a2c183a75c6a6784f38ff15b6163eb7ee" target="_top" xlink:title="PHNodeIterator::addNode">
<polygon fill="none" stroke="black" points="565,-376.5 565,-395.5 693,-395.5 693,-376.5 565,-376.5"/>
<text text-anchor="middle" x="629" y="-383.5" font-family="FreeSans" font-size="10.00">PHNodeIterator::addNode</text>
</a>
</g>
</g>
<!-- Node18&#45;&gt;Node21 -->
<g id="edge24" class="edge"><title>Node18&#45;&gt;Node21</title>
<path fill="none" stroke="midnightblue" d="M455.818,-286.126C471.635,-297.877 493.712,-314.841 512,-331 528.957,-345.983 528.244,-355.968 548,-367 552.144,-369.314 556.561,-371.348 561.111,-373.135"/>
<polygon fill="midnightblue" stroke="midnightblue" points="559.995,-376.452 570.59,-376.466 562.316,-369.848 559.995,-376.452"/>
</g>
<!-- Node22 -->
<g id="node22" class="node"><title>Node22</title>
<g id="a_node22"><a xlink:href="../../d7/d4d/classPHNodeIOManager.html#a8be36f2013dddcf8026b0aeb9177dc7c" target="_top" xlink:title="PHNodeIOManager::getBranch\lClassName">
<polygon fill="none" stroke="black" points="553.5,-233 553.5,-263 704.5,-263 704.5,-233 553.5,-233"/>
<text text-anchor="start" x="561.5" y="-251" font-family="FreeSans" font-size="10.00">PHNodeIOManager::getBranch</text>
<text text-anchor="middle" x="629" y="-240" font-family="FreeSans" font-size="10.00">ClassName</text>
</a>
</g>
</g>
<!-- Node18&#45;&gt;Node22 -->
<g id="edge26" class="edge"><title>Node18&#45;&gt;Node22</title>
<path fill="none" stroke="midnightblue" d="M511.556,-261.877C522.004,-260.632 532.778,-259.348 543.359,-258.087"/>
<polygon fill="midnightblue" stroke="midnightblue" points="543.911,-261.546 553.427,-256.887 543.083,-254.595 543.911,-261.546"/>
</g>
<!-- Node23 -->
<g id="node23" class="node"><title>Node23</title>
<g id="a_node23"><a xlink:href="../../d1/d3e/classPHDataNode.html#a1f3b856fd3ce165047be8aa97f4ab9f3" target="_top" xlink:title="PHDataNode::getData">
<polygon fill="none" stroke="black" points="572.5,-194.5 572.5,-213.5 685.5,-213.5 685.5,-194.5 572.5,-194.5"/>
<text text-anchor="middle" x="629" y="-201.5" font-family="FreeSans" font-size="10.00">PHDataNode::getData</text>
</a>
</g>
</g>
<!-- Node18&#45;&gt;Node23 -->
<g id="edge28" class="edge"><title>Node18&#45;&gt;Node23</title>
<path fill="none" stroke="midnightblue" d="M467.637,-255.902C489.946,-245.962 520.365,-233.145 548,-224 556.684,-221.126 566.016,-218.441 575.132,-216.03"/>
<polygon fill="midnightblue" stroke="midnightblue" points="576.082,-219.4 584.898,-213.525 574.342,-212.619 576.082,-219.4"/>
</g>
<!-- Node24 -->
<g id="node24" class="node"><title>Node24</title>
<g id="a_node24"><a xlink:href="../../dc/d82/classPHNode.html#a5efaced7ccd6df01fc40abbb07dfe61d" target="_top" xlink:title="PHNode::setObjectType">
<polygon fill="none" stroke="black" points="568,-282.5 568,-301.5 690,-301.5 690,-282.5 568,-282.5"/>
<text text-anchor="middle" x="629" y="-289.5" font-family="FreeSans" font-size="10.00">PHNode::setObjectType</text>
</a>
</g>
</g>
<!-- Node18&#45;&gt;Node24 -->
<g id="edge29" class="edge"><title>Node18&#45;&gt;Node24</title>
<path fill="none" stroke="midnightblue" d="M511.556,-279.33C526.777,-280.986 542.69,-282.718 557.689,-284.35"/>
<polygon fill="midnightblue" stroke="midnightblue" points="557.588,-287.859 567.908,-285.461 558.345,-280.9 557.588,-287.859"/>
</g>
<!-- Node19&#45;&gt;Node9 -->
<g id="edge22" class="edge"><title>Node19&#45;&gt;Node9</title>
<path fill="none" stroke="midnightblue" d="M679.021,-172.25C689.777,-175.056 700.714,-179.118 710,-185 731.637,-198.705 727.261,-212.54 746,-230 759.843,-242.898 777.313,-254.998 791.46,-263.948"/>
<polygon fill="midnightblue" stroke="midnightblue" points="789.857,-267.072 800.204,-269.35 793.537,-261.117 789.857,-267.072"/>
</g>
<!-- Node19&#45;&gt;Node10 -->
<g id="edge23" class="edge"><title>Node19&#45;&gt;Node10</title>
<path fill="none" stroke="midnightblue" d="M676.044,-175.592C687.252,-178.295 699.138,-181.473 710,-185 792.43,-211.767 814.901,-216.741 890,-260 917.201,-275.668 945.505,-298.32 963.412,-313.574"/>
<polygon fill="midnightblue" stroke="midnightblue" points="961.462,-316.515 971.317,-320.405 966.039,-311.218 961.462,-316.515"/>
</g>
<!-- Node20 -->
<g id="node20" class="node"><title>Node20</title>
<g id="a_node20"><a xlink:href="../../dc/d82/classPHNode.html#a5c15cb20d02290b69eb4d7f6051c9722" target="_top" xlink:title="PHNode::getParent">
<polygon fill="none" stroke="black" points="767.5,-156.5 767.5,-175.5 868.5,-175.5 868.5,-156.5 767.5,-156.5"/>
<text text-anchor="middle" x="818" y="-163.5" font-family="FreeSans" font-size="10.00">PHNode::getParent</text>
</a>
</g>
</g>
<!-- Node19&#45;&gt;Node20 -->
<g id="edge21" class="edge"><title>Node19&#45;&gt;Node20</title>
<path fill="none" stroke="midnightblue" d="M679.132,-166C703.004,-166 731.9,-166 757.058,-166"/>
<polygon fill="midnightblue" stroke="midnightblue" points="757.221,-169.5 767.221,-166 757.221,-162.5 757.221,-169.5"/>
</g>
<!-- Node21&#45;&gt;Node11 -->
<g id="edge25" class="edge"><title>Node21&#45;&gt;Node11</title>
<path fill="none" stroke="midnightblue" d="M693.049,-386C706.701,-386 721.324,-386 735.568,-386"/>
<polygon fill="midnightblue" stroke="midnightblue" points="735.853,-389.5 745.853,-386 735.853,-382.5 735.853,-389.5"/>
</g>
<!-- Node26 -->
<g id="node26" class="node"><title>Node26</title>
<g id="a_node26"><a xlink:href="../../d5/d88/PHMessage_8cc.html#a04070e856fed35b20952495249e0357f" target="_top" xlink:title="PHMessage">
<polygon fill="none" stroke="black" points="593.5,-118.5 593.5,-137.5 664.5,-137.5 664.5,-118.5 593.5,-118.5"/>
<text text-anchor="middle" x="629" y="-125.5" font-family="FreeSans" font-size="10.00">PHMessage</text>
</a>
</g>
</g>
<!-- Node25&#45;&gt;Node26 -->
<g id="edge31" class="edge"><title>Node25&#45;&gt;Node26</title>
<path fill="none" stroke="midnightblue" d="M474.145,-171.98C495.742,-163.988 523.148,-154.327 548,-147 559.332,-143.659 571.697,-140.493 583.244,-137.737"/>
<polygon fill="midnightblue" stroke="midnightblue" points="584.192,-141.11 593.134,-135.427 582.6,-134.293 584.192,-141.11"/>
</g>
<!-- Node27&#45;&gt;Node4 -->
<g id="edge36" class="edge"><title>Node27&#45;&gt;Node4</title>
<path fill="none" stroke="midnightblue" d="M302.014,-78.6179C328.264,-84.907 358.558,-92.1649 383.396,-98.1157"/>
<polygon fill="midnightblue" stroke="midnightblue" points="382.786,-101.569 393.327,-100.495 384.417,-94.7613 382.786,-101.569"/>
</g>
<!-- Node28 -->
<g id="node28" class="node"><title>Node28</title>
<g id="a_node28"><a xlink:href="../../d7/d4d/classPHNodeIOManager.html#a7f701a7b25803133c586853f87454a3a" target="_top" xlink:title="PHNodeIOManager::selectObject\lToRead">
<polygon fill="none" stroke="black" points="548.5,-30 548.5,-60 709.5,-60 709.5,-30 548.5,-30"/>
<text text-anchor="start" x="556.5" y="-48" font-family="FreeSans" font-size="10.00">PHNodeIOManager::selectObject</text>
<text text-anchor="middle" x="629" y="-37" font-family="FreeSans" font-size="10.00">ToRead</text>
</a>
</g>
</g>
<!-- Node27&#45;&gt;Node28 -->
<g id="edge33" class="edge"><title>Node27&#45;&gt;Node28</title>
<path fill="none" stroke="midnightblue" d="M302.321,-60.9894C365.831,-57.8713 465.731,-52.9667 538.15,-49.4112"/>
<polygon fill="midnightblue" stroke="midnightblue" points="538.364,-52.9051 548.18,-48.9188 538.02,-45.9135 538.364,-52.9051"/>
</g>
<!-- Node29 -->
<g id="node29" class="node"><title>Node29</title>
<g id="a_node29"><a xlink:href="../../d7/d0b/classFun4AllDstInputManager.html#a22bc575e2e8b3b72e67523a694acbf22" target="_top" xlink:title="Fun4AllDstInputManager\l::setSyncBranches">
<polygon fill="none" stroke="black" points="372,-8 372,-38 496,-38 496,-8 372,-8"/>
<text text-anchor="start" x="380" y="-26" font-family="FreeSans" font-size="10.00">Fun4AllDstInputManager</text>
<text text-anchor="middle" x="434" y="-15" font-family="FreeSans" font-size="10.00">::setSyncBranches</text>
</a>
</g>
</g>
<!-- Node27&#45;&gt;Node29 -->
<g id="edge34" class="edge"><title>Node27&#45;&gt;Node29</title>
<path fill="none" stroke="midnightblue" d="M302.014,-50.971C321.083,-46.899 342.285,-42.3714 361.98,-38.1658"/>
<polygon fill="midnightblue" stroke="midnightblue" points="362.767,-41.5767 371.815,-36.0654 361.305,-34.731 362.767,-41.5767"/>
</g>
<!-- Node29&#45;&gt;Node28 -->
<g id="edge35" class="edge"><title>Node29&#45;&gt;Node28</title>
<path fill="none" stroke="midnightblue" d="M496.066,-29.9609C509.396,-31.4804 523.774,-33.1193 537.964,-34.7368"/>
<polygon fill="midnightblue" stroke="midnightblue" points="537.914,-38.2537 548.246,-35.9088 538.707,-31.2987 537.914,-38.2537"/>
</g>
</g>
</svg>
