<?xml version="1.0" encoding="UTF-8" standalone="no"?>
<!DOCTYPE svg PUBLIC "-//W3C//DTD SVG 1.1//EN"
 "http://www.w3.org/Graphics/SVG/1.1/DTD/svg11.dtd">
<!-- Generated by graphviz version 2.36.0 (20140111.2315)
 -->
<!-- Title: Fun4AllDstInputManager::ReadNextEventSyncObject Pages: 1 -->
<svg width="1478pt" height="578pt"
 viewBox="0.00 0.00 1478.00 578.00" xmlns="http://www.w3.org/2000/svg" xmlns:xlink="http://www.w3.org/1999/xlink">
<g id="graph0" class="graph" transform="scale(1 1) rotate(0) translate(4 574)">
<title>Fun4AllDstInputManager::ReadNextEventSyncObject</title>
<!-- Node1 -->
<g id="node1" class="node"><title>Node1</title>
<polygon fill="#bfbfbf" stroke="black" points="0.5,-179 0.5,-209 139.5,-209 139.5,-179 0.5,-179"/>
<text text-anchor="start" x="8.5" y="-197" font-family="FreeSans" font-size="10.00">Fun4AllDstInputManager</text>
<text text-anchor="middle" x="70" y="-186" font-family="FreeSans" font-size="10.00">::ReadNextEventSyncObject</text>
</g>
<!-- Node2 -->
<g id="node2" class="node"><title>Node2</title>
<g id="a_node2"><a xlink:href="../../d7/d0b/classFun4AllDstInputManager.html#acc1f41cde35bb897b779bea7fb452e78" target="_top" xlink:title="Fun4AllDstInputManager\l::fileclose">
<polygon fill="none" stroke="black" points="608,-540 608,-570 732,-570 732,-540 608,-540"/>
<text text-anchor="start" x="616" y="-558" font-family="FreeSans" font-size="10.00">Fun4AllDstInputManager</text>
<text text-anchor="middle" x="670" y="-547" font-family="FreeSans" font-size="10.00">::fileclose</text>
</a>
</g>
</g>
<!-- Node1&#45;&gt;Node2 -->
<g id="edge1" class="edge"><title>Node1&#45;&gt;Node2</title>
<path fill="none" stroke="midnightblue" d="M79.2112,-209.273C94.816,-237.089 131.229,-296.499 176,-333 308.367,-440.918 501.603,-507.573 602.328,-537.107"/>
<polygon fill="midnightblue" stroke="midnightblue" points="601.498,-540.51 612.077,-539.934 603.448,-533.787 601.498,-540.51"/>
</g>
<!-- Node4 -->
<g id="node4" class="node"><title>Node4</title>
<g id="a_node4"><a xlink:href="../../d7/d4d/classPHNodeIOManager.html#aecc6cb5d504ebfcf073084cc4dc79634" target="_top" xlink:title="PHNodeIOManager::GetBranchMap">
<polygon fill="none" stroke="black" points="176,-146.5 176,-165.5 348,-165.5 348,-146.5 176,-146.5"/>
<text text-anchor="middle" x="262" y="-153.5" font-family="FreeSans" font-size="10.00">PHNodeIOManager::GetBranchMap</text>
</a>
</g>
</g>
<!-- Node1&#45;&gt;Node4 -->
<g id="edge3" class="edge"><title>Node1&#45;&gt;Node4</title>
<path fill="none" stroke="midnightblue" d="M139.594,-180.281C160.509,-176.098 183.278,-171.544 203.388,-167.522"/>
<polygon fill="midnightblue" stroke="midnightblue" points="204.211,-170.927 213.331,-165.534 202.839,-164.063 204.211,-170.927"/>
</g>
<!-- Node6 -->
<g id="node6" class="node"><title>Node6</title>
<g id="a_node6"><a xlink:href="../../d0/d36/classPHIOManager.html#aea7d5c3333137f593ad4cfc8f9c30466" target="_top" xlink:title="PHIOManager::getEventNumber">
<polygon fill="none" stroke="black" points="184,-108.5 184,-127.5 340,-127.5 340,-108.5 184,-108.5"/>
<text text-anchor="middle" x="262" y="-115.5" font-family="FreeSans" font-size="10.00">PHIOManager::getEventNumber</text>
</a>
</g>
</g>
<!-- Node1&#45;&gt;Node6 -->
<g id="edge5" class="edge"><title>Node1&#45;&gt;Node6</title>
<path fill="none" stroke="midnightblue" d="M94.2906,-178.901C114.997,-166.086 146.478,-148.066 176,-137 182.99,-134.38 190.445,-132.064 197.926,-130.032"/>
<polygon fill="midnightblue" stroke="midnightblue" points="198.917,-133.391 207.738,-127.523 197.182,-126.609 198.917,-133.391"/>
</g>
<!-- Node7 -->
<g id="node7" class="node"><title>Node7</title>
<g id="a_node7"><a xlink:href="../../d7/d0b/classFun4AllDstInputManager.html#ae4e92b95ae50ab72856d06c99b043496" target="_top" xlink:title="Fun4AllDstInputManager\l::OpenNextFile">
<polygon fill="none" stroke="black" points="200,-294 200,-324 324,-324 324,-294 200,-294"/>
<text text-anchor="start" x="208" y="-312" font-family="FreeSans" font-size="10.00">Fun4AllDstInputManager</text>
<text text-anchor="middle" x="262" y="-301" font-family="FreeSans" font-size="10.00">::OpenNextFile</text>
</a>
</g>
</g>
<!-- Node1&#45;&gt;Node7 -->
<g id="edge6" class="edge"><title>Node1&#45;&gt;Node7</title>
<path fill="none" stroke="midnightblue" d="M95.8392,-209.034C129.55,-229.438 189.892,-265.961 227.558,-288.759"/>
<polygon fill="midnightblue" stroke="midnightblue" points="225.787,-291.778 236.155,-293.962 229.412,-285.79 225.787,-291.778"/>
</g>
<!-- Node22 -->
<g id="node22" class="node"><title>Node22</title>
<g id="a_node22"><a xlink:href="../../d7/d4d/classPHNodeIOManager.html#a92da4bff2438e94d469011b7720f286f" target="_top" xlink:title="PHNodeIOManager::read">
<polygon fill="none" stroke="black" points="607.5,-159.5 607.5,-178.5 732.5,-178.5 732.5,-159.5 607.5,-159.5"/>
<text text-anchor="middle" x="670" y="-166.5" font-family="FreeSans" font-size="10.00">PHNodeIOManager::read</text>
</a>
</g>
</g>
<!-- Node1&#45;&gt;Node22 -->
<g id="edge44" class="edge"><title>Node1&#45;&gt;Node22</title>
<path fill="none" stroke="midnightblue" d="M135.77,-209.006C229.874,-228.043 408.996,-253.799 554,-213 572.05,-207.921 572.804,-198.476 590,-191 598.438,-187.332 607.65,-184.114 616.708,-181.352"/>
<polygon fill="midnightblue" stroke="midnightblue" points="617.801,-184.679 626.432,-178.535 615.853,-177.956 617.801,-184.679"/>
</g>
<!-- Node36 -->
<g id="node36" class="node"><title>Node36</title>
<g id="a_node36"><a xlink:href="../../d7/d4d/classPHNodeIOManager.html#a46838c856432158c96650747545e0645" target="_top" xlink:title="PHNodeIOManager::readSpecific">
<polygon fill="none" stroke="black" points="389,-184.5 389,-203.5 549,-203.5 549,-184.5 389,-184.5"/>
<text text-anchor="middle" x="469" y="-191.5" font-family="FreeSans" font-size="10.00">PHNodeIOManager::readSpecific</text>
</a>
</g>
</g>
<!-- Node1&#45;&gt;Node36 -->
<g id="edge45" class="edge"><title>Node1&#45;&gt;Node36</title>
<path fill="none" stroke="midnightblue" d="M139.699,-194C205.936,-194 306.51,-194 378.88,-194"/>
<polygon fill="midnightblue" stroke="midnightblue" points="378.898,-197.5 388.898,-194 378.898,-190.5 378.898,-197.5"/>
</g>
<!-- Node37 -->
<g id="node37" class="node"><title>Node37</title>
<g id="a_node37"><a xlink:href="../../d0/d36/classPHIOManager.html#aee0b0ab22284ccb71cdcc57d392c7432" target="_top" xlink:title="PHIOManager::setEventNumber">
<polygon fill="none" stroke="black" points="184,-70.5 184,-89.5 340,-89.5 340,-70.5 184,-70.5"/>
<text text-anchor="middle" x="262" y="-77.5" font-family="FreeSans" font-size="10.00">PHIOManager::setEventNumber</text>
</a>
</g>
</g>
<!-- Node1&#45;&gt;Node37 -->
<g id="edge47" class="edge"><title>Node1&#45;&gt;Node37</title>
<path fill="none" stroke="midnightblue" d="M83.1773,-178.877C101.157,-157.615 136.922,-119.229 176,-99 180.582,-96.6278 185.454,-94.5505 190.455,-92.7315"/>
<polygon fill="midnightblue" stroke="midnightblue" points="191.778,-95.9811 200.192,-89.5423 189.599,-89.3288 191.778,-95.9811"/>
</g>
<!-- Node3 -->
<g id="node3" class="node"><title>Node3</title>
<g id="a_node3"><a xlink:href="../../d5/dec/classFun4AllBase.html#a41f9ac377743d046f590617fd6f4f0ed" target="_top" xlink:title="Returns the name of this module. ">
<polygon fill="none" stroke="black" points="812.5,-483.5 812.5,-502.5 915.5,-502.5 915.5,-483.5 812.5,-483.5"/>
<text text-anchor="middle" x="864" y="-490.5" font-family="FreeSans" font-size="10.00">Fun4AllBase::Name</text>
</a>
</g>
</g>
<!-- Node2&#45;&gt;Node3 -->
<g id="edge2" class="edge"><title>Node2&#45;&gt;Node3</title>
<path fill="none" stroke="midnightblue" d="M719.068,-539.873C729.285,-536.634 740.004,-533.218 750,-530 774.878,-521.991 802.788,-512.854 824.646,-505.663"/>
<polygon fill="midnightblue" stroke="midnightblue" points="825.826,-508.96 834.23,-502.508 823.637,-502.311 825.826,-508.96"/>
</g>
<!-- Node5 -->
<g id="node5" class="node"><title>Node5</title>
<g id="a_node5"><a xlink:href="../../d7/d4d/classPHNodeIOManager.html#a30f1ed446167baeafca6e05b5fe25ed9" target="_top" xlink:title="PHNodeIOManager::FillBranchMap">
<polygon fill="none" stroke="black" points="384.5,-146.5 384.5,-165.5 553.5,-165.5 553.5,-146.5 384.5,-146.5"/>
<text text-anchor="middle" x="469" y="-153.5" font-family="FreeSans" font-size="10.00">PHNodeIOManager::FillBranchMap</text>
</a>
</g>
</g>
<!-- Node4&#45;&gt;Node5 -->
<g id="edge4" class="edge"><title>Node4&#45;&gt;Node5</title>
<path fill="none" stroke="midnightblue" d="M348.158,-156C356.776,-156 365.563,-156 374.265,-156"/>
<polygon fill="midnightblue" stroke="midnightblue" points="374.426,-159.5 384.426,-156 374.426,-152.5 374.426,-159.5"/>
</g>
<!-- Node8 -->
<g id="node8" class="node"><title>Node8</title>
<g id="a_node8"><a xlink:href="../../d7/d0b/classFun4AllDstInputManager.html#a4d32eadb9f77d41387656b87377ef14f" target="_top" xlink:title="Fun4AllDstInputManager\l::fileopen">
<polygon fill="none" stroke="black" points="407,-327 407,-357 531,-357 531,-327 407,-327"/>
<text text-anchor="start" x="415" y="-345" font-family="FreeSans" font-size="10.00">Fun4AllDstInputManager</text>
<text text-anchor="middle" x="469" y="-334" font-family="FreeSans" font-size="10.00">::fileopen</text>
</a>
</g>
</g>
<!-- Node7&#45;&gt;Node8 -->
<g id="edge7" class="edge"><title>Node7&#45;&gt;Node8</title>
<path fill="none" stroke="midnightblue" d="M324.229,-318.856C347.044,-322.529 373.133,-326.729 396.77,-330.534"/>
<polygon fill="midnightblue" stroke="midnightblue" points="396.303,-334.004 406.732,-332.137 397.416,-327.093 396.303,-334.004"/>
</g>
<!-- Node8&#45;&gt;Node2 -->
<g id="edge9" class="edge"><title>Node8&#45;&gt;Node2</title>
<path fill="none" stroke="midnightblue" d="M482.628,-357.231C499.947,-378.522 531.482,-418.765 554,-456 572.926,-487.296 562.317,-506.097 590,-530 592.695,-532.327 595.607,-534.438 598.669,-536.352"/>
<polygon fill="midnightblue" stroke="midnightblue" points="597.186,-539.53 607.641,-541.245 600.538,-533.384 597.186,-539.53"/>
</g>
<!-- Node9 -->
<g id="node9" class="node"><title>Node9</title>
<g id="a_node9"><a xlink:href="../../d4/da9/classFun4AllInputManager.html#a98ac3fb04956625a423ef41a3909ba27" target="_top" xlink:title="Fun4AllInputManager\l::AddToFileOpened">
<polygon fill="none" stroke="black" points="615.5,-239 615.5,-269 724.5,-269 724.5,-239 615.5,-239"/>
<text text-anchor="start" x="623.5" y="-257" font-family="FreeSans" font-size="10.00">Fun4AllInputManager</text>
<text text-anchor="middle" x="670" y="-246" font-family="FreeSans" font-size="10.00">::AddToFileOpened</text>
</a>
</g>
</g>
<!-- Node8&#45;&gt;Node9 -->
<g id="edge8" class="edge"><title>Node8&#45;&gt;Node9</title>
<path fill="none" stroke="midnightblue" d="M499.257,-326.973C523.353,-314.812 558.546,-297.543 590,-284 598.901,-280.168 608.468,-276.316 617.765,-272.709"/>
<polygon fill="midnightblue" stroke="midnightblue" points="619.23,-275.896 627.316,-269.051 616.726,-269.359 619.23,-275.896"/>
</g>
<!-- Node10 -->
<g id="node10" class="node"><title>Node10</title>
<g id="a_node10"><a xlink:href="../../df/d35/classRunHeader.html#a73da574a4faeef5c0797024e8a7a534f" target="_top" xlink:title="get Run Number ">
<polygon fill="none" stroke="black" points="600,-200.5 600,-219.5 740,-219.5 740,-200.5 600,-200.5"/>
<text text-anchor="middle" x="670" y="-207.5" font-family="FreeSans" font-size="10.00">RunHeader::get_RunNumber</text>
</a>
</g>
</g>
<!-- Node8&#45;&gt;Node10 -->
<g id="edge10" class="edge"><title>Node8&#45;&gt;Node10</title>
<path fill="none" stroke="midnightblue" d="M481.891,-326.76C501.661,-302.496 543.719,-255.25 590,-230 595.092,-227.222 600.58,-224.821 606.205,-222.747"/>
<polygon fill="midnightblue" stroke="midnightblue" points="607.381,-226.044 615.757,-219.557 605.163,-219.405 607.381,-226.044"/>
</g>
<!-- Node11 -->
<g id="node11" class="node"><title>Node11</title>
<g id="a_node11"><a xlink:href="../../da/d29/classFun4AllServer.html#ac42fd391b795d9605811abb9394c2011" target="_top" xlink:title="Fun4AllServer::getNode">
<polygon fill="none" stroke="black" points="804.5,-291.5 804.5,-310.5 923.5,-310.5 923.5,-291.5 804.5,-291.5"/>
<text text-anchor="middle" x="864" y="-298.5" font-family="FreeSans" font-size="10.00">Fun4AllServer::getNode</text>
</a>
</g>
</g>
<!-- Node8&#45;&gt;Node11 -->
<g id="edge11" class="edge"><title>Node8&#45;&gt;Node11</title>
<path fill="none" stroke="midnightblue" d="M531.09,-328.123C549.897,-324.3 570.724,-320.516 590,-318 659.264,-308.959 739.063,-304.695 794.423,-302.704"/>
<polygon fill="midnightblue" stroke="midnightblue" points="794.594,-306.2 804.467,-302.358 794.353,-299.204 794.594,-306.2"/>
</g>
<!-- Node19 -->
<g id="node19" class="node"><title>Node19</title>
<g id="a_node19"><a xlink:href="../../da/d29/classFun4AllServer.html#a3e55156f91b2c94bb6c4ef33ffce587a" target="_top" xlink:title="Fun4AllServer::instance">
<polygon fill="none" stroke="black" points="610.5,-501.5 610.5,-520.5 729.5,-520.5 729.5,-501.5 610.5,-501.5"/>
<text text-anchor="middle" x="670" y="-508.5" font-family="FreeSans" font-size="10.00">Fun4AllServer::instance</text>
</a>
</g>
</g>
<!-- Node8&#45;&gt;Node19 -->
<g id="edge21" class="edge"><title>Node8&#45;&gt;Node19</title>
<path fill="none" stroke="midnightblue" d="M481.264,-357.19C508.298,-393.483 575.68,-482.901 590,-492 593.386,-494.151 596.994,-496.059 600.734,-497.751"/>
<polygon fill="midnightblue" stroke="midnightblue" points="599.663,-501.091 610.249,-501.527 602.245,-494.585 599.663,-501.091"/>
</g>
<!-- Node20 -->
<g id="node20" class="node"><title>Node20</title>
<g id="a_node20"><a xlink:href="../../d7/d4d/classPHNodeIOManager.html#a7fcd787c0049e4476b2534299b801b47" target="_top" xlink:title="PHNodeIOManager::isFunctional">
<polygon fill="none" stroke="black" points="590.5,-463.5 590.5,-482.5 749.5,-482.5 749.5,-463.5 590.5,-463.5"/>
<text text-anchor="middle" x="670" y="-470.5" font-family="FreeSans" font-size="10.00">PHNodeIOManager::isFunctional</text>
</a>
</g>
</g>
<!-- Node8&#45;&gt;Node20 -->
<g id="edge22" class="edge"><title>Node8&#45;&gt;Node20</title>
<path fill="none" stroke="midnightblue" d="M481.857,-357.304C501.578,-381.658 543.569,-429.027 590,-454 594.278,-456.301 598.835,-458.327 603.518,-460.11"/>
<polygon fill="midnightblue" stroke="midnightblue" points="602.665,-463.517 613.259,-463.439 604.928,-456.893 602.665,-463.517"/>
</g>
<!-- Node21 -->
<g id="node21" class="node"><title>Node21</title>
<g id="a_node21"><a xlink:href="../../d7/d4d/classPHNodeIOManager.html#a2be363482604b6f51d9335d75b72a8ff" target="_top" xlink:title="PHNodeIOManager::print">
<polygon fill="none" stroke="black" points="607.5,-425.5 607.5,-444.5 732.5,-444.5 732.5,-425.5 607.5,-425.5"/>
<text text-anchor="middle" x="670" y="-432.5" font-family="FreeSans" font-size="10.00">PHNodeIOManager::print</text>
</a>
</g>
</g>
<!-- Node8&#45;&gt;Node21 -->
<g id="edge23" class="edge"><title>Node8&#45;&gt;Node21</title>
<path fill="none" stroke="midnightblue" d="M490.644,-357.214C513.772,-373.608 552.897,-399.434 590,-415 596.894,-417.892 604.308,-420.443 611.734,-422.669"/>
<polygon fill="midnightblue" stroke="midnightblue" points="610.885,-426.066 621.46,-425.411 612.784,-419.329 610.885,-426.066"/>
</g>
<!-- Node8&#45;&gt;Node22 -->
<g id="edge24" class="edge"><title>Node8&#45;&gt;Node22</title>
<path fill="none" stroke="midnightblue" d="M484.364,-326.93C501.666,-308.483 531.24,-275.99 554,-246 571.662,-222.728 566.418,-208.245 590,-191 594.525,-187.691 599.527,-184.879 604.752,-182.49"/>
<polygon fill="midnightblue" stroke="midnightblue" points="606.373,-185.611 614.344,-178.631 603.76,-179.117 606.373,-185.611"/>
</g>
<!-- Node32 -->
<g id="node32" class="node"><title>Node32</title>
<g id="a_node32"><a xlink:href="../../d7/d0b/classFun4AllDstInputManager.html#ae18b1ca89168aab89e6a9b867951f8ce" target="_top" xlink:title="Fun4AllDstInputManager\l::setBranches">
<polygon fill="none" stroke="black" points="608,-327 608,-357 732,-357 732,-327 608,-327"/>
<text text-anchor="start" x="616" y="-345" font-family="FreeSans" font-size="10.00">Fun4AllDstInputManager</text>
<text text-anchor="middle" x="670" y="-334" font-family="FreeSans" font-size="10.00">::setBranches</text>
</a>
</g>
</g>
<!-- Node8&#45;&gt;Node32 -->
<g id="edge38" class="edge"><title>Node8&#45;&gt;Node32</title>
<path fill="none" stroke="midnightblue" d="M531.059,-342C552.067,-342 575.778,-342 597.539,-342"/>
<polygon fill="midnightblue" stroke="midnightblue" points="597.714,-345.5 607.714,-342 597.714,-338.5 597.714,-345.5"/>
</g>
<!-- Node35 -->
<g id="node35" class="node"><title>Node35</title>
<g id="a_node35"><a xlink:href="../../d4/da9/classFun4AllInputManager.html#af9bf7d76be5d2c0b10843ae734da9bbb" target="_top" xlink:title="Fun4AllInputManager\l::SetRunNumber">
<polygon fill="none" stroke="black" points="615.5,-376 615.5,-406 724.5,-406 724.5,-376 615.5,-376"/>
<text text-anchor="start" x="623.5" y="-394" font-family="FreeSans" font-size="10.00">Fun4AllInputManager</text>
<text text-anchor="middle" x="670" y="-383" font-family="FreeSans" font-size="10.00">::SetRunNumber</text>
</a>
</g>
</g>
<!-- Node8&#45;&gt;Node35 -->
<g id="edge43" class="edge"><title>Node8&#45;&gt;Node35</title>
<path fill="none" stroke="midnightblue" d="M531.059,-357.035C554.652,-362.844 581.652,-369.492 605.474,-375.358"/>
<polygon fill="midnightblue" stroke="midnightblue" points="604.922,-378.827 615.469,-377.819 606.596,-372.03 604.922,-378.827"/>
</g>
<!-- Node12 -->
<g id="node12" class="node"><title>Node12</title>
<g id="a_node12"><a xlink:href="../../da/d29/classFun4AllServer.html#abcaf6825367e5db292ff795237bdcf62" target="_top" xlink:title="Fun4AllServer::topNode">
<polygon fill="none" stroke="black" points="999.5,-296.5 999.5,-315.5 1118.5,-315.5 1118.5,-296.5 999.5,-296.5"/>
<text text-anchor="middle" x="1059" y="-303.5" font-family="FreeSans" font-size="10.00">Fun4AllServer::topNode</text>
</a>
</g>
</g>
<!-- Node11&#45;&gt;Node12 -->
<g id="edge12" class="edge"><title>Node11&#45;&gt;Node12</title>
<path fill="none" stroke="midnightblue" d="M923.692,-302.521C944.372,-303.056 967.803,-303.663 989.239,-304.219"/>
<polygon fill="midnightblue" stroke="midnightblue" points="989.167,-307.718 999.254,-304.478 989.348,-300.72 989.167,-307.718"/>
</g>
<!-- Node13 -->
<g id="node13" class="node"><title>Node13</title>
<g id="a_node13"><a xlink:href="../../d5/d07/classPHNodeIterator.html#aea98bf8619af59b1212a94fb32106baa" target="_top" xlink:title="PHNodeIterator::findFirst">
<polygon fill="none" stroke="black" points="997,-202.5 997,-221.5 1121,-221.5 1121,-202.5 997,-202.5"/>
<text text-anchor="middle" x="1059" y="-209.5" font-family="FreeSans" font-size="10.00">PHNodeIterator::findFirst</text>
</a>
</g>
</g>
<!-- Node11&#45;&gt;Node13 -->
<g id="edge13" class="edge"><title>Node11&#45;&gt;Node13</title>
<path fill="none" stroke="midnightblue" d="M885.654,-291.475C919.81,-275.725 988.21,-244.183 1027.8,-225.928"/>
<polygon fill="midnightblue" stroke="midnightblue" points="1029.59,-228.957 1037.2,-221.591 1026.66,-222.6 1029.59,-228.957"/>
</g>
<!-- Node16 -->
<g id="node16" class="node"><title>Node16</title>
<g id="a_node16"><a xlink:href="../../d5/dca/classPHCompositeNode.html#ac7dbf017614c324e218a001d729607bf" target="_top" xlink:title="PHCompositeNode::addNode">
<polygon fill="none" stroke="black" points="1176,-258.5 1176,-277.5 1320,-277.5 1320,-258.5 1176,-258.5"/>
<text text-anchor="middle" x="1248" y="-265.5" font-family="FreeSans" font-size="10.00">PHCompositeNode::addNode</text>
</a>
</g>
</g>
<!-- Node11&#45;&gt;Node16 -->
<g id="edge17" class="edge"><title>Node11&#45;&gt;Node16</title>
<path fill="none" stroke="midnightblue" d="M897.297,-310.584C949.242,-324.502 1054.21,-346.424 1140,-325 1172.02,-317.004 1204.96,-297.419 1225.67,-283.442"/>
<polygon fill="midnightblue" stroke="midnightblue" points="1227.8,-286.23 1234.03,-277.661 1223.81,-280.474 1227.8,-286.23"/>
</g>
<!-- Node13&#45;&gt;Node13 -->
<g id="edge16" class="edge"><title>Node13&#45;&gt;Node13</title>
<path fill="none" stroke="midnightblue" d="M1030.02,-221.757C1015.93,-230.565 1025.59,-240 1059,-240 1081.97,-240 1093.72,-235.541 1094.23,-229.891"/>
<polygon fill="midnightblue" stroke="midnightblue" points="1096.85,-227.55 1087.98,-221.757 1091.3,-231.818 1096.85,-227.55"/>
</g>
<!-- Node14 -->
<g id="node14" class="node"><title>Node14</title>
<g id="a_node14"><a xlink:href="../../dc/d82/classPHNode.html#a4ab1f90aed955a652813bfe377087bda" target="_top" xlink:title="PHNode::getType">
<polygon fill="none" stroke="black" points="1201.5,-161.5 1201.5,-180.5 1294.5,-180.5 1294.5,-161.5 1201.5,-161.5"/>
<text text-anchor="middle" x="1248" y="-168.5" font-family="FreeSans" font-size="10.00">PHNode::getType</text>
</a>
</g>
</g>
<!-- Node13&#45;&gt;Node14 -->
<g id="edge14" class="edge"><title>Node13&#45;&gt;Node14</title>
<path fill="none" stroke="midnightblue" d="M1103.37,-202.491C1130.3,-196.587 1165.1,-188.956 1193.7,-182.685"/>
<polygon fill="midnightblue" stroke="midnightblue" points="1194.52,-186.089 1203.54,-180.529 1193.02,-179.252 1194.52,-186.089"/>
</g>
<!-- Node15 -->
<g id="node15" class="node"><title>Node15</title>
<g id="a_node15"><a xlink:href="../../dc/d82/classPHNode.html#aca3576f926a4401eddc3d88bf0ce0de3" target="_top" xlink:title="PHNode::getName">
<polygon fill="none" stroke="black" points="1364,-202.5 1364,-221.5 1462,-221.5 1462,-202.5 1364,-202.5"/>
<text text-anchor="middle" x="1413" y="-209.5" font-family="FreeSans" font-size="10.00">PHNode::getName</text>
</a>
</g>
</g>
<!-- Node13&#45;&gt;Node15 -->
<g id="edge15" class="edge"><title>Node13&#45;&gt;Node15</title>
<path fill="none" stroke="midnightblue" d="M1121.31,-212C1186.62,-212 1289.24,-212 1353.46,-212"/>
<polygon fill="midnightblue" stroke="midnightblue" points="1353.82,-215.5 1363.82,-212 1353.82,-208.5 1353.82,-215.5"/>
</g>
<!-- Node16&#45;&gt;Node15 -->
<g id="edge18" class="edge"><title>Node16&#45;&gt;Node15</title>
<path fill="none" stroke="midnightblue" d="M1277.02,-258.373C1304.01,-249.102 1345,-235.018 1374.73,-224.804"/>
<polygon fill="midnightblue" stroke="midnightblue" points="1376.02,-228.06 1384.34,-221.501 1373.75,-221.44 1376.02,-228.06"/>
</g>
<!-- Node17 -->
<g id="node17" class="node"><title>Node17</title>
<g id="a_node17"><a xlink:href="../../dc/d82/classPHNode.html#adda2bd6cef2d5067bbe3016a990b7198" target="_top" xlink:title="PHNode::setParent">
<polygon fill="none" stroke="black" points="1362.5,-249.5 1362.5,-268.5 1463.5,-268.5 1463.5,-249.5 1362.5,-249.5"/>
<text text-anchor="middle" x="1413" y="-256.5" font-family="FreeSans" font-size="10.00">PHNode::setParent</text>
</a>
</g>
</g>
<!-- Node16&#45;&gt;Node17 -->
<g id="edge19" class="edge"><title>Node16&#45;&gt;Node17</title>
<path fill="none" stroke="midnightblue" d="M1320.02,-264.079C1330.7,-263.489 1341.63,-262.886 1352.05,-262.31"/>
<polygon fill="midnightblue" stroke="midnightblue" points="1352.48,-265.792 1362.27,-261.746 1352.09,-258.803 1352.48,-265.792"/>
</g>
<!-- Node18 -->
<g id="node18" class="node"><title>Node18</title>
<g id="a_node18"><a xlink:href="../../d6/d86/classPHPointerList.html#af5fc4e6958b5b90c57bfb497566f503c" target="_top" xlink:title="PHPointerList::append">
<polygon fill="none" stroke="black" points="1356,-287.5 1356,-306.5 1470,-306.5 1470,-287.5 1356,-287.5"/>
<text text-anchor="middle" x="1413" y="-294.5" font-family="FreeSans" font-size="10.00">PHPointerList::append</text>
</a>
</g>
</g>
<!-- Node16&#45;&gt;Node18 -->
<g id="edge20" class="edge"><title>Node16&#45;&gt;Node18</title>
<path fill="none" stroke="midnightblue" d="M1302.82,-277.576C1317.37,-280.163 1333.24,-282.988 1348.27,-285.661"/>
<polygon fill="midnightblue" stroke="midnightblue" points="1348.05,-289.178 1358.51,-287.483 1349.28,-282.286 1348.05,-289.178"/>
</g>
<!-- Node23 -->
<g id="node23" class="node"><title>Node23</title>
<g id="a_node23"><a xlink:href="../../d7/d4d/classPHNodeIOManager.html#a3882997324989c7dd04e9f6b728af7db" target="_top" xlink:title="PHNodeIOManager::reconstruct\lNodeTree">
<polygon fill="none" stroke="black" points="786.5,-153 786.5,-183 941.5,-183 941.5,-153 786.5,-153"/>
<text text-anchor="start" x="794.5" y="-171" font-family="FreeSans" font-size="10.00">PHNodeIOManager::reconstruct</text>
<text text-anchor="middle" x="864" y="-160" font-family="FreeSans" font-size="10.00">NodeTree</text>
</a>
</g>
</g>
<!-- Node22&#45;&gt;Node23 -->
<g id="edge25" class="edge"><title>Node22&#45;&gt;Node23</title>
<path fill="none" stroke="midnightblue" d="M732.542,-168.679C746.445,-168.607 761.459,-168.529 776.183,-168.452"/>
<polygon fill="midnightblue" stroke="midnightblue" points="776.331,-171.952 786.312,-168.399 776.294,-164.952 776.331,-171.952"/>
</g>
<!-- Node30 -->
<g id="node30" class="node"><title>Node30</title>
<g id="a_node30"><a xlink:href="../../d7/d4d/classPHNodeIOManager.html#a78c3103ae5561ab423517d5ebb880a38" target="_top" xlink:title="PHNodeIOManager::readEvent\lFromFile">
<polygon fill="none" stroke="black" points="789,-87 789,-117 939,-117 939,-87 789,-87"/>
<text text-anchor="start" x="797" y="-105" font-family="FreeSans" font-size="10.00">PHNodeIOManager::readEvent</text>
<text text-anchor="middle" x="864" y="-94" font-family="FreeSans" font-size="10.00">FromFile</text>
</a>
</g>
</g>
<!-- Node22&#45;&gt;Node30 -->
<g id="edge36" class="edge"><title>Node22&#45;&gt;Node30</title>
<path fill="none" stroke="midnightblue" d="M698.509,-159.401C727.512,-149.28 773.917,-133.086 810.055,-120.476"/>
<polygon fill="midnightblue" stroke="midnightblue" points="811.664,-123.621 819.953,-117.022 809.358,-117.012 811.664,-123.621"/>
</g>
<!-- Node23&#45;&gt;Node13 -->
<g id="edge33" class="edge"><title>Node23&#45;&gt;Node13</title>
<path fill="none" stroke="midnightblue" d="M930.88,-183.019C955.517,-188.636 983.125,-194.93 1006.3,-200.214"/>
<polygon fill="midnightblue" stroke="midnightblue" points="1005.75,-203.677 1016.28,-202.488 1007.3,-196.852 1005.75,-203.677"/>
</g>
<!-- Node24 -->
<g id="node24" class="node"><title>Node24</title>
<g id="a_node24"><a xlink:href="../../d5/d07/classPHNodeIterator.html#a4cfa0490b6522394b13723c7db38a3a6" target="_top" xlink:title="PHNodeIterator::cd">
<polygon fill="none" stroke="black" points="1009,-76.5 1009,-95.5 1109,-95.5 1109,-76.5 1009,-76.5"/>
<text text-anchor="middle" x="1059" y="-83.5" font-family="FreeSans" font-size="10.00">PHNodeIterator::cd</text>
</a>
</g>
</g>
<!-- Node23&#45;&gt;Node24 -->
<g id="edge26" class="edge"><title>Node23&#45;&gt;Node24</title>
<path fill="none" stroke="midnightblue" d="M893.267,-152.833C907.873,-144.932 925.953,-135.054 942,-126 958.132,-116.897 960.802,-111.881 978,-105 984.652,-102.338 991.77,-99.9902 998.916,-97.9347"/>
<polygon fill="midnightblue" stroke="midnightblue" points="999.895,-101.296 1008.64,-95.3113 998.071,-94.5377 999.895,-101.296"/>
</g>
<!-- Node26 -->
<g id="node26" class="node"><title>Node26</title>
<g id="a_node26"><a xlink:href="../../d5/d07/classPHNodeIterator.html#a2c183a75c6a6784f38ff15b6163eb7ee" target="_top" xlink:title="PHNodeIterator::addNode">
<polygon fill="none" stroke="black" points="995,-258.5 995,-277.5 1123,-277.5 1123,-258.5 995,-258.5"/>
<text text-anchor="middle" x="1059" y="-265.5" font-family="FreeSans" font-size="10.00">PHNodeIterator::addNode</text>
</a>
</g>
</g>
<!-- Node23&#45;&gt;Node26 -->
<g id="edge30" class="edge"><title>Node23&#45;&gt;Node26</title>
<path fill="none" stroke="midnightblue" d="M881.678,-183.199C902.639,-201.494 940.44,-231.886 978,-249 983.409,-251.465 989.175,-253.63 995.039,-255.529"/>
<polygon fill="midnightblue" stroke="midnightblue" points="994.371,-258.982 1004.95,-258.478 996.367,-252.272 994.371,-258.982"/>
</g>
<!-- Node27 -->
<g id="node27" class="node"><title>Node27</title>
<g id="a_node27"><a xlink:href="../../d7/d4d/classPHNodeIOManager.html#a8be36f2013dddcf8026b0aeb9177dc7c" target="_top" xlink:title="PHNodeIOManager::getBranch\lClassName">
<polygon fill="none" stroke="black" points="983.5,-153 983.5,-183 1134.5,-183 1134.5,-153 983.5,-153"/>
<text text-anchor="start" x="991.5" y="-171" font-family="FreeSans" font-size="10.00">PHNodeIOManager::getBranch</text>
<text text-anchor="middle" x="1059" y="-160" font-family="FreeSans" font-size="10.00">ClassName</text>
</a>
</g>
</g>
<!-- Node23&#45;&gt;Node27 -->
<g id="edge32" class="edge"><title>Node23&#45;&gt;Node27</title>
<path fill="none" stroke="midnightblue" d="M941.556,-168C952.004,-168 962.778,-168 973.359,-168"/>
<polygon fill="midnightblue" stroke="midnightblue" points="973.427,-171.5 983.427,-168 973.427,-164.5 973.427,-171.5"/>
</g>
<!-- Node28 -->
<g id="node28" class="node"><title>Node28</title>
<g id="a_node28"><a xlink:href="../../d1/d3e/classPHDataNode.html#a1f3b856fd3ce165047be8aa97f4ab9f3" target="_top" xlink:title="PHDataNode::getData">
<polygon fill="none" stroke="black" points="1002.5,-114.5 1002.5,-133.5 1115.5,-133.5 1115.5,-114.5 1002.5,-114.5"/>
<text text-anchor="middle" x="1059" y="-121.5" font-family="FreeSans" font-size="10.00">PHDataNode::getData</text>
</a>
</g>
</g>
<!-- Node23&#45;&gt;Node28 -->
<g id="edge34" class="edge"><title>Node23&#45;&gt;Node28</title>
<path fill="none" stroke="midnightblue" d="M930.88,-152.981C955.517,-147.364 983.125,-141.07 1006.3,-135.786"/>
<polygon fill="midnightblue" stroke="midnightblue" points="1007.3,-139.148 1016.28,-133.512 1005.75,-132.323 1007.3,-139.148"/>
</g>
<!-- Node29 -->
<g id="node29" class="node"><title>Node29</title>
<g id="a_node29"><a xlink:href="../../dc/d82/classPHNode.html#a5efaced7ccd6df01fc40abbb07dfe61d" target="_top" xlink:title="PHNode::setObjectType">
<polygon fill="none" stroke="black" points="998,-38.5 998,-57.5 1120,-57.5 1120,-38.5 998,-38.5"/>
<text text-anchor="middle" x="1059" y="-45.5" font-family="FreeSans" font-size="10.00">PHNode::setObjectType</text>
</a>
</g>
</g>
<!-- Node23&#45;&gt;Node29 -->
<g id="edge35" class="edge"><title>Node23&#45;&gt;Node29</title>
<path fill="none" stroke="midnightblue" d="M901.682,-152.911C915.39,-146.075 930.423,-137.028 942,-126 964.241,-104.812 953.144,-85.0492 978,-67 981.222,-64.6606 984.691,-62.6054 988.316,-60.8003"/>
<polygon fill="midnightblue" stroke="midnightblue" points="989.79,-63.9761 997.593,-56.8089 987.024,-57.5459 989.79,-63.9761"/>
</g>
<!-- Node24&#45;&gt;Node14 -->
<g id="edge28" class="edge"><title>Node24&#45;&gt;Node14</title>
<path fill="none" stroke="midnightblue" d="M1109.41,-93.2349C1119.92,-95.9878 1130.65,-99.78 1140,-105 1159.76,-116.032 1157.23,-128.362 1176,-141 1185.79,-147.59 1197.25,-153.199 1208.08,-157.721"/>
<polygon fill="midnightblue" stroke="midnightblue" points="1206.79,-160.974 1217.38,-161.413 1209.38,-154.469 1206.79,-160.974"/>
</g>
<!-- Node24&#45;&gt;Node15 -->
<g id="edge29" class="edge"><title>Node24&#45;&gt;Node15</title>
<path fill="none" stroke="midnightblue" d="M1109.05,-93.3851C1162.57,-102.585 1249.95,-120.996 1320,-152 1346.52,-163.739 1374.01,-182.71 1391.95,-196.175"/>
<polygon fill="midnightblue" stroke="midnightblue" points="1389.87,-198.994 1399.94,-202.287 1394.12,-193.433 1389.87,-198.994"/>
</g>
<!-- Node25 -->
<g id="node25" class="node"><title>Node25</title>
<g id="a_node25"><a xlink:href="../../dc/d82/classPHNode.html#a5c15cb20d02290b69eb4d7f6051c9722" target="_top" xlink:title="PHNode::getParent">
<polygon fill="none" stroke="black" points="1197.5,-76.5 1197.5,-95.5 1298.5,-95.5 1298.5,-76.5 1197.5,-76.5"/>
<text text-anchor="middle" x="1248" y="-83.5" font-family="FreeSans" font-size="10.00">PHNode::getParent</text>
</a>
</g>
</g>
<!-- Node24&#45;&gt;Node25 -->
<g id="edge27" class="edge"><title>Node24&#45;&gt;Node25</title>
<path fill="none" stroke="midnightblue" d="M1109.13,-86C1133,-86 1161.9,-86 1187.06,-86"/>
<polygon fill="midnightblue" stroke="midnightblue" points="1187.22,-89.5001 1197.22,-86 1187.22,-82.5001 1187.22,-89.5001"/>
</g>
<!-- Node26&#45;&gt;Node16 -->
<g id="edge31" class="edge"><title>Node26&#45;&gt;Node16</title>
<path fill="none" stroke="midnightblue" d="M1123.05,-268C1136.7,-268 1151.32,-268 1165.57,-268"/>
<polygon fill="midnightblue" stroke="midnightblue" points="1165.85,-271.5 1175.85,-268 1165.85,-264.5 1165.85,-271.5"/>
</g>
<!-- Node31 -->
<g id="node31" class="node"><title>Node31</title>
<g id="a_node31"><a xlink:href="../../d5/d88/PHMessage_8cc.html#a04070e856fed35b20952495249e0357f" target="_top" xlink:title="PHMessage">
<polygon fill="none" stroke="black" points="1023.5,-0.5 1023.5,-19.5 1094.5,-19.5 1094.5,-0.5 1023.5,-0.5"/>
<text text-anchor="middle" x="1059" y="-7.5" font-family="FreeSans" font-size="10.00">PHMessage</text>
</a>
</g>
</g>
<!-- Node30&#45;&gt;Node31 -->
<g id="edge37" class="edge"><title>Node30&#45;&gt;Node31</title>
<path fill="none" stroke="midnightblue" d="M883.857,-86.9192C905.414,-70.3948 942.341,-44.2184 978,-29 989.069,-24.2761 1001.52,-20.603 1013.25,-17.8009"/>
<polygon fill="midnightblue" stroke="midnightblue" points="1014.32,-21.1493 1023.32,-15.5581 1012.79,-14.3168 1014.32,-21.1493"/>
</g>
<!-- Node32&#45;&gt;Node3 -->
<g id="edge42" class="edge"><title>Node32&#45;&gt;Node3</title>
<path fill="none" stroke="midnightblue" d="M731.39,-357.019C737.935,-359.825 744.285,-363.125 750,-367 770.914,-381.179 769.342,-392.002 786,-411 806.247,-434.093 830.677,-459.759 846.509,-476.121"/>
<polygon fill="midnightblue" stroke="midnightblue" points="844.057,-478.62 853.535,-483.355 849.078,-473.743 844.057,-478.62"/>
</g>
<!-- Node33 -->
<g id="node33" class="node"><title>Node33</title>
<g id="a_node33"><a xlink:href="../../d7/d4d/classPHNodeIOManager.html#a7f701a7b25803133c586853f87454a3a" target="_top" xlink:title="PHNodeIOManager::selectObject\lToRead">
<polygon fill="none" stroke="black" points="978.5,-373 978.5,-403 1139.5,-403 1139.5,-373 978.5,-373"/>
<text text-anchor="start" x="986.5" y="-391" font-family="FreeSans" font-size="10.00">PHNodeIOManager::selectObject</text>
<text text-anchor="middle" x="1059" y="-380" font-family="FreeSans" font-size="10.00">ToRead</text>
</a>
</g>
</g>
<!-- Node32&#45;&gt;Node33 -->
<g id="edge39" class="edge"><title>Node32&#45;&gt;Node33</title>
<path fill="none" stroke="midnightblue" d="M732.072,-344.377C787.169,-347.08 870.322,-352.548 942,-363 956.244,-365.077 971.355,-367.883 985.798,-370.865"/>
<polygon fill="midnightblue" stroke="midnightblue" points="985.163,-374.308 995.671,-372.951 986.61,-367.459 985.163,-374.308"/>
</g>
<!-- Node34 -->
<g id="node34" class="node"><title>Node34</title>
<g id="a_node34"><a xlink:href="../../d7/d0b/classFun4AllDstInputManager.html#a22bc575e2e8b3b72e67523a694acbf22" target="_top" xlink:title="Fun4AllDstInputManager\l::setSyncBranches">
<polygon fill="none" stroke="black" points="802,-372 802,-402 926,-402 926,-372 802,-372"/>
<text text-anchor="start" x="810" y="-390" font-family="FreeSans" font-size="10.00">Fun4AllDstInputManager</text>
<text text-anchor="middle" x="864" y="-379" font-family="FreeSans" font-size="10.00">::setSyncBranches</text>
</a>
</g>
</g>
<!-- Node32&#45;&gt;Node34 -->
<g id="edge40" class="edge"><title>Node32&#45;&gt;Node34</title>
<path fill="none" stroke="midnightblue" d="M732.014,-356.3C751.083,-360.769 772.285,-365.739 791.98,-370.355"/>
<polygon fill="midnightblue" stroke="midnightblue" points="791.281,-373.786 801.815,-372.66 792.878,-366.97 791.281,-373.786"/>
</g>
<!-- Node34&#45;&gt;Node33 -->
<g id="edge41" class="edge"><title>Node34&#45;&gt;Node33</title>
<path fill="none" stroke="midnightblue" d="M926.066,-387.316C939.396,-387.385 953.774,-387.46 967.964,-387.533"/>
<polygon fill="midnightblue" stroke="midnightblue" points="968.228,-391.035 978.246,-387.587 968.264,-384.035 968.228,-391.035"/>
</g>
<!-- Node36&#45;&gt;Node31 -->
<g id="edge46" class="edge"><title>Node36&#45;&gt;Node31</title>
<path fill="none" stroke="midnightblue" d="M526.096,-184.475C535.613,-181.971 545.242,-178.856 554,-175 571.828,-167.151 572.717,-158.987 590,-150 735.33,-74.4288 927.77,-33.1976 1013.5,-17.5071"/>
<polygon fill="midnightblue" stroke="midnightblue" points="1014.2,-20.9382 1023.42,-15.7196 1012.96,-14.0492 1014.2,-20.9382"/>
</g>
</g>
</svg>
