<?xml version="1.0" encoding="UTF-8" standalone="no"?>
<!DOCTYPE svg PUBLIC "-//W3C//DTD SVG 1.1//EN"
 "http://www.w3.org/Graphics/SVG/1.1/DTD/svg11.dtd">
<!-- Generated by graphviz version 2.36.0 (20140111.2315)
 -->
<!-- Title: Fun4AllDstInputManager::fileopen Pages: 1 -->
<svg width="630pt" height="77pt"
 viewBox="0.00 0.00 630.00 77.00" xmlns="http://www.w3.org/2000/svg" xmlns:xlink="http://www.w3.org/1999/xlink">
<g id="graph0" class="graph" transform="scale(1 1) rotate(0) translate(4 73)">
<title>Fun4AllDstInputManager::fileopen</title>
<!-- Node1 -->
<g id="node1" class="node"><title>Node1</title>
<polygon fill="#bfbfbf" stroke="black" points="0,-22 0,-52 124,-52 124,-22 0,-22"/>
<text text-anchor="start" x="8" y="-40" font-family="FreeSans" font-size="10.00">Fun4AllDstInputManager</text>
<text text-anchor="middle" x="62" y="-29" font-family="FreeSans" font-size="10.00">::fileopen</text>
</g>
<!-- Node2 -->
<g id="node2" class="node"><title>Node2</title>
<g id="a_node2"><a xlink:href="../../d7/d0b/classFun4AllDstInputManager.html#ae4e92b95ae50ab72856d06c99b043496" target="_top" xlink:title="Fun4AllDstInputManager\l::OpenNextFile">
<polygon fill="none" stroke="black" points="160,-22 160,-52 284,-52 284,-22 160,-22"/>
<text text-anchor="start" x="168" y="-40" font-family="FreeSans" font-size="10.00">Fun4AllDstInputManager</text>
<text text-anchor="middle" x="222" y="-29" font-family="FreeSans" font-size="10.00">::OpenNextFile</text>
</a>
</g>
</g>
<!-- Node1&#45;&gt;Node2 -->
<g id="edge1" class="edge"><title>Node1&#45;&gt;Node2</title>
<path fill="none" stroke="midnightblue" d="M134.366,-37C142.863,-37 151.478,-37 159.815,-37"/>
<polygon fill="midnightblue" stroke="midnightblue" points="134.087,-33.5001 124.087,-37 134.087,-40.5001 134.087,-33.5001"/>
</g>
<!-- Node3 -->
<g id="node3" class="node"><title>Node3</title>
<g id="a_node3"><a xlink:href="../../d7/d0b/classFun4AllDstInputManager.html#aeafa0248f9050c13fdae1bcb93336d7a" target="_top" xlink:title="Fun4AllDstInputManager::run">
<polygon fill="none" stroke="black" points="320,-49.5 320,-68.5 462,-68.5 462,-49.5 320,-49.5"/>
<text text-anchor="middle" x="391" y="-56.5" font-family="FreeSans" font-size="10.00">Fun4AllDstInputManager::run</text>
</a>
</g>
</g>
<!-- Node2&#45;&gt;Node3 -->
<g id="edge2" class="edge"><title>Node2&#45;&gt;Node3</title>
<path fill="none" stroke="midnightblue" d="M294.376,-46.4029C302.777,-47.5095 311.344,-48.6381 319.729,-49.7427"/>
<polygon fill="midnightblue" stroke="midnightblue" points="294.608,-42.9032 284.236,-45.0671 293.694,-49.8433 294.608,-42.9032"/>
</g>
<!-- Node4 -->
<g id="node4" class="node"><title>Node4</title>
<g id="a_node4"><a xlink:href="../../d7/d0b/classFun4AllDstInputManager.html#ade26017b627e0e1f1ec0dec62ac7fd52" target="_top" xlink:title="Fun4AllDstInputManager\l::ReadNextEventSyncObject">
<polygon fill="none" stroke="black" points="321.5,-0 321.5,-30 460.5,-30 460.5,-0 321.5,-0"/>
<text text-anchor="start" x="329.5" y="-18" font-family="FreeSans" font-size="10.00">Fun4AllDstInputManager</text>
<text text-anchor="middle" x="391" y="-7" font-family="FreeSans" font-size="10.00">::ReadNextEventSyncObject</text>
</a>
</g>
</g>
<!-- Node2&#45;&gt;Node4 -->
<g id="edge3" class="edge"><title>Node2&#45;&gt;Node4</title>
<path fill="none" stroke="midnightblue" d="M294.291,-27.6083C303.291,-26.4228 312.483,-25.2118 321.438,-24.0321"/>
<polygon fill="midnightblue" stroke="midnightblue" points="293.694,-24.1567 284.236,-28.9329 294.608,-31.0968 293.694,-24.1567"/>
</g>
<!-- Node5 -->
<g id="node5" class="node"><title>Node5</title>
<g id="a_node5"><a xlink:href="../../d7/d0b/classFun4AllDstInputManager.html#a0244c2edbaa2350038304b09f352c2d0" target="_top" xlink:title="Fun4AllDstInputManager\l::SyncIt">
<polygon fill="none" stroke="black" points="498,-0 498,-30 622,-30 622,-0 498,-0"/>
<text text-anchor="start" x="506" y="-18" font-family="FreeSans" font-size="10.00">Fun4AllDstInputManager</text>
<text text-anchor="middle" x="560" y="-7" font-family="FreeSans" font-size="10.00">::SyncIt</text>
</a>
</g>
</g>
<!-- Node4&#45;&gt;Node5 -->
<g id="edge4" class="edge"><title>Node4&#45;&gt;Node5</title>
<path fill="none" stroke="midnightblue" d="M470.987,-15C479.977,-15 489.037,-15 497.749,-15"/>
<polygon fill="midnightblue" stroke="midnightblue" points="470.889,-11.5001 460.889,-15 470.889,-18.5001 470.889,-11.5001"/>
</g>
</g>
</svg>
