<?xml version="1.0" encoding="UTF-8" standalone="no"?>
<!DOCTYPE svg PUBLIC "-//W3C//DTD SVG 1.1//EN"
 "http://www.w3.org/Graphics/SVG/1.1/DTD/svg11.dtd">
<!-- Generated by graphviz version 2.36.0 (20140111.2315)
 -->
<!-- Title: Fun4AllDstInputManager::setSyncBranches Pages: 1 -->
<svg width="950pt" height="77pt"
 viewBox="0.00 0.00 950.00 77.00" xmlns="http://www.w3.org/2000/svg" xmlns:xlink="http://www.w3.org/1999/xlink">
<g id="graph0" class="graph" transform="scale(1 1) rotate(0) translate(4 73)">
<title>Fun4AllDstInputManager::setSyncBranches</title>
<!-- Node1 -->
<g id="node1" class="node"><title>Node1</title>
<polygon fill="#bfbfbf" stroke="black" points="0,-17 0,-47 124,-47 124,-17 0,-17"/>
<text text-anchor="start" x="8" y="-35" font-family="FreeSans" font-size="10.00">Fun4AllDstInputManager</text>
<text text-anchor="middle" x="62" y="-24" font-family="FreeSans" font-size="10.00">::setSyncBranches</text>
</g>
<!-- Node2 -->
<g id="node2" class="node"><title>Node2</title>
<g id="a_node2"><a xlink:href="../../d7/d0b/classFun4AllDstInputManager.html#ae18b1ca89168aab89e6a9b867951f8ce" target="_top" xlink:title="Fun4AllDstInputManager\l::setBranches">
<polygon fill="none" stroke="black" points="160,-17 160,-47 284,-47 284,-17 160,-17"/>
<text text-anchor="start" x="168" y="-35" font-family="FreeSans" font-size="10.00">Fun4AllDstInputManager</text>
<text text-anchor="middle" x="222" y="-24" font-family="FreeSans" font-size="10.00">::setBranches</text>
</a>
</g>
</g>
<!-- Node1&#45;&gt;Node2 -->
<g id="edge1" class="edge"><title>Node1&#45;&gt;Node2</title>
<path fill="none" stroke="midnightblue" d="M134.366,-32C142.863,-32 151.478,-32 159.815,-32"/>
<polygon fill="midnightblue" stroke="midnightblue" points="134.087,-28.5001 124.087,-32 134.087,-35.5001 134.087,-28.5001"/>
</g>
<!-- Node3 -->
<g id="node3" class="node"><title>Node3</title>
<g id="a_node3"><a xlink:href="../../d7/d0b/classFun4AllDstInputManager.html#a4d32eadb9f77d41387656b87377ef14f" target="_top" xlink:title="Fun4AllDstInputManager\l::fileopen">
<polygon fill="none" stroke="black" points="320,-17 320,-47 444,-47 444,-17 320,-17"/>
<text text-anchor="start" x="328" y="-35" font-family="FreeSans" font-size="10.00">Fun4AllDstInputManager</text>
<text text-anchor="middle" x="382" y="-24" font-family="FreeSans" font-size="10.00">::fileopen</text>
</a>
</g>
</g>
<!-- Node2&#45;&gt;Node3 -->
<g id="edge2" class="edge"><title>Node2&#45;&gt;Node3</title>
<path fill="none" stroke="midnightblue" d="M294.366,-32C302.863,-32 311.478,-32 319.815,-32"/>
<polygon fill="midnightblue" stroke="midnightblue" points="294.087,-28.5001 284.087,-32 294.087,-35.5001 294.087,-28.5001"/>
</g>
<!-- Node4 -->
<g id="node4" class="node"><title>Node4</title>
<g id="a_node4"><a xlink:href="../../d7/d0b/classFun4AllDstInputManager.html#ae4e92b95ae50ab72856d06c99b043496" target="_top" xlink:title="Fun4AllDstInputManager\l::OpenNextFile">
<polygon fill="none" stroke="black" points="480,-17 480,-47 604,-47 604,-17 480,-17"/>
<text text-anchor="start" x="488" y="-35" font-family="FreeSans" font-size="10.00">Fun4AllDstInputManager</text>
<text text-anchor="middle" x="542" y="-24" font-family="FreeSans" font-size="10.00">::OpenNextFile</text>
</a>
</g>
</g>
<!-- Node3&#45;&gt;Node4 -->
<g id="edge3" class="edge"><title>Node3&#45;&gt;Node4</title>
<path fill="none" stroke="midnightblue" d="M454.366,-32C462.863,-32 471.478,-32 479.815,-32"/>
<polygon fill="midnightblue" stroke="midnightblue" points="454.087,-28.5001 444.087,-32 454.087,-35.5001 454.087,-28.5001"/>
</g>
<!-- Node5 -->
<g id="node5" class="node"><title>Node5</title>
<g id="a_node5"><a xlink:href="../../d7/d0b/classFun4AllDstInputManager.html#ade26017b627e0e1f1ec0dec62ac7fd52" target="_top" xlink:title="Fun4AllDstInputManager\l::ReadNextEventSyncObject">
<polygon fill="none" stroke="black" points="641.5,-39 641.5,-69 780.5,-69 780.5,-39 641.5,-39"/>
<text text-anchor="start" x="649.5" y="-57" font-family="FreeSans" font-size="10.00">Fun4AllDstInputManager</text>
<text text-anchor="middle" x="711" y="-46" font-family="FreeSans" font-size="10.00">::ReadNextEventSyncObject</text>
</a>
</g>
</g>
<!-- Node4&#45;&gt;Node5 -->
<g id="edge4" class="edge"><title>Node4&#45;&gt;Node5</title>
<path fill="none" stroke="midnightblue" d="M614.291,-41.3917C623.291,-42.5772 632.483,-43.7882 641.438,-44.9679"/>
<polygon fill="midnightblue" stroke="midnightblue" points="614.608,-37.9032 604.236,-40.0671 613.694,-44.8433 614.608,-37.9032"/>
</g>
<!-- Node7 -->
<g id="node7" class="node"><title>Node7</title>
<g id="a_node7"><a xlink:href="../../d7/d0b/classFun4AllDstInputManager.html#aeafa0248f9050c13fdae1bcb93336d7a" target="_top" xlink:title="Fun4AllDstInputManager::run">
<polygon fill="none" stroke="black" points="640,-0.5 640,-19.5 782,-19.5 782,-0.5 640,-0.5"/>
<text text-anchor="middle" x="711" y="-7.5" font-family="FreeSans" font-size="10.00">Fun4AllDstInputManager::run</text>
</a>
</g>
</g>
<!-- Node4&#45;&gt;Node7 -->
<g id="edge6" class="edge"><title>Node4&#45;&gt;Node7</title>
<path fill="none" stroke="midnightblue" d="M614.376,-22.5971C622.777,-21.4905 631.344,-20.3619 639.729,-19.2573"/>
<polygon fill="midnightblue" stroke="midnightblue" points="613.694,-19.1567 604.236,-23.9329 614.608,-26.0968 613.694,-19.1567"/>
</g>
<!-- Node6 -->
<g id="node6" class="node"><title>Node6</title>
<g id="a_node6"><a xlink:href="../../d7/d0b/classFun4AllDstInputManager.html#a0244c2edbaa2350038304b09f352c2d0" target="_top" xlink:title="Fun4AllDstInputManager\l::SyncIt">
<polygon fill="none" stroke="black" points="818,-39 818,-69 942,-69 942,-39 818,-39"/>
<text text-anchor="start" x="826" y="-57" font-family="FreeSans" font-size="10.00">Fun4AllDstInputManager</text>
<text text-anchor="middle" x="880" y="-46" font-family="FreeSans" font-size="10.00">::SyncIt</text>
</a>
</g>
</g>
<!-- Node5&#45;&gt;Node6 -->
<g id="edge5" class="edge"><title>Node5&#45;&gt;Node6</title>
<path fill="none" stroke="midnightblue" d="M790.987,-54C799.977,-54 809.037,-54 817.749,-54"/>
<polygon fill="midnightblue" stroke="midnightblue" points="790.889,-50.5001 780.889,-54 790.889,-57.5001 790.889,-50.5001"/>
</g>
</g>
</svg>
