<?xml version="1.0" encoding="UTF-8" standalone="no"?>
<!DOCTYPE svg PUBLIC "-//W3C//DTD SVG 1.1//EN"
 "http://www.w3.org/Graphics/SVG/1.1/DTD/svg11.dtd">
<!-- Generated by graphviz version 2.36.0 (20140111.2315)
 -->
<!-- Title: Fun4AllDstInputManager::PushBackEvents Pages: 1 -->
<svg width="324pt" height="66pt"
 viewBox="0.00 0.00 324.00 66.00" xmlns="http://www.w3.org/2000/svg" xmlns:xlink="http://www.w3.org/1999/xlink">
<g id="graph0" class="graph" transform="scale(1 1) rotate(0) translate(4 62)">
<title>Fun4AllDstInputManager::PushBackEvents</title>
<!-- Node1 -->
<g id="node1" class="node"><title>Node1</title>
<polygon fill="#bfbfbf" stroke="black" points="0,-14 0,-44 124,-44 124,-14 0,-14"/>
<text text-anchor="start" x="8" y="-32" font-family="FreeSans" font-size="10.00">Fun4AllDstInputManager</text>
<text text-anchor="middle" x="62" y="-21" font-family="FreeSans" font-size="10.00">::PushBackEvents</text>
</g>
<!-- Node2 -->
<g id="node2" class="node"><title>Node2</title>
<g id="a_node2"><a xlink:href="../../d0/d36/classPHIOManager.html#aea7d5c3333137f593ad4cfc8f9c30466" target="_top" xlink:title="PHIOManager::getEventNumber">
<polygon fill="none" stroke="black" points="160,-38.5 160,-57.5 316,-57.5 316,-38.5 160,-38.5"/>
<text text-anchor="middle" x="238" y="-45.5" font-family="FreeSans" font-size="10.00">PHIOManager::getEventNumber</text>
</a>
</g>
</g>
<!-- Node1&#45;&gt;Node2 -->
<g id="edge1" class="edge"><title>Node1&#45;&gt;Node2</title>
<path fill="none" stroke="midnightblue" d="M124.346,-35.6987C132.574,-36.5971 141.138,-37.5323 149.706,-38.4679"/>
<polygon fill="midnightblue" stroke="midnightblue" points="149.425,-41.9579 159.746,-39.5642 150.185,-34.9993 149.425,-41.9579"/>
</g>
<!-- Node3 -->
<g id="node3" class="node"><title>Node3</title>
<g id="a_node3"><a xlink:href="../../d0/d36/classPHIOManager.html#aee0b0ab22284ccb71cdcc57d392c7432" target="_top" xlink:title="PHIOManager::setEventNumber">
<polygon fill="none" stroke="black" points="160,-0.5 160,-19.5 316,-19.5 316,-0.5 160,-0.5"/>
<text text-anchor="middle" x="238" y="-7.5" font-family="FreeSans" font-size="10.00">PHIOManager::setEventNumber</text>
</a>
</g>
</g>
<!-- Node1&#45;&gt;Node3 -->
<g id="edge2" class="edge"><title>Node1&#45;&gt;Node3</title>
<path fill="none" stroke="midnightblue" d="M124.346,-22.3013C132.574,-21.4029 141.138,-20.4677 149.706,-19.5321"/>
<polygon fill="midnightblue" stroke="midnightblue" points="150.185,-23.0007 159.746,-18.4358 149.425,-16.0421 150.185,-23.0007"/>
</g>
</g>
</svg>
