<?xml version="1.0" encoding="UTF-8" standalone="no"?>
<!DOCTYPE svg PUBLIC "-//W3C//DTD SVG 1.1//EN"
 "http://www.w3.org/Graphics/SVG/1.1/DTD/svg11.dtd">
<!-- Generated by graphviz version 2.36.0 (20140111.2315)
 -->
<!-- Title: Fun4AllDstInputManager::run Pages: 1 -->
<svg width="1386pt" height="642pt"
 viewBox="0.00 0.00 1386.00 642.29" xmlns="http://www.w3.org/2000/svg" xmlns:xlink="http://www.w3.org/1999/xlink">
<g id="graph0" class="graph" transform="scale(1 1) rotate(0) translate(4 638.286)">
<title>Fun4AllDstInputManager::run</title>
<!-- Node1 -->
<g id="node1" class="node"><title>Node1</title>
<polygon fill="#bfbfbf" stroke="black" points="0,-383.5 0,-402.5 142,-402.5 142,-383.5 0,-383.5"/>
<text text-anchor="middle" x="71" y="-390.5" font-family="FreeSans" font-size="10.00">Fun4AllDstInputManager::run</text>
</g>
<!-- Node2 -->
<g id="node2" class="node"><title>Node2</title>
<g id="a_node2"><a xlink:href="../../d7/d0b/classFun4AllDstInputManager.html#acc1f41cde35bb897b779bea7fb452e78" target="_top" xlink:title="Fun4AllDstInputManager\l::fileclose">
<polygon fill="none" stroke="black" points="516,-578 516,-608 640,-608 640,-578 516,-578"/>
<text text-anchor="start" x="524" y="-596" font-family="FreeSans" font-size="10.00">Fun4AllDstInputManager</text>
<text text-anchor="middle" x="578" y="-585" font-family="FreeSans" font-size="10.00">::fileclose</text>
</a>
</g>
</g>
<!-- Node1&#45;&gt;Node2 -->
<g id="edge1" class="edge"><title>Node1&#45;&gt;Node2</title>
<path fill="none" stroke="midnightblue" d="M93.4743,-402.568C155.501,-430.041 340.542,-510.856 498,-568 504.269,-570.275 510.858,-572.546 517.446,-574.74"/>
<polygon fill="midnightblue" stroke="midnightblue" points="516.467,-578.102 527.06,-577.89 518.647,-571.45 516.467,-578.102"/>
</g>
<!-- Node3 -->
<g id="node3" class="node"><title>Node3</title>
<g id="a_node3"><a xlink:href="../../d5/dec/classFun4AllBase.html#a41f9ac377743d046f590617fd6f4f0ed" target="_top" xlink:title="Returns the name of this module. ">
<polygon fill="none" stroke="black" points="720.5,-479.5 720.5,-498.5 823.5,-498.5 823.5,-479.5 720.5,-479.5"/>
<text text-anchor="middle" x="772" y="-486.5" font-family="FreeSans" font-size="10.00">Fun4AllBase::Name</text>
</a>
</g>
</g>
<!-- Node1&#45;&gt;Node3 -->
<g id="edge3" class="edge"><title>Node1&#45;&gt;Node3</title>
<path fill="none" stroke="midnightblue" d="M81.8233,-402.551C99.7503,-419.604 139.483,-455.682 178,-479 310.495,-559.212 346.315,-585.687 498,-617 567.643,-631.377 593.179,-646.241 658,-617 708.009,-594.44 744.771,-537.598 761.302,-507.834"/>
<polygon fill="midnightblue" stroke="midnightblue" points="764.47,-509.333 766.122,-498.867 758.304,-506.018 764.47,-509.333"/>
</g>
<!-- Node4 -->
<g id="node4" class="node"><title>Node4</title>
<g id="a_node4"><a xlink:href="../../d7/d0b/classFun4AllDstInputManager.html#ae4e92b95ae50ab72856d06c99b043496" target="_top" xlink:title="Fun4AllDstInputManager\l::OpenNextFile">
<polygon fill="none" stroke="black" points="178,-378 178,-408 302,-408 302,-378 178,-378"/>
<text text-anchor="start" x="186" y="-396" font-family="FreeSans" font-size="10.00">Fun4AllDstInputManager</text>
<text text-anchor="middle" x="240" y="-385" font-family="FreeSans" font-size="10.00">::OpenNextFile</text>
</a>
</g>
</g>
<!-- Node1&#45;&gt;Node4 -->
<g id="edge4" class="edge"><title>Node1&#45;&gt;Node4</title>
<path fill="none" stroke="midnightblue" d="M142.339,-393C150.704,-393 159.25,-393 167.63,-393"/>
<polygon fill="midnightblue" stroke="midnightblue" points="167.745,-396.5 177.745,-393 167.745,-389.5 167.745,-396.5"/>
</g>
<!-- Node19 -->
<g id="node19" class="node"><title>Node19</title>
<g id="a_node19"><a xlink:href="../../d7/d4d/classPHNodeIOManager.html#a92da4bff2438e94d469011b7720f286f" target="_top" xlink:title="PHNodeIOManager::read">
<polygon fill="none" stroke="black" points="515.5,-121.5 515.5,-140.5 640.5,-140.5 640.5,-121.5 515.5,-121.5"/>
<text text-anchor="middle" x="578" y="-128.5" font-family="FreeSans" font-size="10.00">PHNodeIOManager::read</text>
</a>
</g>
</g>
<!-- Node1&#45;&gt;Node19 -->
<g id="edge42" class="edge"><title>Node1&#45;&gt;Node19</title>
<path fill="none" stroke="midnightblue" d="M88.0651,-383.377C108.748,-371.04 145.855,-349.084 178,-331 318.909,-251.731 349.884,-222.812 498,-158 509.945,-152.773 523.249,-147.886 535.483,-143.745"/>
<polygon fill="midnightblue" stroke="midnightblue" points="536.622,-147.055 545.018,-140.592 534.425,-140.409 536.622,-147.055"/>
</g>
<!-- Node33 -->
<g id="node33" class="node"><title>Node33</title>
<g id="a_node33"><a xlink:href="../../d4/da9/classFun4AllInputManager.html#a08fc36a2da8759e20f8e035afe5ef6e5" target="_top" xlink:title="Fun4AllInputManager\l::RejectEvent">
<polygon fill="none" stroke="black" points="345.5,-292 345.5,-322 454.5,-322 454.5,-292 345.5,-292"/>
<text text-anchor="start" x="353.5" y="-310" font-family="FreeSans" font-size="10.00">Fun4AllInputManager</text>
<text text-anchor="middle" x="400" y="-299" font-family="FreeSans" font-size="10.00">::RejectEvent</text>
</a>
</g>
</g>
<!-- Node1&#45;&gt;Node33 -->
<g id="edge43" class="edge"><title>Node1&#45;&gt;Node33</title>
<path fill="none" stroke="midnightblue" d="M108.244,-383.468C163.082,-369.046 267.903,-341.478 335.568,-323.682"/>
<polygon fill="midnightblue" stroke="midnightblue" points="336.491,-327.059 345.272,-321.13 334.71,-320.289 336.491,-327.059"/>
</g>
<!-- Node2&#45;&gt;Node3 -->
<g id="edge2" class="edge"><title>Node2&#45;&gt;Node3</title>
<path fill="none" stroke="midnightblue" d="M634.244,-577.893C642.37,-574.994 650.517,-571.692 658,-568 693.628,-550.423 730.555,-522.432 752.122,-504.918"/>
<polygon fill="midnightblue" stroke="midnightblue" points="754.365,-507.605 759.859,-498.546 749.915,-502.202 754.365,-507.605"/>
</g>
<!-- Node5 -->
<g id="node5" class="node"><title>Node5</title>
<g id="a_node5"><a xlink:href="../../d7/d0b/classFun4AllDstInputManager.html#a4d32eadb9f77d41387656b87377ef14f" target="_top" xlink:title="Fun4AllDstInputManager\l::fileopen">
<polygon fill="none" stroke="black" points="338,-378 338,-408 462,-408 462,-378 338,-378"/>
<text text-anchor="start" x="346" y="-396" font-family="FreeSans" font-size="10.00">Fun4AllDstInputManager</text>
<text text-anchor="middle" x="400" y="-385" font-family="FreeSans" font-size="10.00">::fileopen</text>
</a>
</g>
</g>
<!-- Node4&#45;&gt;Node5 -->
<g id="edge5" class="edge"><title>Node4&#45;&gt;Node5</title>
<path fill="none" stroke="midnightblue" d="M302.087,-393C310.513,-393 319.226,-393 327.815,-393"/>
<polygon fill="midnightblue" stroke="midnightblue" points="327.815,-396.5 337.815,-393 327.815,-389.5 327.815,-396.5"/>
</g>
<!-- Node5&#45;&gt;Node2 -->
<g id="edge7" class="edge"><title>Node5&#45;&gt;Node2</title>
<path fill="none" stroke="midnightblue" d="M409.055,-408.247C431.056,-449.79 490.992,-562.268 498,-568 500.756,-570.254 503.717,-572.306 506.819,-574.174"/>
<polygon fill="midnightblue" stroke="midnightblue" points="505.4,-577.383 515.876,-578.965 508.673,-571.195 505.4,-577.383"/>
</g>
<!-- Node6 -->
<g id="node6" class="node"><title>Node6</title>
<g id="a_node6"><a xlink:href="../../d4/da9/classFun4AllInputManager.html#a98ac3fb04956625a423ef41a3909ba27" target="_top" xlink:title="Fun4AllInputManager\l::AddToFileOpened">
<polygon fill="none" stroke="black" points="523.5,-441 523.5,-471 632.5,-471 632.5,-441 523.5,-441"/>
<text text-anchor="start" x="531.5" y="-459" font-family="FreeSans" font-size="10.00">Fun4AllInputManager</text>
<text text-anchor="middle" x="578" y="-448" font-family="FreeSans" font-size="10.00">::AddToFileOpened</text>
</a>
</g>
</g>
<!-- Node5&#45;&gt;Node6 -->
<g id="edge6" class="edge"><title>Node5&#45;&gt;Node6</title>
<path fill="none" stroke="midnightblue" d="M437.631,-408.019C455.698,-415.255 477.879,-423.884 498,-431 504.379,-433.256 511.08,-435.527 517.77,-437.731"/>
<polygon fill="midnightblue" stroke="midnightblue" points="516.933,-441.139 527.525,-440.903 519.097,-434.482 516.933,-441.139"/>
</g>
<!-- Node7 -->
<g id="node7" class="node"><title>Node7</title>
<g id="a_node7"><a xlink:href="../../df/d35/classRunHeader.html#a73da574a4faeef5c0797024e8a7a534f" target="_top" xlink:title="get Run Number ">
<polygon fill="none" stroke="black" points="508,-402.5 508,-421.5 648,-421.5 648,-402.5 508,-402.5"/>
<text text-anchor="middle" x="578" y="-409.5" font-family="FreeSans" font-size="10.00">RunHeader::get_RunNumber</text>
</a>
</g>
</g>
<!-- Node5&#45;&gt;Node7 -->
<g id="edge8" class="edge"><title>Node5&#45;&gt;Node7</title>
<path fill="none" stroke="midnightblue" d="M462.062,-399.592C473.62,-400.84 485.863,-402.161 497.883,-403.459"/>
<polygon fill="midnightblue" stroke="midnightblue" points="497.589,-406.947 507.907,-404.541 498.34,-399.988 497.589,-406.947"/>
</g>
<!-- Node8 -->
<g id="node8" class="node"><title>Node8</title>
<g id="a_node8"><a xlink:href="../../da/d29/classFun4AllServer.html#ac42fd391b795d9605811abb9394c2011" target="_top" xlink:title="Fun4AllServer::getNode">
<polygon fill="none" stroke="black" points="518.5,-238.5 518.5,-257.5 637.5,-257.5 637.5,-238.5 518.5,-238.5"/>
<text text-anchor="middle" x="578" y="-245.5" font-family="FreeSans" font-size="10.00">Fun4AllServer::getNode</text>
</a>
</g>
</g>
<!-- Node5&#45;&gt;Node8 -->
<g id="edge9" class="edge"><title>Node5&#45;&gt;Node8</title>
<path fill="none" stroke="midnightblue" d="M418.306,-377.761C431.263,-365.823 448.93,-348.378 462,-331 481.616,-304.917 471.964,-286.678 498,-267 501.418,-264.416 505.138,-262.178 509.038,-260.24"/>
<polygon fill="midnightblue" stroke="midnightblue" points="510.588,-263.384 518.413,-256.241 507.842,-256.946 510.588,-263.384"/>
</g>
<!-- Node16 -->
<g id="node16" class="node"><title>Node16</title>
<g id="a_node16"><a xlink:href="../../da/d29/classFun4AllServer.html#a3e55156f91b2c94bb6c4ef33ffce587a" target="_top" xlink:title="Fun4AllServer::instance">
<polygon fill="none" stroke="black" points="518.5,-200.5 518.5,-219.5 637.5,-219.5 637.5,-200.5 518.5,-200.5"/>
<text text-anchor="middle" x="578" y="-207.5" font-family="FreeSans" font-size="10.00">Fun4AllServer::instance</text>
</a>
</g>
</g>
<!-- Node5&#45;&gt;Node16 -->
<g id="edge19" class="edge"><title>Node5&#45;&gt;Node16</title>
<path fill="none" stroke="midnightblue" d="M419.759,-377.885C433.115,-366.274 450.641,-349.187 462,-331 487.466,-290.225 462.297,-261.194 498,-229 501.392,-225.942 505.189,-223.353 509.235,-221.164"/>
<polygon fill="midnightblue" stroke="midnightblue" points="510.775,-224.309 518.429,-216.984 507.877,-217.937 510.775,-224.309"/>
</g>
<!-- Node17 -->
<g id="node17" class="node"><title>Node17</title>
<g id="a_node17"><a xlink:href="../../d7/d4d/classPHNodeIOManager.html#a7fcd787c0049e4476b2534299b801b47" target="_top" xlink:title="PHNodeIOManager::isFunctional">
<polygon fill="none" stroke="black" points="498.5,-364.5 498.5,-383.5 657.5,-383.5 657.5,-364.5 498.5,-364.5"/>
<text text-anchor="middle" x="578" y="-371.5" font-family="FreeSans" font-size="10.00">PHNodeIOManager::isFunctional</text>
</a>
</g>
</g>
<!-- Node5&#45;&gt;Node17 -->
<g id="edge20" class="edge"><title>Node5&#45;&gt;Node17</title>
<path fill="none" stroke="midnightblue" d="M462.062,-386.408C470.574,-385.489 479.458,-384.53 488.351,-383.57"/>
<polygon fill="midnightblue" stroke="midnightblue" points="488.81,-387.041 498.376,-382.488 488.058,-380.081 488.81,-387.041"/>
</g>
<!-- Node18 -->
<g id="node18" class="node"><title>Node18</title>
<g id="a_node18"><a xlink:href="../../d7/d4d/classPHNodeIOManager.html#a2be363482604b6f51d9335d75b72a8ff" target="_top" xlink:title="PHNodeIOManager::print">
<polygon fill="none" stroke="black" points="515.5,-539.5 515.5,-558.5 640.5,-558.5 640.5,-539.5 515.5,-539.5"/>
<text text-anchor="middle" x="578" y="-546.5" font-family="FreeSans" font-size="10.00">PHNodeIOManager::print</text>
</a>
</g>
</g>
<!-- Node5&#45;&gt;Node18 -->
<g id="edge21" class="edge"><title>Node5&#45;&gt;Node18</title>
<path fill="none" stroke="midnightblue" d="M407.537,-408.358C420.453,-436.789 452.031,-497.578 498,-529 501.714,-531.539 505.724,-533.755 509.899,-535.69"/>
<polygon fill="midnightblue" stroke="midnightblue" points="508.671,-538.969 519.253,-539.494 511.308,-532.485 508.671,-538.969"/>
</g>
<!-- Node5&#45;&gt;Node19 -->
<g id="edge22" class="edge"><title>Node5&#45;&gt;Node19</title>
<path fill="none" stroke="midnightblue" d="M420.527,-377.927C434.082,-366.461 451.523,-349.535 462,-331 493.614,-275.07 462.445,-244.511 498,-191 510.706,-171.877 531.603,-156.4 548.713,-145.957"/>
<polygon fill="midnightblue" stroke="midnightblue" points="550.88,-148.745 557.753,-140.682 547.352,-142.699 550.88,-148.745"/>
</g>
<!-- Node29 -->
<g id="node29" class="node"><title>Node29</title>
<g id="a_node29"><a xlink:href="../../d7/d0b/classFun4AllDstInputManager.html#ae18b1ca89168aab89e6a9b867951f8ce" target="_top" xlink:title="Fun4AllDstInputManager\l::setBranches">
<polygon fill="none" stroke="black" points="516,-277 516,-307 640,-307 640,-277 516,-277"/>
<text text-anchor="start" x="524" y="-295" font-family="FreeSans" font-size="10.00">Fun4AllDstInputManager</text>
<text text-anchor="middle" x="578" y="-284" font-family="FreeSans" font-size="10.00">::setBranches</text>
</a>
</g>
</g>
<!-- Node5&#45;&gt;Node29 -->
<g id="edge36" class="edge"><title>Node5&#45;&gt;Node29</title>
<path fill="none" stroke="midnightblue" d="M427.349,-377.879C457.765,-360.425 507.928,-331.638 541.698,-312.258"/>
<polygon fill="midnightblue" stroke="midnightblue" points="543.827,-315.072 550.759,-307.059 540.343,-309.001 543.827,-315.072"/>
</g>
<!-- Node32 -->
<g id="node32" class="node"><title>Node32</title>
<g id="a_node32"><a xlink:href="../../d4/da9/classFun4AllInputManager.html#af9bf7d76be5d2c0b10843ae734da9bbb" target="_top" xlink:title="Fun4AllInputManager\l::SetRunNumber">
<polygon fill="none" stroke="black" points="523.5,-490 523.5,-520 632.5,-520 632.5,-490 523.5,-490"/>
<text text-anchor="start" x="531.5" y="-508" font-family="FreeSans" font-size="10.00">Fun4AllInputManager</text>
<text text-anchor="middle" x="578" y="-497" font-family="FreeSans" font-size="10.00">::SetRunNumber</text>
</a>
</g>
</g>
<!-- Node5&#45;&gt;Node32 -->
<g id="edge41" class="edge"><title>Node5&#45;&gt;Node32</title>
<path fill="none" stroke="midnightblue" d="M413.96,-408.053C431.291,-427.305 463.818,-460.483 498,-480 503.042,-482.879 508.458,-485.471 514.004,-487.796"/>
<polygon fill="midnightblue" stroke="midnightblue" points="512.83,-491.095 523.418,-491.459 515.368,-484.571 512.83,-491.095"/>
</g>
<!-- Node9 -->
<g id="node9" class="node"><title>Node9</title>
<g id="a_node9"><a xlink:href="../../da/d29/classFun4AllServer.html#abcaf6825367e5db292ff795237bdcf62" target="_top" xlink:title="Fun4AllServer::topNode">
<polygon fill="none" stroke="black" points="712.5,-164.5 712.5,-183.5 831.5,-183.5 831.5,-164.5 712.5,-164.5"/>
<text text-anchor="middle" x="772" y="-171.5" font-family="FreeSans" font-size="10.00">Fun4AllServer::topNode</text>
</a>
</g>
</g>
<!-- Node8&#45;&gt;Node9 -->
<g id="edge10" class="edge"><title>Node8&#45;&gt;Node9</title>
<path fill="none" stroke="midnightblue" d="M633.769,-238.429C642.126,-235.953 650.467,-232.859 658,-229 676.792,-219.372 675.537,-208.244 694,-198 702.003,-193.56 710.938,-189.823 719.808,-186.719"/>
<polygon fill="midnightblue" stroke="midnightblue" points="720.943,-190.03 729.361,-183.596 718.768,-183.377 720.943,-190.03"/>
</g>
<!-- Node10 -->
<g id="node10" class="node"><title>Node10</title>
<g id="a_node10"><a xlink:href="../../d5/d07/classPHNodeIterator.html#aea98bf8619af59b1212a94fb32106baa" target="_top" xlink:title="PHNodeIterator::findFirst">
<polygon fill="none" stroke="black" points="905,-278.5 905,-297.5 1029,-297.5 1029,-278.5 905,-278.5"/>
<text text-anchor="middle" x="967" y="-285.5" font-family="FreeSans" font-size="10.00">PHNodeIterator::findFirst</text>
</a>
</g>
</g>
<!-- Node8&#45;&gt;Node10 -->
<g id="edge11" class="edge"><title>Node8&#45;&gt;Node10</title>
<path fill="none" stroke="midnightblue" d="M637.777,-254.075C706.642,-261.193 820.703,-272.982 894.597,-280.62"/>
<polygon fill="midnightblue" stroke="midnightblue" points="894.442,-284.122 904.749,-281.669 895.162,-277.159 894.442,-284.122"/>
</g>
<!-- Node13 -->
<g id="node13" class="node"><title>Node13</title>
<g id="a_node13"><a xlink:href="../../d5/dca/classPHCompositeNode.html#ac7dbf017614c324e218a001d729607bf" target="_top" xlink:title="PHCompositeNode::addNode">
<polygon fill="none" stroke="black" points="1084,-164.5 1084,-183.5 1228,-183.5 1228,-164.5 1084,-164.5"/>
<text text-anchor="middle" x="1156" y="-171.5" font-family="FreeSans" font-size="10.00">PHCompositeNode::addNode</text>
</a>
</g>
</g>
<!-- Node8&#45;&gt;Node13 -->
<g id="edge15" class="edge"><title>Node8&#45;&gt;Node13</title>
<path fill="none" stroke="midnightblue" d="M637.611,-241.912C726.508,-232.473 900.68,-213.174 1048,-192 1062.03,-189.984 1077.05,-187.598 1091.28,-185.234"/>
<polygon fill="midnightblue" stroke="midnightblue" points="1092.19,-188.63 1101.47,-183.522 1091.03,-181.727 1092.19,-188.63"/>
</g>
<!-- Node10&#45;&gt;Node10 -->
<g id="edge14" class="edge"><title>Node10&#45;&gt;Node10</title>
<path fill="none" stroke="midnightblue" d="M938.024,-297.757C923.927,-306.565 933.586,-316 967,-316 989.972,-316 1001.72,-311.541 1002.23,-305.891"/>
<polygon fill="midnightblue" stroke="midnightblue" points="1004.85,-303.55 995.976,-297.757 999.298,-307.818 1004.85,-303.55"/>
</g>
<!-- Node11 -->
<g id="node11" class="node"><title>Node11</title>
<g id="a_node11"><a xlink:href="../../dc/d82/classPHNode.html#a4ab1f90aed955a652813bfe377087bda" target="_top" xlink:title="PHNode::getType">
<polygon fill="none" stroke="black" points="1109.5,-278.5 1109.5,-297.5 1202.5,-297.5 1202.5,-278.5 1109.5,-278.5"/>
<text text-anchor="middle" x="1156" y="-285.5" font-family="FreeSans" font-size="10.00">PHNode::getType</text>
</a>
</g>
</g>
<!-- Node10&#45;&gt;Node11 -->
<g id="edge12" class="edge"><title>Node10&#45;&gt;Node11</title>
<path fill="none" stroke="midnightblue" d="M1029.23,-288C1051.76,-288 1077.14,-288 1099.17,-288"/>
<polygon fill="midnightblue" stroke="midnightblue" points="1099.36,-291.5 1109.36,-288 1099.36,-284.5 1099.36,-291.5"/>
</g>
<!-- Node12 -->
<g id="node12" class="node"><title>Node12</title>
<g id="a_node12"><a xlink:href="../../dc/d82/classPHNode.html#aca3576f926a4401eddc3d88bf0ce0de3" target="_top" xlink:title="PHNode::getName">
<polygon fill="none" stroke="black" points="1272,-240.5 1272,-259.5 1370,-259.5 1370,-240.5 1272,-240.5"/>
<text text-anchor="middle" x="1321" y="-247.5" font-family="FreeSans" font-size="10.00">PHNode::getName</text>
</a>
</g>
</g>
<!-- Node10&#45;&gt;Node12 -->
<g id="edge13" class="edge"><title>Node10&#45;&gt;Node12</title>
<path fill="none" stroke="midnightblue" d="M1001.17,-297.605C1051.32,-310.54 1148.99,-329.491 1228,-307 1255.95,-299.042 1283.72,-279.89 1301.31,-265.977"/>
<polygon fill="midnightblue" stroke="midnightblue" points="1303.55,-268.67 1309.09,-259.64 1299.13,-263.243 1303.55,-268.67"/>
</g>
<!-- Node13&#45;&gt;Node12 -->
<g id="edge16" class="edge"><title>Node13&#45;&gt;Node12</title>
<path fill="none" stroke="midnightblue" d="M1200.87,-183.579C1210,-186.17 1219.45,-189.303 1228,-193 1241.87,-198.997 1274.63,-219.958 1297.06,-234.713"/>
<polygon fill="midnightblue" stroke="midnightblue" points="1295.4,-237.809 1305.67,-240.403 1299.26,-231.969 1295.4,-237.809"/>
</g>
<!-- Node14 -->
<g id="node14" class="node"><title>Node14</title>
<g id="a_node14"><a xlink:href="../../dc/d82/classPHNode.html#adda2bd6cef2d5067bbe3016a990b7198" target="_top" xlink:title="PHNode::setParent">
<polygon fill="none" stroke="black" points="1270.5,-183.5 1270.5,-202.5 1371.5,-202.5 1371.5,-183.5 1270.5,-183.5"/>
<text text-anchor="middle" x="1321" y="-190.5" font-family="FreeSans" font-size="10.00">PHNode::setParent</text>
</a>
</g>
</g>
<!-- Node13&#45;&gt;Node14 -->
<g id="edge17" class="edge"><title>Node13&#45;&gt;Node14</title>
<path fill="none" stroke="midnightblue" d="M1228.02,-182.278C1238.7,-183.523 1249.63,-184.797 1260.05,-186.011"/>
<polygon fill="midnightblue" stroke="midnightblue" points="1259.93,-189.522 1270.27,-187.203 1260.74,-182.569 1259.93,-189.522"/>
</g>
<!-- Node15 -->
<g id="node15" class="node"><title>Node15</title>
<g id="a_node15"><a xlink:href="../../d6/d86/classPHPointerList.html#af5fc4e6958b5b90c57bfb497566f503c" target="_top" xlink:title="PHPointerList::append">
<polygon fill="none" stroke="black" points="1264,-145.5 1264,-164.5 1378,-164.5 1378,-145.5 1264,-145.5"/>
<text text-anchor="middle" x="1321" y="-152.5" font-family="FreeSans" font-size="10.00">PHPointerList::append</text>
</a>
</g>
</g>
<!-- Node13&#45;&gt;Node15 -->
<g id="edge18" class="edge"><title>Node13&#45;&gt;Node15</title>
<path fill="none" stroke="midnightblue" d="M1228.02,-165.722C1236.56,-164.726 1245.25,-163.713 1253.72,-162.726"/>
<polygon fill="midnightblue" stroke="midnightblue" points="1254.38,-166.172 1263.91,-161.538 1253.57,-159.219 1254.38,-166.172"/>
</g>
<!-- Node20 -->
<g id="node20" class="node"><title>Node20</title>
<g id="a_node20"><a xlink:href="../../d7/d4d/classPHNodeIOManager.html#a3882997324989c7dd04e9f6b728af7db" target="_top" xlink:title="PHNodeIOManager::reconstruct\lNodeTree">
<polygon fill="none" stroke="black" points="694.5,-115 694.5,-145 849.5,-145 849.5,-115 694.5,-115"/>
<text text-anchor="start" x="702.5" y="-133" font-family="FreeSans" font-size="10.00">PHNodeIOManager::reconstruct</text>
<text text-anchor="middle" x="772" y="-122" font-family="FreeSans" font-size="10.00">NodeTree</text>
</a>
</g>
</g>
<!-- Node19&#45;&gt;Node20 -->
<g id="edge23" class="edge"><title>Node19&#45;&gt;Node20</title>
<path fill="none" stroke="midnightblue" d="M640.542,-130.679C654.445,-130.607 669.459,-130.529 684.183,-130.452"/>
<polygon fill="midnightblue" stroke="midnightblue" points="684.331,-133.952 694.312,-130.399 684.294,-126.952 684.331,-133.952"/>
</g>
<!-- Node27 -->
<g id="node27" class="node"><title>Node27</title>
<g id="a_node27"><a xlink:href="../../d7/d4d/classPHNodeIOManager.html#a78c3103ae5561ab423517d5ebb880a38" target="_top" xlink:title="PHNodeIOManager::readEvent\lFromFile">
<polygon fill="none" stroke="black" points="697,-31 697,-61 847,-61 847,-31 697,-31"/>
<text text-anchor="start" x="705" y="-49" font-family="FreeSans" font-size="10.00">PHNodeIOManager::readEvent</text>
<text text-anchor="middle" x="772" y="-38" font-family="FreeSans" font-size="10.00">FromFile</text>
</a>
</g>
</g>
<!-- Node19&#45;&gt;Node27 -->
<g id="edge34" class="edge"><title>Node19&#45;&gt;Node27</title>
<path fill="none" stroke="midnightblue" d="M600.652,-121.415C631.34,-107.829 688.145,-82.6805 727.682,-65.1774"/>
<polygon fill="midnightblue" stroke="midnightblue" points="729.108,-68.3737 736.835,-61.1251 726.274,-61.9729 729.108,-68.3737"/>
</g>
<!-- Node20&#45;&gt;Node10 -->
<g id="edge31" class="edge"><title>Node20&#45;&gt;Node10</title>
<path fill="none" stroke="midnightblue" d="M836.862,-145.048C841.668,-147.822 846.14,-151.108 850,-155 887.419,-192.722 847.089,-232.82 886,-269 888.973,-271.764 892.273,-274.149 895.79,-276.204"/>
<polygon fill="midnightblue" stroke="midnightblue" points="894.396,-279.419 904.918,-280.663 897.468,-273.129 894.396,-279.419"/>
</g>
<!-- Node21 -->
<g id="node21" class="node"><title>Node21</title>
<g id="a_node21"><a xlink:href="../../d5/d07/classPHNodeIterator.html#a4cfa0490b6522394b13723c7db38a3a6" target="_top" xlink:title="PHNodeIterator::cd">
<polygon fill="none" stroke="black" points="917,-240.5 917,-259.5 1017,-259.5 1017,-240.5 917,-240.5"/>
<text text-anchor="middle" x="967" y="-247.5" font-family="FreeSans" font-size="10.00">PHNodeIterator::cd</text>
</a>
</g>
</g>
<!-- Node20&#45;&gt;Node21 -->
<g id="edge24" class="edge"><title>Node20&#45;&gt;Node21</title>
<path fill="none" stroke="midnightblue" d="M830.341,-145.135C837.196,-147.944 843.914,-151.214 850,-155 869.482,-167.12 868.648,-176.989 886,-192 904.171,-207.72 926.406,-223.601 942.819,-234.76"/>
<polygon fill="midnightblue" stroke="midnightblue" points="941.023,-237.77 951.275,-240.443 944.927,-231.96 941.023,-237.77"/>
</g>
<!-- Node23 -->
<g id="node23" class="node"><title>Node23</title>
<g id="a_node23"><a xlink:href="../../d5/d07/classPHNodeIterator.html#a2c183a75c6a6784f38ff15b6163eb7ee" target="_top" xlink:title="PHNodeIterator::addNode">
<polygon fill="none" stroke="black" points="903,-38.5 903,-57.5 1031,-57.5 1031,-38.5 903,-38.5"/>
<text text-anchor="middle" x="967" y="-45.5" font-family="FreeSans" font-size="10.00">PHNodeIterator::addNode</text>
</a>
</g>
</g>
<!-- Node20&#45;&gt;Node23 -->
<g id="edge28" class="edge"><title>Node20&#45;&gt;Node23</title>
<path fill="none" stroke="midnightblue" d="M795.882,-114.756C818.079,-100.581 853.134,-79.7812 886,-67 892.436,-64.4971 899.296,-62.2616 906.191,-60.282"/>
<polygon fill="midnightblue" stroke="midnightblue" points="907.527,-63.5466 916.271,-57.5632 905.704,-56.7882 907.527,-63.5466"/>
</g>
<!-- Node24 -->
<g id="node24" class="node"><title>Node24</title>
<g id="a_node24"><a xlink:href="../../d7/d4d/classPHNodeIOManager.html#a8be36f2013dddcf8026b0aeb9177dc7c" target="_top" xlink:title="PHNodeIOManager::getBranch\lClassName">
<polygon fill="none" stroke="black" points="891.5,-153 891.5,-183 1042.5,-183 1042.5,-153 891.5,-153"/>
<text text-anchor="start" x="899.5" y="-171" font-family="FreeSans" font-size="10.00">PHNodeIOManager::getBranch</text>
<text text-anchor="middle" x="967" y="-160" font-family="FreeSans" font-size="10.00">ClassName</text>
</a>
</g>
</g>
<!-- Node20&#45;&gt;Node24 -->
<g id="edge30" class="edge"><title>Node20&#45;&gt;Node24</title>
<path fill="none" stroke="midnightblue" d="M849.279,-145.019C859.739,-147.078 870.53,-149.203 881.132,-151.29"/>
<polygon fill="midnightblue" stroke="midnightblue" points="880.734,-154.779 891.221,-153.277 882.086,-147.911 880.734,-154.779"/>
</g>
<!-- Node25 -->
<g id="node25" class="node"><title>Node25</title>
<g id="a_node25"><a xlink:href="../../d1/d3e/classPHDataNode.html#a1f3b856fd3ce165047be8aa97f4ab9f3" target="_top" xlink:title="PHDataNode::getData">
<polygon fill="none" stroke="black" points="910.5,-114.5 910.5,-133.5 1023.5,-133.5 1023.5,-114.5 910.5,-114.5"/>
<text text-anchor="middle" x="967" y="-121.5" font-family="FreeSans" font-size="10.00">PHDataNode::getData</text>
</a>
</g>
</g>
<!-- Node20&#45;&gt;Node25 -->
<g id="edge32" class="edge"><title>Node20&#45;&gt;Node25</title>
<path fill="none" stroke="midnightblue" d="M849.556,-127.62C866.218,-127.102 883.71,-126.558 899.925,-126.054"/>
<polygon fill="midnightblue" stroke="midnightblue" points="900.488,-129.538 910.374,-125.729 900.27,-122.542 900.488,-129.538"/>
</g>
<!-- Node26 -->
<g id="node26" class="node"><title>Node26</title>
<g id="a_node26"><a xlink:href="../../dc/d82/classPHNode.html#a5efaced7ccd6df01fc40abbb07dfe61d" target="_top" xlink:title="PHNode::setObjectType">
<polygon fill="none" stroke="black" points="906,-76.5 906,-95.5 1028,-95.5 1028,-76.5 906,-76.5"/>
<text text-anchor="middle" x="967" y="-83.5" font-family="FreeSans" font-size="10.00">PHNode::setObjectType</text>
</a>
</g>
</g>
<!-- Node20&#45;&gt;Node26 -->
<g id="edge33" class="edge"><title>Node20&#45;&gt;Node26</title>
<path fill="none" stroke="midnightblue" d="M838.88,-114.981C863.517,-109.364 891.125,-103.07 914.301,-97.7863"/>
<polygon fill="midnightblue" stroke="midnightblue" points="915.303,-101.148 924.275,-95.5124 913.747,-94.3228 915.303,-101.148"/>
</g>
<!-- Node21&#45;&gt;Node11 -->
<g id="edge26" class="edge"><title>Node21&#45;&gt;Node11</title>
<path fill="none" stroke="midnightblue" d="M1015.19,-259.589C1040.8,-264.794 1072.63,-271.261 1099.44,-276.709"/>
<polygon fill="midnightblue" stroke="midnightblue" points="1098.94,-280.181 1109.44,-278.742 1100.34,-273.321 1098.94,-280.181"/>
</g>
<!-- Node21&#45;&gt;Node12 -->
<g id="edge27" class="edge"><title>Node21&#45;&gt;Node12</title>
<path fill="none" stroke="midnightblue" d="M1017.31,-250C1081.47,-250 1193.42,-250 1261.71,-250"/>
<polygon fill="midnightblue" stroke="midnightblue" points="1261.87,-253.5 1271.87,-250 1261.87,-246.5 1261.87,-253.5"/>
</g>
<!-- Node22 -->
<g id="node22" class="node"><title>Node22</title>
<g id="a_node22"><a xlink:href="../../dc/d82/classPHNode.html#a5c15cb20d02290b69eb4d7f6051c9722" target="_top" xlink:title="PHNode::getParent">
<polygon fill="none" stroke="black" points="1105.5,-202.5 1105.5,-221.5 1206.5,-221.5 1206.5,-202.5 1105.5,-202.5"/>
<text text-anchor="middle" x="1156" y="-209.5" font-family="FreeSans" font-size="10.00">PHNode::getParent</text>
</a>
</g>
</g>
<!-- Node21&#45;&gt;Node22 -->
<g id="edge25" class="edge"><title>Node21&#45;&gt;Node22</title>
<path fill="none" stroke="midnightblue" d="M1015.19,-240.411C1040.42,-235.284 1071.67,-228.933 1098.23,-223.537"/>
<polygon fill="midnightblue" stroke="midnightblue" points="1099.05,-226.941 1108.15,-221.52 1097.65,-220.082 1099.05,-226.941"/>
</g>
<!-- Node23&#45;&gt;Node13 -->
<g id="edge29" class="edge"><title>Node23&#45;&gt;Node13</title>
<path fill="none" stroke="midnightblue" d="M1025.41,-57.5335C1033.27,-60.0008 1041.02,-63.1024 1048,-67 1088.47,-89.6017 1123.99,-131.883 1142.15,-155.975"/>
<polygon fill="midnightblue" stroke="midnightblue" points="1139.49,-158.262 1148.24,-164.239 1145.13,-154.112 1139.49,-158.262"/>
</g>
<!-- Node28 -->
<g id="node28" class="node"><title>Node28</title>
<g id="a_node28"><a xlink:href="../../d5/d88/PHMessage_8cc.html#a04070e856fed35b20952495249e0357f" target="_top" xlink:title="PHMessage">
<polygon fill="none" stroke="black" points="931.5,-0.5 931.5,-19.5 1002.5,-19.5 1002.5,-0.5 931.5,-0.5"/>
<text text-anchor="middle" x="967" y="-7.5" font-family="FreeSans" font-size="10.00">PHMessage</text>
</a>
</g>
</g>
<!-- Node27&#45;&gt;Node28 -->
<g id="edge35" class="edge"><title>Node27&#45;&gt;Node28</title>
<path fill="none" stroke="midnightblue" d="M847.067,-32.1844C872.12,-27.5113 899.308,-22.4399 921.358,-18.327"/>
<polygon fill="midnightblue" stroke="midnightblue" points="922.23,-21.7248 931.419,-16.4504 920.947,-14.8434 922.23,-21.7248"/>
</g>
<!-- Node29&#45;&gt;Node3 -->
<g id="edge40" class="edge"><title>Node29&#45;&gt;Node3</title>
<path fill="none" stroke="midnightblue" d="M632.407,-307.117C641.478,-311.087 650.407,-315.992 658,-322 685.205,-343.528 738.02,-431.826 760.481,-470.599"/>
<polygon fill="midnightblue" stroke="midnightblue" points="757.48,-472.4 765.504,-479.318 763.546,-468.906 757.48,-472.4"/>
</g>
<!-- Node30 -->
<g id="node30" class="node"><title>Node30</title>
<g id="a_node30"><a xlink:href="../../d7/d4d/classPHNodeIOManager.html#a7f701a7b25803133c586853f87454a3a" target="_top" xlink:title="PHNodeIOManager::selectObject\lToRead">
<polygon fill="none" stroke="black" points="886.5,-335 886.5,-365 1047.5,-365 1047.5,-335 886.5,-335"/>
<text text-anchor="start" x="894.5" y="-353" font-family="FreeSans" font-size="10.00">PHNodeIOManager::selectObject</text>
<text text-anchor="middle" x="967" y="-342" font-family="FreeSans" font-size="10.00">ToRead</text>
</a>
</g>
</g>
<!-- Node29&#45;&gt;Node30 -->
<g id="edge37" class="edge"><title>Node29&#45;&gt;Node30</title>
<path fill="none" stroke="midnightblue" d="M620.792,-307.047C642.378,-314.22 669.304,-322.253 694,-327 754.116,-338.555 822.819,-344.305 876.136,-347.166"/>
<polygon fill="midnightblue" stroke="midnightblue" points="876.08,-350.668 886.246,-347.684 876.439,-343.677 876.08,-350.668"/>
</g>
<!-- Node31 -->
<g id="node31" class="node"><title>Node31</title>
<g id="a_node31"><a xlink:href="../../d7/d0b/classFun4AllDstInputManager.html#a22bc575e2e8b3b72e67523a694acbf22" target="_top" xlink:title="Fun4AllDstInputManager\l::setSyncBranches">
<polygon fill="none" stroke="black" points="710,-288 710,-318 834,-318 834,-288 710,-288"/>
<text text-anchor="start" x="718" y="-306" font-family="FreeSans" font-size="10.00">Fun4AllDstInputManager</text>
<text text-anchor="middle" x="772" y="-295" font-family="FreeSans" font-size="10.00">::setSyncBranches</text>
</a>
</g>
</g>
<!-- Node29&#45;&gt;Node31 -->
<g id="edge38" class="edge"><title>Node29&#45;&gt;Node31</title>
<path fill="none" stroke="midnightblue" d="M640.014,-295.496C658.996,-296.583 680.091,-297.792 699.71,-298.916"/>
<polygon fill="midnightblue" stroke="midnightblue" points="699.632,-302.417 709.815,-299.495 700.032,-295.428 699.632,-302.417"/>
</g>
<!-- Node31&#45;&gt;Node30 -->
<g id="edge39" class="edge"><title>Node31&#45;&gt;Node30</title>
<path fill="none" stroke="midnightblue" d="M834.066,-317.871C853.245,-322.541 874.591,-327.74 894.429,-332.571"/>
<polygon fill="midnightblue" stroke="midnightblue" points="893.792,-336.018 904.337,-334.984 895.449,-329.217 893.792,-336.018"/>
</g>
<!-- Node33&#45;&gt;Node3 -->
<g id="edge46" class="edge"><title>Node33&#45;&gt;Node3</title>
<path fill="none" stroke="midnightblue" d="M454.674,-312.733C519.547,-320.395 624.221,-335.325 658,-355 706.668,-383.348 744.028,-440.745 760.993,-470.372"/>
<polygon fill="midnightblue" stroke="midnightblue" points="758.027,-472.24 765.951,-479.273 764.142,-468.833 758.027,-472.24"/>
</g>
<!-- Node33&#45;&gt;Node9 -->
<g id="edge45" class="edge"><title>Node33&#45;&gt;Node9</title>
<path fill="none" stroke="midnightblue" d="M408.357,-291.924C421.954,-265.949 453.725,-213.394 498,-191 561.661,-158.8 644.619,-158.538 702.303,-163.818"/>
<polygon fill="midnightblue" stroke="midnightblue" points="702.113,-167.316 712.411,-164.823 702.806,-160.351 702.113,-167.316"/>
</g>
<!-- Node33&#45;&gt;Node16 -->
<g id="edge44" class="edge"><title>Node33&#45;&gt;Node16</title>
<path fill="none" stroke="midnightblue" d="M415.322,-291.991C433.072,-274.28 465.028,-245.198 498,-229 502.906,-226.59 508.137,-224.474 513.482,-222.618"/>
<polygon fill="midnightblue" stroke="midnightblue" points="514.701,-225.904 523.181,-219.553 512.591,-219.23 514.701,-225.904"/>
</g>
</g>
</svg>
