<?xml version="1.0" encoding="UTF-8" standalone="no"?>
<!DOCTYPE svg PUBLIC "-//W3C//DTD SVG 1.1//EN"
 "http://www.w3.org/Graphics/SVG/1.1/DTD/svg11.dtd">
<!-- Generated by graphviz version 2.36.0 (20140111.2315)
 -->
<!-- Title: Fun4AllDstInputManager::Print Pages: 1 -->
<svg width="434pt" height="91pt"
 viewBox="0.00 0.00 434.00 90.81" xmlns="http://www.w3.org/2000/svg" xmlns:xlink="http://www.w3.org/1999/xlink">
<g id="graph0" class="graph" transform="scale(1 1) rotate(0) translate(4 86.8106)">
<title>Fun4AllDstInputManager::Print</title>
<!-- Node1 -->
<g id="node1" class="node"><title>Node1</title>
<polygon fill="#bfbfbf" stroke="black" points="0,-44 0,-74 124,-74 124,-44 0,-44"/>
<text text-anchor="start" x="8" y="-62" font-family="FreeSans" font-size="10.00">Fun4AllDstInputManager</text>
<text text-anchor="middle" x="62" y="-51" font-family="FreeSans" font-size="10.00">::Print</text>
</g>
<!-- Node2 -->
<g id="node2" class="node"><title>Node2</title>
<g id="a_node2"><a xlink:href="../../d5/dec/classFun4AllBase.html#a41f9ac377743d046f590617fd6f4f0ed" target="_top" xlink:title="Returns the name of this module. ">
<polygon fill="none" stroke="black" points="322.5,-46.5 322.5,-65.5 425.5,-65.5 425.5,-46.5 322.5,-46.5"/>
<text text-anchor="middle" x="374" y="-53.5" font-family="FreeSans" font-size="10.00">Fun4AllBase::Name</text>
</a>
</g>
</g>
<!-- Node1&#45;&gt;Node2 -->
<g id="edge1" class="edge"><title>Node1&#45;&gt;Node2</title>
<path fill="none" stroke="midnightblue" d="M124.053,-72.8202C135.917,-74.9769 148.3,-76.8649 160,-78 215.738,-83.4075 230.429,-84.9174 286,-78 301.576,-76.0611 318.367,-72.2409 333.004,-68.3204"/>
<polygon fill="midnightblue" stroke="midnightblue" points="334.054,-71.6614 342.752,-65.6121 332.18,-64.9168 334.054,-71.6614"/>
</g>
<!-- Node3 -->
<g id="node3" class="node"><title>Node3</title>
<g id="a_node3"><a xlink:href="../../d7/d4d/classPHNodeIOManager.html#a2be363482604b6f51d9335d75b72a8ff" target="_top" xlink:title="PHNodeIOManager::print">
<polygon fill="none" stroke="black" points="160.5,-49.5 160.5,-68.5 285.5,-68.5 285.5,-49.5 160.5,-49.5"/>
<text text-anchor="middle" x="223" y="-56.5" font-family="FreeSans" font-size="10.00">PHNodeIOManager::print</text>
</a>
</g>
</g>
<!-- Node1&#45;&gt;Node3 -->
<g id="edge2" class="edge"><title>Node1&#45;&gt;Node3</title>
<path fill="none" stroke="midnightblue" d="M124.019,-59C132.579,-59 141.443,-59 150.181,-59"/>
<polygon fill="midnightblue" stroke="midnightblue" points="150.356,-62.5001 160.356,-59 150.356,-55.5001 150.356,-62.5001"/>
</g>
<!-- Node4 -->
<g id="node4" class="node"><title>Node4</title>
<g id="a_node4"><a xlink:href="../../d4/da9/classFun4AllInputManager.html#a9497acf06b6422e1a5ecf8c794648624" target="_top" xlink:title="Fun4AllInputManager\l::Print">
<polygon fill="none" stroke="black" points="168.5,-0 168.5,-30 277.5,-30 277.5,-0 168.5,-0"/>
<text text-anchor="start" x="176.5" y="-18" font-family="FreeSans" font-size="10.00">Fun4AllInputManager</text>
<text text-anchor="middle" x="223" y="-7" font-family="FreeSans" font-size="10.00">::Print</text>
</a>
</g>
</g>
<!-- Node1&#45;&gt;Node4 -->
<g id="edge3" class="edge"><title>Node1&#45;&gt;Node4</title>
<path fill="none" stroke="midnightblue" d="M117.274,-43.9808C130.522,-40.3147 144.812,-36.3601 158.45,-32.5863"/>
<polygon fill="midnightblue" stroke="midnightblue" points="159.536,-35.9173 168.24,-29.877 157.669,-29.1709 159.536,-35.9173"/>
</g>
<!-- Node4&#45;&gt;Node2 -->
<g id="edge4" class="edge"><title>Node4&#45;&gt;Node2</title>
<path fill="none" stroke="midnightblue" d="M277.792,-29.8019C294.34,-34.3554 312.369,-39.3162 328.242,-43.684"/>
<polygon fill="midnightblue" stroke="midnightblue" points="327.754,-47.1799 338.325,-46.4584 329.612,-40.4307 327.754,-47.1799"/>
</g>
</g>
</svg>
