<?xml version="1.0" encoding="UTF-8" standalone="no"?>
<!DOCTYPE svg PUBLIC "-//W3C//DTD SVG 1.1//EN"
 "http://www.w3.org/Graphics/SVG/1.1/DTD/svg11.dtd">
<!-- Generated by graphviz version 2.36.0 (20140111.2315)
 -->
<!-- Title: Fun4AllDstInputManager::OpenNextFile Pages: 1 -->
<svg width="1208pt" height="480pt"
 viewBox="0.00 0.00 1208.00 480.00" xmlns="http://www.w3.org/2000/svg" xmlns:xlink="http://www.w3.org/1999/xlink">
<g id="graph0" class="graph" transform="scale(1 1) rotate(0) translate(4 476)">
<title>Fun4AllDstInputManager::OpenNextFile</title>
<!-- Node1 -->
<g id="node1" class="node"><title>Node1</title>
<polygon fill="#bfbfbf" stroke="black" points="0,-199 0,-229 124,-229 124,-199 0,-199"/>
<text text-anchor="start" x="8" y="-217" font-family="FreeSans" font-size="10.00">Fun4AllDstInputManager</text>
<text text-anchor="middle" x="62" y="-206" font-family="FreeSans" font-size="10.00">::OpenNextFile</text>
</g>
<!-- Node2 -->
<g id="node2" class="node"><title>Node2</title>
<g id="a_node2"><a xlink:href="../../d7/d0b/classFun4AllDstInputManager.html#a4d32eadb9f77d41387656b87377ef14f" target="_top" xlink:title="Fun4AllDstInputManager\l::fileopen">
<polygon fill="none" stroke="black" points="160,-199 160,-229 284,-229 284,-199 160,-199"/>
<text text-anchor="start" x="168" y="-217" font-family="FreeSans" font-size="10.00">Fun4AllDstInputManager</text>
<text text-anchor="middle" x="222" y="-206" font-family="FreeSans" font-size="10.00">::fileopen</text>
</a>
</g>
</g>
<!-- Node1&#45;&gt;Node2 -->
<g id="edge1" class="edge"><title>Node1&#45;&gt;Node2</title>
<path fill="none" stroke="midnightblue" d="M124.087,-214C132.513,-214 141.226,-214 149.815,-214"/>
<polygon fill="midnightblue" stroke="midnightblue" points="149.815,-217.5 159.815,-214 149.815,-210.5 149.815,-217.5"/>
</g>
<!-- Node3 -->
<g id="node3" class="node"><title>Node3</title>
<g id="a_node3"><a xlink:href="../../d4/da9/classFun4AllInputManager.html#a98ac3fb04956625a423ef41a3909ba27" target="_top" xlink:title="Fun4AllInputManager\l::AddToFileOpened">
<polygon fill="none" stroke="black" points="345.5,-376 345.5,-406 454.5,-406 454.5,-376 345.5,-376"/>
<text text-anchor="start" x="353.5" y="-394" font-family="FreeSans" font-size="10.00">Fun4AllInputManager</text>
<text text-anchor="middle" x="400" y="-383" font-family="FreeSans" font-size="10.00">::AddToFileOpened</text>
</a>
</g>
</g>
<!-- Node2&#45;&gt;Node3 -->
<g id="edge2" class="edge"><title>Node2&#45;&gt;Node3</title>
<path fill="none" stroke="midnightblue" d="M229.165,-229.166C241.867,-258.621 273.698,-323.922 320,-361 324.96,-364.972 330.503,-368.459 336.29,-371.51"/>
<polygon fill="midnightblue" stroke="midnightblue" points="335.006,-374.777 345.535,-375.956 338.039,-368.468 335.006,-374.777"/>
</g>
<!-- Node4 -->
<g id="node4" class="node"><title>Node4</title>
<g id="a_node4"><a xlink:href="../../d7/d0b/classFun4AllDstInputManager.html#acc1f41cde35bb897b779bea7fb452e78" target="_top" xlink:title="Fun4AllDstInputManager\l::fileclose">
<polygon fill="none" stroke="black" points="338,-98 338,-128 462,-128 462,-98 338,-98"/>
<text text-anchor="start" x="346" y="-116" font-family="FreeSans" font-size="10.00">Fun4AllDstInputManager</text>
<text text-anchor="middle" x="400" y="-105" font-family="FreeSans" font-size="10.00">::fileclose</text>
</a>
</g>
</g>
<!-- Node2&#45;&gt;Node4 -->
<g id="edge3" class="edge"><title>Node2&#45;&gt;Node4</title>
<path fill="none" stroke="midnightblue" d="M238.563,-198.876C256.751,-181.935 288.402,-154.674 320,-138 324.23,-135.768 328.695,-133.694 333.26,-131.774"/>
<polygon fill="midnightblue" stroke="midnightblue" points="334.707,-134.966 342.733,-128.05 332.146,-128.452 334.707,-134.966"/>
</g>
<!-- Node6 -->
<g id="node6" class="node"><title>Node6</title>
<g id="a_node6"><a xlink:href="../../df/d35/classRunHeader.html#a73da574a4faeef5c0797024e8a7a534f" target="_top" xlink:title="get Run Number ">
<polygon fill="none" stroke="black" points="330,-299.5 330,-318.5 470,-318.5 470,-299.5 330,-299.5"/>
<text text-anchor="middle" x="400" y="-306.5" font-family="FreeSans" font-size="10.00">RunHeader::get_RunNumber</text>
</a>
</g>
</g>
<!-- Node2&#45;&gt;Node6 -->
<g id="edge5" class="edge"><title>Node2&#45;&gt;Node6</title>
<path fill="none" stroke="midnightblue" d="M238.035,-229.222C255.979,-246.515 287.642,-274.357 320,-290 325.001,-292.418 330.332,-294.541 335.774,-296.403"/>
<polygon fill="midnightblue" stroke="midnightblue" points="335.053,-299.845 345.641,-299.481 337.137,-293.162 335.053,-299.845"/>
</g>
<!-- Node7 -->
<g id="node7" class="node"><title>Node7</title>
<g id="a_node7"><a xlink:href="../../da/d29/classFun4AllServer.html#ac42fd391b795d9605811abb9394c2011" target="_top" xlink:title="Fun4AllServer::getNode">
<polygon fill="none" stroke="black" points="534.5,-340.5 534.5,-359.5 653.5,-359.5 653.5,-340.5 534.5,-340.5"/>
<text text-anchor="middle" x="594" y="-347.5" font-family="FreeSans" font-size="10.00">Fun4AllServer::getNode</text>
</a>
</g>
</g>
<!-- Node2&#45;&gt;Node7 -->
<g id="edge6" class="edge"><title>Node2&#45;&gt;Node7</title>
<path fill="none" stroke="midnightblue" d="M230.691,-229.145C244.584,-254.693 276.511,-305.739 320,-328 383.587,-360.549 466.559,-362.472 524.266,-358.505"/>
<polygon fill="midnightblue" stroke="midnightblue" points="524.673,-361.985 534.377,-357.733 524.14,-355.005 524.673,-361.985"/>
</g>
<!-- Node15 -->
<g id="node15" class="node"><title>Node15</title>
<g id="a_node15"><a xlink:href="../../da/d29/classFun4AllServer.html#a3e55156f91b2c94bb6c4ef33ffce587a" target="_top" xlink:title="Fun4AllServer::instance">
<polygon fill="none" stroke="black" points="340.5,-223.5 340.5,-242.5 459.5,-242.5 459.5,-223.5 340.5,-223.5"/>
<text text-anchor="middle" x="400" y="-230.5" font-family="FreeSans" font-size="10.00">Fun4AllServer::instance</text>
</a>
</g>
</g>
<!-- Node2&#45;&gt;Node15 -->
<g id="edge16" class="edge"><title>Node2&#45;&gt;Node15</title>
<path fill="none" stroke="midnightblue" d="M284.062,-220.592C298.905,-222.194 314.88,-223.919 330.059,-225.558"/>
<polygon fill="midnightblue" stroke="midnightblue" points="330.1,-229.082 340.417,-226.676 330.851,-222.123 330.1,-229.082"/>
</g>
<!-- Node16 -->
<g id="node16" class="node"><title>Node16</title>
<g id="a_node16"><a xlink:href="../../d7/d4d/classPHNodeIOManager.html#a7fcd787c0049e4476b2534299b801b47" target="_top" xlink:title="PHNodeIOManager::isFunctional">
<polygon fill="none" stroke="black" points="320.5,-185.5 320.5,-204.5 479.5,-204.5 479.5,-185.5 320.5,-185.5"/>
<text text-anchor="middle" x="400" y="-192.5" font-family="FreeSans" font-size="10.00">PHNodeIOManager::isFunctional</text>
</a>
</g>
</g>
<!-- Node2&#45;&gt;Node16 -->
<g id="edge17" class="edge"><title>Node2&#45;&gt;Node16</title>
<path fill="none" stroke="midnightblue" d="M284.062,-207.408C292.574,-206.489 301.458,-205.53 310.351,-204.57"/>
<polygon fill="midnightblue" stroke="midnightblue" points="310.81,-208.041 320.376,-203.488 310.058,-201.081 310.81,-208.041"/>
</g>
<!-- Node17 -->
<g id="node17" class="node"><title>Node17</title>
<g id="a_node17"><a xlink:href="../../d7/d4d/classPHNodeIOManager.html#a2be363482604b6f51d9335d75b72a8ff" target="_top" xlink:title="PHNodeIOManager::print">
<polygon fill="none" stroke="black" points="337.5,-147.5 337.5,-166.5 462.5,-166.5 462.5,-147.5 337.5,-147.5"/>
<text text-anchor="middle" x="400" y="-154.5" font-family="FreeSans" font-size="10.00">PHNodeIOManager::print</text>
</a>
</g>
</g>
<!-- Node2&#45;&gt;Node17 -->
<g id="edge18" class="edge"><title>Node2&#45;&gt;Node17</title>
<path fill="none" stroke="midnightblue" d="M258.058,-198.92C276.312,-191.414 299.124,-182.566 320,-176 327.845,-173.533 336.213,-171.204 344.461,-169.079"/>
<polygon fill="midnightblue" stroke="midnightblue" points="345.563,-172.411 354.417,-166.591 343.866,-165.62 345.563,-172.411"/>
</g>
<!-- Node18 -->
<g id="node18" class="node"><title>Node18</title>
<g id="a_node18"><a xlink:href="../../d7/d4d/classPHNodeIOManager.html#a92da4bff2438e94d469011b7720f286f" target="_top" xlink:title="PHNodeIOManager::read">
<polygon fill="none" stroke="black" points="337.5,-261.5 337.5,-280.5 462.5,-280.5 462.5,-261.5 337.5,-261.5"/>
<text text-anchor="middle" x="400" y="-268.5" font-family="FreeSans" font-size="10.00">PHNodeIOManager::read</text>
</a>
</g>
</g>
<!-- Node2&#45;&gt;Node18 -->
<g id="edge19" class="edge"><title>Node2&#45;&gt;Node18</title>
<path fill="none" stroke="midnightblue" d="M258.058,-229.08C276.312,-236.586 299.124,-245.434 320,-252 327.845,-254.467 336.213,-256.796 344.461,-258.921"/>
<polygon fill="midnightblue" stroke="midnightblue" points="343.866,-262.38 354.417,-261.409 345.563,-255.589 343.866,-262.38"/>
</g>
<!-- Node28 -->
<g id="node28" class="node"><title>Node28</title>
<g id="a_node28"><a xlink:href="../../d7/d0b/classFun4AllDstInputManager.html#ae18b1ca89168aab89e6a9b867951f8ce" target="_top" xlink:title="Fun4AllDstInputManager\l::setBranches">
<polygon fill="none" stroke="black" points="338,-49 338,-79 462,-79 462,-49 338,-49"/>
<text text-anchor="start" x="346" y="-67" font-family="FreeSans" font-size="10.00">Fun4AllDstInputManager</text>
<text text-anchor="middle" x="400" y="-56" font-family="FreeSans" font-size="10.00">::setBranches</text>
</a>
</g>
</g>
<!-- Node2&#45;&gt;Node28 -->
<g id="edge33" class="edge"><title>Node2&#45;&gt;Node28</title>
<path fill="none" stroke="midnightblue" d="M230.635,-198.722C244.663,-172.207 277.08,-117.668 320,-88 322.712,-86.1253 325.574,-84.3938 328.538,-82.7948"/>
<polygon fill="midnightblue" stroke="midnightblue" points="330.197,-85.8805 337.685,-78.3849 327.157,-79.575 330.197,-85.8805"/>
</g>
<!-- Node31 -->
<g id="node31" class="node"><title>Node31</title>
<g id="a_node31"><a xlink:href="../../d4/da9/classFun4AllInputManager.html#af9bf7d76be5d2c0b10843ae734da9bbb" target="_top" xlink:title="Fun4AllInputManager\l::SetRunNumber">
<polygon fill="none" stroke="black" points="345.5,-0 345.5,-30 454.5,-30 454.5,-0 345.5,-0"/>
<text text-anchor="start" x="353.5" y="-18" font-family="FreeSans" font-size="10.00">Fun4AllInputManager</text>
<text text-anchor="middle" x="400" y="-7" font-family="FreeSans" font-size="10.00">::SetRunNumber</text>
</a>
</g>
</g>
<!-- Node2&#45;&gt;Node31 -->
<g id="edge38" class="edge"><title>Node2&#45;&gt;Node31</title>
<path fill="none" stroke="midnightblue" d="M227.138,-198.811C237.158,-164.919 265.97,-82.6741 320,-39 324.713,-35.19 330.025,-31.9839 335.608,-29.286"/>
<polygon fill="midnightblue" stroke="midnightblue" points="337.369,-32.3408 345.204,-25.2088 334.631,-25.8983 337.369,-32.3408"/>
</g>
<!-- Node5 -->
<g id="node5" class="node"><title>Node5</title>
<g id="a_node5"><a xlink:href="../../d5/dec/classFun4AllBase.html#a41f9ac377743d046f590617fd6f4f0ed" target="_top" xlink:title="Returns the name of this module. ">
<polygon fill="none" stroke="black" points="542.5,-100.5 542.5,-119.5 645.5,-119.5 645.5,-100.5 542.5,-100.5"/>
<text text-anchor="middle" x="594" y="-107.5" font-family="FreeSans" font-size="10.00">Fun4AllBase::Name</text>
</a>
</g>
</g>
<!-- Node4&#45;&gt;Node5 -->
<g id="edge4" class="edge"><title>Node4&#45;&gt;Node5</title>
<path fill="none" stroke="midnightblue" d="M462.014,-112.047C484.486,-111.696 509.922,-111.298 532.361,-110.947"/>
<polygon fill="midnightblue" stroke="midnightblue" points="532.494,-114.446 542.439,-110.79 532.385,-107.447 532.494,-114.446"/>
</g>
<!-- Node8 -->
<g id="node8" class="node"><title>Node8</title>
<g id="a_node8"><a xlink:href="../../da/d29/classFun4AllServer.html#abcaf6825367e5db292ff795237bdcf62" target="_top" xlink:title="Fun4AllServer::topNode">
<polygon fill="none" stroke="black" points="729.5,-452.5 729.5,-471.5 848.5,-471.5 848.5,-452.5 729.5,-452.5"/>
<text text-anchor="middle" x="789" y="-459.5" font-family="FreeSans" font-size="10.00">Fun4AllServer::topNode</text>
</a>
</g>
</g>
<!-- Node7&#45;&gt;Node8 -->
<g id="edge7" class="edge"><title>Node7&#45;&gt;Node8</title>
<path fill="none" stroke="midnightblue" d="M604.702,-359.644C623.227,-377.55 665.578,-416.1 708,-438 716.702,-442.492 726.381,-446.285 735.915,-449.434"/>
<polygon fill="midnightblue" stroke="midnightblue" points="735.164,-452.866 745.752,-452.485 737.238,-446.18 735.164,-452.866"/>
</g>
<!-- Node9 -->
<g id="node9" class="node"><title>Node9</title>
<g id="a_node9"><a xlink:href="../../d5/d07/classPHNodeIterator.html#aea98bf8619af59b1212a94fb32106baa" target="_top" xlink:title="PHNodeIterator::findFirst">
<polygon fill="none" stroke="black" points="727,-320.5 727,-339.5 851,-339.5 851,-320.5 727,-320.5"/>
<text text-anchor="middle" x="789" y="-327.5" font-family="FreeSans" font-size="10.00">PHNodeIterator::findFirst</text>
</a>
</g>
</g>
<!-- Node7&#45;&gt;Node9 -->
<g id="edge8" class="edge"><title>Node7&#45;&gt;Node9</title>
<path fill="none" stroke="midnightblue" d="M653.692,-343.918C673.611,-341.854 696.083,-339.525 716.865,-337.371"/>
<polygon fill="midnightblue" stroke="midnightblue" points="717.327,-340.842 726.913,-336.33 716.606,-333.88 717.327,-340.842"/>
</g>
<!-- Node12 -->
<g id="node12" class="node"><title>Node12</title>
<g id="a_node12"><a xlink:href="../../d5/dca/classPHCompositeNode.html#ac7dbf017614c324e218a001d729607bf" target="_top" xlink:title="PHCompositeNode::addNode">
<polygon fill="none" stroke="black" points="906,-376.5 906,-395.5 1050,-395.5 1050,-376.5 906,-376.5"/>
<text text-anchor="middle" x="978" y="-383.5" font-family="FreeSans" font-size="10.00">PHCompositeNode::addNode</text>
</a>
</g>
</g>
<!-- Node7&#45;&gt;Node12 -->
<g id="edge12" class="edge"><title>Node7&#45;&gt;Node12</title>
<path fill="none" stroke="midnightblue" d="M609.19,-359.554C629.86,-372.834 669.942,-396.23 708,-405 784.076,-422.531 875.179,-409.162 929.453,-397.71"/>
<polygon fill="midnightblue" stroke="midnightblue" points="930.448,-401.075 939.474,-395.528 928.959,-394.235 930.448,-401.075"/>
</g>
<!-- Node9&#45;&gt;Node9 -->
<g id="edge11" class="edge"><title>Node9&#45;&gt;Node9</title>
<path fill="none" stroke="midnightblue" d="M760.024,-339.757C745.927,-348.565 755.586,-358 789,-358 811.972,-358 823.716,-353.541 824.232,-347.891"/>
<polygon fill="midnightblue" stroke="midnightblue" points="826.847,-345.55 817.976,-339.757 821.298,-349.818 826.847,-345.55"/>
</g>
<!-- Node10 -->
<g id="node10" class="node"><title>Node10</title>
<g id="a_node10"><a xlink:href="../../dc/d82/classPHNode.html#a4ab1f90aed955a652813bfe377087bda" target="_top" xlink:title="PHNode::getType">
<polygon fill="none" stroke="black" points="931.5,-269.5 931.5,-288.5 1024.5,-288.5 1024.5,-269.5 931.5,-269.5"/>
<text text-anchor="middle" x="978" y="-276.5" font-family="FreeSans" font-size="10.00">PHNode::getType</text>
</a>
</g>
</g>
<!-- Node9&#45;&gt;Node10 -->
<g id="edge9" class="edge"><title>Node9&#45;&gt;Node10</title>
<path fill="none" stroke="midnightblue" d="M832.049,-320.492C844.32,-317.588 857.728,-314.289 870,-311 892.27,-305.031 916.937,-297.703 936.969,-291.566"/>
<polygon fill="midnightblue" stroke="midnightblue" points="938.166,-294.86 946.692,-288.57 936.105,-288.17 938.166,-294.86"/>
</g>
<!-- Node11 -->
<g id="node11" class="node"><title>Node11</title>
<g id="a_node11"><a xlink:href="../../dc/d82/classPHNode.html#aca3576f926a4401eddc3d88bf0ce0de3" target="_top" xlink:title="PHNode::getName">
<polygon fill="none" stroke="black" points="1094,-320.5 1094,-339.5 1192,-339.5 1192,-320.5 1094,-320.5"/>
<text text-anchor="middle" x="1143" y="-327.5" font-family="FreeSans" font-size="10.00">PHNode::getName</text>
</a>
</g>
</g>
<!-- Node9&#45;&gt;Node11 -->
<g id="edge10" class="edge"><title>Node9&#45;&gt;Node11</title>
<path fill="none" stroke="midnightblue" d="M851.314,-330C916.619,-330 1019.24,-330 1083.46,-330"/>
<polygon fill="midnightblue" stroke="midnightblue" points="1083.82,-333.5 1093.82,-330 1083.82,-326.5 1083.82,-333.5"/>
</g>
<!-- Node12&#45;&gt;Node11 -->
<g id="edge13" class="edge"><title>Node12&#45;&gt;Node11</title>
<path fill="none" stroke="midnightblue" d="M1007.02,-376.373C1034.01,-367.102 1075,-353.018 1104.73,-342.804"/>
<polygon fill="midnightblue" stroke="midnightblue" points="1106.02,-346.06 1114.34,-339.501 1103.75,-339.44 1106.02,-346.06"/>
</g>
<!-- Node13 -->
<g id="node13" class="node"><title>Node13</title>
<g id="a_node13"><a xlink:href="../../dc/d82/classPHNode.html#adda2bd6cef2d5067bbe3016a990b7198" target="_top" xlink:title="PHNode::setParent">
<polygon fill="none" stroke="black" points="1092.5,-367.5 1092.5,-386.5 1193.5,-386.5 1193.5,-367.5 1092.5,-367.5"/>
<text text-anchor="middle" x="1143" y="-374.5" font-family="FreeSans" font-size="10.00">PHNode::setParent</text>
</a>
</g>
</g>
<!-- Node12&#45;&gt;Node13 -->
<g id="edge14" class="edge"><title>Node12&#45;&gt;Node13</title>
<path fill="none" stroke="midnightblue" d="M1050.02,-382.079C1060.7,-381.489 1071.63,-380.886 1082.05,-380.31"/>
<polygon fill="midnightblue" stroke="midnightblue" points="1082.48,-383.792 1092.27,-379.746 1082.09,-376.803 1082.48,-383.792"/>
</g>
<!-- Node14 -->
<g id="node14" class="node"><title>Node14</title>
<g id="a_node14"><a xlink:href="../../d6/d86/classPHPointerList.html#af5fc4e6958b5b90c57bfb497566f503c" target="_top" xlink:title="PHPointerList::append">
<polygon fill="none" stroke="black" points="1086,-405.5 1086,-424.5 1200,-424.5 1200,-405.5 1086,-405.5"/>
<text text-anchor="middle" x="1143" y="-412.5" font-family="FreeSans" font-size="10.00">PHPointerList::append</text>
</a>
</g>
</g>
<!-- Node12&#45;&gt;Node14 -->
<g id="edge15" class="edge"><title>Node12&#45;&gt;Node14</title>
<path fill="none" stroke="midnightblue" d="M1032.82,-395.576C1047.37,-398.163 1063.24,-400.988 1078.27,-403.661"/>
<polygon fill="midnightblue" stroke="midnightblue" points="1078.05,-407.178 1088.51,-405.483 1079.28,-400.286 1078.05,-407.178"/>
</g>
<!-- Node19 -->
<g id="node19" class="node"><title>Node19</title>
<g id="a_node19"><a xlink:href="../../d7/d4d/classPHNodeIOManager.html#a3882997324989c7dd04e9f6b728af7db" target="_top" xlink:title="PHNodeIOManager::reconstruct\lNodeTree">
<polygon fill="none" stroke="black" points="516.5,-256 516.5,-286 671.5,-286 671.5,-256 516.5,-256"/>
<text text-anchor="start" x="524.5" y="-274" font-family="FreeSans" font-size="10.00">PHNodeIOManager::reconstruct</text>
<text text-anchor="middle" x="594" y="-263" font-family="FreeSans" font-size="10.00">NodeTree</text>
</a>
</g>
</g>
<!-- Node18&#45;&gt;Node19 -->
<g id="edge20" class="edge"><title>Node18&#45;&gt;Node19</title>
<path fill="none" stroke="midnightblue" d="M462.542,-271C476.445,-271 491.459,-271 506.183,-271"/>
<polygon fill="midnightblue" stroke="midnightblue" points="506.313,-274.5 516.312,-271 506.312,-267.5 506.313,-274.5"/>
</g>
<!-- Node26 -->
<g id="node26" class="node"><title>Node26</title>
<g id="a_node26"><a xlink:href="../../d7/d4d/classPHNodeIOManager.html#a78c3103ae5561ab423517d5ebb880a38" target="_top" xlink:title="PHNodeIOManager::readEvent\lFromFile">
<polygon fill="none" stroke="black" points="519,-172 519,-202 669,-202 669,-172 519,-172"/>
<text text-anchor="start" x="527" y="-190" font-family="FreeSans" font-size="10.00">PHNodeIOManager::readEvent</text>
<text text-anchor="middle" x="594" y="-179" font-family="FreeSans" font-size="10.00">FromFile</text>
</a>
</g>
</g>
<!-- Node18&#45;&gt;Node26 -->
<g id="edge31" class="edge"><title>Node18&#45;&gt;Node26</title>
<path fill="none" stroke="midnightblue" d="M450.144,-261.488C460.187,-258.905 470.564,-255.758 480,-252 509.383,-240.298 540.359,-222.002 562.434,-207.799"/>
<polygon fill="midnightblue" stroke="midnightblue" points="564.564,-210.588 571.023,-202.189 560.737,-204.727 564.564,-210.588"/>
</g>
<!-- Node19&#45;&gt;Node9 -->
<g id="edge28" class="edge"><title>Node19&#45;&gt;Node9</title>
<path fill="none" stroke="midnightblue" d="M634.145,-286.02C655.742,-294.012 683.148,-303.673 708,-311 716.456,-313.493 725.488,-315.889 734.326,-318.09"/>
<polygon fill="midnightblue" stroke="midnightblue" points="733.637,-321.524 744.181,-320.486 735.291,-314.722 733.637,-321.524"/>
</g>
<!-- Node20 -->
<g id="node20" class="node"><title>Node20</title>
<g id="a_node20"><a xlink:href="../../d5/d07/classPHNodeIterator.html#a4cfa0490b6522394b13723c7db38a3a6" target="_top" xlink:title="PHNodeIterator::cd">
<polygon fill="none" stroke="black" points="739,-156.5 739,-175.5 839,-175.5 839,-156.5 739,-156.5"/>
<text text-anchor="middle" x="789" y="-163.5" font-family="FreeSans" font-size="10.00">PHNodeIterator::cd</text>
</a>
</g>
</g>
<!-- Node19&#45;&gt;Node20 -->
<g id="edge21" class="edge"><title>Node19&#45;&gt;Node20</title>
<path fill="none" stroke="midnightblue" d="M614.564,-255.776C645.515,-231.739 702.819,-187.451 708,-185 714.565,-181.894 721.68,-179.273 728.868,-177.065"/>
<polygon fill="midnightblue" stroke="midnightblue" points="729.991,-180.385 738.668,-174.306 728.094,-173.647 729.991,-180.385"/>
</g>
<!-- Node22 -->
<g id="node22" class="node"><title>Node22</title>
<g id="a_node22"><a xlink:href="../../d5/d07/classPHNodeIterator.html#a2c183a75c6a6784f38ff15b6163eb7ee" target="_top" xlink:title="PHNodeIterator::addNode">
<polygon fill="none" stroke="black" points="725,-376.5 725,-395.5 853,-395.5 853,-376.5 725,-376.5"/>
<text text-anchor="middle" x="789" y="-383.5" font-family="FreeSans" font-size="10.00">PHNodeIterator::addNode</text>
</a>
</g>
</g>
<!-- Node19&#45;&gt;Node22 -->
<g id="edge25" class="edge"><title>Node19&#45;&gt;Node22</title>
<path fill="none" stroke="midnightblue" d="M615.818,-286.126C631.635,-297.877 653.712,-314.841 672,-331 688.957,-345.983 688.244,-355.968 708,-367 712.144,-369.314 716.561,-371.348 721.111,-373.135"/>
<polygon fill="midnightblue" stroke="midnightblue" points="719.995,-376.452 730.59,-376.466 722.316,-369.848 719.995,-376.452"/>
</g>
<!-- Node23 -->
<g id="node23" class="node"><title>Node23</title>
<g id="a_node23"><a xlink:href="../../d7/d4d/classPHNodeIOManager.html#a8be36f2013dddcf8026b0aeb9177dc7c" target="_top" xlink:title="PHNodeIOManager::getBranch\lClassName">
<polygon fill="none" stroke="black" points="713.5,-233 713.5,-263 864.5,-263 864.5,-233 713.5,-233"/>
<text text-anchor="start" x="721.5" y="-251" font-family="FreeSans" font-size="10.00">PHNodeIOManager::getBranch</text>
<text text-anchor="middle" x="789" y="-240" font-family="FreeSans" font-size="10.00">ClassName</text>
</a>
</g>
</g>
<!-- Node19&#45;&gt;Node23 -->
<g id="edge27" class="edge"><title>Node19&#45;&gt;Node23</title>
<path fill="none" stroke="midnightblue" d="M671.556,-261.877C682.004,-260.632 692.778,-259.348 703.359,-258.087"/>
<polygon fill="midnightblue" stroke="midnightblue" points="703.911,-261.546 713.427,-256.887 703.083,-254.595 703.911,-261.546"/>
</g>
<!-- Node24 -->
<g id="node24" class="node"><title>Node24</title>
<g id="a_node24"><a xlink:href="../../d1/d3e/classPHDataNode.html#a1f3b856fd3ce165047be8aa97f4ab9f3" target="_top" xlink:title="PHDataNode::getData">
<polygon fill="none" stroke="black" points="732.5,-194.5 732.5,-213.5 845.5,-213.5 845.5,-194.5 732.5,-194.5"/>
<text text-anchor="middle" x="789" y="-201.5" font-family="FreeSans" font-size="10.00">PHDataNode::getData</text>
</a>
</g>
</g>
<!-- Node19&#45;&gt;Node24 -->
<g id="edge29" class="edge"><title>Node19&#45;&gt;Node24</title>
<path fill="none" stroke="midnightblue" d="M627.637,-255.902C649.946,-245.962 680.365,-233.145 708,-224 716.684,-221.126 726.016,-218.441 735.132,-216.03"/>
<polygon fill="midnightblue" stroke="midnightblue" points="736.082,-219.4 744.898,-213.525 734.342,-212.619 736.082,-219.4"/>
</g>
<!-- Node25 -->
<g id="node25" class="node"><title>Node25</title>
<g id="a_node25"><a xlink:href="../../dc/d82/classPHNode.html#a5efaced7ccd6df01fc40abbb07dfe61d" target="_top" xlink:title="PHNode::setObjectType">
<polygon fill="none" stroke="black" points="728,-282.5 728,-301.5 850,-301.5 850,-282.5 728,-282.5"/>
<text text-anchor="middle" x="789" y="-289.5" font-family="FreeSans" font-size="10.00">PHNode::setObjectType</text>
</a>
</g>
</g>
<!-- Node19&#45;&gt;Node25 -->
<g id="edge30" class="edge"><title>Node19&#45;&gt;Node25</title>
<path fill="none" stroke="midnightblue" d="M671.556,-279.33C686.777,-280.986 702.69,-282.718 717.689,-284.35"/>
<polygon fill="midnightblue" stroke="midnightblue" points="717.588,-287.859 727.908,-285.461 718.345,-280.9 717.588,-287.859"/>
</g>
<!-- Node20&#45;&gt;Node10 -->
<g id="edge23" class="edge"><title>Node20&#45;&gt;Node10</title>
<path fill="none" stroke="midnightblue" d="M839.021,-172.25C849.777,-175.056 860.714,-179.118 870,-185 891.637,-198.705 887.261,-212.54 906,-230 919.843,-242.898 937.313,-254.998 951.46,-263.948"/>
<polygon fill="midnightblue" stroke="midnightblue" points="949.857,-267.072 960.204,-269.35 953.537,-261.117 949.857,-267.072"/>
</g>
<!-- Node20&#45;&gt;Node11 -->
<g id="edge24" class="edge"><title>Node20&#45;&gt;Node11</title>
<path fill="none" stroke="midnightblue" d="M836.044,-175.592C847.252,-178.295 859.138,-181.473 870,-185 952.43,-211.767 974.901,-216.741 1050,-260 1077.2,-275.668 1105.51,-298.32 1123.41,-313.574"/>
<polygon fill="midnightblue" stroke="midnightblue" points="1121.46,-316.515 1131.32,-320.405 1126.04,-311.218 1121.46,-316.515"/>
</g>
<!-- Node21 -->
<g id="node21" class="node"><title>Node21</title>
<g id="a_node21"><a xlink:href="../../dc/d82/classPHNode.html#a5c15cb20d02290b69eb4d7f6051c9722" target="_top" xlink:title="PHNode::getParent">
<polygon fill="none" stroke="black" points="927.5,-156.5 927.5,-175.5 1028.5,-175.5 1028.5,-156.5 927.5,-156.5"/>
<text text-anchor="middle" x="978" y="-163.5" font-family="FreeSans" font-size="10.00">PHNode::getParent</text>
</a>
</g>
</g>
<!-- Node20&#45;&gt;Node21 -->
<g id="edge22" class="edge"><title>Node20&#45;&gt;Node21</title>
<path fill="none" stroke="midnightblue" d="M839.132,-166C863.004,-166 891.9,-166 917.058,-166"/>
<polygon fill="midnightblue" stroke="midnightblue" points="917.221,-169.5 927.221,-166 917.221,-162.5 917.221,-169.5"/>
</g>
<!-- Node22&#45;&gt;Node12 -->
<g id="edge26" class="edge"><title>Node22&#45;&gt;Node12</title>
<path fill="none" stroke="midnightblue" d="M853.049,-386C866.701,-386 881.324,-386 895.568,-386"/>
<polygon fill="midnightblue" stroke="midnightblue" points="895.853,-389.5 905.853,-386 895.853,-382.5 895.853,-389.5"/>
</g>
<!-- Node27 -->
<g id="node27" class="node"><title>Node27</title>
<g id="a_node27"><a xlink:href="../../d5/d88/PHMessage_8cc.html#a04070e856fed35b20952495249e0357f" target="_top" xlink:title="PHMessage">
<polygon fill="none" stroke="black" points="753.5,-118.5 753.5,-137.5 824.5,-137.5 824.5,-118.5 753.5,-118.5"/>
<text text-anchor="middle" x="789" y="-125.5" font-family="FreeSans" font-size="10.00">PHMessage</text>
</a>
</g>
</g>
<!-- Node26&#45;&gt;Node27 -->
<g id="edge32" class="edge"><title>Node26&#45;&gt;Node27</title>
<path fill="none" stroke="midnightblue" d="M634.145,-171.98C655.742,-163.988 683.148,-154.327 708,-147 719.332,-143.659 731.697,-140.493 743.244,-137.737"/>
<polygon fill="midnightblue" stroke="midnightblue" points="744.192,-141.11 753.134,-135.427 742.6,-134.293 744.192,-141.11"/>
</g>
<!-- Node28&#45;&gt;Node5 -->
<g id="edge37" class="edge"><title>Node28&#45;&gt;Node5</title>
<path fill="none" stroke="midnightblue" d="M462.014,-78.6179C488.264,-84.907 518.558,-92.1649 543.396,-98.1157"/>
<polygon fill="midnightblue" stroke="midnightblue" points="542.786,-101.569 553.327,-100.495 544.417,-94.7613 542.786,-101.569"/>
</g>
<!-- Node29 -->
<g id="node29" class="node"><title>Node29</title>
<g id="a_node29"><a xlink:href="../../d7/d4d/classPHNodeIOManager.html#a7f701a7b25803133c586853f87454a3a" target="_top" xlink:title="PHNodeIOManager::selectObject\lToRead">
<polygon fill="none" stroke="black" points="708.5,-30 708.5,-60 869.5,-60 869.5,-30 708.5,-30"/>
<text text-anchor="start" x="716.5" y="-48" font-family="FreeSans" font-size="10.00">PHNodeIOManager::selectObject</text>
<text text-anchor="middle" x="789" y="-37" font-family="FreeSans" font-size="10.00">ToRead</text>
</a>
</g>
</g>
<!-- Node28&#45;&gt;Node29 -->
<g id="edge34" class="edge"><title>Node28&#45;&gt;Node29</title>
<path fill="none" stroke="midnightblue" d="M462.321,-60.9894C525.831,-57.8713 625.731,-52.9667 698.15,-49.4112"/>
<polygon fill="midnightblue" stroke="midnightblue" points="698.364,-52.9051 708.18,-48.9188 698.02,-45.9135 698.364,-52.9051"/>
</g>
<!-- Node30 -->
<g id="node30" class="node"><title>Node30</title>
<g id="a_node30"><a xlink:href="../../d7/d0b/classFun4AllDstInputManager.html#a22bc575e2e8b3b72e67523a694acbf22" target="_top" xlink:title="Fun4AllDstInputManager\l::setSyncBranches">
<polygon fill="none" stroke="black" points="532,-8 532,-38 656,-38 656,-8 532,-8"/>
<text text-anchor="start" x="540" y="-26" font-family="FreeSans" font-size="10.00">Fun4AllDstInputManager</text>
<text text-anchor="middle" x="594" y="-15" font-family="FreeSans" font-size="10.00">::setSyncBranches</text>
</a>
</g>
</g>
<!-- Node28&#45;&gt;Node30 -->
<g id="edge35" class="edge"><title>Node28&#45;&gt;Node30</title>
<path fill="none" stroke="midnightblue" d="M462.014,-50.971C481.083,-46.899 502.285,-42.3714 521.98,-38.1658"/>
<polygon fill="midnightblue" stroke="midnightblue" points="522.767,-41.5767 531.815,-36.0654 521.305,-34.731 522.767,-41.5767"/>
</g>
<!-- Node30&#45;&gt;Node29 -->
<g id="edge36" class="edge"><title>Node30&#45;&gt;Node29</title>
<path fill="none" stroke="midnightblue" d="M656.066,-29.9609C669.396,-31.4804 683.774,-33.1193 697.964,-34.7368"/>
<polygon fill="midnightblue" stroke="midnightblue" points="697.914,-38.2537 708.246,-35.9088 698.707,-31.2987 697.914,-38.2537"/>
</g>
</g>
</svg>
